# Blender 4.0.0
# www.blender.org
o decimated_mesh
v -0.905062 1.334828 -0.350003
v -0.881255 1.321563 -0.366512
v -0.881269 1.319303 0.022471
v -0.904975 1.332344 0.056750
v -0.904729 1.348717 -0.379083
v -0.911645 1.358223 -0.352265
v -0.911958 1.358223 0.045154
v -0.881331 1.336601 -0.384242
v -0.911645 1.442205 -0.352265
v -0.909060 1.442206 0.057253
v -0.904954 1.442211 -0.379263
v -0.880641 1.329933 0.055937
v -0.881119 1.442225 -0.380542
v -0.896613 1.442179 0.057675
vn -0.9994 0.0336 0.0063
vn 0.9895 0.1403 0.0350
vn 1.0000 -0.0018 -0.0058
vn -0.6270 -0.7002 -0.3416
vn -0.9487 -0.2810 -0.1450
vn 0.4894 0.8720 0.0051
vn -0.4736 -0.6726 -0.5685
vn -0.0839 -0.9493 0.3031
vn -0.9706 -0.0000 -0.2406
vn -0.0536 0.0351 -0.9979
vn -0.9653 -0.2611 -0.0014
vn -1.0000 -0.0000 -0.0008
vn -0.9995 0.0307 0.0090
vn -1.0000 0.0011 -0.0000
vn 0.4878 0.8730 0.0052
vn -0.8889 -0.0351 0.4568
vn -0.9686 -0.0028 -0.2488
vn -0.0006 1.0000 0.0001
vn 0.0022 1.0000 -0.0000
vn -0.9626 -0.2709 -0.0008
vn -0.2165 -0.0024 -0.9763
vn 0.0323 -0.0109 0.9994
vn -0.0339 -0.0058 0.9994
vn 0.4876 0.8730 0.0051
vn -0.9983 0.0580 0.0003
vn -1.0000 0.0013 0.0014
vn -0.9654 -0.2608 -0.0008
vn -0.9626 -0.2710 -0.0014
vn 0.4895 0.8720 0.0052
vn 0.0022 1.0000 0.0002
vn -0.0006 1.0000 -0.0000
s 0
f 9//1 7//1 10//1
f 13//2 14//2 12//2
f 8//3 13//3 2//3
f 5//4 2//4 1//4
f 1//5 6//5 5//5
f 1//6 3//6 2//6
f 2//7 5//7 8//7
f 3//8 12//8 4//8
f 11//9 6//9 9//9
f 13//10 8//10 11//10
f 7//11 1//11 4//11
f 9//12 6//12 7//12
f 13//13 3//13 12//13
f 3//14 13//14 2//14
f 4//15 3//15 1//15
f 10//16 7//16 4//16
f 11//17 5//17 6//17
f 14//18 13//18 9//18
f 9//18 13//18 11//18
f 9//19 10//19 14//19
f 7//20 6//20 1//20
f 5//21 11//21 8//21
f 12//22 14//22 4//22
f 14//23 10//23 4//23
f 4//24 3//24 2//24
f 2//25 3//25 12//25
f 2//26 12//26 13//26
f 7//27 6//27 4//27
f 6//28 1//28 4//28
f 1//29 4//29 2//29
f 13//30 10//30 14//30
f 9//31 10//31 13//31
