# Blender 4.0.0
# www.blender.org
o decimated_mesh
v 0.533687 1.363329 -0.345451
v 0.509940 1.697974 -0.345673
v 0.558331 1.697974 -0.345673
v 0.516682 1.363357 0.058032
v 0.540004 1.697975 0.062053
v 0.552343 1.363359 0.054831
vn 0.9983 0.0358 0.0449
vn -0.0000 -0.0007 -1.0000
vn -0.9966 -0.0707 -0.0420
vn 0.0001 -1.0000 0.0001
vn 0.9962 -0.0734 -0.0464
vn -0.0000 1.0000 -0.0000
vn -0.9950 0.0685 0.0734
vn 0.0894 -0.0182 0.9958
s 0
f 6//1 3//1 5//1
f 1//2 2//2 3//2
f 4//3 2//3 1//3
f 4//4 1//4 6//4
f 6//5 1//5 3//5
f 3//6 2//6 5//6
f 4//7 5//7 2//7
f 4//8 6//8 5//8
