# Blender 4.0.0
# www.blender.org
o decimated_mesh
v -0.822645 1.730918 0.056419
v -0.822719 1.718068 0.055600
v -0.905106 1.729843 0.057298
v -0.897647 1.683364 0.058075
v -0.909106 1.683384 0.057587
v -0.911042 1.713084 0.045227
v -0.822645 1.686219 -0.359393
v -0.822645 1.730175 -0.359393
v -0.904670 1.728957 -0.359360
v -0.911658 1.683557 -0.358988
vn -0.9422 0.3350 -0.0017
vn -0.9883 0.1521 -0.0096
vn -0.0004 -0.0000 -1.0000
vn -0.0131 0.9999 -0.0018
vn 0.4212 -0.9043 0.0695
vn -0.9349 0.0827 0.3450
vn 0.0299 -0.9996 -0.0015
vn -0.0425 0.0099 0.9990
vn -0.9980 -0.0625 0.0061
vn -0.0043 -0.0075 -1.0000
vn -0.0148 0.9999 -0.0021
vn -1.0000 -0.0000 -0.0002
vn -1.0000 0.0057 -0.0000
vn -0.0018 -1.0000 -0.0004
vn -0.0235 -0.0205 -0.9995
vn -0.0115 0.0636 -0.9979
vn -1.0000 -0.0000 -0.0000
vn -1.0000 0.0058 -0.0006
vn 0.0104 0.0184 0.9998
vn 0.0624 -0.0638 0.9960
s 0
f 9//1 6//1 3//1
f 10//2 6//2 9//2
f 7//3 9//3 8//3
f 8//4 3//4 1//4
f 2//5 4//5 7//5
f 5//6 3//6 6//6
f 7//7 4//7 10//7
f 3//8 5//8 4//8
f 10//9 5//9 6//9
f 10//10 9//10 7//10
f 8//11 9//11 3//11
f 2//12 8//12 7//12
f 8//13 2//13 1//13
f 5//14 10//14 4//14
f 4//15 3//15 2//15
f 2//16 3//16 1//16
f 1//17 8//17 7//17
f 1//18 7//18 2//18
f 4//19 1//19 3//19
f 4//20 2//20 1//20
