# Blender 4.0.0
# www.blender.org
o decimated_mesh
v 0.823625 1.730698 -0.345673
v 0.823578 1.326393 -0.345675
v 0.000231 1.730698 -0.345673
v 0.823593 1.329711 -0.365366
v 0.000231 1.332307 -0.345969
v 0.823622 1.722707 -0.376642
v 0.000229 1.726166 -0.373269
v 0.000225 1.343631 -0.378798
v 0.823625 1.346765 -0.380677
vn -0.0023 0.0107 -0.9999
vn -0.0000 0.9868 -0.1621
vn -0.0070 -0.9861 -0.1661
vn -0.0000 0.0007 -1.0000
vn 0.0008 -0.6680 -0.7441
vn -0.0040 0.0145 -0.9999
vn 1.0000 -0.0000 -0.0001
vn 1.0000 -0.0013 0.0006
vn 1.0000 -0.0001 0.0013
vn 0.0030 0.9683 -0.2498
vn 0.0004 -0.0000 -1.0000
vn 1.0000 -0.0000 -0.0002
vn -0.0107 -0.9453 -0.3261
vn -0.0000 -0.0000 -1.0000
vn 0.0004 0.0007 -1.0000
s 0
f 8//1 6//1 9//1
f 1//2 7//2 3//2
f 2//3 5//3 4//3
f 1//4 5//4 3//4
f 4//5 8//5 9//5
f 8//6 7//6 6//6
f 9//7 6//7 1//7
f 4//8 9//8 2//8
f 1//9 2//9 9//9
f 1//10 6//10 7//10
f 2//11 5//11 1//11
f 5//7 7//7 3//7
f 8//12 7//12 5//12
f 5//13 8//13 4//13
f 3//14 1//14 2//14
f 8//7 7//7 3//7
f 8//12 3//12 5//12
f 5//15 3//15 2//15
