# Blender 4.0.0
# www.blender.org
o decimated_mesh
v -0.163490 1.366480 -0.344278
v -0.115838 1.366480 -0.344278
v -0.179065 1.708360 -0.344239
v -0.109408 1.708360 -0.344239
v -0.115185 1.708330 0.054851
v -0.156860 1.366468 0.055346
v -0.122610 1.366479 0.055848
v -0.172407 1.708299 0.050171
vn -0.0000 0.0001 -1.0000
vn -0.9988 -0.0452 0.0166
vn -0.0815 0.0114 0.9966
vn 0.9996 -0.0217 0.0169
vn -0.0000 1.0000 -0.0000
vn -0.0003 1.0000 -0.0000
vn -0.0006 1.0000 0.0001
vn -0.0000 1.0000 0.0002
vn -0.9988 -0.0455 0.0169
vn -0.0147 0.0032 0.9999
vn 0.9997 -0.0188 0.0145
vn -0.9988 -0.0452 0.0169
vn -0.9988 -0.0455 0.0166
vn -0.0000 1.0000 0.0001
vn -0.0006 1.0000 0.0002
s 0
f 1//1 4//1 2//1
f 8//2 1//2 6//2
f 6//3 5//3 8//3
f 2//4 5//4 7//4
f 1//5 7//5 2//5
f 6//6 7//6 1//6
f 1//1 3//1 4//1
f 5//7 4//7 8//7
f 4//8 3//8 8//8
f 8//9 3//9 1//9
f 6//10 7//10 5//10
f 2//11 4//11 5//11
f 8//12 3//12 6//12
f 3//13 1//13 6//13
f 1//5 6//5 2//5
f 2//6 6//6 7//6
f 4//14 3//14 5//14
f 3//15 8//15 5//15
