# Blender 4.0.0
# www.blender.org
o decimated_mesh
v -0.555772 1.366480 -0.344278
v -0.510801 1.366480 -0.344278
v -0.575664 1.708360 -0.344278
v -0.491313 1.708360 -0.344278
v -0.564728 1.708311 0.049281
v -0.549484 1.366472 0.056787
v -0.506744 1.708220 0.058364
v -0.519070 1.366453 0.058432
vn -0.0000 -0.0000 -1.0000
vn -0.9977 0.0569 -0.0382
vn -0.9989 -0.0442 0.0157
vn -0.0540 0.0021 0.9985
vn -0.9991 0.0360 -0.0205
vn -0.9979 -0.0581 0.0277
vn -0.0000 -1.0000 -0.0001
vn -0.0006 -1.0000 -0.0000
vn -0.0000 1.0000 0.0003
vn 0.0016 1.0000 0.0001
vn -0.1547 0.0148 0.9878
vn -0.9982 0.0569 -0.0205
vn -0.9986 0.0360 -0.0383
vn 0.0015 1.0000 0.0004
vn -0.9986 -0.0439 0.0277
vn -0.9982 -0.0581 0.0156
vn -0.0000 1.0000 0.0001
s 0
f 4//1 1//1 3//1
f 7//2 4//2 2//2
f 5//3 1//3 6//3
f 7//4 6//4 8//4
f 4//1 2//1 1//1
f 7//5 2//5 8//5
f 5//6 3//6 1//6
f 1//7 2//7 8//7
f 6//8 1//8 8//8
f 7//9 4//9 3//9
f 3//10 5//10 7//10
f 7//11 5//11 6//11
f 2//12 8//12 4//12
f 4//13 8//13 7//13
f 4//14 5//14 7//14
f 5//15 3//15 6//15
f 3//16 1//16 6//16
f 3//1 4//1 2//1
f 3//1 2//1 1//1
f 3//17 5//17 4//17
