# Blender 4.0.0
# www.blender.org
o decimated_mesh
v 0.000150 1.730738 -0.344282
v 0.000149 1.332196 -0.344880
v -0.822598 1.730738 -0.344282
v 0.000157 1.724880 -0.375922
v -0.906828 1.729572 -0.360025
v -0.881232 1.362903 -0.348165
v -0.822251 1.328232 -0.344847
v 0.000152 1.344324 -0.378889
v -0.910193 1.442275 -0.359398
v -0.881179 1.363133 -0.382022
v -0.822374 1.339105 -0.375240
v -0.903624 1.714739 -0.378853
v -0.904271 1.441293 -0.379843
vn 1.0000 -0.0000 0.0002
vn -0.5065 -0.8622 -0.0067
vn -0.9603 0.0106 -0.2787
vn -0.9854 0.0029 -0.1700
vn -0.3470 0.0061 0.9378
vn -0.9392 -0.3432 -0.0038
vn -0.0068 0.7849 -0.6195
vn -0.9289 -0.2673 -0.2562
vn -0.3272 -0.8902 -0.3171
vn -0.0045 0.9419 0.3359
vn -0.0000 0.0015 -1.0000
vn 1.0000 -0.0000 0.0001
vn -0.1839 0.0189 0.9828
vn -0.0812 0.0038 -0.9967
vn 0.0031 0.0092 -1.0000
vn 0.0037 0.0078 -1.0000
vn -0.0000 0.9833 -0.1821
vn 0.0035 0.9957 -0.0926
vn -0.0045 0.9415 0.3369
vn -0.0570 -0.0015 0.9984
vn -0.0000 0.0014 -1.0000
vn -0.0025 -0.2773 -0.9608
vn 0.0019 0.9833 -0.1820
vn -0.0000 0.9973 -0.0739
vn -0.9843 0.0111 -0.1763
vn -0.9605 0.0033 -0.2784
s 0
f 1//1 2//1 4//1
f 7//2 6//2 10//2
f 9//3 5//3 13//3
f 13//4 5//4 12//4
f 5//5 9//5 6//5
f 6//6 9//6 10//6
f 4//7 12//7 5//7
f 9//8 13//8 10//8
f 10//9 11//9 7//9
f 2//10 8//10 11//10
f 2//11 3//11 1//11
f 8//12 4//12 2//12
f 5//13 6//13 3//13
f 13//14 12//14 10//14
f 12//15 4//15 10//15
f 4//16 8//16 10//16
f 3//17 1//17 4//17
f 4//18 5//18 3//18
f 2//19 11//19 7//19
f 6//20 7//20 3//20
f 7//21 3//21 2//21
f 10//22 8//22 11//22
f 7//11 1//11 2//11
f 4//23 5//23 1//23
f 5//24 3//24 1//24
f 3//21 1//21 7//21
f 11//19 7//19 8//19
f 8//10 7//10 2//10
f 12//25 9//25 5//25
f 13//26 9//26 12//26
