# Blender 4.0.0
# www.blender.org
o decimated_mesh
v -0.858190 0.718929 -0.129944
v -0.843806 0.719139 -0.139121
v -0.858180 0.057454 -0.135809
v -0.843608 0.057434 -0.142407
v -0.873524 0.718931 -0.139471
v -0.869385 0.057454 -0.140254
v -0.876355 0.057454 -0.162055
v -0.839622 0.718929 -0.399560
v -0.875959 0.057455 -0.398624
v -0.840740 0.057456 -0.399193
v -0.822512 0.555794 -0.386586
v -0.876268 0.718929 -0.401279
v -0.867271 0.057454 -0.417741
v -0.869757 0.718929 -0.421294
v -0.849851 0.719129 -0.424288
v -0.822380 0.699901 -0.383239
v -0.847754 0.057454 -0.416964
vn 0.4125 -0.0081 0.9109
vn 0.5379 -0.0040 0.8430
vn -0.5277 -0.0043 0.8494
vn -0.9999 0.0039 0.0105
vn 0.0011 1.0000 -0.0007
vn 0.0398 -0.0109 -0.9991
vn -0.0071 0.9999 0.0117
vn 0.8336 0.0121 -0.5522
vn 0.8232 0.4570 -0.3368
vn -0.9510 -0.0017 -0.3093
vn -0.9104 -0.0056 -0.4137
vn 0.9299 -0.0247 -0.3670
vn -0.1487 -0.0059 -0.9889
vn 0.7362 0.6767 0.0113
vn -1.0000 -0.0005 -0.0017
vn -0.3687 -0.0082 0.9295
vn -0.0000 1.0000 -0.0001
vn -0.0000 1.0000 0.0001
vn -0.0006 -1.0000 -0.0000
vn -0.0000 1.0000 -0.0000
vn -0.0000 1.0000 -0.0008
vn -0.0070 1.0000 0.0001
vn -0.0004 1.0000 0.0082
vn -0.0106 0.9999 -0.0034
vn 0.8011 -0.0041 -0.5986
vn -0.9525 -0.0063 0.3045
vn 0.9993 -0.0368 0.0112
vn -0.9961 0.0030 -0.0877
vn -0.9963 0.0001 -0.0858
vn -0.0075 1.0000 0.0001
vn -0.9962 0.0001 -0.0874
vn 0.0207 0.9998 -0.0005
vn 0.0008 1.0000 -0.0002
vn 0.0006 1.0000 -0.0016
vn -0.0004 1.0000 0.0001
vn -0.9968 0.0028 -0.0804
vn 0.0002 1.0000 0.0001
s 0
f 1//1 3//1 4//1
f 1//2 4//2 2//2
f 1//3 5//3 6//3
f 12//4 7//4 5//4
f 3//5 4//5 7//5
f 13//6 15//6 17//6
f 1//7 2//7 5//7
f 11//8 15//8 16//8
f 8//9 16//9 15//9
f 9//10 12//10 14//10
f 9//11 14//11 13//11
f 10//12 17//12 11//12
f 13//13 14//13 15//13
f 8//14 2//14 16//14
f 12//15 9//15 7//15
f 1//16 6//16 3//16
f 13//17 10//17 17//17
f 10//18 9//18 4//18
f 9//19 4//19 7//19
f 3//20 7//20 6//20
f 9//17 10//17 13//17
f 2//21 8//21 12//21
f 5//22 2//22 12//22
f 8//23 15//23 12//23
f 15//24 14//24 12//24
f 11//25 17//25 15//25
f 5//26 7//26 6//26
f 4//27 10//27 11//27
f 16//28 11//28 2//28
f 2//29 11//29 4//29
f 15//30 12//30 2//30
f 4//31 2//31 16//31
f 8//32 15//32 2//32
f 7//33 6//33 4//33
f 4//34 6//34 3//34
f 13//18 4//18 17//18
f 17//35 4//35 10//35
f 11//36 4//36 16//36
f 9//37 4//37 13//37
