# Blender 4.0.0
# www.blender.org
o decimated_mesh
v 0.000231 1.333318 -0.345633
v 0.001178 1.358718 -0.345668
v 0.823625 1.326384 -0.345633
v 0.823625 1.356825 -0.345633
v 0.823626 1.329443 0.055141
v 0.000310 1.342072 0.055964
v 0.537661 1.363367 0.060541
v 0.823624 1.350208 0.055018
vn 1.0000 0.0001 -0.0000
vn -0.0153 -0.9996 0.0218
vn -0.0399 0.9983 0.0413
vn 1.0000 -0.0000 -0.0000
vn -0.9993 0.0373 -0.0006
vn -0.0084 -0.9999 0.0076
vn 0.0463 0.9988 0.0165
vn 0.0023 0.9999 -0.0145
vn -0.0000 -0.0000 -1.0000
vn -0.0000 -0.0014 -1.0000
vn 0.0196 0.0059 0.9998
vn -0.0016 -0.1706 0.9853
s 0
f 8//1 5//1 4//1
f 1//2 5//2 6//2
f 6//3 7//3 2//3
f 5//4 3//4 4//4
f 6//5 2//5 1//5
f 1//6 3//6 5//6
f 8//7 4//7 7//7
f 4//8 2//8 7//8
f 2//9 4//9 3//9
f 3//10 1//10 2//10
f 5//11 8//11 7//11
f 5//12 7//12 6//12
