# Blender 4.0.0
# www.blender.org
o Desk_310_1_DeskMesh_0_collision_2
v -0.822645 0.702071 -0.370370
v -0.822645 0.700452 -0.380265
v -0.822645 0.700669 -0.359308
v 0.785242 0.699851 -0.360023
v 0.785242 0.700519 -0.370366
v 0.785242 0.699451 -0.379766
v 0.785242 0.699401 -0.380132
v -0.822645 0.700302 -0.380994
v -0.822645 0.689706 -0.354955
v 0.785242 0.689706 -0.355920
v 0.785242 0.690090 -0.383249
v -0.822645 0.690407 -0.384594
v -0.822645 0.671651 -0.352403
v 0.785242 0.671651 -0.353135
v 0.785242 0.689039 -0.355814
v 0.785242 0.689706 -0.383375
v -0.822645 0.689706 -0.384785
v -0.822645 0.670833 -0.352400
v 0.785242 0.563288 -0.353135
v -0.822645 0.653579 -0.352358
v 0.785242 0.671651 -0.385887
v -0.822645 0.672452 -0.387173
v 0.785242 0.545199 -0.355048
v -0.822645 0.581343 -0.352358
v -0.822645 0.563288 -0.352403
v -0.822645 0.562487 -0.352444
v 0.785242 0.563288 -0.385887
v -0.822645 0.653579 -0.387314
v -0.822645 0.671651 -0.387235
v 0.785242 0.534220 -0.359150
v -0.822645 0.545216 -0.354281
v -0.822645 0.544499 -0.354480
v 0.785242 0.545199 -0.384152
v -0.822645 0.563288 -0.387269
v -0.822645 0.564089 -0.387273
v -0.822645 0.581343 -0.387314
v 0.785242 0.532768 -0.370366
v -0.822645 0.533602 -0.358641
v -0.822645 0.533435 -0.359386
v -0.822645 0.531616 -0.370370
v 0.785242 0.534754 -0.380908
v -0.822645 0.545216 -0.385422
v -0.822645 0.531750 -0.371078
v -0.822645 0.534019 -0.381603
vn -1.0000 -0.0011 -0.0000
vn -1.0000 -0.0000 -0.0000
vn -1.0000 -0.0001 -0.0000
vn 0.0006 0.9921 0.1257
vn 0.0010 0.9979 0.0644
vn 0.0010 0.9936 -0.1129
vn 0.0008 0.9908 -0.1352
vn 0.0007 0.9869 -0.1614
vn 0.0007 0.9795 -0.2017
vn 0.0006 0.3690 0.9294
vn 0.0006 0.3749 0.9271
vn 1.0000 0.0001 -0.0000
vn 1.0000 -0.0000 -0.0000
vn 1.0000 -0.0012 -0.0000
vn 1.0000 -0.0001 -0.0000
vn 0.0009 0.3174 -0.9483
vn 0.0007 0.3419 -0.9398
vn 0.0005 0.1400 0.9902
vn 0.0006 0.1523 0.9883
vn 0.0006 0.1570 0.9876
vn 0.0009 0.3132 -0.9497
vn 0.0008 0.2638 -0.9646
vn 0.0005 0.0042 1.0000
vn 0.0005 0.0024 1.0000
vn 0.0005 -0.0000 1.0000
vn 0.0009 0.1378 -0.9905
vn 0.0009 0.1371 -0.9906
vn 0.0005 -0.0025 1.0000
vn 0.0005 -0.0512 0.9987
vn 0.0005 -0.1052 0.9945
vn 0.0009 -0.0000 -1.0000
vn 0.0008 0.0044 -1.0000
vn 0.0008 0.0767 -0.9971
vn 0.0005 -0.1058 0.9944
vn 0.0005 -0.2666 0.9638
vn 0.0005 -0.3500 0.9367
vn 0.0009 -0.0955 -0.9954
vn 0.0009 -0.0043 -1.0000
vn 0.0009 -0.0024 -1.0000
vn 0.0004 -0.3567 0.9342
vn 0.0004 -0.9759 0.2184
vn 0.0005 -0.9866 0.1634
vn 0.0007 -0.9917 0.1284
vn 0.0008 -0.2966 -0.9550
vn 0.0008 -0.1017 -0.9948
vn 0.0007 -0.9827 -0.1851
vn 0.0005 -0.9775 -0.2108
vn 0.0006 -0.3228 -0.9465
s 0
f 1//1 2//1 8//1
f 1//2 8//2 12//2
f 1//3 12//3 17//3
f 1//2 17//2 22//2
f 1//2 22//2 29//2
f 1//2 29//2 28//2
f 1//2 28//2 36//2
f 1//2 36//2 35//2
f 1//2 35//2 34//2
f 1//2 34//2 42//2
f 1//2 42//2 44//2
f 1//2 44//2 43//2
f 1//2 43//2 40//2
f 1//2 40//2 39//2
f 1//2 39//2 38//2
f 1//2 38//2 32//2
f 1//2 32//2 31//2
f 1//2 31//2 26//2
f 1//3 26//3 25//3
f 1//2 25//2 24//2
f 1//2 24//2 20//2
f 1//2 20//2 18//2
f 1//2 18//2 13//2
f 1//2 13//2 9//2
f 1//2 9//2 3//2
f 1//4 3//4 4//4
f 1//5 4//5 5//5
f 1//6 5//6 6//6
f 1//7 6//7 7//7
f 1//8 7//8 2//8
f 2//9 7//9 8//9
f 3//10 9//10 10//10
f 3//11 10//11 4//11
f 4//12 10//12 15//12
f 4//13 15//13 14//13
f 4//13 14//13 19//13
f 4//13 19//13 23//13
f 4//13 23//13 30//13
f 4//13 30//13 37//13
f 4//13 37//13 41//13
f 4//13 41//13 33//13
f 4//13 33//13 27//13
f 4//13 27//13 21//13
f 4//13 21//13 16//13
f 4//12 16//12 11//12
f 4//13 11//13 7//13
f 4//14 7//14 6//14
f 4//15 6//15 5//15
f 7//16 11//16 12//16
f 7//17 12//17 8//17
f 9//18 13//18 14//18
f 9//19 14//19 15//19
f 9//20 15//20 10//20
f 11//21 16//21 12//21
f 12//22 16//22 17//22
f 13//23 18//23 14//23
f 14//24 18//24 20//24
f 14//25 20//25 24//25
f 14//25 24//25 19//25
f 16//26 21//26 17//26
f 17//27 21//27 22//27
f 19//28 24//28 25//28
f 19//29 25//29 26//29
f 19//30 26//30 23//30
f 21//31 27//31 36//31
f 21//31 36//31 28//31
f 21//32 28//32 29//32
f 21//33 29//33 22//33
f 23//34 26//34 31//34
f 23//35 31//35 32//35
f 23//36 32//36 30//36
f 27//37 33//37 34//37
f 27//38 34//38 35//38
f 27//39 35//39 36//39
f 30//40 32//40 38//40
f 30//41 38//41 39//41
f 30//42 39//42 40//42
f 30//43 40//43 37//43
f 33//44 41//44 42//44
f 33//45 42//45 34//45
f 37//46 40//46 41//46
f 40//46 43//46 41//46
f 41//47 43//47 44//47
f 41//48 44//48 42//48
