# Blender 4.0.0
# www.blender.org
o Desk_310_1_DeskMesh_0_collision_21
v 0.785242 0.532783 -0.370366
v 0.834208 0.523322 -0.370569
v 0.834208 0.523303 -0.370366
v 0.785242 0.534219 -0.359151
v 0.785242 0.534734 -0.380904
v 0.834208 0.527831 -0.387765
v 0.834208 0.527721 -0.352871
v 0.785242 0.545208 -0.355051
v 0.785242 0.545208 -0.384148
v 0.834208 0.528605 -0.388055
v 0.834208 0.545227 -0.347591
v 0.785242 0.562603 -0.353208
v 0.785242 0.563284 -0.385885
v 0.834208 0.545447 -0.392976
v 0.834208 0.545227 -0.392953
v 0.834208 0.563284 -0.346794
v 0.785242 0.563284 -0.353139
v 0.834208 0.581361 -0.393810
v 0.834208 0.563284 -0.393759
v 0.785242 0.671650 -0.385885
v 0.834208 0.581177 -0.346748
v 0.785242 0.671650 -0.353139
v 0.834208 0.653574 -0.393810
v 0.785242 0.689708 -0.383369
v 0.834208 0.689708 -0.392750
v 0.834208 0.671650 -0.393718
v 0.834208 0.653574 -0.346748
v 0.834208 0.671650 -0.346835
v 0.834208 0.689468 -0.347761
v 0.834208 0.689708 -0.347789
v 0.785242 0.689708 -0.355922
v 0.785242 0.690094 -0.383249
v 0.834208 0.706937 -0.387608
v 0.834208 0.706771 -0.387659
v 0.834208 0.706109 -0.352655
v 0.834208 0.706274 -0.352705
v 0.785242 0.699850 -0.360022
v 0.785242 0.699390 -0.380130
v 0.834208 0.711318 -0.370366
v 0.834208 0.707048 -0.353028
v 0.834208 0.711281 -0.370187
v 0.785242 0.700513 -0.370366
v 0.785242 0.699445 -0.379766
vn -0.1894 -0.9779 -0.0885
vn -0.1886 -0.9741 0.1247
vn -1.0000 -0.0000 -0.0000
vn -1.0000 0.0001 -0.0000
vn -0.1874 -0.9659 -0.1788
vn 1.0000 -0.0000 -0.0000
vn 1.0000 0.0001 -0.0000
vn 1.0000 -0.0001 -0.0000
vn -0.1694 -0.9533 -0.2500
vn -0.1581 -0.9574 0.2417
vn -0.1643 -0.3449 0.9242
vn -0.1739 -0.2913 -0.9407
vn -0.1778 -0.3459 -0.9213
vn -0.1442 -0.2858 0.9474
vn -0.1498 -0.1042 0.9832
vn -0.1762 -0.0942 -0.9798
vn -0.1761 -0.1021 -0.9791
vn -0.1699 -0.2785 -0.9453
vn -0.1284 -0.0437 0.9908
vn -0.1483 -0.0998 0.9839
vn -0.1588 -0.0028 -0.9873
vn -0.1586 -0.0433 -0.9864
vn -0.1598 -0.0000 -0.9872
vn -0.1285 -0.0026 0.9917
vn -0.1294 -0.0000 0.9916
vn -0.1864 0.1356 -0.9731
vn -0.1577 0.0528 -0.9861
vn -0.1580 0.0050 -0.9874
vn -0.1277 0.0048 0.9918
vn -0.1275 0.0515 0.9905
vn -0.1492 0.1134 0.9823
vn -0.1620 0.1503 0.9753
vn -0.1837 0.2911 -0.9389
vn -0.1826 0.2876 -0.9402
vn -0.1806 0.2812 -0.9425
vn -0.1572 0.2809 0.9468
vn -0.1598 0.2890 0.9439
vn -0.1845 0.3684 0.9112
vn -0.1903 0.3123 -0.9307
vn -0.1838 0.9527 -0.2421
vn -0.1852 0.3784 0.9070
vn -0.1742 0.9560 0.2359
vn -0.1839 0.9631 0.1965
vn -0.2151 0.9746 0.0624
vn -0.2064 0.9674 -0.1468
vn -0.2142 0.9706 -0.1102
s 0
f 1//1 2//1 3//1
f 1//2 3//2 4//2
f 1//3 4//3 8//3
f 1//3 8//3 12//3
f 1//4 12//4 17//4
f 1//3 17//3 22//3
f 1//3 22//3 31//3
f 1//3 31//3 37//3
f 1//3 37//3 42//3
f 1//3 42//3 43//3
f 1//3 43//3 38//3
f 1//3 38//3 32//3
f 1//3 32//3 24//3
f 1//3 24//3 20//3
f 1//3 20//3 13//3
f 1//3 13//3 9//3
f 1//3 9//3 5//3
f 1//5 5//5 2//5
f 2//6 6//6 10//6
f 2//6 10//6 15//6
f 2//7 15//7 14//7
f 2//6 14//6 19//6
f 2//6 19//6 18//6
f 2//6 18//6 23//6
f 2//6 23//6 26//6
f 2//6 26//6 25//6
f 2//6 25//6 34//6
f 2//7 34//7 33//7
f 2//6 33//6 39//6
f 2//6 39//6 41//6
f 2//6 41//6 40//6
f 2//6 40//6 36//6
f 2//8 36//8 35//8
f 2//6 35//6 30//6
f 2//8 30//8 29//8
f 2//6 29//6 28//6
f 2//6 28//6 27//6
f 2//6 27//6 21//6
f 2//6 21//6 16//6
f 2//6 16//6 11//6
f 2//6 11//6 7//6
f 2//6 7//6 3//6
f 2//9 5//9 6//9
f 3//10 7//10 4//10
f 4//11 7//11 8//11
f 5//12 9//12 10//12
f 5//13 10//13 6//13
f 7//14 11//14 8//14
f 8//15 11//15 12//15
f 9//16 13//16 14//16
f 9//17 14//17 15//17
f 9//18 15//18 10//18
f 11//19 16//19 17//19
f 11//20 17//20 12//20
f 13//21 18//21 19//21
f 13//22 19//22 14//22
f 13//23 20//23 23//23
f 13//23 23//23 18//23
f 16//24 21//24 17//24
f 17//25 21//25 27//25
f 17//25 27//25 22//25
f 20//26 24//26 25//26
f 20//27 25//27 26//27
f 20//28 26//28 23//28
f 22//29 27//29 28//29
f 22//30 28//30 29//30
f 22//31 29//31 30//31
f 22//32 30//32 31//32
f 24//33 32//33 33//33
f 24//34 33//34 34//34
f 24//35 34//35 25//35
f 30//36 35//36 31//36
f 31//37 35//37 36//37
f 31//38 36//38 37//38
f 32//39 38//39 33//39
f 33//40 38//40 39//40
f 36//41 40//41 37//41
f 37//42 40//42 41//42
f 37//43 41//43 39//43
f 37//44 39//44 42//44
f 38//45 43//45 39//45
f 39//46 43//46 42//46
