# Blender 4.0.0
# www.blender.org
o decimated_mesh
v 0.865142 0.057430 -0.136504
v 0.846392 0.057428 -0.139871
v 0.869335 0.689339 -0.144591
v 0.843419 0.689338 -0.145135
v 0.838858 0.057427 -0.162223
v 0.874691 0.057428 -0.160181
v 0.873229 0.689338 -0.399313
v 0.869236 0.057425 -0.416216
v 0.844225 0.057425 -0.414944
v 0.848383 0.689338 -0.416398
v 0.865605 0.689337 -0.415111
v 0.833942 0.689334 -0.393206
vn -0.1767 0.0074 0.9842
vn -0.9476 -0.0018 0.3194
vn -0.0210 0.0129 0.9997
vn 0.9998 -0.0057 -0.0213
vn -0.0508 -0.0020 -0.9987
vn 0.0745 0.0022 -0.9972
vn -0.0000 1.0000 -0.0000
vn -0.0000 1.0000 -0.0001
vn -0.0001 1.0000 -0.0000
vn 0.9274 -0.0014 0.3740
vn -0.0001 1.0000 0.0001
vn -0.8489 0.0044 -0.5286
vn 0.9999 0.0081 0.0153
vn 0.9006 0.0059 -0.4346
vn -0.9997 -0.0155 -0.0212
vn -0.9993 0.0062 0.0382
vn -0.0001 1.0000 -0.0001
s 0
f 1//1 4//1 2//1
f 2//2 4//2 5//2
f 3//3 4//3 1//3
f 7//4 6//4 8//4
f 9//5 10//5 8//5
f 10//6 11//6 8//6
f 5//7 6//7 9//7
f 6//7 8//7 9//7
f 5//8 1//8 6//8
f 1//9 5//9 2//9
f 3//10 1//10 6//10
f 3//7 7//7 4//7
f 7//7 11//7 10//7
f 7//11 10//11 12//11
f 12//9 4//9 7//9
f 10//12 9//12 12//12
f 7//13 3//13 6//13
f 11//14 7//14 8//14
f 9//15 5//15 12//15
f 5//16 4//16 12//16
f 2//9 9//9 5//9
f 2//7 8//7 9//7
f 2//7 6//7 8//7
f 2//17 1//17 6//17
