# Blender 4.0.0
# www.blender.org
o Desk_310_1_DeskMesh_0_collision_4
v 0.858190 0.721868 -0.044919
v 0.843507 0.727586 -0.044919
v 0.870758 0.729190 -0.044919
v 0.858190 0.721868 0.406495
v 0.837853 0.743940 -0.044919
v 0.843507 0.727586 0.406495
v 0.874247 0.743737 -0.044919
v 0.870758 0.729190 0.406495
v 0.869581 0.731093 0.421271
v 0.859236 0.729128 0.426196
v 0.845840 0.730538 0.424554
v 0.837853 0.780065 -0.044919
v 0.837853 0.743940 0.406495
v 0.874293 0.743940 -0.044919
v 0.874293 0.743940 0.406495
v 0.870758 0.743940 0.424132
v 0.865318 0.743940 0.433184
v 0.853913 0.733957 0.434029
v 0.848502 0.733957 0.434029
v 0.842519 0.743940 0.424554
v 0.840054 0.798128 -0.044919
v 0.837853 0.780066 0.406495
v 0.874293 0.780065 -0.044919
v 0.874293 0.780066 0.406495
v 0.870758 0.780066 0.424132
v 0.865318 0.780066 0.433184
v 0.856286 0.743940 0.434216
v 0.848170 0.743940 0.434216
v 0.842519 0.780066 0.424554
v 0.845708 0.810006 -0.044919
v 0.840054 0.798128 0.406495
v 0.872674 0.797890 -0.044919
v 0.872649 0.798128 0.406495
v 0.869938 0.798128 0.422537
v 0.853913 0.792445 0.434029
v 0.856286 0.780066 0.434216
v 0.859236 0.798331 0.431402
v 0.848170 0.780066 0.434216
v 0.848502 0.792445 0.434029
v 0.845123 0.798331 0.425773
v 0.858190 0.811882 -0.044919
v 0.845708 0.809900 0.406495
v 0.846861 0.808993 0.420567
v 0.872649 0.798128 -0.044919
v 0.869114 0.808984 0.406495
v 0.868486 0.808376 0.419160
v 0.869164 0.808896 -0.044919
v 0.858190 0.809442 0.422021
v 0.868967 0.809081 -0.044919
v 0.858190 0.811724 0.406495
v 0.869114 0.809036 -0.044919
vn -0.0000 -0.0000 -1.0000
vn 0.5034 -0.8641 -0.0000
vn -0.3629 -0.9318 -0.0000
vn -0.9451 -0.3268 -0.0000
vn 0.9724 -0.2332 -0.0000
vn 0.4977 -0.8543 0.1497
vn 0.3189 -0.8947 0.3128
vn -0.1403 -0.9266 0.3489
vn -0.3559 -0.9139 0.1954
vn -1.0000 -0.0000 -0.0000
vn -0.9309 -0.3219 0.1729
vn 0.9748 -0.2229 -0.0000
vn 0.9725 -0.2331 -0.0000
vn 0.9669 -0.2317 0.1069
vn 0.8416 -0.1898 0.5057
vn 0.4902 -0.4996 0.7142
vn 0.4329 -0.6058 0.6675
vn 0.9719 -0.1325 0.1948
vn -0.0000 -0.8513 0.5247
vn -0.1421 -0.9177 0.3710
vn -0.9134 -0.2264 0.3382
vn -0.9415 -0.2333 0.2433
vn -0.9927 0.1210 -0.0000
vn -0.9682 -0.0000 0.2502
vn 1.0000 -0.0000 -0.0000
vn 0.9805 -0.0000 0.1965
vn 0.8571 -0.0000 0.5151
vn 0.1135 -0.0000 0.9935
vn 0.1134 -0.0456 0.9925
vn -0.0000 -0.0188 0.9998
vn -0.8626 -0.0381 0.5045
vn -0.8632 -0.0000 0.5048
vn -0.9029 0.4298 -0.0000
vn -0.9615 0.1172 0.2484
vn 0.9959 0.0905 -0.0000
vn 0.9821 0.0894 0.1660
vn 0.9786 0.0618 0.1962
vn 0.9959 0.0907 -0.0000
vn 0.8541 0.0841 0.5133
vn 0.1134 0.0368 0.9929
vn 0.6160 0.2771 0.7374
vn 0.2668 0.1812 0.9466
vn -0.0000 -0.0000 1.0000
vn -0.8628 0.0308 0.5046
vn -0.8945 0.0984 0.4362
vn -0.9604 0.1202 0.2513
vn -0.9014 0.4330 0.0001
vn -0.1487 0.9889 0.0002
vn -0.9319 0.2701 0.2422
vn -0.8968 0.4307 0.1012
vn 0.9945 0.1049 -0.0000
vn 0.9490 0.3091 0.0619
vn 0.9679 0.1910 0.1636
vn 0.9514 0.3080 -0.0000
vn 0.9508 0.3097 -0.0000
vn 0.6069 0.3250 0.7253
vn -0.0000 0.4075 0.9132
vn -0.0000 0.0152 0.9999
vn 0.2670 0.6362 0.7238
vn -0.1232 0.6334 0.7639
vn -0.1479 0.6153 0.7743
vn -0.7144 0.3976 0.5758
vn -0.1446 0.9895 0.0003
vn 0.2433 0.9699 0.0003
vn 0.2516 0.9678 0.0001
vn -0.1442 0.9867 0.0754
vn -0.0578 0.9877 0.1452
vn 0.2429 0.9683 0.0585
vn 0.9427 0.3338 -0.0000
vn 0.2883 0.9575 0.0001
vn 0.1414 0.9794 0.1440
s 0
f 1//1 2//1 5//1
f 1//1 5//1 12//1
f 1//1 12//1 21//1
f 1//1 21//1 30//1
f 1//1 30//1 41//1
f 1//1 41//1 49//1
f 1//1 49//1 51//1
f 1//1 51//1 47//1
f 1//1 47//1 44//1
f 1//1 44//1 32//1
f 1//1 32//1 23//1
f 1//1 23//1 14//1
f 1//1 14//1 7//1
f 1//1 7//1 3//1
f 1//2 3//2 8//2
f 1//2 8//2 4//2
f 1//3 4//3 6//3
f 1//3 6//3 2//3
f 2//4 6//4 13//4
f 2//4 13//4 5//4
f 3//5 7//5 8//5
f 4//6 8//6 9//6
f 4//7 9//7 10//7
f 4//8 10//8 11//8
f 4//9 11//9 6//9
f 5//10 13//10 22//10
f 5//10 22//10 12//10
f 6//11 11//11 13//11
f 7//12 14//12 15//12
f 7//13 15//13 8//13
f 8//14 15//14 9//14
f 9//15 16//15 17//15
f 9//16 17//16 18//16
f 9//17 18//17 10//17
f 9//18 15//18 16//18
f 10//19 18//19 19//19
f 10//20 19//20 11//20
f 11//21 19//21 20//21
f 11//22 20//22 13//22
f 12//23 22//23 31//23
f 12//23 31//23 21//23
f 13//24 20//24 29//24
f 13//24 29//24 22//24
f 14//25 23//25 24//25
f 14//25 24//25 15//25
f 15//26 24//26 25//26
f 15//26 25//26 16//26
f 16//27 25//27 26//27
f 16//27 26//27 17//27
f 17//28 26//28 36//28
f 17//28 36//28 27//28
f 17//29 27//29 18//29
f 18//30 27//30 28//30
f 18//30 28//30 19//30
f 19//31 28//31 20//31
f 20//32 28//32 38//32
f 20//32 38//32 29//32
f 21//33 31//33 30//33
f 22//34 29//34 31//34
f 23//35 32//35 24//35
f 24//36 33//36 34//36
f 24//37 34//37 25//37
f 24//38 32//38 33//38
f 25//39 34//39 26//39
f 26//40 35//40 36//40
f 26//41 34//41 37//41
f 26//42 37//42 35//42
f 27//43 36//43 38//43
f 27//43 38//43 28//43
f 29//44 38//44 39//44
f 29//45 39//45 40//45
f 29//46 40//46 31//46
f 30//47 31//47 42//47
f 30//48 42//48 41//48
f 31//49 40//49 43//49
f 31//50 43//50 42//50
f 32//51 44//51 33//51
f 33//52 45//52 46//52
f 33//53 46//53 34//53
f 33//54 44//54 47//54
f 33//55 47//55 45//55
f 34//56 46//56 37//56
f 35//57 37//57 39//57
f 35//58 39//58 38//58
f 35//58 38//58 36//58
f 37//59 46//59 48//59
f 37//60 48//60 43//60
f 37//61 43//61 39//61
f 39//62 43//62 40//62
f 41//63 42//63 50//63
f 41//64 50//64 45//64
f 41//65 45//65 49//65
f 42//66 43//66 50//66
f 43//67 48//67 50//67
f 45//68 50//68 46//68
f 45//69 47//69 51//69
f 45//70 51//70 49//70
f 46//71 50//71 48//71
