mtllib material.mtl
usemtl material_0
v 0.28069140 -0.00666230 -0.15954560
v 0.41601260 -0.00666230 0.15954560
v 0.41601260 -0.00666230 -0.15954560
v 0.28069140 -0.00666230 0.15954560
v 0.23471740 -0.01123263 0.15954560
v 0.23471740 -0.01123263 -0.15954560
v 0.18874340 -0.01998679 0.15954560
v 0.18874340 -0.01998679 -0.15954560
v 0.14276940 -0.02735216 -0.15954560
v 0.14276940 -0.02720012 0.15954560
v 0.10711770 -0.03004956 0.15954560
v 0.10711770 -0.03089779 -0.15954560
v 0.07146586 -0.02914320 0.15954560
v 0.07146586 -0.02914320 -0.15954560
v 0.03581417 -0.02349057 0.15954560
v 0.03581417 -0.02349057 -0.15954560
v 0.01787622 -0.01751343 0.15954560
v 0.01787622 -0.01751343 -0.15954560
v -0.00006173 -0.00362404 -0.15954560
v -0.00006173 -0.00362404 0.15954560
vn 0.02520137 -0.99968240 0.00000000
vn 0.00000000 -1.00000000 0.00000000
vn 0.00000000 -1.00000000 0.00000000
vn 0.02520137 -0.99968240 0.00000000
vn 0.14341530 -0.98966260 0.00000000
vn 0.14341530 -0.98966260 0.00000000
vn 0.17188760 -0.98511650 0.00011734
vn 0.17188760 -0.98511650 0.00011734
vn 0.12742650 -0.99184760 0.00081210
vn 0.12742900 -0.99184730 0.00081205
vn 0.02617861 -0.99965620 0.00144775
vn 0.02617303 -0.99965630 0.00144774
vn -0.09746867 -0.99523840 0.00066140
vn -0.09746867 -0.99523840 0.00066140
vn -0.21207870 -0.97725270 0.00000000
vn -0.21207870 -0.97725270 0.00000000
vn -0.48444000 -0.87482450 0.00000000
vn -0.48444000 -0.87482450 0.00000000
vn -0.61222650 -0.79068230 0.00000000
vn -0.61222650 -0.79068230 0.00000000
vt 2.10895500 0.99924360
vt 2.00067100 0.75026640
vt 2.00067100 0.99924360
vt 2.10895500 0.75026640
vt 2.14574300 0.75026640
vt 2.14574300 0.99924360
vt 2.18253200 0.75026640
vt 2.18253200 0.99924360
vt 2.21932000 0.99924360
vt 2.21932000 0.75026640
vt 2.24784900 0.75026640
vt 2.24784900 0.99924360
vt 2.27637700 0.75026640
vt 2.27637700 0.99924360
vt 2.30490500 0.75026640
vt 2.30490500 0.99924360
vt 2.31925900 0.75026640
vt 2.31925900 0.99924360
vt 2.33361300 0.99924360
vt 2.33361300 0.75026640
f 3/3/3 2/2/2 1/1/1
f 2/2/2 4/4/4 1/1/1
f 1/1/1 4/4/4 5/5/5
f 6/6/6 1/1/1 5/5/5
f 6/6/6 5/5/5 7/7/7
f 8/8/8 6/6/6 7/7/7
f 8/8/8 7/7/7 9/9/9
f 7/7/7 10/10/10 9/9/9
f 9/9/9 10/10/10 11/11/11
f 12/12/12 9/9/9 11/11/11
f 12/12/12 11/11/11 13/13/13
f 14/14/14 12/12/12 13/13/13
f 14/14/14 13/13/13 15/15/15
f 16/16/16 14/14/14 15/15/15
f 16/16/16 15/15/15 17/17/17
f 18/18/18 16/16/16 17/17/17
f 18/18/18 17/17/17 19/19/19
f 17/17/17 20/20/20 19/19/19

