mtllib material.mtl
usemtl material_0
v 0.42527350 0.02624720 0.16438100
v 0.42527350 0.03102236 0.16438100
v 0.42527350 0.03102236 -0.16438100
v 0.42527350 0.02624720 -0.16438100
v -0.00069393 -0.00000000 -0.16438100
v 0.00026758 0.01101582 0.16438100
v -0.00069393 -0.00000000 0.16438100
v 0.00026758 0.01101582 -0.16438100
v 0.00389948 0.02199695 -0.16438100
v 0.00389948 0.02199695 0.16438100
v 0.00993579 0.02917805 0.16438100
v 0.00993585 0.02917810 -0.16438100
v 0.01437999 0.02703274 0.16273710
v 0.01437835 0.02703205 -0.16273710
v 0.01318262 0.02656459 -0.16273710
v 0.01318433 0.02656523 0.16273710
v 0.01318433 0.02656523 0.16273710
v 0.01118724 0.02922207 0.16273710
v 0.01236637 0.02971160 0.16273710
v 0.01437999 0.02703274 0.16273710
v 0.01118724 0.02922207 0.16273710
v 0.01118543 0.02922148 -0.16273710
v 0.01236435 0.02971091 -0.16273710
v 0.01236637 0.02971160 0.16273710
v 0.01118543 0.02922148 -0.16273710
v 0.01318262 0.02656459 -0.16273710
v 0.01437835 0.02703205 -0.16273710
v 0.01236435 0.02971091 -0.16273710
v 0.01695646 0.02624720 0.16438100
v 0.01337024 0.03102236 0.16438100
v 0.42527350 0.03102236 0.16438100
v 0.42527350 0.02624720 0.16438100
v 0.01337024 0.03102236 0.16438100
v 0.01337019 0.03102236 -0.16438100
v 0.42527350 0.03102236 -0.16438100
v 0.42527350 0.03102236 0.16438100
v 0.01337019 0.03102236 -0.16438100
v 0.01695646 0.02624720 -0.16438100
v 0.42527350 0.02624720 -0.16438100
v 0.42527350 0.03102236 -0.16438100
v 0.01695646 0.02624720 -0.16438100
v 0.01695646 0.02624720 0.16438100
v 0.42527350 0.02624720 0.16438100
v 0.42527350 0.02624720 -0.16438100
v 0.01293020 0.02483522 0.16438100
v 0.00389948 0.02199695 0.16438100
v 0.00993579 0.02917805 0.16438100
v 0.00974441 0.02124185 0.16438100
v 0.00679174 0.01028591 0.16438100
v 0.00026758 0.01101582 0.16438100
v -0.00069393 -0.00000000 0.16438100
v 0.00586530 -0.00000000 0.16438100
v 0.00429578 -0.00149693 0.16383830
v 0.00073333 -0.00149672 0.16383830
v 0.00993585 0.02917810 -0.16438100
v 0.00974441 0.02124185 -0.16438100
v 0.01293020 0.02483522 -0.16438100
v 0.00389948 0.02199695 -0.16438100
v 0.00026758 0.01101582 -0.16438100
v 0.00679174 0.01028591 -0.16438100
v 0.00586530 -0.00000000 -0.16438100
v -0.00069393 -0.00000000 -0.16438100
v 0.00073333 -0.00149672 -0.16383830
v 0.00429578 -0.00149693 -0.16383830
v 0.01293020 0.02483522 -0.16438100
v 0.00974441 0.02124185 0.16438100
v 0.01293020 0.02483522 0.16438100
v 0.00974441 0.02124185 -0.16438100
v 0.00679174 0.01028591 -0.16438100
v 0.00679174 0.01028591 0.16438100
v 0.00586530 -0.00000000 -0.16438100
v 0.00586530 -0.00000000 0.16438100
v 0.00429578 -0.00149693 -0.16383830
v 0.00429578 -0.00149693 0.16383830
v 0.01293020 0.02483522 0.16438100
v 0.01318433 0.02656523 0.16273710
v 0.01318262 0.02656459 -0.16273710
v 0.01293020 0.02483522 -0.16438100
v 0.01695646 0.02624720 -0.16438100
v 0.01437835 0.02703205 -0.16273710
v 0.01437999 0.02703274 0.16273710
v 0.01695646 0.02624720 0.16438100
v 0.01695646 0.02624720 0.16438100
v 0.01437999 0.02703274 0.16273710
v 0.01236637 0.02971160 0.16273710
v 0.01337024 0.03102236 0.16438100
v 0.00993579 0.02917805 0.16438100
v 0.01118724 0.02922207 0.16273710
v 0.01318433 0.02656523 0.16273710
v 0.01293020 0.02483522 0.16438100
v 0.01337024 0.03102236 0.16438100
v 0.01236637 0.02971160 0.16273710
v 0.01236435 0.02971091 -0.16273710
v 0.01337019 0.03102236 -0.16438100
v 0.00993585 0.02917810 -0.16438100
v 0.01118543 0.02922148 -0.16273710
v 0.01118724 0.02922207 0.16273710
v 0.00993579 0.02917805 0.16438100
v 0.01337019 0.03102236 -0.16438100
v 0.01236435 0.02971091 -0.16273710
v 0.01437835 0.02703205 -0.16273710
v 0.01695646 0.02624720 -0.16438100
v 0.01293020 0.02483522 -0.16438100
v 0.01318262 0.02656459 -0.16273710
v 0.01118543 0.02922148 -0.16273710
v 0.00993585 0.02917810 -0.16438100
v 0.00073333 -0.00149672 -0.16383830
v 0.00073333 -0.00149672 0.16383830
v 0.00073333 -0.00149672 0.16383830
v 0.00073333 -0.00149672 -0.16383830
vn 1.00000000 0.00000000 0.00000000
vn 1.00000000 0.00000000 0.00000000
vn 1.00000000 0.00000000 0.00000000
vn 1.00000000 0.00000000 0.00000000
vn -0.99982340 -0.01879781 0.00000000
vn -0.97888520 0.20441090 0.00000000
vn -0.99982340 -0.01879781 0.00000000
vn -0.97888520 0.20441090 0.00000000
vn -0.88272120 0.46989720 0.00000000
vn -0.88272120 0.46989720 0.00000000
vn -0.76548120 0.64345830 0.00000000
vn -0.76548120 0.64345830 0.00000000
vn 0.36413090 -0.93134780 0.00000000
vn 0.36413090 -0.93134780 0.00000000
vn 0.36413090 -0.93134780 0.00000000
vn 0.36413080 -0.93134780 0.00000000
vn 0.00000702 0.00000000 1.00000000
vn 0.00000702 0.00000000 1.00000000
vn 0.00000702 0.00000000 1.00000000
vn 0.00000702 0.00000000 1.00000000
vn -0.38342320 0.92357270 0.00000045
vn -0.38342320 0.92357270 0.00000045
vn -0.38342320 0.92357270 0.00000045
vn -0.38342320 0.92357270 0.00000045
vn 0.00000702 0.00000000 -1.00000000
vn 0.00000702 0.00000000 -1.00000000
vn 0.00000702 0.00000000 -1.00000000
vn 0.00000702 0.00000000 -1.00000000
vn 0.00000000 0.00000000 1.00000000
vn 0.00000000 0.00000000 1.00000000
vn 0.00000000 0.00000000 1.00000000
vn 0.00000000 0.00000000 1.00000000
vn 0.00000000 1.00000000 0.00000000
vn 0.00000000 1.00000000 0.00000000
vn 0.00000000 1.00000000 0.00000000
vn 0.00000000 1.00000000 0.00000000
vn 0.00000000 0.00000000 -1.00000000
vn 0.00000000 0.00000000 -1.00000000
vn 0.00000000 0.00000000 -1.00000000
vn 0.00000000 0.00000000 -1.00000000
vn 0.00000000 -1.00000000 0.00000000
vn 0.00000000 -1.00000000 0.00000000
vn 0.00000000 -1.00000000 0.00000000
vn 0.00000000 -1.00000000 0.00000000
vn -0.00000163 0.00000000 1.00000000
vn -0.00000092 0.00000000 1.00000000
vn -0.00000163 0.00000000 1.00000000
vn -0.00000111 0.00000000 1.00000000
vn -0.00000038 0.00000000 1.00000000
vn -0.00000034 0.00000000 1.00000000
vn -0.00000044 -0.02091771 0.99978120
vn -0.00000038 -0.01779859 0.99984160
vn -0.00000719 -0.34083480 0.94012310
vn -0.00000719 -0.34083480 0.94012330
vn 0.00000000 0.00000000 -1.00000000
vn 0.00000000 0.00000000 -1.00000000
vn 0.00000000 0.00000000 -1.00000000
vn 0.00000000 0.00000000 -1.00000000
vn 0.00000000 0.00000000 -1.00000000
vn 0.00000000 0.00000000 -1.00000000
vn -0.00000041 -0.01779859 -0.99984160
vn -0.00000049 -0.02091771 -0.99978120
vn -0.00000793 -0.34083480 -0.94012330
vn -0.00000793 -0.34083480 -0.94012310
vn 0.74826700 -0.66339770 0.00000000
vn 0.92135290 -0.38872700 0.00000000
vn 0.74826700 -0.66339770 0.00000000
vn 0.92135290 -0.38872700 0.00000000
vn 0.98373170 -0.17964400 0.00000000
vn 0.98373170 -0.17964400 0.00000000
vn 0.98155980 -0.19115540 0.00000000
vn 0.98155980 -0.19115540 0.00000000
vn 0.30664200 -0.95182500 0.00000000
vn 0.30664200 -0.95182500 0.00000000
vn 0.98944930 -0.14487920 -0.00000247
vn 0.98944930 -0.14487920 -0.00000247
vn 0.98944930 -0.14487920 -0.00000247
vn 0.98944930 -0.14487920 -0.00000247
vn -0.29143620 -0.95659030 0.00000174
vn -0.29143630 -0.95659030 0.00000174
vn -0.29143630 -0.95659030 0.00000174
vn -0.29143620 -0.95659030 0.00000174
vn -0.57484020 -0.43185360 0.69502600
vn -0.57484020 -0.43185360 0.69502600
vn -0.57484020 -0.43185360 0.69502600
vn -0.57484020 -0.43185350 0.69502600
vn 0.67134500 0.47874600 0.56577230
vn 0.67134500 0.47874590 0.56577230
vn 0.67134500 0.47874590 0.56577230
vn 0.67134500 0.47874600 0.56577230
vn -0.79369580 0.60831490 0.00000192
vn -0.79369580 0.60831490 0.00000192
vn -0.79369580 0.60831490 0.00000192
vn -0.79369580 0.60831490 0.00000192
vn -0.03492317 0.99939000 -0.00000071
vn -0.03492317 0.99939000 -0.00000071
vn -0.03492317 0.99939000 -0.00000071
vn -0.03492317 0.99939000 -0.00000071
vn -0.57450790 -0.43163820 -0.69543450
vn -0.57450790 -0.43163820 -0.69543450
vn -0.57450800 -0.43163820 -0.69543450
vn -0.57450800 -0.43163820 -0.69543450
vn 0.67169640 0.47899420 -0.56514470
vn 0.67169640 0.47899420 -0.56514460
vn 0.67169640 0.47899420 -0.56514460
vn 0.67169640 0.47899420 -0.56514470
vn -0.31662390 -0.94855120 0.00000000
vn -0.31662390 -0.94855120 0.00000000
vn -0.31662390 -0.94855120 0.00000000
vn -0.31662390 -0.94855120 0.00000000
vt 0.16578160 0.83782090
vt 0.16302890 0.83782090
vt 0.16283210 0.99537270
vt 0.16558560 0.99537270
vt 0.01111478 0.99537270
vt 0.01416701 0.83782090
vt 0.01123399 0.83782090
vt 0.01405519 0.99537270
vt 0.01748198 0.99537270
vt 0.01755679 0.83782090
vt 0.02012080 0.83782090
vt 0.02004540 0.99537270
vt 0.14258240 0.11387250
vt 0.14233340 0.03518933
vt 0.14200780 0.03518933
vt 0.14225660 0.11387250
vt 0.02097756 0.83522590
vt 0.02093178 0.83782090
vt 0.02205628 0.83782090
vt 0.02215379 0.83522590
vt 0.02093178 0.83782090
vt 0.02085799 0.99537270
vt 0.02198392 0.99537270
vt 0.02205628 0.83782090
vt 0.02085799 0.99537270
vt 0.02083987 0.99793600
vt 0.02198803 0.99793600
vt 0.02198392 0.99537270
vt 0.02434776 0.83522590
vt 0.02315336 0.83782090
vt 0.16302890 0.83782090
vt 0.16302890 0.83522590
vt 0.02315336 0.83782090
vt 0.02315336 0.99537270
vt 0.16283210 0.99537270
vt 0.16302890 0.83782090
vt 0.02315336 0.99537270
vt 0.02434776 0.99793600
vt 0.16283210 0.99793600
vt 0.16283210 0.99537270
vt 0.14300270 0.03518933
vt 0.14325380 0.11387250
vt 0.24105920 0.11387250
vt 0.24105920 0.03518933
vt 0.02012080 0.83522590
vt 0.01755679 0.83782090
vt 0.02012080 0.83782090
vt 0.01755679 0.83522590
vt 0.01426911 0.83522590
vt 0.01416701 0.83782090
vt 0.01123399 0.83782090
vt 0.01123428 0.83522590
vt 0.00993305 0.83522590
vt 0.00993252 0.83782090
vt 0.02004540 0.99537270
vt 0.01748198 0.99793600
vt 0.02004540 0.99793600
vt 0.01748198 0.99537270
vt 0.01405519 0.99537270
vt 0.01405519 0.99793600
vt 0.01111466 0.99793600
vt 0.01111478 0.99537270
vt 0.00993270 0.99537270
vt 0.00993246 0.99793600
vt 0.14143200 0.03518933
vt 0.14027160 0.11387250
vt 0.14168320 0.11387250
vt 0.14002040 0.03518933
vt 0.13645850 0.03518933
vt 0.13645850 0.11387250
vt 0.13514070 0.03518933
vt 0.13514070 0.11387250
vt 0.13038560 0.03518933
vt 0.13038560 0.11387250
vt 0.14168320 0.11387250
vt 0.14225660 0.11387250
vt 0.14200780 0.03518933
vt 0.14143200 0.03518933
vt 0.14300270 0.03518933
vt 0.14233340 0.03518933
vt 0.14258240 0.11387250
vt 0.14325380 0.11387250
vt 0.02434776 0.83522590
vt 0.02215379 0.83522590
vt 0.02205628 0.83782090
vt 0.02315336 0.83782090
vt 0.02012080 0.83782090
vt 0.02093178 0.83782090
vt 0.02097756 0.83522590
vt 0.02012080 0.83522590
vt 0.02315336 0.83782090
vt 0.02205628 0.83782090
vt 0.02198392 0.99537270
vt 0.02315336 0.99537270
vt 0.02004540 0.99537270
vt 0.02085799 0.99537270
vt 0.02093178 0.83782090
vt 0.02012080 0.83782090
vt 0.02315336 0.99537270
vt 0.02198392 0.99537270
vt 0.02198803 0.99793600
vt 0.02434776 0.99793600
vt 0.02004540 0.99793600
vt 0.02083987 0.99793600
vt 0.02085799 0.99537270
vt 0.02004540 0.99537270
vt 0.11959270 0.03518933
vt 0.11959270 0.11387250
vt 0.00993252 0.83782090
vt 0.00993270 0.99537270
f 3/3/3 2/2/2 1/1/1
f 4/4/4 3/3/3 1/1/1
f 7/7/7 6/6/6 5/5/5
f 6/6/6 8/8/8 5/5/5
f 9/9/9 8/8/8 6/6/6
f 10/10/10 9/9/9 6/6/6
f 9/9/9 10/10/10 11/11/11
f 12/12/12 9/9/9 11/11/11
f 15/15/15 14/14/14 13/13/13
f 16/16/16 15/15/15 13/13/13
f 19/19/19 18/18/18 17/17/17
f 20/20/20 19/19/19 17/17/17
f 23/23/23 22/22/22 21/21/21
f 24/24/24 23/23/23 21/21/21
f 27/27/27 26/26/26 25/25/25
f 28/28/28 27/27/27 25/25/25
f 31/31/31 30/30/30 29/29/29
f 32/32/32 31/31/31 29/29/29
f 35/35/35 34/34/34 33/33/33
f 36/36/36 35/35/35 33/33/33
f 39/39/39 38/38/38 37/37/37
f 40/40/40 39/39/39 37/37/37
f 43/43/43 42/42/42 41/41/41
f 44/44/44 43/43/43 41/41/41
f 47/47/47 46/46/46 45/45/45
f 46/46/46 48/48/48 45/45/45
f 48/48/48 46/46/46 49/49/49
f 46/46/46 50/50/50 49/49/49
f 49/49/49 50/50/50 51/51/51
f 52/52/52 49/49/49 51/51/51
f 53/53/53 52/52/52 51/51/51
f 54/54/54 53/53/53 51/51/51
f 57/57/57 56/56/56 55/55/55
f 56/56/56 58/58/58 55/55/55
f 59/59/59 58/58/58 56/56/56
f 60/60/60 59/59/59 56/56/56
f 59/59/59 60/60/60 61/61/61
f 62/62/62 59/59/59 61/61/61
f 62/62/62 61/61/61 63/63/63
f 61/61/61 64/64/64 63/63/63
f 67/67/67 66/66/66 65/65/65
f 66/66/66 68/68/68 65/65/65
f 69/69/69 68/68/68 66/66/66
f 70/70/70 69/69/69 66/66/66
f 71/71/71 69/69/69 70/70/70
f 72/72/72 71/71/71 70/70/70
f 73/73/73 71/71/71 72/72/72
f 74/74/74 73/73/73 72/72/72
f 77/77/77 76/76/76 75/75/75
f 78/78/78 77/77/77 75/75/75
f 81/81/81 80/80/80 79/79/79
f 82/82/82 81/81/81 79/79/79
f 85/85/85 84/84/84 83/83/83
f 86/86/86 85/85/85 83/83/83
f 89/89/89 88/88/88 87/87/87
f 90/90/90 89/89/89 87/87/87
f 93/93/93 92/92/92 91/91/91
f 94/94/94 93/93/93 91/91/91
f 97/97/97 96/96/96 95/95/95
f 98/98/98 97/97/97 95/95/95
f 101/101/101 100/100/100 99/99/99
f 102/102/102 101/101/101 99/99/99
f 105/105/105 104/104/104 103/103/103
f 106/106/106 105/105/105 103/103/103
f 108/108/108 107/107/107 73/73/73
f 74/74/74 108/108/108 73/73/73
f 5/5/5 110/110/110 109/109/109
f 7/7/7 5/5/5 109/109/109

