mtllib material.mtl
usemtl material_0
v 0.01787622 -0.00191047 0.15954560
v -0.00006173 -0.00244221 0.15741530
v -0.00006173 -0.00191047 0.15954560
v 0.02042080 -0.01496216 0.15741530
v -0.00006173 -0.00362404 0.15954560
v -0.00006173 -0.00338767 0.15741530
v 0.01787628 -0.01241090 0.15954560
v -0.00006171 -0.00315131 0.15954560
v 0.02042082 -0.00985964 0.15741530
v -0.00006171 -0.00315131 0.15954560
v -0.00006171 -0.00291494 0.15741530
v 0.01787622 -0.00730837 0.15954560
v -0.00006171 -0.00267858 0.15954560
v 0.02042080 -0.00475711 0.15741530
v -0.00006171 -0.00267858 0.15954560
v 0.01787622 -0.00191047 -0.15954560
v -0.00006173 -0.00191047 -0.15954560
v -0.00006173 -0.00244221 -0.15741530
v 0.02042080 -0.01496216 -0.15741530
v -0.00006173 -0.00338767 -0.15741530
v -0.00006173 -0.00362404 -0.15954560
v 0.02042080 -0.00475711 -0.15741530
v -0.00006171 -0.00267858 -0.15954560
v 0.42180950 0.01844485 0.16208170
v 0.41958500 0.02071182 0.16127910
v 0.41958500 0.02071182 -0.16127910
v 0.42180950 0.01844485 -0.16208170
v 0.28374880 0.01844484 0.16208170
v 0.41958500 0.02071182 0.16127910
v 0.42180950 0.01844485 0.16208170
v 0.28262360 0.02071183 0.16127910
v 0.42308650 0.02297879 0.16208170
v 0.28531570 0.02297879 0.16208170
v 0.23939210 0.02297879 0.16208170
v 0.23696980 0.02071182 0.16127910
v 0.23772860 0.01844484 0.16208170
v 0.19346850 0.02297879 0.16208170
v 0.19131600 0.02071182 0.16127910
v 0.19170840 0.01844485 0.16208170
v 0.14568820 0.01844485 0.16208170
v 0.14566230 0.02071182 0.16127910
v 0.14754490 0.02297879 0.16208170
v 0.11310220 0.02297879 0.16208170
v 0.11141080 0.02071183 0.16127910
v 0.11111370 0.01844485 0.16208170
v 0.07865951 0.02297879 0.16208170
v 0.07715934 0.02071182 0.16127910
v 0.07653914 0.01844485 0.16208170
v 0.04421672 0.02297879 0.16208170
v 0.04290794 0.02071183 0.16127910
v 0.04196464 0.01844485 0.16208170
v 0.02699541 0.02297879 0.16208170
v 0.02578220 0.02071182 0.16127910
v 0.02467735 0.01844485 0.16208170
v 0.00739010 0.01844485 0.16208170
v 0.00865648 0.02071182 0.16127910
v 0.00977409 0.02297879 0.16208170
v 0.41924630 0.00885109 0.16208170
v 0.41693680 0.01164394 0.16127910
v 0.41693680 0.01164394 -0.16127910
v 0.41924630 0.00885109 -0.16208170
v 0.28144430 0.00885109 0.16208170
v 0.41693680 0.01164394 0.16127910
v 0.41924630 0.00885109 0.16208170
v 0.28005360 0.01164394 0.16127910
v 0.42045980 0.01391089 0.16208170
v 0.28255120 0.01391090 0.16208170
v 0.23658170 0.01391090 0.16208170
v 0.23442580 0.01164394 0.16127910
v 0.23551030 0.00885109 0.16208170
v 0.19061210 0.01391090 0.16208170
v 0.18879810 0.01164394 0.16127910
v 0.18957630 0.00885109 0.16208170
v 0.14364230 0.00885108 0.16208170
v 0.14317030 0.01164394 0.16127910
v 0.14464260 0.01391091 0.16208170
v 0.10977760 0.01391091 0.16208170
v 0.10840240 0.01164394 0.16127910
v 0.10844840 0.00885108 0.16208170
v 0.07491267 0.01391091 0.16208170
v 0.07363445 0.01164394 0.16127910
v 0.07325447 0.00885108 0.16208170
v 0.04004772 0.01391091 0.16208170
v 0.03886653 0.01164394 0.16127910
v 0.03806045 0.00885108 0.16208170
v 0.02261524 0.01391091 0.16208170
v 0.02148256 0.01164394 0.16127910
v 0.02046350 0.00885108 0.16208170
v 0.00286657 0.00885108 0.16208170
v 0.00409856 0.01164394 0.16127910
v 0.00518280 0.01391091 0.16208170
v 0.41861340 -0.00000074 0.16208170
v 0.41573950 0.00257605 0.16127910
v 0.41570280 0.00257606 -0.16127910
v 0.41861340 -0.00000074 -0.16208170
v 0.28069140 -0.00000074 0.16119040
v 0.41573950 0.00257605 0.16127910
v 0.41861340 -0.00000074 0.16208170
v 0.27885820 0.00257606 0.16127910
v 0.41874060 0.00484305 0.16208170
v 0.28094170 0.00484304 0.16208170
v 0.23500870 0.00467001 0.16208170
v 0.23323110 0.00257606 0.16127910
v 0.23471740 -0.00102059 0.16119040
v 0.18907580 0.00481914 0.16208170
v 0.18760400 0.00257606 0.16127910
v 0.18874340 -0.00085064 0.16119040
v 0.14276940 -0.00000075 0.16119040
v 0.14197690 0.00257606 0.16127910
v 0.14314270 0.00484304 0.16208170
v 0.10770080 0.00484304 0.16208170
v 0.10665250 0.00257606 0.16127910
v 0.10711770 -0.00000075 0.16119040
v 0.07225891 0.00484304 0.16208170
v 0.07132810 0.00257606 0.16127910
v 0.07146586 -0.00000075 0.16119040
v 0.03681694 0.00484304 0.16208170
v 0.03600365 0.00257606 0.16127910
v 0.03581417 -0.00000074 0.16119040
v 0.01909603 0.00484304 0.16208170
v 0.01834144 0.00257607 0.16127910
v 0.01798831 -0.00000075 0.16119040
v 0.00016245 -0.00000075 0.16119040
v 0.00067924 0.00257607 0.16127910
v 0.00137502 0.00484304 0.16208170
v 0.42072560 0.02524576 0.16127910
v 0.42399390 0.02751272 0.16208170
v 0.42399390 0.02751272 -0.16208170
v 0.42072560 0.02524576 -0.16127910
v 0.28531570 0.02297879 0.16208170
v 0.42072560 0.02524576 0.16127910
v 0.42308650 0.02297879 0.16208170
v 0.28409950 0.02524576 0.16127910
v 0.42399390 0.02751272 0.16208170
v 0.28663610 0.02751272 0.16208170
v 0.24085020 0.02751272 0.16208170
v 0.23855750 0.02524576 0.16127910
v 0.23939210 0.02297879 0.16208170
v 0.19506430 0.02751272 0.16208170
v 0.19301550 0.02524576 0.16127910
v 0.19346850 0.02297879 0.16208170
v 0.14754490 0.02297879 0.16208170
v 0.14747340 0.02524576 0.16127910
v 0.14927830 0.02751273 0.16208170
v 0.11493890 0.02751273 0.16208170
v 0.11331700 0.02524576 0.16127910
v 0.11310220 0.02297879 0.16208170
v 0.08059949 0.02751273 0.16208170
v 0.07916048 0.02524576 0.16127910
v 0.07865951 0.02297879 0.16208170
v 0.04626001 0.02751274 0.16208170
v 0.04500386 0.02524576 0.16127910
v 0.04421672 0.02297879 0.16208170
v 0.02909032 0.02751274 0.16208170
v 0.02792562 0.02524576 0.16127910
v 0.02699541 0.02297879 0.16208170
v 0.00977409 0.02297879 0.16208170
v 0.01084736 0.02524576 0.16127910
v 0.01192062 0.02751273 0.16208170
v 0.42308650 0.02297879 0.16208170
v 0.42308650 0.02297879 -0.16208170
v 0.42308650 0.02297879 0.16208170
v 0.42308650 0.02297879 -0.16208170
v 0.41805370 0.01565199 0.16127910
v 0.42180950 0.01844485 0.16208170
v 0.42180950 0.01844485 -0.16208170
v 0.41805370 0.01565199 -0.16127910
v 0.28255120 0.01391090 0.16208170
v 0.41805370 0.01565199 0.16127910
v 0.42045980 0.01391089 0.16208170
v 0.28109610 0.01565199 0.16127910
v 0.42180950 0.01844485 0.16208170
v 0.28374880 0.01844484 0.16208170
v 0.23772860 0.01844484 0.16208170
v 0.23544350 0.01565199 0.16127910
v 0.23658170 0.01391090 0.16208170
v 0.19170840 0.01844485 0.16208170
v 0.18979100 0.01565198 0.16127910
v 0.19061210 0.01391090 0.16208170
v 0.14464260 0.01391091 0.16208170
v 0.14413840 0.01565198 0.16127910
v 0.14568820 0.01844485 0.16208170
v 0.11111370 0.01844485 0.16208170
v 0.10961340 0.01565198 0.16127910
v 0.10977760 0.01391091 0.16208170
v 0.07653914 0.01844485 0.16208170
v 0.07508840 0.01565198 0.16127910
v 0.07491267 0.01391091 0.16208170
v 0.04196464 0.01844485 0.16208170
v 0.04056331 0.01565198 0.16127910
v 0.04004772 0.01391091 0.16208170
v 0.02467735 0.01844485 0.16208170
v 0.02330080 0.01565198 0.16127910
v 0.02261524 0.01391091 0.16208170
v 0.00518280 0.01391091 0.16208170
v 0.00603832 0.01565198 0.16127910
v 0.00739010 0.01844485 0.16208170
v 0.42045980 0.01391089 0.16208170
v 0.42045980 0.01391089 -0.16208170
v 0.42045980 0.01391089 0.16208170
v 0.42045980 0.01391089 -0.16208170
v 0.41604120 0.00710999 0.16127910
v 0.41924630 0.00885109 0.16208170
v 0.41924630 0.00885109 -0.16208170
v 0.41604120 0.00710999 -0.16127910
v 0.28094170 0.00484304 0.16208170
v 0.41604120 0.00710999 0.16127910
v 0.41874060 0.00484305 0.16208170
v 0.27922480 0.00710999 0.16127910
v 0.41924630 0.00885109 0.16208170
v 0.28144430 0.00885109 0.16208170
v 0.23551030 0.00885109 0.16208170
v 0.23361930 0.00709504 0.16127910
v 0.23500870 0.00467001 0.16208170
v 0.18957630 0.00885109 0.16208170
v 0.18801400 0.00710999 0.16127910
v 0.18907580 0.00481914 0.16208170
v 0.14314270 0.00484304 0.16208170
v 0.14240850 0.00711000 0.16127910
v 0.14364230 0.00885108 0.16208170
v 0.10844840 0.00885108 0.16208170
v 0.10735270 0.00711000 0.16127910
v 0.10770080 0.00484304 0.16208170
v 0.07325447 0.00885108 0.16208170
v 0.07229704 0.00711000 0.16127910
v 0.07225891 0.00484304 0.16208170
v 0.03806045 0.00885108 0.16208170
v 0.03724121 0.00711000 0.16127910
v 0.03681694 0.00484304 0.16208170
v 0.02046350 0.00885108 0.16208170
v 0.01971334 0.00711000 0.16127910
v 0.01909603 0.00484304 0.16208170
v 0.00137502 0.00484304 0.16208170
v 0.00218544 0.00711001 0.16127910
v 0.00286657 0.00885108 0.16208170
v 0.41874060 0.00484305 0.16208170
v 0.41874060 0.00484305 -0.16208170
v 0.41874060 0.00484305 0.16208170
v 0.41874060 0.00484305 -0.16208170
v 0.41275560 -0.00191047 -0.15954560
v 0.41322840 -0.00294859 0.15741530
v 0.41275560 -0.00191047 0.15954560
v 0.41322840 -0.00294859 -0.15741530
v 0.41601260 -0.00369133 0.15954560
v 0.41601260 -0.00369133 -0.15954560
v 0.41275560 -0.00191047 0.15954560
v 0.41322840 -0.00294859 0.15741530
v 0.27972680 -0.00294858 0.15741530
v 0.28069140 -0.00191047 0.15954560
v 0.23436670 -0.00515424 0.15741530
v 0.03581417 -0.00191047 0.15954560
v 0.03581417 -0.00000074 0.16119040
v 0.01798831 -0.00000075 0.16119040
v 0.00016245 -0.00000075 0.16119040
v 0.07146586 -0.00000075 0.16119040
v 0.07146586 -0.00191047 0.15954560
v 0.10711770 -0.00000075 0.16119040
v 0.03811931 -0.00575330 0.15741530
v 0.10711760 -0.00191047 0.15954560
v 0.14276940 -0.00000075 0.16119040
v 0.01787622 -0.00730837 0.15954560
v 0.03581417 -0.00930074 0.15954560
v 0.07329494 -0.00669541 0.15741530
v 0.07146586 -0.01118497 0.15954560
v 0.10847060 -0.00684647 0.15741530
v 0.10711770 -0.01148708 0.15954560
v 0.14276940 -0.00191047 0.15954560
v 0.18874340 -0.00085064 0.16119040
v 0.14364640 -0.00620494 0.15741530
v 0.14276940 -0.01039183 0.15954560
v 0.18874340 -0.00191047 0.15954560
v 0.23471740 -0.00102059 0.16119040
v 0.18900650 -0.00574355 0.15741530
v 0.18874340 -0.00876541 0.15954560
v 0.23471740 -0.00191047 0.15954560
v 0.28069140 -0.00000074 0.16119040
v 0.28069140 -0.00191047 0.15954560
v 0.41861340 -0.00000074 0.16208170
v 0.41275560 -0.00191047 0.15954560
v 0.41861340 -0.00000074 -0.16208170
v 0.41275560 -0.00191047 -0.15954560
v 0.41275560 -0.00191047 0.15954560
v 0.41861340 -0.00000074 0.16208170
v 0.23436670 -0.01022615 0.15741530
v 0.23471740 -0.01123263 0.15954560
v 0.18874340 -0.01998679 0.15954560
v 0.18900650 -0.01795776 0.15741530
v 0.14276940 -0.02720012 0.15954560
v 0.14364640 -0.02318813 0.15741530
v 0.10711770 -0.03004956 0.15954560
v 0.10847060 -0.02540894 0.15741530
v 0.07146586 -0.02914320 0.15954560
v 0.07329492 -0.02465363 0.15741530
v 0.03581417 -0.02349057 0.15954560
v 0.03811931 -0.01994312 0.15741530
v 0.01787622 -0.01751343 0.15954560
v 0.27972680 -0.00591955 0.15741530
v 0.28069140 -0.00666230 0.15954560
v 0.41322840 -0.00591955 0.15741530
v 0.41601260 -0.00666230 0.15954560
v 0.41322840 -0.00591955 -0.15741530
v 0.41601260 -0.00666230 -0.15954560
v 0.41601260 -0.00666230 0.15954560
v 0.41322840 -0.00591955 0.15741530
v 0.41601260 -0.00517682 0.15954560
v 0.28069140 -0.00517682 0.15954560
v 0.23471740 -0.00909703 0.15954560
v 0.18874330 -0.01441833 0.15954560
v 0.14276940 -0.01899143 0.15954560
v 0.10711760 -0.02076832 0.15954560
v 0.07146586 -0.02016407 0.15954560
v 0.03581417 -0.01639566 0.15954560
v 0.41601260 -0.00517682 -0.15954560
v 0.41601260 -0.00517682 0.15954560
v 0.41322840 -0.00443407 0.15741530
v 0.41601260 -0.00517682 0.15954560
v 0.28069140 -0.00517682 0.15954560
v 0.27972680 -0.00443407 0.15741530
v 0.23471740 -0.00909703 0.15954560
v 0.23436670 -0.00785939 0.15741530
v 0.18874330 -0.01441833 0.15954560
v 0.18900650 -0.01170309 0.15741530
v 0.14276940 -0.01899143 0.15954560
v 0.14364640 -0.01468983 0.15741530
v 0.18874340 -0.00876541 0.15954560
v 0.10711760 -0.02076832 0.15954560
v 0.14276940 -0.01039183 0.15954560
v 0.10847060 -0.01612770 0.15741530
v 0.07146586 -0.02016407 0.15954560
v 0.10711770 -0.01148708 0.15954560
v 0.07329494 -0.01567452 0.15741530
v 0.03581417 -0.01639566 0.15954560
v 0.07146586 -0.01118497 0.15954560
v 0.03811931 -0.01284821 0.15741530
v 0.01787628 -0.01241090 0.15954560
v 0.03581417 -0.00930074 0.15954560
v 0.41322840 -0.00443407 -0.15741530
v 0.41601260 -0.00517682 -0.15954560
v 0.41601260 -0.00517682 0.15954560
v 0.41322840 -0.00443407 0.15741530
v 0.23471740 -0.00653552 0.15954560
v 0.28069140 -0.00369133 0.15954560
v 0.41601260 -0.00369133 0.15954560
v 0.41601260 -0.00369133 -0.15954560
v 0.41601260 -0.00369133 0.15954560
v 0.23471740 -0.00653552 0.15954560
v 0.28069140 -0.00369133 0.15954560
v 0.41601260 -0.00369133 0.15954560
v 0.28374880 0.01844484 -0.16208170
v 0.42180950 0.01844485 -0.16208170
v 0.41958500 0.02071182 -0.16127910
v 0.28262360 0.02071183 -0.16127910
v 0.42308650 0.02297879 -0.16208170
v 0.28531570 0.02297879 -0.16208170
v 0.23939210 0.02297879 -0.16208170
v 0.23696980 0.02071182 -0.16127910
v 0.23772860 0.01844484 -0.16208170
v 0.19346850 0.02297879 -0.16208170
v 0.19131600 0.02071182 -0.16127910
v 0.19170840 0.01844485 -0.16208170
v 0.14568820 0.01844485 -0.16208170
v 0.14566230 0.02071182 -0.16127910
v 0.14754490 0.02297879 -0.16208170
v 0.11310220 0.02297879 -0.16208170
v 0.11141080 0.02071183 -0.16127910
v 0.11111370 0.01844485 -0.16208170
v 0.07865951 0.02297879 -0.16208170
v 0.07715934 0.02071182 -0.16127910
v 0.07653914 0.01844485 -0.16208170
v 0.04421672 0.02297879 -0.16208170
v 0.04290794 0.02071183 -0.16127910
v 0.04196464 0.01844485 -0.16208170
v 0.02699541 0.02297879 -0.16208170
v 0.02578220 0.02071182 -0.16127910
v 0.02467735 0.01844485 -0.16208170
v 0.00739010 0.01844485 -0.16208170
v 0.00865648 0.02071182 -0.16127910
v 0.00977409 0.02297879 -0.16208170
v 0.28144430 0.00885109 -0.16208170
v 0.41924630 0.00885109 -0.16208170
v 0.41693680 0.01164394 -0.16127910
v 0.28005360 0.01164394 -0.16127910
v 0.42045980 0.01391089 -0.16208170
v 0.28255120 0.01391090 -0.16208170
v 0.23658170 0.01391090 -0.16208170
v 0.23442580 0.01164394 -0.16127910
v 0.23551030 0.00885109 -0.16208170
v 0.19061210 0.01391090 -0.16208170
v 0.18879810 0.01164394 -0.16127910
v 0.18957630 0.00885109 -0.16208170
v 0.14364230 0.00885108 -0.16208170
v 0.14317030 0.01164394 -0.16127910
v 0.14464260 0.01391091 -0.16208170
v 0.10977760 0.01391091 -0.16208170
v 0.10840240 0.01164394 -0.16127910
v 0.10844840 0.00885108 -0.16208170
v 0.07491267 0.01391091 -0.16208170
v 0.07363445 0.01164394 -0.16127910
v 0.07325447 0.00885108 -0.16208170
v 0.04004772 0.01391091 -0.16208170
v 0.03886653 0.01164394 -0.16127910
v 0.03806045 0.00885108 -0.16208170
v 0.02261524 0.01391091 -0.16208170
v 0.02148256 0.01164394 -0.16127910
v 0.02046350 0.00885108 -0.16208170
v 0.00286657 0.00885108 -0.16208170
v 0.00409856 0.01164394 -0.16127910
v 0.00518280 0.01391091 -0.16208170
v 0.28069140 -0.00000074 -0.16119040
v 0.41861340 -0.00000074 -0.16208170
v 0.41570280 0.00257606 -0.16127910
v 0.27885820 0.00257606 -0.16127910
v 0.41874060 0.00484305 -0.16208170
v 0.28094170 0.00484304 -0.16208170
v 0.23500870 0.00467001 -0.16208170
v 0.23323110 0.00257606 -0.16127910
v 0.23471740 -0.00102059 -0.16119040
v 0.18907580 0.00481914 -0.16208170
v 0.18760400 0.00257606 -0.16127910
v 0.18874340 -0.00085064 -0.16119040
v 0.14276940 -0.00000075 -0.16119040
v 0.14197690 0.00257606 -0.16127910
v 0.14314270 0.00484304 -0.16208170
v 0.10770080 0.00484304 -0.16208170
v 0.10665250 0.00257606 -0.16127910
v 0.10711770 -0.00000075 -0.16119040
v 0.07225891 0.00484304 -0.16208170
v 0.07132810 0.00257606 -0.16127910
v 0.07146586 -0.00000075 -0.16119040
v 0.03681694 0.00484304 -0.16208170
v 0.03600365 0.00257606 -0.16127910
v 0.03581417 -0.00000074 -0.16119040
v 0.01909603 0.00484304 -0.16208170
v 0.01834144 0.00257607 -0.16127910
v 0.01798831 -0.00000075 -0.16119040
v 0.00016245 -0.00000075 -0.16119040
v 0.00067924 0.00257607 -0.16127910
v 0.00137502 0.00484304 -0.16208170
v 0.28531570 0.02297879 -0.16208170
v 0.42308650 0.02297879 -0.16208170
v 0.42072560 0.02524576 -0.16127910
v 0.28409950 0.02524576 -0.16127910
v 0.42399390 0.02751272 -0.16208170
v 0.28663610 0.02751272 -0.16208170
v 0.24085020 0.02751272 -0.16208170
v 0.23855750 0.02524576 -0.16127910
v 0.23939210 0.02297879 -0.16208170
v 0.19506430 0.02751272 -0.16208170
v 0.19301550 0.02524576 -0.16127910
v 0.19346850 0.02297879 -0.16208170
v 0.14754490 0.02297879 -0.16208170
v 0.14747340 0.02524576 -0.16127910
v 0.14927830 0.02751273 -0.16208170
v 0.11493890 0.02751273 -0.16208170
v 0.11331700 0.02524576 -0.16127910
v 0.11310220 0.02297879 -0.16208170
v 0.08059949 0.02751273 -0.16208170
v 0.07916048 0.02524576 -0.16127910
v 0.07865951 0.02297879 -0.16208170
v 0.04626001 0.02751274 -0.16208170
v 0.04500386 0.02524576 -0.16127910
v 0.04421672 0.02297879 -0.16208170
v 0.02909032 0.02751274 -0.16208170
v 0.02792562 0.02524576 -0.16127910
v 0.02699541 0.02297879 -0.16208170
v 0.00977409 0.02297879 -0.16208170
v 0.01084736 0.02524576 -0.16127910
v 0.01192062 0.02751273 -0.16208170
v 0.28255120 0.01391090 -0.16208170
v 0.42045980 0.01391089 -0.16208170
v 0.41805370 0.01565199 -0.16127910
v 0.28109610 0.01565199 -0.16127910
v 0.42180950 0.01844485 -0.16208170
v 0.28374880 0.01844484 -0.16208170
v 0.23772860 0.01844484 -0.16208170
v 0.23544350 0.01565199 -0.16127910
v 0.23658170 0.01391090 -0.16208170
v 0.19170840 0.01844485 -0.16208170
v 0.18979100 0.01565198 -0.16127910
v 0.19061210 0.01391090 -0.16208170
v 0.14464260 0.01391091 -0.16208170
v 0.14413840 0.01565198 -0.16127910
v 0.14568820 0.01844485 -0.16208170
v 0.11111370 0.01844485 -0.16208170
v 0.10961340 0.01565198 -0.16127910
v 0.10977760 0.01391091 -0.16208170
v 0.07653914 0.01844485 -0.16208170
v 0.07508840 0.01565198 -0.16127910
v 0.07491267 0.01391091 -0.16208170
v 0.04196464 0.01844485 -0.16208170
v 0.04056331 0.01565198 -0.16127910
v 0.04004772 0.01391091 -0.16208170
v 0.02467735 0.01844485 -0.16208170
v 0.02330080 0.01565198 -0.16127910
v 0.02261524 0.01391091 -0.16208170
v 0.00518280 0.01391091 -0.16208170
v 0.00603832 0.01565198 -0.16127910
v 0.00739010 0.01844485 -0.16208170
v 0.28094170 0.00484304 -0.16208170
v 0.41874060 0.00484305 -0.16208170
v 0.41604120 0.00710999 -0.16127910
v 0.27922480 0.00710999 -0.16127910
v 0.41924630 0.00885109 -0.16208170
v 0.28144430 0.00885109 -0.16208170
v 0.23551030 0.00885109 -0.16208170
v 0.23361930 0.00709504 -0.16127910
v 0.23500870 0.00467001 -0.16208170
v 0.18957630 0.00885109 -0.16208170
v 0.18801400 0.00710999 -0.16127910
v 0.18907580 0.00481914 -0.16208170
v 0.14314270 0.00484304 -0.16208170
v 0.14240850 0.00711000 -0.16127910
v 0.14364230 0.00885108 -0.16208170
v 0.10844840 0.00885108 -0.16208170
v 0.10735270 0.00711000 -0.16127910
v 0.10770080 0.00484304 -0.16208170
v 0.07325447 0.00885108 -0.16208170
v 0.07229704 0.00711000 -0.16127910
v 0.07225891 0.00484304 -0.16208170
v 0.03806045 0.00885108 -0.16208170
v 0.03724121 0.00711000 -0.16127910
v 0.03681694 0.00484304 -0.16208170
v 0.02046350 0.00885108 -0.16208170
v 0.01971334 0.00711000 -0.16127910
v 0.01909603 0.00484304 -0.16208170
v 0.00137502 0.00484304 -0.16208170
v 0.00218544 0.00711001 -0.16127910
v 0.00286657 0.00885108 -0.16208170
v 0.03581417 -0.00191047 -0.15954560
v 0.03581417 -0.00000074 -0.16119040
v 0.01798831 -0.00000075 -0.16119040
v 0.00016245 -0.00000075 -0.16119040
v 0.07146586 -0.00000075 -0.16119040
v 0.07146586 -0.00191047 -0.15954560
v 0.10711770 -0.00000075 -0.16119040
v 0.03811931 -0.00575330 -0.15741530
v 0.10711760 -0.00191047 -0.15954560
v 0.14276940 -0.00000075 -0.16119040
v 0.01787622 -0.00730837 -0.15954560
v 0.03581417 -0.00930074 -0.15954560
v 0.07329494 -0.00669541 -0.15741530
v 0.07146586 -0.01118497 -0.15954560
v 0.10847060 -0.00684647 -0.15741530
v 0.10711770 -0.01148708 -0.15954560
v 0.14276940 -0.00191047 -0.15954560
v 0.18874340 -0.00085064 -0.16119040
v 0.14364640 -0.00620494 -0.15741530
v 0.14276940 -0.01039183 -0.15954560
v 0.18874340 -0.00191047 -0.15954560
v 0.23471740 -0.00102059 -0.16119040
v 0.18900650 -0.00574355 -0.15741530
v 0.18874340 -0.00876541 -0.15954560
v 0.23471740 -0.00191047 -0.15954560
v 0.28069140 -0.00000074 -0.16119040
v 0.23436670 -0.00515424 -0.15741530
v 0.23471740 -0.00653552 -0.15954560
v 0.28069140 -0.00191047 -0.15954560
v 0.41861340 -0.00000074 -0.16208170
v 0.41275560 -0.00191047 -0.15954560
v 0.28069140 -0.00191047 -0.15954560
v 0.27972680 -0.00294858 -0.15741530
v 0.41275560 -0.00191047 -0.15954560
v 0.28069140 -0.00369133 -0.15954560
v 0.41322840 -0.00294859 -0.15741530
v 0.41601260 -0.00369133 -0.15954560
v 0.27972680 -0.00591955 -0.15741530
v 0.23436670 -0.01022615 -0.15741530
v 0.23471740 -0.01123263 -0.15954560
v 0.18874340 -0.01998679 -0.15954560
v 0.18900650 -0.01795776 -0.15741530
v 0.14276940 -0.02720012 -0.15954560
v 0.14364640 -0.02318813 -0.15741530
v 0.10711770 -0.03004956 -0.15954560
v 0.10847060 -0.02540894 -0.15741530
v 0.07146586 -0.02914320 -0.15954560
v 0.07329492 -0.02465363 -0.15741530
v 0.03581417 -0.02349057 -0.15954560
v 0.03811931 -0.01994312 -0.15741530
v 0.07146586 -0.02016407 -0.15954560
v 0.01787622 -0.01751343 -0.15954560
v 0.28069140 -0.00666230 -0.15954560
v 0.41322840 -0.00591955 -0.15741530
v 0.41601260 -0.00666230 -0.15954560
v 0.10711760 -0.02076832 -0.15954560
v 0.14276940 -0.01899143 -0.15954560
v 0.18874330 -0.01441833 -0.15954560
v 0.23471740 -0.00909703 -0.15954560
v 0.28069140 -0.00517682 -0.15954560
v 0.41601260 -0.00517682 -0.15954560
v 0.01787628 -0.01241090 -0.15954560
v -0.00006171 -0.00315131 -0.15954560
v 0.03581417 -0.01639566 -0.15954560
v 0.41322840 -0.00443407 -0.15741530
v 0.28069140 -0.00517682 -0.15954560
v 0.41601260 -0.00517682 -0.15954560
v 0.27972680 -0.00443407 -0.15741530
v 0.23471740 -0.00909703 -0.15954560
v 0.23436670 -0.00785939 -0.15741530
v 0.18874330 -0.01441833 -0.15954560
v 0.18900650 -0.01170309 -0.15741530
v 0.14276940 -0.01899143 -0.15954560
v 0.14364640 -0.01468983 -0.15741530
v 0.10711760 -0.02076832 -0.15954560
v 0.10847060 -0.01612770 -0.15741530
v 0.07146586 -0.02016407 -0.15954560
v 0.07329494 -0.01567452 -0.15741530
v 0.03581417 -0.01639566 -0.15954560
v 0.03811931 -0.01284821 -0.15741530
v 0.01787628 -0.01241090 -0.15954560
v 0.02042082 -0.00985964 -0.15741530
v -0.00006171 -0.00315131 -0.15954560
v -0.00006171 -0.00291494 -0.15741530
v 0.41601260 -0.00369133 -0.15954560
v 0.28069140 -0.00369133 -0.15954560
v 0.23471740 -0.00653552 -0.15954560
v 0.18874340 -0.00876541 -0.15954560
v 0.14276940 -0.01039183 -0.15954560
v 0.10711770 -0.01148708 -0.15954560
v 0.07146586 -0.01118497 -0.15954560
v 0.03581417 -0.00930074 -0.15954560
v 0.01787622 -0.00730837 -0.15954560
v -0.00006171 -0.00267858 -0.15954560
vn -0.02019505 -0.68702790 0.72635020
vn 0.07709389 -0.01646454 0.99688790
vn -0.02641086 -0.73557770 0.67692540
vn 0.07625940 0.04805658 0.99592930
vn 0.41569600 0.62720980 0.65863840
vn 0.05800258 -0.05082413 0.99702190
vn -0.39280950 -0.82001120 0.41627190
vn -0.45777020 -0.84418080 0.27893600
vn 0.04947732 0.03441145 0.99818230
vn 0.29830390 0.70727850 0.64091490
vn 0.07575695 -0.03278470 0.99658720
vn -0.21276060 -0.81225500 0.54311590
vn -0.26263280 -0.87178620 0.41353680
vn 0.03135368 0.01198545 0.99943640
vn 0.14229280 0.78721490 0.60003790
vn -0.02019526 -0.68702790 -0.72635040
vn -0.02641112 -0.73557750 -0.67692550
vn 0.07709311 -0.01646468 -0.99688800
vn 0.07625952 0.04805661 -0.99592930
vn 0.05800332 -0.05082462 -0.99702170
vn 0.41569590 0.62720980 -0.65863850
vn 0.03135361 0.01198516 -0.99943640
vn 0.14229220 0.78721460 -0.60003830
vn 0.71375610 0.70039430 0.00000000
vn 0.96749820 -0.25287780 0.00000000
vn 0.96749820 -0.25287780 0.00000000
vn 0.71375610 0.70039430 0.00000000
vn 0.00000000 0.33371710 0.94267330
vn 0.00000000 -0.01602914 0.99987150
vn 0.00000000 0.33371730 0.94267310
vn 0.00000000 0.02875999 0.99958640
vn 0.00000000 -0.33371900 0.94267250
vn 0.00000000 -0.33371900 0.94267250
vn 0.00000000 -0.33371940 0.94267240
vn -0.00000011 0.00018660 1.00000000
vn 0.00000000 0.33371720 0.94267330
vn 0.00000000 -0.33371850 0.94267280
vn 0.00000000 0.00018691 1.00000000
vn -0.00000015 0.33371830 0.94267280
vn 0.00000011 0.33371760 0.94267310
vn 0.00000011 0.01109762 0.99993850
vn 0.00000000 -0.33371860 0.94267270
vn 0.00000000 -0.33371900 0.94267250
vn 0.00000000 0.00033961 1.00000000
vn 0.00000000 0.33371770 0.94267300
vn 0.00000000 -0.33371940 0.94267240
vn 0.00000000 0.00033935 1.00000000
vn 0.00000000 0.33371790 0.94267300
vn 0.00000000 -0.33371920 0.94267250
vn 0.00000000 0.03351880 0.99943810
vn 0.00000000 0.33371780 0.94267300
vn -0.00000018 -0.33371860 0.94267270
vn -0.00000023 0.00033969 1.00000000
vn -0.00000019 0.33371820 0.94267280
vn 0.00000000 0.33371860 0.94267270
vn 0.00000000 0.10180940 0.99480380
vn 0.00000000 -0.33371830 0.94267280
vn 0.77062920 0.63728380 0.00000000
vn 0.97448620 -0.22444750 0.00000000
vn 0.97448620 -0.22444750 0.00000000
vn 0.77062920 0.63728380 0.00000000
vn 0.00000000 0.27617870 0.96110630
vn 0.00000000 -0.02009575 0.99979810
vn 0.00000000 0.27617880 0.96110630
vn 0.00000000 0.02233136 0.99975070
vn 0.00000000 -0.33371940 0.94267240
vn 0.00000000 -0.33371950 0.94267240
vn 0.00000000 -0.33371990 0.94267230
vn 0.00000000 -0.00006146 1.00000000
vn 0.00000000 0.27617840 0.96110640
vn 0.00000000 -0.33371960 0.94267230
vn 0.00000000 -0.00006158 1.00000000
vn 0.00000000 0.27617810 0.96110650
vn 0.00000000 0.27617780 0.96110650
vn 0.00000000 0.00582985 0.99998310
vn 0.00000000 -0.33371900 0.94267250
vn 0.00000000 -0.33371820 0.94267300
vn 0.00000000 0.00074739 0.99999980
vn 0.00000000 0.27617750 0.96110670
vn 0.00000000 -0.33371840 0.94267280
vn 0.00000000 0.00074737 0.99999980
vn 0.00000000 0.27617760 0.96110670
vn 0.00000000 -0.33371880 0.94267270
vn 0.00000000 0.02548668 0.99967520
vn 0.00000000 0.27617760 0.96110670
vn 0.00000000 -0.33371840 0.94267280
vn 0.00000000 0.00074741 0.99999980
vn 0.00000000 0.27617760 0.96110670
vn 0.00000000 0.27617750 0.96110670
vn 0.00000000 0.08199925 0.99663240
vn 0.00000000 -0.33371850 0.94267280
vn 0.66521220 0.74665440 -0.00003761
vn 0.99960690 -0.02803767 -0.00005652
vn 0.99960870 -0.02797522 -0.00005652
vn 0.66521220 0.74665450 -0.00003761
vn -0.00268639 0.10996340 0.99393200
vn -0.00169160 -0.09700681 0.99528220
vn -0.00321392 0.13431470 0.99093350
vn -0.00072614 -0.12290140 0.99241860
vn 0.00000000 -0.33371650 0.94267340
vn 0.00007010 -0.33502720 0.94220850
vn 0.00030460 -0.34614240 0.93818190
vn -0.00004098 -0.15907070 0.98726720
vn 0.00016973 -0.02722876 0.99962930
vn -0.00040645 -0.34291090 0.93936780
vn -0.00020479 -0.16204220 0.98678390
vn -0.00012820 -0.02683178 0.99964000
vn -0.00018959 -0.03111911 0.99951570
vn -0.00009276 -0.17323720 0.98488010
vn -0.00006122 -0.33478410 0.94229490
vn 0.00000000 -0.33371790 0.94267300
vn 0.00000000 -0.18074100 0.98353070
vn 0.00000000 -0.03441516 0.99940760
vn 0.00000000 -0.33371810 0.94267300
vn 0.00000000 -0.18074120 0.98353070
vn -0.00000011 -0.03441516 0.99940760
vn 0.00000000 -0.33371820 0.94267280
vn 0.00000000 -0.17415520 0.98471830
vn 0.00000000 -0.03441517 0.99940760
vn -0.00000027 -0.33371820 0.94267280
vn -0.00000024 -0.18074110 0.98353070
vn 0.00000000 -0.03441514 0.99940760
vn 0.00000000 -0.03441512 0.99940760
vn -0.00000028 -0.15709890 0.98758290
vn -0.00000068 -0.33371840 0.94267280
vn 0.98317450 -0.18266860 0.00000000
vn 0.56994530 -0.82168250 0.00000000
vn 0.56994530 -0.82168250 0.00000000
vn 0.98317450 -0.18266860 0.00000000
vn 0.00000000 0.33371880 0.94267260
vn 0.00000000 -0.01142113 0.99993480
vn 0.00000000 0.33371880 0.94267260
vn 0.00000000 0.02458791 0.99969770
vn 0.00000000 -0.33372120 0.94267180
vn 0.00000000 -0.33372120 0.94267180
vn 0.00000000 -0.33372070 0.94267200
vn 0.00000000 0.00026663 1.00000000
vn 0.00000000 0.33371890 0.94267260
vn 0.00000000 -0.33372030 0.94267210
vn 0.00000000 0.00026670 1.00000000
vn 0.00000000 0.33371880 0.94267260
vn 0.00000000 0.33371920 0.94267250
vn 0.00000000 0.01046474 0.99994530
vn 0.00000000 -0.33371920 0.94267250
vn 0.00000000 -0.33371900 0.94267250
vn 0.00000000 0.00026648 1.00000000
vn 0.00000000 0.33371890 0.94267260
vn 0.00000000 -0.33371930 0.94267250
vn 0.00000000 0.00026660 1.00000000
vn 0.00000000 0.33371850 0.94267270
vn -0.00000011 -0.33371900 0.94267250
vn 0.00000000 0.03074730 0.99952720
vn 0.00000000 0.33371880 0.94267260
vn 0.00000000 -0.33371920 0.94267250
vn 0.00000000 0.00026604 1.00000000
vn 0.00000000 0.33371870 0.94267270
vn 0.00000000 0.33371860 0.94267270
vn 0.00000000 0.09442708 0.99553170
vn 0.00000000 -0.33371930 0.94267250
vn 0.69261860 0.72130410 0.00000000
vn 0.69261860 0.72130410 0.00000000
vn 0.54347580 -0.83942480 0.00000000
vn 0.54347580 -0.83942480 0.00000000
vn 0.96698210 -0.25484460 0.00000000
vn 0.59671190 -0.80245550 0.00000000
vn 0.59671190 -0.80245550 0.00000000
vn 0.96698210 -0.25484460 0.00000000
vn 0.00000000 0.41860910 0.90816650
vn 0.00000000 -0.00111949 0.99999940
vn 0.00000000 0.41860920 0.90816640
vn 0.00000000 0.00648753 0.99997900
vn 0.00000000 -0.27617790 0.96110650
vn 0.00000000 -0.27617810 0.96110650
vn -0.00000018 -0.27617860 0.96110630
vn -0.00000014 -0.00009776 1.00000000
vn -0.00000011 0.41860880 0.90816660
vn 0.00000000 -0.27617730 0.96110680
vn 0.00000000 -0.00009774 1.00000000
vn -0.00000010 0.41861050 0.90816580
vn 0.00000000 0.41861250 0.90816500
vn 0.00000000 0.00415457 0.99999140
vn 0.00000000 -0.27617690 0.96110680
vn 0.00000000 -0.27617700 0.96110680
vn 0.00000000 0.00074263 0.99999980
vn 0.00000000 0.41861330 0.90816460
vn 0.00000000 -0.27617690 0.96110680
vn 0.00000000 0.00074269 0.99999980
vn 0.00000000 0.41861280 0.90816490
vn 0.00000000 -0.27617680 0.96110680
vn 0.00000000 0.02853721 0.99959270
vn 0.00000000 0.41861300 0.90816470
vn 0.00000000 -0.27617690 0.96110680
vn 0.00000000 0.00074268 0.99999980
vn 0.00000000 0.41861330 0.90816460
vn 0.00000000 0.41861310 0.90816470
vn 0.00000000 0.10363010 0.99461590
vn 0.00000000 -0.27617730 0.96110680
vn 0.58624580 0.81013320 0.00000000
vn 0.58624580 0.81013320 0.00000000
vn 0.54111910 -0.84094590 0.00000000
vn 0.54111910 -0.84094590 0.00000000
vn 0.99250200 -0.12222880 0.00000000
vn 0.47734140 -0.87871780 0.00000000
vn 0.47734140 -0.87871780 0.00000000
vn 0.99250200 -0.12222880 0.00000000
vn -0.00008653 0.33236300 0.94315160
vn 0.00000000 -0.01513813 0.99988540
vn 0.00000000 0.33372160 0.94267170
vn -0.00016805 0.01950722 0.99980970
vn 0.00000000 -0.41860750 0.90816720
vn 0.00000609 -0.41848140 0.90822540
vn 0.00003362 -0.41716440 0.90883090
vn 0.00007797 0.00007374 1.00000000
vn -0.00023946 0.32300540 0.94639720
vn -0.00004894 -0.41750620 0.90867410
vn 0.00015443 -0.00004050 1.00000000
vn 0.00040042 0.32599110 0.94537280
vn 0.00005696 0.33271900 0.94302610
vn 0.00002481 0.00515233 0.99998680
vn 0.00000000 -0.41860990 0.90816610
vn 0.00000000 -0.41861140 0.90816550
vn 0.00000000 0.00070544 0.99999980
vn 0.00000000 0.33372010 0.94267220
vn 0.00000015 -0.41861100 0.90816560
vn 0.00000017 0.00070539 0.99999980
vn 0.00000000 0.33372000 0.94267230
vn 0.00000033 -0.41861090 0.90816560
vn 0.00000016 0.02566867 0.99967050
vn 0.00000000 0.33372000 0.94267230
vn 0.00000000 -0.41861210 0.90816500
vn 0.00000000 0.00070555 0.99999980
vn 0.00000000 0.33371970 0.94267230
vn 0.00000000 0.33371960 0.94267230
vn 0.00000000 0.08341437 0.99651490
vn 0.00000000 -0.41861190 0.90816520
vn 0.64310070 0.76578160 0.00000000
vn 0.64310070 0.76578160 0.00000000
vn 0.60041110 -0.79969150 -0.00003395
vn 0.60041110 -0.79969150 -0.00003395
vn 0.91005550 0.41448640 0.00000000
vn 0.51032770 0.85998000 0.00000000
vn 0.91005550 0.41448640 0.00000000
vn 0.51032770 0.85998000 0.00000000
vn 0.25776220 0.96620840 0.00000000
vn 0.25776220 0.96620840 0.00000000
vn 0.00000000 -0.89894410 0.43806350
vn 0.00000000 0.58762720 0.80913190
vn -0.01032758 -0.00496300 0.99993440
vn 0.00360553 -0.86682970 0.49859140
vn -0.01303482 0.00731307 0.99988830
vn -0.00609929 -0.55629690 0.83096130
vn 0.00000021 -0.65258080 0.75771920
vn 0.00000033 -0.65258070 0.75771920
vn 0.00000000 -0.65258120 0.75771880
vn 0.00000000 -0.65258120 0.75771870
vn -0.00254323 -0.50720070 0.86182430
vn 0.00000000 -0.65258150 0.75771860
vn 0.00884917 0.00154077 0.99995970
vn 0.00071683 -0.49297930 0.87004080
vn -0.00363723 -0.70141190 0.71274690
vn 0.10544180 0.70199530 0.70433290
vn 0.03029650 0.49883570 0.86616690
vn 0.00313252 0.00307024 0.99999050
vn 0.01186091 0.44485690 0.89552310
vn -0.00172468 0.00303824 0.99999390
vn -0.00273247 0.42809380 0.90373020
vn 0.00087183 -0.53299120 0.84612040
vn -0.00445142 -0.80063800 0.59913180
vn -0.00439407 -0.00057841 0.99999020
vn -0.01115480 0.47068990 0.88222830
vn 0.00047745 -0.59981500 0.80013850
vn 0.00376113 -0.81066180 0.58550260
vn -0.00682428 0.00048598 0.99997660
vn -0.01558881 0.58618230 0.81002920
vn 0.00751721 -0.68863930 0.72506520
vn -0.00004913 -0.74188410 0.67052820
vn -0.00002570 -0.74193910 0.67046720
vn -0.00223222 -0.73672660 0.67618710
vn -0.00223222 -0.73672660 0.67618710
vn 0.30995560 -0.95075110 0.00000000
vn 0.30995550 -0.95075110 0.00000000
vn 0.30995550 -0.95075110 0.00000000
vn 0.30995560 -0.95075110 0.00000000
vn -0.01344720 -0.01516489 0.99979470
vn -0.11780880 0.86236490 0.49238990
vn -0.10435720 0.67137550 0.73373320
vn -0.01619885 0.01063896 0.99981220
vn -0.05135414 0.50464060 0.86180070
vn -0.00865647 0.01180466 0.99989280
vn -0.00655975 0.43118490 0.90223980
vn -0.00218139 0.01170972 0.99992910
vn 0.04145696 0.43248460 0.90068780
vn 0.00555867 0.01561131 0.99986270
vn 0.09902795 0.45925800 0.88276590
vn 0.01269318 0.00075557 0.99991920
vn 0.29865120 0.57126600 0.76450160
vn -0.00201718 -0.01526105 0.99988150
vn -0.01563754 0.93944900 0.34233180
vn 0.00000000 -0.00000071 1.00000000
vn 0.00000000 0.94425330 0.32921980
vn 1.00000000 -0.00000045 0.00000000
vn 0.25775700 0.96620980 0.00000000
vn 0.25775700 0.96620980 0.00000000
vn 1.00000000 -0.00000045 0.00000000
vn 0.00000000 -0.94425510 0.32921490
vn 0.01390153 -0.94110720 0.33782230
vn 0.09194104 -0.81168670 0.57681160
vn 0.07064706 -0.56317830 0.82331000
vn 0.03769306 -0.45282440 0.89080260
vn 0.00548993 -0.42693290 0.90426660
vn -0.03818213 -0.46463520 0.88467870
vn -0.10853550 -0.56883730 0.81525710
vn 0.25775100 -0.96621130 0.00000000
vn 0.25775100 -0.96621130 0.00000000
vn 0.00000000 -0.00000047 1.00000000
vn 0.00000000 0.94425330 0.32922020
vn -0.01285981 0.93695320 0.34921810
vn -0.00457381 -0.01158309 0.99992250
vn -0.07347911 0.81813000 0.57031930
vn -0.01570468 -0.00201742 0.99987460
vn -0.05485034 0.60502090 0.79431790
vn -0.01325693 0.00366701 0.99990550
vn -0.03006114 0.47380710 0.88011540
vn -0.00699155 0.00588974 0.99995830
vn 0.03445483 -0.59090640 0.80600400
vn -0.00420690 0.42635340 0.90454690
vn 0.02012545 -0.46411740 0.88554510
vn -0.00110772 0.00734608 0.99997250
vn 0.02702167 0.43858160 0.89828500
vn 0.00379192 -0.42542460 0.90498600
vn 0.00402478 0.00943044 0.99994740
vn 0.06668808 0.47825510 0.87568530
vn -0.02072470 -0.45789870 0.88876280
vn 0.01038201 0.00069293 0.99994590
vn 0.21631220 0.63366410 0.74275090
vn -0.05686674 -0.54441770 0.83688440
vn 1.00000000 -0.00000045 0.00000000
vn 0.25775610 0.96621000 0.00000000
vn 0.25775610 0.96621000 0.00000000
vn 1.00000000 -0.00000045 0.00000000
vn 0.05529153 -0.81689000 0.57413730
vn 0.01061854 -0.93852710 0.34504220
vn 0.00000000 -0.94425410 0.32921770
vn 0.25775360 -0.96621070 0.00000000
vn 0.25775360 -0.96621070 0.00000000
vn -0.03498912 0.79678010 0.60325550
vn -0.00877790 0.93568210 0.35273490
vn 0.00000000 0.94425330 0.32921960
vn 0.00000000 0.33371720 -0.94267330
vn 0.00000000 0.33371740 -0.94267310
vn 0.00000000 -0.01602914 -0.99987150
vn 0.00000000 0.02876008 -0.99958640
vn 0.00000000 -0.33371920 -0.94267250
vn 0.00000000 -0.33371930 -0.94267250
vn 0.00000000 -0.33371960 -0.94267240
vn 0.00000000 0.00018660 -1.00000000
vn -0.00000011 0.33371730 -0.94267310
vn 0.00000000 -0.33371840 -0.94267280
vn 0.00000000 0.00018678 -1.00000000
vn -0.00000015 0.33371820 -0.94267300
vn 0.00000015 0.33371770 -0.94267310
vn 0.00000000 0.01109749 -0.99993850
vn 0.00000000 -0.33371840 -0.94267280
vn 0.00000000 -0.33371940 -0.94267240
vn 0.00000000 0.00033942 -1.00000000
vn 0.00000000 0.33371770 -0.94267300
vn 0.00000000 -0.33371970 -0.94267230
vn 0.00000000 0.00033918 -1.00000000
vn 0.00000000 0.33371780 -0.94267300
vn 0.00000000 -0.33371930 -0.94267250
vn 0.00000000 0.03351876 -0.99943810
vn -0.00000012 0.33371770 -0.94267300
vn 0.00000000 -0.33371850 -0.94267280
vn -0.00000024 0.00033977 -1.00000000
vn -0.00000025 0.33371830 -0.94267280
vn 0.00000000 0.33371870 -0.94267270
vn 0.00000000 0.10180960 -0.99480380
vn 0.00000000 -0.33371780 -0.94267300
vn 0.00000000 0.27617860 -0.96110630
vn 0.00000000 0.27617870 -0.96110630
vn 0.00000000 -0.02009579 -0.99979810
vn 0.00000000 0.02233139 -0.99975070
vn 0.00000000 -0.33371960 -0.94267240
vn 0.00000000 -0.33371960 -0.94267240
vn 0.00000000 -0.33371970 -0.94267230
vn 0.00000000 -0.00006134 -1.00000000
vn 0.00000000 0.27617860 -0.96110630
vn 0.00000000 -0.33371960 -0.94267240
vn 0.00000000 -0.00006156 -1.00000000
vn 0.00000000 0.27617820 -0.96110640
vn 0.00000000 0.27617750 -0.96110670
vn 0.00000000 0.00582974 -0.99998310
vn 0.00000000 -0.33371900 -0.94267250
vn 0.00000000 -0.33371830 -0.94267280
vn 0.00000000 0.00074737 -0.99999980
vn 0.00000000 0.27617730 -0.96110680
vn 0.00000000 -0.33371850 -0.94267270
vn 0.00000000 0.00074754 -0.99999980
vn 0.00000000 0.27617760 -0.96110670
vn 0.00000000 -0.33371870 -0.94267270
vn 0.00000000 0.02548675 -0.99967520
vn 0.00000000 0.27617780 -0.96110670
vn 0.00000000 -0.33371840 -0.94267280
vn 0.00000000 0.00074746 -0.99999980
vn 0.00000000 0.27617760 -0.96110670
vn 0.00000000 0.27617760 -0.96110670
vn 0.00000000 0.08199937 -0.99663240
vn 0.00000000 -0.33371840 -0.94267280
vn -0.00268673 0.10994090 -0.99393450
vn -0.00321435 0.13429160 -0.99093670
vn -0.00169201 -0.09698920 -0.99528400
vn -0.00072622 -0.12291110 -0.99241750
vn 0.00000000 -0.33371680 -0.94267340
vn 0.00007014 -0.33502780 -0.94220820
vn 0.00030463 -0.34614240 -0.93818190
vn -0.00004104 -0.15907080 -0.98726720
vn 0.00016961 -0.02722877 -0.99962930
vn -0.00040653 -0.34291090 -0.93936780
vn -0.00020486 -0.16204220 -0.98678390
vn -0.00012823 -0.02683179 -0.99964000
vn -0.00018962 -0.03111911 -0.99951570
vn -0.00009278 -0.17323720 -0.98488010
vn -0.00006129 -0.33478410 -0.94229490
vn 0.00000000 -0.33371820 -0.94267300
vn 0.00000000 -0.18074100 -0.98353070
vn 0.00000000 -0.03441514 -0.99940760
vn 0.00000000 -0.33371820 -0.94267300
vn 0.00000000 -0.18074110 -0.98353070
vn -0.00000016 -0.03441516 -0.99940760
vn 0.00000000 -0.33371820 -0.94267300
vn 0.00000000 -0.17415510 -0.98471830
vn 0.00000000 -0.03441516 -0.99940760
vn -0.00000017 -0.33371810 -0.94267300
vn 0.00000000 -0.18074100 -0.98353070
vn 0.00000013 -0.03441514 -0.99940760
vn 0.00000024 -0.03441512 -0.99940760
vn 0.00000000 -0.15709890 -0.98758290
vn -0.00000043 -0.33371830 -0.94267280
vn 0.00000000 0.33371890 -0.94267260
vn 0.00000000 0.33371900 -0.94267260
vn 0.00000000 -0.01142083 -0.99993480
vn 0.00000000 0.02458804 -0.99969770
vn 0.00000000 -0.33372100 -0.94267190
vn 0.00000000 -0.33372100 -0.94267190
vn 0.00000000 -0.33372060 -0.94267200
vn 0.00000000 0.00026667 -1.00000000
vn 0.00000000 0.33371870 -0.94267270
vn 0.00000000 -0.33372010 -0.94267230
vn 0.00000000 0.00026692 -1.00000000
vn 0.00000000 0.33371880 -0.94267270
vn 0.00000000 0.33371900 -0.94267250
vn 0.00000000 0.01046449 -0.99994530
vn 0.00000000 -0.33371890 -0.94267260
vn 0.00000000 -0.33371920 -0.94267250
vn 0.00000000 0.00026630 -1.00000000
vn 0.00000000 0.33371890 -0.94267260
vn 0.00000000 -0.33371930 -0.94267250
vn 0.00000000 0.00026665 -1.00000000
vn 0.00000000 0.33371870 -0.94267270
vn 0.00000000 -0.33371900 -0.94267250
vn 0.00000000 0.03074733 -0.99952720
vn 0.00000000 0.33371880 -0.94267270
vn 0.00000000 -0.33371930 -0.94267250
vn 0.00000000 0.00026618 -1.00000000
vn 0.00000000 0.33371900 -0.94267250
vn 0.00000000 0.33371920 -0.94267250
vn 0.00000000 0.09442743 -0.99553170
vn 0.00000000 -0.33371960 -0.94267240
vn 0.00000000 0.41860910 -0.90816650
vn 0.00000000 0.41860920 -0.90816650
vn 0.00000000 -0.00111949 -0.99999940
vn 0.00000000 0.00648770 -0.99997900
vn 0.00000000 -0.27617780 -0.96110650
vn 0.00000000 -0.27617790 -0.96110650
vn -0.00000015 -0.27617840 -0.96110640
vn 0.00000000 -0.00009756 -1.00000000
vn 0.00000000 0.41860920 -0.90816640
vn 0.00000000 -0.27617710 -0.96110680
vn 0.00000000 -0.00009749 -1.00000000
vn 0.00000000 0.41861070 -0.90816580
vn 0.00000000 0.41861220 -0.90816500
vn 0.00000000 0.00415468 -0.99999140
vn 0.00000000 -0.27617680 -0.96110680
vn 0.00000000 -0.27617700 -0.96110680
vn 0.00000000 0.00074262 -0.99999980
vn 0.00000000 0.41861320 -0.90816470
vn 0.00000000 -0.27617690 -0.96110680
vn 0.00000000 0.00074265 -0.99999980
vn 0.00000000 0.41861270 -0.90816490
vn 0.00000000 -0.27617690 -0.96110680
vn 0.00000000 0.02853715 -0.99959270
vn 0.00000000 0.41861310 -0.90816470
vn 0.00000000 -0.27617700 -0.96110680
vn 0.00000000 0.00074262 -0.99999980
vn 0.00000000 0.41861330 -0.90816460
vn 0.00000000 0.41861300 -0.90816470
vn 0.00000000 0.10363010 -0.99461590
vn 0.00000000 -0.27617720 -0.96110680
vn -0.00008655 0.33236300 -0.94315160
vn 0.00000000 0.33372160 -0.94267170
vn 0.00000000 -0.01513818 -0.99988540
vn -0.00016804 0.01950713 -0.99980970
vn 0.00000000 -0.41860760 -0.90816720
vn 0.00000609 -0.41848150 -0.90822540
vn 0.00003362 -0.41716470 -0.90883090
vn 0.00007796 0.00007368 -1.00000000
vn -0.00023944 0.32300530 -0.94639720
vn -0.00004895 -0.41750650 -0.90867390
vn 0.00015440 -0.00004053 -1.00000000
vn 0.00040037 0.32599110 -0.94537280
vn 0.00005695 0.33271900 -0.94302610
vn 0.00002480 0.00515228 -0.99998680
vn 0.00000000 -0.41860990 -0.90816610
vn 0.00000000 -0.41861130 -0.90816560
vn 0.00000000 0.00070548 -0.99999980
vn 0.00000000 0.33372010 -0.94267220
vn 0.00000015 -0.41861110 -0.90816560
vn 0.00000013 0.00070538 -0.99999980
vn 0.00000000 0.33372030 -0.94267220
vn 0.00000033 -0.41861110 -0.90816560
vn 0.00000010 0.02566862 -0.99967050
vn 0.00000000 0.33372010 -0.94267220
vn 0.00000000 -0.41861210 -0.90816500
vn 0.00000000 0.00070541 -0.99999980
vn 0.00000000 0.33371960 -0.94267240
vn 0.00000000 0.33371960 -0.94267240
vn 0.00000000 0.08341412 -0.99651490
vn -0.00000010 -0.41861220 -0.90816500
vn -0.00609934 -0.55629690 -0.83096130
vn 0.00000000 -0.65258080 -0.75771920
vn 0.00000000 -0.65258080 -0.75771920
vn -0.00000024 -0.65258120 -0.75771870
vn 0.00000000 -0.65258110 -0.75771880
vn -0.00254326 -0.50720070 -0.86182430
vn 0.00000000 -0.65258130 -0.75771870
vn 0.00884907 0.00154075 -0.99995970
vn 0.00071681 -0.49297910 -0.87004080
vn -0.00363723 -0.70141190 -0.71274690
vn 0.10544150 0.70199500 -0.70433320
vn 0.03029644 0.49883570 -0.86616690
vn 0.00313247 0.00307021 -0.99999050
vn 0.01186076 0.44485690 -0.89552310
vn -0.00172456 0.00303820 -0.99999390
vn -0.00273231 0.42809380 -0.90373020
vn 0.00087183 -0.53299120 -0.84612040
vn -0.00445138 -0.80063800 -0.59913180
vn -0.00439400 -0.00057840 -0.99999020
vn -0.01115461 0.47069000 -0.88222810
vn 0.00047746 -0.59981500 -0.80013850
vn 0.00376116 -0.81066170 -0.58550270
vn -0.00682435 0.00048591 -0.99997660
vn -0.01558894 0.58618240 -0.81002920
vn 0.00751726 -0.68863930 -0.72506510
vn -0.00004913 -0.74188380 -0.67052840
vn -0.01303497 0.00731287 -0.99988830
vn -0.03498945 0.79678000 -0.60325570
vn -0.00002569 -0.74193890 -0.67046740
vn -0.00223222 -0.73672630 -0.67618730
vn -0.00223222 -0.73672630 -0.67618730
vn 0.00360555 -0.86682960 -0.49859150
vn -0.01032767 -0.00496315 -0.99993430
vn 0.00000000 -0.89894400 -0.43806370
vn -0.00877798 0.93568200 -0.35273510
vn 0.00000000 0.58762680 -0.80913210
vn 0.00000000 0.94425330 -0.32921990
vn -0.00201731 -0.01526134 -0.99988150
vn -0.01344716 -0.01516502 -0.99979470
vn -0.11780880 0.86236490 -0.49239010
vn -0.10435720 0.67137550 -0.73373330
vn -0.01619871 0.01063884 -0.99981220
vn -0.05135423 0.50464070 -0.86180070
vn -0.00865635 0.01180464 -0.99989280
vn -0.00655983 0.43118490 -0.90223980
vn -0.00218133 0.01170972 -0.99992910
vn 0.04145691 0.43248460 -0.90068780
vn 0.00555861 0.01561132 -0.99986270
vn 0.09902795 0.45925800 -0.88276590
vn 0.01269319 0.00075561 -0.99991920
vn -0.03818217 -0.46463520 -0.88467850
vn 0.29865120 0.57126600 -0.76450160
vn -0.01563754 0.93944890 -0.34233190
vn 0.00000000 -0.00000083 -1.00000000
vn 0.00000000 0.94425330 -0.32922000
vn 0.00549002 -0.42693290 -0.90426660
vn 0.03769337 -0.45282440 -0.89080260
vn 0.07064726 -0.56317820 -0.82330990
vn 0.09194101 -0.81168680 -0.57681150
vn 0.01390150 -0.94110740 -0.33782190
vn 0.00000000 -0.94425520 -0.32921450
vn -0.39280880 -0.82001150 -0.41627190
vn -0.45776920 -0.84418120 -0.27893590
vn -0.10853550 -0.56883730 -0.81525710
vn 0.00000000 -0.00000047 -1.00000000
vn -0.01285979 0.93695320 -0.34921800
vn 0.00000000 0.94425330 -0.32921990
vn -0.00457375 -0.01158302 -0.99992250
vn -0.07347922 0.81812990 -0.57031950
vn -0.01570479 -0.00201751 -0.99987460
vn -0.05485045 0.60502090 -0.79431790
vn -0.01325696 0.00366694 -0.99990550
vn -0.03006123 0.47380700 -0.88011540
vn -0.00699149 0.00588969 -0.99995830
vn -0.00420692 0.42635340 -0.90454690
vn -0.00110772 0.00734605 -0.99997250
vn 0.02702161 0.43858170 -0.89828500
vn 0.00402475 0.00943044 -0.99994740
vn 0.06668816 0.47825510 -0.87568530
vn 0.01038198 0.00069297 -0.99994590
vn 0.21631280 0.63366400 -0.74275080
vn 0.04947771 0.03441145 -0.99818230
vn 0.29830480 0.70727830 -0.64091470
vn 0.07575782 -0.03278502 -0.99658720
vn 0.00000000 -0.94425400 -0.32921790
vn 0.01061854 -0.93852700 -0.34504230
vn 0.05529153 -0.81689000 -0.57413730
vn 0.03445492 -0.59090640 -0.80600400
vn 0.02012562 -0.46411740 -0.88554510
vn 0.00379196 -0.42542460 -0.90498600
vn -0.02072473 -0.45789880 -0.88876280
vn -0.05686674 -0.54441770 -0.83688440
vn -0.21276060 -0.81225480 -0.54311600
vn -0.26263280 -0.87178620 -0.41353710
vt 1.20956700 0.09354100
vt 1.20906800 0.03759342
vt 1.21618800 0.03759342
vt 1.09868400 0.09354100
vt 1.11851900 0.03759342
vt 1.13626900 0.03759342
vt 1.12348400 0.09354100
vt 1.15736700 0.03759342
vt 1.14677800 0.09354150
vt 1.15736700 0.03759342
vt 1.17824200 0.03759372
vt 1.17272200 0.09354150
vt 1.19880300 0.03759342
vt 1.19381600 0.09354150
vt 1.19880300 0.03759342
vt 1.20956700 0.09354100
vt 1.21618800 0.03759342
vt 1.20906800 0.03759342
vt 1.09868400 0.09354100
vt 1.13626900 0.03759342
vt 1.11851900 0.03759342
vt 1.19381600 0.09354150
vt 1.19880300 0.03759342
vt 1.40491100 0.93351230
vt 1.42820300 0.93351190
vt 1.42820300 0.94166000
vt 1.40491100 0.94166000
vt 1.40491100 0.92305960
vt 1.42820300 0.93134360
vt 1.40491100 0.93134360
vt 1.42820300 0.91947290
vt 1.45149600 0.93134320
vt 1.45149600 0.92805370
vt 1.45149600 0.78168510
vt 1.42820300 0.77396500
vt 1.40491100 0.77638350
vt 1.45149600 0.63531790
vt 1.42820400 0.62845730
vt 1.40491100 0.62970730
vt 1.40491100 0.48303210
vt 1.42820400 0.48295010
vt 1.45149600 0.48895090
vt 1.45149600 0.37917430
vt 1.42820400 0.37378320
vt 1.40491100 0.37283660
vt 1.45149600 0.26939910
vt 1.42820400 0.26461740
vt 1.40491100 0.26264110
vt 1.45149600 0.14948830
vt 1.42820400 0.14948860
vt 1.40491100 0.14948880
vt 1.45149600 0.09354100
vt 1.42820400 0.09354100
vt 1.40491100 0.09354100
vt 1.40491100 0.03759372
vt 1.42820400 0.03759316
vt 1.45149600 0.03759372
vt 1.30633800 0.93351230
vt 1.33503400 0.93351230
vt 1.33503400 0.94166030
vt 1.30633800 0.94166030
vt 1.30633800 0.91571410
vt 1.33503400 0.93134360
vt 1.30633800 0.93134360
vt 1.33503400 0.91128180
vt 1.35832600 0.93134360
vt 1.35832600 0.91924210
vt 1.35832600 0.77272830
vt 1.33503400 0.76585690
vt 1.30633800 0.76931350
vt 1.35832600 0.62621360
vt 1.33503400 0.62043240
vt 1.30633800 0.62291280
vt 1.30633800 0.47651210
vt 1.33503400 0.47500760
vt 1.35832700 0.47970000
vt 1.35832700 0.36857850
vt 1.33503500 0.36419490
vt 1.30633800 0.36434200
vt 1.35832700 0.25745700
vt 1.33503400 0.25338270
vt 1.30633800 0.25217190
vt 1.35832700 0.14948860
vt 1.33503400 0.14948860
vt 1.30633800 0.14948880
vt 1.35832700 0.09354100
vt 1.33503400 0.09354100
vt 1.30633800 0.09354150
vt 1.30633800 0.03759372
vt 1.33503400 0.03759342
vt 1.35832700 0.03759316
vt 1.21959500 0.93351190
vt 1.24186500 0.93351190
vt 1.24186500 0.94166030
vt 1.21960600 0.94169820
vt 1.21959500 0.91331480
vt 1.24186400 0.93134360
vt 1.21959500 0.93134360
vt 1.24186500 0.90747180
vt 1.26515700 0.93134360
vt 1.26515700 0.91411200
vt 1.26337900 0.76771470
vt 1.24186500 0.76204930
vt 1.21959600 0.76678620
vt 1.26491100 0.62131730
vt 1.24186500 0.61662640
vt 1.21959600 0.62025800
vt 1.21959600 0.47372970
vt 1.24186500 0.47120400
vt 1.26515700 0.47491930
vt 1.26515700 0.36195910
vt 1.24186500 0.35861790
vt 1.21959600 0.36010030
vt 1.26515700 0.24899890
vt 1.24186500 0.24603200
vt 1.21959600 0.24647120
vt 1.26515700 0.14948860
vt 1.24186500 0.14948880
vt 1.21959600 0.14948880
vt 1.26515700 0.09354100
vt 1.24186500 0.09354150
vt 1.21959600 0.09354150
vt 1.21959600 0.03759342
vt 1.24186500 0.03759342
vt 1.26515700 0.03759342
vt 1.47478800 0.93351190
vt 1.49808100 0.93351140
vt 1.49808000 0.94166040
vt 1.47478800 0.94166000
vt 1.45149600 0.92805370
vt 1.47478800 0.93134360
vt 1.45149600 0.93134320
vt 1.47478800 0.92417690
vt 1.49808000 0.93134410
vt 1.49808000 0.92657210
vt 1.49808000 0.78633210
vt 1.47478800 0.77902530
vt 1.45149600 0.78168510
vt 1.49808000 0.64040430
vt 1.47478800 0.63387390
vt 1.45149600 0.63531790
vt 1.45149600 0.48895090
vt 1.47478800 0.48872240
vt 1.49808100 0.49447500
vt 1.49808100 0.38502850
vt 1.47478800 0.37985910
vt 1.45149600 0.37917430
vt 1.49808100 0.27558200
vt 1.47478800 0.27099530
vt 1.45149600 0.26939910
vt 1.49808100 0.14948860
vt 1.47478800 0.14948860
vt 1.45149600 0.14948830
vt 1.49808100 0.09354100
vt 1.47478800 0.09354100
vt 1.45149600 0.09354100
vt 1.45149600 0.03759372
vt 1.47478800 0.03759316
vt 1.49808100 0.03759372
vt 1.45149600 0.93351230
vt 1.45149600 0.94166000
vt 1.45149600 0.93351230
vt 1.45149600 0.94166000
vt 1.37621500 0.93351190
vt 1.40491100 0.93351230
vt 1.40491100 0.94166000
vt 1.37621500 0.94166030
vt 1.35832600 0.91924210
vt 1.37621500 0.93134360
vt 1.35832600 0.93134360
vt 1.37621500 0.91460420
vt 1.40491100 0.93134360
vt 1.40491100 0.92305960
vt 1.40491100 0.77638350
vt 1.37621600 0.76910070
vt 1.35832600 0.77272830
vt 1.40491100 0.62970730
vt 1.37621600 0.62359670
vt 1.35832600 0.62621360
vt 1.35832700 0.47970000
vt 1.37621600 0.47809300
vt 1.40491100 0.48303210
vt 1.40491100 0.37283660
vt 1.37621600 0.36805500
vt 1.35832700 0.36857850
vt 1.40491100 0.26264110
vt 1.37621600 0.25801690
vt 1.35832700 0.25745700
vt 1.40491100 0.14948880
vt 1.37621600 0.14948860
vt 1.35832700 0.14948860
vt 1.40491100 0.09354100
vt 1.37621600 0.09354100
vt 1.35832700 0.09354100
vt 1.35832700 0.03759316
vt 1.37621600 0.03759316
vt 1.40491100 0.03759372
vt 1.35832600 0.93351230
vt 1.35832600 0.94166030
vt 1.35832600 0.93351230
vt 1.35832600 0.94166030
vt 1.28844900 0.93351190
vt 1.30633800 0.93351230
vt 1.30633800 0.94166030
vt 1.28844900 0.94166030
vt 1.26515700 0.91411200
vt 1.28845000 0.93134360
vt 1.26515700 0.93134360
vt 1.28845000 0.90864010
vt 1.30633800 0.93134360
vt 1.30633800 0.91571410
vt 1.30633800 0.76931350
vt 1.28829500 0.76328660
vt 1.26337900 0.76771470
vt 1.30633800 0.62291280
vt 1.28844900 0.61793300
vt 1.26491100 0.62131730
vt 1.26515700 0.47491930
vt 1.28844900 0.47257920
vt 1.30633800 0.47651210
vt 1.30633800 0.36434200
vt 1.28845000 0.36084950
vt 1.26515700 0.36195910
vt 1.30633800 0.25217190
vt 1.28845000 0.24912010
vt 1.26515700 0.24899890
vt 1.30633800 0.14948880
vt 1.28845000 0.14948860
vt 1.26515700 0.14948860
vt 1.30633800 0.09354150
vt 1.28845000 0.09354150
vt 1.26515700 0.09354100
vt 1.26515700 0.03759342
vt 1.28845000 0.03759372
vt 1.30633800 0.03759372
vt 1.26515700 0.93351230
vt 1.26515700 0.94166030
vt 1.26515700 0.93351230
vt 1.26515700 0.94166030
vt 1.19737800 0.94166030
vt 1.17701900 0.93351190
vt 1.19737700 0.93351190
vt 1.17701900 0.94166030
vt 1.15565800 0.93351190
vt 1.15565800 0.94166030
vt 1.19737800 0.93134360
vt 1.17701900 0.93134360
vt 1.17701900 0.91024010
vt 1.19737800 0.91331480
vt 1.16969300 0.76566850
vt 1.20231500 0.14948880
vt 1.21959600 0.14948880
vt 1.21959600 0.09354150
vt 1.21959600 0.03759342
vt 1.21959600 0.24647120
vt 1.18792800 0.24647150
vt 1.21959600 0.36010030
vt 1.17968100 0.14948880
vt 1.17406300 0.36010030
vt 1.21959600 0.47372970
vt 1.17272200 0.09354150
vt 1.14865800 0.14948880
vt 1.15555200 0.25230070
vt 1.12137800 0.24647120
vt 1.13076400 0.36441250
vt 1.10362100 0.35583230
vt 1.16614400 0.47372970
vt 1.21959600 0.62025800
vt 1.13332000 0.47652450
vt 1.10700000 0.47372970
vt 1.18834900 0.62025800
vt 1.21959600 0.76678620
vt 1.15424400 0.62109670
vt 1.12300900 0.62025800
vt 1.19737800 0.76678620
vt 1.21959500 0.91331480
vt 1.19737800 0.91331480
vt 1.21959500 0.93134360
vt 1.19737800 0.93134360
vt 1.21960600 0.94169820
vt 1.19737800 0.94166030
vt 1.19737700 0.93351190
vt 1.21959500 0.93351190
vt 1.10778100 0.76566850
vt 1.10110600 0.76678620
vt 1.06476500 0.62025800
vt 1.07509100 0.62109670
vt 1.02806000 0.47372970
vt 1.04590000 0.47652470
vt 1.01356100 0.36010030
vt 1.03594400 0.36441250
vt 1.01817300 0.24647150
vt 1.04370400 0.25230070
vt 1.04693700 0.14948860
vt 1.07333900 0.14948880
vt 1.07735100 0.09354100
vt 1.13633900 0.91024010
vt 1.13141400 0.91331480
vt 1.13633900 0.93134360
vt 1.13141400 0.93134360
vt 1.13634000 0.94166030
vt 1.13141400 0.94166030
vt 1.13141400 0.93351230
vt 1.13634000 0.93351190
vt 1.14126500 0.93134360
vt 1.14126500 0.91331480
vt 1.11526800 0.76678620
vt 1.08727900 0.62025760
vt 1.06339300 0.47372970
vt 1.05616400 0.36010030
vt 1.06928100 0.24647150
vt 1.09751300 0.14948880
vt 1.14126500 0.94166030
vt 1.14126400 0.93351190
vt 1.14619000 0.93134360
vt 1.14126500 0.93134360
vt 1.14126500 0.91331480
vt 1.14619000 0.91024010
vt 1.11526800 0.76678620
vt 1.12347600 0.76566850
vt 1.08727900 0.62025760
vt 1.10109500 0.62109670
vt 1.06339300 0.47372970
vt 1.08399400 0.47652470
vt 1.12300900 0.62025800
vt 1.05616400 0.36010030
vt 1.10700000 0.47372970
vt 1.07636600 0.36441250
vt 1.06928100 0.24647150
vt 1.10362100 0.35583230
vt 1.09089800 0.25230070
vt 1.09751300 0.14948880
vt 1.12137800 0.24647120
vt 1.12416000 0.14948880
vt 1.12348400 0.09354100
vt 1.14865800 0.14948880
vt 1.14619000 0.94166030
vt 1.14126500 0.94166030
vt 1.14126400 0.93351190
vt 1.14619000 0.93351190
vt 1.13679700 0.76678620
vt 1.15565800 0.91331480
vt 1.15565800 0.93134360
vt 1.15565800 0.94166030
vt 1.15565800 0.93351190
vt 1.13679700 0.76678620
vt 1.15565800 0.91331480
vt 1.15565800 0.93134360
vt 1.40491100 0.92305960
vt 1.40491100 0.93134360
vt 1.42820300 0.93134360
vt 1.42820300 0.91947290
vt 1.45149600 0.93134320
vt 1.45149600 0.92805370
vt 1.45149600 0.78168510
vt 1.42820300 0.77396500
vt 1.40491100 0.77638350
vt 1.45149600 0.63531790
vt 1.42820400 0.62845730
vt 1.40491100 0.62970730
vt 1.40491100 0.48303210
vt 1.42820400 0.48295010
vt 1.45149600 0.48895090
vt 1.45149600 0.37917430
vt 1.42820400 0.37378320
vt 1.40491100 0.37283660
vt 1.45149600 0.26939910
vt 1.42820400 0.26461740
vt 1.40491100 0.26264110
vt 1.45149600 0.14948830
vt 1.42820400 0.14948860
vt 1.40491100 0.14948880
vt 1.45149600 0.09354100
vt 1.42820400 0.09354100
vt 1.40491100 0.09354100
vt 1.40491100 0.03759372
vt 1.42820400 0.03759316
vt 1.45149600 0.03759372
vt 1.30633800 0.91571410
vt 1.30633800 0.93134360
vt 1.33503400 0.93134360
vt 1.33503400 0.91128180
vt 1.35832600 0.93134360
vt 1.35832600 0.91924210
vt 1.35832600 0.77272830
vt 1.33503400 0.76585690
vt 1.30633800 0.76931350
vt 1.35832600 0.62621360
vt 1.33503400 0.62043240
vt 1.30633800 0.62291280
vt 1.30633800 0.47651210
vt 1.33503400 0.47500760
vt 1.35832700 0.47970000
vt 1.35832700 0.36857850
vt 1.33503500 0.36419490
vt 1.30633800 0.36434200
vt 1.35832700 0.25745700
vt 1.33503400 0.25338270
vt 1.30633800 0.25217190
vt 1.35832700 0.14948860
vt 1.33503400 0.14948860
vt 1.30633800 0.14948880
vt 1.35832700 0.09354100
vt 1.33503400 0.09354100
vt 1.30633800 0.09354150
vt 1.30633800 0.03759372
vt 1.33503400 0.03759342
vt 1.35832700 0.03759316
vt 1.21959500 0.91331480
vt 1.21992200 0.93194700
vt 1.24186400 0.93134360
vt 1.24186500 0.90747180
vt 1.26515700 0.93134360
vt 1.26515700 0.91411200
vt 1.26337900 0.76771470
vt 1.24186500 0.76204930
vt 1.21959600 0.76678620
vt 1.26491100 0.62131730
vt 1.24186500 0.61662640
vt 1.21959600 0.62025800
vt 1.21959600 0.47372970
vt 1.24186500 0.47120400
vt 1.26515700 0.47491930
vt 1.26515700 0.36195910
vt 1.24186500 0.35861790
vt 1.21959600 0.36010030
vt 1.26515700 0.24899890
vt 1.24186500 0.24603200
vt 1.21959600 0.24647120
vt 1.26515700 0.14948860
vt 1.24186500 0.14948880
vt 1.21959600 0.14948880
vt 1.26515700 0.09354100
vt 1.24186500 0.09354150
vt 1.21959600 0.09354150
vt 1.21959600 0.03759342
vt 1.24186500 0.03759342
vt 1.26515700 0.03759342
vt 1.45149600 0.92805370
vt 1.45149600 0.93134320
vt 1.47478800 0.93134360
vt 1.47478800 0.92417690
vt 1.49808000 0.93134410
vt 1.49808000 0.92657210
vt 1.49808000 0.78633210
vt 1.47478800 0.77902530
vt 1.45149600 0.78168510
vt 1.49808000 0.64040430
vt 1.47478800 0.63387390
vt 1.45149600 0.63531790
vt 1.45149600 0.48895090
vt 1.47478800 0.48872240
vt 1.49808100 0.49447500
vt 1.49808100 0.38502850
vt 1.47478800 0.37985910
vt 1.45149600 0.37917430
vt 1.49808100 0.27558200
vt 1.47478800 0.27099530
vt 1.45149600 0.26939910
vt 1.49808100 0.14948860
vt 1.47478800 0.14948860
vt 1.45149600 0.14948830
vt 1.49808100 0.09354100
vt 1.47478800 0.09354100
vt 1.45149600 0.09354100
vt 1.45149600 0.03759372
vt 1.47478800 0.03759316
vt 1.49808100 0.03759372
vt 1.35832600 0.91924210
vt 1.35832600 0.93134360
vt 1.37621500 0.93134360
vt 1.37621500 0.91460420
vt 1.40491100 0.93134360
vt 1.40491100 0.92305960
vt 1.40491100 0.77638350
vt 1.37621600 0.76910070
vt 1.35832600 0.77272830
vt 1.40491100 0.62970730
vt 1.37621600 0.62359670
vt 1.35832600 0.62621360
vt 1.35832700 0.47970000
vt 1.37621600 0.47809300
vt 1.40491100 0.48303210
vt 1.40491100 0.37283660
vt 1.37621600 0.36805500
vt 1.35832700 0.36857850
vt 1.40491100 0.26264110
vt 1.37621600 0.25801690
vt 1.35832700 0.25745700
vt 1.40491100 0.14948880
vt 1.37621600 0.14948860
vt 1.35832700 0.14948860
vt 1.40491100 0.09354100
vt 1.37621600 0.09354100
vt 1.35832700 0.09354100
vt 1.35832700 0.03759316
vt 1.37621600 0.03759316
vt 1.40491100 0.03759372
vt 1.26515700 0.91411200
vt 1.26515700 0.93134360
vt 1.28845000 0.93134360
vt 1.28845000 0.90864010
vt 1.30633800 0.93134360
vt 1.30633800 0.91571410
vt 1.30633800 0.76931350
vt 1.28829500 0.76328660
vt 1.26337900 0.76771470
vt 1.30633800 0.62291280
vt 1.28844900 0.61793300
vt 1.26491100 0.62131730
vt 1.26515700 0.47491930
vt 1.28844900 0.47257920
vt 1.30633800 0.47651210
vt 1.30633800 0.36434200
vt 1.28845000 0.36084950
vt 1.26515700 0.36195910
vt 1.30633800 0.25217190
vt 1.28845000 0.24912010
vt 1.26515700 0.24899890
vt 1.30633800 0.14948880
vt 1.28845000 0.14948860
vt 1.26515700 0.14948860
vt 1.30633800 0.09354150
vt 1.28845000 0.09354150
vt 1.26515700 0.09354100
vt 1.26515700 0.03759342
vt 1.28845000 0.03759372
vt 1.30633800 0.03759372
vt 1.20231500 0.14948880
vt 1.21959600 0.14948880
vt 1.21959600 0.09354150
vt 1.21959600 0.03759342
vt 1.21959600 0.24647120
vt 1.18792800 0.24647150
vt 1.21959600 0.36010030
vt 1.17968100 0.14948880
vt 1.17406300 0.36010030
vt 1.21959600 0.47372970
vt 1.17272200 0.09354150
vt 1.14865800 0.14948880
vt 1.15555200 0.25230070
vt 1.12137800 0.24647120
vt 1.13076400 0.36441250
vt 1.10362100 0.35583230
vt 1.16614400 0.47372970
vt 1.21959600 0.62025800
vt 1.13332000 0.47652450
vt 1.10700000 0.47372970
vt 1.18834900 0.62025800
vt 1.21959600 0.76678620
vt 1.15424400 0.62109670
vt 1.12300900 0.62025800
vt 1.19737800 0.76678620
vt 1.21959500 0.91331480
vt 1.16969300 0.76566850
vt 1.13679700 0.76678620
vt 1.19737800 0.91331480
vt 1.21992200 0.93194700
vt 1.19737800 0.93134360
vt 1.19737800 0.91331480
vt 1.17701900 0.91024010
vt 1.19737800 0.93134360
vt 1.15565800 0.91331480
vt 1.17701900 0.93134360
vt 1.15565800 0.93134360
vt 1.13633900 0.91024010
vt 1.10778100 0.76566850
vt 1.10110600 0.76678620
vt 1.06476500 0.62025800
vt 1.07509100 0.62109670
vt 1.02806000 0.47372970
vt 1.04590000 0.47652470
vt 1.01356100 0.36010030
vt 1.03594400 0.36441250
vt 1.01817300 0.24647150
vt 1.04370400 0.25230070
vt 1.04693700 0.14948860
vt 1.07333900 0.14948880
vt 1.06928100 0.24647150
vt 1.07735100 0.09354100
vt 1.13141400 0.91331480
vt 1.13633900 0.93134360
vt 1.13141400 0.93134360
vt 1.05616400 0.36010030
vt 1.06339300 0.47372970
vt 1.08727900 0.62025760
vt 1.11526800 0.76678620
vt 1.14126500 0.91331480
vt 1.14126500 0.93134360
vt 1.12348400 0.09354100
vt 1.15736700 0.03759342
vt 1.09751300 0.14948880
vt 1.14619000 0.93134360
vt 1.14126500 0.91331480
vt 1.14126500 0.93134360
vt 1.14619000 0.91024010
vt 1.11526800 0.76678620
vt 1.12347600 0.76566850
vt 1.08727900 0.62025760
vt 1.10109500 0.62109670
vt 1.06339300 0.47372970
vt 1.08399400 0.47652470
vt 1.05616400 0.36010030
vt 1.07636600 0.36441250
vt 1.06928100 0.24647150
vt 1.09089800 0.25230070
vt 1.09751300 0.14948880
vt 1.12416000 0.14948880
vt 1.12348400 0.09354100
vt 1.14677800 0.09354150
vt 1.15736700 0.03759342
vt 1.17824200 0.03759372
vt 1.15565800 0.93134360
vt 1.15565800 0.91331480
vt 1.13679700 0.76678620
vt 1.12300900 0.62025800
vt 1.10700000 0.47372970
vt 1.10362100 0.35583230
vt 1.12137800 0.24647120
vt 1.14865800 0.14948880
vt 1.17272200 0.09354150
vt 1.19880300 0.03759342
f 3/3/3 2/2/2 1/1/1
f 6/6/6 5/5/5 4/4/4
f 8/8/8 6/6/6 7/7/7
f 11/11/11 10/10/10 9/9/9
f 13/13/13 11/11/11 12/12/12
f 2/2/2 15/15/15 14/14/14
f 18/18/18 17/17/17 16/16/16
f 21/21/21 20/20/20 19/19/19
f 23/23/23 18/18/18 22/22/22
f 26/26/26 25/25/25 24/24/24
f 27/27/27 26/26/26 24/24/24
f 30/30/30 29/29/29 28/28/28
f 29/29/29 31/31/31 28/28/28
f 29/29/29 32/32/32 31/31/31
f 32/32/32 33/33/33 31/31/31
f 31/31/31 33/33/33 34/34/34
f 28/28/28 31/31/31 35/35/35
f 35/35/35 31/31/31 34/34/34
f 36/36/36 28/28/28 35/35/35
f 35/35/35 34/34/34 37/37/37
f 36/36/36 35/35/35 38/38/38
f 38/38/38 35/35/35 37/37/37
f 39/39/39 36/36/36 38/38/38
f 39/39/39 38/38/38 40/40/40
f 38/38/38 37/37/37 41/41/41
f 38/38/38 41/41/41 40/40/40
f 37/37/37 42/42/42 41/41/41
f 41/41/41 42/42/42 43/43/43
f 40/40/40 41/41/41 44/44/44
f 44/44/44 41/41/41 43/43/43
f 45/45/45 40/40/40 44/44/44
f 44/44/44 43/43/43 46/46/46
f 45/45/45 44/44/44 47/47/47
f 47/47/47 44/44/44 46/46/46
f 48/48/48 45/45/45 47/47/47
f 47/47/47 46/46/46 49/49/49
f 48/48/48 47/47/47 50/50/50
f 50/50/50 47/47/47 49/49/49
f 51/51/51 48/48/48 50/50/50
f 50/50/50 49/49/49 52/52/52
f 51/51/51 50/50/50 53/53/53
f 53/53/53 50/50/50 52/52/52
f 54/54/54 51/51/51 53/53/53
f 54/54/54 53/53/53 55/55/55
f 53/53/53 56/56/56 55/55/55
f 53/53/53 52/52/52 56/56/56
f 52/52/52 57/57/57 56/56/56
f 60/60/60 59/59/59 58/58/58
f 61/61/61 60/60/60 58/58/58
f 64/64/64 63/63/63 62/62/62
f 63/63/63 65/65/65 62/62/62
f 63/63/63 66/66/66 65/65/65
f 66/66/66 67/67/67 65/65/65
f 65/65/65 67/67/67 68/68/68
f 62/62/62 65/65/65 69/69/69
f 69/69/69 65/65/65 68/68/68
f 70/70/70 62/62/62 69/69/69
f 69/69/69 68/68/68 71/71/71
f 70/70/70 69/69/69 72/72/72
f 72/72/72 69/69/69 71/71/71
f 73/73/73 70/70/70 72/72/72
f 73/73/73 72/72/72 74/74/74
f 72/72/72 71/71/71 75/75/75
f 72/72/72 75/75/75 74/74/74
f 71/71/71 76/76/76 75/75/75
f 75/75/75 76/76/76 77/77/77
f 74/74/74 75/75/75 78/78/78
f 78/78/78 75/75/75 77/77/77
f 79/79/79 74/74/74 78/78/78
f 78/78/78 77/77/77 80/80/80
f 79/79/79 78/78/78 81/81/81
f 81/81/81 78/78/78 80/80/80
f 82/82/82 79/79/79 81/81/81
f 81/81/81 80/80/80 83/83/83
f 82/82/82 81/81/81 84/84/84
f 84/84/84 81/81/81 83/83/83
f 85/85/85 82/82/82 84/84/84
f 84/84/84 83/83/83 86/86/86
f 85/85/85 84/84/84 87/87/87
f 87/87/87 84/84/84 86/86/86
f 88/88/88 85/85/85 87/87/87
f 88/88/88 87/87/87 89/89/89
f 87/87/87 90/90/90 89/89/89
f 87/87/87 86/86/86 90/90/90
f 86/86/86 91/91/91 90/90/90
f 94/94/94 93/93/93 92/92/92
f 95/95/95 94/94/94 92/92/92
f 98/98/98 97/97/97 96/96/96
f 97/97/97 99/99/99 96/96/96
f 97/97/97 100/100/100 99/99/99
f 100/100/100 101/101/101 99/99/99
f 99/99/99 101/101/101 102/102/102
f 96/96/96 99/99/99 103/103/103
f 103/103/103 99/99/99 102/102/102
f 104/104/104 96/96/96 103/103/103
f 103/103/103 102/102/102 105/105/105
f 104/104/104 103/103/103 106/106/106
f 106/106/106 103/103/103 105/105/105
f 107/107/107 104/104/104 106/106/106
f 107/107/107 106/106/106 108/108/108
f 106/106/106 105/105/105 109/109/109
f 106/106/106 109/109/109 108/108/108
f 105/105/105 110/110/110 109/109/109
f 109/109/109 110/110/110 111/111/111
f 108/108/108 109/109/109 112/112/112
f 112/112/112 109/109/109 111/111/111
f 113/113/113 108/108/108 112/112/112
f 112/112/112 111/111/111 114/114/114
f 113/113/113 112/112/112 115/115/115
f 115/115/115 112/112/112 114/114/114
f 116/116/116 113/113/113 115/115/115
f 115/115/115 114/114/114 117/117/117
f 116/116/116 115/115/115 118/118/118
f 118/118/118 115/115/115 117/117/117
f 119/119/119 116/116/116 118/118/118
f 118/118/118 117/117/117 120/120/120
f 119/119/119 118/118/118 121/121/121
f 121/121/121 118/118/118 120/120/120
f 122/122/122 119/119/119 121/121/121
f 122/122/122 121/121/121 123/123/123
f 121/121/121 124/124/124 123/123/123
f 121/121/121 120/120/120 124/124/124
f 120/120/120 125/125/125 124/124/124
f 128/128/128 127/127/127 126/126/126
f 129/129/129 128/128/128 126/126/126
f 132/132/132 131/131/131 130/130/130
f 131/131/131 133/133/133 130/130/130
f 131/131/131 134/134/134 133/133/133
f 134/134/134 135/135/135 133/133/133
f 133/133/133 135/135/135 136/136/136
f 130/130/130 133/133/133 137/137/137
f 137/137/137 133/133/133 136/136/136
f 138/138/138 130/130/130 137/137/137
f 137/137/137 136/136/136 139/139/139
f 138/138/138 137/137/137 140/140/140
f 140/140/140 137/137/137 139/139/139
f 141/141/141 138/138/138 140/140/140
f 141/141/141 140/140/140 142/142/142
f 140/140/140 139/139/139 143/143/143
f 140/140/140 143/143/143 142/142/142
f 139/139/139 144/144/144 143/143/143
f 143/143/143 144/144/144 145/145/145
f 142/142/142 143/143/143 146/146/146
f 146/146/146 143/143/143 145/145/145
f 147/147/147 142/142/142 146/146/146
f 146/146/146 145/145/145 148/148/148
f 147/147/147 146/146/146 149/149/149
f 149/149/149 146/146/146 148/148/148
f 150/150/150 147/147/147 149/149/149
f 149/149/149 148/148/148 151/151/151
f 150/150/150 149/149/149 152/152/152
f 152/152/152 149/149/149 151/151/151
f 153/153/153 150/150/150 152/152/152
f 152/152/152 151/151/151 154/154/154
f 153/153/153 152/152/152 155/155/155
f 155/155/155 152/152/152 154/154/154
f 156/156/156 153/153/153 155/155/155
f 156/156/156 155/155/155 157/157/157
f 155/155/155 158/158/158 157/157/157
f 155/155/155 154/154/154 158/158/158
f 154/154/154 159/159/159 158/158/158
f 129/129/129 126/126/126 160/160/160
f 161/161/161 129/129/129 160/160/160
f 163/163/163 162/162/162 25/25/25
f 26/26/26 163/163/163 25/25/25
f 166/166/166 165/165/165 164/164/164
f 167/167/167 166/166/166 164/164/164
f 170/170/170 169/169/169 168/168/168
f 169/169/169 171/171/171 168/168/168
f 169/169/169 172/172/172 171/171/171
f 172/172/172 173/173/173 171/171/171
f 171/171/171 173/173/173 174/174/174
f 168/168/168 171/171/171 175/175/175
f 175/175/175 171/171/171 174/174/174
f 176/176/176 168/168/168 175/175/175
f 175/175/175 174/174/174 177/177/177
f 176/176/176 175/175/175 178/178/178
f 178/178/178 175/175/175 177/177/177
f 179/179/179 176/176/176 178/178/178
f 179/179/179 178/178/178 180/180/180
f 178/178/178 177/177/177 181/181/181
f 178/178/178 181/181/181 180/180/180
f 177/177/177 182/182/182 181/181/181
f 181/181/181 182/182/182 183/183/183
f 180/180/180 181/181/181 184/184/184
f 184/184/184 181/181/181 183/183/183
f 185/185/185 180/180/180 184/184/184
f 184/184/184 183/183/183 186/186/186
f 185/185/185 184/184/184 187/187/187
f 187/187/187 184/184/184 186/186/186
f 188/188/188 185/185/185 187/187/187
f 187/187/187 186/186/186 189/189/189
f 188/188/188 187/187/187 190/190/190
f 190/190/190 187/187/187 189/189/189
f 191/191/191 188/188/188 190/190/190
f 190/190/190 189/189/189 192/192/192
f 191/191/191 190/190/190 193/193/193
f 193/193/193 190/190/190 192/192/192
f 194/194/194 191/191/191 193/193/193
f 194/194/194 193/193/193 195/195/195
f 193/193/193 196/196/196 195/195/195
f 193/193/193 192/192/192 196/196/196
f 192/192/192 197/197/197 196/196/196
f 167/167/167 164/164/164 198/198/198
f 199/199/199 167/167/167 198/198/198
f 201/201/201 200/200/200 59/59/59
f 60/60/60 201/201/201 59/59/59
f 204/204/204 203/203/203 202/202/202
f 205/205/205 204/204/204 202/202/202
f 208/208/208 207/207/207 206/206/206
f 207/207/207 209/209/209 206/206/206
f 207/207/207 210/210/210 209/209/209
f 210/210/210 211/211/211 209/209/209
f 209/209/209 211/211/211 212/212/212
f 206/206/206 209/209/209 213/213/213
f 213/213/213 209/209/209 212/212/212
f 214/214/214 206/206/206 213/213/213
f 213/213/213 212/212/212 215/215/215
f 214/214/214 213/213/213 216/216/216
f 216/216/216 213/213/213 215/215/215
f 217/217/217 214/214/214 216/216/216
f 217/217/217 216/216/216 218/218/218
f 216/216/216 215/215/215 219/219/219
f 216/216/216 219/219/219 218/218/218
f 215/215/215 220/220/220 219/219/219
f 219/219/219 220/220/220 221/221/221
f 218/218/218 219/219/219 222/222/222
f 222/222/222 219/219/219 221/221/221
f 223/223/223 218/218/218 222/222/222
f 222/222/222 221/221/221 224/224/224
f 223/223/223 222/222/222 225/225/225
f 225/225/225 222/222/222 224/224/224
f 226/226/226 223/223/223 225/225/225
f 225/225/225 224/224/224 227/227/227
f 226/226/226 225/225/225 228/228/228
f 228/228/228 225/225/225 227/227/227
f 229/229/229 226/226/226 228/228/228
f 228/228/228 227/227/227 230/230/230
f 229/229/229 228/228/228 231/231/231
f 231/231/231 228/228/228 230/230/230
f 232/232/232 229/229/229 231/231/231
f 232/232/232 231/231/231 233/233/233
f 231/231/231 234/234/234 233/233/233
f 231/231/231 230/230/230 234/234/234
f 230/230/230 235/235/235 234/234/234
f 205/205/205 202/202/202 236/236/236
f 237/237/237 205/205/205 236/236/236
f 239/239/239 238/238/238 93/93/93
f 94/94/94 239/239/239 93/93/93
f 242/242/242 241/241/241 240/240/240
f 241/241/241 243/243/243 240/240/240
f 241/241/241 244/244/244 243/243/243
f 244/244/244 245/245/245 243/243/243
f 248/248/248 247/247/247 246/246/246
f 249/249/249 248/248/248 246/246/246
f 250/250/250 248/248/248 249/249/249
f 2/2/2 14/14/14 1/1/1
f 1/1/1 14/14/14 251/251/251
f 1/1/1 251/251/251 252/252/252
f 253/253/253 1/1/1 252/252/252
f 3/3/3 1/1/1 253/253/253
f 254/254/254 3/3/3 253/253/253
f 252/252/252 251/251/251 255/255/255
f 251/251/251 256/256/256 255/255/255
f 255/255/255 256/256/256 257/257/257
f 14/14/14 258/258/258 251/251/251
f 251/251/251 258/258/258 256/256/256
f 256/256/256 259/259/259 257/257/257
f 257/257/257 259/259/259 260/260/260
f 14/14/14 261/261/261 258/258/258
f 15/15/15 261/261/261 14/14/14
f 261/261/261 262/262/262 258/258/258
f 258/258/258 263/263/263 256/256/256
f 258/258/258 262/262/262 263/263/263
f 256/256/256 263/263/263 259/259/259
f 262/262/262 264/264/264 263/263/263
f 263/263/263 264/264/264 265/265/265
f 263/263/263 265/265/265 259/259/259
f 264/264/264 266/266/266 265/265/265
f 259/259/259 267/267/267 260/260/260
f 259/259/259 265/265/265 267/267/267
f 260/260/260 267/267/267 268/268/268
f 265/265/265 266/266/266 269/269/269
f 265/265/265 269/269/269 267/267/267
f 266/266/266 270/270/270 269/269/269
f 267/267/267 271/271/271 268/268/268
f 267/267/267 269/269/269 271/271/271
f 268/268/268 271/271/271 272/272/272
f 269/269/269 270/270/270 273/273/273
f 269/269/269 273/273/273 271/271/271
f 270/270/270 274/274/274 273/273/273
f 273/273/273 274/274/274 250/250/250
f 271/271/271 275/275/275 272/272/272
f 271/271/271 273/273/273 275/275/275
f 273/273/273 250/250/250 275/275/275
f 275/275/275 250/250/250 249/249/249
f 272/272/272 275/275/275 276/276/276
f 275/275/275 277/277/277 276/276/276
f 276/276/276 277/277/277 278/278/278
f 277/277/277 279/279/279 278/278/278
f 282/282/282 281/281/281 280/280/280
f 283/283/283 282/282/282 280/280/280
f 286/286/286 285/285/285 284/284/284
f 287/287/287 286/286/286 284/284/284
f 288/288/288 286/286/286 287/287/287
f 289/289/289 288/288/288 287/287/287
f 290/290/290 288/288/288 289/289/289
f 291/291/291 290/290/290 289/289/289
f 292/292/292 290/290/290 291/291/291
f 293/293/293 292/292/292 291/291/291
f 294/294/294 292/292/292 293/293/293
f 295/295/295 294/294/294 293/293/293
f 296/296/296 294/294/294 295/295/295
f 4/4/4 296/296/296 295/295/295
f 5/5/5 296/296/296 4/4/4
f 284/284/284 285/285/285 297/297/297
f 285/285/285 298/298/298 297/297/297
f 297/297/297 298/298/298 299/299/299
f 298/298/298 300/300/300 299/299/299
f 303/303/303 302/302/302 301/301/301
f 304/304/304 303/303/303 301/301/301
f 297/297/297 299/299/299 305/305/305
f 306/306/306 297/297/297 305/305/305
f 284/284/284 297/297/297 306/306/306
f 307/307/307 284/284/284 306/306/306
f 287/287/287 284/284/284 307/307/307
f 308/308/308 287/287/287 307/307/307
f 289/289/289 287/287/287 308/308/308
f 309/309/309 289/289/289 308/308/308
f 291/291/291 289/289/289 309/309/309
f 310/310/310 291/291/291 309/309/309
f 293/293/293 291/291/291 310/310/310
f 311/311/311 293/293/293 310/310/310
f 295/295/295 293/293/293 311/311/311
f 312/312/312 295/295/295 311/311/311
f 4/4/4 295/295/295 312/312/312
f 7/7/7 4/4/4 312/312/312
f 6/6/6 4/4/4 7/7/7
f 304/304/304 301/301/301 313/313/313
f 314/314/314 304/304/304 313/313/313
f 317/317/317 316/316/316 315/315/315
f 318/318/318 317/317/317 315/315/315
f 319/319/319 317/317/317 318/318/318
f 320/320/320 319/319/319 318/318/318
f 321/321/321 319/319/319 320/320/320
f 322/322/322 321/321/321 320/320/320
f 323/323/323 321/321/321 322/322/322
f 324/324/324 323/323/323 322/322/322
f 324/324/324 322/322/322 325/325/325
f 326/326/326 323/323/323 324/324/324
f 327/327/327 324/324/324 325/325/325
f 328/328/328 326/326/326 324/324/324
f 328/328/328 324/324/324 327/327/327
f 329/329/329 326/326/326 328/328/328
f 330/330/330 328/328/328 327/327/327
f 331/331/331 329/329/329 328/328/328
f 331/331/331 328/328/328 330/330/330
f 332/332/332 329/329/329 331/331/331
f 333/333/333 331/331/331 330/330/330
f 334/334/334 332/332/332 331/331/331
f 334/334/334 331/331/331 333/333/333
f 335/335/335 332/332/332 334/334/334
f 336/336/336 334/334/334 333/333/333
f 9/9/9 335/335/335 334/334/334
f 9/9/9 334/334/334 336/336/336
f 10/10/10 335/335/335 9/9/9
f 12/12/12 9/9/9 336/336/336
f 11/11/11 9/9/9 12/12/12
f 339/339/339 338/338/338 337/337/337
f 340/340/340 339/339/339 337/337/337
f 325/325/325 322/322/322 341/341/341
f 322/322/322 320/320/320 341/341/341
f 341/341/341 320/320/320 342/342/342
f 320/320/320 318/318/318 342/342/342
f 342/342/342 318/318/318 343/343/343
f 318/318/318 315/315/315 343/343/343
f 340/340/340 337/337/337 344/344/344
f 345/345/345 340/340/340 344/344/344
f 274/274/274 346/346/346 250/250/250
f 250/250/250 346/346/346 248/248/248
f 346/346/346 347/347/347 248/248/248
f 248/248/248 347/347/347 247/247/247
f 347/347/347 348/348/348 247/247/247
f 351/351/351 350/350/350 349/349/349
f 352/352/352 351/351/351 349/349/349
f 353/353/353 351/351/351 352/352/352
f 354/354/354 353/353/353 352/352/352
f 354/354/354 352/352/352 355/355/355
f 352/352/352 349/349/349 356/356/356
f 352/352/352 356/356/356 355/355/355
f 349/349/349 357/357/357 356/356/356
f 355/355/355 356/356/356 358/358/358
f 356/356/356 357/357/357 359/359/359
f 356/356/356 359/359/359 358/358/358
f 357/357/357 360/360/360 359/359/359
f 359/359/359 360/360/360 361/361/361
f 358/358/358 359/359/359 362/362/362
f 362/362/362 359/359/359 361/361/361
f 363/363/363 358/358/358 362/362/362
f 363/363/363 362/362/362 364/364/364
f 362/362/362 361/361/361 365/365/365
f 362/362/362 365/365/365 364/364/364
f 361/361/361 366/366/366 365/365/365
f 364/364/364 365/365/365 367/367/367
f 365/365/365 366/366/366 368/368/368
f 365/365/365 368/368/368 367/367/367
f 366/366/366 369/369/369 368/368/368
f 367/367/367 368/368/368 370/370/370
f 368/368/368 369/369/369 371/371/371
f 368/368/368 371/371/371 370/370/370
f 369/369/369 372/372/372 371/371/371
f 370/370/370 371/371/371 373/373/373
f 371/371/371 372/372/372 374/374/374
f 371/371/371 374/374/374 373/373/373
f 372/372/372 375/375/375 374/374/374
f 374/374/374 375/375/375 376/376/376
f 377/377/377 374/374/374 376/376/376
f 373/373/373 374/374/374 377/377/377
f 378/378/378 373/373/373 377/377/377
f 381/381/381 380/380/380 379/379/379
f 382/382/382 381/381/381 379/379/379
f 383/383/383 381/381/381 382/382/382
f 384/384/384 383/383/383 382/382/382
f 384/384/384 382/382/382 385/385/385
f 382/382/382 379/379/379 386/386/386
f 382/382/382 386/386/386 385/385/385
f 379/379/379 387/387/387 386/386/386
f 385/385/385 386/386/386 388/388/388
f 386/386/386 387/387/387 389/389/389
f 386/386/386 389/389/389 388/388/388
f 387/387/387 390/390/390 389/389/389
f 389/389/389 390/390/390 391/391/391
f 388/388/388 389/389/389 392/392/392
f 392/392/392 389/389/389 391/391/391
f 393/393/393 388/388/388 392/392/392
f 393/393/393 392/392/392 394/394/394
f 392/392/392 391/391/391 395/395/395
f 392/392/392 395/395/395 394/394/394
f 391/391/391 396/396/396 395/395/395
f 394/394/394 395/395/395 397/397/397
f 395/395/395 396/396/396 398/398/398
f 395/395/395 398/398/398 397/397/397
f 396/396/396 399/399/399 398/398/398
f 397/397/397 398/398/398 400/400/400
f 398/398/398 399/399/399 401/401/401
f 398/398/398 401/401/401 400/400/400
f 399/399/399 402/402/402 401/401/401
f 400/400/400 401/401/401 403/403/403
f 401/401/401 402/402/402 404/404/404
f 401/401/401 404/404/404 403/403/403
f 402/402/402 405/405/405 404/404/404
f 404/404/404 405/405/405 406/406/406
f 407/407/407 404/404/404 406/406/406
f 403/403/403 404/404/404 407/407/407
f 408/408/408 403/403/403 407/407/407
f 411/411/411 410/410/410 409/409/409
f 412/412/412 411/411/411 409/409/409
f 413/413/413 411/411/411 412/412/412
f 414/414/414 413/413/413 412/412/412
f 414/414/414 412/412/412 415/415/415
f 412/412/412 409/409/409 416/416/416
f 412/412/412 416/416/416 415/415/415
f 409/409/409 417/417/417 416/416/416
f 415/415/415 416/416/416 418/418/418
f 416/416/416 417/417/417 419/419/419
f 416/416/416 419/419/419 418/418/418
f 417/417/417 420/420/420 419/419/419
f 419/419/419 420/420/420 421/421/421
f 418/418/418 419/419/419 422/422/422
f 422/422/422 419/419/419 421/421/421
f 423/423/423 418/418/418 422/422/422
f 423/423/423 422/422/422 424/424/424
f 422/422/422 421/421/421 425/425/425
f 422/422/422 425/425/425 424/424/424
f 421/421/421 426/426/426 425/425/425
f 424/424/424 425/425/425 427/427/427
f 425/425/425 426/426/426 428/428/428
f 425/425/425 428/428/428 427/427/427
f 426/426/426 429/429/429 428/428/428
f 427/427/427 428/428/428 430/430/430
f 428/428/428 429/429/429 431/431/431
f 428/428/428 431/431/431 430/430/430
f 429/429/429 432/432/432 431/431/431
f 430/430/430 431/431/431 433/433/433
f 431/431/431 432/432/432 434/434/434
f 431/431/431 434/434/434 433/433/433
f 432/432/432 435/435/435 434/434/434
f 434/434/434 435/435/435 436/436/436
f 437/437/437 434/434/434 436/436/436
f 433/433/433 434/434/434 437/437/437
f 438/438/438 433/433/433 437/437/437
f 441/441/441 440/440/440 439/439/439
f 442/442/442 441/441/441 439/439/439
f 443/443/443 441/441/441 442/442/442
f 444/444/444 443/443/443 442/442/442
f 444/444/444 442/442/442 445/445/445
f 442/442/442 439/439/439 446/446/446
f 442/442/442 446/446/446 445/445/445
f 439/439/439 447/447/447 446/446/446
f 445/445/445 446/446/446 448/448/448
f 446/446/446 447/447/447 449/449/449
f 446/446/446 449/449/449 448/448/448
f 447/447/447 450/450/450 449/449/449
f 449/449/449 450/450/450 451/451/451
f 448/448/448 449/449/449 452/452/452
f 452/452/452 449/449/449 451/451/451
f 453/453/453 448/448/448 452/452/452
f 453/453/453 452/452/452 454/454/454
f 452/452/452 451/451/451 455/455/455
f 452/452/452 455/455/455 454/454/454
f 451/451/451 456/456/456 455/455/455
f 454/454/454 455/455/455 457/457/457
f 455/455/455 456/456/456 458/458/458
f 455/455/455 458/458/458 457/457/457
f 456/456/456 459/459/459 458/458/458
f 457/457/457 458/458/458 460/460/460
f 458/458/458 459/459/459 461/461/461
f 458/458/458 461/461/461 460/460/460
f 459/459/459 462/462/462 461/461/461
f 460/460/460 461/461/461 463/463/463
f 461/461/461 462/462/462 464/464/464
f 461/461/461 464/464/464 463/463/463
f 462/462/462 465/465/465 464/464/464
f 464/464/464 465/465/465 466/466/466
f 467/467/467 464/464/464 466/466/466
f 463/463/463 464/464/464 467/467/467
f 468/468/468 463/463/463 467/467/467
f 471/471/471 470/470/470 469/469/469
f 472/472/472 471/471/471 469/469/469
f 473/473/473 471/471/471 472/472/472
f 474/474/474 473/473/473 472/472/472
f 474/474/474 472/472/472 475/475/475
f 472/472/472 469/469/469 476/476/476
f 472/472/472 476/476/476 475/475/475
f 469/469/469 477/477/477 476/476/476
f 475/475/475 476/476/476 478/478/478
f 476/476/476 477/477/477 479/479/479
f 476/476/476 479/479/479 478/478/478
f 477/477/477 480/480/480 479/479/479
f 479/479/479 480/480/480 481/481/481
f 478/478/478 479/479/479 482/482/482
f 482/482/482 479/479/479 481/481/481
f 483/483/483 478/478/478 482/482/482
f 483/483/483 482/482/482 484/484/484
f 482/482/482 481/481/481 485/485/485
f 482/482/482 485/485/485 484/484/484
f 481/481/481 486/486/486 485/485/485
f 484/484/484 485/485/485 487/487/487
f 485/485/485 486/486/486 488/488/488
f 485/485/485 488/488/488 487/487/487
f 486/486/486 489/489/489 488/488/488
f 487/487/487 488/488/488 490/490/490
f 488/488/488 489/489/489 491/491/491
f 488/488/488 491/491/491 490/490/490
f 489/489/489 492/492/492 491/491/491
f 490/490/490 491/491/491 493/493/493
f 491/491/491 492/492/492 494/494/494
f 491/491/491 494/494/494 493/493/493
f 492/492/492 495/495/495 494/494/494
f 494/494/494 495/495/495 496/496/496
f 497/497/497 494/494/494 496/496/496
f 493/493/493 494/494/494 497/497/497
f 498/498/498 493/493/493 497/497/497
f 501/501/501 500/500/500 499/499/499
f 502/502/502 501/501/501 499/499/499
f 503/503/503 501/501/501 502/502/502
f 504/504/504 503/503/503 502/502/502
f 504/504/504 502/502/502 505/505/505
f 502/502/502 499/499/499 506/506/506
f 502/502/502 506/506/506 505/505/505
f 499/499/499 507/507/507 506/506/506
f 505/505/505 506/506/506 508/508/508
f 506/506/506 507/507/507 509/509/509
f 506/506/506 509/509/509 508/508/508
f 507/507/507 510/510/510 509/509/509
f 509/509/509 510/510/510 511/511/511
f 508/508/508 509/509/509 512/512/512
f 512/512/512 509/509/509 511/511/511
f 513/513/513 508/508/508 512/512/512
f 513/513/513 512/512/512 514/514/514
f 512/512/512 511/511/511 515/515/515
f 512/512/512 515/515/515 514/514/514
f 511/511/511 516/516/516 515/515/515
f 514/514/514 515/515/515 517/517/517
f 515/515/515 516/516/516 518/518/518
f 515/515/515 518/518/518 517/517/517
f 516/516/516 519/519/519 518/518/518
f 517/517/517 518/518/518 520/520/520
f 518/518/518 519/519/519 521/521/521
f 518/518/518 521/521/521 520/520/520
f 519/519/519 522/522/522 521/521/521
f 520/520/520 521/521/521 523/523/523
f 521/521/521 522/522/522 524/524/524
f 521/521/521 524/524/524 523/523/523
f 522/522/522 525/525/525 524/524/524
f 524/524/524 525/525/525 526/526/526
f 527/527/527 524/524/524 526/526/526
f 523/523/523 524/524/524 527/527/527
f 528/528/528 523/523/523 527/527/527
f 22/22/22 18/18/18 16/16/16
f 22/22/22 16/16/16 529/529/529
f 529/529/529 16/16/16 530/530/530
f 16/16/16 531/531/531 530/530/530
f 16/16/16 17/17/17 531/531/531
f 17/17/17 532/532/532 531/531/531
f 529/529/529 530/530/530 533/533/533
f 534/534/534 529/529/529 533/533/533
f 534/534/534 533/533/533 535/535/535
f 536/536/536 22/22/22 529/529/529
f 536/536/536 529/529/529 534/534/534
f 537/537/537 534/534/534 535/535/535
f 537/537/537 535/535/535 538/538/538
f 539/539/539 22/22/22 536/536/536
f 539/539/539 23/23/23 22/22/22
f 540/540/540 539/539/539 536/536/536
f 541/541/541 536/536/536 534/534/534
f 540/540/540 536/536/536 541/541/541
f 541/541/541 534/534/534 537/537/537
f 542/542/542 540/540/540 541/541/541
f 542/542/542 541/541/541 543/543/543
f 543/543/543 541/541/541 537/537/537
f 544/544/544 542/542/542 543/543/543
f 545/545/545 537/537/537 538/538/538
f 543/543/543 537/537/537 545/545/545
f 545/545/545 538/538/538 546/546/546
f 544/544/544 543/543/543 547/547/547
f 547/547/547 543/543/543 545/545/545
f 548/548/548 544/544/544 547/547/547
f 549/549/549 545/545/545 546/546/546
f 547/547/547 545/545/545 549/549/549
f 549/549/549 546/546/546 550/550/550
f 548/548/548 547/547/547 551/551/551
f 551/551/551 547/547/547 549/549/549
f 552/552/552 548/548/548 551/551/551
f 553/553/553 549/549/549 550/550/550
f 551/551/551 549/549/549 553/553/553
f 553/553/553 550/550/550 554/554/554
f 552/552/552 551/551/551 555/555/555
f 555/555/555 551/551/551 553/553/553
f 556/556/556 552/552/552 555/555/555
f 557/557/557 553/553/553 554/554/554
f 557/557/557 554/554/554 558/558/558
f 559/559/559 557/557/557 558/558/558
f 555/555/555 553/553/553 560/560/560
f 556/556/556 555/555/555 561/561/561
f 561/561/561 555/555/555 560/560/560
f 561/561/561 560/560/560 562/562/562
f 563/563/563 556/556/556 561/561/561
f 564/564/564 561/561/561 562/562/562
f 563/563/563 561/561/561 564/564/564
f 565/565/565 563/563/563 564/564/564
f 568/568/568 567/567/567 566/566/566
f 568/568/568 569/569/569 567/567/567
f 569/569/569 570/570/570 567/567/567
f 569/569/569 571/571/571 570/570/570
f 571/571/571 572/572/572 570/570/570
f 571/571/571 573/573/573 572/572/572
f 573/573/573 574/574/574 572/572/572
f 573/573/573 575/575/575 574/574/574
f 575/575/575 576/576/576 574/574/574
f 575/575/575 577/577/577 576/576/576
f 577/577/577 578/578/578 576/576/576
f 576/576/576 578/578/578 579/579/579
f 577/577/577 580/580/580 578/578/578
f 580/580/580 19/19/19 578/578/578
f 580/580/580 21/21/21 19/19/19
f 581/581/581 568/568/568 566/566/566
f 581/581/581 566/566/566 582/582/582
f 583/583/583 581/581/581 582/582/582
f 576/576/576 579/579/579 584/584/584
f 574/574/574 576/576/576 584/584/584
f 574/574/574 584/584/584 585/585/585
f 572/572/572 574/574/574 585/585/585
f 572/572/572 585/585/585 586/586/586
f 570/570/570 572/572/572 586/586/586
f 570/570/570 586/586/586 587/587/587
f 567/567/567 570/570/570 587/587/587
f 567/567/567 587/587/587 588/588/588
f 566/566/566 567/567/567 588/588/588
f 566/566/566 588/588/588 589/589/589
f 582/582/582 566/566/566 589/589/589
f 20/20/20 591/591/591 590/590/590
f 19/19/19 20/20/20 590/590/590
f 19/19/19 590/590/590 592/592/592
f 578/578/578 19/19/19 592/592/592
f 578/578/578 592/592/592 579/579/579
f 595/595/595 594/594/594 593/593/593
f 594/594/594 596/596/596 593/593/593
f 594/594/594 597/597/597 596/596/596
f 597/597/597 598/598/598 596/596/596
f 597/597/597 599/599/599 598/598/598
f 599/599/599 600/600/600 598/598/598
f 599/599/599 601/601/601 600/600/600
f 601/601/601 602/602/602 600/600/600
f 601/601/601 603/603/603 602/602/602
f 603/603/603 604/604/604 602/602/602
f 603/603/603 605/605/605 604/604/604
f 605/605/605 606/606/606 604/604/604
f 605/605/605 607/607/607 606/606/606
f 607/607/607 608/608/608 606/606/606
f 607/607/607 609/609/609 608/608/608
f 609/609/609 610/610/610 608/608/608
f 609/609/609 611/611/611 610/610/610
f 611/611/611 612/612/612 610/610/610
f 593/593/593 596/596/596 613/613/613
f 596/596/596 614/614/614 613/613/613
f 596/596/596 598/598/598 614/614/614
f 598/598/598 615/615/615 614/614/614
f 598/598/598 600/600/600 615/615/615
f 600/600/600 616/616/616 615/615/615
f 600/600/600 602/602/602 616/616/616
f 602/602/602 617/617/617 616/616/616
f 602/602/602 604/604/604 617/617/617
f 604/604/604 618/618/618 617/617/617
f 604/604/604 606/606/606 618/618/618
f 606/606/606 619/619/619 618/618/618
f 606/606/606 608/608/608 619/619/619
f 608/608/608 620/620/620 619/619/619
f 608/608/608 610/610/610 620/620/620
f 610/610/610 621/621/621 620/620/620
f 610/610/610 612/612/612 621/621/621
f 612/612/612 622/622/622 621/621/621

