# Blender 4.0.0
# www.blender.org
o decimated_mesh
v 0.001317 -0.003225 -0.162690
v -0.001240 -0.002456 -0.162845
v 0.004811 -0.002901 -0.162986
v 0.001296 -0.003311 0.162436
v -0.002287 -0.000143 -0.159706
v -0.001015 0.001394 -0.166499
v 0.001438 -0.001806 -0.165777
v 0.006876 0.002121 -0.166150
v 0.007384 -0.000709 -0.161023
v 0.004954 -0.002852 0.162932
v -0.001227 -0.002413 0.162923
v -0.002477 0.005094 -0.162606
v -0.002287 -0.000143 0.159706
v 0.018724 0.027676 -0.166639
v 0.007446 -0.000519 0.161218
v 0.004707 0.000724 0.166299
v 0.001438 -0.001806 0.165777
v -0.001005 0.001395 0.166505
v -0.002511 0.005538 0.162312
v -0.000845 0.011208 -0.166234
v 0.018709 0.024459 -0.163257
v 0.018709 0.024319 0.163001
v 0.007545 0.002799 0.165810
v 0.018710 0.026985 0.166450
v 0.018714 0.031966 0.166546
v -0.001035 0.014331 -0.162315
v 0.003215 0.023243 -0.166142
v -0.000845 0.011208 0.166234
v 0.018710 0.032067 -0.166339
v -0.001019 0.014300 0.162464
v 0.007886 0.030030 -0.161914
v 0.002271 0.023468 -0.159589
v 0.003285 0.023411 0.166165
v 0.011652 0.031796 -0.166192
v 0.002428 0.023701 0.159728
v 0.011707 0.031789 0.166192
v 0.008074 0.030081 0.162220
v 0.018710 0.033209 -0.162326
v 0.018710 0.033140 0.162554
v 0.011879 0.032629 -0.160278
v 0.012002 0.032746 0.159716
vn -0.9403 0.3403 0.0001
vn -0.5467 -0.5593 -0.6231
vn -0.2396 -0.8785 -0.4132
vn 0.0491 -0.9082 -0.4156
vn -0.7672 0.6279 0.1305
vn -0.9062 -0.4229 -0.0000
vn -0.9640 -0.1511 -0.2186
vn 0.0597 -0.1758 -0.9826
vn 0.7501 -0.5446 -0.3751
vn 0.9107 -0.4130 0.0001
vn 0.3853 -0.6000 -0.7011
vn 0.0591 -0.9112 0.4077
vn -0.2354 -0.8825 0.4073
vn -0.5443 -0.5578 0.6266
vn -0.0389 0.0239 -0.9990
vn -0.0384 0.9587 0.2819
vn -0.9992 -0.0395 -0.0001
vn 0.1245 -0.9922 0.0001
vn 0.8593 -0.4049 0.3126
vn 0.7576 -0.5367 0.3714
vn 0.5232 -0.5650 0.6380
vn 0.8390 -0.3961 -0.3731
vn 0.0100 -0.2145 0.9767
vn 0.2750 -0.1521 0.9494
vn -0.9327 0.0251 0.3599
vn -0.9678 -0.1403 0.2092
vn -0.9656 -0.1391 0.2199
vn -0.9724 0.1572 -0.1724
vn -0.9274 0.0260 -0.3732
vn -0.3351 -0.9422 0.0001
vn 0.0332 -0.0235 0.9992
vn -0.9706 0.1623 0.1776
vn 0.3720 -0.6228 0.6883
vn -0.9858 0.1680 0.0001
vn -0.9048 0.3080 0.2941
vn -0.6681 0.6705 0.3228
vn -0.5129 0.8523 0.1026
vn -0.7490 0.6626 0.0003
vn -0.7758 0.6168 -0.1329
vn -0.0847 0.9964 -0.0003
vn -0.5454 0.8382 -0.0001
vn 0.6835 -0.7300 0.0003
vn -0.0517 0.0488 0.9975
vn -0.9389 0.3443 0.0002
vn -0.1169 0.9832 0.1400
vn -0.9110 -0.4124 0.0001
vn -0.6753 0.6643 -0.3203
vn 0.9119 -0.4104 -0.0002
vn 1.0000 -0.0001 -0.0000
vn 1.0000 -0.0001 -0.0011
vn 1.0000 -0.0008 0.0003
vn 1.0000 -0.0000 -0.0000
vn 1.0000 -0.0005 0.0039
vn 1.0000 0.0033 -0.0009
vn -0.0601 0.0279 -0.9978
vn -0.0423 0.0358 -0.9985
vn -0.0233 0.0682 -0.9974
vn -0.9658 -0.1516 -0.2103
vn -0.9993 -0.0364 -0.0000
vn 0.0924 -0.9957 -0.0003
vn 0.8667 -0.4131 0.2797
vn -0.9158 0.3746 -0.1447
vn 0.8555 -0.4127 -0.3127
vn -0.2883 -0.9575 -0.0003
vn 0.0277 -0.0192 0.9994
vn -0.5135 0.8522 -0.1003
vn -0.9160 0.3763 0.1389
vn 0.0480 -0.0414 -0.9980
vn -0.1236 0.9833 -0.1338
vn -0.9063 0.3080 -0.2893
vn -0.0426 0.9609 -0.2735
vn -0.9880 0.1542 -0.0003
vn -0.7598 0.6501 -0.0001
vn -0.0586 0.9983 0.0002
vn -0.5613 0.8276 0.0002
vn 0.6485 -0.7612 -0.0002
vn -0.0679 0.0286 0.9973
vn -0.0373 0.0227 0.9990
vn -0.9062 -0.4228 0.0001
vn -0.9656 -0.1459 0.2151
vn -0.9111 -0.4123 -0.0000
vn -0.9675 -0.1361 0.2132
vn -0.9992 -0.0396 -0.0000
vn -0.9993 -0.0364 -0.0001
vn 1.0000 -0.0045 -0.0000
vn 1.0000 -0.0007 -0.0000
vn 1.0000 0.0026 -0.0000
vn 1.0000 0.0037 -0.0000
s 0
f 26//1 30//1 32//1
f 2//2 6//2 7//2
f 2//3 7//3 1//3
f 1//4 7//4 3//4
f 37//5 35//5 33//5
f 5//6 11//6 13//6
f 2//7 12//7 6//7
f 7//8 6//8 8//8
f 3//9 8//9 9//9
f 9//10 22//10 15//10
f 3//11 7//11 8//11
f 10//12 17//12 4//12
f 4//13 17//13 11//13
f 11//14 17//14 18//14
f 14//15 6//15 27//15
f 36//16 25//16 39//16
f 12//17 13//17 19//17
f 4//18 3//18 10//18
f 23//19 22//19 24//19
f 10//20 15//20 23//20
f 10//21 23//21 16//21
f 21//22 8//22 14//22
f 16//23 18//23 17//23
f 16//24 23//24 24//24
f 19//25 18//25 28//25
f 18//26 19//26 11//26
f 19//27 13//27 11//27
f 12//28 26//28 20//28
f 6//29 12//29 20//29
f 2//30 4//30 11//30
f 24//31 18//31 16//31
f 19//32 28//32 30//32
f 17//33 10//33 16//33
f 26//34 19//34 30//34
f 30//35 28//35 33//35
f 33//36 36//36 37//36
f 41//37 37//37 36//37
f 31//38 35//38 37//38
f 32//39 31//39 27//39
f 41//40 38//40 40//40
f 31//41 41//41 40//41
f 10//42 9//42 15//42
f 36//43 33//43 25//43
f 35//44 32//44 30//44
f 41//45 36//45 39//45
f 5//46 2//46 11//46
f 27//47 31//47 34//47
f 9//48 21//48 22//48
f 38//49 39//49 22//49
f 22//50 39//50 25//50
f 25//51 24//51 22//51
f 22//52 21//52 38//52
f 21//53 14//53 38//53
f 14//54 29//54 38//54
f 20//55 27//55 6//55
f 27//56 34//56 14//56
f 34//57 29//57 14//57
f 12//58 2//58 5//58
f 12//59 5//59 13//59
f 4//60 1//60 3//60
f 23//61 15//61 22//61
f 26//62 32//62 27//62
f 21//63 9//63 8//63
f 2//64 1//64 4//64
f 25//65 18//65 24//65
f 40//66 34//66 31//66
f 33//67 35//67 30//67
f 14//68 8//68 6//68
f 38//69 34//69 40//69
f 26//70 27//70 20//70
f 34//71 38//71 29//71
f 26//72 12//72 19//72
f 31//73 32//73 35//73
f 41//74 39//74 38//74
f 31//75 37//75 41//75
f 10//76 3//76 9//76
f 33//77 28//77 18//77
f 18//78 25//78 33//78
f 13//79 2//79 11//79
f 18//80 13//80 11//80
f 13//81 5//81 2//81
f 19//82 13//82 18//82
f 19//83 5//83 13//83
f 19//84 12//84 5//84
f 21//85 14//85 22//85
f 14//86 25//86 22//86
f 14//87 38//87 25//87
f 38//88 39//88 25//88
