# Blender 4.0.0
# www.blender.org
o Book_1_book_front_1_1_collision_0
v 0.018712 0.029671 -0.166647
v 0.022752 0.026793 -0.166418
v 0.018712 0.026804 -0.166418
v 0.018712 0.031935 -0.166353
v 0.423142 0.029671 -0.166647
v 0.022752 0.024974 -0.163972
v 0.018712 0.026703 -0.166288
v 0.423142 0.026793 -0.166418
v 0.018712 0.032069 -0.166321
v 0.423142 0.032069 -0.166321
v 0.425463 0.031980 -0.166255
v 0.425623 0.029671 -0.166386
v 0.425543 0.027043 -0.166321
v 0.018712 0.023903 -0.159730
v 0.018712 0.024927 -0.163743
v 0.018712 0.024987 -0.163972
v 0.418862 0.024974 -0.163972
v 0.423142 0.025042 -0.163972
v 0.018712 0.032851 -0.163972
v 0.423142 0.032851 -0.163972
v 0.425903 0.032326 -0.163972
v 0.426703 0.029671 -0.163972
v 0.426063 0.026326 -0.163972
v 0.018712 0.023898 -0.155457
v 0.418862 0.023905 -0.159730
v 0.423142 0.024041 -0.159730
v 0.018712 0.033365 -0.159730
v 0.423142 0.033365 -0.159730
v 0.426183 0.032583 -0.159730
v 0.427383 0.029671 -0.159730
v 0.426423 0.025859 -0.159730
v 0.018712 0.023898 0.155685
v 0.418862 0.023905 0.159730
v 0.423142 0.024041 0.159730
v 0.018712 0.033365 0.159730
v 0.423142 0.033365 0.159730
v 0.426183 0.032583 0.159730
v 0.427383 0.029671 0.159730
v 0.426423 0.025859 0.159730
v 0.018712 0.023903 0.159730
v 0.423142 0.025042 0.163972
v 0.418862 0.024974 0.163972
v 0.426063 0.026326 0.163972
v 0.018712 0.032880 0.163743
v 0.423142 0.032851 0.163972
v 0.425903 0.032326 0.163972
v 0.426703 0.029671 0.163972
v 0.022752 0.024974 0.163972
v 0.018712 0.024987 0.163972
v 0.425543 0.027043 0.166321
v 0.423142 0.026793 0.166418
v 0.018712 0.032851 0.163972
v 0.423142 0.032069 0.166321
v 0.425463 0.031980 0.166255
v 0.018712 0.032112 0.166190
v 0.425623 0.029671 0.166386
v 0.022752 0.026793 0.166418
v 0.018712 0.026804 0.166418
v 0.423142 0.029671 0.166647
v 0.018712 0.032069 0.166321
v 0.018712 0.029671 0.166647
vn -0.0002 -0.0794 -0.9968
vn -1.0000 -0.0000 -0.0000
vn -1.0000 0.0001 -0.0000
vn -0.0000 0.1286 -0.9917
vn -0.0000 -0.0791 -0.9969
vn -0.0014 -0.8026 -0.5965
vn -0.0022 -0.7908 -0.6121
vn -0.0000 -0.8026 -0.5965
vn -0.0000 0.2375 -0.9714
vn -0.0000 0.1348 -0.9909
vn 0.0330 0.1348 -0.9903
vn 0.1045 0.0633 -0.9925
vn 0.1046 -0.0279 -0.9941
vn 0.0488 -0.0790 -0.9957
vn -0.0026 -0.9689 -0.2473
vn -0.0031 -0.9669 -0.2551
vn -0.0026 -0.8036 -0.5951
vn -0.0000 -0.9695 -0.2449
vn 0.1079 -0.8085 -0.5785
vn 0.0129 -0.8132 -0.5818
vn -0.0000 0.9488 -0.3159
vn 0.0452 0.9478 -0.3156
vn 0.9335 0.2813 -0.2226
vn 0.9094 0.0860 -0.4069
vn 0.1836 0.9660 -0.1820
vn 0.9122 -0.0379 -0.4081
vn 0.9471 -0.1812 -0.2649
vn 0.3778 -0.8590 -0.3456
vn -0.0000 -0.9696 -0.2445
vn -0.0000 -1.0000 -0.0011
vn 0.0153 -0.9695 -0.2445
vn 0.3936 -0.8947 -0.2112
vn 0.0310 -0.9728 -0.2296
vn -0.0000 0.9927 -0.1204
vn 0.1854 0.9755 -0.1183
vn 0.2485 0.9657 -0.0749
vn 0.9213 0.3797 -0.0838
vn 0.9464 0.2851 -0.1518
vn 0.9702 -0.1856 -0.1556
vn 0.9640 -0.2428 -0.1086
vn 0.4803 -0.8665 -0.1362
vn -0.0000 -1.0000 -0.0000
vn 0.0318 -0.9995 -0.0000
vn 0.4848 -0.8746 -0.0000
vn -0.0000 1.0000 -0.0000
vn 0.2492 0.9685 -0.0000
vn 0.9246 0.3810 -0.0000
vn 0.9697 -0.2443 -0.0000
vn 0.9697 -0.2442 -0.0000
vn -0.0000 -1.0000 0.0011
vn 0.0310 -0.9728 0.2296
vn 0.0153 -0.9695 0.2445
vn -0.0000 -0.9696 0.2445
vn 0.4803 -0.8665 0.1362
vn 0.3936 -0.8947 0.2112
vn -0.0000 0.9928 0.1201
vn 0.1854 0.9755 0.1183
vn 0.2485 0.9657 0.0749
vn -0.0000 0.9927 0.1204
vn 0.9213 0.3797 0.0838
vn 0.9464 0.2851 0.1518
vn 0.9702 -0.1856 0.1556
vn 0.9640 -0.2428 0.1086
vn -0.0031 -0.9688 0.2477
vn -0.0000 -0.9695 0.2449
vn 0.3778 -0.8590 0.3456
vn 0.1079 -0.8085 0.5785
vn 0.0129 -0.8132 0.5818
vn -0.0000 -0.8026 0.5965
vn 0.9471 -0.1812 0.2649
vn -0.0000 0.9922 0.1248
vn 0.0452 0.9478 0.3156
vn 0.1836 0.9660 0.1820
vn -0.0000 0.9488 0.3159
vn 0.9335 0.2813 0.2226
vn 0.9122 -0.0379 0.4081
vn 0.9094 0.0860 0.4069
vn -0.0022 -0.8026 0.5965
vn -0.0026 -0.8029 0.5961
vn 0.0488 -0.0790 0.9957
vn 0.1046 -0.0279 0.9941
vn -0.0000 -0.0791 0.9969
vn 0.0330 0.1348 0.9903
vn -0.0000 0.9485 0.3166
vn -0.0000 0.1348 0.9909
vn 0.1045 0.0633 0.9925
vn -0.0002 -0.0794 0.9968
s 0
f 1//1 2//1 3//1
f 1//2 3//2 7//2
f 1//2 7//2 16//2
f 1//2 16//2 15//2
f 1//2 15//2 14//2
f 1//2 14//2 24//2
f 1//2 24//2 32//2
f 1//2 32//2 40//2
f 1//2 40//2 49//2
f 1//2 49//2 58//2
f 1//2 58//2 61//2
f 1//2 61//2 60//2
f 1//2 60//2 55//2
f 1//2 55//2 52//2
f 1//3 52//3 44//3
f 1//2 44//2 35//2
f 1//2 35//2 27//2
f 1//2 27//2 19//2
f 1//2 19//2 9//2
f 1//2 9//2 4//2
f 1//4 4//4 5//4
f 1//5 5//5 8//5
f 1//5 8//5 2//5
f 2//6 6//6 7//6
f 2//7 7//7 3//7
f 2//8 8//8 17//8
f 2//8 17//8 6//8
f 4//9 9//9 10//9
f 4//10 10//10 5//10
f 5//11 10//11 11//11
f 5//12 11//12 12//12
f 5//13 12//13 13//13
f 5//14 13//14 8//14
f 6//15 14//15 15//15
f 6//16 15//16 16//16
f 6//17 16//17 7//17
f 6//18 17//18 14//18
f 8//19 13//19 18//19
f 8//20 18//20 17//20
f 9//21 19//21 20//21
f 9//21 20//21 10//21
f 10//22 20//22 11//22
f 11//23 21//23 22//23
f 11//24 22//24 12//24
f 11//25 20//25 21//25
f 12//26 22//26 13//26
f 13//27 22//27 23//27
f 13//28 23//28 18//28
f 14//29 17//29 25//29
f 14//30 25//30 24//30
f 17//31 18//31 25//31
f 18//32 23//32 26//32
f 18//33 26//33 25//33
f 19//34 27//34 28//34
f 19//34 28//34 20//34
f 20//35 28//35 21//35
f 21//36 28//36 29//36
f 21//37 29//37 30//37
f 21//38 30//38 22//38
f 22//39 30//39 23//39
f 23//40 30//40 31//40
f 23//41 31//41 26//41
f 24//42 25//42 33//42
f 24//42 33//42 32//42
f 25//43 26//43 34//43
f 25//43 34//43 33//43
f 26//44 31//44 39//44
f 26//44 39//44 34//44
f 27//45 35//45 36//45
f 27//45 36//45 28//45
f 28//46 36//46 37//46
f 28//46 37//46 29//46
f 29//47 37//47 38//47
f 29//47 38//47 30//47
f 30//48 38//48 39//48
f 30//49 39//49 31//49
f 32//50 33//50 40//50
f 33//51 34//51 41//51
f 33//52 41//52 42//52
f 33//53 42//53 40//53
f 34//54 39//54 43//54
f 34//55 43//55 41//55
f 35//56 44//56 36//56
f 36//57 45//57 46//57
f 36//58 46//58 37//58
f 36//59 44//59 45//59
f 37//60 46//60 38//60
f 38//61 46//61 47//61
f 38//62 47//62 43//62
f 38//63 43//63 39//63
f 40//64 48//64 49//64
f 40//65 42//65 48//65
f 41//66 43//66 50//66
f 41//67 50//67 51//67
f 41//68 51//68 42//68
f 42//69 51//69 57//69
f 42//69 57//69 48//69
f 43//70 47//70 50//70
f 44//71 52//71 45//71
f 45//72 53//72 54//72
f 45//73 54//73 46//73
f 45//74 52//74 55//74
f 45//74 55//74 53//74
f 46//75 54//75 47//75
f 47//76 56//76 50//76
f 47//77 54//77 56//77
f 48//78 57//78 58//78
f 48//79 58//79 49//79
f 50//80 59//80 51//80
f 50//81 56//81 59//81
f 51//82 59//82 61//82
f 51//82 61//82 57//82
f 53//83 59//83 54//83
f 53//84 55//84 60//84
f 53//85 60//85 61//85
f 53//85 61//85 59//85
f 54//86 59//86 56//86
f 57//87 61//87 58//87
