# Converted from an open-license Objaverse GLB by Critter Engine
v 0 0.5212867 0.2738125
v 0.3347881 0.5212867 0.2738125
v 0.3347881 0.5212867 0.2886291
v 0 0.5212867 0.2886291
v 0 0.5284555 0.295798
v 0.3347881 0.5284555 0.295798
v 0.3347881 0.5356257 0.295798
v 0 0.5356257 0.295798
v 0 0.5356257 0.295798
v 0.3347881 0.5356257 0.295798
v 0.3347881 0.5356257 0.2666436
v 0 0.5356257 0.2666436
v 0 0.5233864 0.2687433
v 0.3347881 0.5233864 0.2687433
v 0 0.5233864 0.2687433
v 0 0.5284555 0.2666436
v 0.3347881 0.5284555 0.2666436
v 0.3347881 0.5233864 0.2687433
v 0 0.5233864 0.2936983
v 0.3347881 0.5233864 0.2936983
v 0 0.5233864 0.2936983
v 0.3347881 0.5233864 0.2936983
v 0 0.5212867 0.5825336
v 0.3347881 0.5212867 0.5825336
v 0.3347881 0.5212867 0.5973502
v 0 0.5212867 0.5973502
v 0 0.5284555 0.604519
v 0.3347881 0.5284555 0.604519
v 0.3347881 0.5356257 0.604519
v 0 0.5356257 0.604519
v 0 0.5356257 0.604519
v 0.3347881 0.5356257 0.604519
v 0.3347881 0.5356257 0.5753648
v 0 0.5356257 0.5753648
v 0 0.5356257 0.5753648
v 0.3347881 0.5356257 0.5753648
v 0.3347881 0.5284555 0.5753648
v 0 0.5284555 0.5753648
v 0 0.5233864 0.5774644
v 0.3347881 0.5233864 0.5774644
v 0 0.5233864 0.5774644
v 0.3347881 0.5233864 0.5774644
v 1e-7 0.5233864 0.6024193
v 0.3347881 0.5233864 0.6024193
v 1e-7 0.5233864 0.6024193
v 0.3347881 0.5233864 0.6024193
v 0.3516978 0.5432734 0.640207
v 0.3595291 0.5375837 0.6401977
v 0.3594917 0.5376625 0.1646371
v 0.3516605 0.5433522 0.1646371
v 0.3516906 0.5447634 0.6823824
v 0.3595219 0.5390773 0.682583
v 0.3516696 0.5494059 0.7050861
v 0.3595005 0.5438231 0.7061879
v 0.3471051 0.5953449 0.8336588
v 0.3549204 0.5901455 0.8360238
v 0.3414255 0.6154062 0.8904771
v 0.349128 0.610508 0.893699
v 0.3184837 0.6320818 0.9352306
v 0.3255827 0.6278394 0.9402614
v 0.279376 0.6428309 0.9594692
v 0.2838646 0.6397871 0.9674873
v 0.2341525 0.6481528 0.9665211
v 0.2352521 0.6457811 0.9758414
v 0 0.65 0.9664627
v 0 0.647747 0.9758605
v 0.3420179 0.5432734 0.6402114
v 0.3419804 0.5433522 0.1646371
v 0.3420106 0.5447633 0.6823806
v 0.3419896 0.549405 0.7050778
v 0.3374463 0.5951322 0.8330556
v 0.3319032 0.6148289 0.8888355
v 0.3096741 0.6307303 0.9314537
v 0.2736348 0.6400704 0.9521807
v 0.2324446 0.6445926 0.9576832
v 0 0.6462892 0.9575373
v 0.3341865 0.5375837 0.6402094
v 0.3341491 0.5376625 0.1646371
v 0.3341794 0.539077 0.6825788
v 0.3341579 0.5438208 0.7061658
v 0.3296331 0.589589 0.8344446
v 0.3241982 0.6089967 0.8894016
v 0.3025185 0.6243012 0.9303732
v 0.268834 0.63256 0.9484056
v 0.2307806 0.6364603 0.952703
v 0 0.6380321 0.9524926
v 0.3311952 0.5283774 0.6402018
v 0.3311578 0.5284562 0.1646371
v 0.3311881 0.5298764 0.6829013
v 0.3311659 0.5347864 0.707935
v 0.32665 0.5808324 0.8372951
v 0.3212536 0.6001372 0.8919591
v 0.2997503 0.6152501 0.9324025
v 0.2668072 0.6231686 0.9495866
v 0.2297959 0.6268623 0.9534838
v 0 0.6283825 0.9532562
v 0.3341865 0.5191712 0.6401913
v 0.3311952 0.5283774 0.6402018
v 0.3311578 0.5284562 0.1646371
v 0.3341491 0.51925 0.1646371
v 0.3341795 0.5206758 0.6832246
v 0.3311881 0.5298764 0.6829013
v 0.3341565 0.5257525 0.709709
v 0.3311659 0.5347864 0.707935
v 0.3296364 0.5722072 0.8405185
v 0.32665 0.5808324 0.8372951
v 0.3241941 0.5916344 0.8955312
v 0.3212536 0.6001372 0.8919591
v 0.3024268 0.6070342 0.9367658
v 0.2997503 0.6152501 0.9324025
v 0.2683285 0.6154832 0.9552718
v 0.2668072 0.6231686 0.9495866
v 0.2298668 0.6194644 0.9597261
v 0.2297959 0.6268623 0.9534838
v 0 0.6210262 0.9595362
v 0 0.6283825 0.9532562
v 0.3420178 0.5134814 0.6401823
v 0.3419804 0.5135602 0.1646371
v 0.3420108 0.5149896 0.6834258
v 0.3419873 0.5201698 0.7108109
v 0.3374515 0.567008 0.8428836
v 0.3318965 0.5867363 0.8987536
v 0.3095255 0.6027919 0.9417969
v 0.2728168 0.6124394 0.9632901
v 0.2309659 0.6170927 0.9690464
v 0 0.6187732 0.9689337
v 0.3516978 0.5134814 0.6401777
v 0.3516605 0.5135602 0.1646371
v 0.3516907 0.5149897 0.6834273
v 0.3516673 0.5201707 0.7108194
v 0.3471104 0.5672205 0.8434868
v 0.3414189 0.5873136 0.9003949
v 0.3183353 0.6041433 0.9455738
v 0.2785581 0.6151999 0.9705784
v 0.2326739 0.6206528 0.9778846
v 0 0.622484 0.9778594
v 0.3595291 0.5191712 0.6401798
v 0.3594917 0.51925 0.1646371
v 0.3595221 0.5206761 0.6832291
v 0.3594991 0.5257548 0.7097313
v 0.3549236 0.5727638 0.8420979
v 0.3491239 0.5931458 0.8998289
v 0.3254908 0.6105725 0.9466542
v 0.2833588 0.6227103 0.9743536
v 0.2343378 0.6287851 0.9828645
v 0 0.6307412 0.9829038
v 0.3625204 0.5283774 0.6401874
v 0.362483 0.5284562 0.1646371
v 0.3625133 0.5298767 0.6829068
v 0.3624911 0.5347893 0.7079623
v 0.3579068 0.5815204 0.8392474
v 0.3520685 0.6020054 0.8972712
v 0.328259 0.6196236 0.9446251
v 0.2853857 0.6321018 0.9731728
v 0.2353226 0.6383832 0.9820843
v 0 0.6403908 0.98214
v 0 0.5212867 0.2738125
v 0 0.5212867 0.2886291
v -0.3347752 0.5212867 0.2886291
v -0.3347752 0.5212867 0.2738125
v 0 0.5284555 0.295798
v 0 0.5356257 0.295798
v -0.3347752 0.5356257 0.295798
v -0.3347752 0.5284555 0.295798
v 0 0.5356257 0.295798
v 0 0.5356257 0.2666436
v -0.3347752 0.5356257 0.2666436
v -0.3347752 0.5356257 0.295798
v -0.3347752 0.5233864 0.2687433
v 0 0.5233864 0.2687433
v 0 0.5233864 0.2687433
v -0.3347752 0.5233864 0.2687433
v -0.3347752 0.5284555 0.2666436
v 0 0.5284555 0.2666436
v -0.3347752 0.5233864 0.2936983
v 0 0.5233864 0.2936983
v 0 0.5233864 0.2936983
v -0.3347752 0.5233864 0.2936983
v 0 0.5212867 0.5825336
v 0 0.5212867 0.5973502
v -0.3347752 0.5212867 0.5973502
v -0.3347752 0.5212867 0.5825336
v 0 0.5284555 0.604519
v 0 0.5356257 0.604519
v -0.3347752 0.5356257 0.604519
v -0.3347752 0.5284555 0.604519
v 0 0.5356257 0.604519
v 0 0.5356257 0.5753648
v -0.3347752 0.5356257 0.5753648
v -0.3347752 0.5356257 0.604519
v 0 0.5356257 0.5753648
v 0 0.5284555 0.5753648
v -0.3347752 0.5284555 0.5753648
v -0.3347752 0.5356257 0.5753648
v -0.3347752 0.5233864 0.5774644
v 0 0.5233864 0.5774644
v 0 0.5233864 0.5774644
v -0.3347752 0.5233864 0.5774644
v -0.3347752 0.5233864 0.6024193
v 0 0.5233864 0.6024193
v 0 0.5233864 0.6024193
v -0.3347752 0.5233864 0.6024193
v -0.3516843 0.5432734 0.640207
v -0.3516469 0.5433522 0.1646371
v -0.3594779 0.5376625 0.1646371
v -0.3595153 0.5375837 0.6401977
v -0.3595081 0.5390773 0.682583
v -0.3516771 0.5447634 0.6823824
v -0.3594866 0.5438231 0.7061879
v -0.3516561 0.5494059 0.7050861
v -0.3470918 0.5953449 0.8336588
v -0.3549067 0.5901455 0.8360238
v -0.3491146 0.610508 0.893699
v -0.3414124 0.6154062 0.8904771
v -0.3255702 0.6278394 0.9402614
v -0.3184715 0.6320818 0.9352306
v -0.2838537 0.6397871 0.9674873
v -0.2793652 0.6428309 0.9594692
v -0.235243 0.6457811 0.9758414
v -0.2341435 0.6481528 0.9665211
v 0 0.65 0.9664627
v 0 0.647747 0.9758605
v -0.3420047 0.5432734 0.6402114
v -0.3419673 0.5433522 0.1646371
v -0.3419975 0.5447633 0.6823806
v -0.3419765 0.549405 0.7050778
v -0.3374334 0.5951322 0.8330556
v -0.3318904 0.6148289 0.8888355
v -0.3096622 0.6307303 0.9314537
v -0.2736243 0.6400704 0.9521807
v -0.2324357 0.6445926 0.9576832
v 0 0.6462892 0.9575373
v -0.3341737 0.5375837 0.6402094
v -0.3341363 0.5376625 0.1646371
v -0.3341665 0.539077 0.6825788
v -0.334145 0.5438208 0.7061658
v -0.3296205 0.589589 0.8344446
v -0.3241857 0.6089967 0.8894016
v -0.3025069 0.6243012 0.9303732
v -0.2688237 0.63256 0.9484056
v -0.2307717 0.6364603 0.952703
v 0 0.6380321 0.9524926
v -0.3311825 0.5283774 0.6402018
v -0.3311451 0.5284562 0.1646371
v -0.3311754 0.5298764 0.6829013
v -0.3311532 0.5347864 0.707935
v -0.3266375 0.5808324 0.8372951
v -0.3212413 0.6001372 0.8919591
v -0.2997388 0.6152501 0.9324025
v -0.2667969 0.6231686 0.9495866
v -0.229787 0.6268623 0.9534838
v 0 0.6283825 0.9532562
v -0.3341737 0.5191712 0.6401913
v -0.3341363 0.51925 0.1646371
v -0.3311451 0.5284562 0.1646371
v -0.3311825 0.5283774 0.6402018
v -0.3311754 0.5298764 0.6829013
v -0.3341666 0.5206758 0.6832246
v -0.3311532 0.5347864 0.707935
v -0.3341436 0.5257525 0.709709
v -0.3296237 0.5722072 0.8405185
v -0.3266375 0.5808324 0.8372951
v -0.3212413 0.6001372 0.8919591
v -0.3241817 0.5916344 0.8955312
v -0.2997388 0.6152501 0.9324025
v -0.3024152 0.6070342 0.9367658
v -0.2667969 0.6231686 0.9495866
v -0.2683181 0.6154832 0.9552718
v -0.229787 0.6268623 0.9534838
v -0.2298579 0.6194644 0.9597261
v 0 0.6210262 0.9595362
v 0 0.6283825 0.9532562
v -0.3420046 0.5134814 0.6401823
v -0.3419673 0.5135602 0.1646371
v -0.3419976 0.5149896 0.6834258
v -0.3419742 0.5201698 0.7108109
v -0.3374386 0.567008 0.8428836
v -0.3318838 0.5867363 0.8987536
v -0.3095136 0.6027919 0.9417969
v -0.2728063 0.6124394 0.9632901
v -0.230957 0.6170927 0.9690464
v 0 0.6187732 0.9689337
v -0.3516843 0.5134814 0.6401777
v -0.3516469 0.5135602 0.1646371
v -0.3516772 0.5149897 0.6834273
v -0.3516538 0.5201707 0.7108194
v -0.347097 0.5672205 0.8434868
v -0.3414058 0.5873136 0.9003949
v -0.318323 0.6041433 0.9455738
v -0.2785474 0.6151999 0.9705784
v -0.232665 0.6206528 0.9778846
v 0 0.622484 0.9778594
v -0.3595153 0.5191712 0.6401798
v -0.3594779 0.51925 0.1646371
v -0.3595082 0.5206761 0.6832291
v -0.3594852 0.5257548 0.7097313
v -0.35491 0.5727638 0.8420979
v -0.3491105 0.5931458 0.8998289
v -0.3254783 0.6105725 0.9466542
v -0.2833479 0.6227103 0.9743536
v -0.2343288 0.6287851 0.9828645
v 0 0.6307412 0.9829038
v -0.3625065 0.5283774 0.6401874
v -0.3624691 0.5284562 0.1646371
v -0.3624994 0.5298767 0.6829068
v -0.3624772 0.5347893 0.7079623
v -0.357893 0.5815204 0.8392474
v -0.352055 0.6020054 0.8972712
v -0.3282464 0.6196236 0.9446251
v -0.2853748 0.6321018 0.9731728
v -0.2353135 0.6383832 0.9820843
v 0 0.6403908 0.98214
vt 0.9273622 0.7983352
vt 0.9273622 0.9960938
vt 0.9361144 0.9960938
vt 0.9361144 0.7983352
vt 0.9841342 0.8015616
vt 0.9841342 0.9960901
vt 0.9884427 0.9960938
vt 0.9884427 0.8015587
vt 0.8367996 0.8015639
vt 0.8367996 0.9960938
vt 0.8537399 0.9960938
vt 0.8537399 0.8015639
vt 0.9243679 0.7983352
vt 0.9243679 0.9960938
vt 0.9960938 0.7937099
vt 0.9930294 0.7937099
vt 0.9930294 0.9960938
vt 0.9960938 0.9960938
vt 0.9810882 0.8015641
vt 0.9810882 0.9960874
vt 0.9391087 0.7983352
vt 0.9391087 0.9960938
vt 0.946269 0.7983351
vt 0.946269 0.9960938
vt 0.9550211 0.9960938
vt 0.9550211 0.7983351
vt 0.8587524 0.6030195
vt 0.8587524 0.7975484
vt 0.8630608 0.7975523
vt 0.8630608 0.6030171
vt 0.8586917 0.801564
vt 0.8586917 0.9960938
vt 0.8756319 0.9960938
vt 0.8756319 0.801564
vt 0.8676475 0.6030175
vt 0.8676475 0.7975523
vt 0.871956 0.7975486
vt 0.871956 0.6030205
vt 0.9432747 0.7983351
vt 0.9432747 0.9960938
vt 0.875002 0.603023
vt 0.875002 0.7975459
vt 0.8557065 0.6030216
vt 0.8557065 0.7975458
vt 0.9580154 0.7983351
vt 0.9580154 0.9960938
vt 0.7546902 0.7202502
vt 0.7490771 0.7202892
vt 0.7490771 0.9960921
vt 0.7546902 0.9960924
vt 0.7546902 0.6947517
vt 0.7490771 0.6951235
vt 0.7546902 0.6800653
vt 0.7490771 0.6804901
vt 0.7546902 0.6004066
vt 0.7490771 0.6003924
vt 0.7546902 0.5660084
vt 0.7490771 0.5664324
vt 0.7546902 0.5365391
vt 0.7490771 0.5377041
vt 0.7546902 0.510407
vt 0.7490771 0.5113662
vt 0.7546902 0.4847617
vt 0.7490771 0.4852453
vt 0.7546902 0.348763
vt 0.7490771 0.3487746
vt 0.7603034 0.7202317
vt 0.7603034 0.9960924
vt 0.7603034 0.6946704
vt 0.7603034 0.6799771
vt 0.7603034 0.6004458
vt 0.7603034 0.5654722
vt 0.7603034 0.5349538
vt 0.7603034 0.5090169
vt 0.7603034 0.4839886
vt 0.7603034 0.3487768
vt 0.7659167 0.7202356
vt 0.7659167 0.9960924
vt 0.7659167 0.6948738
vt 0.7659167 0.6802896
vt 0.7659167 0.6004953
vt 0.7659167 0.5650243
vt 0.7659167 0.5335843
vt 0.7659167 0.5077455
vt 0.7659167 0.4832227
vt 0.7659167 0.3488102
vt 0.7715297 0.7202539
vt 0.7715297 0.9960913
vt 0.7715297 0.6952105
vt 0.7715297 0.6809117
vt 0.7715297 0.6005357
vt 0.7715297 0.5648746
vt 0.7715297 0.5331032
vt 0.7715297 0.5072816
vt 0.7715297 0.4827768
vt 0.7715297 0.3488488
vt 0.721011 0.7204241
vt 0.7153982 0.7204038
vt 0.7153982 0.9960938
vt 0.721011 0.9960928
vt 0.721011 0.6961779
vt 0.7153982 0.6958252
vt 0.721011 0.6809985
vt 0.7153982 0.6803042
vt 0.721011 0.6005361
vt 0.7153982 0.6005211
vt 0.721011 0.5651684
vt 0.7153982 0.56493
vt 0.721011 0.5338103
vt 0.7153982 0.5331444
vt 0.721011 0.5077451
vt 0.7153982 0.5071337
vt 0.721011 0.4828896
vt 0.7153982 0.482836
vt 0.721011 0.3489059
vt 0.7153982 0.348875
vt 0.7266243 0.7204312
vt 0.7266243 0.9960913
vt 0.7266243 0.6963998
vt 0.7266243 0.6815198
vt 0.7266243 0.6005198
vt 0.7266243 0.5656606
vt 0.7266243 0.5352673
vt 0.7266243 0.5090936
vt 0.7266243 0.4834118
vt 0.7266243 0.3489165
vt 0.7322376 0.7204197
vt 0.7322376 0.9960913
vt 0.7322376 0.6963808
vt 0.7322376 0.6817127
vt 0.7322376 0.6004816
vt 0.7322376 0.5661764
vt 0.7322376 0.5368066
vt 0.7322376 0.5104825
vt 0.7322376 0.4841764
vt 0.7322376 0.3488998
vt 0.7378508 0.7203862
vt 0.7378508 0.9960903
vt 0.7378508 0.6961032
vt 0.7378508 0.6815324
vt 0.7378508 0.6004385
vt 0.7378508 0.5665289
vt 0.7378508 0.5378473
vt 0.7378508 0.5114031
vt 0.7378508 0.4848834
vt 0.7378508 0.3488595
vt 0.7434639 0.7203389
vt 0.7434639 0.9960913
vt 0.7434639 0.695635
vt 0.7434639 0.68106
vt 0.7434639 0.6004053
vt 0.7434639 0.566622
vt 0.7434639 0.5381603
vt 0.7434639 0.5117007
vt 0.7434639 0.4852844
vt 0.7434639 0.3488111
vt 0.9651756 0.798339
vt 0.9739277 0.798339
vt 0.9739277 0.9960938
vt 0.9651756 0.9960938
vt 0.8826346 0.6030275
vt 0.886943 0.6030245
vt 0.886943 0.7975559
vt 0.8826346 0.7975522
vt 0.8805838 0.8015676
vt 0.8975236 0.8015676
vt 0.8975236 0.9960938
vt 0.8805838 0.9960938
vt 0.9621814 0.9960938
vt 0.9621814 0.798339
vt 0.9184764 0.595176
vt 0.9184764 0.797556
vt 0.9154121 0.797556
vt 0.9154121 0.595176
vt 0.8795887 0.7975496
vt 0.8795887 0.60303
vt 0.976922 0.798339
vt 0.976922 0.9960938
vt 0.8397939 0.5997972
vt 0.8485459 0.5997972
vt 0.8485459 0.7975522
vt 0.8397939 0.7975522
vt 0.8945757 0.6030269
vt 0.8988841 0.6030244
vt 0.8988841 0.7975559
vt 0.8945757 0.797552
vt 0.9024758 0.8015677
vt 0.9194157 0.8015677
vt 0.9194157 0.9960938
vt 0.9024758 0.9960938
vt 0.9034709 0.603025
vt 0.9077793 0.6030279
vt 0.9077793 0.7975523
vt 0.9034709 0.797556
vt 0.8367996 0.7975522
vt 0.8367996 0.5997972
vt 0.9108252 0.6030304
vt 0.9108252 0.7975497
vt 0.8915298 0.7975494
vt 0.8915298 0.6030289
vt 0.8515401 0.5997972
vt 0.8515401 0.7975522
vt 0.8153904 0.7202536
vt 0.8153904 0.9960924
vt 0.8097774 0.9960921
vt 0.8097774 0.7202926
vt 0.8097774 0.6951272
vt 0.8153904 0.6947554
vt 0.8097774 0.680494
vt 0.8153904 0.6800692
vt 0.8153904 0.6004115
vt 0.8097774 0.6003973
vt 0.8097774 0.5664378
vt 0.8153904 0.5660137
vt 0.8097774 0.5377097
vt 0.8153904 0.5365448
vt 0.8097774 0.5113722
vt 0.8153904 0.5104131
vt 0.8097774 0.4852517
vt 0.8153904 0.484768
vt 0.8153904 0.348771
vt 0.8097774 0.3487827
vt 0.8210036 0.7202351
vt 0.8210036 0.9960924
vt 0.8210036 0.6946742
vt 0.8210036 0.6799811
vt 0.8210036 0.6004507
vt 0.8210036 0.5654775
vt 0.8210036 0.5349596
vt 0.8210036 0.5090229
vt 0.8210036 0.4839949
vt 0.8210036 0.3487848
vt 0.8266168 0.720239
vt 0.8266168 0.9960924
vt 0.8266168 0.6948776
vt 0.8266168 0.6802935
vt 0.8266168 0.6005002
vt 0.8266168 0.5650296
vt 0.8266168 0.53359
vt 0.8266168 0.5077516
vt 0.8266168 0.4832291
vt 0.8266168 0.3488182
vt 0.8322298 0.7202573
vt 0.8322298 0.9960913
vt 0.8322298 0.6952142
vt 0.8322298 0.6809156
vt 0.8322298 0.6005405
vt 0.8322298 0.56488
vt 0.8322298 0.5331089
vt 0.8322298 0.5072877
vt 0.8322298 0.4827831
vt 0.8322298 0.3488568
vt 0.7817117 0.7204275
vt 0.7817117 0.9960928
vt 0.7760989 0.9960938
vt 0.7760989 0.7204072
vt 0.7760989 0.6958289
vt 0.7817117 0.6961816
vt 0.7760989 0.6803081
vt 0.7817117 0.6810024
vt 0.7817117 0.600541
vt 0.7760989 0.6005259
vt 0.7760989 0.5649353
vt 0.7817117 0.5651737
vt 0.7760989 0.5331501
vt 0.7817117 0.533816
vt 0.7760989 0.5071397
vt 0.7817117 0.5077512
vt 0.7760989 0.4828423
vt 0.7817117 0.4828959
vt 0.7817117 0.3489138
vt 0.7760989 0.348883
vt 0.7873249 0.7204346
vt 0.7873249 0.9960913
vt 0.7873249 0.6964035
vt 0.7873249 0.6815237
vt 0.7873249 0.6005247
vt 0.7873249 0.5656659
vt 0.7873249 0.535273
vt 0.7873249 0.5090997
vt 0.7873249 0.4834182
vt 0.7873249 0.3489246
vt 0.7929381 0.7204231
vt 0.7929381 0.9960913
vt 0.7929381 0.6963845
vt 0.7929381 0.6817166
vt 0.7929381 0.6004865
vt 0.7929381 0.5661818
vt 0.7929381 0.5368123
vt 0.7929381 0.5104885
vt 0.7929381 0.4841827
vt 0.7929381 0.3489078
vt 0.7985513 0.7203896
vt 0.7985513 0.9960903
vt 0.7985513 0.6961069
vt 0.7985513 0.6815363
vt 0.7985513 0.6004434
vt 0.7985513 0.5665342
vt 0.7985513 0.537853
vt 0.7985513 0.5114091
vt 0.7985513 0.4848897
vt 0.7985513 0.3488675
vt 0.8041642 0.7203424
vt 0.8041642 0.9960913
vt 0.8041642 0.6956387
vt 0.8041642 0.6810639
vt 0.8041642 0.6004102
vt 0.8041642 0.5666273
vt 0.8041642 0.538166
vt 0.8041642 0.5117067
vt 0.8041642 0.4852906
vt 0.8041642 0.3488191
vn 0 -0.9944719 -0.1050032
vn 0 -0.9944719 -0.1050032
vn 0 -0.9944719 0.1050031
vn 0 -0.9944719 0.1050031
vn 0 -0.1690822 0.985602
vn 0 -0.1690822 0.985602
vn 0 0 1
vn 0 0 1
vn 0 1 0
vn 0 1 0
vn 0 1 0
vn 0 1 0
vn 0 -0.7071062 -0.7071073
vn 0 -0.7071062 -0.7071073
vn 0 -0.7071062 -0.7071073
vn 0 -0.1690822 -0.985602
vn 0 -0.1690822 -0.985602
vn 0 -0.7071062 -0.7071073
vn 0 -0.7071069 0.7071066
vn 0 -0.7071069 0.7071066
vn 0 -0.7071069 0.7071066
vn 0 -0.7071069 0.7071066
vn 0 -0.9944719 -0.1050031
vn 0 -0.9944719 -0.1050031
vn 0 -0.9944719 0.1050031
vn 0 -0.9944719 0.1050029
vn 0 -0.1690751 0.9856032
vn 0 -0.1690752 0.9856031
vn 0 0 1
vn 0 0 1
vn 0 1 0
vn 0 1 0
vn 0 1 0
vn 0 1 0
vn 0 0 -1
vn 0 0 -1
vn 0 -0.1690799 -0.9856024
vn 0 -0.1690799 -0.9856024
vn 0 -0.7071084 -0.7071051
vn 0 -0.7071084 -0.7071051
vn 0 -0.7071084 -0.7071051
vn 0 -0.7071084 -0.7071051
vn 0 -0.7071054 0.7071081
vn 0 -0.7071055 0.7071081
vn 0 -0.7071054 0.7071081
vn 0 -0.7071055 0.7071081
vn 0.3090286 0.9510514 -0.0016005
vn 0.8091164 0.5876476 -0.0010022
vn 0.8090038 0.5878034 0.0000199
vn 0.3090015 0.9510616 0.0000785
vn 0.3139137 0.9451566 -0.090206
vn 0.8166744 0.5746042 -0.0535997
vn 0.321365 0.9009682 -0.2915148
vn 0.8230338 0.5459222 -0.1567935
vn 0.3149122 0.8995473 -0.3027293
vn 0.8105656 0.5645083 -0.1559285
vn 0.331934 0.9138339 -0.2339388
vn 0.7950297 0.6065584 0.0038271
vn 0.2852806 0.9525968 -0.1057086
vn 0.6518563 0.6983655 0.2955824
vn 0.1711648 0.9848038 -0.0293943
vn 0.3581313 0.7813832 0.51106
vn 0.0569154 0.9973612 -0.0450694
vn 0.0893138 0.8352256 0.5426059
vn 0.0244771 0.9971814 -0.0709237
vn 0.0216737 0.8506496 0.5252862
vn -0.3091581 0.9510094 -0.0015788
vn -0.3090194 0.9510557 0.0001071
vn -0.3137417 0.9451859 -0.0904967
vn -0.309924 0.8987868 -0.3100475
vn -0.3007088 0.893169 -0.3344
vn -0.2625473 0.8822726 -0.3907223
vn -0.1912701 0.8456904 -0.4982204
vn -0.0658852 0.7959925 -0.6017101
vn 0.0124764 0.7753812 -0.6313703
vn 0.019042 0.7642615 -0.6446253
vn -0.8091653 0.5875803 -0.0009452
vn -0.8090101 0.5877947 0.0000948
vn -0.8166048 0.5746338 -0.0543378
vn -0.817616 0.5385232 -0.2037078
vn -0.8038902 0.5452164 -0.2376967
vn -0.7664378 0.5025385 -0.4000351
vn -0.5861374 0.3845383 -0.7131432
vn -0.2425687 0.266298 -0.9328697
vn -0.0246572 0.2449901 -0.969212
vn 0.0080065 0.2377457 -0.9712944
vn -1 -0.0002521 0.0000492
vn -1 0.0000212 0.0000463
vn -0.9998738 -0.0157286 0.0022269
vn -0.9992829 -0.0331913 -0.0182241
vn -0.9987035 -0.0157833 -0.0483955
vn -0.9655625 -0.0885624 -0.244634
vn -0.7415906 -0.2351013 -0.6283078
vn -0.3180875 -0.3474551 -0.8820971
vn -0.0503038 -0.3746138 -0.9258153
vn -0.005359 -0.3774373 -0.9260196
vn -0.8089238 -0.5879127 0.0010186
vn -1 -0.0002521 0.0000492
vn -1 0.0000212 0.0000463
vn -0.8090302 -0.587767 -0.0000199
vn -0.8014989 -0.5953327 0.0563774
vn -0.9998738 -0.0157286 0.0022269
vn -0.7929042 -0.585401 0.1691409
vn -0.9992829 -0.0331913 -0.0182241
vn -0.8048993 -0.5716098 0.1593719
vn -0.9987035 -0.0157833 -0.0483955
vn -0.7671395 -0.6413171 0.0144685
vn -0.9655625 -0.0885624 -0.244634
vn -0.6029261 -0.7513264 -0.2683072
vn -0.7415906 -0.2351013 -0.6283078
vn -0.2925914 -0.825945 -0.4818767
vn -0.3180875 -0.3474551 -0.8820971
vn -0.0626023 -0.8506306 -0.5220235
vn -0.0503038 -0.3746138 -0.9258153
vn -0.0173294 -0.8492449 -0.5277147
vn -0.005359 -0.3774373 -0.9260196
vn -0.3090075 -0.9510582 0.0015982
vn -0.3090308 -0.951052 -0.0000785
vn -0.3043989 -0.9483973 0.0887913
vn -0.2947599 -0.9109255 0.2886717
vn -0.3009758 -0.9038681 0.3040329
vn -0.265389 -0.9274071 0.2635995
vn -0.2158509 -0.9555333 0.200909
vn -0.1386359 -0.9814945 0.1320934
vn -0.0489422 -0.9940575 0.0972334
vn -0.023018 -0.9967416 0.0773075
vn 0.3088833 -0.9510986 0.0015758
vn 0.3090144 -0.9510573 -0.000107
vn 0.3045228 -0.9483349 0.0890327
vn 0.3048966 -0.9028851 0.3030454
vn 0.3141089 -0.8893954 0.3321316
vn 0.3275738 -0.8542285 0.403719
vn 0.2617197 -0.7857973 0.5603797
vn 0.1062813 -0.7340309 0.670748
vn -0.0034891 -0.7385923 0.6741433
vn -0.0185473 -0.7556843 0.6546733
vn 0.8088756 -0.5879791 0.0009605
vn 0.8090226 -0.5877775 -0.0000947
vn 0.8015402 -0.5952146 0.0570341
vn 0.7958625 -0.5681938 0.2091855
vn 0.8087013 -0.5391005 0.2353141
vn 0.7917966 -0.4691595 0.3910851
vn 0.6372453 -0.3421549 0.6905422
vn 0.3208573 -0.2325434 0.9181362
vn 0.0527726 -0.2102454 0.9762233
vn -0.0052213 -0.2235464 0.9746793
vn 1 -0.000256 -0.000022
vn 1 0.0000207 -0.0000463
vn 0.9998724 -0.0156729 0.0030867
vn 0.9991813 -0.0187992 0.0358242
vn 0.9986567 0.0151594 0.0495487
vn 0.9674846 0.0829029 0.2389575
vn 0.781995 0.2107892 0.5865592
vn 0.4146328 0.3243015 0.8502401
vn 0.089257 0.3787916 0.9211678
vn 0.0105114 0.3871997 0.921936
vn 0 -0.9944719 -0.1050032
vn 0 -0.9944719 0.1050031
vn 0 -0.9944719 0.1050031
vn 0 -0.9944719 -0.1050032
vn 0 -0.1690822 0.985602
vn 0 0 1
vn 0 0 1
vn 0 -0.1690822 0.985602
vn 0 1 0
vn 0 1 0
vn 0 1 0
vn 0 1 0
vn 0 -0.7071062 -0.7071073
vn 0 -0.7071062 -0.7071073
vn 0 -0.7071062 -0.7071073
vn 0 -0.7071062 -0.7071073
vn 0 -0.1690822 -0.985602
vn 0 -0.1690822 -0.985602
vn 0 -0.7071069 0.7071066
vn 0 -0.7071069 0.7071066
vn 0 -0.7071069 0.7071066
vn 0 -0.7071069 0.7071066
vn 0 -0.9944719 -0.1050031
vn 0 -0.9944719 0.1050029
vn 0 -0.9944719 0.1050031
vn 0 -0.9944719 -0.1050031
vn 0 -0.1690751 0.9856032
vn 0 0 1
vn 0 0 1
vn 0 -0.1690752 0.9856031
vn 0 1 0
vn 0 1 0
vn 0 1 0
vn 0 1 0
vn 0 0 -1
vn 0 -0.1690799 -0.9856024
vn 0 -0.1690799 -0.9856024
vn 0 0 -1
vn 0 -0.7071084 -0.7071051
vn 0 -0.7071084 -0.7071051
vn 0 -0.7071084 -0.7071051
vn 0 -0.7071084 -0.7071051
vn 0 -0.7071055 0.7071081
vn 0 -0.7071054 0.7071081
vn 0 -0.7071054 0.7071081
vn 0 -0.7071055 0.7071081
vn -0.3090393 0.9510479 -0.0016005
vn -0.3090122 0.9510581 0.0000785
vn -0.8090146 0.5877886 0.0000199
vn -0.8091271 0.5876328 -0.0010022
vn -0.8166848 0.5745895 -0.0535983
vn -0.3139245 0.9451531 -0.0902057
vn -0.823044 0.545908 -0.1567895
vn -0.321376 0.9009646 -0.2915137
vn -0.314923 0.8995439 -0.3027281
vn -0.8105763 0.564494 -0.1559246
vn -0.7950409 0.6065437 0.003827
vn -0.3319453 0.9138301 -0.2339378
vn -0.6518706 0.6983542 0.2955776
vn -0.2852907 0.9525938 -0.1057083
vn -0.3581433 0.7813793 0.5110575
vn -0.1711711 0.9848027 -0.0293942
vn -0.0893172 0.8352253 0.5426058
vn -0.0569176 0.9973611 -0.0450694
vn -0.0244781 0.9971814 -0.0709237
vn -0.0216746 0.8506495 0.5252862
vn 0.3091688 0.9510059 -0.0015788
vn 0.3090301 0.9510522 0.0001071
vn 0.3137526 0.9451824 -0.0904963
vn 0.3099348 0.8987834 -0.3100464
vn 0.3007193 0.8931659 -0.3343988
vn 0.2625566 0.8822703 -0.3907213
vn 0.1912772 0.8456892 -0.4982197
vn 0.0658877 0.7959923 -0.6017101
vn -0.0124768 0.7753811 -0.6313703
vn -0.0190428 0.7642614 -0.6446253
vn 0.809176 0.5875656 -0.0009452
vn 0.8090208 0.58778 0.0000948
vn 0.8166153 0.5746191 -0.0543364
vn 0.8176264 0.5385094 -0.2037026
vn 0.803901 0.5452029 -0.2376908
vn 0.76645 0.5025272 -0.4000261
vn 0.5861522 0.3845332 -0.7131338
vn 0.2425775 0.2662974 -0.9328675
vn 0.0246581 0.2449901 -0.969212
vn -0.0080068 0.2377457 -0.9712944
vn 1 -0.0002521 0.0000492
vn 1 0.0000212 0.0000463
vn 0.9998738 -0.015728 0.0022268
vn 0.9992829 -0.0331901 -0.0182234
vn 0.9987036 -0.0157827 -0.0483937
vn 0.965565 -0.0885592 -0.2446252
vn 0.7416035 -0.2350964 -0.6282945
vn 0.3180984 -0.3474537 -0.8820937
vn 0.0503057 -0.3746137 -0.9258153
vn 0.0053592 -0.3774373 -0.9260196
vn 0.8089345 -0.5878979 0.0010186
vn 0.809041 -0.5877522 -0.0000199
vn 1 0.0000212 0.0000463
vn 1 -0.0002521 0.0000492
vn 0.9998738 -0.015728 0.0022268
vn 0.80151 -0.595318 0.056376
vn 0.9992829 -0.0331901 -0.0182234
vn 0.7929155 -0.5853868 0.1691368
vn 0.8049102 -0.5715955 0.1593679
vn 0.9987036 -0.0157827 -0.0483937
vn 0.965565 -0.0885592 -0.2446252
vn 0.7671517 -0.6413025 0.0144681
vn 0.7416035 -0.2350964 -0.6282945
vn 0.6029408 -0.7513159 -0.2683035
vn 0.3180984 -0.3474537 -0.8820937
vn 0.2926016 -0.8259423 -0.4818751
vn 0.0503057 -0.3746137 -0.9258153
vn 0.0626047 -0.8506305 -0.5220234
vn 0.01733 -0.8492449 -0.5277146
vn 0.0053592 -0.3774373 -0.9260196
vn 0.3090183 -0.9510548 0.0015982
vn 0.3090416 -0.9510485 -0.0000785
vn 0.3044095 -0.9483939 0.0887909
vn 0.2947702 -0.9109225 0.2886707
vn 0.3009863 -0.903865 0.3040319
vn 0.2653985 -0.9274046 0.2635988
vn 0.2158589 -0.9555316 0.2009087
vn 0.1386411 -0.9814938 0.1320932
vn 0.0489441 -0.9940574 0.0972334
vn 0.0230189 -0.9967415 0.0773075
vn -0.308894 -0.9510952 0.0015758
vn -0.3090251 -0.9510539 -0.000107
vn -0.3045334 -0.9483315 0.0890323
vn -0.3049072 -0.9028819 0.3030443
vn -0.3141198 -0.889392 0.3321303
vn -0.327585 -0.854225 0.4037174
vn -0.261729 -0.7857952 0.5603783
vn -0.1062853 -0.7340306 0.6707477
vn 0.0034892 -0.7385923 0.6741433
vn 0.018548 -0.7556843 0.6546733
vn -0.8088863 -0.5879643 0.0009605
vn -0.8090334 -0.5877627 -0.0000947
vn -0.8015512 -0.5952 0.0570327
vn -0.7958738 -0.56818 0.2091804
vn -0.8087121 -0.539087 0.2353082
vn -0.7918079 -0.4691482 0.3910757
vn -0.6372598 -0.3421496 0.6905314
vn -0.3208683 -0.2325425 0.9181326
vn -0.0527747 -0.2102454 0.9762232
vn 0.0052215 -0.2235464 0.9746793
vn -1 -0.000256 -0.000022
vn -1 0.0000207 -0.0000463
vn -0.9998724 -0.0156723 0.0030866
vn -0.9991813 -0.0187985 0.0358228
vn -0.9986568 0.0151588 0.0495468
vn -0.967487 0.0828999 0.2389489
vn -0.7820066 0.2107843 0.5865455
vn -0.414646 0.3242993 0.8502344
vn -0.0892604 0.3787914 0.9211675
vn -0.0105118 0.3871997 0.921936
f 1/1/1 2/2/2 3/3/3
f 1/1/1 3/3/3 4/4/4
f 5/5/5 6/6/6 7/7/7
f 5/5/5 7/7/7 8/8/8
f 9/9/9 10/10/10 11/11/11
f 9/9/9 11/11/11 12/12/12
f 1/1/1 13/13/13 14/14/14
f 1/1/1 14/14/14 2/2/2
f 15/15/15 16/16/16 17/17/17
f 15/15/15 17/17/17 18/18/18
f 5/5/5 19/19/19 20/20/20
f 5/5/5 20/20/20 6/6/6
f 21/21/21 4/4/4 3/3/3
f 21/21/21 3/3/3 22/22/22
f 23/23/23 24/24/24 25/25/25
f 23/23/23 25/25/25 26/26/26
f 27/27/27 28/28/28 29/29/29
f 27/27/27 29/29/29 30/30/30
f 31/31/31 32/32/32 33/33/33
f 31/31/31 33/33/33 34/34/34
f 35/35/35 36/36/36 37/37/37
f 35/35/35 37/37/37 38/38/38
f 23/23/23 39/39/39 40/40/40
f 23/23/23 40/40/40 24/24/24
f 41/41/41 38/38/38 37/37/37
f 41/41/41 37/37/37 42/42/42
f 27/27/27 43/43/43 44/44/44
f 27/27/27 44/44/44 28/28/28
f 45/45/45 26/26/26 25/25/25
f 45/45/45 25/25/25 46/46/46
f 47/47/47 48/48/48 49/49/49
f 47/47/47 49/49/49 50/50/50
f 48/48/48 47/47/47 51/51/51
f 48/48/48 51/51/51 52/52/52
f 52/52/52 51/51/51 53/53/53
f 52/52/52 53/53/53 54/54/54
f 55/55/55 56/56/56 54/54/54
f 55/55/55 54/54/54 53/53/53
f 56/56/56 55/55/55 57/57/57
f 56/56/56 57/57/57 58/58/58
f 58/58/58 57/57/57 59/59/59
f 58/58/58 59/59/59 60/60/60
f 60/60/60 59/59/59 61/61/61
f 60/60/60 61/61/61 62/62/62
f 62/62/62 61/61/61 63/63/63
f 62/62/62 63/63/63 64/64/64
f 65/65/65 66/66/66 64/64/64
f 65/65/65 64/64/64 63/63/63
f 67/67/67 47/47/47 50/50/50
f 67/67/67 50/50/50 68/68/68
f 47/47/47 67/67/67 69/69/69
f 47/47/47 69/69/69 51/51/51
f 51/51/51 69/69/69 70/70/70
f 51/51/51 70/70/70 53/53/53
f 71/71/71 55/55/55 53/53/53
f 71/71/71 53/53/53 70/70/70
f 55/55/55 71/71/71 72/72/72
f 55/55/55 72/72/72 57/57/57
f 57/57/57 72/72/72 73/73/73
f 57/57/57 73/73/73 59/59/59
f 59/59/59 73/73/73 74/74/74
f 59/59/59 74/74/74 61/61/61
f 61/61/61 74/74/74 75/75/75
f 61/61/61 75/75/75 63/63/63
f 76/76/76 65/65/65 63/63/63
f 76/76/76 63/63/63 75/75/75
f 77/77/77 67/67/67 68/68/68
f 77/77/77 68/68/68 78/78/78
f 67/67/67 77/77/77 79/79/79
f 67/67/67 79/79/79 69/69/69
f 69/69/69 79/79/79 80/80/80
f 69/69/69 80/80/80 70/70/70
f 81/81/81 71/71/71 70/70/70
f 81/81/81 70/70/70 80/80/80
f 71/71/71 81/81/81 82/82/82
f 71/71/71 82/82/82 72/72/72
f 72/72/72 82/82/82 83/83/83
f 72/72/72 83/83/83 73/73/73
f 73/73/73 83/83/83 84/84/84
f 73/73/73 84/84/84 74/74/74
f 74/74/74 84/84/84 85/85/85
f 74/74/74 85/85/85 75/75/75
f 86/86/86 76/76/76 75/75/75
f 86/86/86 75/75/75 85/85/85
f 87/87/87 77/77/77 78/78/78
f 87/87/87 78/78/78 88/88/88
f 77/77/77 87/87/87 89/89/89
f 77/77/77 89/89/89 79/79/79
f 79/79/79 89/89/89 90/90/90
f 79/79/79 90/90/90 80/80/80
f 91/91/91 81/81/81 80/80/80
f 91/91/91 80/80/80 90/90/90
f 81/81/81 91/91/91 92/92/92
f 81/81/81 92/92/92 82/82/82
f 82/82/82 92/92/92 93/93/93
f 82/82/82 93/93/93 83/83/83
f 83/83/83 93/93/93 94/94/94
f 83/83/83 94/94/94 84/84/84
f 84/84/84 94/94/94 95/95/95
f 84/84/84 95/95/95 85/85/85
f 96/96/96 86/86/86 85/85/85
f 96/96/96 85/85/85 95/95/95
f 97/97/97 98/98/98 99/99/99
f 97/97/97 99/99/99 100/100/100
f 98/98/98 97/97/97 101/101/101
f 98/98/98 101/101/101 102/102/102
f 102/102/102 101/101/101 103/103/103
f 102/102/102 103/103/103 104/104/104
f 105/105/105 106/106/106 104/104/104
f 105/105/105 104/104/104 103/103/103
f 106/106/106 105/105/105 107/107/107
f 106/106/106 107/107/107 108/108/108
f 108/108/108 107/107/107 109/109/109
f 108/108/108 109/109/109 110/110/110
f 110/110/110 109/109/109 111/111/111
f 110/110/110 111/111/111 112/112/112
f 112/112/112 111/111/111 113/113/113
f 112/112/112 113/113/113 114/114/114
f 115/115/115 116/116/116 114/114/114
f 115/115/115 114/114/114 113/113/113
f 117/117/117 97/97/97 100/100/100
f 117/117/117 100/100/100 118/118/118
f 97/97/97 117/117/117 119/119/119
f 97/97/97 119/119/119 101/101/101
f 101/101/101 119/119/119 120/120/120
f 101/101/101 120/120/120 103/103/103
f 121/121/121 105/105/105 103/103/103
f 121/121/121 103/103/103 120/120/120
f 105/105/105 121/121/121 122/122/122
f 105/105/105 122/122/122 107/107/107
f 107/107/107 122/122/122 123/123/123
f 107/107/107 123/123/123 109/109/109
f 109/109/109 123/123/123 124/124/124
f 109/109/109 124/124/124 111/111/111
f 111/111/111 124/124/124 125/125/125
f 111/111/111 125/125/125 113/113/113
f 126/126/126 115/115/115 113/113/113
f 126/126/126 113/113/113 125/125/125
f 127/127/127 117/117/117 118/118/118
f 127/127/127 118/118/118 128/128/128
f 117/117/117 127/127/127 129/129/129
f 117/117/117 129/129/129 119/119/119
f 119/119/119 129/129/129 130/130/130
f 119/119/119 130/130/130 120/120/120
f 131/131/131 121/121/121 120/120/120
f 131/131/131 120/120/120 130/130/130
f 121/121/121 131/131/131 132/132/132
f 121/121/121 132/132/132 122/122/122
f 122/122/122 132/132/132 133/133/133
f 122/122/122 133/133/133 123/123/123
f 123/123/123 133/133/133 134/134/134
f 123/123/123 134/134/134 124/124/124
f 124/124/124 134/134/134 135/135/135
f 124/124/124 135/135/135 125/125/125
f 136/136/136 126/126/126 125/125/125
f 136/136/136 125/125/125 135/135/135
f 137/137/137 127/127/127 128/128/128
f 137/137/137 128/128/128 138/138/138
f 127/127/127 137/137/137 139/139/139
f 127/127/127 139/139/139 129/129/129
f 129/129/129 139/139/139 140/140/140
f 129/129/129 140/140/140 130/130/130
f 141/141/141 131/131/131 130/130/130
f 141/141/141 130/130/130 140/140/140
f 131/131/131 141/141/141 142/142/142
f 131/131/131 142/142/142 132/132/132
f 132/132/132 142/142/142 143/143/143
f 132/132/132 143/143/143 133/133/133
f 133/133/133 143/143/143 144/144/144
f 133/133/133 144/144/144 134/134/134
f 134/134/134 144/144/144 145/145/145
f 134/134/134 145/145/145 135/135/135
f 146/146/146 136/136/136 135/135/135
f 146/146/146 135/135/135 145/145/145
f 147/147/147 137/137/137 138/138/138
f 147/147/147 138/138/138 148/148/148
f 137/137/137 147/147/147 149/149/149
f 137/137/137 149/149/149 139/139/139
f 139/139/139 149/149/149 150/150/150
f 139/139/139 150/150/150 140/140/140
f 151/151/151 141/141/141 140/140/140
f 151/151/151 140/140/140 150/150/150
f 141/141/141 151/151/151 152/152/152
f 141/141/141 152/152/152 142/142/142
f 142/142/142 152/152/152 153/153/153
f 142/142/142 153/153/153 143/143/143
f 143/143/143 153/153/153 154/154/154
f 143/143/143 154/154/154 144/144/144
f 144/144/144 154/154/154 155/155/155
f 144/144/144 155/155/155 145/145/145
f 156/156/156 146/146/146 145/145/145
f 156/156/156 145/145/145 155/155/155
f 49/49/49 48/48/48 147/147/147
f 49/49/49 147/147/147 148/148/148
f 147/147/147 48/48/48 52/52/52
f 147/147/147 52/52/52 149/149/149
f 149/149/149 52/52/52 54/54/54
f 149/149/149 54/54/54 150/150/150
f 54/54/54 56/56/56 151/151/151
f 54/54/54 151/151/151 150/150/150
f 151/151/151 56/56/56 58/58/58
f 151/151/151 58/58/58 152/152/152
f 152/152/152 58/58/58 60/60/60
f 152/152/152 60/60/60 153/153/153
f 153/153/153 60/60/60 62/62/62
f 153/153/153 62/62/62 154/154/154
f 154/154/154 62/62/62 64/64/64
f 154/154/154 64/64/64 155/155/155
f 64/64/64 66/66/66 156/156/156
f 64/64/64 156/156/156 155/155/155
f 157/157/157 158/158/158 159/159/159
f 157/157/157 159/159/159 160/160/160
f 161/161/161 162/162/162 163/163/163
f 161/161/161 163/163/163 164/164/164
f 165/165/165 166/166/166 167/167/167
f 165/165/165 167/167/167 168/168/168
f 157/157/157 160/160/160 169/169/169
f 157/157/157 169/169/169 170/170/170
f 171/171/171 172/172/172 173/173/173
f 171/171/171 173/173/173 174/174/174
f 161/161/161 164/164/164 175/175/175
f 161/161/161 175/175/175 176/176/176
f 177/177/177 178/178/178 159/159/159
f 177/177/177 159/159/159 158/158/158
f 179/179/179 180/180/180 181/181/181
f 179/179/179 181/181/181 182/182/182
f 183/183/183 184/184/184 185/185/185
f 183/183/183 185/185/185 186/186/186
f 187/187/187 188/188/188 189/189/189
f 187/187/187 189/189/189 190/190/190
f 191/191/191 192/192/192 193/193/193
f 191/191/191 193/193/193 194/194/194
f 179/179/179 182/182/182 195/195/195
f 179/179/179 195/195/195 196/196/196
f 197/197/197 198/198/198 193/193/193
f 197/197/197 193/193/193 192/192/192
f 183/183/183 186/186/186 199/199/199
f 183/183/183 199/199/199 200/200/200
f 201/201/201 202/202/202 181/181/181
f 201/201/201 181/181/181 180/180/180
f 203/203/203 204/204/204 205/205/205
f 203/203/203 205/205/205 206/206/206
f 206/206/206 207/207/207 208/208/208
f 206/206/206 208/208/208 203/203/203
f 207/207/207 209/209/209 210/210/210
f 207/207/207 210/210/210 208/208/208
f 211/211/211 210/210/210 209/209/209
f 211/211/211 209/209/209 212/212/212
f 212/212/212 213/213/213 214/214/214
f 212/212/212 214/214/214 211/211/211
f 213/213/213 215/215/215 216/216/216
f 213/213/213 216/216/216 214/214/214
f 215/215/215 217/217/217 218/218/218
f 215/215/215 218/218/218 216/216/216
f 217/217/217 219/219/219 220/220/220
f 217/217/217 220/220/220 218/218/218
f 221/221/221 220/220/220 219/219/219
f 221/221/221 219/219/219 222/222/222
f 223/223/223 224/224/224 204/204/204
f 223/223/223 204/204/204 203/203/203
f 203/203/203 208/208/208 225/225/225
f 203/203/203 225/225/225 223/223/223
f 208/208/208 210/210/210 226/226/226
f 208/208/208 226/226/226 225/225/225
f 227/227/227 226/226/226 210/210/210
f 227/227/227 210/210/210 211/211/211
f 211/211/211 214/214/214 228/228/228
f 211/211/211 228/228/228 227/227/227
f 214/214/214 216/216/216 229/229/229
f 214/214/214 229/229/229 228/228/228
f 216/216/216 218/218/218 230/230/230
f 216/216/216 230/230/230 229/229/229
f 218/218/218 220/220/220 231/231/231
f 218/218/218 231/231/231 230/230/230
f 232/232/232 231/231/231 220/220/220
f 232/232/232 220/220/220 221/221/221
f 233/233/233 234/234/234 224/224/224
f 233/233/233 224/224/224 223/223/223
f 223/223/223 225/225/225 235/235/235
f 223/223/223 235/235/235 233/233/233
f 225/225/225 226/226/226 236/236/236
f 225/225/225 236/236/236 235/235/235
f 237/237/237 236/236/236 226/226/226
f 237/237/237 226/226/226 227/227/227
f 227/227/227 228/228/228 238/238/238
f 227/227/227 238/238/238 237/237/237
f 228/228/228 229/229/229 239/239/239
f 228/228/228 239/239/239 238/238/238
f 229/229/229 230/230/230 240/240/240
f 229/229/229 240/240/240 239/239/239
f 230/230/230 231/231/231 241/241/241
f 230/230/230 241/241/241 240/240/240
f 242/242/242 241/241/241 231/231/231
f 242/242/242 231/231/231 232/232/232
f 243/243/243 244/244/244 234/234/234
f 243/243/243 234/234/234 233/233/233
f 233/233/233 235/235/235 245/245/245
f 233/233/233 245/245/245 243/243/243
f 235/235/235 236/236/236 246/246/246
f 235/235/235 246/246/246 245/245/245
f 247/247/247 246/246/246 236/236/236
f 247/247/247 236/236/236 237/237/237
f 237/237/237 238/238/238 248/248/248
f 237/237/237 248/248/248 247/247/247
f 238/238/238 239/239/239 249/249/249
f 238/238/238 249/249/249 248/248/248
f 239/239/239 240/240/240 250/250/250
f 239/239/239 250/250/250 249/249/249
f 240/240/240 241/241/241 251/251/251
f 240/240/240 251/251/251 250/250/250
f 252/252/252 251/251/251 241/241/241
f 252/252/252 241/241/241 242/242/242
f 253/253/253 254/254/254 255/255/255
f 253/253/253 255/255/255 256/256/256
f 256/256/256 257/257/257 258/258/258
f 256/256/256 258/258/258 253/253/253
f 257/257/257 259/259/259 260/260/260
f 257/257/257 260/260/260 258/258/258
f 261/261/261 260/260/260 259/259/259
f 261/261/261 259/259/259 262/262/262
f 262/262/262 263/263/263 264/264/264
f 262/262/262 264/264/264 261/261/261
f 263/263/263 265/265/265 266/266/266
f 263/263/263 266/266/266 264/264/264
f 265/265/265 267/267/267 268/268/268
f 265/265/265 268/268/268 266/266/266
f 267/267/267 269/269/269 270/270/270
f 267/267/267 270/270/270 268/268/268
f 271/271/271 270/270/270 269/269/269
f 271/271/271 269/269/269 272/272/272
f 273/273/273 274/274/274 254/254/254
f 273/273/273 254/254/254 253/253/253
f 253/253/253 258/258/258 275/275/275
f 253/253/253 275/275/275 273/273/273
f 258/258/258 260/260/260 276/276/276
f 258/258/258 276/276/276 275/275/275
f 277/277/277 276/276/276 260/260/260
f 277/277/277 260/260/260 261/261/261
f 261/261/261 264/264/264 278/278/278
f 261/261/261 278/278/278 277/277/277
f 264/264/264 266/266/266 279/279/279
f 264/264/264 279/279/279 278/278/278
f 266/266/266 268/268/268 280/280/280
f 266/266/266 280/280/280 279/279/279
f 268/268/268 270/270/270 281/281/281
f 268/268/268 281/281/281 280/280/280
f 282/282/282 281/281/281 270/270/270
f 282/282/282 270/270/270 271/271/271
f 283/283/283 284/284/284 274/274/274
f 283/283/283 274/274/274 273/273/273
f 273/273/273 275/275/275 285/285/285
f 273/273/273 285/285/285 283/283/283
f 275/275/275 276/276/276 286/286/286
f 275/275/275 286/286/286 285/285/285
f 287/287/287 286/286/286 276/276/276
f 287/287/287 276/276/276 277/277/277
f 277/277/277 278/278/278 288/288/288
f 277/277/277 288/288/288 287/287/287
f 278/278/278 279/279/279 289/289/289
f 278/278/278 289/289/289 288/288/288
f 279/279/279 280/280/280 290/290/290
f 279/279/279 290/290/290 289/289/289
f 280/280/280 281/281/281 291/291/291
f 280/280/280 291/291/291 290/290/290
f 292/292/292 291/291/291 281/281/281
f 292/292/292 281/281/281 282/282/282
f 293/293/293 294/294/294 284/284/284
f 293/293/293 284/284/284 283/283/283
f 283/283/283 285/285/285 295/295/295
f 283/283/283 295/295/295 293/293/293
f 285/285/285 286/286/286 296/296/296
f 285/285/285 296/296/296 295/295/295
f 297/297/297 296/296/296 286/286/286
f 297/297/297 286/286/286 287/287/287
f 287/287/287 288/288/288 298/298/298
f 287/287/287 298/298/298 297/297/297
f 288/288/288 289/289/289 299/299/299
f 288/288/288 299/299/299 298/298/298
f 289/289/289 290/290/290 300/300/300
f 289/289/289 300/300/300 299/299/299
f 290/290/290 291/291/291 301/301/301
f 290/290/290 301/301/301 300/300/300
f 302/302/302 301/301/301 291/291/291
f 302/302/302 291/291/291 292/292/292
f 303/303/303 304/304/304 294/294/294
f 303/303/303 294/294/294 293/293/293
f 293/293/293 295/295/295 305/305/305
f 293/293/293 305/305/305 303/303/303
f 295/295/295 296/296/296 306/306/306
f 295/295/295 306/306/306 305/305/305
f 307/307/307 306/306/306 296/296/296
f 307/307/307 296/296/296 297/297/297
f 297/297/297 298/298/298 308/308/308
f 297/297/297 308/308/308 307/307/307
f 298/298/298 299/299/299 309/309/309
f 298/298/298 309/309/309 308/308/308
f 299/299/299 300/300/300 310/310/310
f 299/299/299 310/310/310 309/309/309
f 300/300/300 301/301/301 311/311/311
f 300/300/300 311/311/311 310/310/310
f 312/312/312 311/311/311 301/301/301
f 312/312/312 301/301/301 302/302/302
f 205/205/205 304/304/304 303/303/303
f 205/205/205 303/303/303 206/206/206
f 303/303/303 305/305/305 207/207/207
f 303/303/303 207/207/207 206/206/206
f 305/305/305 306/306/306 209/209/209
f 305/305/305 209/209/209 207/207/207
f 209/209/209 306/306/306 307/307/307
f 209/209/209 307/307/307 212/212/212
f 307/307/307 308/308/308 213/213/213
f 307/307/307 213/213/213 212/212/212
f 308/308/308 309/309/309 215/215/215
f 308/308/308 215/215/215 213/213/213
f 309/309/309 310/310/310 217/217/217
f 309/309/309 217/217/217 215/215/215
f 310/310/310 311/311/311 219/219/219
f 310/310/310 219/219/219 217/217/217
f 219/219/219 311/311/311 312/312/312
f 219/219/219 312/312/312 222/222/222
