# Blender 4.0.0
# www.blender.org
o decimated_mesh
v -0.020009 -0.431652 0.063143
v -0.017578 -0.402405 0.072839
v -0.015822 -0.402395 0.060408
v -0.017117 -0.435775 0.042590
v -0.017678 -0.480144 0.042598
v -0.019775 -0.480144 0.063143
v -0.017372 -0.480144 0.072839
v -0.012873 -0.426278 0.042587
v -0.013977 -0.488693 0.042579
v -0.015540 -0.487426 0.069238
v -0.011794 -0.486120 0.078967
v -0.011484 -0.402405 0.079975
v 0.028195 -0.402402 0.054424
v -0.003528 -0.490645 0.072085
v 0.007858 -0.479491 0.084392
v 0.019386 -0.489836 0.042605
v 0.008724 -0.487808 0.080943
v 0.007737 -0.402405 0.084573
v 0.022740 -0.490180 0.068600
v 0.037491 -0.402283 0.059321
v 0.036812 -0.485599 0.058704
v 0.026824 -0.485747 0.077920
v 0.026231 -0.402405 0.078792
v 0.027980 -0.428904 0.042602
v 0.034537 -0.477887 0.067526
v 0.028360 -0.486053 0.042605
vn -0.9787 0.1249 -0.1628
vn 0.8853 0.0059 -0.4649
vn -0.9948 0.0126 -0.1015
vn 0.3207 -0.0076 0.9472
vn -0.9138 -0.3954 -0.0933
vn -0.8547 -0.5185 -0.0255
vn -0.9123 -0.3414 0.2261
vn -0.8376 -0.3966 0.3757
vn 0.3824 -0.9072 -0.1752
vn 0.0265 0.4071 -0.9130
vn 0.2781 -0.9593 -0.0486
vn -0.3041 -0.9217 0.2408
vn -0.1201 -0.3909 0.9126
vn -0.1159 -0.8881 0.4448
vn 0.0493 -0.9690 0.2421
vn 0.1652 -0.9167 0.3637
vn 0.1934 -0.3586 0.9133
vn -0.9821 0.1276 -0.1386
vn -0.2326 -0.0027 0.9726
vn -0.2654 -0.9637 0.0302
vn -0.7421 -0.0053 0.6703
vn 0.9662 -0.0098 0.2577
vn 0.4393 -0.8706 0.2217
vn 0.8032 -0.0005 0.5957
vn -0.0342 -0.9980 -0.0539
vn 0.4303 0.3648 -0.8257
vn -0.9706 -0.0047 0.2406
vn 0.8716 -0.0035 -0.4902
vn -0.9904 -0.0048 -0.1384
vn -0.0002 -1.0000 -0.0002
vn 0.0001 -1.0000 -0.0005
vn 0.0007 -1.0000 -0.0006
vn -0.0001 -1.0000 -0.0001
vn 0.0124 -0.9999 0.0009
vn 0.2984 -0.0018 0.9545
vn -0.0003 0.0001 1.0000
vn -0.0009 -0.0026 1.0000
vn -0.0001 0.0003 1.0000
vn -0.0001 0.0002 1.0000
vn -0.0003 0.0004 1.0000
vn 0.8588 -0.2550 0.4444
vn -0.7488 0.3345 -0.5722
vn -0.1091 0.5858 -0.8031
vn -0.2627 -0.0106 0.9648
vn -0.7605 -0.0020 0.6494
vn 0.8654 0.0205 0.5006
vn 0.0157 -0.9998 -0.0152
vn -0.9681 -0.0026 0.2505
vn -0.9898 0.0125 -0.1418
vn -0.9948 -0.0048 -0.1016
vn 0.0018 -1.0000 -0.0016
vn 0.0021 -1.0000 -0.0004
vn 0.0025 -0.9998 0.0197
vn 0.0010 -0.0001 1.0000
vn 0.0055 0.0001 1.0000
vn 0.0009 -1.0000 -0.0038
vn -0.0025 -1.0000 -0.0077
vn 0.8855 -0.0038 -0.4647
vn 0.8653 0.0057 -0.5013
vn -0.0004 -0.0001 1.0000
vn -0.0006 -0.0000 1.0000
vn -0.0007 0.0018 1.0000
s 0
f 1//1 3//1 4//1
f 24//2 21//2 26//2
f 6//3 4//3 5//3
f 23//4 15//4 22//4
f 5//5 9//5 6//5
f 6//6 9//6 10//6
f 6//7 10//7 7//7
f 7//8 10//8 11//8
f 16//9 26//9 21//9
f 13//10 24//10 8//10
f 19//11 16//11 21//11
f 14//12 11//12 10//12
f 11//13 17//13 15//13
f 11//14 14//14 17//14
f 17//15 14//15 19//15
f 17//16 19//16 22//16
f 17//17 22//17 15//17
f 2//18 3//18 1//18
f 12//19 15//19 18//19
f 9//20 14//20 10//20
f 12//21 7//21 11//21
f 20//22 25//22 21//22
f 19//23 21//23 22//23
f 25//24 23//24 22//24
f 14//25 9//25 16//25
f 24//26 13//26 20//26
f 7//27 1//27 6//27
f 24//28 20//28 21//28
f 6//29 1//29 4//29
f 13//30 18//30 3//30
f 18//31 12//31 3//31
f 3//32 12//32 2//32
f 18//33 13//33 23//33
f 23//34 13//34 20//34
f 23//35 18//35 15//35
f 24//36 4//36 26//36
f 5//37 9//37 16//37
f 26//38 4//38 16//38
f 5//39 16//39 4//39
f 24//40 8//40 4//40
f 25//41 22//41 21//41
f 8//42 4//42 3//42
f 3//43 13//43 8//43
f 12//44 11//44 15//44
f 12//45 2//45 7//45
f 25//46 20//46 23//46
f 16//47 19//47 14//47
f 7//48 2//48 1//48
f 4//49 5//49 1//49
f 5//50 6//50 1//50
f 12//51 2//51 20//51
f 20//52 2//52 3//52
f 20//53 3//53 13//53
f 8//54 4//54 9//54
f 9//55 4//55 5//55
f 18//56 12//56 20//56
f 18//57 20//57 23//57
f 21//58 26//58 20//58
f 26//59 24//59 20//59
f 24//60 8//60 9//60
f 24//61 9//61 26//61
f 26//62 9//62 16//62
