# Blender 4.0.0
# www.blender.org
o Fridge_1_FridgeBodyMesh_daf6b078_4_collision_1
v -0.348143 0.774627 -0.159493
v -0.348143 0.767030 -0.155831
v -0.362360 0.774627 -0.159185
v -0.362360 0.787865 -0.158808
v -0.348143 0.788126 -0.158843
v 0.177615 0.788138 -0.158843
v 0.319717 0.788141 -0.158843
v 0.348153 0.788141 -0.158843
v 0.348153 0.774627 -0.159459
v 0.348153 0.767030 -0.155831
v -0.348143 0.766059 -0.148061
v -0.362360 0.766266 -0.148061
v -0.362360 0.767235 -0.155557
v -0.369580 0.767465 -0.155249
v -0.371790 0.774627 -0.157063
v -0.372453 0.785647 -0.157610
v -0.362360 0.794952 -0.148061
v -0.348143 0.795216 -0.148061
v -0.262837 0.795219 -0.148061
v 0.106527 0.795228 -0.148061
v 0.262847 0.795231 -0.148061
v 0.348153 0.795231 -0.148061
v 0.362370 0.794976 -0.148061
v 0.362370 0.787892 -0.158808
v 0.362370 0.774627 -0.159185
v 0.362370 0.767237 -0.155557
v 0.362370 0.766272 -0.148061
v 0.348153 0.766059 -0.148061
v -0.362360 0.765615 -0.133857
v -0.370316 0.766998 -0.148061
v -0.375178 0.774627 -0.148061
v -0.374294 0.788206 -0.148061
v -0.362360 0.795870 -0.133857
v 0.362370 0.795864 -0.133857
v 0.374304 0.788226 -0.148061
v 0.372463 0.785671 -0.157610
v 0.371800 0.774627 -0.157063
v 0.369590 0.767471 -0.155249
v 0.370326 0.767001 -0.148061
v 0.362370 0.765615 -0.133857
v -0.362360 0.765615 0.164537
v -0.371053 0.766556 -0.133857
v -0.376210 0.774627 -0.133857
v -0.374663 0.788810 -0.133857
v -0.374663 0.788810 -0.034392
v -0.374663 0.788807 0.164537
v -0.362360 0.795861 0.164537
v 0.362370 0.795864 0.164537
v 0.374673 0.788810 0.065072
v 0.374673 0.788807 -0.133857
v 0.376293 0.774627 -0.133857
v 0.375188 0.774627 -0.148061
v 0.371063 0.766556 -0.133857
v 0.362370 0.765615 0.164537
v -0.348143 0.766059 0.178741
v -0.362360 0.766272 0.178741
v -0.370316 0.767001 0.178741
v -0.371053 0.766556 0.164537
v -0.376283 0.774627 0.164537
v -0.374294 0.788226 0.178741
v -0.362360 0.794979 0.178741
v -0.348143 0.795237 0.178741
v 0.078165 0.795225 0.178741
v 0.348153 0.795216 0.178741
v 0.362370 0.794949 0.178741
v 0.374304 0.788206 0.178741
v 0.374673 0.788810 0.164537
v 0.376220 0.774627 0.164537
v 0.371063 0.766556 0.164537
v 0.370326 0.766998 0.178741
v 0.362370 0.766266 0.178741
v 0.348153 0.766059 0.178741
v -0.348143 0.767030 0.186511
v -0.362360 0.767237 0.186237
v -0.369580 0.767471 0.185929
v -0.375178 0.774627 0.178741
v -0.372453 0.785673 0.188290
v -0.362360 0.787895 0.189488
v -0.348143 0.788144 0.189523
v -0.319707 0.788144 0.189523
v -0.092299 0.788138 0.189523
v 0.021295 0.788135 0.189523
v 0.348153 0.788126 0.189523
v 0.362370 0.787865 0.189488
v 0.372463 0.785647 0.188290
v 0.375188 0.774627 0.178741
v 0.369590 0.767465 0.185929
v 0.362370 0.767235 0.186237
v 0.348153 0.767030 0.186511
v -0.348143 0.774627 0.190139
v -0.362360 0.774627 0.189865
v 0.348153 0.774627 0.190173
v -0.371790 0.774627 0.187743
v 0.362370 0.774627 0.189865
v 0.371800 0.774627 0.187743
vn -0.0195 -0.4342 -0.9006
vn -0.0217 0.0284 -0.9994
vn -0.0033 0.0481 -0.9988
vn -0.0000 0.0481 -0.9988
vn -0.0000 0.0455 -0.9990
vn -0.0000 -0.4310 -0.9024
vn -0.0000 -0.4343 -0.9008
vn -0.0145 -0.9922 -0.1241
vn -0.0167 -0.9916 -0.1281
vn -0.0236 -0.4405 -0.8975
vn -0.0000 -0.9923 -0.1241
vn -0.0523 -0.4400 -0.8965
vn -0.2094 -0.3003 -0.9306
vn -0.2191 -0.0616 -0.9737
vn -0.1239 0.0282 -0.9919
vn -0.0166 0.8347 -0.5504
vn -0.2415 0.8101 -0.5342
vn -0.0155 0.8354 -0.5494
vn -0.0000 0.8355 -0.5494
vn -0.0000 0.8355 -0.5495
vn 0.0150 0.8354 -0.5494
vn 0.0159 0.8348 -0.5503
vn 0.0032 0.0455 -0.9990
vn 0.0192 0.0284 -0.9994
vn 0.0174 -0.4309 -0.9022
vn 0.0237 -0.4406 -0.8974
vn 0.0169 -0.9917 -0.1278
vn 0.0149 -0.9922 -0.1240
vn -0.0146 -0.9988 -0.0458
vn -0.0000 -0.9995 -0.0313
vn -0.0915 -0.9948 -0.0456
vn -0.0913 -0.9931 -0.0740
vn -0.0372 -0.9911 -0.1280
vn -0.8372 -0.5335 -0.1205
vn -0.8754 -0.3536 -0.3295
vn -0.9333 -0.0736 -0.3514
vn -0.9766 0.0636 -0.2054
vn -0.4676 0.8271 -0.3118
vn -0.0185 0.9977 -0.0645
vn -0.4914 0.8691 -0.0562
vn -0.0000 0.9989 -0.0461
vn -0.0000 0.9989 -0.0460
vn -0.0000 0.9990 -0.0458
vn -0.0000 0.9990 -0.0450
vn 0.0179 0.9979 -0.0624
vn -0.0000 0.9990 -0.0446
vn 0.4916 0.8691 -0.0544
vn 0.4678 0.8271 -0.3116
vn 0.2417 0.8102 -0.5340
vn 0.1239 0.0282 -0.9919
vn 0.2191 -0.0614 -0.9738
vn 0.2094 -0.3006 -0.9305
vn 0.0525 -0.4401 -0.8964
vn 0.0376 -0.9911 -0.1277
vn 0.0909 -0.9931 -0.0744
vn 0.0911 -0.9948 -0.0460
vn 0.0150 -0.9988 -0.0462
vn -0.1077 -0.9942 -0.0000
vn -0.1076 -0.9935 -0.0365
vn -0.0000 -1.0000 -0.0000
vn -0.8411 -0.5374 -0.0603
vn -0.8417 -0.5364 -0.0611
vn -0.9953 0.0648 -0.0723
vn -0.9936 0.1084 -0.0304
vn -0.4971 0.8662 -0.0497
vn -0.4978 0.8673 -0.0000
vn -0.4977 0.8674 -0.0000
vn -0.4974 0.8675 -0.0000
vn -0.0000 1.0000 -0.0000
vn 0.4974 0.8675 -0.0000
vn 0.4976 0.8674 -0.0000
vn 0.4970 0.8664 -0.0483
vn 0.9931 0.1135 -0.0304
vn 0.9949 0.0647 -0.0774
vn 0.9766 0.0635 -0.2053
vn 0.9334 -0.0735 -0.3514
vn 0.8753 -0.3539 -0.3295
vn 0.8370 -0.5337 -0.1207
vn 0.8414 -0.5364 -0.0655
vn 0.8376 -0.5429 -0.0604
vn 0.1076 -0.9935 -0.0367
vn 0.1077 -0.9942 -0.0000
vn -0.0150 -0.9988 0.0462
vn -0.0911 -0.9948 0.0460
vn -0.1076 -0.9935 0.0367
vn -0.0000 -0.9995 0.0313
vn -0.8427 -0.5384 -0.0002
vn -0.8392 -0.5439 -0.0000
vn -0.9941 0.1084 -0.0002
vn -0.9935 0.1135 -0.0000
vn -0.9931 0.1135 0.0304
vn -0.4969 0.8665 0.0483
vn -0.4917 0.8691 0.0540
vn -0.0181 0.9979 0.0620
vn -0.0000 0.9990 0.0440
vn -0.0000 0.9990 0.0457
vn 0.0187 0.9978 0.0643
vn 0.4912 0.8692 0.0560
vn 0.4968 0.8664 0.0497
vn -0.0000 0.9990 0.0456
vn 0.9935 0.1135 -0.0000
vn 0.9935 0.1136 -0.0000
vn 0.9941 0.1084 0.0002
vn 0.8427 -0.5384 0.0002
vn 0.8392 -0.5439 -0.0000
vn 0.1076 -0.9935 0.0365
vn 0.0915 -0.9948 0.0456
vn 0.0146 -0.9988 0.0458
vn -0.0149 -0.9922 0.1240
vn -0.0000 -0.9923 0.1241
vn -0.0376 -0.9911 0.1277
vn -0.0909 -0.9931 0.0744
vn -0.0169 -0.9917 0.1277
vn -0.8370 -0.5336 0.1207
vn -0.8414 -0.5364 0.0655
vn -0.8376 -0.5429 0.0604
vn -0.9949 0.0647 0.0774
vn -0.9766 0.0635 0.2053
vn -0.4680 0.8271 0.3113
vn -0.2417 0.8102 0.5340
vn -0.0159 0.8348 0.5503
vn -0.0151 0.8353 0.5495
vn -0.0000 0.8354 0.5496
vn -0.0000 0.8355 0.5496
vn -0.0000 0.8355 0.5495
vn 0.0157 0.8354 0.5494
vn 0.0166 0.8348 0.5503
vn 0.2415 0.8102 0.5341
vn 0.4674 0.8272 0.3118
vn 0.9766 0.0636 0.2054
vn 0.9953 0.0648 0.0723
vn 0.9936 0.1084 0.0304
vn 0.8417 -0.5364 0.0611
vn 0.8411 -0.5374 0.0603
vn 0.0913 -0.9931 0.0740
vn 0.8372 -0.5335 0.1205
vn 0.0372 -0.9911 0.1281
vn 0.0167 -0.9916 0.1281
vn 0.0145 -0.9922 0.1241
vn -0.0174 -0.4309 0.9022
vn -0.0237 -0.4406 0.8974
vn -0.0000 -0.4343 0.9008
vn -0.0000 -0.4310 0.9024
vn -0.0525 -0.4401 0.8964
vn -0.8753 -0.3539 0.3295
vn -0.2094 -0.3006 0.9305
vn -0.9334 -0.0734 0.3514
vn -0.2191 -0.0614 0.9738
vn -0.1239 0.0281 0.9919
vn -0.0192 0.0284 0.9994
vn -0.0032 0.0455 0.9990
vn -0.0000 0.0455 0.9990
vn -0.0000 0.0481 0.9988
vn 0.0033 0.0481 0.9988
vn 0.0217 0.0284 0.9994
vn 0.1239 0.0282 0.9919
vn 0.2191 -0.0616 0.9737
vn 0.9333 -0.0736 0.3514
vn 0.8754 -0.3536 0.3295
vn 0.0523 -0.4400 0.8965
vn 0.2094 -0.3003 0.9306
vn 0.0236 -0.4405 0.8975
vn 0.0195 -0.4342 0.9006
s 0
f 1//1 2//1 3//1
f 1//2 3//2 4//2
f 1//3 4//3 5//3
f 1//4 5//4 6//4
f 1//4 6//4 7//4
f 1//4 7//4 8//4
f 1//5 8//5 9//5
f 1//6 9//6 10//6
f 1//7 10//7 2//7
f 2//8 11//8 12//8
f 2//9 12//9 13//9
f 2//10 13//10 3//10
f 2//11 10//11 28//11
f 2//11 28//11 11//11
f 3//12 13//12 14//12
f 3//13 14//13 15//13
f 3//14 15//14 16//14
f 3//15 16//15 4//15
f 4//16 17//16 5//16
f 4//17 16//17 17//17
f 5//18 17//18 18//18
f 5//19 18//19 19//19
f 5//20 19//20 20//20
f 5//20 20//20 6//20
f 6//20 20//20 7//20
f 7//20 20//20 21//20
f 7//20 21//20 22//20
f 7//20 22//20 8//20
f 8//21 22//21 23//21
f 8//22 23//22 24//22
f 8//23 24//23 9//23
f 9//24 24//24 25//24
f 9//25 25//25 10//25
f 10//26 25//26 26//26
f 10//27 26//27 27//27
f 10//28 27//28 28//28
f 11//29 29//29 12//29
f 11//30 28//30 40//30
f 11//30 40//30 29//30
f 12//31 29//31 30//31
f 12//32 30//32 14//32
f 12//33 14//33 13//33
f 14//34 30//34 31//34
f 14//35 31//35 15//35
f 15//36 31//36 16//36
f 16//37 31//37 32//37
f 16//38 32//38 17//38
f 17//39 33//39 18//39
f 17//40 32//40 33//40
f 18//41 33//41 19//41
f 19//42 33//42 20//42
f 20//43 33//43 21//43
f 21//44 33//44 22//44
f 22//45 34//45 23//45
f 22//46 33//46 34//46
f 23//47 34//47 35//47
f 23//48 35//48 36//48
f 23//49 36//49 24//49
f 24//50 36//50 25//50
f 25//51 36//51 37//51
f 25//52 37//52 38//52
f 25//53 38//53 26//53
f 26//54 38//54 27//54
f 27//55 38//55 39//55
f 27//56 39//56 40//56
f 27//57 40//57 28//57
f 29//58 41//58 58//58
f 29//58 58//58 42//58
f 29//59 42//59 30//59
f 29//60 40//60 54//60
f 29//60 54//60 41//60
f 30//61 42//61 43//61
f 30//62 43//62 31//62
f 31//63 43//63 32//63
f 32//64 43//64 44//64
f 32//65 44//65 33//65
f 33//66 44//66 45//66
f 33//67 45//67 46//67
f 33//68 46//68 47//68
f 33//69 47//69 48//69
f 33//69 48//69 34//69
f 34//70 48//70 67//70
f 34//70 67//70 49//70
f 34//71 49//71 50//71
f 34//72 50//72 35//72
f 35//73 50//73 51//73
f 35//74 51//74 52//74
f 35//75 52//75 36//75
f 36//76 52//76 37//76
f 37//77 52//77 38//77
f 38//78 52//78 39//78
f 39//79 52//79 51//79
f 39//80 51//80 53//80
f 39//81 53//81 40//81
f 40//82 53//82 69//82
f 40//82 69//82 54//82
f 41//83 55//83 56//83
f 41//84 56//84 57//84
f 41//85 57//85 58//85
f 41//86 54//86 72//86
f 41//86 72//86 55//86
f 42//87 59//87 43//87
f 42//88 58//88 59//88
f 43//89 59//89 44//89
f 44//90 59//90 45//90
f 45//90 59//90 46//90
f 46//91 59//91 60//91
f 46//92 60//92 47//92
f 47//93 60//93 61//93
f 47//94 61//94 62//94
f 47//95 62//95 48//95
f 48//96 63//96 64//96
f 48//97 64//97 65//97
f 48//98 65//98 66//98
f 48//99 66//99 67//99
f 48//100 62//100 63//100
f 49//101 67//101 51//101
f 49//102 51//102 50//102
f 51//103 67//103 68//103
f 51//104 68//104 69//104
f 51//105 69//105 53//105
f 54//106 69//106 70//106
f 54//107 70//107 71//107
f 54//108 71//108 72//108
f 55//109 73//109 56//109
f 55//110 72//110 89//110
f 55//110 89//110 73//110
f 56//111 74//111 75//111
f 56//112 75//112 57//112
f 56//113 73//113 74//113
f 57//114 75//114 76//114
f 57//115 76//115 59//115
f 57//116 59//116 58//116
f 59//117 76//117 60//117
f 60//118 76//118 77//118
f 60//119 77//119 61//119
f 61//120 77//120 78//120
f 61//121 78//121 79//121
f 61//122 79//122 62//122
f 62//123 79//123 80//123
f 62//123 80//123 81//123
f 62//123 81//123 82//123
f 62//124 82//124 83//124
f 62//125 83//125 63//125
f 63//125 83//125 64//125
f 64//126 83//126 65//126
f 65//127 83//127 84//127
f 65//128 84//128 85//128
f 65//129 85//129 66//129
f 66//130 85//130 86//130
f 66//131 86//131 68//131
f 66//132 68//132 67//132
f 68//133 86//133 70//133
f 68//134 70//134 69//134
f 70//135 87//135 71//135
f 70//136 86//136 87//136
f 71//137 87//137 88//137
f 71//138 88//138 89//138
f 71//139 89//139 72//139
f 73//140 90//140 91//140
f 73//141 91//141 74//141
f 73//142 89//142 92//142
f 73//143 92//143 90//143
f 74//144 91//144 75//144
f 75//145 93//145 76//145
f 75//146 91//146 93//146
f 76//147 93//147 77//147
f 77//148 93//148 91//148
f 77//149 91//149 78//149
f 78//150 91//150 90//150
f 78//151 90//151 79//151
f 79//152 90//152 92//152
f 79//153 92//153 80//153
f 80//153 92//153 81//153
f 81//153 92//153 82//153
f 82//153 92//153 83//153
f 83//154 92//154 84//154
f 84//155 92//155 94//155
f 84//156 94//156 85//156
f 85//157 94//157 95//157
f 85//158 95//158 86//158
f 86//159 95//159 87//159
f 87//160 94//160 88//160
f 87//161 95//161 94//161
f 88//162 94//162 89//162
f 89//163 94//163 92//163
