# Blender 4.0.0
# www.blender.org
o decimated_mesh
v 0.959470 -0.422576 0.021245
v 0.956248 -0.422497 0.006828
v 0.955066 -0.422496 0.035465
v 0.955002 -0.434051 0.035056
v 0.956876 -0.441858 0.025029
v 0.955539 -0.443875 0.006660
v 0.885423 -0.422675 -0.006665
v 0.945031 -0.457993 0.036023
v 0.945445 -0.465173 0.029098
v 0.944843 -0.471192 0.013161
v 0.942870 -0.469414 0.006358
v 0.936142 -0.472140 0.036058
v 0.919902 -0.481832 0.006170
v 0.885513 -0.422495 0.003982
v 0.940298 -0.422495 0.037581
v 0.885496 -0.472461 0.037227
v 0.915290 -0.481795 0.035713
v 0.926289 -0.481121 0.026218
v 0.908101 -0.487649 0.020419
v 0.885513 -0.488108 0.020884
v 0.885513 -0.483821 0.012085
v 0.885515 -0.456984 0.031857
v 0.923174 -0.422492 0.035437
v 0.885517 -0.484694 0.034828
v 0.907240 -0.486606 0.030546
vn -0.0075 -1.0000 -0.0038
vn -0.0386 -0.9706 0.2376
vn 0.9880 -0.1440 -0.0561
vn 0.3828 -0.8404 0.3838
vn 0.1812 -0.0358 0.9828
vn 0.9754 -0.0306 -0.2182
vn -0.1232 0.1282 0.9841
vn 0.8403 -0.4127 -0.3516
vn 0.0233 -0.0326 0.9992
vn 0.7263 -0.4551 0.5152
vn 0.8443 -0.3347 0.4184
vn 0.0235 -0.0864 0.9960
vn 0.0938 -0.1586 -0.9829
vn 0.5592 -0.8095 0.1790
vn -0.1459 -0.2902 -0.9458
vn -0.5448 0.5271 0.6522
vn 0.1871 0.0015 -0.9823
vn 0.3002 -0.9459 0.1229
vn 0.9551 -0.0157 0.2959
vn 0.0020 -1.0000 0.0025
vn -0.0142 -0.9998 0.0170
vn -0.0002 -1.0000 -0.0000
vn 0.0008 -1.0000 0.0059
vn -0.9999 0.0067 0.0084
vn 1.0000 0.0010 -0.0015
vn 1.0000 0.0007 0.0004
vn -1.0000 -0.0019 0.0008
vn 1.0000 -0.0009 0.0011
vn 0.0224 -0.9943 0.1043
vn 0.3282 -0.8898 0.3170
vn 0.8993 -0.4192 0.1243
vn -0.3637 0.3057 0.8799
vn 0.9662 -0.0820 0.2445
vn 0.8462 -0.3438 0.4071
vn 0.9286 -0.3700 -0.0270
vn -0.0105 -0.1924 0.9813
vn 0.0092 -0.8990 -0.4379
vn -0.0133 -0.9219 -0.3873
vn 0.0565 -0.7731 0.6317
vn 0.1418 -0.0245 0.9896
vn 0.0608 -0.0357 0.9975
vn 0.6886 -0.6866 0.2333
vn 0.4485 -0.8243 -0.3455
vn 0.1656 -0.0705 -0.9837
vn 0.4140 -0.9048 -0.0998
vn 0.3596 -0.9295 -0.0816
vn -0.0001 -1.0000 -0.0003
vn -0.0001 -1.0000 -0.0000
vn -0.0000 -1.0000 0.0001
vn -0.0007 -0.9999 0.0169
vn 1.0000 -0.0030 -0.0050
vn 1.0000 0.0013 -0.0002
vn -0.0210 -0.9998 -0.0008
vn 1.0000 0.0017 0.0008
vn -0.0233 -0.8987 -0.4378
vn 0.0113 -0.9290 -0.3699
s 0
f 1//1 15//1 2//1
f 20//2 25//2 24//2
f 1//3 5//3 6//3
f 18//4 12//4 17//4
f 3//5 8//5 4//5
f 1//6 6//6 2//6
f 23//7 16//7 15//7
f 6//8 10//8 11//8
f 16//9 12//9 15//9
f 8//10 12//10 9//10
f 8//11 5//11 4//11
f 16//12 17//12 12//12
f 7//13 11//13 13//13
f 10//14 12//14 18//14
f 13//15 21//15 7//15
f 14//16 22//16 23//16
f 7//17 2//17 6//17
f 18//18 25//18 19//18
f 1//19 3//19 4//19
f 2//20 23//20 7//20
f 14//21 7//21 23//21
f 23//22 2//22 15//22
f 3//23 15//23 1//23
f 22//24 14//24 7//24
f 7//25 22//25 21//25
f 21//26 16//26 20//26
f 20//27 24//27 16//27
f 16//28 21//28 22//28
f 20//29 19//29 25//29
f 17//30 25//30 18//30
f 10//31 5//31 9//31
f 22//32 16//32 23//32
f 5//33 1//33 4//33
f 8//34 9//34 5//34
f 6//35 5//35 10//35
f 24//36 17//36 16//36
f 19//37 20//37 21//37
f 21//38 13//38 19//38
f 25//39 17//39 24//39
f 8//40 3//40 15//40
f 15//41 12//41 8//41
f 9//42 12//42 10//42
f 11//43 10//43 13//43
f 6//44 11//44 7//44
f 10//45 18//45 13//45
f 18//46 19//46 13//46
f 15//47 23//47 3//47
f 3//48 23//48 2//48
f 2//49 23//49 14//49
f 2//50 14//50 7//50
f 7//51 22//51 16//51
f 7//52 16//52 20//52
f 1//53 3//53 2//53
f 21//54 7//54 20//54
f 21//55 13//55 20//55
f 13//56 19//56 20//56
