# Blender 4.0.0
# www.blender.org
o decimated_mesh
v 0.500620 -0.407546 0.046891
v 0.500620 -0.374555 0.046891
v 0.500599 -0.357051 0.124882
v 0.867474 -0.357294 0.046823
v 0.864902 -0.404681 0.046884
v 0.862855 -0.405687 0.122186
v 0.500619 -0.405923 0.123154
v 0.853984 -0.399442 0.127014
v 0.861556 -0.357579 0.126013
v 0.866844 -0.357570 0.116773
vn -0.0459 0.9747 -0.2188
vn 0.0054 1.0000 0.0040
vn 0.0007 -0.9998 0.0213
vn -0.0031 0.0245 0.9997
vn 0.4448 -0.0591 0.8937
vn 0.9985 -0.0542 0.0088
vn 1.0000 0.0004 0.0002
vn 1.0000 -0.0000 -0.0000
vn 0.0015 1.0000 0.0037
vn 0.0025 -0.6095 0.7928
vn -0.0000 -0.0013 -1.0000
vn -0.0002 -0.0000 -1.0000
vn 0.8678 -0.0161 0.4966
vn 0.0079 -0.9999 -0.0131
vn -0.0103 -0.0353 0.9993
vn 0.9965 -0.0797 0.0260
vn 1.0000 0.0004 -0.0000
vn 1.0000 -0.0000 0.0003
s 0
f 2//1 3//1 4//1
f 9//2 10//2 4//2
f 1//3 6//3 7//3
f 3//4 8//4 9//4
f 9//5 8//5 6//5
f 10//6 5//6 4//6
f 3//7 7//7 2//7
f 2//8 7//8 1//8
f 3//9 9//9 4//9
f 8//10 7//10 6//10
f 5//11 1//11 4//11
f 1//12 2//12 4//12
f 6//13 10//13 9//13
f 1//14 5//14 6//14
f 3//15 7//15 8//15
f 10//16 6//16 5//16
f 7//17 1//17 3//17
f 3//18 1//18 2//18
