# Blender 4.0.0
# www.blender.org
o decimated_mesh
v 0.885513 -0.450475 0.027487
v 0.885513 -0.422492 0.003984
v 0.179007 -0.421390 -0.010631
v 0.885449 -0.422447 -0.006355
v 0.179006 -0.421613 -0.000783
v 0.885472 -0.429807 -0.005907
v 0.179006 -0.428220 -0.010887
v 0.179006 -0.454048 0.025636
v 0.885514 -0.468711 0.036793
v 0.628591 -0.490569 0.006516
v 0.885513 -0.483821 0.012089
v 0.885513 -0.488102 0.020881
v 0.179006 -0.473459 0.031268
v 0.885513 -0.486925 0.030472
v 0.179006 -0.490609 0.006121
v 0.179006 -0.484883 0.028347
v 0.179006 -0.488433 0.020886
v 0.885506 -0.481886 0.036951
vn 1.0000 -0.0021 -0.0025
vn 0.0015 1.0000 0.0043
vn -0.0039 -0.9030 0.4297
vn -0.0107 -0.2477 0.9688
vn 1.0000 -0.0000 0.0001
vn 0.0331 -0.8986 -0.4375
vn -0.0041 -0.7894 0.6139
vn -0.0046 0.4546 0.8907
vn 0.0061 0.0374 -0.9993
vn -0.0094 0.2786 0.9604
vn -0.0079 0.0120 0.9999
vn 1.0000 -0.0000 -0.0000
vn 1.0000 -0.0006 0.0015
vn 1.0000 0.0004 -0.0010
vn 1.0000 0.0028 -0.0062
vn 0.0011 0.9997 0.0227
vn 0.0053 -0.6431 -0.7657
vn 0.0044 -0.6315 -0.7753
vn -1.0000 0.0001 -0.0001
vn 0.0069 -0.0607 -0.9981
vn 0.0064 -0.2261 -0.9741
vn 0.0289 -0.3159 -0.9483
vn 0.0009 -0.2630 -0.9648
vn 0.0027 -0.9926 0.1218
vn 0.0001 -0.9888 0.1495
vn -0.0000 -0.9893 0.1458
vn 0.0052 -0.6315 -0.7753
vn 0.0044 -0.6431 -0.7657
vn 1.0000 -0.0044 -0.0062
vn 1.0000 0.0001 0.0001
vn 1.0000 0.0032 0.0020
vn 1.0000 0.0006 -0.0004
s 0
f 2//1 1//1 6//1
f 3//2 2//2 4//2
f 17//3 14//3 16//3
f 13//4 16//4 18//4
f 17//5 15//5 13//5
f 11//6 12//6 10//6
f 14//7 18//7 16//7
f 8//8 9//8 1//8
f 7//9 3//9 4//9
f 8//10 13//10 9//10
f 18//11 9//11 13//11
f 1//12 9//12 11//12
f 11//12 9//12 12//12
f 9//13 18//13 14//13
f 14//12 12//12 9//12
f 11//14 6//14 1//14
f 6//15 4//15 2//15
f 5//16 2//16 3//16
f 8//17 2//17 1//17
f 2//18 8//18 5//18
f 7//12 8//12 15//12
f 17//12 13//12 16//12
f 13//12 15//12 8//12
f 8//12 7//12 5//12
f 5//19 3//19 7//19
f 6//20 7//20 4//20
f 7//21 6//21 10//21
f 6//22 11//22 10//22
f 10//23 15//23 7//23
f 10//24 12//24 14//24
f 14//25 17//25 10//25
f 15//26 10//26 17//26
f 17//12 5//12 16//12
f 17//12 7//12 5//12
f 15//12 7//12 17//12
f 16//12 5//12 8//12
f 8//27 5//27 1//27
f 1//28 5//28 2//28
f 9//29 4//29 2//29
f 1//30 9//30 2//30
f 9//31 6//31 4//31
f 9//32 11//32 6//32
f 13//12 16//12 8//12
