# Blender 4.0.0
# www.blender.org
o Fridge_1_Mesh_78210b38_3_collision_46
v 0.815616 -0.353568 0.017634
v 0.815616 -0.353568 -0.013667
v 0.477993 -0.353568 0.014888
v 0.179006 -0.374603 0.046891
v 0.815616 -0.374468 0.046891
v 0.815616 -0.370690 -0.013674
v 0.806020 -0.353568 -0.013751
v 0.477806 -0.353568 0.014882
v 0.179006 -0.360948 0.012451
v 0.179006 -0.407606 0.046891
v 0.815616 -0.407484 0.046891
v 0.815616 -0.389849 -0.013674
v 0.806020 -0.389843 -0.013758
v 0.633469 -0.389843 -0.015146
v 0.719713 -0.353568 -0.014446
v 0.477806 -0.353568 -0.016381
v 0.179006 -0.360948 -0.018792
v 0.192403 -0.407606 0.046891
v 0.179006 -0.421604 -0.000775
v 0.477806 -0.422488 0.001224
v 0.543299 -0.422488 0.001687
v 0.648737 -0.422488 0.002420
v 0.652600 -0.422488 0.002446
v 0.658271 -0.422488 0.002465
v 0.815616 -0.422488 0.002607
v 0.806020 -0.407491 0.046891
v 0.815616 -0.395584 -0.013172
v 0.179006 -0.389856 -0.018799
v 0.326692 -0.370683 -0.017609
v 0.470453 -0.360948 -0.016452
v 0.482168 -0.353568 -0.016355
v 0.374426 -0.360948 -0.017223
v 0.182807 -0.380276 -0.018767
v 0.412936 -0.407565 0.046891
v 0.179006 -0.421604 -0.010742
v 0.477806 -0.422488 -0.008665
v 0.815616 -0.422488 -0.007083
v 0.774488 -0.407498 0.046891
v 0.781094 -0.422488 -0.007366
v 0.685191 -0.422488 -0.008131
v 0.662134 -0.422488 -0.008311
v 0.652600 -0.422488 -0.008363
vn 1.0000 -0.0000 -0.0000
vn -0.0000 -1.0000 -0.0000
vn -0.0000 -1.0000 -0.0001
vn -0.0000 -1.0000 0.0025
vn -0.0042 0.8534 0.5213
vn -0.0002 0.8137 0.5813
vn 0.0087 0.0004 -1.0000
vn -0.0153 0.8965 0.4427
vn -0.0000 -0.0000 1.0000
vn -0.0260 0.9293 0.3684
vn 0.0087 -0.0000 -1.0000
vn 0.0084 0.0002 -1.0000
vn 0.0080 0.0002 -1.0000
vn 0.0247 -0.9997 -0.0000
vn 0.0047 0.9595 -0.2818
vn -0.0021 -0.9547 0.2974
vn -0.0021 -0.9547 0.2976
vn -0.0020 -0.9544 0.2984
vn -0.0010 -0.9516 0.3075
vn -0.0003 -0.9491 0.3149
vn -0.0000 -0.9479 0.3186
vn 0.0007 -0.9471 0.3209
vn 0.0086 -0.0871 -0.9962
vn 0.0080 -0.0881 -0.9961
vn 0.0080 -0.0884 -0.9960
vn 0.0080 0.0001 -1.0000
vn 0.0080 0.0003 -1.0000
vn 0.0059 0.0877 -0.9961
vn 0.0079 0.0002 -1.0000
vn 0.0080 0.0004 -1.0000
vn 0.0002 -0.9472 0.3208
vn -0.0030 -1.0000 -0.0000
vn -0.0000 -1.0000 -0.0042
vn 0.0002 -0.9471 0.3208
vn 0.0080 -0.2207 -0.9753
vn 0.0078 -0.2205 -0.9754
vn 0.0076 -0.2197 -0.9755
vn 0.0067 -0.2147 -0.9767
vn 0.0052 -0.2348 -0.9720
vn 0.0044 -0.2460 -0.9693
vn 0.0009 -0.8701 -0.4929
vn -0.0000 -1.0000 -0.0068
vn -0.0000 -1.0000 0.0089
vn -0.0000 -1.0000 -0.0041
vn -0.0000 -1.0000 0.0006
vn -0.0021 -0.9547 0.2975
vn -0.0000 -1.0000 -0.0065
vn -0.0000 -1.0000 0.0040
vn 0.0080 0.0008 -1.0000
vn 0.0080 -0.0000 -1.0000
vn 0.0078 -0.2204 -0.9754
s 0
f 1//1 5//1 11//1
f 1//1 11//1 25//1
f 1//1 25//1 37//1
f 1//1 37//1 27//1
f 1//1 27//1 12//1
f 1//1 12//1 6//1
f 1//1 6//1 2//1
f 1//2 7//2 2//2
f 1//2 15//2 7//2
f 1//2 31//2 15//2
f 1//3 16//3 31//3
f 1//2 8//2 16//2
f 1//4 3//4 8//4
f 1//5 3//5 4//5
f 1//6 4//6 5//6
f 2//7 6//7 7//7
f 3//8 8//8 4//8
f 4//1 17//1 9//1
f 4//1 28//1 17//1
f 4//1 35//1 28//1
f 4//1 19//1 35//1
f 4//1 10//1 19//1
f 4//9 10//9 18//9
f 4//9 18//9 34//9
f 4//9 34//9 38//9
f 4//9 38//9 26//9
f 4//9 26//9 11//9
f 4//9 11//9 5//9
f 4//10 8//10 9//10
f 6//11 12//11 13//11
f 6//12 13//12 7//12
f 7//13 13//13 14//13
f 7//13 14//13 15//13
f 8//14 17//14 16//14
f 8//14 9//14 17//14
f 10//15 20//15 19//15
f 10//16 20//16 21//16
f 10//17 21//17 22//17
f 10//18 22//18 23//18
f 10//19 23//19 24//19
f 10//20 24//20 25//20
f 10//21 25//21 18//21
f 11//22 26//22 25//22
f 12//23 27//23 13//23
f 13//24 27//24 14//24
f 14//25 27//25 28//25
f 14//26 28//26 29//26
f 14//13 29//13 30//13
f 14//13 30//13 15//13
f 15//27 30//27 31//27
f 16//28 31//28 17//28
f 17//27 32//27 29//27
f 17//13 29//13 33//13
f 17//29 33//29 28//29
f 17//30 31//30 32//30
f 18//31 25//31 34//31
f 19//32 35//32 36//32
f 19//32 36//32 20//32
f 20//2 36//2 42//2
f 20//2 42//2 41//2
f 20//2 41//2 40//2
f 20//2 40//2 39//2
f 20//2 39//2 37//2
f 20//2 37//2 25//2
f 20//2 25//2 24//2
f 20//4 24//4 23//4
f 20//33 23//33 22//33
f 20//2 22//2 21//2
f 25//34 26//34 38//34
f 25//31 38//31 34//31
f 27//35 37//35 39//35
f 27//36 39//36 40//36
f 27//37 40//37 41//37
f 27//38 41//38 28//38
f 28//13 33//13 29//13
f 28//39 41//39 42//39
f 28//40 42//40 35//40
f 29//13 32//13 30//13
f 30//27 32//27 31//27
f 35//41 42//41 36//41
f 5//1 11//1 25//1
f 5//1 25//1 37//1
f 5//1 37//1 27//1
f 5//1 27//1 12//1
f 5//1 12//1 6//1
f 5//1 6//1 2//1
f 5//1 2//1 1//1
f 2//42 15//42 7//42
f 2//43 31//43 15//43
f 2//44 16//44 31//44
f 2//2 8//2 16//2
f 2//45 3//45 8//45
f 2//2 1//2 3//2
f 9//1 28//1 17//1
f 9//1 35//1 28//1
f 9//1 19//1 35//1
f 9//1 10//1 19//1
f 9//1 4//1 10//1
f 13//13 15//13 7//13
f 16//14 9//14 17//14
f 16//14 8//14 9//14
f 20//46 22//46 10//46
f 24//47 23//47 22//47
f 24//48 22//48 20//48
f 24//2 20//2 36//2
f 24//2 36//2 42//2
f 24//2 42//2 41//2
f 24//2 41//2 39//2
f 24//2 39//2 37//2
f 24//2 37//2 25//2
f 27//24 28//24 13//24
f 28//13 15//13 13//13
f 28//26 32//26 15//26
f 32//49 17//49 15//49
f 17//50 31//50 15//50
f 32//13 33//13 17//13
f 35//32 36//32 20//32
f 35//32 20//32 19//32
f 39//51 41//51 27//51
f 33//13 32//13 28//13
