# Blender 4.0.0
# www.blender.org
o decimated_mesh
v 0.126044 -0.192384 0.047721
v 0.153890 -0.231685 0.046882
v 0.179471 -0.223679 0.003376
v 0.116246 -0.191415 -0.013351
v 0.179022 -0.229745 -0.017396
v 0.179619 -0.406780 0.047459
v 0.178999 -0.429814 -0.013309
v 0.113522 -0.430096 -0.012635
v 0.122771 -0.405609 0.046754
vn 0.9999 -0.0003 -0.0101
vn 0.7084 0.4911 0.5069
vn -0.9887 0.0117 0.1492
vn 0.4921 0.8327 -0.2538
vn 0.8449 0.1259 0.5200
vn -0.0237 -0.9347 0.3545
vn 0.9998 -0.0041 -0.0204
vn -0.9872 0.0144 0.1586
vn -0.0767 -0.0204 -0.9969
vn -0.0103 -0.0029 -0.9999
vn 0.0232 -0.0049 0.9997
vn -0.0124 0.0015 0.9999
vn 0.4664 0.8825 -0.0608
vn 0.0079 -0.9249 0.3801
vn 0.0077 -0.9351 0.3544
vn -0.0238 -0.9229 0.3842
vn -0.0657 -0.0022 -0.9978
vn -0.0102 -0.0204 -0.9997
vn 0.9998 -0.0006 -0.0215
vn 1.0000 -0.0015 -0.0096
vn 0.0439 0.0097 0.9990
vn -0.0125 -0.0043 0.9999
s 0
f 7//1 5//1 6//1
f 1//2 2//2 3//2
f 9//3 4//3 8//3
f 3//4 5//4 4//4
f 2//5 6//5 3//5
f 9//6 7//6 6//6
f 3//7 6//7 5//7
f 9//8 1//8 4//8
f 4//9 5//9 7//9
f 7//10 8//10 4//10
f 1//11 9//11 2//11
f 2//12 9//12 6//12
f 4//13 1//13 3//13
f 9//14 8//14 7//14
f 7//15 6//15 8//15
f 6//16 9//16 8//16
f 4//17 5//17 8//17
f 5//18 7//18 8//18
f 5//19 3//19 7//19
f 3//20 6//20 7//20
f 2//21 1//21 6//21
f 1//22 9//22 6//22
