# Blender 4.0.0
# www.blender.org
o decimated_mesh
v 0.824616 -0.003661 0.126732
v 0.832765 -0.003457 0.087651
v 0.866523 -0.003514 0.105784
v 0.823858 0.094034 0.124083
v 0.863444 0.093822 0.124496
v 0.862637 0.093973 0.086892
vn 0.4421 -0.1558 0.8833
vn 0.9991 0.0357 -0.0213
vn 0.4677 -0.1502 -0.8711
vn -0.6777 0.2023 -0.7070
vn -0.9789 -0.0131 -0.2042
vn 0.0053 1.0000 0.0039
vn 0.0010 -1.0000 -0.0050
vn -0.0103 0.0270 0.9996
s 0
f 5//1 1//1 3//1
f 5//2 3//2 6//2
f 3//3 2//3 6//3
f 2//4 4//4 6//4
f 1//5 4//5 2//5
f 6//6 4//6 5//6
f 1//7 2//7 3//7
f 5//8 4//8 1//8
