# Blender 4.0.0
# www.blender.org
o decimated_mesh
v 0.120905 0.316475 0.046891
v 0.131047 0.316475 0.046891
v 0.123078 0.382230 0.046927
v 0.132075 0.384741 0.046891
v 0.131439 0.316476 0.122619
v 0.120549 0.316475 0.114245
v 0.120654 0.381961 0.113705
v 0.131501 0.383460 0.121682
vn -0.0000 -0.0006 1.0000
vn 0.9999 -0.0151 0.0074
vn -0.5935 0.0118 0.8047
vn -0.2688 0.9631 0.0144
vn 0.0040 -0.0001 1.0000
vn 1.0000 -0.0010 -0.0052
vn -0.0000 -1.0000 -0.0000
vn 0.0001 -1.0000 -0.0000
vn -0.6096 0.0075 0.7927
vn -0.9988 0.0330 -0.0361
vn -1.0000 0.0016 -0.0053
vn -0.1362 0.9907 -0.0010
vn 0.9999 -0.0151 -0.0052
vn 1.0000 -0.0008 0.0077
vn -0.1483 0.9888 0.0158
vn -0.2688 0.9632 -0.0059
vn 0.0042 -0.0007 1.0000
vn -0.0000 -0.0000 1.0000
s 0
f 2//1 3//1 1//1
f 2//2 4//2 8//2
f 7//3 5//3 8//3
f 3//4 8//4 4//4
f 4//5 3//5 2//5
f 5//6 2//6 8//6
f 1//7 2//7 6//7
f 2//8 5//8 6//8
f 7//9 6//9 5//9
f 7//10 3//10 1//10
f 1//11 6//11 7//11
f 3//12 7//12 8//12
f 2//13 4//13 5//13
f 4//14 8//14 5//14
f 8//15 4//15 7//15
f 4//16 3//16 7//16
f 3//17 1//17 4//17
f 4//18 1//18 2//18
