# Blender 4.0.0
# www.blender.org
o Fridge_1_Mesh_78210b38_3_collision_8
v 0.500584 0.376432 0.046895
v 0.500584 0.385297 0.046895
v 0.508813 0.376432 0.046895
v 0.500584 0.376430 0.070207
v 0.500584 0.385297 0.048282
v 0.508813 0.385299 0.046895
v 0.525238 0.376433 0.046895
v 0.500584 0.376429 0.087727
v 0.528003 0.376433 0.049657
v 0.806029 0.376448 0.049657
v 0.500584 0.385294 0.068832
v 0.507121 0.385292 0.087727
v 0.758087 0.385340 0.087727
v 0.832863 0.385361 0.046895
v 0.803265 0.376448 0.046895
v 0.500584 0.385290 0.087727
v 0.806029 0.376447 0.087727
v 0.832863 0.376450 0.046895
v 0.500584 0.385292 0.078421
v 0.832863 0.385354 0.087727
v 0.832863 0.385356 0.078421
v 0.825219 0.385357 0.059246
v 0.832863 0.376448 0.085820
v 0.832863 0.376448 0.087727
vn -0.0000 -0.0000 -1.0000
vn -0.0000 -1.0000 -0.0001
vn -0.9830 0.1838 -0.0000
vn -1.0000 -0.0000 -0.0000
vn -0.0002 1.0000 -0.0000
vn 0.0001 -1.0000 -0.0001
vn 0.0001 -1.0000 -0.0000
vn -0.0002 1.0000 0.0002
vn -0.0002 1.0000 0.0001
vn -0.0000 -0.0000 1.0000
vn -0.0003 1.0000 0.0002
vn 0.9455 0.3257 -0.0000
vn 1.0000 -0.0000 -0.0000
vn 1.0000 -0.0001 -0.0000
s 0
f 1//1 2//1 6//1
f 1//1 6//1 14//1
f 1//1 14//1 18//1
f 1//1 18//1 15//1
f 1//1 15//1 7//1
f 1//1 7//1 3//1
f 1//2 3//2 4//2
f 1//3 4//3 8//3
f 1//4 8//4 16//4
f 1//4 16//4 19//4
f 1//4 19//4 11//4
f 1//4 11//4 5//4
f 1//4 5//4 2//4
f 2//5 5//5 6//5
f 3//6 7//6 4//6
f 4//6 7//6 9//6
f 4//7 9//7 10//7
f 4//6 10//6 8//6
f 5//8 11//8 12//8
f 5//8 12//8 13//8
f 5//8 13//8 14//8
f 5//9 14//9 6//9
f 7//7 15//7 10//7
f 7//6 10//6 9//6
f 8//7 10//7 17//7
f 8//10 17//10 24//10
f 8//10 24//10 20//10
f 8//10 20//10 13//10
f 8//10 13//10 12//10
f 8//10 12//10 16//10
f 10//7 15//7 18//7
f 10//7 18//7 17//7
f 11//11 19//11 12//11
f 12//11 19//11 16//11
f 13//8 20//8 21//8
f 13//8 21//8 22//8
f 13//8 22//8 14//8
f 14//8 22//8 21//8
f 14//12 21//12 20//12
f 14//13 20//13 24//13
f 14//14 24//14 23//14
f 14//13 23//13 18//13
f 17//7 18//7 23//7
f 17//7 23//7 24//7
