# Blender 4.0.0
# www.blender.org
o decimated_mesh
v 0.476100 0.011163 -0.007878
v 0.476100 0.012353 0.001713
v 0.476101 0.008318 -0.014426
v 0.825278 0.012226 0.001761
v 0.825290 0.008544 0.016125
v 0.476100 0.010220 0.009656
v 0.825282 0.010148 -0.007372
v 0.825285 -0.052364 0.046891
v 0.476100 -0.052565 0.046891
v 0.825282 0.005725 -0.012635
v 0.738957 0.008136 -0.012659
v 0.825285 -0.081084 0.046891
v 0.476100 -0.081157 0.046891
v 0.476100 -0.081148 0.001713
v 0.476100 -0.068660 -0.016179
v 0.825283 -0.080379 -0.004782
v 0.825286 -0.073373 -0.012478
v 0.476102 -0.078833 -0.013289
vn -0.0135 0.5100 0.8600
vn 1.0000 -0.0000 -0.0000
vn 0.0032 0.9751 -0.2219
vn 0.0004 0.9924 -0.1232
vn 1.0000 -0.0003 0.0001
vn 0.0067 0.2302 -0.9731
vn 0.0131 -0.7394 -0.6731
vn -0.0000 -0.0000 1.0000
vn 0.0216 0.7654 -0.6432
vn 0.0022 -1.0000 -0.0002
vn 0.0003 0.9658 0.2594
vn 0.0053 0.0228 -0.9997
vn -0.0003 0.4509 0.8926
vn 1.0000 0.0004 -0.0001
vn 1.0000 -0.0000 0.0001
vn 1.0000 0.0002 0.0002
vn 1.0000 -0.0006 0.0006
vn 1.0000 0.0017 -0.0004
vn 1.0000 -0.0001 -0.0000
vn 1.0000 -0.0000 -0.0001
vn 1.0000 -0.0000 -0.0003
vn 0.0065 -0.2732 -0.9619
vn 0.0033 0.9171 -0.3986
vn 0.0032 0.9159 -0.4014
vn 0.0002 -0.9999 -0.0136
vn 0.0001 0.9687 0.2483
vn 0.0106 -0.0020 -0.9999
vn -0.0007 -0.9883 -0.1525
vn 1.0000 -0.0000 -0.0005
vn -0.0002 0.9658 0.2594
vn 0.0003 0.9687 0.2483
vn 0.0032 0.9171 -0.3986
vn 1.0000 0.0001 -0.0000
vn 1.0000 0.0004 0.0004
vn 1.0000 -0.0006 -0.0010
vn 0.0033 0.9153 -0.4027
vn 0.0002 -1.0000 -0.0002
vn 0.0019 -0.9999 -0.0136
s 0
f 9//1 5//1 6//1
f 14//2 15//2 9//2
f 4//3 7//3 1//3
f 2//4 4//4 1//4
f 16//5 17//5 8//5
f 10//6 3//6 11//6
f 18//7 17//7 16//7
f 9//8 12//8 8//8
f 10//9 11//9 7//9
f 16//10 13//10 14//10
f 6//11 4//11 2//11
f 15//12 3//12 10//12
f 9//13 8//13 5//13
f 6//2 15//2 2//2
f 2//14 3//14 1//14
f 3//15 2//15 15//15
f 6//2 9//2 15//2
f 18//16 15//16 14//16
f 14//2 9//2 13//2
f 7//17 4//17 10//17
f 4//18 5//18 10//18
f 5//19 8//19 17//19
f 8//20 12//20 16//20
f 17//21 10//21 5//21
f 9//8 13//8 12//8
f 15//22 17//22 18//22
f 11//23 3//23 1//23
f 1//24 7//24 11//24
f 16//25 12//25 13//25
f 6//26 5//26 4//26
f 10//27 17//27 15//27
f 14//28 18//28 16//28
f 1//15 15//15 3//15
f 1//29 18//29 15//29
f 1//15 14//15 18//15
f 1//2 13//2 14//2
f 1//2 9//2 13//2
f 1//2 6//2 9//2
f 1//2 2//2 6//2
f 6//30 5//30 2//30
f 5//31 4//31 2//31
f 7//32 3//32 1//32
f 8//2 17//2 10//2
f 8//33 10//33 7//33
f 8//34 7//34 4//34
f 8//35 4//35 5//35
f 11//36 3//36 7//36
f 13//8 12//8 8//8
f 13//8 8//8 9//8
f 14//37 12//37 13//37
f 14//38 16//38 12//38
