# Blender 4.0.0
# www.blender.org
o decimated_mesh
v 0.120189 0.217754 0.097273
v 0.122311 0.217618 0.118114
v 0.120181 -0.005153 0.097586
v 0.500584 0.217618 0.116030
v 0.500584 0.192104 0.097586
v 0.500584 -0.407437 0.111532
v 0.122433 -0.404409 0.112077
v 0.129293 -0.404205 0.121623
v 0.500584 0.217618 0.125133
v 0.500583 -0.405623 0.123489
vn 0.0007 -0.0014 -1.0000
vn 0.0401 0.5854 -0.8098
vn 1.0000 -0.0000 0.0001
vn -0.9949 0.0002 0.1013
vn -0.0077 -0.9887 0.1500
vn -0.0050 -0.0026 1.0000
vn -0.0001 1.0000 0.0065
vn 0.0004 1.0000 -0.0000
vn 0.0121 -0.0233 -0.9997
vn -0.0017 -0.0363 -0.9993
vn -0.8120 -0.0058 0.5836
vn 1.0000 -0.0000 -0.0000
vn -0.9931 -0.0013 0.1175
vn -0.0039 -0.9997 0.0242
vn -0.0186 0.0054 0.9998
vn -0.0045 -0.9887 0.1500
vn -0.0080 -0.9996 0.0271
s 0
f 5//1 3//1 1//1
f 1//2 4//2 5//2
f 6//3 5//3 10//3
f 2//4 1//4 3//4
f 10//5 7//5 6//5
f 10//6 9//6 8//6
f 2//7 9//7 1//7
f 9//8 4//8 1//8
f 5//9 6//9 3//9
f 6//10 7//10 3//10
f 2//11 7//11 8//11
f 4//12 9//12 5//12
f 9//12 10//12 5//12
f 7//13 2//13 3//13
f 10//14 8//14 7//14
f 9//15 2//15 8//15
f 10//16 8//16 6//16
f 8//17 7//17 6//17
f 5//12 9//12 6//12
f 9//3 10//3 6//3
