# Blender 4.0.0
# www.blender.org
o decimated_mesh
v 0.843014 -0.215751 0.111426
v 0.855076 -0.201049 0.046905
v 0.844504 -0.357312 0.046776
v 0.831341 -0.357555 0.113441
v 0.866927 -0.357555 0.113441
vn 0.9620 0.1653 0.2175
vn 0.9781 -0.0778 0.1929
vn -0.0000 -1.0000 -0.0036
vn 0.9458 -0.0637 -0.3184
vn 0.9834 -0.0667 0.1687
vn -0.0000 0.0142 0.9999
vn 0.9830 -0.0786 0.1659
vn 0.9789 -0.0664 0.1931
s 0
f 5//1 2//1 1//1
f 1//2 4//2 3//2
f 5//3 4//3 3//3
f 5//4 3//4 2//4
f 1//5 3//5 2//5
f 1//6 4//6 5//6
f 1//7 4//7 2//7
f 2//8 4//8 3//8
