# Blender 4.0.0
# www.blender.org
o decimated_mesh
v 0.120094 0.316466 0.097589
v 0.122025 0.217631 0.118092
v 0.120213 0.316474 0.113164
v 0.132161 0.385341 0.100613
v 0.120121 0.217672 0.097313
v 0.132113 0.382435 0.121579
v 0.156885 0.385206 0.100397
v 0.156868 0.383059 0.121340
v 0.155550 0.217644 0.097798
v 0.156880 0.217640 0.122367
vn 0.9998 0.0179 -0.0077
vn 0.0095 0.0062 0.9999
vn -0.0236 0.9903 0.1372
vn -0.9850 0.1722 0.0074
vn 0.0063 0.9948 0.1020
vn -0.0007 -1.0000 -0.0019
vn 0.0003 -1.0000 -0.0002
vn -0.0085 0.0453 -0.9989
vn 0.0480 0.0151 -0.9987
vn 0.0137 0.0028 -0.9999
vn 0.9958 0.0005 -0.0913
vn -0.1217 -0.0136 0.9925
vn 1.0000 0.0001 0.0008
vn 0.9985 -0.0071 -0.0541
vn -0.9844 0.1748 0.0220
vn -0.6658 0.0250 0.7457
vn 1.0000 0.0003 -0.0076
vn 0.9957 0.0137 -0.0912
s 0
f 1//1 3//1 2//1
f 6//2 10//2 8//2
f 8//3 4//3 6//3
f 1//4 3//4 4//4
f 7//5 4//5 8//5
f 5//6 9//6 2//6
f 9//7 10//7 2//7
f 4//8 7//8 1//8
f 7//9 9//9 1//9
f 9//10 5//10 1//10
f 1//11 2//11 5//11
f 6//12 2//12 10//12
f 8//13 10//13 7//13
f 10//14 9//14 7//14
f 6//15 4//15 3//15
f 6//16 3//16 2//16
f 5//17 1//17 3//17
f 2//18 5//18 3//18
