# Blender 4.0.0
# www.blender.org
o decimated_mesh
v 0.131280 0.030474 0.046891
v 0.121237 0.030474 0.046891
v 0.153330 0.006381 0.046880
v 0.157821 0.009603 -0.016632
v 0.102888 0.030497 -0.012146
v 0.157648 -0.078807 0.046916
v 0.102341 -0.193763 -0.012126
v 0.127815 0.030340 -0.011004
v 0.121541 -0.193749 0.046891
v 0.131138 -0.193749 0.046891
v 0.129561 -0.193713 -0.007914
v 0.157421 -0.072943 -0.017946
vn 0.9737 -0.2266 -0.0239
vn 0.9961 0.0505 0.0730
vn 0.7350 0.6726 0.0861
vn 0.0813 -0.0001 0.9967
vn 0.5636 0.8253 -0.0356
vn 0.0019 -1.0000 -0.0004
vn -0.9509 -0.0013 0.3094
vn 0.0064 1.0000 -0.0016
vn 0.9740 -0.2246 -0.0282
vn 1.0000 -0.0048 -0.0039
vn -0.0000 -1.0000 -0.0007
vn -0.0000 -0.0004 1.0000
vn -0.0007 -0.0000 1.0000
vn -0.0000 -0.0002 1.0000
vn 0.0007 0.0005 1.0000
vn -0.9549 0.0024 0.2968
vn -0.0000 1.0000 -0.0023
vn 0.1521 -0.1166 -0.9815
vn 0.1407 -0.0164 0.9899
vn 0.0454 0.3223 -0.9456
vn 0.9741 -0.2247 -0.0237
vn 0.0010 0.0005 1.0000
vn -0.0000 0.0002 1.0000
vn -0.0000 -1.0000 0.0002
vn 0.0019 -1.0000 -0.0007
vn 0.9735 -0.2269 -0.0282
vn -0.1054 0.0002 -0.9944
vn -0.0752 0.0162 -0.9970
vn 0.0064 1.0000 -0.0027
vn -0.0000 1.0000 0.0004
s 0
f 6//1 11//1 12//1
f 6//2 4//2 3//2
f 4//3 1//3 3//3
f 7//4 4//4 5//4
f 4//5 8//5 1//5
f 7//6 11//6 9//6
f 2//7 7//7 9//7
f 5//8 2//8 8//8
f 6//9 10//9 11//9
f 12//10 4//10 6//10
f 11//11 10//11 9//11
f 1//12 2//12 3//12
f 2//13 9//13 6//13
f 9//14 10//14 6//14
f 6//15 3//15 2//15
f 2//16 5//16 7//16
f 2//17 1//17 8//17
f 12//18 11//18 7//18
f 7//19 12//19 4//19
f 4//20 5//20 8//20
f 10//21 12//21 6//21
f 3//22 1//22 6//22
f 1//23 2//23 6//23
f 7//24 10//24 9//24
f 7//25 11//25 10//25
f 11//26 12//26 10//26
f 7//27 5//27 12//27
f 5//28 4//28 12//28
f 8//29 5//29 1//29
f 5//30 2//30 1//30
