mtllib material.mtl
usemtl material_0
v -0.01297000 -0.17706000 0.01457000
v -0.35205000 0.17707000 0.01457000
v -0.01297000 0.17707000 0.01457000
v -0.35205000 -0.17706000 0.01457000
v -0.35485000 0.17799000 0.01341000
v -0.35485000 -0.17798000 0.01341000
v -0.35284000 -0.18030000 0.01341000
v -0.01218000 -0.18030000 0.01341000
v -0.01017000 -0.17798000 0.01341000
v -0.00115000 -0.18839000 0.00440000
v -0.00316000 -0.19070000 0.00440000
v -0.36185000 -0.19070000 0.00440000
v -0.36386000 -0.18839000 0.00440000
v -0.00316000 0.19071000 0.00440000
v -0.01218000 0.18031000 0.01341000
v -0.35284000 0.18031000 0.01341000
v -0.36185000 0.19071000 0.00440000
v -0.00164000 0.19205000 0.00160000
v 0.00000000 0.19016000 0.00160000
v -0.00115000 0.18840000 0.00440000
v -0.36338000 0.19205000 0.00160000
v -0.36386000 0.18840000 0.00440000
v -0.36502000 0.19016000 0.00160000
v -0.00163000 0.19205000 0.00000000
v -0.36338000 0.19205000 0.00000000
v -0.00316000 0.19071000 -0.00279000
v 0.00000000 0.19016000 0.00000000
v -0.00115000 0.18840000 -0.00279000
v -0.36185000 0.19071000 -0.00279000
v -0.00376000 0.19002000 -0.00339000
v -0.36125000 0.19002000 -0.00339000
v -0.36386000 0.18840000 0.00440000
v -0.35485000 0.17799000 0.01341000
v -0.35485000 -0.17798000 0.01341000
v -0.36386000 -0.18839000 0.00440000
v -0.36502000 0.19016000 0.00160000
v -0.36502000 -0.19015000 0.00160000
v -0.36502000 0.19016000 0.00000000
v -0.36502000 -0.19015000 0.00000000
v -0.36338000 0.19205000 0.00160000
v -0.36338000 0.19205000 0.00000000
v -0.36386000 0.18840000 -0.00279000
v -0.36185000 0.19071000 -0.00279000
v -0.01297000 0.17707000 0.01457000
v -0.01017000 -0.17798000 0.01341000
v -0.01297000 -0.17706000 0.01457000
v -0.01017000 0.17799000 0.01341000
v -0.00115000 -0.18839000 0.00440000
v -0.00115000 0.18840000 0.00440000
v -0.00316000 0.19071000 0.00440000
v -0.01218000 0.18031000 0.01341000
v -0.35205000 0.17707000 0.01457000
v -0.35284000 0.18031000 0.01341000
v -0.35485000 0.17799000 0.01341000
v -0.36386000 0.18840000 0.00440000
v -0.36185000 0.19071000 0.00440000
v 0.00000000 -0.19015000 0.00000000
v 0.00000000 0.19016000 0.00160000
v 0.00000000 0.19016000 0.00000000
v 0.00000000 -0.19015000 0.00160000
v -0.00115000 0.18840000 0.00440000
v -0.00115000 -0.18839000 0.00440000
v -0.00316000 -0.19070000 0.00440000
v -0.00115000 -0.18839000 0.00440000
v 0.00000000 -0.19015000 0.00160000
v -0.00164000 -0.19204000 0.00160000
v 0.00000000 -0.19015000 0.00000000
v -0.00163000 -0.19204000 0.00000000
v -0.36338000 -0.19204000 0.00160000
v -0.36185000 -0.19070000 0.00440000
v -0.36338000 -0.19204000 0.00000000
v -0.36502000 -0.19015000 0.00160000
v -0.36502000 -0.19015000 0.00000000
v -0.36185000 -0.19070000 -0.00279000
v -0.00316000 -0.19070000 -0.00279000
v -0.00115000 0.18840000 -0.00279000
v -0.00175000 -0.18769000 -0.00339000
v -0.00115000 -0.18839000 -0.00279000
v -0.00175000 0.18770000 -0.00339000
v -0.00376000 0.19002000 -0.00339000
v -0.00316000 0.19071000 -0.00279000
v -0.00455000 0.18679000 -0.00455000
v -0.36125000 0.19002000 -0.00339000
v -0.36046000 0.18679000 -0.00455000
v -0.36326000 0.18770000 -0.00339000
v -0.36185000 0.19071000 -0.00279000
v -0.36386000 0.18840000 -0.00279000
v -0.36326000 -0.18769000 -0.00339000
v -0.36046000 -0.18678000 -0.00455000
v -0.00316000 -0.19070000 -0.00279000
v -0.00115000 -0.18839000 -0.00279000
v -0.00175000 -0.18769000 -0.00339000
v -0.00376000 -0.19001000 -0.00339000
v -0.36125000 -0.19001000 -0.00339000
v -0.36185000 -0.19070000 -0.00279000
v -0.36386000 -0.18839000 -0.00279000
v -0.36326000 -0.18769000 -0.00339000
v -0.36046000 -0.18678000 -0.00455000
v -0.00455000 -0.18678000 -0.00455000
v -0.00175000 0.18770000 -0.00339000
v -0.36046000 0.18679000 -0.00455000
v -0.00455000 0.18679000 -0.00455000
v -0.36326000 0.18770000 -0.00339000
v -0.36386000 -0.18839000 -0.00279000
v -0.36326000 -0.18769000 -0.00339000
v -0.36386000 -0.18839000 0.00440000
v -0.36185000 -0.19070000 0.00440000
v -0.36338000 -0.19204000 0.00160000
v -0.36502000 -0.19015000 0.00160000
v -0.00115000 -0.18839000 -0.00279000
v -0.00316000 -0.19070000 -0.00279000
v -0.00163000 -0.19204000 0.00000000
v -0.36338000 -0.19204000 0.00000000
v -0.36185000 -0.19070000 -0.00279000
v -0.36386000 -0.18839000 -0.00279000
v -0.36502000 -0.19015000 0.00000000
v -0.36386000 0.18840000 -0.00279000
v -0.36502000 0.19016000 0.00000000
v 0.00000000 0.19016000 0.00000000
v -0.00115000 0.18840000 -0.00279000
v -0.00115000 -0.18839000 -0.00279000
v 0.00000000 -0.19015000 0.00000000
v 0.00000000 0.19016000 0.00160000
v -0.00164000 0.19205000 0.00160000
v -0.00163000 0.19205000 0.00000000
vn 0.00600690 0.01709802 0.99983570
vn -0.00600459 -0.01710670 0.99983560
vn 0.00654532 -0.01765052 0.99982280
vn -0.00654337 0.01763921 0.99982300
vn -0.65934040 -0.00666092 0.75181510
vn -0.65184430 0.01792300 0.75814090
vn -0.00325996 -0.60320430 0.79758010
vn 0.00947220 -0.60800910 0.79387350
vn 0.65934050 0.00666382 0.75181490
vn 0.75321910 0.02456963 0.65731070
vn 0.01415312 -0.71256720 0.70146100
vn -0.01429173 -0.72018340 0.69363650
vn -0.76614460 0.02323270 0.64224810
vn 0.01427346 0.72018530 0.69363500
vn 0.00328794 0.60317390 0.79760300
vn -0.00947022 0.60800680 0.79387530
vn -0.01415873 0.71256610 0.70146210
vn 0.02770096 0.96162060 0.27298090
vn 0.96436640 -0.02320135 0.26355100
vn 0.76610570 -0.02321665 0.64229510
vn -0.02726805 0.95959750 0.28005220
vn -0.75322400 -0.02456057 0.65730540
vn -0.96379720 -0.02325359 0.26562050
vn 0.02726281 0.95959820 -0.28005000
vn -0.02770615 0.96162010 -0.27298190
vn 0.00509310 0.85555000 -0.51769520
vn 0.96379740 -0.02330080 -0.26561580
vn 0.88331690 -0.02326521 -0.46819860
vn -0.01433529 0.86117400 -0.50810810
vn 0.00778845 0.40849190 -0.91272870
vn -0.01014186 0.40299660 -0.91514530
vn -0.75322400 -0.02456057 0.65730540
vn -0.65934040 -0.00666092 0.75181510
vn -0.65184430 0.01792300 0.75814090
vn -0.76614460 0.02323270 0.64224810
vn -0.96379720 -0.02325359 0.26562050
vn -0.96436670 0.02320144 0.26354980
vn -0.96436660 -0.02314693 -0.26355550
vn -0.96379560 0.02330738 -0.26562130
vn -0.02726805 0.95959750 0.28005220
vn -0.02770615 0.96162010 -0.27298190
vn -0.89231030 -0.00517914 -0.45139300
vn -0.01433529 0.86117400 -0.50810810
vn 0.00654532 -0.01765052 0.99982280
vn 0.65934050 0.00666382 0.75181490
vn 0.00600690 0.01709802 0.99983570
vn 0.65181480 -0.01795098 0.75816580
vn 0.75321910 0.02456963 0.65731070
vn 0.76610570 -0.02321665 0.64229510
vn 0.01427346 0.72018530 0.69363500
vn 0.00328794 0.60317390 0.79760300
vn -0.00600459 -0.01710670 0.99983560
vn -0.00947022 0.60800680 0.79387530
vn -0.65934040 -0.00666092 0.75181510
vn -0.75322400 -0.02456057 0.65730540
vn -0.01415873 0.71256610 0.70146210
vn 0.96436630 0.02319363 -0.26355210
vn 0.96436640 -0.02320135 0.26355100
vn 0.96379740 -0.02330080 -0.26561580
vn 0.96379430 0.02329519 0.26562730
vn 0.76610570 -0.02321665 0.64229510
vn 0.75321910 0.02456963 0.65731070
vn 0.01415312 -0.71256720 0.70146100
vn 0.75321910 0.02456963 0.65731070
vn 0.96379430 0.02329519 0.26562730
vn 0.02731484 -0.95959450 0.28005780
vn 0.96436630 0.02319363 -0.26355210
vn 0.02770180 -0.96162100 -0.27297890
vn -0.02770680 -0.96162080 0.27297940
vn -0.01429173 -0.72018340 0.69363650
vn -0.02727244 -0.95961860 -0.27997920
vn -0.96436670 0.02320144 0.26354980
vn -0.96379560 0.02330738 -0.26562130
vn -0.00510493 -0.85553840 -0.51771410
vn 0.01427019 -0.86113940 -0.50816850
vn 0.88331690 -0.02326521 -0.46819860
vn 0.46013420 0.02018596 -0.88761980
vn 0.89228080 0.00523707 -0.45145060
vn 0.46940270 -0.02378402 -0.88266390
vn 0.00778845 0.40849190 -0.91272870
vn 0.00509310 0.85555000 -0.51769520
vn 0.00585701 -0.01725698 -0.99983390
vn -0.01014186 0.40299660 -0.91514530
vn -0.00639423 -0.01779899 -0.99982110
vn -0.46016200 -0.02017461 -0.88760570
vn -0.01433529 0.86117400 -0.50810810
vn -0.89231030 -0.00517914 -0.45139300
vn -0.46936860 0.02376912 -0.88268240
vn -0.00581738 0.01728222 -0.99983370
vn 0.01427019 -0.86113940 -0.50816850
vn 0.89228080 0.00523707 -0.45145060
vn 0.46013420 0.02018596 -0.88761980
vn 0.01015549 -0.40304050 -0.91512580
vn -0.00777667 -0.40851040 -0.91272050
vn -0.00510493 -0.85553840 -0.51771410
vn -0.88331830 0.02328844 -0.46819500
vn -0.46936860 0.02376912 -0.88268240
vn -0.00581738 0.01728222 -0.99983370
vn 0.00635921 0.01782587 -0.99982090
vn 0.46940270 -0.02378402 -0.88266390
vn -0.00639423 -0.01779899 -0.99982110
vn 0.00585701 -0.01725698 -0.99983390
vn -0.46016200 -0.02017461 -0.88760570
vn -0.88331830 0.02328844 -0.46819500
vn -0.46936860 0.02376912 -0.88268240
vn -0.76614460 0.02323270 0.64224810
vn -0.01429173 -0.72018340 0.69363650
vn -0.02770680 -0.96162080 0.27297940
vn -0.96436670 0.02320144 0.26354980
vn 0.89228080 0.00523707 -0.45145060
vn 0.01427019 -0.86113940 -0.50816850
vn 0.02770180 -0.96162100 -0.27297890
vn -0.02727244 -0.95961860 -0.27997920
vn -0.00510493 -0.85553840 -0.51771410
vn -0.88331830 0.02328844 -0.46819500
vn -0.96379560 0.02330738 -0.26562130
vn -0.89231030 -0.00517914 -0.45139300
vn -0.96436660 -0.02314693 -0.26355550
vn 0.96379740 -0.02330080 -0.26561580
vn 0.88331690 -0.02326521 -0.46819860
vn 0.89228080 0.00523707 -0.45145060
vn 0.96436630 0.02319363 -0.26355210
vn 0.96436640 -0.02320135 0.26355100
vn 0.02770096 0.96162060 0.27298090
vn 0.02726281 0.95959820 -0.28005000
vt 1.35909200 0.94690310
vt 1.54550600 0.74079860
vt 1.54550600 0.94690310
vt 1.35909200 0.74079860
vt 1.54598700 0.73909730
vt 1.35861100 0.73909730
vt 1.35739000 0.74031790
vt 1.35739000 0.94738400
vt 1.35861100 0.94860440
vt 1.35313200 0.95408320
vt 1.35191200 0.95286260
vt 1.35191200 0.73483910
vt 1.35313200 0.73361870
vt -0.12037660 -0.18830500
vt -0.11489810 -0.18282640
vt 0.09216809 -0.18282640
vt 0.09764686 -0.18830500
vt -0.12130550 -0.19000640
vt -0.12230210 -0.19000640
vt -0.12159730 -0.18830510
vt 0.09857544 -0.19000640
vt 0.09886724 -0.18830510
vt 0.09957197 -0.19000640
vt -0.12130540 -0.19097410
vt 0.09857544 -0.19097420
vt -0.12037670 -0.19267550
vt -0.12230190 -0.19097410
vt -0.12159730 -0.19267550
vt 0.09764686 -0.19267550
vt -0.12001290 -0.19303930
vt 0.09728286 -0.19303940
vt -0.44174220 -0.18830510
vt -0.44722100 -0.18282630
vt -0.63459660 -0.18282630
vt -0.64007540 -0.18830510
vt -0.44081370 -0.19000640
vt -0.64100410 -0.19000640
vt -0.44081370 -0.19097420
vt -0.64100410 -0.19097420
vt -0.43981710 -0.19000640
vt -0.43981710 -0.19097420
vt -0.44174250 -0.19267550
vt -0.44052180 -0.19267550
vt -0.44770180 0.94690310
vt -0.63459660 0.94860440
vt -0.63411590 0.94690310
vt -0.44722090 0.94860440
vt -0.64007540 0.95408320
vt -0.44174210 0.95408320
vt -0.44052170 0.95286260
vt -0.44600030 0.94738400
vt -0.44770180 0.74079860
vt -0.44600030 0.74031790
vt -0.44722090 0.73909730
vt -0.44174210 0.73361870
vt -0.44052170 0.73483910
vt 1.35220300 -0.19097420
vt 1.55239400 -0.19000660
vt 1.55239400 -0.19097410
vt 1.35220300 -0.19000640
vt 1.55146600 -0.18830530
vt 1.35313200 -0.18830500
vt -0.12037670 -0.18830510
vt -0.12159720 -0.18830500
vt -0.12230210 -0.19000640
vt -0.12130550 -0.19000640
vt -0.12230190 -0.19097410
vt -0.12130540 -0.19097410
vt 0.09857544 -0.19000640
vt 0.09764686 -0.18830510
vt 0.09857544 -0.19097420
vt 0.09957197 -0.19000640
vt 0.09957197 -0.19097420
vt 0.09764686 -0.19267550
vt -0.12037670 -0.19267550
vt -0.44174210 0.95408320
vt -0.63971150 0.95371940
vt -0.64007540 0.95408320
vt -0.44210610 0.95371940
vt -0.44088550 0.95249880
vt -0.44052170 0.95286260
vt -0.44258680 0.95201810
vt -0.44088550 0.73520310
vt -0.44258680 0.73568380
vt -0.44210610 0.73398230
vt -0.44052170 0.73483910
vt -0.44174240 0.73361870
vt -0.63971150 0.73398230
vt -0.63923080 0.73568380
vt 1.35191200 0.95286260
vt 1.35313200 0.95408320
vt 1.35349600 0.95371940
vt 1.35227500 0.95249880
vt 1.35227500 0.73520310
vt 1.35191200 0.73483910
vt 1.35313200 0.73361870
vt 1.35349600 0.73398230
vt 1.35397700 0.73568380
vt 1.35397700 0.95201810
vt 1.55110100 0.95371940
vt 1.55062100 0.73568380
vt 1.55062100 0.95201810
vt -0.44210610 -0.19303940
vt -0.64007540 -0.19267550
vt -0.63971150 -0.19303940
vt 1.35313200 -0.18830530
vt 1.35191200 -0.18830530
vt 1.35120700 -0.19000660
vt 1.35220300 -0.19000640
vt 1.35313200 -0.19267540
vt 1.35191200 -0.19267570
vt 1.35120700 -0.19097410
vt 1.35120700 -0.19097440
vt 1.35191200 -0.19267570
vt 1.35313200 -0.19267570
vt 1.35220300 -0.19097420
vt 1.55146500 -0.19267570
vt 1.55239400 -0.19097440
vt -0.44081350 -0.19097410
vt -0.44174220 -0.19267550
vt -0.64007540 -0.19267540
vt -0.64100410 -0.19097410
vt -0.44081370 -0.19000640
vt -0.43981710 -0.19000640
vt -0.43981700 -0.19097410
f 3/3/3 2/2/2 1/1/1
f 2/2/2 4/4/4 1/1/1
f 2/2/2 5/5/5 4/4/4
f 5/5/5 6/6/6 4/4/4
f 4/4/4 7/7/7 1/1/1
f 6/6/6 7/7/7 4/4/4
f 7/7/7 8/8/8 1/1/1
f 8/8/8 9/9/9 1/1/1
f 10/10/10 9/9/9 8/8/8
f 11/11/11 10/10/10 8/8/8
f 12/12/12 11/11/11 8/8/8
f 7/7/7 12/12/12 8/8/8
f 12/12/12 7/7/7 6/6/6
f 13/13/13 12/12/12 6/6/6
f 16/16/16 15/15/15 14/14/14
f 17/17/17 16/16/16 14/14/14
f 17/17/17 14/14/14 18/18/18
f 19/19/19 18/18/18 14/14/14
f 20/20/20 19/19/19 14/14/14
f 21/21/21 17/17/17 18/18/18
f 22/22/22 17/17/17 21/21/21
f 23/23/23 22/22/22 21/21/21
f 21/21/21 18/18/18 24/24/24
f 25/25/25 21/21/21 24/24/24
f 24/24/24 26/26/26 25/25/25
f 24/24/24 27/27/27 26/26/26
f 27/27/27 28/28/28 26/26/26
f 26/26/26 29/29/29 25/25/25
f 29/29/29 26/26/26 30/30/30
f 31/31/31 29/29/29 30/30/30
f 34/34/34 33/33/33 32/32/32
f 35/35/35 34/34/34 32/32/32
f 35/35/35 32/32/32 36/36/36
f 37/37/37 35/35/35 36/36/36
f 37/37/37 36/36/36 38/38/38
f 39/39/39 37/37/37 38/38/38
f 36/36/36 40/40/40 38/38/38
f 40/40/40 41/41/41 38/38/38
f 38/38/38 41/41/41 42/42/42
f 41/41/41 43/43/43 42/42/42
f 46/46/46 45/45/45 44/44/44
f 45/45/45 47/47/47 44/44/44
f 45/45/45 48/48/48 47/47/47
f 48/48/48 49/49/49 47/47/47
f 47/47/47 49/49/49 50/50/50
f 51/51/51 47/47/47 50/50/50
f 44/44/44 47/47/47 51/51/51
f 44/44/44 51/51/51 52/52/52
f 51/51/51 53/53/53 52/52/52
f 52/52/52 53/53/53 54/54/54
f 54/54/54 53/53/53 55/55/55
f 53/53/53 56/56/56 55/55/55
f 59/59/59 58/58/58 57/57/57
f 58/58/58 60/60/60 57/57/57
f 58/58/58 61/61/61 60/60/60
f 61/61/61 62/62/62 60/60/60
f 65/65/65 64/64/64 63/63/63
f 66/66/66 65/65/65 63/63/63
f 67/67/67 65/65/65 66/66/66
f 68/68/68 67/67/67 66/66/66
f 66/66/66 63/63/63 69/69/69
f 63/63/63 70/70/70 69/69/69
f 66/66/66 69/69/69 71/71/71
f 68/68/68 66/66/66 71/71/71
f 71/71/71 69/69/69 72/72/72
f 73/73/73 71/71/71 72/72/72
f 71/71/71 74/74/74 68/68/68
f 74/74/74 75/75/75 68/68/68
f 78/78/78 77/77/77 76/76/76
f 77/77/77 79/79/79 76/76/76
f 76/76/76 79/79/79 80/80/80
f 81/81/81 76/76/76 80/80/80
f 79/79/79 82/82/82 80/80/80
f 83/83/83 80/80/80 82/82/82
f 84/84/84 83/83/83 82/82/82
f 85/85/85 83/83/83 84/84/84
f 86/86/86 83/83/83 85/85/85
f 87/87/87 86/86/86 85/85/85
f 88/88/88 85/85/85 84/84/84
f 89/89/89 88/88/88 84/84/84
f 92/92/92 91/91/91 90/90/90
f 93/93/93 92/92/92 90/90/90
f 94/94/94 93/93/93 90/90/90
f 95/95/95 94/94/94 90/90/90
f 94/94/94 95/95/95 96/96/96
f 97/97/97 94/94/94 96/96/96
f 98/98/98 94/94/94 97/97/97
f 93/93/93 94/94/94 98/98/98
f 99/99/99 92/92/92 93/93/93
f 99/99/99 93/93/93 98/98/98
f 100/100/100 92/92/92 99/99/99
f 98/98/98 101/101/101 99/99/99
f 102/102/102 100/100/100 99/99/99
f 101/101/101 102/102/102 99/99/99
f 104/104/104 42/42/42 103/103/103
f 105/105/105 104/104/104 103/103/103
f 108/108/108 107/107/107 106/106/106
f 109/109/109 108/108/108 106/106/106
f 111/111/111 110/110/110 57/57/57
f 112/112/112 111/111/111 57/57/57
f 115/115/115 114/114/114 113/113/113
f 116/116/116 115/115/115 113/113/113
f 117/117/117 115/115/115 116/116/116
f 118/118/118 117/117/117 116/116/116
f 121/121/121 120/120/120 119/119/119
f 122/122/122 121/121/121 119/119/119
f 125/125/125 124/124/124 123/123/123
f 119/119/119 125/125/125 123/123/123

