mtllib Fridge_1.mtl
v -0.00522 0.43005 0.07735
v -0.00522 0.48501 0.07735
v 0.00185 0.48501 0.07929
v 0.00185 0.43005 0.07929
v 0.00946 0.48501 0.07938
v -0.00522 -0.431 0.07735
v 0.00946 0.43005 0.07938
v 0.01687 0.48501 0.07763
v 0.01687 0.43005 0.07763
v 0.00185 -0.431 0.07929
v 0.00946 -0.431 0.07938
v 0.00946 -0.485 0.07938
v 0.00185 -0.485 0.07929
v -0.00522 -0.485 0.07735
v 0.01687 0.43005 0.07763
v 0.01687 0.48501 0.07763
v 0.02335 0.48501 0.0742
v 0.02335 0.43005 0.0742
v 0.01687 -0.431 0.07763
v 0.02335 -0.431 0.0742
v 0.02335 -0.485 0.0742
v 0.01687 -0.485 0.07763
v 0.00946 -0.431 0.07938
v 0.00946 0.43005 0.07938
v 0.00946 -0.485 0.07938
v 0.02335 0.43005 0.0742
v 0.02335 0.48501 0.0742
v 0.02826 0.48501 0.06943
v 0.02826 0.43005 0.06943
v 0.03113 0.48501 0.06378
v 0.02335 -0.431 0.0742
v 0.03113 0.43005 0.06378
v 0.03176 0.48501 0.05861
v 0.03176 0.43005 0.05861
v 0.02826 -0.431 0.06943
v 0.03113 -0.431 0.06378
v 0.03176 -0.431 0.05861
v 0.03176 -0.485 0.05861
v 0.03113 -0.485 0.06378
v 0.02826 -0.485 0.06943
v 0.02335 -0.485 0.0742
v -0.01684 0.43005 0.06397
v -0.01684 0.48501 0.06397
v -0.01509 0.48501 0.06889
v -0.01509 0.43005 0.06889
v -0.01106 0.48501 0.07377
v -0.01684 -0.431 0.06397
v -0.01106 0.43005 0.07377
v -0.00522 0.48501 0.07735
v -0.00522 0.43005 0.07735
v -0.01509 -0.431 0.06889
v -0.01106 -0.431 0.07377
v -0.00522 -0.431 0.07735
v -0.00522 -0.485 0.07735
v -0.01106 -0.485 0.07377
v -0.01509 -0.485 0.06889
v -0.01684 -0.485 0.06397
v 0.00746 0.48501 0.06129
v 0.02673 0.48501 0.05916
v 0.03176 0.48501 0.05861
v 0.03113 0.48501 0.06378
v 0.02826 0.48501 0.06943
v 0.02335 0.48501 0.0742
v 0.01687 0.48501 0.07763
v 0.00946 0.48501 0.07938
v 0.00185 0.48501 0.07929
v -0.00522 0.48501 0.07735
v -0.01106 0.48501 0.07377
v -0.01509 0.48501 0.06889
v -0.01684 0.48501 0.06397
v -0.0118 0.48501 0.06342
v 0.03176 0.48501 0.05861
v 0.02673 0.48501 0.05916
v 0.02673 0.43005 0.05916
v 0.03176 0.43005 0.05861
v -0.01684 0.43005 0.06397
v -0.0118 0.43005 0.06342
v -0.0118 0.48501 0.06342
v -0.01684 0.48501 0.06397
v 0.00746 0.48501 0.06129
v 0.01453 0.48501 -0.0016
v 0.02673 0.48501 0.05916
v 0 0.48501 0
v -0.0118 0.48501 0.06342
v -0.01452 0.48501 0.00161
v 0.02673 0.48501 0.05916
v 0.01453 0.48501 -0.0016
v 0.01453 0.43005 -0.0016
v 0.02673 0.43005 0.05916
v 0.02673 0.43005 0.05916
v 0.01453 0.43005 -0.0016
v 0 0.43005 0
v 0.00746 0.43005 0.06129
v -0.01452 0.43005 0.00161
v -0.0118 0.43005 0.06342
v -0.0118 0.43005 0.06342
v -0.01452 0.43005 0.00161
v -0.01452 0.48501 0.00161
v -0.0118 0.48501 0.06342
v -0.01684 0.43005 0.06397
v -0.01684 -0.431 0.06397
v -0.0118 -0.431 0.06342
v -0.0118 0.43005 0.06342
v 0.00746 -0.431 0.06129
v 0.00746 0.43005 0.06129
v 0.02673 0.43005 0.05916
v 0.02673 -0.431 0.05916
v 0.03176 0.43005 0.05861
v 0.03176 -0.431 0.05861
v 0.00746 -0.485 0.06129
v 0.03176 -0.485 0.05861
v 0.02673 -0.485 0.05916
v 0.03113 -0.485 0.06378
v 0.02826 -0.485 0.06943
v 0.02335 -0.485 0.0742
v 0.01687 -0.485 0.07763
v 0.00946 -0.485 0.07938
v 0.00185 -0.485 0.07929
v -0.00522 -0.485 0.07735
v -0.01106 -0.485 0.07377
v -0.01509 -0.485 0.06889
v -0.01684 -0.485 0.06397
v -0.0118 -0.485 0.06342
v 0.03176 -0.485 0.05861
v 0.03176 -0.431 0.05861
v 0.02673 -0.431 0.05916
v 0.02673 -0.485 0.05916
v -0.01684 -0.431 0.06397
v -0.01684 -0.485 0.06397
v -0.0118 -0.485 0.06342
v -0.0118 -0.431 0.06342
v 0.00746 -0.485 0.06129
v 0.02673 -0.485 0.05916
v 0.01453 -0.485 -0.0016
v 0 -0.485 0
v -0.0118 -0.485 0.06342
v -0.01452 -0.485 0.00161
v 0.02673 -0.485 0.05916
v 0.02673 -0.431 0.05916
v 0.01453 -0.431 -0.0016
v 0.01453 -0.485 -0.0016
v 0.02673 -0.431 0.05916
v 0 -0.431 0
v 0.01453 -0.431 -0.0016
v 0.00746 -0.431 0.06129
v -0.01452 -0.431 0.00161
v -0.0118 -0.431 0.06342
v -0.0118 -0.431 0.06342
v -0.0118 -0.485 0.06342
v -0.01452 -0.485 0.00161
v -0.01452 -0.431 0.00161
vt -143.0994 1.334957
vt -143.0994 1.474041
vt -143.0815 1.474041
vt -143.0815 1.334957
vt -143.0623 1.474041
vt -143.0994 -0.844005
vt -143.0623 1.334957
vt -143.0435 1.474041
vt -143.0435 1.334957
vt -143.0815 -0.844005
vt -143.0623 -0.844005
vt -143.0623 -0.9806581
vt -143.0815 -0.9806581
vt -143.0994 -0.9806581
vt -143.0435 1.334957
vt -143.0435 1.474041
vt -143.0271 1.474041
vt -143.0271 1.334957
vt -143.0435 -0.844005
vt -143.0271 -0.844005
vt -143.0271 -0.9806581
vt -143.0435 -0.9806581
vt -143.0623 -0.844005
vt -143.0623 1.334957
vt -143.0623 -0.9806581
vt -143.066 1.402495
vt -143.066 1.550211
vt -143.0532 1.550211
vt -143.0532 1.402495
vt -143.0381 1.550211
vt -143.066 -0.9116938
vt -143.0381 1.402495
vt -143.0241 1.550211
vt -143.0241 1.402495
vt -143.0532 -0.9116938
vt -143.0381 -0.9116938
vt -143.0241 -0.9116938
vt -143.0241 -1.056828
vt -143.0381 -1.056828
vt -143.0532 -1.056828
vt -143.066 -1.056828
vt -143.1001 1.494274
vt -143.1001 1.65372
vt -143.0859 1.65372
vt -143.0859 1.494274
vt -143.0717 1.65372
vt -143.1001 -1.003678
vt -143.0717 1.494274
vt -143.0613 1.65372
vt -143.0613 1.494274
vt -143.0859 -1.003678
vt -143.0717 -1.003678
vt -143.0613 -1.003678
vt -143.0613 -1.160337
vt -143.0717 -1.160337
vt -143.0859 -1.160337
vt -143.1001 -1.160337
vt -143.8826 0.5616026
vt -143.8349 0.5668637
vt -143.8225 0.5682377
vt -143.8241 0.555428
vt -143.8311 0.541463
vt -143.8433 0.5296614
vt -143.8593 0.5211758
vt -143.8777 0.5168397
vt -143.8965 0.5170753
vt -143.914 0.521861
vt -143.9284 0.5307276
vt -143.9384 0.5428071
vt -143.9427 0.5549678
vt -143.9303 0.556342
vt -143.8932 0.4559506
vt -143.9057 0.4559506
vt -143.9057 0.5923447
vt -143.8932 0.5923447
vt -143.9144 0.5923447
vt -143.9019 0.5923447
vt -143.9019 0.4559505
vt -143.9144 0.4559505
vt -143.8826 0.5616026
vt -143.8547 0.6385529
vt -143.8349 0.5668637
vt -143.8907 0.6345865
vt -143.9303 0.556342
vt -143.9266 0.6306204
vt -143.9594 0.5933998
vt -143.8863 0.5933998
vt -143.8863 0.4548955
vt -143.9594 0.4548955
vt -143.7935 0.5273369
vt -143.8652 0.5471219
vt -143.8613 0.5830638
vt -143.7883 0.5750086
vt -143.8573 0.6190019
vt -143.783 0.6226769
vt -143.9067 0.4561133
vt -143.981 0.4561133
vt -143.981 0.5921819
vt -143.9067 0.5921819
vt -143.1314 -0.3556847
vt -143.1314 1.78118
vt -143.1189 1.78118
vt -143.1189 -0.3556847
vt -143.0711 1.78118
vt -143.0711 -0.3556847
vt -143.0233 -0.3556847
vt -143.0233 1.78118
vt -143.0108 -0.3556847
vt -143.0108 1.78118
vt -143.8514 0.5937901
vt -143.7913 0.587155
vt -143.8038 0.5885293
vt -143.7929 0.5999647
vt -143.8 0.6139301
vt -143.8121 0.625732
vt -143.8282 0.6342171
vt -143.8465 0.6385534
vt -143.8653 0.6383179
vt -143.8828 0.6335319
vt -143.8972 0.6246655
vt -143.9072 0.6125857
vt -143.9115 0.6004252
vt -143.8991 0.599051
vt -143.9499 0.6226406
vt -143.9499 0.48863
vt -143.9624 0.48863
vt -143.9624 0.6226406
vt -143.9525 0.4886301
vt -143.9525 0.6226406
vt -143.94 0.6226406
vt -143.94 0.4886301
vt -143.8514 0.5937901
vt -143.8038 0.5885293
vt -143.8235 0.5168398
vt -143.8595 0.520806
vt -143.8991 0.599051
vt -143.8954 0.5247723
vt -143.9669 0.4875941
vt -143.9669 0.6236768
vt -143.8939 0.6236768
vt -143.8939 0.4875941
vt -143.8313 0.5273369
vt -143.7636 0.5830642
vt -143.7596 0.5471222
vt -143.8366 0.575009
vt -143.7676 0.6190024
vt -143.8418 0.6226774
vt -143.8716 0.6224803
vt -143.8716 0.4887905
vt -143.9459 0.4887905
vt -143.9459 0.6224803
vn 0 1 0
vn 0 1 0
vn 0 1 0
vn 0 1 0
vn 0 1 0
vn 0 1 0
vn 0 -1 0
vn 0 -1 0
vn 0 -1 0
vn 0 -1 0
vn 0 -1 0
vn 0 -1 0
vn 0 -1 0
vn 0 -1 0
vn 0 -1 0
vn 0 1 0
vn 0 1 0
vn 0 1 0
vn 0 1 0
vn 0 1 0
vn 0 1 0
vn 0 -1 0
vn 0 -1 0
vn 0 -1 0
vn 0 -1 0
vn 0 -1 0
vn 0 -1 0
vn 0 -1 0
vn 0 -1 0
vn 0 -1 0
vn 0 1 0
vn 0 1 0
vn 0 1 0
vn 0 1 0
vn 0 1 0
vn 0 1 0
vn 0 1 0
vn 0 1 0
vn 0 1 0
vn 0 -1 0
vn 0 -1 0
vn 0 -1 0
vn 0 -1 0
vn 0 -1 0
vn 0 -1 0
vn 0 -1 0
vn 0 -1 0
vn 0 -1 0
vn 0 -1 0
vn 0 -1 0
vn 0 -1 0
vn 0 -1 0
vn 0 -1 0
vn 0 -1 0
vn 0 -1 0
vn 0 1 0
vn 0 1 0
vn 0 1 0
vn 0 1 0
vn 0 -1 0
vn 0 -1 0
vn 0 -1 0
vn 0 -1 0
vn 0 1 0
vn 0 1 0
vn 0 1 0
vn 0 1 0
vn 0 1 0
vn 0 1 0
vn 0 -1 0
vn 0 -1 0
vn 0 1 0
vn 0 1 0
vn 0 1 0
vn 0 1 0
vn 0 -1 0
vn 0 -1 0
vn 0 -1 0
vn 0 -1 0
vn 0 1 0
vn 0 1 0
vn 0 1 0
vn 0 1 0
vn 0 1 0
vn 0 1 0
vn 0 -1 0
vn 0 -1 0
vn 0 1 0
vn 0 1 0
vn 0 1 0
vn 0 1 0
vn 0 -1 0
vn 0 -1 0
vn 0 -1 0
vn 0 -1 0
vn 0 1 0
vn 0 1 0
vn 0 1 0
vn 0 1 0
vn 0 1 0
vn 0 1 0
vn 0 -1 0
vn 0 -1 0
vn 0 1 0
vn 0 1 0
vn 0 1 0
vn 0 1 0
vn 0 -1 0
vn 0 -1 0
vn 0 -1 0
vn 0 -1 0
vn 0 1 0
vn 0 1 0
vn 0 1 0
vn 0 1 0
vn 0 1 0
vn 0 1 0
vn 0 -1 0
vn 0 -1 0
vn 0 1 0
vn 0 1 0
vn 0 1 0
vn 0 1 0
vn 0 -1 0
vn 0 -1 0
vn 0 -1 0
vn 0 -1 0
vn 0 1 0
vn 0 1 0
vn 0 1 0
vn 0 1 0
vn 0 1 0
vn 0 1 0
vn 0 -1 0
vn 0 -1 0
vn 0 1 0
vn 0 1 0
vn 0 1 0
vn 0 1 0
vn 0 -1 0
vn 0 -1 0
vn 0 -1 0
vn 0 -1 0
vn 0 1 0
vn 0 1 0
vn 0 1 0
vn 0 1 0
vn 0 1 0
vn 0 1 0
vn 0 -1 0
vn 0 -1 0
vn 0 1 0
vn 0 1 0
vn 0 1 0
vn 0 1 0
vn 0 -1 0
vn 0 -1 0
vn 0 -1 0
vn 0 -1 0
vn 0 1 0
vn 0 1 0
vn 0 1 0
vn 0 1 0
vn 0 1 0
vn 0 1 0
vn 0 1 0
vn 0 1 0
vn 0 1 0
vn 0 1 0
vn 0 1 0
vn 0 1 0
vn 0 1 0
vn 0 1 0
vn 0 1 0
vn 0 1 0
vn 0 -1 0
vn 0 -1 0
vn 0 -1 0
vn 0 -1 0
vn 0 1 0
vn 0 1 0
vn 0 1 0
vn 0 1 0
vn 0 -1 0
vn 0 -1 0
vn 0 -1 0
vn 0 -1 0
vn 0 1 0
vn 0 1 0
vn 0 1 0
vn 0 1 0
vn 0 1 0
vn 0 1 0
vn 0 1 0
vn 0 1 0
vn 0 1 0
vn 0 1 0
vn 0 1 0
vn 0 1 0
vn 0 1 0
vn 0 1 0
vn 0 1 0
vn 0 1 0
vn 0 1 0
vn 0 1 0
vn 0 1 0
vn 0 1 0
vn 0 1 0
vn 0 1 0
vn 0 1 0
vn 0 1 0
vn 0 1 0
vn 0 1 0
vn 0 1 0
vn 0 1 0
vn 0 1 0
vn 0 1 0
vn 0 1 0
vn 0 1 0
vn 0 1 0
vn 0 1 0
vn 0 1 0
vn 0 1 0
vn 0 1 0
vn 0 1 0
vn 0 1 0
vn 0 1 0
vn 0 1 0
vn 0 1 0
vn 0 1 0
vn 0 1 0
vn 0 1 0
vn 0 1 0
vn 0 1 0
vn 0 1 0
vn 0 1 0
vn 0 1 0
vn 0 1 0
vn 0 1 0
vn 0 1 0
vn 0 1 0
vn 0 1 0
vn 0 1 0
vn 0 1 0
vn 0 1 0
vn 0 1 0
vn 0 1 0
vn 0 1 0
vn 0 1 0
vn 0 1 0
vn 0 1 0
vn 0 1 0
vn 0 1 0
vn 0 1 0
vn 0 1 0
vn 0 1 0
vn 0 1 0
vn 0 1 0
vn 0 1 0
vn 0 1 0
vn 0 1 0
vn 0 1 0
vn 0 1 0
vn 0 1 0
vn 0 1 0
vn 0 1 0
vn 0 1 0
vn 0 1 0
vn 0 1 0
vn 0 1 0
vn 0 1 0
vn 0 1 0
vn 0.109694 0 0.9939654
vn -0.1369338 0 0.9905801
vn 0.109694 0 0.9939654
vn -0.9423298 0 0.334686
vn 0 1 0
vn 0 1 0
vn 0 1 0
vn 0 -1 0
vn 0 -1 0
vn 0 -1 0
vn 0 -1 0
vn 0 -1 0
vn 0 -1 0
vn -0.1096905 0 -0.9939658
vn -0.1096905 0 -0.9939658
vn 0 -1 0
vn 0 -1 0
vn 0 -1 0
vn 0 -1 0
vn 0 -1 0
vn -0.1096902 0 -0.9939659
vn -0.1096902 0 -0.9939659
vn -0.1096902 0 -0.9939659
vn -0.1096902 0 -0.9939659
vn -0.1096902 0 -0.9939659
vn -0.1096902 0 -0.9939659
vn -0.1096902 0 -0.9939659
vn -0.1096902 0 -0.9939659
vn 0 -1 0
vn 0 -1 0
vn 0 -1 0
vn 0 -1 0
vn 0 -1 0
vn 0.9804323 0 -0.1968569
vn 0.9804323 0 -0.1968569
vn 0.9804323 0 -0.1968569
vn 0.9804323 0 -0.1968569
vn 0 1 0
vn 0 1 0
vn 0 1 0
vn 0 1 0
vn 0 1 0
vn 0 1 0
vn 0 1 0
vn 0 1 0
vn 0 1 0
vn 0 1 0
vn 0 1 0
vn 0 1 0
vn 0 1 0
vn 0 1 0
vn 0 1 0
vn 0 1 0
vn 0 1 0
vn 0 1 0
vn 0 1 0
vn 0 1 0
vn 0 1 0
vn 0 1 0
vn 0 1 0
vn 0 1 0
vn 0 1 0
vn 0 1 0
vn 0 1 0
vn 0 1 0
vn 0 1 0
vn 0 1 0
vn 0 1 0
vn 0 1 0
vn 0 1 0
vn 0 1 0
vn 0 1 0
vn 0 1 0
vn 0 1 0
vn 0 1 0
vn 0 1 0
vn 0 1 0
vn 0 1 0
vn 0 1 0
vn 0 1 0
vn 0 1 0
vn -0.3931091 0 0.9194919
vn -0.3931085 0 0.9194921
vn -0.136934 0 0.9905801
vn -0.1369338 0 0.9905801
vn 0.109694 0 0.9939654
vn -0.3931091 0 0.9194919
vn 0.109695 0 0.9939653
vn 0.3496476 0 0.9368812
vn 0.3496481 0 0.9368811
vn -0.1369339 0 0.9905801
vn 0.1096949 0 0.9939653
vn 0.1096935 0 0.9939654
vn -0.136934 0 0.9905801
vn -0.3931082 0 0.9194922
vn 0.3496481 0 0.9368811
vn 0.3496476 0 0.9368812
vn 0.5841396 0 0.8116532
vn 0.5841395 0 0.8116532
vn 0.349648 0 0.9368811
vn 0.5841395 0 0.8116532
vn 0.5841402 0 0.8116527
vn 0.3496467 0 0.9368817
vn 0.1096949 0 0.9939653
vn 0.109695 0 0.9939653
vn 0.1096935 0 0.9939654
vn 0.5841395 0 0.8116532
vn 0.5841396 0 0.8116532
vn 0.800918 0 0.5987741
vn 0.8009179 0 0.5987742
vn 0.9513844 0 0.3080063
vn 0.5841395 0 0.8116532
vn 0.9513844 0 0.3080063
vn 0.992596 0 0.1214634
vn 0.9925959 0 0.1214635
vn 0.8009179 0 0.5987742
vn 0.9513844 0 0.3080063
vn 0.9925959 0 0.1214635
vn 0.9925959 0 0.1214637
vn 0.9513842 0 0.3080064
vn 0.8009181 0 0.598774
vn 0.5841402 0 0.8116527
vn -0.9423298 0 0.334686
vn -0.9423299 0 0.3346854
vn -0.8613254 0 0.5080536
vn -0.8613254 0 0.5080538
vn -0.6511185 0 0.7589762
vn -0.9423296 0 0.334686
vn -0.6511187 0 0.758976
vn -0.3931085 0 0.9194921
vn -0.3931091 0 0.9194919
vn -0.8613254 0 0.5080538
vn -0.6511186 0 0.758976
vn -0.3931091 0 0.9194919
vn -0.3931082 0 0.9194922
vn -0.6511178 0 0.7589767
vn -0.8613253 0 0.5080538
vn -0.9423294 0 0.3346869
vn 0 1 -4.82904E-07
vn 0 1 -6.460539E-07
vn 0 1 0
vn 0 1 -1.003236E-05
vn 0 1 -1.292214E-05
vn 0 1 4.499794E-06
vn 0 1 7.386572E-06
vn 0 1 4.161254E-06
vn 0 1 2.455697E-06
vn 0 1 0
vn 0 1 0
vn 0 1 0
vn 0 1 0
vn 0 1 -3.235816E-07
vn -0.1096918 0 -0.9939657
vn -0.1096918 0 -0.9939657
vn -0.1096918 0 -0.9939657
vn -0.1096918 0 -0.9939657
vn -0.1096863 0 -0.9939663
vn -0.1096863 0 -0.9939663
vn -0.1096863 0 -0.9939663
vn -0.1096863 0 -0.9939663
vn 0 1 -4.82904E-07
vn 0 1 -7.270084E-07
vn 0 1 -6.460539E-07
vn 0 1 -5.439798E-07
vn 0 1 -3.235816E-07
vn 0 1 -3.635301E-07
vn 0.9804322 0 -0.1968572
vn 0.9804322 0 -0.1968572
vn 0.9804322 0 -0.1968572
vn 0.9804322 0 -0.1968572
vn 0 -1 1.454013E-06
vn 0 -1 1.454012E-06
vn 0 -1 7.218486E-07
vn 0 -1 7.322157E-07
vn 0 -1 0
vn 0 -1 0
vn -0.9990349 0 0.04392501
vn -0.9990349 0 0.04392501
vn -0.9990349 0 0.04392501
vn -0.9990349 0 0.04392501
vn -0.1096921 0 -0.9939657
vn -0.1096921 0 -0.9939657
vn -0.1096905 0 -0.9939658
vn -0.1096905 0 -0.9939658
vn -0.1096902 0 -0.9939659
vn -0.1096902 0 -0.9939659
vn -0.1096908 0 -0.9939658
vn -0.1096908 0 -0.9939658
vn -0.1096921 0 -0.9939657
vn -0.1096921 0 -0.9939657
vn 0 -1 0
vn 0 -1 0
vn 0 -1 0
vn 0 -1 0
vn 0 -1 2.767917E-07
vn 0 -1 -1.563767E-07
vn 0 -1 -7.698414E-07
vn 0 -1 0
vn 0 -1 0
vn 0 -1 -8.122081E-07
vn 0 -1 -5.536531E-07
vn 0 -1 1.651484E-06
vn 0 -1 3.073669E-06
vn 0 -1 1.75976E-07
vn -0.1096904 0 -0.9939658
vn -0.1096904 0 -0.9939658
vn -0.1096904 0 -0.9939658
vn -0.1096904 0 -0.9939658
vn -0.1096904 0 -0.9939658
vn -0.1096904 0 -0.9939658
vn -0.1096904 0 -0.9939658
vn -0.1096904 0 -0.9939658
vn 0 -1 0
vn 0 -1 0
vn 0 -1 0
vn 0 -1 0
vn 0 -1 1.75976E-07
vn 0 -1 -1.817652E-07
vn 0.9804323 0 -0.1968569
vn 0.9804323 0 -0.1968569
vn 0.9804323 0 -0.1968569
vn 0.9804323 0 -0.1968569
vn 0 1 0
vn 0 1 0
vn 0 1 0
vn 0 1 0
vn 0 1 0
vn 0 1 0
vn -0.9990349 0 0.04392504
vn -0.9990349 0 0.04392504
vn -0.9990349 0 0.04392504
vn -0.9990349 0 0.04392504
usemtl Fridge_Secondary1_Mat
f 3/3/356 2/2/355 1/1/354
f 4/4/357 3/3/356 1/1/354
f 5/5/358 3/3/356 4/4/357
f 1/1/354 6/6/359 4/4/357
f 7/7/360 5/5/358 4/4/357
f 8/8/361 5/5/358 7/7/360
f 9/9/362 8/8/361 7/7/360
f 4/4/357 10/10/363 7/7/360
f 6/6/359 10/10/363 4/4/357
f 10/10/363 11/11/364 7/7/360
f 12/12/365 11/11/364 10/10/363
f 13/13/366 12/12/365 10/10/363
f 13/13/366 10/10/363 6/6/359
f 14/14/367 13/13/366 6/6/359
f 17/17/370 16/16/369 15/15/368
f 18/18/371 17/17/370 15/15/368
f 15/15/368 19/19/372 18/18/371
f 19/19/372 20/20/373 18/18/371
f 21/21/374 20/20/373 19/19/372
f 22/22/375 21/21/374 19/19/372
f 23/23/376 19/19/372 15/15/368
f 22/22/375 19/19/372 23/23/376
f 24/24/377 23/23/376 15/15/368
f 25/25/378 22/22/375 23/23/376
f 28/28/381 27/27/380 26/26/379
f 29/29/382 28/28/381 26/26/379
f 30/30/383 28/28/381 29/29/382
f 26/26/379 31/31/384 29/29/382
f 32/32/385 30/30/383 29/29/382
f 33/33/386 30/30/383 32/32/385
f 34/34/387 33/33/386 32/32/385
f 31/31/384 35/35/388 29/29/382
f 29/29/382 35/35/388 32/32/385
f 32/32/385 36/36/389 34/34/387
f 35/35/388 36/36/389 32/32/385
f 36/36/389 37/37/390 34/34/387
f 38/38/391 37/37/390 36/36/389
f 39/39/392 38/38/391 36/36/389
f 39/39/392 36/36/389 35/35/388
f 40/40/393 39/39/392 35/35/388
f 40/40/393 35/35/388 31/31/384
f 41/41/394 40/40/393 31/31/384
f 44/44/397 43/43/396 42/42/395
f 45/45/398 44/44/397 42/42/395
f 46/46/399 44/44/397 45/45/398
f 42/42/395 47/47/400 45/45/398
f 48/48/401 46/46/399 45/45/398
f 49/49/402 46/46/399 48/48/401
f 50/50/403 49/49/402 48/48/401
f 47/47/400 51/51/404 45/45/398
f 45/45/398 51/51/404 48/48/401
f 48/48/401 52/52/405 50/50/403
f 51/51/404 52/52/405 48/48/401
f 52/52/405 53/53/406 50/50/403
f 54/54/407 53/53/406 52/52/405
f 55/55/408 54/54/407 52/52/405
f 55/55/408 52/52/405 51/51/404
f 56/56/409 55/55/408 51/51/404
f 56/56/409 51/51/404 47/47/400
f 57/57/410 56/56/409 47/47/400
f 60/60/413 59/59/412 58/58/411
f 61/61/414 60/60/413 58/58/411
f 61/61/414 58/58/411 62/62/415
f 62/62/415 58/58/411 63/63/416
f 63/63/416 58/58/411 64/64/417
f 64/64/417 58/58/411 65/65/418
f 65/65/418 58/58/411 66/66/419
f 66/66/419 58/58/411 67/67/420
f 67/67/420 58/58/411 68/68/421
f 68/68/421 58/58/411 69/69/422
f 70/70/423 69/69/422 58/58/411
f 71/71/424 70/70/423 58/58/411
f 74/74/427 73/73/426 72/72/425
f 75/75/428 74/74/427 72/72/425
f 78/78/431 77/77/430 76/76/429
f 79/79/432 78/78/431 76/76/429
f 82/82/435 81/81/434 80/80/433
f 81/81/434 83/83/436 80/80/433
f 80/80/433 83/83/436 84/84/437
f 83/83/436 85/85/438 84/84/437
f 88/88/441 87/87/440 86/86/439
f 89/89/442 88/88/441 86/86/439
f 92/92/445 91/91/444 90/90/443
f 93/93/446 92/92/445 90/90/443
f 94/94/447 92/92/445 93/93/446
f 95/95/448 94/94/447 93/93/446
f 98/98/451 97/97/450 96/96/449
f 99/99/452 98/98/451 96/96/449
f 102/102/455 101/101/454 100/100/453
f 103/103/456 102/102/455 100/100/453
f 104/104/457 102/102/455 103/103/456
f 105/105/458 104/104/457 103/103/456
f 104/104/457 105/105/458 106/106/459
f 107/107/460 104/104/457 106/106/459
f 107/107/460 106/106/459 108/108/461
f 109/109/462 107/107/460 108/108/461
f 112/112/465 111/111/464 110/110/463
f 111/111/464 113/113/466 110/110/463
f 110/110/463 113/113/466 114/114/467
f 110/110/463 114/114/467 115/115/468
f 110/110/463 115/115/468 116/116/469
f 110/110/463 116/116/469 117/117/470
f 110/110/463 117/117/470 118/118/471
f 110/110/463 118/118/471 119/119/472
f 110/110/463 119/119/472 120/120/473
f 110/110/463 120/120/473 121/121/474
f 121/121/474 122/122/475 110/110/463
f 122/122/475 123/123/476 110/110/463
f 126/126/479 125/125/478 124/124/477
f 127/127/480 126/126/479 124/124/477
f 130/130/483 129/129/482 128/128/481
f 131/131/484 130/130/483 128/128/481
f 134/134/487 133/133/486 132/132/485
f 135/135/488 134/134/487 132/132/485
f 135/135/488 132/132/485 136/136/489
f 137/137/490 135/135/488 136/136/489
f 140/140/493 139/139/492 138/138/491
f 141/141/494 140/140/493 138/138/491
f 144/144/497 143/143/496 142/142/495
f 143/143/496 145/145/498 142/142/495
f 143/143/496 146/146/499 145/145/498
f 146/146/499 147/147/500 145/145/498
f 150/150/503 149/149/502 148/148/501
f 151/151/504 150/150/503 148/148/501
