mtllib Fridge_1.mtl
v -0.00522 0.26685 0.07735
v -0.00522 0.32181 0.07735
v 0.00185 0.32181 0.07929
v 0.00185 0.26685 0.07929
v 0.00946 0.32181 0.07938
v -0.00522 -0.2678 0.07735
v 0.00946 0.26685 0.07938
v 0.01687 0.32181 0.07763
v 0.01687 0.26685 0.07763
v 0.00185 -0.2678 0.07929
v 0.00946 -0.2678 0.07938
v 0.00946 -0.3218 0.07938
v 0.00185 -0.3218 0.07929
v -0.00522 -0.3218 0.07735
v 0.01687 0.26685 0.07763
v 0.01687 0.32181 0.07763
v 0.02335 0.32181 0.0742
v 0.02335 0.26685 0.0742
v 0.01687 -0.2678 0.07763
v 0.02335 -0.2678 0.0742
v 0.02335 -0.3218 0.0742
v 0.01687 -0.3218 0.07763
v 0.00946 -0.2678 0.07938
v 0.00946 0.26685 0.07938
v 0.00946 -0.3218 0.07938
v 0.02335 0.26685 0.0742
v 0.02335 0.32181 0.0742
v 0.02826 0.32181 0.06943
v 0.02826 0.26685 0.06943
v 0.03113 0.32181 0.06378
v 0.02335 -0.2678 0.0742
v 0.03113 0.26685 0.06378
v 0.03176 0.32181 0.05861
v 0.03176 0.26685 0.05861
v 0.02826 -0.2678 0.06943
v 0.03113 -0.2678 0.06378
v 0.03176 -0.2678 0.05861
v 0.03176 -0.3218 0.05861
v 0.03113 -0.3218 0.06378
v 0.02826 -0.3218 0.06943
v 0.02335 -0.3218 0.0742
v -0.01684 0.26685 0.06397
v -0.01684 0.32181 0.06397
v -0.01509 0.32181 0.06889
v -0.01509 0.26685 0.06889
v -0.01106 0.32181 0.07377
v -0.01684 -0.2678 0.06397
v -0.01106 0.26685 0.07377
v -0.00522 0.32181 0.07735
v -0.00522 0.26685 0.07735
v -0.01509 -0.2678 0.06889
v -0.01106 -0.2678 0.07377
v -0.00522 -0.2678 0.07735
v -0.00522 -0.3218 0.07735
v -0.01106 -0.3218 0.07377
v -0.01509 -0.3218 0.06889
v -0.01684 -0.3218 0.06397
v 0.00746 0.32181 0.06129
v 0.02673 0.32181 0.05916
v 0.03176 0.32181 0.05861
v 0.03113 0.32181 0.06378
v 0.02826 0.32181 0.06943
v 0.02335 0.32181 0.0742
v 0.01687 0.32181 0.07763
v 0.00946 0.32181 0.07938
v 0.00185 0.32181 0.07929
v -0.00522 0.32181 0.07735
v -0.01106 0.32181 0.07377
v -0.01509 0.32181 0.06889
v -0.01684 0.32181 0.06397
v -0.0118 0.32181 0.06342
v 0.03176 0.32181 0.05861
v 0.02673 0.32181 0.05916
v 0.02673 0.26685 0.05916
v 0.03176 0.26685 0.05861
v -0.01684 0.26685 0.06397
v -0.0118 0.26685 0.06342
v -0.0118 0.32181 0.06342
v -0.01684 0.32181 0.06397
v 0.00746 0.32181 0.06129
v 0.01453 0.32181 -0.0016
v 0.02673 0.32181 0.05916
v 1E-05 0.32181 1E-05
v -0.0118 0.32181 0.06342
v -0.01452 0.32181 0.00161
v 0.02673 0.32181 0.05916
v 0.01453 0.32181 -0.0016
v 0.01453 0.26685 -0.0016
v 0.02673 0.26685 0.05916
v 0.02673 0.26685 0.05916
v 0.01453 0.26685 -0.0016
v 1E-05 0.26685 1E-05
v 0.00746 0.26685 0.06129
v -0.01452 0.26685 0.00161
v -0.0118 0.26685 0.06342
v -0.0118 0.26685 0.06342
v -0.01452 0.26685 0.00161
v -0.01452 0.32181 0.00161
v -0.0118 0.32181 0.06342
v -0.01684 0.26685 0.06397
v -0.01684 -0.2678 0.06397
v -0.0118 -0.2678 0.06342
v -0.0118 0.26685 0.06342
v 0.00746 -0.2678 0.06129
v 0.00746 0.26685 0.06129
v 0.02673 0.26685 0.05916
v 0.02673 -0.2678 0.05916
v 0.03176 0.26685 0.05861
v 0.03176 -0.2678 0.05861
v 0.00746 -0.3218 0.06129
v 0.03176 -0.3218 0.05861
v 0.02673 -0.3218 0.05916
v 0.03113 -0.3218 0.06378
v 0.02826 -0.3218 0.06943
v 0.02335 -0.3218 0.0742
v 0.01687 -0.3218 0.07763
v 0.00946 -0.3218 0.07938
v 0.00185 -0.3218 0.07929
v -0.00522 -0.3218 0.07735
v -0.01106 -0.3218 0.07377
v -0.01509 -0.3218 0.06889
v -0.01684 -0.3218 0.06397
v -0.0118 -0.3218 0.06342
v 0.03176 -0.3218 0.05861
v 0.03176 -0.2678 0.05861
v 0.02673 -0.2678 0.05916
v 0.02673 -0.3218 0.05916
v -0.01684 -0.2678 0.06397
v -0.01684 -0.3218 0.06397
v -0.0118 -0.3218 0.06342
v -0.0118 -0.2678 0.06342
v 0.00746 -0.3218 0.06129
v 0.02673 -0.3218 0.05916
v 0.01453 -0.3218 -0.0016
v 1E-05 -0.3218 1E-05
v -0.0118 -0.3218 0.06342
v -0.01452 -0.3218 0.00161
v 0.02673 -0.3218 0.05916
v 0.02673 -0.2678 0.05916
v 0.01453 -0.2678 -0.0016
v 0.01453 -0.3218 -0.0016
v 0.02673 -0.2678 0.05916
v 1E-05 -0.2678 1E-05
v 0.01453 -0.2678 -0.0016
v 0.00746 -0.2678 0.06129
v -0.01452 -0.2678 0.00161
v -0.0118 -0.2678 0.06342
v -0.0118 -0.2678 0.06342
v -0.0118 -0.3218 0.06342
v -0.01452 -0.3218 0.00161
v -0.01452 -0.2678 0.00161
vt -143.5345 1.431483
vt -143.5345 1.570567
vt -143.5166 1.570567
vt -143.5166 1.431483
vt -143.4974 1.570567
vt -143.5345 0.07850826
vt -143.4974 1.431483
vt -143.4786 1.570567
vt -143.4786 1.431483
vt -143.5166 0.07850826
vt -143.4974 0.07850826
vt -143.4974 -0.05814463
vt -143.5166 -0.05814463
vt -143.5345 -0.05814463
vt -143.4786 1.431483
vt -143.4786 1.570567
vt -143.4622 1.570567
vt -143.4622 1.431483
vt -143.4786 0.07850826
vt -143.4622 0.07850826
vt -143.4622 -0.05814463
vt -143.4786 -0.05814463
vt -143.4974 0.07850826
vt -143.4974 1.431483
vt -143.4974 -0.05814463
vt -143.5383 1.473391
vt -143.5383 1.621107
vt -143.5254 1.621107
vt -143.5254 1.473391
vt -143.5103 1.621107
vt -143.5383 0.03644967
vt -143.5103 1.473391
vt -143.4964 1.621107
vt -143.4964 1.473391
vt -143.5254 0.03644967
vt -143.5103 0.03644967
vt -143.4964 0.03644967
vt -143.4964 -0.1086839
vt -143.5103 -0.1086839
vt -143.5254 -0.1086839
vt -143.5383 -0.1086839
vt -143.4996 1.530342
vt -143.4996 1.689788
vt -143.4853 1.689788
vt -143.4853 1.530342
vt -143.4711 1.689788
vt -143.4996 -0.02070665
vt -143.4711 1.530342
vt -143.4607 1.689788
vt -143.4607 1.530342
vt -143.4853 -0.02070665
vt -143.4711 -0.02070665
vt -143.4607 -0.02070665
vt -143.4607 -0.1773654
vt -143.4711 -0.1773654
vt -143.4853 -0.1773654
vt -143.4996 -0.1773654
vt -143.8955 0.6370527
vt -143.8478 0.6423136
vt -143.8354 0.6436877
vt -143.8369 0.6308778
vt -143.844 0.6169128
vt -143.8562 0.6051111
vt -143.8722 0.5966258
vt -143.8905 0.5922896
vt -143.9094 0.5925249
vt -143.9269 0.597311
vt -143.9413 0.6061775
vt -143.9513 0.618257
vt -143.9556 0.6304175
vt -143.9432 0.6317919
vt -143.8667 0.5501454
vt -143.8792 0.5501454
vt -143.8792 0.686542
vt -143.8667 0.686542
vt -143.8879 0.686542
vt -143.8754 0.686542
vt -143.8754 0.5501454
vt -143.8879 0.5501454
vt -143.8955 0.6370527
vt -143.8676 0.714003
vt -143.8478 0.6423136
vt -143.9035 0.7100365
vt -143.9432 0.6317919
vt -143.9395 0.7060704
vt -143.9341 0.6875961
vt -143.861 0.6875961
vt -143.861 0.5490916
vt -143.9341 0.5490916
vt -143.7966 0.6298083
vt -143.8683 0.6495935
vt -143.8643 0.6855356
vt -143.7913 0.6774804
vt -143.8603 0.7214736
vt -143.7861 0.7251488
vt -143.8837 0.5503095
vt -143.958 0.5503095
vt -143.958 0.6863781
vt -143.8837 0.6863781
vt -143.6025 0.06028962
vt -143.6025 1.387126
vt -143.59 1.387126
vt -143.59 0.06028962
vt -143.5422 1.387126
vt -143.5422 0.06028962
vt -143.4944 0.06028962
vt -143.4944 1.387126
vt -143.4819 0.06028962
vt -143.4819 1.387126
vt -143.859 0.6967523
vt -143.7989 0.6901172
vt -143.8114 0.6914914
vt -143.8005 0.7029271
vt -143.8076 0.7168919
vt -143.8197 0.7286935
vt -143.8358 0.7371791
vt -143.8541 0.7415153
vt -143.8729 0.7412798
vt -143.8904 0.7364939
vt -143.9049 0.7276274
vt -143.9148 0.7155477
vt -143.9192 0.7033871
vt -143.9067 0.702013
vt -143.9308 0.6850626
vt -143.9308 0.5510516
vt -143.9433 0.5510516
vt -143.9433 0.6850626
vt -143.9521 0.551052
vt -143.9521 0.6850623
vt -143.9396 0.6850623
vt -143.9396 0.551052
vt -143.859 0.6967523
vt -143.8114 0.6914914
vt -143.8311 0.6198021
vt -143.8671 0.6237685
vt -143.9067 0.702013
vt -143.903 0.6277344
vt -143.9854 0.5859656
vt -143.9854 0.7220485
vt -143.9124 0.7220485
vt -143.9124 0.5859656
vt -143.8304 0.6298081
vt -143.7627 0.685536
vt -143.7587 0.6495936
vt -143.8357 0.6774808
vt -143.7666 0.7214744
vt -143.8409 0.7251497
vt -143.8876 0.7214254
vt -143.8876 0.5877354
vt -143.9619 0.5877354
vt -143.9619 0.7214254
vn 0 1 0
vn 0 1 0
vn 0 1 0
vn 0 1 0
vn 0 1 0
vn 0 1 0
vn 0 -1 0
vn 0 -1 0
vn 0 -1 0
vn 0 -1 0
vn 0 -1 0
vn 0 -1 0
vn 0 -1 0
vn 0 -1 0
vn 0 -1 0
vn 0 1 0
vn 0 1 0
vn 0 1 0
vn 0 1 0
vn 0 1 0
vn 0 1 0
vn 0 -1 0
vn 0 -1 0
vn 0 -1 0
vn 0 -1 0
vn 0 -1 0
vn 0 -1 0
vn 0 -1 0
vn 0 -1 0
vn 0 -1 0
vn 0 1 0
vn 0 1 0
vn 0 1 0
vn 0 1 0
vn 0 1 0
vn 0 1 0
vn 0 1 0
vn 0 1 0
vn 0 1 0
vn 0 -1 0
vn 0 -1 0
vn 0 -1 0
vn 0 -1 0
vn 0 -1 0
vn 0 -1 0
vn 0 -1 0
vn 0 -1 0
vn 0 -1 0
vn 0 -1 0
vn 0 -1 0
vn 0 -1 0
vn 0 -1 0
vn 0 -1 0
vn 0 -1 0
vn 0 -1 0
vn 0 1 0
vn 0 1 0
vn 0 1 0
vn 0 1 0
vn 0 -1 0
vn 0 -1 0
vn 0 -1 0
vn 0 -1 0
vn 0 1 0
vn 0 1 0
vn 0 1 0
vn 0 1 0
vn 0 1 0
vn 0 1 0
vn 0 -1 0
vn 0 -1 0
vn 0 1 0
vn 0 1 0
vn 0 1 0
vn 0 1 0
vn 0 -1 0
vn 0 -1 0
vn 0 -1 0
vn 0 -1 0
vn 0 1 0
vn 0 1 0
vn 0 1 0
vn 0 1 0
vn 0 1 0
vn 0 1 0
vn 0 -1 0
vn 0 -1 0
vn 0 1 0
vn 0 1 0
vn 0 1 0
vn 0 1 0
vn 0 -1 0
vn 0 -1 0
vn 0 -1 0
vn 0 -1 0
vn 0 1 0
vn 0 1 0
vn 0 1 0
vn 0 1 0
vn 0 1 0
vn 0 1 0
vn 0 -1 0
vn 0 -1 0
vn 0 1 0
vn 0 1 0
vn 0 1 0
vn 0 1 0
vn 0 -1 0
vn 0 -1 0
vn 0 -1 0
vn 0 -1 0
vn 0 1 0
vn 0 1 0
vn 0 1 0
vn 0 1 0
vn 0 1 0
vn 0 1 0
vn 0 -1 0
vn 0 -1 0
vn 0 1 0
vn 0 1 0
vn 0 1 0
vn 0 1 0
vn 0 -1 0
vn 0 -1 0
vn 0 -1 0
vn 0 -1 0
vn 0 1 0
vn 0 1 0
vn 0 1 0
vn 0 1 0
vn 0 1 0
vn 0 1 0
vn 0 -1 0
vn 0 -1 0
vn 0 1 0
vn 0 1 0
vn 0 1 0
vn 0 1 0
vn 0 -1 0
vn 0 -1 0
vn 0 -1 0
vn 0 -1 0
vn 0 1 0
vn 0 1 0
vn 0 1 0
vn 0 1 0
vn 0 1 0
vn 0 1 0
vn 0 -1 0
vn 0 -1 0
vn 0 1 0
vn 0 1 0
vn 0 1 0
vn 0 1 0
vn 0 -1 0
vn 0 -1 0
vn 0 -1 0
vn 0 -1 0
vn 0 1 0
vn 0 1 0
vn 0 1 0
vn 0 1 0
vn 0 1 0
vn 0 1 0
vn 0 1 0
vn 0 1 0
vn 0 1 0
vn 0 1 0
vn 0 1 0
vn 0 1 0
vn 0 1 0
vn 0 1 0
vn 0 1 0
vn 0 1 0
vn 0 -1 0
vn 0 -1 0
vn 0 -1 0
vn 0 -1 0
vn 0 1 0
vn 0 1 0
vn 0 1 0
vn 0 1 0
vn 0 -1 0
vn 0 -1 0
vn 0 -1 0
vn 0 -1 0
vn 0 1 0
vn 0 1 0
vn 0 1 0
vn 0 1 0
vn 0 1 0
vn 0 1 0
vn 0 1 0
vn 0 1 0
vn 0 1 0
vn 0 1 0
vn 0 1 0
vn 0 1 0
vn 0 1 0
vn 0 1 0
vn 0 1 0
vn 0 1 0
vn 0 1 0
vn 0 1 0
vn 0 1 0
vn 0 1 0
vn 0 1 0
vn 0 1 0
vn 0 1 0
vn 0 1 0
vn 0 1 0
vn 0 1 0
vn 0 1 0
vn 0 1 0
vn 0 1 0
vn 0 1 0
vn 0 1 0
vn 0 1 0
vn 0 1 0
vn 0 1 0
vn 0 1 0
vn 0 1 0
vn 0 1 0
vn 0 1 0
vn 0 1 0
vn 0 1 0
vn 0 1 0
vn 0 1 0
vn 0 1 0
vn 0 1 0
vn 0 1 0
vn 0 1 0
vn 0 1 0
vn 0 1 0
vn 0 1 0
vn 0 1 0
vn 0 1 0
vn 0 1 0
vn 0 1 0
vn 0 1 0
vn 0 1 0
vn 0 1 0
vn 0 1 0
vn 0 1 0
vn 0 1 0
vn 0 1 0
vn 0 1 0
vn 0 1 0
vn 0 1 0
vn 0 1 0
vn 0 1 0
vn 0 1 0
vn 0 1 0
vn 0 1 0
vn 0 1 0
vn 0 1 0
vn 0 1 0
vn 0 1 0
vn 0 1 0
vn 0 1 0
vn 0 1 0
vn 0 1 0
vn 0 1 0
vn 0 1 0
vn 0 1 0
vn 0 1 0
vn 0 1 0
vn 0 1 0
vn 0 1 0
vn 0 1 0
vn 0 1 0
vn -0.3931073 0 0.9194926
vn -0.3931079 0 0.9194924
vn -0.1369344 0 0.9905801
vn -0.1369337 0 0.9905803
vn 0.1096924 0 0.9939656
vn -0.3931072 0 0.9194926
vn 0.109694 0 0.9939654
vn 0.3496483 0 0.9368811
vn 0.3496464 0 0.9368818
vn -0.1369337 0 0.9905803
vn 0.1096941 0 0.9939654
vn 0.1096934 0 0.9939656
vn -0.1369338 0 0.9905801
vn -0.3931072 0 0.9194926
vn 0.3496464 0 0.9368818
vn 0.3496483 0 0.9368811
vn 0.5841399 0 0.811653
vn 0.5841393 0 0.8116534
vn 0.3496464 0 0.9368818
vn 0.5841393 0 0.8116534
vn 0.5841395 0 0.8116533
vn 0.3496478 0 0.9368811
vn 0.1096941 0 0.9939654
vn 0.109694 0 0.9939654
vn 0.1096934 0 0.9939656
vn 0.5841393 0 0.8116534
vn 0.5841399 0 0.811653
vn 0.8009171 0 0.5987752
vn 0.8009181 0 0.5987739
vn 0.9513845 0 0.3080059
vn 0.5841393 0 0.8116534
vn 0.9513844 0 0.3080064
vn 0.992596 0 0.121463
vn 0.9925959 0 0.1214636
vn 0.8009181 0 0.5987738
vn 0.9513844 0 0.3080064
vn 0.9925959 0 0.1214636
vn 0.992596 0 0.1214631
vn 0.9513844 0 0.308006
vn 0.8009175 0 0.5987746
vn 0.5841395 0 0.8116533
vn -0.942329 0 0.334688
vn -0.9423302 0 0.3346848
vn -0.8613256 0 0.5080534
vn -0.8613251 0 0.5080543
vn -0.6511177 0 0.7589768
vn -0.942329 0 0.3346881
vn -0.6511183 0 0.7589763
vn -0.3931079 0 0.9194924
vn -0.3931073 0 0.9194926
vn -0.861325 0 0.5080543
vn -0.6511183 0 0.7589763
vn -0.3931072 0 0.9194926
vn -0.3931072 0 0.9194926
vn -0.651118 0 0.7589765
vn -0.8613256 0 0.5080535
vn -0.9423298 0 0.334686
vn 0 1 -9.481414E-07
vn 0 1 4.183932E-06
vn 0 1 4.917736E-05
vn 0 1 6.359154E-06
vn 0 1 -8.129655E-06
vn 0 1 2.599032E-05
vn 0 1 -2.455733E-06
vn 0 1 -8.322508E-06
vn 0 1 7.405632E-06
vn 0 1 8.999548E-06
vn 0 1 0
vn 0 1 0
vn 0 1 0
vn 0 1 -9.707448E-07
vn -0.1096919 0 -0.9939657
vn -0.1096919 0 -0.9939657
vn -0.1096919 0 -0.9939657
vn -0.1096919 0 -0.9939657
vn -0.1096865 0 -0.9939663
vn -0.1096865 0 -0.9939663
vn -0.1096865 0 -0.9939663
vn -0.1096865 0 -0.9939663
vn 0 1 -9.481414E-07
vn 0 1 -1.454017E-06
vn 0 1 4.183932E-06
vn 0 1 -1.271014E-06
vn 0 1 -9.707448E-07
vn 0 1 -1.09059E-06
vn 0.9804322 0 -0.196857
vn 0.9804322 0 -0.196857
vn 0.9804322 0 -0.196857
vn 0.9804322 0 -0.196857
vn 0 -1 0
vn 0 -1 0
vn 0 -1 0
vn 0 -1 0
vn 0 -1 0
vn 0 -1 0
vn -0.9990349 0 0.04392507
vn -0.9990349 0 0.04392507
vn -0.9990349 0 0.04392507
vn -0.9990349 0 0.04392507
vn -0.109698 0 -0.993965
vn -0.109698 0 -0.993965
vn -0.109692 0 -0.9939657
vn -0.109692 0 -0.9939657
vn -0.1096905 0 -0.9939658
vn -0.1096905 0 -0.9939658
vn -0.1096903 0 -0.9939658
vn -0.1096903 0 -0.9939658
vn -0.1096891 0 -0.993966
vn -0.1096891 0 -0.993966
vn 0 -1 0
vn 0 -1 4.917736E-05
vn 0 -1 5.476031E-06
vn 0 -1 1.889958E-05
vn 0 -1 -8.342966E-07
vn 0 -1 8.495383E-06
vn 0 -1 -6.158731E-06
vn 0 -1 0
vn 0 -1 6.158513E-06
vn 0 -1 -8.495555E-06
vn 0 -1 -8.858449E-06
vn 0 -1 0
vn 0 -1 0
vn 0 -1 0
vn -0.1096902 0 -0.9939659
vn -0.1096902 0 -0.9939659
vn -0.1096902 0 -0.9939659
vn -0.1096902 0 -0.9939659
vn -0.1096902 0 -0.9939659
vn -0.1096902 0 -0.9939659
vn -0.1096902 0 -0.9939659
vn -0.1096902 0 -0.9939659
vn 0 -1 0
vn 0 -1 5.476031E-06
vn 0 -1 0
vn 0 -1 0
vn 0 -1 0
vn 0 -1 0
vn 0.9804323 0 -0.1968569
vn 0.9804323 0 -0.1968569
vn 0.9804323 0 -0.1968569
vn 0.9804323 0 -0.1968569
vn 0 1 0
vn 0 1 -7.322178E-07
vn 0 1 0
vn 0 1 -7.218497E-07
vn 0 1 -1.454119E-06
vn 0 1 -1.454119E-06
vn -0.9990349 0 0.04392511
vn -0.9990349 0 0.04392511
vn -0.9990349 0 0.04392511
vn -0.9990349 0 0.04392511
vn 0 1 0
vn 0 1 0
vn 0 1 0
vn 0 1 0
vn 0 1 0
vn 0 1 0
vn 0 1 0
vn 0 1 0
vn 0 1 0
vn 0 1 0
vn 0 1 0
vn 0 1 0
vn 0 1 0
vn 0 1 0
vn 0 1 0
vn 0 1 0
vn 0 1 0
vn 0 1 0
vn 0 1 0
vn 0 1 0
vn 0 1 0
vn 0 1 0
vn 0 1 0
vn 0 1 0
vn 0 1 0
vn 0 1 0
vn 0 1 0
vn 0 1 0
vn 0 1 0
vn 0 1 0
vn 0 1 0
vn 0 1 0
vn 0 1 0
vn 0 1 0
vn 0 1 0
vn 0 1 0
vn 0 1 0
vn 0 1 0
vn 0 1 0
vn 0 1 0
vn 0 1 0
vn 0 1 0
vn -0.1369338 0 0.9905801
vn 0.109694 0 0.9939654
vn -0.9423298 0 0.334686
vn 0 1 0
vn 0 1 0
vn 0 1 0
vn 0 1 0
vn 0 1 0
vn 0 -1 0
vn 0 -1 0
vn -0.1096905 0 -0.9939658
vn -0.1096905 0 -0.9939658
vn -0.1096902 0 -0.9939659
vn -0.1096902 0 -0.9939659
vn 0 -1 0
vn 0 -1 0
vn 0 -1 0
vn 0 -1 0
vn 0 -1 0
vn 0 -1 0
vn 0 -1 0
vn 0 -1 0
vn 0 -1 0
vn 0 -1 0
vn 0.9804323 0 -0.1968569
vn 0.9804323 0 -0.1968569
vn 0.9804323 0 -0.1968569
vn 0.9804323 0 -0.1968569
vn 0 1 0
vn 0 1 0
vn 0 1 0
vn 0 1 0
vn 0 1 0
vn 0 1 0
usemtl Fridge_Secondary1_Mat
f 3/3/275 2/2/274 1/1/273
f 4/4/276 3/3/275 1/1/273
f 5/5/277 3/3/275 4/4/276
f 1/1/273 6/6/278 4/4/276
f 7/7/279 5/5/277 4/4/276
f 8/8/280 5/5/277 7/7/279
f 9/9/281 8/8/280 7/7/279
f 4/4/276 10/10/282 7/7/279
f 6/6/278 10/10/282 4/4/276
f 10/10/282 11/11/283 7/7/279
f 12/12/284 11/11/283 10/10/282
f 13/13/285 12/12/284 10/10/282
f 13/13/285 10/10/282 6/6/278
f 14/14/286 13/13/285 6/6/278
f 17/17/289 16/16/288 15/15/287
f 18/18/290 17/17/289 15/15/287
f 15/15/287 19/19/291 18/18/290
f 19/19/291 20/20/292 18/18/290
f 21/21/293 20/20/292 19/19/291
f 22/22/294 21/21/293 19/19/291
f 23/23/295 19/19/291 15/15/287
f 22/22/294 19/19/291 23/23/295
f 24/24/296 23/23/295 15/15/287
f 25/25/297 22/22/294 23/23/295
f 28/28/300 27/27/299 26/26/298
f 29/29/301 28/28/300 26/26/298
f 30/30/302 28/28/300 29/29/301
f 26/26/298 31/31/303 29/29/301
f 32/32/304 30/30/302 29/29/301
f 33/33/305 30/30/302 32/32/304
f 34/34/306 33/33/305 32/32/304
f 31/31/303 35/35/307 29/29/301
f 29/29/301 35/35/307 32/32/304
f 32/32/304 36/36/308 34/34/306
f 35/35/307 36/36/308 32/32/304
f 36/36/308 37/37/309 34/34/306
f 38/38/310 37/37/309 36/36/308
f 39/39/311 38/38/310 36/36/308
f 39/39/311 36/36/308 35/35/307
f 40/40/312 39/39/311 35/35/307
f 40/40/312 35/35/307 31/31/303
f 41/41/313 40/40/312 31/31/303
f 44/44/316 43/43/315 42/42/314
f 45/45/317 44/44/316 42/42/314
f 46/46/318 44/44/316 45/45/317
f 42/42/314 47/47/319 45/45/317
f 48/48/320 46/46/318 45/45/317
f 49/49/321 46/46/318 48/48/320
f 50/50/322 49/49/321 48/48/320
f 47/47/319 51/51/323 45/45/317
f 45/45/317 51/51/323 48/48/320
f 48/48/320 52/52/324 50/50/322
f 51/51/323 52/52/324 48/48/320
f 52/52/324 53/53/325 50/50/322
f 54/54/326 53/53/325 52/52/324
f 55/55/327 54/54/326 52/52/324
f 55/55/327 52/52/324 51/51/323
f 56/56/328 55/55/327 51/51/323
f 56/56/328 51/51/323 47/47/319
f 57/57/329 56/56/328 47/47/319
f 60/60/332 59/59/331 58/58/330
f 61/61/333 60/60/332 58/58/330
f 61/61/333 58/58/330 62/62/334
f 62/62/334 58/58/330 63/63/335
f 63/63/335 58/58/330 64/64/336
f 64/64/336 58/58/330 65/65/337
f 65/65/337 58/58/330 66/66/338
f 66/66/338 58/58/330 67/67/339
f 67/67/339 58/58/330 68/68/340
f 68/68/340 58/58/330 69/69/341
f 70/70/342 69/69/341 58/58/330
f 71/71/343 70/70/342 58/58/330
f 74/74/346 73/73/345 72/72/344
f 75/75/347 74/74/346 72/72/344
f 78/78/350 77/77/349 76/76/348
f 79/79/351 78/78/350 76/76/348
f 82/82/354 81/81/353 80/80/352
f 81/81/353 83/83/355 80/80/352
f 80/80/352 83/83/355 84/84/356
f 83/83/355 85/85/357 84/84/356
f 88/88/360 87/87/359 86/86/358
f 89/89/361 88/88/360 86/86/358
f 92/92/364 91/91/363 90/90/362
f 93/93/365 92/92/364 90/90/362
f 94/94/366 92/92/364 93/93/365
f 95/95/367 94/94/366 93/93/365
f 98/98/370 97/97/369 96/96/368
f 99/99/371 98/98/370 96/96/368
f 102/102/374 101/101/373 100/100/372
f 103/103/375 102/102/374 100/100/372
f 104/104/376 102/102/374 103/103/375
f 105/105/377 104/104/376 103/103/375
f 104/104/376 105/105/377 106/106/378
f 107/107/379 104/104/376 106/106/378
f 107/107/379 106/106/378 108/108/380
f 109/109/381 107/107/379 108/108/380
f 112/112/384 111/111/383 110/110/382
f 111/111/383 113/113/385 110/110/382
f 110/110/382 113/113/385 114/114/386
f 110/110/382 114/114/386 115/115/387
f 110/110/382 115/115/387 116/116/388
f 110/110/382 116/116/388 117/117/389
f 110/110/382 117/117/389 118/118/390
f 110/110/382 118/118/390 119/119/391
f 110/110/382 119/119/391 120/120/392
f 110/110/382 120/120/392 121/121/393
f 121/121/393 122/122/394 110/110/382
f 122/122/394 123/123/395 110/110/382
f 126/126/398 125/125/397 124/124/396
f 127/127/399 126/126/398 124/124/396
f 130/130/402 129/129/401 128/128/400
f 131/131/403 130/130/402 128/128/400
f 134/134/406 133/133/405 132/132/404
f 135/135/407 134/134/406 132/132/404
f 135/135/407 132/132/404 136/136/408
f 137/137/409 135/135/407 136/136/408
f 140/140/412 139/139/411 138/138/410
f 141/141/413 140/140/412 138/138/410
f 144/144/416 143/143/415 142/142/414
f 143/143/415 145/145/417 142/142/414
f 143/143/415 146/146/418 145/145/417
f 146/146/418 147/147/419 145/145/417
f 150/150/422 149/149/421 148/148/420
f 151/151/423 150/150/422 148/148/420
