# Blender 4.0.0
# www.blender.org
o decimated_mesh
v -0.106794 0.061436 -0.158024
v -0.100549 0.062286 -0.161253
v 0.195930 0.034321 -0.162953
v -0.101643 0.059411 -0.156273
v 0.195930 0.037680 -0.155061
v -0.211131 0.029394 -0.163226
v -0.183817 0.053764 -0.161298
v -0.166105 0.057880 -0.161273
v -0.148253 0.058325 -0.156421
v -0.136381 0.062029 -0.161043
v 0.195930 0.034410 -0.154180
v 0.195930 0.038529 -0.159021
v -0.213514 0.030174 -0.162107
v -0.212908 0.036518 -0.161227
v -0.195830 0.049547 -0.161172
v -0.197835 0.004732 -0.163475
v -0.202086 0.008968 -0.163332
v 0.195930 0.037333 -0.161516
v 0.195930 0.004732 -0.163486
v -0.179642 0.053301 -0.156601
v 0.195930 0.002105 -0.160422
v -0.193585 0.042889 -0.155339
v -0.197835 0.004732 -0.159594
v -0.200406 0.002107 -0.161920
v -0.212879 0.023978 -0.161332
v -0.213840 0.033450 -0.158626
v -0.203643 0.006812 -0.162170
v -0.210547 0.034410 -0.155749
v -0.213260 0.032452 -0.156376
v -0.200602 0.002240 -0.160766
v -0.212844 0.036688 -0.156644
v -0.193536 0.048867 -0.156801
v 0.195930 0.002057 -0.162171
v -0.204730 0.006845 -0.161095
vn -0.3954 -0.2922 0.8708
vn 0.0151 0.2602 0.9654
vn -0.0039 -0.0407 0.9992
vn 0.0354 0.4304 -0.9019
vn -0.0896 0.2373 0.9673
vn -0.0040 0.0180 -0.9998
vn 0.0766 0.9749 0.2089
vn -0.9948 -0.1016 0.0023
vn -0.3757 0.1624 -0.9124
vn -0.3127 0.8999 0.3041
vn -0.0006 -0.5092 -0.8606
vn -0.1300 0.9095 0.3948
vn -0.2026 -0.2235 0.9534
vn 0.0753 0.8992 -0.4310
vn -0.0405 0.8279 0.5594
vn -0.9712 0.1211 -0.2051
vn 0.0688 0.9239 0.3765
vn -0.2976 -0.2538 -0.9203
vn -0.1027 -0.1709 0.9799
vn 1.0000 -0.0000 -0.0000
vn -0.0038 -0.1301 0.9915
vn -0.0009 -0.4247 0.9053
vn -0.9491 0.1117 0.2944
vn -0.9562 0.2926 0.0025
vn -0.4913 0.7838 0.3798
vn -0.6292 -0.4660 -0.6221
vn -0.0623 0.1479 -0.9870
vn -0.9713 -0.1510 0.1836
vn -0.4134 -0.1788 -0.8928
vn -0.7593 -0.3536 0.5463
vn -0.0507 -0.0173 -0.9986
vn 0.0500 0.7233 0.6887
vn -0.0171 0.6290 0.7772
vn -0.0055 0.9696 0.2447
vn -0.1409 0.2353 0.9616
vn -0.1412 0.2363 0.9614
vn -0.1699 0.2268 -0.9590
vn -0.7420 -0.6686 -0.0495
vn -0.0000 0.0386 -0.9993
vn 0.0415 0.0325 -0.9986
vn -0.0095 0.0471 -0.9988
vn 0.0021 0.0401 -0.9992
vn -0.0062 0.0491 -0.9988
vn -0.2840 0.0883 0.9547
vn -0.2898 0.8925 0.3455
vn -0.0000 -0.4413 -0.8973
vn -0.1438 0.8823 0.4481
vn -0.6064 0.7949 -0.0211
vn -0.0052 0.0850 0.9964
vn -0.0316 0.1618 0.9863
vn -0.0016 0.0650 0.9979
vn -0.6693 -0.3276 -0.6669
vn -0.3030 -0.2733 -0.9130
vn 0.0008 -0.1897 0.9818
vn -0.4616 -0.1564 -0.8732
vn -0.4163 -0.1797 -0.8913
vn -0.0001 -0.9996 0.0277
vn -0.0004 -0.9934 0.1143
vn -0.2174 0.9335 0.2852
vn -0.0066 0.1021 -0.9948
vn -0.0001 0.0601 -0.9982
vn -0.0048 0.0760 -0.9971
vn -0.0228 0.1042 -0.9943
vn 0.0005 0.0180 -0.9998
vn -0.0000 0.0101 -0.9999
vn -0.4138 -0.1786 -0.8927
vn -0.4158 -0.1802 -0.8914
vn -0.2907 -0.2607 -0.9206
vn -0.3141 -0.2646 -0.9118
s 0
f 34//1 30//1 29//1
f 4//2 11//2 5//2
f 22//3 28//3 11//3
f 3//4 2//4 18//4
f 20//5 32//5 22//5
f 2//6 3//6 19//6
f 5//7 12//7 2//7
f 26//8 13//8 25//8
f 6//9 13//9 14//9
f 32//10 7//10 15//10
f 16//11 33//11 24//11
f 10//12 8//12 9//12
f 29//13 30//13 23//13
f 12//14 18//14 2//14
f 10//15 9//15 1//15
f 13//16 26//16 14//16
f 2//17 1//17 5//17
f 27//18 16//18 24//18
f 23//19 28//19 29//19
f 3//20 18//20 11//20
f 23//21 11//21 28//21
f 21//22 23//22 30//22
f 26//23 29//23 31//23
f 26//24 31//24 14//24
f 15//25 31//25 32//25
f 24//26 34//26 27//26
f 7//27 6//27 15//27
f 25//28 29//28 26//28
f 27//29 25//29 6//29
f 29//30 25//30 34//30
f 17//31 6//31 16//31
f 4//32 5//32 1//32
f 9//33 4//33 1//33
f 2//34 10//34 1//34
f 28//35 22//35 31//35
f 31//36 22//36 32//36
f 14//37 15//37 6//37
f 34//38 24//38 30//38
f 19//39 16//39 2//39
f 16//40 6//40 7//40
f 8//41 16//41 7//41
f 8//42 10//42 16//42
f 10//43 2//43 16//43
f 31//44 29//44 28//44
f 32//45 20//45 7//45
f 16//46 19//46 33//46
f 8//47 20//47 9//47
f 14//48 31//48 15//48
f 4//49 9//49 22//49
f 9//50 20//50 22//50
f 22//51 11//51 4//51
f 27//52 34//52 25//52
f 27//53 17//53 16//53
f 18//20 12//20 11//20
f 12//20 5//20 11//20
f 11//20 21//20 3//20
f 33//20 19//20 21//20
f 19//20 3//20 21//20
f 23//54 21//54 11//54
f 13//55 6//55 25//55
f 6//56 17//56 27//56
f 33//57 21//57 24//57
f 21//58 30//58 24//58
f 20//59 8//59 7//59
f 8//60 10//60 2//60
f 3//61 6//61 2//61
f 6//62 8//62 2//62
f 6//63 7//63 8//63
f 21//20 12//20 5//20
f 11//20 21//20 5//20
f 21//20 18//20 12//20
f 21//20 3//20 18//20
f 19//64 6//64 3//64
f 19//65 16//65 6//65
f 17//66 25//66 6//66
f 17//67 27//67 25//67
f 24//68 17//68 16//68
f 24//69 27//69 17//69
