# Blender 4.0.0
# www.blender.org
o decimated_mesh
v 0.195739 0.001826 -0.161647
v 0.212401 0.002146 -0.161938
v 0.195930 0.004727 -0.163486
v 0.209233 0.004727 -0.163393
v 0.208930 0.002090 -0.147993
v 0.212681 0.002300 -0.147977
v 0.199861 0.032359 -0.163690
v 0.207397 0.032610 -0.161755
v 0.197984 0.036216 -0.147917
v 0.195930 0.032433 -0.163539
v 0.207311 0.033450 -0.147978
v 0.195929 0.037441 -0.154449
v 0.203818 0.037397 -0.160967
v 0.195845 0.038261 -0.160656
v 0.200428 0.039016 -0.158533
v 0.204219 0.038129 -0.147978
v 0.200755 0.038468 -0.147978
vn 0.8330 0.5504 -0.0567
vn 0.4709 0.0826 -0.8783
vn -0.6985 -0.2256 0.6792
vn 0.2458 0.0730 -0.9666
vn 0.0159 0.4657 -0.8848
vn 0.0059 -0.5358 -0.8443
vn 0.2257 0.3201 -0.9201
vn 0.0070 -0.0084 -0.9999
vn 0.0764 0.8760 -0.4763
vn -0.5922 0.7375 0.3246
vn -0.3661 0.9219 0.1268
vn 0.0971 0.9941 0.0486
vn -0.1877 0.9806 0.0567
vn 0.3923 0.9176 -0.0638
vn 1.0000 -0.0060 0.0034
vn 0.9997 0.0200 -0.0110
vn -0.9946 -0.0002 -0.1035
vn 0.7980 0.6018 -0.0317
vn -0.9554 -0.0536 0.2904
vn -0.0260 0.4430 -0.8961
vn 0.0560 -0.9984 0.0099
vn 0.0192 -0.9998 0.0008
vn -0.0066 0.0001 -1.0000
vn 0.0044 0.0007 -1.0000
vn 0.0082 0.0053 1.0000
vn 0.0024 0.0242 0.9997
vn 0.9855 0.1699 -0.0042
vn 0.9865 0.1622 -0.0216
vn -0.0056 -0.4964 -0.8681
vn -0.0385 -0.0019 -0.9993
vn 0.9999 -0.0025 -0.0140
vn 0.9993 -0.0039 0.0374
vn -0.0045 -0.5353 -0.8447
vn 0.0061 -0.4854 -0.8743
vn 0.0042 0.0036 -1.0000
vn -0.0070 -0.0013 -1.0000
vn 0.7949 0.6039 -0.0586
vn 0.8340 0.5511 -0.0284
s 0
f 13//1 16//1 11//1
f 8//2 2//2 4//2
f 1//3 5//3 9//3
f 7//4 8//4 4//4
f 7//5 14//5 13//5
f 4//6 1//6 3//6
f 7//7 13//7 8//7
f 3//8 7//8 4//8
f 14//9 15//9 13//9
f 12//10 9//10 17//10
f 12//11 17//11 14//11
f 16//12 15//12 17//12
f 15//13 14//13 17//13
f 15//14 16//14 13//14
f 1//15 10//15 12//15
f 14//16 12//16 10//16
f 10//17 3//17 1//17
f 11//18 8//18 13//18
f 12//19 1//19 9//19
f 7//20 10//20 14//20
f 6//21 5//21 2//21
f 5//22 1//22 2//22
f 9//23 11//23 5//23
f 6//24 5//24 11//24
f 11//25 16//25 9//25
f 16//26 17//26 9//26
f 8//27 11//27 6//27
f 6//28 2//28 8//28
f 4//29 2//29 1//29
f 3//30 10//30 7//30
f 12//31 1//31 14//31
f 14//32 1//32 10//32
f 3//33 2//33 1//33
f 3//34 4//34 2//34
f 6//35 5//35 9//35
f 6//36 9//36 11//36
f 13//37 16//37 8//37
f 16//38 11//38 8//38
