# Blender 4.0.0
# www.blender.org
o decimated_mesh
v -0.100575 0.062287 0.161262
v 0.195930 0.032658 0.163572
v -0.106888 0.061448 0.158034
v -0.136391 0.062028 0.161042
v -0.165947 0.057923 0.161264
v -0.183808 0.053766 0.161299
v -0.211235 0.029332 0.163213
v 0.195930 0.037333 0.161516
v -0.139259 0.058853 0.156345
v 0.195930 0.037680 0.155061
v -0.100893 0.059378 0.156281
v -0.212908 0.036517 0.161227
v -0.213514 0.030174 0.162107
v -0.195828 0.049550 0.161185
v -0.199042 0.004945 0.163464
v 0.195930 0.004732 0.163486
v 0.195930 0.038529 0.159021
v -0.179277 0.053378 0.156574
v 0.195930 0.034701 0.154225
v -0.155371 0.057660 0.156898
v -0.213714 0.034410 0.159021
v -0.213634 0.030304 0.159083
v -0.204956 0.007155 0.161323
v -0.200493 0.002166 0.161959
v -0.193591 0.048900 0.156903
v -0.212855 0.036669 0.156640
v -0.213259 0.032494 0.156361
v -0.212795 0.023741 0.161335
v -0.200602 0.002240 0.160766
v 0.195930 0.002057 0.162171
v -0.193585 0.042889 0.155339
v -0.197835 0.004732 0.159594
v -0.210547 0.034410 0.155749
v 0.195930 0.002108 0.160419
vn -0.0006 -0.4758 0.8796
vn -0.1451 0.2491 -0.9576
vn 0.0753 0.8992 0.4310
vn -0.1698 0.2256 0.9593
vn -0.0618 0.4135 -0.9084
vn -0.4602 -0.3135 -0.8307
vn -0.3132 0.9010 -0.3003
vn -0.3817 0.1626 0.9099
vn 1.0000 -0.0000 -0.0000
vn 0.0331 0.4023 0.9149
vn -0.9928 -0.1150 0.0346
vn -0.0036 -0.1300 -0.9915
vn -0.0000 0.0384 0.9993
vn -0.0265 0.1524 -0.9880
vn -0.9644 0.1245 0.2335
vn -0.9991 -0.0189 0.0389
vn -0.0389 0.8387 -0.5432
vn 0.0689 0.9245 -0.3750
vn 0.0765 0.9749 -0.2089
vn -0.0807 0.8479 -0.5239
vn -0.3998 -0.1896 0.8968
vn 0.0158 0.2702 -0.9627
vn -0.9248 -0.2238 -0.3078
vn -0.9343 0.3564 0.0011
vn -0.9636 0.1093 -0.2440
vn -0.0037 -0.0409 -0.9992
vn -0.4929 0.7844 -0.3765
vn -0.2025 -0.2236 -0.9534
vn -0.2178 0.9333 -0.2854
vn -0.0004 -0.9981 -0.0619
vn -0.7522 -0.3552 -0.5550
vn -0.1008 -0.1702 -0.9802
vn -0.0055 0.9704 -0.2414
vn -0.0003 -0.4413 0.8973
vn -0.1005 0.2505 -0.9629
vn -0.1409 0.2353 -0.9617
vn -0.7468 -0.6645 0.0270
vn 0.0503 0.7263 -0.6856
vn -0.0099 0.6294 -0.7770
vn -0.2871 0.8922 -0.3486
vn -0.2798 0.0909 -0.9557
vn -0.0601 0.1449 0.9876
vn 0.0008 -0.1867 -0.9824
vn -0.9879 -0.0216 -0.1538
vn -0.0081 -0.0031 1.0000
vn -0.0065 0.0495 0.9988
vn 0.0019 0.0403 0.9992
vn -0.0090 0.0471 0.9988
vn 0.0419 0.0312 0.9986
vn -0.0015 0.0654 -0.9979
vn -0.0026 0.0718 -0.9974
vn -0.6065 0.7949 0.0193
vn -0.1539 0.8913 -0.4265
vn -0.1305 0.9193 -0.3714
vn -0.4125 -0.2576 0.8738
vn -0.3958 -0.1886 0.8988
vn -0.4777 -0.1570 0.8644
vn -0.0009 -0.4247 -0.9053
vn -0.0003 -0.9996 -0.0291
vn -0.0069 0.1031 0.9947
vn -0.0050 0.0760 0.9971
vn -0.0014 0.0638 0.9980
vn -0.0219 0.1026 0.9945
vn -0.0010 0.0098 1.0000
vn 1.0000 -0.0000 0.0001
vn -0.0001 -0.0031 1.0000
s 0
f 30//1 15//1 24//1
f 26//2 25//2 31//2
f 8//3 17//3 1//3
f 12//4 7//4 14//4
f 18//5 20//5 9//5
f 29//6 23//6 27//6
f 25//7 14//7 6//7
f 7//8 12//8 13//8
f 2//9 16//9 34//9
f 1//10 2//10 8//10
f 28//11 13//11 22//11
f 19//12 32//12 33//12
f 15//13 16//13 1//13
f 31//14 18//14 9//14
f 12//15 21//15 13//15
f 13//16 21//16 22//16
f 9//17 4//17 3//17
f 3//18 1//18 10//18
f 1//19 17//19 10//19
f 9//20 20//20 4//20
f 28//21 23//21 7//21
f 19//22 11//22 10//22
f 28//23 22//23 27//23
f 21//24 12//24 26//24
f 21//25 26//25 27//25
f 33//26 31//26 19//26
f 14//27 25//27 26//27
f 29//28 27//28 32//28
f 18//29 6//29 5//29
f 34//30 24//30 29//30
f 27//31 23//31 28//31
f 27//32 33//32 32//32
f 1//33 3//33 4//33
f 30//34 16//34 15//34
f 25//35 18//35 31//35
f 31//36 33//36 26//36
f 29//37 24//37 23//37
f 3//38 10//38 11//38
f 11//39 9//39 3//39
f 6//40 18//40 25//40
f 33//41 27//41 26//41
f 34//9 19//9 2//9
f 30//9 34//9 16//9
f 19//9 10//9 17//9
f 17//9 8//9 19//9
f 8//9 2//9 19//9
f 6//42 14//42 7//42
f 19//43 34//43 32//43
f 27//44 22//44 21//44
f 16//45 2//45 1//45
f 1//46 4//46 15//46
f 4//47 5//47 15//47
f 5//48 6//48 15//48
f 6//49 7//49 15//49
f 31//50 11//50 19//50
f 9//51 11//51 31//51
f 14//52 26//52 12//52
f 20//53 18//53 5//53
f 5//54 4//54 20//54
f 24//55 15//55 23//55
f 15//56 7//56 23//56
f 7//57 13//57 28//57
f 34//58 29//58 32//58
f 30//59 24//59 34//59
f 4//60 5//60 1//60
f 5//61 7//61 1//61
f 7//62 2//62 1//62
f 6//63 7//63 5//63
f 15//64 2//64 7//64
f 34//65 8//65 2//65
f 15//66 16//66 2//66
f 34//9 17//9 8//9
f 34//9 10//9 17//9
f 34//9 19//9 10//9
