# Blender 4.0.0
# www.blender.org
o decimated_mesh
v 0.208835 0.002430 -0.147978
v 0.212512 0.002031 -0.147978
v 0.208670 0.002242 0.150486
v 0.212671 0.002287 0.150485
v 0.207364 0.033287 -0.147978
v 0.207281 0.033471 0.150485
v 0.197733 0.035972 -0.147977
v 0.197871 0.036107 0.150485
v 0.203237 0.038726 -0.147978
v 0.202495 0.038994 0.150484
vn 0.0112 -0.9999 0.0009
vn -0.5296 0.8483 -0.0001
vn 0.7557 0.6549 0.0013
vn -0.9527 -0.3038 0.0006
vn 0.9854 0.1703 0.0002
vn -0.0000 -0.0000 -1.0000
vn -0.0000 -0.0000 1.0000
vn 0.0001 0.0004 1.0000
vn -0.1078 -0.9942 -0.0007
vn -0.4475 0.8943 -0.0019
vn 0.7966 0.6045 -0.0002
vn -0.9494 -0.3142 -0.0007
vn 0.9867 0.1625 -0.0007
vn 0.0003 0.0001 1.0000
vn -0.0004 -0.0000 1.0000
s 0
f 3//1 2//1 4//1
f 10//2 7//2 8//2
f 6//3 9//3 10//3
f 7//4 3//4 8//4
f 4//5 5//5 6//5
f 1//6 7//6 5//6
f 9//6 5//6 7//6
f 5//6 2//6 1//6
f 8//7 3//7 6//7
f 4//7 6//7 3//7
f 6//8 10//8 8//8
f 3//9 1//9 2//9
f 10//10 9//10 7//10
f 6//11 5//11 9//11
f 7//12 1//12 3//12
f 4//13 2//13 5//13
f 9//6 5//6 2//6
f 1//6 9//6 2//6
f 1//6 7//6 9//6
f 10//14 8//14 3//14
f 6//15 10//15 3//15
