# Blender 4.0.0
# www.blender.org
o decimated_mesh
v 0.195724 0.001804 0.161523
v 0.208983 0.002057 0.150501
v 0.212681 0.002301 0.150486
v 0.212413 0.002148 0.161919
v 0.209233 0.004727 0.163394
v 0.195930 0.004727 0.163485
v 0.195932 0.037335 0.154421
v 0.197896 0.036310 0.150447
v 0.207370 0.033257 0.150487
v 0.207346 0.032643 0.161767
v 0.199857 0.032352 0.163693
v 0.203476 0.037433 0.161079
v 0.195930 0.032376 0.163556
v 0.204479 0.038060 0.150509
v 0.200213 0.039058 0.158433
v 0.195851 0.038297 0.160614
v 0.200755 0.038497 0.150487
vn 0.8564 0.5154 0.0299
vn 0.1166 0.9912 -0.0621
vn -0.6236 -0.2030 -0.7549
vn -0.5386 0.7123 -0.4500
vn 0.2457 0.0729 0.9666
vn 0.4740 0.0831 0.8766
vn 0.3840 0.9189 0.0910
vn -0.0347 -0.0026 0.9994
vn 0.7653 0.6342 0.1103
vn -0.3443 0.9270 -0.1484
vn 0.9855 0.1691 0.0113
vn -0.0022 0.4587 0.8886
vn 0.0057 -0.5577 0.8300
vn 0.2249 0.3143 0.9223
vn -0.2115 0.9738 -0.0832
vn 0.0728 0.8873 0.4554
vn -0.0041 0.0003 1.0000
vn -0.0070 -0.0091 0.9999
vn -0.0070 -0.0088 0.9999
vn 0.0040 0.0007 1.0000
vn 1.0000 -0.0065 -0.0034
vn -0.9945 -0.0003 0.1047
vn 0.9998 0.0183 0.0101
vn 0.0069 -0.0085 0.9999
vn 0.9861 0.1640 0.0253
vn -0.0284 0.4445 0.8953
vn -0.0101 -0.5057 0.8626
vn -0.9016 -0.0797 -0.4252
vn 0.0205 -0.9998 0.0017
vn 0.0656 -0.9978 -0.0118
vn -0.0082 -0.5570 0.8305
vn 0.9994 -0.0044 -0.0356
vn 0.9999 -0.0032 0.0135
vn 0.0039 0.0028 1.0000
vn 0.0060 -0.4908 0.8712
vn -0.0071 -0.0089 0.9999
vn -0.0045 -0.0008 1.0000
vn -0.0069 -0.0088 0.9999
s 0
f 9//1 14//1 10//1
f 17//2 15//2 14//2
f 1//3 8//3 2//3
f 17//4 8//4 7//4
f 11//5 5//5 10//5
f 4//6 10//6 5//6
f 15//7 12//7 14//7
f 6//8 11//8 13//8
f 12//9 10//9 14//9
f 7//10 16//10 17//10
f 3//11 9//11 10//11
f 16//12 11//12 12//12
f 1//13 5//13 6//13
f 12//14 11//14 10//14
f 15//15 17//15 16//15
f 15//16 16//16 12//16
f 2//17 9//17 8//17
f 17//18 8//18 14//18
f 14//19 8//19 9//19
f 9//20 2//20 3//20
f 7//21 13//21 1//21
f 6//22 13//22 1//22
f 13//23 7//23 16//23
f 6//24 5//24 11//24
f 4//25 3//25 10//25
f 16//26 13//26 11//26
f 1//27 4//27 5//27
f 8//28 1//28 7//28
f 1//29 2//29 4//29
f 2//30 3//30 4//30
f 4//31 6//31 1//31
f 13//32 1//32 16//32
f 16//33 1//33 7//33
f 8//34 2//34 3//34
f 5//35 6//35 4//35
f 17//36 8//36 9//36
f 9//37 8//37 3//37
f 14//38 17//38 9//38
