# Blender 4.0.0
# www.blender.org
o decimated_mesh
v 0.009557 -0.443355 0.004322
v 0.010397 -0.419946 0.009161
v 0.011722 -0.445983 -0.007999
v 0.011823 -0.459695 -0.001086
v 0.012543 -0.452341 0.010382
v 0.010743 -0.419946 -0.005661
v 0.027655 -0.490629 0.009671
v 0.058748 -0.504590 0.009912
v 0.073439 -0.508032 0.004322
v 0.016911 -0.419933 -0.012871
v 0.025177 -0.474251 -0.012309
v 0.023101 -0.484191 -0.003195
v 0.062952 -0.506088 -0.004586
v 0.095486 -0.506740 0.009628
v 0.037344 -0.419948 0.010540
v 0.095491 -0.479129 0.010604
v 0.023347 -0.452437 -0.014774
v 0.038841 -0.488508 -0.013748
v 0.031410 -0.492964 -0.003912
v 0.065630 -0.500233 -0.012226
v 0.095487 -0.506427 -0.005862
v 0.030875 -0.419937 -0.013191
v 0.095487 -0.489534 -0.013436
v 0.095487 -0.480761 -0.007067
v 0.037620 -0.419946 -0.005416
v 0.095497 -0.500412 -0.012623
vn 0.9991 0.0354 0.0233
vn -0.9843 -0.0853 -0.1547
vn -0.9631 -0.1950 0.1855
vn 0.0041 -0.0745 -0.9972
vn -0.0000 -1.0000 -0.0017
vn -0.8899 -0.3565 0.2845
vn -0.0338 -0.7467 -0.6643
vn -0.2758 -0.7138 -0.6437
vn -0.0141 -0.1603 -0.9870
vn 0.7221 0.6888 -0.0638
vn 1.0000 -0.0002 -0.0002
vn -0.8997 -0.4234 0.1067
vn -0.7269 -0.6817 -0.0838
vn -0.0178 -0.9810 -0.1932
vn -0.9217 -0.0466 0.3851
vn -0.5768 -0.4866 -0.6562
vn -0.7887 -0.3178 -0.5263
vn 0.5328 0.4971 -0.6848
vn -0.3827 -0.9224 0.0527
vn -0.0120 -0.0106 0.9999
vn 0.9794 -0.0740 0.1878
vn 0.0050 -0.0263 -0.9996
vn -0.0229 0.0539 -0.9983
vn 0.0389 0.0396 -0.9985
vn -0.0000 -1.0000 -0.0000
vn -0.0003 -1.0000 -0.0008
vn -0.0001 -1.0000 -0.0001
vn -0.0129 -0.7915 -0.6111
vn -0.3229 -0.7463 -0.5821
vn -0.5551 -0.1392 -0.8201
vn -0.7596 0.0298 -0.6497
vn 0.7133 0.7008 0.0124
vn 1.0000 -0.0000 0.0001
vn 1.0000 0.0008 -0.0011
vn 1.0000 0.0001 0.0015
vn -0.2139 -0.9761 0.0389
vn 0.0633 -0.9978 -0.0202
vn -0.5710 -0.4868 -0.6610
vn -0.5250 -0.0542 -0.8494
vn -0.2356 -0.1286 -0.9633
vn 0.6084 0.5932 -0.5272
vn -0.7799 -0.2864 -0.5565
vn -0.4093 -0.9121 -0.0244
vn -0.0496 -0.9034 0.4259
vn -0.0511 0.0342 0.9981
vn 0.0118 -0.0139 0.9998
vn -0.0121 -0.0097 0.9999
vn 0.0056 -0.0353 0.9994
vn 0.9989 -0.0407 0.0233
vn 0.9855 0.0219 0.1684
vn -0.0001 -1.0000 -0.0006
vn 0.0021 -1.0000 -0.0000
vn -0.0034 -0.0022 1.0000
vn -0.0195 -0.0263 0.9995
vn -0.0078 -0.0159 0.9998
vn -0.0011 -1.0000 -0.0002
vn -0.0003 -1.0000 -0.0004
vn -0.5749 -0.4845 -0.6594
vn -0.5741 -0.4902 -0.6558
vn -0.4095 -0.9113 0.0434
vn 1.0000 0.0006 -0.0003
vn 1.0000 -0.0002 0.0004
vn -0.3844 -0.9230 -0.0161
vn 1.0000 -0.0016 -0.0000
vn -0.0133 -0.7471 -0.6646
vn -0.0323 -0.7878 -0.6151
s 0
f 3//1 6//1 2//1
f 1//2 3//2 4//2
f 1//3 4//3 5//3
f 23//4 26//4 18//4
f 25//5 6//5 10//5
f 4//6 7//6 5//6
f 13//7 26//7 21//7
f 18//8 20//8 13//8
f 18//9 26//9 20//9
f 25//10 16//10 24//10
f 16//11 14//11 24//11
f 4//12 12//12 7//12
f 12//13 19//13 7//13
f 21//14 9//14 13//14
f 2//15 1//15 5//15
f 19//16 11//16 18//16
f 12//17 4//17 11//17
f 22//18 24//18 23//18
f 13//19 7//19 19//19
f 16//20 15//20 7//20
f 3//21 2//21 1//21
f 18//22 17//22 23//22
f 17//23 10//23 22//23
f 22//24 23//24 17//24
f 6//25 25//25 2//25
f 10//26 22//26 25//26
f 15//27 2//27 25//27
f 13//28 20//28 26//28
f 13//29 19//29 18//29
f 17//30 11//30 3//30
f 6//31 10//31 3//31
f 25//32 15//32 16//32
f 14//33 21//33 24//33
f 24//34 26//34 23//34
f 21//35 26//35 24//35
f 9//36 8//36 13//36
f 21//37 14//37 9//37
f 19//38 12//38 11//38
f 10//39 17//39 3//39
f 17//40 18//40 11//40
f 22//41 25//41 24//41
f 3//42 11//42 4//42
f 13//43 8//43 7//43
f 14//44 8//44 9//44
f 2//45 5//45 15//45
f 5//46 7//46 15//46
f 7//47 8//47 16//47
f 8//48 14//48 16//48
f 2//49 1//49 6//49
f 6//50 1//50 3//50
f 15//51 2//51 10//51
f 10//52 2//52 6//52
f 16//53 15//53 5//53
f 7//54 8//54 5//54
f 8//55 16//55 5//55
f 25//56 15//56 22//56
f 22//57 15//57 10//57
f 18//58 12//58 11//58
f 18//59 19//59 12//59
f 19//60 8//60 7//60
f 26//61 24//61 16//61
f 14//62 26//62 16//62
f 19//63 13//63 8//63
f 14//64 21//64 26//64
f 21//65 20//65 26//65
f 20//66 21//66 13//66
