# Blender 4.0.0
# www.blender.org
o decimated_mesh
v 0.171879 0.019944 -0.020233
v 0.825886 0.007381 -0.013123
v 0.171884 0.005962 -0.015863
v 0.171880 0.034922 -0.015265
v 0.825886 0.033737 -0.012788
v 0.171884 0.001550 -0.007312
v 0.171880 0.038030 -0.006604
v 0.825880 0.001658 0.006193
v 0.171880 0.003203 0.004321
v 0.171879 0.034546 0.010782
v 0.825885 0.038286 0.004383
v 0.825885 0.006372 0.015412
v 0.171881 0.008873 0.012933
v 0.825885 0.034839 0.015295
v 0.825885 0.015656 0.021845
v 0.825885 0.026726 0.021024
vn -1.0000 0.0001 -0.0000
vn -0.0037 0.9805 0.1965
vn -0.0146 0.0835 0.9964
vn 0.0060 -0.9588 -0.2841
vn 0.0039 0.9667 -0.2561
vn 0.0035 0.8352 -0.5499
vn 1.0000 -0.0000 -0.0000
vn 0.0042 0.3148 -0.9491
vn 0.0030 0.9412 -0.3378
vn -0.0025 0.9536 0.3011
vn -0.0053 -0.5695 0.8219
vn -0.0059 0.5768 0.8169
vn -1.0000 -0.0004 -0.0002
vn -1.0000 -0.0005 -0.0003
vn -1.0000 -0.0000 -0.0000
vn -0.0144 0.0740 0.9972
vn 0.0046 -0.2983 -0.9545
vn 0.0051 0.8903 -0.4553
vn 1.0000 -0.0002 -0.0005
vn 1.0000 -0.0001 0.0003
vn 0.0111 0.0127 -0.9999
vn 0.0038 -0.8887 -0.4585
vn -0.0027 -0.9901 0.1407
vn 0.0034 0.8903 -0.4553
vn 0.0053 0.8352 -0.5499
vn 1.0000 -0.0000 0.0001
vn 1.0000 -0.0011 -0.0000
vn 1.0000 0.0001 -0.0000
s 0
f 10//1 7//1 1//1
f 10//2 11//2 7//2
f 13//3 16//3 10//3
f 2//4 8//4 6//4
f 11//5 5//5 7//5
f 9//6 13//6 8//6
f 11//7 16//7 12//7
f 4//8 5//8 1//8
f 7//9 5//9 4//9
f 14//10 11//10 10//10
f 13//11 12//11 15//11
f 10//12 16//12 14//12
f 3//13 6//13 1//13
f 6//14 9//14 1//14
f 13//15 10//15 1//15
f 7//1 4//1 1//1
f 13//15 1//15 9//15
f 13//16 15//16 16//16
f 1//17 2//17 3//17
f 8//18 13//18 12//18
f 15//7 12//7 16//7
f 12//19 8//19 11//19
f 2//7 5//7 11//7
f 11//7 14//7 16//7
f 8//20 2//20 11//20
f 1//21 5//21 2//21
f 2//22 6//22 3//22
f 8//23 9//23 6//23
f 8//24 9//24 12//24
f 12//25 9//25 13//25
f 15//26 12//26 2//26
f 12//27 8//27 2//27
f 11//28 14//28 2//28
f 14//7 16//7 2//7
f 16//7 15//7 2//7
