# Blender 4.0.0
# www.blender.org
o decimated_mesh
v 0.011827 0.438129 0.010002
v 0.011163 0.438067 -0.003734
v 0.010277 -0.419946 0.008982
v 0.015733 0.444737 0.008453
v 0.014872 0.429090 -0.010880
v 0.014509 -0.419947 -0.012102
v 0.050245 0.444832 0.010398
v 0.016707 0.444832 -0.007026
v 0.024279 0.444786 -0.014601
v 0.037458 -0.419946 0.010139
v 0.056173 0.444834 0.000052
v 0.043275 0.444836 -0.013294
v 0.030781 -0.419946 -0.013134
v 0.037613 -0.419946 -0.005416
vn -0.0551 0.2586 0.9644
vn -0.9988 0.0017 0.0483
vn -0.0000 -1.0000 -0.0000
vn 0.0129 0.9999 0.0069
vn -0.8561 0.5153 0.0390
vn -0.7834 0.6199 -0.0455
vn 0.7190 -0.0105 -0.6949
vn -0.3701 0.0015 -0.9290
vn 0.7487 -0.0119 -0.6628
vn 0.8676 -0.0130 0.4971
vn -0.0633 -0.0022 -0.9980
vn 0.9997 -0.0215 0.0100
vn -0.6988 0.2459 -0.6717
vn -0.0425 -0.0011 0.9991
vn -0.0103 -0.0001 0.9999
vn -0.9804 -0.0019 -0.1968
vn 0.0686 -0.0012 -0.9976
vn -0.0028 1.0000 0.0010
vn -0.0001 1.0000 0.0002
vn -0.0027 1.0000 0.0012
vn -0.8870 0.0010 -0.4618
vn -0.6845 0.2476 -0.6857
vn -0.0020 1.0000 -0.0080
vn -0.0031 1.0000 0.0059
s 0
f 7//1 4//1 1//1
f 2//2 3//2 1//2
f 14//3 10//3 3//3
f 4//4 9//4 8//4
f 1//5 4//5 2//5
f 2//6 4//6 8//6
f 12//7 11//7 13//7
f 6//8 5//8 9//8
f 11//9 14//9 13//9
f 10//10 11//10 7//10
f 6//11 9//11 13//11
f 10//12 14//12 11//12
f 8//13 5//13 2//13
f 1//14 3//14 10//14
f 10//15 7//15 1//15
f 2//16 6//16 3//16
f 12//17 13//17 9//17
f 3//3 6//3 14//3
f 6//3 13//3 14//3
f 4//18 7//18 12//18
f 11//19 12//19 7//19
f 12//20 9//20 4//20
f 6//21 2//21 5//21
f 8//22 9//22 5//22
f 6//3 10//3 3//3
f 14//3 10//3 6//3
f 8//23 12//23 9//23
f 12//19 8//19 7//19
f 8//24 4//24 7//24
