# Blender 4.0.0
# www.blender.org
o decimated_mesh
v 0.862944 0.267377 -0.002513
v 0.862642 0.256084 0.004330
v 0.858939 0.277160 -0.002245
v 0.858935 0.277749 0.102701
v 0.861947 0.256084 0.102678
v 0.856974 0.247726 0.001105
v 0.855732 0.250523 -0.011770
v 0.855839 0.247651 0.110691
v 0.855994 0.273189 -0.013521
v 0.849560 0.281865 -0.002681
v 0.849369 0.282999 0.102678
v 0.855720 0.273568 0.118950
v 0.862443 0.266091 0.107308
v 0.855882 0.259887 0.119096
v 0.816486 0.282748 -0.000676
v 0.832742 0.274301 0.109325
v 0.842960 0.273692 0.118901
v 0.849369 0.278419 0.113601
v 0.849369 0.253889 0.118138
v 0.816736 0.246338 0.006249
v 0.816873 0.249992 -0.012403
v 0.840517 0.249166 0.111149
v 0.816874 0.274388 -0.013520
v 0.816876 0.274591 0.017892
v 0.842406 0.261871 0.119298
v 0.833710 0.254356 0.109347
vn 0.8451 -0.4998 -0.1901
vn 0.8625 0.3627 -0.3530
vn 0.4262 0.8126 -0.3975
vn 0.4575 0.8351 0.3054
vn 0.8867 0.3742 0.2717
vn 0.8813 -0.2696 0.3880
vn 0.0241 0.7874 -0.6160
vn 0.0345 -0.9994 -0.0003
vn -0.0968 -0.9941 0.0487
vn 0.0047 0.7435 0.6688
vn 0.4375 0.4911 -0.7532
vn -0.4180 0.8990 0.1308
vn 0.3543 0.8624 0.3616
vn 0.3723 -0.5264 0.7644
vn 0.0260 0.9996 -0.0107
vn 1.0000 -0.0049 -0.0000
vn 0.9986 -0.0528 0.0071
vn -0.0014 -0.0457 -0.9990
vn -0.9314 0.3257 0.1627
vn 0.8135 -0.5815 0.0080
vn -0.6251 -0.7635 0.1623
vn -0.3148 0.8650 0.3908
vn -0.0073 -0.1500 0.9887
vn -0.9839 -0.0639 0.1670
vn -0.0599 -0.7902 0.6099
vn 0.8702 0.0156 0.4925
vn 0.0093 -0.9813 -0.1922
vn -0.6809 0.0564 0.7302
vn 0.0198 0.0327 0.9993
vn -0.7392 -0.0351 0.6726
vn -0.0107 0.8379 -0.5457
vn 0.4694 0.3315 -0.8184
vn 0.9567 0.2909 0.0078
vn 0.9254 0.3789 -0.0021
vn 1.0000 0.0003 0.0074
vn 0.9989 0.0469 -0.0004
vn 0.4811 0.8766 -0.0086
vn 0.4486 0.8937 -0.0050
vn 0.9997 -0.0241 0.0043
vn 0.0173 -0.0772 -0.9969
vn 0.8266 -0.5628 0.0058
vn -0.3116 0.8763 0.3674
vn -0.9842 -0.0476 0.1706
vn 0.0168 -0.9767 -0.2138
vn 0.8317 -0.0523 -0.5527
vn -0.0037 0.0107 0.9999
vn 0.9218 -0.2186 -0.3201
vn 0.8970 -0.2215 0.3826
vn 0.4487 0.8936 -0.0088
vn 0.4811 0.8767 -0.0049
vn 0.9999 0.0086 0.0090
vn 0.9996 0.0013 0.0293
vn -0.0035 0.0338 0.9994
vn 0.0166 0.0109 0.9998
vn 0.9998 0.0031 -0.0196
vn 0.5116 0.4087 -0.7558
vn 0.3890 0.4557 -0.8006
s 0
f 2//1 6//1 7//1
f 1//2 9//2 3//2
f 3//3 9//3 10//3
f 4//4 11//4 12//4
f 4//5 12//5 13//5
f 5//6 14//6 8//6
f 10//7 9//7 23//7
f 20//8 6//8 8//8
f 20//9 8//9 22//9
f 17//10 12//10 18//10
f 26//11 25//11 19//11
f 11//12 15//12 16//12
f 11//13 18//13 12//13
f 8//14 14//14 19//14
f 10//15 15//15 11//15
f 24//16 20//16 23//16
f 2//17 13//17 5//17
f 9//18 21//18 23//18
f 15//19 24//19 16//19
f 6//20 5//20 8//20
f 22//21 26//21 20//21
f 18//22 16//22 17//22
f 19//23 14//23 25//23
f 26//24 24//24 20//24
f 19//25 22//25 8//25
f 14//26 13//26 12//26
f 21//27 6//27 20//27
f 16//28 25//28 17//28
f 17//29 25//29 14//29
f 26//30 25//30 16//30
f 15//31 10//31 23//31
f 26//32 19//32 22//32
f 13//33 1//33 4//33
f 1//34 3//34 4//34
f 23//35 20//35 21//35
f 24//36 23//36 15//36
f 10//37 11//37 4//37
f 3//38 10//38 4//38
f 2//39 1//39 13//39
f 9//40 7//40 21//40
f 6//41 2//41 5//41
f 18//42 11//42 16//42
f 26//43 16//43 24//43
f 21//44 7//44 6//44
f 9//45 1//45 7//45
f 12//46 17//46 14//46
f 2//47 7//47 1//47
f 13//48 14//48 5//48
f 10//49 11//49 3//49
f 11//50 4//50 3//50
f 20//51 21//51 15//51
f 15//52 21//52 23//52
f 17//53 25//53 12//53
f 25//54 14//54 12//54
f 24//55 20//55 15//55
f 26//56 25//56 22//56
f 22//57 25//57 19//57
