# Blender 4.0.0
# www.blender.org
o decimated_mesh
v 0.007872 0.518368 -0.007305
v 0.663476 0.512771 -0.001273
v 0.001919 0.510097 -0.003695
v -0.003047 0.518368 -0.005438
v -0.003047 0.529295 -0.004643
v 0.007808 0.529211 -0.006468
v 0.064628 0.502954 0.003294
v 0.008205 0.504571 0.006327
v -0.003137 0.506931 0.006301
v -0.009271 0.512828 -0.002195
v -0.008778 0.534797 -0.001367
v 0.004968 0.536556 -0.003036
v 0.522081 0.534919 -0.001221
v 0.980437 0.529295 0.001597
v 0.980437 0.518368 0.000646
v 0.980437 0.509004 0.005624
v -0.010176 0.510749 0.009305
v -0.012206 0.518378 0.006531
v -0.011783 0.528908 0.008422
v -0.002680 0.538391 0.006708
v 0.009334 0.540435 0.007697
v 0.980437 0.537295 0.006575
v 0.997332 0.536132 0.009482
v 0.991356 0.529295 0.003792
v 0.991356 0.518368 0.002945
v 0.991356 0.510124 0.006799
v 0.980437 0.504653 0.015269
v 0.914925 0.503001 0.013229
v -0.009598 0.535942 0.015269
v 0.980437 0.540300 0.015269
v 0.998731 0.522580 0.007374
v 0.998122 0.511531 0.009143
v 0.991356 0.506849 0.015269
v 0.012630 0.504023 0.084785
v -0.002557 0.506567 0.063042
v -0.010193 0.510742 0.048040
v -0.012715 0.518408 0.046949
v 1.000091 0.529295 0.015269
v 1.000687 0.518368 0.015269
v -0.011881 0.529295 0.048040
v -0.003047 0.538744 0.048040
v 0.010312 0.540486 0.079727
v 0.991356 0.506886 0.058981
v 0.978747 0.504709 0.088925
v 0.020845 0.505687 0.101379
v -0.008543 0.512512 0.075565
v -0.008283 0.534531 0.068994
v -0.001360 0.536277 0.082208
v 0.023460 0.539983 0.099628
v 1.000153 0.529165 0.053224
v 1.000669 0.518261 0.053623
v 0.997366 0.511288 0.071428
v 0.969519 0.504916 0.102676
v 0.013085 0.511137 0.108704
v 0.507189 0.505815 0.157815
v -0.008863 0.526353 0.076896
v 0.990852 0.538131 0.074695
v 0.971909 0.540536 0.099509
v 0.987011 0.511256 0.096707
v 0.976963 0.510934 0.110851
v 0.963849 0.510958 0.118537
v 0.011580 0.517067 0.109558
v 0.013474 0.534904 0.109303
v 0.333836 0.539265 0.146311
v 0.688744 0.539362 0.146276
v 0.967361 0.537864 0.111996
v 0.976467 0.535994 0.110194
v 0.997059 0.534808 0.068193
v 0.997181 0.528104 0.078449
v 0.995167 0.518680 0.085797
v 0.978353 0.518368 0.112752
v 0.971883 0.518300 0.118553
v 0.761865 0.505126 0.139367
v 0.173360 0.512918 0.139558
v 0.227189 0.510702 0.145974
v 0.493673 0.518392 0.169467
v 0.477876 0.510409 0.165193
v 0.211369 0.539133 0.135083
v 0.491088 0.536063 0.164629
v 0.492685 0.529228 0.168356
v 0.799168 0.539526 0.135261
v 0.987203 0.534618 0.096662
v 0.961073 0.535123 0.118820
v 0.977956 0.529295 0.112251
v 0.968920 0.528850 0.118933
v 0.792609 0.509797 0.144553
v 0.190827 0.526007 0.143601
v 0.594652 0.512238 0.163402
v 0.636794 0.523961 0.162825
v 0.381890 0.524685 0.163050
v 0.397699 0.513052 0.162784
v 0.427457 0.534620 0.162583
v 0.579384 0.534694 0.162670
v 0.813677 0.535914 0.142006
v 0.803601 0.514682 0.146424
v 0.745697 0.511651 0.152070
v 0.208539 0.518291 0.146094
v 0.768730 0.523677 0.152404
v 0.302261 0.535463 0.152320
v 0.261783 0.524878 0.152161
v 0.201871 0.535700 0.141776
v 0.726230 0.535562 0.152065
vn 0.0891 0.1819 -0.9793
vn -0.0120 -0.9943 0.1057
vn -0.0408 -0.4075 0.9123
vn -0.1874 -0.9052 -0.3815
vn -0.2677 -0.8712 -0.4114
vn -0.2014 -0.3163 -0.9270
vn 0.8390 -0.1553 0.5215
vn 0.1645 -0.1821 0.9694
vn -0.2770 0.9384 0.2067
vn 0.0136 -0.4694 -0.8829
vn -0.1568 0.9409 -0.3002
vn -0.5298 -0.8263 -0.1911
vn -0.0339 -0.9032 0.4279
vn -0.8089 0.3646 0.4613
vn 0.1094 -0.5606 0.8208
vn 0.0117 0.5283 -0.8490
vn -0.0516 0.0972 0.9939
vn 0.5900 -0.8074 0.0007
vn 0.0358 -0.9109 -0.4110
vn 0.5596 0.1835 -0.8082
vn 0.5738 -0.1602 -0.8031
vn 0.3729 -0.3930 -0.8405
vn 0.3038 -0.8886 -0.3436
vn -0.3458 0.9382 -0.0111
vn 0.9482 0.1421 -0.2842
vn 0.9524 -0.0987 -0.2886
vn 0.4207 -0.8631 0.2792
vn -0.0010 1.0000 0.0050
vn 0.0650 0.3613 0.9302
vn -0.9406 0.0338 -0.3379
vn 0.0081 -0.1193 -0.9928
vn -0.1649 0.0716 -0.9837
vn -0.4771 -0.8789 -0.0007
vn 0.0622 0.9294 0.3638
vn 0.1407 0.9900 0.0115
vn 0.0083 0.0867 -0.9962
vn -0.4222 0.9027 -0.0829
vn 0.4239 -0.8986 0.1132
vn -0.3683 -0.8892 0.2715
vn 0.1791 0.5322 -0.8274
vn 0.9989 0.0473 0.0006
vn 0.4870 -0.8506 0.1984
vn 0.2447 -0.8737 0.4203
vn 0.9807 -0.0661 0.1841
vn 0.9755 0.0532 -0.2133
vn 0.8366 0.4630 0.2928
vn 0.1204 0.9382 -0.3243
vn -0.1814 0.0333 0.9828
vn -0.0359 0.8606 0.5080
vn -0.9990 0.0424 -0.0126
vn 0.0025 0.9451 -0.3267
vn 0.2470 0.9252 0.2879
vn 0.0082 0.1710 -0.9852
vn 0.6384 -0.3005 0.7086
vn 0.4415 -0.4848 0.7550
vn 0.7839 -0.2873 0.5504
vn 0.8465 0.0625 0.5287
vn 0.0069 -0.8127 -0.5826
vn -0.1396 0.4194 0.8970
vn -0.0604 0.6204 -0.7820
vn -0.9751 0.1860 0.1209
vn 0.0405 0.9739 0.2231
vn -0.8093 -0.2798 0.5166
vn 0.2717 0.7800 0.5638
vn 0.7532 0.3403 0.5630
vn 0.3978 0.5114 0.7617
vn 0.5446 0.3545 0.7601
vn 0.6661 0.0583 0.7436
vn 0.5848 0.1354 0.7998
vn -0.4637 0.0437 -0.8849
vn 0.1965 0.0758 -0.9776
vn 0.0045 0.8504 -0.5262
vn -0.9535 0.3014 -0.0053
vn -0.1333 0.9244 0.3575
vn 0.0798 -0.2170 -0.9729
vn -0.1318 0.9913 0.0011
vn -0.1838 -0.1855 0.9653
vn -0.2037 -0.9790 -0.0042
vn -0.1591 0.3774 -0.9123
vn 0.1814 -0.9834 0.0049
vn -0.0441 -0.8254 0.5629
vn -0.9458 -0.2984 -0.1284
vn -0.0500 -0.8875 -0.4580
vn 0.3864 0.8986 0.2079
vn 0.1535 0.2489 0.9563
vn -0.9503 -0.3018 0.0764
vn 0.0065 -0.7205 -0.6934
vn -0.8544 -0.0693 0.5150
vn 0.0252 -0.9997 0.0013
vn 0.0687 -0.9088 0.4115
vn -0.0368 0.8412 -0.5395
vn 0.0749 0.3967 -0.9149
vn -0.1189 0.0475 0.9918
vn 0.0211 -0.5041 0.8634
vn 0.4896 0.8717 0.0219
vn -0.2925 0.9335 0.2075
vn -0.1377 0.9481 -0.2866
vn -0.0937 -0.8438 0.5285
vn -0.0268 -0.9720 0.2335
vn 0.0217 -0.8078 0.5891
vn -0.0324 0.9046 -0.4250
vn -0.0331 0.8732 -0.4862
vn 0.5713 -0.8207 0.0037
vn -0.3222 0.9430 0.0840
vn -0.5370 0.8428 0.0353
vn -0.3941 0.9151 0.0855
vn 0.8887 0.1483 0.4338
vn 0.3982 -0.8734 0.2803
vn -0.0066 1.0000 -0.0035
vn 0.0001 1.0000 0.0083
vn -0.0003 1.0000 0.0065
vn 0.0401 0.9992 -0.0013
vn 0.0037 1.0000 0.0043
vn -0.0024 0.9999 0.0140
vn 0.0466 0.2632 0.9636
vn 0.0758 0.2982 0.9515
vn 0.4850 0.0676 -0.8719
vn -0.9656 0.0831 -0.2464
vn -0.1680 0.0748 -0.9829
vn -0.1610 -0.2952 -0.9418
vn 0.1632 0.0103 0.9865
vn 0.1653 -0.0149 0.9861
vn -0.4790 -0.8778 -0.0004
vn -0.0003 0.9847 0.1743
vn -0.0387 0.9104 0.4119
vn -0.0672 0.9233 0.3782
vn -0.0734 0.9122 0.4032
vn -0.0381 0.9227 0.3836
vn -0.0301 0.9085 0.4169
vn 0.0249 0.9021 0.4307
vn 0.0381 0.9306 0.3640
vn 0.0391 0.9134 0.4051
vn 0.0677 0.9026 0.4250
vn 0.2376 0.9714 -0.0062
vn 0.0082 0.0770 -0.9970
vn 0.1034 0.3957 0.9125
vn -0.4552 -0.8510 0.2618
vn -0.4398 -0.8744 0.2049
vn 0.9129 -0.4082 0.0095
vn 0.9365 -0.3508 -0.0005
vn 0.1683 0.5208 -0.8369
vn 0.9985 0.0544 -0.0014
vn 0.9916 0.0513 0.1190
vn 0.9854 -0.0563 0.1608
vn -0.1021 -0.8100 0.5774
vn -0.1710 -0.0752 0.9824
vn -0.1919 -0.0466 0.9803
vn -0.9970 0.0768 -0.0032
vn 0.0028 0.9401 -0.3409
vn 0.0654 -0.9245 0.3756
vn 0.8504 0.0549 0.5232
vn -0.1828 0.4615 0.8681
vn 0.0420 0.1057 0.9935
vn -0.1602 0.3558 0.9207
vn 0.1254 -0.5882 0.7990
vn -0.5045 0.0627 -0.8612
vn 0.2053 0.0848 -0.9750
vn 0.9708 0.2058 0.1231
vn -0.9499 -0.3126 -0.0005
vn -0.9652 -0.2612 -0.0120
vn -0.8819 0.4702 0.0339
vn -0.9311 0.3579 -0.0705
vn -0.1803 0.8966 0.4045
vn -0.0919 -0.2412 0.9661
vn -0.8248 0.4221 0.3763
vn -0.8312 0.0961 0.5476
vn -0.1670 0.9859 -0.0099
vn 0.9274 0.3741 -0.0002
vn 0.8923 0.4512 0.0143
vn 0.0269 0.4835 0.8749
vn -0.0390 0.4714 0.8811
vn -0.1689 -0.9856 0.0026
vn -0.1513 0.3698 -0.9167
vn 0.1972 -0.9804 0.0008
vn 0.8407 -0.4183 0.3438
vn 0.1064 -0.2306 0.9672
vn -0.0614 -0.0246 -0.9978
vn -0.0731 0.1673 -0.9832
vn -0.0968 0.3561 0.9294
vn -0.1094 0.3028 0.9468
vn -0.0853 0.3119 0.9463
vn -0.0582 0.3115 0.9485
vn -0.0731 0.3786 0.9227
vn -0.6042 -0.7921 0.0872
vn 0.3871 0.8964 0.2159
vn 0.0045 0.4247 -0.9053
vn -0.1251 -0.3223 0.9383
vn 0.1531 0.2089 0.9659
vn 0.0050 -0.4030 -0.9152
vn 0.6316 0.7423 0.2236
vn 0.0230 0.9191 0.3932
vn -0.9899 -0.0360 0.1369
vn -0.9918 0.0650 0.1104
vn 0.0054 -0.6746 -0.7382
vn 0.0050 -0.9998 0.0184
vn 0.0025 -0.9998 0.0199
vn 0.0011 0.9998 -0.0218
vn 0.0001 0.9999 -0.0167
vn -0.0015 0.9999 -0.0141
vn -0.0289 -0.9996 -0.0053
vn -0.1681 0.0715 -0.9832
vn -0.1648 0.0749 -0.9835
vn -0.4920 0.0438 -0.8695
vn -0.4475 0.0649 -0.8919
vn 0.1964 0.0850 -0.9768
vn 0.2054 0.0756 -0.9757
vn -0.1873 0.4161 0.8898
vn -0.1418 0.4647 0.8741
vn 0.0001 0.9999 -0.0131
vn 0.0026 0.9401 -0.3408
vn -0.1365 0.9030 0.4074
vn -0.1844 0.9167 0.3545
vn -0.0002 0.9999 -0.0171
vn 0.0006 0.9996 -0.0287
vn -0.0000 1.0000 -0.0007
vn 0.0002 1.0000 -0.0028
vn 0.0027 0.9451 -0.3267
vn 0.5856 -0.8106 0.0040
vn 0.5694 -0.8220 0.0007
vn -0.0464 0.8633 -0.5025
vn -0.0334 0.8711 -0.4899
vn -0.0329 0.8726 -0.4874
vn -0.0016 0.9997 0.0264
vn -0.0005 0.9998 0.0207
vn 0.0026 0.9992 0.0407
vn -0.0003 0.9997 0.0234
vn 0.0771 -0.1750 0.9815
vn 0.0723 -0.2119 0.9746
vn 0.0512 -0.1353 0.9895
vn -0.1835 -0.0582 0.9813
vn -0.1881 0.0340 0.9816
vn -0.0064 0.9983 0.0576
vn -0.0367 0.9203 0.3895
vn 0.0255 0.9036 0.4277
vn 0.0360 0.9264 0.3749
vn 0.0233 0.9098 0.4144
vn 0.0423 0.9158 0.3995
vn 0.0600 0.9280 0.3678
vn 0.0722 0.9007 0.4284
vn 0.8482 0.0656 0.5255
vn 0.8469 0.0550 0.5289
vn 0.1638 -0.0207 0.9863
vn 0.1646 0.0107 0.9863
vn 0.1558 0.2123 0.9647
vn 0.1516 0.2547 0.9551
vn -0.0631 -0.1084 0.9921
vn -0.0896 -0.1443 0.9855
vn -0.0912 -0.1667 0.9818
vn -0.0408 0.9114 0.4095
s 0
f 97//1 100//1 90//1
f 34//2 55//2 45//2
f 76//3 91//3 77//3
f 3//4 8//4 9//4
f 3//5 9//5 10//5
f 3//6 10//6 4//6
f 59//7 70//7 71//7
f 72//8 95//8 61//8
f 49//9 42//9 63//9
f 2//10 15//10 16//10
f 20//11 12//11 11//11
f 9//12 17//12 10//12
f 77//13 75//13 55//13
f 48//14 56//14 63//14
f 96//15 86//15 95//15
f 13//16 22//16 14//16
f 80//17 90//17 76//17
f 52//18 43//18 33//18
f 16//19 27//19 28//19
f 24//20 23//20 31//20
f 25//21 31//21 32//21
f 25//22 32//22 26//22
f 26//23 32//23 33//23
f 41//24 20//24 29//24
f 23//25 38//25 31//25
f 31//26 39//26 32//26
f 60//27 44//27 59//27
f 65//28 81//28 30//28
f 102//29 93//29 89//29
f 18//30 11//30 10//30
f 1//31 15//31 2//31
f 6//32 4//32 5//32
f 17//33 9//33 35//33
f 94//34 83//34 81//34
f 57//35 30//35 58//35
f 6//36 14//36 15//36
f 20//37 11//37 29//37
f 44//38 43//38 52//38
f 34//39 45//39 54//39
f 24//40 22//40 23//40
f 39//41 50//41 51//41
f 44//42 52//42 59//42
f 53//43 60//43 61//43
f 52//44 69//44 70//44
f 39//45 31//45 38//45
f 82//46 69//46 68//46
f 30//47 23//47 22//47
f 63//48 62//48 74//48
f 99//49 92//49 79//49
f 19//50 18//50 37//50
f 30//51 22//51 12//51
f 58//52 66//52 67//52
f 6//53 13//53 14//53
f 60//54 71//54 72//54
f 60//55 72//55 61//55
f 60//56 59//56 71//56
f 82//57 71//57 70//57
f 28//58 7//58 16//58
f 16//59 26//59 25//59
f 98//60 76//60 89//60
f 56//61 47//61 40//61
f 58//62 81//62 66//62
f 54//63 62//63 46//63
f 66//64 83//64 67//64
f 67//65 84//65 82//65
f 67//66 83//66 85//66
f 67//67 85//67 84//67
f 71//68 84//68 72//68
f 72//69 84//69 85//69
f 5//70 10//70 11//70
f 25//71 14//71 24//71
f 22//72 13//72 12//72
f 29//73 19//73 40//73
f 33//74 26//74 16//74
f 97//75 76//75 91//75
f 21//76 41//76 42//76
f 62//77 54//77 74//77
f 8//78 35//78 9//78
f 12//79 5//79 11//79
f 27//80 43//80 44//80
f 91//81 75//81 77//81
f 17//82 18//82 10//82
f 8//83 3//83 7//83
f 82//84 57//84 58//84
f 85//85 94//85 98//85
f 36//86 46//86 37//86
f 7//87 2//87 16//87
f 46//88 62//88 56//88
f 28//89 27//89 44//89
f 73//90 61//90 86//90
f 86//91 73//91 55//91
f 97//92 90//92 76//92
f 97//93 100//93 87//93
f 77//94 88//94 76//94
f 68//95 23//95 57//95
f 42//96 48//96 63//96
f 20//97 21//97 12//97
f 75//98 54//98 45//98
f 45//99 55//99 75//99
f 77//100 55//100 88//100
f 55//101 96//101 86//101
f 96//102 55//102 88//102
f 33//103 32//103 52//103
f 42//104 41//104 48//104
f 29//105 47//105 41//105
f 47//106 48//106 41//106
f 69//107 82//107 70//107
f 60//108 53//108 44//108
f 81//109 58//109 30//109
f 30//110 21//110 64//110
f 65//111 30//111 64//111
f 21//112 42//112 49//112
f 49//113 78//113 21//113
f 78//114 64//114 21//114
f 93//115 80//115 89//115
f 89//116 98//116 102//116
f 31//117 25//117 24//117
f 18//118 19//118 11//118
f 6//119 1//119 4//119
f 3//120 4//120 1//120
f 72//121 85//121 95//121
f 85//122 98//122 95//122
f 36//123 17//123 35//123
f 65//124 64//124 79//124
f 64//125 78//125 101//125
f 78//126 49//126 101//126
f 101//127 49//127 63//127
f 101//128 99//128 64//128
f 99//129 79//129 64//129
f 79//130 102//130 65//130
f 102//131 94//131 65//131
f 81//132 65//132 94//132
f 66//133 81//133 83//133
f 57//134 23//134 30//134
f 15//135 1//135 6//135
f 94//136 102//136 98//136
f 54//137 46//137 34//137
f 46//138 35//138 34//138
f 52//139 32//139 51//139
f 32//140 39//140 51//140
f 24//141 14//141 22//141
f 39//142 38//142 50//142
f 69//143 51//143 50//143
f 52//144 51//144 69//144
f 54//145 75//145 74//145
f 97//146 87//146 74//146
f 87//147 63//147 74//147
f 40//148 19//148 37//148
f 21//149 30//149 12//149
f 53//150 61//150 73//150
f 82//151 84//151 71//151
f 16//152 25//152 15//152
f 76//153 89//153 80//153
f 101//154 63//154 87//154
f 95//155 86//155 61//155
f 5//156 4//156 10//156
f 25//157 15//157 14//157
f 68//158 69//158 50//158
f 36//159 37//159 17//159
f 37//160 18//160 17//160
f 40//161 47//161 29//161
f 29//162 11//162 19//162
f 33//163 16//163 27//163
f 97//164 75//164 91//164
f 56//165 48//165 47//165
f 63//166 56//166 62//166
f 21//167 20//167 41//167
f 38//168 23//168 50//168
f 23//169 68//169 50//169
f 80//170 93//170 79//170
f 79//171 92//171 80//171
f 8//172 34//172 35//172
f 12//173 6//173 5//173
f 27//174 33//174 43//174
f 59//175 52//175 70//175
f 95//176 98//176 96//176
f 98//177 88//177 76//177
f 96//178 88//178 98//178
f 99//179 101//179 100//179
f 100//180 101//180 87//180
f 100//181 90//181 99//181
f 90//182 80//182 92//182
f 99//183 90//183 92//183
f 46//184 36//184 35//184
f 67//185 82//185 58//185
f 12//186 13//186 6//186
f 97//187 74//187 75//187
f 83//188 94//188 85//188
f 2//189 3//189 1//189
f 57//190 82//190 68//190
f 102//191 79//191 93//191
f 46//192 56//192 37//192
f 56//193 40//193 37//193
f 3//194 2//194 7//194
f 44//195 53//195 28//195
f 53//196 73//196 28//196
f 73//197 7//197 55//197
f 28//198 7//198 73//198
f 55//199 7//199 34//199
f 34//200 8//200 7//200
f 4//201 5//201 1//201
f 5//202 6//202 1//202
f 10//203 11//203 4//203
f 11//204 5//204 4//204
f 14//205 24//205 15//205
f 24//206 25//206 15//206
f 25//207 15//207 26//207
f 26//208 15//208 16//208
f 28//209 7//209 34//209
f 21//210 22//210 12//210
f 27//211 26//211 16//211
f 33//212 26//212 27//212
f 28//213 34//213 73//213
f 73//214 34//214 55//214
f 42//215 58//215 21//215
f 58//216 30//216 21//216
f 30//217 22//217 21//217
f 52//218 43//218 32//218
f 43//219 33//219 32//219
f 86//220 73//220 96//220
f 96//221 73//221 88//221
f 88//222 73//222 55//222
f 49//223 64//223 42//223
f 64//224 58//224 42//224
f 65//225 81//225 58//225
f 64//226 65//226 58//226
f 98//227 89//227 96//227
f 89//228 88//228 96//228
f 89//229 76//229 88//229
f 74//230 87//230 62//230
f 87//231 63//231 62//231
f 78//232 64//232 49//232
f 78//233 99//233 64//233
f 93//234 102//234 65//234
f 102//235 81//235 65//235
f 79//236 93//236 65//236
f 102//237 94//237 81//237
f 94//238 66//238 81//238
f 94//239 83//239 66//239
f 84//240 70//240 82//240
f 84//241 71//241 70//241
f 98//242 95//242 72//242
f 85//243 98//243 72//243
f 85//244 83//244 98//244
f 83//245 94//245 98//245
f 90//246 91//246 76//246
f 90//247 100//247 91//247
f 100//248 97//248 91//248
f 99//249 78//249 101//249
