# Blender 4.0.0
# www.blender.org
o decimated_mesh
v 0.171880 0.009397 0.013341
v 0.154958 0.012298 0.102657
v 0.151836 0.024440 0.109767
v 0.145709 0.006216 0.110615
v 0.172411 0.038035 -0.004630
v 0.172079 0.001633 -0.005594
v 0.146260 0.034392 0.110714
v 0.139011 0.015654 0.113927
v 0.138834 0.001871 0.102066
v 0.138692 0.037810 0.101820
v 0.129883 0.033581 0.109413
v 0.129093 0.007948 0.109525
v 0.171882 0.033893 -0.016648
v 0.123700 0.020844 0.101495
v 0.171880 0.006045 -0.015737
v 0.140307 0.020326 -0.020434
v 0.131570 0.035277 -0.013608
v 0.132014 0.004904 -0.014030
v 0.171880 0.015654 -0.019463
v 0.129183 0.020608 -0.016069
v 0.123622 0.020846 -0.004179
vn 0.9988 -0.0379 -0.0309
vn 0.7131 -0.2086 0.6693
vn 0.8885 -0.4212 0.1820
vn 0.3542 -0.0757 0.9321
vn 0.6416 -0.7468 0.1751
vn 0.2705 0.0601 0.9609
vn -0.1009 -0.3924 0.9142
vn -0.1222 -0.8416 0.5261
vn -0.0778 0.9066 0.4147
vn -0.0634 0.9978 -0.0180
vn -0.0296 -0.3614 -0.9319
vn -0.0561 0.3873 -0.9202
vn 0.9772 0.0996 0.1876
vn 0.0079 0.9453 -0.3261
vn -0.0768 -0.9968 -0.0215
vn -0.8774 0.4797 -0.0054
vn 0.3095 0.9456 0.1000
vn 0.0529 0.1523 -0.9869
vn -0.0875 0.2011 0.9756
vn -0.8873 -0.4611 -0.0096
vn -0.3525 0.2103 -0.9119
vn -0.3631 -0.1841 -0.9134
vn -0.8832 0.2138 -0.4174
vn -0.8867 -0.2131 -0.4104
vn 0.9998 0.0174 0.0033
vn 0.9997 -0.0091 -0.0235
vn 1.0000 -0.0001 -0.0000
vn -0.8089 0.0275 0.5874
vn -0.4282 0.9037 0.0066
vn 0.8614 0.4626 0.2099
vn -0.0264 -0.3712 -0.9282
vn -0.5245 -0.8513 0.0086
vn 0.4105 -0.9027 0.1287
vn 0.9730 0.1450 0.1796
vn -0.8998 0.4364 0.0007
vn -0.4165 0.0168 0.9090
vn -0.9227 -0.3854 0.0007
vn 0.0092 -0.9169 -0.3990
vn 0.9999 -0.0095 0.0144
vn 0.9997 -0.0085 -0.0229
vn 0.9989 0.0071 -0.0465
vn 0.9718 0.1379 0.1912
vn 0.9785 0.0962 0.1823
vn -0.0248 -0.3614 -0.9321
vn -0.0292 -0.3699 -0.9286
s 0
f 1//1 13//1 5//1
f 2//2 3//2 4//2
f 1//3 2//3 6//3
f 3//4 8//4 4//4
f 2//5 4//5 6//5
f 8//6 3//6 7//6
f 8//7 12//7 4//7
f 4//8 12//8 9//8
f 10//9 11//9 7//9
f 17//10 10//10 5//10
f 18//11 19//11 15//11
f 17//12 13//12 16//12
f 3//13 1//13 5//13
f 13//14 17//14 5//14
f 18//15 6//15 9//15
f 21//16 11//16 17//16
f 10//17 7//17 5//17
f 19//18 16//18 13//18
f 11//19 8//19 7//19
f 12//20 21//20 18//20
f 16//21 20//21 17//21
f 16//22 18//22 20//22
f 20//23 21//23 17//23
f 21//24 20//24 18//24
f 1//25 6//25 19//25
f 6//26 15//26 19//26
f 19//27 13//27 1//27
f 12//28 11//28 14//28
f 17//29 11//29 10//29
f 7//30 3//30 5//30
f 18//31 16//31 19//31
f 12//32 18//32 9//32
f 6//33 4//33 9//33
f 3//34 2//34 1//34
f 21//35 14//35 11//35
f 11//36 12//36 8//36
f 12//37 14//37 21//37
f 15//38 6//38 18//38
f 1//39 6//39 5//39
f 6//40 19//40 5//40
f 19//41 13//41 5//41
f 3//42 2//42 5//42
f 2//43 1//43 5//43
f 15//44 16//44 19//44
f 16//45 15//45 18//45
