# Blender 4.0.0
# www.blender.org
o decimated_mesh
v 0.893097 -0.506650 -0.000813
v 0.893091 -0.506350 0.013841
v 0.923024 -0.506744 0.007796
v 0.920522 -0.505813 0.013405
v 0.952035 -0.419918 0.015784
v 0.893091 -0.497987 -0.005988
v 0.922277 -0.503273 -0.002756
v 0.955332 -0.493234 0.011815
v 0.968942 -0.457869 0.014031
v 0.975956 -0.419952 0.013006
v 0.893091 -0.479302 0.013440
v 0.893091 -0.487063 -0.005307
v 0.945062 -0.480686 -0.007313
v 0.952950 -0.490469 -0.002229
v 0.976391 -0.450946 0.010858
v 0.893087 -0.479585 -0.000516
v 0.948153 -0.419959 -0.000933
v 0.964495 -0.419863 -0.007040
v 0.962458 -0.478032 -0.000994
v 0.964416 -0.481619 0.010761
v 0.975258 -0.419955 0.001914
v 0.974342 -0.443358 0.000485
v 0.967915 -0.454282 -0.003865
vn -1.0000 -0.0010 -0.0004
vn 0.9770 -0.0253 -0.2116
vn -0.3322 0.3301 -0.8836
vn 0.1617 -0.3493 -0.9230
vn 0.0220 -0.9846 0.1732
vn 0.0605 -0.2557 -0.9649
vn 0.3364 -0.8932 0.2983
vn 0.0882 -0.9443 -0.3169
vn -0.7036 0.6920 0.1617
vn -0.7346 0.6783 -0.0136
vn -0.5083 0.4644 -0.7252
vn 0.0461 -0.0621 0.9970
vn 0.8791 -0.2850 -0.3821
vn 0.7817 -0.5733 -0.2454
vn 0.7360 -0.6035 -0.3067
vn 0.5452 -0.2154 0.8101
vn 0.5806 -0.0174 -0.8140
vn 0.1153 0.0055 0.9933
vn -0.0546 0.0148 0.9984
vn 0.3734 -0.1954 -0.9069
vn 0.7968 -0.2496 -0.5504
vn 0.0022 -0.5128 -0.8585
vn 1.0000 -0.0000 -0.0000
vn 1.0000 0.0007 -0.0003
vn 0.0165 -0.0337 0.9993
vn 0.0640 -0.0511 0.9966
vn -0.0198 -0.0549 0.9983
vn -0.0090 -0.9997 0.0205
vn 0.9005 -0.3508 -0.2570
vn 0.0407 -0.0175 0.9990
vn 0.6395 0.0219 -0.7685
vn 0.9979 0.0184 -0.0628
vn 0.4349 -0.0562 0.8987
vn 0.3535 -0.1934 0.9152
vn 0.0092 1.0000 -0.0008
vn -0.0062 1.0000 -0.0010
vn 0.0018 1.0000 0.0034
vn 0.3704 -0.8743 -0.3138
vn 0.3998 -0.8841 -0.2419
vn 0.2245 -0.0674 -0.9721
vn 0.3560 -0.1886 -0.9153
vn 1.0000 -0.0001 0.0010
vn 1.0000 0.0002 0.0001
vn 1.0000 -0.0000 -0.0003
vn 0.0825 -0.0620 0.9947
vn 0.0302 -0.0141 0.9994
vn 0.0227 -0.0360 0.9991
vn 0.0788 -0.0925 0.9926
vn 0.7720 -0.5605 -0.2996
vn 0.7521 -0.6107 -0.2478
s 0
f 2//1 6//1 1//1
f 21//2 15//2 22//2
f 17//3 18//3 12//3
f 7//4 13//4 14//4
f 2//5 3//5 4//5
f 6//6 13//6 7//6
f 3//7 8//7 4//7
f 3//8 1//8 7//8
f 11//9 5//9 17//9
f 11//10 17//10 16//10
f 12//11 16//11 17//11
f 13//12 12//12 6//12
f 15//13 19//13 22//13
f 14//14 19//14 8//14
f 8//15 19//15 20//15
f 9//16 20//16 15//16
f 18//17 22//17 23//17
f 10//18 5//18 9//18
f 5//19 11//19 2//19
f 14//20 23//20 19//20
f 22//21 19//21 23//21
f 1//22 6//22 7//22
f 2//23 12//23 11//23
f 11//24 12//24 16//24
f 12//23 2//23 6//23
f 2//25 4//25 5//25
f 4//26 8//26 5//26
f 8//27 9//27 5//27
f 2//28 1//28 3//28
f 19//29 15//29 20//29
f 18//30 12//30 13//30
f 18//31 21//31 22//31
f 15//32 21//32 10//32
f 15//33 10//33 9//33
f 20//34 9//34 8//34
f 21//35 18//35 10//35
f 18//36 17//36 5//36
f 5//37 10//37 18//37
f 7//38 14//38 3//38
f 14//39 8//39 3//39
f 13//40 18//40 23//40
f 14//41 13//41 23//41
f 12//42 16//42 6//42
f 6//43 16//43 2//43
f 2//44 16//44 11//44
f 18//45 12//45 6//45
f 18//46 6//46 13//46
f 4//47 9//47 5//47
f 8//48 9//48 4//48
f 19//49 20//49 14//49
f 20//50 8//50 14//50
