# Blender 4.0.0
# www.blender.org
o decimated_mesh
v 0.925424 0.502995 0.025531
v 0.968826 0.444884 0.013371
v 0.965009 0.460490 0.011792
v 0.960507 0.467179 0.001829
v 0.924620 0.503082 0.014808
v 0.970528 0.444832 0.004422
v 0.954706 0.470557 -0.003045
v 0.919737 0.484212 -0.003871
v 0.913538 0.503002 0.028509
v 0.966432 0.444834 -0.003001
v 0.943561 0.466850 -0.007172
v 0.019972 0.444820 0.010337
v 0.956309 0.444832 -0.006674
v 0.053031 0.503008 0.015268
v 0.023352 0.444852 -0.013987
v 0.071109 0.481050 -0.014348
v 0.024301 0.469130 0.009967
v 0.014784 0.444829 0.004635
v 0.031907 0.466089 -0.013583
v 0.055044 0.503051 0.004648
v 0.023740 0.470004 -0.002146
v 0.016724 0.444832 -0.007028
vn 0.5141 0.2099 0.8316
vn 0.6980 0.7146 -0.0466
vn -0.0001 1.0000 0.0058
vn 0.0009 1.0000 -0.0032
vn 0.9512 0.2509 0.1795
vn 0.9087 0.3902 -0.1485
vn 0.6368 0.7282 -0.2534
vn 0.2430 -0.0215 0.9698
vn 0.3371 0.1521 -0.9291
vn -0.7158 0.3199 -0.6207
vn -0.2217 0.5394 -0.8123
vn -0.9340 0.3507 0.0686
vn -0.0031 -0.2548 0.9670
vn -0.7322 0.1405 0.6665
vn -0.2478 0.0588 0.9670
vn 0.7446 0.6591 0.1061
vn 0.7119 0.3235 -0.6233
vn -0.7061 0.6958 -0.1310
vn 0.1868 0.4248 -0.8858
vn -0.7664 0.6372 0.0815
vn -0.9431 0.2933 -0.1568
vn -0.5247 0.6175 -0.5860
vn 0.0078 -0.0203 -0.9998
vn -0.0001 1.0000 0.0040
vn 0.0025 1.0000 0.0079
vn -0.0020 1.0000 0.0010
vn -0.0000 1.0000 0.0013
vn 0.0084 1.0000 -0.0043
vn -0.0001 1.0000 -0.0026
vn -0.0012 -1.0000 -0.0004
vn 0.2677 0.6420 -0.7185
vn 0.8299 0.3190 -0.4578
vn 0.2986 0.1515 -0.9423
vn 0.0062 0.7027 -0.7115
vn 0.0088 0.6572 -0.7537
vn -0.6931 0.2918 -0.6592
vn -0.0153 -0.0758 0.9970
vn 0.0113 0.2018 -0.9794
vn -0.0317 0.0318 -0.9990
vn 0.0079 -0.0180 -0.9998
vn 0.0083 0.7024 -0.7117
vn 0.0069 0.6564 -0.7544
vn -0.0000 1.0000 -0.0059
vn -0.0000 1.0000 0.0007
vn -0.0000 1.0000 0.0001
vn -0.0005 1.0000 0.0007
vn -0.0000 1.0000 0.0030
s 0
f 1//1 2//1 3//1
f 1//2 4//2 5//2
f 5//3 20//3 9//3
f 13//4 2//4 10//4
f 3//5 2//5 6//5
f 3//6 6//6 4//6
f 4//7 7//7 5//7
f 1//8 9//8 2//8
f 13//9 7//9 10//9
f 21//10 19//10 22//10
f 19//11 20//11 16//11
f 18//12 17//12 21//12
f 2//13 9//13 12//13
f 12//14 17//14 18//14
f 12//15 14//15 17//15
f 3//16 4//16 1//16
f 7//17 4//17 10//17
f 14//18 20//18 21//18
f 7//19 11//19 8//19
f 21//20 17//20 14//20
f 18//21 21//21 22//21
f 20//22 19//22 21//22
f 13//23 15//23 16//23
f 14//24 9//24 20//24
f 9//25 1//25 5//25
f 12//26 15//26 22//26
f 15//27 12//27 13//27
f 10//28 2//28 6//28
f 2//29 13//29 12//29
f 12//30 18//30 22//30
f 7//31 8//31 5//31
f 10//32 4//32 6//32
f 13//33 11//33 7//33
f 5//34 8//34 16//34
f 5//35 16//35 20//35
f 19//36 15//36 22//36
f 12//37 9//37 14//37
f 11//38 16//38 8//38
f 19//39 16//39 15//39
f 16//40 11//40 13//40
f 8//41 20//41 5//41
f 20//24 14//24 5//24
f 14//3 9//3 5//3
f 16//42 20//42 8//42
f 6//43 12//43 2//43
f 22//44 12//44 13//44
f 13//45 12//45 6//45
f 13//46 6//46 10//46
f 22//47 13//47 15//47
