# Blender 4.0.0
# www.blender.org
o decimated_mesh
v -0.027105 0.189883 -0.018905
v -0.027105 0.176986 -0.018874
v -0.035605 0.170362 -0.025437
v -0.046478 0.103177 -0.018874
v -0.027105 0.103177 -0.042269
v -0.038887 0.170433 -0.018877
v -0.053917 0.103479 -0.018874
v -0.027099 0.103480 -0.049723
v -0.027143 0.169620 -0.034457
v -0.043157 0.139492 -0.030397
v -0.048690 0.140942 -0.018874
v -0.027382 0.141409 -0.044756
v -0.045844 0.103324 -0.034044
v -0.033808 0.103400 -0.046020
vn -0.6670 0.2605 -0.6980
vn 0.7549 -0.1982 0.6252
vn -0.0123 -0.9999 -0.0102
vn -0.6205 0.4782 -0.6215
vn -0.7849 0.4749 -0.3978
vn -0.8767 0.1123 -0.4677
vn -0.8575 0.2792 -0.4321
vn -0.6987 0.1414 -0.7013
vn -1.0000 -0.0000 0.0024
vn -0.9998 -0.0060 0.0189
vn -1.0000 -0.0073 -0.0011
vn -1.0000 0.0092 -0.0019
vn -0.6895 0.2762 -0.6696
vn -0.0406 -0.9991 -0.0114
vn -0.0191 -0.9995 -0.0256
vn -0.0106 -0.9991 -0.0407
vn -0.4814 0.1103 -0.8695
vn -0.8883 0.1239 -0.4422
vn -0.8503 0.2826 -0.4439
vn -0.0000 -0.0000 1.0000
vn -0.0016 0.0024 1.0000
vn -0.0004 0.0003 1.0000
vn -0.0001 -0.0000 1.0000
vn -0.6762 0.1235 -0.7263
vn -1.0000 0.0002 -0.0007
vn -1.0000 -0.0000 -0.0003
vn -1.0000 -0.0017 0.0047
vn -0.8561 0.2845 -0.4314
vn -0.8513 0.2796 -0.4440
vn -0.9976 -0.0163 0.0678
vn -0.7004 0.1229 -0.7031
vn -0.6758 0.1383 -0.7240
s 0
f 9//1 12//1 10//1
f 2//2 4//2 5//2
f 5//3 4//3 13//3
f 9//4 3//4 1//4
f 1//5 3//5 6//5
f 13//6 7//6 10//6
f 6//7 3//7 10//7
f 13//8 12//8 14//8
f 9//9 2//9 1//9
f 2//10 12//10 5//10
f 8//11 5//11 12//11
f 12//12 2//12 9//12
f 10//13 3//13 9//13
f 7//14 13//14 4//14
f 13//15 14//15 5//15
f 14//16 8//16 5//16
f 14//17 12//17 8//17
f 7//18 11//18 10//18
f 10//19 11//19 6//19
f 4//20 2//20 11//20
f 2//21 1//21 6//21
f 6//22 11//22 2//22
f 11//23 7//23 4//23
f 10//24 12//24 13//24
f 5//25 2//25 8//25
f 8//26 2//26 1//26
f 8//27 1//27 9//27
f 3//28 11//28 6//28
f 3//29 10//29 11//29
f 12//30 8//30 9//30
f 14//31 13//31 10//31
f 12//32 14//32 10//32
