# Blender 4.0.0
# www.blender.org
o decimated_mesh
v -0.002798 0.103177 0.050172
v 0.043802 0.103187 0.024158
v -0.002573 0.103178 0.056681
v -0.002798 0.192936 0.024162
v 0.050575 0.103187 0.024158
v -0.002736 0.206869 0.024163
v 0.045900 0.103187 0.033237
v 0.033234 0.103187 0.045903
v -0.002768 0.170731 0.043267
v 0.001277 0.207403 0.024162
v 0.014764 0.198785 0.024159
v 0.017774 0.103177 0.053758
v -0.002769 0.110343 0.056685
v 0.050951 0.111441 0.024158
v 0.001277 0.170726 0.043406
v 0.046074 0.110614 0.033454
v 0.001277 0.110614 0.056827
v 0.014210 0.170238 0.041297
v 0.025437 0.170358 0.035606
v 0.017796 0.111598 0.054092
v 0.033495 0.111885 0.046033
v 0.035916 0.171230 0.024232
v 0.030653 0.140764 0.042726
v -0.002774 0.141211 0.052189
v 0.015837 0.141509 0.049909
v 0.001277 0.141119 0.052343
v 0.042240 0.141259 0.031065
v 0.045948 0.141129 0.024158
vn -1.0000 0.0011 0.0028
vn -0.4725 -0.2453 -0.8465
vn 0.1598 0.4586 0.8741
vn 0.7068 -0.0317 0.7067
vn 0.1686 -0.1064 0.9799
vn 0.3958 0.4670 0.7907
vn 0.4373 0.1526 0.8863
vn 0.4315 0.2813 0.8571
vn -0.0298 0.4644 0.8851
vn 0.8886 -0.0342 0.4575
vn 0.1506 0.2857 0.9464
vn -0.0443 0.1440 0.9886
vn 0.4569 -0.0270 0.8891
vn -0.0299 0.2889 0.9569
vn -0.0003 1.0000 -0.0001
vn 0.7071 0.1425 0.6927
vn -1.0000 0.0044 0.0067
vn -1.0000 0.0005 0.0018
vn -0.9990 -0.0273 0.0344
vn -1.0000 0.0004 0.0039
vn 0.7047 -0.0372 0.7085
vn 0.1421 -0.0396 0.9891
vn 0.8477 0.2814 0.4498
vn 0.4497 0.1452 0.8813
vn 0.4300 0.2821 0.8576
vn 0.3101 0.4849 0.8177
vn -0.0616 0.4665 0.8824
vn -0.0349 -0.0014 0.9994
vn 0.8863 -0.0404 0.4614
vn 0.1646 0.2917 0.9422
vn -0.0344 0.1453 0.9888
vn 0.4527 -0.0365 0.8909
vn 0.6910 0.2961 0.6594
vn 0.6743 0.2829 0.6821
vn 0.6257 0.4819 0.6134
vn 0.0002 -0.0001 1.0000
vn -0.0006 0.0022 1.0000
vn -0.0039 -0.0038 1.0000
vn -0.0000 -0.0000 1.0000
vn 0.0001 -0.0000 1.0000
vn 0.0004 -0.0001 1.0000
vn -0.0325 0.2892 0.9567
vn 0.8726 0.1471 0.4657
vn 0.8707 0.1456 0.4698
vn -0.0000 1.0000 -0.0000
vn -0.0002 1.0000 0.0010
vn -0.0000 -1.0000 0.0002
vn 0.6983 0.1489 0.7002
vn 0.1533 0.1437 0.9777
vn 0.1593 0.1470 0.9762
vn -0.0000 1.0000 0.0004
vn -0.0000 1.0000 0.0003
vn -0.0006 1.0000 -0.0003
vn 0.8883 -0.0405 0.4574
vn -0.0014 1.0000 -0.0014
vn 0.1655 -0.0395 0.9854
vn 0.1416 -0.0926 0.9856
vn 0.0001 0.0001 1.0000
vn 0.8862 -0.0342 0.4620
vn 0.7066 -0.0372 0.7066
vn 0.7051 -0.0317 0.7084
vn 0.0004 0.0003 1.0000
vn -0.0118 -0.0064 0.9999
vn 0.4314 0.2822 0.8569
vn 0.4300 0.2815 0.8578
s 0
f 24//1 9//1 4//1
f 1//2 4//2 2//2
f 15//3 18//3 10//3
f 7//4 21//4 8//4
f 3//5 20//5 17//5
f 18//6 19//6 11//6
f 25//7 20//7 23//7
f 19//8 18//8 25//8
f 10//9 9//9 15//9
f 5//10 16//10 7//10
f 26//11 25//11 15//11
f 17//12 24//12 13//12
f 20//13 8//13 21//13
f 15//14 24//14 26//14
f 1//15 8//15 2//15
f 16//16 27//16 21//16
f 9//17 6//17 4//17
f 4//18 1//18 24//18
f 1//19 3//19 13//19
f 24//20 1//20 13//20
f 7//21 16//21 21//21
f 3//22 12//22 20//22
f 22//23 27//23 28//23
f 21//24 23//24 20//24
f 23//25 19//25 25//25
f 11//26 10//26 18//26
f 10//27 6//27 9//27
f 3//28 17//28 13//28
f 5//29 14//29 16//29
f 25//30 18//30 15//30
f 17//31 26//31 24//31
f 20//32 12//32 8//32
f 27//33 22//33 19//33
f 19//34 23//34 27//34
f 22//35 11//35 19//35
f 10//36 4//36 11//36
f 11//37 4//37 22//37
f 22//38 4//38 28//38
f 28//39 2//39 14//39
f 14//39 2//39 5//39
f 2//40 28//40 4//40
f 4//41 10//41 6//41
f 15//42 9//42 24//42
f 14//43 28//43 27//43
f 27//44 16//44 14//44
f 5//45 2//45 7//45
f 7//45 2//45 8//45
f 8//46 1//46 12//46
f 12//47 3//47 1//47
f 27//48 23//48 21//48
f 26//49 17//49 20//49
f 25//50 26//50 20//50
f 2//51 1//51 5//51
f 5//52 1//52 12//52
f 4//39 2//39 14//39
f 7//53 5//53 12//53
f 14//54 7//54 5//54
f 7//55 12//55 8//55
f 20//56 17//56 12//56
f 17//57 3//57 12//57
f 6//36 4//36 11//36
f 11//58 4//58 14//58
f 16//59 7//59 14//59
f 11//39 14//39 28//39
f 16//60 8//60 7//60
f 16//61 21//61 8//61
f 10//62 6//62 11//62
f 22//63 11//63 28//63
f 19//64 18//64 23//64
f 18//65 25//65 23//65
