# Blender 4.0.0
# www.blender.org
o decimated_mesh
v 0.021133 0.207254 -0.011632
v 0.000018 0.207291 -0.024269
v 0.013225 0.207235 -0.011611
v 0.023804 0.201629 -0.011609
v 0.023920 0.191150 -0.021718
v -0.000004 0.207188 -0.017769
v 0.012770 0.207248 -0.021092
v 0.000024 0.170835 -0.043473
v 0.023804 0.188891 -0.011609
v 0.000004 0.142451 -0.045817
v 0.021863 0.142451 -0.039702
v 0.021863 0.142451 -0.046722
v 0.021950 0.171395 -0.036879
v 0.000035 0.142451 -0.052059
v 0.014224 0.170087 -0.041370
v 0.015850 0.142455 -0.049653
vn -1.0000 0.0016 -0.0034
vn -0.4093 -0.2359 0.8813
vn 0.1440 0.2866 -0.9472
vn -0.4772 -0.3494 0.8064
vn 0.9728 0.0719 -0.2202
vn -0.2339 -0.4961 0.8362
vn 0.9991 -0.0422 -0.0000
vn 0.6578 0.4783 -0.5818
vn -0.0023 1.0000 0.0014
vn 0.6060 0.4454 -0.6591
vn 0.1538 0.4606 -0.8742
vn -1.0000 0.0011 -0.0050
vn -1.0000 0.0009 -0.0024
vn 0.1552 0.2920 -0.9437
vn 0.8296 0.3924 -0.3972
vn 0.9999 -0.0000 0.0115
vn 0.9991 -0.0429 0.0019
vn 0.3895 0.4529 -0.8020
vn 0.4463 0.2810 -0.8496
vn 0.4194 0.2912 -0.8599
vn -0.0006 0.9999 0.0159
vn -0.0043 1.0000 0.0015
vn -0.0002 -0.0000 1.0000
vn 0.0026 0.0054 1.0000
vn -0.0003 1.0000 -0.0001
vn -0.0001 1.0000 0.0005
vn 0.0007 1.0000 -0.0000
vn 0.2143 0.4743 -0.8539
vn -0.0023 1.0000 0.0068
vn 0.0046 1.0000 -0.0047
vn -0.0110 0.9998 0.0158
vn -0.0000 1.0000 -0.0001
vn -0.0000 1.0000 -0.0000
vn -0.0008 1.0000 0.0030
vn 0.4204 0.2831 -0.8620
vn 0.4446 0.2872 -0.8484
s 0
f 2//1 8//1 6//1
f 3//2 6//2 9//2
f 8//3 16//3 14//3
f 10//4 9//4 6//4
f 12//5 13//5 5//5
f 9//6 10//6 11//6
f 11//7 12//7 5//7
f 5//8 7//8 1//8
f 1//9 7//9 3//9
f 7//10 5//10 13//10
f 8//11 2//11 15//11
f 8//12 14//12 10//12
f 10//13 6//13 8//13
f 15//14 16//14 8//14
f 4//15 5//15 1//15
f 5//16 4//16 9//16
f 9//17 11//17 5//17
f 15//18 7//18 13//18
f 16//19 15//19 13//19
f 13//20 12//20 16//20
f 7//21 2//21 6//21
f 6//22 3//22 7//22
f 3//23 9//23 4//23
f 4//24 1//24 3//24
f 14//25 10//25 16//25
f 10//26 11//26 16//26
f 16//27 11//27 12//27
f 2//28 7//28 15//28
f 2//29 3//29 1//29
f 7//30 2//30 1//30
f 2//31 6//31 3//31
f 14//32 10//32 11//32
f 14//33 11//33 12//33
f 14//34 12//34 16//34
f 16//35 15//35 12//35
f 15//36 13//36 12//36
