# Blender 4.0.0
# www.blender.org
o decimated_mesh
v 0.000025 0.103387 -0.056950
v 0.000004 0.103181 -0.050416
v 0.021864 0.103181 -0.044976
v 0.021864 0.142447 -0.039705
v 0.000004 0.142447 -0.045821
v 0.021816 0.103241 -0.052379
v 0.021865 0.142431 -0.046806
v 0.000062 0.142410 -0.052162
v 0.017882 0.111667 -0.054075
v 0.015546 0.142443 -0.049718
vn -1.0000 0.0004 -0.0031
vn 0.0020 -1.0000 -0.0082
vn 1.0000 0.0009 -0.0064
vn 0.0001 1.0000 -0.0005
vn 0.2672 0.1282 -0.9551
vn 0.1028 0.1210 -0.9873
vn -1.0000 0.0021 -0.0091
vn -0.0001 -0.9995 -0.0316
vn 1.0000 -0.0013 0.0003
vn 0.0031 1.0000 -0.0023
vn -0.0012 1.0000 -0.0059
vn 0.2400 0.1128 -0.9642
vn 0.2036 -0.1010 -0.9738
vn 0.4134 0.1583 -0.8967
vn 0.5878 0.1132 -0.8011
vn 0.1538 0.1499 -0.9767
vn 0.2395 0.1292 -0.9623
vn 0.2677 0.1120 -0.9570
vn 1.0000 -0.0003 -0.0064
vn 1.0000 -0.0000 0.0003
s 0
f 2//1 5//1 1//1
f 3//2 2//2 6//2
f 4//3 3//3 6//3
f 5//4 4//4 10//4
f 5//5 4//5 3//5
f 9//6 1//6 8//6
f 8//7 1//7 5//7
f 1//8 6//8 2//8
f 6//9 7//9 4//9
f 7//10 10//10 4//10
f 10//11 8//11 5//11
f 5//12 3//12 2//12
f 9//13 6//13 1//13
f 10//14 7//14 9//14
f 7//15 6//15 9//15
f 8//16 10//16 9//16
f 3//17 2//17 4//17
f 4//18 2//18 5//18
f 7//19 3//19 6//19
f 7//20 4//20 3//20
