# Blender 4.0.0
# www.blender.org
o decimated_mesh
v 0.023752 0.213141 -0.000269
v 0.023811 0.194048 -0.000009
v 0.043418 0.170901 -0.000044
v 0.041542 0.169767 -0.013985
v 0.035636 0.170247 -0.025507
v 0.021867 0.103177 -0.044974
v 0.050414 0.103187 -0.000009
v 0.022038 0.190974 -0.023767
v 0.025440 0.170362 -0.035600
v 0.021867 0.103177 -0.051739
v 0.056598 0.103187 -0.000048
v 0.021868 0.170244 -0.037431
v 0.053695 0.103186 -0.018042
v 0.049841 0.141681 -0.015926
v 0.031131 0.140299 -0.042510
v 0.056876 0.110734 -0.000039
v 0.052428 0.141080 -0.000031
v 0.042554 0.140353 -0.031037
v 0.021866 0.140681 -0.047254
v 0.021820 0.111374 -0.052143
v 0.033235 0.103177 -0.045902
v 0.033457 0.110619 -0.046070
v 0.054089 0.111421 -0.017783
v 0.045904 0.103177 -0.033235
v 0.046071 0.110619 -0.033454
vn 0.0042 0.0004 1.0000
vn -0.8195 -0.2400 0.5204
vn 0.4307 0.2788 -0.8583
vn 0.7067 -0.0367 -0.7066
vn -1.0000 -0.0057 -0.0000
vn 0.9870 -0.0362 -0.1564
vn 0.4565 -0.0337 -0.8891
vn 0.9474 0.2862 -0.1434
vn 0.3799 0.5069 -0.7738
vn 0.0036 0.0015 1.0000
vn 0.0179 0.0137 0.9997
vn 0.0017 0.0005 1.0000
vn 0.0063 -0.0015 1.0000
vn 0.6261 0.4634 -0.6272
vn 0.4556 0.1458 -0.8782
vn 0.4652 0.1413 -0.8739
vn 0.8960 0.4163 -0.1545
vn 0.8011 0.4525 -0.3918
vn 0.4464 0.2821 -0.8492
vn 0.8851 0.1513 -0.4401
vn 0.8784 0.1410 -0.4566
vn 0.7066 -0.0371 -0.7066
vn 0.8893 -0.0335 -0.4561
vn 0.8905 -0.0283 -0.4541
vn 0.0001 1.0000 -0.0000
vn -0.0002 1.0000 -0.0001
vn -0.0000 1.0000 -0.0000
vn 0.0004 1.0000 -0.0008
vn 0.9993 -0.0023 -0.0385
vn -0.9972 -0.0020 0.0747
vn 0.9958 0.0446 -0.0801
vn 0.9976 0.0217 -0.0656
vn 1.0000 -0.0004 -0.0069
vn 0.6761 0.2842 -0.6798
vn 0.6791 0.2825 -0.6775
vn 0.6931 0.4984 -0.5207
vn 0.8582 0.2832 -0.4281
vn 0.8552 0.2787 -0.4369
vn 0.9864 -0.0422 -0.1591
vn 0.4602 -0.0411 -0.8869
vn 0.7002 0.1397 -0.7001
vn 0.7015 0.1388 -0.6990
vn 0.9452 0.2897 -0.1508
vn 0.9785 0.1435 -0.1482
vn 0.9772 0.1466 -0.1535
vn 0.9969 0.0165 -0.0765
vn 0.9999 0.0017 -0.0149
vn 0.0002 1.0000 -0.0003
vn 1.0000 0.0006 -0.0058
vn 0.0001 1.0000 -0.0003
vn 0.4298 0.2847 -0.8569
vn 0.4466 0.2799 -0.8498
vn 1.0000 -0.0030 0.0089
vn 0.4607 -0.0338 -0.8869
vn 0.4564 -0.0413 -0.8888
vn 0.7066 -0.0367 -0.7067
vn -0.0017 1.0000 0.0002
vn 0.7014 0.1398 -0.6989
vn 0.7003 0.1389 -0.7002
vn 0.7067 -0.0371 -0.7065
s 0
f 16//1 17//1 7//1
f 2//2 6//2 7//2
f 12//3 9//3 15//3
f 24//4 22//4 25//4
f 20//5 10//5 6//5
f 11//6 23//6 16//6
f 10//7 22//7 21//7
f 17//8 14//8 3//8
f 8//9 9//9 12//9
f 17//10 3//10 2//10
f 3//11 1//11 2//11
f 2//12 7//12 17//12
f 7//13 11//13 16//13
f 5//14 9//14 8//14
f 19//15 15//15 20//15
f 15//16 22//16 20//16
f 4//17 1//17 3//17
f 5//18 1//18 4//18
f 19//19 12//19 15//19
f 14//20 23//20 18//20
f 18//21 23//21 25//21
f 24//22 21//22 22//22
f 24//23 25//23 13//23
f 25//24 23//24 13//24
f 13//25 7//25 11//25
f 7//26 13//26 6//26
f 6//27 21//27 10//27
f 21//27 6//27 24//27
f 24//28 6//28 13//28
f 6//29 19//29 2//29
f 2//30 1//30 8//30
f 8//31 2//31 12//31
f 12//32 2//32 19//32
f 19//33 6//33 20//33
f 15//34 9//34 5//34
f 5//35 18//35 15//35
f 8//36 1//36 5//36
f 4//37 14//37 5//37
f 5//38 14//38 18//38
f 11//39 13//39 23//39
f 10//40 20//40 22//40
f 25//41 22//41 18//41
f 22//42 15//42 18//42
f 14//43 4//43 3//43
f 17//44 16//44 23//44
f 23//45 14//45 17//45
f 8//46 2//46 6//46
f 12//47 8//47 6//47
f 10//27 24//27 21//27
f 10//27 6//27 24//27
f 24//48 6//48 7//48
f 12//49 6//49 20//49
f 24//50 7//50 11//50
f 19//51 12//51 9//51
f 15//52 19//52 9//52
f 19//53 12//53 20//53
f 22//54 21//54 20//54
f 21//55 10//55 20//55
f 21//56 25//56 24//56
f 13//57 24//57 11//57
f 25//58 15//58 18//58
f 22//59 15//59 25//59
f 21//60 22//60 25//60
