# Blender 4.0.0
# www.blender.org
o decimated_mesh
v -0.029806 0.008682 0.027870
v 0.000009 0.008682 0.041100
v -0.029617 0.008684 0.037319
v -0.028072 0.140631 0.036551
v -0.002804 0.140631 0.045978
v -0.000031 0.008682 0.047492
v -0.029398 0.109501 0.048185
v -0.028064 0.140626 0.044124
v -0.002822 0.140626 0.052258
v -0.000512 0.107329 0.056713
v -0.029820 0.054166 0.045010
v -0.015779 0.140631 0.050085
v -0.000017 0.055901 0.054354
v -0.017864 0.111288 0.054072
v -0.017313 0.054667 0.051392
v -0.014909 0.008686 0.045115
vn -0.1573 -0.1417 0.9773
vn -0.4669 0.1341 0.8741
vn 0.0003 1.0000 0.0008
vn -0.9872 -0.0168 0.1587
vn -0.4452 -0.1439 0.8838
vn -0.9989 0.0160 -0.0432
vn -0.3492 -0.0420 0.9361
vn -0.4525 -0.0476 0.8905
vn -0.1636 0.1442 0.9759
vn -0.0000 1.0000 -0.0002
vn 0.0001 1.0000 -0.0003
vn 0.0002 1.0000 -0.0000
vn -0.1562 -0.1420 0.9775
vn -0.4316 0.1515 0.8893
vn -0.0007 1.0000 0.0006
vn -0.0000 1.0000 -0.0000
vn 1.0000 -0.0012 0.0063
vn -0.9961 -0.0244 0.0849
vn 0.9976 0.0696 0.0029
vn -0.4630 -0.1498 0.8736
vn -0.9998 -0.0079 0.0200
vn -0.9967 0.0122 -0.0808
vn -0.9991 0.0430 0.0011
vn -0.4050 -0.0547 0.9127
vn -0.4483 -0.0466 0.8926
vn -0.1654 -0.0468 0.9851
vn -0.1610 -0.0482 0.9858
vn -0.1217 0.1233 0.9849
vn -0.9996 0.0091 -0.0249
vn 0.0001 1.0000 -0.0002
vn -0.9976 0.0175 -0.0668
vn -0.3490 -0.0570 0.9354
vn -0.4052 -0.0424 0.9132
vn 0.0004 1.0000 -0.0010
vn -0.1653 -0.0482 0.9851
vn -0.9910 -0.0260 0.1310
vn -0.9992 -0.0114 0.0387
vn -0.1607 -0.0468 0.9859
s 0
f 13//1 15//1 16//1
f 14//2 8//2 7//2
f 12//3 9//3 5//3
f 10//4 5//4 13//4
f 16//5 15//5 11//5
f 4//6 1//6 11//6
f 2//7 5//7 4//7
f 7//8 11//8 15//8
f 12//9 14//9 9//9
f 16//10 1//10 3//10
f 1//11 16//11 2//11
f 6//12 2//12 16//12
f 6//13 13//13 16//13
f 14//14 12//14 8//14
f 8//15 12//15 4//15
f 4//16 12//16 5//16
f 6//17 2//17 13//17
f 2//18 13//18 5//18
f 5//19 9//19 10//19
f 11//20 3//20 16//20
f 1//21 3//21 11//21
f 11//22 7//22 4//22
f 7//23 8//23 4//23
f 2//24 4//24 1//24
f 15//25 14//25 7//25
f 13//26 10//26 15//26
f 15//27 10//27 14//27
f 10//28 9//28 14//28
f 7//29 1//29 11//29
f 2//16 1//16 6//16
f 6//30 1//30 3//30
f 7//31 4//31 1//31
f 4//32 1//32 5//32
f 5//33 1//33 2//33
f 6//34 3//34 16//34
f 13//35 14//35 15//35
f 5//36 2//36 10//36
f 10//37 2//37 13//37
f 10//38 14//38 13//38
