# Blender 4.0.0
# www.blender.org
o decimated_mesh
v -0.028072 0.111777 0.048893
v -0.033426 0.111845 0.046113
v -0.028523 0.103173 0.048744
v -0.028073 0.103177 0.041717
v -0.028203 0.142235 0.043861
v -0.044012 0.103177 0.023749
v -0.028073 0.169936 0.023749
v -0.028097 0.182900 0.023728
v -0.046075 0.110606 0.033455
v -0.045906 0.103177 0.033236
v -0.042481 0.140622 0.030990
v -0.028030 0.169282 0.033888
v -0.051435 0.103483 0.023750
v -0.036298 0.170920 0.023918
v -0.046160 0.141120 0.023749
vn -0.7051 -0.0370 0.7082
vn -0.0000 1.0000 -0.0000
vn -0.7364 0.1758 0.6533
vn -0.8639 -0.0345 0.5024
vn -0.8812 0.1235 0.4563
vn -0.4608 0.0088 0.8875
vn -0.6704 0.1688 0.7225
vn -1.0000 0.0082 0.0048
vn -1.0000 -0.0036 0.0044
vn -0.9999 -0.0028 -0.0103
vn 0.9965 -0.0533 0.0638
vn 1.0000 0.0019 -0.0041
vn -0.6584 -0.1483 0.7379
vn -0.0002 1.0000 0.0004
vn -0.0413 -0.9991 -0.0082
vn -0.7114 0.2941 0.6383
vn -0.6622 0.2630 0.7016
vn -0.9068 0.1412 0.3972
vn -0.4547 0.1433 0.8791
vn -0.8484 0.2782 0.4503
vn -0.6481 0.4534 0.6120
vn 0.0001 -0.0000 1.0000
vn 0.0191 -0.0120 0.9997
vn 0.0207 0.0017 0.9998
vn -0.0000 -0.0000 1.0000
vn -0.7071 0.1416 0.6928
vn -1.0000 0.0006 -0.0006
vn -0.9985 -0.0130 -0.0526
vn -0.0005 1.0000 0.0004
vn 0.0002 1.0000 -0.0000
vn -1.0000 0.0012 0.0043
vn -0.8784 0.1426 0.4562
vn -0.9048 0.1268 0.4066
vn -0.0070 0.0017 1.0000
vn 0.0001 0.0003 1.0000
vn 0.0017 -0.0002 1.0000
vn 0.0608 -0.0258 0.9978
s 0
f 10//1 2//1 9//1
f 6//2 10//2 4//2
f 4//3 7//3 6//3
f 9//4 13//4 10//4
f 15//5 13//5 11//5
f 2//6 3//6 1//6
f 2//7 5//7 11//7
f 12//8 7//8 5//8
f 5//9 4//9 1//9
f 7//10 4//10 5//10
f 1//11 3//11 4//11
f 7//12 8//12 12//12
f 10//13 3//13 2//13
f 3//14 4//14 10//14
f 10//15 13//15 6//15
f 14//16 11//16 12//16
f 5//17 12//17 11//17
f 9//18 11//18 13//18
f 2//19 1//19 5//19
f 14//20 15//20 11//20
f 8//21 14//21 12//21
f 13//22 6//22 15//22
f 15//23 7//23 14//23
f 14//24 7//24 8//24
f 7//25 15//25 6//25
f 11//26 9//26 2//26
f 4//27 1//27 12//27
f 12//28 1//28 5//28
f 6//29 3//29 4//29
f 10//30 3//30 6//30
f 7//31 4//31 12//31
f 15//32 9//32 11//32
f 15//33 13//33 9//33
f 8//34 6//34 7//34
f 13//35 6//35 8//35
f 13//36 8//36 15//36
f 15//37 8//37 14//37
