# Blender 4.0.0
# www.blender.org
o decimated_mesh
v -0.050564 0.147559 0.000021
v -0.044115 0.147559 -0.000009
v -0.037026 0.147559 0.023749
v -0.024205 0.193315 -0.000009
v -0.024205 0.175099 0.023749
v -0.045385 0.147545 0.023090
v -0.024201 0.207343 0.000056
v -0.024283 0.190684 0.023160
v -0.043431 0.170868 0.000011
v -0.041480 0.170012 0.014064
v -0.035836 0.171502 0.023759
vn -0.0021 0.0009 -1.0000
vn 0.0010 -0.0005 1.0000
vn 0.8768 -0.3816 -0.2925
vn -0.8389 0.3221 0.4388
vn -0.7893 0.4994 0.3573
vn -0.9448 0.2495 0.2123
vn -0.0000 -1.0000 -0.0006
vn 0.0017 -1.0000 -0.0005
vn -0.0047 0.0010 -1.0000
vn -0.0064 0.0047 -1.0000
vn -0.0108 0.0377 0.9992
vn -0.0787 0.0035 0.9969
vn -1.0000 -0.0052 -0.0040
vn -1.0000 0.0003 -0.0033
vn -0.7860 0.4853 0.3830
vn 0.8751 -0.4074 -0.2611
vn -0.9456 0.2894 0.1490
vn -0.8747 0.4610 0.1496
vn -1.0000 -0.0053 -0.0074
vn -1.0000 0.0003 0.0002
s 0
f 2//1 9//1 4//1
f 5//2 11//2 3//2
f 5//3 2//3 4//3
f 10//4 6//4 11//4
f 8//5 7//5 10//5
f 10//6 1//6 6//6
f 6//7 1//7 2//7
f 2//8 3//8 6//8
f 1//9 9//9 2//9
f 9//10 7//10 4//10
f 5//11 8//11 11//11
f 11//12 6//12 3//12
f 8//13 4//13 5//13
f 4//14 8//14 7//14
f 8//15 10//15 11//15
f 5//16 3//16 2//16
f 10//17 9//17 1//17
f 10//18 7//18 9//18
f 5//19 8//19 7//19
f 5//20 7//20 4//20
