# Blender 4.0.0
# www.blender.org
o decimated_mesh
v -0.050415 0.103177 -0.000009
v -0.019544 0.103167 -0.046146
v -0.056627 0.103176 -0.000069
v -0.041095 0.008682 -0.000009
v -0.019544 0.008682 -0.035848
v -0.019544 0.103177 -0.052926
v -0.047509 0.008682 -0.000063
v -0.019547 0.008682 -0.042830
v -0.054394 0.056618 -0.000034
v -0.033195 0.103176 -0.045953
v -0.032162 0.055875 -0.043868
v -0.019544 0.054681 -0.050295
v -0.033941 0.008677 -0.033754
v -0.053710 0.103176 -0.018006
v -0.051406 0.054175 -0.017064
v -0.043923 0.055436 -0.031955
v -0.045102 0.008688 -0.014952
v -0.045951 0.103177 -0.033199
vn -0.0030 -0.0003 1.0000
vn 1.0000 -0.0000 -0.0000
vn 0.0011 1.0000 0.0001
vn -0.4599 -0.1422 -0.8765
vn -0.7099 -0.0485 -0.7026
vn -0.7039 -0.1233 -0.6995
vn -0.9784 -0.1404 -0.1515
vn 0.0004 1.0000 -0.0000
vn -0.8540 -0.0842 -0.5135
vn -0.8486 -0.1618 -0.5037
vn -0.8794 -0.1430 -0.4541
vn -0.0096 0.0003 1.0000
vn -0.0085 -0.0018 1.0000
vn 1.0000 -0.0001 -0.0003
vn 0.0003 -1.0000 -0.0000
vn 0.0004 -1.0000 0.0002
vn -0.0000 1.0000 0.0004
vn -0.5265 -0.1591 -0.8352
vn -0.7063 -0.0466 -0.7064
vn -0.9858 -0.0494 -0.1603
vn -0.9850 -0.0474 -0.1660
vn -0.9771 -0.1427 -0.1580
vn 0.0007 1.0000 0.0014
vn 0.0007 1.0000 0.0006
vn -0.0002 1.0000 -0.0000
vn -0.0001 1.0000 -0.0000
vn -0.8907 -0.0506 -0.4519
vn -0.8895 -0.0496 -0.4543
vn -0.8296 -0.0605 -0.5551
vn -0.4570 -0.0491 -0.8881
vn -0.4543 -0.0483 -0.8895
vn -0.0000 1.0000 -0.0000
vn -0.8283 -0.0817 -0.5542
vn 0.0023 1.0000 0.0014
vn -0.0001 1.0000 -0.0001
vn -0.9859 -0.0474 -0.1603
vn -0.9849 -0.0495 -0.1657
vn -0.0000 1.0000 -0.0002
vn -0.8557 -0.0561 -0.5145
vn 0.0022 1.0000 0.0008
s 0
f 1//1 9//1 4//1
f 2//2 5//2 12//2
f 17//3 4//3 13//3
f 11//4 12//4 8//4
f 11//5 16//5 18//5
f 13//6 16//6 11//6
f 7//7 9//7 15//7
f 1//8 2//8 18//8
f 5//9 4//9 1//9
f 16//10 13//10 17//10
f 17//11 15//11 16//11
f 3//12 9//12 1//12
f 9//13 7//13 4//13
f 8//14 12//14 5//14
f 12//2 6//2 2//2
f 13//15 8//15 5//15
f 5//16 4//16 13//16
f 17//17 7//17 4//17
f 8//18 13//18 11//18
f 10//19 11//19 18//19
f 14//20 15//20 3//20
f 9//21 3//21 15//21
f 15//22 17//22 7//22
f 6//23 10//23 2//23
f 10//24 18//24 2//24
f 18//25 14//25 1//25
f 14//26 3//26 1//26
f 15//27 14//27 16//27
f 18//28 16//28 14//28
f 5//29 1//29 2//29
f 11//30 10//30 12//30
f 12//31 10//31 6//31
f 6//32 18//32 1//32
f 4//33 1//33 2//33
f 2//34 6//34 1//34
f 10//35 18//35 6//35
f 9//36 3//36 14//36
f 15//37 9//37 14//37
f 7//38 4//38 13//38
f 5//39 4//39 2//39
f 17//40 7//40 13//40
