# Blender 4.0.0
# www.blender.org
o decimated_mesh
v -0.019541 0.008682 -0.042833
v -0.019541 0.008682 -0.035851
v 0.018045 0.008682 -0.036551
v -0.019541 0.103167 -0.046152
v 0.018025 0.008680 -0.043671
v 0.018045 0.103177 -0.046870
v -0.014874 0.008688 -0.045127
v 0.018025 0.103175 -0.053714
v -0.019541 0.103177 -0.052925
v -0.019541 0.054681 -0.050299
v -0.017160 0.054705 -0.051420
v 0.014766 0.008690 -0.045169
v -0.017863 0.103175 -0.053765
v 0.018046 0.055381 -0.051154
v 0.015949 0.053829 -0.051633
v 0.000107 0.008682 -0.047533
v 0.000002 0.103176 -0.056698
v -0.000156 0.056085 -0.054414
vn -1.0000 -0.0000 -0.0000
vn 0.4130 -0.1443 -0.8992
vn -0.4204 -0.1434 -0.8960
vn 0.0185 0.1084 0.9939
vn 1.0000 -0.0009 -0.0028
vn -0.4250 -0.0499 -0.9038
vn -0.1605 -0.1416 -0.9768
vn -0.1570 -0.1427 -0.9772
vn -0.0000 1.0000 -0.0000
vn 0.0034 1.0000 -0.0003
vn -0.0012 1.0000 -0.0000
vn 0.0005 1.0000 0.0009
vn -0.0008 1.0000 0.0012
vn -0.1618 -0.0500 -0.9856
vn -0.1695 -0.0472 -0.9844
vn 0.1634 -0.0484 -0.9854
vn 0.1631 -0.0484 -0.9854
vn 0.0017 1.0000 0.0014
vn -0.0002 1.0000 0.0004
vn 0.0001 1.0000 -0.0003
vn 0.0001 1.0000 0.0010
vn 0.3195 -0.1425 -0.9368
vn 0.2586 -0.0516 -0.9646
vn -0.4364 -0.1441 -0.8881
vn 0.1492 -0.1412 -0.9787
vn 0.1576 -0.1440 -0.9769
vn 0.0190 0.1085 0.9939
vn 1.0000 0.0003 -0.0029
vn 1.0000 -0.0000 0.0001
vn -0.4472 -0.0484 -0.8931
vn 0.0001 1.0000 -0.0000
vn 0.0001 1.0000 0.0027
vn -0.0000 1.0000 -0.0003
vn 0.0003 1.0000 -0.0007
vn -0.0026 0.9999 0.0127
vn -0.0002 1.0000 0.0014
vn -0.0000 1.0000 -0.0001
vn -0.0006 1.0000 -0.0032
vn -0.1618 -0.0473 -0.9857
vn -0.1692 -0.0501 -0.9843
vn 0.1633 -0.0484 -0.9854
s 0
f 4//1 10//1 2//1
f 5//2 12//2 14//2
f 10//3 11//3 7//3
f 3//4 4//4 2//4
f 3//5 5//5 14//5
f 13//6 11//6 10//6
f 11//7 18//7 7//7
f 18//8 16//8 7//8
f 3//9 16//9 2//9
f 5//10 12//10 3//10
f 2//11 7//11 1//11
f 7//12 2//12 16//12
f 16//13 3//13 12//13
f 11//14 13//14 17//14
f 18//15 11//15 17//15
f 18//16 17//16 15//16
f 8//17 15//17 17//17
f 9//1 10//1 4//1
f 10//1 1//1 2//1
f 13//18 9//18 4//18
f 4//19 6//19 17//19
f 17//20 6//20 8//20
f 17//21 13//21 4//21
f 12//22 15//22 14//22
f 15//23 8//23 14//23
f 1//24 10//24 7//24
f 16//25 18//25 15//25
f 15//26 12//26 16//26
f 3//27 6//27 4//27
f 14//28 8//28 6//28
f 6//29 3//29 14//29
f 10//30 9//30 13//30
f 5//31 1//31 2//31
f 2//1 4//1 9//1
f 2//1 9//1 10//1
f 7//32 1//32 5//32
f 3//33 5//33 2//33
f 7//34 5//34 16//34
f 16//35 5//35 12//35
f 6//36 9//36 4//36
f 6//37 17//37 9//37
f 17//38 13//38 9//38
f 17//39 18//39 13//39
f 18//40 11//40 13//40
f 17//17 8//17 18//17
f 8//41 15//41 18//41
