# Blender 4.0.0
# www.blender.org
o decimated_mesh
v 0.018048 0.008682 -0.043599
v 0.018048 0.008682 -0.036553
v 0.036552 0.008682 -0.018118
v 0.046837 0.103177 -0.018118
v 0.018048 0.103177 -0.046868
v 0.043557 0.008682 -0.018118
v 0.053628 0.103167 -0.018120
v 0.018047 0.103176 -0.053674
v 0.031997 0.055681 -0.043943
v 0.033989 0.008677 -0.034002
v 0.018054 0.054281 -0.051004
v 0.040357 0.103176 -0.040375
v 0.051021 0.054630 -0.018118
v 0.044091 0.055474 -0.031705
vn 0.5119 -0.0256 -0.8587
vn -0.7037 0.0766 0.7063
vn 1.0000 0.0001 -0.0002
vn 1.0000 -0.0001 -0.0000
vn 1.0000 0.0001 0.0006
vn 0.8781 -0.1426 -0.4567
vn 0.8459 -0.1576 -0.5095
vn -0.0000 -1.0000 0.0003
vn -0.0004 -1.0000 0.0004
vn -0.0003 -1.0000 -0.0000
vn 0.7088 -0.0720 -0.7017
vn 0.5093 -0.1573 -0.8461
vn 0.4585 -0.1425 -0.8772
vn 0.4551 -0.0485 -0.8891
vn -0.7045 0.0770 0.7055
vn 0.0014 1.0000 -0.0004
vn 0.0001 1.0000 -0.0001
vn 0.0003 -0.0000 1.0000
vn -0.0000 -0.0000 1.0000
vn 0.8886 -0.0477 -0.4562
vn 0.8586 -0.0258 -0.5120
vn 0.7053 -0.1179 -0.6990
vn 1.0000 0.0003 0.0025
vn 1.0000 -0.0000 -0.0000
vn 1.0000 -0.0000 -0.0002
s 0
f 12//1 9//1 8//1
f 4//2 2//2 3//2
f 8//3 5//3 11//3
f 11//4 2//4 1//4
f 5//5 2//5 11//5
f 14//6 13//6 6//6
f 6//7 10//7 14//7
f 6//8 3//8 10//8
f 3//9 2//9 10//9
f 2//10 1//10 10//10
f 12//11 14//11 9//11
f 10//12 1//12 9//12
f 1//13 11//13 9//13
f 11//14 8//14 9//14
f 4//15 5//15 2//15
f 7//16 12//16 4//16
f 12//17 8//17 5//17
f 5//17 4//17 12//17
f 13//18 7//18 4//18
f 4//19 3//19 13//19
f 3//19 6//19 13//19
f 7//20 13//20 14//20
f 14//21 12//21 7//21
f 9//22 14//22 10//22
f 11//23 8//23 1//23
f 1//24 8//24 2//24
f 2//25 8//25 5//25
