# Blender 4.0.0
# www.blender.org
o decimated_mesh
v 0.138874 -0.029747 0.158306
v 0.141513 -0.029756 -0.158134
v 0.279527 -0.009064 -0.158475
v 0.279774 -0.009060 0.158310
v 0.157907 -0.026246 0.159747
v 0.269424 -0.009506 0.159413
v 0.117214 -0.030692 0.159753
v 0.110208 -0.032000 0.156022
v 0.127479 -0.030562 -0.159798
v 0.099348 -0.030971 0.159815
v 0.113211 -0.032170 -0.155985
v 0.263247 -0.009803 -0.159739
v 0.099347 -0.028653 0.159840
v 0.099347 -0.032045 0.156022
v 0.099347 -0.030951 -0.159605
v 0.250913 -0.009005 0.159817
v 0.236094 -0.009067 0.158399
v 0.099347 -0.027570 0.156022
v 0.099347 -0.028982 -0.159605
v 0.222525 -0.012163 -0.159730
v 0.253049 -0.009037 -0.159822
v 0.099347 -0.028224 -0.156006
v 0.236314 -0.009068 -0.158384
v 0.099347 -0.032163 -0.156006
vn -0.0673 0.6345 -0.7700
vn 0.1168 -0.7892 -0.6029
vn 0.1385 -0.9904 0.0001
vn 0.0034 -0.0623 -0.9980
vn 0.0002 -0.9992 0.0412
vn 0.0105 -0.9348 -0.3549
vn -0.1391 0.9690 -0.2041
vn 0.0892 -0.5812 -0.8089
vn 1.0000 -0.0000 -0.0000
vn 0.0777 -0.7103 0.6995
vn -0.1337 0.9534 0.2703
vn 0.1307 -0.8900 0.4369
vn 0.0188 -0.1057 0.9942
vn 0.0042 -1.0000 0.0006
vn -0.1020 0.7424 -0.6621
vn 0.1059 -0.6916 0.7145
vn 0.0735 -0.9872 -0.1413
vn 0.0782 -0.9969 0.0013
vn 0.0851 -0.9964 0.0007
vn 0.1483 -0.9889 0.0013
vn 0.1453 -0.9894 -0.0001
vn 0.1341 -0.9910 0.0021
vn -0.0069 -0.0000 -1.0000
vn -0.0052 0.0303 -0.9995
vn 0.0445 0.4996 -0.8651
vn -0.0006 0.0069 -1.0000
vn -0.0000 -0.9998 -0.0207
vn 0.0001 -1.0000 -0.0000
vn 0.0002 -1.0000 -0.0000
vn -0.0000 -0.9477 -0.3191
vn 1.0000 -0.0000 -0.0003
vn 1.0000 0.0004 0.0001
vn 0.0040 -0.9622 0.2725
vn 0.0159 -0.9526 0.3039
vn 0.0579 -0.9711 0.2316
vn 0.0347 0.7700 0.6371
vn 0.0023 -0.0162 0.9999
vn 0.0036 -0.0104 0.9999
vn 0.0024 -0.0209 0.9998
vn -0.0005 -1.0000 0.0004
vn -0.0784 0.6053 0.7921
vn 0.1453 -0.9894 0.0012
vn 0.1483 -0.9889 -0.0001
vn -0.0019 -1.0000 -0.0000
vn 0.0027 -0.0184 0.9998
vn -0.0010 -1.0000 0.0001
vn 0.0018 -1.0000 0.0001
vn 0.0042 -1.0000 -0.0000
vn 0.0015 -0.0104 0.9999
vn 0.0040 -0.0354 0.9994
vn 1.0000 0.0004 -0.0004
vn -0.0052 0.0293 -0.9996
vn -0.0089 0.0581 -0.9983
vn 0.0056 -0.0335 -0.9994
vn 0.1385 -0.9904 0.0021
vn 0.1341 -0.9910 0.0001
s 0
f 21//1 20//1 23//1
f 2//2 9//2 3//2
f 22//3 23//3 17//3
f 20//4 21//4 12//4
f 17//5 4//5 16//5
f 11//6 15//6 9//6
f 22//7 23//7 19//7
f 9//8 12//8 3//8
f 18//9 14//9 22//9
f 1//10 5//10 7//10
f 13//11 17//11 18//11
f 5//12 1//12 4//12
f 5//13 6//13 16//13
f 14//14 11//14 8//14
f 19//15 23//15 20//15
f 5//16 4//16 6//16
f 9//17 2//17 11//17
f 1//18 8//18 11//18
f 2//19 1//19 11//19
f 2//20 3//20 1//20
f 3//21 4//21 1//21
f 22//22 17//22 18//22
f 9//23 15//23 19//23
f 19//24 20//24 9//24
f 3//25 12//25 21//25
f 12//26 9//26 20//26
f 21//27 3//27 23//27
f 23//28 3//28 17//28
f 4//29 17//29 3//29
f 11//30 24//30 15//30
f 22//9 15//9 19//9
f 15//9 22//9 24//9
f 24//9 22//9 14//9
f 14//31 18//31 10//31
f 10//32 18//32 13//32
f 14//33 8//33 10//33
f 10//34 8//34 7//34
f 1//35 7//35 8//35
f 6//36 4//36 16//36
f 16//37 13//37 5//37
f 13//38 10//38 7//38
f 7//39 5//39 13//39
f 24//40 11//40 14//40
f 17//41 13//41 16//41
f 1//42 2//42 4//42
f 2//43 3//43 4//43
f 3//44 4//44 16//44
f 10//45 5//45 16//45
f 3//46 16//46 21//46
f 21//47 16//47 23//47
f 23//48 16//48 17//48
f 13//49 10//49 16//49
f 10//50 7//50 5//50
f 13//51 10//51 14//51
f 9//52 19//52 21//52
f 19//53 20//53 21//53
f 12//54 9//54 21//54
f 22//55 23//55 18//55
f 18//56 23//56 17//56
f 18//9 19//9 22//9
f 18//9 15//9 19//9
f 18//9 24//9 15//9
f 18//9 14//9 24//9
f 18//9 13//9 14//9
