# Blender 4.0.0
# www.blender.org
o decimated_mesh
v 0.416336 -0.006859 0.155999
v 0.416195 -0.004606 0.158578
v 0.416027 -0.008910 0.158168
v 0.416244 -0.006619 -0.158410
v 0.413927 -0.006859 0.158690
v 0.259989 -0.009068 0.159785
v 0.416017 -0.008943 -0.158096
v 0.416191 -0.004615 -0.158578
v 0.250485 -0.008090 0.159741
v 0.251635 -0.009080 -0.159760
v 0.413927 -0.006859 -0.158690
v 0.254241 -0.007953 -0.159798
v 0.280079 -0.004625 0.158559
v 0.236464 -0.008993 0.158477
v 0.279697 -0.004615 -0.158513
v 0.243056 -0.008504 -0.159153
v 0.235858 -0.008991 -0.158304
vn 0.1280 -0.0796 -0.9886
vn -0.0032 -1.0000 0.0001
vn 0.0103 -0.2368 0.9715
vn 0.9942 -0.0478 0.0962
vn 0.9997 0.0264 -0.0000
vn 0.9889 -0.1487 -0.0000
vn 0.0997 -0.9950 -0.0002
vn 0.0100 -0.2650 -0.9642
vn 0.1338 -0.1455 -0.9803
vn -0.0739 0.7950 -0.6021
vn -0.0002 0.3242 0.9460
vn -0.0931 0.9227 0.3740
vn -0.0969 0.9573 -0.2723
vn -0.0004 0.3621 -0.9321
vn -0.0509 -0.4547 0.8892
vn 0.0010 -1.0000 0.0001
vn -0.0057 -1.0000 -0.0000
vn 0.0008 -1.0000 -0.0000
vn 0.9980 0.0628 -0.0002
vn -0.0886 -0.3289 -0.9402
vn 0.9953 -0.0970 -0.0004
vn 0.0086 -0.0537 -0.9985
vn 0.0060 0.0440 -0.9990
vn -0.0627 0.1115 -0.9918
vn 0.0993 -0.9951 -0.0002
vn -0.0000 1.0000 -0.0000
vn -0.0001 1.0000 -0.0000
vn 0.1476 -0.0994 0.9840
vn 0.0065 0.0434 0.9990
vn 0.0050 0.0937 0.9956
vn 0.9997 0.0264 -0.0003
vn 0.9980 0.0625 -0.0000
vn 0.0066 0.0433 -0.9990
vn 0.0073 -0.0506 -0.9987
s 0
f 11//1 8//1 4//1
f 6//2 14//2 10//2
f 3//3 5//3 6//3
f 3//4 1//4 2//4
f 2//5 4//5 8//5
f 7//6 1//6 3//6
f 15//7 13//7 14//7
f 7//8 10//8 11//8
f 7//9 11//9 4//9
f 15//10 12//10 16//10
f 13//11 9//11 2//11
f 13//12 14//12 9//12
f 15//13 16//13 17//13
f 12//14 15//14 8//14
f 6//15 9//15 14//15
f 7//16 3//16 6//16
f 14//17 17//17 10//17
f 10//18 7//18 6//18
f 2//19 1//19 4//19
f 17//20 16//20 10//20
f 7//21 4//21 1//21
f 12//22 8//22 10//22
f 8//23 11//23 10//23
f 10//24 16//24 12//24
f 15//25 14//25 17//25
f 8//26 15//26 2//26
f 13//27 2//27 15//27
f 5//28 3//28 2//28
f 6//29 5//29 2//29
f 2//30 9//30 6//30
f 4//31 8//31 1//31
f 8//32 2//32 1//32
f 11//33 12//33 8//33
f 17//25 15//25 13//25
f 17//7 13//7 14//7
f 12//34 11//34 10//34
