# Blender 4.0.0
# www.blender.org
o decimated_mesh
v 0.039516 -0.023787 0.159071
v 0.002574 -0.003920 0.159213
v 0.039487 -0.026260 0.158970
v 0.039515 -0.022201 0.156002
v -0.000721 -0.005373 0.159101
v 0.002022 -0.003000 0.156002
v -0.000718 -0.003655 0.158918
v 0.028667 -0.022537 0.159621
v 0.039515 -0.022200 -0.155991
v 0.015129 -0.017796 0.159225
v 0.002022 -0.003000 -0.156002
v 0.024317 -0.021953 0.158503
v 0.002716 -0.003935 -0.159202
v -0.000742 -0.003739 -0.158960
v 0.039516 -0.023787 -0.159071
v 0.015680 -0.018121 -0.159218
v -0.000701 -0.005464 -0.159097
v 0.025831 -0.022014 -0.159482
v 0.039486 -0.026284 -0.158948
vn -0.0395 -0.0350 -0.9986
vn 0.9999 -0.0115 0.0062
vn 0.0535 0.9624 0.2665
vn -0.4558 -0.8901 -0.0000
vn -0.0424 -0.0375 0.9984
vn -0.2645 -0.6998 0.6635
vn -0.2460 -0.8085 0.5347
vn -0.2984 -0.9544 -0.0012
vn 0.0352 0.9614 -0.2730
vn -0.2580 0.9661 -0.0002
vn -0.3581 -0.9337 -0.0015
vn -0.9997 -0.0237 -0.0001
vn -0.6169 -0.7870 0.0002
vn -0.0805 0.1062 0.9911
vn -0.0222 -0.0192 -0.9996
vn 0.0383 0.0644 -0.9972
vn 0.0236 -0.0495 -0.9985
vn 1.0000 -0.0070 -0.0000
vn 0.9999 -0.0113 -0.0061
vn 1.0000 -0.0068 -0.0000
vn 0.4336 0.8010 -0.4127
vn -0.0654 0.0776 -0.9948
vn 0.4500 0.8788 -0.1589
vn 0.4489 0.8765 0.1738
vn 0.0458 -0.0415 0.9981
vn 0.0629 0.1099 0.9919
vn -0.0246 -0.0214 0.9995
vn 0.4324 0.8011 0.4138
vn -0.2731 -0.9620 0.0001
vn -0.2326 0.9726 -0.0000
vn -0.4122 -0.9111 0.0002
vn -1.0000 0.0017 0.0001
vn -0.6114 -0.7913 -0.0003
vn 0.9999 -0.0115 -0.0000
vn 0.9999 -0.0118 -0.0000
vn 1.0000 0.0005 -0.0000
vn -0.0270 -0.0159 0.9995
vn -0.0465 -0.0494 0.9977
vn -0.0444 -0.0480 -0.9979
vn -0.0240 -0.0152 -0.9996
s 0
f 18//1 16//1 13//1
f 15//2 9//2 19//2
f 2//3 6//3 7//3
f 4//4 11//4 9//4
f 2//5 10//5 8//5
f 8//6 10//6 12//6
f 8//7 12//7 3//7
f 12//8 18//8 19//8
f 11//9 13//9 14//9
f 7//10 11//10 14//10
f 12//11 16//11 18//11
f 5//12 14//12 17//12
f 17//13 10//13 5//13
f 5//14 2//14 7//14
f 16//15 17//15 13//15
f 13//16 15//16 18//16
f 15//17 19//17 18//17
f 9//18 4//18 19//18
f 4//19 1//19 3//19
f 3//20 19//20 4//20
f 15//21 13//21 9//21
f 17//22 14//22 13//22
f 13//23 11//23 9//23
f 11//4 4//4 6//4
f 6//24 2//24 4//24
f 3//25 1//25 8//25
f 1//26 2//26 8//26
f 2//27 5//27 10//27
f 4//28 2//28 1//28
f 19//29 3//29 12//29
f 7//30 6//30 11//30
f 12//31 10//31 16//31
f 5//32 7//32 14//32
f 17//33 16//33 10//33
f 3//34 19//34 1//34
f 19//35 15//35 1//35
f 15//36 9//36 1//36
f 9//36 4//36 1//36
f 11//4 9//4 6//4
f 6//4 9//4 4//4
f 5//37 8//37 2//37
f 5//38 10//38 8//38
f 16//39 17//39 18//39
f 17//40 13//40 18//40
