# Blender 4.0.0
# www.blender.org
o decimated_mesh
v 0.099347 -0.028654 0.159818
v 0.039563 -0.023929 0.159315
v 0.099347 -0.030894 0.159818
v 0.099347 -0.027572 0.156000
v 0.039515 -0.022202 0.156000
v 0.071877 -0.030555 0.159706
v 0.099346 -0.028801 -0.159612
v 0.039515 -0.022202 -0.156023
v 0.039519 -0.026129 0.159118
v 0.099347 -0.032044 0.156000
v 0.039573 -0.023887 -0.159408
v 0.069839 -0.031033 0.158283
v 0.099347 -0.030952 -0.159622
v 0.039521 -0.026140 -0.159188
v 0.068771 -0.030453 -0.159598
v 0.099347 -0.032162 -0.156023
v 0.074823 -0.031701 -0.156072
vn -0.0281 -0.0963 -0.9950
vn 1.0000 0.0004 0.0001
vn 0.0860 0.9585 0.2717
vn -1.0000 -0.0015 -0.0000
vn 0.0719 0.8934 -0.4435
vn -0.0158 -0.9508 -0.3094
vn -0.0302 -0.0886 0.9956
vn -0.1465 -0.9845 -0.0968
vn -0.0188 -0.9998 0.0004
vn 0.0661 0.8854 0.4601
vn 0.1094 0.9940 -0.0039
vn -0.1277 -0.8705 0.4753
vn -0.0007 0.0045 -1.0000
vn -0.0017 0.0216 -0.9998
vn 1.0000 0.0002 -0.0000
vn 1.0000 -0.0000 -0.0000
vn -0.0071 -0.9449 0.3274
vn -0.0130 -0.9574 0.2885
vn -0.9996 0.0178 0.0238
vn -1.0000 -0.0011 -0.0000
vn -0.9994 0.0206 -0.0275
vn -0.0172 -0.9477 -0.3187
vn -0.0041 -0.0000 1.0000
vn -0.0061 0.0293 0.9996
vn -0.1556 -0.9878 -0.0004
vn -0.1597 -0.9872 -0.0000
vn -0.0341 -0.9994 0.0016
vn 0.0894 0.9960 -0.0000
vn -0.0130 -0.9421 0.3350
vn -0.0105 -0.9574 0.2885
vn 1.0000 0.0004 -0.0000
vn -0.0157 -0.9477 -0.3187
vn -0.0173 -0.9516 -0.3070
s 0
f 15//1 14//1 11//1
f 16//2 13//2 7//2
f 1//3 4//3 5//3
f 14//4 9//4 8//4
f 8//5 7//5 11//5
f 13//6 17//6 15//6
f 2//7 9//7 6//7
f 14//8 15//8 17//8
f 17//9 16//9 10//9
f 5//10 2//10 1//10
f 8//11 4//11 7//11
f 9//12 12//12 6//12
f 13//13 15//13 7//13
f 11//14 7//14 15//14
f 7//15 4//15 16//15
f 4//16 1//16 3//16
f 3//16 10//16 4//16
f 10//16 16//16 4//16
f 12//17 10//17 6//17
f 10//18 3//18 6//18
f 2//19 5//19 9//19
f 5//20 8//20 9//20
f 8//21 11//21 14//21
f 16//22 17//22 13//22
f 6//23 3//23 1//23
f 2//24 6//24 1//24
f 17//25 12//25 14//25
f 14//26 12//26 9//26
f 10//27 12//27 17//27
f 8//28 5//28 4//28
f 3//16 10//16 16//16
f 3//16 16//16 13//16
f 3//16 13//16 4//16
f 6//29 12//29 3//29
f 12//30 10//30 3//30
f 13//31 7//31 4//31
f 16//32 15//32 13//32
f 15//33 16//33 17//33
