# Blender 4.0.0
# www.blender.org
o decimated_mesh
v -0.366497 -0.186272 -0.001313
v -0.367023 -0.188450 0.001800
v -0.364410 -0.188277 -0.004066
v -0.366028 -0.189987 -0.000591
v -0.366661 0.189010 -0.000241
v -0.366975 0.188581 0.001734
v -0.361079 -0.190101 -0.004921
v -0.363271 -0.192369 -0.003115
v -0.364077 -0.192755 -0.000751
v -0.364460 0.188041 -0.004109
v -0.363441 -0.192862 0.003594
v -0.364082 -0.187661 0.006554
v -0.360609 -0.186068 -0.006338
v -0.361079 -0.193551 -0.000751
v -0.363224 0.192366 -0.003181
v -0.364077 0.192765 -0.000751
v -0.361079 0.190111 -0.004921
v -0.362953 -0.192053 0.005548
v -0.364169 0.187572 0.006542
v -0.363385 0.192878 0.003726
v -0.360230 0.186058 -0.006419
v -0.004909 -0.186405 -0.006414
v -0.361079 0.193561 -0.000751
v -0.357427 -0.180528 0.013285
v -0.362948 0.192031 0.005559
v -0.001962 -0.192224 -0.003508
v -0.004547 0.186393 -0.006363
v -0.353778 -0.183925 0.013000
v -0.352538 -0.177516 0.016361
v -0.356990 0.180298 0.013576
v -0.000602 -0.188127 -0.004118
v -0.003941 -0.193551 -0.000751
v -0.001933 0.192242 -0.003468
v -0.002074 -0.192025 0.005556
v -0.003941 -0.193361 0.003090
v -0.351908 0.177422 0.016499
v -0.353755 0.183856 0.013045
v 0.001477 -0.186272 -0.001318
v 0.001008 -0.189987 -0.000593
v -0.000943 -0.192755 -0.000751
v -0.001123 -0.192641 0.003090
v -0.003941 0.193561 -0.000751
v -0.000554 0.188150 -0.004067
v -0.012588 -0.177054 0.016461
v -0.003941 0.193371 0.003090
v 0.001983 -0.188574 0.001648
v 0.001494 0.189013 -0.000552
v -0.000943 0.192765 -0.000751
v -0.001123 0.192651 0.003090
v -0.000789 -0.187504 0.006499
v -0.007624 -0.180522 0.013296
v -0.011203 -0.183874 0.013016
v -0.012896 0.177264 0.016486
v -0.002067 0.192064 0.005548
v 0.002003 0.188461 0.001773
v -0.011173 0.183973 0.012964
v -0.000888 0.187500 0.006592
v -0.008092 0.180283 0.013604
vn 0.9768 -0.0000 -0.2140
vn -0.9438 -0.1739 -0.2810
vn -0.0000 0.6757 0.7372
vn -0.3924 -0.3105 -0.8658
vn -0.7777 -0.3395 -0.5291
vn -0.3747 -0.2681 -0.8875
vn -0.7750 -0.5260 -0.3502
vn -0.7969 -0.0002 -0.6041
vn 0.0010 0.4432 -0.8964
vn -0.2493 -0.9387 -0.2382
vn -0.2566 0.9664 0.0151
vn -0.7799 0.3362 -0.5280
vn -0.7909 0.4956 -0.3590
vn -0.3920 0.2987 -0.8701
vn -0.3697 0.2528 -0.8941
vn -0.7854 -0.4776 0.3937
vn -0.7798 -0.3232 0.5361
vn -0.8637 0.0002 0.5041
vn -0.0000 -0.9011 -0.4336
vn -0.0000 0.9988 0.0493
vn -0.2491 0.9380 -0.2413
vn 0.2474 0.9677 0.0477
vn 0.3231 -0.4160 0.8500
vn -0.0004 0.8827 0.4699
vn -0.7834 0.3305 0.5264
vn -0.7855 0.4691 0.4037
vn -0.2566 -0.9664 0.0137
vn 0.0009 -0.4465 -0.8948
vn 0.8387 0.5418 -0.0550
vn -0.5324 -0.0000 0.8465
vn 0.3731 -0.2564 -0.8917
vn -0.0006 -0.6227 -0.7825
vn -0.3215 -0.4167 0.8503
vn 0.6973 0.0003 0.7167
vn -0.4791 0.0003 -0.8778
vn 0.8639 0.0010 -0.5036
vn 0.7764 -0.3369 -0.5326
vn 0.7653 -0.5176 -0.3826
vn 0.2471 -0.9305 -0.2705
vn -0.0000 0.8996 -0.4367
vn 0.3923 0.2612 -0.8820
vn 0.2347 -0.9180 0.3196
vn 0.0003 0.4648 0.8854
vn 0.0001 -0.8793 0.4763
vn 0.4985 0.0001 -0.8669
vn 0.9384 -0.1766 -0.2972
vn -0.8161 -0.5770 0.0313
vn 0.7876 -0.4538 0.4169
vn 0.2472 0.9308 -0.2692
vn 0.2564 -0.9657 0.0406
vn 0.7743 0.3391 -0.5344
vn 0.7848 0.4895 -0.3802
vn 0.7855 -0.3322 0.5221
vn 0.3222 0.4166 0.8501
vn -0.0000 -0.4644 0.8856
vn 0.2354 0.9210 0.3105
vn -0.0000 -0.6758 0.7371
vn -0.9876 -0.0000 -0.1570
vn 0.7877 0.4582 0.4119
vn 0.8171 -0.5764 0.0077
vn -0.7111 -0.0001 0.7031
vn -0.0003 -0.0004 1.0000
vn 0.7814 0.3239 0.5334
vn -0.3204 0.4181 0.8501
vn 0.8575 0.0001 0.5144
vn 0.4924 -0.3097 0.8134
vn -0.0012 -0.9878 0.1559
vn 0.5143 0.0004 0.8576
vn 0.9858 0.0003 -0.1680
vn -0.7868 0.6080 0.1062
vn -0.8242 0.5662 -0.0080
vn -0.0001 0.6753 0.7376
vn -0.8458 -0.2028 -0.4935
vn -0.8690 0.0010 -0.4948
vn -0.0002 0.3465 -0.9380
vn -0.0004 0.6106 -0.7919
vn -0.8504 -0.0002 0.5262
vn -0.0001 -0.8945 -0.4471
vn -0.0002 -0.0002 -1.0000
vn 0.0002 0.0001 -1.0000
vn -0.0011 0.9887 0.1501
vn 0.2564 0.9657 0.0407
vn 0.2908 -0.3837 0.8765
vn -0.0001 0.9078 0.4195
vn 0.4835 0.3120 0.8179
vn -0.0005 -0.3314 -0.9435
vn 0.8085 0.5859 0.0553
vn -0.4984 0.0005 0.8669
vn -0.4891 -0.3122 0.8144
vn -0.3013 -0.3964 0.8672
vn 0.7051 -0.0000 0.7091
vn -0.5130 -0.0002 -0.8584
vn 0.8028 -0.0000 -0.5963
vn -0.0000 0.8975 -0.4411
vn -0.0000 0.4730 0.8810
vn -0.0007 -0.9239 0.3827
vn 0.4705 -0.0003 -0.8824
vn -0.7921 -0.6020 0.1012
vn 0.2474 -0.9677 0.0478
vn 0.8457 -0.2031 -0.4936
vn 0.2824 0.3881 0.8773
vn 0.0003 -0.4508 0.8926
vn 0.0001 -0.6751 0.7377
vn -0.9861 0.0001 -0.1664
vn 0.8028 -0.5937 0.0553
vn -0.6997 0.0003 0.7144
vn -0.0000 -0.0001 1.0000
vn -0.4840 0.3126 0.8173
vn -0.2840 0.3890 0.8764
vn 0.8682 -0.0002 0.4962
vn -0.0000 -0.9988 0.0493
vn 0.5376 -0.0000 0.8432
vn -0.0000 -0.6751 0.7377
vn 0.0001 -0.6758 0.7371
vn -0.0000 0.6753 0.7376
vn -0.0001 0.8828 0.4697
vn -0.0005 0.9077 0.4195
vn 0.9857 -0.0000 -0.1682
vn -0.0001 0.6757 0.7371
vn 0.9768 0.0004 -0.2140
s 0
f 46//1 47//1 55//1
f 1//2 4//2 2//2
f 54//3 25//3 56//3
f 3//4 7//4 8//4
f 3//5 8//5 4//5
f 3//6 13//6 7//6
f 4//7 8//7 9//7
f 1//8 10//8 3//8
f 27//9 17//9 33//9
f 8//10 14//10 9//10
f 20//11 23//11 16//11
f 5//12 15//12 10//12
f 5//13 16//13 15//13
f 10//14 15//14 17//14
f 10//15 17//15 21//15
f 11//16 18//16 2//16
f 2//17 18//17 12//17
f 2//18 19//18 6//18
f 14//19 26//19 32//19
f 23//20 45//20 42//20
f 15//21 16//21 23//21
f 49//22 42//22 45//22
f 51//23 52//23 34//23
f 20//24 54//24 45//24
f 6//25 19//25 25//25
f 6//26 25//26 20//26
f 14//27 11//27 9//27
f 7//28 22//28 26//28
f 47//29 48//29 55//29
f 30//30 24//30 29//30
f 22//31 31//31 26//31
f 7//32 26//32 8//32
f 28//33 24//33 18//33
f 51//34 57//34 58//34
f 13//35 10//35 21//35
f 38//36 43//36 47//36
f 31//37 39//37 26//37
f 26//38 39//38 40//38
f 26//39 40//39 32//39
f 33//40 23//40 42//40
f 33//41 43//41 27//41
f 35//42 41//42 34//42
f 36//43 53//43 56//43
f 18//44 35//44 34//44
f 31//45 27//45 43//45
f 38//46 46//46 39//46
f 4//47 9//47 2//47
f 41//48 46//48 34//48
f 42//49 48//49 33//49
f 41//50 32//50 40//50
f 43//51 33//51 47//51
f 33//52 48//52 47//52
f 34//53 46//53 50//53
f 56//54 58//54 54//54
f 28//55 52//55 29//55
f 45//56 54//56 49//56
f 28//57 18//57 34//57
f 1//58 6//58 5//58
f 49//59 54//59 55//59
f 40//60 39//60 46//60
f 24//61 19//61 12//61
f 44//62 36//62 29//62
f 54//63 57//63 55//63
f 30//64 37//64 25//64
f 50//65 55//65 57//65
f 50//66 51//66 34//66
f 14//67 35//67 11//67
f 44//68 58//68 53//68
f 46//69 38//69 47//69
f 6//70 20//70 16//70
f 16//71 5//71 6//71
f 37//72 56//72 25//72
f 3//73 4//73 1//73
f 1//74 5//74 10//74
f 27//75 21//75 17//75
f 33//76 17//76 15//76
f 2//77 12//77 19//77
f 14//78 8//78 26//78
f 13//79 21//79 22//79
f 27//80 22//80 21//80
f 23//81 20//81 45//81
f 49//82 48//82 42//82
f 51//83 44//83 52//83
f 20//84 25//84 54//84
f 58//85 57//85 54//85
f 7//86 13//86 22//86
f 48//87 49//87 55//87
f 29//88 36//88 30//88
f 24//89 12//89 18//89
f 28//90 29//90 24//90
f 51//91 50//91 57//91
f 13//92 3//92 10//92
f 38//93 31//93 43//93
f 33//94 15//94 23//94
f 56//95 37//95 36//95
f 18//96 11//96 35//96
f 31//97 22//97 27//97
f 9//98 11//98 2//98
f 41//99 35//99 32//99
f 38//100 39//100 31//100
f 56//101 53//101 58//101
f 44//102 29//102 52//102
f 52//103 28//103 34//103
f 1//104 2//104 6//104
f 46//105 41//105 40//105
f 24//106 30//106 19//106
f 44//107 53//107 36//107
f 30//108 25//108 19//108
f 30//109 36//109 37//109
f 50//110 46//110 55//110
f 14//111 32//111 35//111
f 51//112 58//112 44//112
f 34//113 52//113 18//113
f 52//114 28//114 18//114
f 37//115 54//115 25//115
f 54//116 45//116 25//116
f 45//117 20//117 25//117
f 38//118 55//118 46//118
f 56//119 54//119 37//119
f 47//120 55//120 38//120
