# Perseverance visual mesh from JPL ops GLTF
mtllib rover.mtl
usemtl rover
v 0.446591 0.016410 -0.006104
v 0.446575 0.010150 -0.014078
v 0.458421 0.016845 -0.015581
v 0.446532 0.009413 -0.006794
v 0.446532 0.000051 -0.011163
v 0.446546 0.016729 0.005027
v 0.446532 0.009776 0.006252
v 0.446586 0.001296 -0.017330
v 0.446551 -0.009556 -0.014599
v 0.446532 -0.009311 -0.006794
v 0.458418 0.005574 -0.022394
v 0.458421 -0.007063 -0.021716
v 0.446649 -0.016377 -0.005983
v 0.446554 -0.016640 0.005009
v 0.446532 -0.009674 0.006252
v 0.458794 -0.018470 -0.013437
v 0.458416 -0.023189 -0.001982
v 0.446612 -0.011579 0.012832
v 0.446587 -0.003857 0.017028
v 0.446532 0.000051 0.013493
v 0.458418 -0.018309 0.014105
v 0.458806 -0.009284 0.020954
v 0.446535 0.005228 0.016528
v 0.458421 0.007508 0.021741
v 0.446615 0.011701 0.012813
v 0.458418 0.018411 0.014105
v 0.458779 -0.002389 0.022799
v 0.458342 0.005544 0.028226
v 0.458656 -0.003098 0.028342
v 0.458332 0.013940 0.024730
v 0.458339 0.017693 0.017969
v 0.458421 0.022537 0.003793
v 0.458353 0.021526 0.013297
v 0.458839 0.022850 -0.002348
v 0.458384 0.024447 0.006345
v 0.447533 0.018807 0.016720
v 0.447533 0.024628 0.006190
v 0.458335 0.028436 -0.000901
v 0.458750 0.020956 -0.009268
v 0.458617 0.028324 -0.002847
v 0.447533 0.028440 -0.001325
v 0.458675 0.026258 -0.011358
v 0.458356 0.021652 -0.018863
v 0.458358 0.015276 -0.023980
v 0.458366 0.006999 -0.024359
v 0.447533 0.015434 -0.023753
v 0.458293 0.000063 -0.025272
v 0.447533 0.006578 -0.024313
v 0.458375 -0.006685 -0.024195
v 0.447533 -0.005023 -0.024552
v 0.458339 -0.014270 -0.024363
v 0.458835 -0.013410 -0.018518
v 0.447533 0.011535 -0.017215
v 0.458612 -0.022925 -0.016915
v 0.447533 0.004961 -0.019798
v 0.445084 0.016305 -0.023641
v 0.442559 0.011872 -0.017324
v 0.444917 0.018397 -0.022244
v 0.444738 0.018392 -0.026681
v 0.444377 0.023101 -0.017225
v 0.442534 0.018762 -0.027039
v 0.443793 0.021096 -0.025175
v 0.443505 0.018444 -0.022052
v 0.443577 0.023505 -0.023025
v 0.442024 0.022629 -0.023847
v 0.441961 0.015099 -0.014830
v 0.446009 0.030309 -0.012884
v 0.443295 0.027647 -0.017860
v 0.444751 0.019805 -0.006345
v 0.441554 0.014712 -0.013903
v 0.441554 0.019298 -0.006831
v 0.441554 0.010895 -0.007484
v 0.441554 0.013237 0.000520
v 0.441554 0.002894 -0.013025
v 0.441554 0.020284 0.001984
v 0.441554 0.008607 0.010571
v 0.441554 0.002366 -0.020169
v 0.441554 -0.006722 -0.019241
v 0.447533 -0.004174 -0.019857
v 0.441554 -0.009209 -0.009901
v 0.447533 -0.011603 -0.016828
v 0.441554 -0.012973 -0.015712
v 0.441554 -0.017946 -0.009365
v 0.441554 -0.013135 0.000520
v 0.446820 -0.012452 -0.016454
v 0.447533 -0.015209 -0.023925
v 0.447533 -0.012423 -0.016634
v 0.447533 -0.017265 -0.023081
v 0.449033 -0.017400 -0.023041
v 0.444826 -0.015266 -0.014016
v 0.441958 -0.020264 -0.005550
v 0.445009 -0.024116 -0.022239
v 0.447044 -0.019901 -0.026138
v 0.449033 -0.019092 -0.025183
v 0.448825 -0.025310 -0.019264
v 0.446023 -0.026256 -0.019721
v 0.443218 -0.029412 -0.014541
v 0.445958 -0.022831 -0.017285
v 0.441896 -0.032027 -0.007318
v 0.449033 -0.022965 -0.017480
v 0.444764 -0.025708 -0.012543
v 0.443631 -0.032338 -0.005754
v 0.442559 -0.032752 -0.002612
v 0.442415 -0.020859 -0.001509
v 0.444609 -0.032042 -0.005317
v 0.444738 -0.032255 -0.002492
v 0.443404 -0.028194 -0.004974
v 0.444916 -0.028366 -0.004706
v 0.445061 -0.028586 -0.002205
v 0.458335 -0.027060 -0.009528
v 0.447533 -0.028340 -0.001839
v 0.447533 -0.020629 -0.001286
v 0.441554 -0.019217 0.006830
v 0.447533 -0.019579 0.005698
v 0.441554 -0.008505 0.010571
v 0.447533 -0.023777 0.007934
v 0.447533 -0.016467 0.012058
v 0.441554 -0.015740 0.012998
v 0.441554 -0.008870 0.018336
v 0.447533 -0.008213 0.019064
v 0.447533 -0.017568 0.018241
v 0.458328 -0.028284 -0.000296
v 0.458361 -0.024283 0.006364
v 0.458335 -0.021853 0.012734
v 0.458414 -0.017604 0.018035
v 0.458324 -0.013269 0.025142
v 0.447533 -0.013068 0.025230
v 0.458760 -0.011175 0.026455
v 0.449033 -0.011207 0.026685
v 0.447533 -0.011318 0.026554
v 0.446811 -0.008030 0.019100
v 0.458854 -0.012251 0.029304
v 0.458794 -0.003955 0.031437
v 0.457504 -0.012192 0.029324
v 0.457504 -0.011122 0.026617
v 0.457414 -0.003501 0.028574
v 0.449033 -0.003609 0.028729
v 0.444712 0.002275 0.028653
v 0.448825 -0.003981 0.031646
v 0.445959 -0.003494 0.028451
v 0.446023 -0.003901 0.032695
v 0.443642 0.009975 0.026929
v 0.449033 -0.012217 0.029221
v 0.447781 -0.007700 0.032053
v 0.447016 -0.012680 0.030382
v 0.444920 -0.006773 0.032173
v 0.444781 -0.004330 0.020420
v 0.442568 0.005772 0.032220
v 0.443463 -0.000059 0.020805
v 0.441554 -0.000619 0.020447
v 0.441554 0.000051 0.013372
v 0.441554 0.006257 0.019484
v 0.443547 0.008771 0.031738
v 0.442532 0.014161 0.029767
v 0.443977 0.011422 0.030771
v 0.442422 0.009140 0.018994
v 0.444714 0.014027 0.029298
v 0.444915 0.010135 0.026964
v 0.445129 0.012374 0.025837
v 0.447533 0.012624 0.025558
v 0.447533 0.009247 0.018605
v 0.447533 0.014771 0.014203
v 0.441554 0.016390 0.012141
v 0.447533 0.019390 0.006321
v 0.447533 0.020695 -0.002353
v 0.446818 0.020858 -0.002636
v 0.447533 0.028739 -0.003416
v 0.444921 0.031297 -0.010121
v 0.447001 0.032697 -0.004121
v 0.447781 0.031655 -0.009262
v 0.449033 0.031461 -0.003935
v 0.449094 0.028612 -0.003403
v 0.448783 0.029482 -0.012296
v 0.445932 0.026441 -0.011127
v 0.449033 0.026651 -0.011109
v 0.457461 0.028647 -0.003537
v 0.457430 0.026509 -0.011127
v 0.457504 0.029355 -0.012174
v 0.458825 0.029268 -0.012205
v 0.458854 0.031550 -0.003947
v 0.457504 -0.017379 -0.022928
v 0.457504 -0.022905 -0.017434
v 0.458860 -0.025125 -0.019142
v 0.457504 -0.025134 -0.019286
v 0.458911 -0.019169 -0.025109
v 0.458698 -0.016567 -0.022949
v 0.432586 0.015759 -0.004465
v 0.442646 0.016166 -0.002536
v 0.442640 0.014104 -0.008173
v 0.432586 0.013876 -0.008700
v 0.491391 -0.008993 -0.004236
v 0.491391 0.003125 0.000112
v 0.491391 -0.021185 -0.011660
v 0.496094 0.003125 0.000112
v 0.491391 0.002018 0.002398
v 0.491391 -0.022292 -0.009374
v 0.496094 0.002018 0.002398
v 0.491391 -0.022432 -0.010853
v 0.496094 -0.022292 -0.009374
v 0.497265 0.002574 0.001249
v 0.496094 -0.021185 -0.011660
v 0.497278 -0.022418 -0.010860
v 0.491391 0.006884 0.014647
v 0.491391 -0.000262 0.012405
v 0.491391 0.015224 0.019904
v 0.491391 0.007347 0.013849
v 0.491391 0.016446 0.018605
v 0.491391 0.000845 0.010119
v 0.496094 0.015224 0.019904
v 0.496094 -0.000262 0.012405
v 0.497265 0.016328 0.019003
v 0.496094 0.000845 0.010119
v 0.496094 0.016623 0.017759
v 0.497261 0.000290 0.011265
v 0.496094 0.022627 -0.008732
v 0.491391 0.022853 -0.009499
v 0.491391 0.014482 -0.012677
v 0.491391 0.018914 -0.012318
v 0.491391 0.022054 -0.011832
v 0.491391 0.015589 -0.014963
v 0.496094 0.015589 -0.014963
v 0.496094 0.014482 -0.012677
v 0.497273 0.022949 -0.009965
v 0.496094 0.022054 -0.011832
v 0.497259 0.015054 -0.013858
v 0.382511 0.011221 0.015961
v 0.422102 0.005145 0.018830
v 0.422063 0.012466 0.015160
v 0.382628 0.005141 0.018784
v 0.422030 -0.000088 0.019483
v 0.380076 0.006812 0.020513
v 0.382681 -0.001469 0.019388
v 0.422028 -0.006753 0.018275
v 0.424824 -0.000000 0.023911
v 0.424608 0.009440 0.021482
v 0.382453 0.016304 0.010737
v 0.426989 0.001973 0.026146
v 0.424651 0.019239 0.013937
v 0.426963 0.014113 0.021946
v 0.422058 0.017558 0.008575
v 0.426985 0.022952 0.012704
v 0.424519 0.023332 0.002814
v 0.427020 0.003644 0.032112
v 0.380121 0.014161 0.016167
v 0.380173 0.020107 0.008039
v 0.377172 0.014313 0.016121
v 0.382468 0.019349 0.003088
v 0.422112 0.019604 0.000650
v 0.380055 0.021325 -0.003083
v 0.382475 0.018813 -0.005087
v 0.422064 0.018715 -0.005556
v 0.382524 0.015624 -0.011611
v 0.380141 0.018558 -0.010924
v 0.377181 0.021290 0.003316
v 0.377124 0.018883 0.010016
v 0.377176 0.020536 -0.006544
v 0.377084 0.018318 -0.000853
v 0.377416 0.015316 0.008599
v 0.377436 0.016651 0.005594
v 0.377434 0.011106 0.013605
v 0.377120 0.010217 -0.015125
v 0.377158 0.005924 0.020599
v 0.377201 0.005053 0.017217
v 0.377164 -0.002537 0.021374
v 0.377001 -0.006698 0.016604
v 0.377182 0.015936 -0.014353
v 0.380120 -0.002672 0.021294
v 0.377158 -0.011456 0.018062
v 0.377162 -0.013593 0.011623
v 0.380075 -0.010795 0.018674
v 0.382725 -0.006258 0.018362
v 0.381600 -0.010056 0.017368
v 0.383571 -0.013201 0.014191
v 0.381637 -0.015722 0.012425
v 0.377146 -0.017843 0.011855
v 0.380054 -0.017396 0.012598
v 0.382493 -0.018345 0.006435
v 0.380075 -0.021094 0.004276
v 0.377157 -0.021076 0.003366
v 0.377336 -0.016683 0.005552
v 0.377140 -0.020659 -0.005527
v 0.377030 -0.017473 -0.004472
v 0.377140 -0.015432 -0.014838
v 0.377104 -0.011421 -0.013694
v 0.380100 -0.020386 -0.007173
v 0.382482 -0.019007 -0.004387
v 0.380141 -0.013061 -0.017014
v 0.377173 -0.007468 -0.020017
v 0.377160 -0.002613 -0.017562
v 0.377182 -0.000189 -0.021397
v 0.380075 -0.004821 -0.020891
v 0.377185 0.008706 -0.019668
v 0.380141 0.004118 -0.021085
v 0.380055 0.011822 -0.017959
v 0.382586 0.010500 -0.016348
v 0.382512 0.004410 -0.018899
v 0.382642 -0.004786 -0.018879
v 0.422044 0.005373 -0.018780
v 0.422041 0.012489 -0.014955
v 0.422001 0.016308 -0.010573
v 0.424574 0.016938 -0.016482
v 0.424630 0.022306 -0.007522
v 0.426986 0.026196 -0.001166
v 0.426989 0.021704 -0.014685
v 0.424572 0.003463 -0.023225
v 0.426963 0.011996 -0.023100
v 0.422048 -0.002519 -0.019294
v 0.426985 -0.000427 -0.026134
v 0.424723 -0.006152 -0.022718
v 0.421399 -0.011215 -0.015788
v 0.422561 -0.008343 -0.018143
v 0.382496 -0.011369 -0.015659
v 0.382525 -0.015443 -0.011742
v 0.421026 -0.016717 -0.009501
v 0.422547 -0.015391 -0.012850
v 0.424570 -0.013837 -0.018842
v 0.422088 -0.019044 -0.003977
v 0.424850 -0.020640 -0.011939
v 0.383609 -0.019237 0.000565
v 0.426989 -0.013414 -0.022340
v 0.422023 -0.019127 0.003619
v 0.424816 -0.024015 0.001697
v 0.422048 -0.016433 0.010318
v 0.424631 -0.018363 0.014888
v 0.422032 -0.012552 0.014887
v 0.424624 -0.009484 0.021508
v 0.426985 -0.011984 0.023276
v 0.426985 -0.022372 0.013533
v 0.426963 -0.025956 0.001257
v 0.427040 -0.014078 0.029103
v 0.426955 -0.023223 -0.012012
v 0.427034 -0.025938 0.018917
v 0.427043 -0.030708 0.008875
v 0.427034 -0.031995 -0.002207
v 0.427037 -0.027310 -0.017140
v 0.428729 -0.017129 0.027063
v 0.428810 -0.031514 0.004591
v 0.428850 -0.028492 0.014188
v 0.428489 -0.025413 0.019438
v 0.428716 -0.031324 -0.006269
v 0.428784 -0.006868 0.031151
v 0.428701 -0.027253 -0.016517
v 0.429101 -0.018992 -0.008104
v 0.428814 -0.021989 -0.022892
v 0.428654 0.004272 0.031814
v 0.427037 -0.015988 -0.027810
v 0.427034 -0.003307 -0.031914
v 0.427024 0.009774 -0.030562
v 0.428816 -0.006924 -0.031046
v 0.428757 -0.015619 -0.027816
v 0.428374 -0.000553 -0.032018
v 0.429079 -0.002956 -0.020515
v 0.428777 0.007409 -0.030940
v 0.429073 -0.013120 -0.016175
v 0.429082 0.006004 -0.019768
v 0.428717 0.014691 -0.028316
v 0.427045 0.021522 -0.023880
v 0.427034 0.029424 -0.012974
v 0.428785 0.023664 -0.021569
v 0.429078 0.013713 -0.015615
v 0.433557 0.008135 -0.018588
v 0.433557 -0.001857 -0.020240
v 0.433557 0.015175 -0.013661
v 0.433557 -0.009444 -0.018026
v 0.436363 0.000051 0.000034
v 0.433557 -0.015747 -0.012814
v 0.429072 0.018806 -0.008621
v 0.433557 0.019077 -0.007223
v 0.428688 0.030130 -0.010921
v 0.429099 0.020699 -0.001731
v 0.433557 0.020439 0.000840
v 0.427035 0.031979 -0.002115
v 0.428825 0.031818 -0.001703
v 0.429074 0.019716 0.006436
v 0.428376 0.031514 0.006149
v 0.433557 0.018563 0.008519
v 0.428789 0.029355 0.012499
v 0.429060 0.017041 0.011796
v 0.427034 0.030914 0.008950
v 0.427043 0.025894 0.018914
v 0.428773 0.025693 0.018904
v 0.427034 0.017962 0.026702
v 0.428696 0.019986 0.024984
v 0.428816 0.012873 0.029130
v 0.429075 0.002647 0.020551
v 0.429098 0.010901 0.017732
v 0.433557 0.012137 0.016347
v 0.433557 0.004345 0.019981
v 0.429051 -0.006922 0.019694
v 0.433557 -0.003833 0.020024
v 0.433557 -0.010842 0.017287
v 0.429087 -0.014024 0.015158
v 0.433557 -0.016904 0.011202
v 0.429110 -0.018270 0.009624
v 0.433557 -0.020249 0.001642
v 0.429085 -0.020701 0.000652
v 0.433557 -0.019372 -0.006215
v 0.432942 -0.014711 -0.007799
v 0.432942 -0.006920 -0.015409
v 0.442608 -0.007669 -0.014761
v 0.442607 0.003453 -0.016118
v 0.442607 -0.015128 -0.006454
v 0.432941 0.006746 -0.015627
v 0.432941 -0.016728 0.001438
v 0.442608 0.011854 -0.011507
v 0.432941 0.014468 -0.008074
v 0.442607 0.015179 -0.006033
v 0.442608 -0.015978 0.004677
v 0.432942 -0.010846 0.013199
v 0.442607 -0.010543 0.012524
v 0.442607 -0.003351 0.016187
v 0.432941 0.001455 0.016814
v 0.442608 0.007771 0.014830
v 0.432942 0.009868 0.013456
v 0.432942 0.015557 0.006663
v 0.432941 0.016076 -0.004067
v 0.442607 0.015230 0.006523
v 0.493449 0.003865 -0.001809
v 0.493364 -0.019680 -0.013166
v 0.493367 0.014112 -0.013084
v 0.494117 -0.019609 -0.013033
v 0.493227 -0.020089 -0.013037
v 0.495800 0.002773 -0.000143
v 0.495747 -0.020671 -0.011501
v 0.493423 0.003377 0.000354
v 0.491364 -0.020929 -0.011620
v 0.493267 -0.015333 -0.018406
v 0.488502 -0.020270 -0.012773
v 0.488368 -0.017458 -0.016351
v 0.487720 -0.015936 -0.017678
v 0.491364 0.003158 0.000043
v 0.491365 0.003612 0.000518
v 0.491364 -0.022102 -0.009198
v 0.491365 0.002701 0.002496
v 0.491364 0.001984 0.002466
v 0.493422 0.002299 0.002477
v 0.488350 -0.022173 -0.009021
v 0.456368 -0.012569 -0.009880
v 0.485777 -0.016778 -0.016069
v 0.456296 -0.015007 -0.005525
v 0.446532 -0.015037 -0.005527
v 0.446532 -0.011754 -0.010867
v 0.456364 -0.016070 0.000755
v 0.456351 -0.008975 -0.013250
v 0.446532 -0.006693 -0.014563
v 0.446531 -0.015977 0.002429
v 0.470414 -0.011200 -0.015947
v 0.456989 -0.003256 -0.015911
v 0.446533 -0.000549 -0.015991
v 0.456158 0.000511 -0.015970
v 0.456859 0.003117 -0.015915
v 0.446532 0.005618 -0.015039
v 0.486003 0.016824 -0.016177
v 0.456409 0.008788 -0.013460
v 0.446532 0.010971 -0.011771
v 0.469958 0.011155 -0.015933
v 0.456278 0.013310 -0.009120
v 0.446532 0.014646 -0.006688
v 0.456301 0.015803 -0.003160
v 0.446532 0.016121 -0.000596
v 0.488064 0.019230 -0.014358
v 0.487772 0.016092 -0.017745
v 0.488327 0.021766 -0.010133
v 0.457261 0.016254 0.001574
v 0.446532 0.015137 0.005601
v 0.488564 0.023610 -0.004878
v 0.491364 0.020376 -0.012729
v 0.493435 0.017311 -0.016680
v 0.488429 0.014240 -0.019213
v 0.471654 0.019689 -0.001833
v 0.491364 0.022377 -0.008771
v 0.485102 0.018981 -0.001285
v 0.485047 0.022892 -0.002723
v 0.484966 0.016324 0.001705
v 0.486754 0.020381 -0.001242
v 0.486828 0.017942 0.000719
v 0.487260 0.023614 -0.001746
v 0.487930 0.021029 -0.000158
v 0.487280 0.016985 0.002871
v 0.488446 0.023938 0.000452
v 0.488294 0.018663 0.004006
v 0.485609 0.015509 0.005059
v 0.487632 0.017056 0.004776
v 0.456393 0.015432 0.004586
v 0.463697 0.015838 0.008265
v 0.456383 0.014132 0.007784
v 0.446532 0.011880 0.010911
v 0.456351 0.010996 0.011771
v 0.446532 0.006803 0.014630
v 0.486109 0.019586 0.013012
v 0.485055 0.015755 0.007614
v 0.486932 0.016755 0.008014
v 0.485635 0.017350 0.010448
v 0.476148 0.017591 0.010957
v 0.485073 0.019244 0.012247
v 0.487437 0.020459 0.011600
v 0.488223 0.018587 0.007616
v 0.488416 0.021594 0.010462
v 0.488570 0.018866 0.014979
v 0.488725 0.023400 0.005407
v 0.493279 0.023973 0.001362
v 0.493280 0.023092 0.006594
v 0.493260 0.020742 0.012314
v 0.493293 0.023717 -0.003657
v 0.493279 0.022791 -0.007240
v 0.493386 0.021814 -0.006730
v 0.493454 0.013802 -0.010595
v 0.494293 0.021894 -0.007131
v 0.494759 0.022440 -0.008361
v 0.495737 0.021327 -0.009277
v 0.495742 0.014770 -0.012453
v 0.491364 0.014450 -0.012607
v 0.491364 0.018845 -0.012197
v 0.491364 0.014003 -0.013343
v 0.491364 0.015624 -0.015031
v 0.495848 0.020285 -0.012773
v 0.495636 0.015910 -0.014897
v 0.493417 0.015152 -0.014982
v 0.491365 0.014944 -0.015070
v 0.493578 0.016743 -0.016775
v 0.493365 0.016905 -0.016674
v 0.493269 0.012739 -0.020285
v 0.493260 -0.001057 -0.023939
v 0.493290 0.006508 -0.023077
v 0.488536 0.007938 -0.022517
v 0.488513 0.003338 -0.023627
v 0.493319 -0.008982 -0.022216
v 0.488803 -0.001074 -0.023952
v 0.488384 -0.006233 -0.022644
v 0.488815 -0.007844 -0.022693
v 0.488472 -0.013835 -0.019424
v 0.460481 -0.002299 0.016933
v 0.471142 0.002698 0.019583
v 0.456426 0.000525 0.016167
v 0.456649 -0.005828 0.015031
v 0.488450 0.008350 0.022567
v 0.456276 0.006659 0.014665
v 0.446532 0.000681 0.016091
v 0.446533 -0.006936 0.014631
v 0.488290 0.014156 0.019513
v 0.493263 0.008291 0.022550
v 0.485689 -0.008957 0.013438
v 0.491364 0.016427 0.017580
v 0.485279 -0.003031 0.016629
v 0.487519 -0.000623 0.017912
v 0.487211 -0.003401 0.017583
v 0.493286 -0.000486 0.017905
v 0.485144 -0.011270 0.011445
v 0.446532 -0.012896 0.009534
v 0.488205 -0.002017 0.018023
v 0.493452 -0.000925 0.014160
v 0.493291 -0.003123 0.018509
v 0.488679 -0.003396 0.018909
v 0.488294 -0.004180 0.019355
v 0.487620 -0.011183 0.013818
v 0.486815 -0.011795 0.011969
v 0.488312 -0.012139 0.015116
v 0.488217 -0.023626 0.000782
v 0.486159 -0.023285 -0.002237
v 0.488485 -0.022539 0.007675
v 0.488797 -0.023897 0.002089
v 0.485032 -0.022964 -0.002361
v 0.467994 -0.018721 0.002611
v 0.488281 -0.023558 -0.004401
v 0.456956 -0.014135 0.007982
v 0.493289 -0.023849 0.002318
v 0.493276 -0.023500 -0.004373
v 0.493372 -0.022496 -0.007218
v 0.493365 0.000822 0.004057
v 0.493319 -0.021562 0.010524
v 0.495635 -0.021897 -0.009098
v 0.494104 -0.022397 -0.007273
v 0.495864 0.001587 0.002274
v 0.494126 0.000676 0.003883
v 0.493383 0.017658 0.016087
v 0.493455 0.001968 0.008298
v 0.494292 0.017047 0.016022
v 0.495235 0.016280 0.017508
v 0.496018 0.015440 0.017102
v 0.495511 0.001111 0.010114
v 0.493422 0.000628 0.010004
v 0.493364 -0.000419 0.011047
v 0.491364 0.000878 0.010050
v 0.491364 -0.000625 0.012034
v 0.491364 0.014584 0.019126
v 0.491364 0.007249 0.014293
v 0.493410 -0.000523 0.012265
v 0.493322 0.011980 0.020751
v 0.495662 0.014071 0.019430
v 0.494211 0.012234 0.020471
v 0.495594 0.000052 0.012642
v 0.494229 -0.000593 0.014229
v 0.493207 -0.017182 0.016790
v 0.488802 -0.017773 0.016200
v 0.488783 -0.021398 0.010762
v 0.488405 -0.016347 0.017178
v 0.488837 -0.011423 0.021182
v 0.488368 -0.006261 0.022764
v 0.493259 -0.010951 0.021389
v 0.488844 -0.005686 0.023233
v 0.493294 -0.005633 0.023202
v 0.366559 -0.006112 0.012052
v 0.366562 -0.011730 0.006336
v 0.367505 -0.016059 0.005859
v 0.366559 -0.013452 0.000379
v 0.374923 -0.009601 0.007749
v 0.374923 -0.011971 0.002922
v 0.374923 0.003714 -0.011713
v 0.374923 -0.012055 -0.002511
v 0.366584 -0.012473 -0.005038
v 0.367406 -0.016006 -0.005441
v 0.374923 -0.007999 -0.009026
v 0.368139 -0.012998 -0.010697
v 0.366579 -0.008752 -0.010120
v 0.374923 -0.001470 -0.012186
v 0.366606 -0.004814 -0.012517
v 0.367408 -0.008075 -0.014576
v 0.366641 0.004618 -0.012412
v 0.367481 -0.003241 -0.016510
v 0.368680 -0.008333 -0.014491
v 0.368410 -0.017082 0.000028
v 0.368681 -0.017351 -0.008496
v 0.376834 -0.017018 0.000402
v 0.376955 -0.012692 0.011125
v 0.368808 -0.019586 -0.000872
v 0.376783 -0.019357 -0.000741
v 0.376457 -0.018837 -0.005265
v 0.376962 -0.015909 -0.010647
v 0.376466 -0.014817 -0.012882
v 0.376747 -0.010385 -0.016330
v 0.369084 -0.014206 -0.013436
v 0.368781 -0.010337 -0.016424
v 0.376667 -0.007928 -0.014753
v 0.376929 -0.003305 -0.016522
v 0.367458 0.006047 -0.015952
v 0.376897 0.008276 -0.014878
v 0.368547 0.008607 -0.014414
v 0.368804 0.010655 -0.016509
v 0.376816 0.010392 -0.016343
v 0.368465 0.011531 -0.012405
v 0.376407 0.014123 -0.013651
v 0.376962 0.017281 -0.008447
v 0.368738 0.017364 -0.009016
v 0.376466 0.018671 -0.006384
v 0.376752 0.019434 -0.000823
v 0.368812 0.019585 -0.000785
v 0.376791 0.017014 0.000415
v 0.368454 0.016130 -0.005528
v 0.367408 0.014385 -0.008457
v 0.368662 0.016825 0.000134
v 0.367409 0.016766 0.000276
v 0.367484 0.016034 0.005430
v 0.376958 0.014643 0.008384
v 0.366559 0.013541 0.000726
v 0.367459 0.011897 0.012139
v 0.376673 0.008737 0.014405
v 0.366582 0.009705 -0.009412
v 0.366560 0.012443 -0.005343
v 0.374923 0.008696 -0.008753
v 0.374923 0.011597 -0.004285
v 0.374923 -0.004346 0.011442
v 0.374923 0.012098 0.002014
v 0.366563 0.011672 0.006631
v 0.374923 0.008613 0.008779
v 0.366559 0.007654 0.011197
v 0.374923 0.002517 0.012108
v 0.366564 0.001948 0.013425
v 0.367408 -0.003377 0.016415
v 0.367407 0.001905 0.016687
v 0.367410 -0.010033 0.013273
v 0.368655 -0.008363 0.014543
v 0.376539 -0.008581 0.014432
v 0.368451 -0.004730 0.016239
v 0.368587 0.003157 0.017122
v 0.368771 -0.009020 0.017231
v 0.376750 -0.008889 0.017416
v 0.369004 -0.003663 0.019342
v 0.376845 -0.003532 0.018785
v 0.368549 -0.003531 0.017765
v 0.376829 -0.003354 0.017740
v 0.376987 0.003338 0.017435
v 0.368822 0.003600 0.019000
v 0.376546 0.003670 0.019034
v 0.368508 0.008130 0.014836
v 0.369022 0.009013 0.017543
v 0.376762 0.008985 0.017401
v 0.369181 0.008939 0.014312
v 0.441554 0.011245 -0.011917
v 0.441554 0.012553 -0.002749
v 0.441554 0.005129 -0.012059
v 0.441554 0.016417 -0.000501
v 0.441554 -0.000485 -0.016332
v 0.441554 0.011210 0.006080
v 0.441554 -0.006716 -0.010841
v 0.441554 0.012002 0.011228
v 0.441554 -0.011900 -0.011159
v 0.441554 0.004200 0.012136
v 0.441554 -0.012451 -0.002749
v 0.441554 0.000587 0.016400
v 0.441554 -0.016315 0.000570
v 0.441554 0.000581 0.009059
v 0.441554 -0.011108 0.006080
v 0.441554 -0.004193 0.012094
v 0.441554 -0.011143 0.011986
v 0.379509 0.000346 -0.016434
v 0.379558 -0.008559 -0.014017
v 0.378156 -0.004808 -0.015342
v 0.378188 -0.010085 -0.012611
v 0.378158 0.003525 -0.015837
v 0.379542 0.009665 -0.013506
v 0.378186 0.010356 -0.012578
v 0.378148 0.016274 -0.001375
v 0.378155 0.015534 0.004587
v 0.379654 0.016335 0.003636
v 0.378161 0.010423 0.012418
v 0.379560 0.009563 0.013481
v 0.379507 -0.014505 0.008019
v 0.378142 -0.008992 0.013533
v 0.378158 -0.012687 0.010245
v 0.378088 -0.004831 0.015484
v 0.378155 -0.015099 0.005939
v 0.378185 -0.016162 -0.001503
v 0.379657 -0.016372 0.003857
v 0.378182 -0.013874 0.009249
v 0.379348 -0.016665 -0.000486
v 0.379762 -0.013618 0.010272
v 0.379279 -0.008660 0.014392
v 0.378192 0.000014 -0.016638
v 0.379715 0.005783 -0.015780
v 0.379786 -0.001031 -0.017091
v 0.378859 0.009920 -0.013296
v 0.378856 -0.009630 -0.013435
v 0.378850 0.016623 -0.000763
v 0.378187 0.015080 0.006559
v 0.379715 0.016798 0.001804
v 0.379742 0.013804 0.010285
v 0.379806 0.016123 0.006228
v 0.378243 0.008616 0.014462
v 0.379670 0.008503 0.014477
v 0.442641 -0.014968 -0.006386
v 0.442657 -0.015771 0.004075
v 0.442657 -0.016141 -0.002031
v 0.379883 -0.016195 0.003958
v 0.379848 -0.017001 0.004004
v 0.379870 -0.015287 0.008336
vt 0.339952 0.996151
vt 0.339952 0.996151
vt 0.339952 0.996151
vt 0.339952 0.996151
vt 0.339952 0.996151
vt 0.339952 0.996151
vt 0.339952 0.996151
vt 0.339952 0.996151
vt 0.339952 0.996151
vt 0.339952 0.996151
vt 0.339952 0.996151
vt 0.339952 0.996151
vt 0.339952 0.996151
vt 0.339952 0.996151
vt 0.339952 0.996151
vt 0.339952 0.996151
vt 0.339952 0.996151
vt 0.339952 0.996151
vt 0.339952 0.996151
vt 0.339952 0.996151
vt 0.339952 0.996151
vt 0.339952 0.996151
vt 0.339952 0.996151
vt 0.339952 0.996151
vt 0.339952 0.996151
vt 0.339952 0.996151
vt 0.339952 0.996151
vt 0.339952 0.996151
vt 0.339952 0.996151
vt 0.339952 0.996151
vt 0.339952 0.996151
vt 0.339952 0.996151
vt 0.339952 0.996151
vt 0.339952 0.996151
vt 0.339952 0.996151
vt 0.339952 0.996151
vt 0.339952 0.996151
vt 0.339952 0.996151
vt 0.339952 0.996151
vt 0.339952 0.996151
vt 0.339952 0.996151
vt 0.339952 0.996151
vt 0.339952 0.996151
vt 0.339952 0.996151
vt 0.339952 0.996151
vt 0.339952 0.996151
vt 0.339952 0.996151
vt 0.339952 0.996151
vt 0.339952 0.996151
vt 0.339952 0.996151
vt 0.339952 0.996151
vt 0.339952 0.996151
vt 0.339952 0.996151
vt 0.339952 0.996151
vt 0.339952 0.996151
vt 0.339952 0.996151
vt 0.339952 0.996151
vt 0.339952 0.996151
vt 0.339952 0.996151
vt 0.339952 0.996151
vt 0.339952 0.996151
vt 0.339952 0.996151
vt 0.339952 0.996151
vt 0.339952 0.996151
vt 0.339952 0.996151
vt 0.339952 0.996151
vt 0.339952 0.996151
vt 0.339952 0.996151
vt 0.339952 0.996151
vt 0.339952 0.996151
vt 0.339952 0.996151
vt 0.339952 0.996151
vt 0.339952 0.996151
vt 0.339952 0.996151
vt 0.339952 0.996151
vt 0.339952 0.996151
vt 0.339952 0.996151
vt 0.339952 0.996151
vt 0.339952 0.996151
vt 0.339952 0.996151
vt 0.339952 0.996151
vt 0.339952 0.996151
vt 0.339952 0.996151
vt 0.339952 0.996151
vt 0.339952 0.996151
vt 0.339952 0.996151
vt 0.339952 0.996151
vt 0.339952 0.996151
vt 0.339952 0.996151
vt 0.339952 0.996151
vt 0.339952 0.996151
vt 0.339952 0.996151
vt 0.339952 0.996151
vt 0.339952 0.996151
vt 0.339952 0.996151
vt 0.339952 0.996151
vt 0.339952 0.996151
vt 0.339952 0.996151
vt 0.339952 0.996151
vt 0.339952 0.996151
vt 0.339952 0.996151
vt 0.339952 0.996151
vt 0.339952 0.996151
vt 0.339952 0.996151
vt 0.339952 0.996151
vt 0.339952 0.996151
vt 0.339952 0.996151
vt 0.339952 0.996151
vt 0.339952 0.996151
vt 0.339952 0.996151
vt 0.339952 0.996151
vt 0.339952 0.996151
vt 0.339952 0.996151
vt 0.339952 0.996151
vt 0.339952 0.996151
vt 0.339952 0.996151
vt 0.339952 0.996151
vt 0.339952 0.996151
vt 0.339952 0.996151
vt 0.339952 0.996151
vt 0.339952 0.996151
vt 0.339952 0.996151
vt 0.339952 0.996151
vt 0.339952 0.996151
vt 0.339952 0.996151
vt 0.339952 0.996151
vt 0.339952 0.996151
vt 0.339952 0.996151
vt 0.339952 0.996151
vt 0.339952 0.996151
vt 0.339952 0.996151
vt 0.339952 0.996151
vt 0.339952 0.996151
vt 0.339952 0.996151
vt 0.339952 0.996151
vt 0.339952 0.996151
vt 0.339952 0.996151
vt 0.339952 0.996151
vt 0.339952 0.996151
vt 0.339952 0.996151
vt 0.339952 0.996151
vt 0.339952 0.996151
vt 0.339952 0.996151
vt 0.339952 0.996151
vt 0.339952 0.996151
vt 0.339952 0.996151
vt 0.339952 0.996151
vt 0.339952 0.996151
vt 0.339952 0.996151
vt 0.339952 0.996151
vt 0.339952 0.996151
vt 0.339952 0.996151
vt 0.339952 0.996151
vt 0.339952 0.996151
vt 0.339952 0.996151
vt 0.339952 0.996151
vt 0.339952 0.996151
vt 0.339952 0.996151
vt 0.339952 0.996151
vt 0.339952 0.996151
vt 0.339952 0.996151
vt 0.339952 0.996151
vt 0.339952 0.996151
vt 0.339952 0.996151
vt 0.339952 0.996151
vt 0.339952 0.996151
vt 0.339952 0.996151
vt 0.339952 0.996151
vt 0.339952 0.996151
vt 0.339952 0.996151
vt 0.339952 0.996151
vt 0.339952 0.996151
vt 0.339952 0.996151
vt 0.339952 0.996151
vt 0.339952 0.996151
vt 0.339952 0.996151
vt 0.339952 0.996151
vt 0.339952 0.996151
vt 0.339952 0.996151
vt 0.339952 0.996151
vt 0.339952 0.996151
vt 0.339952 0.996151
vt 0.339952 0.996151
vt 0.339952 0.996151
vt 0.339952 0.996151
vt 0.339952 0.996151
vt 0.332002 0.996001
vt 0.332002 0.996001
vt 0.332002 0.996001
vt 0.332002 0.996001
vt 0.332002 0.996001
vt 0.332002 0.996001
vt 0.332002 0.996001
vt 0.332002 0.996001
vt 0.332002 0.996001
vt 0.332002 0.996001
vt 0.332002 0.996001
vt 0.332002 0.996001
vt 0.332002 0.996001
vt 0.332002 0.996001
vt 0.332002 0.996001
vt 0.332002 0.996001
vt 0.332002 0.996001
vt 0.332002 0.996001
vt 0.332002 0.996001
vt 0.332002 0.996001
vt 0.332002 0.996001
vt 0.332002 0.996001
vt 0.332002 0.996001
vt 0.332002 0.996001
vt 0.332002 0.996001
vt 0.332002 0.996001
vt 0.332002 0.996001
vt 0.332002 0.996001
vt 0.332002 0.996001
vt 0.332002 0.996001
vt 0.332002 0.996001
vt 0.332002 0.996001
vt 0.332002 0.996001
vt 0.332002 0.996001
vt 0.332002 0.996001
vt 0.332002 0.996001
vt 0.332002 0.996001
vt 0.332002 0.996001
vt 0.332002 0.996001
vt 0.332002 0.996001
vt 0.332002 0.996001
vt 0.332002 0.996001
vt 0.332002 0.996001
vt 0.332002 0.996001
vt 0.332002 0.996001
vt 0.332002 0.996001
vt 0.332002 0.996001
vt 0.332002 0.996001
vt 0.332002 0.996001
vt 0.332002 0.996001
vt 0.332002 0.996001
vt 0.332002 0.996001
vt 0.332002 0.996001
vt 0.332002 0.996001
vt 0.332002 0.996001
vt 0.332002 0.996001
vt 0.332002 0.996001
vt 0.332002 0.996001
vt 0.332002 0.996001
vt 0.332002 0.996001
vt 0.332002 0.996001
vt 0.332002 0.996001
vt 0.332002 0.996001
vt 0.332002 0.996001
vt 0.332002 0.996001
vt 0.332002 0.996001
vt 0.332002 0.996001
vt 0.332002 0.996001
vt 0.332002 0.996001
vt 0.332002 0.996001
vt 0.332002 0.996001
vt 0.332002 0.996001
vt 0.332002 0.996001
vt 0.332002 0.996001
vt 0.332002 0.996001
vt 0.332002 0.996001
vt 0.332002 0.996001
vt 0.332002 0.996001
vt 0.332002 0.996001
vt 0.332002 0.996001
vt 0.332002 0.996001
vt 0.332002 0.996001
vt 0.332002 0.996001
vt 0.332002 0.996001
vt 0.332002 0.996001
vt 0.332002 0.996001
vt 0.332002 0.996001
vt 0.332002 0.996001
vt 0.332002 0.996001
vt 0.332002 0.996001
vt 0.332002 0.996001
vt 0.332002 0.996001
vt 0.332002 0.996001
vt 0.332002 0.996001
vt 0.332002 0.996001
vt 0.332002 0.996001
vt 0.332002 0.996001
vt 0.332002 0.996001
vt 0.332002 0.996001
vt 0.332002 0.996001
vt 0.332002 0.996001
vt 0.332002 0.996001
vt 0.332002 0.996001
vt 0.332002 0.996001
vt 0.332002 0.996001
vt 0.332002 0.996001
vt 0.332002 0.996001
vt 0.332002 0.996001
vt 0.332002 0.996001
vt 0.332002 0.996001
vt 0.332002 0.996001
vt 0.332002 0.996001
vt 0.332002 0.996001
vt 0.332002 0.996001
vt 0.332002 0.996001
vt 0.332002 0.996001
vt 0.332002 0.996001
vt 0.332002 0.996001
vt 0.332002 0.996001
vt 0.332002 0.996001
vt 0.332002 0.996001
vt 0.332002 0.996001
vt 0.332002 0.996001
vt 0.332002 0.996001
vt 0.332002 0.996001
vt 0.332002 0.996001
vt 0.332002 0.996001
vt 0.332002 0.996001
vt 0.332002 0.996001
vt 0.332002 0.996001
vt 0.332002 0.996001
vt 0.332002 0.996001
vt 0.332002 0.996001
vt 0.332002 0.996001
vt 0.332002 0.996001
vt 0.332002 0.996001
vt 0.332002 0.996001
vt 0.332002 0.996001
vt 0.332002 0.996001
vt 0.332002 0.996001
vt 0.332002 0.996001
vt 0.332002 0.996001
vt 0.332002 0.996001
vt 0.332002 0.996001
vt 0.332002 0.996001
vt 0.332002 0.996001
vt 0.332002 0.996001
vt 0.332002 0.996001
vt 0.332002 0.996001
vt 0.332002 0.996001
vt 0.332002 0.996001
vt 0.332002 0.996001
vt 0.332002 0.996001
vt 0.332002 0.996001
vt 0.332002 0.996001
vt 0.332002 0.996001
vt 0.332002 0.996001
vt 0.332002 0.996001
vt 0.332002 0.996001
vt 0.332002 0.996001
vt 0.332002 0.996001
vt 0.332002 0.996001
vt 0.332002 0.996001
vt 0.332002 0.996001
vt 0.332002 0.996001
vt 0.332002 0.996001
vt 0.332002 0.996001
vt 0.332002 0.996001
vt 0.332002 0.996001
vt 0.332002 0.996001
vt 0.332002 0.996001
vt 0.332002 0.996001
vt 0.332002 0.996001
vt 0.332002 0.996001
vt 0.332002 0.996001
vt 0.332002 0.996001
vt 0.332002 0.996001
vt 0.332002 0.996001
vt 0.332002 0.996001
vt 0.332002 0.996001
vt 0.332002 0.996001
vt 0.332002 0.996001
vt 0.332002 0.996001
vt 0.332002 0.996001
vt 0.332002 0.996001
vt 0.332002 0.996001
vt 0.332002 0.996001
vt 0.332002 0.996001
vt 0.332002 0.996001
vt 0.332002 0.996001
vt 0.332002 0.996001
vt 0.332002 0.996001
vt 0.332002 0.996001
vt 0.332002 0.996001
vt 0.332002 0.996001
vt 0.332002 0.996001
vt 0.332002 0.996001
vt 0.332002 0.996001
vt 0.332002 0.996001
vt 0.332002 0.996001
vt 0.332002 0.996001
vt 0.332002 0.996001
vt 0.332002 0.996001
vt 0.332002 0.996001
vt 0.332002 0.996001
vt 0.332002 0.996001
vt 0.332002 0.996001
vt 0.332002 0.996001
vt 0.332002 0.996001
vt 0.332002 0.996001
vt 0.332002 0.996001
vt 0.332002 0.996001
vt 0.332002 0.996001
vt 0.332002 0.996001
vt 0.332002 0.996001
vt 0.332002 0.996001
vt 0.332002 0.996001
vt 0.332002 0.996001
vt 0.332002 0.996001
vt 0.332002 0.996001
vt 0.332002 0.996001
vt 0.332002 0.996001
vt 0.332002 0.996001
vt 0.332002 0.996001
vt 0.332002 0.996001
vt 0.332002 0.996001
vt 0.332002 0.996001
vt 0.332002 0.996001
vt 0.332002 0.996001
vt 0.332002 0.996001
vt 0.332002 0.996001
vt 0.332002 0.996001
vt 0.332002 0.996001
vt 0.332002 0.996001
vt 0.332002 0.996001
vt 0.332002 0.996001
vt 0.332002 0.996001
vt 0.332002 0.996001
vt 0.332002 0.996001
vt 0.332002 0.996001
vt 0.332002 0.996001
vt 0.332002 0.996001
vt 0.332002 0.996001
vt 0.332002 0.996001
vt 0.332002 0.996001
vt 0.332002 0.996001
vt 0.332002 0.996001
vt 0.332002 0.996001
vt 0.332002 0.996001
vt 0.332002 0.996001
vt 0.332002 0.996001
vt 0.332002 0.996001
vt 0.332002 0.996001
vt 0.332002 0.996001
vt 0.332002 0.996001
vt 0.332002 0.996001
vt 0.332002 0.996001
vt 0.332002 0.996001
vt 0.332002 0.996001
vt 0.332002 0.996001
vt 0.332002 0.996001
vt 0.332002 0.996001
vt 0.332002 0.996001
vt 0.332002 0.996001
vt 0.332002 0.996001
vt 0.332002 0.996001
vt 0.332002 0.996001
vt 0.332002 0.996001
vt 0.332002 0.996001
vt 0.332002 0.996001
vt 0.332002 0.996001
vt 0.332002 0.996001
vt 0.332002 0.996001
vt 0.332002 0.996001
vt 0.332002 0.996001
vt 0.332002 0.996001
vt 0.332002 0.996001
vt 0.332002 0.996001
vt 0.332002 0.996001
vt 0.332002 0.996001
vt 0.332002 0.996001
vt 0.332002 0.996001
vt 0.332002 0.996001
vt 0.332002 0.996001
vt 0.332002 0.996001
vt 0.332002 0.996001
vt 0.332002 0.996001
vt 0.332002 0.996001
vt 0.332002 0.996001
vt 0.332002 0.996001
vt 0.332002 0.996001
vt 0.332002 0.996001
vt 0.332002 0.996001
vt 0.332002 0.996001
vt 0.332002 0.996001
vt 0.332002 0.996001
vt 0.332002 0.996001
vt 0.332002 0.996001
vt 0.332002 0.996001
vt 0.332002 0.996001
vt 0.332002 0.996001
vt 0.332002 0.996001
vt 0.332002 0.996001
vt 0.332002 0.996001
vt 0.332002 0.996001
vt 0.332002 0.996001
vt 0.332002 0.996001
vt 0.332002 0.996001
vt 0.332002 0.996001
vt 0.332002 0.996001
vt 0.332002 0.996001
vt 0.332002 0.996001
vt 0.332002 0.996001
vt 0.332002 0.996001
vt 0.332002 0.996001
vt 0.332002 0.996001
vt 0.332002 0.996001
vt 0.332002 0.996001
vt 0.332002 0.996001
vt 0.332002 0.996001
vt 0.332002 0.996001
vt 0.332002 0.996001
vt 0.332002 0.996001
vt 0.332002 0.996001
vt 0.332002 0.996001
vt 0.332002 0.996001
vt 0.332002 0.996001
vt 0.332002 0.996001
vt 0.332002 0.996001
vt 0.332002 0.996001
vt 0.332002 0.996001
vt 0.332002 0.996001
vt 0.332002 0.996001
vt 0.332002 0.996001
vt 0.332002 0.996001
vt 0.332002 0.996001
vt 0.332002 0.996001
vt 0.332002 0.996001
vt 0.332002 0.996001
vt 0.332002 0.996001
vt 0.332002 0.996001
vt 0.332002 0.996001
vt 0.332002 0.996001
vt 0.332002 0.996001
vt 0.332002 0.996001
vt 0.332002 0.996001
vt 0.332002 0.996001
vt 0.332002 0.996001
vt 0.332002 0.996001
vt 0.332002 0.996001
vt 0.332002 0.996001
vt 0.332002 0.996001
vt 0.332002 0.996001
vt 0.332002 0.996001
vt 0.332002 0.996001
vt 0.332002 0.996001
vt 0.332002 0.996001
vt 0.332002 0.996001
vt 0.332002 0.996001
vt 0.332002 0.996001
vt 0.332002 0.996001
vt 0.332002 0.996001
vt 0.332002 0.996001
vt 0.332002 0.996001
vt 0.332002 0.996001
vt 0.332002 0.996001
vt 0.332002 0.996001
vt 0.332002 0.996001
vt 0.332002 0.996001
vt 0.332002 0.996001
vt 0.332002 0.996001
vt 0.332002 0.996001
vt 0.332002 0.996001
vt 0.332002 0.996001
vt 0.332002 0.996001
vt 0.332002 0.996001
vt 0.332002 0.996001
vt 0.332002 0.996001
vt 0.332002 0.996001
vt 0.332002 0.996001
vt 0.332002 0.996001
vt 0.332002 0.996001
vt 0.332002 0.996001
vt 0.332002 0.996001
vt 0.332002 0.996001
vt 0.332002 0.996001
vt 0.332002 0.996001
vt 0.332002 0.996001
vt 0.332002 0.996001
vt 0.332002 0.996001
vt 0.332002 0.996001
vt 0.332002 0.996001
vt 0.332002 0.996001
vt 0.332002 0.996001
vt 0.332002 0.996001
vt 0.332002 0.996001
vt 0.332002 0.996001
vt 0.332002 0.996001
vt 0.332002 0.996001
vt 0.332002 0.996001
vt 0.332002 0.996001
vt 0.332002 0.996001
vt 0.332002 0.996001
vt 0.332002 0.996001
vt 0.332002 0.996001
vt 0.332002 0.996001
vt 0.332002 0.996001
vt 0.332002 0.996001
vt 0.332002 0.996001
vt 0.332002 0.996001
vt 0.332002 0.996001
vt 0.332002 0.996001
vt 0.332002 0.996001
vt 0.332002 0.996001
vt 0.332002 0.996001
vt 0.339952 0.996151
vt 0.339952 0.996151
vt 0.339952 0.996151
vt 0.339952 0.996151
vt 0.339952 0.996151
vt 0.339952 0.996151
vt 0.339952 0.996151
vt 0.339952 0.996151
vt 0.339952 0.996151
vt 0.339952 0.996151
vt 0.339952 0.996151
vt 0.339952 0.996151
vt 0.339952 0.996151
vt 0.339952 0.996151
vt 0.339952 0.996151
vt 0.339952 0.996151
vt 0.339952 0.996151
vt 0.339952 0.996151
vt 0.339952 0.996151
vt 0.339952 0.996151
vt 0.339952 0.996151
vt 0.339952 0.996151
vt 0.339952 0.996151
vt 0.339952 0.996151
vt 0.339952 0.996151
vt 0.339952 0.996151
vt 0.339952 0.996151
vt 0.339952 0.996151
vt 0.339952 0.996151
vt 0.339952 0.996151
vt 0.339952 0.996151
vt 0.339952 0.996151
vt 0.339952 0.996151
vt 0.339952 0.996151
vt 0.339952 0.996151
vt 0.339952 0.996151
vt 0.339952 0.996151
vt 0.339952 0.996151
vt 0.339952 0.996151
vt 0.339952 0.996151
vt 0.339952 0.996151
vt 0.339952 0.996151
vt 0.339952 0.996151
vt 0.339952 0.996151
vt 0.339952 0.996151
vt 0.339952 0.996151
vt 0.339952 0.996151
vt 0.339952 0.996151
vt 0.339952 0.996151
vt 0.339952 0.996151
vt 0.339952 0.996151
vt 0.339952 0.996151
vt 0.339952 0.996151
vt 0.339952 0.996151
vt 0.339952 0.996151
vt 0.339952 0.996151
vt 0.339952 0.996151
vt 0.339952 0.996151
vt 0.339952 0.996151
vt 0.339952 0.996151
vt 0.339952 0.996151
vt 0.339952 0.996151
vt 0.339952 0.996151
vt 0.339952 0.996151
vt 0.339952 0.996151
vt 0.339952 0.996151
vt 0.339952 0.996151
vt 0.339952 0.996151
vt 0.339952 0.996151
vt 0.339952 0.996151
vt 0.339952 0.996151
vt 0.339952 0.996151
vt 0.339952 0.996151
vt 0.339952 0.996151
vt 0.339952 0.996151
vt 0.339952 0.996151
vt 0.339952 0.996151
vt 0.339952 0.996151
vt 0.339952 0.996151
vt 0.339952 0.996151
vt 0.339952 0.996151
vt 0.339952 0.996151
vt 0.339952 0.996151
vt 0.339952 0.996151
vt 0.339952 0.996151
vt 0.339952 0.996151
vt 0.339952 0.996151
vt 0.339952 0.996151
vt 0.339952 0.996151
vt 0.339952 0.996151
vt 0.339952 0.996151
vt 0.339952 0.996151
vt 0.339952 0.996151
vt 0.339952 0.996151
vt 0.339952 0.996151
vt 0.339952 0.996151
vt 0.339952 0.996151
vt 0.339952 0.996151
vt 0.339952 0.996151
vt 0.339952 0.996151
vt 0.339952 0.996151
vt 0.339952 0.996151
vt 0.339952 0.996151
vt 0.339952 0.996151
vt 0.339952 0.996151
vt 0.339952 0.996151
vt 0.339952 0.996151
vt 0.339952 0.996151
vt 0.339952 0.996151
vt 0.339952 0.996151
vt 0.339952 0.996151
vt 0.339952 0.996151
vt 0.339952 0.996151
vt 0.339952 0.996151
vt 0.339952 0.996151
vt 0.339952 0.996151
vt 0.339952 0.996151
vt 0.339952 0.996151
vt 0.339952 0.996151
vt 0.339952 0.996151
vt 0.339952 0.996151
vt 0.339952 0.996151
vt 0.339952 0.996151
vt 0.339952 0.996151
vt 0.339952 0.996151
vt 0.339952 0.996151
vt 0.339952 0.996151
vt 0.339952 0.996151
vt 0.339952 0.996151
vt 0.339952 0.996151
vt 0.339952 0.996151
vt 0.339952 0.996151
vt 0.339952 0.996151
vt 0.339952 0.996151
vt 0.339952 0.996151
vt 0.339952 0.996151
vt 0.339952 0.996151
vt 0.339952 0.996151
vt 0.339952 0.996151
vt 0.339952 0.996151
vt 0.339952 0.996151
vt 0.339952 0.996151
vt 0.339952 0.996151
vt 0.339952 0.996151
f 1/1 2/2 3/3
f 2/2 1/1 4/4
f 2/2 4/4 5/5
f 1/1 6/6 4/4
f 7/7 4/4 6/6
f 5/5 8/8 2/2
f 5/5 9/9 8/8
f 5/5 10/10 9/9
f 2/2 8/8 11/11
f 2/2 11/11 3/3
f 8/8 12/12 11/11
f 12/12 8/8 9/9
f 13/13 9/9 10/10
f 10/10 14/14 13/13
f 14/14 10/10 15/15
f 16/16 9/9 13/13
f 17/17 13/13 14/14
f 17/17 16/16 13/13
f 15/15 18/18 14/14
f 15/15 19/19 18/18
f 15/15 20/20 19/19
f 21/21 14/14 18/18
f 21/21 17/17 14/14
f 22/22 21/21 18/18
f 18/18 19/19 22/22
f 23/23 19/19 20/20
f 23/23 20/20 7/7
f 19/19 23/23 24/24
f 25/25 23/23 7/7
f 24/24 23/23 25/25
f 6/6 25/25 7/7
f 25/25 6/6 26/26
f 25/25 26/26 24/24
f 24/24 27/27 19/19
f 19/19 27/27 22/22
f 28/28 27/27 24/24
f 28/28 29/29 27/27
f 29/29 22/22 27/27
f 24/24 30/30 28/28
f 30/30 24/24 26/26
f 26/26 31/31 30/30
f 6/6 32/32 26/26
f 33/33 31/31 26/26
f 33/33 26/26 32/32
f 34/34 32/32 6/6
f 6/6 1/1 34/34
f 32/32 35/35 33/33
f 35/35 32/32 34/34
f 36/36 31/31 33/33
f 30/30 31/31 36/36
f 37/37 33/33 35/35
f 37/37 36/36 33/33
f 34/34 38/38 35/35
f 37/37 35/35 38/38
f 1/1 39/39 34/34
f 3/3 39/39 1/1
f 40/40 38/38 34/34
f 41/41 37/37 38/38
f 41/41 38/38 40/40
f 42/42 34/34 39/39
f 40/40 34/34 42/42
f 39/39 3/3 43/43
f 43/43 42/42 39/39
f 44/44 43/43 3/3
f 45/45 44/44 3/3
f 3/3 11/11 45/45
f 46/46 43/43 44/44
f 46/46 44/44 45/45
f 47/47 45/45 11/11
f 47/47 11/11 12/12
f 48/48 45/45 47/47
f 48/48 46/46 45/45
f 12/12 49/49 47/47
f 50/50 48/48 47/47
f 47/47 49/49 50/50
f 51/51 49/49 12/12
f 50/50 49/49 51/51
f 51/51 12/12 52/52
f 52/52 12/12 9/9
f 16/16 52/52 9/9
f 53/53 46/46 48/48
f 54/54 52/52 16/16
f 48/48 55/55 53/53
f 55/55 48/48 50/50
f 56/56 46/46 53/53
f 57/57 53/53 55/55
f 53/53 57/57 56/56
f 46/46 56/56 58/58
f 58/58 43/43 46/46
f 58/58 56/56 59/59
f 60/60 43/43 58/58
f 56/56 61/61 59/59
f 57/57 61/61 56/56
f 59/59 62/62 58/58
f 62/62 59/59 61/61
f 58/58 62/62 63/63
f 58/58 63/63 60/60
f 63/63 62/62 64/64
f 64/64 60/60 63/63
f 62/62 61/61 65/65
f 64/64 62/62 65/65
f 66/66 65/65 61/61
f 61/61 57/57 66/66
f 67/67 64/64 65/65
f 67/67 60/60 64/64
f 68/68 65/65 66/66
f 67/67 65/65 68/68
f 66/66 69/69 68/68
f 66/66 57/57 70/70
f 66/66 70/70 71/71
f 71/71 69/69 66/66
f 72/72 71/71 70/70
f 72/72 73/73 71/71
f 74/74 72/72 70/70
f 70/70 57/57 74/74
f 75/75 71/71 73/73
f 69/69 71/71 75/75
f 75/75 73/73 76/76
f 57/57 77/77 74/74
f 55/55 77/77 57/57
f 74/74 77/77 78/78
f 77/77 55/55 79/79
f 79/79 78/78 77/77
f 50/50 79/79 55/55
f 78/78 80/80 74/74
f 50/50 81/81 79/79
f 78/78 79/79 81/81
f 78/78 82/82 80/80
f 81/81 82/82 78/78
f 80/80 82/82 83/83
f 84/84 80/80 83/83
f 82/82 81/81 85/85
f 81/81 50/50 86/86
f 86/86 50/50 51/51
f 87/87 81/81 86/86
f 81/81 87/87 85/85
f 86/86 88/88 87/87
f 85/85 87/87 88/88
f 86/86 51/51 89/89
f 89/89 88/88 86/86
f 82/82 85/85 90/90
f 90/90 83/83 82/82
f 83/83 90/90 91/91
f 83/83 91/91 84/84
f 85/85 92/92 90/90
f 88/88 93/93 85/85
f 85/85 93/93 92/92
f 88/88 94/94 93/93
f 88/88 89/89 94/94
f 94/94 95/95 93/93
f 89/89 95/95 94/94
f 96/96 92/92 93/93
f 93/93 95/95 96/96
f 97/97 90/90 92/92
f 97/97 92/92 96/96
f 91/91 90/90 97/97
f 98/98 96/96 95/95
f 97/97 99/99 91/91
f 98/98 95/95 100/100
f 95/95 89/89 100/100
f 101/101 96/96 98/98
f 101/101 98/98 100/100
f 96/96 102/102 97/97
f 102/102 99/99 97/97
f 101/101 102/102 96/96
f 91/91 99/99 103/103
f 102/102 103/103 99/99
f 103/103 104/104 91/91
f 84/84 91/91 104/104
f 102/102 105/105 103/103
f 105/105 106/106 103/103
f 101/101 107/107 102/102
f 107/107 105/105 102/102
f 106/106 105/105 108/108
f 108/108 105/105 107/107
f 109/109 103/103 106/106
f 108/108 109/109 106/106
f 104/104 103/103 109/109
f 107/107 110/110 108/108
f 110/110 107/107 101/101
f 111/111 109/109 108/108
f 108/108 110/110 111/111
f 112/112 104/104 109/109
f 109/109 111/111 112/112
f 84/84 104/104 113/113
f 104/104 112/112 114/114
f 114/114 113/113 104/104
f 113/113 115/115 84/84
f 116/116 114/114 112/112
f 111/111 116/116 112/112
f 113/113 114/114 117/117
f 116/116 117/117 114/114
f 115/115 113/113 118/118
f 117/117 118/118 113/113
f 118/118 119/119 115/115
f 118/118 117/117 120/120
f 120/120 119/119 118/118
f 117/117 116/116 121/121
f 121/121 120/120 117/117
f 122/122 116/116 111/111
f 111/111 110/110 122/122
f 122/122 123/123 116/116
f 17/17 122/122 110/110
f 123/123 122/122 17/17
f 110/110 16/16 17/17
f 110/110 54/54 16/16
f 101/101 54/54 110/110
f 124/124 123/123 17/17
f 116/116 123/123 124/124
f 121/121 116/116 124/124
f 17/17 21/21 124/124
f 100/100 54/54 101/101
f 21/21 125/125 124/124
f 124/124 125/125 121/121
f 21/21 22/22 125/125
f 121/121 125/125 126/126
f 22/22 126/126 125/125
f 127/127 121/121 126/126
f 120/120 121/121 127/127
f 22/22 128/128 126/126
f 127/127 126/126 129/129
f 129/129 126/126 128/128
f 127/127 130/130 120/120
f 129/129 130/130 127/127
f 131/131 120/120 130/130
f 128/128 22/22 29/29
f 120/120 131/131 119/119
f 128/128 29/29 132/132
f 29/29 133/133 132/132
f 128/128 132/132 134/134
f 132/132 133/133 134/134
f 128/128 134/134 135/135
f 135/135 129/129 128/128
f 136/136 134/134 133/133
f 136/136 135/135 134/134
f 133/133 29/29 136/136
f 137/137 129/129 135/135
f 137/137 135/135 136/136
f 29/29 138/138 136/136
f 137/137 136/136 138/138
f 138/138 29/29 28/28
f 139/139 129/129 137/137
f 138/138 140/140 137/137
f 140/140 139/139 137/137
f 138/138 141/141 140/140
f 140/140 141/141 139/139
f 28/28 142/142 138/138
f 129/129 139/139 143/143
f 130/130 129/129 143/143
f 143/143 139/139 144/144
f 144/144 139/139 141/141
f 143/143 145/145 130/130
f 143/143 144/144 145/145
f 130/130 145/145 131/131
f 146/146 145/145 144/144
f 131/131 145/145 146/146
f 141/141 146/146 144/144
f 131/131 146/146 147/147
f 119/119 131/131 147/147
f 148/148 146/146 141/141
f 148/148 147/147 146/146
f 119/119 147/147 149/149
f 149/149 147/147 148/148
f 149/149 150/150 119/119
f 115/115 119/119 150/150
f 150/150 151/151 115/115
f 149/149 152/152 150/150
f 151/151 150/150 152/152
f 152/152 149/149 148/148
f 76/76 151/151 152/152
f 141/141 153/153 148/148
f 138/138 153/153 141/141
f 138/138 142/142 153/153
f 154/154 148/148 153/153
f 152/152 148/148 154/154
f 155/155 153/153 142/142
f 154/154 153/153 155/155
f 156/156 152/152 154/154
f 76/76 152/152 156/156
f 155/155 157/157 154/154
f 158/158 155/155 142/142
f 157/157 155/155 158/158
f 142/142 28/28 158/158
f 157/157 159/159 154/154
f 158/158 159/159 157/157
f 159/159 156/156 154/154
f 158/158 28/28 160/160
f 160/160 159/159 158/158
f 160/160 28/28 30/30
f 30/30 36/36 160/160
f 159/159 160/160 161/161
f 161/161 156/156 159/159
f 160/160 36/36 161/161
f 156/156 161/161 162/162
f 36/36 162/162 161/161
f 156/156 163/163 76/76
f 162/162 163/163 156/156
f 76/76 163/163 75/75
f 36/36 164/164 162/162
f 163/163 162/162 164/164
f 164/164 75/75 163/163
f 164/164 36/36 37/37
f 75/75 164/164 165/165
f 37/37 165/165 164/164
f 75/75 165/165 69/69
f 165/165 37/37 41/41
f 166/166 69/69 165/165
f 41/41 167/167 165/165
f 165/165 167/167 166/166
f 166/166 168/168 69/69
f 68/68 69/69 168/168
f 68/68 168/168 67/67
f 166/166 169/169 168/168
f 167/167 169/169 166/166
f 67/67 168/168 170/170
f 168/168 169/169 170/170
f 171/171 169/169 167/167
f 171/171 170/170 169/169
f 167/167 172/172 171/171
f 172/172 167/167 41/41
f 171/171 173/173 170/170
f 172/172 173/173 171/171
f 170/170 173/173 67/67
f 174/174 67/67 173/173
f 60/60 67/67 174/174
f 174/174 173/173 175/175
f 60/60 174/174 175/175
f 173/173 172/172 175/175
f 41/41 176/176 172/172
f 176/176 175/175 172/172
f 176/176 41/41 40/40
f 175/175 177/177 60/60
f 175/175 176/176 177/177
f 42/42 60/60 177/177
f 60/60 42/42 43/43
f 178/178 177/177 176/176
f 179/179 42/42 177/177
f 177/177 178/178 179/179
f 42/42 180/180 40/40
f 176/176 40/40 180/180
f 42/42 179/179 180/180
f 180/180 178/178 176/176
f 180/180 179/179 178/178
f 100/100 181/181 182/182
f 100/100 89/89 181/181
f 54/54 100/100 182/182
f 183/183 54/54 182/182
f 184/184 182/182 181/181
f 182/182 184/184 183/183
f 183/183 184/184 185/185
f 185/185 184/184 181/181
f 54/54 183/183 185/185
f 181/181 89/89 186/186
f 186/186 185/185 181/181
f 185/185 186/186 54/54
f 89/89 51/51 186/186
f 186/186 52/52 54/54
f 52/52 186/186 51/51
f 187/187 188/188 189/189
f 189/189 190/190 187/187
f 191/191 192/192 193/193
f 193/193 192/192 194/194
f 194/194 192/192 195/195
f 196/196 195/195 191/191
f 195/195 197/197 194/194
f 191/191 198/198 196/196
f 193/193 198/198 191/191
f 195/195 196/196 199/199
f 199/199 197/197 195/195
f 199/199 196/196 198/198
f 197/197 200/200 194/194
f 200/200 197/197 199/199
f 194/194 201/201 193/193
f 201/201 194/194 200/200
f 198/198 193/193 201/201
f 199/199 202/202 200/200
f 198/198 202/202 199/199
f 200/200 202/202 201/201
f 201/201 202/202 198/198
f 203/203 204/204 205/205
f 206/206 203/203 205/205
f 205/205 207/207 206/206
f 207/207 208/208 206/206
f 209/209 205/205 204/204
f 207/207 205/205 209/209
f 204/204 210/210 209/209
f 209/209 211/211 207/207
f 204/204 208/208 212/212
f 212/212 210/210 204/204
f 208/208 207/207 213/213
f 213/213 212/212 208/208
f 207/207 211/211 213/213
f 212/212 214/214 210/210
f 209/209 210/210 214/214
f 214/214 212/212 213/213
f 214/214 211/211 209/209
f 213/213 211/211 214/214
f 215/215 216/216 217/217
f 218/218 217/217 216/216
f 218/218 216/216 219/219
f 219/219 220/220 218/218
f 217/217 220/220 221/221
f 221/221 220/220 219/219
f 217/217 222/222 215/215
f 221/221 222/222 217/217
f 215/215 223/223 216/216
f 223/223 215/215 222/222
f 224/224 219/219 216/216
f 216/216 223/223 224/224
f 219/219 224/224 221/221
f 222/222 225/225 223/223
f 224/224 223/223 225/225
f 221/221 225/225 222/222
f 225/225 221/221 224/224
f 226/226 227/227 228/228
f 227/227 226/226 229/229
f 229/229 230/230 227/227
f 229/229 226/226 231/231
f 230/230 229/229 232/232
f 232/232 229/229 231/231
f 232/232 233/233 230/230
f 234/234 227/227 230/230
f 234/234 230/230 233/233
f 228/228 227/227 235/235
f 227/227 234/234 235/235
f 228/228 236/236 226/226
f 237/237 235/235 234/234
f 235/235 238/238 228/228
f 235/235 237/237 239/239
f 239/239 238/238 235/235
f 238/238 240/240 228/228
f 228/228 240/240 236/236
f 238/238 239/239 241/241
f 240/240 238/238 242/242
f 241/241 242/242 238/238
f 239/239 237/237 243/243
f 226/226 236/236 244/244
f 244/244 231/231 226/226
f 245/245 244/244 236/236
f 246/246 231/231 244/244
f 246/246 244/244 245/245
f 247/247 236/236 240/240
f 236/236 247/247 245/245
f 240/240 248/248 247/247
f 242/242 248/248 240/240
f 249/249 245/245 247/247
f 250/250 247/247 248/248
f 247/247 250/250 249/249
f 248/248 251/251 250/250
f 251/251 248/248 242/242
f 252/252 250/250 251/251
f 253/253 249/249 250/250
f 250/250 252/252 253/253
f 254/254 245/245 249/249
f 254/254 255/255 245/245
f 245/245 255/255 246/246
f 254/254 249/249 256/256
f 256/256 249/249 253/253
f 257/257 255/255 254/254
f 257/257 254/254 256/256
f 258/258 246/246 255/255
f 255/255 257/257 258/258
f 257/257 259/259 258/258
f 258/258 260/260 246/246
f 261/261 257/257 256/256
f 262/262 246/246 260/260
f 260/260 263/263 262/262
f 231/231 246/246 262/262
f 264/264 262/262 263/263
f 231/231 262/262 264/264
f 263/263 265/265 264/264
f 256/256 266/266 261/261
f 256/256 253/253 266/266
f 264/264 267/267 231/231
f 231/231 267/267 232/232
f 265/265 268/268 264/264
f 268/268 265/265 269/269
f 264/264 270/270 267/267
f 270/270 264/264 268/268
f 271/271 232/232 267/267
f 233/233 232/232 271/271
f 272/272 271/271 267/267
f 267/267 270/270 272/272
f 233/233 271/271 273/273
f 273/273 271/271 272/272
f 274/274 272/272 270/270
f 272/272 274/274 273/273
f 270/270 268/268 275/275
f 269/269 275/275 268/268
f 270/270 276/276 274/274
f 275/275 276/276 270/270
f 277/277 273/273 274/274
f 277/277 274/274 276/276
f 275/275 278/278 276/276
f 276/276 278/278 277/277
f 279/279 275/275 269/269
f 278/278 275/275 279/279
f 269/269 280/280 279/279
f 281/281 279/279 280/280
f 278/278 279/279 281/281
f 280/280 282/282 281/281
f 283/283 281/281 282/282
f 282/282 284/284 283/283
f 281/281 285/285 278/278
f 285/285 281/281 283/283
f 278/278 285/285 286/286
f 286/286 277/277 278/278
f 283/283 287/287 285/285
f 284/284 288/288 283/283
f 283/283 288/288 287/287
f 288/288 284/284 289/289
f 289/289 290/290 288/288
f 290/290 289/289 261/261
f 290/290 291/291 288/288
f 288/288 291/291 287/287
f 261/261 292/292 290/290
f 266/266 292/292 261/261
f 290/290 293/293 291/291
f 292/292 293/293 290/290
f 266/266 294/294 292/292
f 292/292 294/294 293/293
f 266/266 253/253 294/294
f 294/294 253/253 252/252
f 293/293 294/294 295/295
f 252/252 295/295 294/294
f 296/296 291/291 293/293
f 295/295 296/296 293/293
f 296/296 297/297 291/291
f 287/287 291/291 297/297
f 296/296 295/295 298/298
f 297/297 296/296 298/298
f 295/295 252/252 299/299
f 299/299 298/298 295/295
f 300/300 299/299 252/252
f 251/251 300/300 252/252
f 298/298 299/299 301/301
f 301/301 299/299 300/300
f 302/302 300/300 251/251
f 300/300 302/302 301/301
f 242/242 302/302 251/251
f 303/303 302/302 242/242
f 304/304 301/301 302/302
f 302/302 303/303 304/304
f 301/301 305/305 298/298
f 242/242 241/241 303/303
f 301/301 304/304 306/306
f 306/306 305/305 301/301
f 305/305 307/307 298/298
f 298/298 307/307 297/297
f 305/305 306/306 308/308
f 307/307 305/305 309/309
f 309/309 305/305 308/308
f 307/307 310/310 297/297
f 309/309 311/311 307/307
f 310/310 307/307 311/311
f 312/312 297/297 310/310
f 297/297 312/312 287/287
f 312/312 313/313 287/287
f 313/313 312/312 310/310
f 285/285 287/287 313/313
f 313/313 286/286 285/285
f 310/310 314/314 313/313
f 314/314 286/286 313/313
f 315/315 310/310 311/311
f 314/314 310/310 315/315
f 315/315 311/311 316/316
f 309/309 316/316 311/311
f 315/315 317/317 314/314
f 286/286 314/314 317/317
f 316/316 318/318 315/315
f 318/318 317/317 315/315
f 317/317 319/319 286/286
f 277/277 286/286 319/319
f 320/320 316/316 309/309
f 320/320 318/318 316/316
f 309/309 308/308 320/320
f 319/319 317/317 321/321
f 321/321 277/277 319/319
f 317/317 318/318 322/322
f 321/321 317/317 322/322
f 277/277 321/321 323/323
f 323/323 273/273 277/277
f 324/324 323/323 321/321
f 321/321 322/322 324/324
f 273/273 323/323 325/325
f 324/324 325/325 323/323
f 273/273 325/325 233/233
f 233/233 325/325 326/326
f 324/324 326/326 325/325
f 233/233 326/326 234/234
f 327/327 234/234 326/326
f 327/327 326/326 324/324
f 234/234 327/327 237/237
f 328/328 324/324 322/322
f 324/324 328/328 327/327
f 322/322 329/329 328/328
f 330/330 237/237 327/327
f 322/322 331/331 329/329
f 331/331 322/322 318/318
f 327/327 328/328 332/332
f 332/332 330/330 327/327
f 320/320 331/331 318/318
f 237/237 330/330 243/243
f 328/328 329/329 333/333
f 328/328 333/333 332/332
f 329/329 331/331 334/334
f 334/334 333/333 329/329
f 331/331 320/320 335/335
f 335/335 334/334 331/331
f 336/336 330/330 332/332
f 337/337 333/333 334/334
f 338/338 332/332 333/333
f 337/337 338/338 333/333
f 332/332 338/338 339/339
f 332/332 339/339 336/336
f 339/339 338/338 336/336
f 340/340 337/337 334/334
f 340/340 334/334 335/335
f 330/330 336/336 341/341
f 342/342 340/340 335/335
f 341/341 243/243 330/330
f 343/343 340/340 342/342
f 337/337 340/340 343/343
f 335/335 344/344 342/342
f 342/342 344/344 343/343
f 243/243 341/341 345/345
f 335/335 346/346 344/344
f 346/346 335/335 320/320
f 347/347 346/346 320/320
f 320/320 308/308 347/347
f 308/308 348/348 347/347
f 308/308 306/306 348/348
f 349/349 346/346 347/347
f 346/346 350/350 344/344
f 349/349 350/350 346/346
f 351/351 349/349 347/347
f 351/351 347/347 348/348
f 352/352 350/350 349/349
f 351/351 353/353 349/349
f 348/348 353/353 351/351
f 349/349 353/353 352/352
f 344/344 350/350 354/354
f 352/352 354/354 350/350
f 344/344 354/354 343/343
f 355/355 352/352 353/353
f 356/356 353/353 348/348
f 355/355 353/353 356/356
f 356/356 348/348 357/357
f 306/306 357/357 348/348
f 357/357 306/306 304/304
f 358/358 357/357 304/304
f 304/304 303/303 358/358
f 359/359 356/356 357/357
f 357/357 358/358 359/359
f 360/360 355/355 356/356
f 356/356 359/359 360/360
f 361/361 355/355 360/360
f 355/355 361/361 362/362
f 362/362 352/352 355/355
f 360/360 363/363 361/361
f 362/362 364/364 352/352
f 364/364 354/354 352/352
f 362/362 361/361 365/365
f 365/365 364/364 362/362
f 365/365 361/361 363/363
f 364/364 366/366 354/354
f 366/366 364/364 365/365
f 343/343 354/354 366/366
f 363/363 360/360 367/367
f 367/367 360/360 359/359
f 367/367 368/368 363/363
f 363/363 368/368 365/365
f 359/359 369/369 367/367
f 369/369 359/359 358/358
f 368/368 367/367 370/370
f 370/370 367/367 369/369
f 371/371 368/368 370/370
f 365/365 368/368 371/371
f 358/358 372/372 369/369
f 372/372 358/358 303/303
f 370/370 369/369 373/373
f 372/372 373/373 369/369
f 371/371 370/370 374/374
f 374/374 370/370 373/373
f 375/375 373/373 372/372
f 376/376 371/371 374/374
f 365/365 371/371 376/376
f 374/374 373/373 377/377
f 373/373 375/375 377/377
f 374/374 378/378 376/376
f 377/377 378/378 374/374
f 372/372 379/379 375/375
f 379/379 377/377 375/375
f 303/303 379/379 372/372
f 303/303 241/241 379/379
f 379/379 380/380 377/377
f 241/241 380/380 379/379
f 380/380 381/381 377/377
f 377/377 381/381 378/378
f 382/382 380/380 241/241
f 241/241 239/239 382/382
f 239/239 243/243 382/382
f 383/383 381/381 380/380
f 378/378 381/381 383/383
f 380/380 382/382 383/383
f 382/382 243/243 384/384
f 382/382 384/384 383/383
f 243/243 345/345 384/384
f 385/385 384/384 345/345
f 386/386 383/383 384/384
f 383/383 386/386 378/378
f 385/385 386/386 384/384
f 345/345 341/341 385/385
f 378/378 386/386 387/387
f 378/378 387/387 376/376
f 376/376 387/387 365/365
f 386/386 388/388 387/387
f 386/386 385/385 388/388
f 387/387 388/388 365/365
f 389/389 385/385 341/341
f 385/385 390/390 388/388
f 385/385 389/389 390/390
f 388/388 390/390 365/365
f 389/389 341/341 336/336
f 391/391 390/390 389/389
f 365/365 390/390 391/391
f 392/392 389/389 336/336
f 391/391 389/389 392/392
f 392/392 336/336 338/338
f 391/391 393/393 365/365
f 393/393 391/391 392/392
f 392/392 394/394 393/393
f 338/338 394/394 392/392
f 365/365 393/393 395/395
f 395/395 393/393 394/394
f 396/396 394/394 338/338
f 394/394 396/396 395/395
f 338/338 337/337 396/396
f 343/343 396/396 337/337
f 396/396 397/397 395/395
f 396/396 343/343 397/397
f 395/395 397/397 365/365
f 343/343 366/366 397/397
f 365/365 397/397 366/366
f 398/398 399/399 400/400
f 401/401 400/400 399/399
f 400/400 402/402 398/398
f 399/399 403/403 401/401
f 402/402 404/404 398/398
f 403/403 405/405 401/401
f 405/405 403/403 406/406
f 407/407 405/405 406/406
f 404/404 402/402 408/408
f 409/409 404/404 408/408
f 409/409 408/408 410/410
f 409/409 410/410 411/411
f 411/411 412/412 409/409
f 411/411 413/413 412/412
f 414/414 412/412 413/413
f 415/415 414/414 413/413
f 407/407 416/416 415/415
f 413/413 417/417 415/415
f 415/415 417/417 407/407
f 418/418 419/419 420/420
f 421/421 419/419 418/418
f 419/419 421/421 422/422
f 421/421 418/418 423/423
f 423/423 424/424 421/421
f 422/422 421/421 424/424
f 424/424 423/423 425/425
f 418/418 425/425 423/423
f 422/422 424/424 426/426
f 426/426 424/424 425/425
f 422/422 427/427 419/419
f 427/427 420/420 419/419
f 422/422 426/426 428/428
f 429/429 427/427 422/422
f 422/422 428/428 429/429
f 427/427 429/429 430/430
f 425/425 431/431 426/426
f 426/426 431/431 191/191
f 425/425 432/432 431/431
f 433/433 426/426 191/191
f 428/428 426/426 433/433
f 434/434 432/432 425/425
f 191/191 435/435 433/433
f 435/435 434/434 436/436
f 433/433 435/435 436/436
f 425/425 436/436 434/434
f 433/433 437/437 428/428
f 429/429 428/428 438/438
f 429/429 438/438 439/439
f 429/429 439/439 430/430
f 440/440 438/438 428/428
f 428/428 437/437 440/440
f 438/438 440/440 441/441
f 441/441 442/442 438/438
f 441/441 440/440 443/443
f 442/442 444/444 438/438
f 444/444 442/442 445/445
f 443/443 446/446 441/441
f 447/447 438/438 444/444
f 438/438 447/447 439/439
f 448/448 444/444 445/445
f 444/444 448/448 447/447
f 445/445 449/449 448/448
f 450/450 448/448 449/449
f 448/448 450/450 447/447
f 451/451 450/450 449/449
f 450/450 451/451 447/447
f 449/449 452/452 451/451
f 447/447 453/453 439/439
f 452/452 454/454 451/451
f 454/454 452/452 455/455
f 447/447 451/451 456/456
f 454/454 456/456 451/451
f 456/456 453/453 447/447
f 455/455 457/457 454/454
f 456/456 454/454 457/457
f 457/457 453/453 456/456
f 455/455 458/458 457/457
f 453/453 430/430 439/439
f 458/458 459/459 457/457
f 459/459 458/458 460/460
f 457/457 461/461 453/453
f 453/453 462/462 430/430
f 453/453 461/461 462/462
f 463/463 461/461 457/457
f 463/463 457/457 459/459
f 460/460 464/464 459/459
f 460/460 465/465 464/464
f 459/459 466/466 463/463
f 467/467 461/461 463/463
f 468/468 462/462 461/461
f 468/468 461/461 467/467
f 430/430 462/462 469/469
f 469/469 462/462 468/468
f 470/470 466/466 459/459
f 464/464 470/470 459/459
f 463/463 466/466 471/471
f 463/463 471/471 467/467
f 470/470 464/464 472/472
f 470/470 473/473 466/466
f 472/472 473/473 470/470
f 474/474 472/472 464/464
f 473/473 472/472 475/475
f 476/476 475/475 472/472
f 472/472 474/474 476/476
f 475/475 477/477 473/473
f 473/473 477/477 466/466
f 475/475 476/476 478/478
f 477/477 475/475 478/478
f 479/479 476/476 474/474
f 479/479 478/478 476/476
f 480/480 477/477 478/478
f 477/477 480/480 466/466
f 478/478 479/479 481/481
f 481/481 480/480 478/478
f 474/474 482/482 479/479
f 479/479 483/483 481/481
f 479/479 482/482 483/483
f 464/464 484/484 474/474
f 482/482 474/474 484/484
f 465/465 484/484 464/464
f 484/484 485/485 482/482
f 486/486 484/484 465/465
f 486/486 485/485 484/484
f 465/465 487/487 486/486
f 488/488 486/486 487/487
f 488/488 487/487 489/489
f 486/486 490/490 485/485
f 490/490 486/486 488/488
f 485/485 491/491 482/482
f 492/492 482/482 491/491
f 492/492 483/483 482/482
f 485/485 493/493 491/491
f 491/491 493/493 492/492
f 493/493 485/485 494/494
f 494/494 485/485 490/490
f 494/494 495/495 493/493
f 490/490 495/495 494/494
f 495/495 496/496 493/493
f 490/490 496/496 495/495
f 492/492 493/493 496/496
f 497/497 483/483 492/492
f 496/496 497/497 492/492
f 497/497 481/481 483/483
f 498/498 497/497 496/496
f 481/481 497/497 498/498
f 496/496 490/490 498/498
f 498/498 480/480 481/481
f 499/499 498/498 490/490
f 488/488 499/499 490/490
f 480/480 498/498 500/500
f 501/501 480/480 500/500
f 466/466 480/480 501/501
f 502/502 500/500 498/498
f 500/500 502/502 501/501
f 498/498 503/503 502/502
f 503/503 498/498 499/499
f 425/425 501/501 502/502
f 425/425 502/502 503/503
f 501/501 504/504 466/466
f 425/425 504/504 501/501
f 425/425 418/418 504/504
f 436/436 425/425 503/503
f 466/466 504/504 505/505
f 506/506 504/504 418/418
f 506/506 505/505 504/504
f 505/505 471/471 466/466
f 507/507 506/506 418/418
f 505/505 506/506 508/508
f 508/508 506/506 507/507
f 508/508 509/509 505/505
f 471/471 505/505 509/509
f 509/509 508/508 510/510
f 471/471 509/509 510/510
f 510/510 508/508 507/507
f 507/507 418/418 420/420
f 507/507 511/511 510/510
f 420/420 511/511 507/507
f 510/510 511/511 512/512
f 512/512 471/471 510/510
f 512/512 511/511 420/420
f 471/471 512/512 513/513
f 513/513 467/467 471/471
f 514/514 512/512 420/420
f 515/515 467/467 513/513
f 516/516 467/467 515/515
f 467/467 516/516 468/468
f 515/515 517/517 516/516
f 468/468 516/516 517/517
f 517/517 515/515 518/518
f 514/514 420/420 518/518
f 515/515 519/519 518/518
f 518/518 519/519 514/514
f 517/517 520/520 468/468
f 518/518 520/520 517/517
f 520/520 521/521 468/468
f 468/468 521/521 522/522
f 520/520 522/522 521/521
f 522/522 520/520 518/518
f 468/468 522/522 469/469
f 523/523 518/518 420/420
f 518/518 524/524 522/522
f 518/518 523/523 524/524
f 522/522 524/524 525/525
f 525/525 469/469 522/522
f 526/526 525/525 524/524
f 469/469 525/525 526/526
f 524/524 523/523 526/526
f 527/527 523/523 420/420
f 420/420 427/427 527/527
f 523/523 528/528 526/526
f 469/469 526/526 529/529
f 528/528 529/529 526/526
f 530/530 528/528 523/523
f 530/530 529/529 528/528
f 523/523 527/527 530/530
f 529/529 531/531 469/469
f 529/529 530/530 531/531
f 531/531 530/530 527/527
f 527/527 427/427 531/531
f 531/531 430/430 469/469
f 427/427 430/430 531/531
f 532/532 533/533 534/534
f 533/533 532/532 535/535
f 532/532 534/534 535/535
f 535/535 536/536 533/533
f 533/533 536/536 537/537
f 537/537 534/534 533/533
f 534/534 537/537 489/489
f 489/489 538/538 534/534
f 489/489 537/537 488/488
f 534/534 538/538 539/539
f 539/539 535/535 534/534
f 488/488 537/537 540/540
f 536/536 540/540 537/537
f 540/540 499/499 488/488
f 535/535 541/541 536/536
f 540/540 536/536 541/541
f 535/535 539/539 542/542
f 543/543 499/499 540/540
f 542/542 544/544 535/535
f 544/544 545/545 535/535
f 545/545 541/541 535/535
f 544/544 546/546 545/545
f 542/542 546/546 544/544
f 545/545 547/547 541/541
f 548/548 542/542 539/539
f 548/548 539/539 549/549
f 545/545 550/550 547/547
f 550/550 545/545 546/546
f 547/547 551/551 541/541
f 552/552 547/547 550/550
f 551/551 547/547 552/552
f 546/546 553/553 550/550
f 550/550 553/553 552/552
f 553/553 546/546 554/554
f 546/546 542/542 555/555
f 554/554 546/546 555/555
f 556/556 555/555 542/542
f 542/542 548/548 556/556
f 555/555 557/557 554/554
f 558/558 555/555 556/556
f 558/558 557/557 555/555
f 556/556 559/559 558/558
f 559/559 556/556 548/548
f 557/557 558/558 560/560
f 558/558 559/559 561/561
f 558/558 561/561 560/560
f 548/548 562/562 559/559
f 563/563 562/562 548/548
f 561/561 559/559 564/564
f 564/564 559/559 562/562
f 443/443 562/562 563/563
f 443/443 564/564 562/562
f 565/565 563/563 548/548
f 443/443 563/563 565/565
f 548/548 549/549 565/565
f 565/565 549/549 446/446
f 443/443 565/565 446/446
f 564/564 443/443 440/440
f 437/437 564/564 440/440
f 561/561 564/564 566/566
f 560/560 561/561 566/566
f 567/567 564/564 437/437
f 567/567 566/566 564/564
f 437/437 568/568 567/567
f 437/437 433/433 568/568
f 569/569 566/566 567/567
f 567/567 568/568 569/569
f 566/566 570/570 560/560
f 570/570 566/566 569/569
f 571/571 568/568 433/433
f 436/436 571/571 433/433
f 572/572 568/568 571/571
f 569/569 568/568 572/572
f 436/436 573/573 571/571
f 572/572 571/571 573/573
f 436/436 569/569 573/573
f 573/573 574/574 572/572
f 572/572 574/574 569/569
f 573/573 569/569 574/574
f 569/569 436/436 575/575
f 503/503 575/575 436/436
f 499/499 575/575 503/503
f 499/499 543/543 575/575
f 569/569 575/575 576/576
f 576/576 575/575 577/577
f 575/575 578/578 577/577
f 543/543 578/578 575/575
f 576/576 577/577 579/579
f 578/578 579/579 577/577
f 579/579 580/580 576/576
f 579/579 578/578 581/581
f 581/581 580/580 579/579
f 580/580 581/581 576/576
f 569/569 576/576 581/581
f 581/581 578/578 543/543
f 581/581 582/582 569/569
f 543/543 583/583 581/581
f 582/582 581/581 583/583
f 206/206 583/583 543/543
f 582/582 583/583 584/584
f 206/206 543/543 585/585
f 569/569 582/582 570/570
f 540/540 585/585 543/543
f 585/585 584/584 586/586
f 587/587 582/582 584/584
f 587/587 584/584 585/585
f 582/582 587/587 570/570
f 588/588 585/585 540/540
f 541/541 588/588 540/540
f 585/585 589/589 587/587
f 585/585 588/588 589/589
f 551/551 588/588 541/541
f 587/587 551/551 570/570
f 589/589 588/588 590/590
f 589/589 591/591 587/587
f 591/591 589/589 590/590
f 551/551 587/587 591/591
f 592/592 590/590 588/588
f 590/590 592/592 591/591
f 588/588 551/551 592/592
f 551/551 591/591 592/592
f 552/552 570/570 551/551
f 593/593 570/570 552/552
f 570/570 593/593 594/594
f 594/594 595/595 570/570
f 595/595 560/560 570/570
f 560/560 595/595 596/596
f 594/594 596/596 595/595
f 557/557 560/560 596/596
f 597/597 594/594 593/593
f 597/597 596/596 594/594
f 596/596 598/598 557/557
f 597/597 598/598 596/596
f 554/554 557/557 598/598
f 593/593 599/599 597/597
f 552/552 599/599 593/593
f 600/600 598/598 597/597
f 600/600 554/554 598/598
f 600/600 597/597 599/599
f 600/600 553/553 554/554
f 599/599 552/552 601/601
f 599/599 601/601 600/600
f 601/601 552/552 553/553
f 553/553 600/600 601/601
f 602/602 603/603 604/604
f 604/604 603/603 605/605
f 603/603 602/602 606/606
f 603/603 606/606 607/607
f 605/605 603/603 607/607
f 607/607 606/606 608/608
f 605/605 607/607 609/609
f 609/609 607/607 608/608
f 610/610 605/605 609/609
f 605/605 611/611 604/604
f 605/605 610/610 611/611
f 610/610 609/609 612/612
f 612/612 609/609 608/608
f 610/610 613/613 611/611
f 614/614 610/610 612/612
f 613/613 610/610 614/614
f 615/615 612/612 608/608
f 616/616 614/614 612/612
f 612/612 615/615 616/616
f 617/617 614/614 616/616
f 614/614 617/617 613/613
f 618/618 616/616 615/615
f 615/615 608/608 618/618
f 619/619 617/617 616/616
f 616/616 618/618 619/619
f 613/613 617/617 620/620
f 617/617 619/619 620/620
f 613/613 621/621 611/611
f 621/621 604/604 611/611
f 622/622 621/621 613/613
f 622/622 613/613 620/620
f 623/623 604/604 621/621
f 623/623 624/624 604/604
f 623/623 621/621 625/625
f 622/622 625/625 621/621
f 625/625 626/626 623/623
f 627/627 626/626 625/625
f 625/625 622/622 627/627
f 626/626 627/627 628/628
f 628/628 627/627 629/629
f 629/629 627/627 622/622
f 630/630 628/628 629/629
f 629/629 622/622 631/631
f 632/632 630/630 629/629
f 629/629 631/631 632/632
f 631/631 622/622 632/632
f 620/620 632/632 622/622
f 633/633 630/630 632/632
f 632/632 620/620 633/633
f 634/634 633/633 620/620
f 620/620 619/619 634/634
f 619/619 635/635 634/634
f 636/636 634/634 635/635
f 618/618 635/635 619/619
f 636/636 635/635 637/637
f 636/636 637/637 638/638
f 638/638 639/639 636/636
f 635/635 640/640 637/637
f 638/638 637/637 640/640
f 641/641 639/639 638/638
f 639/639 641/641 642/642
f 643/643 638/638 640/640
f 638/638 643/643 641/641
f 642/642 641/641 644/644
f 644/644 641/641 643/643
f 645/645 642/642 644/644
f 646/646 645/645 644/644
f 644/644 643/643 646/646
f 647/647 645/645 646/646
f 643/643 640/640 648/648
f 648/648 646/646 643/643
f 649/649 648/648 640/640
f 640/640 635/635 649/649
f 648/648 650/650 646/646
f 646/646 650/650 647/647
f 650/650 648/648 651/651
f 649/649 651/651 648/648
f 650/650 652/652 647/647
f 651/651 652/652 650/650
f 653/653 647/647 652/652
f 654/654 651/651 649/649
f 652/652 651/651 654/654
f 652/652 655/655 653/653
f 656/656 653/653 655/655
f 649/649 635/635 657/657
f 635/635 618/618 657/657
f 657/657 658/658 649/649
f 649/649 658/658 654/654
f 657/657 618/618 659/659
f 658/658 657/657 659/659
f 608/608 659/659 618/618
f 660/660 654/654 658/658
f 659/659 660/660 658/658
f 608/608 661/661 659/659
f 659/659 661/661 660/660
f 606/606 661/661 608/608
f 660/660 662/662 654/654
f 660/660 661/661 662/662
f 662/662 663/663 654/654
f 652/652 654/654 663/663
f 655/655 652/652 663/663
f 662/662 664/664 663/663
f 661/661 664/664 662/662
f 664/664 665/665 663/663
f 663/663 665/665 655/655
f 661/661 666/666 664/664
f 602/602 661/661 606/606
f 667/667 664/664 666/666
f 667/667 665/665 664/664
f 667/667 666/666 661/661
f 602/602 667/667 661/661
f 665/665 667/667 655/655
f 667/667 602/602 668/668
f 667/667 669/669 655/655
f 667/667 668/668 669/669
f 602/602 670/670 668/668
f 604/604 670/670 602/602
f 624/624 670/670 604/604
f 671/671 670/670 624/624
f 624/624 672/672 671/671
f 668/668 670/670 673/673
f 671/671 673/673 670/670
f 674/674 669/669 668/668
f 668/668 673/673 674/674
f 675/675 671/671 672/672
f 673/673 671/671 675/675
f 672/672 676/676 675/675
f 676/676 677/677 675/675
f 676/676 678/678 677/677
f 673/673 675/675 679/679
f 679/679 675/675 677/677
f 679/679 677/677 678/678
f 674/674 673/673 679/679
f 678/678 680/680 679/679
f 679/679 680/680 681/681
f 681/681 674/674 679/679
f 682/682 674/674 681/681
f 681/681 683/683 682/682
f 669/669 674/674 684/684
f 674/674 682/682 684/684
f 684/684 655/655 669/669
f 685/685 682/682 683/683
f 685/685 684/684 682/682
f 683/683 686/686 685/685
f 684/684 687/687 655/655
f 687/687 684/684 685/685
f 687/687 685/685 686/686
f 656/656 655/655 687/687
f 686/686 656/656 687/687
f 688/688 689/689 690/690
f 688/688 691/691 689/689
f 692/692 688/688 690/690
f 691/691 693/693 689/689
f 692/692 690/690 694/694
f 691/691 695/695 693/693
f 696/696 692/692 694/694
f 695/695 697/697 693/693
f 696/696 694/694 698/698
f 695/695 699/699 697/697
f 700/700 696/696 698/698
f 699/699 701/701 697/697
f 700/700 698/698 702/702
f 699/699 703/703 701/701
f 704/704 700/700 702/702
f 699/699 704/704 703/703
f 704/704 702/702 703/703
f 705/705 706/706 707/707
f 706/706 708/708 707/707
f 705/705 707/707 709/709
f 709/709 710/710 705/705
f 710/710 709/709 711/711
f 712/712 713/713 714/714
f 714/714 713/713 715/715
f 715/715 716/716 714/714
f 717/717 718/718 719/719
f 720/720 719/719 718/718
f 719/719 721/721 717/717
f 717/717 721/721 722/722
f 723/723 724/724 725/725
f 724/724 723/723 726/726
f 724/724 726/726 727/727
f 728/728 729/729 730/730
f 729/729 728/728 731/731
f 732/732 728/728 730/730
f 733/733 734/734 735/735
f 734/734 736/736 735/735
f 736/736 737/737 735/735
f 734/734 738/738 736/736
f 738/738 739/739 736/736
f 740/740 741/741 742/742
f 743/743 744/744 745/745
