# Perseverance visual mesh from JPL ops GLTF
mtllib rover.mtl
usemtl rover
v 0.580839 -0.002093 -0.073929
v 0.580133 -0.002844 -0.072998
v 0.581096 -0.004080 -0.073013
v 0.579243 -0.003539 -0.072041
v 0.580842 -0.003697 -0.075078
v 0.579131 -0.002950 -0.072169
v 0.579989 -0.002337 -0.072859
v 0.580841 -0.001633 -0.073636
v 0.579149 -0.002356 -0.071889
v 0.580131 -0.001877 -0.072569
v 0.579229 -0.002199 -0.071416
v 0.579291 -0.002049 -0.071418
v 0.580949 -0.001213 -0.071807
v 0.580558 -0.000733 -0.071525
v 0.581049 -0.000805 -0.072016
v 0.579246 -0.000150 -0.071108
v 0.580136 0.000004 -0.072262
v 0.580860 0.000042 -0.073298
v 0.579987 0.000543 -0.072390
v 0.580846 0.000782 -0.073452
v 0.579131 0.000318 -0.071481
v 0.579252 -0.001866 -0.071231
v 0.579409 0.000304 -0.070408
v 0.579436 -0.001342 -0.070423
v 0.579142 0.000923 -0.071559
v 0.579260 0.000849 -0.071002
v 0.580143 0.001082 -0.072364
v 0.579242 0.001425 -0.071228
v 0.581096 0.002212 -0.071988
v 0.579257 0.001464 -0.071106
v 0.579249 0.003290 -0.071826
v 0.579243 0.002596 -0.071473
v 0.579473 0.002423 -0.070513
v 0.579575 0.003637 -0.070562
v 0.578314 0.001817 -0.070373
v 0.578090 0.001270 -0.070355
v 0.578238 0.000761 -0.070171
v 0.577095 0.001334 -0.069879
v 0.577756 -0.000005 -0.068720
v 0.577148 0.000808 -0.069619
v 0.577406 0.000031 -0.068621
v 0.577037 0.001126 -0.069716
v 0.577373 -0.000055 -0.068389
v 0.577099 0.001913 -0.069746
v 0.577461 0.002835 -0.068427
v 0.577343 0.002962 -0.068956
v 0.577343 -0.001452 -0.068635
v 0.577892 -0.001313 -0.068855
v 0.577533 -0.003733 -0.068500
v 0.577099 -0.002042 -0.069786
v 0.578281 -0.001882 -0.070398
v 0.578090 -0.002370 -0.070630
v 0.577095 -0.002519 -0.070173
v 0.578240 -0.002925 -0.070681
v 0.579341 -0.002932 -0.071251
v 0.577037 -0.002777 -0.070116
v 0.577144 -0.003090 -0.070168
v 0.577462 -0.004002 -0.068894
v 0.577338 -0.004228 -0.069521
v 0.577406 -0.004238 -0.069605
v 0.579636 -0.004405 -0.070460
v 0.579336 -0.004706 -0.072299
v 0.579554 -0.004722 -0.070520
v 0.577343 -0.005509 -0.070283
v 0.578319 -0.005177 -0.072053
v 0.579247 -0.004847 -0.072833
v 0.579244 -0.005131 -0.073161
v 0.578077 -0.005530 -0.072446
v 0.577095 -0.005862 -0.072109
v 0.578276 -0.005977 -0.072754
v 0.577092 -0.005614 -0.071577
v 0.577144 -0.006379 -0.072353
v 0.577037 -0.006120 -0.072170
v 0.577406 -0.007658 -0.072343
v 0.577338 -0.007682 -0.072249
v 0.577447 -0.007360 -0.071258
v 0.577351 -0.008502 -0.073507
v 0.579721 -0.007512 -0.073186
v 0.577488 -0.007835 -0.071545
v 0.579336 -0.005743 -0.073261
v 0.579175 -0.005820 -0.074399
v 0.579252 -0.006148 -0.074454
v 0.579116 -0.005253 -0.074018
v 0.579208 -0.005061 -0.073585
v 0.580145 -0.004385 -0.074142
v 0.579977 -0.004686 -0.074613
v 0.580150 -0.005048 -0.074983
v 0.580866 -0.004255 -0.075533
v 0.581096 -0.006124 -0.075521
v 0.580854 -0.004375 -0.076209
v 0.580845 -0.004842 -0.077173
v 0.580942 -0.003432 -0.075020
v 0.580917 -0.001993 -0.073997
v 0.580938 -0.000800 -0.073641
v 0.582325 -0.002279 -0.074390
v 0.581115 -0.001424 -0.073824
v 0.581837 -0.002236 -0.075752
v 0.581852 -0.001200 -0.075107
v 0.581376 -0.000789 -0.074422
v 0.580918 0.000837 -0.073615
v 0.581234 -0.000394 -0.073638
v 0.581749 -0.000407 -0.075151
v 0.581683 -0.001738 -0.075803
v 0.581376 -0.003006 -0.075687
v 0.581751 -0.002463 -0.076268
v 0.581115 -0.003869 -0.075577
v 0.581852 -0.002935 -0.076484
v 0.582326 -0.004229 -0.076537
v 0.581370 -0.004626 -0.077263
v 0.581670 -0.002724 -0.077081
v 0.581749 -0.003244 -0.077876
v 0.580930 -0.004842 -0.078172
v 0.581376 -0.004056 -0.078015
v 0.581852 -0.003530 -0.078617
v 0.581683 -0.003034 -0.079344
v 0.581679 -0.003021 -0.077987
v 0.582320 -0.004546 -0.079424
v 0.581749 -0.002960 -0.079926
v 0.580911 -0.004769 -0.079460
v 0.581370 -0.004440 -0.080242
v 0.580841 -0.004907 -0.079565
v 0.580955 -0.004201 -0.080877
v 0.581376 -0.003536 -0.080515
v 0.580839 -0.004713 -0.080053
v 0.581162 -0.003872 -0.081339
v 0.581852 -0.002757 -0.080693
v 0.581670 -0.002124 -0.080676
v 0.582321 -0.003105 -0.081942
v 0.580915 -0.003344 -0.082021
v 0.580841 -0.003768 -0.081755
v 0.580922 -0.002098 -0.082872
v 0.581834 -0.001830 -0.081456
v 0.581433 -0.001949 -0.082139
v 0.581752 -0.001079 -0.081621
v 0.581679 -0.001354 -0.081239
v 0.581094 -0.001538 -0.083068
v 0.580839 -0.003430 -0.082082
v 0.580918 -0.000735 -0.083316
v 0.582327 -0.000460 -0.083132
v 0.581749 0.000509 -0.081781
v 0.580840 -0.001550 -0.083237
v 0.581234 0.000496 -0.083293
v 0.580938 0.000902 -0.083290
v 0.580843 -0.001263 -0.083359
v 0.581376 0.000891 -0.082509
v 0.581115 0.001526 -0.083107
v 0.581852 0.001302 -0.081824
v 0.581683 -0.000067 -0.081671
v 0.581670 0.001482 -0.081217
v 0.580917 0.002095 -0.082935
v 0.582322 0.002382 -0.082541
v 0.581837 0.002337 -0.081179
v 0.580942 0.003534 -0.081911
v 0.580838 0.001046 -0.083386
v 0.580842 0.002837 -0.082708
v 0.581376 0.003108 -0.081244
v 0.581751 0.002565 -0.080663
v 0.581679 0.002255 -0.080659
v 0.581852 0.003037 -0.080448
v 0.581115 0.003971 -0.081354
v 0.581683 0.003063 -0.079569
v 0.582326 0.004331 -0.080394
v 0.580918 0.004271 -0.080981
v 0.581749 0.003346 -0.079055
v 0.581370 0.004728 -0.079668
v 0.580840 0.003098 -0.082467
v 0.580845 0.004486 -0.080858
v 0.581376 0.004158 -0.078917
v 0.579989 0.003711 -0.083338
v 0.580930 0.004944 -0.078759
v 0.581852 0.003632 -0.078314
v 0.581670 0.003110 -0.077955
v 0.582320 0.004648 -0.077508
v 0.581749 0.003062 -0.077006
v 0.580911 0.004871 -0.077471
v 0.581370 0.004542 -0.076689
v 0.580955 0.004303 -0.076055
v 0.581376 0.003638 -0.076417
v 0.581852 0.002859 -0.076238
v 0.580840 0.005069 -0.078248
v 0.581162 0.003974 -0.075592
v 0.580850 0.005208 -0.077827
v 0.580848 0.004795 -0.080352
v 0.582321 0.003207 -0.074989
v 0.580915 0.003446 -0.074911
v 0.580845 0.003168 -0.074322
v 0.580922 0.002200 -0.074060
v 0.580841 0.002720 -0.074200
v 0.581433 0.002051 -0.074793
v 0.581834 0.001932 -0.075475
v 0.581094 0.001640 -0.073863
v 0.581752 0.001181 -0.075311
v 0.581683 0.002031 -0.075942
v 0.582327 0.000562 -0.073799
v 0.580874 0.002423 -0.073761
v 0.580015 0.003299 -0.073341
v 0.580115 0.002908 -0.072927
v 0.579125 0.003593 -0.072522
v 0.579260 0.004008 -0.072088
v 0.580145 0.003788 -0.073543
v 0.579159 0.004197 -0.072748
v 0.579243 0.004631 -0.072696
v 0.579256 0.004518 -0.072448
v 0.581096 0.005002 -0.073745
v 0.579248 0.006001 -0.074105
v 0.580839 0.004296 -0.075790
v 0.578261 0.004277 -0.071300
v 0.580137 0.005129 -0.074913
v 0.579995 0.005322 -0.075422
v 0.578842 0.003864 -0.069809
v 0.578416 0.003076 -0.069383
v 0.577406 0.004305 -0.069587
v 0.577338 0.004377 -0.069542
v 0.577144 0.004580 -0.070837
v 0.577095 0.004932 -0.071286
v 0.577448 0.003164 -0.068606
v 0.577038 0.004814 -0.071050
v 0.578090 0.004668 -0.071687
v 0.578319 0.005140 -0.071942
v 0.577094 0.005514 -0.071411
v 0.577447 0.006543 -0.070421
v 0.577344 0.006779 -0.071227
v 0.579336 0.005004 -0.072456
v 0.577480 0.006227 -0.070020
v 0.579721 0.006743 -0.072118
v 0.577478 0.006964 -0.070623
v 0.577343 0.007777 -0.072300
v 0.579721 0.006881 -0.072267
v 0.579243 0.005751 -0.073683
v 0.579336 0.006414 -0.073975
v 0.578264 0.006967 -0.073844
v 0.579260 0.006384 -0.074437
v 0.577144 0.007442 -0.073557
v 0.579131 0.005942 -0.074711
v 0.579256 0.006683 -0.074979
v 0.578090 0.007152 -0.074362
v 0.577095 0.007564 -0.074115
v 0.577037 0.007561 -0.073851
v 0.578344 0.007448 -0.074799
v 0.577091 0.008034 -0.074478
v 0.577490 0.008867 -0.072765
v 0.579336 0.007122 -0.075200
v 0.577447 0.009011 -0.073309
v 0.577348 0.009248 -0.074865
v 0.579721 0.008835 -0.075650
v 0.579248 0.006818 -0.075492
v 0.577487 0.009378 -0.073671
v 0.579721 0.008895 -0.075844
v 0.577344 0.009689 -0.076260
v 0.579142 0.006220 -0.075252
v 0.580157 0.005647 -0.075854
v 0.580877 0.004860 -0.076292
v 0.581096 0.006617 -0.076547
v 0.580120 0.006217 -0.077684
v 0.579995 0.006132 -0.078222
v 0.579246 0.007347 -0.077368
v 0.579336 0.007733 -0.077180
v 0.579141 0.007012 -0.077865
v 0.579260 0.007505 -0.077583
v 0.578260 0.008289 -0.077302
v 0.579256 0.007541 -0.078205
v 0.579138 0.007030 -0.078493
v 0.578090 0.008229 -0.077849
v 0.577144 0.008839 -0.077250
v 0.577095 0.008707 -0.077806
v 0.578305 0.008338 -0.078386
v 0.577037 0.008821 -0.077566
v 0.577093 0.008970 -0.078337
v 0.579336 0.007838 -0.078591
v 0.577478 0.010443 -0.077327
v 0.577447 0.010269 -0.076894
v 0.577483 0.010313 -0.076368
v 0.576060 0.010913 -0.076773
v 0.576193 0.011117 -0.077294
v 0.577964 0.012313 -0.078806
v 0.577343 0.009970 -0.079188
v 0.579721 0.009186 -0.079740
v 0.579244 0.007406 -0.078963
v 0.575032 0.013116 -0.078312
v 0.580122 0.006268 -0.078762
v 0.580875 0.005320 -0.078773
v 0.581096 0.006751 -0.079847
v 0.579251 0.007031 -0.080881
v 0.580120 0.005874 -0.080639
v 0.580012 0.005539 -0.081059
v 0.579141 0.006493 -0.081168
v 0.579243 0.007322 -0.080047
v 0.579256 0.006912 -0.081481
v 0.579139 0.006217 -0.081733
v 0.580126 0.005412 -0.081602
v 0.579260 0.007149 -0.080905
v 0.579336 0.007529 -0.080641
v 0.579721 0.009156 -0.079941
v 0.578276 0.007960 -0.080996
v 0.578090 0.007687 -0.081459
v 0.577406 0.009653 -0.080637
v 0.578319 0.007544 -0.081975
v 0.577095 0.008137 -0.081627
v 0.577144 0.008497 -0.081183
v 0.577338 0.009713 -0.080697
v 0.577037 0.008341 -0.081460
v 0.577448 0.010140 -0.080724
v 0.577097 0.008140 -0.082221
v 0.577482 0.010163 -0.081181
v 0.577483 0.010377 -0.080218
v 0.576053 0.010792 -0.080815
v 0.575047 0.013076 -0.079417
v 0.576209 0.011014 -0.080321
v 0.576206 0.010784 -0.081359
v 0.574696 0.011248 -0.080904
v 0.574686 0.011589 -0.080432
v 0.574741 0.011289 -0.081485
v 0.575041 0.012291 -0.083057
v 0.574620 0.011316 -0.081117
v 0.575032 0.013076 -0.080033
v 0.577964 0.011333 -0.083281
v 0.575186 0.013487 -0.081058
v 0.575162 0.013638 -0.078785
v 0.573602 0.015852 -0.081013
v 0.573417 0.016000 -0.079762
v 0.573898 0.016047 -0.078918
v 0.571763 0.015973 -0.079783
v 0.575807 0.016011 -0.077335
v 0.571736 0.015990 -0.077787
v 0.571918 0.015846 -0.075887
v 0.575807 0.015897 -0.076248
v 0.575145 0.013209 -0.075295
v 0.573593 0.015521 -0.074358
v 0.571527 0.015558 -0.075841
v 0.571524 0.015734 -0.078916
v 0.571747 0.015631 -0.081955
v 0.571759 0.015240 -0.073520
v 0.575805 0.015429 -0.082884
v 0.571934 0.014936 -0.084366
v 0.575807 0.015091 -0.083924
v 0.575099 0.012045 -0.084362
v 0.573891 0.014474 -0.085392
v 0.571562 0.014909 -0.083785
v 0.573416 0.014096 -0.086137
v 0.571744 0.014088 -0.086061
v 0.571517 -0.012669 -0.087623
v 0.571524 0.014306 -0.085018
v 0.571517 0.012683 -0.087744
v 0.573557 0.013515 -0.087118
v 0.571838 0.013066 -0.087757
v 0.575061 0.011254 -0.085466
v 0.575760 0.012325 -0.088728
v 0.575186 0.011271 -0.086299
v 0.571913 0.011486 -0.089659
v 0.571527 0.011333 -0.089422
v 0.571527 -0.011404 -0.089241
v 0.575805 0.011570 -0.089570
v 0.575040 0.009809 -0.087156
v 0.573891 0.010410 -0.090660
v 0.575232 0.009219 -0.088851
v 0.573417 0.009766 -0.091185
v 0.575065 0.008252 -0.088845
v 0.575043 0.009054 -0.087938
v 0.574670 0.007151 -0.087688
v 0.575061 0.007434 -0.089424
v 0.571744 0.010020 -0.090931
v 0.571524 0.008958 -0.091382
v 0.571763 0.008449 -0.092057
v 0.573559 0.008829 -0.091847
v 0.571761 0.006375 -0.093138
v 0.575185 0.007115 -0.090187
v 0.575802 0.007059 -0.092849
v 0.575048 0.005998 -0.090202
v 0.574669 0.006389 -0.088245
v 0.575808 0.006060 -0.093295
v 0.574695 0.006619 -0.087861
v 0.575042 0.005021 -0.090548
v 0.575098 0.005984 -0.090072
v 0.576203 0.006033 -0.087840
v 0.576074 0.006403 -0.087429
v 0.577481 0.005696 -0.087279
v 0.576211 0.006905 -0.087221
v 0.577964 0.008857 -0.087005
v 0.577484 0.006503 -0.086717
v 0.577447 0.006012 -0.086912
v 0.577342 0.005612 -0.086632
v 0.577487 0.008500 -0.084677
v 0.577093 0.005713 -0.085362
v 0.577037 0.006222 -0.084760
v 0.577338 0.007788 -0.084669
v 0.576179 0.009024 -0.085070
v 0.576075 0.009207 -0.084536
v 0.574741 0.009436 -0.085330
v 0.574623 0.009577 -0.085053
v 0.574692 0.009633 -0.084763
v 0.574680 0.010077 -0.084482
v 0.576206 0.009617 -0.084149
v 0.575113 0.011843 -0.084012
v 0.577480 0.009030 -0.083836
v 0.577447 0.008661 -0.084188
v 0.577343 0.008674 -0.083420
v 0.577406 0.007760 -0.084588
v 0.579721 0.007729 -0.083577
v 0.579336 0.007013 -0.081958
v 0.579244 0.006328 -0.082318
v 0.579721 0.007614 -0.083745
v 0.581096 0.005341 -0.082802
v 0.579246 0.005988 -0.083037
v 0.580877 0.003643 -0.082351
v 0.579248 0.005127 -0.083846
v 0.579336 0.005845 -0.083670
v 0.578276 0.006079 -0.084177
v 0.577144 0.006481 -0.084579
v 0.577095 0.005964 -0.084822
v 0.578319 0.005279 -0.084878
v 0.578077 0.005632 -0.084485
v 0.579257 0.004925 -0.084159
v 0.579721 0.004751 -0.086402
v 0.579336 0.004808 -0.084632
v 0.579146 0.004558 -0.083840
v 0.580136 0.004194 -0.083079
v 0.579136 0.004003 -0.084206
v 0.580129 0.003341 -0.083714
v 0.579248 0.003814 -0.084815
v 0.581096 0.002748 -0.084752
v 0.580153 0.001551 -0.084446
v 0.579246 0.002052 -0.085610
v 0.579987 0.001028 -0.084483
v 0.579721 0.004575 -0.086504
v 0.579243 0.003196 -0.085209
v 0.577343 0.004344 -0.087370
v 0.579337 0.003018 -0.085672
v 0.578262 0.003018 -0.086237
v 0.579259 0.002569 -0.085536
v 0.578090 0.002472 -0.086302
v 0.577144 0.003192 -0.086763
v 0.577095 0.002621 -0.086758
v 0.578303 0.001973 -0.086529
v 0.577037 0.002879 -0.086814
v 0.577093 0.002164 -0.087132
v 0.577483 0.003085 -0.088490
v 0.577447 0.002568 -0.088492
v 0.577964 0.005178 -0.089609
v 0.576219 0.003273 -0.089100
v 0.576043 0.002724 -0.089134
v 0.577478 0.002149 -0.088706
v 0.574695 0.002827 -0.089580
v 0.574686 0.003410 -0.089646
v 0.576206 0.002242 -0.089368
v 0.574657 0.002465 -0.089833
v 0.575068 0.003339 -0.091290
v 0.575040 0.001410 -0.091456
v 0.575093 0.002003 -0.091661
v 0.575232 0.004201 -0.091681
v 0.574041 0.004684 -0.093779
v 0.573603 0.004168 -0.093927
v 0.573383 0.003170 -0.094163
v 0.571762 0.004190 -0.093897
v 0.571523 0.006231 -0.092849
v 0.571519 0.003238 -0.093826
v 0.571499 0.000051 -0.093466
v 0.571743 0.002308 -0.094262
v 0.571528 0.000389 -0.094128
v 0.573787 0.002294 -0.094308
v 0.571835 0.000550 -0.094446
v 0.575808 0.000590 -0.094457
v 0.575046 0.000337 -0.091535
v 0.575540 0.000051 -0.093466
v 0.577964 0.000806 -0.090709
v 0.576198 -0.000776 -0.089564
v 0.577488 -0.000722 -0.088928
v 0.574673 -0.000891 -0.090106
v 0.576070 -0.001297 -0.089370
v 0.574696 -0.001367 -0.089830
v 0.574654 -0.001801 -0.089950
v 0.576187 -0.001856 -0.089435
v 0.577487 -0.001741 -0.088797
v 0.575085 -0.003383 -0.091046
v 0.575067 -0.002170 -0.091518
v 0.575042 -0.003399 -0.091129
v 0.575059 -0.003130 -0.091282
v 0.575113 -0.004384 -0.090719
v 0.575232 -0.001533 -0.092228
v 0.575808 -0.000470 -0.094457
v 0.573891 -0.002080 -0.094324
v 0.571843 -0.000449 -0.094446
v 0.573440 -0.002832 -0.094208
v 0.575035 -0.004450 -0.090767
v 0.573528 -0.003999 -0.093950
v 0.575185 -0.003929 -0.091558
v 0.575804 -0.005950 -0.093297
v 0.571758 -0.006250 -0.093146
v 0.571765 -0.004028 -0.093915
v 0.571753 -0.002170 -0.094273
v 0.571532 -0.000289 -0.094134
v 0.571520 -0.003198 -0.093814
v 0.571523 -0.006129 -0.092849
v 0.571524 -0.008938 -0.091324
v 0.571764 -0.008320 -0.092076
v 0.571744 -0.009871 -0.090969
v 0.571926 -0.011376 -0.089668
v 0.573386 -0.009535 -0.091279
v 0.573607 -0.008676 -0.091880
v 0.574042 -0.008229 -0.092156
v 0.575808 -0.006949 -0.092853
v 0.575232 -0.006992 -0.090390
v 0.574677 -0.005018 -0.088959
v 0.575068 -0.007290 -0.089484
v 0.574695 -0.006075 -0.088602
v 0.575049 -0.007710 -0.088983
v 0.574677 -0.005880 -0.088484
v 0.576217 -0.004731 -0.088499
v 0.574692 -0.005382 -0.088553
v 0.576205 -0.005678 -0.087999
v 0.576047 -0.005141 -0.088160
v 0.577964 -0.003668 -0.090155
v 0.577484 -0.004457 -0.087923
v 0.577481 -0.005322 -0.087448
v 0.577449 -0.004803 -0.087599
v 0.577348 -0.002880 -0.087910
v 0.577338 -0.004289 -0.087388
v 0.577037 -0.004713 -0.085883
v 0.577964 -0.007639 -0.088022
v 0.577093 -0.005405 -0.085521
v 0.577144 -0.004478 -0.086095
v 0.577406 -0.004203 -0.087344
v 0.577095 -0.004830 -0.085645
v 0.578276 -0.004176 -0.085614
v 0.578319 -0.005038 -0.084990
v 0.577344 -0.006688 -0.085706
v 0.579721 -0.003413 -0.087014
v 0.578103 -0.004563 -0.085239
v 0.579336 -0.003734 -0.085272
v 0.579260 -0.003906 -0.084843
v 0.579246 -0.004331 -0.084503
v 0.579336 -0.004902 -0.084476
v 0.579242 -0.003017 -0.085163
v 0.579721 -0.003224 -0.087089
v 0.579721 -0.006641 -0.084814
v 0.579243 -0.004686 -0.084127
v 0.579720 -0.006779 -0.084663
v 0.581096 -0.003616 -0.084240
v 0.579163 -0.004697 -0.083608
v 0.580153 -0.004018 -0.083097
v 0.579991 -0.004344 -0.082683
v 0.580873 -0.002088 -0.083272
v 0.580122 -0.002421 -0.084172
v 0.579980 -0.001892 -0.084250
v 0.579150 -0.002488 -0.084975
v 0.579140 -0.001871 -0.085155
v 0.580135 -0.001406 -0.084478
v 0.581096 -0.000513 -0.085283
v 0.579240 -0.001523 -0.085664
v 0.579261 -0.001427 -0.085831
v 0.580877 0.000378 -0.083732
v 0.579243 -0.000598 -0.085878
v 0.580141 0.000518 -0.084635
v 0.579242 0.000449 -0.085822
v 0.579150 0.000820 -0.085415
v 0.579131 0.001448 -0.085290
v 0.579340 0.001654 -0.086101
v 0.579721 0.000842 -0.087656
v 0.577344 0.001510 -0.088248
v 0.579721 0.000639 -0.087671
v 0.579336 -0.000406 -0.086241
v 0.579259 -0.000748 -0.085929
v 0.578276 -0.000656 -0.086740
v 0.578090 -0.001168 -0.086576
v 0.578307 -0.001715 -0.086562
v 0.577095 -0.001232 -0.087052
v 0.577092 -0.001804 -0.087190
v 0.577447 -0.001234 -0.088723
v 0.577037 -0.001023 -0.087215
v 0.577338 0.000012 -0.088388
v 0.577144 -0.000719 -0.087304
v 0.577406 0.000071 -0.088310
v 0.582339 -0.000109 -0.081245
v 0.583202 -0.000933 -0.080676
v 0.581735 -0.000529 -0.081451
v 0.581811 0.000583 -0.081442
v 0.582191 0.000174 -0.080684
v 0.581893 0.000845 -0.081340
v 0.582447 -0.000182 -0.079906
v 0.582201 0.000812 -0.080465
v 0.582255 0.001278 -0.081006
v 0.582314 0.000583 -0.079664
v 0.583202 0.001849 -0.080084
v 0.582201 -0.000353 -0.079548
v 0.582192 0.000274 -0.079546
v 0.582188 0.000958 -0.079109
v 0.582191 -0.000816 -0.079147
v 0.581735 0.002711 -0.079940
v 0.582314 -0.000924 -0.079342
v 0.583499 0.000051 -0.078466
v 0.581811 0.003047 -0.078879
v 0.582339 0.002645 -0.079477
v 0.581893 0.003030 -0.078599
v 0.582447 0.001349 -0.079133
v 0.582191 0.002199 -0.079035
v 0.582314 0.001355 -0.078330
v 0.582201 0.002188 -0.078360
v 0.582255 0.002846 -0.078084
v 0.581679 0.002818 -0.077047
v 0.583202 0.002146 -0.077256
v 0.581735 0.002276 -0.076391
v 0.581811 0.001370 -0.075744
v 0.582339 0.001814 -0.076311
v 0.581670 0.000511 -0.075399
v 0.581679 -0.000443 -0.075396
v 0.581893 0.001098 -0.075674
v 0.582191 0.001256 -0.076599
v 0.582447 0.001087 -0.077437
v 0.582201 0.000611 -0.076401
v 0.582255 0.000552 -0.075690
v 0.582314 0.000325 -0.077184
v 0.582201 0.001014 -0.077827
v 0.583202 -0.000452 -0.076100
v 0.582192 0.001165 -0.078447
v 0.582194 0.000485 -0.077439
v 0.582188 -0.000197 -0.077381
v 0.582187 -0.000814 -0.077790
v 0.582183 -0.001055 -0.078421
v 0.582314 -0.001084 -0.077809
v 0.582447 -0.000607 -0.077163
v 0.582339 -0.001453 -0.076123
v 0.581735 -0.001234 -0.075709
v 0.581811 -0.002129 -0.076370
v 0.582191 -0.001352 -0.076743
v 0.581893 -0.002280 -0.076607
v 0.582201 -0.001740 -0.077295
v 0.582255 -0.002434 -0.077131
v 0.583202 -0.002355 -0.078213
v 0.581735 -0.002968 -0.078836
v 0.582447 -0.001391 -0.078689
v 0.582339 -0.002642 -0.079172
v 0.581811 -0.002615 -0.079892
v 0.582191 -0.002022 -0.079268
v 0.581893 -0.002438 -0.080108
v 0.582200 -0.001616 -0.079808
v 0.582255 -0.001986 -0.080417
v 0.573558 -0.015927 -0.079379
v 0.575774 -0.015910 -0.077367
v 0.571735 -0.015890 -0.077841
v 0.575187 -0.013629 -0.078723
v 0.571927 -0.015743 -0.075886
v 0.571762 -0.015867 -0.079829
v 0.575808 -0.015795 -0.076253
v 0.571527 -0.015412 -0.075595
v 0.573683 -0.015442 -0.074456
v 0.571524 -0.015634 -0.078815
v 0.571832 -0.015162 -0.073549
v 0.575219 -0.013412 -0.075430
v 0.571515 -0.014619 -0.072883
v 0.575042 -0.012876 -0.076199
v 0.575066 -0.012686 -0.074879
v 0.573375 -0.015126 -0.073389
v 0.571739 -0.014394 -0.071688
v 0.575062 -0.012362 -0.073924
v 0.573754 -0.014811 -0.072529
v 0.571811 -0.013772 -0.070453
v 0.571512 -0.013294 -0.070265
v 0.572729 -0.013801 -0.070462
v 0.571500 -0.003232 -0.066365
v 0.574744 -0.009897 -0.068944
v 0.575033 -0.014355 -0.071504
v 0.575216 -0.012622 -0.073021
v 0.574188 -0.013958 -0.070732
v 0.575645 -0.013672 -0.071502
v 0.574672 -0.010459 -0.073552
v 0.574815 -0.011635 -0.069729
v 0.575037 -0.011140 -0.071721
v 0.575435 -0.011946 -0.070134
v 0.574490 -0.010897 -0.069341
v 0.575153 -0.010695 -0.070201
v 0.575031 -0.009564 -0.069559
v 0.575140 -0.009322 -0.068737
v 0.575043 -0.010541 -0.070809
v 0.574646 -0.008042 -0.070066
v 0.575062 -0.007932 -0.068167
v 0.574667 -0.008580 -0.070698
v 0.574706 -0.007964 -0.070181
v 0.576190 -0.008316 -0.071116
v 0.576079 -0.007840 -0.070826
v 0.577964 -0.010174 -0.071690
v 0.577482 -0.009389 -0.073943
v 0.576213 -0.009965 -0.073650
v 0.577478 -0.007121 -0.070859
v 0.576056 -0.010075 -0.074182
v 0.577875 -0.007087 -0.068902
v 0.576197 -0.007548 -0.070328
v 0.576956 -0.007434 -0.068407
v 0.577763 -0.006105 -0.068730
v 0.577295 -0.006764 -0.068264
v 0.576301 -0.006959 -0.067890
v 0.576191 -0.005101 -0.068592
v 0.577470 -0.004641 -0.069160
v 0.574950 -0.006637 -0.067655
v 0.576071 -0.004544 -0.068484
v 0.576214 -0.004089 -0.068133
v 0.574696 -0.004724 -0.068049
v 0.574689 -0.005286 -0.068088
v 0.574740 -0.004312 -0.067672
v 0.574625 -0.004580 -0.067840
v 0.574871 -0.004014 -0.066645
v 0.575584 -0.003729 -0.066549
v 0.574955 -0.002106 -0.066150
v 0.576883 -0.000931 -0.067850
v 0.576632 -0.000211 -0.067605
v 0.576018 -0.001161 -0.067336
v 0.575814 -0.000615 -0.067393
v 0.574696 -0.000638 -0.067027
v 0.574690 -0.001177 -0.066862
v 0.574871 -0.001961 -0.066129
v 0.571499 0.000051 -0.065966
v 0.574624 -0.000429 -0.066885
v 0.574871 0.000531 -0.065975
v 0.574740 -0.000118 -0.066825
v 0.574932 0.000666 -0.065981
v 0.571498 0.003198 -0.066309
v 0.575226 0.002422 -0.066192
v 0.576258 0.002912 -0.067748
v 0.571524 0.013383 -0.070260
v 0.576059 0.003379 -0.067989
v 0.574920 0.002508 -0.066213
v 0.574689 0.003098 -0.067201
v 0.577497 0.003766 -0.068618
v 0.574696 0.003540 -0.067551
v 0.576183 0.003941 -0.068032
v 0.577743 0.006034 -0.068710
v 0.576259 0.005438 -0.067226
v 0.576781 0.006296 -0.067748
v 0.574923 0.005156 -0.067027
v 0.576236 0.006579 -0.069463
v 0.575933 0.006516 -0.067606
v 0.574740 0.004099 -0.067550
v 0.574625 0.003787 -0.067493
v 0.574873 0.005015 -0.066985
v 0.574979 0.006747 -0.067663
v 0.574871 0.002632 -0.066235
v 0.574662 0.006994 -0.069126
v 0.575060 0.008574 -0.068382
v 0.574611 0.010234 -0.069032
v 0.574694 0.007260 -0.069565
v 0.574675 0.007759 -0.069699
v 0.575141 0.009425 -0.068738
v 0.575042 0.009652 -0.069564
v 0.576171 0.007466 -0.070140
v 0.576073 0.006939 -0.069907
v 0.577945 0.009237 -0.070445
v 0.577949 0.009391 -0.070597
v 0.575113 0.010272 -0.070382
v 0.576194 0.009407 -0.072436
v 0.574535 0.011381 -0.069501
v 0.576060 0.009568 -0.072963
v 0.574696 0.009968 -0.072725
v 0.576190 0.009948 -0.073375
v 0.574740 0.009848 -0.072176
v 0.574626 0.009971 -0.072459
v 0.575036 0.010352 -0.070382
v 0.574678 0.010437 -0.073083
v 0.575153 0.010808 -0.070211
v 0.575042 0.012176 -0.073609
v 0.575436 0.012055 -0.070138
v 0.573832 0.013979 -0.070588
v 0.575039 0.014459 -0.071508
v 0.571753 0.013855 -0.070445
v 0.573919 0.014838 -0.072356
v 0.575646 0.013782 -0.071509
v 0.575217 0.012725 -0.073026
v 0.575067 0.012464 -0.073865
v 0.573432 0.015125 -0.073090
v 0.571752 0.014491 -0.071670
v 0.571516 0.014655 -0.072731
v 0.575055 0.012544 -0.074602
v 0.577964 0.011620 -0.074389
v 0.576209 0.010944 -0.076235
v 0.574675 0.011514 -0.076172
v 0.574696 0.011373 -0.076695
v 0.574620 0.011514 -0.076868
v 0.574741 0.011621 -0.077221
v 0.577964 -0.012065 -0.080384
v 0.575079 -0.012742 -0.081006
v 0.576191 -0.010612 -0.081650
v 0.575113 -0.012894 -0.079958
v 0.574682 -0.011146 -0.081844
v 0.577478 -0.009955 -0.081495
v 0.575042 -0.012822 -0.081022
v 0.576060 -0.010315 -0.082125
v 0.577338 -0.009631 -0.080636
v 0.574696 -0.010753 -0.082286
v 0.577447 -0.009704 -0.081888
v 0.576192 -0.010254 -0.082673
v 0.577488 -0.009659 -0.082440
v 0.577344 -0.009167 -0.082064
v 0.574626 -0.010804 -0.082547
v 0.574743 -0.010735 -0.082858
v 0.575085 -0.011504 -0.084511
v 0.575058 -0.011609 -0.084643
v 0.577964 -0.010572 -0.084599
v 0.575081 -0.010962 -0.085456
v 0.577482 -0.008208 -0.084899
v 0.577094 -0.007927 -0.082454
v 0.578319 -0.007364 -0.082136
v 0.577037 -0.007460 -0.083080
v 0.577095 -0.007462 -0.082816
v 0.577144 -0.007340 -0.083374
v 0.577338 -0.007731 -0.084622
v 0.578264 -0.006865 -0.083087
v 0.577406 -0.007633 -0.084619
v 0.577447 -0.007809 -0.085181
v 0.577483 -0.007570 -0.085650
v 0.576060 -0.008293 -0.085623
v 0.579336 -0.006312 -0.082956
v 0.575040 -0.008563 -0.088291
v 0.576209 -0.008036 -0.086096
v 0.576206 -0.008726 -0.085288
v 0.574696 -0.008643 -0.085931
v 0.574740 -0.008423 -0.086448
v 0.574626 -0.008596 -0.086193
v 0.574685 -0.009173 -0.085656
v 0.575233 -0.011246 -0.086516
v 0.575157 -0.008787 -0.088776
v 0.575060 -0.011139 -0.085502
v 0.573829 -0.010270 -0.090697
v 0.575807 -0.011465 -0.089573
v 0.575790 -0.012205 -0.088750
v 0.573894 -0.013159 -0.087496
v 0.571840 -0.012948 -0.087782
v 0.573417 -0.013610 -0.086799
v 0.571744 -0.013959 -0.086112
v 0.571524 -0.014246 -0.084927
v 0.573598 -0.014221 -0.085706
v 0.571769 -0.014792 -0.084395
v 0.571523 -0.015203 -0.081982
v 0.571752 -0.015514 -0.082037
v 0.575783 -0.014980 -0.083947
v 0.575184 -0.012341 -0.084269
v 0.575803 -0.015326 -0.082887
v 0.575163 -0.013318 -0.080996
v 0.573891 -0.015689 -0.081340
v 0.573417 -0.015819 -0.080514
v 0.575027 -0.012967 -0.079806
v 0.574688 -0.011653 -0.078658
v 0.574620 -0.011510 -0.077930
v 0.576209 -0.011066 -0.078656
v 0.574696 -0.011403 -0.078126
v 0.574741 -0.011551 -0.077563
v 0.577483 -0.010421 -0.078641
v 0.576060 -0.010937 -0.078134
v 0.576206 -0.011031 -0.077594
v 0.575085 -0.012792 -0.076209
v 0.577482 -0.010385 -0.077659
v 0.577447 -0.010282 -0.078133
v 0.577038 -0.008717 -0.079366
v 0.577093 -0.008869 -0.078597
v 0.577346 -0.009810 -0.077711
v 0.577964 -0.011924 -0.075805
v 0.577095 -0.008605 -0.079126
v 0.577144 -0.008737 -0.079681
v 0.578305 -0.008236 -0.078545
v 0.578260 -0.008187 -0.079629
v 0.577406 -0.009542 -0.080676
v 0.579721 -0.008733 -0.081281
v 0.579721 -0.008793 -0.081087
v 0.579336 -0.007020 -0.081731
v 0.578090 -0.008127 -0.079082
v 0.579250 -0.006778 -0.081300
v 0.579257 -0.006584 -0.081950
v 0.578090 -0.007050 -0.082570
v 0.579246 -0.006293 -0.082391
v 0.579244 -0.005777 -0.082969
v 0.579127 -0.005134 -0.083100
v 0.580134 -0.004784 -0.082357
v 0.581096 -0.005860 -0.081909
v 0.580120 -0.005749 -0.080700
v 0.579144 -0.006558 -0.080713
v 0.579995 -0.005795 -0.080158
v 0.579143 -0.006726 -0.080106
v 0.580126 -0.006042 -0.079673
v 0.579250 -0.007227 -0.079727
v 0.579336 -0.007631 -0.079751
v 0.579260 -0.007403 -0.079348
v 0.579249 -0.007414 -0.078769
v 0.581096 -0.006784 -0.078741
v 0.579244 -0.007283 -0.077776
v 0.579336 -0.007736 -0.078340
v 0.579721 -0.009084 -0.077192
v 0.580858 -0.005056 -0.077816
v 0.580114 -0.006139 -0.077757
v 0.579721 -0.009054 -0.076990
v 0.579144 -0.006846 -0.077384
v 0.579995 -0.005912 -0.077247
v 0.580126 -0.005905 -0.076704
v 0.579143 -0.006713 -0.076769
v 0.579243 -0.006967 -0.076226
v 0.579336 -0.007427 -0.076290
v 0.579246 -0.006968 -0.075946
v 0.578276 -0.007858 -0.075935
v 0.577406 -0.009551 -0.076294
v 0.577338 -0.009614 -0.076220
v 0.577144 -0.008395 -0.075748
v 0.577095 -0.008035 -0.075304
v 0.578090 -0.007585 -0.075473
v 0.579254 -0.006810 -0.075456
v 0.578319 -0.007442 -0.074956
v 0.579336 -0.006911 -0.074974
v 0.579721 -0.007627 -0.073354
v 0.577090 -0.008045 -0.074715
v 0.577037 -0.008239 -0.075472
v 0.577447 -0.009464 -0.074423
v 0.577480 -0.009762 -0.074837
v 0.576207 -0.010389 -0.074633
v 0.574638 -0.010614 -0.074069
v 0.574680 -0.010891 -0.074398
v 0.575113 -0.012559 -0.075181
v 0.575038 -0.012619 -0.075141
v 0.576185 0.004297 -0.081994
v 0.576117 0.002386 -0.083474
v 0.576401 0.002151 -0.082968
v 0.576401 0.003100 -0.082388
v 0.575675 0.003714 -0.083178
v 0.575675 0.004670 -0.082245
v 0.575117 0.005717 -0.075823
v 0.575625 0.004716 -0.074592
v 0.574433 0.004852 -0.074276
v 0.575117 0.004010 -0.073627
v 0.575675 0.005460 -0.075943
v 0.026499 -0.010818 -0.072191
v 0.026499 -0.006224 -0.067597
v 0.026499 0.000051 -0.065916
v 0.574899 -0.010818 -0.072191
v 0.574899 -0.006224 -0.067597
v 0.574899 -0.012499 -0.078466
v 0.574899 0.012601 -0.078466
v 0.026499 -0.012499 -0.078466
v 0.574899 0.000051 -0.065916
v 0.026499 0.006326 -0.067597
v 0.574899 0.006326 -0.067597
v 0.026499 0.010920 -0.072191
v 0.574899 0.010920 -0.072191
v 0.026499 0.012601 -0.078466
v 0.026499 -0.010818 -0.084741
v 0.574899 0.010920 -0.084741
v 0.026499 0.010920 -0.084741
v 0.574899 0.006326 -0.089334
v 0.026499 0.006326 -0.089334
v 0.574899 0.000051 -0.091016
v 0.026499 0.000051 -0.091016
v 0.574899 -0.006224 -0.089334
v 0.574899 -0.010818 -0.084741
v 0.026499 -0.006224 -0.089334
vt 0.074101 0.996001
vt 0.074101 0.996001
vt 0.074101 0.996001
vt 0.074101 0.996001
vt 0.074101 0.996001
vt 0.074101 0.996001
vt 0.074101 0.996001
vt 0.074101 0.996001
vt 0.074101 0.996001
vt 0.074101 0.996001
vt 0.074101 0.996001
vt 0.074101 0.996001
vt 0.074101 0.996001
vt 0.074101 0.996001
vt 0.074101 0.996001
vt 0.074101 0.996001
vt 0.074101 0.996001
vt 0.074101 0.996001
vt 0.074101 0.996001
vt 0.074101 0.996001
vt 0.074101 0.996001
vt 0.074101 0.996001
vt 0.074101 0.996001
vt 0.074101 0.996001
vt 0.074101 0.996001
vt 0.074101 0.996001
vt 0.074101 0.996001
vt 0.074101 0.996001
vt 0.074101 0.996001
vt 0.074101 0.996001
vt 0.074101 0.996001
vt 0.074101 0.996001
vt 0.074101 0.996001
vt 0.074101 0.996001
vt 0.074101 0.996001
vt 0.074101 0.996001
vt 0.074101 0.996001
vt 0.074101 0.996001
vt 0.074101 0.996001
vt 0.074101 0.996001
vt 0.074101 0.996001
vt 0.074101 0.996001
vt 0.074101 0.996001
vt 0.074101 0.996001
vt 0.074101 0.996001
vt 0.074101 0.996001
vt 0.074101 0.996001
vt 0.074101 0.996001
vt 0.074101 0.996001
vt 0.074101 0.996001
vt 0.074101 0.996001
vt 0.074101 0.996001
vt 0.074101 0.996001
vt 0.074101 0.996001
vt 0.074101 0.996001
vt 0.074101 0.996001
vt 0.074101 0.996001
vt 0.074101 0.996001
vt 0.074101 0.996001
vt 0.074101 0.996001
vt 0.074101 0.996001
vt 0.074101 0.996001
vt 0.074101 0.996001
vt 0.074101 0.996001
vt 0.074101 0.996001
vt 0.074101 0.996001
vt 0.074101 0.996001
vt 0.074101 0.996001
vt 0.074101 0.996001
vt 0.074101 0.996001
vt 0.074101 0.996001
vt 0.074101 0.996001
vt 0.074101 0.996001
vt 0.074101 0.996001
vt 0.074101 0.996001
vt 0.074101 0.996001
vt 0.074101 0.996001
vt 0.074101 0.996001
vt 0.074101 0.996001
vt 0.074101 0.996001
vt 0.074101 0.996001
vt 0.074101 0.996001
vt 0.074101 0.996001
vt 0.074101 0.996001
vt 0.074101 0.996001
vt 0.074101 0.996001
vt 0.074101 0.996001
vt 0.074101 0.996001
vt 0.074101 0.996001
vt 0.074101 0.996001
vt 0.074101 0.996001
vt 0.074101 0.996001
vt 0.074101 0.996001
vt 0.074101 0.996001
vt 0.074101 0.996001
vt 0.074101 0.996001
vt 0.074101 0.996001
vt 0.074101 0.996001
vt 0.074101 0.996001
vt 0.074101 0.996001
vt 0.074101 0.996001
vt 0.074101 0.996001
vt 0.074101 0.996001
vt 0.074101 0.996001
vt 0.074101 0.996001
vt 0.074101 0.996001
vt 0.074101 0.996001
vt 0.074101 0.996001
vt 0.074101 0.996001
vt 0.074101 0.996001
vt 0.074101 0.996001
vt 0.074101 0.996001
vt 0.074101 0.996001
vt 0.074101 0.996001
vt 0.074101 0.996001
vt 0.074101 0.996001
vt 0.074101 0.996001
vt 0.074101 0.996001
vt 0.074101 0.996001
vt 0.074101 0.996001
vt 0.074101 0.996001
vt 0.074101 0.996001
vt 0.074101 0.996001
vt 0.074101 0.996001
vt 0.074101 0.996001
vt 0.074101 0.996001
vt 0.074101 0.996001
vt 0.074101 0.996001
vt 0.074101 0.996001
vt 0.074101 0.996001
vt 0.074101 0.996001
vt 0.074101 0.996001
vt 0.074101 0.996001
vt 0.074101 0.996001
vt 0.074101 0.996001
vt 0.074101 0.996001
vt 0.074101 0.996001
vt 0.074101 0.996001
vt 0.074101 0.996001
vt 0.074101 0.996001
vt 0.074101 0.996001
vt 0.074101 0.996001
vt 0.074101 0.996001
vt 0.074101 0.996001
vt 0.074101 0.996001
vt 0.074101 0.996001
vt 0.074101 0.996001
vt 0.074101 0.996001
vt 0.074101 0.996001
vt 0.074101 0.996001
vt 0.074101 0.996001
vt 0.074101 0.996001
vt 0.074101 0.996001
vt 0.074101 0.996001
vt 0.074101 0.996001
vt 0.074101 0.996001
vt 0.074101 0.996001
vt 0.074101 0.996001
vt 0.074101 0.996001
vt 0.074101 0.996001
vt 0.074101 0.996001
vt 0.074101 0.996001
vt 0.074101 0.996001
vt 0.074101 0.996001
vt 0.074101 0.996001
vt 0.074101 0.996001
vt 0.074101 0.996001
vt 0.074101 0.996001
vt 0.074101 0.996001
vt 0.074101 0.996001
vt 0.074101 0.996001
vt 0.074101 0.996001
vt 0.074101 0.996001
vt 0.074101 0.996001
vt 0.074101 0.996001
vt 0.074101 0.996001
vt 0.074101 0.996001
vt 0.074101 0.996001
vt 0.074101 0.996001
vt 0.074101 0.996001
vt 0.074101 0.996001
vt 0.074101 0.996001
vt 0.074101 0.996001
vt 0.074101 0.996001
vt 0.074101 0.996001
vt 0.074101 0.996001
vt 0.074101 0.996001
vt 0.074101 0.996001
vt 0.074101 0.996001
vt 0.074101 0.996001
vt 0.074101 0.996001
vt 0.074101 0.996001
vt 0.074101 0.996001
vt 0.074101 0.996001
vt 0.074101 0.996001
vt 0.074101 0.996001
vt 0.074101 0.996001
vt 0.074101 0.996001
vt 0.074101 0.996001
vt 0.074101 0.996001
vt 0.074101 0.996001
vt 0.074101 0.996001
vt 0.074101 0.996001
vt 0.074101 0.996001
vt 0.074101 0.996001
vt 0.074101 0.996001
vt 0.074101 0.996001
vt 0.074101 0.996001
vt 0.074101 0.996001
vt 0.074101 0.996001
vt 0.074101 0.996001
vt 0.074101 0.996001
vt 0.074101 0.996001
vt 0.074101 0.996001
vt 0.074101 0.996001
vt 0.074101 0.996001
vt 0.074101 0.996001
vt 0.074101 0.996001
vt 0.074101 0.996001
vt 0.074101 0.996001
vt 0.074101 0.996001
vt 0.074101 0.996001
vt 0.074101 0.996001
vt 0.074101 0.996001
vt 0.074101 0.996001
vt 0.074101 0.996001
vt 0.074101 0.996001
vt 0.074101 0.996001
vt 0.074101 0.996001
vt 0.074101 0.996001
vt 0.074101 0.996001
vt 0.074101 0.996001
vt 0.074101 0.996001
vt 0.074101 0.996001
vt 0.074101 0.996001
vt 0.074101 0.996001
vt 0.074101 0.996001
vt 0.074101 0.996001
vt 0.074101 0.996001
vt 0.074101 0.996001
vt 0.074101 0.996001
vt 0.074101 0.996001
vt 0.074101 0.996001
vt 0.074101 0.996001
vt 0.074101 0.996001
vt 0.074101 0.996001
vt 0.074101 0.996001
vt 0.074101 0.996001
vt 0.074101 0.996001
vt 0.074101 0.996001
vt 0.074101 0.996001
vt 0.074101 0.996001
vt 0.074101 0.996001
vt 0.074101 0.996001
vt 0.074101 0.996001
vt 0.074101 0.996001
vt 0.074101 0.996001
vt 0.074101 0.996001
vt 0.074101 0.996001
vt 0.074101 0.996001
vt 0.074101 0.996001
vt 0.074101 0.996001
vt 0.074101 0.996001
vt 0.074101 0.996001
vt 0.074101 0.996001
vt 0.074101 0.996001
vt 0.074101 0.996001
vt 0.074101 0.996001
vt 0.074101 0.996001
vt 0.074101 0.996001
vt 0.074101 0.996001
vt 0.074101 0.996001
vt 0.074101 0.996001
vt 0.074101 0.996001
vt 0.074101 0.996001
vt 0.074101 0.996001
vt 0.074101 0.996001
vt 0.074101 0.996001
vt 0.074101 0.996001
vt 0.074101 0.996001
vt 0.074101 0.996001
vt 0.074101 0.996001
vt 0.074101 0.996001
vt 0.074101 0.996001
vt 0.074101 0.996001
vt 0.074101 0.996001
vt 0.074101 0.996001
vt 0.074101 0.996001
vt 0.074101 0.996001
vt 0.074101 0.996001
vt 0.074101 0.996001
vt 0.074101 0.996001
vt 0.074101 0.996001
vt 0.074101 0.996001
vt 0.074101 0.996001
vt 0.074101 0.996001
vt 0.074101 0.996001
vt 0.074101 0.996001
vt 0.074101 0.996001
vt 0.074101 0.996001
vt 0.074101 0.996001
vt 0.074101 0.996001
vt 0.074101 0.996001
vt 0.074101 0.996001
vt 0.074101 0.996001
vt 0.074101 0.996001
vt 0.074101 0.996001
vt 0.074101 0.996001
vt 0.074101 0.996001
vt 0.074101 0.996001
vt 0.074101 0.996001
vt 0.074101 0.996001
vt 0.074101 0.996001
vt 0.074101 0.996001
vt 0.074101 0.996001
vt 0.074101 0.996001
vt 0.074101 0.996001
vt 0.074101 0.996001
vt 0.074101 0.996001
vt 0.074101 0.996001
vt 0.074101 0.996001
vt 0.074101 0.996001
vt 0.074101 0.996001
vt 0.074101 0.996001
vt 0.074101 0.996001
vt 0.074101 0.996001
vt 0.074101 0.996001
vt 0.074101 0.996001
vt 0.074101 0.996001
vt 0.074101 0.996001
vt 0.074101 0.996001
vt 0.074101 0.996001
vt 0.074101 0.996001
vt 0.074101 0.996001
vt 0.074101 0.996001
vt 0.074101 0.996001
vt 0.074101 0.996001
vt 0.074101 0.996001
vt 0.074101 0.996001
vt 0.074101 0.996001
vt 0.074101 0.996001
vt 0.074101 0.996001
vt 0.074101 0.996001
vt 0.074101 0.996001
vt 0.074101 0.996001
vt 0.074101 0.996001
vt 0.074101 0.996001
vt 0.074101 0.996001
vt 0.074101 0.996001
vt 0.074101 0.996001
vt 0.074101 0.996001
vt 0.074101 0.996001
vt 0.074101 0.996001
vt 0.074101 0.996001
vt 0.074101 0.996001
vt 0.074101 0.996001
vt 0.074101 0.996001
vt 0.074101 0.996001
vt 0.074101 0.996001
vt 0.074101 0.996001
vt 0.074101 0.996001
vt 0.074101 0.996001
vt 0.074101 0.996001
vt 0.074101 0.996001
vt 0.074101 0.996001
vt 0.074101 0.996001
vt 0.074101 0.996001
vt 0.074101 0.996001
vt 0.074101 0.996001
vt 0.074101 0.996001
vt 0.074101 0.996001
vt 0.074101 0.996001
vt 0.074101 0.996001
vt 0.074101 0.996001
vt 0.074101 0.996001
vt 0.074101 0.996001
vt 0.074101 0.996001
vt 0.074101 0.996001
vt 0.074101 0.996001
vt 0.074101 0.996001
vt 0.074101 0.996001
vt 0.074101 0.996001
vt 0.074101 0.996001
vt 0.074101 0.996001
vt 0.074101 0.996001
vt 0.074101 0.996001
vt 0.074101 0.996001
vt 0.074101 0.996001
vt 0.074101 0.996001
vt 0.074101 0.996001
vt 0.074101 0.996001
vt 0.074101 0.996001
vt 0.074101 0.996001
vt 0.074101 0.996001
vt 0.074101 0.996001
vt 0.074101 0.996001
vt 0.074101 0.996001
vt 0.074101 0.996001
vt 0.074101 0.996001
vt 0.074101 0.996001
vt 0.074101 0.996001
vt 0.074101 0.996001
vt 0.074101 0.996001
vt 0.074101 0.996001
vt 0.074101 0.996001
vt 0.074101 0.996001
vt 0.074101 0.996001
vt 0.074101 0.996001
vt 0.074101 0.996001
vt 0.074101 0.996001
vt 0.074101 0.996001
vt 0.074101 0.996001
vt 0.074101 0.996001
vt 0.074101 0.996001
vt 0.074101 0.996001
vt 0.074101 0.996001
vt 0.074101 0.996001
vt 0.074101 0.996001
vt 0.074101 0.996001
vt 0.074101 0.996001
vt 0.074101 0.996001
vt 0.074101 0.996001
vt 0.074101 0.996001
vt 0.074101 0.996001
vt 0.074101 0.996001
vt 0.074101 0.996001
vt 0.074101 0.996001
vt 0.074101 0.996001
vt 0.074101 0.996001
vt 0.074101 0.996001
vt 0.074101 0.996001
vt 0.074101 0.996001
vt 0.074101 0.996001
vt 0.074101 0.996001
vt 0.074101 0.996001
vt 0.074101 0.996001
vt 0.074101 0.996001
vt 0.074101 0.996001
vt 0.074101 0.996001
vt 0.074101 0.996001
vt 0.074101 0.996001
vt 0.074101 0.996001
vt 0.074101 0.996001
vt 0.074101 0.996001
vt 0.074101 0.996001
vt 0.074101 0.996001
vt 0.074101 0.996001
vt 0.074101 0.996001
vt 0.074101 0.996001
vt 0.074101 0.996001
vt 0.074101 0.996001
vt 0.074101 0.996001
vt 0.074101 0.996001
vt 0.074101 0.996001
vt 0.074101 0.996001
vt 0.074101 0.996001
vt 0.074101 0.996001
vt 0.074101 0.996001
vt 0.074101 0.996001
vt 0.074101 0.996001
vt 0.074101 0.996001
vt 0.074101 0.996001
vt 0.074101 0.996001
vt 0.074101 0.996001
vt 0.074101 0.996001
vt 0.074101 0.996001
vt 0.074101 0.996001
vt 0.074101 0.996001
vt 0.074101 0.996001
vt 0.074101 0.996001
vt 0.074101 0.996001
vt 0.074101 0.996001
vt 0.074101 0.996001
vt 0.074101 0.996001
vt 0.074101 0.996001
vt 0.074101 0.996001
vt 0.074101 0.996001
vt 0.074101 0.996001
vt 0.074101 0.996001
vt 0.074101 0.996001
vt 0.074101 0.996001
vt 0.074101 0.996001
vt 0.074101 0.996001
vt 0.074101 0.996001
vt 0.074101 0.996001
vt 0.074101 0.996001
vt 0.074101 0.996001
vt 0.074101 0.996001
vt 0.074101 0.996001
vt 0.074101 0.996001
vt 0.074101 0.996001
vt 0.074101 0.996001
vt 0.074101 0.996001
vt 0.074101 0.996001
vt 0.074101 0.996001
vt 0.074101 0.996001
vt 0.074101 0.996001
vt 0.074101 0.996001
vt 0.074101 0.996001
vt 0.074101 0.996001
vt 0.074101 0.996001
vt 0.074101 0.996001
vt 0.074101 0.996001
vt 0.074101 0.996001
vt 0.074101 0.996001
vt 0.074101 0.996001
vt 0.074101 0.996001
vt 0.074101 0.996001
vt 0.074101 0.996001
vt 0.074101 0.996001
vt 0.074101 0.996001
vt 0.074101 0.996001
vt 0.074101 0.996001
vt 0.074101 0.996001
vt 0.074101 0.996001
vt 0.074101 0.996001
vt 0.074101 0.996001
vt 0.074101 0.996001
vt 0.074101 0.996001
vt 0.074101 0.996001
vt 0.074101 0.996001
vt 0.074101 0.996001
vt 0.074101 0.996001
vt 0.074101 0.996001
vt 0.074101 0.996001
vt 0.074101 0.996001
vt 0.074101 0.996001
vt 0.074101 0.996001
vt 0.074101 0.996001
vt 0.074101 0.996001
vt 0.074101 0.996001
vt 0.074101 0.996001
vt 0.074101 0.996001
vt 0.074101 0.996001
vt 0.074101 0.996001
vt 0.074101 0.996001
vt 0.074101 0.996001
vt 0.074101 0.996001
vt 0.074101 0.996001
vt 0.074101 0.996001
vt 0.074101 0.996001
vt 0.074101 0.996001
vt 0.074101 0.996001
vt 0.074101 0.996001
vt 0.074101 0.996001
vt 0.074101 0.996001
vt 0.074101 0.996001
vt 0.074101 0.996001
vt 0.074101 0.996001
vt 0.074101 0.996001
vt 0.074101 0.996001
vt 0.074101 0.996001
vt 0.074101 0.996001
vt 0.074101 0.996001
vt 0.074101 0.996001
vt 0.074101 0.996001
vt 0.074101 0.996001
vt 0.074101 0.996001
vt 0.074101 0.996001
vt 0.074101 0.996001
vt 0.074101 0.996001
vt 0.074101 0.996001
vt 0.074101 0.996001
vt 0.074101 0.996001
vt 0.074101 0.996001
vt 0.074101 0.996001
vt 0.074101 0.996001
vt 0.074101 0.996001
vt 0.074101 0.996001
vt 0.074101 0.996001
vt 0.074101 0.996001
vt 0.074101 0.996001
vt 0.074101 0.996001
vt 0.074101 0.996001
vt 0.074101 0.996001
vt 0.074101 0.996001
vt 0.074101 0.996001
vt 0.074101 0.996001
vt 0.074101 0.996001
vt 0.074101 0.996001
vt 0.074101 0.996001
vt 0.074101 0.996001
vt 0.074101 0.996001
vt 0.074101 0.996001
vt 0.074101 0.996001
vt 0.074101 0.996001
vt 0.074101 0.996001
vt 0.074101 0.996001
vt 0.074101 0.996001
vt 0.074101 0.996001
vt 0.074101 0.996001
vt 0.074101 0.996001
vt 0.074101 0.996001
vt 0.074101 0.996001
vt 0.074101 0.996001
vt 0.074101 0.996001
vt 0.074101 0.996001
vt 0.074101 0.996001
vt 0.074101 0.996001
vt 0.074101 0.996001
vt 0.074101 0.996001
vt 0.074101 0.996001
vt 0.074101 0.996001
vt 0.074101 0.996001
vt 0.074101 0.996001
vt 0.074101 0.996001
vt 0.074101 0.996001
vt 0.074101 0.996001
vt 0.074101 0.996001
vt 0.074101 0.996001
vt 0.074101 0.996001
vt 0.074101 0.996001
vt 0.074101 0.996001
vt 0.074101 0.996001
vt 0.074101 0.996001
vt 0.074101 0.996001
vt 0.074101 0.996001
vt 0.074101 0.996001
vt 0.074101 0.996001
vt 0.074101 0.996001
vt 0.074101 0.996001
vt 0.074101 0.996001
vt 0.074101 0.996001
vt 0.074101 0.996001
vt 0.074101 0.996001
vt 0.074101 0.996001
vt 0.074101 0.996001
vt 0.074101 0.996001
vt 0.074101 0.996001
vt 0.074101 0.996001
vt 0.074101 0.996001
vt 0.074101 0.996001
vt 0.074101 0.996001
vt 0.074101 0.996001
vt 0.074101 0.996001
vt 0.074101 0.996001
vt 0.074101 0.996001
vt 0.074101 0.996001
vt 0.074101 0.996001
vt 0.074101 0.996001
vt 0.074101 0.996001
vt 0.074101 0.996001
vt 0.074101 0.996001
vt 0.074101 0.996001
vt 0.074101 0.996001
vt 0.074101 0.996001
vt 0.074101 0.996001
vt 0.074101 0.996001
vt 0.074101 0.996001
vt 0.074101 0.996001
vt 0.074101 0.996001
vt 0.074101 0.996001
vt 0.074101 0.996001
vt 0.074101 0.996001
vt 0.074101 0.996001
vt 0.074101 0.996001
vt 0.074101 0.996001
vt 0.074101 0.996001
vt 0.074101 0.996001
vt 0.074101 0.996001
vt 0.074101 0.996001
vt 0.074101 0.996001
vt 0.074101 0.996001
vt 0.074101 0.996001
vt 0.074101 0.996001
vt 0.074101 0.996001
vt 0.074101 0.996001
vt 0.074101 0.996001
vt 0.074101 0.996001
vt 0.074101 0.996001
vt 0.074101 0.996001
vt 0.074101 0.996001
vt 0.074101 0.996001
vt 0.074101 0.996001
vt 0.074101 0.996001
vt 0.074101 0.996001
vt 0.074101 0.996001
vt 0.074101 0.996001
vt 0.074101 0.996001
vt 0.074101 0.996001
vt 0.074101 0.996001
vt 0.074101 0.996001
vt 0.074101 0.996001
vt 0.074101 0.996001
vt 0.074101 0.996001
vt 0.074101 0.996001
vt 0.074101 0.996001
vt 0.074101 0.996001
vt 0.074101 0.996001
vt 0.074101 0.996001
vt 0.074101 0.996001
vt 0.074101 0.996001
vt 0.074101 0.996001
vt 0.074101 0.996001
vt 0.074101 0.996001
vt 0.074101 0.996001
vt 0.074101 0.996001
vt 0.074101 0.996001
vt 0.074101 0.996001
vt 0.074101 0.996001
vt 0.074101 0.996001
vt 0.074101 0.996001
vt 0.074101 0.996001
vt 0.074101 0.996001
vt 0.074101 0.996001
vt 0.074101 0.996001
vt 0.074101 0.996001
vt 0.074101 0.996001
vt 0.074101 0.996001
vt 0.074101 0.996001
vt 0.074101 0.996001
vt 0.074101 0.996001
vt 0.074101 0.996001
vt 0.074101 0.996001
vt 0.074101 0.996001
vt 0.074101 0.996001
vt 0.074101 0.996001
vt 0.074101 0.996001
vt 0.074101 0.996001
vt 0.074101 0.996001
vt 0.074101 0.996001
vt 0.074101 0.996001
vt 0.074101 0.996001
vt 0.074101 0.996001
vt 0.074101 0.996001
vt 0.074101 0.996001
vt 0.074101 0.996001
vt 0.074101 0.996001
vt 0.074101 0.996001
vt 0.074101 0.996001
vt 0.074101 0.996001
vt 0.074101 0.996001
vt 0.074101 0.996001
vt 0.074101 0.996001
vt 0.074101 0.996001
vt 0.074101 0.996001
vt 0.074101 0.996001
vt 0.074101 0.996001
vt 0.074101 0.996001
vt 0.074101 0.996001
vt 0.074101 0.996001
vt 0.074101 0.996001
vt 0.074101 0.996001
vt 0.074101 0.996001
vt 0.074101 0.996001
vt 0.074101 0.996001
vt 0.074101 0.996001
vt 0.074101 0.996001
vt 0.074101 0.996001
vt 0.074101 0.996001
vt 0.074101 0.996001
vt 0.074101 0.996001
vt 0.074101 0.996001
vt 0.074101 0.996001
vt 0.074101 0.996001
vt 0.074101 0.996001
vt 0.074101 0.996001
vt 0.074101 0.996001
vt 0.074101 0.996001
vt 0.074101 0.996001
vt 0.074101 0.996001
vt 0.074101 0.996001
vt 0.074101 0.996001
vt 0.074101 0.996001
vt 0.074101 0.996001
vt 0.074101 0.996001
vt 0.074101 0.996001
vt 0.074101 0.996001
vt 0.074101 0.996001
vt 0.074101 0.996001
vt 0.074101 0.996001
vt 0.074101 0.996001
vt 0.074101 0.996001
vt 0.074101 0.996001
vt 0.074101 0.996001
vt 0.074101 0.996001
vt 0.074101 0.996001
vt 0.074101 0.996001
vt 0.074101 0.996001
vt 0.074101 0.996001
vt 0.074101 0.996001
vt 0.074101 0.996001
vt 0.074101 0.996001
vt 0.074101 0.996001
vt 0.074101 0.996001
vt 0.074101 0.996001
vt 0.074101 0.996001
vt 0.074101 0.996001
vt 0.074101 0.996001
vt 0.074101 0.996001
vt 0.074101 0.996001
vt 0.074101 0.996001
vt 0.074101 0.996001
vt 0.074101 0.996001
vt 0.074101 0.996001
vt 0.074101 0.996001
vt 0.074101 0.996001
vt 0.074101 0.996001
vt 0.074101 0.996001
vt 0.074101 0.996001
vt 0.074101 0.996001
vt 0.074101 0.996001
vt 0.074101 0.996001
vt 0.074101 0.996001
vt 0.074101 0.996001
vt 0.074101 0.996001
vt 0.074101 0.996001
vt 0.074101 0.996001
vt 0.074101 0.996001
vt 0.074101 0.996001
vt 0.074101 0.996001
vt 0.074101 0.996001
vt 0.074101 0.996001
vt 0.074101 0.996001
vt 0.074101 0.996001
vt 0.074101 0.996001
vt 0.074101 0.996001
vt 0.074101 0.996001
vt 0.074101 0.996001
vt 0.074101 0.996001
vt 0.074101 0.996001
vt 0.074101 0.996001
vt 0.074101 0.996001
vt 0.074101 0.996001
vt 0.074101 0.996001
vt 0.074101 0.996001
vt 0.074101 0.996001
vt 0.074101 0.996001
vt 0.074101 0.996001
vt 0.074101 0.996001
vt 0.074101 0.996001
vt 0.074101 0.996001
vt 0.074101 0.996001
vt 0.074101 0.996001
vt 0.074101 0.996001
vt 0.074101 0.996001
vt 0.074101 0.996001
vt 0.074101 0.996001
vt 0.074101 0.996001
vt 0.074101 0.996001
vt 0.074101 0.996001
vt 0.074101 0.996001
vt 0.074101 0.996001
vt 0.074101 0.996001
vt 0.074101 0.996001
vt 0.074101 0.996001
vt 0.074101 0.996001
vt 0.074101 0.996001
vt 0.074101 0.996001
vt 0.074101 0.996001
vt 0.074101 0.996001
vt 0.074101 0.996001
vt 0.074101 0.996001
vt 0.074101 0.996001
vt 0.074101 0.996001
vt 0.074101 0.996001
vt 0.074101 0.996001
vt 0.074101 0.996001
vt 0.074101 0.996001
vt 0.074101 0.996001
vt 0.074101 0.996001
vt 0.074101 0.996001
vt 0.074101 0.996001
vt 0.074101 0.996001
vt 0.074101 0.996001
vt 0.074101 0.996001
vt 0.074101 0.996001
vt 0.074101 0.996001
vt 0.074101 0.996001
vt 0.074101 0.996001
vt 0.074101 0.996001
vt 0.074101 0.996001
vt 0.074101 0.996001
vt 0.074101 0.996001
vt 0.074101 0.996001
vt 0.074101 0.996001
vt 0.074101 0.996001
vt 0.074101 0.996001
vt 0.074101 0.996001
vt 0.074101 0.996001
vt 0.074101 0.996001
vt 0.074101 0.996001
vt 0.074101 0.996001
vt 0.074101 0.996001
vt 0.074101 0.996001
vt 0.074101 0.996001
vt 0.074101 0.996001
vt 0.074101 0.996001
vt 0.074101 0.996001
vt 0.074101 0.996001
vt 0.074101 0.996001
vt 0.074101 0.996001
vt 0.074101 0.996001
vt 0.074101 0.996001
vt 0.074101 0.996001
vt 0.074101 0.996001
vt 0.074101 0.996001
vt 0.074101 0.996001
vt 0.074101 0.996001
vt 0.074101 0.996001
vt 0.074101 0.996001
vt 0.074101 0.996001
vt 0.074101 0.996001
vt 0.074101 0.996001
vt 0.074101 0.996001
vt 0.074101 0.996001
vt 0.074101 0.996001
vt 0.074101 0.996001
vt 0.074101 0.996001
vt 0.074101 0.996001
vt 0.074101 0.996001
vt 0.074101 0.996001
vt 0.074101 0.996001
vt 0.074101 0.996001
vt 0.074101 0.996001
vt 0.074101 0.996001
vt 0.074101 0.996001
vt 0.074101 0.996001
vt 0.074101 0.996001
vt 0.074101 0.996001
vt 0.074101 0.996001
vt 0.074101 0.996001
vt 0.074101 0.996001
vt 0.074101 0.996001
vt 0.074101 0.996001
vt 0.074101 0.996001
vt 0.074101 0.996001
vt 0.074101 0.996001
vt 0.074101 0.996001
vt 0.074101 0.996001
vt 0.074101 0.996001
vt 0.074101 0.996001
vt 0.074101 0.996001
vt 0.074101 0.996001
vt 0.074101 0.996001
vt 0.074101 0.996001
vt 0.074101 0.996001
vt 0.074101 0.996001
vt 0.074101 0.996001
vt 0.074101 0.996001
vt 0.074101 0.996001
vt 0.074101 0.996001
vt 0.074101 0.996001
vt 0.074101 0.996001
vt 0.074101 0.996001
vt 0.074101 0.996001
f 1/1 2/2 3/3
f 4/4 3/3 2/2
f 3/3 5/5 1/1
f 6/6 4/4 2/2
f 7/7 2/2 1/1
f 2/2 7/7 6/6
f 7/7 1/1 8/8
f 7/7 9/9 6/6
f 9/9 7/7 10/10
f 8/8 10/10 7/7
f 6/6 9/9 11/11
f 10/10 12/12 9/9
f 12/12 11/11 9/9
f 10/10 8/8 13/13
f 10/10 13/13 12/12
f 12/12 13/13 14/14
f 13/13 15/15 14/14
f 15/15 13/13 8/8
f 14/14 16/16 12/12
f 17/17 14/14 15/15
f 16/16 14/14 17/17
f 15/15 18/18 17/17
f 8/8 18/18 15/15
f 19/19 17/17 18/18
f 18/18 8/8 20/20
f 18/18 20/20 19/19
f 17/17 19/19 21/21
f 21/21 16/16 17/17
f 22/22 12/12 16/16
f 22/22 11/11 12/12
f 23/23 16/16 21/21
f 24/24 22/22 16/16
f 16/16 23/23 24/24
f 25/25 21/21 19/19
f 26/26 23/23 21/21
f 26/26 21/21 25/25
f 25/25 19/19 27/27
f 20/20 27/27 19/19
f 27/27 28/28 25/25
f 26/26 25/25 28/28
f 29/29 27/27 20/20
f 27/27 29/29 28/28
f 28/28 30/30 26/26
f 31/31 28/28 29/29
f 28/28 32/32 30/30
f 28/28 31/31 32/32
f 33/33 30/30 32/32
f 32/32 34/34 33/33
f 34/34 32/32 31/31
f 35/35 30/30 33/33
f 36/36 26/26 30/30
f 30/30 35/35 36/36
f 36/36 37/37 26/26
f 23/23 26/26 37/37
f 37/37 36/36 38/38
f 38/38 36/36 35/35
f 37/37 39/39 23/23
f 24/24 23/23 39/39
f 38/38 40/40 37/37
f 39/39 37/37 40/40
f 40/40 41/41 39/39
f 40/40 38/38 42/42
f 43/43 41/41 40/40
f 40/40 42/42 43/43
f 44/44 42/42 38/38
f 35/35 44/44 38/38
f 42/42 44/44 45/45
f 43/43 42/42 45/45
f 46/46 44/44 35/35
f 45/45 44/44 46/46
f 39/39 41/41 47/47
f 41/41 43/43 47/47
f 47/47 48/48 39/39
f 39/39 48/48 24/24
f 43/43 49/49 47/47
f 48/48 47/47 50/50
f 49/49 50/50 47/47
f 24/24 48/48 51/51
f 50/50 51/51 48/48
f 51/51 22/22 24/24
f 22/22 51/51 52/52
f 52/52 11/11 22/22
f 51/51 50/50 53/53
f 53/53 52/52 51/51
f 52/52 54/54 11/11
f 54/54 52/52 53/53
f 55/55 11/11 54/54
f 6/6 11/11 55/55
f 55/55 4/4 6/6
f 50/50 56/56 53/53
f 53/53 57/57 54/54
f 57/57 53/53 56/56
f 56/56 50/50 58/58
f 50/50 49/49 58/58
f 57/57 56/56 59/59
f 59/59 56/56 58/58
f 54/54 57/57 60/60
f 59/59 60/60 57/57
f 61/61 55/55 54/54
f 60/60 61/61 54/54
f 55/55 61/61 62/62
f 62/62 4/4 55/55
f 61/61 60/60 63/63
f 61/61 63/63 62/62
f 60/60 59/59 64/64
f 60/60 64/64 63/63
f 63/63 65/65 62/62
f 65/65 63/63 64/64
f 62/62 66/66 4/4
f 65/65 66/66 62/62
f 66/66 67/67 4/4
f 4/4 67/67 3/3
f 66/66 65/65 68/68
f 68/68 67/67 66/66
f 69/69 68/68 65/65
f 68/68 70/70 67/67
f 70/70 68/68 69/69
f 65/65 71/71 69/69
f 64/64 71/71 65/65
f 69/69 72/72 70/70
f 72/72 69/69 73/73
f 71/71 73/73 69/69
f 70/70 72/72 74/74
f 72/72 73/73 75/75
f 75/75 74/74 72/72
f 75/75 73/73 76/76
f 73/73 71/71 76/76
f 74/74 75/75 77/77
f 74/74 78/78 70/70
f 78/78 74/74 77/77
f 76/76 79/79 75/75
f 77/77 75/75 79/79
f 80/80 70/70 78/78
f 80/80 67/67 70/70
f 80/80 78/78 81/81
f 81/81 67/67 80/80
f 82/82 81/81 78/78
f 81/81 83/83 67/67
f 67/67 83/83 84/84
f 67/67 84/84 85/85
f 85/85 84/84 83/83
f 85/85 3/3 67/67
f 85/85 5/5 3/3
f 83/83 86/86 85/85
f 5/5 85/85 86/86
f 83/83 81/81 87/87
f 87/87 86/86 83/83
f 87/87 81/81 82/82
f 88/88 5/5 86/86
f 86/86 87/87 88/88
f 88/88 87/87 89/89
f 82/82 89/89 87/87
f 90/90 5/5 88/88
f 89/89 91/91 88/88
f 88/88 91/91 90/90
f 90/90 92/92 5/5
f 1/1 5/5 92/92
f 92/92 93/93 1/1
f 8/8 1/1 93/93
f 93/93 94/94 8/8
f 20/20 8/8 94/94
f 95/95 93/93 92/92
f 93/93 95/95 96/96
f 93/93 96/96 94/94
f 95/95 92/92 97/97
f 98/98 96/96 95/95
f 97/97 98/98 95/95
f 99/99 94/94 96/96
f 96/96 98/98 99/99
f 94/94 100/100 20/20
f 99/99 101/101 94/94
f 100/100 94/94 101/101
f 98/98 102/102 99/99
f 102/102 101/101 99/99
f 97/97 103/103 98/98
f 103/103 102/102 98/98
f 104/104 97/97 92/92
f 104/104 105/105 97/97
f 103/103 97/97 105/105
f 104/104 92/92 106/106
f 90/90 106/106 92/92
f 107/107 105/105 104/104
f 106/106 107/107 104/104
f 90/90 108/108 106/106
f 107/107 106/106 108/108
f 108/108 90/90 109/109
f 110/110 105/105 107/107
f 105/105 110/110 103/103
f 111/111 107/107 108/108
f 109/109 111/111 108/108
f 111/111 110/110 107/107
f 109/109 90/90 112/112
f 111/111 109/109 113/113
f 113/113 109/109 112/112
f 114/114 111/111 113/113
f 112/112 114/114 113/113
f 115/115 111/111 114/114
f 112/112 90/90 91/91
f 111/111 115/115 116/116
f 111/111 116/116 110/110
f 114/114 112/112 117/117
f 117/117 118/118 114/114
f 118/118 115/115 114/114
f 119/119 117/117 112/112
f 120/120 118/118 117/117
f 119/119 120/120 117/117
f 119/119 112/112 121/121
f 91/91 121/121 112/112
f 120/120 119/119 122/122
f 118/118 120/120 123/123
f 123/123 120/120 122/122
f 122/122 119/119 124/124
f 121/121 124/124 119/119
f 123/123 122/122 125/125
f 126/126 118/118 123/123
f 125/125 126/126 123/123
f 127/127 118/118 126/126
f 118/118 127/127 115/115
f 126/126 125/125 128/128
f 122/122 129/129 125/125
f 129/129 128/128 125/125
f 129/129 122/122 130/130
f 124/124 130/130 122/122
f 129/129 131/131 128/128
f 128/128 132/132 126/126
f 132/132 127/127 126/126
f 132/132 128/128 133/133
f 128/128 131/131 133/133
f 133/133 134/134 132/132
f 132/132 135/135 127/127
f 135/135 132/132 134/134
f 134/134 133/133 136/136
f 136/136 133/133 131/131
f 131/131 129/129 137/137
f 129/129 130/130 137/137
f 136/136 131/131 138/138
f 139/139 134/134 136/136
f 138/138 139/139 136/136
f 139/139 140/140 134/134
f 138/138 131/131 141/141
f 137/137 141/141 131/131
f 138/138 142/142 139/139
f 142/142 140/140 139/139
f 138/138 143/143 142/142
f 141/141 144/144 138/138
f 143/143 138/138 144/144
f 145/145 142/142 143/143
f 140/140 142/142 145/145
f 145/145 143/143 146/146
f 147/147 140/140 145/145
f 146/146 147/147 145/145
f 140/140 148/148 134/134
f 149/149 140/140 147/147
f 140/140 149/149 148/148
f 134/134 148/148 135/135
f 150/150 146/146 143/143
f 147/147 146/146 151/151
f 150/150 151/151 146/146
f 151/151 152/152 147/147
f 152/152 149/149 147/147
f 151/151 150/150 153/153
f 151/151 153/153 152/152
f 150/150 143/143 154/154
f 144/144 154/154 143/143
f 153/153 150/150 155/155
f 154/154 155/155 150/150
f 156/156 152/152 153/153
f 156/156 157/157 152/152
f 158/158 152/152 157/157
f 152/152 158/158 149/149
f 159/159 157/157 156/156
f 156/156 153/153 160/160
f 160/160 159/159 156/156
f 161/161 157/157 159/159
f 157/157 161/161 158/158
f 159/159 160/160 162/162
f 163/163 160/160 153/153
f 163/163 162/162 160/160
f 164/164 159/159 162/162
f 164/164 161/161 159/159
f 162/162 163/163 165/165
f 165/165 164/164 162/162
f 163/163 153/153 166/166
f 155/155 166/166 153/153
f 165/165 163/163 167/167
f 166/166 167/167 163/163
f 164/164 165/165 168/168
f 169/169 166/166 155/155
f 168/168 165/165 170/170
f 165/165 167/167 170/170
f 171/171 164/164 168/168
f 170/170 171/171 168/168
f 172/172 164/164 171/171
f 164/164 172/172 161/161
f 171/171 170/170 173/173
f 173/173 174/174 171/171
f 174/174 172/172 171/171
f 175/175 173/173 170/170
f 176/176 174/174 173/173
f 175/175 176/176 173/173
f 176/176 175/175 177/177
f 174/174 176/176 178/178
f 178/178 176/176 177/177
f 179/179 174/174 178/178
f 175/175 170/170 180/180
f 181/181 179/179 178/178
f 178/178 177/177 181/181
f 177/177 175/175 182/182
f 180/180 182/182 175/175
f 183/183 180/180 170/170
f 179/179 181/181 184/184
f 177/177 185/185 181/181
f 185/185 184/184 181/181
f 185/185 177/177 186/186
f 182/182 186/186 177/177
f 185/185 187/187 184/184
f 170/170 167/167 183/183
f 187/187 185/185 188/188
f 185/185 186/186 188/188
f 184/184 187/187 189/189
f 190/190 184/184 189/189
f 184/184 190/190 179/179
f 191/191 189/189 187/187
f 189/189 192/192 190/190
f 192/192 189/189 191/191
f 190/190 193/193 179/179
f 193/193 190/190 192/192
f 193/193 174/174 179/179
f 191/191 187/187 100/100
f 100/100 187/187 188/188
f 194/194 192/192 191/191
f 100/100 194/194 191/191
f 100/100 101/101 194/194
f 188/188 20/20 100/100
f 101/101 102/102 194/194
f 194/194 102/102 192/192
f 195/195 20/20 188/188
f 29/29 20/20 195/195
f 195/195 188/188 196/196
f 29/29 195/195 197/197
f 196/196 197/197 195/195
f 31/31 29/29 197/197
f 196/196 188/188 186/186
f 198/198 31/31 197/197
f 198/198 197/197 196/196
f 31/31 198/198 199/199
f 186/186 200/200 196/196
f 198/198 196/196 200/200
f 200/200 201/201 198/198
f 199/199 198/198 201/201
f 31/31 199/199 34/34
f 200/200 202/202 201/201
f 201/201 203/203 199/199
f 203/203 201/201 202/202
f 200/200 204/204 202/202
f 204/204 200/200 186/186
f 205/205 202/202 204/204
f 206/206 204/204 186/186
f 34/34 199/199 207/207
f 186/186 182/182 206/206
f 204/204 206/206 208/208
f 205/205 204/204 208/208
f 209/209 208/208 206/206
f 207/207 210/210 34/34
f 210/210 211/211 34/34
f 211/211 33/33 34/34
f 33/33 211/211 35/35
f 35/35 211/211 46/46
f 211/211 210/210 212/212
f 212/212 46/46 211/211
f 212/212 210/210 207/207
f 212/212 213/213 46/46
f 207/207 214/214 212/212
f 213/213 212/212 214/214
f 215/215 214/214 207/207
f 216/216 46/46 213/213
f 216/216 45/45 46/46
f 214/214 217/217 213/213
f 214/214 215/215 217/217
f 207/207 218/218 215/215
f 218/218 207/207 199/199
f 218/218 199/199 203/203
f 215/215 218/218 219/219
f 203/203 219/219 218/218
f 220/220 217/217 215/215
f 219/219 220/220 215/215
f 221/221 217/217 220/220
f 222/222 220/220 219/219
f 221/221 220/220 222/222
f 219/219 203/203 223/223
f 217/217 221/221 224/224
f 224/224 213/213 217/217
f 219/219 225/225 222/222
f 225/225 219/219 223/223
f 222/222 226/226 221/221
f 227/227 222/222 225/225
f 222/222 227/227 226/226
f 228/228 225/225 223/223
f 225/225 228/228 227/227
f 229/229 223/223 203/203
f 223/223 229/229 228/228
f 203/203 202/202 229/229
f 202/202 205/205 229/229
f 230/230 228/228 229/229
f 229/229 205/205 230/230
f 228/228 230/230 231/231
f 227/227 228/228 231/231
f 232/232 230/230 205/205
f 230/230 232/232 231/231
f 231/231 233/233 227/227
f 232/232 205/205 234/234
f 234/234 205/205 208/208
f 234/234 208/208 209/209
f 234/234 235/235 232/232
f 236/236 231/231 232/232
f 236/236 232/232 235/235
f 237/237 233/233 231/231
f 231/231 236/236 237/237
f 233/233 237/237 238/238
f 233/233 238/238 227/227
f 237/237 236/236 239/239
f 235/235 239/239 236/236
f 240/240 238/238 237/237
f 239/239 240/240 237/237
f 241/241 227/227 238/238
f 239/239 235/235 242/242
f 226/226 227/227 241/241
f 243/243 238/238 240/240
f 238/238 243/243 241/241
f 244/244 240/240 239/239
f 245/245 239/239 242/242
f 239/239 245/245 244/244
f 245/245 242/242 246/246
f 246/246 242/242 235/235
f 240/240 247/247 243/243
f 247/247 240/240 244/244
f 244/244 245/245 248/248
f 246/246 248/248 245/245
f 248/248 249/249 244/244
f 250/250 246/246 235/235
f 234/234 250/250 235/235
f 250/250 234/234 209/209
f 250/250 209/209 251/251
f 246/246 250/250 251/251
f 252/252 251/251 209/209
f 209/209 206/206 252/252
f 251/251 253/253 246/246
f 253/253 251/251 252/252
f 252/252 206/206 182/182
f 182/182 253/253 252/252
f 182/182 254/254 253/253
f 255/255 254/254 182/182
f 253/253 256/256 246/246
f 256/256 253/253 254/254
f 182/182 180/180 255/255
f 246/246 256/256 257/257
f 257/257 248/248 246/246
f 258/258 256/256 254/254
f 258/258 254/254 255/255
f 256/256 259/259 257/257
f 256/256 258/258 259/259
f 257/257 260/260 248/248
f 257/257 259/259 260/260
f 249/249 248/248 260/260
f 261/261 259/259 258/258
f 262/262 258/258 255/255
f 258/258 262/262 261/261
f 263/263 260/260 259/259
f 263/263 259/259 261/261
f 260/260 264/264 249/249
f 260/260 263/263 265/265
f 265/265 264/264 260/260
f 261/261 266/266 263/263
f 265/265 263/263 266/266
f 264/264 267/267 249/249
f 264/264 265/265 267/267
f 268/268 267/267 265/265
f 266/266 268/268 265/265
f 266/266 261/261 269/269
f 267/267 268/268 270/270
f 271/271 249/249 267/267
f 270/270 271/271 267/267
f 249/249 271/271 272/272
f 244/244 249/249 272/272
f 273/273 271/271 270/270
f 272/272 271/271 273/273
f 247/247 244/244 272/272
f 270/270 274/274 273/273
f 268/268 275/275 270/270
f 274/274 270/270 275/275
f 276/276 268/268 266/266
f 275/275 268/268 276/276
f 266/266 269/269 277/277
f 266/266 277/277 276/276
f 269/269 261/261 278/278
f 277/277 269/269 278/278
f 261/261 262/262 278/278
f 275/275 279/279 274/274
f 280/280 278/278 262/262
f 255/255 280/280 262/262
f 281/281 280/280 255/255
f 255/255 180/180 281/281
f 180/180 183/183 281/281
f 282/282 280/280 281/281
f 280/280 282/282 278/278
f 281/281 183/183 282/282
f 283/283 278/278 282/282
f 183/183 284/284 282/282
f 283/283 282/282 284/284
f 285/285 284/284 183/183
f 183/183 167/167 285/285
f 286/286 284/284 285/285
f 286/286 283/283 284/284
f 278/278 283/283 287/287
f 277/277 278/278 287/287
f 283/283 286/286 288/288
f 289/289 286/286 285/285
f 288/288 286/286 289/289
f 285/285 290/290 289/289
f 167/167 290/290 285/285
f 291/291 287/287 283/283
f 288/288 291/291 283/283
f 287/287 291/291 292/292
f 293/293 277/277 287/287
f 287/287 292/292 293/293
f 292/292 291/291 294/294
f 292/292 294/294 293/293
f 295/295 291/291 288/288
f 295/295 294/294 291/291
f 277/277 293/293 296/296
f 296/296 293/293 294/294
f 296/296 276/276 277/277
f 288/288 297/297 295/295
f 294/294 295/295 298/298
f 298/298 295/295 297/297
f 298/298 299/299 294/294
f 294/294 299/299 296/296
f 296/296 300/300 276/276
f 300/300 296/296 299/299
f 299/299 301/301 300/300
f 299/299 298/298 301/301
f 302/302 276/276 300/300
f 303/303 301/301 298/298
f 297/297 303/303 298/298
f 300/300 301/301 304/304
f 301/301 303/303 304/304
f 304/304 302/302 300/300
f 276/276 302/302 305/305
f 275/275 276/276 305/305
f 305/305 302/302 306/306
f 306/306 302/302 304/304
f 307/307 275/275 305/305
f 306/306 308/308 305/305
f 305/305 308/308 307/307
f 304/304 309/309 306/306
f 308/308 306/306 310/310
f 310/310 306/306 309/309
f 310/310 311/311 308/308
f 308/308 311/311 307/307
f 309/309 312/312 310/310
f 275/275 307/307 279/279
f 313/313 309/309 304/304
f 313/313 312/312 309/309
f 310/310 312/312 314/314
f 311/311 310/310 314/314
f 313/313 314/314 312/312
f 315/315 307/307 311/311
f 311/311 314/314 315/315
f 304/304 316/316 313/313
f 304/304 303/303 316/316
f 317/317 314/314 313/313
f 314/314 317/317 315/315
f 307/307 315/315 318/318
f 318/318 279/279 307/307
f 319/319 315/315 317/317
f 318/318 315/315 320/320
f 315/315 319/319 320/320
f 318/318 320/320 321/321
f 322/322 320/320 319/319
f 322/322 321/321 320/320
f 321/321 323/323 318/318
f 318/318 323/323 279/279
f 321/321 322/322 324/324
f 323/323 321/321 325/325
f 324/324 325/325 321/321
f 325/325 326/326 323/323
f 323/323 326/326 327/327
f 327/327 279/279 323/323
f 325/325 328/328 326/326
f 326/326 328/328 327/327
f 329/329 325/325 324/324
f 330/330 324/324 322/322
f 324/324 330/330 329/329
f 330/330 322/322 331/331
f 331/331 322/322 319/319
f 328/328 325/325 332/332
f 325/325 329/329 332/332
f 319/319 333/333 331/331
f 317/317 333/333 319/319
f 334/334 331/331 333/333
f 335/335 333/333 317/317
f 333/333 335/335 334/334
f 317/317 313/313 335/335
f 335/335 313/313 336/336
f 334/334 335/335 337/337
f 337/337 335/335 336/336
f 334/334 338/338 331/331
f 331/331 338/338 330/330
f 337/337 339/339 334/334
f 336/336 339/339 337/337
f 338/338 334/334 340/340
f 340/340 334/334 339/339
f 338/338 341/341 330/330
f 341/341 329/329 330/330
f 342/342 338/338 340/340
f 342/342 341/341 338/338
f 342/342 340/340 343/343
f 343/343 341/341 342/342
f 340/340 339/339 344/344
f 345/345 343/343 340/340
f 344/344 345/345 340/340
f 346/346 344/344 339/339
f 336/336 346/346 339/339
f 344/344 347/347 345/345
f 347/347 344/344 348/348
f 344/344 346/346 348/348
f 347/347 349/349 345/345
f 343/343 345/345 350/350
f 349/349 350/350 345/345
f 350/350 351/351 343/343
f 351/351 341/341 343/343
f 352/352 347/347 348/348
f 347/347 352/352 349/349
f 352/352 348/348 353/353
f 353/353 348/348 346/346
f 352/352 354/354 349/349
f 354/354 352/352 355/355
f 353/353 355/355 352/352
f 354/354 356/356 349/349
f 355/355 357/357 354/354
f 357/357 356/356 354/354
f 357/357 355/355 358/358
f 355/355 353/353 358/358
f 358/358 359/359 357/357
f 357/357 360/360 356/356
f 360/360 357/357 359/359
f 361/361 349/349 356/356
f 350/350 349/349 361/361
f 361/361 362/362 350/350
f 363/363 361/361 356/356
f 362/362 361/361 363/363
f 356/356 364/364 363/363
f 360/360 364/364 356/356
f 365/365 363/363 364/364
f 362/362 363/363 365/365
f 364/364 360/360 366/366
f 362/362 351/351 350/350
f 367/367 364/364 366/366
f 365/365 364/364 367/367
f 368/368 366/366 360/360
f 366/366 368/368 367/367
f 369/369 368/368 360/360
f 359/359 369/369 360/360
f 370/370 367/367 368/368
f 367/367 370/370 365/365
f 369/369 359/359 371/371
f 368/368 372/372 370/370
f 369/369 373/373 368/368
f 372/372 368/368 373/373
f 374/374 369/369 371/371
f 373/373 369/369 374/374
f 375/375 371/371 359/359
f 375/375 374/374 371/371
f 373/373 374/374 376/376
f 376/376 374/374 375/375
f 359/359 377/377 375/375
f 377/377 359/359 358/358
f 358/358 378/378 377/377
f 353/353 378/378 358/358
f 375/375 377/377 379/379
f 379/379 377/377 378/378
f 375/375 380/380 376/376
f 379/379 380/380 375/375
f 376/376 380/380 381/381
f 378/378 382/382 379/379
f 382/382 378/378 353/353
f 383/383 380/380 379/379
f 383/383 381/381 380/380
f 384/384 383/383 379/379
f 385/385 384/384 379/379
f 379/379 382/382 385/385
f 353/353 386/386 382/382
f 382/382 386/386 387/387
f 353/353 388/388 386/386
f 387/387 386/386 388/388
f 353/353 389/389 388/388
f 346/346 389/389 353/353
f 390/390 388/388 389/389
f 388/388 390/390 387/387
f 391/391 389/389 346/346
f 390/390 389/389 391/391
f 346/346 336/336 391/391
f 392/392 387/387 390/390
f 390/390 391/391 392/392
f 336/336 393/393 391/391
f 392/392 391/391 393/393
f 336/336 313/313 393/393
f 313/313 316/316 393/393
f 393/393 316/316 392/392
f 387/387 392/392 394/394
f 316/316 394/394 392/392
f 394/394 395/395 387/387
f 387/387 395/395 382/382
f 394/394 316/316 396/396
f 396/396 395/395 394/394
f 316/316 303/303 396/396
f 382/382 395/395 385/385
f 396/396 385/385 395/395
f 396/396 303/303 297/297
f 397/397 385/385 396/396
f 297/297 398/398 396/396
f 397/397 396/396 398/398
f 398/398 297/297 399/399
f 297/297 288/288 399/399
f 399/399 288/288 289/289
f 289/289 400/400 399/399
f 398/398 399/399 400/400
f 290/290 400/400 289/289
f 398/398 401/401 397/397
f 400/400 401/401 398/398
f 290/290 402/402 400/400
f 402/402 290/290 167/167
f 400/400 403/403 401/401
f 167/167 404/404 402/402
f 167/167 166/166 404/404
f 405/405 400/400 402/402
f 400/400 405/405 403/403
f 406/406 401/401 403/403
f 403/403 405/405 406/406
f 406/406 407/407 401/401
f 397/397 401/401 407/407
f 406/406 405/405 407/407
f 407/407 408/408 397/397
f 385/385 397/397 408/408
f 408/408 384/384 385/385
f 408/408 409/409 384/384
f 409/409 408/408 407/407
f 383/383 384/384 409/409
f 410/410 383/383 409/409
f 407/407 411/411 409/409
f 409/409 411/411 410/410
f 411/411 407/407 405/405
f 381/381 383/383 410/410
f 411/411 405/405 412/412
f 412/412 410/410 411/411
f 410/410 413/413 381/381
f 410/410 412/412 414/414
f 413/413 410/410 414/414
f 405/405 415/415 412/412
f 415/415 405/405 416/416
f 405/405 402/402 416/416
f 416/416 402/402 404/404
f 169/169 416/416 404/404
f 416/416 169/169 415/415
f 404/404 166/166 169/169
f 415/415 417/417 412/412
f 417/417 415/415 169/169
f 414/414 412/412 417/417
f 417/417 169/169 418/418
f 155/155 418/418 169/169
f 417/417 419/419 414/414
f 418/418 419/419 417/417
f 419/419 413/413 414/414
f 420/420 418/418 155/155
f 418/418 420/420 419/419
f 155/155 154/154 420/420
f 154/154 421/421 420/420
f 422/422 420/420 421/421
f 422/422 419/419 420/420
f 423/423 421/421 154/154
f 424/424 413/413 419/419
f 381/381 413/413 424/424
f 425/425 419/419 422/422
f 424/424 426/426 381/381
f 381/381 426/426 376/376
f 419/419 427/427 424/424
f 419/419 425/425 427/427
f 427/427 428/428 424/424
f 426/426 424/424 428/428
f 425/425 429/429 427/427
f 429/429 425/425 422/422
f 427/427 429/429 428/428
f 430/430 428/428 429/429
f 430/430 429/429 422/422
f 428/428 431/431 426/426
f 428/428 430/430 432/432
f 432/432 431/431 428/428
f 422/422 433/433 430/430
f 432/432 430/430 433/433
f 431/431 434/434 426/426
f 431/431 432/432 434/434
f 435/435 434/434 432/432
f 433/433 435/435 432/432
f 426/426 434/434 436/436
f 437/437 434/434 435/435
f 437/437 436/436 434/434
f 426/426 436/436 438/438
f 426/426 438/438 376/376
f 376/376 438/438 373/373
f 373/373 438/438 372/372
f 436/436 439/439 438/438
f 372/372 438/438 439/439
f 436/436 437/437 440/440
f 440/440 439/439 436/436
f 440/440 437/437 441/441
f 435/435 441/441 437/437
f 439/439 440/440 442/442
f 439/439 443/443 372/372
f 442/442 443/443 439/439
f 442/442 440/440 444/444
f 441/441 444/444 440/440
f 445/445 443/443 442/442
f 444/444 445/445 442/442
f 372/372 443/443 446/446
f 443/443 445/445 446/446
f 447/447 445/445 444/444
f 447/447 444/444 441/441
f 448/448 445/445 447/447
f 445/445 448/448 446/446
f 372/372 446/446 449/449
f 370/370 372/372 449/449
f 450/450 370/370 449/449
f 370/370 450/450 365/365
f 451/451 450/450 449/449
f 449/449 446/446 451/451
f 450/450 451/451 365/365
f 446/446 452/452 451/451
f 446/446 448/448 452/452
f 451/451 453/453 365/365
f 453/453 451/451 452/452
f 454/454 365/365 453/453
f 365/365 454/454 362/362
f 453/453 455/455 454/454
f 454/454 456/456 362/362
f 455/455 456/456 454/454
f 455/455 453/453 457/457
f 452/452 457/457 453/453
f 455/455 457/457 458/458
f 458/458 456/456 455/455
f 457/457 452/452 459/459
f 448/448 459/459 452/452
f 460/460 458/458 457/457
f 459/459 460/460 457/457
f 448/448 461/461 459/459
f 460/460 459/459 461/461
f 461/461 448/448 462/462
f 463/463 458/458 460/460
f 460/460 461/461 463/463
f 463/463 456/456 458/458
f 463/463 461/461 462/462
f 448/448 447/447 462/462
f 447/447 464/464 462/462
f 441/441 464/464 447/447
f 462/462 464/464 465/465
f 441/441 466/466 464/464
f 466/466 465/465 464/464
f 465/465 467/467 462/462
f 462/462 467/467 463/463
f 468/468 465/465 466/466
f 469/469 467/467 465/465
f 465/465 468/468 469/469
f 470/470 467/467 469/469
f 468/468 471/471 469/469
f 471/471 470/470 469/469
f 472/472 471/471 468/468
f 473/473 470/470 471/471
f 473/473 471/471 472/472
f 474/474 467/467 470/470
f 470/470 473/473 475/475
f 476/476 470/470 475/475
f 470/470 476/476 474/474
f 475/475 473/473 477/477
f 474/474 478/478 467/467
f 463/463 467/467 478/478
f 463/463 478/478 479/479
f 478/478 474/474 480/480
f 480/480 479/479 478/478
f 463/463 479/479 481/481
f 479/479 480/480 481/481
f 474/474 482/482 480/480
f 481/481 480/480 482/482
f 474/474 476/476 482/482
f 481/481 456/456 463/463
f 476/476 475/475 483/483
f 477/477 483/483 475/475
f 484/484 482/482 476/476
f 483/483 485/485 476/476
f 484/484 476/476 485/485
f 486/486 484/484 485/485
f 485/485 483/483 486/486
f 487/487 484/484 486/486
f 482/482 484/484 488/488
f 484/484 487/487 488/488
f 482/482 488/488 489/489
f 482/482 489/489 481/481
f 490/490 481/481 489/489
f 490/490 456/456 481/481
f 491/491 489/489 488/488
f 490/490 489/489 491/491
f 490/490 491/491 456/456
f 491/491 488/488 487/487
f 491/491 492/492 456/456
f 487/487 492/492 491/491
f 492/492 493/493 456/456
f 456/456 493/493 362/362
f 493/493 351/351 362/362
f 494/494 493/493 492/492
f 492/492 487/487 494/494
f 493/493 495/495 351/351
f 493/493 494/494 495/495
f 496/496 351/351 495/495
f 495/495 494/494 497/497
f 494/494 487/487 498/498
f 494/494 498/498 497/497
f 499/499 498/498 487/487
f 500/500 499/499 487/487
f 487/487 486/486 500/500
f 500/500 486/486 483/483
f 499/499 500/500 501/501
f 483/483 501/501 500/500
f 498/498 499/499 501/501
f 483/483 502/502 501/501
f 477/477 502/502 483/483
f 501/501 503/503 498/498
f 503/503 497/497 498/498
f 503/503 501/501 504/504
f 503/503 505/505 497/497
f 504/504 505/505 503/503
f 506/506 504/504 501/501
f 502/502 506/506 501/501
f 506/506 505/505 504/504
f 507/507 502/502 477/477
f 506/506 502/502 508/508
f 508/508 502/502 507/507
f 506/506 508/508 509/509
f 505/505 506/506 509/509
f 507/507 510/510 508/508
f 510/510 509/509 508/508
f 477/477 511/511 507/507
f 473/473 511/511 477/477
f 510/510 507/507 512/512
f 512/512 507/507 511/511
f 472/472 511/511 473/473
f 512/512 511/511 472/472
f 513/513 509/509 510/510
f 505/505 509/509 513/513
f 512/512 514/514 510/510
f 510/510 514/514 513/513
f 472/472 515/515 512/512
f 516/516 514/514 512/512
f 512/512 515/515 516/516
f 513/513 514/514 517/517
f 516/516 517/517 514/514
f 513/513 518/518 505/505
f 517/517 519/519 513/513
f 518/518 513/513 519/519
f 520/520 517/517 516/516
f 516/516 521/521 520/520
f 521/521 516/516 515/515
f 520/520 522/522 517/517
f 519/519 517/517 522/522
f 523/523 520/520 521/521
f 522/522 520/520 523/523
f 524/524 519/519 522/522
f 518/518 519/519 525/525
f 525/525 519/519 524/524
f 521/521 526/526 523/523
f 526/526 521/521 515/515
f 523/523 527/527 522/522
f 522/522 527/527 524/524
f 528/528 523/523 526/526
f 527/527 523/523 529/529
f 528/528 529/529 523/523
f 530/530 524/524 527/527
f 527/527 529/529 530/530
f 524/524 530/530 531/531
f 532/532 529/529 528/528
f 529/529 532/532 530/530
f 528/528 526/526 533/533
f 515/515 533/533 526/526
f 533/533 532/532 528/528
f 534/534 524/524 531/531
f 524/524 534/534 525/525
f 531/531 530/530 535/535
f 535/535 534/534 531/531
f 532/532 535/535 530/530
f 525/525 534/534 536/536
f 536/536 534/534 535/535
f 535/535 532/532 537/537
f 536/536 535/535 538/538
f 539/539 538/538 535/535
f 535/535 537/537 539/539
f 539/539 540/540 538/538
f 137/137 539/539 537/537
f 540/540 539/539 137/137
f 540/540 137/137 130/130
f 537/537 541/541 137/137
f 141/141 137/137 541/541
f 542/542 537/537 532/532
f 537/537 542/542 541/541
f 543/543 141/141 541/541
f 541/541 542/542 543/543
f 542/542 532/532 544/544
f 543/543 542/542 544/544
f 544/544 532/532 533/533
f 144/144 141/141 543/543
f 543/543 544/544 545/545
f 545/545 544/544 533/533
f 543/543 546/546 144/144
f 546/546 543/543 545/545
f 144/144 546/546 547/547
f 545/545 548/548 546/546
f 533/533 548/548 545/545
f 548/548 547/547 546/546
f 548/548 533/533 549/549
f 547/547 550/550 144/144
f 154/154 144/144 550/550
f 547/547 548/548 551/551
f 551/551 548/548 549/549
f 423/423 154/154 550/550
f 547/547 552/552 550/550
f 550/550 552/552 423/423
f 552/552 547/547 553/553
f 551/551 553/553 547/547
f 554/554 423/423 552/552
f 552/552 553/553 554/554
f 423/423 554/554 555/555
f 421/421 423/423 555/555
f 555/555 422/422 421/421
f 555/555 554/554 556/556
f 555/555 556/556 422/422
f 554/554 553/553 556/556
f 433/433 422/422 556/556
f 557/557 433/433 556/556
f 553/553 557/557 556/556
f 433/433 557/557 558/558
f 558/558 435/435 433/433
f 441/441 435/435 558/558
f 559/559 557/557 553/553
f 558/558 557/557 559/559
f 466/466 441/441 558/558
f 553/553 560/560 559/559
f 561/561 560/560 553/553
f 553/553 551/551 561/561
f 549/549 561/561 551/551
f 560/560 561/561 562/562
f 560/560 562/562 559/559
f 563/563 561/561 549/549
f 563/563 562/562 561/561
f 549/549 564/564 563/563
f 564/564 549/549 533/533
f 564/564 533/533 515/515
f 565/565 563/563 564/564
f 562/562 563/563 565/565
f 515/515 566/566 564/564
f 564/564 566/566 565/565
f 472/472 566/566 515/515
f 566/566 472/472 567/567
f 468/468 567/567 472/472
f 466/466 567/567 468/468
f 568/568 566/566 567/567
f 568/568 567/567 466/466
f 566/566 568/568 565/565
f 466/466 569/569 568/568
f 558/558 569/569 466/466
f 570/570 565/565 568/568
f 570/570 568/568 569/569
f 565/565 570/570 562/562
f 571/571 569/569 558/558
f 569/569 571/571 570/570
f 562/562 570/570 571/571
f 559/559 571/571 558/558
f 571/571 559/559 562/562
f 572/572 573/573 574/574
f 573/573 135/135 574/574
f 135/135 148/148 574/574
f 575/575 574/574 148/148
f 574/574 575/575 572/572
f 149/149 575/575 148/148
f 572/572 575/575 576/576
f 577/577 575/575 149/149
f 575/575 577/577 576/576
f 578/578 572/572 576/576
f 573/573 572/572 578/578
f 579/579 576/576 577/577
f 149/149 580/580 577/577
f 579/579 577/577 580/580
f 580/580 149/149 158/158
f 581/581 576/576 579/579
f 579/579 580/580 581/581
f 576/576 581/581 578/578
f 158/158 582/582 580/580
f 581/581 580/580 582/582
f 578/578 583/583 573/573
f 583/583 578/578 581/581
f 581/581 584/584 583/583
f 581/581 585/585 584/584
f 581/581 582/582 585/585
f 584/584 586/586 583/583
f 582/582 158/158 587/587
f 158/158 161/161 587/587
f 588/588 573/573 583/583
f 588/588 583/583 586/586
f 586/586 584/584 589/589
f 584/584 585/585 589/589
f 590/590 587/587 161/161
f 172/172 590/590 161/161
f 587/587 590/590 591/591
f 591/591 582/582 587/587
f 592/592 590/590 172/172
f 582/582 591/591 593/593
f 593/593 585/585 582/582
f 591/591 590/590 594/594
f 593/593 591/591 594/594
f 590/590 592/592 594/594
f 585/585 593/593 595/595
f 594/594 595/595 593/593
f 596/596 594/594 592/592
f 595/595 594/594 596/596
f 596/596 592/592 597/597
f 172/172 597/597 592/592
f 596/596 597/597 595/595
f 597/597 172/172 598/598
f 174/174 598/598 172/172
f 595/595 597/597 599/599
f 598/598 599/599 597/597
f 174/174 193/193 598/598
f 598/598 193/193 600/600
f 599/599 598/598 600/600
f 601/601 600/600 193/193
f 602/602 599/599 600/600
f 600/600 601/601 602/602
f 603/603 601/601 193/193
f 192/192 603/603 193/193
f 102/102 603/603 192/192
f 102/102 604/604 603/603
f 102/102 103/103 604/604
f 605/605 601/601 603/603
f 602/602 601/601 606/606
f 601/601 605/605 606/606
f 607/607 602/602 606/606
f 599/599 602/602 607/607
f 608/608 606/606 605/605
f 603/603 609/609 605/605
f 608/608 605/605 609/609
f 609/609 603/603 604/604
f 610/610 606/606 608/608
f 608/608 609/609 610/610
f 606/606 610/610 607/607
f 607/607 611/611 599/599
f 611/611 607/607 610/610
f 595/595 599/599 611/611
f 604/604 612/612 609/609
f 610/610 609/609 612/612
f 595/595 611/611 613/613
f 595/595 613/613 585/585
f 610/610 614/614 611/611
f 614/614 613/613 611/611
f 585/585 613/613 589/589
f 613/613 614/614 589/589
f 610/610 615/615 614/614
f 614/614 615/615 589/589
f 610/610 612/612 615/615
f 615/615 616/616 589/589
f 616/616 617/617 589/589
f 617/617 586/586 589/589
f 618/618 616/616 615/615
f 618/618 617/617 616/616
f 619/619 615/615 612/612
f 615/615 619/619 618/618
f 588/588 586/586 617/617
f 612/612 620/620 619/619
f 620/620 612/612 621/621
f 612/612 604/604 621/621
f 604/604 103/103 621/621
f 622/622 621/621 103/103
f 621/621 622/622 620/620
f 110/110 622/622 103/103
f 619/619 620/620 623/623
f 620/620 622/622 623/623
f 623/623 618/618 619/619
f 624/624 622/622 110/110
f 622/622 624/624 623/623
f 618/618 623/623 625/625
f 625/625 623/623 624/624
f 625/625 624/624 626/626
f 110/110 626/626 624/624
f 625/625 626/626 618/618
f 626/626 110/110 116/116
f 618/618 626/626 627/627
f 116/116 627/627 626/626
f 618/618 627/627 617/617
f 627/627 116/116 628/628
f 116/116 115/115 628/628
f 629/629 617/617 627/627
f 617/617 629/629 588/588
f 630/630 627/627 628/628
f 627/627 630/630 629/629
f 631/631 628/628 115/115
f 628/628 631/631 630/630
f 127/127 631/631 115/115
f 629/629 630/630 632/632
f 630/630 631/631 632/632
f 632/632 588/588 629/629
f 633/633 631/631 127/127
f 631/631 633/633 632/632
f 588/588 632/632 634/634
f 634/634 632/632 633/633
f 634/634 635/635 588/588
f 634/634 633/633 635/635
f 127/127 635/635 633/633
f 588/588 635/635 573/573
f 635/635 127/127 135/135
f 135/135 573/573 635/635
f 636/636 637/637 638/638
f 637/637 636/636 639/639
f 637/637 640/640 638/638
f 638/638 641/641 636/636
f 637/637 642/642 640/640
f 642/642 637/637 639/639
f 640/640 643/643 638/638
f 642/642 644/644 640/640
f 645/645 638/638 643/643
f 645/645 641/641 638/638
f 643/643 640/640 646/646
f 646/646 640/640 644/644
f 647/647 644/644 642/642
f 646/646 648/648 643/643
f 647/647 642/642 649/649
f 639/639 649/649 642/642
f 647/647 650/650 644/644
f 649/649 650/650 647/647
f 644/644 651/651 646/646
f 651/651 644/644 650/650
f 652/652 646/646 651/651
f 648/648 646/646 652/652
f 650/650 653/653 651/651
f 651/651 654/654 652/652
f 653/653 654/654 651/651
f 654/654 655/655 652/652
f 655/655 656/656 652/652
f 648/648 652/652 656/656
f 657/657 655/655 654/654
f 657/657 656/656 655/655
f 648/648 656/656 658/658
f 656/656 657/657 659/659
f 659/659 658/658 656/656
f 654/654 660/660 657/657
f 661/661 660/660 654/654
f 654/654 653/653 661/661
f 662/662 657/657 660/660
f 661/661 663/663 660/660
f 662/662 660/660 663/663
f 661/661 653/653 664/664
f 657/657 662/662 665/665
f 663/663 661/661 666/666
f 664/664 666/666 661/661
f 663/663 667/667 662/662
f 667/667 665/665 662/662
f 666/666 667/667 663/663
f 657/657 665/665 668/668
f 659/659 657/657 668/668
f 665/665 667/667 669/669
f 669/669 668/668 665/665
f 666/666 669/669 667/667
f 659/659 668/668 670/670
f 669/669 670/670 668/668
f 670/670 671/671 659/659
f 670/670 669/669 672/672
f 666/666 672/672 669/669
f 671/671 670/670 673/673
f 671/671 674/674 659/659
f 673/673 674/674 671/671
f 658/658 659/659 674/674
f 675/675 673/673 670/670
f 672/672 675/675 670/670
f 676/676 673/673 675/675
f 676/676 674/674 673/673
f 677/677 675/675 672/672
f 676/676 675/675 678/678
f 675/675 677/677 678/678
f 672/672 679/679 677/677
f 666/666 679/679 672/672
f 79/79 677/677 679/679
f 678/678 677/677 79/79
f 680/680 679/679 666/666
f 680/680 79/79 679/679
f 79/79 76/76 678/678
f 666/666 681/681 680/680
f 666/666 664/664 681/681
f 79/79 680/680 77/77
f 678/678 76/76 682/682
f 71/71 682/682 76/76
f 664/664 683/683 681/681
f 680/680 681/681 683/683
f 71/71 684/684 682/682
f 682/682 685/685 678/678
f 685/685 682/682 684/684
f 676/676 678/678 685/685
f 684/684 71/71 64/64
f 674/674 676/676 685/685
f 684/684 686/686 685/685
f 674/674 685/685 686/686
f 687/687 684/684 64/64
f 688/688 686/686 684/684
f 687/687 688/688 684/684
f 688/688 689/689 686/686
f 689/689 674/674 686/686
f 690/690 688/688 687/687
f 690/690 689/689 688/688
f 64/64 691/691 687/687
f 687/687 691/691 690/690
f 691/691 64/64 59/59
f 58/58 691/691 59/59
f 674/674 689/689 692/692
f 692/692 689/689 690/690
f 691/691 58/58 693/693
f 693/693 690/690 691/691
f 58/58 694/694 693/693
f 694/694 58/58 49/49
f 690/690 693/693 695/695
f 695/695 693/693 694/694
f 695/695 696/696 690/690
f 690/690 696/696 692/692
f 694/694 697/697 695/695
f 695/695 698/698 696/696
f 698/698 695/695 697/697
f 692/692 696/696 698/698
f 699/699 698/698 697/697
f 698/698 699/699 692/692
f 699/699 697/697 694/694
f 658/658 674/674 692/692
f 692/692 699/699 658/658
f 694/694 700/700 699/699
f 49/49 700/700 694/694
f 699/699 701/701 658/658
f 700/700 701/701 699/699
f 700/700 49/49 702/702
f 702/702 701/701 700/700
f 49/49 43/43 702/702
f 43/43 703/703 702/702
f 43/43 45/45 703/703
f 701/701 702/702 704/704
f 705/705 704/704 702/702
f 705/705 702/702 703/703
f 704/704 705/705 706/706
f 706/706 705/705 703/703
f 706/706 707/707 704/704
f 704/704 707/707 701/701
f 708/708 701/701 707/707
f 658/658 701/701 708/708
f 709/709 658/658 708/708
f 708/708 707/707 710/710
f 706/706 710/710 707/707
f 708/708 711/711 709/709
f 710/710 711/711 708/708
f 710/710 706/706 712/712
f 711/711 710/710 712/712
f 703/703 712/712 706/706
f 709/709 711/711 713/713
f 712/712 713/713 711/711
f 713/713 712/712 703/703
f 713/713 714/714 709/709
f 715/715 713/713 703/703
f 713/713 715/715 714/714
f 703/703 45/45 715/715
f 648/648 658/658 714/714
f 715/715 45/45 716/716
f 648/648 714/714 717/717
f 643/643 648/648 717/717
f 645/645 643/643 717/717
f 718/718 716/716 45/45
f 45/45 216/216 718/718
f 715/715 716/716 719/719
f 714/714 715/715 719/719
f 716/716 720/720 719/719
f 718/718 216/216 721/721
f 213/213 721/721 216/216
f 716/716 718/718 722/722
f 722/722 720/720 716/716
f 721/721 723/723 718/718
f 722/722 718/718 723/723
f 213/213 724/724 721/721
f 724/724 213/213 224/224
f 721/721 725/725 723/723
f 725/725 721/721 724/724
f 725/725 724/724 726/726
f 723/723 725/725 727/727
f 724/724 224/224 728/728
f 728/728 726/726 724/724
f 725/725 726/726 729/729
f 729/729 726/726 728/728
f 725/725 729/729 727/727
f 723/723 730/730 722/722
f 727/727 730/730 723/723
f 731/731 722/722 730/730
f 722/722 731/731 720/720
f 730/730 727/727 732/732
f 732/732 731/731 730/730
f 727/727 729/729 733/733
f 729/729 728/728 733/733
f 732/732 727/727 714/714
f 727/727 733/733 714/714
f 731/731 732/732 734/734
f 734/734 720/720 731/731
f 734/734 732/732 714/714
f 734/734 719/719 720/720
f 714/714 719/719 734/734
f 728/728 735/735 733/733
f 714/714 733/733 736/736
f 736/736 733/733 735/735
f 736/736 737/737 714/714
f 738/738 735/735 728/728
f 735/735 739/739 736/736
f 739/739 735/735 738/738
f 740/740 736/736 739/739
f 736/736 740/740 737/737
f 717/717 714/714 737/737
f 739/739 741/741 740/740
f 737/737 740/740 741/741
f 742/742 739/739 738/738
f 741/741 739/739 742/742
f 728/728 743/743 738/738
f 743/743 742/742 738/738
f 743/743 728/728 224/224
f 224/224 221/221 743/743
f 743/743 221/221 226/226
f 226/226 742/742 743/743
f 742/742 226/226 744/744
f 742/742 744/744 741/741
f 744/744 226/226 241/241
f 241/241 745/745 744/744
f 744/744 745/745 746/746
f 241/241 746/746 745/745
f 746/746 741/741 744/744
f 747/747 746/746 241/241
f 741/741 748/748 737/737
f 749/749 747/747 241/241
f 241/241 243/243 749/749
f 749/749 243/243 247/247
f 737/737 748/748 717/717
f 747/747 749/749 750/750
f 247/247 751/751 749/749
f 750/750 749/749 751/751
f 750/750 752/752 747/747
f 747/747 752/752 746/746
f 752/752 750/750 753/753
f 754/754 746/746 752/752
f 752/752 753/753 754/754
f 746/746 754/754 741/741
f 755/755 753/753 750/750
f 751/751 755/755 750/750
f 754/754 753/753 755/755
f 756/756 741/741 754/754
f 756/756 754/754 755/755
f 748/748 741/741 756/756
f 757/757 751/751 247/247
f 757/757 755/755 751/751
f 758/758 748/748 756/756
f 758/758 756/756 755/755
f 759/759 748/748 758/758
f 760/760 759/759 758/758
f 748/748 759/759 761/761
f 759/759 760/760 762/762
f 762/762 761/761 759/759
f 760/760 758/758 763/763
f 758/758 755/755 763/763
f 763/763 762/762 760/760
f 755/755 764/764 763/763
f 763/763 764/764 762/762
f 755/755 757/757 764/764
f 761/761 717/717 748/748
f 765/765 764/764 757/757
f 766/766 762/762 764/764
f 764/764 765/765 766/766
f 767/767 761/761 762/762
f 762/762 766/766 767/767
f 761/761 767/767 768/768
f 768/768 717/717 761/761
f 332/332 767/767 766/766
f 768/768 767/767 332/332
f 768/768 332/332 329/329
f 766/766 328/328 332/332
f 341/341 768/768 329/329
f 341/341 717/717 768/768
f 328/328 766/766 769/769
f 765/765 769/769 766/766
f 765/765 757/757 769/769
f 769/769 327/327 328/328
f 757/757 770/770 769/769
f 247/247 770/770 757/757
f 272/272 770/770 247/247
f 272/272 771/771 770/770
f 769/769 770/770 771/771
f 273/273 771/771 272/272
f 772/772 327/327 769/769
f 771/771 772/772 769/769
f 327/327 772/772 279/279
f 771/771 273/273 773/773
f 773/773 772/772 771/771
f 773/773 273/273 274/274
f 279/279 772/772 774/774
f 772/772 773/773 774/774
f 279/279 774/774 775/775
f 773/773 775/775 774/774
f 279/279 775/775 274/274
f 274/274 775/775 773/773
f 776/776 777/777 778/778
f 776/776 779/779 777/777
f 777/777 780/780 778/778
f 778/778 781/781 776/776
f 780/780 777/777 782/782
f 782/782 777/777 779/779
f 781/781 778/778 783/783
f 784/784 776/776 781/781
f 785/785 783/783 778/778
f 778/778 780/780 785/785
f 783/783 786/786 781/781
f 781/781 786/786 784/784
f 787/787 783/783 785/785
f 788/788 786/786 783/783
f 783/783 787/787 788/788
f 786/786 789/789 784/784
f 789/789 786/786 788/788
f 780/780 790/790 785/785
f 785/785 791/791 787/787
f 791/791 785/785 790/790
f 787/787 791/791 792/792
f 788/788 787/787 792/792
f 791/791 790/790 793/793
f 793/793 790/790 780/780
f 793/793 792/792 791/791
f 792/792 794/794 788/788
f 792/792 795/795 794/794
f 795/795 792/792 793/793
f 796/796 788/788 794/794
f 796/796 794/794 795/795
f 797/797 788/788 796/796
f 797/797 789/789 788/788
f 789/789 797/797 798/798
f 799/799 797/797 796/796
f 797/797 799/799 800/800
f 798/798 797/797 800/800
f 801/801 800/800 799/799
f 801/801 799/799 802/802
f 796/796 802/802 799/799
f 800/800 801/801 803/803
f 802/802 804/804 801/801
f 803/803 801/801 804/804
f 804/804 802/802 525/525
f 796/796 805/805 802/802
f 525/525 802/802 805/805
f 536/536 804/804 525/525
f 804/804 536/536 803/803
f 525/525 805/805 806/806
f 806/806 518/518 525/525
f 807/807 805/805 796/796
f 806/806 805/805 807/807
f 536/536 808/808 803/803
f 809/809 518/518 806/806
f 518/518 809/809 505/505
f 807/807 810/810 806/806
f 806/806 810/810 809/809
f 796/796 811/811 807/807
f 795/795 811/811 796/796
f 810/810 807/807 812/812
f 812/812 807/807 811/811
f 812/812 813/813 810/810
f 810/810 813/813 809/809
f 813/813 812/812 814/814
f 813/813 814/814 809/809
f 811/811 815/815 812/812
f 795/795 815/815 811/811
f 815/815 814/814 812/812
f 809/809 814/814 816/816
f 816/816 814/814 815/815
f 817/817 505/505 809/809
f 816/816 817/817 809/809
f 505/505 817/817 497/497
f 815/815 795/795 818/818
f 815/815 818/818 816/816
f 818/818 795/795 793/793
f 817/817 819/819 497/497
f 495/495 497/497 819/819
f 820/820 819/819 817/817
f 819/819 496/496 495/495
f 819/819 820/820 496/496
f 821/821 820/820 817/817
f 821/821 496/496 820/820
f 817/817 816/816 821/821
f 822/822 821/821 816/816
f 821/821 822/822 496/496
f 816/816 818/818 822/822
f 823/823 496/496 822/822
f 351/351 496/496 823/823
f 823/823 341/341 351/351
f 818/818 824/824 822/822
f 823/823 822/822 824/824
f 818/818 793/793 824/824
f 341/341 823/823 825/825
f 825/825 823/823 824/824
f 825/825 826/826 341/341
f 341/341 826/826 717/717
f 825/825 824/824 827/827
f 793/793 827/827 824/824
f 826/826 825/825 828/828
f 828/828 825/825 827/827
f 826/826 829/829 717/717
f 829/829 645/645 717/717
f 641/641 645/645 829/829
f 830/830 829/829 826/826
f 829/829 830/830 641/641
f 826/826 828/828 830/830
f 827/827 831/831 828/828
f 831/831 830/830 828/828
f 827/827 793/793 832/832
f 832/832 831/831 827/827
f 780/780 832/832 793/793
f 833/833 830/830 831/831
f 833/833 831/831 832/832
f 832/832 780/780 834/834
f 832/832 834/834 833/833
f 834/834 780/780 782/782
f 830/830 833/833 835/835
f 835/835 833/833 834/834
f 835/835 836/836 830/830
f 834/834 836/836 835/835
f 836/836 641/641 830/830
f 641/641 836/836 636/636
f 834/834 837/837 836/836
f 837/837 834/834 782/782
f 837/837 636/636 836/836
f 636/636 837/837 639/639
f 779/779 837/837 782/782
f 639/639 837/837 838/838
f 838/838 837/837 779/779
f 838/838 839/839 639/639
f 839/839 649/649 639/639
f 840/840 838/838 779/779
f 838/838 841/841 839/839
f 841/841 838/838 840/840
f 841/841 842/842 839/839
f 649/649 839/839 842/842
f 843/843 840/840 779/779
f 779/779 776/776 843/843
f 840/840 844/844 841/841
f 844/844 840/840 843/843
f 845/845 842/842 841/841
f 841/841 844/844 845/845
f 842/842 846/846 649/649
f 846/846 842/842 845/845
f 847/847 845/845 844/844
f 846/846 845/845 847/847
f 843/843 848/848 844/844
f 844/844 848/848 847/847
f 776/776 784/784 843/843
f 843/843 784/784 849/849
f 850/850 848/848 843/843
f 849/849 850/850 843/843
f 847/847 848/848 851/851
f 850/850 851/851 848/848
f 847/847 852/852 846/846
f 850/850 849/849 853/853
f 854/854 849/849 784/784
f 854/854 853/853 849/849
f 855/855 850/850 853/853
f 851/851 850/850 855/855
f 853/853 854/854 856/856
f 784/784 857/857 854/854
f 856/856 854/854 857/857
f 857/857 784/784 789/789
f 857/857 789/789 858/858
f 798/798 858/858 789/789
f 858/858 859/859 857/857
f 857/857 859/859 856/856
f 858/858 798/798 860/860
f 856/856 861/861 853/853
f 853/853 861/861 855/855
f 858/858 860/860 862/862
f 862/862 859/859 858/858
f 798/798 863/863 860/860
f 862/862 860/860 863/863
f 863/863 798/798 864/864
f 800/800 864/864 798/798
f 803/803 864/864 800/800
f 864/864 865/865 863/863
f 864/864 803/803 865/865
f 865/865 862/862 863/863
f 808/808 865/865 803/803
f 866/866 865/865 808/808
f 866/866 862/862 865/865
f 808/808 536/536 866/866
f 536/536 867/867 866/866
f 536/536 538/538 867/867
f 867/867 538/538 540/540
f 540/540 868/868 867/867
f 868/868 866/866 867/867
f 130/130 868/868 540/540
f 868/868 869/869 866/866
f 868/868 130/130 869/869
f 862/862 866/866 869/869
f 869/869 130/130 124/124
f 862/862 869/869 870/870
f 124/124 870/870 869/869
f 871/871 862/862 870/870
f 872/872 870/870 124/124
f 871/871 870/870 872/872
f 872/872 124/124 121/121
f 859/859 862/862 871/871
f 873/873 871/871 872/872
f 859/859 871/871 873/873
f 121/121 874/874 872/872
f 872/872 874/874 873/873
f 873/873 875/875 859/859
f 874/874 875/875 873/873
f 875/875 876/876 859/859
f 876/876 856/856 859/859
f 876/876 877/877 856/856
f 875/875 877/877 876/876
f 861/861 856/856 877/877
f 861/861 877/877 878/878
f 877/877 875/875 878/878
f 878/878 855/855 861/861
f 874/874 879/879 875/875
f 879/879 874/874 121/121
f 880/880 878/878 875/875
f 879/879 880/880 875/875
f 855/855 878/878 881/881
f 881/881 878/878 880/880
f 855/855 881/881 882/882
f 880/880 882/882 881/881
f 855/855 882/882 851/851
f 883/883 879/879 121/121
f 883/883 121/121 91/91
f 880/880 879/879 884/884
f 879/879 883/883 884/884
f 880/880 885/885 882/882
f 851/851 882/882 885/885
f 886/886 880/880 884/884
f 885/885 880/880 886/886
f 887/887 884/884 883/883
f 883/883 91/91 887/887
f 886/886 884/884 887/887
f 91/91 888/888 887/887
f 89/89 888/888 91/91
f 889/889 886/886 887/887
f 887/887 888/888 889/889
f 885/885 886/886 889/889
f 888/888 89/89 890/890
f 888/888 890/890 889/889
f 889/889 890/890 885/885
f 82/82 890/890 89/89
f 891/891 885/885 890/890
f 892/892 891/891 890/890
f 890/890 82/82 892/892
f 891/891 893/893 885/885
f 891/891 892/892 893/893
f 894/894 885/885 893/893
f 885/885 894/894 851/851
f 894/894 895/895 851/851
f 851/851 895/895 847/847
f 893/893 896/896 894/894
f 895/895 894/894 896/896
f 847/847 895/895 852/852
f 897/897 896/896 893/893
f 898/898 893/893 892/892
f 893/893 898/898 897/897
f 898/898 892/892 899/899
f 82/82 899/899 892/892
f 897/897 898/898 900/900
f 899/899 900/900 898/898
f 899/899 82/82 901/901
f 900/900 899/899 901/901
f 902/902 901/901 82/82
f 902/902 900/900 901/901
f 82/82 78/78 902/902
f 77/77 902/902 78/78
f 900/900 902/902 77/77
f 77/77 903/903 900/900
f 900/900 903/903 897/897
f 680/680 903/903 77/77
f 896/896 897/897 904/904
f 903/903 904/904 897/897
f 896/896 904/904 895/895
f 903/903 680/680 905/905
f 904/904 903/903 905/905
f 683/683 905/905 680/680
f 906/906 895/895 904/904
f 905/905 906/906 904/904
f 906/906 905/905 683/683
f 906/906 852/852 895/895
f 683/683 907/907 906/906
f 852/852 906/906 907/907
f 907/907 683/683 908/908
f 683/683 664/664 908/908
f 653/653 908/908 664/664
f 909/909 908/908 653/653
f 908/908 909/909 907/907
f 653/653 650/650 909/909
f 910/910 852/852 907/907
f 907/907 909/909 910/910
f 846/846 852/852 910/910
f 911/911 909/909 650/650
f 909/909 911/911 910/910
f 650/650 649/649 911/911
f 649/649 846/846 910/910
f 910/910 911/911 649/649
f 912/912 913/913 914/914
f 914/914 915/915 912/912
f 913/913 912/912 916/916
f 917/917 916/916 912/912
f 918/918 919/919 920/920
f 920/920 919/919 921/921
f 919/919 918/918 922/922
f 923/923 924/924 925/925
f 923/923 926/926 924/924
f 926/926 927/927 924/924
f 924/924 927/927 925/925
f 928/928 926/926 923/923
f 927/927 926/926 929/929
f 926/926 928/928 929/929
f 930/930 923/923 925/925
f 930/930 928/928 923/923
f 927/927 931/931 925/925
f 931/931 927/927 929/929
f 925/925 931/931 932/932
f 930/930 925/925 932/932
f 931/931 933/933 932/932
f 930/930 932/932 934/934
f 932/932 933/933 934/934
f 933/933 931/931 935/935
f 935/935 931/931 929/929
f 933/933 935/935 934/934
f 934/934 935/935 936/936
f 930/930 934/934 936/936
f 935/935 929/929 936/936
f 937/937 930/930 936/936
f 928/928 930/930 937/937
f 929/929 938/938 936/936
f 928/928 938/938 929/929
f 938/938 939/939 936/936
f 928/928 940/940 938/938
f 938/938 940/940 939/939
f 940/940 941/941 939/939
f 928/928 942/942 940/940
f 940/940 942/942 941/941
f 941/941 943/943 939/939
f 939/939 943/943 936/936
f 942/942 943/943 941/941
f 942/942 944/944 943/943
f 928/928 945/945 942/942
f 945/945 944/944 942/942
f 945/945 928/928 937/937
f 944/944 946/946 943/943
f 944/944 945/945 946/946
f 943/943 946/946 936/936
f 945/945 937/937 946/946
f 946/946 937/937 936/936
