# Perseverance visual mesh from JPL ops GLTF
mtllib rover.mtl
usemtl rover
v 0.577483 0.010523 0.078710
v 0.577338 0.009733 0.080704
v 0.577055 0.008802 0.079555
v 0.577093 0.008971 0.078666
v 0.577406 0.009644 0.080744
v 0.577095 0.008707 0.079194
v 0.578260 0.008289 0.079698
v 0.578305 0.008338 0.078614
v 0.578090 0.008229 0.079151
v 0.579260 0.007505 0.079416
v 0.579336 0.007733 0.079820
v 0.579249 0.007516 0.078838
v 0.579250 0.007329 0.079796
v 0.579721 0.008895 0.081156
v 0.579336 0.007838 0.078409
v 0.579244 0.007385 0.077844
v 0.579721 0.009186 0.077260
v 0.577346 0.009912 0.077779
v 0.579721 0.009156 0.077059
v 0.581096 0.006886 0.078810
v 0.577447 0.010384 0.078202
v 0.577482 0.010487 0.077728
v 0.576060 0.011039 0.078202
v 0.576209 0.011168 0.078725
v 0.575113 0.012996 0.080026
v 0.574696 0.011505 0.078194
v 0.577964 0.012167 0.080453
v 0.574688 0.011755 0.078727
v 0.576206 0.011133 0.077663
v 0.574620 0.011612 0.077998
v 0.574741 0.011653 0.077632
v 0.575085 0.012894 0.076277
v 0.575042 0.012978 0.076267
v 0.575187 0.013731 0.078792
v 0.575027 0.013069 0.079875
v 0.577964 0.012026 0.075873
v 0.575042 0.012924 0.081090
v 0.575079 0.012844 0.081075
v 0.575163 0.013420 0.081065
v 0.574682 0.011248 0.081913
v 0.576191 0.010714 0.081719
v 0.577478 0.010057 0.081563
v 0.576060 0.010417 0.082194
v 0.577447 0.009806 0.081956
v 0.577344 0.009269 0.082133
v 0.577488 0.009761 0.082508
v 0.574696 0.010855 0.082355
v 0.576192 0.010356 0.082742
v 0.574626 0.010906 0.082616
v 0.579721 0.008835 0.081350
v 0.574743 0.010837 0.082927
v 0.575058 0.011711 0.084712
v 0.575085 0.011606 0.084580
v 0.577964 0.010674 0.084668
v 0.575081 0.011064 0.085524
v 0.577482 0.008310 0.084968
v 0.577094 0.008029 0.082523
v 0.578319 0.007466 0.082204
v 0.579336 0.007122 0.081800
v 0.579250 0.006880 0.081369
v 0.579257 0.006686 0.082019
v 0.577095 0.007564 0.082885
v 0.578090 0.007152 0.082638
v 0.579246 0.006395 0.082459
v 0.578264 0.006967 0.083156
v 0.577037 0.007562 0.083149
v 0.577144 0.007442 0.083443
v 0.577338 0.007833 0.084691
v 0.577406 0.007735 0.084688
v 0.579336 0.006414 0.083025
v 0.579244 0.005879 0.083038
v 0.579720 0.006881 0.084731
v 0.577344 0.006790 0.085774
v 0.577447 0.007911 0.085249
v 0.576060 0.008395 0.085692
v 0.577483 0.007672 0.085718
v 0.576206 0.008828 0.085356
v 0.576209 0.008138 0.086165
v 0.574696 0.008745 0.086000
v 0.574685 0.009275 0.085725
v 0.574646 0.008615 0.086333
v 0.575040 0.008665 0.088360
v 0.575233 0.011348 0.086585
v 0.575060 0.011241 0.085571
v 0.577964 0.007741 0.088091
v 0.575157 0.008889 0.088845
v 0.575049 0.007812 0.089052
v 0.577093 0.005507 0.085590
v 0.573894 0.013261 0.087564
v 0.577481 0.005424 0.087516
v 0.578319 0.005140 0.085058
v 0.573417 0.013712 0.086868
v 0.575790 0.012307 0.088819
v 0.575807 0.011567 0.089642
v 0.571999 0.011436 0.089784
v 0.571999 0.013535 0.087174
v 0.573598 0.014323 0.085775
v 0.573829 0.010372 0.090766
v 0.573386 0.009637 0.091348
v 0.575184 0.012443 0.084337
v 0.571999 0.009168 0.091700
v 0.571999 -0.014804 0.084522
v 0.575803 0.015428 0.082955
v 0.573891 0.015791 0.081408
v 0.575783 0.015082 0.084016
v 0.571999 0.015642 0.082129
v 0.573417 0.015921 0.080583
v 0.571999 0.014866 0.084608
v 0.573558 0.016029 0.079448
v 0.571999 0.016064 0.079073
v 0.575774 0.016012 0.077436
v 0.575808 0.015897 0.076322
v 0.571999 0.015858 0.076016
v 0.571500 0.003334 0.066434
v 0.573683 0.015544 0.074525
v 0.575219 0.013514 0.075499
v 0.575066 0.012788 0.074948
v 0.571999 0.015039 0.072891
v 0.573375 0.015228 0.073457
v 0.575038 0.012721 0.075210
v 0.575113 0.012661 0.075249
v 0.574680 0.010993 0.074467
v 0.575062 0.012464 0.073993
v 0.573827 0.014876 0.072517
v 0.576207 0.010491 0.074701
v 0.574638 0.010716 0.074137
v 0.575216 0.012724 0.073090
v 0.574672 0.010561 0.073621
v 0.576056 0.010177 0.074251
v 0.577480 0.009864 0.074905
v 0.577338 0.009716 0.076289
v 0.576213 0.010067 0.073719
v 0.577406 0.009653 0.076363
v 0.577054 0.008380 0.075657
v 0.577447 0.009566 0.074492
v 0.577482 0.009491 0.074011
v 0.575037 0.011242 0.071789
v 0.578276 0.007960 0.076004
v 0.577090 0.008147 0.074783
v 0.577095 0.008137 0.075373
v 0.577351 0.008604 0.073576
v 0.578319 0.007544 0.075025
v 0.578090 0.007687 0.075541
v 0.579246 0.007070 0.076015
v 0.579254 0.006912 0.075525
v 0.579336 0.007529 0.076359
v 0.579243 0.007069 0.076295
v 0.579336 0.007013 0.075042
v 0.579252 0.006250 0.074523
v 0.579721 0.007729 0.073423
v 0.579721 0.007614 0.073255
v 0.581096 0.006226 0.075590
v 0.579143 0.006815 0.076838
v 0.580126 0.006007 0.076772
v 0.579144 0.006948 0.077453
v 0.579995 0.006014 0.077316
v 0.580114 0.006241 0.077825
v 0.580845 0.004944 0.077241
v 0.580858 0.005158 0.077884
v 0.580841 0.005009 0.079634
v 0.580126 0.006144 0.079742
v 0.579143 0.006828 0.080175
v 0.579995 0.005897 0.080227
v 0.579144 0.006660 0.080782
v 0.580120 0.005851 0.080769
v 0.580839 0.004815 0.080121
v 0.581096 0.005962 0.081977
v 0.580841 0.003870 0.081824
v 0.580134 0.004886 0.082426
v 0.579127 0.005236 0.083169
v 0.579991 0.004446 0.082752
v 0.579163 0.004799 0.083677
v 0.580955 0.004303 0.080945
v 0.579243 0.004788 0.084196
v 0.580153 0.004120 0.083166
v 0.580839 0.003532 0.082150
v 0.580915 0.003446 0.082089
v 0.580911 0.004871 0.079529
v 0.581162 0.003974 0.081408
v 0.580930 0.004944 0.078241
v 0.581370 0.004542 0.080311
v 0.581376 0.003638 0.080583
v 0.582320 0.004648 0.079492
v 0.581749 0.003062 0.079994
v 0.581852 0.002859 0.080762
v 0.582321 0.003207 0.082011
v 0.580922 0.002200 0.082940
v 0.581813 0.001845 0.081547
v 0.581670 0.002226 0.080745
v 0.581852 0.003632 0.078686
v 0.581683 0.003136 0.079412
v 0.581376 0.004158 0.078083
v 0.581749 0.003346 0.077945
v 0.581370 0.004728 0.077332
v 0.580854 0.004477 0.076278
v 0.582326 0.004331 0.076606
v 0.581679 0.003123 0.078056
v 0.581852 0.003037 0.076552
v 0.581115 0.003971 0.075646
v 0.580866 0.004357 0.075602
v 0.581670 0.002826 0.077149
v 0.581376 0.003108 0.075756
v 0.580150 0.005150 0.075052
v 0.580942 0.003534 0.075089
v 0.581751 0.002565 0.076337
v 0.580842 0.003799 0.075146
v 0.581837 0.002338 0.075821
v 0.581683 0.001840 0.075871
v 0.582325 0.002381 0.074458
v 0.581852 0.001302 0.075176
v 0.580917 0.002095 0.074065
v 0.581115 0.001526 0.073893
v 0.580839 0.002195 0.073998
v 0.580938 0.000902 0.073710
v 0.581376 0.000891 0.074491
v 0.581749 0.000509 0.075219
v 0.581234 0.000496 0.073707
v 0.580841 0.001735 0.073705
v 0.580918 -0.000735 0.073684
v 0.580846 -0.000680 0.073521
v 0.582327 -0.000460 0.073868
v 0.581752 -0.001079 0.075379
v 0.581094 -0.001538 0.073932
v 0.581670 -0.000409 0.075468
v 0.580922 -0.002098 0.074128
v 0.581813 -0.001743 0.075522
v 0.580841 -0.002618 0.074268
v 0.582321 -0.003105 0.075058
v 0.581683 -0.001929 0.076010
v 0.581852 -0.002757 0.076307
v 0.580915 -0.003344 0.074979
v 0.581162 -0.003872 0.075661
v 0.581376 -0.003536 0.076485
v 0.580955 -0.004201 0.076123
v 0.580845 -0.003066 0.074391
v 0.581749 -0.002960 0.077074
v 0.581370 -0.004440 0.076758
v 0.580911 -0.004769 0.077540
v 0.582320 -0.004546 0.077576
v 0.580850 -0.005106 0.077896
v 0.580930 -0.004842 0.078828
v 0.581852 -0.003530 0.078383
v 0.581670 -0.003008 0.078024
v 0.581376 -0.004056 0.078985
v 0.581749 -0.003244 0.079124
v 0.581370 -0.004626 0.079737
v 0.580840 -0.004967 0.078317
v 0.580848 -0.004693 0.080421
v 0.580845 -0.004384 0.080927
v 0.582326 -0.004229 0.080463
v 0.580918 -0.004169 0.081050
v 0.581852 -0.002935 0.080516
v 0.581115 -0.003869 0.081423
v 0.581683 -0.002961 0.079638
v 0.581376 -0.003006 0.081313
v 0.580942 -0.003432 0.081980
v 0.581751 -0.002463 0.080732
v 0.581837 -0.002235 0.081248
v 0.581679 -0.002153 0.080727
v 0.580840 -0.002996 0.082536
v 0.580842 -0.002735 0.082777
v 0.582322 -0.002280 0.082610
v 0.580917 -0.001993 0.083003
v 0.581852 -0.001200 0.081893
v 0.581115 -0.001424 0.083176
v 0.581670 -0.001380 0.081286
v 0.581376 -0.000789 0.082578
v 0.580938 -0.000800 0.083359
v 0.581749 -0.000407 0.081849
v 0.581234 -0.000394 0.083362
v 0.580838 -0.000944 0.083454
v 0.580918 0.000837 0.083385
v 0.582327 0.000562 0.083201
v 0.581752 0.001181 0.081689
v 0.580843 0.001365 0.083427
v 0.581094 0.001640 0.083137
v 0.581679 0.001456 0.081308
v 0.581683 0.000169 0.081740
v 0.580840 0.001652 0.083305
v 0.580873 0.002190 0.083341
v 0.579980 0.001994 0.084319
v 0.581096 0.003718 0.084309
v 0.580122 0.002523 0.084241
v 0.579242 0.003119 0.085232
v 0.579150 0.002590 0.085044
v 0.579140 0.001973 0.085224
v 0.580135 0.001508 0.084546
v 0.579721 0.003326 0.087157
v 0.579240 0.001625 0.085733
v 0.581096 0.000615 0.085352
v 0.580877 -0.000276 0.083801
v 0.579243 0.000700 0.085947
v 0.579261 0.001529 0.085899
v 0.579242 -0.000347 0.085891
v 0.580141 -0.000416 0.084704
v 0.579987 -0.000926 0.084552
v 0.579259 0.000850 0.085998
v 0.579150 -0.000718 0.085484
v 0.580153 -0.001449 0.084514
v 0.579131 -0.001346 0.085359
v 0.579340 -0.001552 0.086170
v 0.579246 -0.001950 0.085679
v 0.581096 -0.002646 0.084821
v 0.579336 0.000508 0.086309
v 0.580129 -0.003239 0.083783
v 0.578276 0.000758 0.086808
v 0.579248 -0.003712 0.084884
v 0.579989 -0.003609 0.083407
v 0.579721 -0.000537 0.087739
v 0.579721 -0.000740 0.087724
v 0.578303 -0.001871 0.086598
v 0.577344 -0.001408 0.088317
v 0.577406 0.000031 0.088379
v 0.577054 0.001002 0.087296
v 0.577338 0.000090 0.088457
v 0.577488 0.000824 0.088996
v 0.577093 -0.002062 0.087200
v 0.577095 0.001334 0.087121
v 0.578090 0.001270 0.086645
v 0.578307 0.001817 0.086630
v 0.577092 0.001906 0.087259
v 0.577447 0.001336 0.088792
v 0.577348 0.002982 0.087979
v 0.577487 0.001843 0.088866
v 0.576070 0.001399 0.089439
v 0.576198 0.000878 0.089632
v 0.577478 -0.002047 0.088775
v 0.577964 -0.000704 0.090778
v 0.575046 -0.000235 0.091603
v 0.574696 0.001469 0.089899
v 0.574673 0.000993 0.090174
v 0.576187 0.001958 0.089504
v 0.574654 0.001903 0.090019
v 0.575085 0.003485 0.091115
v 0.577964 0.003770 0.090224
v 0.577484 0.004559 0.087992
v 0.575042 0.003501 0.091197
v 0.575113 0.004486 0.090787
v 0.576217 0.004833 0.088567
v 0.575035 0.004552 0.090836
v 0.575059 0.003232 0.091351
v 0.574677 0.005120 0.089028
v 0.576047 0.005243 0.088228
v 0.574692 0.005484 0.088621
v 0.574677 0.005982 0.088552
v 0.576205 0.005780 0.088068
v 0.577449 0.004905 0.087668
v 0.575232 0.007094 0.090458
v 0.574695 0.006177 0.088670
v 0.575068 0.007392 0.089553
v 0.577054 0.004709 0.086015
v 0.573607 0.008778 0.091949
v 0.574042 0.008331 0.092224
v 0.571999 0.006367 0.093235
v 0.575808 0.007051 0.092922
v 0.575804 0.006052 0.093366
v 0.575185 0.004031 0.091626
v 0.573528 0.004101 0.094018
v 0.573440 0.002934 0.094277
v 0.571999 0.003396 0.094197
v 0.571499 0.000051 0.093534
v 0.571999 0.000556 0.094526
v 0.575067 0.002272 0.091587
v 0.573891 0.002182 0.094392
v 0.575232 0.001635 0.092296
v 0.575808 0.000572 0.094526
v 0.575540 0.000051 0.093534
v 0.571511 -0.000275 0.094173
v 0.575808 -0.000488 0.094525
v 0.571999 -0.000454 0.094526
v 0.571999 -0.003296 0.094198
v 0.573787 -0.002192 0.094376
v 0.575093 -0.001901 0.091730
v 0.573383 -0.003068 0.094232
v 0.571999 -0.006265 0.093235
v 0.575040 -0.001308 0.091524
v 0.573603 -0.004066 0.093996
v 0.575100 -0.003593 0.091395
v 0.574657 -0.002363 0.089901
v 0.576206 -0.002140 0.089436
v 0.574041 -0.004582 0.093848
v 0.575808 -0.005958 0.093363
v 0.574686 -0.003308 0.089715
v 0.575042 -0.004919 0.090617
v 0.574695 -0.002725 0.089649
v 0.576043 -0.002622 0.089203
v 0.576219 -0.003171 0.089169
v 0.577447 -0.002466 0.088561
v 0.577483 -0.002983 0.088559
v 0.577964 -0.005076 0.089678
v 0.577054 -0.002892 0.086840
v 0.577095 -0.002519 0.086827
v 0.577343 -0.004242 0.087439
v 0.578262 -0.002916 0.086306
v 0.578090 -0.002370 0.086371
v 0.579259 -0.002467 0.085605
v 0.579243 -0.003094 0.085278
v 0.579337 -0.002916 0.085740
v 0.579721 -0.004473 0.086573
v 0.577342 -0.005510 0.086701
v 0.579721 -0.004649 0.086471
v 0.579336 -0.004706 0.084701
v 0.578319 -0.005177 0.084947
v 0.579136 -0.003901 0.084274
v 0.577481 -0.005594 0.087348
v 0.579257 -0.004823 0.084228
v 0.579146 -0.004456 0.083909
v 0.580136 -0.004092 0.083148
v 0.579248 -0.005025 0.083914
v 0.578077 -0.005530 0.084554
v 0.580877 -0.003541 0.082419
v 0.581096 -0.005239 0.082871
v 0.580126 -0.005310 0.081671
v 0.580012 -0.005437 0.081127
v 0.579244 -0.006226 0.082387
v 0.579139 -0.006115 0.081801
v 0.580120 -0.005772 0.080708
v 0.579141 -0.006391 0.081237
v 0.581096 -0.006649 0.079916
v 0.579251 -0.006929 0.080950
v 0.579256 -0.006810 0.081550
v 0.580875 -0.005218 0.078842
v 0.579995 -0.006030 0.078290
v 0.580122 -0.006166 0.078831
v 0.579244 -0.007304 0.079032
v 0.579138 -0.006928 0.078561
v 0.579141 -0.006910 0.077934
v 0.579256 -0.007439 0.078274
v 0.580120 -0.006115 0.077753
v 0.579246 -0.007245 0.077437
v 0.581096 -0.006515 0.076616
v 0.579260 -0.007403 0.077652
v 0.579248 -0.006716 0.075560
v 0.579336 -0.007736 0.078660
v 0.579336 -0.007631 0.077249
v 0.578260 -0.008187 0.077371
v 0.578090 -0.008127 0.077918
v 0.578305 -0.008236 0.078455
v 0.579721 -0.009084 0.079808
v 0.577095 -0.008605 0.077874
v 0.577144 -0.008737 0.077319
v 0.579721 -0.008793 0.075913
v 0.577344 -0.009587 0.076329
v 0.577037 -0.008719 0.077635
v 0.577093 -0.008868 0.078405
v 0.577343 -0.009868 0.079257
v 0.577478 -0.010341 0.077395
v 0.577447 -0.010167 0.076963
v 0.577964 -0.012211 0.078874
v 0.576060 -0.010811 0.076842
v 0.577483 -0.010211 0.076437
v 0.577348 -0.009146 0.074934
v 0.576193 -0.011015 0.077363
v 0.576209 -0.010842 0.076304
v 0.574696 -0.011271 0.076764
v 0.574741 -0.011519 0.077290
v 0.574620 -0.011412 0.076936
v 0.575032 -0.013014 0.078381
v 0.574675 -0.011412 0.076241
v 0.577964 -0.011518 0.074457
v 0.575055 -0.012442 0.074671
v 0.577487 -0.009276 0.073740
v 0.575042 -0.012074 0.073677
v 0.575145 -0.013107 0.075363
v 0.575067 -0.012362 0.073934
v 0.573593 -0.015419 0.074427
v 0.573432 -0.015023 0.073159
v 0.575807 -0.015795 0.076317
v 0.575217 -0.012623 0.073095
v 0.575807 -0.015909 0.077404
v 0.571999 -0.015759 0.076023
v 0.571999 -0.014937 0.072893
v 0.573979 -0.014712 0.072373
v 0.575162 -0.013536 0.078854
v 0.573898 -0.015945 0.078987
v 0.575047 -0.012974 0.079486
v 0.573552 -0.015919 0.079519
v 0.571999 -0.015937 0.079158
v 0.575032 -0.012974 0.080102
v 0.573383 -0.015842 0.080421
v 0.571631 -0.013652 0.070474
v 0.571999 -0.015540 0.082129
v 0.573789 -0.015711 0.081300
v 0.575186 -0.013385 0.081127
v 0.575805 -0.015327 0.082953
v 0.575807 -0.014989 0.083993
v 0.574620 -0.011214 0.081186
v 0.575041 -0.012189 0.083126
v 0.574686 -0.011487 0.080501
v 0.574741 -0.011187 0.081554
v 0.574696 -0.011146 0.080973
v 0.576209 -0.010912 0.080390
v 0.577483 -0.010275 0.080286
v 0.576053 -0.010690 0.080883
v 0.576206 -0.010682 0.081427
v 0.577448 -0.010038 0.080793
v 0.577482 -0.010061 0.081250
v 0.577338 -0.009611 0.080766
v 0.577406 -0.009551 0.080706
v 0.577055 -0.008276 0.081411
v 0.577964 -0.011231 0.083350
v 0.577097 -0.008038 0.082289
v 0.578276 -0.007858 0.081065
v 0.579721 -0.009054 0.080010
v 0.579243 -0.007220 0.080116
v 0.579336 -0.007427 0.080710
v 0.579260 -0.007047 0.080973
v 0.577095 -0.008035 0.081696
v 0.578090 -0.007585 0.081527
v 0.578319 -0.007442 0.082044
v 0.579336 -0.006911 0.082026
v 0.577343 -0.008572 0.083489
v 0.579721 -0.007627 0.083646
v 0.579721 -0.007512 0.083814
v 0.579246 -0.005886 0.083106
v 0.579336 -0.005743 0.083739
v 0.578276 -0.005977 0.084246
v 0.577406 -0.007658 0.084657
v 0.577095 -0.005862 0.084891
v 0.577056 -0.006202 0.084739
v 0.577338 -0.007686 0.084738
v 0.577093 -0.005611 0.085431
v 0.577484 -0.006401 0.086785
v 0.577447 -0.005910 0.086981
v 0.576074 -0.006301 0.087498
v 0.577487 -0.008398 0.084746
v 0.577447 -0.008559 0.084257
v 0.577480 -0.008928 0.083905
v 0.576075 -0.009105 0.084605
v 0.576206 -0.009515 0.084218
v 0.575113 -0.011741 0.084081
v 0.576179 -0.008922 0.085138
v 0.575099 -0.011943 0.084431
v 0.574680 -0.009975 0.084550
v 0.573891 -0.014372 0.085461
v 0.573416 -0.013994 0.086205
v 0.575061 -0.011152 0.085534
v 0.574692 -0.009531 0.084832
v 0.574623 -0.009475 0.085122
v 0.574741 -0.009334 0.085399
v 0.575040 -0.009707 0.087225
v 0.573557 -0.013413 0.087186
v 0.575186 -0.011169 0.086368
v 0.571999 -0.013430 0.087183
v 0.575760 -0.012223 0.088797
v 0.571999 -0.011330 0.089788
v 0.575805 -0.011468 0.089639
v 0.571999 -0.009035 0.091728
v 0.573417 -0.009664 0.091254
v 0.573559 -0.008727 0.091916
v 0.575802 -0.006957 0.092918
v 0.575185 -0.007013 0.090255
v 0.575048 -0.005896 0.090270
v 0.575061 -0.007332 0.089493
v 0.573891 -0.010308 0.090729
v 0.575065 -0.008150 0.088913
v 0.575232 -0.009117 0.088920
v 0.575043 -0.008952 0.088007
v 0.574670 -0.007049 0.087757
v 0.577964 -0.008755 0.087074
v 0.576211 -0.006803 0.087290
v 0.574695 -0.006517 0.087930
v 0.574669 -0.006287 0.088314
v 0.576203 -0.005931 0.087909
v 0.575098 -0.005882 0.090141
v 0.578090 0.002472 0.070698
v 0.578240 0.003027 0.070750
v 0.579229 0.002301 0.071485
v 0.577095 0.002621 0.070242
v 0.578281 0.001984 0.070467
v 0.579252 0.001968 0.071300
v 0.577099 0.002144 0.069854
v 0.579436 0.001444 0.070492
v 0.577054 0.002996 0.070228
v 0.577892 0.001415 0.068924
v 0.577462 0.004104 0.068963
v 0.579246 0.000252 0.071177
v 0.577406 0.004340 0.069673
v 0.577756 0.000107 0.068788
v 0.577343 0.001554 0.068703
v 0.577533 0.003835 0.068569
v 0.577406 0.000071 0.068690
v 0.579409 -0.000202 0.070476
v 0.577148 -0.000706 0.069688
v 0.577373 0.000157 0.068458
v 0.578238 -0.000659 0.070239
v 0.577095 -0.001232 0.069948
v 0.579260 -0.000747 0.071071
v 0.577037 -0.001024 0.069784
v 0.578090 -0.001168 0.070424
v 0.578314 -0.001715 0.070442
v 0.577099 -0.001811 0.069815
v 0.577461 -0.002733 0.068496
v 0.577343 -0.002860 0.069025
v 0.579257 -0.001362 0.071175
v 0.579473 -0.002321 0.070581
v 0.578416 -0.002974 0.069451
v 0.579243 -0.002494 0.071542
v 0.579242 -0.001323 0.071297
v 0.579575 -0.003535 0.070631
v 0.579249 -0.003188 0.071895
v 0.578842 -0.003762 0.069878
v 0.577406 -0.004203 0.069656
v 0.578261 -0.004175 0.071369
v 0.579260 -0.003906 0.072156
v 0.577054 -0.004607 0.071055
v 0.577338 -0.004275 0.069611
v 0.577448 -0.003062 0.068675
v 0.577497 -0.003664 0.068686
v 0.576059 -0.003277 0.068057
v 0.577743 -0.005932 0.068779
v 0.576258 -0.002810 0.067817
v 0.577480 -0.006125 0.070089
v 0.576183 -0.003839 0.068101
v 0.576259 -0.005336 0.067295
v 0.576781 -0.006194 0.067816
v 0.574696 -0.003438 0.067620
v 0.574923 -0.005054 0.067096
v 0.574689 -0.002996 0.067270
v 0.574740 -0.003997 0.067619
v 0.574625 -0.003685 0.067562
v 0.574871 -0.002530 0.066304
v 0.574873 -0.004913 0.067054
v 0.575226 -0.002320 0.066261
v 0.571498 -0.003096 0.066378
v 0.576632 0.000313 0.067674
v 0.576883 0.001033 0.067918
v 0.574932 -0.000564 0.066050
v 0.575814 0.000717 0.067461
v 0.574740 0.000220 0.066894
v 0.574696 0.000740 0.067096
v 0.576018 0.001263 0.067405
v 0.574624 0.000531 0.066953
v 0.574871 -0.000429 0.066044
v 0.571499 0.000051 0.066034
v 0.574871 0.002063 0.066197
v 0.574690 0.001279 0.066930
v 0.574955 0.002208 0.066219
v 0.575584 0.003831 0.066618
v 0.574871 0.004116 0.066714
v 0.576214 0.004191 0.068202
v 0.574740 0.004414 0.067741
v 0.576071 0.004646 0.068553
v 0.574696 0.004826 0.068118
v 0.574625 0.004682 0.067909
v 0.574689 0.005388 0.068157
v 0.574950 0.006739 0.067723
v 0.576191 0.005203 0.068661
v 0.577470 0.004743 0.069229
v 0.577338 0.004330 0.069590
v 0.577343 0.005611 0.070352
v 0.577763 0.006207 0.068799
v 0.577295 0.006866 0.068333
v 0.577875 0.007189 0.068971
v 0.576301 0.007061 0.067958
v 0.576956 0.007536 0.068475
v 0.575062 0.008034 0.068236
v 0.576197 0.007650 0.070397
v 0.574744 0.009999 0.069012
v 0.577478 0.007223 0.070928
v 0.577092 0.005716 0.071645
v 0.576079 0.007942 0.070894
v 0.574653 0.008106 0.070217
v 0.575140 0.009424 0.068806
v 0.575031 0.009666 0.069628
v 0.574667 0.008682 0.070767
v 0.577447 0.007462 0.071327
v 0.576190 0.008418 0.071185
v 0.577488 0.007937 0.071613
v 0.575043 0.010643 0.070877
v 0.577964 0.010276 0.071759
v 0.577338 0.007784 0.072317
v 0.577406 0.007760 0.072412
v 0.577054 0.006307 0.072329
v 0.578276 0.006079 0.072823
v 0.577095 0.005964 0.072178
v 0.578319 0.005279 0.072122
v 0.578077 0.005632 0.072515
v 0.579336 0.005845 0.073330
v 0.579244 0.005233 0.073229
v 0.579175 0.005922 0.074467
v 0.579247 0.004949 0.072902
v 0.579116 0.005355 0.074086
v 0.579977 0.004788 0.074682
v 0.580145 0.004487 0.074211
v 0.579208 0.005163 0.073653
v 0.581096 0.004182 0.073082
v 0.579243 0.003641 0.072110
v 0.580133 0.002946 0.073066
v 0.579989 0.002439 0.072928
v 0.579336 0.004808 0.072368
v 0.579131 0.003052 0.072238
v 0.579341 0.003034 0.071320
v 0.579149 0.002458 0.071957
v 0.579554 0.004824 0.070589
v 0.579636 0.004507 0.070528
v 0.579291 0.002151 0.071487
v 0.580131 0.001979 0.072638
v 0.580949 0.001315 0.071876
v 0.580558 0.000835 0.071593
v 0.581049 0.000907 0.072085
v 0.580860 0.000060 0.073367
v 0.580136 0.000098 0.072330
v 0.579131 -0.000216 0.071550
v 0.579987 -0.000441 0.072458
v 0.579142 -0.000821 0.071628
v 0.580143 -0.000980 0.072433
v 0.581096 -0.002110 0.072057
v 0.580874 -0.002321 0.073829
v 0.580115 -0.002806 0.072996
v 0.580015 -0.003197 0.073409
v 0.579125 -0.003491 0.072590
v 0.580145 -0.003686 0.073612
v 0.579159 -0.004095 0.072817
v 0.581096 -0.004900 0.073814
v 0.579256 -0.004416 0.072516
v 0.579243 -0.004529 0.072765
v 0.580839 -0.004194 0.075858
v 0.579248 -0.005899 0.074174
v 0.580877 -0.004758 0.076361
v 0.580137 -0.005027 0.074981
v 0.579995 -0.005220 0.075491
v 0.580157 -0.005545 0.075923
v 0.579131 -0.005840 0.074780
v 0.579142 -0.006118 0.075321
v 0.579256 -0.006581 0.075047
v 0.579260 -0.006282 0.074505
v 0.579336 -0.007020 0.075269
v 0.579721 -0.008733 0.075719
v 0.578344 -0.007346 0.074868
v 0.578090 -0.007050 0.074430
v 0.578264 -0.006865 0.073913
v 0.577091 -0.007932 0.074546
v 0.577095 -0.007462 0.074184
v 0.577054 -0.007391 0.073816
v 0.577447 -0.008909 0.073378
v 0.579336 -0.006312 0.074044
v 0.577343 -0.007675 0.072369
v 0.577490 -0.008765 0.072833
v 0.576060 -0.009466 0.073032
v 0.576190 -0.009846 0.073444
v 0.579721 -0.006779 0.072336
v 0.579243 -0.005649 0.073751
v 0.574678 -0.010335 0.073152
v 0.579336 -0.004902 0.072524
v 0.579721 -0.006641 0.072186
v 0.578319 -0.005038 0.072010
v 0.577344 -0.006677 0.071296
v 0.577478 -0.006862 0.070692
v 0.578090 -0.004566 0.071756
v 0.577095 -0.004830 0.071355
v 0.577094 -0.005412 0.071480
v 0.577447 -0.006441 0.070489
v 0.576073 -0.006837 0.069976
v 0.576236 -0.006477 0.069532
v 0.576171 -0.007364 0.070208
v 0.575933 -0.006414 0.067674
v 0.574979 -0.006645 0.067732
v 0.574694 -0.007158 0.069634
v 0.574662 -0.006892 0.069195
v 0.575060 -0.008472 0.068451
v 0.574675 -0.007657 0.069768
v 0.575141 -0.009323 0.068806
v 0.574611 -0.010132 0.069101
v 0.575042 -0.009550 0.069632
v 0.573481 -0.012434 0.069998
v 0.571999 -0.013805 0.070534
v 0.572855 -0.013805 0.070534
v 0.574586 -0.011386 0.069623
v 0.573478 -0.013811 0.070515
v 0.575039 -0.014357 0.071577
v 0.575646 -0.013680 0.071578
v 0.575436 -0.011953 0.070207
v 0.575153 -0.010706 0.070280
v 0.575036 -0.010250 0.070451
v 0.574626 -0.009869 0.072527
v 0.574696 -0.009866 0.072793
v 0.574740 -0.009746 0.072245
v 0.576194 -0.009305 0.072505
v 0.575113 -0.010170 0.070451
v 0.577949 -0.009289 0.070666
v 0.577945 -0.009135 0.070514
v 0.582057 -0.000133 0.081420
v 0.583202 0.001035 0.080744
v 0.581735 0.000631 0.081520
v 0.581811 -0.000481 0.081511
v 0.581893 -0.000743 0.081408
v 0.582255 -0.001176 0.081075
v 0.582201 -0.000710 0.080534
v 0.582314 -0.000481 0.079733
v 0.582447 0.000284 0.079975
v 0.583202 -0.001747 0.080153
v 0.582201 0.000455 0.079617
v 0.582192 -0.000172 0.079614
v 0.582188 -0.000856 0.079178
v 0.582191 0.000918 0.079215
v 0.581735 -0.002609 0.080009
v 0.582057 -0.002750 0.079251
v 0.581811 -0.002945 0.078948
v 0.583499 0.000051 0.078534
v 0.582447 -0.001247 0.079201
v 0.581893 -0.002928 0.078668
v 0.582201 -0.002086 0.078429
v 0.582314 -0.001253 0.078399
v 0.582255 -0.002744 0.078153
v 0.581679 -0.002716 0.077116
v 0.583202 -0.002044 0.077324
v 0.581735 -0.002174 0.076460
v 0.581811 -0.001268 0.075813
v 0.582057 -0.001496 0.076092
v 0.581893 -0.000996 0.075743
v 0.582447 -0.000985 0.077506
v 0.582201 -0.000509 0.076470
v 0.582201 -0.000912 0.077896
v 0.582314 -0.000223 0.077252
v 0.582255 -0.000450 0.075758
v 0.581679 0.000545 0.075465
v 0.583202 0.000554 0.076168
v 0.581735 0.001336 0.075778
v 0.581811 0.002231 0.076439
v 0.582057 0.001895 0.076308
v 0.581893 0.002382 0.076676
v 0.582255 0.002536 0.077200
v 0.582201 0.001842 0.077364
v 0.582314 0.001186 0.077878
v 0.582447 0.000709 0.077232
v 0.582188 0.000299 0.077450
v 0.583202 0.002457 0.078282
v 0.582187 0.000916 0.077858
v 0.582194 -0.000383 0.077508
v 0.582183 0.001157 0.078490
v 0.582192 -0.001063 0.078516
v 0.582314 0.001026 0.079410
v 0.582447 0.001493 0.078758
v 0.582057 0.002738 0.079601
v 0.582255 0.002088 0.080486
v 0.582200 0.001718 0.079876
v 0.581893 0.002540 0.080177
v 0.581811 0.002717 0.079961
v 0.581735 0.003070 0.078905
v 0.571537 0.013516 0.070381
v 0.571999 0.013907 0.070534
v 0.572855 0.013907 0.070534
v 0.573481 0.012536 0.069998
v 0.574490 0.010999 0.069410
v 0.574834 0.011754 0.069813
v 0.575153 0.010797 0.070270
v 0.573506 0.013940 0.070588
v 0.575435 0.012048 0.070203
v 0.574527 0.014197 0.071060
v 0.575645 0.013774 0.071570
v 0.575035 0.014456 0.071571
v 0.574221 0.014735 0.072180
v 0.579260 0.004008 0.084912
v 0.579336 0.003836 0.085341
v 0.579246 0.004433 0.084572
v 0.579721 0.003515 0.087083
v 0.578276 0.004278 0.085682
v 0.578103 0.004665 0.085307
v 0.579336 0.005004 0.084544
v 0.577406 0.004305 0.087413
v 0.577338 0.004391 0.087457
v 0.577095 0.004932 0.085714
v 0.579721 0.006743 0.084882
v 0.026499 0.006326 0.067666
v 0.026499 0.000051 0.065984
v 0.026499 0.010920 0.072259
v 0.574899 0.006326 0.067666
v 0.574899 0.000051 0.065984
v 0.574899 0.010920 0.072259
v 0.574899 -0.006224 0.067666
v 0.574899 -0.012499 0.078534
v 0.026499 0.012601 0.078534
v 0.574899 0.012601 0.078534
v 0.574899 -0.010818 0.072259
v 0.026499 -0.006224 0.067666
v 0.026499 -0.010818 0.072259
v 0.026499 -0.012499 0.078534
v 0.574899 0.010920 0.084809
v 0.026499 0.010920 0.084809
v 0.574899 0.006326 0.089403
v 0.026499 0.006326 0.089403
v 0.574899 0.000051 0.091084
v 0.026499 0.000051 0.091084
v 0.026499 -0.010818 0.084809
v 0.574899 -0.010818 0.084809
v 0.574899 -0.006224 0.089403
v 0.026499 -0.006224 0.089403
vt 0.074101 0.996001
vt 0.074101 0.996001
vt 0.074101 0.996001
vt 0.074101 0.996001
vt 0.074101 0.996001
vt 0.074101 0.996001
vt 0.074101 0.996001
vt 0.074101 0.996001
vt 0.074101 0.996001
vt 0.074101 0.996001
vt 0.074101 0.996001
vt 0.074101 0.996001
vt 0.074101 0.996001
vt 0.074101 0.996001
vt 0.074101 0.996001
vt 0.074101 0.996001
vt 0.074101 0.996001
vt 0.074101 0.996001
vt 0.074101 0.996001
vt 0.074101 0.996001
vt 0.074101 0.996001
vt 0.074101 0.996001
vt 0.074101 0.996001
vt 0.074101 0.996001
vt 0.074101 0.996001
vt 0.074101 0.996001
vt 0.074101 0.996001
vt 0.074101 0.996001
vt 0.074101 0.996001
vt 0.074101 0.996001
vt 0.074101 0.996001
vt 0.074101 0.996001
vt 0.074101 0.996001
vt 0.074101 0.996001
vt 0.074101 0.996001
vt 0.074101 0.996001
vt 0.074101 0.996001
vt 0.074101 0.996001
vt 0.074101 0.996001
vt 0.074101 0.996001
vt 0.074101 0.996001
vt 0.074101 0.996001
vt 0.074101 0.996001
vt 0.074101 0.996001
vt 0.074101 0.996001
vt 0.074101 0.996001
vt 0.074101 0.996001
vt 0.074101 0.996001
vt 0.074101 0.996001
vt 0.074101 0.996001
vt 0.074101 0.996001
vt 0.074101 0.996001
vt 0.074101 0.996001
vt 0.074101 0.996001
vt 0.074101 0.996001
vt 0.074101 0.996001
vt 0.074101 0.996001
vt 0.074101 0.996001
vt 0.074101 0.996001
vt 0.074101 0.996001
vt 0.074101 0.996001
vt 0.074101 0.996001
vt 0.074101 0.996001
vt 0.074101 0.996001
vt 0.074101 0.996001
vt 0.074101 0.996001
vt 0.074101 0.996001
vt 0.074101 0.996001
vt 0.074101 0.996001
vt 0.074101 0.996001
vt 0.074101 0.996001
vt 0.074101 0.996001
vt 0.074101 0.996001
vt 0.074101 0.996001
vt 0.074101 0.996001
vt 0.074101 0.996001
vt 0.074101 0.996001
vt 0.074101 0.996001
vt 0.074101 0.996001
vt 0.074101 0.996001
vt 0.074101 0.996001
vt 0.074101 0.996001
vt 0.074101 0.996001
vt 0.074101 0.996001
vt 0.074101 0.996001
vt 0.074101 0.996001
vt 0.074101 0.996001
vt 0.074101 0.996001
vt 0.074101 0.996001
vt 0.074101 0.996001
vt 0.074101 0.996001
vt 0.074101 0.996001
vt 0.074101 0.996001
vt 0.074101 0.996001
vt 0.074101 0.996001
vt 0.074101 0.996001
vt 0.074101 0.996001
vt 0.074101 0.996001
vt 0.074101 0.996001
vt 0.074101 0.996001
vt 0.074101 0.996001
vt 0.074101 0.996001
vt 0.074101 0.996001
vt 0.074101 0.996001
vt 0.074101 0.996001
vt 0.074101 0.996001
vt 0.074101 0.996001
vt 0.074101 0.996001
vt 0.074101 0.996001
vt 0.074101 0.996001
vt 0.074101 0.996001
vt 0.074101 0.996001
vt 0.074101 0.996001
vt 0.074101 0.996001
vt 0.074101 0.996001
vt 0.074101 0.996001
vt 0.074101 0.996001
vt 0.074101 0.996001
vt 0.074101 0.996001
vt 0.074101 0.996001
vt 0.074101 0.996001
vt 0.074101 0.996001
vt 0.074101 0.996001
vt 0.074101 0.996001
vt 0.074101 0.996001
vt 0.074101 0.996001
vt 0.074101 0.996001
vt 0.074101 0.996001
vt 0.074101 0.996001
vt 0.074101 0.996001
vt 0.074101 0.996001
vt 0.074101 0.996001
vt 0.074101 0.996001
vt 0.074101 0.996001
vt 0.074101 0.996001
vt 0.074101 0.996001
vt 0.074101 0.996001
vt 0.074101 0.996001
vt 0.074101 0.996001
vt 0.074101 0.996001
vt 0.074101 0.996001
vt 0.074101 0.996001
vt 0.074101 0.996001
vt 0.074101 0.996001
vt 0.074101 0.996001
vt 0.074101 0.996001
vt 0.074101 0.996001
vt 0.074101 0.996001
vt 0.074101 0.996001
vt 0.074101 0.996001
vt 0.074101 0.996001
vt 0.074101 0.996001
vt 0.074101 0.996001
vt 0.074101 0.996001
vt 0.074101 0.996001
vt 0.074101 0.996001
vt 0.074101 0.996001
vt 0.074101 0.996001
vt 0.074101 0.996001
vt 0.074101 0.996001
vt 0.074101 0.996001
vt 0.074101 0.996001
vt 0.074101 0.996001
vt 0.074101 0.996001
vt 0.074101 0.996001
vt 0.074101 0.996001
vt 0.074101 0.996001
vt 0.074101 0.996001
vt 0.074101 0.996001
vt 0.074101 0.996001
vt 0.074101 0.996001
vt 0.074101 0.996001
vt 0.074101 0.996001
vt 0.074101 0.996001
vt 0.074101 0.996001
vt 0.074101 0.996001
vt 0.074101 0.996001
vt 0.074101 0.996001
vt 0.074101 0.996001
vt 0.074101 0.996001
vt 0.074101 0.996001
vt 0.074101 0.996001
vt 0.074101 0.996001
vt 0.074101 0.996001
vt 0.074101 0.996001
vt 0.074101 0.996001
vt 0.074101 0.996001
vt 0.074101 0.996001
vt 0.074101 0.996001
vt 0.074101 0.996001
vt 0.074101 0.996001
vt 0.074101 0.996001
vt 0.074101 0.996001
vt 0.074101 0.996001
vt 0.074101 0.996001
vt 0.074101 0.996001
vt 0.074101 0.996001
vt 0.074101 0.996001
vt 0.074101 0.996001
vt 0.074101 0.996001
vt 0.074101 0.996001
vt 0.074101 0.996001
vt 0.074101 0.996001
vt 0.074101 0.996001
vt 0.074101 0.996001
vt 0.074101 0.996001
vt 0.074101 0.996001
vt 0.074101 0.996001
vt 0.074101 0.996001
vt 0.074101 0.996001
vt 0.074101 0.996001
vt 0.074101 0.996001
vt 0.074101 0.996001
vt 0.074101 0.996001
vt 0.074101 0.996001
vt 0.074101 0.996001
vt 0.074101 0.996001
vt 0.074101 0.996001
vt 0.074101 0.996001
vt 0.074101 0.996001
vt 0.074101 0.996001
vt 0.074101 0.996001
vt 0.074101 0.996001
vt 0.074101 0.996001
vt 0.074101 0.996001
vt 0.074101 0.996001
vt 0.074101 0.996001
vt 0.074101 0.996001
vt 0.074101 0.996001
vt 0.074101 0.996001
vt 0.074101 0.996001
vt 0.074101 0.996001
vt 0.074101 0.996001
vt 0.074101 0.996001
vt 0.074101 0.996001
vt 0.074101 0.996001
vt 0.074101 0.996001
vt 0.074101 0.996001
vt 0.074101 0.996001
vt 0.074101 0.996001
vt 0.074101 0.996001
vt 0.074101 0.996001
vt 0.074101 0.996001
vt 0.074101 0.996001
vt 0.074101 0.996001
vt 0.074101 0.996001
vt 0.074101 0.996001
vt 0.074101 0.996001
vt 0.074101 0.996001
vt 0.074101 0.996001
vt 0.074101 0.996001
vt 0.074101 0.996001
vt 0.074101 0.996001
vt 0.074101 0.996001
vt 0.074101 0.996001
vt 0.074101 0.996001
vt 0.074101 0.996001
vt 0.074101 0.996001
vt 0.074101 0.996001
vt 0.074101 0.996001
vt 0.074101 0.996001
vt 0.074101 0.996001
vt 0.074101 0.996001
vt 0.074101 0.996001
vt 0.074101 0.996001
vt 0.074101 0.996001
vt 0.074101 0.996001
vt 0.074101 0.996001
vt 0.074101 0.996001
vt 0.074101 0.996001
vt 0.074101 0.996001
vt 0.074101 0.996001
vt 0.074101 0.996001
vt 0.074101 0.996001
vt 0.074101 0.996001
vt 0.074101 0.996001
vt 0.074101 0.996001
vt 0.074101 0.996001
vt 0.074101 0.996001
vt 0.074101 0.996001
vt 0.074101 0.996001
vt 0.074101 0.996001
vt 0.074101 0.996001
vt 0.074101 0.996001
vt 0.074101 0.996001
vt 0.074101 0.996001
vt 0.074101 0.996001
vt 0.074101 0.996001
vt 0.074101 0.996001
vt 0.074101 0.996001
vt 0.074101 0.996001
vt 0.074101 0.996001
vt 0.074101 0.996001
vt 0.074101 0.996001
vt 0.074101 0.996001
vt 0.074101 0.996001
vt 0.074101 0.996001
vt 0.074101 0.996001
vt 0.074101 0.996001
vt 0.074101 0.996001
vt 0.074101 0.996001
vt 0.074101 0.996001
vt 0.074101 0.996001
vt 0.074101 0.996001
vt 0.074101 0.996001
vt 0.074101 0.996001
vt 0.074101 0.996001
vt 0.074101 0.996001
vt 0.074101 0.996001
vt 0.074101 0.996001
vt 0.074101 0.996001
vt 0.074101 0.996001
vt 0.074101 0.996001
vt 0.074101 0.996001
vt 0.074101 0.996001
vt 0.074101 0.996001
vt 0.074101 0.996001
vt 0.074101 0.996001
vt 0.074101 0.996001
vt 0.074101 0.996001
vt 0.074101 0.996001
vt 0.074101 0.996001
vt 0.074101 0.996001
vt 0.074101 0.996001
vt 0.074101 0.996001
vt 0.074101 0.996001
vt 0.074101 0.996001
vt 0.074101 0.996001
vt 0.074101 0.996001
vt 0.074101 0.996001
vt 0.074101 0.996001
vt 0.074101 0.996001
vt 0.074101 0.996001
vt 0.074101 0.996001
vt 0.074101 0.996001
vt 0.074101 0.996001
vt 0.074101 0.996001
vt 0.074101 0.996001
vt 0.074101 0.996001
vt 0.074101 0.996001
vt 0.074101 0.996001
vt 0.074101 0.996001
vt 0.074101 0.996001
vt 0.074101 0.996001
vt 0.074101 0.996001
vt 0.074101 0.996001
vt 0.074101 0.996001
vt 0.074101 0.996001
vt 0.074101 0.996001
vt 0.074101 0.996001
vt 0.074101 0.996001
vt 0.074101 0.996001
vt 0.074101 0.996001
vt 0.074101 0.996001
vt 0.074101 0.996001
vt 0.074101 0.996001
vt 0.074101 0.996001
vt 0.074101 0.996001
vt 0.074101 0.996001
vt 0.074101 0.996001
vt 0.074101 0.996001
vt 0.074101 0.996001
vt 0.074101 0.996001
vt 0.074101 0.996001
vt 0.074101 0.996001
vt 0.074101 0.996001
vt 0.074101 0.996001
vt 0.074101 0.996001
vt 0.074101 0.996001
vt 0.074101 0.996001
vt 0.074101 0.996001
vt 0.074101 0.996001
vt 0.074101 0.996001
vt 0.074101 0.996001
vt 0.074101 0.996001
vt 0.074101 0.996001
vt 0.074101 0.996001
vt 0.074101 0.996001
vt 0.074101 0.996001
vt 0.074101 0.996001
vt 0.074101 0.996001
vt 0.074101 0.996001
vt 0.074101 0.996001
vt 0.074101 0.996001
vt 0.074101 0.996001
vt 0.074101 0.996001
vt 0.074101 0.996001
vt 0.074101 0.996001
vt 0.074101 0.996001
vt 0.074101 0.996001
vt 0.074101 0.996001
vt 0.074101 0.996001
vt 0.074101 0.996001
vt 0.074101 0.996001
vt 0.074101 0.996001
vt 0.074101 0.996001
vt 0.074101 0.996001
vt 0.074101 0.996001
vt 0.074101 0.996001
vt 0.074101 0.996001
vt 0.074101 0.996001
vt 0.074101 0.996001
vt 0.074101 0.996001
vt 0.074101 0.996001
vt 0.074101 0.996001
vt 0.074101 0.996001
vt 0.074101 0.996001
vt 0.074101 0.996001
vt 0.074101 0.996001
vt 0.074101 0.996001
vt 0.074101 0.996001
vt 0.074101 0.996001
vt 0.074101 0.996001
vt 0.074101 0.996001
vt 0.074101 0.996001
vt 0.074101 0.996001
vt 0.074101 0.996001
vt 0.074101 0.996001
vt 0.074101 0.996001
vt 0.074101 0.996001
vt 0.074101 0.996001
vt 0.074101 0.996001
vt 0.074101 0.996001
vt 0.074101 0.996001
vt 0.074101 0.996001
vt 0.074101 0.996001
vt 0.074101 0.996001
vt 0.074101 0.996001
vt 0.074101 0.996001
vt 0.074101 0.996001
vt 0.074101 0.996001
vt 0.074101 0.996001
vt 0.074101 0.996001
vt 0.074101 0.996001
vt 0.074101 0.996001
vt 0.074101 0.996001
vt 0.074101 0.996001
vt 0.074101 0.996001
vt 0.074101 0.996001
vt 0.074101 0.996001
vt 0.074101 0.996001
vt 0.074101 0.996001
vt 0.074101 0.996001
vt 0.074101 0.996001
vt 0.074101 0.996001
vt 0.074101 0.996001
vt 0.074101 0.996001
vt 0.074101 0.996001
vt 0.074101 0.996001
vt 0.074101 0.996001
vt 0.074101 0.996001
vt 0.074101 0.996001
vt 0.074101 0.996001
vt 0.074101 0.996001
vt 0.074101 0.996001
vt 0.074101 0.996001
vt 0.074101 0.996001
vt 0.074101 0.996001
vt 0.074101 0.996001
vt 0.074101 0.996001
vt 0.074101 0.996001
vt 0.074101 0.996001
vt 0.074101 0.996001
vt 0.074101 0.996001
vt 0.074101 0.996001
vt 0.074101 0.996001
vt 0.074101 0.996001
vt 0.074101 0.996001
vt 0.074101 0.996001
vt 0.074101 0.996001
vt 0.074101 0.996001
vt 0.074101 0.996001
vt 0.074101 0.996001
vt 0.074101 0.996001
vt 0.074101 0.996001
vt 0.074101 0.996001
vt 0.074101 0.996001
vt 0.074101 0.996001
vt 0.074101 0.996001
vt 0.074101 0.996001
vt 0.074101 0.996001
vt 0.074101 0.996001
vt 0.074101 0.996001
vt 0.074101 0.996001
vt 0.074101 0.996001
vt 0.074101 0.996001
vt 0.074101 0.996001
vt 0.074101 0.996001
vt 0.074101 0.996001
vt 0.074101 0.996001
vt 0.074101 0.996001
vt 0.074101 0.996001
vt 0.074101 0.996001
vt 0.074101 0.996001
vt 0.074101 0.996001
vt 0.074101 0.996001
vt 0.074101 0.996001
vt 0.074101 0.996001
vt 0.074101 0.996001
vt 0.074101 0.996001
vt 0.074101 0.996001
vt 0.074101 0.996001
vt 0.074101 0.996001
vt 0.074101 0.996001
vt 0.074101 0.996001
vt 0.074101 0.996001
vt 0.074101 0.996001
vt 0.074101 0.996001
vt 0.074101 0.996001
vt 0.074101 0.996001
vt 0.074101 0.996001
vt 0.074101 0.996001
vt 0.074101 0.996001
vt 0.074101 0.996001
vt 0.074101 0.996001
vt 0.074101 0.996001
vt 0.074101 0.996001
vt 0.074101 0.996001
vt 0.074101 0.996001
vt 0.074101 0.996001
vt 0.074101 0.996001
vt 0.074101 0.996001
vt 0.074101 0.996001
vt 0.074101 0.996001
vt 0.074101 0.996001
vt 0.074101 0.996001
vt 0.074101 0.996001
vt 0.074101 0.996001
vt 0.074101 0.996001
vt 0.074101 0.996001
vt 0.074101 0.996001
vt 0.074101 0.996001
vt 0.074101 0.996001
vt 0.074101 0.996001
vt 0.074101 0.996001
vt 0.074101 0.996001
vt 0.074101 0.996001
vt 0.074101 0.996001
vt 0.074101 0.996001
vt 0.074101 0.996001
vt 0.074101 0.996001
vt 0.074101 0.996001
vt 0.074101 0.996001
vt 0.074101 0.996001
vt 0.074101 0.996001
vt 0.074101 0.996001
vt 0.074101 0.996001
vt 0.074101 0.996001
vt 0.074101 0.996001
vt 0.074101 0.996001
vt 0.074101 0.996001
vt 0.074101 0.996001
vt 0.074101 0.996001
vt 0.074101 0.996001
vt 0.074101 0.996001
vt 0.074101 0.996001
vt 0.074101 0.996001
vt 0.074101 0.996001
vt 0.074101 0.996001
vt 0.074101 0.996001
vt 0.074101 0.996001
vt 0.074101 0.996001
vt 0.074101 0.996001
vt 0.074101 0.996001
vt 0.074101 0.996001
vt 0.074101 0.996001
vt 0.074101 0.996001
vt 0.074101 0.996001
vt 0.074101 0.996001
vt 0.074101 0.996001
vt 0.074101 0.996001
vt 0.074101 0.996001
vt 0.074101 0.996001
vt 0.074101 0.996001
vt 0.074101 0.996001
vt 0.074101 0.996001
vt 0.074101 0.996001
vt 0.074101 0.996001
vt 0.074101 0.996001
vt 0.074101 0.996001
vt 0.074101 0.996001
vt 0.074101 0.996001
vt 0.074101 0.996001
vt 0.074101 0.996001
vt 0.074101 0.996001
vt 0.074101 0.996001
vt 0.074101 0.996001
vt 0.074101 0.996001
vt 0.074101 0.996001
vt 0.074101 0.996001
vt 0.074101 0.996001
vt 0.074101 0.996001
vt 0.074101 0.996001
vt 0.074101 0.996001
vt 0.074101 0.996001
vt 0.074101 0.996001
vt 0.074101 0.996001
vt 0.074101 0.996001
vt 0.074101 0.996001
vt 0.074101 0.996001
vt 0.074101 0.996001
vt 0.074101 0.996001
vt 0.074101 0.996001
vt 0.074101 0.996001
vt 0.074101 0.996001
vt 0.074101 0.996001
vt 0.074101 0.996001
vt 0.074101 0.996001
vt 0.074101 0.996001
vt 0.074101 0.996001
vt 0.074101 0.996001
vt 0.074101 0.996001
vt 0.074101 0.996001
vt 0.074101 0.996001
vt 0.074101 0.996001
vt 0.074101 0.996001
vt 0.074101 0.996001
vt 0.074101 0.996001
vt 0.074101 0.996001
vt 0.074101 0.996001
vt 0.074101 0.996001
vt 0.074101 0.996001
vt 0.074101 0.996001
vt 0.074101 0.996001
vt 0.074101 0.996001
vt 0.074101 0.996001
vt 0.074101 0.996001
vt 0.074101 0.996001
vt 0.074101 0.996001
vt 0.074101 0.996001
vt 0.074101 0.996001
vt 0.074101 0.996001
vt 0.074101 0.996001
vt 0.074101 0.996001
vt 0.074101 0.996001
vt 0.074101 0.996001
vt 0.074101 0.996001
vt 0.074101 0.996001
vt 0.074101 0.996001
vt 0.074101 0.996001
vt 0.074101 0.996001
vt 0.074101 0.996001
vt 0.074101 0.996001
vt 0.074101 0.996001
vt 0.074101 0.996001
vt 0.074101 0.996001
vt 0.074101 0.996001
vt 0.074101 0.996001
vt 0.074101 0.996001
vt 0.074101 0.996001
vt 0.074101 0.996001
vt 0.074101 0.996001
vt 0.074101 0.996001
vt 0.074101 0.996001
vt 0.074101 0.996001
vt 0.074101 0.996001
vt 0.074101 0.996001
vt 0.074101 0.996001
vt 0.074101 0.996001
vt 0.074101 0.996001
vt 0.074101 0.996001
vt 0.074101 0.996001
vt 0.074101 0.996001
vt 0.074101 0.996001
vt 0.074101 0.996001
vt 0.074101 0.996001
vt 0.074101 0.996001
vt 0.074101 0.996001
vt 0.074101 0.996001
vt 0.074101 0.996001
vt 0.074101 0.996001
vt 0.074101 0.996001
vt 0.074101 0.996001
vt 0.074101 0.996001
vt 0.074101 0.996001
vt 0.074101 0.996001
vt 0.074101 0.996001
vt 0.074101 0.996001
vt 0.074101 0.996001
vt 0.074101 0.996001
vt 0.074101 0.996001
vt 0.074101 0.996001
vt 0.074101 0.996001
vt 0.074101 0.996001
vt 0.074101 0.996001
vt 0.074101 0.996001
vt 0.074101 0.996001
vt 0.074101 0.996001
vt 0.074101 0.996001
vt 0.074101 0.996001
vt 0.074101 0.996001
vt 0.074101 0.996001
vt 0.074101 0.996001
vt 0.074101 0.996001
vt 0.074101 0.996001
vt 0.074101 0.996001
vt 0.074101 0.996001
vt 0.074101 0.996001
vt 0.074101 0.996001
vt 0.074101 0.996001
vt 0.074101 0.996001
vt 0.074101 0.996001
vt 0.074101 0.996001
vt 0.074101 0.996001
vt 0.074101 0.996001
vt 0.074101 0.996001
vt 0.074101 0.996001
vt 0.074101 0.996001
vt 0.074101 0.996001
vt 0.074101 0.996001
vt 0.074101 0.996001
vt 0.074101 0.996001
vt 0.074101 0.996001
vt 0.074101 0.996001
vt 0.074101 0.996001
vt 0.074101 0.996001
vt 0.074101 0.996001
vt 0.074101 0.996001
vt 0.074101 0.996001
vt 0.074101 0.996001
vt 0.074101 0.996001
vt 0.074101 0.996001
vt 0.074101 0.996001
vt 0.074101 0.996001
vt 0.074101 0.996001
vt 0.074101 0.996001
vt 0.074101 0.996001
vt 0.074101 0.996001
vt 0.074101 0.996001
vt 0.074101 0.996001
vt 0.074101 0.996001
vt 0.074101 0.996001
vt 0.074101 0.996001
vt 0.074101 0.996001
vt 0.074101 0.996001
vt 0.074101 0.996001
vt 0.074101 0.996001
vt 0.074101 0.996001
vt 0.074101 0.996001
vt 0.074101 0.996001
vt 0.074101 0.996001
vt 0.074101 0.996001
vt 0.074101 0.996001
vt 0.074101 0.996001
vt 0.074101 0.996001
vt 0.074101 0.996001
vt 0.074101 0.996001
vt 0.074101 0.996001
vt 0.074101 0.996001
vt 0.074101 0.996001
vt 0.074101 0.996001
vt 0.074101 0.996001
vt 0.074101 0.996001
vt 0.074101 0.996001
vt 0.074101 0.996001
vt 0.074101 0.996001
vt 0.074101 0.996001
vt 0.074101 0.996001
vt 0.074101 0.996001
vt 0.074101 0.996001
vt 0.074101 0.996001
vt 0.074101 0.996001
vt 0.074101 0.996001
vt 0.074101 0.996001
vt 0.074101 0.996001
vt 0.074101 0.996001
vt 0.074101 0.996001
vt 0.074101 0.996001
vt 0.074101 0.996001
vt 0.074101 0.996001
vt 0.074101 0.996001
vt 0.074101 0.996001
vt 0.074101 0.996001
vt 0.074101 0.996001
vt 0.074101 0.996001
vt 0.074101 0.996001
vt 0.074101 0.996001
vt 0.074101 0.996001
vt 0.074101 0.996001
vt 0.074101 0.996001
vt 0.074101 0.996001
vt 0.074101 0.996001
vt 0.074101 0.996001
vt 0.074101 0.996001
vt 0.074101 0.996001
vt 0.074101 0.996001
vt 0.074101 0.996001
vt 0.074101 0.996001
vt 0.074101 0.996001
vt 0.074101 0.996001
vt 0.074101 0.996001
vt 0.074101 0.996001
vt 0.074101 0.996001
vt 0.074101 0.996001
vt 0.074101 0.996001
vt 0.074101 0.996001
vt 0.074101 0.996001
vt 0.074101 0.996001
vt 0.074101 0.996001
vt 0.074101 0.996001
vt 0.074101 0.996001
vt 0.074101 0.996001
vt 0.074101 0.996001
vt 0.074101 0.996001
vt 0.074101 0.996001
vt 0.074101 0.996001
vt 0.074101 0.996001
vt 0.074101 0.996001
vt 0.074101 0.996001
vt 0.074101 0.996001
vt 0.074101 0.996001
vt 0.074101 0.996001
vt 0.074101 0.996001
vt 0.074101 0.996001
vt 0.074101 0.996001
vt 0.074101 0.996001
vt 0.074101 0.996001
vt 0.074101 0.996001
vt 0.074101 0.996001
vt 0.074101 0.996001
vt 0.074101 0.996001
vt 0.074101 0.996001
vt 0.074101 0.996001
vt 0.074101 0.996001
vt 0.074101 0.996001
vt 0.074101 0.996001
vt 0.074101 0.996001
vt 0.074101 0.996001
vt 0.074101 0.996001
vt 0.074101 0.996001
vt 0.074101 0.996001
vt 0.074101 0.996001
vt 0.074101 0.996001
vt 0.074101 0.996001
vt 0.074101 0.996001
vt 0.074101 0.996001
vt 0.074101 0.996001
vt 0.074101 0.996001
vt 0.074101 0.996001
vt 0.074101 0.996001
vt 0.074101 0.996001
vt 0.074101 0.996001
vt 0.074101 0.996001
vt 0.074101 0.996001
vt 0.074101 0.996001
vt 0.074101 0.996001
vt 0.074101 0.996001
vt 0.074101 0.996001
vt 0.074101 0.996001
vt 0.074101 0.996001
vt 0.074101 0.996001
vt 0.074101 0.996001
vt 0.074101 0.996001
vt 0.074101 0.996001
vt 0.074101 0.996001
vt 0.074101 0.996001
vt 0.074101 0.996001
vt 0.074101 0.996001
vt 0.074101 0.996001
vt 0.074101 0.996001
vt 0.074101 0.996001
vt 0.074101 0.996001
vt 0.074101 0.996001
vt 0.074101 0.996001
vt 0.074101 0.996001
vt 0.074101 0.996001
vt 0.074101 0.996001
vt 0.074101 0.996001
vt 0.074101 0.996001
vt 0.074101 0.996001
vt 0.074101 0.996001
vt 0.074101 0.996001
vt 0.074101 0.996001
vt 0.074101 0.996001
vt 0.074101 0.996001
vt 0.074101 0.996001
vt 0.074101 0.996001
vt 0.074101 0.996001
vt 0.074101 0.996001
vt 0.074101 0.996001
vt 0.074101 0.996001
vt 0.074101 0.996001
vt 0.074101 0.996001
vt 0.074101 0.996001
vt 0.074101 0.996001
vt 0.074101 0.996001
vt 0.074101 0.996001
vt 0.074101 0.996001
f 1/1 2/2 3/3
f 3/3 4/4 1/1
f 2/2 5/5 3/3
f 4/4 3/3 6/6
f 6/6 3/3 7/7
f 7/7 3/3 5/5
f 8/8 4/4 6/6
f 7/7 9/9 6/6
f 6/6 9/9 8/8
f 9/9 7/7 10/10
f 11/11 10/10 7/7
f 9/9 10/10 12/12
f 12/12 8/8 9/9
f 13/13 10/10 11/11
f 10/10 13/13 12/12
f 11/11 7/7 14/14
f 5/5 14/14 7/7
f 13/13 11/11 14/14
f 8/8 12/12 15/15
f 15/15 12/12 16/16
f 16/16 12/12 13/13
f 8/8 15/15 17/17
f 16/16 17/17 15/15
f 8/8 17/17 18/18
f 18/18 4/4 8/8
f 16/16 19/19 17/17
f 18/18 17/17 19/19
f 20/20 16/16 13/13
f 4/4 18/18 21/21
f 4/4 21/21 1/1
f 22/22 21/21 18/18
f 1/1 21/21 23/23
f 23/23 21/21 22/22
f 23/23 24/24 1/1
f 1/1 24/24 25/25
f 24/24 23/23 26/26
f 25/25 27/27 1/1
f 27/27 2/2 1/1
f 24/24 28/28 25/25
f 26/26 28/28 24/24
f 26/26 23/23 29/29
f 22/22 29/29 23/23
f 28/28 26/26 30/30
f 29/29 31/31 26/26
f 26/26 31/31 30/30
f 32/32 31/31 29/29
f 32/32 29/29 22/22
f 33/33 30/30 31/31
f 31/31 32/32 33/33
f 28/28 30/30 34/34
f 30/30 33/33 34/34
f 28/28 35/35 25/25
f 34/34 35/35 28/28
f 22/22 36/36 32/32
f 25/25 35/35 37/37
f 37/37 38/38 25/25
f 27/27 25/25 38/38
f 35/35 39/39 37/37
f 40/40 38/38 37/37
f 39/39 40/40 37/37
f 27/27 38/38 41/41
f 38/38 40/40 41/41
f 41/41 42/42 27/27
f 2/2 27/27 42/42
f 42/42 41/41 43/43
f 42/42 44/44 2/2
f 43/43 44/44 42/42
f 44/44 45/45 2/2
f 5/5 2/2 45/45
f 46/46 44/44 43/43
f 45/45 44/44 46/46
f 47/47 43/43 41/41
f 41/41 40/40 47/47
f 48/48 43/43 47/47
f 43/43 48/48 46/46
f 40/40 49/49 47/47
f 5/5 45/45 50/50
f 51/51 47/47 49/49
f 47/47 51/51 48/48
f 52/52 49/49 40/40
f 51/51 49/49 52/52
f 48/48 51/51 53/53
f 52/52 53/53 51/51
f 46/46 48/48 53/53
f 53/53 54/54 46/46
f 53/53 55/55 54/54
f 55/55 53/53 52/52
f 56/56 46/46 54/54
f 56/56 54/54 55/55
f 57/57 45/45 46/46
f 57/57 46/46 56/56
f 45/45 57/57 58/58
f 58/58 50/50 45/45
f 50/50 14/14 5/5
f 50/50 58/58 59/59
f 60/60 14/14 50/50
f 50/50 59/59 60/60
f 58/58 61/61 59/59
f 60/60 59/59 61/61
f 58/58 57/57 62/62
f 61/61 58/58 63/63
f 62/62 63/63 58/58
f 63/63 64/64 61/61
f 64/64 60/60 61/61
f 65/65 63/63 62/62
f 63/63 65/65 64/64
f 57/57 66/66 62/62
f 66/66 57/57 56/56
f 67/67 62/62 66/66
f 62/62 67/67 65/65
f 67/67 66/66 68/68
f 56/56 68/68 66/66
f 65/65 67/67 69/69
f 68/68 69/69 67/67
f 70/70 64/64 65/65
f 71/71 64/64 70/70
f 71/71 60/60 64/64
f 72/72 70/70 65/65
f 69/69 72/72 65/65
f 70/70 72/72 71/71
f 69/69 68/68 73/73
f 72/72 69/69 73/73
f 56/56 74/74 68/68
f 73/73 68/68 74/74
f 75/75 74/74 56/56
f 73/73 74/74 76/76
f 76/76 74/74 75/75
f 56/56 77/77 75/75
f 55/55 77/77 56/56
f 75/75 78/78 76/76
f 79/79 75/75 77/77
f 78/78 75/75 79/79
f 77/77 80/80 79/79
f 55/55 80/80 77/77
f 79/79 81/81 78/78
f 80/80 81/81 79/79
f 76/76 78/78 82/82
f 78/78 81/81 82/82
f 83/83 81/81 80/80
f 82/82 81/81 83/83
f 80/80 55/55 84/84
f 80/80 84/84 83/83
f 84/84 55/55 52/52
f 82/82 85/85 76/76
f 76/76 85/85 73/73
f 83/83 86/86 82/82
f 85/85 82/82 87/87
f 86/86 87/87 82/82
f 85/85 88/88 73/73
f 83/83 84/84 89/89
f 90/90 85/85 87/87
f 85/85 90/90 88/88
f 73/73 88/88 91/91
f 84/84 52/52 92/92
f 84/84 92/92 89/89
f 89/89 93/93 83/83
f 86/86 83/83 93/93
f 93/93 94/94 86/86
f 93/93 89/89 95/95
f 93/93 95/95 94/94
f 96/96 89/89 92/92
f 96/96 95/95 89/89
f 52/52 97/97 92/92
f 96/96 92/92 97/97
f 94/94 98/98 86/86
f 98/98 94/94 95/95
f 86/86 98/98 99/99
f 97/97 52/52 100/100
f 40/40 100/100 52/52
f 100/100 40/40 39/39
f 98/98 95/95 101/101
f 101/101 99/99 98/98
f 87/87 86/86 99/99
f 102/102 101/101 95/95
f 102/102 95/95 96/96
f 100/100 39/39 103/103
f 104/104 103/103 39/39
f 103/103 105/105 100/100
f 100/100 105/105 97/97
f 106/106 103/103 104/104
f 103/103 106/106 105/105
f 39/39 107/107 104/104
f 104/104 107/107 106/106
f 39/39 35/35 107/107
f 97/97 105/105 108/108
f 108/108 96/96 97/97
f 105/105 106/106 108/108
f 102/102 96/96 108/108
f 35/35 109/109 107/107
f 109/109 35/35 34/34
f 110/110 107/107 109/109
f 107/107 110/110 106/106
f 111/111 109/109 34/34
f 109/109 111/111 110/110
f 112/112 111/111 34/34
f 111/111 113/113 110/110
f 111/111 112/112 113/113
f 34/34 33/33 112/112
f 113/113 114/114 110/110
f 114/114 106/106 110/110
f 112/112 115/115 113/113
f 116/116 112/112 33/33
f 116/116 115/115 112/112
f 33/33 117/117 116/116
f 116/116 117/117 115/115
f 118/118 113/113 115/115
f 118/118 114/114 113/113
f 119/119 115/115 117/117
f 115/115 119/119 118/118
f 117/117 33/33 120/120
f 121/121 120/120 33/33
f 33/33 32/32 121/121
f 120/120 122/122 117/117
f 122/122 120/120 121/121
f 117/117 123/123 119/119
f 123/123 117/117 122/122
f 32/32 36/36 121/121
f 119/119 124/124 118/118
f 123/123 124/124 119/119
f 125/125 122/122 121/121
f 121/121 36/36 125/125
f 122/122 126/126 123/123
f 126/126 122/122 125/125
f 124/124 123/123 127/127
f 123/123 126/126 128/128
f 127/127 123/123 128/128
f 125/125 129/129 126/126
f 129/129 128/128 126/126
f 36/36 130/130 125/125
f 129/129 125/125 130/130
f 130/130 36/36 131/131
f 22/22 131/131 36/36
f 18/18 131/131 22/22
f 128/128 129/129 132/132
f 133/133 131/131 18/18
f 19/19 133/133 18/18
f 130/130 131/131 134/134
f 131/131 133/133 134/134
f 130/130 135/135 129/129
f 135/135 130/130 134/134
f 136/136 132/132 129/129
f 129/129 135/135 136/136
f 137/137 128/128 132/132
f 137/137 132/132 136/136
f 128/128 137/137 127/127
f 138/138 134/134 133/133
f 133/133 19/19 138/138
f 134/134 139/139 135/135
f 139/139 136/136 135/135
f 139/139 134/134 140/140
f 140/140 134/134 138/138
f 136/136 139/139 141/141
f 142/142 139/139 140/140
f 141/141 139/139 142/142
f 138/138 143/143 140/140
f 140/140 143/143 142/142
f 143/143 138/138 144/144
f 145/145 142/142 143/143
f 143/143 144/144 145/145
f 146/146 144/144 138/138
f 146/146 138/138 19/19
f 144/144 146/146 147/147
f 146/146 19/19 147/147
f 142/142 145/145 148/148
f 149/149 145/145 144/144
f 145/145 149/149 148/148
f 147/147 149/149 144/144
f 150/150 142/142 148/148
f 150/150 148/148 149/149
f 142/142 150/150 141/141
f 149/149 151/151 150/150
f 141/141 150/150 151/151
f 149/149 147/147 152/152
f 153/153 147/147 19/19
f 154/154 147/147 153/153
f 154/154 152/152 147/147
f 19/19 155/155 153/153
f 19/19 16/16 155/155
f 156/156 154/154 153/153
f 153/153 155/155 156/156
f 155/155 16/16 157/157
f 155/155 157/157 156/156
f 16/16 20/20 157/157
f 158/158 154/154 156/156
f 152/152 154/154 158/158
f 156/156 157/157 159/159
f 20/20 159/159 157/157
f 159/159 158/158 156/156
f 159/159 20/20 160/160
f 159/159 160/160 158/158
f 20/20 161/161 160/160
f 161/161 20/20 13/13
f 161/161 13/13 162/162
f 162/162 13/13 14/14
f 163/163 161/161 162/162
f 160/160 161/161 163/163
f 14/14 164/164 162/162
f 162/162 164/164 163/163
f 14/14 60/60 164/164
f 164/164 165/165 163/163
f 164/164 60/60 165/165
f 163/163 166/166 160/160
f 163/163 165/165 166/166
f 60/60 167/167 165/165
f 166/166 165/165 167/167
f 60/60 71/71 167/167
f 167/167 168/168 166/166
f 169/169 167/167 71/71
f 169/169 168/168 167/167
f 169/169 71/71 170/170
f 72/72 170/170 71/71
f 171/171 169/169 170/170
f 168/168 169/169 171/171
f 72/72 172/172 170/170
f 170/170 172/172 171/171
f 166/166 168/168 173/173
f 72/72 174/174 172/172
f 175/175 171/171 172/172
f 175/175 172/172 174/174
f 171/171 176/176 168/168
f 171/171 175/175 176/176
f 177/177 173/173 168/168
f 177/177 168/168 176/176
f 173/173 178/178 166/166
f 160/160 166/166 178/178
f 173/173 177/177 179/179
f 178/178 180/180 160/160
f 158/158 160/160 180/180
f 181/181 178/178 173/173
f 182/182 173/173 179/179
f 182/182 181/181 173/173
f 178/178 181/181 183/183
f 178/178 183/183 180/180
f 184/184 181/181 182/182
f 181/181 184/184 183/183
f 179/179 185/185 182/182
f 185/185 184/184 182/182
f 185/185 179/179 186/186
f 177/177 186/186 179/179
f 177/177 187/187 186/186
f 186/186 188/188 185/185
f 186/186 187/187 188/188
f 189/189 184/184 185/185
f 188/188 189/189 185/185
f 183/183 184/184 190/190
f 190/190 180/180 183/183
f 184/184 191/191 190/190
f 184/184 189/189 191/191
f 180/180 190/190 192/192
f 190/190 193/193 192/192
f 191/191 193/193 190/190
f 192/192 194/194 180/180
f 193/193 194/194 192/192
f 194/194 195/195 180/180
f 180/180 195/195 158/158
f 194/194 193/193 196/196
f 196/196 195/195 194/194
f 193/193 191/191 197/197
f 193/193 198/198 196/196
f 195/195 196/196 199/199
f 198/198 199/199 196/196
f 200/200 158/158 195/195
f 152/152 158/158 200/200
f 193/193 201/201 198/198
f 193/193 197/197 201/201
f 199/199 198/198 202/202
f 200/200 203/203 152/152
f 149/149 152/152 203/203
f 202/202 204/204 199/199
f 195/195 199/199 204/204
f 198/198 205/205 202/202
f 201/201 205/205 198/198
f 195/195 206/206 200/200
f 195/195 204/204 206/206
f 202/202 205/205 207/207
f 202/202 207/207 204/204
f 208/208 207/207 205/205
f 205/205 201/201 208/208
f 209/209 204/204 207/207
f 207/207 210/210 209/209
f 207/207 208/208 210/210
f 209/209 211/211 204/204
f 210/210 212/212 209/209
f 211/211 209/209 212/212
f 204/204 211/211 213/213
f 213/213 206/206 204/204
f 211/211 212/212 214/214
f 212/212 210/210 215/215
f 215/215 214/214 212/212
f 210/210 216/216 215/215
f 208/208 216/216 210/210
f 215/215 217/217 214/214
f 216/216 217/217 215/215
f 211/211 214/214 218/218
f 218/218 213/213 211/211
f 219/219 214/214 217/217
f 220/220 218/218 214/214
f 214/214 219/219 220/220
f 217/217 216/216 221/221
f 219/219 217/217 221/221
f 221/221 216/216 222/222
f 219/219 221/221 223/223
f 221/221 222/222 223/223
f 216/216 224/224 222/222
f 223/223 225/225 219/219
f 222/222 226/226 223/223
f 223/223 226/226 225/225
f 219/219 225/225 227/227
f 227/227 220/220 219/219
f 228/228 225/225 226/226
f 229/229 226/226 222/222
f 222/222 224/224 229/229
f 228/228 226/226 230/230
f 226/226 229/229 230/230
f 231/231 225/225 228/228
f 225/225 231/231 227/227
f 230/230 232/232 228/228
f 231/231 228/228 232/232
f 232/232 230/230 233/233
f 234/234 231/231 232/232
f 233/233 234/234 232/232
f 231/231 235/235 227/227
f 231/231 234/234 235/235
f 230/230 236/236 233/233
f 229/229 236/236 230/230
f 233/233 237/237 234/234
f 236/236 237/237 233/233
f 237/237 238/238 234/234
f 237/237 236/236 239/239
f 238/238 237/237 239/239
f 234/234 238/238 240/240
f 240/240 235/235 234/234
f 238/238 239/239 241/241
f 239/239 236/236 242/242
f 242/242 241/241 239/239
f 236/236 243/243 242/242
f 241/241 242/242 244/244
f 242/242 245/245 244/244
f 243/243 245/245 242/242
f 244/244 246/246 241/241
f 245/245 246/246 244/244
f 238/238 241/241 247/247
f 247/247 240/240 238/238
f 248/248 247/247 241/241
f 246/246 249/249 241/241
f 241/241 249/249 248/248
f 246/246 245/245 250/250
f 250/250 251/251 246/246
f 246/246 251/251 249/249
f 245/245 252/252 250/250
f 251/251 250/250 253/253
f 252/252 253/253 250/250
f 245/245 254/254 252/252
f 245/245 243/243 254/254
f 253/253 252/252 255/255
f 251/251 253/253 256/256
f 255/255 256/256 253/253
f 252/252 257/257 255/255
f 254/254 257/257 252/252
f 255/255 257/257 258/258
f 255/255 258/258 256/256
f 257/257 254/254 259/259
f 259/259 258/258 257/257
f 251/251 256/256 260/260
f 260/260 249/249 251/251
f 261/261 260/260 256/256
f 262/262 256/256 258/258
f 262/262 263/263 256/256
f 256/256 263/263 261/261
f 262/262 258/258 264/264
f 263/263 262/262 265/265
f 264/264 265/265 262/262
f 258/258 266/266 264/264
f 258/258 259/259 266/266
f 265/265 264/264 267/267
f 263/263 265/265 268/268
f 267/267 268/268 265/265
f 264/264 269/269 267/267
f 266/266 269/269 264/264
f 267/267 270/270 268/268
f 269/269 270/270 267/267
f 263/263 268/268 271/271
f 271/271 261/261 263/263
f 272/272 268/268 270/270
f 270/270 269/269 273/273
f 272/272 270/270 273/273
f 273/273 269/269 274/274
f 268/268 272/272 275/275
f 275/275 271/271 268/268
f 272/272 273/273 276/276
f 273/273 274/274 276/276
f 274/274 188/188 276/276
f 276/276 187/187 272/272
f 276/276 188/188 187/187
f 277/277 188/188 274/274
f 269/269 278/278 274/274
f 274/274 278/278 277/277
f 269/269 266/266 278/278
f 272/272 187/187 279/279
f 279/279 275/275 272/272
f 176/176 279/279 187/187
f 187/187 177/177 176/176
f 279/279 176/176 280/280
f 281/281 279/279 280/280
f 275/275 279/279 281/281
f 282/282 280/280 176/176
f 176/176 175/175 282/282
f 174/174 282/282 175/175
f 282/282 283/283 280/280
f 280/280 283/283 281/281
f 283/283 282/282 284/284
f 174/174 284/284 282/282
f 281/281 283/283 285/285
f 283/283 284/284 285/285
f 281/281 285/285 286/286
f 281/281 287/287 275/275
f 287/287 281/281 286/286
f 286/286 285/285 288/288
f 285/285 284/284 288/288
f 286/286 289/289 287/287
f 288/288 289/289 286/286
f 275/275 287/287 290/290
f 289/289 290/290 287/287
f 290/290 291/291 275/275
f 271/271 275/275 291/291
f 290/290 289/289 292/292
f 292/292 289/289 293/293
f 289/289 288/288 293/293
f 292/292 294/294 290/290
f 290/290 295/295 291/291
f 295/295 290/290 294/294
f 296/296 271/271 291/291
f 291/291 295/295 296/296
f 293/293 297/297 292/292
f 294/294 292/292 297/297
f 298/298 296/296 295/295
f 295/295 294/294 298/298
f 296/296 299/299 271/271
f 296/296 298/298 300/300
f 299/299 296/296 300/300
f 300/300 298/298 301/301
f 298/298 294/294 301/301
f 300/300 302/302 299/299
f 300/300 301/301 302/302
f 271/271 299/299 303/303
f 302/302 303/303 299/299
f 261/261 271/271 303/303
f 297/297 304/304 294/294
f 303/303 305/305 261/261
f 304/304 297/297 306/306
f 305/305 303/303 307/307
f 302/302 307/307 303/303
f 261/261 305/305 308/308
f 308/308 260/260 261/261
f 294/294 304/304 309/309
f 304/304 306/306 309/309
f 309/309 310/310 294/294
f 294/294 310/310 301/301
f 310/310 311/311 301/301
f 311/311 302/302 301/301
f 312/312 310/310 309/309
f 311/311 310/310 312/312
f 313/313 309/309 306/306
f 309/309 313/313 312/312
f 306/306 314/314 313/313
f 313/313 315/315 312/312
f 315/315 313/313 314/314
f 312/312 315/315 316/316
f 316/316 315/315 314/314
f 312/312 317/317 311/311
f 318/318 314/314 306/306
f 306/306 319/319 318/318
f 319/319 306/306 297/297
f 319/319 297/297 293/293
f 293/293 320/320 319/319
f 318/318 319/319 320/320
f 320/320 293/293 288/288
f 321/321 314/314 318/318
f 320/320 321/321 318/318
f 314/314 321/321 322/322
f 314/314 322/322 316/316
f 323/323 321/321 320/320
f 320/320 288/288 323/323
f 321/321 324/324 322/322
f 324/324 321/321 323/323
f 316/316 322/322 325/325
f 325/325 322/322 324/324
f 325/325 326/326 316/316
f 316/316 327/327 312/312
f 327/327 317/317 312/312
f 316/316 326/326 328/328
f 327/327 316/316 328/328
f 329/329 328/328 326/326
f 326/326 325/325 330/330
f 330/330 331/331 326/326
f 326/326 331/331 329/329
f 325/325 332/332 330/330
f 324/324 332/332 325/325
f 332/332 333/333 330/330
f 333/333 331/331 330/330
f 334/334 332/332 324/324
f 334/334 333/333 332/332
f 324/324 335/335 334/334
f 336/336 335/335 324/324
f 333/333 334/334 337/337
f 324/324 323/323 336/336
f 334/334 335/335 338/338
f 337/337 334/334 338/338
f 338/338 335/335 339/339
f 336/336 339/339 335/335
f 338/338 340/340 337/337
f 341/341 333/333 337/337
f 341/341 337/337 340/340
f 339/339 342/342 338/338
f 338/338 342/342 340/340
f 343/343 339/339 336/336
f 344/344 342/342 339/339
f 339/339 343/343 344/344
f 345/345 342/342 344/344
f 343/343 346/346 344/344
f 345/345 344/344 346/346
f 336/336 347/347 343/343
f 342/342 345/345 348/348
f 340/340 342/342 348/348
f 90/90 346/346 343/343
f 343/343 347/347 90/90
f 87/87 345/345 346/346
f 87/87 346/346 90/90
f 345/345 87/87 349/349
f 345/345 349/349 348/348
f 349/349 87/87 350/350
f 350/350 348/348 349/349
f 350/350 87/87 99/99
f 90/90 347/347 351/351
f 350/350 99/99 352/352
f 348/348 350/350 352/352
f 101/101 352/352 99/99
f 352/352 353/353 348/348
f 351/351 88/88 90/90
f 353/353 352/352 354/354
f 101/101 354/354 352/352
f 353/353 355/355 348/348
f 355/355 353/353 354/354
f 340/340 348/348 355/355
f 355/355 356/356 340/340
f 354/354 356/356 355/355
f 357/357 340/340 356/356
f 340/340 357/357 341/341
f 356/356 358/358 357/357
f 358/358 341/341 357/357
f 354/354 358/358 356/356
f 358/358 359/359 341/341
f 358/358 354/354 360/360
f 359/359 358/358 360/360
f 361/361 360/360 354/354
f 361/361 354/354 101/101
f 359/359 360/360 362/362
f 361/361 362/362 360/360
f 363/363 341/341 359/359
f 333/333 341/341 363/363
f 363/363 331/331 333/333
f 363/363 359/359 364/364
f 362/362 364/364 359/359
f 363/363 365/365 331/331
f 365/365 363/363 364/364
f 366/366 364/364 362/362
f 364/364 366/366 365/365
f 367/367 366/366 362/362
f 367/367 365/365 366/366
f 367/367 331/331 365/365
f 362/362 361/361 367/367
f 329/329 331/331 367/367
f 367/367 361/361 368/368
f 367/367 369/369 329/329
f 367/367 368/368 370/370
f 370/370 369/369 367/367
f 371/371 370/370 368/368
f 371/371 368/368 361/361
f 370/370 372/372 369/369
f 372/372 370/370 371/371
f 369/369 373/373 329/329
f 373/373 369/369 372/372
f 371/371 374/374 372/372
f 373/373 372/372 374/374
f 375/375 371/371 361/361
f 373/373 376/376 329/329
f 376/376 328/328 329/329
f 327/327 328/328 376/376
f 371/371 377/377 374/374
f 377/377 371/371 375/375
f 378/378 373/373 374/374
f 378/378 374/374 377/377
f 373/373 379/379 376/376
f 379/379 373/373 378/378
f 376/376 380/380 327/327
f 376/376 379/379 380/380
f 381/381 377/377 375/375
f 377/377 381/381 378/378
f 381/381 382/382 378/378
f 382/382 381/381 375/375
f 383/383 379/379 378/378
f 382/382 384/384 378/378
f 384/384 383/383 378/378
f 380/380 379/379 385/385
f 379/379 383/383 385/385
f 385/385 386/386 380/380
f 327/327 380/380 386/386
f 385/385 383/383 387/387
f 387/387 386/386 385/385
f 387/387 383/383 384/384
f 386/386 388/388 327/327
f 317/317 327/327 388/388
f 386/386 387/387 389/389
f 389/389 388/388 386/386
f 384/384 390/390 387/387
f 389/389 387/387 390/390
f 388/388 391/391 317/317
f 388/388 389/389 391/391
f 317/317 391/391 392/392
f 311/311 317/317 392/392
f 393/393 391/391 389/389
f 393/393 389/389 390/390
f 392/392 391/391 394/394
f 394/394 391/391 393/393
f 392/392 395/395 311/311
f 394/394 395/395 392/392
f 302/302 311/311 395/395
f 395/395 394/394 396/396
f 395/395 396/396 302/302
f 396/396 397/397 302/302
f 397/397 307/307 302/302
f 397/397 396/396 398/398
f 398/398 396/396 394/394
f 307/307 397/397 398/398
f 398/398 394/394 399/399
f 393/393 399/399 394/394
f 307/307 398/398 399/399
f 399/399 393/393 400/400
f 399/399 401/401 307/307
f 400/400 401/401 399/399
f 307/307 401/401 402/402
f 401/401 403/403 402/402
f 403/403 401/401 400/400
f 404/404 307/307 402/402
f 305/305 307/307 404/404
f 404/404 308/308 305/305
f 400/400 393/393 405/405
f 402/402 406/406 404/404
f 403/403 406/406 402/402
f 404/404 407/407 308/308
f 407/407 404/404 406/406
f 393/393 390/390 405/405
f 408/408 308/308 407/407
f 409/409 407/407 406/406
f 407/407 409/409 408/408
f 406/406 403/403 410/410
f 410/410 409/409 406/406
f 308/308 408/408 411/411
f 411/411 260/260 308/308
f 249/249 260/260 411/411
f 408/408 412/412 411/411
f 249/249 411/411 412/412
f 409/409 412/412 408/408
f 412/412 413/413 249/249
f 249/249 413/413 414/414
f 413/413 412/412 415/415
f 409/409 415/415 412/412
f 248/248 249/249 414/414
f 414/414 413/413 416/416
f 413/413 415/415 416/416
f 414/414 417/417 248/248
f 418/418 417/417 414/414
f 416/416 418/418 414/414
f 248/248 417/417 419/419
f 418/418 420/420 417/417
f 420/420 419/419 417/417
f 421/421 418/418 416/416
f 420/420 418/418 421/421
f 422/422 248/248 419/419
f 247/247 248/248 422/422
f 423/423 247/247 422/422
f 419/419 424/424 422/422
f 422/422 424/424 423/423
f 420/420 425/425 419/419
f 424/424 419/419 425/425
f 240/240 247/247 423/423
f 423/423 424/424 426/426
f 424/424 425/425 426/426
f 426/426 427/427 423/423
f 428/428 426/426 425/425
f 427/427 426/426 428/428
f 427/427 429/429 423/423
f 423/423 429/429 240/240
f 427/427 430/430 429/429
f 240/240 429/429 431/431
f 430/430 431/431 429/429
f 430/430 427/427 432/432
f 428/428 432/432 427/427
f 431/431 430/430 433/433
f 434/434 428/428 425/425
f 430/430 432/432 435/435
f 433/433 430/430 435/435
f 435/435 432/432 436/436
f 437/437 432/432 428/428
f 437/437 436/436 432/432
f 438/438 428/428 434/434
f 428/428 438/438 437/437
f 439/439 434/434 425/425
f 438/438 434/434 439/439
f 440/440 437/437 438/438
f 436/436 437/437 440/440
f 440/440 441/441 436/436
f 435/435 436/436 442/442
f 435/435 442/442 433/433
f 436/436 441/441 443/443
f 443/443 442/442 436/436
f 441/441 440/440 444/444
f 441/441 444/444 443/443
f 438/438 445/445 440/440
f 445/445 444/444 440/440
f 446/446 445/445 438/438
f 438/438 439/439 446/446
f 444/444 445/445 447/447
f 448/448 443/443 444/444
f 447/447 448/448 444/444
f 445/445 449/449 447/447
f 449/449 445/445 446/446
f 450/450 448/448 447/447
f 443/443 448/448 451/451
f 451/451 448/448 450/450
f 442/442 443/443 452/452
f 452/452 443/443 451/451
f 447/447 453/453 450/450
f 453/453 447/447 449/449
f 450/450 454/454 451/451
f 455/455 450/450 453/453
f 454/454 450/450 455/455
f 453/453 456/456 455/455
f 455/455 456/456 457/457
f 458/458 456/456 453/453
f 458/458 457/457 456/456
f 449/449 458/458 453/453
f 459/459 455/455 457/457
f 455/455 459/459 454/454
f 458/458 459/459 457/457
f 451/451 454/454 460/460
f 454/454 459/459 461/461
f 461/461 460/460 454/454
f 451/451 460/460 462/462
f 462/462 452/452 451/451
f 463/463 460/460 461/461
f 462/462 460/460 463/463
f 459/459 464/464 461/461
f 464/464 459/459 458/458
f 465/465 463/463 461/461
f 461/461 464/464 466/466
f 465/465 461/461 467/467
f 466/466 467/467 461/461
f 468/468 466/466 464/464
f 469/469 465/465 467/467
f 465/465 469/469 463/463
f 470/470 468/468 464/464
f 464/464 458/458 470/470
f 471/471 466/466 468/468
f 471/471 468/468 470/470
f 467/467 466/466 472/472
f 466/466 471/471 472/472
f 467/467 473/473 469/469
f 473/473 467/467 472/472
f 474/474 470/470 458/458
f 470/470 475/475 471/471
f 475/475 470/470 474/474
f 474/474 458/458 476/476
f 449/449 476/476 458/458
f 474/474 477/477 475/475
f 478/478 471/471 475/475
f 478/478 475/475 477/477
f 474/474 479/479 477/477
f 476/476 479/479 474/474
f 478/478 477/477 480/480
f 479/479 480/480 477/477
f 471/471 478/478 481/481
f 472/472 471/471 481/481
f 482/482 478/478 480/480
f 478/478 482/482 481/481
f 480/480 483/483 482/482
f 480/480 479/479 484/484
f 484/484 483/483 480/480
f 483/483 485/485 482/482
f 484/484 485/485 483/483
f 102/102 482/482 485/485
f 482/482 102/102 481/481
f 486/486 485/485 484/484
f 485/485 486/486 102/102
f 487/487 484/484 479/479
f 484/484 488/488 486/486
f 484/484 487/487 488/488
f 489/489 487/487 479/479
f 479/479 476/476 489/489
f 488/488 487/487 490/490
f 489/489 491/491 487/487
f 491/491 490/490 487/487
f 492/492 489/489 476/476
f 491/491 489/489 492/492
f 493/493 492/492 476/476
f 476/476 449/449 493/493
f 492/492 494/494 491/491
f 494/494 492/492 493/493
f 495/495 490/490 491/491
f 491/491 494/494 495/495
f 488/488 490/490 495/495
f 449/449 446/446 493/493
f 493/493 496/496 494/494
f 446/446 496/496 493/493
f 497/497 495/495 494/494
f 494/494 496/496 497/497
f 488/488 495/495 497/497
f 496/496 446/446 498/498
f 497/497 496/496 498/498
f 499/499 498/498 446/446
f 499/499 446/446 439/439
f 498/498 500/500 497/497
f 498/498 499/499 500/500
f 497/497 501/501 488/488
f 500/500 502/502 497/497
f 497/497 502/502 501/501
f 503/503 500/500 499/499
f 439/439 504/504 499/499
f 499/499 504/504 503/503
f 504/504 439/439 505/505
f 439/439 425/425 505/505
f 425/425 420/420 505/505
f 505/505 506/506 504/504
f 506/506 503/503 504/504
f 507/507 505/505 420/420
f 505/505 507/507 506/506
f 506/506 507/507 503/503
f 421/421 507/507 420/420
f 508/508 500/500 503/503
f 502/502 500/500 508/508
f 509/509 503/503 507/507
f 509/509 507/507 421/421
f 503/503 509/509 508/508
f 508/508 509/509 510/510
f 421/421 510/510 509/509
f 510/510 502/502 508/508
f 510/510 421/421 511/511
f 511/511 421/421 416/416
f 512/512 502/502 510/510
f 416/416 415/415 511/511
f 501/501 502/502 512/512
f 513/513 510/510 511/511
f 513/513 511/511 415/415
f 510/510 513/513 512/512
f 415/415 514/514 513/513
f 415/415 515/515 514/514
f 415/415 409/409 515/515
f 516/516 514/514 515/515
f 515/515 409/409 516/516
f 516/516 409/409 517/517
f 516/516 517/517 514/514
f 410/410 517/517 409/409
f 513/513 514/514 518/518
f 518/518 514/514 517/517
f 518/518 512/512 513/513
f 517/517 410/410 519/519
f 519/519 410/410 403/403
f 517/517 520/520 518/518
f 519/519 520/520 517/517
f 518/518 521/521 512/512
f 521/521 518/518 520/520
f 403/403 522/522 519/519
f 522/522 520/520 519/519
f 400/400 522/522 403/403
f 521/521 520/520 523/523
f 520/520 522/522 523/523
f 522/522 400/400 524/524
f 522/522 524/524 523/523
f 405/405 524/524 400/400
f 525/525 524/524 405/405
f 523/523 524/524 525/525
f 523/523 526/526 521/521
f 512/512 521/521 527/527
f 526/526 527/527 521/521
f 512/512 527/527 528/528
f 528/528 501/501 512/512
f 528/528 527/527 529/529
f 529/529 527/527 526/526
f 501/501 528/528 530/530
f 529/529 530/530 528/528
f 531/531 501/501 530/530
f 488/488 501/501 531/531
f 526/526 532/532 529/529
f 533/533 488/488 531/531
f 486/486 488/488 533/533
f 530/530 534/534 531/531
f 533/533 531/531 534/534
f 535/535 486/486 533/533
f 102/102 486/486 535/535
f 533/533 536/536 535/535
f 535/535 536/536 102/102
f 537/537 533/533 534/534
f 533/533 537/537 536/536
f 538/538 534/534 530/530
f 530/530 529/529 538/538
f 538/538 539/539 534/534
f 534/534 539/539 537/537
f 540/540 538/538 529/529
f 538/538 540/540 539/539
f 529/529 532/532 540/540
f 541/541 539/539 540/540
f 541/541 540/540 532/532
f 537/537 539/539 541/541
f 541/541 532/532 526/526
f 537/537 542/542 536/536
f 542/542 537/537 543/543
f 541/541 543/543 537/537
f 544/544 536/536 542/542
f 544/544 102/102 536/536
f 102/102 544/544 101/101
f 542/542 545/545 544/544
f 545/545 542/542 543/543
f 544/544 546/546 101/101
f 545/545 546/546 544/544
f 547/547 545/545 543/543
f 545/545 547/547 546/546
f 547/547 543/543 541/541
f 546/546 548/548 101/101
f 548/548 361/361 101/101
f 548/548 375/375 361/361
f 548/548 546/546 549/549
f 375/375 548/548 550/550
f 549/549 550/550 548/548
f 375/375 550/550 551/551
f 551/551 382/382 375/375
f 551/551 550/550 552/552
f 382/382 551/551 553/553
f 552/552 553/553 551/551
f 550/550 554/554 552/552
f 554/554 550/550 549/549
f 553/553 552/552 554/554
f 553/553 384/384 382/382
f 555/555 549/549 546/546
f 547/547 555/555 546/546
f 556/556 554/554 549/549
f 556/556 549/549 555/555
f 555/555 547/547 557/557
f 557/557 556/556 555/555
f 541/541 557/557 547/547
f 556/556 557/557 558/558
f 557/557 541/541 558/558
f 554/554 556/556 559/559
f 558/558 559/559 556/556
f 541/541 560/560 558/558
f 526/526 560/560 541/541
f 560/560 526/526 523/523
f 558/558 560/560 561/561
f 523/523 561/561 560/560
f 561/561 559/559 558/558
f 525/525 561/561 523/523
f 559/559 561/561 525/525
f 525/525 562/562 559/559
f 559/559 563/563 554/554
f 563/563 559/559 562/562
f 563/563 553/553 554/554
f 525/525 564/564 562/562
f 564/564 563/563 562/562
f 405/405 564/564 525/525
f 563/563 565/565 553/553
f 565/565 563/563 564/564
f 565/565 564/564 405/405
f 384/384 553/553 565/565
f 405/405 390/390 565/565
f 565/565 390/390 384/384
f 566/566 567/567 568/568
f 567/567 566/566 569/569
f 569/569 566/566 570/570
f 566/566 568/568 571/571
f 571/571 570/570 566/566
f 570/570 572/572 569/569
f 570/570 571/571 573/573
f 572/572 574/574 569/569
f 569/569 574/574 567/567
f 572/572 570/570 575/575
f 573/573 575/575 570/570
f 574/574 572/572 576/576
f 573/573 571/571 577/577
f 567/567 574/574 578/578
f 579/579 575/575 573/573
f 575/575 580/580 572/572
f 580/580 575/575 579/579
f 581/581 572/572 580/580
f 572/572 581/581 576/576
f 579/579 582/582 580/580
f 573/573 583/583 579/579
f 577/577 583/583 573/573
f 584/584 582/582 579/579
f 582/582 585/585 580/580
f 585/585 582/582 584/584
f 585/585 581/581 580/580
f 579/579 586/586 584/584
f 586/586 579/579 583/583
f 587/587 584/584 586/586
f 583/583 588/588 586/586
f 584/584 587/587 589/589
f 584/584 589/589 585/585
f 586/586 590/590 587/587
f 590/590 586/586 588/588
f 587/587 590/590 591/591
f 592/592 589/589 587/587
f 591/591 592/592 587/587
f 585/585 589/589 593/593
f 589/589 592/592 593/593
f 594/594 592/592 591/591
f 593/593 592/592 594/594
f 595/595 591/591 590/590
f 590/590 588/588 595/595
f 591/591 595/595 596/596
f 596/596 597/597 591/591
f 591/591 597/597 594/594
f 596/596 595/595 598/598
f 599/599 595/595 588/588
f 599/599 598/598 595/595
f 598/598 600/600 596/596
f 597/597 596/596 600/600
f 599/599 601/601 598/598
f 600/600 598/598 601/601
f 602/602 597/597 600/600
f 597/597 602/602 603/603
f 603/603 594/594 597/597
f 604/604 602/602 600/600
f 603/603 602/602 604/604
f 601/601 605/605 600/600
f 600/600 605/605 604/604
f 604/604 606/606 603/603
f 603/603 607/607 594/594
f 607/607 603/603 606/606
f 608/608 594/594 607/607
f 608/608 593/593 594/594
f 607/607 609/609 608/608
f 593/593 608/608 610/610
f 610/610 608/608 609/609
f 607/607 611/611 609/609
f 610/610 612/612 593/593
f 613/613 607/607 606/606
f 611/611 607/607 613/613
f 609/609 614/614 610/610
f 615/615 609/609 611/611
f 609/609 615/615 614/614
f 615/615 611/611 616/616
f 617/617 610/610 614/614
f 612/612 610/610 617/617
f 614/614 615/615 618/618
f 617/617 619/619 612/612
f 614/614 620/620 617/617
f 618/618 620/620 614/614
f 617/617 621/621 619/619
f 621/621 617/617 620/620
f 612/612 619/619 622/622
f 622/622 619/619 621/621
f 623/623 621/621 620/620
f 621/621 623/623 622/622
f 620/620 618/618 623/623
f 624/624 612/612 622/622
f 624/624 593/593 612/612
f 622/622 623/623 625/625
f 625/625 624/624 622/622
f 623/623 618/618 625/625
f 626/626 593/593 624/624
f 585/585 593/593 626/626
f 585/585 626/626 627/627
f 581/581 585/585 627/627
f 624/624 628/628 626/626
f 628/628 624/624 625/625
f 629/629 627/627 626/626
f 628/628 630/630 626/626
f 631/631 629/629 626/626
f 626/626 630/630 631/631
f 632/632 629/629 631/631
f 629/629 632/632 627/627
f 633/633 631/631 630/630
f 630/630 628/628 634/634
f 634/634 633/633 630/630
f 635/635 634/634 628/628
f 628/628 625/625 635/635
f 633/633 634/634 636/636
f 636/636 634/634 635/635
f 631/631 633/633 637/637
f 636/636 637/637 633/633
f 631/631 637/637 632/632
f 632/632 637/637 638/638
f 636/636 638/638 637/637
f 638/638 627/627 632/632
f 635/635 114/114 636/636
f 114/114 638/638 636/636
f 114/114 635/635 106/106
f 635/635 625/625 106/106
f 627/627 638/638 639/639
f 639/639 581/581 627/627
f 639/639 638/638 640/640
f 640/640 638/638 114/114
f 581/581 639/639 641/641
f 641/641 639/639 640/640
f 641/641 576/576 581/581
f 640/640 642/642 641/641
f 576/576 641/641 643/643
f 641/641 642/642 644/644
f 644/644 643/643 641/641
f 645/645 644/644 642/642
f 640/640 645/645 642/642
f 644/644 645/645 646/646
f 645/645 640/640 647/647
f 647/647 646/646 645/645
f 647/647 640/640 114/114
f 644/644 646/646 648/648
f 648/648 646/646 647/647
f 648/648 643/643 644/644
f 649/649 576/576 643/643
f 643/643 648/648 649/649
f 576/576 649/649 650/650
f 650/650 574/574 576/576
f 650/650 578/578 574/574
f 649/649 651/651 650/650
f 578/578 650/650 651/651
f 652/652 649/649 648/648
f 651/651 649/649 652/652
f 648/648 653/653 652/652
f 652/652 653/653 654/654
f 652/652 654/654 651/651
f 648/648 655/655 653/653
f 647/647 655/655 648/648
f 653/653 655/655 656/656
f 653/653 656/656 654/654
f 657/657 655/655 647/647
f 655/655 657/657 656/656
f 114/114 657/657 647/647
f 654/654 656/656 658/658
f 657/657 658/658 656/656
f 114/114 659/659 657/657
f 658/658 660/660 654/654
f 661/661 654/654 660/660
f 654/654 661/661 651/651
f 660/660 658/658 662/662
f 657/657 663/663 658/658
f 663/663 662/662 658/658
f 663/663 657/657 664/664
f 664/664 657/657 659/659
f 664/664 665/665 663/663
f 665/665 664/664 659/659
f 666/666 663/663 665/665
f 663/663 666/666 662/662
f 662/662 667/667 660/660
f 661/661 660/660 667/667
f 666/666 668/668 662/662
f 662/662 668/668 669/669
f 669/669 667/667 662/662
f 668/668 666/666 670/670
f 670/670 666/666 665/665
f 670/670 671/671 668/668
f 669/669 668/668 671/671
f 136/136 669/669 671/671
f 669/669 136/136 141/141
f 136/136 671/671 137/137
f 137/137 671/671 670/670
f 141/141 672/672 669/669
f 667/667 669/669 672/672
f 673/673 672/672 141/141
f 672/672 674/674 667/667
f 672/672 673/673 674/674
f 674/674 661/661 667/667
f 151/151 673/673 141/141
f 675/675 674/674 673/673
f 673/673 151/151 675/675
f 661/661 674/674 676/676
f 676/676 674/674 675/675
f 677/677 661/661 676/676
f 651/651 661/661 677/677
f 675/675 678/678 676/676
f 676/676 678/678 677/677
f 679/679 675/675 151/151
f 678/678 675/675 680/680
f 679/679 680/680 675/675
f 679/679 151/151 681/681
f 681/681 680/680 679/679
f 149/149 681/681 151/151
f 203/203 681/681 149/149
f 682/682 677/677 678/678
f 678/678 680/680 682/682
f 683/683 681/681 203/203
f 681/681 683/683 680/680
f 203/203 684/684 683/683
f 684/684 203/203 200/200
f 200/200 206/206 684/684
f 683/683 684/684 685/685
f 206/206 685/685 684/684
f 685/685 686/686 683/683
f 680/680 683/683 686/686
f 680/680 686/686 685/685
f 685/685 206/206 687/687
f 685/685 687/687 680/680
f 687/687 206/206 213/213
f 688/688 680/680 687/687
f 682/682 680/680 688/688
f 213/213 689/689 687/687
f 688/688 687/687 689/689
f 690/690 689/689 213/213
f 691/691 682/682 688/688
f 677/677 682/682 691/691
f 692/692 688/688 689/689
f 689/689 690/690 692/692
f 690/690 213/213 218/218
f 693/693 688/688 692/692
f 691/691 688/688 693/693
f 690/690 694/694 692/692
f 695/695 677/677 691/691
f 677/677 695/695 651/651
f 578/578 651/651 695/695
f 696/696 695/695 691/691
f 696/696 578/578 695/695
f 693/693 696/696 691/691
f 578/578 696/696 567/567
f 696/696 693/693 567/567
f 693/693 568/568 567/567
f 692/692 568/568 693/693
f 692/692 694/694 568/568
f 697/697 568/568 694/694
f 571/571 568/568 697/697
f 694/694 690/690 698/698
f 698/698 697/697 694/694
f 218/218 698/698 690/690
f 571/571 697/697 577/577
f 698/698 218/218 699/699
f 698/698 699/699 697/697
f 697/697 699/699 700/700
f 700/700 577/577 697/697
f 701/701 699/699 218/218
f 699/699 701/701 700/700
f 218/218 702/702 701/701
f 703/703 700/700 701/701
f 577/577 700/700 703/703
f 701/701 702/702 703/703
f 702/702 218/218 220/220
f 704/704 577/577 703/703
f 583/583 577/577 704/704
f 588/588 583/583 704/704
f 705/705 703/703 702/702
f 703/703 705/705 704/704
f 702/702 220/220 705/705
f 588/588 704/704 706/706
f 706/706 704/704 705/705
f 588/588 706/706 599/599
f 706/706 705/705 707/707
f 220/220 707/707 705/705
f 707/707 599/599 706/706
f 707/707 708/708 599/599
f 708/708 707/707 220/220
f 601/601 599/599 708/708
f 708/708 220/220 709/709
f 709/709 220/220 227/227
f 601/601 708/708 710/710
f 708/708 709/709 710/710
f 709/709 227/227 711/711
f 711/711 710/710 709/709
f 711/711 227/227 235/235
f 712/712 601/601 710/710
f 712/712 710/710 711/711
f 601/601 712/712 605/605
f 235/235 713/713 711/711
f 712/712 711/711 713/713
f 713/713 714/714 712/712
f 605/605 712/712 714/714
f 715/715 713/713 235/235
f 714/714 716/716 605/605
f 713/713 717/717 714/714
f 713/713 715/715 717/717
f 716/716 714/714 717/717
f 718/718 715/715 235/235
f 235/235 240/240 718/718
f 719/719 717/717 715/715
f 720/720 718/718 240/240
f 240/240 431/431 720/720
f 715/715 718/718 721/721
f 719/719 715/715 721/721
f 722/722 718/718 720/720
f 722/722 721/721 718/718
f 431/431 723/723 720/720
f 720/720 723/723 722/722
f 723/723 431/431 433/433
f 724/724 721/721 722/722
f 724/724 719/719 721/721
f 725/725 722/722 723/723
f 725/725 724/724 722/722
f 433/433 725/725 723/723
f 724/724 725/725 726/726
f 725/725 433/433 726/726
f 727/727 719/719 724/724
f 724/724 726/726 727/727
f 433/433 728/728 726/726
f 729/729 728/728 433/433
f 433/433 442/442 729/729
f 452/452 729/729 442/442
f 729/729 730/730 728/728
f 730/730 729/729 452/452
f 730/730 726/726 728/728
f 731/731 727/727 726/726
f 726/726 730/730 731/731
f 731/731 732/732 727/727
f 452/452 733/733 730/730
f 734/734 731/731 730/730
f 730/730 733/733 734/734
f 732/732 731/731 734/734
f 462/462 733/733 452/452
f 733/733 735/735 734/734
f 734/734 735/735 732/732
f 733/733 462/462 736/736
f 736/736 735/735 733/733
f 737/737 727/727 732/732
f 727/727 737/737 719/719
f 732/732 735/735 738/738
f 735/735 736/736 739/739
f 739/739 738/738 735/735
f 740/740 736/736 462/462
f 739/739 736/736 740/740
f 462/462 741/741 740/740
f 463/463 741/741 462/462
f 742/742 737/737 732/732
f 738/738 742/742 732/732
f 743/743 719/719 737/737
f 737/737 742/742 743/743
f 717/717 719/719 743/743
f 716/716 717/717 743/743
f 463/463 744/744 741/741
f 744/744 463/463 469/469
f 745/745 743/743 742/742
f 743/743 745/745 716/716
f 742/742 746/746 745/745
f 746/746 742/742 738/738
f 747/747 716/716 745/745
f 746/746 747/747 745/745
f 738/738 748/748 746/746
f 747/747 746/746 748/748
f 748/748 738/738 749/749
f 716/716 747/747 750/750
f 750/750 605/605 716/716
f 750/750 604/604 605/605
f 604/604 750/750 751/751
f 751/751 750/750 747/747
f 751/751 606/606 604/604
f 747/747 752/752 751/751
f 752/752 606/606 751/751
f 748/748 752/752 747/747
f 753/753 606/606 752/752
f 753/753 752/752 748/748
f 748/748 749/749 753/753
f 606/606 753/753 613/613
f 613/613 753/753 754/754
f 754/754 753/753 749/749
f 754/754 755/755 613/613
f 611/611 613/613 755/755
f 755/755 616/616 611/611
f 749/749 756/756 754/754
f 757/757 616/616 755/755
f 615/615 616/616 757/757
f 615/615 757/757 618/618
f 618/618 757/757 758/758
f 757/757 755/755 758/758
f 618/618 758/758 625/625
f 755/755 754/754 759/759
f 754/754 756/756 759/759
f 755/755 760/760 758/758
f 759/759 760/760 755/755
f 625/625 758/758 761/761
f 761/761 758/758 760/760
f 762/762 760/760 759/759
f 760/760 762/762 761/761
f 756/756 762/762 759/759
f 763/763 761/761 762/762
f 761/761 764/764 625/625
f 761/761 763/763 764/764
f 762/762 765/765 763/763
f 765/765 762/762 756/756
f 764/764 763/763 765/765
f 481/481 625/625 764/764
f 625/625 481/481 106/106
f 481/481 108/108 106/106
f 481/481 102/102 108/108
f 764/764 766/766 481/481
f 766/766 767/767 481/481
f 767/767 472/472 481/481
f 766/766 768/768 767/767
f 472/472 767/767 473/473
f 473/473 767/767 768/768
f 764/764 769/769 766/766
f 765/765 769/769 764/764
f 766/766 769/769 770/770
f 770/770 771/771 473/473
f 772/772 473/473 771/771
f 772/772 469/469 473/473
f 771/771 770/770 773/773
f 771/771 773/773 772/772
f 769/769 773/773 770/770
f 744/744 469/469 772/772
f 773/773 744/744 772/772
f 773/773 769/769 774/774
f 773/773 774/774 744/744
f 769/769 765/765 774/774
f 774/774 775/775 744/744
f 774/774 765/765 775/775
f 775/775 776/776 744/744
f 744/744 776/776 777/777
f 741/741 744/744 777/777
f 777/777 740/740 741/741
f 778/778 777/777 776/776
f 778/778 776/776 775/775
f 779/779 740/740 777/777
f 777/777 778/778 779/779
f 740/740 779/779 739/739
f 775/775 780/780 778/778
f 779/779 778/778 780/780
f 780/780 775/775 765/765
f 779/779 780/780 739/739
f 739/739 780/780 781/781
f 780/780 765/765 782/782
f 782/782 781/781 780/780
f 739/739 781/781 782/782
f 756/756 782/782 765/765
f 756/756 749/749 782/782
f 782/782 749/749 739/739
f 749/749 738/738 739/739
f 783/783 784/784 785/785
f 784/784 277/277 785/785
f 277/277 278/278 785/785
f 786/786 785/785 278/278
f 785/785 786/786 783/783
f 266/266 786/786 278/278
f 787/787 786/786 266/266
f 786/786 787/787 783/783
f 266/266 788/788 787/787
f 789/789 783/783 787/787
f 789/789 787/787 788/788
f 788/788 266/266 259/259
f 790/790 783/783 789/789
f 789/789 788/788 790/790
f 783/783 790/790 791/791
f 784/784 783/783 791/791
f 259/259 792/792 788/788
f 790/790 788/788 792/792
f 791/791 793/793 784/784
f 793/793 791/791 790/790
f 790/790 794/794 793/793
f 790/790 795/795 794/794
f 790/790 792/792 795/795
f 794/794 796/796 793/793
f 792/792 259/259 797/797
f 259/259 254/254 797/797
f 798/798 792/792 797/797
f 799/799 797/797 254/254
f 797/797 799/799 798/798
f 243/243 799/799 254/254
f 796/796 794/794 800/800
f 794/794 795/795 800/800
f 801/801 795/795 792/792
f 792/792 798/798 801/801
f 802/802 799/799 243/243
f 799/799 802/802 798/798
f 803/803 798/798 802/802
f 798/798 804/804 801/801
f 804/804 798/798 803/803
f 795/795 801/801 804/804
f 803/803 802/802 805/805
f 243/243 805/805 802/802
f 803/803 805/805 804/804
f 805/805 243/243 806/806
f 236/236 806/806 243/243
f 236/236 229/229 806/806
f 806/806 807/807 805/805
f 804/804 805/805 807/807
f 806/806 229/229 808/808
f 807/807 806/806 808/808
f 809/809 808/808 229/229
f 810/810 807/807 808/808
f 808/808 809/809 810/810
f 224/224 809/809 229/229
f 811/811 809/809 224/224
f 809/809 811/811 810/810
f 807/807 810/810 812/812
f 813/813 810/810 811/811
f 812/812 814/814 807/807
f 804/804 807/807 814/814
f 810/810 815/815 812/812
f 815/815 810/810 813/813
f 814/814 812/812 815/815
f 813/813 811/811 816/816
f 224/224 816/816 811/811
f 813/813 816/816 815/815
f 816/816 224/224 817/817
f 216/216 817/817 224/224
f 216/216 208/208 817/817
f 817/817 818/818 816/816
f 815/815 816/816 818/818
f 817/817 208/208 819/819
f 818/818 817/817 819/819
f 820/820 819/819 208/208
f 201/201 820/820 208/208
f 821/821 818/818 819/819
f 819/819 820/820 821/821
f 822/822 820/820 201/201
f 820/820 822/822 821/821
f 201/201 823/823 822/822
f 824/824 821/821 822/822
f 824/824 822/822 823/823
f 823/823 201/201 197/197
f 825/825 821/821 824/824
f 824/824 823/823 825/825
f 818/818 821/821 826/826
f 821/821 825/825 826/826
f 826/826 827/827 818/818
f 815/815 818/818 827/827
f 827/827 826/826 825/825
f 197/197 828/828 823/823
f 825/825 823/823 828/828
f 825/825 829/829 827/827
f 815/815 827/827 830/830
f 815/815 830/830 814/814
f 825/825 831/831 829/829
f 825/825 828/828 831/831
f 827/827 829/829 800/800
f 830/830 827/827 800/800
f 829/829 831/831 800/800
f 830/830 832/832 814/814
f 832/832 830/830 800/800
f 804/804 814/814 832/832
f 804/804 832/832 795/795
f 795/795 832/832 800/800
f 831/831 796/796 800/800
f 833/833 796/796 831/831
f 833/833 793/793 796/796
f 834/834 831/831 828/828
f 831/831 834/834 833/833
f 833/833 784/784 793/793
f 828/828 835/835 834/834
f 835/835 833/833 834/834
f 833/833 836/836 784/784
f 277/277 784/784 836/836
f 837/837 836/836 833/833
f 833/833 835/835 837/837
f 836/836 189/189 277/277
f 188/188 277/277 189/189
f 837/837 838/838 836/836
f 837/837 835/835 838/838
f 189/189 836/836 838/838
f 838/838 839/839 189/189
f 839/839 838/838 835/835
f 189/189 839/839 191/191
f 840/840 839/839 835/835
f 839/839 840/840 191/191
f 835/835 828/828 840/840
f 197/197 191/191 840/840
f 828/828 197/197 840/840
f 659/659 114/114 841/841
f 841/841 114/114 118/118
f 842/842 841/841 118/118
f 124/124 842/842 118/118
f 843/843 842/842 124/124
f 842/842 843/843 844/844
f 841/841 842/842 844/844
f 841/841 844/844 659/659
f 659/659 844/844 845/845
f 659/659 845/845 665/665
f 844/844 846/846 845/845
f 847/847 665/665 845/845
f 847/847 845/845 846/846
f 665/665 847/847 670/670
f 846/846 844/844 848/848
f 137/137 670/670 847/847
f 846/846 849/849 847/847
f 137/137 847/847 849/849
f 846/846 848/848 850/850
f 846/846 850/850 849/849
f 137/137 849/849 851/851
f 851/851 849/849 850/850
f 851/851 127/127 137/137
f 852/852 850/850 848/848
f 850/850 852/852 851/851
f 127/127 851/851 852/852
f 853/853 852/852 848/848
f 852/852 853/853 127/127
f 127/127 853/853 124/124
f 284/284 854/854 855/855
f 288/288 284/284 855/855
f 854/854 284/284 856/856
f 855/855 857/857 288/288
f 323/323 288/288 857/857
f 855/855 854/854 858/858
f 855/855 858/858 857/857
f 284/284 174/174 856/856
f 859/859 854/854 856/856
f 859/859 858/858 854/854
f 860/860 856/856 174/174
f 857/857 861/861 323/323
f 861/861 857/857 858/858
f 861/861 862/862 323/323
f 336/336 323/323 862/862
f 862/862 347/347 336/336
f 862/862 351/351 347/347
f 862/862 861/861 351/351
f 858/858 351/351 861/861
f 863/863 351/351 858/858
f 858/858 859/859 863/863
f 88/88 351/351 863/863
f 91/91 88/88 863/863
f 863/863 859/859 91/91
f 856/856 91/91 859/859
f 91/91 856/856 860/860
f 864/864 91/91 860/860
f 174/174 864/864 860/860
f 91/91 864/864 73/73
f 72/72 864/864 174/174
f 73/73 864/864 72/72
f 865/865 866/866 867/867
f 868/868 865/865 867/867
f 868/868 869/869 865/865
f 869/869 866/866 865/865
f 870/870 868/868 867/867
f 869/869 871/871 866/866
f 872/872 868/868 870/870
f 872/872 869/869 868/868
f 870/870 867/867 873/873
f 867/867 866/866 873/873
f 872/872 870/870 874/874
f 874/874 870/870 873/873
f 875/875 871/871 869/869
f 872/872 875/875 869/869
f 871/871 876/876 866/866
f 871/871 875/875 876/876
f 866/866 876/876 873/873
f 875/875 877/877 876/876
f 876/876 877/877 873/873
f 875/875 872/872 877/877
f 877/877 878/878 873/873
f 872/872 878/878 877/877
f 879/879 874/874 873/873
f 880/880 879/879 873/873
f 878/878 880/880 873/873
f 881/881 879/879 880/880
f 878/878 882/882 880/880
f 882/882 881/881 880/880
f 881/881 883/883 879/879
f 883/883 881/881 882/882
f 879/879 883/883 874/874
f 878/878 884/884 882/882
f 884/884 883/883 882/882
f 878/878 872/872 885/885
f 878/878 885/885 884/884
f 886/886 872/872 874/874
f 872/872 886/886 885/885
f 883/883 887/887 874/874
f 887/887 883/883 884/884
f 887/887 886/886 874/874
f 885/885 888/888 884/884
f 888/888 887/887 884/884
f 885/885 886/886 888/888
f 886/886 887/887 888/888
