# Perseverance visual mesh from JPL ops GLTF
mtllib rover.mtl
usemtl rover
v 0.033690 0.014736 -0.000382
v 0.029460 0.013128 -0.020411
v 0.016480 0.008471 0.017338
v 0.035450 0.015376 -0.001644
v 0.034360 0.014982 0.001844
v 0.032020 0.013993 -0.018502
v 0.035300 0.015188 -0.015101
v 0.037870 0.016124 -0.010845
v 0.018610 0.009248 -0.018020
v 0.026710 0.012063 -0.021934
v 0.023780 0.010996 -0.023043
v 0.018360 0.009157 -0.019670
v 0.016420 0.008451 -0.016763
v 0.015060 0.007957 0.018775
v 0.014460 0.007660 0.015647
v 0.013670 0.007341 0.012999
v 0.009990 0.005974 0.009716
v 0.007820 0.005320 0.006209
v 0.013740 0.007475 -0.012480
v 0.009990 0.005974 -0.009087
v 0.007910 0.005114 -0.005577
v 0.006740 0.004791 0.001593
v 0.007470 0.004923 0.005127
v 0.018610 0.009248 0.018649
v 0.039940 0.016904 0.005250
v 0.038620 0.016397 0.009915
v 0.035170 0.015172 0.015883
v 0.036300 0.015416 0.014303
v 0.032020 0.013993 0.019131
v 0.035820 0.015243 0.011590
v 0.035060 0.014966 0.012548
v 0.028220 0.012611 0.021859
v 0.023780 0.010996 0.023672
v 0.018360 0.009157 0.020299
v 0.007910 0.005114 -0.005577
v 0.033750 0.014487 -0.000029
v 0.016600 0.008247 0.017423
v 0.034450 0.014743 0.001843
v 0.009990 0.005974 -0.009087
v 0.014090 0.007332 -0.012804
v 0.035250 0.015032 -0.001694
v 0.015440 0.007825 -0.017410
v 0.036730 0.015572 -0.001145
v 0.014430 0.007636 -0.014890
v 0.013740 0.007475 -0.012480
v 0.017850 0.008703 -0.016951
v 0.039950 0.016880 -0.004620
v 0.039110 0.016575 -0.007809
v 0.037870 0.016124 -0.010845
v 0.035300 0.015188 -0.015101
v 0.018630 0.008983 -0.019351
v 0.032020 0.013993 -0.018502
v 0.029460 0.013128 -0.020411
v 0.026710 0.012063 -0.021934
v 0.023780 0.010996 -0.023043
v 0.020720 0.009927 -0.023716
v 0.015200 0.007736 -0.019351
v 0.013960 0.007375 -0.021831
v 0.016630 0.008256 -0.020687
v 0.014460 0.007601 -0.023062
v 0.015710 0.008069 -0.023870
v 0.017680 0.008638 -0.023942
v 0.033170 0.010761 -0.019569
v 0.036100 0.016154 -0.014967
v 0.037850 0.012465 -0.014459
v 0.031300 0.014406 -0.019950
v 0.027320 0.008634 -0.023068
v 0.025370 0.012249 -0.023290
v 0.022150 0.006753 -0.024450
v 0.020760 0.010572 -0.024450
v 0.016990 0.004874 -0.024694
v 0.015370 0.008608 -0.024647
v 0.015130 0.004199 -0.023628
v 0.013640 0.007979 -0.023505
v 0.038060 0.012542 -0.013256
v 0.034310 0.014961 -0.016638
v 0.034470 0.011237 -0.017653
v 0.038260 0.016400 -0.010641
v 0.037850 0.012465 -0.014459
v 0.033170 0.010761 -0.019569
v 0.030610 0.009831 -0.020806
v 0.040190 0.013319 -0.010079
v 0.027320 0.008634 -0.023068
v 0.023010 0.007063 -0.023943
v 0.022150 0.006753 -0.024450
v 0.016990 0.004874 -0.024694
v 0.016000 0.004514 -0.023869
v 0.015130 0.004199 -0.023628
v 0.040960 0.013598 -0.006615
v 0.040050 0.017050 -0.005139
v 0.041890 0.013938 -0.004704
v 0.040680 0.017280 -0.000012
v 0.041900 0.013939 0.000641
v 0.042320 0.014092 0.000315
v 0.039740 0.016940 0.007245
v 0.041770 0.013892 0.005955
v 0.040780 0.013533 0.007869
v 0.037540 0.016137 0.012570
v 0.039350 0.013013 0.012599
v 0.038750 0.012795 0.012570
v 0.034720 0.015113 0.016788
v 0.035520 0.011619 0.017267
v 0.036570 0.012002 0.016699
v 0.032690 0.010587 0.020579
v 0.030080 0.009640 0.021757
v 0.026760 0.008430 0.023920
v 0.023650 0.007296 0.024342
v 0.022150 0.006753 0.025079
v 0.016880 0.004833 0.024777
v 0.016760 0.004789 0.025276
v 0.014550 0.003986 0.023500
v 0.015000 0.004150 0.023277
v 0.014910 0.004118 0.015180
v 0.015390 0.004291 0.015133
v 0.013010 0.007749 0.022564
v 0.013750 0.008019 0.024260
v 0.013370 0.007882 0.014061
v 0.014380 0.003922 0.013562
v 0.014770 0.004066 0.013264
v 0.009720 0.006554 0.010756
v 0.010840 0.002636 0.010453
v 0.007020 0.005570 0.007027
v 0.010840 0.002635 0.009706
v 0.008430 0.001758 0.007069
v 0.008370 0.001738 0.005214
v 0.006760 0.001149 0.005780
v 0.003700 -0.000000 0.006982
v 0.003710 -0.000004 0.005963
v 0.003220 -0.000494 0.005521
v 0.005330 0.004954 0.005820
v 0.005350 0.004963 0.002316
v 0.006730 0.001140 0.002328
v 0.007570 0.001445 0.000082
v 0.003740 0.000017 -0.001526
v 0.003350 -0.000294 0.002272
v 0.003230 -0.000475 -0.001945
v 0.006760 0.001149 -0.001713
v 0.008530 0.001795 -0.005020
v 0.005330 0.004954 -0.001673
v 0.005350 0.004963 -0.005177
v 0.006730 0.001140 -0.005165
v 0.003700 -0.000000 -0.006353
v 0.003610 -0.000069 -0.005322
v 0.008460 0.001769 -0.006447
v 0.010250 0.002421 -0.008205
v 0.011870 0.003012 -0.010150
v 0.014810 0.004081 -0.013497
v 0.014730 0.004051 -0.012610
v 0.015370 0.004286 -0.014369
v 0.014870 0.004104 -0.021862
v 0.007010 0.005567 -0.006416
v 0.009450 0.006455 -0.009824
v 0.011110 0.002735 -0.010126
v 0.013360 0.007878 -0.013379
v 0.013010 0.007749 -0.021870
v 0.014420 0.003937 -0.022007
v 0.013640 0.007979 -0.023505
v 0.034070 0.014876 -0.006201
v 0.035300 0.015321 0.007507
v 0.035660 0.015453 -0.007411
v 0.036070 0.015603 0.010533
v 0.034760 0.015665 0.007199
v 0.035900 0.016081 0.009711
v 0.034970 0.015744 0.012237
v 0.037540 0.016137 0.012570
v 0.034480 0.015023 0.012650
v 0.034720 0.015113 0.016788
v 0.032340 0.014244 0.012915
v 0.029810 0.013325 0.012907
v 0.035900 0.016080 -0.009903
v 0.034970 0.015744 -0.006762
v 0.035920 0.015550 -0.010188
v 0.034650 0.015084 -0.011918
v 0.034310 0.014961 -0.016638
v 0.032620 0.014348 -0.012369
v 0.030250 0.013484 -0.020183
v 0.030800 0.013685 -0.011331
v 0.030060 0.013414 -0.009257
v 0.030500 0.013576 -0.007432
v 0.029850 0.013339 -0.006353
v 0.029600 0.013246 -0.016547
v 0.029240 0.013118 -0.017579
v 0.025670 0.011816 -0.019760
v 0.025580 0.011785 -0.022731
v 0.021230 0.010202 -0.021118
v 0.021020 0.010126 -0.023923
v 0.015660 0.008174 -0.024148
v 0.020260 0.009850 -0.020599
v 0.013790 0.007492 -0.022648
v 0.019770 0.009671 -0.016300
v 0.014170 0.007633 -0.014504
v 0.013560 0.007410 -0.012642
v 0.015100 0.007972 -0.011113
v 0.012150 0.006896 -0.009183
v 0.010660 0.006354 -0.010150
v 0.008200 0.005458 -0.006951
v 0.009190 0.005818 -0.005012
v 0.006900 0.004985 -0.003546
v 0.008200 0.005457 -0.000993
v 0.006350 0.004786 0.000548
v 0.008290 0.005491 0.002698
v 0.006900 0.004985 0.004176
v 0.008430 0.005541 0.007979
v 0.010200 0.006187 0.007512
v 0.010660 0.006354 0.010780
v 0.013790 0.007493 0.011082
v 0.013490 0.007384 0.013205
v 0.018450 0.009189 0.012795
v 0.026370 0.012073 0.013648
v 0.023270 0.010944 0.015382
v 0.019800 0.009683 0.016661
v 0.014160 0.007627 0.014999
v 0.013660 0.007445 0.022491
v 0.020310 0.009865 0.021280
v 0.014780 0.007855 0.024499
v 0.019990 0.009749 0.024737
v 0.021240 0.010205 0.021737
v 0.026310 0.012051 0.023068
v 0.025220 0.011653 0.020587
v 0.030560 0.013599 0.020567
v 0.029200 0.013102 0.018258
v 0.029610 0.013253 0.017233
v 0.026310 0.012051 0.023068
v 0.030560 0.013599 0.020567
v 0.019990 0.009749 0.024737
v 0.014780 0.007855 0.024499
v 0.032690 0.010587 0.020579
v 0.030130 0.013980 0.021362
v 0.027180 0.012909 0.023073
v 0.034290 0.015495 0.017821
v 0.036570 0.012002 0.016699
v 0.026760 0.008430 0.023920
v 0.022720 0.011283 0.024749
v 0.022150 0.006753 0.025079
v 0.015600 0.008693 0.025324
v 0.016760 0.004789 0.025276
v 0.013750 0.008019 0.024260
v 0.014550 0.003986 0.023500
v 0.031310 0.014411 0.002697
v 0.032260 0.014756 0.006666
v 0.040940 0.017916 0.001787
v 0.029390 0.013711 0.007518
v 0.031050 0.014045 0.007382
v 0.030010 0.013936 0.008811
v 0.034760 0.015665 0.007199
v 0.031220 0.014378 -0.002529
v 0.029700 0.013827 0.013022
v 0.026620 0.012705 0.010435
v 0.030270 0.014033 0.011588
v 0.023570 0.011595 0.012196
v 0.032450 0.014825 0.012998
v 0.019710 0.010190 0.012824
v 0.032450 0.014825 -0.006001
v 0.029890 0.013895 -0.005940
v 0.030270 0.014033 -0.007411
v 0.029640 0.013802 -0.012688
v 0.027600 0.013063 -0.009072
v 0.023150 0.011441 -0.011712
v 0.030130 0.013982 -0.010699
v 0.030060 0.013414 -0.009257
v 0.030800 0.013685 -0.011331
v 0.018260 0.009660 -0.012161
v 0.032260 0.014756 -0.012333
v 0.013620 0.007971 -0.010452
v 0.010980 0.007010 -0.008056
v 0.008830 0.006230 -0.004583
v -0.001390 0.002496 -0.006353
v 0.001840 0.003686 -0.005172
v 0.001830 0.003681 -0.001696
v 0.007900 0.005891 0.000550
v -0.001000 0.002649 0.000315
v -0.001520 0.002419 0.006982
v 0.001750 0.003653 -0.000687
v 0.001840 0.003686 0.002321
v 0.001830 0.003681 0.005797
v 0.001700 0.003635 0.001794
v 0.004410 0.004620 -0.000757
v 0.004490 0.004648 -0.000127
v 0.009010 0.006295 0.005643
v 0.004500 0.004652 0.000752
v 0.004420 0.004624 0.001390
v 0.001940 0.003723 0.001407
v 0.008290 0.005491 0.002698
v 0.010200 0.006187 0.007512
v 0.011970 0.007373 0.009813
v 0.001720 0.003641 0.001125
v 0.002960 0.000714 0.001390
v 0.016270 0.008938 0.012341
v 0.002890 0.000686 0.000752
v 0.001970 0.003734 0.000632
v 0.003140 0.000777 0.000016
v 0.001960 0.003729 -0.000017
v 0.002800 0.000654 -0.000631
v 0.026670 0.012721 0.013542
v 0.023410 0.011536 0.015243
v 0.029430 0.013726 0.017141
v 0.019670 0.010175 0.016601
v 0.030130 0.013980 0.021362
v 0.029070 0.013596 0.018208
v 0.025490 0.012293 0.020389
v 0.027180 0.012909 0.023073
v 0.022720 0.011283 0.024749
v 0.034290 0.015495 0.017821
v 0.020760 0.010569 0.021744
v 0.015600 0.008693 0.025324
v 0.019990 0.010290 0.020919
v 0.037440 0.016641 0.013462
v 0.034970 0.015744 0.012237
v 0.035900 0.016081 0.009711
v 0.039350 0.013013 0.012599
v 0.039650 0.017448 0.008582
v 0.041770 0.013892 0.005955
v 0.042320 0.014092 0.000315
v 0.041890 0.013938 -0.004704
v 0.040690 0.017824 -0.003246
v 0.034970 0.015744 -0.006762
v 0.039390 0.017351 -0.008746
v 0.040190 0.013319 -0.010079
v 0.035900 0.016080 -0.009903
v 0.036100 0.016154 -0.014967
v 0.034300 0.015501 -0.012021
v 0.031300 0.014406 -0.019950
v 0.029290 0.013677 -0.017351
v 0.025040 0.012130 -0.019958
v 0.029290 0.013675 -0.016190
v 0.025370 0.012249 -0.023290
v 0.020810 0.010591 -0.021111
v 0.020760 0.010572 -0.024450
v 0.015370 0.008608 -0.024647
v 0.020030 0.010307 -0.020416
v 0.026640 0.012712 -0.012899
v 0.019630 0.010160 -0.016032
v 0.020260 0.009850 -0.020599
v 0.019770 0.009671 -0.016300
v 0.020180 0.009818 -0.015769
v 0.023100 0.011421 -0.014752
v 0.023590 0.011059 -0.014613
v 0.026890 0.012260 -0.012910
v 0.018290 0.008860 0.018104
v 0.018630 0.008983 0.019980
v 0.020720 0.009927 0.024346
v 0.014370 0.007434 0.014322
v 0.009990 0.005974 0.009716
v 0.007470 0.004923 0.005127
v 0.007820 0.005320 0.006209
v 0.006740 0.004791 0.001593
v 0.006780 0.004888 -0.001838
v 0.015260 0.007760 0.020294
v 0.013970 0.007389 0.022693
v 0.014730 0.007647 0.023971
v 0.016280 0.008131 0.021137
v 0.015990 0.008204 0.024530
v 0.016900 0.008354 0.021252
v 0.017630 0.008757 0.024572
v 0.001740 -0.002245 -0.006353
v 0.003230 -0.000475 -0.001945
v 0.003350 -0.000294 0.002272
v 0.001500 -0.002478 0.006982
v 0.003220 -0.000494 0.005521
v 0.003700 -0.000000 0.006982
v 0.003210 -0.000513 -0.004816
v 0.003700 -0.000000 -0.006353
v 0.003610 -0.000069 -0.005322
v 0.003710 -0.000004 0.005963
v 0.006760 0.001149 0.005780
v 0.006730 0.001140 0.002328
v 0.040340 0.016345 -0.001738
v 0.035820 0.014702 -0.007074
v 0.037710 0.015388 -0.011101
v 0.036510 0.014953 -0.009168
v 0.034650 0.014274 -0.006126
v 0.035560 0.014606 -0.011710
v 0.036110 0.015347 -0.007739
v 0.035900 0.015269 -0.011052
v 0.033000 0.013673 -0.017368
v 0.033040 0.013690 -0.012579
v 0.031490 0.013125 -0.011942
v 0.032810 0.013605 -0.000693
v 0.031850 0.013618 -0.004474
v 0.032070 0.013337 0.005095
v 0.039240 0.015947 0.007966
v 0.034730 0.014304 0.006705
v 0.036410 0.014915 0.008941
v 0.036240 0.014853 0.011196
v 0.034610 0.014260 0.016403
v 0.034780 0.014323 0.012842
v 0.032760 0.013586 0.013164
v 0.031490 0.013125 0.012575
v 0.029970 0.012571 0.016860
v 0.029980 0.012576 0.018021
v 0.027080 0.011518 0.013292
v 0.027200 0.011562 0.022176
v 0.028350 0.011980 0.010761
v 0.025540 0.010958 0.020772
v 0.023250 0.010125 0.013414
v 0.021100 0.009343 0.021962
v 0.023460 0.010202 0.015210
v 0.020010 0.008946 0.024115
v 0.020320 0.009059 0.021261
v 0.015510 0.007309 0.023928
v 0.014530 0.006954 0.022203
v 0.019910 0.008910 0.016493
v 0.018740 0.008486 0.013744
v 0.015020 0.007132 0.014812
v 0.014300 0.006868 0.012311
v 0.014300 0.006868 0.012857
v 0.010770 0.005584 0.009626
v 0.008820 0.004875 0.006315
v 0.008150 0.004628 0.005457
v 0.007630 0.004440 0.002577
v 0.007290 0.004316 0.000996
v 0.007390 0.004353 -0.001970
v 0.008430 0.004730 -0.005053
v 0.006730 0.001140 -0.005165
v 0.030610 0.009831 -0.020806
v 0.034310 0.014961 -0.016638
v 0.030250 0.013484 -0.020183
v 0.034470 0.011237 -0.017653
v 0.025580 0.011785 -0.022731
v 0.023010 0.007063 -0.023943
v 0.021020 0.010126 -0.023923
v 0.015660 0.008174 -0.024148
v 0.016000 0.004514 -0.023869
v 0.013790 0.007492 -0.022648
v 0.019950 0.008925 -0.015804
v 0.014650 0.006995 -0.022252
v 0.020280 0.009043 -0.020501
v 0.016240 0.007576 -0.023524
v 0.021040 0.009320 -0.021335
v 0.022160 0.009728 -0.023169
v 0.026010 0.011130 -0.019934
v 0.027950 0.011837 -0.021061
v 0.029760 0.012496 -0.017621
v 0.030110 0.012622 -0.016590
v 0.027140 0.011543 -0.012673
v 0.028350 0.011982 -0.010058
v 0.023630 0.010264 -0.012675
v 0.023780 0.010320 -0.014437
v 0.019160 0.008637 -0.013157
v 0.014670 0.007005 -0.011880
v 0.014350 0.006887 -0.012263
v 0.010490 0.005480 -0.008663
v 0.015040 0.007138 -0.014332
v 0.011870 0.003012 -0.010150
v 0.010250 0.002421 -0.008205
v 0.013560 0.007410 -0.012642
v 0.008530 0.001795 -0.005020
v 0.014730 0.004051 -0.012610
v 0.015370 0.004286 -0.014369
v 0.007570 0.001445 0.000082
v 0.014170 0.007633 -0.014504
v 0.014870 0.004104 -0.021862
v 0.013790 0.007492 -0.022648
v 0.016000 0.004514 -0.023869
v 0.008370 0.001738 0.005214
v 0.010840 0.002635 0.009706
v 0.014770 0.004066 0.013264
v 0.007010 0.005567 -0.006416
v 0.008460 0.001769 -0.006447
v 0.001380 0.000666 -0.006332
v 0.001530 0.000144 -0.006337
v 0.000970 0.001260 -0.006354
v -0.001390 0.002496 -0.006353
v 0.001530 -0.000277 -0.006353
v -0.000810 0.001516 -0.006353
v 0.000730 -0.001516 -0.006353
v -0.002650 0.001161 -0.006353
v -0.001630 0.000137 -0.006332
v -0.000020 -0.002853 -0.006353
v -0.002770 -0.000766 -0.006352
v -0.001060 -0.001262 -0.006354
v -0.001630 -0.000314 -0.006352
v -0.001820 -0.002237 -0.006353
v 0.000730 -0.001516 -0.006353
v -0.001070 -0.001273 0.006984
v 0.000880 -0.001428 0.006982
v -0.001060 -0.001262 -0.006354
v 0.001530 -0.000277 -0.006353
v 0.001530 -0.000277 0.006982
v -0.001630 -0.000314 -0.006352
v -0.001500 -0.000624 -0.004056
v -0.000970 0.001428 0.006982
v -0.000810 0.001516 -0.006353
v 0.000970 0.001290 0.006985
v 0.000970 0.001260 -0.006354
v 0.001270 0.000893 -0.003929
v 0.001380 0.000666 -0.006332
v 0.007020 0.005570 0.007027
v 0.001250 0.000896 0.006963
v -0.001520 0.002419 0.006982
v 0.008430 0.001758 0.007069
v -0.002710 0.001000 0.006982
v 0.001540 0.000148 0.006965
v -0.001620 0.000237 0.006973
v -0.002570 -0.001345 0.006983
v -0.001470 -0.000780 0.006981
v -0.000780 -0.002755 0.006982
v -0.001820 -0.002237 -0.006353
v -0.000020 -0.002853 -0.006353
v 0.001740 -0.002245 -0.006353
v -0.002770 -0.000766 -0.006352
v -0.001820 -0.002237 -0.006353
v -0.002570 -0.001345 0.006983
v -0.002710 0.001000 0.006982
v -0.002650 0.001161 -0.006353
v -0.001520 0.002419 0.006982
v -0.001390 0.002496 -0.006353
v 0.003740 0.000017 -0.001526
v 0.006760 0.001149 -0.001713
v 0.001940 0.003723 0.001407
v 0.004420 0.004624 0.001390
v 0.002960 0.000714 0.001390
v 0.005560 0.001659 0.001356
v 0.001750 0.003653 -0.000687
v 0.005570 0.001663 -0.000729
v 0.004410 0.004620 -0.000757
v 0.002800 0.000654 -0.000631
v 0.031070 0.011486 0.020028
v 0.036270 0.013378 0.014948
v 0.028910 0.010700 0.021740
v 0.022640 0.008415 0.023798
v 0.016720 0.006263 0.024153
v 0.015120 0.005682 0.022882
v 0.038840 0.014314 0.010113
v 0.034610 0.014260 0.016403
v 0.039240 0.015947 0.007966
v 0.036270 0.013378 0.014948
v 0.040560 0.014941 0.003860
v 0.040340 0.016345 -0.001738
v 0.040640 0.014968 -0.002656
v 0.039060 0.014393 -0.008951
v 0.037710 0.015388 -0.011101
v 0.036800 0.013573 -0.013564
v 0.033870 0.012506 -0.016972
v 0.033000 0.013673 -0.017368
v 0.015390 0.004291 0.015133
v 0.015000 0.004150 0.023277
v 0.022080 0.008215 -0.023351
v 0.015990 0.005996 -0.023299
v 0.028910 0.010700 -0.020794
v 0.033870 0.012506 -0.016972
v 0.036800 0.013573 -0.013564
v 0.040920 0.015070 0.003916
v 0.039170 0.014433 0.010268
v 0.033720 0.012449 0.018280
v 0.040440 0.017192 0.000221
v 0.040990 0.015097 -0.002703
v 0.039390 0.014513 -0.009098
v 0.034120 0.012596 -0.017248
v 0.017680 0.008638 -0.023942
v 0.020720 0.009927 -0.023716
v 0.016820 0.006300 -0.023936
v 0.015710 0.008069 -0.023870
v 0.015760 0.007939 -0.023802
v 0.015290 0.005741 -0.023062
v 0.014130 0.007349 -0.022421
v 0.023250 0.008638 -0.023423
v 0.023780 0.010996 -0.023043
v 0.026710 0.012063 -0.021934
v 0.029080 0.010762 -0.021131
v 0.029460 0.013128 -0.020411
v 0.032020 0.013993 -0.018502
v 0.034120 0.012596 -0.017248
v 0.035300 0.015188 -0.015101
v 0.014130 0.007349 -0.022421
v 0.014650 0.005511 -0.021629
v 0.014510 0.007485 -0.014367
v 0.015290 0.005741 -0.023062
v 0.015150 0.005690 -0.014231
v 0.013880 0.007257 -0.012503
v 0.014490 0.005450 -0.012461
v 0.012060 0.006593 -0.010266
v 0.009880 0.005799 -0.007798
v 0.015400 0.007810 -0.012238
v 0.020090 0.009516 -0.015626
v 0.019970 0.009474 -0.013147
v 0.017650 0.008628 -0.012918
v 0.020180 0.009818 -0.015769
v 0.017440 0.008823 -0.011921
v 0.019890 0.009712 -0.012195
v 0.028910 0.010700 0.021740
v 0.022700 0.008441 0.024173
v 0.016640 0.006232 0.024530
v 0.015140 0.007716 0.024271
v 0.014790 0.005559 0.023051
v 0.010230 0.005929 0.009950
v 0.011250 0.004272 0.009990
v 0.014540 0.005468 0.013122
v 0.012960 0.006922 0.012235
v 0.014320 0.007416 0.013808
v 0.009170 0.003516 0.007507
v 0.008090 0.005149 0.006547
v 0.006940 0.004730 0.003119
v 0.007960 0.003075 0.004061
v 0.007330 0.002845 0.000084
v 0.006860 0.004701 -0.002035
v 0.007990 0.003084 -0.003529
v 0.008090 0.005149 -0.005917
v 0.009400 0.003598 -0.007272
v 0.009940 0.005824 -0.008977
v 0.008650 0.005352 -0.005686
v 0.007810 0.005045 -0.003369
v 0.015020 0.007132 0.014812
v 0.014530 0.006954 0.022203
v 0.015520 0.005825 0.014961
v 0.015120 0.005682 0.022882
v 0.015510 0.007309 0.023928
v 0.014830 0.005575 0.012892
v 0.014300 0.006868 0.012857
v 0.014830 0.005575 0.012892
v 0.011250 0.004272 0.009990
v 0.010850 0.006154 0.009679
v 0.013310 0.007050 0.011760
v 0.015400 0.007810 0.012868
v 0.017650 0.008628 0.013548
v 0.020090 0.009517 0.013900
v 0.025530 0.011495 0.012462
v 0.028120 0.012438 0.010616
v 0.031320 0.013603 0.012572
v 0.032760 0.014127 0.013192
v 0.035060 0.014966 0.012548
v 0.015160 0.005695 0.014996
v 0.014000 0.007301 0.022258
v 0.015400 0.007810 0.012868
v 0.017650 0.008628 0.013548
v 0.020270 0.009581 0.016142
v 0.020090 0.009517 0.013900
v 0.007390 0.004353 -0.001970
v 0.007870 0.003040 0.002599
v 0.008620 0.003316 -0.004828
v 0.007290 0.004316 0.000996
v 0.008150 0.004628 0.005457
v 0.010770 0.005584 0.009626
v 0.008430 0.004730 -0.005053
v 0.010850 0.006154 0.009679
v 0.008210 0.005192 0.005404
v 0.008820 0.004875 0.006315
v 0.007630 0.004440 0.002577
v 0.007280 0.004852 0.000538
v 0.010490 0.005480 -0.008663
v 0.011540 0.004378 -0.009657
v 0.014350 0.006887 -0.012263
v 0.014780 0.005555 -0.012228
v 0.014670 0.007005 -0.011880
v 0.019160 0.008637 -0.013157
v 0.022170 0.010275 -0.012942
v 0.023630 0.010264 -0.012675
v 0.024390 0.011080 -0.012364
v 0.028350 0.011982 -0.010058
v 0.028120 0.012438 -0.009986
v 0.031320 0.013602 -0.012000
v 0.031490 0.013125 -0.011942
v 0.033040 0.013690 -0.012579
v 0.033730 0.014482 -0.012531
v 0.035560 0.014606 -0.011710
v 0.035900 0.015269 -0.011052
v 0.001420 -0.000993 0.016510
v 0.001210 -0.001134 -0.020990
v 0.001420 0.000985 -0.020990
v 0.001210 0.001126 0.016510
v -0.001290 -0.001133 -0.020990
v -0.001640 -0.000522 0.016510
v -0.001640 0.000514 -0.020990
v -0.001290 0.001125 0.016510
v 0.004490 0.004648 -0.000127
v 0.005500 0.001636 0.000685
v 0.004500 0.004652 0.000752
v 0.002890 0.000686 0.000752
v 0.003140 0.000777 0.000016
v 0.005510 0.001641 -0.000063
v 0.014490 0.005450 -0.012461
v 0.011540 0.004378 -0.009657
v 0.013880 0.007257 -0.012503
v 0.009940 0.005824 -0.008977
v 0.009400 0.003598 -0.007272
v 0.008620 0.003316 -0.004828
v 0.007990 0.003084 -0.003529
v 0.014780 0.005555 -0.012228
v 0.015500 0.005819 -0.014182
v 0.015150 0.005690 -0.014231
v 0.015010 0.005641 -0.021573
v 0.014650 0.005511 -0.021629
v 0.039390 0.014513 -0.009098
v 0.039060 0.014393 -0.008951
v 0.040990 0.015097 -0.002703
v 0.040640 0.014968 -0.002656
v 0.040920 0.015070 0.003916
v 0.040560 0.014941 0.003860
v 0.039170 0.014433 0.010268
v 0.038840 0.014314 0.010113
v 0.033720 0.012449 0.018280
v 0.022700 0.008441 0.024173
v 0.016640 0.006232 0.024530
v 0.014790 0.005559 0.023051
v 0.015160 0.005695 0.014996
v 0.015520 0.005825 0.014961
v 0.014540 0.005468 0.013122
v 0.009170 0.003516 0.007507
v 0.007960 0.003075 0.004061
v 0.007870 0.003040 0.002599
v 0.007330 0.002845 0.000084
v 0.014650 0.006995 -0.022252
v 0.015040 0.007138 -0.014332
v 0.015010 0.005641 -0.021573
v 0.015990 0.005996 -0.023299
v 0.015500 0.005819 -0.014182
v -0.003050 -0.001084 -0.004489
v -0.003430 -0.000051 -0.003437
v 0.003450 0.002236 -0.003959
v 0.003760 0.001394 -0.004463
v 0.004070 0.000543 -0.003977
v -0.002690 -0.002084 -0.003663
v -0.002980 -0.001296 -0.002396
v -0.002690 -0.002084 -0.003663
v 0.004010 0.000715 -0.002642
v 0.004070 0.000543 -0.003977
v 0.003450 0.002236 -0.003959
v 0.003760 0.001394 -0.004463
v 0.003510 0.002078 -0.002694
v -0.002980 -0.001296 0.005114
v -0.002690 -0.002084 0.003847
v 0.004010 0.000715 0.004867
v 0.004070 0.000543 0.003533
v 0.003450 0.002236 0.003552
v 0.003760 0.001394 0.003047
v 0.003510 0.002078 0.004816
v -0.003050 -0.001084 0.003021
v -0.003430 -0.000051 0.004073
v -0.002690 -0.002084 0.003847
v -0.002980 -0.001296 -0.002396
v 0.004010 0.000715 -0.002642
v 0.003510 0.002078 -0.002694
v -0.002980 -0.001296 0.005114
v -0.001580 -0.000405 0.004667
v -0.001620 0.000237 0.006973
v -0.001470 -0.000780 0.006981
v -0.001460 -0.000722 0.004652
v -0.001070 -0.001273 0.006984
v -0.001630 0.000137 -0.006332
v -0.000970 0.001428 0.006982
v -0.000810 0.001516 -0.006353
v 0.030470 0.013564 0.008227
v 0.029850 0.013339 0.006969
v 0.031050 0.014045 0.007382
v 0.031070 0.013782 0.004180
v 0.032150 0.014178 0.006695
v -0.000040 0.001636 0.016510
v 0.001420 0.000985 -0.020990
v -0.000470 0.001605 -0.020990
v -0.001640 0.000514 -0.020990
v -0.000470 0.001605 -0.020990
v -0.000040 -0.001644 -0.020990
v -0.000470 -0.001613 0.016510
v 0.032450 0.014825 0.012998
v 0.030270 0.014033 0.011588
v 0.030670 0.013639 0.011802
v 0.001250 0.000896 0.006963
v 0.001470 0.000491 0.004686
v 0.001540 0.000148 0.006965
v -0.002690 -0.002084 -0.003663
v -0.003430 -0.000051 -0.003437
v -0.003050 -0.001084 -0.004489
v 0.020810 0.010591 -0.021111
v 0.021230 0.010202 -0.021118
v 0.025040 0.012130 -0.019958
v 0.020260 0.009850 -0.020599
v 0.020030 0.010307 -0.020416
v 0.025670 0.011816 -0.019760
v 0.029290 0.013677 -0.017351
v 0.029240 0.013118 -0.017579
v 0.018260 0.009660 -0.012161
v 0.019890 0.009712 -0.012195
v 0.023150 0.011441 -0.011712
v 0.023750 0.011117 -0.011566
v 0.027600 0.013063 -0.009072
v 0.027710 0.012559 -0.009072
v 0.017440 0.008823 -0.011921
v 0.015100 0.007972 -0.011113
v 0.013620 0.007971 -0.010452
v 0.010980 0.007010 -0.008056
v 0.019640 0.009352 -0.016518
v 0.020240 0.009572 -0.020864
v 0.023780 0.010320 -0.014437
v 0.024340 0.011062 -0.014047
v 0.026900 0.011995 -0.012662
v 0.027140 0.011543 -0.012673
v 0.019910 0.008910 0.016493
v 0.020140 0.009535 0.021274
v 0.020320 0.009059 0.021261
v 0.019680 0.009367 0.016792
v 0.021000 0.009849 0.021976
v 0.020140 0.009535 0.021274
v 0.025840 0.011608 0.020564
v 0.029590 0.012973 0.018250
v 0.008830 0.006230 -0.004583
v 0.007900 0.005891 0.000550
v 0.009010 0.006295 0.005643
v 0.011970 0.007373 0.009813
v 0.023460 0.010202 0.015210
v 0.023610 0.010797 0.015067
v 0.027080 0.011518 0.013292
v 0.026970 0.012021 0.013303
v 0.025220 0.011653 0.020587
v 0.021240 0.010205 0.021737
v 0.020310 0.009865 0.021280
v 0.029200 0.013102 0.018258
v 0.019990 0.010290 0.020919
v 0.019670 0.010175 0.016601
v 0.020760 0.010569 0.021744
v 0.030270 0.014033 -0.007411
v 0.030130 0.013982 -0.010699
v 0.021040 0.009320 -0.021335
v 0.025360 0.011435 -0.020143
v 0.021170 0.009911 -0.021330
v 0.020240 0.009572 -0.020864
v 0.020280 0.009043 -0.020501
v 0.029810 0.013054 -0.017392
v 0.026890 0.012260 -0.012910
v 0.029290 0.013675 -0.016190
v 0.029600 0.013246 -0.016547
v 0.026640 0.012712 -0.012899
v 0.029290 0.013677 -0.017351
v 0.029240 0.013118 -0.017579
v 0.029970 0.012571 0.016860
v 0.029940 0.013100 0.017219
v 0.029980 0.012576 0.018021
v 0.029590 0.012973 0.018250
v 0.030110 0.012622 -0.016590
v 0.029790 0.013048 -0.016231
v 0.029810 0.013054 -0.017392
v 0.029760 0.012496 -0.017621
v 0.032260 0.014756 -0.012333
v 0.032620 0.014348 -0.012369
v 0.034300 0.015501 -0.012021
v 0.034650 0.015084 -0.011918
v 0.030800 0.013685 -0.011331
v 0.026670 0.012721 0.013542
v 0.027230 0.012387 0.013789
v 0.029430 0.013726 0.017141
v 0.023410 0.011536 0.015243
v 0.035820 0.014702 -0.007074
v 0.034470 0.014751 -0.006126
v 0.036110 0.015347 -0.007739
v 0.034650 0.014274 -0.006126
v 0.031850 0.013618 -0.004474
v 0.032600 0.014069 -0.001130
v 0.032810 0.013605 -0.000693
v 0.031950 0.013834 0.005141
v 0.032070 0.013337 0.005095
v 0.034730 0.014304 0.006705
v 0.034470 0.014751 0.006756
v 0.035670 0.015187 0.007727
v 0.036410 0.014915 0.008941
v 0.036340 0.015431 0.009873
v 0.036240 0.014853 0.011196
v 0.034780 0.014323 0.012842
v 0.032450 0.014825 -0.006001
v 0.032430 0.014279 -0.006037
v 0.032150 0.014178 0.006695
v 0.032260 0.014756 0.006666
v 0.031050 0.014045 0.007382
v 0.036510 0.014953 -0.009168
v 0.031220 0.014378 -0.002529
v 0.031700 0.014011 0.000550
v 0.031310 0.014411 0.002697
v 0.031070 0.013782 -0.003551
v 0.029390 0.013711 0.007518
v 0.029850 0.013339 0.006969
v 0.027560 0.012505 0.009865
v 0.029890 0.013895 -0.005940
v 0.030060 0.013414 0.009742
v 0.030010 0.013936 0.008811
v 0.030470 0.013564 0.008227
v 0.019710 0.010190 0.012824
v 0.023330 0.010964 0.012341
v 0.023570 0.011595 0.012196
v 0.016270 0.008938 0.012341
v 0.026620 0.012705 0.010435
v 0.029070 0.013596 0.018208
v 0.013310 0.007050 0.011760
v 0.014090 0.007332 -0.012804
vt 0.254018 0.996051
vt 0.254014 0.996034
vt 0.254002 0.996067
vt 0.254019 0.996050
vt 0.254018 0.996053
vt 0.254016 0.996036
vt 0.254019 0.996039
vt 0.254021 0.996043
vt 0.254004 0.996036
vt 0.254011 0.996033
vt 0.254009 0.996032
vt 0.254004 0.996035
vt 0.254002 0.996038
vt 0.254001 0.996068
vt 0.254001 0.996065
vt 0.254000 0.996063
vt 0.253996 0.996060
vt 0.253995 0.996057
vt 0.254000 0.996041
vt 0.253996 0.996044
vt 0.253995 0.996047
vt 0.253994 0.996053
vt 0.253994 0.996056
vt 0.254004 0.996068
vt 0.254023 0.996056
vt 0.254022 0.996060
vt 0.254019 0.996065
vt 0.254020 0.996064
vt 0.254016 0.996068
vt 0.254020 0.996062
vt 0.254019 0.996062
vt 0.254013 0.996070
vt 0.254009 0.996072
vt 0.254004 0.996069
vt 0.254035 0.996005
vt 0.254058 0.996010
vt 0.254043 0.996025
vt 0.254059 0.996011
vt 0.254037 0.996002
vt 0.254041 0.995998
vt 0.254060 0.996008
vt 0.254042 0.995994
vt 0.254061 0.996009
vt 0.254041 0.995996
vt 0.254040 0.995998
vt 0.254044 0.995995
vt 0.254064 0.996005
vt 0.254063 0.996003
vt 0.254062 0.996000
vt 0.254060 0.995996
vt 0.254045 0.995992
vt 0.254057 0.995993
vt 0.254054 0.995991
vt 0.254052 0.995990
vt 0.254049 0.995989
vt 0.254047 0.995988
vt 0.254042 0.995992
vt 0.254041 0.995990
vt 0.254043 0.995991
vt 0.254041 0.995989
vt 0.254042 0.995988
vt 0.254044 0.995988
vt 0.253975 0.996080
vt 0.253978 0.996076
vt 0.253979 0.996079
vt 0.253973 0.996077
vt 0.253969 0.996082
vt 0.253968 0.996079
vt 0.253965 0.996083
vt 0.253963 0.996080
vt 0.253960 0.996085
vt 0.253958 0.996082
vt 0.253958 0.996085
vt 0.253956 0.996082
vt 0.253999 0.995998
vt 0.253996 0.995995
vt 0.253996 0.995994
vt 0.254000 0.996000
vt 0.253999 0.995997
vt 0.253995 0.995993
vt 0.253993 0.995992
vt 0.254001 0.996001
vt 0.253990 0.995990
vt 0.253987 0.995989
vt 0.253986 0.995988
vt 0.253982 0.995988
vt 0.253981 0.995989
vt 0.253980 0.995989
vt 0.254002 0.996004
vt 0.254001 0.996005
vt 0.254003 0.996005
vt 0.254002 0.996010
vt 0.254003 0.996010
vt 0.254003 0.996010
vt 0.254001 0.996016
vt 0.254003 0.996015
vt 0.254002 0.996016
vt 0.253999 0.996020
vt 0.254001 0.996020
vt 0.254000 0.996020
vt 0.253997 0.996024
vt 0.253997 0.996025
vt 0.253998 0.996024
vt 0.253995 0.996027
vt 0.253993 0.996028
vt 0.253990 0.996030
vt 0.253987 0.996031
vt 0.253986 0.996031
vt 0.253982 0.996031
vt 0.253981 0.996031
vt 0.253980 0.996030
vt 0.253980 0.996030
vt 0.253980 0.996023
vt 0.253980 0.996023
vt 0.253978 0.996029
vt 0.253979 0.996031
vt 0.253979 0.996022
vt 0.253979 0.996021
vt 0.253980 0.996021
vt 0.253975 0.996019
vt 0.253976 0.996019
vt 0.253973 0.996016
vt 0.253976 0.996018
vt 0.253974 0.996016
vt 0.253974 0.996014
vt 0.253973 0.996015
vt 0.253970 0.996016
vt 0.253970 0.996015
vt 0.253970 0.996014
vt 0.253972 0.996015
vt 0.253972 0.996012
vt 0.253973 0.996012
vt 0.253974 0.996010
vt 0.253970 0.996008
vt 0.253970 0.996012
vt 0.253970 0.996008
vt 0.253973 0.996008
vt 0.253974 0.996005
vt 0.253972 0.996008
vt 0.253972 0.996005
vt 0.253973 0.996005
vt 0.253970 0.996004
vt 0.253970 0.996005
vt 0.253974 0.996004
vt 0.253976 0.996002
vt 0.253977 0.996001
vt 0.253980 0.995998
vt 0.253980 0.995999
vt 0.253980 0.995997
vt 0.253980 0.995991
vt 0.253973 0.996004
vt 0.253975 0.996001
vt 0.253977 0.996001
vt 0.253979 0.995998
vt 0.253978 0.995991
vt 0.253979 0.995991
vt 0.253979 0.995989
vt 0.254028 0.996004
vt 0.254029 0.996016
vt 0.254029 0.996003
vt 0.254029 0.996019
vt 0.254028 0.996016
vt 0.254029 0.996018
vt 0.254028 0.996020
vt 0.254031 0.996021
vt 0.254028 0.996021
vt 0.254028 0.996024
vt 0.254026 0.996021
vt 0.254024 0.996021
vt 0.254029 0.996001
vt 0.254028 0.996004
vt 0.254029 0.996001
vt 0.254028 0.995999
vt 0.254028 0.995995
vt 0.254026 0.995999
vt 0.254024 0.995992
vt 0.254025 0.996000
vt 0.254024 0.996001
vt 0.254025 0.996003
vt 0.254024 0.996004
vt 0.254024 0.995995
vt 0.254024 0.995994
vt 0.254020 0.995992
vt 0.254020 0.995990
vt 0.254017 0.995991
vt 0.254016 0.995988
vt 0.254012 0.995988
vt 0.254016 0.995991
vt 0.254010 0.995990
vt 0.254015 0.995995
vt 0.254010 0.995997
vt 0.254010 0.995998
vt 0.254011 0.996000
vt 0.254009 0.996002
vt 0.254007 0.996001
vt 0.254005 0.996003
vt 0.254006 0.996005
vt 0.254004 0.996007
vt 0.254005 0.996009
vt 0.254004 0.996010
vt 0.254005 0.996012
vt 0.254004 0.996013
vt 0.254006 0.996017
vt 0.254007 0.996016
vt 0.254007 0.996019
vt 0.254010 0.996019
vt 0.254010 0.996021
vt 0.254014 0.996021
vt 0.254021 0.996022
vt 0.254018 0.996023
vt 0.254015 0.996024
vt 0.254010 0.996023
vt 0.254010 0.996030
vt 0.254016 0.996028
vt 0.254011 0.996031
vt 0.254016 0.996031
vt 0.254017 0.996029
vt 0.254021 0.996030
vt 0.254020 0.996028
vt 0.254025 0.996028
vt 0.254023 0.996026
vt 0.254024 0.996025
vt 0.253984 0.996089
vt 0.253988 0.996087
vt 0.253978 0.996091
vt 0.253973 0.996092
vt 0.254017 0.996080
vt 0.254014 0.996077
vt 0.254012 0.996078
vt 0.254018 0.996076
vt 0.254020 0.996079
vt 0.254012 0.996082
vt 0.254008 0.996080
vt 0.254008 0.996083
vt 0.254002 0.996082
vt 0.254003 0.996085
vt 0.254000 0.996082
vt 0.254001 0.996085
vt 0.253960 0.996012
vt 0.253961 0.996015
vt 0.253968 0.996011
vt 0.253959 0.996016
vt 0.253960 0.996016
vt 0.253959 0.996017
vt 0.253963 0.996016
vt 0.253960 0.996007
vt 0.253959 0.996021
vt 0.253956 0.996019
vt 0.253959 0.996020
vt 0.253954 0.996020
vt 0.253961 0.996021
vt 0.253951 0.996021
vt 0.253961 0.996004
vt 0.253959 0.996004
vt 0.253959 0.996003
vt 0.253959 0.995999
vt 0.253957 0.996002
vt 0.253953 0.996000
vt 0.253959 0.996000
vt 0.253959 0.996002
vt 0.253960 0.996000
vt 0.253949 0.995999
vt 0.253961 0.995999
vt 0.253945 0.996001
vt 0.253943 0.996003
vt 0.253941 0.996006
vt 0.253933 0.996004
vt 0.253936 0.996005
vt 0.253936 0.996008
vt 0.253941 0.996010
vt 0.253933 0.996010
vt 0.253933 0.996016
vt 0.253936 0.996009
vt 0.253936 0.996012
vt 0.253936 0.996015
vt 0.253936 0.996011
vt 0.253938 0.996009
vt 0.253938 0.996009
vt 0.253942 0.996014
vt 0.253938 0.996010
vt 0.253938 0.996011
vt 0.253936 0.996011
vt 0.253941 0.996012
vt 0.253943 0.996016
vt 0.253944 0.996018
vt 0.253936 0.996011
vt 0.253937 0.996011
vt 0.253948 0.996020
vt 0.253936 0.996010
vt 0.253936 0.996010
vt 0.253937 0.996010
vt 0.253936 0.996010
vt 0.253936 0.996009
vt 0.253956 0.996021
vt 0.253954 0.996023
vt 0.253959 0.996024
vt 0.253950 0.996024
vt 0.253959 0.996028
vt 0.253958 0.996025
vt 0.253955 0.996027
vt 0.253957 0.996030
vt 0.253953 0.996031
vt 0.253963 0.996025
vt 0.253951 0.996028
vt 0.253947 0.996031
vt 0.253951 0.996028
vt 0.253965 0.996021
vt 0.253963 0.996020
vt 0.253964 0.996018
vt 0.253967 0.996020
vt 0.253967 0.996017
vt 0.253969 0.996015
vt 0.253969 0.996010
vt 0.253969 0.996005
vt 0.253968 0.996007
vt 0.253963 0.996004
vt 0.253967 0.996002
vt 0.253968 0.996001
vt 0.253964 0.996001
vt 0.253964 0.995997
vt 0.253963 0.995999
vt 0.253960 0.995992
vt 0.253958 0.995995
vt 0.253955 0.995992
vt 0.253958 0.995996
vt 0.253955 0.995989
vt 0.253951 0.995991
vt 0.253951 0.995988
vt 0.253947 0.995988
vt 0.253951 0.995992
vt 0.253956 0.995998
vt 0.253950 0.995996
vt 0.253951 0.995992
vt 0.253951 0.995995
vt 0.253951 0.995996
vt 0.253953 0.995997
vt 0.253954 0.995997
vt 0.253956 0.995998
vt 0.254044 0.996026
vt 0.254045 0.996027
vt 0.254047 0.996031
vt 0.254041 0.996022
vt 0.254037 0.996018
vt 0.254035 0.996014
vt 0.254035 0.996015
vt 0.254034 0.996011
vt 0.254034 0.996008
vt 0.254042 0.996028
vt 0.254041 0.996030
vt 0.254041 0.996031
vt 0.254043 0.996028
vt 0.254042 0.996031
vt 0.254043 0.996028
vt 0.254044 0.996031
vt 0.253946 0.996102
vt 0.253951 0.996100
vt 0.253955 0.996100
vt 0.253959 0.996102
vt 0.253958 0.996100
vt 0.253959 0.996100
vt 0.253948 0.996100
vt 0.253946 0.996100
vt 0.253947 0.996100
vt 0.253979 0.996102
vt 0.253983 0.996100
vt 0.253996 0.996101
vt 0.253993 0.996050
vt 0.253989 0.996046
vt 0.253991 0.996043
vt 0.253989 0.996044
vt 0.253988 0.996047
vt 0.253989 0.996042
vt 0.253989 0.996045
vt 0.253989 0.996043
vt 0.253986 0.996037
vt 0.253986 0.996041
vt 0.253985 0.996042
vt 0.253986 0.996051
vt 0.253985 0.996048
vt 0.253985 0.996056
vt 0.253992 0.996059
vt 0.253988 0.996057
vt 0.253989 0.996059
vt 0.253989 0.996061
vt 0.253988 0.996066
vt 0.253988 0.996063
vt 0.253986 0.996063
vt 0.253985 0.996062
vt 0.253984 0.996066
vt 0.253984 0.996067
vt 0.253981 0.996063
vt 0.253981 0.996070
vt 0.253982 0.996061
vt 0.253980 0.996069
vt 0.253978 0.996063
vt 0.253976 0.996070
vt 0.253978 0.996064
vt 0.253975 0.996072
vt 0.253975 0.996070
vt 0.253971 0.996072
vt 0.253970 0.996070
vt 0.253975 0.996066
vt 0.253974 0.996063
vt 0.253970 0.996064
vt 0.253970 0.996062
vt 0.253970 0.996063
vt 0.253966 0.996060
vt 0.253965 0.996057
vt 0.253964 0.996056
vt 0.253964 0.996054
vt 0.253963 0.996053
vt 0.253963 0.996050
vt 0.253964 0.996048
vt 0.253976 0.996100
vt 0.254010 0.996091
vt 0.254013 0.996086
vt 0.254009 0.996087
vt 0.254013 0.996090
vt 0.254005 0.996089
vt 0.254002 0.996093
vt 0.254000 0.996090
vt 0.253995 0.996092
vt 0.253996 0.996096
vt 0.253994 0.996093
vt 0.253975 0.996039
vt 0.253970 0.996033
vt 0.253975 0.996035
vt 0.253971 0.996032
vt 0.253976 0.996034
vt 0.253977 0.996032
vt 0.253980 0.996035
vt 0.253982 0.996034
vt 0.253983 0.996037
vt 0.253984 0.996038
vt 0.253981 0.996041
vt 0.253982 0.996043
vt 0.253978 0.996041
vt 0.253978 0.996040
vt 0.253974 0.996041
vt 0.253970 0.996042
vt 0.253970 0.996042
vt 0.253966 0.996045
vt 0.253970 0.996040
vt 0.254040 0.996044
vt 0.254041 0.996044
vt 0.254037 0.996039
vt 0.254044 0.996045
vt 0.254037 0.996042
vt 0.254036 0.996042
vt 0.254049 0.996045
vt 0.254036 0.996039
vt 0.254029 0.996042
vt 0.254028 0.996039
vt 0.254027 0.996042
vt 0.254053 0.996045
vt 0.254057 0.996044
vt 0.254060 0.996042
vt 0.253941 0.996110
vt 0.253942 0.996114
vt 0.253936 0.996115
vt 0.253936 0.996116
vt 0.253936 0.996115
vt 0.253934 0.996113
vt 0.253936 0.996116
vt 0.253934 0.996114
vt 0.253936 0.996118
vt 0.253933 0.996115
vt 0.253934 0.996116
vt 0.253935 0.996119
vt 0.253933 0.996117
vt 0.253934 0.996117
vt 0.253934 0.996116
vt 0.253934 0.996119
vt 0.253938 0.996096
vt 0.253937 0.996109
vt 0.253938 0.996109
vt 0.253937 0.996096
vt 0.253939 0.996096
vt 0.253939 0.996109
vt 0.253936 0.996096
vt 0.253936 0.996098
vt 0.253933 0.996109
vt 0.253933 0.996096
vt 0.253935 0.996109
vt 0.253935 0.996096
vt 0.253935 0.996099
vt 0.253936 0.996096
vt 0.253951 0.996110
vt 0.253946 0.996115
vt 0.253944 0.996113
vt 0.253952 0.996114
vt 0.253943 0.996115
vt 0.253947 0.996116
vt 0.253944 0.996116
vt 0.253943 0.996118
vt 0.253944 0.996117
vt 0.253945 0.996119
vt 0.253941 0.996096
vt 0.253943 0.996096
vt 0.253946 0.996096
vt 0.254048 0.996090
vt 0.254048 0.996092
vt 0.254060 0.996091
vt 0.254060 0.996088
vt 0.254048 0.996088
vt 0.254060 0.996086
vt 0.254048 0.996086
vt 0.253986 0.996102
vt 0.253990 0.996100
vt 0.254064 0.996073
vt 0.254066 0.996073
vt 0.254065 0.996075
vt 0.254067 0.996075
vt 0.254064 0.996067
vt 0.254067 0.996068
vt 0.254066 0.996066
vt 0.254065 0.996069
vt 0.253968 0.996089
vt 0.253973 0.996087
vt 0.253966 0.996090
vt 0.253960 0.996093
vt 0.253955 0.996095
vt 0.253953 0.996096
vt 0.254052 0.996054
vt 0.254057 0.996054
vt 0.254050 0.996053
vt 0.254056 0.996054
vt 0.254046 0.996053
vt 0.254041 0.996052
vt 0.254040 0.996053
vt 0.254035 0.996054
vt 0.254033 0.996053
vt 0.254031 0.996054
vt 0.254028 0.996055
vt 0.254027 0.996054
vt 0.254059 0.996035
vt 0.254066 0.996035
vt 0.253986 0.996083
vt 0.253981 0.996085
vt 0.253992 0.996081
vt 0.253996 0.996079
vt 0.253999 0.996078
vt 0.254045 0.996048
vt 0.254050 0.996049
vt 0.254057 0.996052
vt 0.254042 0.996046
vt 0.254039 0.996048
vt 0.254034 0.996049
vt 0.254027 0.996052
vt 0.253936 0.996093
vt 0.253939 0.996091
vt 0.253935 0.996095
vt 0.253934 0.996093
vt 0.253934 0.996093
vt 0.253934 0.996096
vt 0.253933 0.996094
vt 0.253941 0.996093
vt 0.253942 0.996090
vt 0.253944 0.996089
vt 0.253947 0.996091
vt 0.253947 0.996088
vt 0.253949 0.996087
vt 0.253951 0.996089
vt 0.253952 0.996086
vt 0.254035 0.996089
vt 0.254035 0.996092
vt 0.254041 0.996089
vt 0.254034 0.996092
vt 0.254042 0.996092
vt 0.254043 0.996090
vt 0.254043 0.996092
vt 0.254045 0.996091
vt 0.254047 0.996092
vt 0.254043 0.996089
vt 0.254040 0.996086
vt 0.254042 0.996086
vt 0.254043 0.996087
vt 0.254016 0.995996
vt 0.254013 0.995999
vt 0.254015 0.995999
vt 0.254027 0.996091
vt 0.254021 0.996093
vt 0.254016 0.996095
vt 0.254014 0.996093
vt 0.254014 0.996096
vt 0.254037 0.996078
vt 0.254037 0.996080
vt 0.254040 0.996079
vt 0.254039 0.996077
vt 0.254040 0.996076
vt 0.254035 0.996081
vt 0.254034 0.996079
vt 0.254031 0.996080
vt 0.254032 0.996082
vt 0.254028 0.996082
vt 0.254027 0.996080
vt 0.254025 0.996082
vt 0.254023 0.996079
vt 0.254022 0.996081
vt 0.254021 0.996078
vt 0.254023 0.996079
vt 0.254025 0.996079
vt 0.254059 0.996053
vt 0.254066 0.996053
vt 0.254059 0.996055
vt 0.254066 0.996055
vt 0.254067 0.996052
vt 0.254058 0.996055
vt 0.254058 0.996053
vt 0.253937 0.996084
vt 0.253933 0.996085
vt 0.253933 0.996084
vt 0.253935 0.996083
vt 0.253937 0.996082
vt 0.253939 0.996082
vt 0.253942 0.996081
vt 0.253947 0.996079
vt 0.253949 0.996078
vt 0.253952 0.996077
vt 0.253954 0.996077
vt 0.253956 0.996076
vt 0.254059 0.996051
vt 0.254066 0.996049
vt 0.254058 0.996048
vt 0.254058 0.996047
vt 0.254060 0.996046
vt 0.254059 0.996046
vt 0.254035 0.996068
vt 0.254040 0.996069
vt 0.254033 0.996068
vt 0.254038 0.996068
vt 0.254043 0.996067
vt 0.254047 0.996067
vt 0.254032 0.996067
vt 0.254047 0.996066
vt 0.254043 0.996067
vt 0.254043 0.996067
vt 0.254040 0.996068
vt 0.254038 0.996067
vt 0.254029 0.996067
vt 0.254028 0.996068
vt 0.254031 0.996063
vt 0.254031 0.996064
vt 0.254031 0.996063
vt 0.254035 0.996062
vt 0.254038 0.996060
vt 0.254039 0.996060
vt 0.254040 0.996059
vt 0.254043 0.996059
vt 0.254043 0.996058
vt 0.254046 0.996057
vt 0.254046 0.996058
vt 0.254048 0.996057
vt 0.254048 0.996056
vt 0.254050 0.996056
vt 0.254050 0.996056
vt 0.254060 0.996038
vt 0.254027 0.996038
vt 0.254027 0.996036
vt 0.254060 0.996036
vt 0.254024 0.996035
vt 0.254057 0.996034
vt 0.254024 0.996033
vt 0.254057 0.996032
vt 0.254065 0.996029
vt 0.254066 0.996031
vt 0.254066 0.996029
vt 0.254066 0.996031
vt 0.254065 0.996031
vt 0.254065 0.996031
vt 0.253939 0.996042
vt 0.253937 0.996045
vt 0.253939 0.996042
vt 0.253935 0.996046
vt 0.253935 0.996047
vt 0.253934 0.996049
vt 0.253933 0.996050
vt 0.253939 0.996043
vt 0.253940 0.996041
vt 0.253940 0.996041
vt 0.253940 0.996034
vt 0.253939 0.996034
vt 0.253961 0.996045
vt 0.253961 0.996046
vt 0.253963 0.996051
vt 0.253962 0.996051
vt 0.253962 0.996057
vt 0.253962 0.996057
vt 0.253961 0.996063
vt 0.253961 0.996062
vt 0.253956 0.996070
vt 0.253946 0.996075
vt 0.253941 0.996075
vt 0.253939 0.996074
vt 0.253940 0.996067
vt 0.253940 0.996067
vt 0.253939 0.996065
vt 0.253934 0.996060
vt 0.253933 0.996057
vt 0.253933 0.996056
vt 0.253933 0.996054
vt 0.254052 0.996069
vt 0.254059 0.996069
vt 0.254052 0.996072
vt 0.254051 0.996071
vt 0.254059 0.996072
vt 0.254061 0.996091
vt 0.254061 0.996089
vt 0.254067 0.996086
vt 0.254067 0.996087
vt 0.254067 0.996089
vt 0.254062 0.996092
vt 0.254000 0.996101
vt 0.253998 0.996102
vt 0.253999 0.996098
vt 0.253998 0.996099
vt 0.253998 0.996096
vt 0.253997 0.996097
vt 0.253999 0.996096
vt 0.254003 0.996101
vt 0.254001 0.996102
vt 0.254003 0.996098
vt 0.254001 0.996099
vt 0.254001 0.996096
vt 0.254000 0.996097
vt 0.254003 0.996096
vt 0.254061 0.996044
vt 0.254061 0.996042
vt 0.254062 0.996045
vt 0.254061 0.996072
vt 0.254067 0.996070
vt 0.254067 0.996069
vt 0.254061 0.996038
vt 0.254048 0.996071
vt 0.254050 0.996070
vt 0.254050 0.996072
vt 0.254048 0.996071
vt 0.254050 0.996072
vt 0.254037 0.996071
vt 0.254050 0.996069
vt 0.254037 0.996069
vt 0.254008 0.996102
vt 0.254007 0.996100
vt 0.254009 0.996101
vt 0.254009 0.996096
vt 0.254010 0.996100
vt 0.254066 0.996021
vt 0.254067 0.995988
vt 0.254065 0.995988
vt 0.254064 0.995988
vt 0.254049 0.996093
vt 0.254049 0.996096
vt 0.254045 0.996096
vt 0.254061 0.996074
vt 0.254058 0.996075
vt 0.254058 0.996075
vt 0.254057 0.996093
vt 0.254054 0.996094
vt 0.254057 0.996096
vt 0.254005 0.996102
vt 0.254005 0.996100
vt 0.254004 0.996101
vt 0.253974 0.996075
vt 0.253975 0.996075
vt 0.253978 0.996074
vt 0.253974 0.996075
vt 0.253973 0.996075
vt 0.253979 0.996074
vt 0.253983 0.996073
vt 0.253983 0.996073
vt 0.254048 0.996079
vt 0.254049 0.996079
vt 0.254053 0.996078
vt 0.254053 0.996078
vt 0.254057 0.996076
vt 0.254057 0.996077
vt 0.254047 0.996080
vt 0.254045 0.996081
vt 0.254043 0.996081
vt 0.254041 0.996082
vt 0.253999 0.996075
vt 0.253994 0.996075
vt 0.254001 0.996074
vt 0.254001 0.996073
vt 0.254003 0.996073
vt 0.254003 0.996073
vt 0.254038 0.996075
vt 0.254044 0.996073
vt 0.254044 0.996075
vt 0.254038 0.996074
vt 0.253964 0.996075
vt 0.253963 0.996075
vt 0.253969 0.996074
vt 0.253972 0.996073
vt 0.254055 0.996064
vt 0.254059 0.996065
vt 0.254064 0.996064
vt 0.254067 0.996062
vt 0.254007 0.996074
vt 0.254007 0.996074
vt 0.254010 0.996073
vt 0.254010 0.996073
vt 0.253989 0.996074
vt 0.253984 0.996075
vt 0.253983 0.996075
vt 0.253993 0.996073
vt 0.254029 0.996074
vt 0.254024 0.996074
vt 0.254030 0.996073
vt 0.254044 0.996093
vt 0.254041 0.996093
vt 0.253961 0.996102
vt 0.253965 0.996099
vt 0.253961 0.996101
vt 0.253960 0.996102
vt 0.253960 0.996102
vt 0.253969 0.996096
vt 0.254027 0.996085
vt 0.254022 0.996083
vt 0.254022 0.996084
vt 0.254027 0.996085
vt 0.254021 0.996083
vt 0.254021 0.996084
vt 0.254055 0.996074
vt 0.254056 0.996073
vt 0.254057 0.996074
vt 0.254057 0.996073
vt 0.254045 0.996073
vt 0.254046 0.996073
vt 0.254044 0.996073
vt 0.254044 0.996074
vt 0.254044 0.996084
vt 0.254044 0.996085
vt 0.254046 0.996083
vt 0.254047 0.996083
vt 0.254042 0.996085
vt 0.254065 0.996077
vt 0.254065 0.996078
vt 0.254067 0.996076
vt 0.254061 0.996079
vt 0.254025 0.996070
vt 0.254025 0.996070
vt 0.254024 0.996069
vt 0.254025 0.996071
vt 0.254027 0.996072
vt 0.254029 0.996071
vt 0.254030 0.996072
vt 0.254035 0.996071
vt 0.254035 0.996072
vt 0.254036 0.996071
vt 0.254036 0.996070
vt 0.254037 0.996069
vt 0.254013 0.996074
vt 0.254014 0.996073
vt 0.254015 0.996074
vt 0.254017 0.996075
vt 0.254020 0.996074
vt 0.254020 0.996074
vt 0.254063 0.996085
vt 0.254063 0.996084
vt 0.254061 0.996085
vt 0.254031 0.996084
vt 0.254053 0.996066
vt 0.254056 0.996066
vt 0.254058 0.996066
vt 0.254052 0.996067
vt 0.254062 0.996067
vt 0.254061 0.996067
vt 0.254064 0.996069
vt 0.254050 0.996067
vt 0.254058 0.996085
vt 0.254056 0.996083
vt 0.254056 0.996085
vt 0.254059 0.996059
vt 0.254062 0.996058
vt 0.254062 0.996057
vt 0.254056 0.996060
vt 0.254065 0.996056
vt 0.254054 0.996083
vt 0.254054 0.996095
vt 0.254040 0.996093
f 1/1 2/2 3/3
f 4/4 2/2 1/1
f 1/1 3/3 5/5
f 4/4 6/6 2/2
f 4/4 7/7 6/6
f 4/4 8/8 7/7
f 2/2 9/9 3/3
f 10/10 9/9 2/2
f 11/11 9/9 10/10
f 11/11 12/12 9/9
f 3/3 9/9 13/13
f 3/3 13/13 14/14
f 14/14 13/13 15/15
f 15/15 13/13 16/16
f 16/16 13/13 17/17
f 17/17 13/13 18/18
f 19/19 18/18 13/13
f 20/20 18/18 19/19
f 21/21 18/18 20/20
f 22/22 23/23 18/18
f 5/5 3/3 24/24
f 24/24 25/25 5/5
f 24/24 26/26 25/25
f 24/24 27/27 26/26
f 26/26 27/27 28/28
f 24/24 29/29 27/27
f 28/28 30/30 31/31
f 24/24 32/32 29/29
f 24/24 33/33 32/32
f 34/34 33/33 24/24
f 35/35 36/36 37/37
f 37/37 36/36 38/38
f 39/39 36/36 35/35
f 40/40 36/36 39/39
f 40/40 41/41 36/36
f 42/42 41/41 40/40
f 42/42 43/43 41/41
f 42/42 40/40 44/44
f 40/40 45/45 44/44
f 46/46 43/43 42/42
f 47/47 43/43 46/46
f 46/46 48/48 47/47
f 46/46 49/49 48/48
f 46/46 50/50 49/49
f 51/51 50/50 46/46
f 51/51 52/52 50/50
f 51/51 53/53 52/52
f 51/51 54/54 53/53
f 51/51 55/55 54/54
f 51/51 56/56 55/55
f 57/57 44/44 58/58
f 57/57 58/58 59/59
f 59/59 58/58 60/60
f 59/59 60/60 61/61
f 59/59 61/61 62/62
f 63/63 64/64 65/65
f 63/63 66/66 64/64
f 67/67 66/66 63/63
f 67/67 68/68 66/66
f 69/69 68/68 67/67
f 69/69 70/70 68/68
f 71/71 70/70 69/69
f 72/72 70/70 71/71
f 72/72 71/71 73/73
f 72/72 73/73 74/74
f 75/75 76/76 77/77
f 75/75 78/78 76/76
f 77/77 79/79 75/75
f 77/77 80/80 79/79
f 81/81 80/80 77/77
f 75/75 79/79 82/82
f 81/81 83/83 80/80
f 84/84 83/83 81/81
f 84/84 85/85 83/83
f 84/84 86/86 85/85
f 87/87 86/86 84/84
f 87/87 88/88 86/86
f 75/75 82/82 89/89
f 89/89 78/78 75/75
f 89/89 90/90 78/78
f 89/89 82/82 91/91
f 89/89 92/92 90/90
f 89/89 91/91 93/93
f 93/93 92/92 89/89
f 93/93 91/91 94/94
f 93/93 95/95 92/92
f 93/93 94/94 96/96
f 97/97 95/95 93/93
f 93/93 96/96 97/97
f 97/97 98/98 95/95
f 97/97 96/96 99/99
f 100/100 98/98 97/97
f 97/97 99/99 100/100
f 100/100 101/101 98/98
f 102/102 101/101 100/100
f 100/100 99/99 102/102
f 102/102 99/99 103/103
f 102/102 103/103 104/104
f 102/102 104/104 105/105
f 105/105 104/104 106/106
f 105/105 106/106 107/107
f 107/107 106/106 108/108
f 107/107 108/108 109/109
f 109/109 108/108 110/110
f 109/109 110/110 111/111
f 109/109 111/111 112/112
f 112/112 111/111 113/113
f 112/112 113/113 114/114
f 111/111 115/115 113/113
f 111/111 116/116 115/115
f 113/113 115/115 117/117
f 114/114 113/113 118/118
f 113/113 117/117 118/118
f 114/114 118/118 119/119
f 120/120 118/118 117/117
f 119/119 118/118 121/121
f 120/120 121/121 118/118
f 122/122 121/121 120/120
f 119/119 121/121 123/123
f 124/124 121/121 122/122
f 123/123 121/121 124/124
f 123/123 124/124 125/125
f 124/124 126/126 125/125
f 127/127 126/126 124/124
f 128/128 126/126 127/127
f 127/127 129/129 128/128
f 130/130 131/131 126/126
f 126/126 131/131 132/132
f 125/125 126/126 132/132
f 125/125 132/132 133/133
f 133/133 132/132 134/134
f 134/134 132/132 135/135
f 134/134 135/135 136/136
f 134/134 137/137 133/133
f 133/133 137/137 138/138
f 139/139 140/140 137/137
f 137/137 140/140 141/141
f 138/138 137/137 141/141
f 142/142 141/141 143/143
f 144/144 141/141 142/142
f 138/138 141/141 144/144
f 138/138 144/144 145/145
f 145/145 144/144 146/146
f 146/146 144/144 147/147
f 146/146 147/147 148/148
f 148/148 147/147 149/149
f 149/149 147/147 150/150
f 151/151 152/152 144/144
f 144/144 152/152 153/153
f 147/147 144/144 153/153
f 153/153 152/152 154/154
f 153/153 154/154 147/147
f 154/154 155/155 147/147
f 150/150 147/147 156/156
f 147/147 155/155 156/156
f 150/150 156/156 87/87
f 157/157 156/156 155/155
f 87/87 156/156 88/88
f 157/157 88/88 156/156
f 158/158 92/92 95/95
f 158/158 95/95 159/159
f 160/160 92/92 158/158
f 160/160 90/90 92/92
f 159/159 95/95 161/161
f 160/160 78/78 90/90
f 162/162 159/159 163/163
f 163/163 161/161 164/164
f 161/161 95/95 165/165
f 161/161 165/165 166/166
f 166/166 165/165 167/167
f 166/166 167/167 168/168
f 168/168 167/167 169/169
f 170/170 160/160 171/171
f 172/172 78/78 160/160
f 173/173 78/78 172/172
f 173/173 174/174 78/78
f 175/175 174/174 173/173
f 175/175 176/176 174/174
f 177/177 176/176 175/175
f 178/178 176/176 177/177
f 179/179 180/180 178/178
f 178/178 180/180 176/176
f 181/181 176/176 180/180
f 182/182 176/176 181/181
f 183/183 176/176 182/182
f 183/183 184/184 176/176
f 185/185 184/184 183/183
f 185/185 186/186 184/184
f 185/185 187/187 186/186
f 188/188 187/187 185/185
f 188/188 189/189 187/187
f 190/190 189/189 188/188
f 190/190 191/191 189/189
f 190/190 192/192 191/191
f 193/193 192/192 190/190
f 194/194 192/192 193/193
f 194/194 195/195 192/192
f 194/194 196/196 195/195
f 197/197 196/196 194/194
f 197/197 198/198 196/196
f 199/199 198/198 197/197
f 199/199 200/200 198/198
f 201/201 200/200 199/199
f 201/201 202/202 200/200
f 201/201 203/203 202/202
f 204/204 203/203 201/201
f 204/204 205/205 203/203
f 206/206 205/205 204/204
f 206/206 207/207 205/205
f 208/208 207/207 206/206
f 208/208 169/169 207/207
f 209/209 207/207 169/169
f 210/210 207/207 209/209
f 211/211 207/207 210/210
f 211/211 212/212 207/207
f 211/211 213/213 212/212
f 214/214 213/213 211/211
f 214/214 215/215 213/213
f 214/214 216/216 215/215
f 217/217 216/216 214/214
f 217/217 218/218 216/216
f 219/219 218/218 217/217
f 219/219 220/220 218/218
f 221/221 220/220 219/219
f 222/222 220/220 221/221
f 169/169 220/220 222/222
f 169/169 167/167 220/220
f 105/105 223/223 224/224
f 105/105 224/224 102/102
f 102/102 224/224 101/101
f 107/107 223/223 105/105
f 107/107 225/225 223/223
f 109/109 225/225 107/107
f 109/109 226/226 225/225
f 112/112 226/226 109/109
f 227/227 228/228 229/229
f 227/227 230/230 228/228
f 231/231 230/230 227/227
f 227/227 229/229 232/232
f 232/232 229/229 233/233
f 232/232 233/233 234/234
f 234/234 233/233 235/235
f 234/234 235/235 236/236
f 236/236 235/235 237/237
f 236/236 237/237 238/238
f 239/239 240/240 241/241
f 242/242 240/240 239/239
f 240/240 242/242 243/243
f 243/243 242/242 244/244
f 245/245 241/241 240/240
f 239/239 241/241 246/246
f 244/244 242/242 247/247
f 248/248 247/247 242/242
f 244/244 247/247 249/249
f 250/250 247/247 248/248
f 249/249 247/247 251/251
f 252/252 247/247 250/250
f 246/246 241/241 253/253
f 246/246 253/253 254/254
f 254/254 253/253 255/255
f 254/254 255/255 256/256
f 254/254 256/256 257/257
f 257/257 256/256 258/258
f 256/256 255/255 259/259
f 259/259 260/260 261/261
f 258/258 256/256 262/262
f 256/256 259/259 263/263
f 262/262 256/256 154/154
f 262/262 154/154 264/264
f 264/264 154/154 152/152
f 264/264 152/152 265/265
f 265/265 152/152 266/266
f 266/266 152/152 151/151
f 266/266 151/151 140/140
f 140/140 151/151 267/267
f 267/267 268/268 140/140
f 266/266 140/140 139/139
f 267/267 269/269 268/268
f 266/266 139/139 270/270
f 271/271 269/269 267/267
f 272/272 271/271 267/267
f 271/271 273/273 269/269
f 139/139 269/269 273/273
f 272/272 274/274 271/271
f 272/272 275/275 274/274
f 275/275 272/272 122/122
f 271/271 274/274 276/276
f 275/275 122/122 130/130
f 276/276 273/273 271/271
f 273/273 277/277 139/139
f 139/139 277/277 278/278
f 130/130 122/122 279/279
f 139/139 278/278 131/131
f 279/279 131/131 130/130
f 139/139 131/131 270/270
f 270/270 131/131 279/279
f 276/276 274/274 131/131
f 131/131 278/278 280/280
f 131/131 280/280 281/281
f 131/131 281/281 276/276
f 276/276 281/281 282/282
f 279/279 122/122 120/120
f 283/283 279/279 284/284
f 279/279 120/120 285/285
f 276/276 282/282 286/286
f 285/285 120/120 117/117
f 287/287 286/286 282/282
f 117/117 288/288 285/285
f 117/117 252/252 288/288
f 289/289 286/286 287/287
f 276/276 286/286 273/273
f 289/289 290/290 286/286
f 289/289 291/291 290/290
f 286/286 292/292 273/273
f 290/290 292/292 286/286
f 290/290 291/291 292/292
f 292/292 293/293 273/273
f 292/292 291/291 293/293
f 117/117 247/247 252/252
f 294/294 247/247 117/117
f 294/294 117/117 295/295
f 296/296 247/247 294/294
f 295/295 117/117 297/297
f 296/296 298/298 247/247
f 299/299 298/298 296/296
f 300/300 298/298 299/299
f 300/300 301/301 298/298
f 300/300 302/302 301/301
f 298/298 303/303 247/247
f 304/304 302/302 300/300
f 247/247 303/303 251/251
f 116/116 302/302 304/304
f 116/116 305/305 302/302
f 306/306 116/116 304/304
f 297/297 116/116 306/306
f 297/297 117/117 116/116
f 116/116 117/117 115/115
f 307/307 251/251 303/303
f 307/307 308/308 251/251
f 308/308 307/307 309/309
f 310/310 307/307 303/303
f 310/310 303/303 103/103
f 309/309 307/307 311/311
f 310/310 311/311 307/307
f 309/309 311/311 245/245
f 312/312 311/311 310/310
f 245/245 311/311 241/241
f 312/312 241/241 311/311
f 313/313 241/241 312/312
f 314/314 241/241 313/313
f 314/314 315/315 241/241
f 253/253 241/241 315/315
f 315/315 316/316 253/253
f 314/314 317/317 315/315
f 317/317 316/316 315/315
f 318/318 317/317 314/314
f 79/79 317/317 318/318
f 317/317 319/319 316/316
f 79/79 320/320 317/317
f 320/320 319/319 317/317
f 320/320 321/321 319/319
f 263/263 321/321 320/320
f 263/263 320/320 322/322
f 263/263 322/322 256/256
f 256/256 322/322 323/323
f 323/323 322/322 324/324
f 325/325 256/256 323/323
f 324/324 322/322 326/326
f 324/324 326/326 327/327
f 327/327 326/326 328/328
f 327/327 328/328 329/329
f 327/327 329/329 330/330
f 331/331 256/256 325/325
f 330/330 329/329 157/157
f 331/331 154/154 256/256
f 154/154 157/157 155/155
f 330/330 157/157 332/332
f 332/332 157/157 154/154
f 332/332 333/333 330/330
f 334/334 333/333 332/332
f 332/332 335/335 334/334
f 332/332 154/154 336/336
f 336/336 335/335 332/332
f 336/336 154/154 331/331
f 336/336 337/337 335/335
f 331/331 337/337 336/336
f 338/338 337/337 331/331
f 28/28 339/339 26/26
f 26/26 339/339 25/25
f 25/25 339/339 38/38
f 27/27 339/339 28/28
f 37/37 38/38 339/339
f 27/27 340/340 339/339
f 29/29 340/340 27/27
f 32/32 340/340 29/29
f 33/33 340/340 32/32
f 341/341 340/340 33/33
f 342/342 37/37 15/15
f 16/16 342/342 15/15
f 342/342 35/35 37/37
f 16/16 35/35 342/342
f 343/343 35/35 16/16
f 344/344 35/35 343/343
f 345/345 344/344 343/343
f 346/346 35/35 344/344
f 347/347 35/35 346/346
f 15/15 348/348 349/349
f 349/349 348/348 350/350
f 350/350 348/348 351/351
f 350/350 351/351 352/352
f 352/352 353/353 354/354
f 355/355 356/356 357/357
f 355/355 357/357 358/358
f 358/358 357/357 359/359
f 358/358 359/359 360/360
f 274/274 359/359 357/357
f 275/275 359/359 274/274
f 355/355 361/361 356/356
f 356/356 361/361 269/269
f 269/269 361/361 268/268
f 362/362 361/361 355/355
f 361/361 362/362 363/363
f 364/364 275/275 130/130
f 359/359 275/275 364/364
f 364/364 130/130 365/365
f 131/131 357/357 366/366
f 274/274 357/357 131/131
f 367/367 368/368 369/369
f 369/369 368/368 370/370
f 371/371 368/368 367/367
f 369/369 370/370 372/372
f 370/370 373/373 374/374
f 369/369 372/372 375/375
f 375/375 372/372 376/376
f 375/375 376/376 377/377
f 371/371 367/367 378/378
f 371/371 378/378 379/379
f 378/378 367/367 380/380
f 380/380 367/367 381/381
f 380/380 381/381 382/382
f 381/381 383/383 382/382
f 381/381 384/384 383/383
f 385/385 384/384 381/381
f 385/385 386/386 384/384
f 385/385 387/387 386/386
f 388/388 387/387 385/385
f 388/388 385/385 389/389
f 389/389 385/385 390/390
f 391/391 388/388 389/389
f 390/390 385/385 392/392
f 391/391 393/393 388/388
f 390/390 392/392 394/394
f 391/391 395/395 393/393
f 394/394 392/392 396/396
f 397/397 395/395 391/391
f 396/396 392/392 398/398
f 396/396 398/398 399/399
f 399/399 398/398 400/400
f 399/399 400/400 401/401
f 402/402 395/395 397/397
f 399/399 401/401 402/402
f 402/402 403/403 395/395
f 402/402 401/401 404/404
f 402/402 405/405 403/403
f 402/402 404/404 406/406
f 402/402 406/406 405/405
f 405/405 406/406 407/407
f 408/408 407/407 409/409
f 408/408 409/409 410/410
f 410/410 409/409 411/411
f 411/411 412/412 413/413
f 363/363 140/140 268/268
f 414/414 140/140 363/363
f 363/363 268/268 361/361
f 415/415 416/416 417/417
f 418/418 416/416 415/415
f 415/415 417/417 419/419
f 415/415 419/419 420/420
f 420/420 419/419 421/421
f 420/420 421/421 422/422
f 420/420 422/422 423/423
f 423/423 422/422 424/424
f 425/425 426/426 427/427
f 427/427 426/426 428/428
f 427/427 428/428 429/429
f 429/429 428/428 430/430
f 429/429 430/430 431/431
f 431/431 430/430 432/432
f 431/431 432/432 433/433
f 433/433 432/432 375/375
f 433/433 375/375 434/434
f 434/434 375/375 377/377
f 434/434 377/377 435/435
f 435/435 377/377 436/436
f 435/435 436/436 437/437
f 435/435 437/437 438/438
f 438/438 437/437 425/425
f 425/425 437/437 439/439
f 425/425 439/439 440/440
f 440/440 441/441 425/425
f 442/442 441/441 440/440
f 425/425 441/441 443/443
f 425/425 443/443 426/426
f 444/444 195/195 445/445
f 445/445 195/195 196/196
f 444/444 446/446 195/195
f 445/445 196/196 447/447
f 448/448 446/446 444/444
f 447/447 196/196 198/198
f 449/449 446/446 448/448
f 447/447 198/198 450/450
f 449/449 451/451 446/446
f 450/450 198/198 200/200
f 452/452 451/451 449/449
f 453/453 451/451 452/452
f 454/454 453/453 452/452
f 450/450 200/200 455/455
f 455/455 200/200 202/202
f 455/455 202/202 203/203
f 455/455 203/203 456/456
f 456/456 203/203 205/205
f 456/456 205/205 457/457
f 457/457 205/205 207/207
f 458/458 459/459 460/460
f 460/460 459/459 461/461
f 462/462 458/458 460/460
f 461/461 459/459 362/362
f 462/462 463/463 458/458
f 461/461 362/362 464/464
f 465/465 463/463 462/462
f 464/464 362/362 466/466
f 465/465 467/467 463/463
f 466/466 362/362 355/355
f 468/468 467/467 465/465
f 466/466 355/355 469/469
f 468/468 470/470 467/467
f 466/466 469/469 471/471
f 472/472 470/470 468/468
f 471/471 469/469 473/473
f 472/472 473/473 470/470
f 471/471 473/473 472/472
f 474/474 475/475 476/476
f 477/477 475/475 474/474
f 476/476 478/478 474/474
f 479/479 478/478 476/476
f 480/480 481/481 477/477
f 482/482 483/483 484/484
f 484/484 483/483 485/485
f 486/486 485/485 487/487
f 484/484 488/488 482/482
f 489/489 488/488 484/484
f 482/482 488/488 490/490
f 489/489 491/491 488/488
f 482/482 490/490 492/492
f 493/493 491/491 489/489
f 482/482 492/492 494/494
f 493/493 360/360 491/491
f 494/494 492/492 495/495
f 479/479 360/360 493/493
f 494/494 495/495 496/496
f 476/476 360/360 479/479
f 496/496 495/495 475/475
f 476/476 358/358 360/360
f 475/475 495/495 497/497
f 476/476 497/497 358/358
f 475/475 497/497 476/476
f 495/495 498/498 497/497
f 497/497 498/498 499/499
f 497/497 499/499 358/358
f 358/358 499/499 500/500
f 501/501 502/502 503/503
f 504/504 501/501 503/503
f 504/504 505/505 501/501
f 506/506 505/505 504/504
f 507/507 505/505 506/506
f 139/139 508/508 269/269
f 356/356 269/269 508/508
f 509/509 508/508 139/139
f 510/510 511/511 512/512
f 512/512 511/511 513/513
f 514/514 515/515 516/516
f 517/517 515/515 514/514
f 518/518 392/392 385/385
f 518/518 385/385 519/519
f 520/520 392/392 518/518
f 521/521 392/392 520/520
f 521/521 398/398 392/392
f 522/522 398/398 521/521
f 522/522 400/400 398/398
f 523/523 400/400 522/522
f 524/524 525/525 526/526
f 527/527 525/525 524/524
f 524/524 526/526 528/528
f 528/528 526/526 529/529
f 528/528 529/529 530/530
f 530/530 529/529 531/531
f 531/531 529/529 532/532
f 531/531 532/532 533/533
f 534/534 532/532 535/535
f 212/212 213/213 536/536
f 536/536 213/213 537/537
f 537/537 213/213 215/215
f 457/457 212/212 536/536
f 457/457 207/207 212/212
f 538/538 430/430 428/428
f 538/538 432/432 430/430
f 428/428 539/539 538/538
f 426/426 539/539 428/428
f 540/540 432/432 538/538
f 540/540 375/375 432/432
f 541/541 375/375 540/540
f 542/542 532/532 541/541
f 543/543 26/26 544/544
f 544/544 26/26 28/28
f 543/543 25/25 26/26
f 544/544 28/28 527/527
f 527/527 28/28 27/27
f 527/527 27/27 545/545
f 543/543 546/546 25/25
f 547/547 546/546 543/543
f 547/547 47/47 546/546
f 548/548 47/47 547/547
f 548/548 48/48 47/47
f 548/548 8/8 48/48
f 533/533 8/8 548/548
f 533/533 7/7 8/8
f 549/549 7/7 533/533
f 550/550 551/551 552/552
f 553/553 551/551 550/550
f 550/550 552/552 554/554
f 555/555 554/554 552/552
f 555/555 556/556 554/554
f 552/552 551/551 557/557
f 557/557 551/551 558/558
f 557/557 558/558 559/559
f 557/557 559/559 560/560
f 560/560 559/559 561/561
f 560/560 561/561 562/562
f 560/560 562/562 563/563
f 563/563 562/562 564/564
f 565/565 566/566 567/567
f 566/566 565/565 568/568
f 567/567 566/566 569/569
f 567/567 569/569 570/570
f 570/570 569/569 571/571
f 572/572 570/570 573/573
f 574/574 575/575 572/572
f 576/576 575/575 577/577
f 578/578 579/579 193/193
f 578/578 580/580 579/579
f 545/545 32/32 581/581
f 545/545 29/29 32/32
f 545/545 27/27 29/29
f 581/581 32/32 33/33
f 581/581 33/33 582/582
f 582/582 33/33 341/341
f 582/582 341/341 354/354
f 582/582 354/354 583/583
f 584/584 583/583 354/354
f 583/583 584/584 585/585
f 586/586 587/587 588/588
f 586/586 588/588 589/589
f 588/588 590/590 589/589
f 586/586 591/591 587/587
f 592/592 591/591 586/586
f 593/593 591/591 592/592
f 593/593 594/594 591/591
f 593/593 595/595 594/594
f 596/596 595/595 593/593
f 596/596 597/597 595/595
f 598/598 597/597 596/596
f 598/598 599/599 597/597
f 600/600 599/599 598/598
f 601/601 598/598 602/602
f 603/603 604/604 605/605
f 605/605 604/604 606/606
f 606/606 604/604 607/607
f 603/603 605/605 608/608
f 603/603 608/608 609/609
f 407/407 610/610 611/611
f 406/406 610/610 407/407
f 612/612 405/405 407/407
f 613/613 405/405 612/612
f 614/614 405/405 613/613
f 614/614 403/403 405/405
f 615/615 403/403 614/614
f 616/616 403/403 615/615
f 616/616 395/395 403/403
f 617/617 395/395 616/616
f 617/617 393/393 395/395
f 618/618 393/393 617/617
f 393/393 618/618 388/388
f 388/388 618/618 619/619
f 388/388 619/619 387/387
f 387/387 619/619 620/620
f 620/620 386/386 387/387
f 621/621 386/386 620/620
f 590/590 622/622 623/623
f 622/622 590/590 588/588
f 623/623 622/622 585/585
f 585/585 584/584 623/623
f 624/624 590/590 625/625
f 625/625 626/626 627/627
f 628/628 629/629 597/597
f 628/628 597/597 630/630
f 631/631 629/629 628/628
f 632/632 629/629 631/631
f 632/632 594/594 629/629
f 632/632 587/587 594/594
f 633/633 587/587 632/632
f 628/628 630/630 634/634
f 635/635 633/633 636/636
f 636/636 633/633 637/637
f 636/636 637/637 638/638
f 636/636 638/638 639/639
f 639/639 638/638 631/631
f 639/639 631/631 602/602
f 602/602 631/631 634/634
f 602/602 634/634 601/601
f 601/601 634/634 573/573
f 573/573 634/634 640/640
f 634/634 630/630 640/640
f 573/573 640/640 572/572
f 640/640 630/630 641/641
f 640/640 641/641 642/642
f 642/642 641/641 643/643
f 572/572 640/640 644/644
f 572/572 644/644 574/574
f 574/574 644/644 577/577
f 577/577 644/644 645/645
f 577/577 645/645 576/576
f 645/645 646/646 576/576
f 647/647 646/646 645/645
f 647/647 648/648 646/646
f 649/649 648/648 647/647
f 649/649 650/650 648/648
f 650/650 649/649 651/651
f 651/651 649/649 652/652
f 653/653 651/651 652/652
f 653/653 654/654 651/651
f 655/655 654/654 653/653
f 655/655 656/656 654/654
f 657/657 658/658 659/659
f 657/657 659/659 660/660
f 661/661 662/662 663/663
f 663/663 662/662 664/664
f 665/665 666/666 667/667
f 667/667 513/513 511/511
f 667/667 666/666 513/513
f 668/668 513/513 666/666
f 668/668 512/512 513/513
f 668/668 666/666 669/669
f 669/669 666/666 670/670
f 670/670 666/666 665/665
f 669/669 670/670 517/517
f 517/517 670/670 515/515
f 665/665 515/515 670/670
f 516/516 515/515 665/665
f 671/671 672/672 673/673
f 673/673 672/672 674/674
f 674/674 672/672 675/675
f 676/676 675/675 672/672
f 676/676 677/677 675/675
f 672/672 671/671 678/678
f 678/678 671/671 679/679
f 679/679 671/671 680/680
f 679/679 680/680 681/681
f 681/681 680/680 682/682
f 681/681 682/682 539/539
f 539/539 682/682 555/555
f 539/539 555/555 552/552
f 539/539 552/552 538/538
f 538/538 552/552 557/557
f 538/538 557/557 560/560
f 538/538 560/560 540/540
f 540/540 560/560 563/563
f 540/540 563/563 541/541
f 541/541 563/563 542/542
f 542/542 683/683 684/684
f 684/684 683/683 685/685
f 684/684 685/685 686/686
f 686/686 685/685 687/687
f 686/686 687/687 688/688
f 688/688 687/687 689/689
f 688/688 689/689 690/690
f 690/690 689/689 519/519
f 519/519 691/691 518/518
f 518/518 691/691 520/520
f 520/520 692/692 521/521
f 521/521 692/692 693/693
f 521/521 693/693 522/522
f 522/522 693/693 523/523
f 523/523 693/693 694/694
f 523/523 694/694 695/695
f 523/523 695/695 696/696
f 696/696 695/695 697/697
f 696/696 697/697 610/610
f 610/610 697/697 611/611
f 611/611 698/698 699/699
f 700/700 699/699 701/701
f 700/700 701/701 677/677
f 702/702 703/703 704/704
f 702/702 704/704 705/705
f 704/704 703/703 706/706
f 642/642 706/706 703/703
f 642/642 643/643 706/706
f 707/707 708/708 709/709
f 710/710 707/707 709/709
f 711/711 707/707 710/710
f 712/712 707/707 711/711
f 713/713 714/714 715/715
f 715/715 714/714 716/716
f 715/715 716/716 717/717
f 716/716 718/718 717/717
f 719/719 715/715 717/717
f 720/720 721/721 722/722
f 722/722 721/721 723/723
f 722/722 723/723 724/724
f 723/723 725/725 724/724
f 726/726 722/722 724/724
f 727/727 728/728 724/724
f 725/725 727/727 724/724
f 723/723 727/727 725/725
f 729/729 727/727 723/723
f 730/730 731/731 732/732
f 708/708 730/730 732/732
f 733/733 722/722 726/726
f 728/728 733/733 726/726
f 734/734 735/735 736/736
f 737/737 736/736 738/738
f 739/739 740/740 735/735
f 741/741 740/740 739/739
f 742/742 743/743 744/744
f 744/744 745/745 746/746
f 747/747 748/748 749/749
f 660/660 748/748 747/747
f 749/749 664/664 747/747
f 750/750 664/664 749/749
f 661/661 663/663 659/659
f 659/659 663/663 751/751
f 752/752 661/661 659/659
f 658/658 752/752 659/659
f 662/662 657/657 664/664
f 753/753 657/657 662/662
f 664/664 657/657 747/747
f 657/657 660/660 747/747
f 753/753 752/752 657/657
f 657/657 752/752 658/658
f 752/752 753/753 661/661
f 661/661 753/753 662/662
f 164/164 161/161 166/166
f 163/163 159/159 161/161
f 754/754 168/168 755/755
f 755/755 168/168 756/756
f 754/754 166/166 168/168
f 164/164 166/166 754/754
f 757/757 758/758 759/759
f 729/729 733/733 728/728
f 727/727 729/729 728/728
f 728/728 726/726 724/724
f 760/760 713/713 761/761
f 762/762 760/760 761/761
f 761/761 732/732 709/709
f 763/763 764/764 765/765
f 764/764 763/763 766/766
f 766/766 763/763 767/767
f 765/765 764/764 768/768
f 765/765 768/768 769/769
f 769/769 768/768 770/770
f 771/771 772/772 773/773
f 773/773 772/772 774/774
f 773/773 774/774 775/775
f 775/775 774/774 776/776
f 772/772 771/771 777/777
f 777/777 771/771 778/778
f 778/778 771/771 779/779
f 778/778 779/779 194/194
f 194/194 779/779 780/780
f 427/427 781/781 425/425
f 782/782 781/781 427/427
f 575/575 425/425 781/781
f 575/575 783/783 425/425
f 784/784 783/783 575/575
f 785/785 783/783 784/784
f 786/786 783/783 785/785
f 787/787 788/788 789/789
f 790/790 788/788 787/787
f 787/787 626/626 790/790
f 396/396 791/791 394/394
f 396/396 792/792 791/791
f 399/399 792/792 396/396
f 394/394 791/791 793/793
f 394/394 793/793 390/390
f 390/390 793/793 794/794
f 194/194 780/780 197/197
f 197/197 780/780 795/795
f 197/197 795/795 199/199
f 199/199 795/795 796/796
f 199/199 796/796 201/201
f 201/201 796/796 797/797
f 204/204 797/797 798/798
f 787/787 799/799 626/626
f 626/626 799/799 800/800
f 800/800 799/799 801/801
f 800/800 801/801 802/802
f 304/304 803/803 804/804
f 805/805 304/304 804/804
f 300/300 803/803 304/304
f 300/300 806/806 803/803
f 299/299 806/806 300/300
f 214/214 211/211 807/807
f 807/807 211/211 808/808
f 214/214 807/807 809/809
f 810/810 178/178 811/811
f 810/810 179/179 178/178
f 812/812 813/813 814/814
f 815/815 812/812 814/814
f 815/815 816/816 812/812
f 431/431 813/813 812/812
f 431/431 817/817 813/813
f 433/433 817/817 431/431
f 818/818 819/819 820/820
f 821/821 819/819 818/818
f 822/822 820/820 819/819
f 822/822 823/823 820/820
f 802/802 824/824 825/825
f 801/801 824/824 802/802
f 826/826 825/825 824/824
f 826/826 827/827 825/825
f 828/828 786/786 829/829
f 829/829 786/786 785/785
f 828/828 829/829 830/830
f 828/828 830/830 831/831
f 832/832 833/833 834/834
f 834/834 833/833 835/835
f 832/832 836/836 833/833
f 811/811 836/836 832/832
f 648/648 784/784 646/646
f 837/837 838/838 839/839
f 838/838 837/837 209/209
f 840/840 209/209 837/837
f 840/840 210/210 209/209
f 808/808 210/210 840/840
f 211/211 210/210 808/808
f 841/841 842/842 843/843
f 844/844 842/842 841/841
f 844/844 845/845 842/842
f 846/846 845/845 847/847
f 846/846 847/847 848/848
f 848/848 847/847 849/849
f 849/849 850/850 848/848
f 848/848 850/850 851/851
f 851/851 850/850 852/852
f 852/852 850/850 853/853
f 852/852 853/853 854/854
f 854/854 853/853 855/855
f 854/854 855/855 30/30
f 30/30 855/855 31/31
f 31/31 855/855 856/856
f 171/171 160/160 158/158
f 171/171 158/158 857/857
f 857/857 158/158 858/858
f 857/857 858/858 810/810
f 810/810 858/858 179/179
f 162/162 859/859 159/159
f 860/860 859/859 162/162
f 860/860 861/861 859/859
f 862/862 656/656 655/655
f 841/841 843/843 862/862
f 863/863 864/864 865/865
f 865/865 864/864 745/745
f 863/863 866/866 864/864
f 865/865 745/745 867/867
f 867/867 745/745 868/868
f 867/867 868/868 869/869
f 863/863 180/180 866/866
f 870/870 180/180 863/863
f 775/775 180/180 870/870
f 775/775 776/776 180/180
f 755/755 871/871 872/872
f 755/755 756/756 871/871
f 872/872 871/871 873/873
f 872/872 873/873 861/861
f 874/874 875/875 208/208
f 876/876 875/875 874/874
f 208/208 877/877 874/874
f 876/876 869/869 875/875
f 878/878 869/869 876/876
f 867/867 869/869 878/878
f 206/206 877/877 208/208
f 206/206 798/798 877/877
f 204/204 798/798 206/206
f 839/839 838/838 222/222
f 839/839 222/222 879/879
f 879/879 222/222 221/221
f 170/170 172/172 160/160
f 170/170 835/835 172/172
f 834/834 835/835 170/170
f 635/635 589/589 880/880
f 881/881 39/39 19/19
