mtllib material.mtl
usemtl material_0
v -0.19476320 0.03293282 0.15954560
v -0.21270110 0.03293282 0.15954560
v -0.21270110 0.03346457 0.15741530
v -0.19221850 0.04598451 -0.15741530
v -0.21270110 0.03464640 -0.15954560
v -0.21270110 0.03441003 -0.15741530
v -0.19476310 0.04343326 -0.15954560
v -0.21270110 0.03417366 -0.15954560
v -0.19221850 0.04088199 -0.15741530
v -0.21270110 0.03417366 -0.15954560
v -0.21270110 0.03393729 -0.15741530
v -0.19476320 0.03833072 -0.15954560
v -0.21270110 0.03370093 -0.15954560
v -0.19221850 0.03577946 -0.15741530
v -0.21270110 0.03370093 -0.15954560
v -0.21270110 0.03346457 -0.15741530
v 0.20917010 0.01257751 0.16208170
v 0.20917010 0.01257751 -0.16208170
v 0.20694560 0.01031053 -0.16127910
v 0.20694560 0.01031053 0.16127910
v 0.07110947 0.01257751 0.16208170
v 0.20917010 0.01257751 0.16208170
v 0.20694560 0.01031053 0.16127910
v 0.06998422 0.01031053 0.16127910
v 0.21044710 0.00804356 0.16208170
v 0.07267635 0.00804357 0.16208170
v 0.02675274 0.00804357 0.16208170
v 0.02433044 0.01031053 0.16127910
v 0.02508922 0.01257751 0.16208170
v -0.01917086 0.00804356 0.16208170
v -0.02132339 0.01031053 0.16127910
v -0.02093098 0.01257751 0.16208170
v -0.06695119 0.01257751 0.16208170
v -0.06697710 0.01031053 0.16127910
v -0.06509445 0.00804356 0.16208170
v -0.09953718 0.00804357 0.16208170
v -0.10122860 0.01031053 0.16127910
v -0.10152570 0.01257751 0.16208170
v -0.13397990 0.00804357 0.16208170
v -0.13548000 0.01031053 0.16127910
v -0.13610020 0.01257751 0.16208170
v -0.16842260 0.00804357 0.16208170
v -0.16973140 0.01031053 0.16127910
v -0.17067470 0.01257751 0.16208170
v -0.18564390 0.00804356 0.16208170
v -0.18685710 0.01031053 0.16127910
v -0.18796200 0.01257751 0.16208170
v -0.20524930 0.01257751 0.16208170
v -0.20398290 0.01031053 0.16127910
v -0.20286530 0.00804356 0.16208170
v 0.20660690 0.02217127 0.16208170
v 0.20660690 0.02217127 -0.16208170
v 0.20429740 0.01937842 -0.16127910
v 0.20429740 0.01937842 0.16127910
v 0.06880493 0.02217127 0.16208170
v 0.20660690 0.02217127 0.16208170
v 0.20429740 0.01937842 0.16127910
v 0.06741421 0.01937842 0.16127910
v 0.20782040 0.01711146 0.16208170
v 0.06991180 0.01711145 0.16208170
v 0.02394228 0.01711145 0.16208170
v 0.02178642 0.01937842 0.16127910
v 0.02287095 0.02217127 0.16208170
v -0.02202729 0.01711145 0.16208170
v -0.02384125 0.01937842 0.16127910
v -0.02306307 0.02217127 0.16208170
v -0.06899709 0.02217127 0.16208170
v -0.06946904 0.01937842 0.16127910
v -0.06799681 0.01711145 0.16208170
v -0.10286180 0.01711144 0.16208170
v -0.10423700 0.01937842 0.16127910
v -0.10419100 0.02217127 0.16208170
v -0.13772670 0.01711144 0.16208170
v -0.13900500 0.01937842 0.16127910
v -0.13938490 0.02217127 0.16208170
v -0.17259170 0.01711144 0.16208170
v -0.17377280 0.01937842 0.16127910
v -0.17457890 0.02217127 0.16208170
v -0.19002410 0.01711144 0.16208170
v -0.19115690 0.01937842 0.16127910
v -0.19217580 0.02217127 0.16208170
v -0.20977280 0.02217127 0.16208170
v -0.20854080 0.01937842 0.16127910
v -0.20745660 0.01711144 0.16208170
v 0.20597400 0.03102310 0.16208170
v 0.20597400 0.03102310 -0.16208170
v 0.20306350 0.02844630 -0.16127910
v 0.20310010 0.02844630 0.16127910
v 0.06805205 0.03102310 0.16119040
v 0.20597400 0.03102310 0.16208170
v 0.20310010 0.02844630 0.16127910
v 0.06621888 0.02844629 0.16127910
v 0.20610120 0.02617931 0.16208170
v 0.06830227 0.02617931 0.16208170
v 0.02236931 0.02635235 0.16208170
v 0.02059173 0.02844629 0.16127910
v 0.02207801 0.03204294 0.16119040
v -0.02356362 0.02620321 0.16208170
v -0.02503543 0.02844629 0.16127910
v -0.02389597 0.03187299 0.16119040
v -0.06986995 0.03102310 0.16119040
v -0.07066246 0.02844629 0.16127910
v -0.06949663 0.02617931 0.16208170
v -0.10493860 0.02617931 0.16208170
v -0.10598680 0.02844629 0.16127910
v -0.10552170 0.03102310 0.16119040
v -0.14038050 0.02617931 0.16208170
v -0.14131130 0.02844629 0.16127910
v -0.14117350 0.03102310 0.16119040
v -0.17582240 0.02617931 0.16208170
v -0.17663570 0.02844629 0.16127910
v -0.17682520 0.03102310 0.16119040
v -0.19354340 0.02617931 0.16208170
v -0.19429790 0.02844628 0.16127910
v -0.19465100 0.03102310 0.16119040
v -0.21247690 0.03102310 0.16119040
v -0.21196010 0.02844629 0.16127910
v -0.21126430 0.02617931 0.16208170
v 0.20808620 0.00577659 0.16127910
v 0.20808620 0.00577659 -0.16127910
v 0.21135450 0.00350964 -0.16208170
v 0.21135450 0.00350964 0.16208170
v 0.07267635 0.00804357 0.16208170
v 0.21044710 0.00804356 0.16208170
v 0.20808620 0.00577659 0.16127910
v 0.07146017 0.00577659 0.16127910
v 0.21135450 0.00350964 0.16208170
v 0.07399669 0.00350964 0.16208170
v 0.02821084 0.00350964 0.16208170
v 0.02591808 0.00577659 0.16127910
v 0.02675274 0.00804357 0.16208170
v -0.01757510 0.00350964 0.16208170
v -0.01962391 0.00577659 0.16127910
v -0.01917086 0.00804356 0.16208170
v -0.06509445 0.00804356 0.16208170
v -0.06516594 0.00577659 0.16127910
v -0.06336104 0.00350963 0.16208170
v -0.09770044 0.00350963 0.16208170
v -0.09932243 0.00577659 0.16127910
v -0.09953718 0.00804357 0.16208170
v -0.13203990 0.00350963 0.16208170
v -0.13347890 0.00577659 0.16127910
v -0.13397990 0.00804357 0.16208170
v -0.16637930 0.00350962 0.16208170
v -0.16763550 0.00577659 0.16127910
v -0.16842260 0.00804357 0.16208170
v -0.18354900 0.00350962 0.16208170
v -0.18471370 0.00577659 0.16127910
v -0.18564390 0.00804356 0.16208170
v -0.20286530 0.00804356 0.16208170
v -0.20179200 0.00577659 0.16127910
v -0.20071880 0.00350963 0.16208170
v 0.21044710 0.00804356 0.16208170
v 0.21044710 0.00804356 -0.16208170
v 0.21044710 0.00804356 -0.16208170
v 0.21044710 0.00804356 0.16208170
v 0.20541440 0.01537036 0.16127910
v 0.20541440 0.01537036 -0.16127910
v 0.20917010 0.01257751 -0.16208170
v 0.20917010 0.01257751 0.16208170
v 0.06991180 0.01711145 0.16208170
v 0.20782040 0.01711146 0.16208170
v 0.20541440 0.01537036 0.16127910
v 0.06845669 0.01537036 0.16127910
v 0.20917010 0.01257751 0.16208170
v 0.07110947 0.01257751 0.16208170
v 0.02508922 0.01257751 0.16208170
v 0.02280416 0.01537036 0.16127910
v 0.02394228 0.01711145 0.16208170
v -0.02093098 0.01257751 0.16208170
v -0.02284840 0.01537037 0.16127910
v -0.02202729 0.01711145 0.16208170
v -0.06799681 0.01711145 0.16208170
v -0.06850099 0.01537037 0.16127910
v -0.06695119 0.01257751 0.16208170
v -0.10152570 0.01257751 0.16208170
v -0.10302600 0.01537037 0.16127910
v -0.10286180 0.01711144 0.16208170
v -0.13610020 0.01257751 0.16208170
v -0.13755100 0.01537037 0.16127910
v -0.13772670 0.01711144 0.16208170
v -0.17067470 0.01257751 0.16208170
v -0.17207600 0.01537037 0.16127910
v -0.17259170 0.01711144 0.16208170
v -0.18796200 0.01257751 0.16208170
v -0.18933850 0.01537037 0.16127910
v -0.19002410 0.01711144 0.16208170
v -0.20745660 0.01711144 0.16208170
v -0.20660110 0.01537037 0.16127910
v -0.20524930 0.01257751 0.16208170
v 0.20782040 0.01711146 0.16208170
v 0.20782040 0.01711146 -0.16208170
v 0.20782040 0.01711146 -0.16208170
v 0.20782040 0.01711146 0.16208170
v 0.20340180 0.02391236 0.16127910
v 0.20340180 0.02391236 -0.16127910
v 0.20660690 0.02217127 -0.16208170
v 0.20660690 0.02217127 0.16208170
v 0.06830227 0.02617931 0.16208170
v 0.20610120 0.02617931 0.16208170
v 0.20340180 0.02391236 0.16127910
v 0.06658542 0.02391236 0.16127910
v 0.20660690 0.02217127 0.16208170
v 0.06880493 0.02217127 0.16208170
v 0.02287095 0.02217127 0.16208170
v 0.02097994 0.02392732 0.16127910
v 0.02236931 0.02635235 0.16208170
v -0.02306307 0.02217127 0.16208170
v -0.02462544 0.02391236 0.16127910
v -0.02356362 0.02620321 0.16208170
v -0.06949663 0.02617931 0.16208170
v -0.07023089 0.02391236 0.16127910
v -0.06899709 0.02217127 0.16208170
v -0.10419100 0.02217127 0.16208170
v -0.10528670 0.02391236 0.16127910
v -0.10493860 0.02617931 0.16208170
v -0.13938490 0.02217127 0.16208170
v -0.14034240 0.02391236 0.16127910
v -0.14038050 0.02617931 0.16208170
v -0.17457890 0.02217127 0.16208170
v -0.17539820 0.02391235 0.16127910
v -0.17582240 0.02617931 0.16208170
v -0.19217580 0.02217127 0.16208170
v -0.19292600 0.02391235 0.16127910
v -0.19354340 0.02617931 0.16208170
v -0.21126430 0.02617931 0.16208170
v -0.21045390 0.02391235 0.16127910
v -0.20977280 0.02217127 0.16208170
v 0.20610120 0.02617931 0.16208170
v 0.20610120 0.02617931 -0.16208170
v 0.20610120 0.02617931 -0.16208170
v 0.20610120 0.02617931 0.16208170
v 0.20011620 0.03293282 -0.15954560
v 0.20011620 0.03293282 0.15954560
v 0.20058900 0.03397094 0.15741530
v 0.20058900 0.03397094 -0.15741530
v 0.20337320 0.03471369 0.15954560
v 0.20337320 0.03471369 -0.15954560
v 0.20011620 0.03293282 0.15954560
v 0.06708742 0.03397094 0.15741530
v 0.20058900 0.03397094 0.15741530
v 0.06805205 0.03293282 0.15954560
v 0.02172728 0.03617659 0.15741530
v 0.02207805 0.03293282 0.15954560
v -0.02363290 0.03676590 0.15741530
v -0.02389597 0.03978776 0.15954560
v 0.02207801 0.03755787 0.15954560
v 0.06805207 0.03471368 0.15954560
v 0.20337320 0.03471369 0.15954560
v -0.06987000 0.04141418 0.15954560
v -0.06899302 0.03722730 0.15741530
v -0.10552170 0.04250943 0.15954560
v -0.02389597 0.03293282 0.15954560
v -0.10416870 0.03786882 0.15741530
v -0.14117350 0.04220732 0.15954560
v -0.06986995 0.03293282 0.15954560
v -0.13934440 0.03771776 0.15741530
v -0.17682520 0.04032310 0.15954560
v -0.10552180 0.03293282 0.15954560
v -0.17452010 0.03677565 0.15741530
v -0.19476320 0.03833072 0.15954560
v -0.14117350 0.03293282 0.15954560
v -0.19221850 0.03577946 0.15741530
v -0.21270110 0.03370093 0.15954560
v -0.17682520 0.03293282 0.15954560
v -0.02389597 0.03187299 0.16119040
v -0.06986995 0.03102310 0.16119040
v 0.02207801 0.03204294 0.16119040
v -0.10552170 0.03102310 0.16119040
v -0.14117350 0.03102310 0.16119040
v 0.06805205 0.03102310 0.16119040
v -0.17682520 0.03102310 0.16119040
v 0.06805205 0.03293282 0.15954560
v 0.20597400 0.03102310 0.16208170
v 0.20011620 0.03293282 0.15954560
v -0.19465100 0.03102310 0.16119040
v -0.21247690 0.03102310 0.16119040
v 0.20597400 0.03102310 -0.16208170
v 0.20597400 0.03102310 0.16208170
v 0.20011620 0.03293282 0.15954560
v 0.20011620 0.03293282 -0.15954560
v 0.06708745 0.03694191 0.15741530
v 0.02172728 0.04124850 0.15741530
v 0.02207801 0.04225498 0.15954560
v -0.02389601 0.05100914 0.15954560
v -0.02363284 0.04898012 0.15741530
v -0.06987000 0.05822248 0.15954560
v -0.06899302 0.05421048 0.15741530
v -0.10552170 0.06107191 0.15954560
v -0.10416870 0.05643129 0.15741530
v -0.14117350 0.06016556 0.15954560
v -0.13934450 0.05567599 0.15741530
v -0.17682520 0.05451293 0.15954560
v -0.17452010 0.05096547 0.15741530
v -0.19476320 0.04853578 0.15954560
v -0.19221850 0.04598451 0.15741530
v -0.21270110 0.03464640 0.15954560
v -0.21270110 0.03441003 0.15741530
v 0.06805205 0.03768465 0.15954560
v 0.20058900 0.03694190 0.15741530
v 0.20337320 0.03768465 0.15954560
v 0.20058900 0.03694190 -0.15741530
v 0.20058900 0.03694190 0.15741530
v 0.20337320 0.03768465 0.15954560
v 0.20337320 0.03768465 -0.15954560
v 0.20337320 0.03619917 0.15954560
v 0.06805205 0.03619917 0.15954560
v 0.02207801 0.04011939 0.15954560
v -0.02389605 0.04544068 0.15954560
v -0.06987000 0.05001379 0.15954560
v -0.10552180 0.05179067 0.15954560
v -0.14117350 0.05118643 0.15954560
v -0.17682520 0.04741801 0.15954560
v -0.19476310 0.04343326 0.15954560
v -0.21270110 0.03417366 0.15954560
v 0.20337320 0.03619917 -0.15954560
v 0.20337320 0.03619917 0.15954560
v 0.20058900 0.03545643 0.15741530
v 0.06805205 0.03619917 0.15954560
v 0.20337320 0.03619917 0.15954560
v 0.06708738 0.03545643 0.15741530
v 0.02207801 0.04011939 0.15954560
v 0.02172728 0.03888175 0.15741530
v -0.02389605 0.04544068 0.15954560
v -0.02363284 0.04272545 0.15741530
v -0.06987000 0.05001379 0.15954560
v -0.06899302 0.04571218 0.15741530
v -0.10552180 0.05179067 0.15954560
v -0.10416870 0.04715005 0.15741530
v -0.14117350 0.05118643 0.15954560
v -0.13934440 0.04669688 0.15741530
v -0.17682520 0.04741801 0.15954560
v -0.17452010 0.04387057 0.15741530
v -0.19476310 0.04343326 0.15954560
v -0.19221850 0.04088199 0.15741530
v -0.21270110 0.03417366 0.15954560
v -0.21270110 0.03393729 0.15741530
v 0.20058900 0.03545643 -0.15741530
v 0.20058900 0.03545643 0.15741530
v 0.20337320 0.03619917 0.15954560
v 0.20337320 0.03619917 -0.15954560
v 0.20337320 0.03471369 0.15954560
v 0.06805207 0.03471368 0.15954560
v 0.02207801 0.03755787 0.15954560
v -0.02389597 0.03978776 0.15954560
v -0.06987000 0.04141418 0.15954560
v -0.10552170 0.04250943 0.15954560
v -0.14117350 0.04220732 0.15954560
v -0.17682520 0.04032310 0.15954560
v -0.19476320 0.03833072 0.15954560
v -0.21270110 0.03370093 0.15954560
v 0.20337320 0.03471369 -0.15954560
v 0.20337320 0.03471369 0.15954560
v 0.07110947 0.01257751 -0.16208170
v 0.20694560 0.01031053 -0.16127910
v 0.20917010 0.01257751 -0.16208170
v 0.06998422 0.01031053 -0.16127910
v 0.21044710 0.00804356 -0.16208170
v 0.07267635 0.00804357 -0.16208170
v 0.02675274 0.00804357 -0.16208170
v 0.02433044 0.01031053 -0.16127910
v 0.02508922 0.01257751 -0.16208170
v -0.01917086 0.00804356 -0.16208170
v -0.02132339 0.01031053 -0.16127910
v -0.02093098 0.01257751 -0.16208170
v -0.06695119 0.01257751 -0.16208170
v -0.06697710 0.01031053 -0.16127910
v -0.06509445 0.00804356 -0.16208170
v -0.09953718 0.00804357 -0.16208170
v -0.10122860 0.01031053 -0.16127910
v -0.10152570 0.01257751 -0.16208170
v -0.13397990 0.00804357 -0.16208170
v -0.13548000 0.01031053 -0.16127910
v -0.13610020 0.01257751 -0.16208170
v -0.16842260 0.00804357 -0.16208170
v -0.16973140 0.01031053 -0.16127910
v -0.17067470 0.01257751 -0.16208170
v -0.18564390 0.00804356 -0.16208170
v -0.18685710 0.01031053 -0.16127910
v -0.18796200 0.01257751 -0.16208170
v -0.20524930 0.01257751 -0.16208170
v -0.20398290 0.01031053 -0.16127910
v -0.20286530 0.00804356 -0.16208170
v 0.06880493 0.02217127 -0.16208170
v 0.20429740 0.01937842 -0.16127910
v 0.20660690 0.02217127 -0.16208170
v 0.06741421 0.01937842 -0.16127910
v 0.20782040 0.01711146 -0.16208170
v 0.06991180 0.01711145 -0.16208170
v 0.02394228 0.01711145 -0.16208170
v 0.02178642 0.01937842 -0.16127910
v 0.02287095 0.02217127 -0.16208170
v -0.02202729 0.01711145 -0.16208170
v -0.02384125 0.01937842 -0.16127910
v -0.02306307 0.02217127 -0.16208170
v -0.06899709 0.02217127 -0.16208170
v -0.06946904 0.01937842 -0.16127910
v -0.06799681 0.01711145 -0.16208170
v -0.10286180 0.01711144 -0.16208170
v -0.10423700 0.01937842 -0.16127910
v -0.10419100 0.02217127 -0.16208170
v -0.13772670 0.01711144 -0.16208170
v -0.13900500 0.01937842 -0.16127910
v -0.13938490 0.02217127 -0.16208170
v -0.17259170 0.01711144 -0.16208170
v -0.17377280 0.01937842 -0.16127910
v -0.17457890 0.02217127 -0.16208170
v -0.19002410 0.01711144 -0.16208170
v -0.19115690 0.01937842 -0.16127910
v -0.19217580 0.02217127 -0.16208170
v -0.20977280 0.02217127 -0.16208170
v -0.20854080 0.01937842 -0.16127910
v -0.20745660 0.01711144 -0.16208170
v 0.06805205 0.03102310 -0.16119040
v 0.20306350 0.02844630 -0.16127910
v 0.20597400 0.03102310 -0.16208170
v 0.06621888 0.02844629 -0.16127910
v 0.20610120 0.02617931 -0.16208170
v 0.06830227 0.02617931 -0.16208170
v 0.02236931 0.02635235 -0.16208170
v 0.02059173 0.02844629 -0.16127910
v 0.02207801 0.03204294 -0.16119040
v -0.02356362 0.02620321 -0.16208170
v -0.02503543 0.02844629 -0.16127910
v -0.02389597 0.03187299 -0.16119040
v -0.06986995 0.03102310 -0.16119040
v -0.07066246 0.02844629 -0.16127910
v -0.06949663 0.02617931 -0.16208170
v -0.10493860 0.02617931 -0.16208170
v -0.10598680 0.02844629 -0.16127910
v -0.10552170 0.03102310 -0.16119040
v -0.14038050 0.02617931 -0.16208170
v -0.14131130 0.02844629 -0.16127910
v -0.14117350 0.03102310 -0.16119040
v -0.17582240 0.02617931 -0.16208170
v -0.17663570 0.02844629 -0.16127910
v -0.17682520 0.03102310 -0.16119040
v -0.19354340 0.02617931 -0.16208170
v -0.19429790 0.02844628 -0.16127910
v -0.19465100 0.03102310 -0.16119040
v -0.21247690 0.03102310 -0.16119040
v -0.21196010 0.02844629 -0.16127910
v -0.21126430 0.02617931 -0.16208170
v 0.07267635 0.00804357 -0.16208170
v 0.20808620 0.00577659 -0.16127910
v 0.21044710 0.00804356 -0.16208170
v 0.07146017 0.00577659 -0.16127910
v 0.21135450 0.00350964 -0.16208170
v 0.07399669 0.00350964 -0.16208170
v 0.02821084 0.00350964 -0.16208170
v 0.02591808 0.00577659 -0.16127910
v 0.02675274 0.00804357 -0.16208170
v -0.01757510 0.00350964 -0.16208170
v -0.01962391 0.00577659 -0.16127910
v -0.01917086 0.00804356 -0.16208170
v -0.06509445 0.00804356 -0.16208170
v -0.06516594 0.00577659 -0.16127910
v -0.06336104 0.00350963 -0.16208170
v -0.09770044 0.00350963 -0.16208170
v -0.09932243 0.00577659 -0.16127910
v -0.09953718 0.00804357 -0.16208170
v -0.13203990 0.00350963 -0.16208170
v -0.13347890 0.00577659 -0.16127910
v -0.13397990 0.00804357 -0.16208170
v -0.16637930 0.00350962 -0.16208170
v -0.16763550 0.00577659 -0.16127910
v -0.16842260 0.00804357 -0.16208170
v -0.18354900 0.00350962 -0.16208170
v -0.18471370 0.00577659 -0.16127910
v -0.18564390 0.00804356 -0.16208170
v -0.20286530 0.00804356 -0.16208170
v -0.20179200 0.00577659 -0.16127910
v -0.20071880 0.00350963 -0.16208170
v 0.06991180 0.01711145 -0.16208170
v 0.20541440 0.01537036 -0.16127910
v 0.20782040 0.01711146 -0.16208170
v 0.06845669 0.01537036 -0.16127910
v 0.20917010 0.01257751 -0.16208170
v 0.07110947 0.01257751 -0.16208170
v 0.02508922 0.01257751 -0.16208170
v 0.02280416 0.01537036 -0.16127910
v 0.02394228 0.01711145 -0.16208170
v -0.02093098 0.01257751 -0.16208170
v -0.02284840 0.01537037 -0.16127910
v -0.02202729 0.01711145 -0.16208170
v -0.06799681 0.01711145 -0.16208170
v -0.06850099 0.01537037 -0.16127910
v -0.06695119 0.01257751 -0.16208170
v -0.10152570 0.01257751 -0.16208170
v -0.10302600 0.01537037 -0.16127910
v -0.10286180 0.01711144 -0.16208170
v -0.13610020 0.01257751 -0.16208170
v -0.13755100 0.01537037 -0.16127910
v -0.13772670 0.01711144 -0.16208170
v -0.17067470 0.01257751 -0.16208170
v -0.17207600 0.01537037 -0.16127910
v -0.17259170 0.01711144 -0.16208170
v -0.18796200 0.01257751 -0.16208170
v -0.18933850 0.01537037 -0.16127910
v -0.19002410 0.01711144 -0.16208170
v -0.20745660 0.01711144 -0.16208170
v -0.20660110 0.01537037 -0.16127910
v -0.20524930 0.01257751 -0.16208170
v 0.06830227 0.02617931 -0.16208170
v 0.20340180 0.02391236 -0.16127910
v 0.20610120 0.02617931 -0.16208170
v 0.06658542 0.02391236 -0.16127910
v 0.20660690 0.02217127 -0.16208170
v 0.06880493 0.02217127 -0.16208170
v 0.02287095 0.02217127 -0.16208170
v 0.02097994 0.02392732 -0.16127910
v 0.02236931 0.02635235 -0.16208170
v -0.02306307 0.02217127 -0.16208170
v -0.02462544 0.02391236 -0.16127910
v -0.02356362 0.02620321 -0.16208170
v -0.06949663 0.02617931 -0.16208170
v -0.07023089 0.02391236 -0.16127910
v -0.06899709 0.02217127 -0.16208170
v -0.10419100 0.02217127 -0.16208170
v -0.10528670 0.02391236 -0.16127910
v -0.10493860 0.02617931 -0.16208170
v -0.13938490 0.02217127 -0.16208170
v -0.14034240 0.02391236 -0.16127910
v -0.14038050 0.02617931 -0.16208170
v -0.17457890 0.02217127 -0.16208170
v -0.17539820 0.02391235 -0.16127910
v -0.17582240 0.02617931 -0.16208170
v -0.19217580 0.02217127 -0.16208170
v -0.19292600 0.02391235 -0.16127910
v -0.19354340 0.02617931 -0.16208170
v -0.21126430 0.02617931 -0.16208170
v -0.21045390 0.02391235 -0.16127910
v -0.20977280 0.02217127 -0.16208170
v 0.20597400 0.03102310 -0.16208170
v 0.20011620 0.03293282 -0.15954560
v 0.06805205 0.03293282 -0.15954560
v 0.06805205 0.03102310 -0.16119040
v 0.02207805 0.03293282 -0.15954560
v 0.02207801 0.03204294 -0.16119040
v -0.02389597 0.03293282 -0.15954560
v -0.02389597 0.03187299 -0.16119040
v -0.06986995 0.03293282 -0.15954560
v -0.06986995 0.03102310 -0.16119040
v -0.10552180 0.03293282 -0.15954560
v -0.10552170 0.03102310 -0.16119040
v -0.14117350 0.03293282 -0.15954560
v -0.14117350 0.03102310 -0.16119040
v -0.17682520 0.03293282 -0.15954560
v -0.17682520 0.03102310 -0.16119040
v -0.19476320 0.03293282 -0.15954560
v -0.19465100 0.03102310 -0.16119040
v -0.21270110 0.03293282 -0.15954560
v -0.21247690 0.03102310 -0.16119040
v -0.17452010 0.03677565 -0.15741530
v -0.13934440 0.03771776 -0.15741530
v -0.19476320 0.03833072 -0.15954560
v -0.17682520 0.04032310 -0.15954560
v -0.14117350 0.04220732 -0.15954560
v -0.10416870 0.03786882 -0.15741530
v -0.10552170 0.04250943 -0.15954560
v -0.06899302 0.03722730 -0.15741530
v -0.06987000 0.04141418 -0.15954560
v -0.02363290 0.03676590 -0.15741530
v -0.02389597 0.03978776 -0.15954560
v 0.02172728 0.03617659 -0.15741530
v 0.06805205 0.03293282 -0.15954560
v 0.02207801 0.03755787 -0.15954560
v 0.06708742 0.03397094 -0.15741530
v 0.20011620 0.03293282 -0.15954560
v 0.06805207 0.03471368 -0.15954560
v 0.20058900 0.03397094 -0.15741530
v 0.20337320 0.03471369 -0.15954560
v 0.02172728 0.04124850 -0.15741530
v 0.02207801 0.04225498 -0.15954560
v -0.02389601 0.05100914 -0.15954560
v -0.02363284 0.04898012 -0.15741530
v -0.06987000 0.05822248 -0.15954560
v -0.06899302 0.05421048 -0.15741530
v -0.10552170 0.06107191 -0.15954560
v -0.10416870 0.05643129 -0.15741530
v -0.14117350 0.06016556 -0.15954560
v -0.13934450 0.05567599 -0.15741530
v -0.17682520 0.05451293 -0.15954560
v -0.17452010 0.05096547 -0.15741530
v -0.19476320 0.04853578 -0.15954560
v 0.06708745 0.03694191 -0.15741530
v 0.06805205 0.03768465 -0.15954560
v 0.20058900 0.03694190 -0.15741530
v 0.20337320 0.03768465 -0.15954560
v 0.20337320 0.03619917 -0.15954560
v 0.06805205 0.03619917 -0.15954560
v 0.02207801 0.04011939 -0.15954560
v -0.02389605 0.04544068 -0.15954560
v -0.06987000 0.05001379 -0.15954560
v -0.10552180 0.05179067 -0.15954560
v -0.14117350 0.05118643 -0.15954560
v -0.17682520 0.04741801 -0.15954560
v 0.20058900 0.03545643 -0.15741530
v 0.20337320 0.03619917 -0.15954560
v 0.06805205 0.03619917 -0.15954560
v 0.06708738 0.03545643 -0.15741530
v 0.02207801 0.04011939 -0.15954560
v 0.02172728 0.03888175 -0.15741530
v -0.02389605 0.04544068 -0.15954560
v -0.02363284 0.04272545 -0.15741530
v -0.06987000 0.05001379 -0.15954560
v -0.06899302 0.04571218 -0.15741530
v -0.10552180 0.05179067 -0.15954560
v -0.10416870 0.04715005 -0.15741530
v -0.14117350 0.05118643 -0.15954560
v -0.13934440 0.04669688 -0.15741530
v -0.17682520 0.04741801 -0.15954560
v -0.17452010 0.04387057 -0.15741530
v -0.19476310 0.04343326 -0.15954560
v 0.20337320 0.03471369 -0.15954560
v 0.06805207 0.03471368 -0.15954560
v 0.02207801 0.03755787 -0.15954560
v -0.02389597 0.03978776 -0.15954560
v -0.06987000 0.04141418 -0.15954560
v -0.10552170 0.04250943 -0.15954560
v -0.14117350 0.04220732 -0.15954560
v -0.17682520 0.04032310 -0.15954560
vn -0.02019526 0.68702790 0.72635040
vn -0.02641112 0.73557780 0.67692520
vn 0.07709327 0.01646402 0.99688800
vn 0.07625953 -0.04805706 -0.99592920
vn 0.41569610 -0.62721000 -0.65863830
vn 0.05800243 0.05082427 -0.99702190
vn -0.39280950 0.82001110 -0.41627210
vn -0.45777010 0.84418060 -0.27893670
vn 0.04947762 -0.03441162 -0.99818230
vn 0.29830340 -0.70727840 -0.64091530
vn 0.07575643 0.03278460 -0.99658730
vn -0.21276060 0.81225500 -0.54311580
vn -0.26263280 0.87178620 -0.41353680
vn 0.03135365 -0.01198527 -0.99943640
vn 0.14229290 -0.78721520 -0.60003750
vn 0.07709392 0.01646402 -0.99688790
vn 0.71375740 -0.70039300 0.00000000
vn 0.71375740 -0.70039300 0.00000000
vn 0.96749820 0.25287770 0.00000000
vn 0.96749820 0.25287770 0.00000000
vn 0.00000000 -0.33371760 0.94267310
vn 0.00000000 -0.33371760 0.94267310
vn 0.00000000 0.01602912 0.99987150
vn 0.00000000 -0.02876010 0.99958640
vn 0.00000000 0.33371890 0.94267260
vn 0.00000000 0.33371900 0.94267260
vn 0.00000000 0.33371920 0.94267250
vn 0.00000000 -0.00018666 1.00000000
vn -0.00000011 -0.33371760 0.94267310
vn 0.00000000 0.33371850 0.94267270
vn 0.00000000 -0.00018667 1.00000000
vn -0.00000015 -0.33371810 0.94267300
vn 0.00000015 -0.33371820 0.94267300
vn 0.00000000 -0.01109733 0.99993850
vn 0.00000000 0.33371840 0.94267280
vn 0.00000000 0.33371920 0.94267250
vn 0.00000000 -0.00033938 1.00000000
vn 0.00000000 -0.33371790 0.94267300
vn 0.00000000 0.33371940 0.94267240
vn 0.00000000 -0.00033928 1.00000000
vn 0.00000000 -0.33371800 0.94267300
vn 0.00000000 0.33371930 0.94267250
vn 0.00000000 -0.03351888 0.99943810
vn -0.00000012 -0.33371790 0.94267300
vn 0.00000000 0.33371870 0.94267270
vn -0.00000024 -0.00033969 1.00000000
vn -0.00000025 -0.33371840 0.94267280
vn 0.00000000 -0.33371870 0.94267270
vn 0.00000000 -0.10180950 0.99480380
vn 0.00000000 0.33371830 0.94267280
vn 0.77063000 -0.63728280 0.00000000
vn 0.77063000 -0.63728280 0.00000000
vn 0.97448630 0.22444680 0.00000000
vn 0.97448630 0.22444680 0.00000000
vn 0.00000000 -0.27617820 0.96110640
vn 0.00000000 -0.27617820 0.96110640
vn 0.00000000 0.02009585 0.99979810
vn 0.00000000 -0.02233129 0.99975070
vn 0.00000000 0.33372030 0.94267220
vn 0.00000000 0.33372020 0.94267220
vn 0.00000000 0.33371970 0.94267230
vn 0.00000000 0.00006152 1.00000000
vn 0.00000000 -0.27617820 0.96110640
vn 0.00000000 0.33371960 0.94267230
vn 0.00000000 0.00006153 1.00000000
vn 0.00000000 -0.27617810 0.96110650
vn 0.00000000 -0.27617780 0.96110650
vn 0.00000000 -0.00582991 0.99998310
vn 0.00000000 0.33371930 0.94267250
vn 0.00000000 0.33371850 0.94267270
vn 0.00000000 -0.00074745 0.99999980
vn 0.00000000 -0.27617760 0.96110670
vn 0.00000000 0.33371820 0.94267300
vn 0.00000000 -0.00074744 0.99999980
vn 0.00000000 -0.27617750 0.96110670
vn 0.00000000 0.33371820 0.94267300
vn 0.00000000 -0.02548666 0.99967520
vn 0.00000000 -0.27617760 0.96110670
vn 0.00000000 0.33371810 0.94267300
vn 0.00000000 -0.00074744 0.99999980
vn 0.00000000 -0.27617760 0.96110670
vn 0.00000000 -0.27617750 0.96110670
vn 0.00000000 -0.08199925 0.99663240
vn 0.00000000 0.33371790 0.94267300
vn 0.66521260 -0.74665390 -0.00003761
vn 0.66521260 -0.74665390 -0.00003761
vn 0.99960870 0.02797541 -0.00005652
vn 0.99960690 0.02803791 -0.00005652
vn -0.00268642 -0.10996330 0.99393200
vn -0.00321392 -0.13431470 0.99093350
vn -0.00169160 0.09700686 0.99528220
vn -0.00072618 0.12290150 0.99241860
vn 0.00000000 0.33371630 0.94267360
vn 0.00007010 0.33502710 0.94220850
vn 0.00030463 0.34614260 0.93818180
vn -0.00004104 0.15907080 0.98726720
vn 0.00016961 0.02722878 0.99962930
vn -0.00040653 0.34291090 0.93936790
vn -0.00020486 0.16204230 0.98678370
vn -0.00012824 0.02683179 0.99964000
vn -0.00018962 0.03111912 0.99951570
vn -0.00009278 0.17323720 0.98488010
vn -0.00006129 0.33478410 0.94229490
vn 0.00000000 0.33371740 0.94267310
vn 0.00000000 0.18074090 0.98353080
vn 0.00000000 0.03441520 0.99940760
vn 0.00000000 0.33371770 0.94267310
vn 0.00000000 0.18074100 0.98353070
vn -0.00000016 0.03441520 0.99940760
vn 0.00000000 0.33371770 0.94267300
vn 0.00000000 0.17415510 0.98471830
vn 0.00000000 0.03441522 0.99940760
vn -0.00000017 0.33371820 0.94267280
vn 0.00000000 0.18074110 0.98353070
vn 0.00000013 0.03441516 0.99940760
vn 0.00000024 0.03441512 0.99940760
vn 0.00000000 0.15709890 0.98758290
vn -0.00000043 0.33371850 0.94267280
vn 0.98317450 0.18266860 0.00000000
vn 0.98317450 0.18266860 0.00000000
vn 0.56994410 0.82168340 0.00000000
vn 0.56994410 0.82168340 0.00000000
vn 0.00000000 -0.33371870 0.94267270
vn 0.00000000 -0.33371870 0.94267270
vn 0.00000000 0.01142092 0.99993480
vn 0.00000000 -0.02458799 0.99969770
vn 0.00000000 0.33372040 0.94267210
vn 0.00000000 0.33372040 0.94267210
vn 0.00000000 0.33372040 0.94267210
vn 0.00000000 -0.00026667 1.00000000
vn 0.00000000 -0.33371850 0.94267280
vn 0.00000000 0.33372020 0.94267220
vn 0.00000000 -0.00026659 1.00000000
vn 0.00000000 -0.33371880 0.94267260
vn 0.00000000 -0.33371880 0.94267260
vn 0.00000000 -0.01046444 0.99994530
vn 0.00000000 0.33371960 0.94267240
vn 0.00000000 0.33371900 0.94267260
vn 0.00000000 -0.00026668 1.00000000
vn 0.00000000 -0.33371850 0.94267280
vn 0.00000000 0.33371890 0.94267260
vn 0.00000000 -0.00026664 1.00000000
vn 0.00000000 -0.33371830 0.94267280
vn 0.00000000 0.33371870 0.94267270
vn 0.00000000 -0.03074716 0.99952720
vn 0.00000000 -0.33371840 0.94267280
vn 0.00000000 0.33371840 0.94267280
vn 0.00000000 -0.00026653 1.00000000
vn 0.00000000 -0.33371880 0.94267260
vn 0.00000000 -0.33371890 0.94267260
vn 0.00000000 -0.09442744 0.99553170
vn 0.00000000 0.33371860 0.94267270
vn 0.69261710 -0.72130540 0.00000000
vn 0.69261710 -0.72130540 0.00000000
vn 0.54347660 0.83942440 0.00000000
vn 0.54347660 0.83942440 0.00000000
vn 0.96698220 0.25484420 0.00000000
vn 0.96698220 0.25484420 0.00000000
vn 0.59671230 0.80245520 0.00000000
vn 0.59671230 0.80245520 0.00000000
vn 0.00000000 -0.41860890 0.90816650
vn 0.00000000 -0.41860880 0.90816660
vn 0.00000000 0.00111945 0.99999940
vn 0.00000000 -0.00648768 0.99997900
vn 0.00000000 0.27617800 0.96110650
vn 0.00000000 0.27617810 0.96110650
vn 0.00000000 0.27617800 0.96110650
vn 0.00000000 0.00009782 1.00000000
vn 0.00000000 -0.41860970 0.90816620
vn 0.00000015 0.27617760 0.96110670
vn 0.00000000 0.00009780 1.00000000
vn 0.00000000 -0.41861050 0.90816580
vn 0.00000010 -0.41861170 0.90816530
vn 0.00000000 -0.00415460 0.99999140
vn 0.00000000 0.27617720 0.96110680
vn 0.00000000 0.27617710 0.96110680
vn 0.00000000 -0.00074268 0.99999980
vn 0.00000023 -0.41861300 0.90816470
vn 0.00000000 0.27617700 0.96110680
vn 0.00000000 -0.00074271 0.99999980
vn 0.00000000 -0.41861320 0.90816460
vn 0.00000000 0.27617710 0.96110680
vn 0.00000000 -0.02853724 0.99959270
vn 0.00000000 -0.41861320 0.90816460
vn 0.00000000 0.27617710 0.96110680
vn 0.00000000 -0.00074262 0.99999980
vn 0.00000000 -0.41861330 0.90816460
vn 0.00000000 -0.41861330 0.90816460
vn 0.00000000 -0.10363020 0.99461590
vn 0.00000000 0.27617730 0.96110680
vn 0.58624640 -0.81013290 0.00000000
vn 0.58624640 -0.81013290 0.00000000
vn 0.54111830 0.84094650 0.00000000
vn 0.54111830 0.84094650 0.00000000
vn 0.99250200 0.12222800 0.00000000
vn 0.99250200 0.12222800 0.00000000
vn 0.47733990 0.87871880 0.00000000
vn 0.47733990 0.87871880 0.00000000
vn -0.00008655 -0.33236320 0.94315150
vn 0.00000000 -0.33372190 0.94267150
vn 0.00000000 0.01513837 0.99988540
vn -0.00016804 -0.01950716 0.99980970
vn 0.00000000 0.41860830 0.90816690
vn 0.00000609 0.41848220 0.90822510
vn 0.00003362 0.41716470 0.90883090
vn 0.00007796 -0.00007359 1.00000000
vn -0.00023944 -0.32300540 0.94639720
vn -0.00004895 0.41750640 0.90867390
vn 0.00015440 0.00004062 1.00000000
vn 0.00040037 -0.32599130 0.94537280
vn 0.00005695 -0.33271900 0.94302610
vn 0.00002480 -0.00515222 0.99998680
vn 0.00000000 0.41860960 0.90816630
vn 0.00000000 0.41861130 0.90816560
vn 0.00000000 -0.00070534 0.99999980
vn 0.00000000 -0.33372040 0.94267210
vn 0.00000000 0.41861140 0.90816550
vn 0.00000010 -0.00070531 0.99999980
vn 0.00000017 -0.33372010 0.94267220
vn 0.00000000 0.41861190 0.90816520
vn 0.00000015 -0.02566859 0.99967050
vn 0.00000021 -0.33371970 0.94267230
vn 0.00000000 0.41861250 0.90816500
vn 0.00000000 -0.00070537 0.99999980
vn 0.00000000 -0.33371940 0.94267240
vn 0.00000000 -0.33371930 0.94267250
vn 0.00000000 -0.08341402 0.99651490
vn 0.00000022 0.41861260 0.90816500
vn 0.64310050 -0.76578170 0.00000000
vn 0.64310050 -0.76578170 0.00000000
vn 0.60041190 0.79969090 -0.00003395
vn 0.60041180 0.79969100 -0.00003395
vn 0.91005930 -0.41447810 0.00000000
vn 0.91005930 -0.41447810 0.00000000
vn 0.51033070 -0.85997830 0.00000000
vn 0.51033070 -0.85997830 0.00000000
vn 0.25776210 -0.96620840 0.00000000
vn 0.25776210 -0.96620840 0.00000000
vn 0.00000000 0.89894460 0.43806250
vn -0.01032768 0.00496311 0.99993430
vn 0.00000000 -0.58762790 0.80913130
vn 0.00360556 0.86683010 0.49859060
vn -0.01303498 -0.00731274 0.99988830
vn 0.00751726 0.68863930 0.72506520
vn -0.00682435 -0.00048589 0.99997660
vn -0.01558893 -0.58618190 0.81002950
vn -0.03498945 -0.79678000 0.60325560
vn -0.00877798 -0.93568230 0.35273440
vn 0.00000000 -0.94425360 0.32921920
vn -0.01115479 -0.47068990 0.88222810
vn -0.00439407 0.00057837 0.99999020
vn -0.00273226 -0.42809370 0.90373030
vn 0.00047746 0.59981520 0.80013840
vn -0.00172459 -0.00303821 0.99999390
vn 0.01186089 -0.44485690 0.89552310
vn 0.00087183 0.53299110 0.84612040
vn 0.00313257 -0.00307019 0.99999050
vn 0.03029644 -0.49883570 0.86616690
vn 0.00071681 0.49297910 0.87004080
vn 0.00884906 -0.00154067 0.99995970
vn 0.10544160 -0.70199540 0.70433280
vn -0.00254326 0.50720070 0.86182430
vn 0.03135362 -0.01198527 0.99943640
vn 0.14229230 -0.78721520 0.60003760
vn -0.00609934 0.55629660 0.83096130
vn -0.00445138 0.80063770 0.59913220
vn -0.00363723 0.70141190 0.71274690
vn 0.00376116 0.81066110 0.58550360
vn 0.00000000 0.65258130 0.75771870
vn 0.00000000 0.65258110 0.75771880
vn -0.00004913 0.74188380 0.67052860
vn 0.00000000 0.65258070 0.75771920
vn -0.00002570 0.74193890 0.67046760
vn -0.00223222 0.73672640 0.67618730
vn -0.00223222 0.73672630 0.67618730
vn 0.00000000 0.65258110 0.75771900
vn -0.00000024 0.65258190 0.75771820
vn 0.30995550 0.95075110 0.00000000
vn 0.30995550 0.95075110 0.00000000
vn 0.30995550 0.95075110 0.00000000
vn 0.30995550 0.95075110 0.00000000
vn -0.00201702 0.01526149 0.99988150
vn -0.01344694 0.01516487 0.99979470
vn -0.11780920 -0.86236460 0.49239030
vn -0.10435760 -0.67137550 0.73373320
vn -0.01619878 -0.01063924 0.99981220
vn -0.05135427 -0.50464110 0.86180060
vn -0.00865638 -0.01180498 0.99989280
vn -0.00655984 -0.43118500 0.90223970
vn -0.00218135 -0.01170993 0.99992910
vn 0.04145688 -0.43248420 0.90068790
vn 0.00555854 -0.01561130 0.99986270
vn 0.09902789 -0.45925770 0.88276610
vn 0.01269302 -0.00075563 0.99991920
vn 0.29865110 -0.57126600 0.76450160
vn 0.07625962 -0.04805700 0.99592920
vn 0.41569600 -0.62721010 0.65863820
vn 0.05800349 0.05082425 0.99702170
vn -0.01563754 -0.93944870 0.34233270
vn 0.00000000 0.00000094 1.00000000
vn 0.00000000 -0.94425300 0.32922070
vn 1.00000000 0.00000089 0.00000000
vn 1.00000000 0.00000089 0.00000000
vn 0.25775690 -0.96620980 0.00000000
vn 0.25775690 -0.96620980 0.00000000
vn 0.00000000 0.94425540 0.32921380
vn 0.01390160 0.94110760 0.33782120
vn 0.09194166 0.81168650 0.57681190
vn 0.07064754 0.56317760 0.82331040
vn 0.03769333 0.45282390 0.89080280
vn 0.00549002 0.42693270 0.90426680
vn -0.03818241 0.46463550 0.88467850
vn -0.10853570 0.56883760 0.81525690
vn -0.39280860 0.82001130 0.41627250
vn -0.45776910 0.84418100 0.27893700
vn 0.25775090 0.96621140 0.00000000
vn 0.25775090 0.96621140 0.00000000
vn 0.00000000 -0.00000059 1.00000000
vn -0.01285978 -0.93695300 0.34921870
vn 0.00000000 -0.94425300 0.32922060
vn -0.00457373 0.01158258 0.99992250
vn -0.07347923 -0.81813000 0.57031920
vn -0.01570481 0.00201739 0.99987460
vn -0.05485055 -0.60502200 0.79431720
vn -0.01325699 -0.00366714 0.99990550
vn -0.03006127 -0.47380770 0.88011500
vn -0.00699148 -0.00588980 0.99995830
vn -0.00420692 -0.42635340 0.90454690
vn -0.00110768 -0.00734615 0.99997250
vn 0.02702160 -0.43858160 0.89828500
vn 0.00402471 -0.00943047 0.99994740
vn 0.06668850 -0.47825520 0.87568530
vn 0.01038195 -0.00069307 0.99994590
vn 0.21631210 -0.63366390 0.74275110
vn 0.04947794 -0.03441156 0.99818230
vn 0.29830290 -0.70727840 0.64091560
vn 0.07575589 0.03278458 0.99658730
vn 1.00000000 0.00000045 0.00000000
vn 1.00000000 0.00000045 0.00000000
vn 0.25775600 -0.96621010 0.00000000
vn 0.25775600 -0.96621010 0.00000000
vn 0.00000000 0.94425360 0.32921930
vn 0.01061854 0.93852670 0.34504330
vn 0.05529156 0.81689020 0.57413700
vn 0.03445490 0.59090610 0.80600430
vn 0.02012564 0.46411710 0.88554530
vn 0.00379204 0.42542440 0.90498600
vn -0.02072490 0.45789860 0.88876280
vn -0.05686671 0.54441750 0.83688460
vn -0.21276050 0.81225490 0.54311590
vn -0.26263280 0.87178620 0.41353710
vn 0.25775340 0.96621070 0.00000000
vn 0.25775340 0.96621070 0.00000000
vn 0.00000000 -0.33371760 -0.94267310
vn 0.00000000 0.01602916 -0.99987150
vn 0.00000000 -0.33371770 -0.94267310
vn 0.00000000 -0.02876007 -0.99958640
vn 0.00000000 0.33371900 -0.94267260
vn 0.00000000 0.33371900 -0.94267260
vn 0.00000000 0.33371920 -0.94267250
vn -0.00000011 -0.00018668 -1.00000000
vn 0.00000000 -0.33371750 -0.94267310
vn 0.00000000 0.33371850 -0.94267270
vn 0.00000000 -0.00018671 -1.00000000
vn -0.00000015 -0.33371820 -0.94267300
vn 0.00000011 -0.33371820 -0.94267300
vn 0.00000011 -0.01109733 -0.99993850
vn 0.00000000 0.33371840 -0.94267280
vn 0.00000000 0.33371920 -0.94267250
vn 0.00000000 -0.00033939 -1.00000000
vn 0.00000000 -0.33371790 -0.94267300
vn 0.00000000 0.33371940 -0.94267240
vn 0.00000000 -0.00033932 -1.00000000
vn 0.00000000 -0.33371810 -0.94267300
vn 0.00000000 0.33371930 -0.94267250
vn 0.00000000 -0.03351892 -0.99943810
vn 0.00000000 -0.33371800 -0.94267300
vn -0.00000018 0.33371870 -0.94267270
vn -0.00000023 -0.00033975 -1.00000000
vn -0.00000019 -0.33371850 -0.94267270
vn 0.00000000 -0.33371880 -0.94267270
vn 0.00000000 -0.10180960 -0.99480380
vn 0.00000000 0.33371840 -0.94267280
vn 0.00000000 -0.27617820 -0.96110640
vn 0.00000000 0.02009589 -0.99979810
vn 0.00000000 -0.27617820 -0.96110640
vn 0.00000000 -0.02233130 -0.99975070
vn 0.00000000 0.33372030 -0.94267220
vn 0.00000000 0.33372030 -0.94267220
vn 0.00000000 0.33371980 -0.94267230
vn 0.00000000 0.00006152 -1.00000000
vn 0.00000000 -0.27617820 -0.96110640
vn 0.00000000 0.33371960 -0.94267230
vn 0.00000000 0.00006153 -1.00000000
vn 0.00000000 -0.27617810 -0.96110650
vn 0.00000000 -0.27617780 -0.96110650
vn 0.00000000 -0.00582993 -0.99998310
vn 0.00000000 0.33371930 -0.94267250
vn 0.00000000 0.33371860 -0.94267270
vn 0.00000000 -0.00074746 -0.99999980
vn 0.00000000 -0.27617760 -0.96110670
vn 0.00000000 0.33371810 -0.94267300
vn 0.00000000 -0.00074746 -0.99999980
vn 0.00000000 -0.27617750 -0.96110670
vn 0.00000000 0.33371810 -0.94267300
vn 0.00000000 -0.02548669 -0.99967520
vn 0.00000000 -0.27617750 -0.96110670
vn 0.00000000 0.33371820 -0.94267300
vn 0.00000000 -0.00074743 -0.99999980
vn 0.00000000 -0.27617760 -0.96110670
vn 0.00000000 -0.27617740 -0.96110670
vn 0.00000000 -0.08199922 -0.99663240
vn 0.00000000 0.33371790 -0.94267300
vn -0.00268670 -0.10994110 -0.99393450
vn -0.00169203 0.09698934 -0.99528400
vn -0.00321435 -0.13429190 -0.99093660
vn -0.00072619 0.12291120 -0.99241730
vn 0.00000000 0.33371680 -0.94267340
vn 0.00007011 0.33502780 -0.94220820
vn 0.00030460 0.34614270 -0.93818180
vn -0.00004098 0.15907080 -0.98726720
vn 0.00016973 0.02722878 -0.99962930
vn -0.00040645 0.34291090 -0.93936790
vn -0.00020479 0.16204230 -0.98678370
vn -0.00012820 0.02683180 -0.99964000
vn -0.00018959 0.03111910 -0.99951570
vn -0.00009276 0.17323720 -0.98488010
vn -0.00006122 0.33478400 -0.94229490
vn 0.00000000 0.33371730 -0.94267310
vn 0.00000000 0.18074080 -0.98353080
vn 0.00000000 0.03441518 -0.99940760
vn 0.00000000 0.33371740 -0.94267310
vn 0.00000000 0.18074100 -0.98353080
vn -0.00000011 0.03441518 -0.99940760
vn 0.00000000 0.33371770 -0.94267300
vn 0.00000000 0.17415510 -0.98471830
vn 0.00000000 0.03441520 -0.99940760
vn -0.00000027 0.33371820 -0.94267300
vn -0.00000024 0.18074110 -0.98353070
vn 0.00000000 0.03441516 -0.99940760
vn 0.00000000 0.03441514 -0.99940760
vn -0.00000028 0.15709900 -0.98758290
vn -0.00000068 0.33371860 -0.94267270
vn 0.00000000 -0.33371870 -0.94267270
vn 0.00000000 0.01142087 -0.99993480
vn 0.00000000 -0.33371870 -0.94267270
vn 0.00000000 -0.02458803 -0.99969770
vn 0.00000000 0.33372040 -0.94267210
vn 0.00000000 0.33372040 -0.94267210
vn 0.00000000 0.33372030 -0.94267210
vn 0.00000000 -0.00026668 -1.00000000
vn 0.00000000 -0.33371850 -0.94267280
vn 0.00000000 0.33372010 -0.94267220
vn 0.00000000 -0.00026657 -1.00000000
vn 0.00000000 -0.33371880 -0.94267260
vn 0.00000000 -0.33371890 -0.94267260
vn 0.00000000 -0.01046440 -0.99994530
vn 0.00000000 0.33371960 -0.94267240
vn 0.00000000 0.33371900 -0.94267260
vn 0.00000000 -0.00026667 -1.00000000
vn 0.00000000 -0.33371840 -0.94267280
vn 0.00000000 0.33371890 -0.94267260
vn 0.00000000 -0.00026663 -1.00000000
vn 0.00000000 -0.33371830 -0.94267280
vn -0.00000011 0.33371870 -0.94267270
vn 0.00000000 -0.03074718 -0.99952720
vn 0.00000000 -0.33371840 -0.94267280
vn 0.00000000 0.33371840 -0.94267280
vn 0.00000000 -0.00026650 -1.00000000
vn 0.00000000 -0.33371880 -0.94267270
vn 0.00000000 -0.33371890 -0.94267260
vn 0.00000000 -0.09442745 -0.99553170
vn 0.00000000 0.33371860 -0.94267270
vn 0.00000000 -0.41860900 -0.90816650
vn 0.00000000 0.00111940 -0.99999940
vn 0.00000000 -0.41860890 -0.90816660
vn 0.00000000 -0.00648768 -0.99997900
vn 0.00000000 0.27617820 -0.96110640
vn 0.00000000 0.27617820 -0.96110650
vn -0.00000012 0.27617820 -0.96110650
vn 0.00000000 0.00009785 -1.00000000
vn 0.00000000 -0.41860960 -0.90816630
vn 0.00000000 0.27617760 -0.96110670
vn 0.00000000 0.00009782 -1.00000000
vn 0.00000000 -0.41861050 -0.90816580
vn 0.00000015 -0.41861190 -0.90816530
vn 0.00000000 -0.00415457 -0.99999140
vn 0.00000000 0.27617720 -0.96110680
vn 0.00000000 0.27617710 -0.96110680
vn 0.00000000 -0.00074272 -0.99999980
vn 0.00000023 -0.41861300 -0.90816470
vn 0.00000000 0.27617700 -0.96110680
vn 0.00000000 -0.00074278 -0.99999980
vn 0.00000000 -0.41861320 -0.90816460
vn 0.00000000 0.27617700 -0.96110680
vn 0.00000000 -0.02853723 -0.99959270
vn 0.00000000 -0.41861320 -0.90816460
vn 0.00000000 0.27617720 -0.96110680
vn 0.00000000 -0.00074257 -0.99999980
vn 0.00000000 -0.41861330 -0.90816460
vn 0.00000000 -0.41861320 -0.90816460
vn 0.00000000 -0.10363010 -0.99461590
vn 0.00000000 0.27617720 -0.96110680
vn -0.00008653 -0.33236330 -0.94315140
vn 0.00000000 0.01513827 -0.99988540
vn 0.00000000 -0.33372190 -0.94267150
vn -0.00016805 -0.01950724 -0.99980970
vn 0.00000000 0.41860810 -0.90816700
vn 0.00000609 0.41848190 -0.90822510
vn 0.00003362 0.41716460 -0.90883090
vn 0.00007797 -0.00007357 -1.00000000
vn -0.00023946 -0.32300530 -0.94639710
vn -0.00004894 0.41750640 -0.90867390
vn 0.00015443 0.00004058 -1.00000000
vn 0.00040042 -0.32599130 -0.94537280
vn 0.00005696 -0.33271900 -0.94302610
vn 0.00002481 -0.00515219 -0.99998680
vn 0.00000000 0.41860940 -0.90816630
vn 0.00000000 0.41861130 -0.90816560
vn 0.00000000 -0.00070543 -0.99999980
vn 0.00000000 -0.33372040 -0.94267210
vn 0.00000000 0.41861130 -0.90816560
vn 0.00000012 -0.00070531 -0.99999980
vn 0.00000013 -0.33372030 -0.94267210
vn 0.00000000 0.41861190 -0.90816520
vn 0.00000000 -0.02566854 -0.99967050
vn 0.00000016 -0.33371990 -0.94267230
vn -0.00000016 0.41861250 -0.90816500
vn 0.00000000 -0.00070540 -0.99999980
vn 0.00000000 -0.33371960 -0.94267240
vn 0.00000000 -0.33371940 -0.94267240
vn 0.00000000 -0.08341406 -0.99651490
vn 0.00000000 0.41861260 -0.90816500
vn -0.00223222 0.73672650 -0.67618720
vn -0.00223222 0.73672650 -0.67618720
vn -0.00002570 0.74193890 -0.67046740
vn -0.00004913 0.74188380 -0.67052840
vn 0.00751721 0.68863930 -0.72506520
vn 0.00376112 0.81066110 -0.58550370
vn 0.00047745 0.59981520 -0.80013840
vn -0.00445142 0.80063770 -0.59913240
vn 0.00087183 0.53299120 -0.84612040
vn -0.00363723 0.70141190 -0.71274690
vn 0.00071683 0.49297910 -0.87004080
vn 0.00000000 0.65258140 -0.75771870
vn -0.00254323 0.50720070 -0.86182430
vn 0.00000000 0.65258120 -0.75771880
vn -0.00609929 0.55629660 -0.83096130
vn 0.00000021 0.65258080 -0.75771920
vn -0.02019505 0.68702790 -0.72635040
vn 0.00000033 0.65258100 -0.75771900
vn -0.02641086 0.73557780 -0.67692520
vn 0.00000000 0.65258170 -0.75771830
vn 0.00884917 -0.00154071 -0.99995970
vn 0.00313263 -0.00307025 -0.99999050
vn 0.10544180 -0.70199540 -0.70433280
vn 0.03029650 -0.49883570 -0.86616690
vn 0.01186105 -0.44485690 -0.89552310
vn -0.00172460 -0.00303820 -0.99999390
vn -0.00273227 -0.42809380 -0.90373020
vn -0.00439407 0.00057844 -0.99999020
vn -0.01115480 -0.47069000 -0.88222810
vn -0.00682428 -0.00048591 -0.99997660
vn -0.01558880 -0.58618200 -0.81002940
vn -0.01303482 -0.00731285 -0.99988830
vn 0.00360553 0.86682990 -0.49859090
vn -0.03498911 -0.79678000 -0.60325570
vn -0.01032758 0.00496311 -0.99993440
vn 0.00000000 0.89894440 -0.43806280
vn -0.00877790 -0.93568220 -0.35273480
vn 0.00000000 -0.58762750 -0.80913160
vn 0.00000000 -0.94425340 -0.32921960
vn -0.01344696 0.01516490 -0.99979470
vn -0.11780910 -0.86236460 -0.49239040
vn -0.10435740 -0.67137550 -0.73373330
vn -0.01619887 -0.01063895 -0.99981220
vn -0.05135415 -0.50464080 -0.86180060
vn -0.00865648 -0.01180480 -0.99989280
vn -0.00655976 -0.43118490 -0.90223970
vn -0.00218140 -0.01170981 -0.99992910
vn 0.04145693 -0.43248430 -0.90068790
vn 0.00555861 -0.01561130 -0.99986270
vn 0.09902791 -0.45925770 -0.88276590
vn 0.01269304 -0.00075567 -0.99991920
vn 0.29865110 -0.57126600 -0.76450160
vn -0.00201690 0.01526113 -0.99988150
vn -0.01563753 -0.93944870 -0.34233240
vn 0.00000000 0.00000083 -1.00000000
vn 0.00000000 -0.94425300 -0.32922050
vn 0.00000000 0.94425550 -0.32921340
vn 0.01390163 0.94110770 -0.33782100
vn 0.09194162 0.81168650 -0.57681190
vn 0.07064724 0.56317760 -0.82331040
vn 0.03769302 0.45282410 -0.89080280
vn 0.00548993 0.42693300 -0.90426660
vn -0.03818239 0.46463560 -0.88467840
vn -0.10853580 0.56883780 -0.81525680
vn 0.00000000 0.00000012 -1.00000000
vn 0.00000000 -0.94425330 -0.32922020
vn -0.01285980 -0.93695310 -0.34921850
vn -0.00457379 0.01158301 -0.99992250
vn -0.07347908 -0.81812980 -0.57031960
vn -0.01570466 0.00201754 -0.99987460
vn -0.05485030 -0.60502170 -0.79431750
vn -0.01325688 -0.00366698 -0.99990550
vn -0.03006111 -0.47380750 -0.88011520
vn -0.00699149 -0.00588973 -0.99995830
vn -0.00420690 -0.42635340 -0.90454690
vn -0.00110772 -0.00734612 -0.99997250
vn 0.02702167 -0.43858160 -0.89828500
vn 0.00402471 -0.00943049 -0.99994740
vn 0.06668841 -0.47825510 -0.87568530
vn 0.01038195 -0.00069299 -0.99994590
vn 0.21631220 -0.63366400 -0.74275100
vn 0.00000000 0.94425360 -0.32921900
vn 0.01061853 0.93852680 -0.34504310
vn 0.05529154 0.81689020 -0.57413700
vn 0.03445481 0.59090600 -0.80600430
vn 0.02012544 0.46411700 -0.88554530
vn 0.00379192 0.42542450 -0.90498600
vn -0.02072491 0.45789860 -0.88876280
vn -0.05686693 0.54441760 -0.83688450
vt 1.20956700 0.09354100
vt 1.21618800 0.03759342
vt 1.20906800 0.03759342
vt 1.09868400 0.09354100
vt 1.11851900 0.03759342
vt 1.13626900 0.03759342
vt 1.12348400 0.09354100
vt 1.15736700 0.03759342
vt 1.14677800 0.09354150
vt 1.15736700 0.03759342
vt 1.17824200 0.03759372
vt 1.17272200 0.09354150
vt 1.19880300 0.03759342
vt 1.19381600 0.09354150
vt 1.19880300 0.03759342
vt 1.20906800 0.03759342
vt 1.40491100 0.93351230
vt 1.40491100 0.94166000
vt 1.42820300 0.94166000
vt 1.42820300 0.93351190
vt 1.40491100 0.92305960
vt 1.40491100 0.93134360
vt 1.42820300 0.93134360
vt 1.42820300 0.91947290
vt 1.45149600 0.93134320
vt 1.45149600 0.92805370
vt 1.45149600 0.78168510
vt 1.42820300 0.77396500
vt 1.40491100 0.77638350
vt 1.45149600 0.63531790
vt 1.42820400 0.62845730
vt 1.40491100 0.62970730
vt 1.40491100 0.48303210
vt 1.42820400 0.48295010
vt 1.45149600 0.48895090
vt 1.45149600 0.37917430
vt 1.42820400 0.37378320
vt 1.40491100 0.37283660
vt 1.45149600 0.26939910
vt 1.42820400 0.26461740
vt 1.40491100 0.26264110
vt 1.45149600 0.14948830
vt 1.42820400 0.14948860
vt 1.40491100 0.14948880
vt 1.45149600 0.09354100
vt 1.42820400 0.09354100
vt 1.40491100 0.09354100
vt 1.40491100 0.03759372
vt 1.42820400 0.03759316
vt 1.45149600 0.03759372
vt 1.30633800 0.93351230
vt 1.30633800 0.94166030
vt 1.33503400 0.94166030
vt 1.33503400 0.93351230
vt 1.30633800 0.91571410
vt 1.30633800 0.93134360
vt 1.33503400 0.93134360
vt 1.33503400 0.91128180
vt 1.35832600 0.93134360
vt 1.35832600 0.91924210
vt 1.35832600 0.77272830
vt 1.33503400 0.76585690
vt 1.30633800 0.76931350
vt 1.35832600 0.62621360
vt 1.33503400 0.62043240
vt 1.30633800 0.62291280
vt 1.30633800 0.47651210
vt 1.33503400 0.47500760
vt 1.35832700 0.47970000
vt 1.35832700 0.36857850
vt 1.33503500 0.36419490
vt 1.30633800 0.36434200
vt 1.35832700 0.25745700
vt 1.33503400 0.25338270
vt 1.30633800 0.25217190
vt 1.35832700 0.14948860
vt 1.33503400 0.14948860
vt 1.30633800 0.14948880
vt 1.35832700 0.09354100
vt 1.33503400 0.09354100
vt 1.30633800 0.09354150
vt 1.30633800 0.03759372
vt 1.33503400 0.03759342
vt 1.35832700 0.03759316
vt 1.21959500 0.93351190
vt 1.21960600 0.94169820
vt 1.24186500 0.94166030
vt 1.24186500 0.93351190
vt 1.21959500 0.91331480
vt 1.21959500 0.93134360
vt 1.24186400 0.93134360
vt 1.24186500 0.90747180
vt 1.26515700 0.93134360
vt 1.26515700 0.91411200
vt 1.26337900 0.76771470
vt 1.24186500 0.76204930
vt 1.21959600 0.76678620
vt 1.26491100 0.62131730
vt 1.24186500 0.61662640
vt 1.21959600 0.62025800
vt 1.21959600 0.47372970
vt 1.24186500 0.47120400
vt 1.26515700 0.47491930
vt 1.26515700 0.36195910
vt 1.24186500 0.35861790
vt 1.21959600 0.36010030
vt 1.26515700 0.24899890
vt 1.24186500 0.24603200
vt 1.21959600 0.24647120
vt 1.26515700 0.14948860
vt 1.24186500 0.14948880
vt 1.21959600 0.14948880
vt 1.26515700 0.09354100
vt 1.24186500 0.09354150
vt 1.21959600 0.09354150
vt 1.21959600 0.03759342
vt 1.24186500 0.03759342
vt 1.26515700 0.03759342
vt 1.47478800 0.93351190
vt 1.47478800 0.94166000
vt 1.49808000 0.94166040
vt 1.49808100 0.93351140
vt 1.45149600 0.92805370
vt 1.45149600 0.93134320
vt 1.47478800 0.93134360
vt 1.47478800 0.92417690
vt 1.49808000 0.93134410
vt 1.49808000 0.92657210
vt 1.49808000 0.78633210
vt 1.47478800 0.77902530
vt 1.45149600 0.78168510
vt 1.49808000 0.64040430
vt 1.47478800 0.63387390
vt 1.45149600 0.63531790
vt 1.45149600 0.48895090
vt 1.47478800 0.48872240
vt 1.49808100 0.49447500
vt 1.49808100 0.38502850
vt 1.47478800 0.37985910
vt 1.45149600 0.37917430
vt 1.49808100 0.27558200
vt 1.47478800 0.27099530
vt 1.45149600 0.26939910
vt 1.49808100 0.14948860
vt 1.47478800 0.14948860
vt 1.45149600 0.14948830
vt 1.49808100 0.09354100
vt 1.47478800 0.09354100
vt 1.45149600 0.09354100
vt 1.45149600 0.03759372
vt 1.47478800 0.03759316
vt 1.49808100 0.03759372
vt 1.45149600 0.93351230
vt 1.45149600 0.94166000
vt 1.45149600 0.94166000
vt 1.45149600 0.93351230
vt 1.37621500 0.93351190
vt 1.37621500 0.94166030
vt 1.40491100 0.94166000
vt 1.40491100 0.93351230
vt 1.35832600 0.91924210
vt 1.35832600 0.93134360
vt 1.37621500 0.93134360
vt 1.37621500 0.91460420
vt 1.40491100 0.93134360
vt 1.40491100 0.92305960
vt 1.40491100 0.77638350
vt 1.37621600 0.76910070
vt 1.35832600 0.77272830
vt 1.40491100 0.62970730
vt 1.37621600 0.62359670
vt 1.35832600 0.62621360
vt 1.35832700 0.47970000
vt 1.37621600 0.47809300
vt 1.40491100 0.48303210
vt 1.40491100 0.37283660
vt 1.37621600 0.36805500
vt 1.35832700 0.36857850
vt 1.40491100 0.26264110
vt 1.37621600 0.25801690
vt 1.35832700 0.25745700
vt 1.40491100 0.14948880
vt 1.37621600 0.14948860
vt 1.35832700 0.14948860
vt 1.40491100 0.09354100
vt 1.37621600 0.09354100
vt 1.35832700 0.09354100
vt 1.35832700 0.03759316
vt 1.37621600 0.03759316
vt 1.40491100 0.03759372
vt 1.35832600 0.93351230
vt 1.35832600 0.94166030
vt 1.35832600 0.94166030
vt 1.35832600 0.93351230
vt 1.28844900 0.93351190
vt 1.28844900 0.94166030
vt 1.30633800 0.94166030
vt 1.30633800 0.93351230
vt 1.26515700 0.91411200
vt 1.26515700 0.93134360
vt 1.28845000 0.93134360
vt 1.28845000 0.90864010
vt 1.30633800 0.93134360
vt 1.30633800 0.91571410
vt 1.30633800 0.76931350
vt 1.28829500 0.76328660
vt 1.26337900 0.76771470
vt 1.30633800 0.62291280
vt 1.28844900 0.61793300
vt 1.26491100 0.62131730
vt 1.26515700 0.47491930
vt 1.28844900 0.47257920
vt 1.30633800 0.47651210
vt 1.30633800 0.36434200
vt 1.28845000 0.36084950
vt 1.26515700 0.36195910
vt 1.30633800 0.25217190
vt 1.28845000 0.24912010
vt 1.26515700 0.24899890
vt 1.30633800 0.14948880
vt 1.28845000 0.14948860
vt 1.26515700 0.14948860
vt 1.30633800 0.09354150
vt 1.28845000 0.09354150
vt 1.26515700 0.09354100
vt 1.26515700 0.03759342
vt 1.28845000 0.03759372
vt 1.30633800 0.03759372
vt 1.26515700 0.93351230
vt 1.26515700 0.94166030
vt 1.26515700 0.94166030
vt 1.26515700 0.93351230
vt 1.19737800 0.94166030
vt 1.19737700 0.93351190
vt 1.17701900 0.93351190
vt 1.17701900 0.94166030
vt 1.15565800 0.93351190
vt 1.15565800 0.94166030
vt 1.19737800 0.93134360
vt 1.17701900 0.91024010
vt 1.17701900 0.93134360
vt 1.19737800 0.91331480
vt 1.16969300 0.76566850
vt 1.19737800 0.76678620
vt 1.15424400 0.62109670
vt 1.12300900 0.62025800
vt 1.13679700 0.76678620
vt 1.15565800 0.91331480
vt 1.15565800 0.93134360
vt 1.10700000 0.47372970
vt 1.13332000 0.47652450
vt 1.10362100 0.35583230
vt 1.18834900 0.62025800
vt 1.13076400 0.36441250
vt 1.12137800 0.24647120
vt 1.16614400 0.47372970
vt 1.15555200 0.25230070
vt 1.14865800 0.14948880
vt 1.17406300 0.36010030
vt 1.17968100 0.14948880
vt 1.17272200 0.09354150
vt 1.18792800 0.24647150
vt 1.19381600 0.09354150
vt 1.19880300 0.03759342
vt 1.20231500 0.14948880
vt 1.21959600 0.62025800
vt 1.21959600 0.47372970
vt 1.21959600 0.76678620
vt 1.21959600 0.36010030
vt 1.21959600 0.24647120
vt 1.21959500 0.91331480
vt 1.21959600 0.14948880
vt 1.19737800 0.91331480
vt 1.21959500 0.93134360
vt 1.19737800 0.93134360
vt 1.21959600 0.09354150
vt 1.21959600 0.03759342
vt 1.21960600 0.94169820
vt 1.21959500 0.93351190
vt 1.19737700 0.93351190
vt 1.19737800 0.94166030
vt 1.13633900 0.91024010
vt 1.10778100 0.76566850
vt 1.10110600 0.76678620
vt 1.06476500 0.62025800
vt 1.07509100 0.62109670
vt 1.02806000 0.47372970
vt 1.04590000 0.47652470
vt 1.01356100 0.36010030
vt 1.03594400 0.36441250
vt 1.01817300 0.24647150
vt 1.04370400 0.25230070
vt 1.04693700 0.14948860
vt 1.07333900 0.14948880
vt 1.07735100 0.09354100
vt 1.09868400 0.09354100
vt 1.11851900 0.03759342
vt 1.13626900 0.03759342
vt 1.13141400 0.91331480
vt 1.13633900 0.93134360
vt 1.13141400 0.93134360
vt 1.13634000 0.94166030
vt 1.13634000 0.93351190
vt 1.13141400 0.93351230
vt 1.13141400 0.94166030
vt 1.14126500 0.93134360
vt 1.14126500 0.91331480
vt 1.11526800 0.76678620
vt 1.08727900 0.62025760
vt 1.06339300 0.47372970
vt 1.05616400 0.36010030
vt 1.06928100 0.24647150
vt 1.09751300 0.14948880
vt 1.12348400 0.09354100
vt 1.15736700 0.03759342
vt 1.14126500 0.94166030
vt 1.14126400 0.93351190
vt 1.14619000 0.93134360
vt 1.14126500 0.91331480
vt 1.14126500 0.93134360
vt 1.14619000 0.91024010
vt 1.11526800 0.76678620
vt 1.12347600 0.76566850
vt 1.08727900 0.62025760
vt 1.10109500 0.62109670
vt 1.06339300 0.47372970
vt 1.08399400 0.47652470
vt 1.05616400 0.36010030
vt 1.07636600 0.36441250
vt 1.06928100 0.24647150
vt 1.09089800 0.25230070
vt 1.09751300 0.14948880
vt 1.12416000 0.14948880
vt 1.12348400 0.09354100
vt 1.14677800 0.09354150
vt 1.15736700 0.03759342
vt 1.17824200 0.03759372
vt 1.14619000 0.94166030
vt 1.14619000 0.93351190
vt 1.14126400 0.93351190
vt 1.14126500 0.94166030
vt 1.15565800 0.93134360
vt 1.15565800 0.91331480
vt 1.13679700 0.76678620
vt 1.12300900 0.62025800
vt 1.10700000 0.47372970
vt 1.10362100 0.35583230
vt 1.12137800 0.24647120
vt 1.14865800 0.14948880
vt 1.17272200 0.09354150
vt 1.19880300 0.03759342
vt 1.15565800 0.94166030
vt 1.15565800 0.93351190
vt 1.40491100 0.92305960
vt 1.42820300 0.93134360
vt 1.40491100 0.93134360
vt 1.42820300 0.91947290
vt 1.45149600 0.93134320
vt 1.45149600 0.92805370
vt 1.45149600 0.78168510
vt 1.42820300 0.77396500
vt 1.40491100 0.77638350
vt 1.45149600 0.63531790
vt 1.42820400 0.62845730
vt 1.40491100 0.62970730
vt 1.40491100 0.48303210
vt 1.42820400 0.48295010
vt 1.45149600 0.48895090
vt 1.45149600 0.37917430
vt 1.42820400 0.37378320
vt 1.40491100 0.37283660
vt 1.45149600 0.26939910
vt 1.42820400 0.26461740
vt 1.40491100 0.26264110
vt 1.45149600 0.14948830
vt 1.42820400 0.14948860
vt 1.40491100 0.14948880
vt 1.45149600 0.09354100
vt 1.42820400 0.09354100
vt 1.40491100 0.09354100
vt 1.40491100 0.03759372
vt 1.42820400 0.03759316
vt 1.45149600 0.03759372
vt 1.30633800 0.91571410
vt 1.33503400 0.93134360
vt 1.30633800 0.93134360
vt 1.33503400 0.91128180
vt 1.35832600 0.93134360
vt 1.35832600 0.91924210
vt 1.35832600 0.77272830
vt 1.33503400 0.76585690
vt 1.30633800 0.76931350
vt 1.35832600 0.62621360
vt 1.33503400 0.62043240
vt 1.30633800 0.62291280
vt 1.30633800 0.47651210
vt 1.33503400 0.47500760
vt 1.35832700 0.47970000
vt 1.35832700 0.36857850
vt 1.33503500 0.36419490
vt 1.30633800 0.36434200
vt 1.35832700 0.25745700
vt 1.33503400 0.25338270
vt 1.30633800 0.25217190
vt 1.35832700 0.14948860
vt 1.33503400 0.14948860
vt 1.30633800 0.14948880
vt 1.35832700 0.09354100
vt 1.33503400 0.09354100
vt 1.30633800 0.09354150
vt 1.30633800 0.03759372
vt 1.33503400 0.03759342
vt 1.35832700 0.03759316
vt 1.21959500 0.91331480
vt 1.24186400 0.93134360
vt 1.21992200 0.93194700
vt 1.24186500 0.90747180
vt 1.26515700 0.93134360
vt 1.26515700 0.91411200
vt 1.26337900 0.76771470
vt 1.24186500 0.76204930
vt 1.21959600 0.76678620
vt 1.26491100 0.62131730
vt 1.24186500 0.61662640
vt 1.21959600 0.62025800
vt 1.21959600 0.47372970
vt 1.24186500 0.47120400
vt 1.26515700 0.47491930
vt 1.26515700 0.36195910
vt 1.24186500 0.35861790
vt 1.21959600 0.36010030
vt 1.26515700 0.24899890
vt 1.24186500 0.24603200
vt 1.21959600 0.24647120
vt 1.26515700 0.14948860
vt 1.24186500 0.14948880
vt 1.21959600 0.14948880
vt 1.26515700 0.09354100
vt 1.24186500 0.09354150
vt 1.21959600 0.09354150
vt 1.21959600 0.03759342
vt 1.24186500 0.03759342
vt 1.26515700 0.03759342
vt 1.45149600 0.92805370
vt 1.47478800 0.93134360
vt 1.45149600 0.93134320
vt 1.47478800 0.92417690
vt 1.49808000 0.93134410
vt 1.49808000 0.92657210
vt 1.49808000 0.78633210
vt 1.47478800 0.77902530
vt 1.45149600 0.78168510
vt 1.49808000 0.64040430
vt 1.47478800 0.63387390
vt 1.45149600 0.63531790
vt 1.45149600 0.48895090
vt 1.47478800 0.48872240
vt 1.49808100 0.49447500
vt 1.49808100 0.38502850
vt 1.47478800 0.37985910
vt 1.45149600 0.37917430
vt 1.49808100 0.27558200
vt 1.47478800 0.27099530
vt 1.45149600 0.26939910
vt 1.49808100 0.14948860
vt 1.47478800 0.14948860
vt 1.45149600 0.14948830
vt 1.49808100 0.09354100
vt 1.47478800 0.09354100
vt 1.45149600 0.09354100
vt 1.45149600 0.03759372
vt 1.47478800 0.03759316
vt 1.49808100 0.03759372
vt 1.35832600 0.91924210
vt 1.37621500 0.93134360
vt 1.35832600 0.93134360
vt 1.37621500 0.91460420
vt 1.40491100 0.93134360
vt 1.40491100 0.92305960
vt 1.40491100 0.77638350
vt 1.37621600 0.76910070
vt 1.35832600 0.77272830
vt 1.40491100 0.62970730
vt 1.37621600 0.62359670
vt 1.35832600 0.62621360
vt 1.35832700 0.47970000
vt 1.37621600 0.47809300
vt 1.40491100 0.48303210
vt 1.40491100 0.37283660
vt 1.37621600 0.36805500
vt 1.35832700 0.36857850
vt 1.40491100 0.26264110
vt 1.37621600 0.25801690
vt 1.35832700 0.25745700
vt 1.40491100 0.14948880
vt 1.37621600 0.14948860
vt 1.35832700 0.14948860
vt 1.40491100 0.09354100
vt 1.37621600 0.09354100
vt 1.35832700 0.09354100
vt 1.35832700 0.03759316
vt 1.37621600 0.03759316
vt 1.40491100 0.03759372
vt 1.26515700 0.91411200
vt 1.28845000 0.93134360
vt 1.26515700 0.93134360
vt 1.28845000 0.90864010
vt 1.30633800 0.93134360
vt 1.30633800 0.91571410
vt 1.30633800 0.76931350
vt 1.28829500 0.76328660
vt 1.26337900 0.76771470
vt 1.30633800 0.62291280
vt 1.28844900 0.61793300
vt 1.26491100 0.62131730
vt 1.26515700 0.47491930
vt 1.28844900 0.47257920
vt 1.30633800 0.47651210
vt 1.30633800 0.36434200
vt 1.28845000 0.36084950
vt 1.26515700 0.36195910
vt 1.30633800 0.25217190
vt 1.28845000 0.24912010
vt 1.26515700 0.24899890
vt 1.30633800 0.14948880
vt 1.28845000 0.14948860
vt 1.26515700 0.14948860
vt 1.30633800 0.09354150
vt 1.28845000 0.09354150
vt 1.26515700 0.09354100
vt 1.26515700 0.03759342
vt 1.28845000 0.03759372
vt 1.30633800 0.03759372
vt 1.21992200 0.93194700
vt 1.19737800 0.93134360
vt 1.19737800 0.91331480
vt 1.21959500 0.91331480
vt 1.19737800 0.76678620
vt 1.21959600 0.76678620
vt 1.18834900 0.62025800
vt 1.21959600 0.62025800
vt 1.16614400 0.47372970
vt 1.21959600 0.47372970
vt 1.17406300 0.36010030
vt 1.21959600 0.36010030
vt 1.18792800 0.24647150
vt 1.21959600 0.24647120
vt 1.20231500 0.14948880
vt 1.21959600 0.14948880
vt 1.20956700 0.09354100
vt 1.21959600 0.09354150
vt 1.21618800 0.03759342
vt 1.21959600 0.03759342
vt 1.17968100 0.14948880
vt 1.15555200 0.25230070
vt 1.17272200 0.09354150
vt 1.14865800 0.14948880
vt 1.12137800 0.24647120
vt 1.13076400 0.36441250
vt 1.10362100 0.35583230
vt 1.13332000 0.47652450
vt 1.10700000 0.47372970
vt 1.15424400 0.62109670
vt 1.12300900 0.62025800
vt 1.16969300 0.76566850
vt 1.19737800 0.91331480
vt 1.13679700 0.76678620
vt 1.17701900 0.91024010
vt 1.19737800 0.93134360
vt 1.15565800 0.91331480
vt 1.17701900 0.93134360
vt 1.15565800 0.93134360
vt 1.10778100 0.76566850
vt 1.10110600 0.76678620
vt 1.06476500 0.62025800
vt 1.07509100 0.62109670
vt 1.02806000 0.47372970
vt 1.04590000 0.47652470
vt 1.01356100 0.36010030
vt 1.03594400 0.36441250
vt 1.01817300 0.24647150
vt 1.04370400 0.25230070
vt 1.04693700 0.14948860
vt 1.07333900 0.14948880
vt 1.07735100 0.09354100
vt 1.13633900 0.91024010
vt 1.13141400 0.91331480
vt 1.13633900 0.93134360
vt 1.13141400 0.93134360
vt 1.14126500 0.93134360
vt 1.14126500 0.91331480
vt 1.11526800 0.76678620
vt 1.08727900 0.62025760
vt 1.06339300 0.47372970
vt 1.05616400 0.36010030
vt 1.06928100 0.24647150
vt 1.09751300 0.14948880
vt 1.14619000 0.93134360
vt 1.14126500 0.93134360
vt 1.14126500 0.91331480
vt 1.14619000 0.91024010
vt 1.11526800 0.76678620
vt 1.12347600 0.76566850
vt 1.08727900 0.62025760
vt 1.10109500 0.62109670
vt 1.06339300 0.47372970
vt 1.08399400 0.47652470
vt 1.05616400 0.36010030
vt 1.07636600 0.36441250
vt 1.06928100 0.24647150
vt 1.09089800 0.25230070
vt 1.09751300 0.14948880
vt 1.12416000 0.14948880
vt 1.12348400 0.09354100
vt 1.15565800 0.93134360
vt 1.15565800 0.91331480
vt 1.13679700 0.76678620
vt 1.12300900 0.62025800
vt 1.10700000 0.47372970
vt 1.10362100 0.35583230
vt 1.12137800 0.24647120
vt 1.14865800 0.14948880
f 3/3/3 2/2/2 1/1/1
f 6/6/6 5/5/5 4/4/4
f 8/8/8 6/6/6 7/7/7
f 11/11/11 10/10/10 9/9/9
f 13/13/13 11/11/11 12/12/12
f 16/16/16 15/15/15 14/14/14
f 19/19/19 18/18/18 17/17/17
f 20/20/20 19/19/19 17/17/17
f 23/23/23 22/22/22 21/21/21
f 24/24/24 23/23/23 21/21/21
f 25/25/25 23/23/23 24/24/24
f 26/26/26 25/25/25 24/24/24
f 26/26/26 24/24/24 27/27/27
f 24/24/24 21/21/21 28/28/28
f 24/24/24 28/28/28 27/27/27
f 21/21/21 29/29/29 28/28/28
f 27/27/27 28/28/28 30/30/30
f 28/28/28 29/29/29 31/31/31
f 28/28/28 31/31/31 30/30/30
f 29/29/29 32/32/32 31/31/31
f 31/31/31 32/32/32 33/33/33
f 30/30/30 31/31/31 34/34/34
f 34/34/34 31/31/31 33/33/33
f 35/35/35 30/30/30 34/34/34
f 35/35/35 34/34/34 36/36/36
f 34/34/34 33/33/33 37/37/37
f 34/34/34 37/37/37 36/36/36
f 33/33/33 38/38/38 37/37/37
f 36/36/36 37/37/37 39/39/39
f 37/37/37 38/38/38 40/40/40
f 37/37/37 40/40/40 39/39/39
f 38/38/38 41/41/41 40/40/40
f 39/39/39 40/40/40 42/42/42
f 40/40/40 41/41/41 43/43/43
f 40/40/40 43/43/43 42/42/42
f 41/41/41 44/44/44 43/43/43
f 42/42/42 43/43/43 45/45/45
f 43/43/43 44/44/44 46/46/46
f 43/43/43 46/46/46 45/45/45
f 44/44/44 47/47/47 46/46/46
f 46/46/46 47/47/47 48/48/48
f 49/49/49 46/46/46 48/48/48
f 45/45/45 46/46/46 49/49/49
f 50/50/50 45/45/45 49/49/49
f 53/53/53 52/52/52 51/51/51
f 54/54/54 53/53/53 51/51/51
f 57/57/57 56/56/56 55/55/55
f 58/58/58 57/57/57 55/55/55
f 59/59/59 57/57/57 58/58/58
f 60/60/60 59/59/59 58/58/58
f 60/60/60 58/58/58 61/61/61
f 58/58/58 55/55/55 62/62/62
f 58/58/58 62/62/62 61/61/61
f 55/55/55 63/63/63 62/62/62
f 61/61/61 62/62/62 64/64/64
f 62/62/62 63/63/63 65/65/65
f 62/62/62 65/65/65 64/64/64
f 63/63/63 66/66/66 65/65/65
f 65/65/65 66/66/66 67/67/67
f 64/64/64 65/65/65 68/68/68
f 68/68/68 65/65/65 67/67/67
f 69/69/69 64/64/64 68/68/68
f 69/69/69 68/68/68 70/70/70
f 68/68/68 67/67/67 71/71/71
f 68/68/68 71/71/71 70/70/70
f 67/67/67 72/72/72 71/71/71
f 70/70/70 71/71/71 73/73/73
f 71/71/71 72/72/72 74/74/74
f 71/71/71 74/74/74 73/73/73
f 72/72/72 75/75/75 74/74/74
f 73/73/73 74/74/74 76/76/76
f 74/74/74 75/75/75 77/77/77
f 74/74/74 77/77/77 76/76/76
f 75/75/75 78/78/78 77/77/77
f 76/76/76 77/77/77 79/79/79
f 77/77/77 78/78/78 80/80/80
f 77/77/77 80/80/80 79/79/79
f 78/78/78 81/81/81 80/80/80
f 80/80/80 81/81/81 82/82/82
f 83/83/83 80/80/80 82/82/82
f 79/79/79 80/80/80 83/83/83
f 84/84/84 79/79/79 83/83/83
f 87/87/87 86/86/86 85/85/85
f 88/88/88 87/87/87 85/85/85
f 91/91/91 90/90/90 89/89/89
f 92/92/92 91/91/91 89/89/89
f 93/93/93 91/91/91 92/92/92
f 94/94/94 93/93/93 92/92/92
f 94/94/94 92/92/92 95/95/95
f 92/92/92 89/89/89 96/96/96
f 92/92/92 96/96/96 95/95/95
f 89/89/89 97/97/97 96/96/96
f 95/95/95 96/96/96 98/98/98
f 96/96/96 97/97/97 99/99/99
f 96/96/96 99/99/99 98/98/98
f 97/97/97 100/100/100 99/99/99
f 99/99/99 100/100/100 101/101/101
f 98/98/98 99/99/99 102/102/102
f 102/102/102 99/99/99 101/101/101
f 103/103/103 98/98/98 102/102/102
f 103/103/103 102/102/102 104/104/104
f 102/102/102 101/101/101 105/105/105
f 102/102/102 105/105/105 104/104/104
f 101/101/101 106/106/106 105/105/105
f 104/104/104 105/105/105 107/107/107
f 105/105/105 106/106/106 108/108/108
f 105/105/105 108/108/108 107/107/107
f 106/106/106 109/109/109 108/108/108
f 107/107/107 108/108/108 110/110/110
f 108/108/108 109/109/109 111/111/111
f 108/108/108 111/111/111 110/110/110
f 109/109/109 112/112/112 111/111/111
f 110/110/110 111/111/111 113/113/113
f 111/111/111 112/112/112 114/114/114
f 111/111/111 114/114/114 113/113/113
f 112/112/112 115/115/115 114/114/114
f 114/114/114 115/115/115 116/116/116
f 117/117/117 114/114/114 116/116/116
f 113/113/113 114/114/114 117/117/117
f 118/118/118 113/113/113 117/117/117
f 121/121/121 120/120/120 119/119/119
f 122/122/122 121/121/121 119/119/119
f 125/125/125 124/124/124 123/123/123
f 126/126/126 125/125/125 123/123/123
f 127/127/127 125/125/125 126/126/126
f 128/128/128 127/127/127 126/126/126
f 128/128/128 126/126/126 129/129/129
f 126/126/126 123/123/123 130/130/130
f 126/126/126 130/130/130 129/129/129
f 123/123/123 131/131/131 130/130/130
f 129/129/129 130/130/130 132/132/132
f 130/130/130 131/131/131 133/133/133
f 130/130/130 133/133/133 132/132/132
f 131/131/131 134/134/134 133/133/133
f 133/133/133 134/134/134 135/135/135
f 132/132/132 133/133/133 136/136/136
f 136/136/136 133/133/133 135/135/135
f 137/137/137 132/132/132 136/136/136
f 137/137/137 136/136/136 138/138/138
f 136/136/136 135/135/135 139/139/139
f 136/136/136 139/139/139 138/138/138
f 135/135/135 140/140/140 139/139/139
f 138/138/138 139/139/139 141/141/141
f 139/139/139 140/140/140 142/142/142
f 139/139/139 142/142/142 141/141/141
f 140/140/140 143/143/143 142/142/142
f 141/141/141 142/142/142 144/144/144
f 142/142/142 143/143/143 145/145/145
f 142/142/142 145/145/145 144/144/144
f 143/143/143 146/146/146 145/145/145
f 144/144/144 145/145/145 147/147/147
f 145/145/145 146/146/146 148/148/148
f 145/145/145 148/148/148 147/147/147
f 146/146/146 149/149/149 148/148/148
f 148/148/148 149/149/149 150/150/150
f 151/151/151 148/148/148 150/150/150
f 147/147/147 148/148/148 151/151/151
f 152/152/152 147/147/147 151/151/151
f 120/120/120 154/154/154 153/153/153
f 119/119/119 120/120/120 153/153/153
f 155/155/155 19/19/19 20/20/20
f 156/156/156 155/155/155 20/20/20
f 159/159/159 158/158/158 157/157/157
f 160/160/160 159/159/159 157/157/157
f 163/163/163 162/162/162 161/161/161
f 164/164/164 163/163/163 161/161/161
f 165/165/165 163/163/163 164/164/164
f 166/166/166 165/165/165 164/164/164
f 166/166/166 164/164/164 167/167/167
f 164/164/164 161/161/161 168/168/168
f 164/164/164 168/168/168 167/167/167
f 161/161/161 169/169/169 168/168/168
f 167/167/167 168/168/168 170/170/170
f 168/168/168 169/169/169 171/171/171
f 168/168/168 171/171/171 170/170/170
f 169/169/169 172/172/172 171/171/171
f 171/171/171 172/172/172 173/173/173
f 170/170/170 171/171/171 174/174/174
f 174/174/174 171/171/171 173/173/173
f 175/175/175 170/170/170 174/174/174
f 175/175/175 174/174/174 176/176/176
f 174/174/174 173/173/173 177/177/177
f 174/174/174 177/177/177 176/176/176
f 173/173/173 178/178/178 177/177/177
f 176/176/176 177/177/177 179/179/179
f 177/177/177 178/178/178 180/180/180
f 177/177/177 180/180/180 179/179/179
f 178/178/178 181/181/181 180/180/180
f 179/179/179 180/180/180 182/182/182
f 180/180/180 181/181/181 183/183/183
f 180/180/180 183/183/183 182/182/182
f 181/181/181 184/184/184 183/183/183
f 182/182/182 183/183/183 185/185/185
f 183/183/183 184/184/184 186/186/186
f 183/183/183 186/186/186 185/185/185
f 184/184/184 187/187/187 186/186/186
f 186/186/186 187/187/187 188/188/188
f 189/189/189 186/186/186 188/188/188
f 185/185/185 186/186/186 189/189/189
f 190/190/190 185/185/185 189/189/189
f 158/158/158 192/192/192 191/191/191
f 157/157/157 158/158/158 191/191/191
f 193/193/193 53/53/53 54/54/54
f 194/194/194 193/193/193 54/54/54
f 197/197/197 196/196/196 195/195/195
f 198/198/198 197/197/197 195/195/195
f 201/201/201 200/200/200 199/199/199
f 202/202/202 201/201/201 199/199/199
f 203/203/203 201/201/201 202/202/202
f 204/204/204 203/203/203 202/202/202
f 204/204/204 202/202/202 205/205/205
f 202/202/202 199/199/199 206/206/206
f 202/202/202 206/206/206 205/205/205
f 199/199/199 207/207/207 206/206/206
f 205/205/205 206/206/206 208/208/208
f 206/206/206 207/207/207 209/209/209
f 206/206/206 209/209/209 208/208/208
f 207/207/207 210/210/210 209/209/209
f 209/209/209 210/210/210 211/211/211
f 208/208/208 209/209/209 212/212/212
f 212/212/212 209/209/209 211/211/211
f 213/213/213 208/208/208 212/212/212
f 213/213/213 212/212/212 214/214/214
f 212/212/212 211/211/211 215/215/215
f 212/212/212 215/215/215 214/214/214
f 211/211/211 216/216/216 215/215/215
f 214/214/214 215/215/215 217/217/217
f 215/215/215 216/216/216 218/218/218
f 215/215/215 218/218/218 217/217/217
f 216/216/216 219/219/219 218/218/218
f 217/217/217 218/218/218 220/220/220
f 218/218/218 219/219/219 221/221/221
f 218/218/218 221/221/221 220/220/220
f 219/219/219 222/222/222 221/221/221
f 220/220/220 221/221/221 223/223/223
f 221/221/221 222/222/222 224/224/224
f 221/221/221 224/224/224 223/223/223
f 222/222/222 225/225/225 224/224/224
f 224/224/224 225/225/225 226/226/226
f 227/227/227 224/224/224 226/226/226
f 223/223/223 224/224/224 227/227/227
f 228/228/228 223/223/223 227/227/227
f 196/196/196 230/230/230 229/229/229
f 195/195/195 196/196/196 229/229/229
f 231/231/231 87/87/87 88/88/88
f 232/232/232 231/231/231 88/88/88
f 235/235/235 234/234/234 233/233/233
f 236/236/236 235/235/235 233/233/233
f 237/237/237 235/235/235 236/236/236
f 238/238/238 237/237/237 236/236/236
f 241/241/241 240/240/240 239/239/239
f 240/240/240 242/242/242 239/239/239
f 240/240/240 243/243/243 242/242/242
f 243/243/243 244/244/244 242/242/242
f 243/243/243 245/245/245 244/244/244
f 246/246/246 245/245/245 243/243/243
f 247/247/247 246/246/246 243/243/243
f 247/247/247 243/243/243 240/240/240
f 248/248/248 247/247/247 240/240/240
f 248/248/248 240/240/240 241/241/241
f 249/249/249 248/248/248 241/241/241
f 246/246/246 250/250/250 245/245/245
f 250/250/250 251/251/251 245/245/245
f 250/250/250 252/252/252 251/251/251
f 245/245/245 253/253/253 244/244/244
f 245/245/245 251/251/251 253/253/253
f 252/252/252 254/254/254 251/251/251
f 252/252/252 255/255/255 254/254/254
f 251/251/251 256/256/256 253/253/253
f 251/251/251 254/254/254 256/256/256
f 255/255/255 257/257/257 254/254/254
f 255/255/255 258/258/258 257/257/257
f 254/254/254 259/259/259 256/256/256
f 254/254/254 257/257/257 259/259/259
f 258/258/258 260/260/260 257/257/257
f 258/258/258 261/261/261 260/260/260
f 257/257/257 262/262/262 259/259/259
f 257/257/257 260/260/260 262/262/262
f 261/261/261 263/263/263 260/260/260
f 261/261/261 264/264/264 263/263/263
f 264/264/264 3/3/3 263/263/263
f 263/263/263 3/3/3 1/1/1
f 260/260/260 263/263/263 265/265/265
f 260/260/260 265/265/265 262/262/262
f 263/263/263 1/1/1 265/265/265
f 253/253/253 256/256/256 266/266/266
f 256/256/256 267/267/267 266/266/266
f 256/256/256 259/259/259 267/267/267
f 253/253/253 266/266/266 268/268/268
f 259/259/259 269/269/269 267/267/267
f 259/259/259 262/262/262 269/269/269
f 244/244/244 253/253/253 268/268/268
f 262/262/262 270/270/270 269/269/269
f 262/262/262 265/265/265 270/270/270
f 244/244/244 268/268/268 271/271/271
f 265/265/265 272/272/272 270/270/270
f 265/265/265 1/1/1 272/272/272
f 273/273/273 244/244/244 271/271/271
f 273/273/273 271/271/271 274/274/274
f 275/275/275 273/273/273 274/274/274
f 1/1/1 276/276/276 272/272/272
f 1/1/1 2/2/2 276/276/276
f 2/2/2 277/277/277 276/276/276
f 280/280/280 279/279/279 278/278/278
f 281/281/281 280/280/280 278/278/278
f 284/284/284 283/283/283 282/282/282
f 284/284/284 285/285/285 283/283/283
f 285/285/285 286/286/286 283/283/283
f 285/285/285 287/287/287 286/286/286
f 287/287/287 288/288/288 286/286/286
f 287/287/287 289/289/289 288/288/288
f 289/289/289 290/290/290 288/288/288
f 289/289/289 291/291/291 290/290/290
f 291/291/291 292/292/292 290/290/290
f 291/291/291 293/293/293 292/292/292
f 293/293/293 294/294/294 292/292/292
f 293/293/293 295/295/295 294/294/294
f 295/295/295 296/296/296 294/294/294
f 295/295/295 297/297/297 296/296/296
f 297/297/297 298/298/298 296/296/296
f 299/299/299 284/284/284 282/282/282
f 299/299/299 282/282/282 300/300/300
f 301/301/301 299/299/299 300/300/300
f 304/304/304 303/303/303 302/302/302
f 305/305/305 304/304/304 302/302/302
f 300/300/300 282/282/282 306/306/306
f 282/282/282 307/307/307 306/306/306
f 282/282/282 283/283/283 307/307/307
f 283/283/283 308/308/308 307/307/307
f 283/283/283 286/286/286 308/308/308
f 286/286/286 309/309/309 308/308/308
f 286/286/286 288/288/288 309/309/309
f 288/288/288 310/310/310 309/309/309
f 288/288/288 290/290/290 310/310/310
f 290/290/290 311/311/311 310/310/310
f 290/290/290 292/292/292 311/311/311
f 292/292/292 312/312/312 311/311/311
f 292/292/292 294/294/294 312/312/312
f 294/294/294 313/313/313 312/312/312
f 294/294/294 296/296/296 313/313/313
f 296/296/296 314/314/314 313/313/313
f 296/296/296 298/298/298 314/314/314
f 298/298/298 315/315/315 314/314/314
f 303/303/303 317/317/317 316/316/316
f 302/302/302 303/303/303 316/316/316
f 320/320/320 319/319/319 318/318/318
f 319/319/319 321/321/321 318/318/318
f 319/319/319 322/322/322 321/321/321
f 322/322/322 323/323/323 321/321/321
f 322/322/322 324/324/324 323/323/323
f 324/324/324 325/325/325 323/323/323
f 324/324/324 326/326/326 325/325/325
f 326/326/326 327/327/327 325/325/325
f 326/326/326 328/328/328 327/327/327
f 328/328/328 329/329/329 327/327/327
f 328/328/328 330/330/330 329/329/329
f 330/330/330 331/331/331 329/329/329
f 330/330/330 332/332/332 331/331/331
f 332/332/332 333/333/333 331/331/331
f 332/332/332 334/334/334 333/333/333
f 334/334/334 335/335/335 333/333/333
f 334/334/334 336/336/336 335/335/335
f 336/336/336 337/337/337 335/335/335
f 340/340/340 339/339/339 338/338/338
f 341/341/341 340/340/340 338/338/338
f 318/318/318 321/321/321 342/342/342
f 321/321/321 343/343/343 342/342/342
f 321/321/321 323/323/323 343/343/343
f 323/323/323 344/344/344 343/343/343
f 323/323/323 325/325/325 344/344/344
f 325/325/325 345/345/345 344/344/344
f 325/325/325 327/327/327 345/345/345
f 327/327/327 346/346/346 345/345/345
f 327/327/327 329/329/329 346/346/346
f 329/329/329 347/347/347 346/346/346
f 329/329/329 331/331/331 347/347/347
f 331/331/331 348/348/348 347/347/347
f 331/331/331 333/333/333 348/348/348
f 333/333/333 349/349/349 348/348/348
f 333/333/333 335/335/335 349/349/349
f 335/335/335 350/350/350 349/349/349
f 335/335/335 337/337/337 350/350/350
f 337/337/337 351/351/351 350/350/350
f 339/339/339 353/353/353 352/352/352
f 338/338/338 339/339/339 352/352/352
f 356/356/356 355/355/355 354/354/354
f 355/355/355 357/357/357 354/354/354
f 355/355/355 358/358/358 357/357/357
f 358/358/358 359/359/359 357/357/357
f 357/357/357 359/359/359 360/360/360
f 354/354/354 357/357/357 361/361/361
f 361/361/361 357/357/357 360/360/360
f 362/362/362 354/354/354 361/361/361
f 361/361/361 360/360/360 363/363/363
f 362/362/362 361/361/361 364/364/364
f 364/364/364 361/361/361 363/363/363
f 365/365/365 362/362/362 364/364/364
f 365/365/365 364/364/364 366/366/366
f 364/364/364 363/363/363 367/367/367
f 364/364/364 367/367/367 366/366/366
f 363/363/363 368/368/368 367/367/367
f 367/367/367 368/368/368 369/369/369
f 366/366/366 367/367/367 370/370/370
f 370/370/370 367/367/367 369/369/369
f 371/371/371 366/366/366 370/370/370
f 370/370/370 369/369/369 372/372/372
f 371/371/371 370/370/370 373/373/373
f 373/373/373 370/370/370 372/372/372
f 374/374/374 371/371/371 373/373/373
f 373/373/373 372/372/372 375/375/375
f 374/374/374 373/373/373 376/376/376
f 376/376/376 373/373/373 375/375/375
f 377/377/377 374/374/374 376/376/376
f 376/376/376 375/375/375 378/378/378
f 377/377/377 376/376/376 379/379/379
f 379/379/379 376/376/376 378/378/378
f 380/380/380 377/377/377 379/379/379
f 380/380/380 379/379/379 381/381/381
f 379/379/379 382/382/382 381/381/381
f 379/379/379 378/378/378 382/382/382
f 378/378/378 383/383/383 382/382/382
f 386/386/386 385/385/385 384/384/384
f 385/385/385 387/387/387 384/384/384
f 385/385/385 388/388/388 387/387/387
f 388/388/388 389/389/389 387/387/387
f 387/387/387 389/389/389 390/390/390
f 384/384/384 387/387/387 391/391/391
f 391/391/391 387/387/387 390/390/390
f 392/392/392 384/384/384 391/391/391
f 391/391/391 390/390/390 393/393/393
f 392/392/392 391/391/391 394/394/394
f 394/394/394 391/391/391 393/393/393
f 395/395/395 392/392/392 394/394/394
f 395/395/395 394/394/394 396/396/396
f 394/394/394 393/393/393 397/397/397
f 394/394/394 397/397/397 396/396/396
f 393/393/393 398/398/398 397/397/397
f 397/397/397 398/398/398 399/399/399
f 396/396/396 397/397/397 400/400/400
f 400/400/400 397/397/397 399/399/399
f 401/401/401 396/396/396 400/400/400
f 400/400/400 399/399/399 402/402/402
f 401/401/401 400/400/400 403/403/403
f 403/403/403 400/400/400 402/402/402
f 404/404/404 401/401/401 403/403/403
f 403/403/403 402/402/402 405/405/405
f 404/404/404 403/403/403 406/406/406
f 406/406/406 403/403/403 405/405/405
f 407/407/407 404/404/404 406/406/406
f 406/406/406 405/405/405 408/408/408
f 407/407/407 406/406/406 409/409/409
f 409/409/409 406/406/406 408/408/408
f 410/410/410 407/407/407 409/409/409
f 410/410/410 409/409/409 411/411/411
f 409/409/409 412/412/412 411/411/411
f 409/409/409 408/408/408 412/412/412
f 408/408/408 413/413/413 412/412/412
f 416/416/416 415/415/415 414/414/414
f 415/415/415 417/417/417 414/414/414
f 415/415/415 418/418/418 417/417/417
f 418/418/418 419/419/419 417/417/417
f 417/417/417 419/419/419 420/420/420
f 414/414/414 417/417/417 421/421/421
f 421/421/421 417/417/417 420/420/420
f 422/422/422 414/414/414 421/421/421
f 421/421/421 420/420/420 423/423/423
f 422/422/422 421/421/421 424/424/424
f 424/424/424 421/421/421 423/423/423
f 425/425/425 422/422/422 424/424/424
f 425/425/425 424/424/424 426/426/426
f 424/424/424 423/423/423 427/427/427
f 424/424/424 427/427/427 426/426/426
f 423/423/423 428/428/428 427/427/427
f 427/427/427 428/428/428 429/429/429
f 426/426/426 427/427/427 430/430/430
f 430/430/430 427/427/427 429/429/429
f 431/431/431 426/426/426 430/430/430
f 430/430/430 429/429/429 432/432/432
f 431/431/431 430/430/430 433/433/433
f 433/433/433 430/430/430 432/432/432
f 434/434/434 431/431/431 433/433/433
f 433/433/433 432/432/432 435/435/435
f 434/434/434 433/433/433 436/436/436
f 436/436/436 433/433/433 435/435/435
f 437/437/437 434/434/434 436/436/436
f 436/436/436 435/435/435 438/438/438
f 437/437/437 436/436/436 439/439/439
f 439/439/439 436/436/436 438/438/438
f 440/440/440 437/437/437 439/439/439
f 440/440/440 439/439/439 441/441/441
f 439/439/439 442/442/442 441/441/441
f 439/439/439 438/438/438 442/442/442
f 438/438/438 443/443/443 442/442/442
f 446/446/446 445/445/445 444/444/444
f 445/445/445 447/447/447 444/444/444
f 445/445/445 448/448/448 447/447/447
f 448/448/448 449/449/449 447/447/447
f 447/447/447 449/449/449 450/450/450
f 444/444/444 447/447/447 451/451/451
f 451/451/451 447/447/447 450/450/450
f 452/452/452 444/444/444 451/451/451
f 451/451/451 450/450/450 453/453/453
f 452/452/452 451/451/451 454/454/454
f 454/454/454 451/451/451 453/453/453
f 455/455/455 452/452/452 454/454/454
f 455/455/455 454/454/454 456/456/456
f 454/454/454 453/453/453 457/457/457
f 454/454/454 457/457/457 456/456/456
f 453/453/453 458/458/458 457/457/457
f 457/457/457 458/458/458 459/459/459
f 456/456/456 457/457/457 460/460/460
f 460/460/460 457/457/457 459/459/459
f 461/461/461 456/456/456 460/460/460
f 460/460/460 459/459/459 462/462/462
f 461/461/461 460/460/460 463/463/463
f 463/463/463 460/460/460 462/462/462
f 464/464/464 461/461/461 463/463/463
f 463/463/463 462/462/462 465/465/465
f 464/464/464 463/463/463 466/466/466
f 466/466/466 463/463/463 465/465/465
f 467/467/467 464/464/464 466/466/466
f 466/466/466 465/465/465 468/468/468
f 467/467/467 466/466/466 469/469/469
f 469/469/469 466/466/466 468/468/468
f 470/470/470 467/467/467 469/469/469
f 470/470/470 469/469/469 471/471/471
f 469/469/469 472/472/472 471/471/471
f 469/469/469 468/468/468 472/472/472
f 468/468/468 473/473/473 472/472/472
f 476/476/476 475/475/475 474/474/474
f 475/475/475 477/477/477 474/474/474
f 475/475/475 478/478/478 477/477/477
f 478/478/478 479/479/479 477/477/477
f 477/477/477 479/479/479 480/480/480
f 474/474/474 477/477/477 481/481/481
f 481/481/481 477/477/477 480/480/480
f 482/482/482 474/474/474 481/481/481
f 481/481/481 480/480/480 483/483/483
f 482/482/482 481/481/481 484/484/484
f 484/484/484 481/481/481 483/483/483
f 485/485/485 482/482/482 484/484/484
f 485/485/485 484/484/484 486/486/486
f 484/484/484 483/483/483 487/487/487
f 484/484/484 487/487/487 486/486/486
f 483/483/483 488/488/488 487/487/487
f 487/487/487 488/488/488 489/489/489
f 486/486/486 487/487/487 490/490/490
f 490/490/490 487/487/487 489/489/489
f 491/491/491 486/486/486 490/490/490
f 490/490/490 489/489/489 492/492/492
f 491/491/491 490/490/490 493/493/493
f 493/493/493 490/490/490 492/492/492
f 494/494/494 491/491/491 493/493/493
f 493/493/493 492/492/492 495/495/495
f 494/494/494 493/493/493 496/496/496
f 496/496/496 493/493/493 495/495/495
f 497/497/497 494/494/494 496/496/496
f 496/496/496 495/495/495 498/498/498
f 497/497/497 496/496/496 499/499/499
f 499/499/499 496/496/496 498/498/498
f 500/500/500 497/497/497 499/499/499
f 500/500/500 499/499/499 501/501/501
f 499/499/499 502/502/502 501/501/501
f 499/499/499 498/498/498 502/502/502
f 498/498/498 503/503/503 502/502/502
f 506/506/506 505/505/505 504/504/504
f 505/505/505 507/507/507 504/504/504
f 505/505/505 508/508/508 507/507/507
f 508/508/508 509/509/509 507/507/507
f 507/507/507 509/509/509 510/510/510
f 504/504/504 507/507/507 511/511/511
f 511/511/511 507/507/507 510/510/510
f 512/512/512 504/504/504 511/511/511
f 511/511/511 510/510/510 513/513/513
f 512/512/512 511/511/511 514/514/514
f 514/514/514 511/511/511 513/513/513
f 515/515/515 512/512/512 514/514/514
f 515/515/515 514/514/514 516/516/516
f 514/514/514 513/513/513 517/517/517
f 514/514/514 517/517/517 516/516/516
f 513/513/513 518/518/518 517/517/517
f 517/517/517 518/518/518 519/519/519
f 516/516/516 517/517/517 520/520/520
f 520/520/520 517/517/517 519/519/519
f 521/521/521 516/516/516 520/520/520
f 520/520/520 519/519/519 522/522/522
f 521/521/521 520/520/520 523/523/523
f 523/523/523 520/520/520 522/522/522
f 524/524/524 521/521/521 523/523/523
f 523/523/523 522/522/522 525/525/525
f 524/524/524 523/523/523 526/526/526
f 526/526/526 523/523/523 525/525/525
f 527/527/527 524/524/524 526/526/526
f 526/526/526 525/525/525 528/528/528
f 527/527/527 526/526/526 529/529/529
f 529/529/529 526/526/526 528/528/528
f 530/530/530 527/527/527 529/529/529
f 530/530/530 529/529/529 531/531/531
f 529/529/529 532/532/532 531/531/531
f 529/529/529 528/528/528 532/532/532
f 528/528/528 533/533/533 532/532/532
f 536/536/536 535/535/535 534/534/534
f 537/537/537 536/536/536 534/534/534
f 538/538/538 536/536/536 537/537/537
f 539/539/539 538/538/538 537/537/537
f 540/540/540 538/538/538 539/539/539
f 541/541/541 540/540/540 539/539/539
f 542/542/542 540/540/540 541/541/541
f 543/543/543 542/542/542 541/541/541
f 544/544/544 542/542/542 543/543/543
f 545/545/545 544/544/544 543/543/543
f 546/546/546 544/544/544 545/545/545
f 547/547/547 546/546/546 545/545/545
f 548/548/548 546/546/546 547/547/547
f 549/549/549 548/548/548 547/547/547
f 550/550/550 548/548/548 549/549/549
f 551/551/551 550/550/550 549/549/549
f 552/552/552 550/550/550 551/551/551
f 553/553/553 552/552/552 551/551/551
f 552/552/552 16/16/16 550/550/550
f 16/16/16 14/14/14 550/550/550
f 550/550/550 14/14/14 548/548/548
f 548/548/548 554/554/554 546/546/546
f 14/14/14 554/554/554 548/548/548
f 546/546/546 555/555/555 544/544/544
f 554/554/554 555/555/555 546/546/546
f 14/14/14 556/556/556 554/554/554
f 15/15/15 556/556/556 14/14/14
f 556/556/556 557/557/557 554/554/554
f 554/554/554 557/557/557 555/555/555
f 557/557/557 558/558/558 555/555/555
f 555/555/555 559/559/559 544/544/544
f 555/555/555 558/558/558 559/559/559
f 544/544/544 559/559/559 542/542/542
f 558/558/558 560/560/560 559/559/559
f 559/559/559 561/561/561 542/542/542
f 559/559/559 560/560/560 561/561/561
f 542/542/542 561/561/561 540/540/540
f 560/560/560 562/562/562 561/561/561
f 561/561/561 563/563/563 540/540/540
f 561/561/561 562/562/562 563/563/563
f 540/540/540 563/563/563 538/538/538
f 562/562/562 564/564/564 563/563/563
f 563/563/563 565/565/565 538/538/538
f 563/563/563 564/564/564 565/565/565
f 538/538/538 565/565/565 566/566/566
f 564/564/564 567/567/567 565/565/565
f 565/565/565 568/568/568 566/566/566
f 565/565/565 567/567/567 568/568/568
f 566/566/566 568/568/568 569/569/569
f 567/567/567 570/570/570 568/568/568
f 568/568/568 571/571/571 569/569/569
f 568/568/568 570/570/570 571/571/571
f 570/570/570 572/572/572 571/571/571
f 575/575/575 574/574/574 573/573/573
f 576/576/576 575/575/575 573/573/573
f 577/577/577 575/575/575 576/576/576
f 578/578/578 577/577/577 576/576/576
f 579/579/579 577/577/577 578/578/578
f 580/580/580 579/579/579 578/578/578
f 581/581/581 579/579/579 580/580/580
f 582/582/582 581/581/581 580/580/580
f 583/583/583 581/581/581 582/582/582
f 584/584/584 583/583/583 582/582/582
f 585/585/585 583/583/583 584/584/584
f 4/4/4 585/585/585 584/584/584
f 5/5/5 585/585/585 4/4/4
f 573/573/573 574/574/574 586/586/586
f 574/574/574 587/587/587 586/586/586
f 586/586/586 587/587/587 588/588/588
f 587/587/587 589/589/589 588/588/588
f 586/586/586 588/588/588 590/590/590
f 591/591/591 586/586/586 590/590/590
f 573/573/573 586/586/586 591/591/591
f 592/592/592 573/573/573 591/591/591
f 576/576/576 573/573/573 592/592/592
f 593/593/593 576/576/576 592/592/592
f 578/578/578 576/576/576 593/593/593
f 594/594/594 578/578/578 593/593/593
f 580/580/580 578/578/578 594/594/594
f 595/595/595 580/580/580 594/594/594
f 582/582/582 580/580/580 595/595/595
f 596/596/596 582/582/582 595/595/595
f 584/584/584 582/582/582 596/596/596
f 597/597/597 584/584/584 596/596/596
f 4/4/4 584/584/584 597/597/597
f 7/7/7 4/4/4 597/597/597
f 6/6/6 4/4/4 7/7/7
f 600/600/600 599/599/599 598/598/598
f 601/601/601 600/600/600 598/598/598
f 602/602/602 600/600/600 601/601/601
f 603/603/603 602/602/602 601/601/601
f 604/604/604 602/602/602 603/603/603
f 605/605/605 604/604/604 603/603/603
f 606/606/606 604/604/604 605/605/605
f 607/607/607 606/606/606 605/605/605
f 608/608/608 606/606/606 607/607/607
f 609/609/609 608/608/608 607/607/607
f 610/610/610 608/608/608 609/609/609
f 611/611/611 610/610/610 609/609/609
f 612/612/612 610/610/610 611/611/611
f 613/613/613 612/612/612 611/611/611
f 614/614/614 612/612/612 613/613/613
f 9/9/9 614/614/614 613/613/613
f 10/10/10 614/614/614 9/9/9
f 601/601/601 598/598/598 615/615/615
f 616/616/616 601/601/601 615/615/615
f 603/603/603 601/601/601 616/616/616
f 617/617/617 603/603/603 616/616/616
f 605/605/605 603/603/603 617/617/617
f 618/618/618 605/605/605 617/617/617
f 607/607/607 605/605/605 618/618/618
f 619/619/619 607/607/607 618/618/618
f 609/609/609 607/607/607 619/619/619
f 620/620/620 609/609/609 619/619/619
f 611/611/611 609/609/609 620/620/620
f 621/621/621 611/611/611 620/620/620
f 613/613/613 611/611/611 621/621/621
f 622/622/622 613/613/613 621/621/621
f 9/9/9 613/613/613 622/622/622
f 12/12/12 9/9/9 622/622/622
f 11/11/11 9/9/9 12/12/12

