mtllib material.mtl
usemtl material_0
v 0.21263770 0.00000000 0.16438100
v 0.21263770 0.00477430 0.16438100
v 0.21263770 0.00477430 -0.16438100
v 0.21263770 0.00000000 -0.16438100
v -0.21235530 0.01992602 0.16438100
v -0.21332910 0.03102003 -0.16438100
v -0.21332910 0.03102003 0.16438100
v -0.21235530 0.01992602 -0.16438100
v -0.20871460 0.00897017 0.16438100
v -0.20871460 0.00897017 -0.16438100
v -0.20269940 0.00183745 -0.16438100
v -0.20269930 0.00183740 0.16438100
v -0.21332910 0.03102003 0.16438100
v -0.21190230 0.03251714 0.16383830
v -0.20834010 0.03251693 0.16383830
v -0.20677110 0.03102004 0.16438100
v -0.20585690 0.02082518 0.16438100
v -0.21235530 0.01992602 0.16438100
v -0.20294970 0.00988747 0.16438100
v -0.20871460 0.00897017 0.16438100
v -0.20269930 0.00183740 0.16438100
v -0.19970790 0.00620043 0.16438100
v -0.20018990 0.00128047 0.16273710
v -0.20018820 0.00127978 -0.16273710
v -0.20153840 0.00183225 -0.16273710
v -0.20153990 0.00183292 0.16273710
v -0.20153990 0.00183292 0.16273710
v -0.19953560 0.00449305 0.16273710
v -0.19817250 0.00395775 0.16273710
v -0.20018990 0.00128047 0.16273710
v -0.19953370 0.00449239 -0.16273700
v -0.20153840 0.00183225 -0.16273710
v -0.20018820 0.00127978 -0.16273710
v -0.19817060 0.00395708 -0.16273710
v -0.19926650 0.00000000 0.16438100
v -0.19567780 0.00477430 0.16438100
v 0.21263770 0.00477430 0.16438100
v 0.21263770 0.00000000 0.16438100
v -0.19567780 0.00477430 -0.16438100
v -0.19926640 0.00000000 -0.16438100
v 0.21263770 0.00000000 -0.16438100
v 0.21263770 0.00477430 -0.16438100
v -0.19926640 0.00000000 -0.16438100
v -0.19926650 0.00000000 0.16438100
v 0.21263770 0.00000000 0.16438100
v 0.21263770 0.00000000 -0.16438100
v -0.19970790 0.00620043 -0.16438100
v -0.20871460 0.00897017 -0.16438100
v -0.20269940 0.00183745 -0.16438100
v -0.20294970 0.00988747 -0.16438100
v -0.20585690 0.02082518 -0.16438100
v -0.21235530 0.01992602 -0.16438100
v -0.20677110 0.03102004 -0.16438100
v -0.21332910 0.03102003 -0.16438100
v -0.21190230 0.03251714 -0.16383830
v -0.20834010 0.03251693 -0.16383830
v -0.20269930 0.00183740 0.16438100
v -0.20153990 0.00183292 0.16273710
v -0.20153840 0.00183225 -0.16273710
v -0.20269940 0.00183745 -0.16438100
v -0.19926640 0.00000000 -0.16438100
v -0.20018820 0.00127978 -0.16273710
v -0.20018990 0.00128047 0.16273710
v -0.19926650 0.00000000 0.16438100
v -0.19926650 0.00000000 0.16438100
v -0.20018990 0.00128047 0.16273710
v -0.19817250 0.00395775 0.16273710
v -0.19567780 0.00477430 0.16438100
v -0.19970790 0.00620043 0.16438100
v -0.19953560 0.00449305 0.16273710
v -0.20153990 0.00183292 0.16273710
v -0.20269930 0.00183740 0.16438100
v -0.19567780 0.00477430 -0.16438100
v -0.19817060 0.00395708 -0.16273710
v -0.20018820 0.00127978 -0.16273710
v -0.19926640 0.00000000 -0.16438100
v -0.20269940 0.00183745 -0.16438100
v -0.20153840 0.00183225 -0.16273710
v -0.19953370 0.00449239 -0.16273700
v -0.19970790 0.00620043 -0.16438100
v -0.21190230 0.03251714 -0.16383830
v -0.21190230 0.03251714 0.16383830
vn 1.00000000 0.00000000 0.00000000
vn 1.00000000 0.00000000 0.00000000
vn 1.00000000 0.00000000 0.00000000
vn 1.00000000 0.00000000 0.00000000
vn -0.97879550 -0.20484030 0.00000000
vn -0.99984420 0.01765356 0.00000000
vn -0.99984420 0.01765356 0.00000000
vn -0.97879550 -0.20484030 0.00000000
vn -0.88217700 -0.47091790 0.00000000
vn -0.88217700 -0.47091790 0.00000000
vn -0.76445170 -0.64468110 0.00000000
vn -0.76445170 -0.64468110 0.00000000
vn 0.00000000 0.02095659 0.99978040
vn 0.00000719 0.34080180 0.94013520
vn 0.00000719 0.34080190 0.94013520
vn 0.00000000 0.01782855 0.99984110
vn -0.00000041 0.00000000 1.00000000
vn -0.00000041 0.00000000 1.00000000
vn -0.00000161 0.00000000 1.00000000
vn -0.00000107 0.00000000 1.00000000
vn -0.00000323 0.00000000 1.00000000
vn -0.00000323 0.00000000 1.00000000
vn -0.37872400 -0.92550970 0.00000000
vn -0.37872400 -0.92550970 0.00000000
vn -0.37872400 -0.92550970 0.00000000
vn -0.37872400 -0.92550970 0.00000000
vn 0.00000615 0.00000000 1.00000000
vn 0.00000615 0.00000000 1.00000000
vn 0.00000615 0.00000000 1.00000000
vn 0.00000615 0.00000000 1.00000000
vn -0.00001844 0.00003756 -1.00000000
vn -0.00001844 0.00003756 -1.00000000
vn -0.00001844 0.00003756 -1.00000000
vn -0.00001844 0.00003756 -1.00000000
vn 0.00000000 0.00000000 1.00000000
vn 0.00000000 0.00000000 1.00000000
vn 0.00000000 0.00000000 1.00000000
vn 0.00000000 0.00000000 1.00000000
vn 0.00000000 0.00000000 -1.00000000
vn 0.00000000 0.00000000 -1.00000000
vn 0.00000000 0.00000000 -1.00000000
vn 0.00000000 0.00000000 -1.00000000
vn 0.00000000 -1.00000000 0.00000000
vn 0.00000000 -1.00000000 0.00000000
vn 0.00000000 -1.00000000 0.00000000
vn 0.00000000 -1.00000000 0.00000000
vn 0.00000161 0.00000000 -1.00000000
vn 0.00000069 0.00000000 -1.00000000
vn 0.00000161 0.00000000 -1.00000000
vn 0.00000093 0.00000000 -1.00000000
vn 0.00000000 0.00000000 -1.00000000
vn 0.00000000 0.00000000 -1.00000000
vn 0.00000000 0.01782859 -0.99984110
vn 0.00000000 0.02095663 -0.99978040
vn 0.00000719 0.34080230 -0.94013490
vn 0.00000719 0.34080230 -0.94013490
vn -0.00417011 -0.99999130 0.00000094
vn -0.00417011 -0.99999130 0.00000094
vn -0.00417011 -0.99999130 0.00000094
vn -0.00417011 -0.99999130 0.00000094
vn -0.81125630 -0.58469070 -0.00000151
vn -0.81125630 -0.58469070 -0.00000151
vn -0.81125630 -0.58469070 -0.00000151
vn -0.81125630 -0.58469070 -0.00000151
vn -0.58936380 0.44339360 0.67531660
vn -0.58936380 0.44339360 0.67531660
vn -0.58936380 0.44339360 0.67531660
vn -0.58936380 0.44339360 0.67531660
vn 0.68886720 -0.49000780 0.53418590
vn 0.68886720 -0.49000780 0.53418580
vn 0.68886720 -0.49000780 0.53418580
vn 0.68886720 -0.49000780 0.53418580
vn -0.58967700 0.44364260 -0.67487940
vn -0.58967710 0.44364260 -0.67487940
vn -0.58967710 0.44364260 -0.67487940
vn -0.58967710 0.44364260 -0.67487940
vn 0.68850560 -0.48979240 -0.53484900
vn 0.68850560 -0.48979250 -0.53484890
vn 0.68850560 -0.48979240 -0.53484890
vn 0.68850560 -0.48979250 -0.53484890
vn -0.31667520 0.94853400 0.00000000
vn -0.31667520 0.94853400 0.00000000
vt 0.00027198 0.83782090
vt 0.00027198 0.83782090
vt 0.00027198 0.99537270
vt 0.00027198 0.99537270
vt 0.00819069 0.83782090
vt 0.01111406 0.99537270
vt 0.01123416 0.83782090
vt 0.00819069 0.99537270
vt 0.00453842 0.83782090
vt 0.00453842 0.99537270
vt 0.00239039 0.99537270
vt 0.00239039 0.83782090
vt 0.01123416 0.83782090
vt 0.01210660 0.83782090
vt 0.01210648 0.83522590
vt 0.01123416 0.83522590
vt 0.00819075 0.83522590
vt 0.00819069 0.83782090
vt 0.00453842 0.83522590
vt 0.00453842 0.83782090
vt 0.00239039 0.83782090
vt 0.00239039 0.83522590
vt 0.00162125 0.83782090
vt 0.00162125 0.99537270
vt 0.00199205 0.99537270
vt 0.00199205 0.83782090
vt 0.00199205 0.83782090
vt 0.00199205 0.83522590
vt 0.00162125 0.83522590
vt 0.00162125 0.83782090
vt 0.00199205 0.99793600
vt 0.00199205 0.99537270
vt 0.00162125 0.99537270
vt 0.00162125 0.99793600
vt 0.00053316 0.83782090
vt 0.00053316 0.83522590
vt 0.00027198 0.83522590
vt 0.00027198 0.83782090
vt 0.00053316 0.99793600
vt 0.00053316 0.99537270
vt 0.00027198 0.99537270
vt 0.00027198 0.99793600
vt 0.00053316 0.99537270
vt 0.00053316 0.83782090
vt 0.00027198 0.83782090
vt 0.00027198 0.99537270
vt 0.00239039 0.99793600
vt 0.00453842 0.99537270
vt 0.00239039 0.99537270
vt 0.00453842 0.99793600
vt 0.00819069 0.99793600
vt 0.00819069 0.99537270
vt 0.01111388 0.99793600
vt 0.01111406 0.99537270
vt 0.01210654 0.99537270
vt 0.01210624 0.99793600
vt 0.00239039 0.83782090
vt 0.00199205 0.83782090
vt 0.00199205 0.99537270
vt 0.00239039 0.99537270
vt 0.00053316 0.99537270
vt 0.00162125 0.99537270
vt 0.00162125 0.83782090
vt 0.00053316 0.83782090
vt 0.00053316 0.83782090
vt 0.00162125 0.83782090
vt 0.00162125 0.83522590
vt 0.00053316 0.83522590
vt 0.00239039 0.83522590
vt 0.00199205 0.83522590
vt 0.00199205 0.83782090
vt 0.00239039 0.83782090
vt 0.00053316 0.99793600
vt 0.00162125 0.99793600
vt 0.00162125 0.99537270
vt 0.00053316 0.99537270
vt 0.00239039 0.99537270
vt 0.00199205 0.99537270
vt 0.00199205 0.99793600
vt 0.00239039 0.99793600
vt 0.01210654 0.99537270
vt 0.01210660 0.83782090
f 3/3/3 2/2/2 1/1/1
f 4/4/4 3/3/3 1/1/1
f 7/7/7 6/6/6 5/5/5
f 6/6/6 8/8/8 5/5/5
f 5/5/5 8/8/8 9/9/9
f 8/8/8 10/10/10 9/9/9
f 9/9/9 10/10/10 11/11/11
f 12/12/12 9/9/9 11/11/11
f 15/15/15 14/14/14 13/13/13
f 16/16/16 15/15/15 13/13/13
f 16/16/16 13/13/13 17/17/17
f 13/13/13 18/18/18 17/17/17
f 17/17/17 18/18/18 19/19/19
f 18/18/18 20/20/20 19/19/19
f 19/19/19 20/20/20 21/21/21
f 22/22/22 19/19/19 21/21/21
f 25/25/25 24/24/24 23/23/23
f 26/26/26 25/25/25 23/23/23
f 29/29/29 28/28/28 27/27/27
f 30/30/30 29/29/29 27/27/27
f 33/33/33 32/32/32 31/31/31
f 34/34/34 33/33/33 31/31/31
f 37/37/37 36/36/36 35/35/35
f 38/38/38 37/37/37 35/35/35
f 41/41/41 40/40/40 39/39/39
f 42/42/42 41/41/41 39/39/39
f 45/45/45 44/44/44 43/43/43
f 46/46/46 45/45/45 43/43/43
f 49/49/49 48/48/48 47/47/47
f 48/48/48 50/50/50 47/47/47
f 50/50/50 48/48/48 51/51/51
f 48/48/48 52/52/52 51/51/51
f 53/53/53 51/51/51 52/52/52
f 54/54/54 53/53/53 52/52/52
f 54/54/54 55/55/55 53/53/53
f 55/55/55 56/56/56 53/53/53
f 59/59/59 58/58/58 57/57/57
f 60/60/60 59/59/59 57/57/57
f 63/63/63 62/62/62 61/61/61
f 64/64/64 63/63/63 61/61/61
f 67/67/67 66/66/66 65/65/65
f 68/68/68 67/67/67 65/65/65
f 71/71/71 70/70/70 69/69/69
f 72/72/72 71/71/71 69/69/69
f 75/75/75 74/74/74 73/73/73
f 76/76/76 75/75/75 73/73/73
f 79/79/79 78/78/78 77/77/77
f 80/80/80 79/79/79 77/77/77
f 7/7/7 82/82/82 81/81/81
f 6/6/6 7/7/7 81/81/81

