mtllib material.mtl
usemtl material_0
v -0.19953560 0.00449305 0.16273710
v -0.19953370 0.00449239 -0.16273700
v -0.19817060 0.00395708 -0.16273710
v -0.19817250 0.00395775 0.16273710
v -0.19567780 0.00477430 0.16438100
v -0.19567780 0.00477430 -0.16438100
v 0.21263770 0.00477430 -0.16438100
v 0.21263770 0.00477430 0.16438100
v -0.19970790 0.00620043 0.16438100
v -0.20294970 0.00988747 -0.16438100
v -0.19970790 0.00620043 -0.16438100
v -0.20294970 0.00988747 0.16438100
v -0.20585690 0.02082518 0.16438100
v -0.20585690 0.02082518 -0.16438100
v -0.20677110 0.03102004 -0.16438100
v -0.20677110 0.03102004 0.16438100
v -0.20834010 0.03251693 0.16383830
v -0.20834010 0.03251693 -0.16383830
v -0.19567780 0.00477430 0.16438100
v -0.19817250 0.00395775 0.16273710
v -0.19817060 0.00395708 -0.16273710
v -0.19567780 0.00477430 -0.16438100
v -0.19970790 0.00620043 -0.16438100
v -0.19953370 0.00449239 -0.16273700
v -0.19953560 0.00449305 0.16273710
v -0.19970790 0.00620043 0.16438100
v -0.21190230 0.03251714 -0.16383830
v -0.21190230 0.03251714 0.16383830
v 0.06805205 0.03768465 -0.15954560
v 0.20337320 0.03768465 -0.15954560
v 0.20337320 0.03768465 0.15954560
v 0.06805205 0.03768465 0.15954560
v 0.02207801 0.04225498 0.15954560
v 0.02207801 0.04225498 -0.15954560
v -0.02389601 0.05100914 0.15954560
v -0.02389601 0.05100914 -0.15954560
v -0.06987000 0.05837451 -0.15954560
v -0.06987000 0.05822248 0.15954560
v -0.10552170 0.06107191 0.15954560
v -0.10552170 0.06192014 -0.15954560
v -0.14117350 0.06016556 0.15954560
v -0.14117350 0.06016556 -0.15954560
v -0.17682520 0.05451293 0.15954560
v -0.17682520 0.05451293 -0.15954560
v -0.19476320 0.04853578 0.15954560
v -0.19476320 0.04853578 -0.15954560
v -0.21270110 0.03464640 -0.15954560
v -0.21270110 0.03464640 0.15954560
vn 0.36553480 0.93079760 0.00000023
vn 0.36553480 0.93079760 0.00000023
vn 0.36553480 0.93079760 0.00000023
vn 0.36553480 0.93079760 0.00000023
vn 0.00000000 1.00000000 0.00000000
vn 0.00000000 1.00000000 0.00000000
vn 0.00000000 1.00000000 0.00000000
vn 0.00000000 1.00000000 0.00000000
vn 0.75098700 0.66031710 0.00000000
vn 0.92183330 0.38758650 0.00000000
vn 0.75098700 0.66031710 0.00000000
vn 0.92183330 0.38758650 0.00000000
vn 0.98404060 0.17794380 0.00000000
vn 0.98404060 0.17794380 0.00000000
vn 0.98147660 0.19158160 0.00000000
vn 0.98147660 0.19158160 0.00000000
vn 0.30675380 0.95178900 0.00000000
vn 0.30675380 0.95178900 0.00000000
vn -0.31129500 0.95031340 -0.00000188
vn -0.31129490 0.95031340 -0.00000188
vn -0.31129490 0.95031340 -0.00000188
vn -0.31129490 0.95031340 -0.00000188
vn 0.99489520 0.10091370 0.00000284
vn 0.99489520 0.10091370 0.00000284
vn 0.99489520 0.10091370 0.00000284
vn 0.99489520 0.10091370 0.00000284
vn -0.31667520 0.94853400 0.00000000
vn -0.31667520 0.94853400 0.00000000
vn 0.02520137 0.99968240 0.00000000
vn 0.00000000 1.00000000 0.00000000
vn 0.00000000 1.00000000 0.00000000
vn 0.02520137 0.99968240 0.00000000
vn 0.14341530 0.98966260 0.00000000
vn 0.14341530 0.98966260 0.00000000
vn 0.17188760 0.98511650 0.00011734
vn 0.17188760 0.98511650 0.00011734
vn 0.12742650 0.99184760 0.00081210
vn 0.12742900 0.99184730 0.00081205
vn 0.02617861 0.99965620 0.00144775
vn 0.02617303 0.99965630 0.00144774
vn -0.09746867 0.99523840 0.00066140
vn -0.09746867 0.99523840 0.00066140
vn -0.21207870 0.97725270 0.00000000
vn -0.21207870 0.97725270 0.00000000
vn -0.48444000 0.87482450 0.00000000
vn -0.48444000 0.87482450 0.00000000
vn -0.61222650 0.79068230 0.00000000
vn -0.61222650 0.79068230 0.00000000
vt 0.11574400 0.11387250
vt 0.11559280 0.03518933
vt 0.11536720 0.03518933
vt 0.11551830 0.11387250
vt 0.11512050 0.11387250
vt 0.11496810 0.03518933
vt 0.05557740 0.03518933
vt 0.05557740 0.11387250
vt 0.11608820 0.11387250
vt 0.11681300 0.03518933
vt 0.11593560 0.03518933
vt 0.11696550 0.11387250
vt 0.11919990 0.11387250
vt 0.11904730 0.03518933
vt 0.13780240 0.03518933
vt 0.13795510 0.11387250
vt 0.14070860 0.11387250
vt 0.14055650 0.03518933
vt 0.11512050 0.11387250
vt 0.11551830 0.11387250
vt 0.11536720 0.03518933
vt 0.11496810 0.03518933
vt 0.11593560 0.03518933
vt 0.11559280 0.03518933
vt 0.11574400 0.11387250
vt 0.11608820 0.11387250
vt 0.14710970 0.03518933
vt 0.14726170 0.11387250
vt 2.55817300 0.99924360
vt 2.66645700 0.99924360
vt 2.66645700 0.75026640
vt 2.55817300 0.75026640
vt 2.52138400 0.75026640
vt 2.52138400 0.99924360
vt 2.48459600 0.75026640
vt 2.48459600 0.99924360
vt 2.44780800 0.99924360
vt 2.44780800 0.75026640
vt 2.41927900 0.75026640
vt 2.41927900 0.99924360
vt 2.39075100 0.75026640
vt 2.39075100 0.99924360
vt 2.36222300 0.75026640
vt 2.36222300 0.99924360
vt 2.34786800 0.75026640
vt 2.34786800 0.99924360
vt 2.33351500 0.99924360
vt 2.33351500 0.75026640
f 3/3/3 2/2/2 1/1/1
f 4/4/4 3/3/3 1/1/1
f 7/7/7 6/6/6 5/5/5
f 8/8/8 7/7/7 5/5/5
f 11/11/11 10/10/10 9/9/9
f 10/10/10 12/12/12 9/9/9
f 12/12/12 10/10/10 13/13/13
f 10/10/10 14/14/14 13/13/13
f 13/13/13 14/14/14 15/15/15
f 16/16/16 13/13/13 15/15/15
f 16/16/16 15/15/15 17/17/17
f 15/15/15 18/18/18 17/17/17
f 21/21/21 20/20/20 19/19/19
f 22/22/22 21/21/21 19/19/19
f 25/25/25 24/24/24 23/23/23
f 26/26/26 25/25/25 23/23/23
f 17/17/17 18/18/18 27/27/27
f 28/28/28 17/17/17 27/27/27
f 31/31/31 30/30/30 29/29/29
f 32/32/32 31/31/31 29/29/29
f 32/32/32 29/29/29 33/33/33
f 29/29/29 34/34/34 33/33/33
f 33/33/33 34/34/34 35/35/35
f 34/34/34 36/36/36 35/35/35
f 35/35/35 36/36/36 37/37/37
f 38/38/38 35/35/35 37/37/37
f 38/38/38 37/37/37 39/39/39
f 37/37/37 40/40/40 39/39/39
f 39/39/39 40/40/40 41/41/41
f 40/40/40 42/42/42 41/41/41
f 41/41/41 42/42/42 43/43/43
f 42/42/42 44/44/44 43/43/43
f 43/43/43 44/44/44 45/45/45
f 44/44/44 46/46/46 45/45/45
f 45/45/45 46/46/46 47/47/47
f 48/48/48 45/45/45 47/47/47

