# Blender 4.0.0
# www.blender.org
o decimated_mesh
v 0.072159 0.005537 -0.032073
v 0.075864 0.005537 -0.032073
v 0.079521 0.005537 0.000017
v 0.083296 0.009343 0.000017
v 0.075585 0.008692 -0.032073
v 0.082936 0.005537 0.000017
v 0.101877 0.015556 -0.031973
v 0.104333 0.015495 -0.023239
v 0.104766 0.015082 -0.019356
v 0.102551 0.015139 0.000017
v 0.104737 0.016182 -0.019364
v 0.102481 0.016191 0.000018
v 0.100107 0.017726 0.000020
v 0.103027 0.017539 -0.019017
v 0.104354 0.015545 -0.011840
v 0.098694 0.017373 -0.032073
v 0.086488 0.013755 -0.032073
v 0.100148 0.017642 -0.029580
vn -0.0000 -0.0000 -1.0000
vn 0.9938 0.0249 -0.1079
vn 0.7014 -0.6959 -0.1544
vn -0.0000 1.0000 -0.0000
vn 0.6996 -0.7098 0.0821
vn -0.1768 0.9842 -0.0030
vn -0.0000 -0.0011 1.0000
vn 0.7892 0.6072 0.0916
vn 0.4198 -0.9039 -0.0825
vn -0.2842 0.9588 0.0020
vn 0.4707 0.8048 -0.3615
vn 0.5414 0.8374 0.0748
vn 0.4991 -0.8541 -0.1463
vn 0.7076 0.6794 -0.1943
vn 0.0107 -0.0362 -0.9993
vn 0.0076 -0.0099 -0.9999
vn 0.4390 -0.8969 0.0528
vn 0.6692 -0.7270 -0.1535
vn 0.0459 0.9989 -0.0028
vn 0.6288 0.7741 0.0728
vn 0.3425 -0.9365 -0.0755
vn 0.3573 -0.9267 -0.1166
vn 0.0003 -0.0009 1.0000
vn -0.0000 -0.0000 1.0000
vn 0.4449 -0.8921 -0.0784
vn 0.9982 0.0262 0.0530
vn 0.9862 0.0651 0.1522
vn 0.5946 0.7891 -0.1544
vn 0.6435 0.7432 -0.1829
vn -0.0000 0.0001 -1.0000
vn 0.0149 -0.0288 -0.9995
vn 0.7007 -0.6951 -0.1608
vn 0.6700 -0.7278 -0.1462
vn 0.4445 -0.8914 -0.0887
vn 0.4203 -0.9050 -0.0664
vn -0.0003 0.0003 1.0000
vn -0.0000 -0.0002 1.0000
vn 0.0004 -0.0008 1.0000
s 0
f 2//1 1//1 5//1
f 11//2 9//2 8//2
f 5//3 4//3 3//3
f 3//4 6//4 2//4
f 10//5 9//5 15//5
f 13//6 18//6 16//6
f 10//7 12//7 13//7
f 12//8 15//8 11//8
f 4//9 5//9 17//9
f 13//10 16//10 17//10
f 7//11 16//11 18//11
f 12//12 14//12 13//12
f 7//13 8//13 9//13
f 7//14 11//14 8//14
f 5//1 17//1 2//1
f 17//15 16//15 7//15
f 7//16 2//16 17//16
f 9//17 10//17 6//17
f 5//18 3//18 1//18
f 3//4 2//4 1//4
f 13//19 14//19 18//19
f 12//20 11//20 14//20
f 6//21 2//21 9//21
f 2//22 7//22 9//22
f 13//23 4//23 10//23
f 4//24 3//24 6//24
f 6//24 10//24 4//24
f 4//25 17//25 13//25
f 11//26 15//26 9//26
f 15//27 12//27 10//27
f 18//28 14//28 11//28
f 11//29 7//29 18//29
f 2//1 1//1 16//1
f 1//1 5//1 16//1
f 5//30 17//30 16//30
f 7//31 2//31 16//31
f 6//4 1//4 3//4
f 6//4 2//4 1//4
f 3//32 1//32 4//32
f 4//33 1//33 5//33
f 4//34 5//34 13//34
f 13//35 5//35 17//35
f 4//36 3//36 13//36
f 3//37 6//37 13//37
f 6//38 10//38 13//38
