# Blender 4.0.0
# www.blender.org
o decimated_mesh
v 0.019511 0.015073 -0.104749
v 0.000017 0.005539 -0.082937
v 0.000017 0.015139 -0.102550
v 0.019363 0.016195 -0.104732
v 0.000017 0.005539 -0.079520
v 0.000017 0.016029 -0.102550
v 0.019095 0.017561 -0.103022
v 0.019815 0.005539 -0.080481
v 0.042211 0.005539 -0.071407
v 0.052852 0.005539 -0.063251
v 0.047294 0.005539 -0.063251
v 0.000017 0.009343 -0.083298
v 0.053680 0.009396 -0.063251
v 0.000008 0.017721 -0.100375
v 0.011672 0.015492 -0.104345
v 0.023317 0.015494 -0.104327
v 0.069076 0.015313 -0.081516
v 0.081512 0.015313 -0.069082
v 0.083986 0.015512 -0.063277
v 0.081581 0.017627 -0.063241
v 0.034703 0.015477 -0.101180
v 0.069216 0.015860 -0.081380
v 0.081403 0.015847 -0.069182
v 0.079682 0.017522 -0.067551
v 0.035694 0.017640 -0.098195
v 0.067560 0.017567 -0.079568
vn -0.1523 -0.0000 -0.9883
vn -0.0738 -0.7723 -0.6310
vn 0.1103 -0.9246 -0.3646
vn 0.6395 0.7310 -0.2382
vn 0.2568 -0.6811 -0.6857
vn -0.0948 0.5999 -0.7944
vn 0.1521 -0.8179 -0.5549
vn 0.0041 0.9995 -0.0305
vn 0.1938 0.6896 -0.6977
vn 0.0454 -0.9296 -0.3658
vn 0.0004 -0.0001 -1.0000
vn 0.9127 0.1122 -0.3928
vn 0.2865 -0.4743 -0.8325
vn 0.2260 -0.7652 -0.6028
vn 0.7070 0.0114 -0.7071
vn 0.2630 -0.9282 -0.2631
vn -0.0526 -0.8969 -0.4390
vn 0.1957 -0.8804 -0.4320
vn -0.0000 1.0000 -0.0000
vn 0.1071 0.0293 -0.9938
vn 0.1750 0.7824 -0.5977
vn -0.0784 0.7866 -0.6124
vn -0.0777 0.7729 -0.6298
vn -1.0000 -0.0000 -0.0040
vn -1.0000 -0.0000 -0.0000
vn -1.0000 -0.0027 -0.0008
vn 0.5382 0.8028 -0.2567
vn 0.1988 -0.9135 -0.3551
vn 0.1398 -0.9281 -0.3451
vn 0.4950 0.0876 -0.8645
vn 0.0047 1.0000 -0.0077
vn 0.0023 1.0000 -0.0000
vn 0.0492 0.9977 -0.0460
vn -0.0000 -0.0000 -1.0000
vn 0.0046 -0.0118 0.9999
vn 0.7074 -0.0063 -0.7068
vn 0.4037 0.8208 -0.4041
vn 0.4087 0.8166 -0.4075
vn 0.2265 -0.9281 -0.2955
vn -0.0510 0.0086 -0.9987
vn -0.0000 -1.0000 -0.0000
vn 0.3496 0.6998 -0.6229
vn 0.2937 0.8152 -0.4993
vn 0.3035 -0.9479 -0.0970
vn 0.1752 0.7688 -0.6150
vn -1.0000 -0.0007 -0.0000
vn -1.0000 -0.0024 -0.0012
vn 0.1704 0.7827 -0.5987
vn 0.1784 0.7678 -0.6154
vn -1.0000 0.0010 0.0010
vn 0.0025 1.0000 -0.0029
vn 0.0090 0.9999 -0.0114
vn 0.7074 0.0116 -0.7067
vn 0.7070 -0.0061 -0.7072
vn -0.0000 0.0008 -1.0000
vn 0.0007 -0.0011 -1.0000
s 0
f 15//1 3//1 6//1
f 3//2 15//2 1//2
f 1//3 21//3 8//3
f 20//4 19//4 23//4
f 5//5 12//5 13//5
f 6//6 4//6 15//6
f 16//7 21//7 1//7
f 14//8 25//8 7//8
f 21//9 16//9 4//9
f 1//10 8//10 2//10
f 20//11 10//11 13//11
f 19//12 18//12 23//12
f 11//13 5//13 13//13
f 13//14 12//14 20//14
f 17//15 23//15 18//15
f 10//16 17//16 18//16
f 1//17 2//17 3//17
f 14//18 20//18 12//18
f 8//19 11//19 9//19
f 4//20 16//20 1//20
f 21//21 4//21 7//21
f 14//22 7//22 6//22
f 6//23 7//23 4//23
f 14//24 6//24 3//24
f 3//25 2//25 12//25
f 2//25 5//25 12//25
f 12//26 14//26 3//26
f 20//27 23//27 24//27
f 17//28 9//28 21//28
f 9//29 8//29 21//29
f 22//30 17//30 21//30
f 14//31 20//31 26//31
f 25//32 14//32 26//32
f 24//33 26//33 20//33
f 13//34 10//34 11//34
f 10//35 19//35 20//35
f 17//36 22//36 23//36
f 26//37 24//37 22//37
f 22//38 24//38 23//38
f 10//39 9//39 17//39
f 15//40 4//40 1//40
f 10//41 11//41 9//41
f 11//19 8//19 5//19
f 5//19 8//19 2//19
f 21//42 25//42 22//42
f 25//43 26//43 22//43
f 19//44 10//44 18//44
f 7//45 25//45 21//45
f 9//19 5//19 11//19
f 9//19 2//19 5//19
f 9//19 8//19 2//19
f 5//46 14//46 2//46
f 14//47 3//47 2//47
f 7//48 25//48 4//48
f 25//49 21//49 4//49
f 12//50 14//50 5//50
f 20//51 25//51 14//51
f 20//52 26//52 25//52
f 23//53 18//53 22//53
f 18//54 17//54 22//54
f 20//55 10//55 11//55
f 20//56 11//56 13//56
