# Blender 4.0.0
# www.blender.org
o Book_1_book_1_2_collision_3
v -0.192693 0.001350 -0.166647
v -0.192693 -0.001048 -0.166339
v -0.192693 0.004222 -0.166424
v -0.189884 0.004229 -0.166424
v 0.175270 0.001350 -0.166647
v 0.175270 -0.000395 -0.166424
v -0.192693 -0.001317 -0.165534
v 0.175270 -0.001048 -0.166339
v -0.192693 0.004835 -0.164832
v 0.175270 0.004229 -0.166424
v -0.192693 -0.001829 -0.163994
v 0.175270 -0.001829 -0.163994
v -0.192693 0.005131 -0.163994
v 0.175270 0.005087 -0.163994
v -0.192693 -0.002343 -0.159732
v 0.175270 -0.002343 -0.159732
v -0.192693 0.001685 0.008211
v 0.175270 0.001685 0.008211
v -0.192693 -0.002343 0.008211
v 0.175270 -0.002343 0.008211
vn -1.0000 -0.0000 -0.0000
vn -0.0002 0.0773 -0.9970
vn -0.0000 0.0771 -0.9970
vn -0.0000 -0.1265 -0.9920
vn -0.0000 -0.1274 -0.9918
vn -0.0000 -0.1299 -0.9915
vn -0.0000 -0.9483 -0.3174
vn -0.0024 0.9332 -0.3594
vn -0.0000 0.9346 -0.3557
vn 1.0000 -0.0000 -0.0000
vn 1.0000 -0.0014 -0.0000
vn -0.0000 -0.9487 -0.3161
vn -0.0000 -0.9489 -0.3155
vn 0.0001 0.9429 -0.3331
vn 0.0001 0.9430 -0.3329
vn -0.0000 -0.9928 -0.1196
vn -0.0000 0.9998 0.0200
vn 0.0001 0.9998 0.0198
vn -0.0000 -1.0000 -0.0000
vn -0.0000 -0.0000 1.0000
s 0
f 1//1 2//1 7//1
f 1//1 7//1 11//1
f 1//1 11//1 15//1
f 1//1 15//1 19//1
f 1//1 19//1 17//1
f 1//1 17//1 13//1
f 1//1 13//1 9//1
f 1//1 9//1 3//1
f 1//2 3//2 4//2
f 1//3 4//3 10//3
f 1//3 10//3 5//3
f 1//4 5//4 6//4
f 1//5 6//5 2//5
f 2//6 6//6 8//6
f 2//7 8//7 7//7
f 3//8 9//8 4//8
f 4//9 9//9 10//9
f 5//10 10//10 14//10
f 5//10 14//10 18//10
f 5//10 18//10 20//10
f 5//10 20//10 16//10
f 5//10 16//10 12//10
f 5//10 12//10 8//10
f 5//11 8//11 6//11
f 7//12 8//12 12//12
f 7//13 12//13 11//13
f 9//14 13//14 10//14
f 10//15 13//15 14//15
f 11//16 12//16 16//16
f 11//16 16//16 15//16
f 13//17 17//17 18//17
f 13//18 18//18 14//18
f 15//19 16//19 20//19
f 15//19 20//19 19//19
f 17//20 19//20 20//20
f 17//20 20//20 18//20
