# Blender 4.0.0
# www.blender.org
o decimated_mesh
v -0.200511 -0.001740 -0.159867
v -0.200567 -0.000906 -0.166083
v -0.192695 -0.002107 -0.162694
v -0.192695 -0.002197 0.162205
v -0.200569 -0.000894 0.166127
v -0.200802 -0.001617 0.160202
v -0.204717 0.000938 -0.161681
v -0.208967 0.006983 -0.166273
v -0.192686 -0.000973 -0.166472
v -0.204631 0.001041 0.162384
v -0.192686 -0.000968 0.166523
v -0.205527 0.003542 0.166348
v -0.213479 0.019811 -0.166234
v -0.213617 0.016582 -0.162470
v -0.213718 0.029718 -0.166501
v -0.207697 0.030182 -0.166251
v -0.209286 0.007497 0.166123
v -0.209803 0.006750 -0.159706
v -0.214828 0.025787 -0.163558
v -0.211198 0.032829 -0.165647
v -0.208897 0.033519 -0.163336
v -0.207704 0.030204 0.166236
v -0.213614 0.029697 0.166514
v -0.213479 0.019811 0.166234
v -0.213688 0.016790 0.162418
v -0.209803 0.006750 0.159706
v -0.215374 0.025514 -0.159011
v -0.214921 0.031165 -0.159706
v -0.213663 0.033595 -0.162872
v -0.192693 0.004538 -0.166361
v -0.208876 0.033537 0.163280
v -0.192693 0.004408 0.166352
v -0.211198 0.032829 0.165647
v -0.215173 0.025937 0.162157
v -0.214921 0.031165 0.159706
v -0.213862 0.033485 0.162861
vn -0.9988 0.0481 -0.0000
vn -0.0714 -0.9974 0.0003
vn -1.0000 -0.0012 -0.0028
vn -0.0939 -0.9869 -0.1315
vn -0.5702 -0.8215 0.0004
vn -0.6263 -0.7154 0.3098
vn -0.9036 -0.3104 0.2951
vn -0.9116 -0.3902 -0.1298
vn -0.6454 -0.6948 -0.3173
vn -0.1014 -0.9870 0.1244
vn -0.9653 0.1476 0.2156
vn 0.8419 0.4935 -0.2185
vn -0.9757 -0.1475 -0.1623
vn -0.9148 -0.3861 0.1187
vn -0.7526 -0.6585 -0.0000
vn -0.0191 -0.0140 -0.9997
vn 0.0211 0.2488 -0.9683
vn 0.4084 0.6793 -0.6097
vn -0.0739 -0.0292 0.9968
vn -0.8991 -0.3153 -0.3035
vn -0.7670 -0.6304 -0.1199
vn -0.5164 0.5890 -0.6216
vn 0.8427 0.4914 0.2201
vn -0.0114 0.9612 -0.2757
vn 0.8728 0.4880 -0.0001
vn -0.9871 -0.1602 0.0008
vn 0.0240 0.2495 0.9681
vn 0.0394 0.0274 -0.9988
vn 0.4098 0.6816 0.6062
vn -0.9727 -0.1530 0.1743
vn -0.9530 0.2141 -0.2144
vn 0.0160 0.9999 -0.0001
vn 0.0443 0.0302 0.9986
vn -0.0317 0.9657 0.2579
vn -0.5191 0.5755 0.6320
vn -0.9647 0.1473 0.2181
vn -0.9912 0.0652 -0.1150
vn -0.9095 0.4157 -0.0004
vn -0.0227 -0.9615 0.2738
vn -0.9323 -0.3617 -0.0000
vn -0.9968 0.0799 0.0005
vn -0.7650 -0.6297 0.1350
vn -0.0471 -0.9989 -0.0003
vn -1.0000 0.0004 -0.0000
vn -1.0000 -0.0013 0.0026
vn -0.5370 -0.8436 -0.0002
vn -0.5174 -0.8467 0.1237
vn -0.4993 -0.8593 -0.1107
vn -0.7081 -0.6583 0.2553
vn -0.0222 -0.9575 -0.2876
vn -0.0178 -0.0118 0.9998
vn -0.0508 -0.1060 0.9931
vn -0.7412 -0.6712 0.0004
vn -0.0498 -0.0769 -0.9958
vn -0.9815 -0.1440 -0.1265
vn -0.0909 -0.0290 -0.9954
vn -0.1072 -0.0455 0.9932
vn -0.9349 -0.0228 0.3542
vn 0.8741 0.4857 0.0002
vn -0.9812 -0.1929 -0.0001
vn 0.0308 0.0201 -0.9993
vn -0.9200 -0.0327 -0.3906
vn -0.0104 0.9999 0.0003
vn 0.0460 0.0317 0.9984
vn -0.9720 0.1256 -0.1989
vn -0.8881 0.4597 -0.0000
vn -0.9326 -0.3609 -0.0000
vn -1.0000 0.0079 -0.0000
vn -1.0000 0.0083 -0.0000
vn -1.0000 -0.0012 -0.0000
vn -1.0000 -0.0013 -0.0000
vn 0.0468 0.0317 0.9984
vn 0.0443 0.0305 0.9986
vn -0.8883 0.4593 -0.0004
vn -0.9097 0.4153 -0.0000
vn -0.9988 0.0484 0.0006
vn -0.9968 0.0798 -0.0000
s 0
f 28//1 34//1 35//1
f 1//2 4//2 6//2
f 3//3 30//3 9//3
f 3//4 1//4 2//4
f 7//5 6//5 10//5
f 12//6 10//6 5//6
f 24//7 25//7 17//7
f 14//8 8//8 18//8
f 7//9 8//9 2//9
f 6//10 4//10 5//10
f 35//11 34//11 36//11
f 30//12 16//12 21//12
f 13//13 14//13 19//13
f 26//14 17//14 25//14
f 7//15 26//15 18//15
f 8//16 15//16 9//16
f 16//17 15//17 20//17
f 16//18 20//18 21//18
f 24//19 12//19 23//19
f 14//20 13//20 8//20
f 7//21 18//21 8//21
f 15//22 29//22 20//22
f 22//23 32//23 31//23
f 20//24 29//24 21//24
f 21//25 31//25 30//25
f 27//26 25//26 34//26
f 22//27 33//27 23//27
f 30//28 15//28 16//28
f 22//29 31//29 33//29
f 24//30 34//30 25//30
f 15//31 28//31 29//31
f 29//32 31//32 21//32
f 22//33 23//33 32//33
f 33//34 31//34 36//34
f 33//35 36//35 23//35
f 23//36 36//36 34//36
f 28//37 19//37 27//37
f 29//38 35//38 36//38
f 11//39 5//39 4//39
f 25//40 14//40 18//40
f 28//41 27//41 34//41
f 10//42 17//42 26//42
f 1//43 3//43 4//43
f 30//44 4//44 32//44
f 32//45 4//45 11//45
f 4//44 30//44 3//44
f 7//46 1//46 6//46
f 6//47 5//47 10//47
f 7//48 2//48 1//48
f 17//49 10//49 12//49
f 9//50 3//50 2//50
f 11//51 23//51 12//51
f 12//52 5//52 11//52
f 7//53 10//53 26//53
f 2//54 8//54 9//54
f 14//55 27//55 19//55
f 15//56 8//56 13//56
f 24//57 17//57 12//57
f 34//58 24//58 23//58
f 32//59 30//59 31//59
f 27//60 14//60 25//60
f 9//61 15//61 30//61
f 15//62 13//62 19//62
f 29//63 36//63 31//63
f 23//64 11//64 32//64
f 28//65 15//65 19//65
f 29//66 28//66 35//66
f 18//67 26//67 25//67
f 3//68 4//68 11//68
f 3//69 11//69 9//69
f 9//70 11//70 30//70
f 30//71 11//71 32//71
f 32//72 22//72 11//72
f 22//73 23//73 11//73
f 29//74 28//74 36//74
f 28//75 35//75 36//75
f 35//76 27//76 34//76
f 25//67 14//67 26//67
f 14//40 18//40 26//40
f 27//77 35//77 28//77
