# Blender 4.0.0
# www.blender.org
o decimated_mesh
v 0.214747 0.001350 0.008211
v 0.213375 -0.001845 0.008211
v 0.214570 0.001404 -0.162220
v 0.213780 0.005227 0.008212
v 0.213061 0.004595 -0.165991
v 0.213164 -0.001776 -0.163249
v 0.175270 -0.002343 0.008211
v 0.212861 -0.000876 -0.166492
v 0.175270 0.001685 0.008211
v 0.175260 0.004674 -0.166210
v 0.175269 -0.001287 -0.166323
vn 0.0004 -0.0001 1.0000
vn 0.9147 -0.4040 -0.0013
vn 0.9285 0.0001 -0.3714
vn -0.0916 0.9957 0.0171
vn -0.0124 -0.9999 -0.0060
vn 0.9064 0.4224 -0.0053
vn -0.0000 -0.0000 1.0000
vn -0.0000 -0.0001 1.0000
vn 0.9189 -0.3945 -0.0011
vn 1.0000 -0.0000 -0.0000
vn 1.0000 0.0016 -0.0000
vn 0.9197 -0.3477 -0.1823
vn 0.0131 -0.9999 -0.0004
vn 0.9703 0.2420 -0.0009
vn -0.0047 0.0189 -0.9998
vn 0.0060 0.0910 -0.9958
vn 0.0093 -0.9634 -0.2680
vn 0.0021 1.0000 -0.0036
vn 1.0000 -0.0000 -0.0001
s 0
f 4//1 2//1 1//1
f 3//2 2//2 6//2
f 3//3 8//3 5//3
f 4//4 10//4 9//4
f 6//5 7//5 11//5
f 4//6 3//6 5//6
f 7//7 2//7 9//7
f 9//8 2//8 4//8
f 3//9 1//9 2//9
f 11//10 9//10 7//10
f 9//11 11//11 10//11
f 6//12 8//12 3//12
f 6//13 2//13 7//13
f 4//14 1//14 3//14
f 8//15 11//15 10//15
f 10//16 5//16 8//16
f 11//17 8//17 6//17
f 5//18 10//18 4//18
f 9//7 7//7 4//7
f 7//8 2//8 4//8
f 11//11 10//11 7//11
f 7//19 10//19 9//19
