# Blender 4.0.0
# www.blender.org
o decimated_mesh
v -0.192653 -0.002343 0.008211
v -0.192653 -0.001489 0.166298
v -0.192653 0.001685 0.008211
v 0.213238 -0.001958 0.008211
v 0.212986 -0.001258 0.166066
v -0.192653 0.004205 0.166428
v 0.212958 0.004686 0.166260
v 0.213789 0.005162 0.008211
v 0.214504 0.001325 0.162512
v 0.214707 0.001350 0.008211
vn 0.0006 -1.0000 0.0044
vn -0.0000 -0.0000 1.0000
vn 0.0006 -0.0325 0.9995
vn 0.0004 -0.0229 0.9997
vn 0.8643 -0.5030 0.0036
vn -0.0012 0.9999 -0.0159
vn 0.9217 -0.0082 0.3877
vn 0.9110 0.4123 0.0060
vn 0.0009 -1.0000 0.0054
vn -1.0000 -0.0000 -0.0000
vn 0.9140 -0.4058 0.0011
vn -0.0086 1.0000 0.0030
vn 0.9723 0.2339 0.0013
vn 0.0009 -1.0000 0.0044
vn 0.0006 -1.0000 0.0054
vn -0.0086 0.9998 -0.0159
vn -0.0012 1.0000 0.0030
s 0
f 2//1 4//1 5//1
f 4//2 3//2 1//2
f 7//3 2//3 5//3
f 2//4 7//4 6//4
f 4//5 9//5 5//5
f 7//6 3//6 6//6
f 9//7 7//7 5//7
f 9//8 8//8 7//8
f 2//9 1//9 4//9
f 3//2 4//2 8//2
f 8//2 4//2 10//2
f 6//10 3//10 2//10
f 3//10 1//10 2//10
f 4//11 10//11 9//11
f 7//12 8//12 3//12
f 9//13 10//13 8//13
f 3//2 10//2 8//2
f 3//2 1//2 10//2
f 10//2 1//2 4//2
f 4//14 5//14 1//14
f 5//15 2//15 1//15
f 6//16 8//16 3//16
f 7//17 8//17 6//17
