# Blender 4.0.0
# www.blender.org
o decimated_mesh
v 0.951566 -0.425098 0.013604
v 0.961112 -0.425096 0.008331
v 0.944981 0.502825 0.007288
v 0.945023 0.510585 0.016470
v 0.975770 -0.425097 0.020717
v 0.977719 -0.425097 0.007168
v 0.989546 -0.425097 0.020564
v 0.986030 0.510995 0.024807
v 0.986414 -0.425097 0.010228
v 0.945032 0.510693 0.010540
v 0.977714 0.503360 0.007447
v 0.985114 0.510267 0.011011
v 0.989231 0.503360 0.018779
v 0.989104 0.503360 0.024262
vn -0.0000 -1.0000 -0.0000
vn -0.4835 -0.0094 -0.8753
vn 0.1597 -0.0061 0.9871
vn 0.0007 0.9986 -0.0527
vn -0.0017 0.3820 -0.9242
vn 0.9279 0.3722 0.0213
vn -0.0698 -0.0023 -0.9976
vn 0.8942 0.4401 -0.0825
vn -0.2819 -0.0049 0.9594
vn -0.1992 -0.0021 0.9800
vn 0.0001 -1.0000 -0.0001
vn 0.0111 -0.0040 0.9999
vn 0.0104 0.9998 0.0183
vn 0.0152 0.4454 -0.8952
vn 0.9570 -0.0002 -0.2900
vn 0.8842 0.0016 -0.4671
vn 0.3320 0.0003 -0.9433
vn 0.4328 0.0014 -0.9015
vn -1.0000 0.0071 -0.0014
vn -0.9999 -0.0070 0.0106
vn 0.0049 0.0003 -1.0000
vn 0.9997 0.0004 0.0230
vn -0.0001 -1.0000 -0.0003
vn -0.0000 -1.0000 0.0001
vn -0.0137 0.9997 0.0183
vn 0.0112 0.9985 -0.0534
vn 0.1650 -0.0039 0.9863
vn 0.0111 -0.0045 0.9999
s 0
f 2//1 6//1 5//1
f 1//2 3//2 2//2
f 14//3 8//3 5//3
f 12//4 4//4 8//4
f 10//5 11//5 3//5
f 8//6 14//6 13//6
f 6//7 2//7 3//7
f 12//8 8//8 13//8
f 1//9 5//9 4//9
f 5//10 8//10 4//10
f 6//1 9//1 5//1
f 9//1 7//1 5//1
f 5//11 1//11 2//11
f 5//12 7//12 14//12
f 12//13 10//13 4//13
f 10//14 12//14 11//14
f 13//15 7//15 9//15
f 12//16 13//16 9//16
f 6//17 11//17 9//17
f 9//18 11//18 12//18
f 10//19 3//19 4//19
f 3//20 1//20 4//20
f 11//21 6//21 3//21
f 13//22 14//22 7//22
f 9//1 1//1 6//1
f 1//23 2//23 6//23
f 9//1 7//1 1//1
f 7//24 5//24 1//24
f 8//25 10//25 4//25
f 8//26 12//26 10//26
f 14//27 8//27 7//27
f 8//28 5//28 7//28
