# Blender 4.0.0
# www.blender.org
o Fridge_1_Mesh_78210b38_6_collision_22
v 0.810659 -0.525187 0.112960
v 0.810659 -0.484917 0.124919
v 0.810659 -0.525187 0.135602
v 0.800941 -0.525187 0.113065
v 0.810659 -0.484917 0.134576
v 0.790538 -0.525187 0.113214
v 0.780041 -0.525187 0.113375
v 0.492455 -0.484917 0.142983
v 0.796393 -0.484917 0.138450
v 0.796362 -0.515599 0.138446
v 0.796362 -0.525187 0.138442
v 0.624178 -0.525187 0.123909
v 0.492455 -0.525187 0.133309
v 0.492455 -0.484917 0.154000
v 0.790039 -0.484917 0.139335
v 0.791005 -0.525187 0.139190
v 0.492455 -0.525187 0.153996
v 0.492455 -0.515599 0.154000
v 0.499432 -0.484917 0.154052
v 0.780134 -0.494808 0.140702
v 0.780134 -0.484917 0.140702
v 0.780134 -0.515599 0.140694
v 0.780134 -0.525187 0.140690
v 0.493015 -0.525187 0.154000
v 0.499432 -0.515599 0.154048
v 0.520207 -0.515599 0.153980
v 0.561291 -0.484917 0.153847
v 0.769731 -0.484917 0.141804
v 0.769731 -0.505204 0.141800
v 0.770541 -0.525187 0.141708
v 0.499432 -0.525187 0.154044
v 0.500242 -0.525187 0.154044
v 0.551417 -0.515599 0.153875
v 0.572193 -0.484917 0.153811
v 0.758829 -0.484917 0.142609
v 0.759359 -0.505204 0.142569
v 0.769731 -0.515599 0.141796
v 0.769731 -0.525187 0.141792
v 0.509804 -0.525187 0.154012
v 0.551417 -0.525187 0.153871
v 0.561820 -0.515599 0.153839
v 0.572193 -0.505204 0.153807
v 0.582596 -0.484917 0.153759
v 0.748955 -0.484917 0.143333
v 0.748955 -0.505204 0.143329
v 0.759359 -0.515599 0.142564
v 0.759359 -0.525187 0.142560
v 0.561820 -0.525187 0.153835
v 0.572193 -0.515599 0.153803
v 0.582596 -0.505204 0.153755
v 0.592999 -0.494808 0.153421
v 0.592999 -0.484917 0.153421
v 0.672083 -0.484917 0.148819
v 0.672052 -0.525187 0.148819
v 0.748955 -0.515599 0.143325
v 0.748955 -0.525187 0.143321
v 0.572193 -0.525187 0.153799
v 0.573002 -0.525187 0.153795
v 0.582596 -0.515599 0.153751
v 0.592999 -0.515599 0.153413
v 0.593809 -0.525187 0.153364
v 0.604212 -0.525187 0.152761
v 0.613806 -0.505204 0.152210
v 0.613806 -0.484917 0.152214
v 0.671772 -0.484917 0.148839
v 0.665760 -0.494808 0.149189
v 0.666259 -0.525187 0.149157
v 0.582596 -0.525187 0.153747
v 0.592999 -0.525187 0.153409
v 0.644985 -0.484917 0.150400
v 0.654858 -0.484917 0.149825
vn 1.0000 -0.0000 -0.0000
vn -0.0000 -1.0000 -0.0000
vn -0.0000 -1.0000 0.0002
vn -0.0000 -1.0000 0.0001
vn -0.0000 -1.0000 -0.0008
vn -0.0000 -1.0000 -0.0001
vn -0.0000 -1.0000 -0.0032
vn -0.0000 -1.0000 0.0026
vn -0.0103 0.2847 -0.9586
vn -0.0137 0.2854 -0.9583
vn -0.0147 0.2858 -0.9582
vn -0.0538 0.3128 -0.9483
vn -0.0000 1.0000 -0.0000
vn -0.0000 1.0000 0.0001
vn -0.0000 1.0000 -0.0001
vn -0.0000 1.0000 0.0013
vn 0.1949 -0.0003 0.9808
vn 0.1948 -0.0004 0.9808
vn 0.2620 0.0246 0.9648
vn -0.0654 0.2444 -0.9675
vn -0.0692 0.2330 -0.9700
vn -1.0000 -0.0000 -0.0000
vn 0.1379 -0.0003 0.9904
vn 0.1380 -0.0003 0.9904
vn 0.1383 -0.0004 0.9904
vn -0.0075 -0.0000 1.0000
vn 0.1370 -0.0003 0.9906
vn 0.1368 -0.0000 0.9906
vn 0.1368 -0.0004 0.9906
vn 0.1367 -0.0004 0.9906
vn -0.0071 -0.0004 1.0000
vn -0.0069 -0.0004 1.0000
vn -0.0069 -0.0001 1.0000
vn 0.0033 -0.0001 1.0000
vn 0.1054 -0.0000 0.9944
vn 0.1052 -0.0002 0.9945
vn 0.1053 -0.0003 0.9944
vn 0.1055 -0.0004 0.9944
vn -0.0000 -0.0004 1.0000
vn 0.0034 -0.0002 1.0000
vn 0.0034 -0.0003 1.0000
vn 0.0736 -0.0001 0.9973
vn 0.0739 -0.0002 0.9973
vn 0.1041 -0.0004 0.9946
vn 0.0739 -0.0004 0.9973
vn 0.1037 -0.0004 0.9946
vn 0.0034 -0.0004 1.0000
vn 0.0035 -0.0004 1.0000
vn 0.0050 -0.0002 1.0000
vn 0.0731 -0.0001 0.9973
vn 0.0729 -0.0002 0.9973
vn 0.0729 -0.0004 0.9973
vn 0.0050 -0.0004 1.0000
vn 0.0323 -0.0002 0.9995
vn 0.0325 -0.0000 0.9995
vn 0.0712 -0.0001 0.9975
vn 0.0713 -0.0002 0.9975
vn 0.0713 -0.0004 0.9975
vn 0.0049 -0.0004 1.0000
vn 0.0325 -0.0004 0.9995
vn 0.0550 -0.0004 0.9985
vn 0.0579 -0.0003 0.9983
vn 0.0580 -0.0002 0.9983
vn 0.0579 -0.0000 0.9983
vn 0.0644 -0.0000 0.9979
vn 0.0583 -0.0001 0.9983
vn 0.0582 -0.0001 0.9983
vn 0.0546 -0.0004 0.9985
vn 0.0580 -0.0003 0.9983
vn 0.0581 -0.0001 0.9983
vn 0.0582 -0.0000 0.9983
s 0
f 1//1 2//1 5//1
f 1//1 5//1 3//1
f 1//2 3//2 11//2
f 1//2 11//2 16//2
f 1//2 16//2 23//2
f 1//2 23//2 30//2
f 1//2 30//2 38//2
f 1//2 38//2 47//2
f 1//2 47//2 56//2
f 1//2 56//2 54//2
f 1//2 54//2 67//2
f 1//2 67//2 62//2
f 1//2 62//2 61//2
f 1//3 61//3 69//3
f 1//2 69//2 68//2
f 1//2 68//2 58//2
f 1//4 58//4 57//4
f 1//2 57//2 48//2
f 1//2 48//2 40//2
f 1//2 40//2 39//2
f 1//2 39//2 32//2
f 1//4 32//4 31//4
f 1//2 31//2 24//2
f 1//5 24//5 17//5
f 1//2 17//2 13//2
f 1//2 13//2 12//2
f 1//6 12//6 7//6
f 1//7 7//7 6//7
f 1//8 6//8 4//8
f 1//9 4//9 2//9
f 2//10 4//10 6//10
f 2//11 6//11 7//11
f 2//12 7//12 8//12
f 2//13 8//13 14//13
f 2//14 14//14 19//14
f 2//13 19//13 27//13
f 2//13 27//13 34//13
f 2//13 34//13 43//13
f 2//13 43//13 52//13
f 2//13 52//13 64//13
f 2//13 64//13 70//13
f 2//15 70//15 71//15
f 2//13 71//13 65//13
f 2//16 65//16 53//16
f 2//13 53//13 44//13
f 2//13 44//13 35//13
f 2//13 35//13 28//13
f 2//13 28//13 21//13
f 2//13 21//13 15//13
f 2//13 15//13 9//13
f 2//13 9//13 5//13
f 3//17 9//17 10//17
f 3//18 10//18 11//18
f 3//19 5//19 9//19
f 7//20 12//20 8//20
f 8//21 12//21 13//21
f 8//22 13//22 17//22
f 8//22 17//22 18//22
f 8//22 18//22 14//22
f 9//23 15//23 16//23
f 9//24 16//24 10//24
f 10//25 16//25 11//25
f 14//26 18//26 19//26
f 15//27 20//27 16//27
f 15//28 21//28 20//28
f 16//29 20//29 22//29
f 16//30 22//30 23//30
f 17//31 24//31 18//31
f 18//32 24//32 25//32
f 18//33 25//33 19//33
f 19//34 25//34 26//34
f 19//34 26//34 27//34
f 20//35 21//35 28//35
f 20//36 28//36 29//36
f 20//37 29//37 30//37
f 20//38 30//38 22//38
f 22//38 30//38 23//38
f 24//32 31//32 25//32
f 25//39 31//39 32//39
f 25//34 32//34 26//34
f 26//40 33//40 34//40
f 26//34 34//34 27//34
f 26//41 32//41 33//41
f 28//42 35//42 36//42
f 28//43 36//43 29//43
f 29//44 37//44 30//44
f 29//45 36//45 46//45
f 29//45 46//45 37//45
f 30//46 37//46 38//46
f 32//41 39//41 33//41
f 33//47 39//47 40//47
f 33//48 40//48 48//48
f 33//48 48//48 41//48
f 33//48 41//48 42//48
f 33//40 42//40 34//40
f 34//49 42//49 50//49
f 34//49 50//49 43//49
f 35//50 44//50 36//50
f 36//51 44//51 45//51
f 36//52 45//52 55//52
f 36//52 55//52 46//52
f 37//45 46//45 47//45
f 37//45 47//45 38//45
f 41//48 48//48 57//48
f 41//48 57//48 49//48
f 41//48 49//48 42//48
f 42//53 49//53 59//53
f 42//53 59//53 50//53
f 43//54 50//54 51//54
f 43//55 51//55 52//55
f 44//56 53//56 54//56
f 44//57 54//57 45//57
f 45//58 54//58 55//58
f 46//52 55//52 56//52
f 46//52 56//52 47//52
f 49//59 57//59 58//59
f 49//53 58//53 59//53
f 50//60 59//60 60//60
f 50//60 60//60 51//60
f 51//61 60//61 61//61
f 51//62 61//62 62//62
f 51//62 62//62 63//62
f 51//63 63//63 64//63
f 51//64 64//64 52//64
f 53//65 65//65 54//65
f 54//66 65//66 66//66
f 54//67 66//67 67//67
f 54//58 56//58 55//58
f 58//53 68//53 59//53
f 59//60 68//60 69//60
f 59//60 69//60 60//60
f 60//68 69//68 61//68
f 62//69 67//69 63//69
f 63//63 67//63 64//63
f 64//70 67//70 70//70
f 65//71 71//71 66//71
f 66//71 71//71 70//71
f 66//70 70//70 67//70
