# Blender 4.0.0
# www.blender.org
o decimated_mesh
v 0.926248 -0.006551 0.110319
v 0.974716 -0.006551 0.079136
v 0.977212 0.510559 0.079126
v 0.986248 -0.006552 0.079156
v 0.926505 -0.006516 0.120675
v 0.926248 0.503419 0.110427
v 0.985439 0.510076 0.079202
v 0.926248 0.510255 0.113956
v 0.965662 0.510565 0.108679
v 0.983296 0.509091 0.086941
v 0.983495 -0.006551 0.087250
v 0.926260 0.509937 0.119446
v 0.941936 0.508736 0.117649
v 0.966472 0.502344 0.110611
v 0.966289 -0.006551 0.110418
vn -0.0083 1.0000 -0.0035
vn -0.0001 -1.0000 0.0001
vn 0.0584 0.9980 0.0226
vn 0.9467 0.0015 0.3220
vn 0.8028 -0.0005 0.5962
vn 0.3355 0.9184 0.2098
vn 0.3260 0.2466 0.9126
vn 0.2496 -0.0005 0.9683
vn 0.1140 0.0024 0.9935
vn -0.5208 0.3916 -0.7586
vn 0.7651 0.2178 0.6059
vn 0.1230 0.8572 0.5000
vn -0.5411 0.0002 -0.8410
vn -0.5236 0.0025 -0.8520
vn 1.0000 0.0012 -0.0022
vn 1.0000 -0.0000 -0.0014
vn -0.9997 -0.0004 0.0248
vn 0.0092 0.0001 -1.0000
vn 0.0017 -0.0000 -1.0000
vn -0.0001 0.9983 0.0579
vn -0.0000 -1.0000 -0.0000
vn -0.0000 -1.0000 0.0034
vn 0.9637 0.0005 0.2670
vn 0.8150 0.0007 0.5795
vn 0.2751 -0.0026 0.9614
vn -0.0010 -1.0000 -0.0003
vn 0.0022 -1.0000 0.0034
vn 1.0000 -0.0000 -0.0023
vn 1.0000 -0.0000 -0.0000
vn 0.2496 -0.0018 0.9683
vn 0.9637 0.0015 0.2671
vn 0.9467 0.0006 0.3220
vn 0.2756 -0.0005 0.9613
s 0
f 8//1 9//1 3//1
f 4//2 11//2 2//2
f 9//3 7//3 3//3
f 7//4 11//4 4//4
f 11//5 14//5 15//5
f 9//6 10//6 7//6
f 14//7 9//7 13//7
f 14//8 5//8 15//8
f 12//9 5//9 13//9
f 6//10 8//10 3//10
f 14//11 10//11 9//11
f 13//12 9//12 12//12
f 1//13 6//13 2//13
f 6//14 3//14 2//14
f 8//15 12//15 6//15
f 6//16 12//16 1//16
f 1//17 5//17 12//17
f 7//18 4//18 3//18
f 4//19 2//19 3//19
f 12//20 9//20 8//20
f 11//21 15//21 2//21
f 15//22 5//22 1//22
f 2//21 15//21 1//21
f 7//23 10//23 11//23
f 11//24 10//24 14//24
f 14//25 13//25 5//25
f 2//26 15//26 5//26
f 2//27 5//27 1//27
f 12//28 1//28 8//28
f 8//29 1//29 6//29
f 15//30 13//30 5//30
f 7//31 10//31 4//31
f 10//32 11//32 4//32
f 14//33 13//33 15//33
