# Blender 4.0.0
# www.blender.org
o decimated_mesh
v 0.975885 -0.536715 0.071354
v 0.986289 -0.532932 0.011036
v 0.975674 -0.537023 0.019149
v 0.987104 -0.532275 0.071322
v 0.990078 -0.525996 0.018780
v 0.975833 -0.532921 0.008184
v 0.989473 -0.484917 0.018780
v 0.987944 -0.484917 0.071350
v 0.986407 -0.484917 0.010240
v 0.976980 -0.484917 0.071356
v 0.975769 -0.484917 0.006898
vn 0.2997 -0.0165 -0.9539
vn 0.0939 -0.9329 -0.3476
vn 0.3631 -0.9317 0.0052
vn 0.9412 -0.0079 -0.3378
vn -0.0000 -1.0000 -0.0000
vn 0.9998 -0.0062 -0.0188
vn -0.9999 -0.0018 -0.0152
vn 0.9998 -0.0211 -0.0039
vn 0.2630 -0.0255 -0.9645
vn 0.9982 0.0147 0.0583
vn 0.9994 -0.0177 0.0291
vn 0.8807 -0.4736 -0.0067
vn 0.3680 -0.9298 0.0040
vn 0.8935 0.0132 -0.4489
vn 0.0001 -1.0000 -0.0000
vn 0.0005 -0.0006 1.0000
vn 0.0029 -0.0001 1.0000
vn 1.0000 -0.0028 -0.0040
vn 0.3623 -0.9321 0.0040
vn 0.9996 -0.0211 -0.0188
vn 0.3680 -0.9298 0.0052
vn 0.0031 -0.0006 1.0000
vn 0.0005 -0.0000 1.0000
vn 0.9015 -0.0094 -0.4327
vn 0.9984 -0.0177 0.0544
vn 0.9995 0.0147 0.0291
vn 0.9411 0.0139 -0.3378
s 0
f 2//1 11//1 9//1
f 3//2 6//2 2//2
f 4//3 3//3 2//3
f 7//4 2//4 9//4
f 11//5 7//5 10//5
f 10//6 3//6 11//6
f 11//7 6//7 3//7
f 3//8 10//8 1//8
f 2//9 6//9 11//9
f 5//10 7//10 4//10
f 7//11 8//11 4//11
f 2//12 5//12 4//12
f 4//13 1//13 3//13
f 7//14 5//14 2//14
f 8//5 10//5 7//5
f 7//15 11//15 9//15
f 8//16 10//16 4//16
f 10//17 1//17 4//17
f 1//18 3//18 11//18
f 2//19 1//19 3//19
f 10//20 1//20 11//20
f 2//21 4//21 1//21
f 4//22 8//22 1//22
f 8//23 10//23 1//23
f 10//5 11//5 8//5
f 8//15 11//15 9//15
f 9//24 5//24 2//24
f 5//25 8//25 4//25
f 5//26 7//26 8//26
f 7//5 8//5 9//5
f 7//27 5//27 9//27
