# Blender 4.0.0
# www.blender.org
o decimated_mesh
v 0.001513 0.509781 0.022023
v -0.001213 0.503343 0.008383
v 0.002928 0.510543 0.000649
v 0.003849 -0.422439 -0.000995
v -0.001067 -0.422438 0.016031
v -0.001334 -0.422438 0.008381
v 0.011515 -0.422438 0.016031
v 0.009955 -0.006541 0.021373
v 0.052253 0.509813 -0.000542
v 0.028061 -0.422438 -0.001556
v 0.052164 0.510644 0.007768
v 0.037557 -0.422441 0.003539
vn 0.4727 -0.0113 -0.8811
vn -0.9994 0.0001 0.0349
vn -0.0232 0.0017 -0.9997
vn 0.4325 -0.0100 0.9016
vn -0.8816 0.0001 -0.4720
vn -0.0000 -0.0128 0.9999
vn -0.9807 0.0015 0.1953
vn -0.0241 0.0017 -0.9997
vn -0.0000 -1.0000 -0.0000
vn -0.0002 -1.0000 -0.0002
vn 0.4235 -0.0107 0.9058
vn -0.8752 -0.0000 -0.4837
vn -0.2610 -0.0055 0.9653
vn 0.2709 0.0032 0.9626
vn 0.9998 -0.0157 0.0122
vn -0.8849 0.4638 -0.0421
vn -0.0071 0.9994 0.0351
vn 0.0123 0.9950 -0.0993
vn -0.0001 -1.0000 -0.0000
vn -0.0000 -1.0000 0.0002
vn -0.0000 -1.0000 -0.0007
vn 0.4325 -0.0109 0.9016
vn 0.4169 -0.0101 0.9089
s 0
f 10//1 9//1 12//1
f 5//2 2//2 6//2
f 9//3 10//3 4//3
f 8//4 7//4 12//4
f 3//5 6//5 2//5
f 5//6 7//6 8//6
f 5//7 1//7 2//7
f 4//8 3//8 9//8
f 4//9 10//9 7//9
f 12//10 7//10 10//10
f 7//9 5//9 6//9
f 6//9 4//9 7//9
f 12//11 11//11 8//11
f 3//12 4//12 6//12
f 1//13 5//13 8//13
f 1//14 8//14 11//14
f 12//15 9//15 11//15
f 1//16 3//16 2//16
f 1//17 11//17 3//17
f 11//18 9//18 3//18
f 4//19 12//19 6//19
f 12//19 5//19 6//19
f 12//20 7//20 5//20
f 10//21 12//21 4//21
f 11//22 7//22 12//22
f 11//23 8//23 7//23
