# Blender 4.0.0
# www.blender.org
o decimated_mesh
v 0.492452 -0.486598 0.001721
v 0.975587 -0.484917 0.007212
v 0.975587 -0.525998 0.006638
v 0.975588 -0.535221 0.011410
v 0.492455 -0.525469 0.071356
v 0.975587 -0.484917 0.020638
v 0.492461 -0.534560 0.003427
v 0.492455 -0.536832 0.071356
v 0.975587 -0.519478 0.071356
v 0.975586 -0.536620 0.071351
vn -0.0221 0.8730 0.4873
vn 0.0140 -0.4595 -0.8881
vn 0.0004 -0.9994 -0.0334
vn -0.0000 -0.0003 1.0000
vn 1.0000 0.0001 -0.0002
vn 1.0000 -0.0000 0.0001
vn 1.0000 0.0002 0.0001
vn -0.0035 1.0000 -0.0000
vn -0.0102 0.8263 0.5631
vn 0.0113 0.0140 -0.9998
vn 0.0073 -0.0355 -0.9993
vn -0.0010 -0.9997 -0.0233
vn -0.0000 -0.0000 1.0000
vn 1.0000 -0.0000 -0.0000
vn 1.0000 -0.0001 -0.0000
vn -0.0008 -0.9994 -0.0334
vn 0.0004 -0.9997 -0.0233
vn 1.0000 -0.0000 -0.0002
s 0
f 5//1 6//1 1//1
f 4//2 7//2 3//2
f 10//3 8//3 7//3
f 10//4 9//4 5//4
f 4//5 3//5 6//5
f 7//6 5//6 8//6
f 5//7 7//7 1//7
f 1//8 6//8 2//8
f 5//9 9//9 6//9
f 2//10 3//10 1//10
f 3//11 7//11 1//11
f 7//12 4//12 10//12
f 5//13 8//13 10//13
f 6//14 9//14 4//14
f 4//15 9//15 10//15
f 3//14 2//14 6//14
f 7//7 1//7 8//7
f 8//14 1//14 5//14
f 4//16 8//16 7//16
f 4//17 10//17 8//17
f 10//4 9//4 8//4
f 9//13 5//13 8//13
f 4//14 2//14 6//14
f 4//18 3//18 2//18
