# Blender 4.0.0
# www.blender.org
o decimated_mesh
v 0.003625 -0.533120 -0.000150
v 0.010688 -0.536778 0.008385
v 0.020351 -0.536728 0.066743
v -0.001384 -0.526001 0.008385
v 0.019804 -0.534496 0.000508
v 0.001848 -0.533942 0.066638
v 0.000430 -0.483842 0.001211
v 0.012454 -0.483834 0.066689
v 0.020071 -0.483793 -0.002072
v 0.000360 -0.483832 0.066628
vn -0.1649 0.0166 -0.9862
vn 0.9996 0.0297 0.0011
vn -0.4379 -0.8987 -0.0227
vn -0.8771 -0.0436 -0.4783
vn -0.0655 -0.9357 -0.3468
vn 0.9831 0.1469 0.1090
vn -0.8335 -0.5517 -0.0290
vn -0.1490 -0.9885 0.0255
vn 0.0363 -0.0510 -0.9980
vn 0.9966 -0.0536 -0.0626
vn -0.0057 0.0002 1.0000
vn -0.0051 0.0001 1.0000
vn 0.9999 -0.0057 -0.0085
vn -0.0026 1.0000 -0.0002
vn 0.0002 1.0000 0.0006
vn 0.2144 -0.9761 -0.0347
vn -0.0051 0.0003 1.0000
vn -0.0057 -0.0000 1.0000
vn -0.9982 -0.0296 0.0514
vn -0.9991 0.0428 -0.0011
s 0
f 9//1 1//1 7//1
f 7//2 10//2 6//2
f 6//3 1//3 2//3
f 7//4 1//4 4//4
f 5//5 2//5 1//5
f 3//6 9//6 8//6
f 1//7 6//7 4//7
f 2//8 3//8 6//8
f 9//9 5//9 1//9
f 7//10 6//10 4//10
f 3//11 8//11 6//11
f 8//12 10//12 6//12
f 9//13 3//13 5//13
f 7//14 10//14 9//14
f 9//15 10//15 8//15
f 2//16 5//16 3//16
f 8//17 10//17 3//17
f 10//18 6//18 3//18
f 10//19 4//19 6//19
f 10//20 7//20 4//20
