# Blender 4.0.0
# www.blender.org
o Fridge_1_Mesh_78210b38_6_collision_3
v 0.945032 0.510810 0.015366
v 0.945032 0.503420 0.017116
v 0.945032 0.510810 0.010537
v 0.492256 0.509440 0.006387
v 0.894507 0.510641 0.015173
v 0.904922 0.510675 0.015213
v 0.832104 0.503420 0.016288
v 0.894507 0.493019 0.016683
v 0.904922 0.493019 0.016759
v 0.945032 0.493019 0.017047
v 0.873721 0.510567 0.015095
v 0.821733 0.510378 0.014899
v 0.811318 0.510338 0.014860
v 0.780116 0.510210 0.014740
v 0.738544 0.510021 0.014572
v 0.696971 0.509818 0.014405
v 0.676185 0.509710 0.014322
v 0.644984 0.509548 0.014198
v 0.603411 0.509319 0.014032
v 0.592996 0.509258 0.013990
v 0.582625 0.509190 0.013947
v 0.561795 0.509055 0.013857
v 0.541009 0.508920 0.013766
v 0.502450 0.508650 0.013599
v 0.945032 0.503420 0.007485
v 0.619455 0.508623 0.003179
v 0.561795 0.509008 0.002940
v 0.551424 0.509076 0.002895
v 0.530638 0.509211 0.002805
v 0.509807 0.509339 0.002715
v 0.499436 0.509400 0.002670
v 0.492256 0.509440 0.002642
v 0.492256 0.509393 0.008489
v 0.811318 0.503420 0.016135
v 0.945032 0.482618 0.016945
v 0.832104 0.493019 0.016216
v 0.852934 0.510493 0.015015
v 0.492256 0.505296 0.011808
v 0.492256 0.503420 0.013176
v 0.496156 0.503420 0.013427
v 0.501342 0.503420 0.013608
v 0.582625 0.503420 0.014297
v 0.592996 0.503420 0.014384
v 0.603411 0.503420 0.014469
v 0.624198 0.503420 0.014638
v 0.676185 0.503420 0.015060
v 0.728129 0.503420 0.015479
v 0.759330 0.503420 0.015729
v 0.780116 0.503420 0.015896
v 0.790532 0.503420 0.015978
v 0.945032 0.463328 0.007354
v 0.662136 0.478129 0.003170
v 0.499436 0.503420 0.002156
v 0.492256 0.503420 0.002099
v 0.945032 0.461829 0.016710
v 0.811318 0.493019 0.016057
v 0.492256 0.497764 0.012950
v 0.502450 0.496798 0.013598
v 0.696971 0.493019 0.015146
v 0.707387 0.493019 0.015230
v 0.738544 0.493019 0.015479
v 0.769745 0.493019 0.015729
v 0.780116 0.493019 0.015812
v 0.800947 0.493019 0.015976
v 0.945032 0.461829 0.007360
v 0.661826 0.472230 0.003173
v 0.644984 0.472230 0.003039
v 0.613827 0.472230 0.002790
v 0.582625 0.472230 0.002542
v 0.541009 0.472230 0.002211
v 0.530638 0.472230 0.002129
v 0.492256 0.472230 0.001825
v 0.492256 0.479371 0.001862
v 0.492256 0.482618 0.001880
v 0.945032 0.451483 0.016177
v 0.676185 0.493019 0.014977
v 0.514727 0.487666 0.013583
v 0.520222 0.486303 0.013605
v 0.535646 0.477367 0.013581
v 0.567069 0.467040 0.013575
v 0.492256 0.493079 0.012739
v 0.492256 0.486013 0.012216
v 0.510693 0.493208 0.013620
v 0.520222 0.493019 0.013697
v 0.561795 0.493019 0.014039
v 0.624198 0.493019 0.014551
v 0.634613 0.493019 0.014637
v 0.945032 0.452927 0.007829
v 0.660718 0.467027 0.003182
v 0.492256 0.470347 0.002031
v 0.945032 0.441858 0.014972
v 0.492256 0.475477 0.011288
v 0.492256 0.472230 0.010957
v 0.492256 0.468059 0.008127
v 0.492256 0.466176 0.006788
v 0.945032 0.442479 0.010291
v 0.492256 0.466176 0.002516
v 0.530638 0.466352 0.002667
v 0.572210 0.466554 0.002832
v 0.603411 0.466716 0.002955
v 0.644984 0.466939 0.003120
v 0.945032 0.441858 0.010706
vn 1.0000 -0.0000 -0.0000
vn -0.0030 1.0000 -0.0000
vn -0.0034 0.9998 0.0197
vn -0.0052 0.5465 0.8374
vn -0.0045 0.2304 0.9731
vn -0.0073 -0.0060 1.0000
vn -0.0072 -0.0066 1.0000
vn -0.0045 0.2302 0.9731
vn -0.0045 0.2298 0.9732
vn -0.0047 0.2273 0.9738
vn -0.0049 0.2212 0.9752
vn -0.0050 0.2194 0.9756
vn -0.0050 0.2187 0.9758
vn -0.0051 0.2155 0.9765
vn -0.0052 0.2115 0.9774
vn -0.0054 0.1991 0.9800
vn -0.0055 0.1941 0.9810
vn -0.0055 0.1903 0.9817
vn -0.0056 0.1896 0.9818
vn -0.0073 0.0519 0.9986
vn 0.0183 0.3816 -0.9241
vn 0.0078 0.8093 -0.5874
vn 0.0078 0.8100 -0.5864
vn 0.0078 0.8105 -0.5856
vn 0.0075 0.8200 -0.5723
vn 0.0073 0.8281 -0.5605
vn 0.0069 0.8408 -0.5413
vn -1.0000 -0.0000 -0.0000
vn -0.0035 0.9997 0.0225
vn -0.0048 0.3840 0.9233
vn -0.0037 0.9993 0.0363
vn -0.0073 -0.0061 1.0000
vn -0.0073 0.0509 0.9987
vn -0.0073 -0.0104 0.9999
vn -0.0075 -0.0072 0.9999
vn -0.0075 -0.0112 0.9999
vn -0.0072 -0.0098 0.9999
vn -0.0037 0.9993 0.0364
vn -0.0051 0.5629 0.8265
vn -0.0038 0.9990 0.0439
vn -0.0041 0.9984 0.0568
vn -0.0044 0.9975 0.0709
vn -0.0049 0.9954 0.0960
vn -0.0053 0.9937 0.1118
vn -0.0056 0.9923 0.1240
vn -0.0055 0.8773 0.4799
vn -0.0060 0.9910 0.1336
vn -0.0063 0.9901 0.1405
vn -0.0071 0.9881 0.1538
vn -0.0073 0.9976 0.0684
vn -0.0071 0.9880 0.1540
vn -0.0076 0.9873 0.1586
vn -0.3251 0.5953 0.7349
vn -0.3184 0.5585 0.7660
vn -0.0643 0.0445 0.9969
vn -0.0349 0.0091 0.9993
vn -0.0085 0.0035 1.0000
vn -0.0084 0.0050 1.0000
vn -0.0082 0.0082 0.9999
vn -0.0081 0.0092 0.9999
vn -0.0081 0.0096 0.9999
vn -0.0081 0.0113 0.9999
vn -0.0080 0.0138 0.9999
vn -0.0080 0.0146 0.9999
vn -0.0079 0.0194 0.9998
vn -0.0076 0.0383 0.9992
vn 0.0150 0.0032 -0.9999
vn 0.0135 0.0192 -0.9997
vn 0.0080 0.0115 -0.9999
vn 0.0079 0.0140 -0.9999
vn 0.0048 0.0895 -0.9960
vn 0.0052 0.1465 -0.9892
vn 0.0055 0.2099 -0.9777
vn 0.0076 0.6821 -0.7312
vn 0.0074 0.7096 -0.7045
vn 0.0045 0.0899 -0.9959
vn -0.0076 -0.0073 0.9999
vn -0.0075 -0.0113 0.9999
vn -0.0076 -0.0076 0.9999
vn -0.0076 -0.0118 0.9999
vn -0.0672 -0.0398 0.9969
vn -0.0643 -0.0354 0.9973
vn -0.0349 -0.0074 0.9994
vn -0.0085 -0.0030 1.0000
vn -0.0084 -0.0042 1.0000
vn -0.0082 -0.0067 0.9999
vn -0.0081 -0.0075 0.9999
vn -0.0081 -0.0078 0.9999
vn -0.0081 -0.0080 0.9999
vn -0.0081 -0.0079 0.9999
vn -0.0080 -0.0080 0.9999
vn -0.0079 -0.0081 0.9999
vn -0.0078 -0.0079 0.9999
vn 0.0146 -0.0040 -0.9999
vn 0.0147 -0.0013 -0.9999
vn 0.0080 -0.0009 -1.0000
vn 0.0080 -0.0008 -1.0000
vn 0.0079 -0.0006 -1.0000
vn 0.0079 -0.0003 -1.0000
vn 0.0079 0.0001 -1.0000
vn 0.0077 0.0052 -1.0000
vn 0.0077 0.0055 -1.0000
vn 0.0079 0.0105 -0.9999
vn 0.0079 0.0108 -0.9999
vn -0.0078 -0.0125 0.9999
vn -0.0079 -0.0130 0.9999
vn -0.0079 -0.0132 0.9999
vn -0.0080 -0.0136 0.9999
vn -0.0080 -0.0137 0.9999
vn -0.0080 -0.0139 0.9999
vn -0.0081 -0.0146 0.9999
vn -0.0083 -0.0169 0.9998
vn -0.0083 -0.0170 0.9998
vn -0.0087 -0.0269 0.9996
vn -0.0090 -0.0514 0.9986
vn -0.0676 -0.0449 0.9967
vn -0.0571 -0.0736 0.9957
vn -0.0550 -0.0756 0.9956
vn -0.0083 -0.0128 0.9999
vn -0.0083 -0.0127 0.9999
vn -0.0082 -0.0126 0.9999
vn -0.0082 -0.0120 0.9999
vn -0.0082 -0.0116 0.9999
vn -0.0082 -0.0110 0.9999
vn -0.0081 -0.0093 0.9999
vn 0.0137 -0.0526 -0.9985
vn 0.0146 -0.0048 -0.9999
vn 0.0080 -0.0034 -1.0000
vn 0.0080 -0.0035 -1.0000
vn 0.0080 -0.0036 -1.0000
vn 0.0079 -0.0038 -1.0000
vn 0.0079 -0.0041 -1.0000
vn 0.0079 -0.0046 -1.0000
vn 0.0046 -0.1090 -0.9940
vn -0.0119 -0.1242 0.9922
vn -0.0082 -0.0138 0.9999
vn -0.0082 -0.0134 0.9999
vn -0.0082 -0.0132 0.9999
vn -0.0082 -0.0128 0.9999
vn -0.0541 -0.0876 0.9947
vn -0.0483 -0.0982 0.9940
vn -0.0481 -0.1013 0.9937
vn -0.0440 -0.1344 0.9900
vn -0.0678 -0.5602 0.8256
vn -0.0671 -0.5780 0.8133
vn -0.0520 -0.7429 0.6674
vn 0.0047 -0.2294 -0.9733
vn 0.0049 -0.2245 -0.9745
vn 0.0049 -0.2222 -0.9750
vn 0.0050 -0.2212 -0.9752
vn 0.0050 -0.2199 -0.9755
vn 0.0051 -0.2184 -0.9758
vn 0.0046 -0.1115 -0.9938
vn 0.0045 -0.1150 -0.9934
vn 0.0044 -0.1155 -0.9933
vn 0.0045 -0.1136 -0.9935
vn 0.0045 -0.1148 -0.9934
vn -0.0536 -0.9986 -0.0000
vn -0.0148 -0.5553 -0.8315
s 0
f 1//1 2//1 10//1
f 1//1 10//1 35//1
f 1//1 35//1 55//1
f 1//1 55//1 75//1
f 1//1 75//1 91//1
f 1//1 91//1 102//1
f 1//1 102//1 96//1
f 1//1 96//1 88//1
f 1//1 88//1 65//1
f 1//1 65//1 51//1
f 1//1 51//1 25//1
f 1//1 25//1 3//1
f 1//2 3//2 32//2
f 1//2 32//2 4//2
f 1//3 4//3 5//3
f 1//4 5//4 6//4
f 1//5 6//5 2//5
f 2//6 7//6 8//6
f 2//6 8//6 9//6
f 2//7 9//7 10//7
f 2//5 6//5 11//5
f 2//8 11//8 12//8
f 2//9 12//9 13//9
f 2//10 13//10 14//10
f 2//11 14//11 15//11
f 2//12 15//12 16//12
f 2//12 16//12 17//12
f 2//13 17//13 18//13
f 2//14 18//14 19//14
f 2//15 19//15 20//15
f 2//16 20//16 21//16
f 2//17 21//17 22//17
f 2//18 22//18 23//18
f 2//19 23//19 24//19
f 2//20 24//20 7//20
f 3//21 25//21 26//21
f 3//22 26//22 27//22
f 3//23 27//23 28//23
f 3//24 28//24 29//24
f 3//25 29//25 30//25
f 3//26 30//26 31//26
f 3//27 31//27 32//27
f 4//28 32//28 54//28
f 4//28 54//28 74//28
f 4//28 74//28 73//28
f 4//28 73//28 72//28
f 4//28 72//28 90//28
f 4//28 90//28 97//28
f 4//28 97//28 95//28
f 4//28 95//28 94//28
f 4//28 94//28 93//28
f 4//28 93//28 92//28
f 4//28 92//28 82//28
f 4//28 82//28 81//28
f 4//28 81//28 57//28
f 4//28 57//28 39//28
f 4//28 39//28 38//28
f 4//28 38//28 33//28
f 4//29 33//29 5//29
f 5//30 11//30 6//30
f 5//31 33//31 11//31
f 7//32 34//32 8//32
f 7//33 24//33 34//33
f 8//34 35//34 9//34
f 8//35 34//35 36//35
f 8//36 36//36 35//36
f 9//37 35//37 10//37
f 11//38 33//38 37//38
f 11//39 37//39 12//39
f 12//40 37//40 33//40
f 12//41 33//41 13//41
f 13//42 33//42 14//42
f 14//43 33//43 15//43
f 15//44 33//44 16//44
f 16//45 33//45 18//45
f 16//46 18//46 17//46
f 18//47 33//47 19//47
f 19//48 33//48 20//48
f 20//49 33//49 22//49
f 20//50 22//50 21//50
f 22//51 33//51 23//51
f 23//52 33//52 24//52
f 24//53 33//53 38//53
f 24//54 38//54 39//54
f 24//55 39//55 40//55
f 24//56 40//56 41//56
f 24//57 41//57 42//57
f 24//58 42//58 43//58
f 24//59 43//59 44//59
f 24//60 44//60 45//60
f 24//61 45//61 46//61
f 24//62 46//62 47//62
f 24//63 47//63 48//63
f 24//64 48//64 49//64
f 24//65 49//65 50//65
f 24//66 50//66 34//66
f 25//67 51//67 52//67
f 25//68 52//68 26//68
f 26//69 52//69 53//69
f 26//70 53//70 54//70
f 26//71 54//71 31//71
f 26//72 31//72 30//72
f 26//73 30//73 29//73
f 26//74 29//74 28//74
f 26//75 28//75 27//75
f 31//76 54//76 32//76
f 34//77 50//77 36//77
f 35//78 36//78 55//78
f 36//79 50//79 56//79
f 36//80 56//80 55//80
f 39//81 57//81 58//81
f 39//82 58//82 40//82
f 40//83 58//83 41//83
f 41//84 58//84 42//84
f 42//85 58//85 43//85
f 43//86 58//86 44//86
f 44//87 58//87 45//87
f 45//88 58//88 46//88
f 46//89 58//89 59//89
f 46//90 59//90 47//90
f 47//91 60//91 61//91
f 47//91 61//91 62//91
f 47//91 62//91 48//91
f 47//91 59//91 60//91
f 48//91 62//91 49//91
f 49//92 62//92 63//92
f 49//92 63//92 64//92
f 49//92 64//92 50//92
f 50//93 64//93 56//93
f 51//94 65//94 66//94
f 51//95 66//95 52//95
f 52//96 66//96 67//96
f 52//96 67//96 68//96
f 52//97 68//97 69//97
f 52//98 69//98 70//98
f 52//99 70//99 71//99
f 52//100 71//100 72//100
f 52//101 72//101 73//101
f 52//102 73//102 74//102
f 52//103 74//103 54//103
f 52//104 54//104 53//104
f 55//105 56//105 64//105
f 55//106 64//106 63//106
f 55//107 63//107 62//107
f 55//108 62//108 61//108
f 55//109 61//109 60//109
f 55//110 60//110 59//110
f 55//111 59//111 76//111
f 55//111 76//111 77//111
f 55//112 77//112 78//112
f 55//113 78//113 79//113
f 55//114 79//114 80//114
f 55//115 80//115 75//115
f 57//116 81//116 58//116
f 58//117 81//117 82//117
f 58//118 82//118 77//118
f 58//119 77//119 83//119
f 58//120 83//120 84//120
f 58//121 84//121 85//121
f 58//122 85//122 86//122
f 58//123 86//123 87//123
f 58//124 87//124 76//124
f 58//125 76//125 59//125
f 65//126 88//126 89//126
f 65//127 89//127 66//127
f 66//128 89//128 67//128
f 67//129 89//129 68//129
f 68//130 89//130 69//130
f 69//131 89//131 70//131
f 70//132 89//132 71//132
f 71//133 89//133 72//133
f 72//134 89//134 90//134
f 75//135 80//135 91//135
f 76//136 87//136 77//136
f 77//137 87//137 86//137
f 77//138 86//138 85//138
f 77//139 85//139 84//139
f 77//119 84//119 83//119
f 77//140 82//140 92//140
f 77//141 92//141 79//141
f 77//113 79//113 78//113
f 79//142 92//142 93//142
f 79//143 93//143 80//143
f 80//144 93//144 94//144
f 80//145 94//145 95//145
f 80//146 95//146 91//146
f 88//147 96//147 97//147
f 88//148 97//148 98//148
f 88//149 98//149 99//149
f 88//150 99//150 100//150
f 88//151 100//151 101//151
f 88//152 101//152 89//152
f 89//153 101//153 90//153
f 90//154 99//154 98//154
f 90//155 98//155 97//155
f 90//156 101//156 100//156
f 90//157 100//157 99//157
f 91//158 95//158 97//158
f 91//158 97//158 102//158
f 96//159 102//159 97//159
