# Blender 4.0.0
# www.blender.org
o decimated_mesh
v 0.029653 0.509476 0.094867
v 0.014717 0.509565 0.094860
v 0.001906 0.509932 0.073950
v 0.008211 0.510420 0.021372
v 0.001217 0.509775 0.021374
v 0.001541 -0.006551 0.073667
v 0.032117 -0.006551 0.094867
v -0.000919 -0.006551 0.021373
v 0.014196 -0.006551 0.094867
v 0.009952 -0.006551 0.021373
vn 0.9574 0.0046 -0.2888
vn 0.0087 0.9999 0.0103
vn -0.8527 0.0009 0.5224
vn 0.0003 -0.0000 1.0000
vn -0.9989 0.0007 0.0470
vn 0.9600 0.0032 -0.2800
vn -0.0919 0.9958 -0.0018
vn 0.0060 0.9999 0.0139
vn -0.8586 0.0003 0.5126
vn -0.0005 -0.0000 1.0000
vn -0.0000 -0.0000 1.0000
vn -0.9999 0.0041 0.0131
vn -0.0000 -1.0000 -0.0000
vn 0.9600 0.0046 -0.2800
vn 0.9574 0.0032 -0.2888
s 0
f 10//1 1//1 7//1
f 1//2 4//2 3//2
f 3//3 9//3 2//3
f 4//4 5//4 10//4
f 3//5 8//5 6//5
f 10//6 4//6 1//6
f 5//7 3//7 4//7
f 3//8 2//8 1//8
f 3//9 6//9 9//9
f 2//10 9//10 1//10
f 9//11 7//11 1//11
f 10//11 5//11 8//11
f 3//12 5//12 8//12
f 8//13 10//13 6//13
f 10//13 7//13 6//13
f 7//13 9//13 6//13
f 7//14 4//14 1//14
f 7//15 10//15 4//15
f 10//11 4//11 8//11
f 8//4 4//4 5//4
