# Blender 4.0.0
# www.blender.org
o decimated_mesh
v 0.013423 0.086314 0.040410
v 0.021054 0.117425 0.036467
v 0.013423 0.086314 0.032957
v 0.022344 0.086314 0.036878
v 0.024644 0.086314 0.025564
v 0.024645 0.140342 0.021757
v 0.024644 0.086314 0.034841
v 0.013423 0.139945 0.030282
v 0.020763 0.133158 0.034997
v 0.013423 0.141373 0.030827
v 0.019851 0.140442 0.034671
v 0.013423 0.142177 0.031667
v 0.013421 0.139649 0.037204
v 0.013433 0.140933 0.036767
v 0.019261 0.141990 0.033626
v 0.024645 0.140374 0.030808
v 0.024644 0.142049 0.023505
v 0.013423 0.142584 0.033018
v 0.020070 0.142457 0.031723
v 0.024644 0.142106 0.029001
v 0.024646 0.142631 0.026544
v 0.013423 0.142396 0.035068
vn 1.0000 -0.0098 -0.0001
vn -0.1950 0.9392 -0.2828
vn -0.0000 1.0000 -0.0001
vn 0.2696 0.9023 0.3364
vn 0.1959 0.9589 0.2053
vn -0.4465 0.6401 -0.6252
vn 0.1378 0.9467 0.2913
vn 0.3553 0.0912 0.9303
vn 0.3168 0.3030 0.8988
vn 0.4935 0.6282 0.6015
vn 0.4133 0.0923 0.9059
vn 0.6243 0.1128 0.7730
vn -0.5493 -0.0587 -0.8336
vn -0.1119 0.9760 -0.1868
vn -1.0000 -0.0000 -0.0003
vn -1.0000 -0.0000 -0.0000
vn 1.0000 -0.0000 -0.0000
vn 1.0000 0.0046 -0.0023
vn 1.0000 0.0001 -0.0000
vn 1.0000 -0.0001 -0.0000
vn -0.0000 1.0000 -0.0000
vn -0.0000 -1.0000 -0.0000
vn 0.2881 0.6088 0.7392
vn -0.4435 0.6473 -0.6199
vn 0.3679 0.0275 0.9294
vn 0.2616 0.0579 0.9634
vn 0.9604 0.0435 0.2751
vn 0.5108 0.6062 0.6097
vn 1.0000 -0.0000 0.0001
vn 1.0000 0.0020 -0.0010
vn 1.0000 0.0019 0.0013
vn 1.0000 -0.0003 0.0001
vn 0.6621 0.0524 0.7476
vn 0.6840 0.0543 0.7274
vn -0.6035 -0.0397 -0.7963
vn -0.5855 0.2893 -0.7573
vn 0.2091 0.7416 0.6374
vn 0.0308 0.9977 0.0607
vn 0.0368 0.9951 0.0914
vn -0.0002 1.0000 -0.0003
vn 0.6626 0.0374 0.7481
vn 0.7388 0.0501 0.6721
vn 0.6564 0.0822 0.7500
vn 0.9996 -0.0168 -0.0208
vn 1.0000 -0.0007 -0.0001
vn 1.0000 -0.0004 0.0001
vn 1.0000 -0.0002 0.0002
vn 1.0000 -0.0001 0.0003
vn 1.0000 -0.0000 0.0003
vn 0.5008 0.6252 0.5986
vn 0.5038 0.6069 0.6147
vn 1.0000 -0.0000 -0.0001
s 0
f 13//1 8//1 14//1
f 17//2 12//2 18//2
f 7//3 3//3 4//3
f 15//4 20//4 19//4
f 19//5 20//5 21//5
f 10//6 17//6 6//6
f 22//7 15//7 19//7
f 2//8 11//8 13//8
f 14//9 13//9 11//9
f 16//10 20//10 11//10
f 11//11 2//11 9//11
f 16//12 11//12 9//12
f 6//13 5//13 3//13
f 17//14 18//14 21//14
f 8//15 3//15 13//15
f 3//16 1//16 13//16
f 22//17 8//17 18//17
f 14//18 8//18 22//18
f 12//19 18//19 10//19
f 10//20 18//20 8//20
f 4//21 3//21 1//21
f 3//22 5//22 7//22
f 11//23 15//23 14//23
f 10//24 12//24 17//24
f 4//25 2//25 1//25
f 1//26 2//26 13//26
f 4//27 9//27 2//27
f 20//28 15//28 11//28
f 16//17 7//17 5//17
f 6//29 16//29 5//29
f 17//30 21//30 6//30
f 21//31 20//31 16//31
f 16//32 6//32 21//32
f 9//33 4//33 7//33
f 9//34 7//34 16//34
f 3//35 8//35 6//35
f 8//36 10//36 6//36
f 15//37 22//37 14//37
f 21//38 18//38 19//38
f 18//39 22//39 19//39
f 3//21 1//21 7//21
f 7//40 1//40 4//40
f 7//41 2//41 4//41
f 7//42 16//42 2//42
f 16//43 9//43 2//43
f 14//44 13//44 22//44
f 22//45 13//45 18//45
f 18//46 13//46 12//46
f 12//47 13//47 10//47
f 10//48 13//48 8//48
f 5//17 21//17 7//17
f 21//49 16//49 7//49
f 20//50 15//50 16//50
f 15//51 11//51 16//51
f 6//52 21//52 5//52
