# Blender 4.0.0
# www.blender.org
o decimated_mesh
v 0.013646 0.019839 -0.028558
v 0.013592 0.019861 -0.038055
v 0.013395 0.082212 -0.032951
v -0.000007 0.019839 -0.031262
v -0.000007 0.082212 -0.035563
v 0.000010 0.019840 -0.040319
v 0.000004 0.082212 -0.042762
v 0.013368 0.082205 -0.040647
vn 0.0002 1.0000 -0.0010
vn -0.0005 1.0000 0.0023
vn -1.0000 -0.0001 -0.0016
vn 0.1909 -0.0675 -0.9793
vn 1.0000 0.0035 -0.0036
vn 0.1562 -0.0405 -0.9869
vn 0.0006 1.0000 -0.0000
vn -0.0016 1.0000 0.0001
vn -1.0000 -0.0001 -0.0018
vn 0.1938 -0.0681 -0.9787
vn 1.0000 0.0036 -0.0057
vn 0.1643 -0.0386 -0.9856
vn 1.0000 0.0034 -0.0057
vn 1.0000 0.0038 -0.0036
vn 0.1909 -0.0682 -0.9792
vn 0.1938 -0.0675 -0.9787
vn -0.0000 1.0000 0.0001
vn -0.0020 1.0000 0.0023
vn 0.1643 -0.0404 -0.9856
vn 0.0007 1.0000 -0.0010
vn 0.1562 -0.0387 -0.9870
vn -0.0000 1.0000 -0.0000
vn -1.0000 -0.0002 -0.0018
s 0
f 5//1 3//1 8//1
f 1//2 2//2 4//2
f 6//3 5//3 7//3
f 4//4 5//4 3//4
f 2//5 8//5 3//5
f 7//6 8//6 2//6
f 8//7 7//7 5//7
f 6//8 4//8 2//8
f 6//9 4//9 5//9
f 4//10 3//10 1//10
f 3//11 1//11 2//11
f 6//12 7//12 2//12
f 2//13 8//13 1//13
f 8//14 3//14 1//14
f 3//15 1//15 5//15
f 5//16 1//16 4//16
f 4//17 1//17 6//17
f 6//18 1//18 2//18
f 6//19 8//19 2//19
f 7//20 3//20 8//20
f 6//21 7//21 8//21
f 7//22 5//22 3//22
f 7//3 4//3 5//3
f 7//23 6//23 4//23
