# Blender 4.0.0
# www.blender.org
o decimated_mesh
v 0.026553 0.012235 0.027702
v -0.000004 0.012103 0.038436
v 0.027017 0.018198 0.027703
v 0.027933 0.012213 0.027703
v 0.029018 0.018197 0.027746
v -0.000004 0.018198 0.038691
v -0.000004 0.012129 0.039299
v -0.000000 0.018195 0.040210
v 0.028465 0.013122 0.027708
v 0.027341 0.012270 0.028615
v 0.019886 0.012229 0.034716
v 0.011911 0.012150 0.037641
v 0.001944 0.013051 0.039527
v 0.005658 0.012168 0.038942
v 0.020382 0.018198 0.035042
v 0.011006 0.013051 0.038136
v 0.010235 0.018198 0.038785
vn 0.0612 -0.3595 0.9311
vn 0.3765 -0.0294 0.9259
vn 0.7417 -0.4369 0.5089
vn 0.1187 -0.9832 0.1385
vn 0.3450 -0.0813 0.9351
vn -1.0000 0.0006 -0.0003
vn -0.0148 0.9998 -0.0133
vn 0.3746 -0.0388 0.9264
vn -0.0033 0.0001 1.0000
vn 0.0217 0.0051 -0.9998
vn -0.0008 -0.0052 1.0000
vn -0.0000 1.0000 0.0020
vn -0.0000 1.0000 -0.0000
vn 0.0008 1.0000 0.0008
vn 0.1366 -0.0795 0.9874
vn 0.1643 -0.0993 0.9814
vn 0.1374 -0.0787 0.9874
vn 0.4430 -0.0467 0.8953
vn 0.3439 -0.0796 0.9356
vn 0.1923 -0.3169 0.9288
vn 0.6437 -0.0705 0.7620
vn 0.6308 -0.0944 0.7702
vn 0.6610 -0.0776 0.7464
vn -1.0000 -0.0001 0.0023
vn -0.0454 -0.1483 0.9879
vn -0.0089 0.9995 -0.0306
vn -0.0038 1.0000 0.0030
vn -0.0072 0.9988 -0.0490
vn 0.0158 0.9998 0.0158
vn -0.0007 -0.0001 1.0000
vn 0.0157 0.9986 0.0512
vn 0.3747 -0.0293 0.9267
vn -0.0078 -0.0011 1.0000
vn 0.3764 -0.0387 0.9256
vn -0.0186 0.9995 -0.0237
vn -0.0040 1.0000 -0.0001
vn -1.0000 -0.0000 -0.0002
vn -0.0060 0.9995 -0.0306
vn 0.3454 -0.0664 0.9361
vn 0.3517 -0.0801 0.9327
vn -1.0000 0.0002 0.0023
vn 0.3410 -0.1656 0.9254
vn -0.0112 0.9976 -0.0682
s 0
f 7//1 14//1 13//1
f 1//2 3//2 6//2
f 4//3 9//3 10//3
f 4//4 10//4 11//4
f 15//5 17//5 12//5
f 7//6 8//6 2//6
f 11//7 1//7 12//7
f 1//8 6//8 2//8
f 1//9 9//9 3//9
f 3//10 5//10 9//10
f 1//11 4//11 9//11
f 8//12 17//12 6//12
f 17//13 15//13 3//13
f 6//13 17//13 3//13
f 15//14 5//14 3//14
f 13//15 14//15 8//15
f 14//16 16//16 17//16
f 17//17 8//17 14//17
f 16//18 12//18 17//18
f 12//19 11//19 15//19
f 16//20 14//20 12//20
f 5//21 15//21 10//21
f 11//22 10//22 15//22
f 10//23 9//23 5//23
f 6//24 2//24 8//24
f 7//25 13//25 8//25
f 7//26 14//26 2//26
f 2//27 12//27 1//27
f 14//28 12//28 2//28
f 4//29 1//29 11//29
f 3//30 1//30 4//30
f 4//31 1//31 2//31
f 2//32 1//32 3//32
f 9//33 3//33 4//33
f 2//34 3//34 6//34
f 11//35 4//35 12//35
f 12//36 4//36 2//36
f 7//37 6//37 2//37
f 12//38 2//38 7//38
f 17//39 16//39 15//39
f 16//40 11//40 15//40
f 7//41 8//41 6//41
f 16//42 12//42 11//42
f 14//43 12//43 7//43
