# Blender 4.0.0
# www.blender.org
o decimated_mesh
v -0.013404 0.024620 0.030563
v 0.013423 0.024609 0.030560
v -0.013404 0.024620 0.038203
v 0.013423 0.139938 0.030282
v 0.013423 0.024609 0.038193
v -0.000066 0.024610 0.040662
v -0.013404 0.139938 0.030289
v -0.010689 0.024621 0.039209
v -0.013404 0.141568 0.030957
v 0.013423 0.141314 0.030800
v 0.010521 0.024609 0.039241
v -0.010872 0.050771 0.040623
v 0.013423 0.142182 0.031688
v -0.013404 0.142190 0.031721
v -0.013404 0.142571 0.033021
v 0.012296 0.068738 0.040654
v 0.011004 0.054486 0.040669
v -0.013400 0.142480 0.034975
v 0.013423 0.142576 0.033042
v 0.013423 0.142548 0.034315
v -0.000206 0.142558 0.036980
v -0.010525 0.142134 0.036646
v -0.013406 0.141230 0.036500
v 0.000026 0.093808 0.042776
v -0.009459 0.093440 0.041505
v -0.009510 0.141076 0.037875
v -0.000579 0.142187 0.038074
v 0.009913 0.142108 0.036862
v 0.013422 0.142068 0.035636
v 0.009520 0.093326 0.041497
v -0.000201 0.141113 0.039105
v -0.011385 0.140471 0.037799
v 0.013412 0.095091 0.040400
v -0.013398 0.095538 0.040375
v -0.004997 0.140521 0.038933
v -0.013404 0.139938 0.037109
v 0.011320 0.115776 0.040242
v 0.000158 0.139854 0.039579
v 0.005265 0.140523 0.038894
v 0.010712 0.140627 0.037936
v 0.013420 0.140509 0.037007
v -0.010495 0.118999 0.040176
v 0.010392 0.134244 0.038856
vn -1.0000 0.0035 -0.0009
vn 1.0000 -0.0000 -0.0000
vn -0.0018 0.3793 -0.9253
vn -0.0000 0.9596 -0.2813
vn -0.2361 0.6332 0.7371
vn -0.2652 0.7463 0.6105
vn -0.0003 -0.0024 -1.0000
vn 0.0027 0.7153 -0.6988
vn 0.1327 -0.0160 0.9910
vn -0.1747 0.1012 0.9794
vn 0.3394 -0.0504 0.9393
vn 0.1692 0.1323 0.9767
vn -0.3884 0.3925 0.8337
vn 0.1000 0.6607 0.7440
vn -1.0000 -0.0000 -0.0000
vn -1.0000 -0.0000 0.0006
vn -1.0000 0.0001 -0.0000
vn -1.0000 -0.0001 -0.0000
vn -1.0000 -0.0023 0.0022
vn -1.0000 -0.0009 -0.0000
vn 1.0000 -0.0002 0.0003
vn 1.0000 0.0001 -0.0000
vn 1.0000 -0.0000 0.0010
vn 1.0000 -0.0002 0.0002
vn 1.0000 -0.0008 0.0004
vn -0.0005 0.7755 -0.6314
vn 0.1290 0.9320 0.3387
vn 0.0459 0.9719 0.2311
vn 0.0457 0.9414 0.3341
vn -0.0003 0.3524 -0.9358
vn 0.0757 0.3702 0.9259
vn -0.0001 0.9601 -0.2797
vn -0.0747 0.3326 0.9401
vn -0.2341 0.6328 0.7381
vn 0.0867 0.7054 0.7035
vn -0.0130 0.9988 0.0466
vn 0.0051 0.9997 0.0225
vn -0.0002 1.0000 0.0040
vn -0.1088 0.6680 0.7362
vn -0.0974 0.6478 0.7555
vn -0.1039 0.7098 0.6967
vn -0.2557 0.0399 0.9659
vn -0.2807 -0.0105 0.9597
vn -0.3429 0.0893 0.9351
vn -0.4639 0.0649 0.8835
vn -0.0001 -0.0024 -1.0000
vn 0.0817 -0.0305 0.9962
vn 0.1328 -0.0495 0.9899
vn -0.1354 -0.0544 0.9893
vn -0.0771 -0.0303 0.9966
vn -0.1322 -0.0161 0.9911
vn -0.0489 0.9511 0.3051
vn -0.0484 0.9584 0.2814
vn -0.1344 0.0460 0.9899
vn -0.0799 0.0693 0.9944
vn -0.1129 0.0860 0.9899
vn 0.6936 -0.0224 0.7200
vn 0.4393 -0.0388 0.8975
vn -0.0001 1.0000 -0.0000
vn -0.0004 -1.0000 -0.0004
vn -0.0000 1.0000 -0.0000
vn 0.0001 1.0000 -0.0000
vn 0.0010 1.0000 -0.0004
vn 0.1205 0.0924 0.9884
vn 0.0892 0.0687 0.9936
vn 0.1356 0.0444 0.9898
vn 0.1138 0.0800 0.9903
vn 0.5509 0.0621 0.8323
vn 0.3268 0.1187 0.9376
vn 0.3798 0.0882 0.9209
vn -0.1637 0.3934 0.9047
vn 0.1235 0.6256 0.7703
vn 0.2570 0.0334 0.9658
vn 0.1713 -0.0144 0.9851
vn 0.2722 -0.0023 0.9622
vn -0.5388 -0.0258 0.8421
vn -0.3470 -0.0531 0.9364
vn 0.2701 0.6567 0.7041
vn 0.2605 0.6377 0.7249
vn -1.0000 0.0001 -0.0002
vn -1.0000 -0.0000 -0.0002
vn -1.0000 -0.0000 0.0021
vn -1.0000 -0.0000 0.0020
vn -0.2347 0.6349 0.7361
vn -0.2357 0.6318 0.7385
vn -1.0000 0.0080 0.0027
vn -1.0000 0.0005 -0.0002
vn -1.0000 0.0002 -0.0002
vn 0.0008 1.0000 -0.0000
vn 0.0017 1.0000 -0.0049
vn -0.0998 0.6703 0.7354
vn -0.1048 0.6241 0.7743
vn 0.0002 1.0000 0.0005
vn 1.0000 -0.0012 -0.0001
vn 1.0000 -0.0000 0.0005
vn 1.0000 -0.0006 -0.0000
vn 1.0000 -0.0000 0.0031
vn 0.2560 0.6544 0.7114
vn 0.2752 0.6350 0.7219
s 0
f 23//1 18//1 7//1
f 10//2 13//2 19//2
f 10//3 7//3 9//3
f 19//4 14//4 15//4
f 32//5 22//5 23//5
f 18//6 23//6 22//6
f 4//7 1//7 7//7
f 9//8 13//8 10//8
f 17//9 30//9 24//9
f 35//10 32//10 42//10
f 17//11 11//11 5//11
f 43//12 40//12 39//12
f 23//13 36//13 32//13
f 28//14 31//14 39//14
f 9//15 7//15 15//15
f 14//15 9//15 15//15
f 7//16 1//16 34//16
f 1//17 3//17 34//17
f 34//18 36//18 7//18
f 18//19 15//19 7//19
f 36//20 23//20 7//20
f 41//21 33//21 4//21
f 33//22 5//22 2//22
f 2//23 4//23 33//23
f 4//2 10//2 19//2
f 19//2 20//2 4//2
f 20//24 29//24 4//24
f 29//25 41//25 4//25
f 13//26 9//26 14//26
f 29//27 20//27 28//27
f 20//28 21//28 28//28
f 21//29 27//29 28//29
f 10//30 4//30 7//30
f 38//31 39//31 31//31
f 19//32 13//32 14//32
f 35//33 38//33 31//33
f 26//34 22//34 32//34
f 28//35 27//35 31//35
f 18//36 21//36 15//36
f 21//37 20//37 19//37
f 19//38 15//38 21//38
f 35//39 31//39 27//39
f 26//40 35//40 27//40
f 27//41 22//41 26//41
f 42//42 34//42 25//42
f 34//43 12//43 25//43
f 42//44 32//44 36//44
f 36//45 34//45 42//45
f 4//46 2//46 1//46
f 24//47 6//47 17//47
f 6//48 11//48 17//48
f 8//49 6//49 12//49
f 6//50 24//50 12//50
f 24//51 25//51 12//51
f 22//52 27//52 21//52
f 21//53 18//53 22//53
f 42//54 25//54 24//54
f 24//55 38//55 42//55
f 38//56 35//56 42//56
f 5//57 33//57 16//57
f 16//58 17//58 5//58
f 8//59 1//59 3//59
f 1//60 2//60 6//60
f 2//61 11//61 5//61
f 11//62 2//62 6//62
f 6//63 1//63 8//63
f 39//64 38//64 43//64
f 38//65 24//65 37//65
f 30//66 37//66 24//66
f 37//67 43//67 38//67
f 33//68 41//68 37//68
f 41//69 40//69 43//69
f 43//70 37//70 41//70
f 32//71 35//71 26//71
f 39//72 40//72 28//72
f 37//73 30//73 33//73
f 30//74 17//74 16//74
f 33//75 30//75 16//75
f 34//76 3//76 12//76
f 3//77 8//77 12//77
f 40//78 41//78 28//78
f 41//79 29//79 28//79
f 9//80 7//80 23//80
f 7//81 1//81 23//81
f 1//15 3//15 23//15
f 3//82 34//82 23//82
f 34//83 36//83 23//83
f 32//84 26//84 23//84
f 26//85 22//85 23//85
f 18//86 15//86 23//86
f 15//87 14//87 23//87
f 14//88 9//88 23//88
f 6//89 1//89 3//89
f 6//90 3//90 8//90
f 31//91 27//91 26//91
f 35//92 31//92 26//92
f 19//2 2//2 4//2
f 5//62 2//62 6//62
f 19//2 5//2 2//2
f 5//93 6//93 11//93
f 29//94 41//94 19//94
f 41//95 5//95 19//95
f 20//96 29//96 19//96
f 41//97 33//97 5//97
f 40//98 29//98 28//98
f 40//99 41//99 29//99
