# Blender 4.0.0
# www.blender.org
o decimated_mesh
v -0.000010 0.018194 -0.040207
v -0.000007 0.018198 -0.038691
v -0.000014 0.013227 -0.039683
v -0.006602 0.012376 -0.038863
v -0.026972 0.018198 -0.027742
v -0.000016 0.012053 -0.039273
v -0.011709 0.012166 -0.037729
v -0.028980 0.018197 -0.027781
v -0.019889 0.012231 -0.034715
v -0.010236 0.018198 -0.038785
v -0.000007 0.012103 -0.038460
v -0.026554 0.012231 -0.027741
v -0.027874 0.012210 -0.027742
v -0.027340 0.012270 -0.028615
v -0.028408 0.013076 -0.027745
v -0.020385 0.018198 -0.035041
vn -0.6649 -0.0796 -0.7426
vn -0.3761 -0.0265 -0.9262
vn -0.3450 -0.0794 -0.9352
vn -0.0000 1.0000 -0.0000
vn -0.7431 -0.4599 -0.4861
vn -0.0732 -0.8685 -0.4903
vn 0.0055 1.0000 0.0017
vn -0.6436 -0.0710 -0.7621
vn -0.6309 -0.0945 -0.7701
vn 1.0000 -0.0001 -0.0019
vn 0.9999 -0.0050 -0.0104
vn 1.0000 -0.0016 -0.0073
vn -0.3743 -0.0351 -0.9266
vn -0.3452 -0.0798 -0.9351
vn 0.0020 0.0001 -1.0000
vn 0.0005 -0.0031 -1.0000
vn -0.0198 0.0049 0.9998
vn -0.0000 1.0000 -0.0026
vn -0.0006 1.0000 -0.0006
vn -0.0747 -0.3290 -0.9414
vn -0.1214 -0.9824 -0.1421
vn -0.1097 -0.1040 -0.9885
vn -0.2105 -0.1184 -0.9704
vn -0.1374 -0.0725 -0.9879
vn -0.0165 0.9997 -0.0157
vn 0.0123 0.9999 0.0118
vn 0.0015 0.9981 -0.0621
vn -0.3760 -0.0350 -0.9260
vn -0.0202 0.9979 -0.0619
vn -0.3744 -0.0264 -0.9269
vn -0.0164 0.9984 -0.0533
vn 0.0116 0.9998 0.0145
vn 0.0158 0.9997 0.0212
vn 0.0045 -0.0006 -1.0000
vn 0.0005 -0.0000 -1.0000
s 0
f 14//1 15//1 8//1
f 12//2 5//2 2//2
f 7//3 16//3 10//3
f 5//4 2//4 10//4
f 14//5 13//5 15//5
f 6//6 7//6 4//6
f 11//7 7//7 12//7
f 8//8 16//8 14//8
f 9//9 14//9 16//9
f 2//10 11//10 1//10
f 3//11 11//11 6//11
f 3//12 1//12 11//12
f 12//13 2//13 11//13
f 7//14 9//14 16//14
f 12//15 15//15 5//15
f 13//16 15//16 12//16
f 5//17 8//17 15//17
f 1//18 10//18 2//18
f 10//4 16//4 5//4
f 16//19 8//19 5//19
f 6//20 4//20 3//20
f 14//21 9//21 13//21
f 3//22 4//22 1//22
f 4//23 7//23 10//23
f 10//24 1//24 4//24
f 13//25 12//25 9//25
f 9//26 12//26 7//26
f 7//27 11//27 6//27
f 16//4 5//4 2//4
f 16//4 2//4 10//4
f 5//28 2//28 11//28
f 12//29 11//29 6//29
f 5//30 11//30 12//30
f 12//31 6//31 13//31
f 13//32 6//32 7//32
f 13//33 7//33 9//33
f 15//34 5//34 13//34
f 13//35 5//35 12//35
