# Blender 4.0.0
# www.blender.org
o decimated_mesh
v -0.036900 0.142571 0.000005
v -0.035607 0.142511 0.000005
v -0.034648 0.142150 0.000005
v -0.024652 0.142179 -0.023832
v -0.021323 0.019845 -0.023240
v -0.024647 0.142639 -0.026825
v -0.033520 0.140653 0.000006
v -0.032042 0.019839 0.000002
v -0.024652 0.024622 -0.032165
v -0.024650 0.092485 -0.034907
v -0.024652 0.140292 -0.030851
v -0.024653 0.142068 -0.029029
v -0.024652 0.140569 -0.021901
v -0.031281 0.142544 -0.019669
v -0.035528 0.142527 -0.010196
v -0.038763 0.142008 0.000003
v -0.027055 0.142005 -0.027114
v -0.040670 0.019839 -0.000020
v -0.032562 0.019839 -0.023243
v -0.027984 0.140570 -0.027887
v -0.036587 0.142118 -0.010488
v -0.033229 0.141981 -0.019126
v -0.028645 0.024622 -0.028838
v -0.037689 0.141257 -0.009758
v -0.038860 0.140450 -0.006784
v -0.040184 0.139406 -0.000003
v -0.035018 0.026346 -0.020894
v -0.029794 0.108409 -0.029788
v -0.033694 0.140472 -0.020607
v -0.037687 0.140525 -0.011472
v -0.034884 0.140484 -0.018443
v -0.034937 0.019839 -0.020037
v -0.030828 0.093317 -0.029446
v -0.038860 0.134268 -0.010399
v -0.036465 0.051922 -0.021060
v -0.036627 0.063566 -0.021320
v -0.036263 0.117286 -0.020715
v -0.038898 0.019839 -0.010502
v -0.036273 0.044460 -0.020746
v -0.036418 0.093317 -0.022225
v -0.037644 0.071340 -0.019663
v -0.037729 0.093463 -0.019763
v -0.040327 0.115319 -0.010932
v -0.041361 0.093212 -0.010706
v -0.043131 0.093475 -0.000004
vn -0.7857 -0.0749 -0.6140
vn -0.5995 -0.3507 -0.7195
vn 0.0006 -0.8816 -0.4720
vn -0.6993 0.6570 -0.2815
vn 0.8465 0.4087 0.3411
vn -0.8827 -0.0055 -0.4698
vn 0.3478 0.9260 0.1470
vn -0.9611 0.1393 -0.2383
vn -0.8718 0.0988 -0.4799
vn -0.6621 0.7381 -0.1296
vn -0.4895 0.6244 -0.6087
vn -0.0009 -0.0015 1.0000
vn -1.0000 0.0023 -0.0001
vn -0.8531 0.4794 -0.2058
vn -0.0004 1.0000 0.0001
vn -0.8734 0.4772 -0.0971
vn 0.7572 0.5704 0.3182
vn -0.9269 -0.0113 -0.3752
vn -0.9855 -0.0335 -0.1666
vn 0.9343 -0.0144 -0.3562
vn -0.9256 0.0419 -0.3761
vn -0.9830 0.0808 -0.1651
vn -0.2194 0.9446 -0.2442
vn -0.6599 0.0282 -0.7508
vn -0.7196 -0.0280 -0.6939
vn -0.7154 -0.0255 -0.6982
vn -0.6387 0.0671 -0.7665
vn -0.7400 -0.0473 -0.6709
vn -0.7907 -0.0131 -0.6121
vn -0.6660 -0.0729 -0.7423
vn -0.7843 -0.0493 -0.6184
vn -0.8005 -0.0881 -0.5929
vn -0.7013 0.5975 -0.3889
vn -0.6976 0.6576 -0.2844
vn -0.7052 0.6495 -0.2844
vn -0.8954 -0.0224 -0.4448
vn -0.8812 0.0354 -0.4714
vn -0.8702 -0.0089 -0.4927
vn -0.0003 1.0000 0.0016
vn 0.0464 0.9989 0.0020
vn -0.0165 0.9999 -0.0019
vn 0.3401 0.9294 0.1434
vn -0.2888 0.9564 -0.0429
vn -0.3453 0.9364 -0.0619
vn -0.3234 0.9358 -0.1405
vn -0.3101 0.9407 -0.1374
vn -0.4904 0.6375 -0.5942
vn -0.0026 -0.0003 1.0000
vn 0.0009 -0.0000 -1.0000
vn 0.0013 -0.0001 -1.0000
vn 0.0001 0.0002 1.0000
vn -0.0000 0.0001 1.0000
vn 0.0010 0.0018 -1.0000
vn -0.5897 0.0683 -0.8047
vn -0.6587 0.0813 -0.7480
vn -1.0000 -0.0015 -0.0017
vn -0.9996 -0.0276 0.0009
vn -1.0000 -0.0042 0.0037
vn -0.0000 1.0000 -0.0000
vn -0.0005 1.0000 -0.0004
vn -0.9217 -0.0619 -0.3829
vn -0.9476 -0.0327 -0.3177
vn -0.9281 -0.0052 -0.3723
vn -0.9509 -0.0356 -0.3076
vn -0.9420 -0.0383 -0.3334
vn -0.9220 -0.0608 -0.3823
vn -0.9079 -0.0204 -0.4187
vn -0.9862 -0.0329 -0.1623
vn -0.6063 0.6439 -0.4667
vn -0.6059 0.6444 -0.4666
vn 0.9830 0.0156 -0.1832
vn -0.7685 0.6259 -0.1327
vn -0.9278 0.0396 -0.3709
vn -0.9261 0.0821 -0.3682
vn -0.9220 0.1092 -0.3714
vn -0.9191 0.0922 -0.3831
vn -0.9854 0.0444 -0.1641
vn -0.9899 0.0635 -0.1270
vn -0.9791 0.1025 -0.1754
vn -0.7843 0.0898 -0.6139
vn -0.7725 0.0807 -0.6298
vn -0.7901 0.0403 -0.6116
vn -0.7929 0.0434 -0.6078
vn -0.3332 0.9078 -0.2548
vn -0.2273 0.9535 -0.1980
vn -0.0005 -0.0000 1.0000
vn -0.9080 -0.0111 -0.4188
vn -0.9268 -0.0214 -0.3751
vn -0.9994 -0.0273 -0.0232
vn -0.9996 -0.0272 -0.0056
vn 0.0464 0.9986 0.0237
vn -0.0229 0.9997 -0.0079
vn -0.0191 0.9998 -0.0068
vn -0.0048 0.0003 1.0000
vn -0.0010 -0.0001 1.0000
vn -0.0000 1.0000 0.0002
vn -0.0005 1.0000 -0.0002
vn -0.9993 -0.0260 0.0250
vn -0.9996 -0.0268 0.0096
vn -0.6995 0.6565 -0.2823
vn -0.6986 0.6576 -0.2818
vn 0.0001 1.0000 -0.0000
vn -0.6398 -0.0310 -0.7679
vn -0.6642 -0.0277 -0.7471
vn -0.6062 0.6439 -0.4668
vn -0.6060 0.6443 -0.4665
vn -0.7052 0.6481 -0.2874
vn -0.9489 -0.0327 -0.3138
vn -0.9461 -0.0343 -0.3222
vn -0.7811 -0.0463 -0.6227
vn -0.7553 -0.0298 -0.6547
vn -0.7683 -0.0250 -0.6396
s 0
f 23//1 19//1 27//1
f 9//2 19//2 23//2
f 5//3 19//3 9//3
f 24//4 21//4 30//4
f 7//5 13//5 4//5
f 41//6 42//6 40//6
f 4//7 2//7 3//7
f 34//8 25//8 30//8
f 29//9 37//9 31//9
f 21//10 24//10 16//10
f 20//11 12//11 11//11
f 16//12 7//12 1//12
f 11//13 13//13 6//13
f 25//14 24//14 30//14
f 5//15 32//15 8//15
f 26//16 16//16 25//16
f 4//17 3//17 7//17
f 8//18 7//18 13//18
f 18//19 44//19 38//19
f 9//20 10//20 5//20
f 37//21 42//21 43//21
f 34//22 43//22 26//22
f 6//23 12//23 17//23
f 33//24 28//24 10//24
f 10//25 9//25 36//25
f 36//26 9//26 35//26
f 9//27 23//27 39//27
f 35//28 9//28 39//28
f 40//29 33//29 36//29
f 36//30 33//30 10//30
f 27//31 39//31 23//31
f 19//32 32//32 27//32
f 29//33 31//33 22//33
f 31//34 30//34 21//34
f 22//35 31//35 21//35
f 36//36 35//36 41//36
f 42//37 37//37 40//37
f 36//38 41//38 40//38
f 14//39 15//39 2//39
f 15//40 1//40 2//40
f 2//41 6//41 14//41
f 4//42 6//42 2//42
f 1//43 15//43 16//43
f 16//44 15//44 21//44
f 21//45 15//45 22//45
f 15//46 14//46 22//46
f 17//47 12//47 20//47
f 45//48 18//48 8//48
f 8//49 45//49 7//49
f 45//50 26//50 7//50
f 7//51 3//51 2//51
f 1//52 7//52 2//52
f 16//53 7//53 26//53
f 11//54 10//54 28//54
f 28//55 20//55 11//55
f 6//56 13//56 4//56
f 13//57 11//57 5//57
f 6//58 12//58 11//58
f 18//59 8//59 38//59
f 38//59 8//59 32//59
f 32//60 5//60 19//60
f 32//61 38//61 27//61
f 38//62 44//62 35//62
f 44//63 42//63 41//63
f 41//64 35//64 44//64
f 35//65 39//65 38//65
f 39//66 27//66 38//66
f 8//67 13//67 5//67
f 18//68 45//68 44//68
f 22//69 17//69 20//69
f 29//70 22//70 20//70
f 10//71 11//71 5//71
f 16//72 24//72 25//72
f 44//73 43//73 42//73
f 43//74 34//74 37//74
f 34//75 30//75 31//75
f 31//76 37//76 34//76
f 44//77 45//77 43//77
f 45//78 26//78 43//78
f 26//79 25//79 34//79
f 37//80 29//80 20//80
f 20//81 28//81 37//81
f 28//82 33//82 40//82
f 37//83 28//83 40//83
f 17//84 22//84 14//84
f 6//85 17//85 14//85
f 16//86 8//86 7//86
f 8//87 7//87 5//87
f 5//88 7//88 13//88
f 5//89 13//89 4//89
f 5//90 4//90 6//90
f 6//91 1//91 2//91
f 6//92 14//92 1//92
f 14//93 15//93 1//93
f 26//94 45//94 16//94
f 45//95 8//95 16//95
f 18//96 8//96 5//96
f 18//97 5//97 19//97
f 11//98 5//98 12//98
f 12//99 5//99 6//99
f 22//100 24//100 21//100
f 22//101 30//101 24//101
f 38//59 18//59 32//59
f 32//102 18//102 19//102
f 23//103 10//103 9//103
f 23//104 33//104 10//104
f 20//105 29//105 17//105
f 29//106 22//106 17//106
f 31//107 30//107 22//107
f 41//108 38//108 44//108
f 41//109 35//109 38//109
f 39//110 35//110 23//110
f 35//111 33//111 23//111
f 35//112 36//112 33//112
