# Blender 4.0.0
# www.blender.org
o Cup_1_cup_1_0_collision_13
v 0.013423 0.086314 0.040410
v 0.013563 0.086314 0.040365
v 0.013423 0.086314 0.032958
v 0.013423 0.085420 0.040406
v 0.013558 0.085559 0.040364
v 0.020070 0.086314 0.037972
v 0.013423 0.084133 0.040401
v 0.024644 0.086314 0.025564
v 0.024644 0.024609 0.022277
v 0.013423 0.024609 0.030558
v 0.013423 0.081566 0.040388
v 0.013492 0.076499 0.040340
v 0.020070 0.081675 0.037948
v 0.020848 0.073908 0.037609
v 0.020856 0.075200 0.037612
v 0.020902 0.082968 0.037633
v 0.020917 0.085559 0.037640
v 0.020922 0.086314 0.037642
v 0.024644 0.086314 0.034841
v 0.024644 0.024609 0.032173
v 0.013423 0.024609 0.038193
v 0.013423 0.075134 0.040356
v 0.020070 0.079084 0.037933
v 0.020070 0.075200 0.037912
v 0.020070 0.073908 0.037905
v 0.020835 0.072609 0.037603
v 0.021495 0.073908 0.037268
v 0.021556 0.084266 0.037301
v 0.021297 0.086314 0.037449
v 0.024644 0.085559 0.034836
v 0.022498 0.086314 0.036661
v 0.023875 0.075200 0.035430
v 0.023871 0.073908 0.035427
v 0.023873 0.024609 0.032833
v 0.024644 0.026427 0.032386
v 0.014687 0.024609 0.037768
v 0.013423 0.073853 0.040349
v 0.020070 0.072609 0.037894
v 0.020807 0.071316 0.037591
v 0.021483 0.072609 0.037261
v 0.022441 0.072609 0.036613
v 0.022449 0.073908 0.036620
v 0.021564 0.085559 0.037305
v 0.021568 0.086314 0.037307
v 0.013423 0.072573 0.040339
v 0.016186 0.072609 0.039323
v 0.024644 0.073908 0.034752
v 0.022459 0.076499 0.036629
v 0.023864 0.072609 0.035423
v 0.022452 0.024609 0.034032
v 0.024644 0.026626 0.032406
v 0.021757 0.026004 0.034747
v 0.014891 0.027297 0.037912
v 0.013423 0.031198 0.038647
v 0.020070 0.071316 0.037869
v 0.020768 0.070024 0.037573
v 0.021454 0.071316 0.037245
v 0.022422 0.071316 0.036597
v 0.023847 0.071316 0.035411
v 0.023089 0.072609 0.036071
v 0.016186 0.071316 0.039298
v 0.013423 0.071304 0.040314
v 0.024644 0.072844 0.034742
v 0.024644 0.072609 0.034738
v 0.021674 0.024609 0.034678
v 0.024644 0.027297 0.032470
v 0.023297 0.028034 0.033654
v 0.021833 0.027297 0.034797
v 0.021186 0.027297 0.035327
v 0.015002 0.025956 0.037763
v 0.015604 0.026354 0.037575
v 0.015707 0.027297 0.037612
v 0.019460 0.027774 0.036268
v 0.014891 0.028595 0.037999
v 0.013423 0.037414 0.039020
v 0.016046 0.059665 0.039032
v 0.015902 0.055775 0.038979
v 0.018776 0.058367 0.037992
v 0.018776 0.055775 0.037921
v 0.019602 0.055775 0.037616
v 0.020070 0.070024 0.037834
v 0.020194 0.068659 0.037751
v 0.020737 0.069039 0.037559
v 0.022189 0.059665 0.036403
v 0.022370 0.068725 0.036554
v 0.022397 0.070024 0.036575
v 0.021364 0.051898 0.036669
v 0.021477 0.050690 0.036567
v 0.022033 0.051898 0.036274
v 0.023692 0.063549 0.035281
v 0.024644 0.063549 0.034488
v 0.024644 0.064841 0.034530
v 0.024644 0.066140 0.034568
v 0.024644 0.071316 0.034710
v 0.014891 0.055775 0.039350
v 0.013423 0.059665 0.039973
v 0.014891 0.051898 0.039243
v 0.021026 0.024609 0.035201
v 0.024644 0.028583 0.032576
v 0.023335 0.028897 0.033689
v 0.021250 0.028595 0.035377
v 0.020705 0.035795 0.036243
v 0.020172 0.028595 0.036025
v 0.018464 0.024609 0.036378
v 0.018618 0.026004 0.036435
v 0.018871 0.027327 0.036449
v 0.019525 0.028595 0.036293
v 0.018776 0.028595 0.036570
v 0.013423 0.037637 0.039032
v 0.015757 0.051898 0.038926
v 0.018776 0.051898 0.037814
v 0.019430 0.051197 0.037554
v 0.020105 0.051898 0.037300
v 0.021294 0.049313 0.036618
v 0.022811 0.058367 0.035842
v 0.022018 0.051179 0.036259
v 0.024644 0.051898 0.034097
v 0.024644 0.052767 0.034127
v 0.024644 0.059025 0.034337
v 0.013423 0.058445 0.039932
v 0.013423 0.045441 0.039440
v 0.014891 0.050605 0.039194
v 0.024644 0.029664 0.032649
v 0.024644 0.032479 0.032837
v 0.024644 0.035064 0.033009
v 0.022022 0.031706 0.034969
v 0.020748 0.036659 0.036274
v 0.020070 0.038954 0.036657
v 0.020192 0.036278 0.036465
v 0.019717 0.031180 0.036364
v 0.018652 0.049313 0.037743
v 0.018557 0.048014 0.037708
v 0.014987 0.048117 0.039027
v 0.013596 0.044130 0.039322
v 0.015690 0.050605 0.038901
v 0.018875 0.050702 0.037733
v 0.020070 0.040246 0.036726
v 0.020791 0.037655 0.036302
v 0.020847 0.038954 0.036338
v 0.021183 0.046721 0.036549
v 0.021238 0.048014 0.036584
v 0.022363 0.040246 0.035253
v 0.022414 0.041539 0.035296
v 0.023372 0.049313 0.035015
v 0.023422 0.050605 0.035056
v 0.024644 0.050605 0.034037
v 0.024644 0.051517 0.034080
v 0.022156 0.035064 0.035081
v 0.014891 0.049313 0.039126
v 0.024644 0.037655 0.033181
v 0.015597 0.049313 0.038867
v 0.024644 0.049313 0.033955
v 0.024644 0.050291 0.034017
vn -0.0000 1.0000 -0.0000
vn -0.0000 1.0000 -0.0001
vn 1.0000 -0.0000 -0.0000
vn -1.0000 -0.0000 -0.0000
vn 0.3010 -0.0038 0.9536
vn 0.3451 -0.0047 0.9385
vn 0.3019 -0.0039 0.9533
vn 0.3097 -0.0045 0.9508
vn 0.5496 -0.0444 0.8342
vn 0.5935 -0.0313 0.8042
vn 0.3107 -0.0046 0.9505
vn 0.3135 -0.0047 0.9496
vn 0.3452 -0.0049 0.9385
vn 0.3572 -0.0050 0.9340
vn 0.3612 -0.0047 0.9325
vn 0.3613 -0.0047 0.9324
vn 0.3616 -0.0043 0.9323
vn 0.3474 -0.0066 0.9377
vn 0.3450 -0.0050 0.9386
vn 0.3124 -0.0047 0.9499
vn 0.3452 -0.0051 0.9385
vn 0.3562 -0.0051 0.9344
vn 0.3562 -0.0074 0.9344
vn 0.4661 -0.0084 0.8847
vn 0.4661 -0.0056 0.8847
vn 0.4621 -0.0053 0.8868
vn 0.4588 -0.0052 0.8885
vn 0.4586 -0.0052 0.8886
vn 0.4585 -0.0052 0.8887
vn 0.4579 -0.0047 0.8890
vn 0.3451 -0.0052 0.9385
vn 0.3452 -0.0052 0.9385
vn 0.6466 -0.0043 0.7628
vn 0.6467 -0.0043 0.7628
vn 0.6567 -0.0053 0.7542
vn 0.6479 -0.0886 0.7566
vn 0.3452 -0.0077 0.9385
vn 0.3559 -0.0077 0.9345
vn 0.3558 -0.0165 0.9344
vn 0.4673 -0.0184 0.8839
vn 0.4673 -0.0092 0.8840
vn 0.5603 -0.0097 0.8283
vn 0.5616 -0.0083 0.8274
vn 0.5616 -0.0060 0.8274
vn 0.4629 -0.0052 0.8864
vn 0.5647 -0.0056 0.8253
vn 0.4637 -0.0048 0.8860
vn 0.3449 -0.0078 0.9386
vn 0.3453 -0.0070 0.9385
vn 0.6573 -0.0054 0.7536
vn 0.5709 -0.0049 0.8210
vn 0.6429 -0.0050 0.7659
vn 0.6428 -0.0051 0.7660
vn 0.6428 -0.0054 0.7660
vn 0.6422 -0.0849 0.7618
vn 0.6379 -0.0751 0.7665
vn 0.6379 -0.0756 0.7664
vn 0.3172 -0.0747 0.9454
vn 0.3017 -0.0656 0.9511
vn 0.3452 -0.0180 0.9383
vn 0.3536 -0.0180 0.9352
vn 0.3536 -0.0237 0.9351
vn 0.4716 -0.0265 0.8814
vn 0.4716 -0.0213 0.8815
vn 0.5562 -0.0226 0.8307
vn 0.5602 -0.0183 0.8282
vn 0.6396 -0.0187 0.7685
vn 0.6411 -0.0161 0.7673
vn 0.6411 -0.0085 0.7674
vn 0.5703 -0.0050 0.8214
vn 0.5679 -0.0052 0.8231
vn 0.3449 -0.0184 0.9385
vn 0.3450 -0.0180 0.9384
vn 0.6594 -0.0075 0.7518
vn 0.6599 -0.0162 0.7511
vn 0.6600 -0.0113 0.7512
vn 0.6372 -0.0762 0.7669
vn 0.6377 -0.0731 0.7668
vn 0.6369 -0.0696 0.7678
vn 0.6347 -0.0668 0.7699
vn 0.6329 -0.0668 0.7714
vn 0.6239 -0.0737 0.7780
vn 0.6267 -0.0760 0.7756
vn 0.3407 -0.0760 0.9371
vn 0.3443 -0.0772 0.9357
vn 0.3434 -0.0767 0.9361
vn 0.3441 -0.0747 0.9360
vn 0.3442 -0.0696 0.9363
vn 0.3437 -0.0628 0.9370
vn 0.3063 -0.0636 0.9498
vn 0.3429 -0.0758 0.9363
vn 0.3170 -0.0568 0.9467
vn 0.3452 -0.0256 0.9382
vn 0.3460 -0.0257 0.9379
vn 0.3466 -0.0258 0.9377
vn 0.3465 -0.0258 0.9377
vn 0.3469 -0.0258 0.9376
vn 0.3490 -0.0256 0.9368
vn 0.3522 -0.0245 0.9356
vn 0.4730 -0.0275 0.8806
vn 0.5558 -0.0250 0.8310
vn 0.5558 -0.0249 0.8309
vn 0.5562 -0.0246 0.8307
vn 0.4750 -0.0283 0.8795
vn 0.4921 -0.0281 0.8701
vn 0.5124 -0.0276 0.8583
vn 0.5552 -0.0250 0.8313
vn 0.6395 -0.0252 0.7684
vn 0.6397 -0.0256 0.7682
vn 0.6399 -0.0256 0.7680
vn 0.6414 -0.0253 0.7668
vn 0.6567 -0.0216 0.7539
vn 0.6602 -0.0206 0.7508
vn 0.6602 -0.0165 0.7509
vn 0.3445 -0.0257 0.9384
vn 0.3449 -0.0256 0.9383
vn 0.3234 -0.0277 0.9459
vn 0.3435 -0.0258 0.9388
vn 0.3451 -0.0256 0.9382
vn 0.6392 -0.0634 0.7665
vn 0.6383 -0.0591 0.7675
vn 0.6334 -0.0591 0.7716
vn 0.6331 -0.0606 0.7717
vn 0.6331 -0.0608 0.7717
vn 0.5486 -0.0588 0.8340
vn 0.5091 -0.0637 0.8584
vn 0.5027 -0.0704 0.8616
vn 0.3449 -0.0759 0.9356
vn 0.3447 -0.0750 0.9357
vn 0.3446 -0.0748 0.9358
vn 0.3449 -0.0761 0.9356
vn 0.3821 -0.0586 0.9223
vn 0.3462 -0.0561 0.9365
vn 0.3446 -0.0576 0.9370
vn 0.3454 -0.0760 0.9354
vn 0.3457 -0.0762 0.9352
vn 0.4154 -0.0992 0.9042
vn 0.4194 -0.0967 0.9026
vn 0.3447 -0.0511 0.9373
vn 0.3393 -0.0522 0.9392
vn 0.3453 -0.0257 0.9381
vn 0.3445 -0.0258 0.9384
vn 0.3453 -0.0258 0.9382
vn 0.3453 -0.0258 0.9381
vn 0.3491 -0.0259 0.9367
vn 0.3469 -0.0258 0.9375
vn 0.3467 -0.0258 0.9376
vn 0.3493 -0.0259 0.9367
vn 0.3768 -0.0279 0.9259
vn 0.4474 -0.0300 0.8938
vn 0.4479 -0.0300 0.8936
vn 0.6396 -0.0257 0.7683
vn 0.4752 -0.0304 0.8793
vn 0.5129 -0.0279 0.8580
vn 0.5190 -0.0372 0.8540
vn 0.6400 -0.0289 0.7678
vn 0.6400 -0.0266 0.7679
vn 0.6399 -0.0257 0.7680
vn 0.6399 -0.0256 0.7681
vn 0.3044 -0.0319 0.9520
vn 0.2900 -0.0368 0.9563
vn 0.3438 -0.0361 0.9383
vn 0.3444 -0.0319 0.9383
vn 0.2875 -0.0362 0.9571
vn 0.6396 -0.0516 0.7670
vn 0.6395 -0.0513 0.7671
vn 0.6392 -0.0511 0.7674
vn 0.6390 -0.0511 0.7675
vn 0.6332 -0.0559 0.7720
vn 0.5623 -0.0567 0.8250
vn 0.6215 -0.0517 0.7817
vn 0.5988 -0.0516 0.7993
vn 0.3573 -0.0503 0.9326
vn 0.3559 -0.0506 0.9331
vn 0.3551 -0.0517 0.9334
vn 0.3566 -0.0520 0.9328
vn 0.3821 -0.0562 0.9224
vn 0.3463 -0.0513 0.9367
vn 0.3455 -0.0510 0.9370
vn 0.3453 -0.0510 0.9371
vn -0.3451 0.0510 -0.9372
vn 0.3449 -0.0510 0.9373
vn 0.3448 -0.0510 0.9373
vn 0.2784 -0.0502 0.9592
vn 0.3452 -0.0274 0.9381
vn 0.3441 -0.0388 0.9381
vn 0.3451 -0.0472 0.9374
vn 0.3460 -0.0484 0.9370
vn 0.3500 -0.0502 0.9354
vn 0.3514 -0.0501 0.9349
vn 0.3615 -0.0492 0.9311
vn 0.3922 -0.0453 0.9187
vn 0.4146 -0.0437 0.9090
vn 0.4235 -0.0430 0.9049
vn 0.4241 -0.0430 0.9046
vn 0.4243 -0.0429 0.9045
vn 0.4270 -0.0419 0.9033
vn 0.5341 -0.0450 0.8442
vn 0.6364 -0.0508 0.7697
vn 0.6369 -0.0507 0.7693
vn 0.6386 -0.0487 0.7680
vn 0.6396 -0.0449 0.7674
vn 0.6410 -0.0358 0.7667
vn 0.5373 -0.0460 0.8421
vn 0.5382 -0.0462 0.8415
vn 0.5389 -0.0462 0.8411
vn 0.5519 -0.0474 0.8326
vn 0.6340 -0.0510 0.7717
vn 0.6352 -0.0509 0.7707
vn 0.3151 -0.0443 0.9480
vn 0.3439 -0.0489 0.9377
vn 0.3380 -0.0490 0.9399
vn 0.6390 -0.0510 0.7675
vn 0.3583 -0.0499 0.9323
vn 0.3491 -0.0511 0.9357
vn 0.3448 -0.0509 0.9373
vn 0.3452 -0.0482 0.9373
vn 0.3448 -0.0491 0.9374
vn 0.3440 -0.0504 0.9376
vn 0.3435 -0.0505 0.9378
vn 0.3441 -0.0490 0.9377
vn 0.6374 -0.0508 0.7689
vn 0.6386 -0.0510 0.7679
vn 0.6393 -0.0487 0.7674
vn 0.6393 -0.0509 0.7673
vn 0.6395 -0.0477 0.7673
vn 0.3010 -0.0044 0.9536
vn 0.3017 -0.0043 0.9534
vn 0.3452 -0.0050 0.9385
vn 0.3140 -0.0047 0.9494
vn 0.3119 -0.0047 0.9501
vn 0.3454 -0.0051 0.9384
vn 0.3223 -0.0052 0.9466
vn 0.3451 -0.0059 0.9385
vn -0.0000 1.0000 -0.0005
vn -0.0000 1.0000 0.0003
vn -0.0000 1.0000 -0.0002
vn 0.3452 -0.0073 0.9385
vn 0.3453 -0.0077 0.9385
vn 0.9621 -0.0049 -0.2726
vn 0.5658 -0.0055 0.8245
vn 0.8539 -0.0051 0.5204
vn 0.6428 -0.0050 0.7660
vn 0.6377 -0.0751 0.7666
vn 0.3466 -0.0258 0.9376
vn 0.3454 -0.0761 0.9354
vn 0.3449 -0.0760 0.9355
vn 0.3466 -0.0257 0.9377
vn 0.3468 -0.0258 0.9376
vn 0.6398 -0.0256 0.7681
vn 0.3454 -0.0510 0.9371
vn 0.3449 -0.0510 0.9372
vn 0.3501 -0.0502 0.9354
vn 0.4241 -0.0429 0.9046
vn 0.6330 -0.0606 0.7717
vn 0.6396 -0.0514 0.7670
vn 0.3562 -0.0503 0.9330
vn 0.3505 -0.0501 0.9352
vn 0.3564 -0.0506 0.9329
vn 0.5379 -0.0461 0.8418
vn 0.6391 -0.0511 0.7674
vn 0.6391 -0.0511 0.7675
vn 0.6393 -0.0510 0.7673
s 0
f 1//1 2//1 6//1
f 1//2 6//2 18//2
f 1//1 18//1 29//1
f 1//1 29//1 44//1
f 1//1 44//1 31//1
f 1//1 31//1 19//1
f 1//1 19//1 8//1
f 1//1 8//1 3//1
f 1//3 10//3 3//3
f 1//3 21//3 10//3
f 1//3 54//3 21//3
f 1//3 75//3 54//3
f 1//3 109//3 75//3
f 1//3 121//3 109//3
f 1//3 120//3 121//3
f 1//3 96//3 120//3
f 1//3 62//3 96//3
f 1//3 45//3 62//3
f 1//3 37//3 45//3
f 1//3 22//3 37//3
f 1//3 11//3 22//3
f 1//4 11//4 7//4
f 1//4 7//4 4//4
f 1//5 4//5 2//5
f 2//6 5//6 6//6
f 2//7 4//7 7//7
f 2//8 7//8 5//8
f 3//9 9//9 8//9
f 3//10 10//10 9//10
f 5//11 7//11 11//11
f 5//12 11//12 12//12
f 5//13 12//13 6//13
f 6//14 13//14 14//14
f 6//15 14//15 15//15
f 6//16 15//16 16//16
f 6//16 16//16 17//16
f 6//17 17//17 18//17
f 6//18 12//18 22//18
f 6//19 22//19 13//19
f 8//3 19//3 30//3
f 8//3 30//3 47//3
f 8//3 47//3 63//3
f 8//3 63//3 64//3
f 8//3 64//3 94//3
f 8//3 94//3 93//3
f 8//3 93//3 92//3
f 8//3 92//3 91//3
f 8//3 91//3 119//3
f 8//3 119//3 118//3
f 8//3 118//3 117//3
f 8//3 117//3 147//3
f 8//3 147//3 146//3
f 8//3 146//3 153//3
f 8//3 153//3 152//3
f 8//3 152//3 150//3
f 8//3 150//3 125//3
f 8//3 125//3 124//3
f 8//3 124//3 123//3
f 8//3 123//3 99//3
f 8//3 99//3 66//3
f 8//3 66//3 51//3
f 8//3 51//3 35//3
f 8//3 35//3 20//3
f 8//3 20//3 9//3
f 9//1 34//1 20//1
f 9//1 50//1 34//1
f 9//1 65//1 50//1
f 9//1 98//1 65//1
f 9//1 104//1 98//1
f 9//1 36//1 104//1
f 9//1 21//1 36//1
f 9//1 10//1 21//1
f 11//20 22//20 12//20
f 13//21 22//21 23//21
f 13//22 23//22 14//22
f 14//22 23//22 24//22
f 14//22 24//22 25//22
f 14//23 25//23 26//23
f 14//24 26//24 27//24
f 14//25 27//25 28//25
f 14//26 28//26 29//26
f 14//27 29//27 15//27
f 15//28 29//28 16//28
f 16//29 29//29 17//29
f 17//30 29//30 18//30
f 22//31 37//31 25//31
f 22//32 25//32 24//32
f 22//21 24//21 23//21
f 19//33 31//33 32//33
f 19//34 32//34 33//34
f 19//35 33//35 30//35
f 20//36 35//36 34//36
f 25//37 37//37 38//37
f 25//38 38//38 26//38
f 26//39 38//39 39//39
f 26//40 39//40 40//40
f 26//41 40//41 27//41
f 27//42 40//42 41//42
f 27//43 41//43 42//43
f 27//44 42//44 28//44
f 28//45 43//45 29//45
f 28//46 42//46 43//46
f 29//47 43//47 44//47
f 37//48 45//48 46//48
f 37//49 46//49 38//49
f 30//50 33//50 47//50
f 31//51 44//51 48//51
f 31//52 48//52 33//52
f 31//33 33//33 32//33
f 33//53 48//53 42//53
f 33//54 42//54 49//54
f 33//50 49//50 47//50
f 34//55 35//55 50//55
f 35//56 51//56 52//56
f 35//57 52//57 50//57
f 36//58 53//58 21//58
f 21//59 53//59 54//59
f 38//60 46//60 61//60
f 38//60 61//60 55//60
f 38//61 55//61 39//61
f 39//62 55//62 56//62
f 39//63 56//63 57//63
f 39//64 57//64 40//64
f 40//65 57//65 58//65
f 40//66 58//66 41//66
f 41//67 58//67 59//67
f 41//68 59//68 60//68
f 41//69 60//69 42//69
f 42//69 60//69 49//69
f 42//70 48//70 44//70
f 42//71 44//71 43//71
f 45//72 62//72 61//72
f 45//73 61//73 46//73
f 47//74 49//74 63//74
f 49//68 60//68 59//68
f 49//75 59//75 64//75
f 49//76 64//76 63//76
f 50//77 52//77 65//77
f 51//78 66//78 52//78
f 52//79 66//79 67//79
f 52//80 67//80 68//80
f 52//81 68//81 69//81
f 52//82 69//82 98//82
f 52//83 98//83 65//83
f 36//84 70//84 53//84
f 36//85 104//85 71//85
f 36//86 71//86 70//86
f 53//87 71//87 72//87
f 53//88 72//88 73//88
f 53//89 73//89 74//89
f 53//90 74//90 54//90
f 53//91 70//91 71//91
f 54//92 74//92 75//92
f 55//93 61//93 76//93
f 55//93 76//93 77//93
f 55//93 77//93 78//93
f 55//94 78//94 79//94
f 55//95 79//95 80//95
f 55//96 80//96 81//96
f 55//97 81//97 82//97
f 55//98 82//98 83//98
f 55//99 83//99 56//99
f 56//100 83//100 57//100
f 57//101 84//101 85//101
f 57//102 85//102 86//102
f 57//103 86//103 58//103
f 57//104 83//104 87//104
f 57//105 87//105 88//105
f 57//106 88//106 89//106
f 57//107 89//107 84//107
f 58//108 86//108 59//108
f 59//109 86//109 90//109
f 59//110 90//110 91//110
f 59//111 91//111 92//111
f 59//112 92//112 93//112
f 59//113 93//113 94//113
f 59//114 94//114 64//114
f 62//115 95//115 77//115
f 62//116 77//116 61//116
f 62//117 96//117 97//117
f 62//118 97//118 95//118
f 61//119 77//119 76//119
f 66//120 99//120 67//120
f 67//121 99//121 100//121
f 67//122 100//122 101//122
f 67//123 101//123 69//123
f 67//124 69//124 68//124
f 69//125 101//125 102//125
f 69//126 102//126 103//126
f 69//127 103//127 98//127
f 71//128 105//128 106//128
f 71//129 106//129 73//129
f 71//130 73//130 72//130
f 71//131 104//131 105//131
f 73//132 103//132 107//132
f 73//133 107//133 108//133
f 73//134 108//134 74//134
f 73//135 106//135 105//135
f 73//136 105//136 104//136
f 73//137 104//137 98//137
f 73//138 98//138 103//138
f 74//139 108//139 109//139
f 74//140 109//140 75//140
f 77//141 79//141 78//141
f 77//142 95//142 110//142
f 77//143 110//143 111//143
f 77//144 111//144 79//144
f 79//95 111//95 80//95
f 80//145 83//145 82//145
f 80//146 82//146 81//146
f 80//147 111//147 112//147
f 80//148 112//148 83//148
f 83//149 112//149 113//149
f 83//150 113//150 114//150
f 83//151 114//151 87//151
f 84//109 115//109 85//109
f 84//152 89//152 115//152
f 85//109 115//109 90//109
f 85//109 90//109 86//109
f 87//153 114//153 88//153
f 88//154 116//154 89//154
f 88//155 114//155 116//155
f 89//156 116//156 117//156
f 89//157 117//157 118//157
f 89//158 118//158 115//158
f 90//159 115//159 119//159
f 90//110 119//110 91//110
f 95//142 97//142 110//142
f 96//160 120//160 97//160
f 97//161 121//161 122//161
f 97//162 122//162 112//162
f 97//163 112//163 110//163
f 97//164 120//164 121//164
f 99//165 123//165 100//165
f 100//166 123//166 124//166
f 100//167 124//167 125//167
f 100//168 125//168 126//168
f 100//169 126//169 101//169
f 101//170 127//170 102//170
f 101//171 126//171 116//171
f 101//172 116//172 127//172
f 102//173 127//173 128//173
f 102//174 128//174 129//174
f 102//175 129//175 130//175
f 102//176 130//176 107//176
f 102//177 107//177 103//177
f 107//178 130//178 108//178
f 108//179 130//179 128//179
f 108//180 128//180 131//180
f 108//181 132//181 131//181
f 108//182 132//182 109//182
f 109//183 132//183 131//183
f 109//183 131//183 133//183
f 109//183 133//183 134//183
f 109//184 134//184 121//184
f 110//185 112//185 111//185
f 112//186 122//186 135//186
f 112//187 135//187 136//187
f 112//188 136//188 131//188
f 112//189 131//189 128//189
f 112//190 128//190 137//190
f 112//191 137//191 127//191
f 112//192 127//192 113//192
f 113//193 127//193 138//193
f 113//194 138//194 139//194
f 113//195 139//195 140//195
f 113//196 140//196 141//196
f 113//197 141//197 114//197
f 114//198 141//198 116//198
f 115//158 118//158 119//158
f 116//199 142//199 143//199
f 116//200 143//200 144//200
f 116//201 144//201 145//201
f 116//202 145//202 146//202
f 116//203 146//203 147//203
f 116//203 147//203 117//203
f 116//204 141//204 140//204
f 116//205 140//205 139//205
f 116//206 139//206 138//206
f 116//207 138//207 127//207
f 116//208 126//208 148//208
f 116//209 148//209 142//209
f 121//210 134//210 122//210
f 122//211 149//211 135//211
f 122//212 134//212 149//212
f 125//213 150//213 148//213
f 125//168 148//168 126//168
f 127//214 137//214 128//214
f 128//215 130//215 129//215
f 131//216 151//216 133//216
f 131//217 136//217 135//217
f 131//218 135//218 151//218
f 133//219 151//219 149//219
f 133//220 149//220 134//220
f 135//221 149//221 151//221
f 142//222 144//222 143//222
f 142//223 148//223 144//223
f 144//224 152//224 153//224
f 144//224 153//224 145//224
f 144//213 148//213 150//213
f 144//225 150//225 152//225
f 145//226 153//226 146//226
f 5//227 2//227 1//227
f 2//2 6//2 18//2
f 2//1 18//1 29//1
f 2//1 29//1 44//1
f 2//1 44//1 31//1
f 2//1 31//1 19//1
f 2//1 19//1 8//1
f 2//1 8//1 3//1
f 2//1 3//1 1//1
f 3//3 21//3 10//3
f 3//3 54//3 21//3
f 3//3 75//3 54//3
f 3//3 109//3 75//3
f 3//3 121//3 109//3
f 3//3 120//3 121//3
f 3//3 96//3 120//3
f 3//3 62//3 96//3
f 3//3 45//3 62//3
f 3//3 37//3 45//3
f 3//3 22//3 37//3
f 3//3 11//3 22//3
f 3//3 1//3 11//3
f 11//228 5//228 1//228
f 13//229 6//229 5//229
f 11//230 22//230 5//230
f 22//231 12//231 5//231
f 12//13 13//13 5//13
f 12//232 25//232 13//232
f 25//22 14//22 13//22
f 14//16 16//16 6//16
f 37//233 12//233 22//233
f 37//234 25//234 12//234
f 19//3 30//3 47//3
f 19//3 47//3 63//3
f 19//3 63//3 64//3
f 19//3 64//3 94//3
f 19//3 94//3 93//3
f 19//3 93//3 92//3
f 19//3 92//3 91//3
f 19//3 91//3 119//3
f 19//3 119//3 118//3
f 19//3 118//3 117//3
f 19//3 117//3 147//3
f 19//3 147//3 146//3
f 19//3 146//3 153//3
f 19//3 153//3 152//3
f 19//3 152//3 150//3
f 19//3 150//3 124//3
f 19//3 124//3 99//3
f 19//3 99//3 66//3
f 19//3 66//3 51//3
f 19//3 51//3 35//3
f 19//3 35//3 20//3
f 19//3 20//3 9//3
f 19//3 9//3 8//3
f 20//235 50//235 34//235
f 20//236 65//236 50//236
f 20//237 98//237 65//237
f 20//1 104//1 98//1
f 20//1 36//1 104//1
f 20//1 21//1 36//1
f 20//1 10//1 21//1
f 20//1 9//1 10//1
f 37//238 46//238 25//238
f 46//239 38//239 25//239
f 29//28 16//28 14//28
f 31//33 33//33 19//33
f 44//240 43//240 28//240
f 42//241 44//241 28//241
f 48//242 42//242 31//242
f 42//243 33//243 31//243
f 51//244 50//244 35//244
f 76//93 78//93 55//93
f 79//245 81//245 55//245
f 51//57 52//57 50//57
f 73//246 106//246 104//246
f 106//247 71//247 104//247
f 78//93 76//93 77//93
f 80//248 82//248 79//248
f 82//249 81//249 79//249
f 86//109 115//109 59//109
f 115//250 91//250 59//250
f 130//251 131//251 108//251
f 132//183 134//183 108//183
f 134//252 109//252 108//252
f 131//253 137//253 112//253
f 139//254 141//254 113//254
f 115//109 86//109 85//109
f 119//159 91//159 115//159
f 101//255 68//255 67//255
f 101//123 69//123 68//123
f 124//256 100//256 99//256
f 127//257 129//257 102//257
f 128//180 131//180 130//180
f 133//183 132//183 131//183
f 128//258 137//258 131//258
f 133//183 134//183 132//183
f 128//259 129//259 127//259
f 116//260 141//260 139//260
f 124//261 148//261 100//261
f 148//262 126//262 100//262
f 150//261 148//261 124//261
f 150//213 152//213 148//213
f 152//263 144//263 148//263
f 152//224 145//224 144//224
f 152//224 153//224 145//224
