# Blender 4.0.0
# www.blender.org
o decimated_mesh
v -0.026366 0.013051 -0.027742
v -0.026717 0.012217 -0.027742
v -0.038658 0.012260 0.000008
v -0.026974 0.018198 -0.027742
v -0.040061 0.012248 -0.000002
v -0.034145 0.012232 -0.020013
v -0.039274 0.018198 0.000007
v -0.028923 0.018198 -0.027742
v -0.037691 0.012170 -0.011654
v -0.028269 0.012309 -0.027707
v -0.040545 0.018198 -0.000005
v -0.038890 0.012309 -0.007073
v -0.034855 0.018199 -0.019958
v -0.038801 0.018198 -0.010290
vn 0.8565 -0.3609 0.3691
vn -0.7920 -0.0915 -0.6037
vn -0.0000 1.0000 -0.0000
vn -0.3744 -0.9246 -0.0700
vn -0.9612 -0.1209 -0.2478
vn -0.9101 -0.0946 -0.4034
vn -0.0091 -0.0008 1.0000
vn -0.0072 -0.0002 1.0000
vn -0.7912 -0.0887 -0.6051
vn -0.0000 1.0000 -0.0001
vn 0.0002 1.0000 0.0001
vn -0.0006 1.0000 -0.0000
vn -0.9225 -0.0847 -0.3765
vn -0.9152 -0.1054 -0.3890
vn -0.9833 -0.0800 -0.1636
vn -0.9831 -0.0762 -0.1666
vn -0.0000 -0.0059 -1.0000
vn -0.0174 -0.0021 -0.9998
vn -0.0218 0.0092 -0.9997
vn -0.9079 -0.1074 -0.4052
vn -0.0601 -0.9966 -0.0558
vn 0.0177 -0.9998 0.0092
vn 0.0086 -0.9999 0.0084
vn -0.0173 -0.9997 -0.0147
vn -0.0000 -0.0000 -1.0000
vn -0.9089 -0.1075 -0.4029
vn -0.9092 -0.0945 -0.4054
vn -0.0228 -0.0084 -0.9997
vn 0.0001 1.0000 -0.0000
vn -0.0091 -0.0004 1.0000
vn -0.0072 -0.0006 1.0000
vn -0.0001 1.0000 -0.0000
vn -0.7922 -0.0888 -0.6038
vn -0.7910 -0.0914 -0.6050
s 0
f 1//1 3//1 2//1
f 10//2 13//2 8//2
f 7//3 4//3 14//3
f 5//4 12//4 9//4
f 14//5 9//5 12//5
f 3//6 7//6 4//6
f 3//7 7//7 11//7
f 11//8 5//8 3//8
f 10//9 6//9 13//9
f 4//10 8//10 13//10
f 13//11 14//11 4//11
f 14//12 11//12 7//12
f 14//13 13//13 9//13
f 13//14 6//14 9//14
f 12//15 5//15 11//15
f 11//16 14//16 12//16
f 10//17 8//17 4//17
f 4//18 1//18 10//18
f 1//19 2//19 10//19
f 3//20 4//20 1//20
f 6//21 10//21 2//21
f 2//22 3//22 9//22
f 9//23 3//23 5//23
f 9//24 6//24 2//24
f 2//25 8//25 4//25
f 2//25 4//25 1//25
f 4//26 1//26 7//26
f 7//27 1//27 3//27
f 10//28 8//28 2//28
f 13//29 7//29 4//29
f 11//30 5//30 7//30
f 5//31 3//31 7//31
f 13//32 14//32 7//32
f 13//33 8//33 6//33
f 8//34 10//34 6//34
