# Blender 4.0.0
# www.blender.org
o decimated_mesh
v -0.013437 0.095591 0.040370
v -0.020936 0.093598 0.037654
v -0.021192 0.116540 0.036468
v -0.022511 0.093326 0.036671
v -0.024626 0.093234 0.034892
v -0.021520 0.049533 0.036555
v -0.020105 0.051900 0.037298
v -0.020470 0.024613 0.035607
v -0.019280 0.140346 0.034961
v -0.013406 0.024609 0.038203
v -0.013405 0.139740 0.037182
v -0.020676 0.140475 0.034060
v -0.024626 0.024609 0.032186
v -0.013406 0.024609 0.030563
v -0.015539 0.140586 0.036255
v -0.019272 0.141974 0.033633
v -0.024626 0.140266 0.030891
v -0.024626 0.024609 0.022302
v -0.013404 0.141240 0.036492
v -0.024626 0.140524 0.021893
v -0.013406 0.139939 0.030291
v -0.013406 0.142388 0.035090
v -0.020069 0.142457 0.031721
v -0.024624 0.142079 0.029070
v -0.024625 0.142620 0.026675
v -0.013406 0.142584 0.033017
v -0.024626 0.142024 0.023515
v -0.013404 0.141922 0.031240
vn -0.0000 -1.0000 -0.0000
vn -0.2946 0.6051 0.7396
vn -0.5335 0.0961 0.8404
vn -1.0000 0.0005 -0.0000
vn -0.2049 0.9547 0.2159
vn 0.4284 0.6634 -0.6135
vn -0.2932 0.0691 0.9536
vn -0.3799 -0.0627 0.9229
vn -0.2233 0.4075 0.8855
vn -0.3319 0.1785 0.9263
vn -0.4948 0.6333 0.5950
vn -0.2075 0.7568 0.6199
vn 0.5722 0.3539 -0.7398
vn -0.5929 0.0019 0.8053
vn -0.7367 -0.0266 0.6757
vn -0.2733 0.8993 0.3413
vn -0.1406 0.9444 0.2973
vn 0.2413 0.9095 -0.3386
vn 0.1073 0.9770 -0.1843
vn -0.0372 0.9949 0.0939
vn 0.0006 1.0000 -0.0000
vn -0.0001 1.0000 -0.0010
vn -0.7184 0.0590 0.6931
vn -0.6443 0.0433 0.7636
vn -0.6261 0.0914 0.7744
vn -0.2743 0.6318 0.7249
vn -1.0000 -0.0000 -0.0000
vn -1.0000 0.0026 0.0012
vn -1.0000 -0.0003 0.0004
vn -0.9528 0.0050 0.3035
vn -0.4431 -0.0165 0.8963
vn -1.0000 0.0004 -0.0004
vn -1.0000 0.0004 0.0001
vn -1.0000 -0.0014 0.0005
vn -1.0000 0.0007 0.0002
vn -1.0000 -0.0004 -0.0000
vn -1.0000 -0.0000 -0.0032
vn -1.0000 0.0013 -0.0012
vn -0.3505 0.0445 0.9355
vn -0.3445 0.0869 0.9348
vn 0.1423 0.0006 0.9898
vn -0.3369 -0.0148 0.9414
vn -0.2514 -0.0296 0.9674
vn -0.3445 -0.0502 0.9374
vn -0.4033 0.5798 0.7079
vn -0.5165 0.6072 0.6038
vn -0.5991 0.0028 0.8007
vn -0.6345 -0.0561 0.7709
vn -0.6432 -0.0166 0.7655
vn -0.0307 0.9977 0.0600
vn -0.9999 -0.0001 -0.0114
vn -1.0000 -0.0000 -0.0007
vn -0.5338 0.0377 0.8448
vn -0.5277 -0.0142 0.8493
vn -0.3954 -0.0516 0.9171
vn -0.3445 -0.0535 0.9373
vn -0.0000 1.0000 -0.0000
vn 0.0018 1.0000 -0.0034
vn -1.0000 -0.0015 -0.0002
vn -1.0000 -0.0030 -0.0007
vn -1.0000 0.0001 -0.0000
vn -0.5929 0.0028 0.8053
vn -0.5991 0.0019 0.8007
vn -1.0000 -0.0000 0.0014
s 0
f 13//1 18//1 14//1
f 16//2 9//2 15//2
f 12//3 3//3 9//3
f 25//4 20//4 17//4
f 25//5 24//5 23//5
f 27//6 28//6 20//6
f 1//7 11//7 3//7
f 7//8 6//8 10//8
f 11//9 19//9 15//9
f 11//10 15//10 9//10
f 24//11 12//11 16//11
f 16//12 19//12 22//12
f 21//13 20//13 28//13
f 18//14 14//14 21//14
f 5//15 13//15 6//15
f 24//16 16//16 23//16
f 22//17 23//17 16//17
f 26//18 28//18 27//18
f 26//19 27//19 25//19
f 23//20 22//20 26//20
f 14//21 8//21 10//21
f 8//22 14//22 13//22
f 17//23 5//23 3//23
f 5//24 4//24 3//24
f 3//25 12//25 17//25
f 19//26 16//26 15//26
f 13//27 5//27 18//27
f 5//27 17//27 20//27
f 18//27 5//27 20//27
f 17//28 24//28 25//28
f 25//29 27//29 20//29
f 3//30 6//30 2//30
f 2//31 6//31 7//31
f 26//32 21//32 22//32
f 21//33 11//33 19//33
f 22//34 21//34 19//34
f 11//35 21//35 1//35
f 1//36 14//36 10//36
f 14//37 1//37 21//37
f 21//38 26//38 28//38
f 3//39 2//39 1//39
f 11//40 9//40 3//40
f 3//41 4//41 6//41
f 1//42 2//42 7//42
f 10//43 1//43 7//43
f 6//44 8//44 10//44
f 16//45 12//45 9//45
f 17//46 12//46 24//46
f 18//47 21//47 20//47
f 8//48 6//48 13//48
f 6//49 4//49 5//49
f 26//50 25//50 23//50
f 10//51 1//51 11//51
f 10//52 11//52 19//52
f 4//53 2//53 3//53
f 4//54 6//54 2//54
f 6//55 8//55 7//55
f 8//56 10//56 7//56
f 13//57 10//57 14//57
f 14//27 10//27 19//27
f 8//58 10//58 13//58
f 14//27 19//27 28//27
f 28//59 19//59 26//59
f 26//60 19//60 22//60
f 20//27 13//27 5//27
f 25//35 27//35 17//35
f 27//61 20//61 17//61
f 20//27 18//27 13//27
f 18//62 14//62 20//62
f 20//63 14//63 21//63
f 21//64 14//64 28//64
