# Blender 4.0.0
# www.blender.org
o decimated_mesh
v -0.024629 0.093317 0.034888
v -0.029794 0.108421 0.029786
v -0.030111 0.093339 0.030278
v -0.024629 0.116220 0.033688
v -0.036293 0.116512 0.020744
v -0.036419 0.093317 0.022222
v -0.037719 0.093509 0.019781
v -0.036628 0.063566 0.021320
v -0.036321 0.044743 0.020751
v -0.041348 0.093160 0.010714
v -0.028744 0.024628 0.028745
v -0.024629 0.140003 0.030921
v -0.034203 0.140545 0.019811
v -0.034947 0.138520 0.018990
v -0.037647 0.071340 0.019663
v -0.035022 0.024764 0.020664
v -0.037741 0.019839 0.013332
v -0.024629 0.024622 0.032182
v -0.027796 0.140562 0.028096
v -0.040352 0.118553 0.010088
v -0.043132 0.093361 0.000017
v -0.038897 0.019839 0.010499
v -0.028439 0.019838 0.013246
v -0.024629 0.024622 0.022301
v -0.024627 0.141310 0.029997
v -0.038861 0.134268 0.010400
v -0.041480 0.071316 0.009348
v -0.040531 0.050978 0.011090
v -0.031970 0.019822 0.000017
v -0.027098 0.142000 0.027077
v -0.033156 0.141984 0.019243
v -0.037681 0.140562 0.011476
v -0.040154 0.039281 0.010411
v -0.024635 0.142345 0.028458
v -0.038855 0.140458 0.006795
v -0.040672 0.019839 0.000027
v -0.033469 0.140576 0.000007
v -0.024629 0.140624 0.021966
v -0.036564 0.142151 0.010453
v -0.037672 0.141372 0.009446
v -0.040180 0.139421 0.000011
v -0.024626 0.142572 0.026064
v -0.031362 0.142541 0.019571
v -0.038857 0.141926 0.000005
v -0.024629 0.142045 0.023602
v -0.037095 0.142576 0.000009
v -0.035608 0.142511 0.000007
v -0.035608 0.142547 0.009714
v -0.034649 0.142162 0.000007
vn -1.0000 0.0014 0.0001
vn -0.5305 0.4901 0.6916
vn -0.6440 0.7548 0.1251
vn -0.9914 0.0635 0.1147
vn -0.0019 -1.0000 0.0004
vn -0.3991 -0.7835 0.4764
vn -0.7187 -0.4238 0.5512
vn -0.6402 0.0402 0.7671
vn 0.8517 0.3955 -0.3437
vn 0.0021 -0.9696 0.2445
vn 0.7822 -0.6230 -0.0000
vn 0.3380 0.9300 -0.1446
vn -0.9277 0.0011 0.3734
vn 0.9300 -0.2715 -0.2479
vn 0.7600 0.5657 -0.3200
vn -0.9043 -0.0277 0.4261
vn -0.8382 0.5077 0.1989
vn -0.2942 0.9472 0.1273
vn -0.3952 0.7611 0.5144
vn -0.0038 1.0000 -0.0007
vn 0.4506 0.8729 -0.1870
vn -0.9917 -0.0391 0.1228
vn -0.8796 0.4649 0.1008
vn -1.0000 -0.0000 -0.0000
vn 1.0000 0.0013 -0.0014
vn -1.0000 -0.0067 -0.0042
vn -0.9999 0.0097 0.0114
vn -0.3457 0.9367 0.0557
vn -0.3453 0.9368 0.0557
vn -0.2504 0.9450 0.2103
vn -0.3289 0.9100 0.2524
vn -0.9077 0.1798 0.3791
vn -0.9854 0.0427 0.1651
vn -0.9815 0.0898 0.1692
vn -0.9791 0.1032 0.1755
vn 0.0005 1.0000 -0.0013
vn 0.0002 1.0000 -0.0001
vn -0.7735 0.0812 0.6285
vn -0.7878 0.0921 0.6090
vn -0.7869 0.0366 0.6160
vn -0.7926 0.0431 0.6082
vn -0.6545 0.0874 0.7510
vn -0.6754 0.0805 0.7330
vn -0.6431 0.0384 0.7649
vn -0.7024 0.6622 0.2611
vn -0.6863 0.6680 0.2877
vn -0.7159 0.6354 0.2896
vn -0.9239 0.1105 0.3662
vn -0.9214 0.0799 0.3803
vn -0.9306 0.0455 0.3632
vn -0.9281 0.0421 0.3699
vn -0.9254 0.0860 0.3690
vn -0.9490 -0.0118 0.3152
vn -0.9373 -0.0139 0.3483
vn -0.9372 -0.0161 0.3483
vn -0.9272 -0.0515 0.3709
vn -0.9243 -0.0580 0.3772
vn -0.9229 -0.0573 0.3808
vn -0.9248 -0.0618 0.3755
vn -0.9233 -0.0304 0.3828
vn -0.9283 -0.0050 0.3718
vn -0.0014 -0.0018 -1.0000
vn -0.0002 -0.0004 -1.0000
vn 0.0006 0.0001 1.0000
vn -0.0011 -0.0002 -1.0000
vn 0.0002 0.0025 1.0000
vn 0.0011 0.0028 -1.0000
vn -0.8698 -0.0088 0.4932
vn -0.8809 0.0349 0.4720
vn -0.8828 -0.0054 0.4698
vn -0.3171 0.9379 0.1407
vn -0.7758 0.6166 0.1335
vn 0.0436 0.9990 -0.0037
vn 0.0100 0.9999 -0.0037
vn -0.0944 0.9911 0.0933
vn -0.9612 0.1395 0.2379
vn -0.4980 0.6492 0.5749
vn -0.6131 0.6328 0.4728
vn -0.6132 0.6328 0.4728
vn -0.8418 0.0938 0.5315
vn -0.9927 -0.0364 0.1152
vn -0.9864 -0.0043 0.1644
vn -0.9947 -0.0333 0.0975
vn -0.9840 -0.0629 0.1668
vn -0.7873 -0.0131 0.6165
vn -0.7890 -0.0540 0.6121
vn -0.7268 -0.0326 0.6860
vn -0.7182 -0.0274 0.6953
vn -0.6413 -0.0889 0.7621
vn -0.6397 0.0634 0.7660
vn -0.6434 -0.0299 0.7649
vn -0.6408 -0.0302 0.7671
vn -1.0000 -0.0000 -0.0003
vn -1.0000 -0.0000 -0.0009
vn -1.0000 -0.0003 -0.0028
vn -0.7589 -0.0296 0.6506
vn -0.7643 -0.0320 0.6441
vn -0.9999 -0.0145 -0.0049
vn -1.0000 -0.0000 -0.0002
vn -0.6132 0.6328 0.4729
vn -0.9220 0.0864 0.3773
vn -0.9262 0.0806 0.3683
vn -0.9216 -0.0616 0.3832
vn -0.9242 -0.0597 0.3772
vn 0.0015 1.0000 -0.0006
vn 0.0002 1.0000 -0.0012
vn -0.9257 -0.0582 0.3739
vn -0.9498 0.0009 0.3127
vn -1.0000 -0.0000 0.0007
vn 0.0435 0.9988 -0.0207
vn -0.0087 1.0000 0.0043
vn -0.7118 0.6359 0.2983
vn -0.9421 -0.0153 0.3349
vn -0.9364 -0.0150 0.3507
vn -0.0004 0.0001 1.0000
vn -0.9276 -0.0115 0.3734
vn 0.0011 0.0002 1.0000
vn -0.0086 1.0000 0.0043
vn 0.0004 -0.0000 -1.0000
vn 0.0004 0.0010 -1.0000
vn -0.0010 0.0084 -1.0000
vn -0.3457 0.9367 0.0558
vn -0.6908 0.6664 0.2805
vn 0.0052 -0.0002 1.0000
vn -0.3453 0.9368 0.0556
s 0
f 12//1 42//1 38//1
f 25//2 19//2 12//2
f 44//3 40//3 39//3
f 41//4 21//4 20//4
f 22//5 36//5 29//5
f 18//6 11//6 17//6
f 17//7 11//7 16//7
f 4//8 2//8 1//8
f 38//9 37//9 45//9
f 17//10 23//10 18//10
f 18//11 23//11 24//11
f 47//12 42//12 49//12
f 37//13 24//13 38//13
f 24//14 23//14 29//14
f 49//15 45//15 37//15
f 15//16 9//16 8//16
f 32//17 40//17 35//17
f 43//18 48//18 39//18
f 25//19 34//19 30//19
f 42//20 47//20 43//20
f 42//21 45//21 49//21
f 33//22 28//22 36//22
f 35//23 44//23 41//23
f 24//24 1//24 38//24
f 1//24 4//24 38//24
f 45//25 42//25 38//25
f 42//26 12//26 34//26
f 12//24 38//24 4//24
f 1//24 24//24 18//24
f 12//27 25//27 34//27
f 44//28 39//28 46//28
f 39//29 48//29 46//29
f 34//30 43//30 30//30
f 43//31 31//31 30//31
f 13//32 32//32 14//32
f 21//33 10//33 20//33
f 20//34 26//34 41//34
f 26//35 35//35 41//35
f 29//36 22//36 23//36
f 17//37 23//37 22//37
f 2//38 19//38 5//38
f 19//39 13//39 5//39
f 3//40 2//40 6//40
f 5//41 6//41 2//41
f 12//42 19//42 4//42
f 19//43 2//43 4//43
f 2//44 3//44 1//44
f 39//45 40//45 32//45
f 32//46 13//46 39//46
f 31//47 39//47 13//47
f 14//48 32//48 26//48
f 26//49 20//49 14//49
f 20//50 10//50 5//50
f 5//51 10//51 7//51
f 5//52 14//52 20//52
f 29//53 24//53 37//53
f 27//54 28//54 15//54
f 10//55 27//55 15//55
f 28//56 33//56 9//56
f 33//57 22//57 17//57
f 16//58 33//58 17//58
f 16//59 9//59 33//59
f 9//60 15//60 28//60
f 15//61 7//61 10//61
f 46//62 47//62 37//62
f 47//63 49//63 37//63
f 37//64 21//64 29//64
f 29//65 36//65 21//65
f 21//64 37//64 41//64
f 37//66 44//66 41//66
f 37//67 44//67 46//67
f 8//68 6//68 15//68
f 6//69 5//69 7//69
f 7//70 15//70 6//70
f 39//71 31//71 43//71
f 35//72 40//72 44//72
f 46//73 48//73 47//73
f 48//74 43//74 47//74
f 43//75 34//75 42//75
f 26//76 32//76 35//76
f 25//77 30//77 19//77
f 13//78 19//78 31//78
f 19//79 30//79 31//79
f 14//80 5//80 13//80
f 28//81 27//81 36//81
f 27//82 10//82 21//82
f 21//83 36//83 27//83
f 36//84 22//84 33//84
f 3//85 6//85 8//85
f 9//86 16//86 11//86
f 8//87 9//87 18//87
f 1//88 8//88 18//88
f 1//89 3//89 8//89
f 11//90 18//90 9//90
f 3//91 11//91 1//91
f 11//92 18//92 1//92
f 18//93 1//93 25//93
f 25//94 1//94 4//94
f 25//95 4//95 12//95
f 8//96 11//96 3//96
f 8//97 9//97 11//97
f 24//24 18//24 25//24
f 42//98 25//98 34//98
f 24//99 25//99 42//99
f 30//100 13//100 19//100
f 14//101 26//101 5//101
f 26//102 20//102 5//102
f 16//103 9//103 17//103
f 9//104 22//104 17//104
f 22//105 17//105 29//105
f 29//106 17//106 23//106
f 33//107 22//107 9//107
f 29//108 24//108 38//108
f 38//109 24//109 42//109
f 47//110 46//110 42//110
f 46//111 43//111 42//111
f 31//78 13//78 30//78
f 31//112 32//112 13//112
f 27//113 28//113 10//113
f 28//114 15//114 10//114
f 44//115 29//115 37//115
f 37//116 29//116 38//116
f 21//117 29//117 44//117
f 46//118 48//118 43//118
f 37//119 44//119 49//119
f 44//120 47//120 49//120
f 44//121 46//121 47//121
f 44//122 48//122 46//122
f 39//123 32//123 31//123
f 41//124 21//124 44//124
f 39//125 48//125 44//125
