# Blender 4.0.0
# www.blender.org
o decimated_mesh
v 0.000032 0.082224 -0.042753
v -0.000004 0.082223 -0.035561
v 0.013394 0.082223 -0.032949
v 0.024618 0.086319 -0.025587
v 0.024618 0.139615 -0.021769
v 0.013337 0.082218 -0.040433
v 0.024618 0.086319 -0.034858
v -0.000004 0.139942 -0.033062
v 0.009380 0.082223 -0.041476
v 0.021259 0.086324 -0.037492
v 0.022497 0.086319 -0.036659
v 0.024618 0.140639 -0.021970
v -0.000004 0.141372 -0.033570
v 0.024618 0.142104 -0.023635
v -0.000004 0.142229 -0.034483
v 0.011002 0.116154 -0.040288
v 0.021017 0.117559 -0.036494
v -0.000004 0.142583 -0.035610
v 0.000026 0.135497 -0.040158
v 0.010395 0.134245 -0.038856
v 0.024616 0.142583 -0.026973
v -0.000000 0.139923 -0.039552
v 0.010154 0.142547 -0.035568
v -0.000004 0.142566 -0.036978
v 0.000001 0.141095 -0.039112
v 0.005431 0.140476 -0.038905
v 0.011002 0.140635 -0.037848
v 0.019345 0.140298 -0.034953
v 0.020761 0.133158 -0.034996
v 0.024619 0.142168 -0.028837
v 0.019049 0.142472 -0.032414
v 0.009791 0.142053 -0.036949
v 0.020881 0.139727 -0.034075
v 0.024619 0.141232 -0.030097
v 0.019323 0.142002 -0.033577
v -0.000000 0.142211 -0.037993
v 0.020695 0.140711 -0.033869
v 0.024618 0.139919 -0.030972
vn -0.1201 -0.7784 0.6162
vn 0.5583 0.0308 -0.8291
vn -1.0000 -0.0013 -0.0011
vn 1.0000 -0.0016 0.0015
vn 0.3424 0.0855 -0.9356
vn 0.5022 -0.4329 -0.7486
vn -0.1263 0.9463 0.2977
vn 0.5878 0.4487 -0.6732
vn 0.3425 -0.9395 -0.0019
vn 0.5192 -0.5969 -0.6117
vn 0.5515 0.2700 -0.7893
vn -0.0000 -1.0000 -0.0001
vn 0.0864 0.7054 -0.7036
vn 0.0756 0.3508 -0.9334
vn -0.4085 0.1750 0.8958
vn 0.2500 0.9168 -0.3114
vn 0.4535 0.7152 -0.5318
vn 0.4418 0.0929 -0.8923
vn 0.1359 0.1006 -0.9856
vn 0.1028 0.6497 -0.7532
vn -0.2775 0.7214 0.6345
vn 0.1808 0.1364 -0.9740
vn 0.6330 0.0960 -0.7681
vn -0.0498 0.9886 0.1419
vn 0.6066 0.2716 -0.7472
vn 0.4167 0.0650 -0.9067
vn 0.0036 0.9999 -0.0102
vn 0.9454 0.0465 -0.3226
vn 1.0000 0.0002 0.0001
vn -1.0000 -0.0006 -0.0006
vn -1.0000 0.0036 -0.0045
vn -1.0000 0.0010 -0.0007
vn -1.0000 -0.0059 -0.0006
vn -1.0000 0.0001 -0.0044
vn -1.0000 0.0002 -0.0051
vn 1.0000 -0.0001 -0.0001
vn 1.0000 -0.0000 -0.0000
vn 1.0000 -0.0033 0.0023
vn 1.0000 -0.0005 -0.0006
vn 1.0000 0.0007 -0.0000
vn 1.0000 -0.0000 -0.0001
vn 0.3501 0.0326 -0.9362
vn 0.3355 0.0271 -0.9417
vn 0.3471 0.0888 -0.9336
vn 0.3298 0.1164 -0.9368
vn 0.4825 0.6465 -0.5910
vn 0.3428 -0.9394 -0.0000
vn 0.5234 0.1088 -0.8451
vn 0.2550 0.0217 -0.9667
vn -0.0000 -1.0000 -0.0000
vn -0.0016 -1.0000 0.0008
vn 0.0503 0.9428 -0.3296
vn 0.0500 0.9361 -0.3482
vn 0.1341 0.9213 -0.3650
vn 0.1302 0.9296 -0.3449
vn 0.2528 0.6630 -0.7046
vn 0.2827 0.6050 -0.7444
vn -0.3981 0.3075 0.8643
vn 0.1352 0.0282 -0.9904
vn 0.0737 0.0485 -0.9961
vn 0.1037 0.1354 -0.9854
vn 0.1339 0.0826 -0.9875
vn 0.1310 0.6085 -0.7827
vn -0.2855 0.6985 0.6562
vn 0.3946 0.5805 -0.7123
vn 0.6746 0.0534 -0.7363
vn 0.6463 0.0510 -0.7614
vn 0.1891 0.9586 -0.2131
vn 0.3694 0.0402 -0.9284
vn 0.0246 0.9987 -0.0456
vn 0.0036 0.9999 -0.0129
vn 0.3651 0.0665 -0.9286
vn 0.4170 0.0393 -0.9081
vn -1.0000 -0.0000 -0.0000
vn -1.0000 -0.0000 -0.0011
vn -1.0000 -0.0003 -0.0051
vn -0.9978 0.0031 -0.0662
vn 1.0000 -0.0000 0.0001
vn -1.0000 0.0002 0.0003
vn 0.0046 0.9999 -0.0129
vn -1.0000 -0.0007 -0.0006
vn -1.0000 0.0028 -0.0042
vn -1.0000 0.0017 -0.0026
vn 0.6468 0.0347 -0.7619
vn 0.7339 0.0491 -0.6775
vn 1.0000 -0.0000 -0.0005
vn 1.0000 -0.0009 0.0005
vn 1.0000 0.0057 0.0003
vn 1.0000 0.0003 0.0002
vn -0.2760 0.7217 0.6348
vn -0.2881 0.6979 0.6556
vn 0.0031 1.0000 -0.0094
vn 0.0475 0.9429 -0.3297
vn 0.0522 0.9358 -0.3487
vn 0.6456 0.0835 -0.7591
s 0
f 2//1 3//1 4//1
f 11//2 10//2 17//2
f 24//3 25//3 8//3
f 34//4 21//4 38//4
f 16//5 20//5 17//5
f 10//6 11//6 6//6
f 14//7 18//7 15//7
f 34//8 38//8 37//8
f 7//9 3//9 6//9
f 7//10 6//10 11//10
f 37//11 33//11 28//11
f 1//12 9//12 2//12
f 36//13 32//13 25//13
f 22//14 25//14 26//14
f 12//15 8//15 5//15
f 35//16 31//16 30//16
f 35//17 30//17 34//17
f 28//18 29//18 17//18
f 26//19 20//19 19//19
f 32//20 26//20 25//20
f 14//21 13//21 12//21
f 27//22 20//22 26//22
f 29//23 33//23 38//23
f 21//24 18//24 14//24
f 37//25 38//25 33//25
f 5//26 4//26 8//26
f 18//27 21//27 23//27
f 29//28 11//28 17//28
f 13//29 18//29 15//29
f 18//30 24//30 8//30
f 24//31 36//31 25//31
f 8//32 25//32 22//32
f 22//33 19//33 8//33
f 19//34 1//34 8//34
f 8//35 1//35 2//35
f 8//36 18//36 13//36
f 4//37 7//37 38//37
f 34//38 30//38 21//38
f 21//39 14//39 5//39
f 38//40 21//40 5//40
f 12//41 5//41 14//41
f 5//37 4//37 38//37
f 17//42 10//42 16//42
f 10//43 6//43 16//43
f 28//44 17//44 20//44
f 20//45 27//45 28//45
f 37//46 35//46 34//46
f 7//47 4//47 3//47
f 33//48 29//48 28//48
f 16//49 6//49 9//49
f 3//50 2//50 9//50
f 6//51 3//51 9//51
f 32//52 36//52 24//52
f 24//53 23//53 32//53
f 35//54 32//54 23//54
f 23//55 31//55 35//55
f 32//56 35//56 27//56
f 35//57 28//57 27//57
f 12//58 13//58 8//58
f 16//59 9//59 1//59
f 1//60 19//60 16//60
f 22//61 26//61 19//61
f 16//62 19//62 20//62
f 27//63 26//63 32//63
f 14//64 15//64 13//64
f 35//65 37//65 28//65
f 38//66 7//66 29//66
f 7//67 11//67 29//67
f 30//68 31//68 21//68
f 8//69 4//69 2//69
f 31//70 23//70 21//70
f 23//71 24//71 18//71
f 4//72 2//72 5//72
f 5//73 2//73 8//73
f 8//74 15//74 18//74
f 8//74 18//74 2//74
f 18//75 22//75 2//75
f 22//76 1//76 2//76
f 22//77 19//77 1//77
f 7//37 30//37 4//37
f 30//78 5//78 4//78
f 30//78 12//78 5//78
f 13//79 15//79 8//79
f 21//80 24//80 18//80
f 24//81 22//81 18//81
f 24//82 36//82 22//82
f 36//83 25//83 22//83
f 11//84 17//84 7//84
f 17//85 38//85 7//85
f 38//86 30//86 7//86
f 38//87 34//87 30//87
f 21//88 14//88 30//88
f 14//89 12//89 30//89
f 14//90 15//90 12//90
f 15//91 13//91 12//91
f 23//92 24//92 21//92
f 23//93 36//93 24//93
f 23//94 32//94 36//94
f 29//95 38//95 17//95
