# Blender 4.0.0
# www.blender.org
o decimated_mesh
v 0.036901 0.142571 -0.000007
v 0.024622 0.142573 -0.026055
v 0.035610 0.142511 -0.000007
v 0.024630 0.142508 -0.027516
v 0.023777 0.019850 -0.032554
v 0.034648 0.142150 -0.000007
v 0.038783 0.141994 -0.000009
v 0.035531 0.142527 -0.010191
v 0.031198 0.142541 -0.019840
v 0.024631 0.142127 -0.028952
v 0.024623 0.028599 -0.032593
v 0.024623 0.140288 -0.030877
v 0.024622 0.094013 -0.034901
v 0.024620 0.072614 -0.034764
v 0.024623 0.051157 -0.034085
v 0.023856 0.019839 -0.020223
v 0.024623 0.140624 -0.021962
v 0.024622 0.142059 -0.023623
v 0.038852 0.140453 -0.006846
v 0.036946 0.142058 -0.009690
v 0.027096 0.142001 -0.027078
v 0.027875 0.140558 -0.028018
v 0.033469 0.140552 -0.000007
v 0.040172 0.139438 -0.000014
v 0.037844 0.140634 -0.010874
v 0.033195 0.141978 -0.019178
v 0.032044 0.019839 -0.000010
v 0.028494 0.019842 -0.028490
v 0.033712 0.140498 -0.020566
v 0.029797 0.108409 -0.029791
v 0.040668 0.019839 -0.000031
v 0.038857 0.134268 -0.010398
v 0.034811 0.140464 -0.018628
v 0.030140 0.093327 -0.030246
v 0.036465 0.051922 -0.021060
v 0.034988 0.025042 -0.020756
v 0.036285 0.116745 -0.020730
v 0.036416 0.093317 -0.022222
v 0.040326 0.115319 -0.010931
v 0.041375 0.093066 -0.010639
v 0.034931 0.019839 -0.020057
v 0.037692 0.093499 -0.019844
v 0.037645 0.071340 -0.019659
v 0.043134 0.093254 -0.000017
v 0.038899 0.019839 -0.010501
vn -0.3472 0.9259 0.1487
vn -0.5365 -0.0267 -0.8435
vn -0.4439 0.8768 0.1851
vn 0.8743 0.4754 -0.0983
vn 0.9861 -0.0331 -0.1627
vn -0.9954 0.0083 -0.0955
vn -0.0000 1.0000 -0.0000
vn -0.8505 0.3979 0.3440
vn 0.7503 0.6466 -0.1381
vn 0.9795 0.1010 -0.1743
vn 0.5377 -0.0557 -0.8413
vn -0.9126 -0.0025 -0.4088
vn 0.0043 1.0000 0.0005
vn 0.7845 0.0892 -0.6137
vn 0.9625 0.1357 -0.2348
vn 1.0000 0.0005 -0.0000
vn 0.5964 0.0695 -0.7997
vn -0.9275 0.0113 0.3737
vn -0.0007 0.0013 -1.0000
vn 0.9477 -0.0326 -0.3176
vn 0.9218 -0.0614 -0.3827
vn 0.9509 -0.0356 -0.3075
vn 0.9233 -0.0551 -0.3801
vn 0.9284 -0.0051 -0.3716
vn 0.3327 0.9413 -0.0569
vn 0.2929 0.9552 -0.0435
vn -0.7620 0.5623 0.3213
vn 0.9855 -0.0336 -0.1665
vn 0.0009 1.0000 0.0009
vn -0.0000 1.0000 0.0004
vn 0.3407 0.9034 -0.2604
vn 0.2372 0.9391 -0.2488
vn 0.2314 0.9516 -0.2021
vn 0.8665 0.0972 -0.4896
vn 0.7670 0.6203 -0.1642
vn 0.9899 0.0635 -0.1264
vn 0.9855 0.0443 -0.1640
vn 0.9830 0.0808 -0.1647
vn 0.6023 0.6477 -0.4665
vn 0.6114 0.6365 -0.4702
vn -0.0465 0.9989 0.0020
vn -0.0005 1.0000 0.0016
vn 0.0463 0.9980 -0.0439
vn 0.7931 0.0432 -0.6076
vn 0.7872 0.0365 -0.6157
vn 0.7737 0.0809 -0.6284
vn 0.9237 0.1198 -0.3639
vn 0.9255 0.0821 -0.3697
vn 0.9191 0.0911 -0.3833
vn 0.9284 0.0389 -0.3696
vn 0.9258 0.0418 -0.3757
vn 1.0000 0.0001 -0.0002
vn 0.9999 -0.0117 0.0058
vn 1.0000 -0.0070 0.0027
vn 1.0000 -0.0070 0.0003
vn -1.0000 0.0064 0.0064
vn 0.8505 -0.0137 -0.5257
vn 0.8794 0.0352 -0.4747
vn 0.8813 -0.0058 -0.4726
vn 0.6871 0.6690 -0.2834
vn 0.6975 0.6044 -0.3850
vn 0.7053 0.6494 -0.2842
vn 0.6543 0.0806 -0.7519
vn 0.6471 0.0377 -0.7615
vn 0.3084 0.9423 -0.1298
vn 0.3619 0.9181 -0.1613
vn -0.9268 0.0109 0.3754
vn 0.4827 0.6460 -0.5914
vn 0.4808 0.6332 -0.6066
vn -0.0000 -0.0000 -1.0000
vn -0.0008 -0.0000 -1.0000
vn 0.0024 -0.0003 1.0000
vn -0.0011 -0.0000 -1.0000
vn -0.0008 0.0017 -1.0000
vn 0.7917 -0.0898 -0.6043
vn 0.7429 -0.0179 -0.6692
vn 0.7442 -0.0484 -0.6662
vn 0.7854 -0.0753 -0.6144
vn 0.7562 0.0280 -0.6537
vn 0.6513 -0.0663 -0.7560
vn 0.7405 -0.0444 -0.6706
vn 0.7404 -0.0211 -0.6719
vn 0.6445 -0.0050 -0.7646
vn 0.0180 0.9998 -0.0067
vn 0.0086 1.0000 -0.0040
vn -0.0465 0.9987 0.0220
vn -0.0000 -0.0000 1.0000
vn 0.0010 -0.0001 1.0000
vn 0.0011 -0.0001 1.0000
vn 0.0043 0.0002 1.0000
vn 0.3589 0.9213 -0.1496
vn 0.3107 0.9404 -0.1382
vn 0.9998 -0.0202 0.0062
vn 1.0000 -0.0089 0.0044
vn 1.0000 -0.0071 0.0036
vn 1.0000 -0.0068 -0.0016
vn 0.6907 0.6673 -0.2786
vn 0.7051 0.6471 -0.2899
vn 0.6045 0.6469 -0.4649
vn 0.6095 0.6368 -0.4722
vn 1.0000 -0.0065 -0.0058
vn -0.0010 1.0000 0.0009
vn 0.0024 1.0000 -0.0009
vn 0.0007 1.0000 -0.0002
vn 0.9490 -0.0327 -0.3137
vn 0.6834 -0.0230 -0.7297
vn 0.7270 -0.0327 -0.6858
vn 0.6723 -0.0489 -0.7387
vn 0.7485 -0.0326 -0.6623
vn 0.7812 -0.0500 -0.6223
vn 0.9461 -0.0342 -0.3221
vn 0.7876 -0.0164 -0.6160
s 0
f 3//1 2//1 6//1
f 5//2 14//2 15//2
f 2//3 18//3 6//3
f 24//4 19//4 7//4
f 31//5 40//5 44//5
f 12//6 13//6 5//6
f 45//7 27//7 31//7
f 17//8 23//8 18//8
f 19//9 20//9 7//9
f 32//10 19//10 24//10
f 11//11 5//11 15//11
f 13//12 14//12 5//12
f 2//13 3//13 9//13
f 22//14 29//14 37//14
f 32//15 25//15 19//15
f 2//16 17//16 12//16
f 12//17 30//17 13//17
f 16//18 23//18 17//18
f 1//19 7//19 23//19
f 40//20 45//20 35//20
f 45//21 41//21 36//21
f 40//22 35//22 43//22
f 36//23 35//23 45//23
f 43//24 42//24 40//24
f 7//25 20//25 8//25
f 8//26 1//26 7//26
f 18//27 23//27 6//27
f 31//28 45//28 40//28
f 27//7 45//7 16//7
f 16//29 28//29 5//29
f 28//30 16//30 41//30
f 41//7 16//7 45//7
f 26//31 21//31 9//31
f 21//32 10//32 4//32
f 4//33 9//33 21//33
f 33//34 37//34 29//34
f 19//35 25//35 20//35
f 24//36 44//36 39//36
f 44//37 40//37 39//37
f 39//38 32//38 24//38
f 29//39 22//39 26//39
f 22//40 21//40 26//40
f 3//41 1//41 8//41
f 8//42 9//42 3//42
f 9//43 4//43 2//43
f 37//44 38//44 30//44
f 38//45 34//45 30//45
f 30//46 22//46 37//46
f 33//47 25//47 32//47
f 32//48 39//48 37//48
f 33//49 32//49 37//49
f 39//50 40//50 42//50
f 42//51 37//51 39//51
f 18//52 17//52 2//52
f 2//53 12//53 4//53
f 12//54 10//54 4//54
f 12//55 17//55 5//55
f 17//56 5//56 16//56
f 43//57 35//57 38//57
f 38//58 37//58 42//58
f 42//59 43//59 38//59
f 25//60 33//60 20//60
f 33//61 29//61 26//61
f 26//62 20//62 33//62
f 22//63 30//63 12//63
f 30//64 34//64 13//64
f 20//65 26//65 9//65
f 8//66 20//66 9//66
f 16//67 27//67 23//67
f 21//68 22//68 10//68
f 22//69 12//69 10//69
f 3//70 23//70 6//70
f 23//71 44//71 27//71
f 27//72 31//72 44//72
f 44//73 23//73 24//73
f 23//74 7//74 24//74
f 1//70 23//70 3//70
f 36//75 41//75 28//75
f 38//76 35//76 14//76
f 35//77 36//77 11//77
f 34//78 38//78 14//78
f 36//79 28//79 11//79
f 11//80 28//80 5//80
f 11//81 15//81 35//81
f 15//82 14//82 35//82
f 14//83 13//83 34//83
f 8//84 9//84 1//84
f 9//85 2//85 1//85
f 2//86 3//86 1//86
f 3//87 6//87 1//87
f 6//87 27//87 1//87
f 27//88 44//88 1//88
f 44//89 7//89 1//89
f 44//90 24//90 7//90
f 20//91 26//91 8//91
f 26//92 9//92 8//92
f 4//93 2//93 10//93
f 10//94 2//94 12//94
f 12//95 2//95 5//95
f 5//96 2//96 18//96
f 23//87 27//87 6//87
f 16//7 27//7 31//7
f 25//97 26//97 20//97
f 25//98 33//98 26//98
f 29//99 21//99 26//99
f 29//100 22//100 21//100
f 5//101 18//101 17//101
f 31//102 5//102 16//102
f 28//103 5//103 31//103
f 28//104 31//104 41//104
f 41//7 31//7 45//7
f 45//105 43//105 40//105
f 34//106 15//106 14//106
f 34//107 28//107 15//107
f 28//108 11//108 15//108
f 34//109 35//109 28//109
f 35//110 36//110 28//110
f 35//111 43//111 45//111
f 35//112 34//112 38//112
