# Blender 4.0.0
# www.blender.org
o decimated_mesh
v -0.013432 0.139939 -0.030282
v -0.024648 0.024609 -0.022270
v -0.013432 0.024609 -0.030554
v -0.024648 0.140518 -0.021862
v -0.024648 0.024609 -0.032168
v -0.013432 0.024609 -0.038188
v -0.013430 0.141944 -0.031278
v -0.024647 0.142048 -0.023515
v -0.020389 0.024612 -0.035609
v -0.013432 0.142584 -0.033018
v -0.020747 0.036666 -0.036275
v -0.013432 0.142397 -0.035056
v -0.024649 0.142628 -0.026559
v -0.020069 0.142457 -0.031723
v -0.019305 0.142006 -0.033576
v -0.024647 0.142084 -0.029026
v -0.013443 0.140944 -0.036753
v -0.019706 0.140261 -0.034792
v -0.020688 0.140701 -0.033879
v -0.013431 0.139694 -0.037180
v -0.024648 0.140281 -0.030874
v -0.024648 0.093326 -0.034872
v -0.022511 0.093326 -0.036672
v -0.020942 0.093326 -0.037650
v -0.013466 0.094987 -0.040373
v -0.021159 0.116865 -0.036472
vn -0.2021 0.9564 -0.2110
vn 0.0005 1.0000 -0.0000
vn -0.9970 -0.0053 -0.0775
vn -0.3504 0.0436 -0.9356
vn 0.2402 0.9111 0.3349
vn -0.0309 0.9977 -0.0605
vn 0.1111 0.9762 0.1861
vn -1.0000 0.0045 0.0023
vn -0.2687 0.9045 -0.3311
vn -0.3374 -0.0240 -0.9410
vn -0.5942 0.0019 -0.8044
vn -0.6441 -0.0254 -0.7645
vn -0.6033 0.2349 -0.7622
vn 0.5709 0.3650 0.7354
vn -1.0000 -0.0000 -0.0000
vn -1.0000 0.0011 0.0008
vn -1.0000 0.0014 -0.0011
vn -1.0000 -0.0007 -0.0000
vn -0.0000 -1.0000 -0.0000
vn -0.0001 1.0000 0.0008
vn -0.2096 0.7435 -0.6351
vn -0.3473 0.0886 -0.9335
vn -0.2895 0.0684 -0.9547
vn -0.0368 0.9952 -0.0911
vn 0.4304 0.6626 0.6130
vn -0.3963 0.5846 -0.7080
vn -1.0000 -0.0005 -0.0000
vn -1.0000 0.0008 -0.0002
vn -1.0000 -0.0092 0.0002
vn -1.0000 0.0001 0.0001
vn -1.0000 0.0016 0.0015
vn -1.0000 -0.0000 0.0034
vn -0.2986 -0.0298 -0.9539
vn -0.3470 -0.0620 -0.9358
vn -0.4865 0.6511 -0.5825
vn -0.5181 0.6123 -0.5972
vn -0.6003 0.0028 -0.7998
vn -0.6273 -0.0615 -0.7764
vn -0.6812 -0.0288 -0.7316
vn 0.1721 -0.0015 -0.9851
vn -0.1355 0.9483 -0.2868
vn -0.3148 0.3042 -0.8991
vn -0.2991 0.5910 -0.7492
vn -0.6437 0.0434 -0.7641
vn -0.7173 0.0591 -0.6942
vn -0.6182 0.0944 -0.7803
vn -1.0000 -0.0000 0.0003
vn -0.5941 0.0028 -0.8044
vn -0.6003 0.0019 -0.7998
vn -1.0000 -0.0019 0.0003
vn -1.0000 -0.0000 -0.0016
vn -1.0000 -0.0000 0.0001
vn -1.0000 -0.0007 0.0004
vn -1.0000 -0.0000 -0.0003
vn -1.0000 -0.0000 -0.0002
vn -0.0000 1.0000 -0.0000
vn -0.9997 -0.0159 0.0198
vn -0.9999 -0.0001 0.0123
vn 0.0015 1.0000 0.0028
vn -0.5291 -0.0224 -0.8483
vn -0.5289 0.0375 -0.8479
s 0
f 16//1 13//1 14//1
f 9//2 3//2 6//2
f 26//3 24//3 11//3
f 26//4 25//4 24//4
f 8//5 7//5 10//5
f 14//6 13//6 10//6
f 10//7 13//7 8//7
f 17//8 1//8 12//8
f 15//9 16//9 14//9
f 11//10 24//10 25//10
f 1//11 3//11 2//11
f 22//12 23//12 11//12
f 19//13 18//13 21//13
f 4//14 1//14 7//14
f 2//15 4//15 22//15
f 22//15 4//15 21//15
f 8//16 13//16 4//16
f 13//17 16//17 21//17
f 22//15 5//15 2//15
f 21//18 4//18 13//18
f 2//19 5//19 3//19
f 5//20 3//20 9//20
f 15//21 12//21 17//21
f 26//22 18//22 20//22
f 20//23 25//23 26//23
f 10//24 12//24 14//24
f 8//25 4//25 7//25
f 18//26 19//26 15//26
f 6//27 3//27 25//27
f 25//28 1//28 20//28
f 1//29 17//29 20//29
f 12//30 1//30 10//30
f 7//31 10//31 1//31
f 1//32 25//32 3//32
f 25//33 6//33 11//33
f 9//34 11//34 6//34
f 16//35 15//35 19//35
f 19//36 21//36 16//36
f 1//37 2//37 4//37
f 11//38 9//38 5//38
f 5//39 22//39 11//39
f 26//40 11//40 23//40
f 14//41 12//41 15//41
f 20//42 18//42 17//42
f 18//43 15//43 17//43
f 23//44 22//44 26//44
f 22//45 21//45 26//45
f 18//46 26//46 21//46
f 13//47 2//47 4//47
f 2//48 4//48 3//48
f 3//49 4//49 1//49
f 12//50 7//50 10//50
f 1//51 7//51 3//51
f 3//15 7//15 6//15
f 6//52 7//52 20//52
f 20//53 7//53 12//53
f 21//54 22//54 13//54
f 22//55 5//55 13//55
f 5//15 2//15 13//15
f 5//56 3//56 6//56
f 20//57 12//57 17//57
f 25//58 6//58 20//58
f 5//59 6//59 9//59
f 23//60 24//60 11//60
f 24//61 23//61 26//61
