# Blender 4.0.0
# www.blender.org
o decimated_mesh
v 0.040556 0.018198 -0.000017
v 0.040135 0.012360 -0.000007
v 0.039274 0.018198 -0.000007
v 0.039206 0.012074 -0.003630
v 0.038877 0.012328 -0.007226
v 0.027013 0.018198 -0.027706
v 0.038657 0.012262 -0.000006
v 0.037597 0.012158 -0.011850
v 0.038108 0.013051 -0.011007
v 0.028951 0.018198 -0.027706
v 0.026409 0.013024 -0.027706
v 0.026755 0.012207 -0.027706
v 0.034995 0.012218 -0.018223
v 0.038860 0.018197 -0.010033
v 0.028293 0.012250 -0.027679
v 0.033690 0.012298 -0.020759
v 0.034873 0.018200 -0.019918
vn 0.0003 0.0016 1.0000
vn 0.6661 -0.7372 -0.1129
vn 0.7868 -0.0702 -0.6132
vn 0.9103 -0.0946 -0.4030
vn 0.4977 -0.8609 -0.1062
vn 0.8557 0.3635 -0.3684
vn 0.8823 -0.1116 -0.4572
vn 0.9243 -0.0812 -0.3729
vn 0.0278 -0.9993 -0.0231
vn -0.0000 1.0000 -0.0002
vn 0.0003 1.0000 -0.0001
vn 0.0005 1.0000 -0.0001
vn -0.0006 1.0000 0.0005
vn 0.0076 -0.0007 1.0000
vn 0.7928 -0.0905 -0.6028
vn 0.9083 -0.1060 -0.4046
vn 0.9228 -0.2976 -0.2445
vn 0.9831 -0.0768 -0.1664
vn 0.9827 -0.0711 -0.1710
vn 0.9710 -0.1009 -0.2166
vn -0.0000 -0.0045 -1.0000
vn 0.0174 0.0074 -0.9998
vn 0.0137 -0.0016 -0.9999
vn 0.8700 -0.0340 -0.4918
vn 0.9219 -0.0881 -0.3772
vn 0.1753 0.9842 -0.0243
vn 0.0660 -0.9959 0.0615
vn 0.0200 0.9997 -0.0106
vn 0.0229 -0.9996 -0.0187
vn 0.1433 -0.9841 -0.1049
vn 0.0076 0.0011 1.0000
vn 0.9835 -0.0711 -0.1665
vn 0.0011 1.0000 -0.0002
vn 0.0006 1.0000 -0.0001
vn 0.0004 -0.0000 1.0000
vn -0.0003 1.0000 0.0001
vn 0.9092 -0.1062 -0.4025
vn 0.9095 -0.0945 -0.4048
vn 0.9821 -0.0790 -0.1709
vn 0.9255 -0.0646 -0.3733
vn 0.7939 -0.0730 -0.6036
vn 0.9182 -0.0906 -0.3857
vn 0.0852 0.9956 -0.0386
vn -0.0000 -0.0000 -1.0000
vn -0.0001 -0.0000 -1.0000
vn -0.0144 0.9998 0.0130
vn 0.9119 -0.1693 -0.3739
vn 0.7856 -0.0897 -0.6122
vn 0.0178 -0.0065 -0.9998
s 0
f 2//1 1//1 7//1
f 2//2 4//2 5//2
f 17//3 16//3 15//3
f 6//4 3//4 7//4
f 4//5 8//5 5//5
f 7//6 12//6 11//6
f 16//7 17//7 13//7
f 14//8 8//8 17//8
f 12//9 15//9 13//9
f 17//10 10//10 6//10
f 6//11 3//11 14//11
f 14//12 3//12 1//12
f 14//13 17//13 6//13
f 1//14 3//14 7//14
f 10//15 17//15 15//15
f 6//16 7//16 11//16
f 9//17 5//17 8//17
f 14//18 1//18 5//18
f 1//19 2//19 5//19
f 5//20 9//20 14//20
f 6//21 10//21 15//21
f 15//22 12//22 11//22
f 11//23 6//23 15//23
f 14//24 9//24 8//24
f 8//25 13//25 17//25
f 8//26 7//26 4//26
f 4//27 2//27 7//27
f 7//28 8//28 12//28
f 8//29 12//29 13//29
f 15//30 16//30 13//30
f 3//31 2//31 1//31
f 2//32 14//32 1//32
f 14//33 17//33 1//33
f 17//34 3//34 1//34
f 7//35 2//35 3//35
f 17//36 6//36 3//36
f 6//37 3//37 11//37
f 11//38 3//38 7//38
f 5//39 14//39 2//39
f 9//40 17//40 14//40
f 16//41 10//41 17//41
f 9//42 13//42 17//42
f 12//43 7//43 4//43
f 10//44 12//44 6//44
f 12//45 11//45 6//45
f 12//46 4//46 8//46
f 8//47 13//47 9//47
f 15//48 10//48 16//48
f 15//49 12//49 10//49
