# Blender 4.0.0
# www.blender.org
o decimated_mesh
v 0.040557 0.018198 0.000003
v 0.040141 0.012374 -0.000007
v 0.039274 0.018198 -0.000007
v 0.038863 0.012322 0.007269
v 0.039206 0.012074 0.003633
v 0.027019 0.018198 0.027702
v 0.037688 0.012171 0.011663
v 0.038658 0.012260 -0.000008
v 0.028954 0.018198 0.027702
v 0.038801 0.018198 0.010289
v 0.034143 0.012232 0.020017
v 0.026743 0.012224 0.027702
v 0.026413 0.013051 0.027702
v 0.028306 0.012310 0.027669
v 0.034870 0.018199 0.019928
vn -0.0002 1.0000 -0.0001
vn 0.6750 -0.7291 0.1133
vn 0.9829 -0.0759 0.1678
vn 0.5067 -0.8556 0.1061
vn 0.9083 -0.1068 0.4044
vn -0.8626 -0.3436 -0.3714
vn -0.0564 0.9970 -0.0533
vn 0.0182 0.9998 0.0091
vn 0.0766 -0.9951 -0.0623
vn 0.1825 0.9829 0.0227
vn -0.0154 0.9998 -0.0138
vn -0.0000 -0.0055 1.0000
vn 0.0165 -0.0019 0.9999
vn 0.0204 0.0081 0.9998
vn -0.0005 -1.0000 -0.0000
vn -0.0000 1.0000 -0.0000
vn -0.0000 -1.0000 -0.0001
vn 0.9226 -0.0846 0.3763
vn 0.9151 -0.1057 0.3891
vn 0.9602 -0.1197 0.2525
vn 0.9826 -0.0705 0.1721
vn 0.9104 -0.0945 0.4027
vn 0.0074 -0.0007 -1.0000
vn -0.0000 0.0017 -1.0000
vn 0.7916 -0.0874 0.6048
vn 0.7925 -0.0906 0.6031
vn 0.0074 0.0012 -1.0000
vn 0.9833 -0.0705 0.1678
vn 0.9820 -0.0781 0.1719
vn 0.0001 0.0001 -1.0000
vn 0.9096 -0.0944 0.4047
vn 0.9093 -0.1070 0.4022
vn -0.0001 1.0000 -0.0000
vn 0.0001 1.0000 -0.0000
vn -0.0203 0.9997 -0.0159
vn -0.0163 0.9998 -0.0146
vn 0.0852 0.9956 0.0380
vn -0.0000 -0.0000 1.0000
vn 0.7927 -0.0876 0.6033
vn 0.7914 -0.0904 0.6046
vn 0.0213 -0.0079 0.9997
s 0
f 15//1 10//1 6//1
f 2//2 4//2 5//2
f 10//3 4//3 1//3
f 4//4 7//4 5//4
f 6//5 13//5 8//5
f 8//6 12//6 13//6
f 11//7 12//7 14//7
f 12//8 7//8 8//8
f 8//9 2//9 5//9
f 7//10 5//10 8//10
f 7//11 12//11 11//11
f 14//12 9//12 6//12
f 6//13 13//13 14//13
f 13//14 12//14 14//14
f 10//15 3//15 1//15
f 3//16 6//16 10//16
f 6//17 15//17 9//17
f 10//18 15//18 7//18
f 15//19 11//19 7//19
f 7//20 4//20 10//20
f 4//21 2//21 1//21
f 6//22 8//22 3//22
f 8//23 3//23 1//23
f 1//24 2//24 8//24
f 11//25 15//25 14//25
f 15//26 9//26 14//26
f 2//27 3//27 1//27
f 10//28 2//28 1//28
f 10//29 4//29 2//29
f 8//30 3//30 2//30
f 8//31 3//31 13//31
f 13//32 3//32 6//32
f 6//33 15//33 3//33
f 15//34 10//34 3//34
f 7//35 5//35 11//35
f 11//36 5//36 12//36
f 12//37 5//37 8//37
f 12//38 9//38 6//38
f 12//38 6//38 13//38
f 9//39 11//39 15//39
f 9//40 14//40 11//40
f 14//41 9//41 12//41
