# Blender 4.0.0
# www.blender.org
o decimated_mesh
v -0.038121 0.024608 0.013331
v -0.030387 0.024608 0.013331
v -0.037740 0.019839 0.013331
v -0.028443 0.019839 0.013331
v -0.000007 0.024608 0.033323
v -0.000007 0.019839 0.031260
v -0.000015 0.024608 0.040645
v -0.000013 0.019840 0.040296
v -0.032626 0.019842 0.024261
v -0.032993 0.024600 0.024083
v -0.017869 0.024543 0.037443
v -0.017060 0.019837 0.037071
vn 1.0000 0.0004 0.0012
vn 0.5170 0.3398 -0.7857
vn 0.5212 0.2124 -0.8266
vn -0.0000 -0.0000 -1.0000
vn -0.9013 -0.0534 0.4298
vn -0.6619 -0.0230 0.7492
vn -0.0000 1.0000 -0.0003
vn -0.1847 -0.1089 0.9767
vn -0.0027 1.0000 0.0041
vn -0.0000 1.0000 0.0008
vn 0.0025 1.0000 0.0014
vn -0.0037 1.0000 -0.0000
vn 1.0000 -0.0003 0.0007
vn -0.9034 -0.0721 0.4227
vn -0.6265 -0.1678 0.7612
vn 0.0001 -1.0000 -0.0002
vn 0.0002 -1.0000 -0.0000
vn 0.0005 1.0000 -0.0001
vn -0.1758 -0.0721 0.9818
vn -0.0008 1.0000 0.0012
vn -0.0000 1.0000 -0.0000
vn -0.0000 1.0000 0.0001
vn 0.0010 1.0000 -0.0008
vn -0.0056 0.9999 0.0106
s 0
f 8//1 5//1 7//1
f 2//2 5//2 6//2
f 2//3 6//3 4//3
f 3//4 2//4 4//4
f 1//5 9//5 10//5
f 11//6 10//6 9//6
f 9//7 4//7 3//7
f 8//8 11//8 12//8
f 5//9 2//9 11//9
f 2//10 1//10 10//10
f 10//11 11//11 2//11
f 11//12 7//12 5//12
f 8//13 6//13 5//13
f 3//4 1//4 2//4
f 1//14 3//14 9//14
f 9//15 12//15 11//15
f 4//16 6//16 12//16
f 8//17 12//17 6//17
f 12//18 4//18 9//18
f 8//19 7//19 11//19
f 10//20 7//20 1//20
f 7//21 2//21 1//21
f 4//22 3//22 12//22
f 12//23 3//23 9//23
f 11//24 7//24 10//24
f 5//21 2//21 7//21
