# Blender 4.0.0
# www.blender.org
o decimated_mesh
v 0.028488 0.019839 0.013346
v 0.030383 0.024608 0.013346
v 0.037928 0.022224 0.013347
v -0.000003 0.019839 0.031261
v -0.000003 0.024608 0.033322
v 0.000005 0.022221 0.040511
v 0.032606 0.019842 0.024297
v 0.032787 0.024609 0.024293
v 0.017338 0.024601 0.037562
v 0.017232 0.019836 0.036959
vn -0.0824 -0.9651 0.2486
vn -0.5208 0.2070 -0.8282
vn -0.5167 0.3397 -0.7859
vn 0.0003 1.0000 0.0005
vn 0.6514 -0.0240 0.7584
vn 0.1833 -0.1273 0.9748
vn 0.0001 -0.0000 -1.0000
vn -1.0000 -0.0004 0.0010
vn -0.0001 -1.0000 -0.0002
vn 0.2439 -0.9655 -0.0915
vn 0.0005 -1.0000 0.0001
vn -0.0764 0.9462 0.3143
vn -0.0005 1.0000 -0.0000
vn 0.3007 0.9514 -0.0661
vn 0.6318 -0.1111 0.7671
vn 0.9017 -0.0338 0.4309
vn -0.0000 1.0000 -0.0001
vn 0.0002 1.0000 0.0009
s 0
f 10//1 6//1 4//1
f 1//2 4//2 2//2
f 2//3 4//3 5//3
f 2//4 5//4 9//4
f 9//5 7//5 8//5
f 9//6 6//6 10//6
f 3//7 1//7 2//7
f 5//8 4//8 6//8
f 4//9 1//9 10//9
f 3//10 7//10 1//10
f 7//11 10//11 1//11
f 6//12 9//12 5//12
f 9//13 8//13 2//13
f 8//14 3//14 2//14
f 9//15 10//15 7//15
f 8//16 7//16 3//16
f 5//17 8//17 2//17
f 9//18 8//18 5//18
