# Blender 4.0.0
# www.blender.org
o decimated_mesh
v -0.029004 0.018197 0.027753
v -0.027002 0.018198 0.027714
v -0.000007 0.018198 0.038691
v -0.000007 0.013051 0.038297
v -0.028383 0.012766 0.027715
v -0.000012 0.018195 0.040213
v -0.026598 0.012211 0.027713
v -0.027273 0.012276 0.028689
v -0.000007 0.012082 0.038547
v -0.027921 0.012214 0.027714
v -0.019869 0.012224 0.034725
v -0.000015 0.012048 0.039266
v -0.020387 0.018198 0.035039
v -0.000018 0.013402 0.039743
v -0.006601 0.012376 0.038862
v -0.009874 0.018198 0.038870
v -0.011449 0.012180 0.037833
vn -0.0000 1.0000 0.0019
vn 1.0000 -0.0009 0.0078
vn -0.0742 -0.3309 0.9407
vn -0.6717 -0.5626 0.4821
vn -0.1171 -0.0969 0.9884
vn -0.0740 -0.8561 0.5114
vn 0.3660 -0.2327 -0.9011
vn -0.3415 -0.0721 0.9371
vn -0.3669 -0.0710 0.9275
vn -0.6293 -0.0951 0.7713
vn -0.0000 1.0000 -0.0000
vn -0.0005 1.0000 0.0005
vn -0.0196 0.0047 -0.9998
vn 0.0012 -0.0000 1.0000
vn 0.0005 -0.0023 1.0000
vn 0.9999 0.0031 0.0120
vn 1.0000 -0.0003 0.0033
vn 1.0000 -0.0020 0.0081
vn 0.0020 1.0000 -0.0038
vn 0.0092 0.9999 -0.0107
vn 0.0056 0.9989 0.0476
vn 0.0093 0.9999 -0.0111
vn -0.1266 -0.9810 0.1469
vn -0.1346 -0.0769 0.9879
vn -0.2019 -0.1148 0.9727
vn -0.3456 -0.0791 0.9351
vn -0.3766 -0.0255 0.9260
vn -0.6442 -0.0678 0.7619
vn -0.6779 -0.0826 0.7305
vn 0.0005 -0.0001 1.0000
vn -0.3690 -0.0250 0.9291
vn -0.0145 0.9988 0.0473
vn 0.0020 1.0000 0.0095
vn 0.0027 -0.0004 1.0000
vn 0.0125 0.9998 -0.0158
vn -0.3757 -0.0708 0.9240
vn 1.0000 -0.0000 -0.0000
vn 1.0000 -0.0001 0.0033
vn 0.9999 -0.0024 0.0118
vn 0.9999 -0.0023 0.0117
vn 0.0149 0.9995 -0.0263
s 0
f 16//1 6//1 3//1
f 14//2 12//2 4//2
f 14//3 15//3 12//3
f 5//4 10//4 8//4
f 6//5 15//5 14//5
f 17//6 12//6 15//6
f 9//7 7//7 4//7
f 13//8 17//8 16//8
f 7//9 4//9 3//9
f 8//10 11//10 13//10
f 3//11 2//11 16//11
f 1//12 13//12 2//12
f 13//11 16//11 2//11
f 1//13 2//13 5//13
f 2//14 5//14 7//14
f 7//15 5//15 10//15
f 12//16 9//16 4//16
f 4//17 3//17 6//17
f 6//18 14//18 4//18
f 11//19 7//19 10//19
f 7//20 11//20 9//20
f 17//21 12//21 9//21
f 17//22 9//22 11//22
f 10//23 11//23 8//23
f 6//24 16//24 15//24
f 16//25 17//25 15//25
f 13//26 11//26 17//26
f 7//27 3//27 2//27
f 13//28 1//28 8//28
f 1//29 5//29 8//29
f 10//30 7//30 2//30
f 2//31 7//31 4//31
f 9//32 7//32 12//32
f 12//33 7//33 10//33
f 5//34 10//34 2//34
f 12//35 10//35 11//35
f 13//11 3//11 2//11
f 3//36 2//36 4//36
f 3//37 9//37 4//37
f 3//38 6//38 9//38
f 6//39 14//39 9//39
f 14//40 12//40 9//40
f 17//41 12//41 11//41
f 16//11 3//11 13//11
