# Blender 4.0.0
# www.blender.org
o decimated_mesh
v -0.026401 0.013020 0.027713
v -0.038657 0.012262 0.000006
v -0.026751 0.012207 0.027713
v -0.040135 0.012360 0.000007
v -0.027005 0.018198 0.027713
v -0.039206 0.012074 0.003631
v -0.028946 0.018198 0.027713
v -0.039275 0.018198 0.000007
v -0.040556 0.018198 0.000017
v -0.037596 0.012158 0.011850
v -0.038876 0.012328 0.007231
v -0.034995 0.012218 0.018224
v -0.038108 0.013051 0.011007
v -0.028286 0.012249 0.027685
v -0.033695 0.012299 0.020755
v -0.038861 0.018197 0.010032
v -0.034870 0.018199 0.019925
vn 0.8541 -0.3677 -0.3678
vn -0.9102 -0.0947 0.4031
vn -0.7927 -0.0907 0.6029
vn -0.6671 -0.7363 0.1130
vn -0.4979 -0.8607 0.1063
vn -0.8825 -0.1114 0.4569
vn -0.9243 -0.0812 0.3729
vn -0.0278 -0.9993 0.0231
vn -0.9083 -0.1060 0.4047
vn -0.0139 -0.0016 0.9999
vn -0.0000 -0.0046 1.0000
vn -0.0177 0.0077 0.9998
vn 0.0006 1.0000 -0.0005
vn -0.0000 1.0000 0.0002
vn -0.0002 1.0000 0.0001
vn -0.0006 1.0000 0.0001
vn -0.7866 -0.0703 0.6134
vn -0.0003 0.0016 -1.0000
vn -0.0076 -0.0007 -1.0000
vn -0.9228 -0.2977 0.2447
vn -0.9831 -0.0768 0.1664
vn -0.9827 -0.0711 0.1709
vn -0.9710 -0.1009 0.2168
vn -0.8700 -0.0340 0.4919
vn -0.9220 -0.0880 0.3772
vn -0.1753 0.9842 0.0243
vn -0.0660 -0.9959 -0.0615
vn -0.0200 0.9997 0.0106
vn -0.0229 -0.9996 0.0187
vn -0.1448 -0.9838 0.1060
vn 0.0001 -0.0000 1.0000
vn -0.9095 -0.0946 0.4049
vn -0.9092 -0.1061 0.4026
vn -0.0000 -0.0000 1.0000
vn 0.0003 1.0000 -0.0001
vn -0.0181 -0.0066 0.9998
vn 0.0144 0.9998 -0.0130
vn -0.0852 0.9956 0.0386
vn -0.0004 -0.0000 -1.0000
vn -0.0076 0.0011 -1.0000
vn -0.0010 1.0000 0.0002
vn -0.9254 -0.0646 0.3734
vn -0.9182 -0.0905 0.3857
vn -0.7938 -0.0731 0.6038
vn -0.7854 -0.0900 0.6124
vn -0.9119 -0.1696 0.3738
vn -0.9821 -0.0789 0.1708
vn -0.9835 -0.0711 0.1664
s 0
f 1//1 3//1 2//1
f 5//2 8//2 2//2
f 17//3 14//3 7//3
f 4//4 6//4 11//4
f 6//5 10//5 11//5
f 15//6 17//6 12//6
f 16//7 10//7 17//7
f 3//8 14//8 12//8
f 5//9 2//9 1//9
f 1//10 5//10 14//10
f 5//11 7//11 14//11
f 14//12 3//12 1//12
f 16//13 17//13 5//13
f 17//14 7//14 5//14
f 5//15 8//15 16//15
f 9//16 16//16 8//16
f 15//17 14//17 17//17
f 4//18 9//18 2//18
f 9//19 8//19 2//19
f 13//20 11//20 10//20
f 16//21 9//21 11//21
f 9//22 4//22 11//22
f 11//23 13//23 16//23
f 16//24 13//24 10//24
f 10//25 12//25 17//25
f 10//26 2//26 6//26
f 6//27 4//27 2//27
f 2//28 10//28 3//28
f 10//29 3//29 12//29
f 14//30 15//30 12//30
f 5//31 3//31 1//31
f 2//32 1//32 8//32
f 8//33 1//33 5//33
f 7//34 3//34 5//34
f 8//35 17//35 5//35
f 7//36 14//36 3//36
f 10//37 3//37 6//37
f 6//38 3//38 2//38
f 4//39 8//39 2//39
f 4//40 9//40 8//40
f 9//16 17//16 8//16
f 9//41 16//41 17//41
f 16//42 13//42 17//42
f 13//43 12//43 17//43
f 15//44 7//44 17//44
f 15//45 14//45 7//45
f 13//46 10//46 12//46
f 11//47 16//47 4//47
f 16//48 9//48 4//48
