# Blender 4.0.0
# www.blender.org
o decimated_mesh
v 0.023980 0.019896 -0.020214
v 0.013648 0.019839 -0.028575
v 0.023873 0.019903 -0.033484
v 0.024620 0.086314 -0.025588
v 0.013396 0.086314 -0.032965
v 0.013544 0.019854 -0.037850
v 0.024244 0.086315 -0.035623
v 0.013396 0.086314 -0.040420
vn -0.5477 0.0727 0.8335
vn -0.6285 0.0489 0.7763
vn 0.9999 -0.0103 -0.0080
vn 0.0060 -1.0000 -0.0006
vn 0.4042 -0.0317 -0.9141
vn -0.9999 -0.0030 0.0112
vn 0.9993 -0.0068 -0.0374
vn -0.0001 1.0000 -0.0000
vn -0.0001 1.0000 0.0001
vn 0.0054 -1.0000 -0.0017
vn 0.3893 -0.0347 -0.9205
vn -1.0000 -0.0022 -0.0000
s 0
f 1//1 4//1 5//1
f 1//2 5//2 2//2
f 3//3 4//3 1//3
f 3//4 1//4 2//4
f 8//5 7//5 3//5
f 5//6 6//6 2//6
f 3//7 7//7 4//7
f 7//8 8//8 5//8
f 5//9 4//9 7//9
f 6//10 3//10 2//10
f 6//11 8//11 3//11
f 8//12 6//12 5//12
