# Blender 4.0.0
# www.blender.org
o decimated_mesh
v -0.000692 0.019839 -0.040252
v -0.000286 0.018198 -0.040173
v 0.000700 0.019839 -0.040236
v 0.000294 0.018198 -0.040173
v -0.009640 0.018198 -0.038897
v -0.010380 0.018787 -0.038841
v -0.010491 0.019839 -0.038881
v -0.010229 0.018198 -0.038771
v -0.013402 0.018198 -0.037715
v 0.009688 0.018198 -0.038897
v 0.010380 0.018787 -0.038841
v -0.019965 0.018198 -0.035224
v -0.020147 0.019839 -0.035272
v 0.010507 0.019839 -0.038881
v 0.013395 0.018198 -0.037715
v 0.011000 0.018198 -0.038526
v -0.020609 0.018198 -0.034862
v -0.020736 0.019839 -0.034964
v 0.020148 0.019839 -0.035264
v 0.019973 0.018198 -0.035217
v -0.025556 0.018198 -0.030796
v 0.020617 0.019839 -0.035027
v 0.020609 0.018198 -0.034854
v -0.026336 0.018230 -0.030150
v -0.026980 0.018198 -0.029598
v -0.028491 0.019839 -0.028495
v 0.020855 0.019839 -0.034870
v -0.027728 0.018198 -0.028960
v -0.028388 0.018198 -0.028384
v -0.028889 0.018198 -0.027754
v -0.030050 0.018198 -0.026273
v -0.031211 0.018230 -0.024783
v -0.033995 0.018198 -0.021174
v 0.028316 0.019839 -0.028629
v 0.028444 0.019123 -0.028447
v 0.027759 0.018198 -0.028928
v -0.034656 0.018198 -0.020205
v -0.034735 0.019839 -0.020347
v 0.028619 0.019839 -0.028314
v 0.028404 0.018198 -0.028369
v -0.035029 0.018198 -0.019567
v -0.035101 0.019839 -0.019708
v 0.029557 0.018198 -0.026911
v 0.034735 0.019839 -0.020347
v 0.034656 0.018198 -0.020213
v -0.038895 0.019839 -0.010496
v 0.035101 0.019839 -0.019708
v 0.035029 0.018198 -0.019574
v -0.038792 0.018198 -0.010284
v -0.038847 0.018742 -0.010378
v -0.038927 0.018198 -0.009732
v 0.038895 0.019839 -0.010504
v 0.038020 0.018198 -0.012301
v 0.038847 0.018742 -0.010386
v -0.040621 0.019839 -0.000654
v 0.040629 0.019839 -0.000654
v 0.038895 0.018198 -0.009858
v -0.040494 0.018198 -0.000638
v 0.040597 0.019839 0.000654
v 0.040494 0.018198 0.000646
v 0.040494 0.018198 -0.000646
v -0.040494 0.018198 0.000638
v -0.040621 0.019839 0.000646
v 0.039388 0.018198 0.007124
v 0.039166 0.018231 0.008416
v 0.038919 0.018198 0.009740
v -0.038927 0.018198 0.009732
v -0.038847 0.018742 0.010386
v -0.038895 0.019839 0.010496
v 0.038887 0.019839 0.010496
v 0.037654 0.018231 0.013215
v 0.038800 0.018198 0.010284
v -0.038561 0.018198 0.010898
v 0.038020 0.018198 0.012301
v 0.035364 0.018198 0.018794
v 0.035093 0.019839 0.019708
v 0.035037 0.018198 0.019574
v -0.035029 0.018198 0.019567
v -0.035101 0.019839 0.019708
v 0.034719 0.019839 0.020347
v 0.034656 0.018231 0.020221
v -0.034656 0.018198 0.020205
v -0.034735 0.019839 0.020347
v 0.034011 0.018198 0.021166
v 0.028475 0.019839 0.028495
v -0.028921 0.018198 0.027722
v -0.028436 0.018857 0.028432
v -0.028618 0.019839 0.028314
v 0.028396 0.018198 0.028392
v -0.028404 0.018198 0.028369
v -0.028316 0.019839 0.028629
v -0.027759 0.018198 0.028936
v 0.020609 0.018198 0.034862
v -0.024928 0.018198 0.031324
v 0.020728 0.019839 0.034964
v 0.019965 0.018198 0.035224
v -0.022080 0.018198 0.033688
v -0.022717 0.018230 0.033168
v 0.020148 0.019839 0.035272
v -0.020609 0.018198 0.034862
v -0.020617 0.019839 0.035027
v -0.020147 0.019839 0.035264
v 0.010491 0.019839 0.038881
v 0.010380 0.018787 0.038849
v 0.012297 0.018198 0.038101
v -0.019972 0.018198 0.035224
v 0.010229 0.018198 0.038778
v 0.000692 0.019839 0.040252
v 0.009640 0.018198 0.038904
v -0.013402 0.018198 0.037715
v -0.010491 0.019839 0.038889
v -0.000692 0.019839 0.040236
v -0.000286 0.018198 0.040173
v 0.000294 0.018198 0.040173
v -0.010380 0.018787 0.038841
v -0.009680 0.018198 0.038897
vn 0.9222 -0.0741 -0.3794
vn -0.0080 -0.0432 0.9990
vn -0.4781 0.0839 -0.8743
vn 0.2648 -0.2231 -0.9382
vn -0.8624 0.0805 0.4997
vn 0.7912 -0.0768 -0.6068
vn -0.7912 -0.0816 0.6061
vn -0.3503 -0.0547 0.9350
vn -0.3099 -0.1916 -0.9313
vn -0.6276 -0.2228 -0.7460
vn -0.9214 -0.0900 -0.3780
vn -0.0000 -1.0000 -0.0000
vn 0.7729 0.2121 0.5981
vn -0.7921 -0.0656 -0.6069
vn 0.7208 0.0511 -0.6912
vn 0.7210 -0.0468 -0.6913
vn 0.8623 0.0829 -0.4996
vn -0.0000 1.0000 -0.0000
vn 0.6376 -0.0864 0.7655
vn 0.9824 -0.0744 -0.1714
vn -0.1361 -0.0708 -0.9882
vn 0.9618 0.1394 0.2357
vn 0.2065 -0.1690 0.9638
vn -0.8589 0.0721 -0.5071
vn -0.6382 -0.0802 -0.7657
vn -0.1350 -0.0666 0.9886
vn -0.9145 0.2376 0.3275
vn -0.0080 0.0432 0.9990
vn 0.4757 0.0849 0.8755
vn -0.9484 0.2675 -0.1701
vn 0.8623 0.0829 0.4996
vn -0.2922 -0.2609 0.9201
vn 0.6235 -0.6706 0.4019
vn -0.4886 0.0863 0.8682
vn 0.9015 -0.2265 0.3688
vn 0.6378 -0.0896 -0.7650
vn 0.9217 0.0840 -0.3787
vn 0.1353 -0.0646 -0.9887
vn 0.3496 -0.0628 0.9348
vn 0.7925 -0.0575 0.6071
vn -0.6268 -0.1925 0.7550
vn 0.9237 -0.0671 0.3772
vn -0.3499 -0.0553 -0.9352
vn 0.1356 -0.0679 0.9884
vn -0.9835 0.0566 -0.1719
vn 0.9970 0.0773 -0.0000
vn -0.9829 -0.0691 -0.1710
vn 0.3057 -0.1907 0.9328
vn -0.3491 0.0616 0.9351
vn -0.2065 -0.1690 -0.9638
vn -0.9829 -0.0686 0.1708
vn -0.9973 0.0725 -0.0122
vn 0.4747 0.0812 -0.8764
vn -0.9318 -0.2153 0.2923
vn -0.6379 -0.0635 0.7675
vn -0.1354 -0.0775 -0.9878
vn -0.1384 -0.0517 -0.9890
vn 0.0113 -0.0412 -0.9991
vn -0.0000 -0.0480 -0.9988
vn -0.1348 -0.0807 -0.9876
vn -0.3363 -0.0708 -0.9391
vn -0.3498 -0.0446 -0.9358
vn 0.1367 -0.0587 -0.9889
vn 0.1343 -0.0712 -0.9884
vn -0.3540 -0.0663 -0.9329
vn -0.4615 -0.0769 -0.8838
vn 0.1233 -0.0521 -0.9910
vn 0.3509 -0.0473 -0.9352
vn 0.3361 -0.0758 -0.9388
vn -0.4883 -0.0920 -0.8678
vn -0.6320 -0.0970 -0.7689
vn -0.6383 -0.0720 -0.7664
vn -0.6391 -0.0683 -0.7661
vn 0.3166 -0.1662 -0.9339
vn 0.4487 -0.0735 -0.8907
vn 0.3543 -0.0647 -0.9329
vn -0.6488 -0.0377 -0.7600
vn -0.6462 -0.0859 -0.7583
vn -0.7869 -0.0809 -0.6118
vn -0.7895 -0.0715 -0.6096
vn -0.7927 -0.0511 -0.6075
vn -0.6542 -0.0917 -0.7508
vn -0.7825 -0.0907 -0.6160
vn 0.5488 -0.0905 -0.8310
vn 0.4928 -0.0938 -0.8651
vn -0.8233 -0.0884 -0.5607
vn -0.8598 -0.0852 -0.5036
vn -0.8648 -0.0806 -0.4957
vn 0.6396 -0.0798 -0.7646
vn 0.6400 -0.0760 -0.7646
vn 0.6347 -0.1027 -0.7659
vn -0.9151 -0.1582 -0.3709
vn -0.9221 -0.0809 -0.3784
vn -0.9222 -0.0731 -0.3798
vn 0.7849 -0.0767 -0.6149
vn 0.7813 -0.0863 -0.6181
vn 0.6529 -0.0922 -0.7518
vn -0.9831 -0.0611 -0.1724
vn -0.9831 -0.0613 -0.1724
vn 0.7914 -0.0667 -0.6076
vn 0.7926 -0.0877 -0.6033
vn -0.9825 -0.0778 -0.1693
vn -0.9970 -0.0773 -0.0000
vn 0.8649 -0.0782 -0.4958
vn 0.8599 -0.0828 -0.5037
vn -0.9825 -0.0770 0.1693
vn -0.9831 -0.0630 0.1719
vn -0.9832 -0.0601 0.1723
vn 0.9222 -0.0713 -0.3801
vn 0.9222 -0.0765 -0.3792
vn -0.9181 -0.1311 0.3741
vn -0.9221 -0.0782 0.3789
vn -0.9222 -0.0731 0.3798
vn 0.9830 -0.0614 -0.1730
vn 0.9232 -0.0807 -0.3759
vn -0.8598 -0.0852 0.5036
vn -0.8648 -0.0806 0.4957
vn 0.9977 -0.0630 0.0243
vn 0.9966 -0.0821 -0.0000
vn 0.9820 -0.0817 -0.1704
vn 0.9821 -0.0796 -0.1708
vn -0.7918 -0.0906 0.6040
vn -0.7910 -0.0716 0.6076
vn -0.7910 -0.0742 0.6073
vn 0.9840 -0.0509 0.1710
vn 0.9838 -0.0628 0.1679
vn -0.7771 -0.0970 0.6218
vn -0.6574 -0.1032 0.7465
vn -0.6428 -0.0761 0.7623
vn -0.6427 -0.0749 0.7625
vn 0.9230 -0.0596 0.3801
vn 0.9231 -0.0676 0.3786
vn 0.9246 -0.0785 0.3728
vn 0.9285 -0.0960 0.3588
vn 0.9737 -0.0796 0.2136
vn 0.9813 -0.0645 0.1812
vn 0.9840 -0.0506 0.1708
vn -0.6388 -0.0593 0.7671
vn -0.6382 -0.0547 0.7679
vn 0.8608 -0.0704 0.5041
vn 0.9208 -0.0627 0.3849
vn -0.6216 -0.0816 0.7791
vn -0.6335 -0.0645 0.7711
vn -0.4930 -0.0897 0.8654
vn -0.4488 -0.0693 0.8909
vn 0.7932 -0.0386 0.6078
vn 0.8252 -0.0765 0.5596
vn 0.8570 -0.0739 0.5100
vn -0.3538 -0.0601 0.9334
vn -0.3511 -0.0463 0.9352
vn 0.6390 -0.0787 0.7652
vn 0.7873 -0.0764 0.6118
vn -0.3349 -0.0777 0.9390
vn -0.1268 -0.0579 0.9902
vn -0.1360 -0.0625 0.9887
vn 0.4664 -0.0774 0.8812
vn 0.4884 -0.0897 0.8680
vn 0.6362 -0.0941 0.7658
vn -0.1343 -0.0712 0.9884
vn -0.0114 -0.0412 0.9991
vn 0.3493 -0.0659 0.9347
vn 0.3506 -0.0586 0.9347
vn -0.0000 -0.0480 0.9988
vn 0.1341 -0.0799 0.9877
vn 0.1347 -0.0766 0.9879
vn 0.1384 -0.0443 0.9894
vn 0.3457 -0.0647 0.9361
s 0
f 48//1 47//1 52//1 54//1 53//1
f 113//2 114//2 108//2 112//2
f 96//3 99//3 95//3 93//3
f 16//4 10//4 11//4
f 48//5 47//5 44//5 45//5
f 44//6 45//6 43//6 40//6 35//6 39//6
f 83//7 82//7 86//7 90//7 87//7 88//7
f 106//8 110//8 115//8 111//8 102//8
f 9//9 6//9 8//9
f 21//10 25//10 24//10
f 42//11 41//11 49//11 50//11 46//11
f 29//12 31//12 30//12
f 99//12 103//12 108//12 112//12 111//12 102//12 101//12 91//12 88//12 83//12 79//12 69//12 63//12 55//12 46//12 42//12 38//12 26//12 18//12 13//12 7//12 1//12 3//12 14//12 19//12 22//12 27//12 34//12 39//12 44//12 47//12 52//12 56//12 59//12 70//12 76//12 80//12 85//12 95//12
f 31//13 32//13 33//13
f 38//14 26//14 29//14 31//14 32//14 33//14 37//14
f 91//15 87//15 88//15
f 34//16 39//16 35//16
f 83//17 82//17 78//17 79//17
f 110//18 116//18 113//18 114//18 109//18 107//18 105//18 96//18 93//18 89//18 84//18 77//18 75//18 74//18 72//18 66//18 64//18 60//18 61//18 57//18 53//18 48//18 45//18 43//18 40//18 36//18 23//18 20//18 15//18 16//18 10//18 4//18 2//18 5//18 8//18 9//18 12//18 17//18 21//18 25//18 28//18 29//18 30//18 31//18 33//18 37//18 41//18 49//18 51//18 58//18 62//18 67//18 73//18 78//18 82//18 86//18 90//18 92//18 94//18 97//18 100//18 106//18
f 85//19 95//19 93//19 89//19
f 54//20 52//20 56//20 61//20 57//20
f 7//21 1//21 2//21 5//21 6//21
f 49//22 50//22 51//22
f 109//23 107//23 104//23
f 80//24 76//24 77//24 81//24
f 26//25 18//25 17//25 21//25 24//25 25//25 28//25 29//25
f 111//26 115//26 116//26 113//26 112//26
f 54//27 53//27 57//27
f 4//28 3//28 1//28 2//28
f 18//29 17//29 12//29 13//29
f 64//30 66//30 65//30
f 37//31 38//31 42//31 41//31
f 116//32 115//32 110//32
f 81//33 84//33 77//33
f 27//34 22//34 19//34 20//34 23//34
f 71//35 75//35 74//35
f 23//36 27//36 34//36 35//36 40//36 36//36
f 69//37 79//37 78//37 73//37 68//37
f 3//38 14//38 11//38 10//38 4//38
f 99//39 103//39 104//39 105//39 96//39
f 80//40 85//40 89//40 84//40 81//40
f 94//41 97//41 98//41
f 76//42 77//42 75//42 71//42 74//42 72//42 70//42
f 7//43 6//43 9//43 12//43 13//43
f 109//44 104//44 103//44 108//44 114//44
f 72//45 70//45 59//45 60//45 64//45 65//45 66//45
f 58//46 55//46 63//46 62//46
f 50//47 51//47 58//47 55//47 46//47
f 104//48 107//48 105//48
f 15//49 20//49 19//49 14//49 11//49 16//49
f 5//50 8//50 6//50
f 62//51 67//51 68//51 69//51 63//51
f 60//52 59//52 56//52 61//52
f 102//53 106//53 100//53 101//53
f 67//54 73//54 68//54
f 92//55 94//55 98//55 97//55 100//55 101//55 91//55 87//55 90//55
f 5//56 6//56 1//56
f 6//57 7//57 1//57
f 7//18 13//18 18//18
f 7//18 18//18 26//18
f 7//18 26//18 38//18
f 7//18 38//18 42//18
f 7//18 42//18 46//18
f 7//18 46//18 55//18
f 7//18 55//18 63//18
f 7//18 63//18 69//18
f 7//18 69//18 79//18
f 7//18 79//18 83//18
f 7//18 83//18 88//18
f 7//18 88//18 91//18
f 7//18 91//18 101//18
f 7//18 101//18 102//18
f 7//18 102//18 111//18
f 7//18 111//18 112//18
f 7//18 112//18 108//18
f 7//18 108//18 103//18
f 7//18 103//18 99//18
f 7//18 99//18 95//18
f 7//18 95//18 85//18
f 7//18 85//18 80//18
f 7//18 80//18 76//18
f 7//18 76//18 70//18
f 7//18 70//18 59//18
f 7//18 59//18 56//18
f 7//18 56//18 52//18
f 7//18 52//18 47//18
f 7//18 47//18 44//18
f 7//18 44//18 39//18
f 7//18 39//18 34//18
f 7//18 34//18 27//18
f 7//18 27//18 22//18
f 7//18 22//18 19//18
f 7//18 19//18 14//18
f 7//18 14//18 3//18
f 7//18 3//18 1//18
f 3//58 4//58 1//58
f 4//59 2//59 1//59
f 2//60 5//60 1//60
f 2//18 10//18 4//18
f 2//18 16//18 10//18
f 2//18 15//18 16//18
f 2//18 20//18 15//18
f 2//18 23//18 20//18
f 2//18 36//18 23//18
f 2//18 40//18 36//18
f 2//18 43//18 40//18
f 2//18 45//18 43//18
f 2//18 48//18 45//18
f 2//18 53//18 48//18
f 2//18 57//18 53//18
f 2//18 61//18 57//18
f 2//18 60//18 61//18
f 2//18 64//18 60//18
f 2//18 66//18 64//18
f 2//18 72//18 66//18
f 2//18 74//18 72//18
f 2//18 75//18 74//18
f 2//18 77//18 75//18
f 2//18 84//18 77//18
f 2//18 89//18 84//18
f 2//18 93//18 89//18
f 2//18 96//18 93//18
f 2//18 105//18 96//18
f 2//18 107//18 105//18
f 2//18 109//18 107//18
f 2//18 114//18 109//18
f 2//18 113//18 114//18
f 2//18 116//18 113//18
f 2//18 110//18 116//18
f 2//18 106//18 110//18
f 2//18 100//18 106//18
f 2//18 97//18 100//18
f 2//18 94//18 97//18
f 2//18 92//18 94//18
f 2//18 90//18 92//18
f 2//18 86//18 90//18
f 2//18 82//18 86//18
f 2//18 78//18 82//18
f 2//18 73//18 78//18
f 2//18 67//18 73//18
f 2//18 62//18 67//18
f 2//18 58//18 62//18
f 2//18 51//18 58//18
f 2//18 49//18 51//18
f 2//18 41//18 49//18
f 2//18 37//18 41//18
f 2//18 33//18 37//18
f 2//18 31//18 33//18
f 2//18 29//18 31//18
f 2//18 28//18 29//18
f 2//18 25//18 28//18
f 2//18 21//18 25//18
f 2//18 17//18 21//18
f 2//18 12//18 17//18
f 2//18 9//18 12//18
f 2//18 8//18 9//18
f 2//18 5//18 8//18
f 9//61 7//61 6//61
f 9//62 13//62 7//62
f 14//63 10//63 3//63
f 10//64 4//64 3//64
f 12//65 13//65 9//65
f 12//66 18//66 13//66
f 11//67 10//67 14//67
f 19//68 15//68 14//68
f 15//69 11//69 14//69
f 17//70 18//70 12//70
f 17//71 21//71 18//71
f 21//72 24//72 18//72
f 24//73 26//73 18//73
f 15//74 16//74 11//74
f 22//75 20//75 19//75
f 20//76 15//76 19//76
f 25//77 28//77 24//77
f 28//78 26//78 24//78
f 31//79 32//79 26//79
f 32//80 33//80 26//80
f 33//81 38//81 26//81
f 28//82 29//82 26//82
f 29//83 31//83 26//83
f 27//84 23//84 22//84
f 23//85 20//85 22//85
f 37//86 38//86 33//86
f 37//87 41//87 38//87
f 41//88 42//88 38//88
f 34//89 35//89 27//89
f 35//90 36//90 27//90
f 36//91 23//91 27//91
f 49//92 50//92 41//92
f 50//93 46//93 41//93
f 46//94 42//94 41//94
f 39//95 43//95 35//95
f 43//96 40//96 35//96
f 40//97 36//97 35//97
f 51//98 55//98 50//98
f 55//99 46//99 50//99
f 44//100 43//100 39//100
f 44//101 45//101 43//101
f 58//102 55//102 51//102
f 58//103 62//103 63//103
f 58//103 63//103 55//103
f 47//104 48//104 44//104
f 48//105 45//105 44//105
f 62//106 67//106 63//106
f 67//107 68//107 63//107
f 68//108 69//108 63//108
f 52//109 48//109 47//109
f 52//110 53//110 48//110
f 73//111 78//111 68//111
f 78//112 69//112 68//112
f 78//113 79//113 69//113
f 56//114 54//114 52//114
f 54//115 53//115 52//115
f 82//116 83//116 78//116
f 83//117 79//117 78//117
f 59//118 60//118 56//118
f 60//119 61//119 56//119
f 61//120 57//120 56//120
f 57//121 54//121 56//121
f 86//122 83//122 82//122
f 86//123 87//123 83//123
f 87//124 88//124 83//124
f 70//125 64//125 59//125
f 64//126 60//126 59//126
f 90//127 87//127 86//127
f 90//128 92//128 87//128
f 92//129 94//129 87//129
f 94//130 91//130 87//130
f 76//131 75//131 70//131
f 75//132 71//132 70//132
f 71//133 74//133 70//133
f 74//134 72//134 70//134
f 72//135 66//135 70//135
f 66//136 65//136 70//136
f 65//137 64//137 70//137
f 98//138 91//138 94//138
f 98//139 101//139 91//139
f 80//140 77//140 76//140
f 77//141 75//141 76//141
f 100//142 101//142 97//142
f 101//143 98//143 97//143
f 100//144 106//144 101//144
f 106//145 102//145 101//145
f 85//146 84//146 80//146
f 84//147 81//147 80//147
f 81//148 77//148 80//148
f 110//149 102//149 106//149
f 110//150 111//150 102//150
f 95//151 89//151 85//151
f 89//152 84//152 85//152
f 115//153 111//153 110//153
f 115//154 116//154 111//154
f 116//155 112//155 111//155
f 99//156 96//156 95//156
f 96//157 93//157 95//157
f 93//158 89//158 95//158
f 113//159 112//159 116//159
f 113//160 108//160 112//160
f 103//161 96//161 99//161
f 103//162 105//162 96//162
f 114//163 108//163 113//163
f 114//164 109//164 108//164
f 109//165 104//165 108//165
f 104//166 103//166 108//166
f 104//167 105//167 103//167
