# Blender 4.0.0
# www.blender.org
o decimated_mesh
v 0.024646 0.093317 0.034874
v 0.030116 0.093349 0.030271
v 0.029793 0.108421 0.029790
v 0.024646 0.116232 0.033671
v 0.036420 0.093317 0.022225
v 0.036251 0.116807 0.020773
v 0.028723 0.024619 0.028763
v 0.036274 0.044448 0.020746
v 0.036553 0.054109 0.021080
v 0.037722 0.093418 0.019779
v 0.037732 0.019839 0.013345
v 0.027865 0.140535 0.028029
v 0.028486 0.019838 0.013304
v 0.038898 0.019839 0.010499
v 0.034963 0.024622 0.020729
v 0.024647 0.024636 0.032198
v 0.037645 0.071340 0.019663
v 0.033786 0.140492 0.020471
v 0.034862 0.140440 0.018584
v 0.024646 0.024622 0.022277
v 0.041342 0.093231 0.010732
v 0.027111 0.142000 0.027058
v 0.024649 0.140369 0.030781
v 0.032000 0.019829 0.000001
v 0.037725 0.140613 0.011293
v 0.033216 0.141995 0.019120
v 0.024646 0.142050 0.029085
v 0.041482 0.071316 0.009348
v 0.040351 0.118620 0.010072
v 0.043138 0.093257 0.000007
v 0.038860 0.134268 0.010397
v 0.040660 0.019839 0.000013
v 0.033465 0.140559 -0.000003
v 0.024646 0.140585 0.021918
v 0.038853 0.140456 0.006806
v 0.036914 0.142075 0.009765
v 0.031546 0.142533 0.019391
v 0.040181 0.139420 0.000001
v 0.038815 0.141958 -0.000001
v 0.024643 0.142639 0.026821
v 0.024645 0.142187 0.023855
v 0.035609 0.142547 0.009714
v 0.036901 0.142571 -0.000003
v 0.035609 0.142511 -0.000003
v 0.034649 0.142162 -0.000003
vn 0.7622 -0.5627 0.3201
vn -0.3368 0.9308 -0.1421
vn 0.9302 0.0458 0.3641
vn -0.0001 1.0000 -0.0000
vn -0.0010 -0.9693 0.2459
vn -0.7789 -0.6271 0.0010
vn 0.8763 0.4715 0.0992
vn -0.9268 -0.2851 -0.2446
vn 0.9371 -0.0160 0.3486
vn 0.7094 -0.4398 0.5508
vn -0.0008 -0.0000 1.0000
vn 0.6433 0.0382 0.7647
vn 0.9863 -0.0041 0.1651
vn 0.3973 -0.7849 0.4755
vn 0.8453 -0.4116 0.3406
vn 0.3045 0.9516 0.0428
vn 1.0000 -0.0000 -0.0001
vn 1.0000 -0.0000 -0.0000
vn 1.0000 -0.0002 -0.0004
vn 1.0000 0.0023 -0.0003
vn 1.0000 -0.0010 0.0011
vn -1.0000 0.0003 0.0018
vn 0.7732 0.0809 0.6290
vn 0.7867 0.0365 0.6163
vn 0.7927 0.0433 0.6080
vn 0.7843 0.0894 0.6140
vn 0.8815 0.0355 0.4708
vn 0.8577 -0.0121 0.5141
vn 0.8828 -0.0056 0.4697
vn -0.3378 0.9303 -0.1426
vn 0.7887 -0.0526 0.6126
vn 0.7870 -0.0154 0.6167
vn 0.7385 -0.0446 0.6727
vn 0.6432 0.0636 0.7630
vn 0.6424 -0.0733 0.7629
vn 0.7173 -0.0271 0.6962
vn 0.9238 0.1137 0.3655
vn 0.9250 0.0886 0.3694
vn 0.9180 0.0794 0.3885
vn 0.9279 0.0426 0.3704
vn -0.0003 1.0000 -0.0008
vn 0.0011 -1.0000 0.0002
vn 0.7057 0.6488 0.2845
vn 0.6815 0.6747 0.2836
vn 0.6976 0.6071 0.3806
vn 0.9409 -0.0397 0.3363
vn 0.9403 -0.0388 0.3381
vn 0.9284 -0.0052 0.3716
vn 0.9243 -0.0493 0.3785
vn 0.9217 -0.0612 0.3831
vn 0.9368 -0.0307 0.3485
vn -0.0124 0.9999 -0.0037
vn -0.0464 0.9989 -0.0037
vn 0.0183 0.9998 0.0027
vn 0.9616 0.1386 0.2370
vn 0.7732 0.6100 0.1731
vn 0.7505 0.6462 0.1384
vn -0.0001 0.0004 1.0000
vn -0.0000 0.0002 1.0000
vn -0.0005 0.0008 1.0000
vn -0.0007 0.0001 1.0000
vn -0.0007 0.0013 1.0000
vn 0.0013 -0.0001 -1.0000
vn 0.6753 0.0807 0.7331
vn 0.6448 0.0908 0.7589
vn 0.6398 0.0403 0.7674
vn 0.3236 0.9364 0.1360
vn 0.3319 0.9328 0.1407
vn 0.9851 -0.0458 0.1656
vn 0.9947 -0.0336 0.0975
vn 0.9853 0.0428 0.1651
vn 0.9914 0.0635 0.1145
vn 0.9791 0.1029 0.1754
vn 0.9814 0.0900 0.1693
vn 0.3377 0.9397 0.0545
vn 0.4946 0.6422 0.5856
vn 0.4923 0.6185 0.6124
vn 0.8660 0.0964 0.4907
vn 0.9277 0.0012 0.3732
vn 0.9488 -0.0115 0.3157
vn 0.6158 0.6301 0.4731
vn 0.6010 0.6484 0.4673
vn 0.3337 0.9072 0.2560
vn 0.2275 0.9535 0.1977
vn 0.2205 0.9441 0.2449
vn 0.6437 -0.0298 0.7647
vn 1.0000 -0.0000 -0.0006
vn 1.0000 -0.0000 -0.0003
vn 0.6440 -0.0298 0.7644
vn 0.7548 -0.0297 0.6553
vn 1.0000 -0.0003 -0.0018
vn -0.0464 0.9986 -0.0237
vn -0.3378 0.9304 -0.1425
vn -0.3367 0.9308 -0.1421
vn 1.0000 -0.0000 0.0007
vn 0.0309 0.9994 0.0145
vn 0.0154 0.9999 0.0045
vn 0.9496 0.0010 0.3133
vn -0.0001 1.0000 -0.0007
vn -0.0009 1.0000 -0.0004
vn 0.9238 -0.0590 0.3783
vn 0.9209 -0.0612 0.3850
vn 0.7794 -0.0441 0.6250
vn 0.9261 0.0806 0.3685
vn 0.9199 0.0894 0.3818
vn 0.6126 0.6306 0.4764
vn -0.0000 -0.0000 -1.0000
vn 0.0011 -0.0001 -1.0000
vn 0.0010 -0.0001 -1.0000
vn -0.0003 -0.0000 -1.0000
vn 0.9277 -0.0112 0.3732
vn 0.6045 0.6472 0.4644
vn 0.3238 0.9361 0.1373
vn 0.3320 0.9330 0.1392
vn 0.7054 0.6458 0.2923
vn 0.0021 -0.0000 -1.0000
vn 0.6873 0.6714 0.2774
s 0
f 41//1 33//1 45//1
f 44//2 41//2 40//2
f 21//3 29//3 6//3
f 14//4 13//4 11//4
f 11//5 16//5 13//5
f 13//6 16//6 20//6
f 38//7 39//7 35//7
f 13//8 20//8 24//8
f 21//9 17//9 28//9
f 7//10 11//10 15//10
f 24//11 30//11 33//11
f 1//12 2//12 3//12
f 30//13 21//13 28//13
f 16//14 11//14 7//14
f 34//15 33//15 41//15
f 42//16 39//16 43//16
f 16//17 20//17 1//17
f 1//18 34//18 4//18
f 20//18 34//18 1//18
f 4//19 34//19 23//19
f 34//20 40//20 23//20
f 40//21 34//21 41//21
f 23//22 27//22 40//22
f 12//23 3//23 6//23
f 3//24 2//24 5//24
f 5//25 6//25 3//25
f 6//26 18//26 12//26
f 6//27 5//27 10//27
f 5//28 9//28 17//28
f 10//29 5//29 17//29
f 44//30 45//30 41//30
f 7//31 15//31 8//31
f 9//32 5//32 2//32
f 8//33 9//33 16//33
f 7//34 8//34 16//34
f 2//35 1//35 9//35
f 1//36 16//36 9//36
f 31//37 25//37 19//37
f 19//38 6//38 29//38
f 31//39 19//39 29//39
f 6//40 10//40 21//40
f 13//41 14//41 24//41
f 32//42 14//42 24//42
f 36//43 26//43 19//43
f 25//44 36//44 19//44
f 26//45 18//45 19//45
f 14//46 28//46 8//46
f 8//47 28//47 9//47
f 21//48 10//48 17//48
f 11//49 14//49 15//49
f 8//50 15//50 14//50
f 17//51 9//51 28//51
f 37//52 42//52 44//52
f 42//53 43//53 44//53
f 44//54 40//54 37//54
f 35//55 25//55 31//55
f 25//56 35//56 36//56
f 35//57 39//57 36//57
f 33//58 44//58 45//58
f 44//59 33//59 43//59
f 39//60 33//60 38//60
f 38//61 33//61 30//61
f 39//62 43//62 33//62
f 30//63 32//63 24//63
f 3//64 12//64 4//64
f 12//65 23//65 4//65
f 4//66 1//66 3//66
f 26//67 36//67 37//67
f 37//68 36//68 42//68
f 28//69 14//69 32//69
f 32//70 30//70 28//70
f 21//71 30//71 29//71
f 30//72 38//72 29//72
f 38//73 35//73 31//73
f 31//74 29//74 38//74
f 36//75 39//75 42//75
f 12//76 22//76 27//76
f 27//77 23//77 12//77
f 18//78 6//78 19//78
f 34//79 20//79 33//79
f 33//80 20//80 24//80
f 26//81 22//81 12//81
f 12//82 18//82 26//82
f 26//83 37//83 22//83
f 37//84 40//84 22//84
f 40//85 27//85 22//85
f 16//86 2//86 1//86
f 4//87 1//87 40//87
f 40//88 1//88 16//88
f 7//89 2//89 16//89
f 40//17 16//17 20//17
f 7//90 9//90 2//90
f 23//91 4//91 40//91
f 43//92 44//92 40//92
f 44//93 45//93 40//93
f 45//94 41//94 40//94
f 34//95 40//95 20//95
f 37//96 42//96 40//96
f 42//97 43//97 40//97
f 34//98 20//98 24//98
f 24//99 13//99 11//99
f 24//100 11//100 14//100
f 14//101 8//101 11//101
f 8//102 15//102 11//102
f 8//103 9//103 7//103
f 29//104 31//104 6//104
f 31//105 19//105 6//105
f 18//106 22//106 12//106
f 45//107 44//107 43//107
f 39//108 30//108 43//108
f 30//109 24//109 43//109
f 24//107 45//107 43//107
f 24//110 33//110 45//110
f 33//111 34//111 24//111
f 18//112 26//112 22//112
f 26//113 42//113 37//113
f 26//114 36//114 42//114
f 25//115 26//115 19//115
f 38//116 30//116 39//116
f 25//117 36//117 26//117
