# Blender 4.0.0
# www.blender.org
o decimated_mesh
v 0.000001 0.018195 -0.040213
v -0.000004 0.018198 -0.038692
v 0.027012 0.018198 -0.027706
v 0.000007 0.013408 -0.039744
v 0.029009 0.018197 -0.027745
v -0.000004 0.013051 -0.038297
v 0.009768 0.018198 -0.038890
v 0.006600 0.012376 -0.038863
v 0.000005 0.012051 -0.039269
v 0.026593 0.012211 -0.027705
v 0.011008 0.013051 -0.038135
v 0.011556 0.012152 -0.037725
v 0.019825 0.012224 -0.034762
v -0.000004 0.012082 -0.038548
v 0.028387 0.012759 -0.027707
v 0.027211 0.012282 -0.028760
v 0.027934 0.012214 -0.027706
v 0.020348 0.018198 -0.035058
vn -0.9999 0.0031 -0.0120
vn 0.3500 -0.0769 -0.9336
vn 0.3671 -0.0711 -0.9275
vn -0.0030 0.9991 -0.0432
vn 0.1170 -0.0967 -0.9884
vn 0.0730 -0.8692 -0.4891
vn 0.3310 -0.2168 -0.9184
vn -0.3662 -0.2328 0.9010
vn 0.0742 -0.3298 -0.9411
vn 0.6676 -0.5575 -0.4934
vn -0.0005 -0.0020 -1.0000
vn -1.0000 -0.0003 -0.0034
vn -1.0000 -0.0020 -0.0082
vn -1.0000 -0.0009 -0.0079
vn -0.0000 1.0000 -0.0000
vn -0.0000 1.0000 -0.0019
vn 0.0005 1.0000 -0.0004
vn 0.3401 -0.0558 -0.9387
vn 0.3766 -0.0265 -0.9260
vn -0.0054 0.9999 -0.0095
vn -0.0021 1.0000 0.0038
vn -0.0092 0.9999 0.0107
vn 0.1339 -0.0775 -0.9880
vn 0.1771 -0.1010 -0.9790
vn 0.1322 -0.9793 -0.1534
vn 0.0195 0.0047 0.9998
vn -0.0011 -0.0000 -1.0000
vn 0.2002 -0.3027 -0.9318
vn 0.6438 -0.0648 -0.7624
vn 0.6831 -0.0831 -0.7256
vn 0.6283 -0.0933 -0.7723
vn -1.0000 -0.0001 -0.0034
vn -0.9999 -0.0024 -0.0120
vn -1.0000 -0.0000 -0.0000
vn -0.9999 -0.0022 -0.0118
vn 0.0127 0.9990 -0.0430
vn 0.3758 -0.0708 -0.9240
vn 0.3692 -0.0259 -0.9290
vn -0.0101 0.9999 0.0103
vn -0.0021 1.0000 -0.0091
vn -0.0005 -0.0001 -1.0000
vn -0.0025 -0.0004 -1.0000
vn -0.0158 0.9997 0.0196
s 0
f 9//1 14//1 6//1
f 11//2 18//2 13//2
f 10//3 6//3 2//3
f 12//4 9//4 14//4
f 1//5 8//5 4//5
f 12//6 9//6 8//6
f 11//7 13//7 12//7
f 14//8 10//8 6//8
f 4//9 8//9 9//9
f 16//10 15//10 17//10
f 10//11 15//11 17//11
f 6//12 2//12 1//12
f 1//13 4//13 6//13
f 4//14 9//14 6//14
f 18//15 7//15 3//15
f 3//15 7//15 2//15
f 7//16 1//16 2//16
f 5//17 18//17 3//17
f 11//18 7//18 18//18
f 10//19 2//19 3//19
f 12//20 14//20 13//20
f 13//21 10//21 17//21
f 10//22 13//22 14//22
f 1//23 7//23 8//23
f 7//24 11//24 8//24
f 17//25 13//25 16//25
f 15//26 5//26 3//26
f 3//27 15//27 10//27
f 12//28 8//28 11//28
f 18//29 5//29 16//29
f 5//30 15//30 16//30
f 16//31 13//31 18//31
f 14//32 2//32 1//32
f 4//33 14//33 1//33
f 6//34 2//34 14//34
f 4//35 9//35 14//35
f 9//36 14//36 10//36
f 6//37 2//37 3//37
f 3//15 18//15 2//15
f 18//15 7//15 2//15
f 10//38 6//38 3//38
f 12//39 9//39 17//39
f 17//40 9//40 10//40
f 17//41 10//41 3//41
f 17//42 3//42 15//42
f 13//43 12//43 17//43
