# Blender 4.0.0
# www.blender.org
o decimated_mesh
v -0.013432 0.024609 -0.038189
v -0.013432 0.024609 -0.030555
v -0.000008 0.024609 -0.033327
v -0.013432 0.139914 -0.030282
v -0.010547 0.024609 -0.039235
v -0.000018 0.024609 -0.040663
v -0.000008 0.139932 -0.033063
v -0.000008 0.141363 -0.033581
v -0.013430 0.141351 -0.030815
v -0.000008 0.142230 -0.034484
v -0.013433 0.142182 -0.031684
v -0.011005 0.054485 -0.040670
v -0.000008 0.142588 -0.035609
v -0.000009 0.079313 -0.042729
v -0.000014 0.142404 -0.037742
v -0.013432 0.142582 -0.033039
v -0.013427 0.142443 -0.035079
v -0.010500 0.142140 -0.036632
v -0.009469 0.093773 -0.041504
v -0.000225 0.093334 -0.042759
v -0.000012 0.140986 -0.039226
v -0.009381 0.141228 -0.037809
v -0.013421 0.095824 -0.040375
v -0.005098 0.140450 -0.038963
v -0.011435 0.140523 -0.037767
v -0.000017 0.135640 -0.040139
v -0.010393 0.134250 -0.038857
v -0.013429 0.140517 -0.036999
vn -1.0000 0.0011 -0.0004
vn 0.1902 0.3414 0.9205
vn -0.1014 -0.0375 -0.9941
vn -0.4141 0.0685 -0.9077
vn -0.2028 0.0023 -0.9792
vn -0.0000 1.0000 -0.0000
vn 0.1403 0.7156 0.6843
vn -0.1044 0.6004 -0.7928
vn -0.0134 0.9976 -0.0681
vn -0.1351 0.0984 -0.9859
vn -0.0887 0.7448 -0.6614
vn 0.0576 0.9514 0.3026
vn -0.5423 -0.0257 -0.8398
vn -0.2741 0.6537 -0.7054
vn -0.2367 0.6462 -0.7255
vn -0.2898 0.6757 -0.6779
vn -1.0000 0.0024 0.0025
vn -1.0000 0.0002 0.0001
vn -1.0000 -0.0001 -0.0001
vn -1.0000 -0.0000 0.0001
vn 1.0000 -0.0002 -0.0013
vn -1.0000 -0.0002 0.0014
vn -1.0000 0.0007 0.0008
vn -1.0000 -0.0016 0.0004
vn -1.0000 0.0002 -0.0000
vn -1.0000 -0.0000 -0.0011
vn -1.0000 -0.0001 -0.0005
vn -1.0000 -0.0057 -0.0024
vn -1.0000 0.0019 0.0018
vn -1.0000 -0.0023 -0.0022
vn 0.1899 0.3341 0.9232
vn -0.1510 -0.0151 -0.9884
vn -0.1342 -0.0496 -0.9897
vn -0.1347 -0.0042 -0.9909
vn -0.0855 0.7204 -0.6883
vn -0.3581 0.1016 -0.9281
vn -0.2022 0.0022 -0.9793
vn 0.1404 0.7144 0.6855
vn -0.2793 -0.0095 -0.9602
vn -0.2465 0.0577 -0.9674
vn -0.0141 0.9962 -0.0857
vn -0.0686 0.1680 -0.9834
vn -0.1313 0.0619 -0.9894
vn -0.1821 0.1388 -0.9734
vn -0.1306 0.0617 -0.9895
vn -0.1633 0.4225 -0.8915
vn 0.0556 0.9575 0.2831
vn -0.0547 0.9556 -0.2894
vn -0.3404 -0.0503 -0.9389
vn 0.9530 0.0141 -0.3028
vn 0.1402 0.7156 0.6843
vn 0.0597 0.9512 0.3026
vn 0.0538 0.9576 0.2831
vn -1.0000 -0.0000 -0.0007
vn -1.0000 -0.0000 -0.0000
vn -1.0000 -0.0000 0.0007
vn -1.0000 0.0036 0.0066
vn 0.1406 0.7144 0.6855
vn 0.1894 0.3415 0.9206
vn -1.0000 -0.0002 -0.0003
vn 1.0000 -0.0000 -0.0000
vn 1.0000 -0.0000 -0.0001
vn 1.0000 0.0001 -0.0012
vn 1.0000 0.0044 -0.0031
vn -1.0000 0.0033 -0.0026
vn -1.0000 -0.0000 -0.0009
vn -0.0000 1.0000 0.0002
vn -1.0000 0.0001 -0.0032
vn -0.2022 0.0023 -0.9793
vn -0.2028 0.0022 -0.9792
vn 0.1908 0.3340 0.9231
vn 1.0000 0.0005 -0.0081
vn -0.1313 0.0617 -0.9894
vn -0.1306 0.0619 -0.9895
s 0
f 4//1 17//1 28//1
f 4//2 7//2 9//2
f 14//3 6//3 12//3
f 28//4 27//4 23//4
f 2//5 4//5 7//5
f 2//6 5//6 1//6
f 11//7 9//7 8//7
f 22//8 21//8 24//8
f 16//9 13//9 17//9
f 24//10 26//10 27//10
f 18//11 15//11 22//11
f 16//12 10//12 13//12
f 23//13 12//13 1//13
f 25//14 28//14 18//14
f 22//15 25//15 18//15
f 28//16 17//16 18//16
f 15//17 7//17 13//17
f 13//18 8//18 10//18
f 8//19 13//19 7//19
f 7//20 14//20 3//20
f 3//21 6//21 14//21
f 14//22 7//22 26//22
f 26//23 7//23 21//23
f 7//24 15//24 21//24
f 23//25 1//25 2//25
f 2//26 4//26 23//26
f 23//27 4//27 28//27
f 9//28 11//28 16//28
f 4//29 9//29 16//29
f 16//30 17//30 4//30
f 7//31 8//31 9//31
f 12//32 19//32 14//32
f 5//33 12//33 6//33
f 19//34 20//34 14//34
f 22//35 15//35 21//35
f 28//36 25//36 27//36
f 2//37 7//37 3//37
f 5//6 3//6 6//6
f 3//6 5//6 2//6
f 8//38 10//38 11//38
f 19//39 12//39 23//39
f 23//40 27//40 19//40
f 15//41 17//41 13//41
f 24//42 21//42 26//42
f 26//43 20//43 19//43
f 25//44 24//44 27//44
f 26//45 19//45 27//45
f 22//46 24//46 25//46
f 16//47 11//47 10//47
f 15//48 18//48 17//48
f 12//49 5//49 1//49
f 26//50 14//50 20//50
f 9//51 10//51 11//51
f 10//52 13//52 11//52
f 13//53 16//53 11//53
f 16//54 1//54 11//54
f 1//55 2//55 11//55
f 2//56 4//56 11//56
f 4//57 9//57 11//57
f 8//58 10//58 9//58
f 4//59 8//59 9//59
f 8//60 10//60 7//60
f 7//61 3//61 13//61
f 7//55 10//55 13//55
f 3//62 14//62 13//62
f 14//63 21//63 13//63
f 21//64 15//64 13//64
f 17//65 28//65 16//65
f 28//66 1//66 16//66
f 5//67 1//67 6//67
f 6//6 1//6 2//6
f 28//68 23//68 1//68
f 6//6 2//6 3//6
f 3//69 2//69 4//69
f 3//70 4//70 7//70
f 7//71 8//71 4//71
f 26//72 21//72 14//72
f 27//73 20//73 19//73
f 27//74 26//74 20//74
