# Blender 4.0.0
# www.blender.org
o decimated_mesh
v -0.401515 0.948129 -0.274636
v 0.401239 0.948199 -0.274683
v 0.401289 1.790858 -0.246000
v -0.401484 1.786489 -0.257654
v -0.401530 1.786569 -0.286179
v 0.401289 1.790858 -0.286637
vn -0.0001 0.0203 -0.9998
vn -0.0001 -0.0138 -0.9999
vn -0.0054 1.0000 -0.0000
vn 1.0000 -0.0000 -0.0016
vn 0.0143 0.0340 -0.9993
vn -0.0005 -0.0142 -0.9999
vn 1.0000 -0.0001 -0.0000
vn -0.0053 1.0000 0.0028
vn -0.0053 1.0000 -0.0000
vn -0.0005 -0.0138 -0.9999
vn -0.0055 1.0000 0.0028
vn 0.0144 0.0202 -0.9997
vn -0.0001 0.0340 -0.9994
vn -0.0001 -0.0142 -0.9999
s 0
f 2//1 1//1 4//1
f 5//2 2//2 1//2
f 4//3 3//3 6//3
f 5//4 4//4 1//4
f 3//5 2//5 4//5
f 5//6 6//6 2//6
f 6//7 3//7 2//7
f 6//8 5//8 4//8
f 3//9 6//9 5//9
f 6//10 1//10 5//10
f 4//11 3//11 5//11
f 4//12 3//12 1//12
f 1//13 3//13 2//13
f 2//14 1//14 6//14
