# Blender 4.0.0
# www.blender.org
o decimated_mesh
v -0.428855 1.766754 0.282586
v -0.346746 1.759081 0.280053
v -0.428851 1.715991 0.269756
v -0.346824 1.743858 0.263685
v -0.428808 1.939911 0.273667
v -0.346825 1.953262 0.272968
v -0.383315 1.960569 0.267255
v -0.346831 1.966909 0.255494
v -0.390495 1.968421 0.242044
v -0.428864 1.959723 0.254962
v -0.428856 1.714320 0.204118
v -0.428946 1.727946 0.179051
v -0.346830 1.743032 0.213787
v -0.346830 1.969257 0.164597
v -0.428402 1.962383 0.164488
v -0.346830 1.792560 0.164516
v -0.428856 1.754777 0.164516
vn 0.2868 -0.7022 0.6517
vn 0.0613 0.7866 0.6144
vn -0.0637 0.9475 0.3132
vn 0.0070 -0.2450 0.9695
vn -0.2046 0.6717 0.7120
vn 0.3418 -0.8251 -0.4498
vn -0.3278 0.9445 -0.0240
vn -0.0839 0.9958 -0.0365
vn 0.2146 -0.4658 -0.8585
vn 0.0013 0.0005 -1.0000
vn 0.0001 -0.0001 -1.0000
vn -1.0000 -0.0004 0.0006
vn 1.0000 -0.0051 -0.0000
vn 1.0000 -0.0010 -0.0010
vn -1.0000 -0.0000 -0.0000
vn 1.0000 0.0005 -0.0000
vn -0.1046 0.9407 0.3228
vn -0.2121 0.9769 0.0276
vn 0.3946 -0.6480 -0.6514
vn -0.3227 0.9464 -0.0156
vn 0.0266 0.9993 0.0258
vn -0.0595 0.4132 0.9087
vn -1.0000 0.0003 -0.0000
vn -1.0000 -0.0078 -0.0053
vn -1.0000 0.0022 -0.0033
vn -0.9999 0.0075 0.0077
vn -1.0000 -0.0001 0.0001
vn 0.0356 0.0514 0.9980
vn 0.0026 0.0365 0.9993
vn -1.0000 -0.0003 0.0010
vn 0.0342 0.0365 0.9987
vn 0.0001 0.0514 0.9987
vn -1.0000 0.0004 0.0034
vn -1.0000 0.0001 0.0008
vn -1.0000 -0.0062 0.0002
vn -1.0000 0.0015 -0.0035
vn -0.3232 0.9460 -0.0241
vn -1.0000 -0.0000 0.0007
vn -1.0000 -0.0004 -0.0000
vn -1.0000 0.0022 -0.0050
vn -0.3287 0.9443 -0.0156
s 0
f 3//1 4//1 2//1
f 7//2 6//2 8//2
f 7//3 8//3 9//3
f 2//4 1//4 3//4
f 10//5 5//5 7//5
f 11//6 12//6 13//6
f 13//7 11//7 3//7
f 9//8 14//8 15//8
f 12//9 17//9 16//9
f 14//10 16//10 15//10
f 16//11 17//11 15//11
f 6//12 16//12 2//12
f 4//13 13//13 2//13
f 13//14 16//14 2//14
f 16//15 6//15 14//15
f 14//16 8//16 6//16
f 9//17 10//17 7//17
f 15//18 10//18 9//18
f 12//19 16//19 13//19
f 13//20 3//20 4//20
f 9//21 8//21 14//21
f 7//22 5//22 6//22
f 1//23 5//23 17//23
f 10//24 15//24 5//24
f 15//25 17//25 5//25
f 17//26 12//26 11//26
f 11//27 3//27 1//27
f 17//15 11//15 1//15
f 5//28 1//28 2//28
f 6//29 5//29 2//29
f 12//30 3//30 1//30
f 2//31 6//31 1//31
f 6//32 5//32 1//32
f 5//33 10//33 1//33
f 10//34 12//34 1//34
f 11//35 3//35 12//35
f 10//36 17//36 12//36
f 11//37 3//37 4//37
f 16//38 2//38 14//38
f 14//39 2//39 6//39
f 15//40 17//40 10//40
f 4//41 13//41 11//41
