# Blender 4.0.0
# www.blender.org
o decimated_mesh
v -0.401373 1.232956 0.260651
v -0.000115 1.233631 0.258765
v -0.401373 1.234088 0.213488
v -0.000115 1.234121 0.213495
v -0.401373 1.218286 0.275840
v -0.000115 1.219085 0.275453
v -0.401372 1.127025 0.213050
v -0.000115 1.130620 0.210459
v -0.000117 1.123005 0.229936
v -0.000116 1.131242 0.275350
v -0.401374 1.129682 0.274003
vn -1.0000 0.0003 -0.0000
vn -1.0000 -0.0000 -0.0000
vn -0.0001 0.9999 0.0108
vn -0.0008 0.7193 0.6947
vn -0.0000 0.0293 -0.9996
vn 0.0060 -0.9313 -0.3641
vn 0.0010 -0.0012 1.0000
vn 0.0032 -0.9839 0.1784
vn 1.0000 -0.0000 -0.0000
vn -0.0016 0.9997 0.0240
vn 0.0018 0.7538 0.6571
vn -0.0065 0.0041 -1.0000
vn -0.0033 -0.0207 0.9998
vn -0.0118 -0.9990 0.0435
vn -1.0000 0.0001 -0.0001
s 0
f 9//1 10//1 8//1
f 1//2 3//2 5//2
f 3//3 2//3 4//3
f 6//4 1//4 5//4
f 8//5 3//5 4//5
f 9//6 7//6 8//6
f 10//7 6//7 5//7
f 11//8 9//8 10//8
f 8//2 10//2 4//2
f 4//9 2//9 6//9
f 10//2 6//2 4//2
f 3//2 7//2 5//2
f 5//2 7//2 11//2
f 3//10 1//10 2//10
f 6//11 2//11 1//11
f 8//12 7//12 3//12
f 5//13 11//13 10//13
f 11//14 7//14 9//14
f 6//2 4//2 8//2
f 10//2 6//2 9//2
f 9//15 6//15 8//15
f 7//2 11//2 3//2
f 11//2 1//2 3//2
f 11//2 5//2 1//2
