# Blender 4.0.0
# www.blender.org
o decimated_mesh
v 0.427796 1.718376 0.268534
v 0.417779 1.733756 0.260049
v 0.427878 1.769640 0.282742
v 0.417551 1.759301 0.279793
v 0.417822 1.786407 -0.180155
v 0.427882 1.757418 -0.180155
v 0.417822 1.963285 -0.180155
v 0.427882 1.960826 -0.180155
v 0.417818 1.939283 0.274573
v 0.427890 1.960000 0.255102
v 0.427895 1.939118 0.273693
v 0.417860 1.962003 0.257546
vn -0.0000 -0.0000 -1.0000
vn -0.0079 -0.2671 0.9636
vn 0.0794 0.5977 0.7978
vn 0.9443 0.3277 0.0287
vn 0.0877 0.0531 0.9947
vn -0.3004 0.0281 0.9534
vn 0.3003 0.6343 0.7124
vn 1.0000 -0.0001 -0.0004
vn 1.0000 -0.0006 -0.0037
vn 1.0000 -0.0000 0.0002
vn 1.0000 -0.0004 -0.0000
vn -0.8505 -0.3264 0.4125
vn 1.0000 -0.0000 -0.0001
vn 1.0000 -0.0004 0.0001
vn 0.9999 -0.0011 0.0130
vn 1.0000 -0.0003 0.0020
vn 0.8184 0.5706 0.0683
vn 0.1963 0.9805 0.0019
vn 0.2374 0.9714 0.0028
vn 0.8243 0.5640 0.0492
vn 1.0000 -0.0016 0.0001
vn 1.0000 -0.0001 -0.0000
vn 1.0000 -0.0015 -0.0001
vn 1.0000 -0.0000 0.0006
vn 1.0000 0.0081 0.0011
vn 0.9440 0.3276 0.0393
vn 1.0000 -0.0000 -0.0000
vn 1.0000 0.0002 -0.0000
vn 1.0000 -0.0019 -0.0001
vn 0.2374 0.9714 0.0018
vn 0.1965 0.9805 0.0029
s 0
f 8//1 5//1 7//1
f 3//2 4//2 1//2
f 11//3 12//3 9//3
f 1//4 6//4 5//4
f 11//5 9//5 3//5
f 4//6 3//6 9//6
f 10//7 12//7 11//7
f 8//1 6//1 5//1
f 11//8 3//8 10//8
f 10//9 3//9 1//9
f 1//10 6//10 8//10
f 10//11 1//11 8//11
f 1//12 4//12 2//12
f 7//13 12//13 5//13
f 5//14 12//14 2//14
f 4//15 2//15 9//15
f 2//16 12//16 9//16
f 1//17 5//17 2//17
f 10//18 8//18 12//18
f 8//19 7//19 12//19
f 2//20 1//20 6//20
f 6//21 3//21 1//21
f 6//22 11//22 3//22
f 9//23 4//23 7//23
f 7//24 4//24 5//24
f 5//25 4//25 2//25
f 5//26 2//26 6//26
f 8//27 11//27 6//27
f 8//28 10//28 11//28
f 12//29 9//29 7//29
f 10//30 8//30 7//30
f 12//31 10//31 7//31
