# Blender 4.0.0
# www.blender.org
o decimated_mesh
v -0.501563 0.012618 -0.265760
v -0.502596 0.011948 -0.226505
v -0.498873 0.948145 -0.278664
v -0.493048 -0.004549 -0.277573
v -0.490943 -0.007878 -0.226519
v -0.503689 0.948190 -0.224861
v -0.480299 0.012152 -0.286382
v -0.479816 0.948145 -0.288517
v 0.000545 0.948145 -0.264760
v 0.000620 -0.010603 -0.225457
v 0.000545 0.012815 -0.287295
v 0.000546 -0.007155 -0.277738
v 0.000545 0.948145 -0.284600
vn -0.9038 -0.4269 -0.0311
vn -0.9960 0.0016 -0.0891
vn -0.0054 -0.9978 -0.0658
vn 0.0082 0.0029 -1.0000
vn -0.5646 -0.0044 -0.8254
vn 0.0788 0.0408 0.9961
vn -0.0011 -0.4317 -0.9020
vn -0.8621 -0.5067 0.0025
vn -0.9997 -0.0011 -0.0263
vn -0.8151 -0.0056 -0.5793
vn -0.0022 -0.0018 1.0000
vn -0.0022 -0.0020 1.0000
vn 0.0001 1.0000 -0.0000
vn -0.0000 1.0000 -0.0007
vn -0.0005 1.0000 -0.0009
vn -0.0053 -0.9979 -0.0648
vn -0.0019 -0.0023 -1.0000
vn -0.4593 -0.0018 -0.8883
vn -0.0028 -0.4649 -0.8854
vn 1.0000 -0.0000 -0.0012
vn 1.0000 0.0001 -0.0000
vn 1.0000 -0.0007 -0.0015
vn -0.0054 -0.9979 -0.0648
vn -0.0053 -0.9978 -0.0658
s 0
f 4//1 2//1 1//1
f 1//2 6//2 3//2
f 5//3 12//3 10//3
f 11//4 8//4 13//4
f 3//5 7//5 4//5
f 6//6 10//6 9//6
f 12//7 7//7 11//7
f 4//8 5//8 2//8
f 1//9 2//9 6//9
f 3//10 4//10 1//10
f 10//11 6//11 2//11
f 10//12 2//12 5//12
f 6//13 9//13 13//13
f 13//14 8//14 6//14
f 6//15 8//15 3//15
f 5//16 4//16 12//16
f 11//17 7//17 8//17
f 8//18 7//18 3//18
f 12//19 4//19 7//19
f 11//20 13//20 10//20
f 13//21 9//21 10//21
f 10//22 12//22 11//22
f 5//23 4//23 10//23
f 4//24 12//24 10//24
