# Blender 4.0.0
# www.blender.org
o decimated_mesh
v -0.000076 1.969282 0.164516
v -0.000076 1.967716 0.253717
v -0.000076 1.792578 0.164516
v -0.346830 1.969282 0.164596
v -0.000076 1.742967 0.213870
v -0.346830 1.792578 0.164516
v -0.000076 1.953612 0.272722
v -0.346832 1.959262 0.270489
v -0.346830 1.743008 0.213827
v -0.000076 1.743367 0.262821
v -0.346830 1.743259 0.263004
v -0.346830 1.757552 0.279197
v -0.000076 1.757823 0.280031
vn -1.0000 -0.0000 -0.0000
vn 0.0010 0.7497 -0.6617
vn -0.0000 0.7053 0.7090
vn -0.0058 0.0373 0.9993
vn -0.0003 1.0000 -0.0082
vn -0.0000 0.9998 0.0176
vn 0.0002 -0.0000 1.0000
vn 0.0092 0.8030 0.5959
vn -0.0006 0.7657 -0.6432
vn -0.0000 0.7053 0.7089
vn -0.0024 0.0431 0.9991
vn 1.0000 -0.0000 -0.0000
vn 0.0001 1.0000 -0.0051
vn -0.0197 0.9954 0.0942
vn -0.0000 -0.0005 1.0000
vn -0.0000 -0.0000 1.0000
vn 0.0002 -0.0005 1.0000
vn -0.0057 0.0431 0.9991
vn -0.0024 0.0373 0.9993
s 0
f 6//1 9//1 12//1
f 11//2 12//2 13//2
f 6//3 9//3 5//3
f 13//4 7//4 8//4
f 3//1 5//1 13//1
f 5//5 11//5 10//5
f 4//6 2//6 1//6
f 3//7 1//7 4//7
f 4//1 6//1 8//1
f 9//1 11//1 12//1
f 12//1 8//1 6//1
f 7//8 2//8 8//8
f 11//9 13//9 10//9
f 6//10 5//10 3//10
f 8//11 12//11 13//11
f 7//1 3//1 13//1
f 10//1 13//1 5//1
f 3//12 1//12 7//12
f 1//12 2//12 7//12
f 11//13 5//13 9//13
f 4//14 8//14 2//14
f 3//15 4//15 6//15
f 3//16 1//16 6//16
f 6//17 1//17 4//17
f 8//18 12//18 7//18
f 12//19 13//19 7//19
f 13//1 7//1 10//1
f 10//1 7//1 5//1
f 5//1 7//1 3//1
f 9//1 8//1 6//1
f 9//1 11//1 8//1
f 11//1 12//1 8//1
