# Blender 4.0.0
# www.blender.org
o decimated_mesh
v 0.000946 0.121711 0.213939
v 0.382229 0.137962 0.210446
v 0.382240 0.148761 0.269014
v 0.382240 0.106241 0.280512
v 0.000545 0.106218 0.280519
v 0.000529 0.151339 0.268805
vn -0.0418 0.8790 -0.4750
vn 0.0001 -0.9740 -0.2266
vn 0.0012 0.2610 0.9653
vn 1.0000 -0.0001 -0.0002
vn -1.0000 -0.0020 -0.0065
vn 0.0067 0.9834 -0.1813
vn 0.0350 -0.9104 -0.4122
vn -0.0000 0.2513 0.9679
s 0
f 6//1 2//1 1//1
f 1//2 4//2 5//2
f 6//3 4//3 3//3
f 3//4 4//4 2//4
f 1//5 5//5 6//5
f 6//6 3//6 2//6
f 1//7 2//7 4//7
f 6//8 5//8 4//8
