# Blender 4.0.0
# www.blender.org
o decimated_mesh
v 0.000537 0.155415 0.255766
v -0.367178 0.150633 0.269594
v -0.367163 0.152369 0.223648
v 0.000539 -0.000651 0.287259
v -0.367171 0.000473 0.283805
v 0.000545 0.106096 0.166057
v -0.367163 0.106096 0.166057
v 0.000545 -0.010762 0.166057
v -0.367163 -0.010762 0.166057
vn -0.0091 0.0942 0.9955
vn -0.0000 -0.0000 -1.0000
vn -1.0000 -0.0000 -0.0000
vn -0.0000 0.7795 -0.6263
vn -0.0116 0.9992 0.0377
vn -0.0039 -0.9955 0.0950
vn 0.0343 0.1977 0.9797
vn 1.0000 -0.0000 0.0001
vn -1.0000 -0.0000 -0.0001
vn -1.0000 -0.0001 -0.0003
vn 0.0348 0.8758 -0.4815
vn -0.0000 -0.9965 0.0831
vn -1.0000 0.0004 -0.0003
vn -1.0000 -0.0001 -0.0001
s 0
f 4//1 2//1 5//1
f 7//2 8//2 9//2
f 3//3 7//3 5//3
f 3//4 6//4 7//4
f 2//5 1//5 3//5
f 9//6 4//6 5//6
f 4//7 1//7 2//7
f 6//8 1//8 4//8
f 4//8 8//8 6//8
f 7//2 6//2 8//2
f 7//9 9//9 5//9
f 5//10 2//10 3//10
f 3//11 1//11 6//11
f 9//12 8//12 4//12
f 7//13 2//13 3//13
f 9//14 5//14 2//14
f 7//9 9//9 2//9
