# Blender 4.0.0
# www.blender.org
o decimated_mesh
v 0.498365 0.157103 0.279344
v 0.503212 0.157123 -0.016006
v 0.428504 0.157123 -0.016006
v 0.502146 0.106213 -0.016006
v 0.390493 0.106213 -0.016006
v 0.493446 0.106184 0.281707
v 0.450850 0.157465 0.286317
v 0.382240 0.106243 0.280495
v 0.381543 0.152469 0.267004
vn -0.0109 -0.0985 0.9951
vn -0.0000 -0.0000 -1.0000
vn -0.7953 0.5938 -0.1222
vn 0.1454 0.0318 0.9889
vn 0.9951 -0.0948 0.0291
vn -0.2765 0.2654 0.9236
vn -0.0005 -1.0000 0.0001
vn -0.0000 -1.0000 -0.0001
vn -0.0000 1.0000 0.0001
vn -0.0407 0.9991 0.0097
vn -0.0195 0.9827 -0.1841
vn 0.9996 -0.0209 0.0164
vn -0.9993 -0.0232 -0.0278
vn -0.0000 1.0000 -0.0011
vn 0.0076 1.0000 0.0002
vn -0.0731 0.9973 0.0043
s 0
f 7//1 8//1 6//1
f 4//2 3//2 2//2
f 3//3 5//3 9//3
f 6//4 1//4 7//4
f 4//5 1//5 6//5
f 7//6 9//6 8//6
f 4//2 5//2 3//2
f 8//7 5//7 6//7
f 5//8 4//8 6//8
f 2//9 3//9 1//9
f 3//10 9//10 1//10
f 9//11 7//11 1//11
f 4//12 2//12 1//12
f 9//13 5//13 8//13
f 3//14 7//14 2//14
f 7//15 1//15 2//15
f 9//16 7//16 3//16
