# Blender 4.0.0
# www.blender.org
o decimated_mesh
v 0.475987 1.777743 0.287300
v 0.427883 1.772403 0.282500
v 0.468522 0.948137 0.288765
v 0.427883 1.145808 0.280211
v 0.430936 0.948156 0.274795
v 0.496682 1.787037 0.276948
v 0.495542 0.948145 0.278745
v 0.494082 1.897469 0.254380
v 0.484660 1.883937 0.269993
v 0.464971 1.913361 0.272872
v 0.504638 1.848039 0.242618
v 0.502326 0.948145 0.262811
v 0.428158 1.940886 0.273656
v 0.465591 1.935828 0.255352
v 0.428181 1.960652 0.254605
v 0.503205 0.948145 -0.180155
v 0.504097 1.855624 -0.180155
v 0.428512 0.948145 -0.180155
v 0.493863 1.898509 -0.180155
v 0.469522 1.934136 -0.180155
v 0.428136 1.961393 -0.180156
vn -0.0000 -0.0000 -1.0000
vn 0.3483 0.0311 -0.9369
vn 0.0002 1.0000 -0.0000
vn 0.5529 0.8333 0.0014
vn 0.2226 0.0036 -0.9749
vn -0.3477 0.0015 -0.9376
vn -0.9731 -0.0027 -0.2302
vn -0.8257 -0.5641 -0.0009
vn -0.9781 -0.2083 -0.0025
vn -0.4026 -0.1151 -0.9081
vn -0.4073 -0.6336 -0.6578
vn -0.7889 -0.1408 -0.5982
vn 1.0000 0.0004 0.0012
vn -0.9727 -0.2321 -0.0001
vn -1.0000 0.0025 -0.0020
vn -1.0000 0.0010 0.0013
vn -0.0000 1.0000 -0.0000
vn -0.0003 1.0000 -0.0001
vn 0.0003 1.0000 0.0006
vn -0.1060 -0.1137 -0.9878
vn 0.5500 0.8351 0.0017
vn -0.4469 -0.0013 -0.8946
vn -0.8028 -0.5962 -0.0049
vn -0.3255 -0.1261 -0.9371
vn -0.6413 -0.4608 -0.6136
vn -0.6316 -0.3552 -0.6891
vn 0.1049 -0.0523 -0.9931
vn 0.0996 -0.0027 -0.9950
vn -0.9140 -0.1018 -0.3926
vn -0.9201 0.0004 -0.3918
vn 0.9999 0.0156 -0.0053
vn 1.0000 -0.0000 0.0005
vn 1.0000 -0.0017 -0.0005
vn 1.0000 -0.0016 -0.0001
vn -0.4258 -0.5491 -0.7192
vn -0.0002 1.0000 -0.0000
vn 0.0005 1.0000 -0.0000
vn 0.5500 0.8351 0.0014
vn 0.5529 0.8333 0.0018
s 0
f 21//1 17//1 18//1
f 3//2 5//2 4//2
f 5//3 12//3 18//3
f 14//4 21//4 15//4
f 2//5 3//5 4//5
f 1//6 7//6 3//6
f 6//7 11//7 12//7
f 20//8 19//8 8//8
f 11//9 8//9 17//9
f 9//10 6//10 1//10
f 13//11 15//11 14//11
f 8//12 6//12 9//12
f 21//13 4//13 18//13
f 19//14 17//14 8//14
f 12//15 11//15 16//15
f 16//16 11//16 17//16
f 21//1 20//1 17//1
f 19//1 17//1 20//1
f 17//1 16//1 18//1
f 18//17 12//17 16//17
f 12//18 3//18 7//18
f 12//19 5//19 3//19
f 13//20 10//20 1//20
f 14//21 20//21 21//21
f 7//22 1//22 6//22
f 20//23 8//23 14//23
f 9//24 1//24 10//24
f 14//25 8//25 10//25
f 10//26 8//26 9//26
f 1//27 2//27 13//27
f 2//28 1//28 3//28
f 11//29 6//29 8//29
f 7//30 6//30 12//30
f 18//31 4//31 5//31
f 4//32 21//32 2//32
f 2//33 15//33 13//33
f 21//34 15//34 2//34
f 14//35 10//35 13//35
f 18//17 3//17 16//17
f 16//36 3//36 12//36
f 5//37 3//37 18//37
f 21//1 16//1 18//1
f 21//1 17//1 16//1
f 15//38 20//38 21//38
f 20//1 19//1 21//1
f 19//1 17//1 21//1
f 14//39 20//39 15//39
