# Blender 4.0.0
# www.blender.org
o decimated_mesh
v -0.005440 0.029999 -0.240469
v -0.002114 0.066615 -0.015501
v 0.502868 0.159086 -0.015997
v 0.502140 0.161441 -0.248318
v 0.497863 -0.002182 -0.248365
v 0.495433 -0.005776 -0.016006
vn -0.1801 0.9836 0.0105
vn -0.0156 0.0007 -0.9999
vn -0.1419 -0.9767 0.1611
vn 0.9989 -0.0451 0.0097
vn -0.2500 0.9563 -0.1519
vn 0.0010 -0.0001 1.0000
vn -0.0641 -0.9978 -0.0161
vn 0.9997 -0.0261 -0.0034
s 0
f 4//1 2//1 3//1
f 5//2 1//2 4//2
f 1//3 6//3 2//3
f 5//4 3//4 6//4
f 4//5 1//5 2//5
f 2//6 6//6 3//6
f 1//7 5//7 6//7
f 5//8 4//8 3//8
