# Blender 4.0.0
# www.blender.org
o decimated_mesh
v -0.367151 0.077346 0.287218
v -0.367160 -0.004918 0.280073
v -0.367191 0.151012 0.268596
v -0.428876 0.019201 0.288965
v -0.428835 0.178979 0.268978
v -0.428856 -0.007910 0.274245
v -0.367163 0.152381 0.223648
v -0.429530 0.181798 0.176555
v -0.367163 0.106085 0.166057
v -0.367163 -0.010762 0.166057
v -0.428856 -0.010762 0.166057
vn -0.0885 0.1237 0.9884
vn -1.0000 0.0001 0.0001
vn 0.6435 0.5966 -0.4796
vn 0.1164 0.2435 0.9629
vn -0.4090 -0.9121 -0.0280
vn 0.0436 -0.9977 0.0511
vn -0.0598 -0.4764 0.8772
vn -0.4132 -0.9103 -0.0247
vn -0.0000 -0.0000 -1.0000
vn -1.0000 -0.0000 -0.0000
vn 1.0000 0.0001 -0.0001
vn 1.0000 0.0007 0.0006
vn -1.0000 -0.0035 0.0007
vn -1.0000 -0.0007 -0.0000
vn -1.0000 0.0012 0.0075
vn 0.1091 -0.0860 0.9903
vn -0.0000 -0.9997 0.0264
vn -0.1019 0.0538 -0.9933
vn -1.0000 -0.0022 0.0027
vn -1.0000 -0.0035 0.0001
vn -1.0000 0.0001 -0.0000
vn -1.0000 -0.0000 0.0001
vn -0.4131 -0.9102 -0.0280
vn -0.4112 -0.9112 -0.0247
s 0
f 4//1 1//1 5//1
f 1//2 9//2 2//2
f 7//3 9//3 8//3
f 3//4 5//4 1//4
f 3//5 8//5 7//5
f 6//6 10//6 2//6
f 2//7 4//7 6//7
f 8//8 3//8 5//8
f 11//9 9//9 10//9
f 2//10 9//10 10//10
f 9//11 7//11 1//11
f 7//12 3//12 1//12
f 8//13 11//13 4//13
f 11//14 6//14 4//14
f 4//15 5//15 8//15
f 4//16 2//16 1//16
f 6//17 11//17 10//17
f 11//18 8//18 9//18
f 8//19 6//19 4//19
f 8//20 11//20 6//20
f 10//21 2//21 1//21
f 10//22 1//22 9//22
f 3//23 5//23 7//23
f 7//24 5//24 8//24
