# Blender 4.0.0
# www.blender.org
o decimated_mesh
v -0.428863 1.772392 0.282653
v -0.476020 1.780272 0.287418
v -0.468432 0.948136 0.288831
v -0.495266 1.792015 0.278349
v -0.428848 1.145428 0.280254
v -0.428839 1.939626 0.273802
v -0.462670 1.917992 0.272164
v -0.484689 1.883508 0.270092
v -0.502637 1.785280 0.262925
v -0.494094 1.897560 0.254022
v -0.495864 0.948145 0.278990
v -0.431380 0.948154 0.274217
v -0.504622 1.847820 0.242741
v -0.502981 0.948145 0.262782
v -0.466107 1.935358 0.255255
v -0.429076 1.960439 0.254424
v -0.504090 1.855644 -0.180161
v -0.503856 0.948145 -0.180161
v -0.429163 0.948145 -0.180161
v -0.493835 1.898626 -0.180161
v -0.469089 1.934620 -0.180161
v -0.429016 1.961044 -0.180161
vn -0.9024 0.0010 0.4308
vn -0.7934 0.1451 0.5912
vn 0.2294 -0.0037 0.9733
vn -0.9951 0.0004 0.0991
vn -0.3377 -0.0015 0.9413
vn -0.5505 0.8348 0.0024
vn -0.6313 0.3619 0.6859
vn -0.9784 0.2065 0.0026
vn -0.9110 0.1022 0.3995
vn 0.3667 -0.0332 0.9297
vn 0.1010 0.0026 0.9949
vn -0.0001 1.0000 -0.0000
vn -0.4123 0.5923 0.6922
vn -0.8240 0.5665 0.0009
vn -0.0000 -0.0000 -1.0000
vn -0.2981 0.1336 0.9451
vn -0.9156 0.0003 0.4021
vn -1.0000 -0.0003 -0.0013
vn -1.0000 -0.0018 0.0020
vn -0.1252 0.1212 0.9847
vn -0.9727 0.2321 -0.0000
vn -0.4257 0.0010 0.9048
vn -0.5608 0.8280 0.0011
vn -0.6491 0.4609 0.6052
vn -0.9139 0.0981 0.3939
vn 0.1091 0.0525 0.9926
vn -0.0000 1.0000 -0.0000
vn -0.0002 1.0000 0.0006
vn -0.0004 -1.0000 0.0002
vn -0.4052 0.6205 0.6714
vn -0.8037 0.5950 0.0045
vn 0.9999 -0.0130 0.0049
vn 1.0000 -0.0001 -0.0006
vn -1.0000 -0.0012 -0.0001
vn -0.9999 0.0008 0.0131
vn -1.0000 -0.0000 0.0003
vn -0.3595 0.1250 0.9248
vn -0.0005 1.0000 -0.0000
vn 0.0003 1.0000 -0.0000
vn -1.0000 -0.0000 0.0004
vn -1.0000 -0.0000 -0.0030
vn -0.5505 0.8348 0.0011
vn -0.9999 -0.0115 -0.0002
vn -0.5608 0.8280 0.0024
s 0
f 9//1 11//1 4//1
f 8//2 10//2 4//2
f 5//3 1//3 3//3
f 9//4 13//4 14//4
f 11//5 3//5 2//5
f 15//6 22//6 21//6
f 7//7 10//7 8//7
f 17//8 13//8 10//8
f 13//9 4//9 10//9
f 3//10 12//10 5//10
f 1//11 2//11 3//11
f 14//12 12//12 18//12
f 6//13 15//13 7//13
f 10//14 21//14 20//14
f 21//15 22//15 17//15
f 8//16 2//16 7//16
f 9//17 14//17 11//17
f 17//18 18//18 13//18
f 18//19 14//19 13//19
f 7//20 2//20 6//20
f 20//21 17//21 10//21
f 4//22 11//22 2//22
f 15//23 16//23 22//23
f 15//24 10//24 7//24
f 13//25 9//25 4//25
f 1//26 6//26 2//26
f 18//27 12//27 19//27
f 12//28 14//28 3//28
f 3//29 11//29 14//29
f 6//30 16//30 15//30
f 10//31 15//31 21//31
f 22//15 19//15 17//15
f 19//15 18//15 17//15
f 17//15 20//15 21//15
f 12//32 19//32 5//32
f 19//33 22//33 5//33
f 22//34 1//34 16//34
f 1//35 6//35 16//35
f 1//36 22//36 5//36
f 8//37 4//37 2//37
f 18//27 3//27 19//27
f 19//38 3//38 12//38
f 14//39 3//39 18//39
f 17//15 20//15 18//15
f 20//15 19//15 18//15
f 20//15 22//15 19//15
f 22//40 5//40 6//40
f 6//41 5//41 1//41
f 21//15 22//15 20//15
f 21//42 16//42 22//42
f 16//43 22//43 6//43
f 15//44 16//44 21//44
