# Blender 4.0.0
# www.blender.org
o decimated_mesh
v -0.001617 -0.189341 -0.000281
v -0.001277 -0.186272 -0.002200
v -0.001649 -0.189187 0.002276
v -0.001601 0.189342 -0.000370
v 0.000693 -0.188243 -0.004096
v -0.001277 0.186282 -0.002200
v 0.000451 -0.187704 0.006073
v -0.001592 0.189280 0.002301
v 0.004732 -0.186234 -0.006375
v 0.004373 -0.190101 -0.005017
v 0.002149 -0.192460 -0.003223
v 0.001596 -0.193095 -0.001104
v 0.000759 0.188252 -0.004145
v -0.001051 0.186282 0.004201
v 0.002066 -0.192632 0.004909
v 0.002078 0.192443 -0.003180
v 0.001172 0.192802 -0.000751
v 0.004373 0.190111 -0.005017
v 0.001211 0.187628 0.006702
v 0.005008 0.185970 -0.006452
v 0.376096 -0.186322 -0.006448
v 0.004373 0.193598 -0.000751
v 0.001965 0.192552 0.004967
v 0.008931 -0.181761 0.013392
v 0.006961 -0.178712 0.013077
v 0.011755 -0.183896 0.013056
v 0.378978 -0.192222 -0.003604
v 0.376465 0.186476 -0.006382
v 0.013253 -0.177478 0.016466
v 0.006407 0.178587 0.012585
v 0.369470 -0.184019 0.012957
v 0.012492 0.177729 0.016348
v 0.011733 0.183946 0.013032
v 0.380484 -0.188244 -0.004152
v 0.376877 -0.193588 -0.000751
v 0.378912 0.192258 -0.003640
v 0.368244 -0.177316 0.016471
v 0.369500 0.184068 0.012922
v 0.382527 -0.186272 -0.002200
v 0.382854 -0.189318 -0.000360
v 0.380078 -0.192792 -0.000751
v 0.379290 -0.192548 0.004934
v 0.379653 0.193105 -0.001105
v 0.380556 0.188253 -0.004098
v 0.372319 -0.181761 0.013394
v 0.380045 -0.187371 0.006812
v 0.368133 0.177456 0.016445
v 0.379050 0.192080 0.005487
v 0.382527 0.186282 -0.002200
v 0.382842 -0.189270 0.002310
v 0.379289 0.193025 0.003430
v 0.382867 0.189360 -0.000273
v 0.374200 -0.178544 0.013181
v 0.382301 -0.186272 0.004210
v 0.372319 0.181771 0.013394
v 0.380076 0.187350 0.006789
v 0.382900 0.189207 0.002268
v 0.374228 0.178672 0.013117
v 0.382301 0.186282 0.004210
vn -0.0001 0.9031 -0.4293
vn -0.6908 -0.0000 -0.7230
vn -0.7916 -0.2585 -0.5537
vn -0.9616 0.0001 0.2743
vn 0.9847 -0.0000 -0.1741
vn -0.3754 -0.3105 -0.8733
vn -0.7428 -0.3718 -0.5568
vn -0.3632 -0.2785 -0.8891
vn -0.7459 -0.5590 -0.3622
vn 0.7552 0.6548 0.0294
vn -0.7853 0.2543 -0.5645
vn -0.4771 0.0002 -0.8789
vn 0.0009 0.4282 -0.9037
vn -0.2406 0.9677 0.0757
vn -0.7393 0.3631 -0.5672
vn -0.7467 0.5586 -0.3611
vn -0.3740 0.3181 -0.8712
vn -0.3502 0.2582 -0.9004
vn -0.7417 -0.3745 0.5564
vn 0.0002 -0.9837 0.1800
vn 0.2009 0.4279 0.8812
vn -0.2350 0.9450 -0.2273
vn 0.2406 -0.9677 0.0750
vn 0.0006 0.9086 0.4176
vn 0.0013 0.9998 0.0177
vn -0.3375 0.4106 0.8470
vn -0.7393 0.3216 0.5917
vn 0.7410 0.0001 0.6716
vn -0.9846 -0.0000 -0.1746
vn -0.4361 -0.1909 0.8794
vn -0.7328 0.0005 0.6805
vn 0.4791 0.0002 0.8778
vn 0.0009 -0.4338 -0.9010
vn 0.3563 -0.2587 -0.8978
vn -0.0010 -0.9578 -0.2873
vn -0.7794 0.6263 0.0171
vn -0.0000 -0.6820 0.7314
vn 0.0001 -0.4692 0.8831
vn 0.4873 -0.0000 -0.8732
vn 0.7424 -0.3591 -0.5655
vn 0.7856 -0.2559 -0.5633
vn 0.7392 -0.5461 -0.3943
vn 0.2319 -0.9328 -0.2759
vn 0.3827 0.2586 -0.8869
vn -0.2658 -0.4831 0.8342
vn -0.0000 0.6802 0.7330
vn 0.7443 0.3693 -0.5565
vn 0.7919 0.2587 -0.5532
vn 0.7380 0.5452 -0.3976
vn 0.6939 -0.0000 -0.7201
vn 0.5193 0.2467 0.8182
vn 0.4419 -0.2002 0.8745
vn 0.7368 -0.3230 0.5939
vn -0.0000 0.0003 1.0000
vn 0.2019 -0.4255 0.8821
vn 0.7813 -0.2274 0.5813
vn 0.7804 -0.6251 0.0147
vn 0.7309 0.5840 0.3531
vn 0.9555 -0.0000 0.2951
vn 0.5175 -0.2481 0.8189
vn 0.4402 0.1928 0.8770
vn -0.4789 0.2686 0.8357
vn 0.7372 0.3232 0.5934
vn 0.0001 0.4707 0.8823
vn 0.0009 0.9484 -0.3170
vn -0.6935 -0.0000 -0.7205
vn -0.8750 -0.0011 0.4842
vn 0.9845 -0.0000 -0.1752
vn 0.7353 0.6741 0.0709
vn -0.4915 -0.0000 -0.8709
vn -0.0003 0.3273 -0.9449
vn -0.7561 -0.6538 0.0299
vn -0.7164 -0.6892 0.1090
vn 1.0000 -0.0002 0.0046
vn 0.9999 -0.0000 -0.0131
vn -0.0014 -0.9970 0.0768
vn 0.2508 0.4808 0.8402
vn -0.0002 -0.0002 -1.0000
vn 0.0002 0.0002 -1.0000
vn -1.0000 0.0001 0.0033
vn -0.9999 -0.0000 -0.0126
vn -0.0004 -0.6052 -0.7960
vn 0.4378 -0.3624 0.8228
vn -0.0005 0.9837 0.1798
vn 0.7510 0.0212 0.6600
vn 0.7422 -0.0000 0.6702
vn 0.7516 -0.0258 0.6591
vn -0.9847 -0.0000 -0.1745
vn -0.7473 -0.0002 0.6645
vn -0.7437 0.0076 0.6685
vn 0.4836 0.0001 0.8753
vn -0.5236 -0.2543 0.8131
vn -0.4632 -0.3447 0.8165
vn -0.0003 -0.3313 -0.9435
vn 0.0001 -0.9019 -0.4319
vn -0.0007 0.6183 -0.7859
vn -0.7222 0.6793 0.1299
vn -0.4049 0.3583 0.8412
vn 0.0001 -0.6851 0.7284
vn 0.0002 -0.4642 0.8857
vn 0.4634 -0.0003 -0.8862
vn -0.2120 -0.4195 0.8827
vn -0.0001 0.6837 0.7298
vn 0.6911 -0.0000 -0.7228
vn 0.7819 0.2256 0.5812
vn -0.7800 0.2283 0.5826
vn -0.0003 0.0001 1.0000
vn -0.5259 0.0004 0.8505
vn -0.4740 -0.0007 0.8805
vn 0.2583 -0.4873 0.8341
vn 0.7224 -0.6792 0.1294
vn 0.9617 -0.0001 0.2741
vn 0.4651 0.3273 0.8225
vn 0.0001 0.4702 0.8826
vn -0.7323 -0.0002 0.6810
vn -0.7470 0.0003 0.6648
vn 0.7556 -0.0000 0.6550
vn 0.7571 -0.0000 0.6533
vn 0.7345 -0.0000 0.6786
vn 0.7368 0.0001 0.6762
vn -0.0000 0.0001 1.0000
vn -0.0003 0.0003 1.0000
s 0
f 22//1 36//1 16//1
f 5//2 6//2 13//2
f 2//3 5//3 1//3
f 3//4 14//4 8//4
f 40//5 49//5 52//5
f 5//6 10//6 11//6
f 5//7 11//7 1//7
f 5//8 9//8 10//8
f 1//9 11//9 12//9
f 43//10 57//10 52//10
f 6//11 4//11 13//11
f 9//12 13//12 20//12
f 28//13 18//13 36//13
f 23//14 22//14 17//14
f 4//15 16//15 13//15
f 4//16 17//16 16//16
f 13//17 16//17 18//17
f 13//18 18//18 20//18
f 3//19 15//19 7//19
f 15//20 35//20 42//20
f 55//21 38//21 47//21
f 16//22 17//22 22//22
f 42//23 35//23 41//23
f 23//24 48//24 51//24
f 22//25 51//25 43//25
f 32//26 33//26 23//26
f 19//27 23//27 8//27
f 53//28 59//28 58//28
f 2//29 4//29 6//29
f 24//30 29//30 25//30
f 14//31 7//31 25//31
f 37//32 58//32 47//32
f 10//33 21//33 27//33
f 21//34 34//34 27//34
f 11//35 35//35 12//35
f 4//36 8//36 17//36
f 31//37 26//37 15//37
f 26//38 31//38 29//38
f 34//39 28//39 44//39
f 34//40 40//40 27//40
f 34//41 39//41 40//41
f 27//42 40//42 41//42
f 27//43 41//43 35//43
f 36//44 44//44 28//44
f 26//45 24//45 15//45
f 33//46 38//46 48//46
f 44//47 36//47 52//47
f 44//48 52//48 49//48
f 36//49 43//49 52//49
f 39//50 44//50 49//50
f 55//51 58//51 56//51
f 45//52 53//52 37//52
f 42//53 50//53 46//53
f 37//54 32//54 29//54
f 31//55 45//55 37//55
f 54//56 46//56 50//56
f 40//57 50//57 41//57
f 51//58 48//58 57//58
f 54//59 57//59 59//59
f 53//60 45//60 46//60
f 47//61 58//61 55//61
f 30//62 32//62 19//62
f 56//63 57//63 48//63
f 38//64 33//64 32//64
f 22//65 43//65 36//65
f 5//66 2//66 6//66
f 3//67 7//67 14//67
f 40//68 39//68 49//68
f 51//69 57//69 43//69
f 9//70 5//70 13//70
f 28//71 20//71 18//71
f 1//72 12//72 3//72
f 12//73 15//73 3//73
f 57//74 50//74 40//74
f 40//75 52//75 57//75
f 15//76 12//76 35//76
f 55//77 48//77 38//77
f 9//78 20//78 21//78
f 28//79 21//79 20//79
f 3//80 8//80 4//80
f 4//81 1//81 3//81
f 11//82 10//82 27//82
f 45//83 42//83 46//83
f 22//84 23//84 51//84
f 53//85 46//85 54//85
f 54//86 59//86 53//86
f 59//87 56//87 58//87
f 2//88 1//88 4//88
f 25//89 30//89 14//89
f 30//90 19//90 14//90
f 53//91 58//91 37//91
f 25//92 7//92 24//92
f 24//93 7//93 15//93
f 10//94 9//94 21//94
f 11//95 27//95 35//95
f 18//96 16//96 36//96
f 8//97 23//97 17//97
f 32//98 23//98 19//98
f 15//99 42//99 31//99
f 37//100 29//100 31//100
f 34//101 21//101 28//101
f 26//102 29//102 24//102
f 48//103 23//103 33//103
f 39//104 34//104 44//104
f 59//105 57//105 56//105
f 19//106 8//106 14//106
f 37//107 47//107 32//107
f 30//108 25//108 32//108
f 32//109 25//109 29//109
f 31//110 42//110 45//110
f 50//111 42//111 41//111
f 54//112 50//112 57//112
f 55//113 56//113 48//113
f 32//114 47//114 38//114
f 4//29 6//29 1//29
f 6//88 2//88 1//88
f 25//115 30//115 7//115
f 30//116 14//116 7//116
f 13//2 2//2 6//2
f 13//66 5//66 2//66
f 54//117 59//117 46//117
f 59//118 56//118 46//118
f 56//119 58//119 46//119
f 58//120 53//120 46//120
f 47//121 29//121 37//121
f 47//122 32//122 29//122
f 47//64 33//64 32//64
f 47//114 38//114 33//114
f 39//68 52//68 40//68
f 39//5 49//5 52//5
