# Blender 4.0.0
# www.blender.org
o decimated_mesh
v -0.082205 0.002739 -0.000014
v -0.078752 0.000382 -0.000053
v -0.076960 0.002116 0.028971
v 0.082332 0.002619 0.000002
v 0.074421 -0.000021 -0.000017
v -0.064459 -0.000021 0.037225
v -0.055466 0.002391 0.060654
v 0.076351 0.002294 0.030940
v -0.037227 -0.000021 0.064455
v 0.068654 0.000750 0.039878
v -0.010231 0.002398 0.082348
v 0.057409 0.002282 0.058134
v -0.000016 -0.000021 0.074435
v 0.040038 0.002555 0.071788
v 0.037210 -0.000021 0.064463
v 0.020728 0.001991 0.078614
vn -0.0593 -0.9734 0.2211
vn -0.0017 1.0000 -0.0001
vn -0.0000 -1.0000 -0.0000
vn 0.6459 -0.6169 0.4496
vn 0.0001 0.0068 -1.0000
vn -0.1626 -0.9732 0.1626
vn 0.3161 -0.9474 0.0511
vn -0.5610 -0.8235 0.0838
vn 0.1284 -0.9500 0.2846
vn -0.2058 -0.8794 0.4294
vn 0.0007 1.0000 0.0054
vn -0.0605 0.9976 0.0324
vn -0.0022 1.0000 0.0043
vn 0.0345 0.9833 0.1790
vn 0.0305 0.9994 0.0189
vn 0.0201 0.9997 0.0144
vn 0.0446 -0.9987 0.0257
vn -0.0175 0.9997 0.0175
vn 0.0026 1.0000 0.0046
vn 0.0003 0.0171 -0.9999
vn -0.2137 -0.9743 0.0714
vn -0.2980 -0.9311 0.2102
vn 0.2585 -0.9644 0.0560
vn 0.1894 -0.9469 0.2599
vn 0.1684 -0.9682 0.1850
vn 0.0266 -0.9458 0.3235
vn 0.0541 -0.9779 0.2021
vn 0.0001 0.0168 -0.9999
vn 0.0003 0.0063 -1.0000
vn 0.0026 0.9999 0.0098
vn -0.0000 1.0000 -0.0000
vn -0.0037 1.0000 0.0074
vn -0.0019 1.0000 0.0058
vn 0.0007 1.0000 0.0013
vn 0.0243 0.9996 0.0152
vn 0.0353 0.9991 0.0250
s 0
f 13//1 11//1 9//1
f 7//2 14//2 4//2
f 5//3 15//3 9//3
f 12//4 10//4 8//4
f 1//5 4//5 5//5
f 9//6 7//6 6//6
f 5//7 4//7 8//7
f 3//8 1//8 2//8
f 15//9 14//9 16//9
f 11//10 7//10 9//10
f 4//11 1//11 7//11
f 3//12 7//12 1//12
f 7//13 11//13 14//13
f 11//14 16//14 14//14
f 14//15 12//15 4//15
f 12//16 8//16 4//16
f 5//17 10//17 15//17
f 15//3 13//3 9//3
f 9//18 2//18 6//18
f 2//19 9//19 5//19
f 5//20 2//20 1//20
f 2//21 6//21 3//21
f 7//22 3//22 6//22
f 10//23 5//23 8//23
f 14//24 15//24 12//24
f 15//25 10//25 12//25
f 16//26 11//26 13//26
f 13//27 15//27 16//27
f 1//28 4//28 2//28
f 4//29 5//29 2//29
f 5//30 2//30 6//30
f 5//3 15//3 13//3
f 5//3 13//3 9//3
f 5//31 6//31 9//31
f 7//32 11//32 1//32
f 11//33 14//33 1//33
f 14//34 4//34 1//34
f 14//35 8//35 4//35
f 12//36 8//36 14//36
