# Blender 4.0.0
# www.blender.org
o decimated_mesh
v 0.075781 0.002837 -0.000013
v 0.072658 0.002739 0.021785
v 0.079222 0.002739 0.021785
v 0.081327 0.008288 0.021785
v 0.082279 0.002734 -0.000007
v 0.100806 0.016345 -0.000035
v 0.101593 0.014022 -0.000015
v 0.103985 0.014825 0.021652
vn -0.0000 1.0000 0.0045
vn -0.5377 0.8400 -0.0733
vn -0.2750 0.9554 0.1073
vn 0.4381 -0.8968 0.0616
vn 0.5044 -0.8631 -0.0237
vn 0.0001 -0.0001 1.0000
vn -0.4728 0.8756 -0.0987
vn 0.0009 -0.0022 -1.0000
vn 0.9410 0.3179 -0.1157
vn 0.0157 0.9999 0.0020
vn 0.0066 -0.0026 1.0000
vn 0.0032 -0.0076 -1.0000
vn 0.0009 -0.0032 -1.0000
vn 0.0039 -0.0074 -1.0000
vn -0.0000 1.0000 -0.0002
vn 0.0157 0.9999 0.0067
s 0
f 1//1 2//1 3//1
f 4//2 1//2 2//2
f 4//3 8//3 6//3
f 8//4 3//4 5//4
f 5//5 7//5 8//5
f 4//6 2//6 3//6
f 6//7 1//7 4//7
f 7//8 5//8 1//8
f 8//9 7//9 6//9
f 5//10 1//10 3//10
f 3//11 8//11 4//11
f 1//12 6//12 7//12
f 5//13 1//13 6//13
f 7//14 5//14 6//14
f 3//15 5//15 2//15
f 2//16 5//16 1//16
