# Blender 4.0.0
# www.blender.org
o decimated_mesh
v -0.028618 0.015638 0.102700
v -0.059625 0.016533 0.081731
v -0.059653 0.014533 0.084667
v -0.028482 0.002723 0.077811
v -0.028361 0.008288 0.078602
v -0.059636 0.002739 0.046250
v -0.028361 0.002739 0.069939
v -0.059619 0.002740 0.056497
vn 0.9996 -0.0240 0.0154
vn 0.2181 0.9341 -0.2826
vn -0.3348 0.7801 0.5284
vn -0.2291 -0.8645 0.4473
vn 0.3782 0.7795 -0.4994
vn 0.9995 -0.0244 0.0181
vn 0.2051 0.9122 -0.3547
vn -0.2558 -0.8918 0.3730
vn -1.0000 -0.0035 0.0017
vn -1.0000 0.0076 -0.0044
vn -0.0007 -1.0000 0.0002
vn 0.0015 -1.0000 -0.0019
vn -1.0000 0.0092 -0.0033
vn -1.0000 -0.0069 0.0017
s 0
f 4//1 7//1 5//1
f 2//2 1//2 5//2
f 3//3 1//3 2//3
f 3//4 4//4 1//4
f 5//5 7//5 6//5
f 1//6 4//6 5//6
f 6//7 2//7 5//7
f 3//8 8//8 4//8
f 2//9 6//9 8//9
f 3//10 2//10 8//10
f 4//11 8//11 6//11
f 6//12 7//12 4//12
f 6//13 3//13 2//13
f 8//14 3//14 6//14
