# Blender 4.0.0
# www.blender.org
o decimated_mesh
v -0.019748 0.002472 -0.079709
v 0.010828 0.001913 -0.081636
v 0.000016 -0.000021 -0.074431
v -0.039813 0.000576 -0.068213
v -0.041089 0.002739 -0.071189
v 0.049238 0.001877 -0.064824
v -0.065853 0.002139 -0.050342
v -0.064457 -0.000021 -0.037232
v 0.074787 0.002156 -0.034251
v 0.064457 -0.000021 -0.037232
v -0.079376 0.002529 -0.021623
v -0.074420 -0.000021 -0.000025
v -0.082037 0.002496 -0.000025
v 0.081790 0.002328 -0.000025
v 0.074435 -0.000021 -0.000025
vn -0.2306 -0.9711 -0.0617
vn -0.1575 -0.9769 -0.1442
vn -0.2148 -0.8316 -0.5121
vn 0.0072 1.0000 0.0064
vn -0.0000 -0.0000 1.0000
vn -0.0000 -1.0000 -0.0000
vn -0.3135 -0.9487 -0.0401
vn -0.2928 -0.9480 -0.1250
vn -0.3548 -0.8222 -0.4452
vn 0.3037 -0.9510 -0.0574
vn 0.2223 -0.9731 -0.0596
vn 0.0693 -0.9846 -0.1604
vn 0.2588 -0.9434 -0.2076
vn -0.0589 0.9974 -0.0413
vn 0.0026 1.0000 0.0018
vn 0.0010 1.0000 -0.0052
vn 0.0205 0.9996 0.0201
vn 0.0016 0.9999 -0.0104
vn 0.0161 0.9993 -0.0346
vn 0.0365 -0.9993 0.0098
vn -0.0178 -0.9997 -0.0178
vn 0.0579 -0.9933 -0.1003
vn -0.0369 -0.9499 -0.3104
vn -0.0541 -0.9658 -0.2537
vn 0.0129 0.9997 -0.0199
vn -0.0206 -0.9992 -0.0356
vn 0.0083 0.9999 -0.0104
vn 0.0071 1.0000 -0.0065
vn -0.0042 1.0000 0.0010
vn 0.0010 1.0000 0.0040
s 0
f 11//1 8//1 12//1
f 8//2 7//2 4//2
f 5//3 1//3 4//3
f 6//4 1//4 11//4
f 15//5 13//5 12//5
f 15//6 12//6 3//6
f 12//7 13//7 11//7
f 11//8 7//8 8//8
f 7//9 5//9 4//9
f 14//10 15//10 9//10
f 15//11 10//11 9//11
f 6//12 3//12 2//12
f 6//13 9//13 10//13
f 5//14 7//14 11//14
f 11//15 13//15 9//15
f 13//16 14//16 9//16
f 1//17 5//17 11//17
f 11//18 9//18 6//18
f 6//19 2//19 1//19
f 14//5 13//5 15//5
f 8//20 4//20 12//20
f 4//21 3//21 12//21
f 3//22 6//22 10//22
f 10//6 15//6 3//6
f 1//23 2//23 3//23
f 3//24 4//24 1//24
f 1//25 9//25 6//25
f 10//6 15//6 12//6
f 10//6 12//6 8//6
f 10//6 8//6 3//6
f 8//26 4//26 3//26
f 5//27 9//27 1//27
f 5//28 14//28 9//28
f 11//29 13//29 5//29
f 13//30 14//30 5//30
