# Blender 4.0.0
# www.blender.org
o decimated_mesh
v -0.059511 0.016350 0.083791
v -0.059640 0.013895 0.084327
v -0.068992 0.015021 0.080670
v -0.075900 0.002882 -0.000021
v -0.099927 0.016442 -0.000017
v -0.080011 0.015991 0.069240
v -0.080657 0.013945 0.068690
v -0.059640 0.002739 0.056169
v -0.059644 0.002765 0.045483
v -0.101784 0.014862 -0.000019
v -0.104408 0.014882 0.019553
v -0.100650 0.014988 0.034013
v -0.071200 0.002739 0.041113
v -0.082242 0.002740 -0.000017
vn 0.6890 0.6823 -0.2444
vn 0.4783 0.8476 -0.2297
vn -0.0278 0.9995 0.0145
vn -0.2479 -0.9007 0.3568
vn -0.7177 0.0397 0.6952
vn -0.4025 -0.9090 0.1080
vn -0.4188 -0.8823 0.2149
vn -0.2725 -0.8978 0.3460
vn -0.9987 0.0496 -0.0141
vn -0.0032 1.0000 0.0025
vn -0.8564 0.1365 0.4979
vn -0.1751 0.9838 0.0383
vn -0.1164 0.9924 0.0399
vn -0.2283 0.9266 0.2987
vn 0.0004 0.0010 -1.0000
vn -0.0005 -0.0010 -1.0000
vn -0.3326 0.2180 0.9175
vn -0.4045 -0.9077 0.1118
vn -0.5258 -0.8477 -0.0696
vn -0.6458 0.7585 -0.0874
vn -0.3322 -0.9081 0.2551
vn -1.0000 -0.0010 0.0004
vn -0.0224 0.9997 0.0060
vn -0.0038 1.0000 0.0039
vn -0.9986 0.0484 -0.0192
vn -1.0000 0.0086 0.0004
vn -0.0000 1.0000 -0.0000
vn -0.0061 1.0000 0.0025
vn -0.0224 0.9997 0.0106
s 0
f 1//1 9//1 4//1
f 1//2 4//2 5//2
f 1//3 5//3 6//3
f 3//4 8//4 2//4
f 3//5 6//5 7//5
f 13//6 11//6 14//6
f 7//7 12//7 13//7
f 7//8 8//8 3//8
f 9//9 2//9 1//9
f 9//10 13//10 8//10
f 7//11 6//11 12//11
f 5//12 11//12 12//12
f 12//13 6//13 5//13
f 6//14 3//14 1//14
f 5//15 4//15 10//15
f 14//16 10//16 4//16
f 2//17 1//17 3//17
f 13//18 12//18 11//18
f 14//19 11//19 10//19
f 11//20 5//20 10//20
f 7//21 13//21 8//21
f 2//22 9//22 8//22
f 13//23 4//23 14//23
f 4//24 13//24 9//24
f 2//25 1//25 8//25
f 8//26 1//26 9//26
f 13//27 8//27 14//27
f 14//28 8//28 9//28
f 14//29 9//29 4//29
