# Blender 4.0.0
# www.blender.org
o decimated_mesh
v 0.104704 0.015033 -0.026031
v 0.099929 0.016443 -0.000025
v 0.101780 0.014860 -0.000023
v 0.080680 0.016002 -0.068312
v 0.061815 0.016324 -0.083091
v 0.062555 0.002460 -0.052639
v 0.080550 0.013942 -0.068824
v 0.082212 0.002739 -0.000025
v 0.068732 0.014863 -0.080817
v 0.075900 0.002883 -0.000016
v 0.061980 0.002794 -0.042088
v 0.061969 0.013857 -0.083326
vn 0.8681 0.0671 -0.4917
vn 0.3313 0.1101 -0.9371
vn 0.3076 0.8751 -0.3736
vn -0.4795 0.8498 0.2188
vn 0.3935 -0.8975 -0.1992
vn -0.9980 -0.0607 -0.0160
vn 0.6478 0.7578 0.0779
vn -0.6939 0.6830 0.2281
vn 0.5258 -0.8489 0.0535
vn 0.2608 -0.9034 -0.3405
vn 0.0013 -0.0023 1.0000
vn -0.0002 0.0010 1.0000
vn 0.0284 0.9995 -0.0144
vn 0.1020 0.9942 -0.0352
vn -0.0228 -0.9996 0.0138
vn -0.0764 -0.9967 0.0274
vn 0.3571 -0.9252 -0.1285
vn 0.2719 -0.9013 -0.3371
vn -0.9826 -0.1794 -0.0479
vn 0.7114 0.1266 -0.6913
s 0
f 4//1 1//1 7//1
f 5//2 9//2 12//2
f 4//3 9//3 5//3
f 5//4 10//4 2//4
f 1//5 6//5 7//5
f 11//6 5//6 12//6
f 3//7 1//7 2//7
f 5//8 11//8 10//8
f 1//9 3//9 8//9
f 6//10 12//10 9//10
f 8//11 3//11 10//11
f 10//12 3//12 2//12
f 5//13 2//13 4//13
f 4//14 2//14 1//14
f 8//15 10//15 6//15
f 10//16 11//16 6//16
f 8//17 6//17 1//17
f 6//18 9//18 7//18
f 12//19 6//19 11//19
f 9//20 4//20 7//20
