# Blender 4.0.0
# www.blender.org
o decimated_mesh
v 0.072661 0.002739 0.021785
v 0.046492 0.002739 0.059449
v 0.081326 0.008288 0.021785
v 0.079199 0.002739 0.021785
v 0.059660 0.002762 0.059294
v 0.103582 0.015720 0.021773
v 0.100151 0.014758 0.035307
v 0.084034 0.015771 0.059437
vn 0.2609 0.9560 0.1341
vn -0.3237 0.9322 -0.1620
vn -0.5050 0.7886 -0.3509
vn 0.4692 -0.8813 0.0563
vn -0.0018 1.0000 -0.0013
vn -0.0000 1.0000 -0.0006
vn 0.0006 -0.0002 1.0000
vn -0.0000 -0.0000 1.0000
vn 0.4428 -0.8334 0.3308
vn -0.3125 0.9357 -0.1635
vn 0.0118 -0.0331 0.9994
vn 0.3862 -0.9001 0.2017
vn -0.0000 0.0009 1.0000
vn 0.0011 -0.0018 1.0000
vn -0.0018 1.0000 -0.0016
vn -0.0000 1.0000 -0.0000
s 0
f 7//1 6//1 8//1
f 8//2 3//2 2//2
f 2//3 3//3 1//3
f 7//4 4//4 6//4
f 2//5 5//5 1//5
f 1//6 5//6 4//6
f 6//7 3//7 4//7
f 4//8 3//8 1//8
f 5//9 7//9 8//9
f 8//10 6//10 3//10
f 8//11 2//11 5//11
f 7//12 5//12 4//12
f 4//13 6//13 1//13
f 1//14 6//14 3//14
f 5//15 4//15 2//15
f 2//16 4//16 1//16
