o conveyor_curve_left_outer_rail
v 0.4379964 0 0.7
v 0.6079964 0 0.7
v 0.4379964 0 0.94
v 0.6079964 0 0.94
v 0.435963134 0.082826058 0.7
v 0.605758362 0.091167562 0.7
v 0.435963134 0.082826058 0.94
v 0.605758362 0.091167562 0.94
v 0.429868236 0.16545258 0.7
v 0.599049639 0.182115494 0.7
v 0.429868236 0.16545258 0.94
v 0.599049639 0.182115494 0.94
v 0.419726388 0.247680513 0.7
v 0.587886394 0.272624693 0.7
v 0.419726388 0.247680513 0.94
v 0.587886394 0.272624693 0.94
v 0.405562022 0.329311761 0.7
v 0.57229552 0.362477116 0.7
v 0.405562022 0.329311761 0.94
v 0.57229552 0.362477116 0.94
v 0.387409263 0.410149669 0.7
v 0.552314576 0.4514563 0.7
v 0.387409263 0.410149669 0.94
v 0.552314576 0.4514563 0.94
v 0.365311842 0.48999949 0.7
v 0.527991699 0.539347885 0.7
v 0.365311842 0.48999949 0.94
v 0.527991699 0.539347885 0.94
v 0.339322992 0.56866886 0.7
v 0.499385484 0.625940135 0.7
v 0.339322992 0.56866886 0.94
v 0.499385484 0.625940135 0.94
v 0.309505325 0.645968256 0.7
v 0.466564845 0.71102444 0.7
v 0.309505325 0.645968256 0.94
v 0.466564845 0.71102444 0.94
v 0.275930672 0.721711459 0.7
v 0.429608852 0.794395824 0.7
v 0.275930672 0.721711459 0.94
v 0.429608852 0.794395824 0.94
v 0.238679919 0.795715995 0.7
v 0.388606534 0.87585344 0.7
v 0.238679919 0.795715995 0.94
v 0.388606534 0.87585344 0.94
v 0.197842806 0.867803581 0.7
v 0.34365667 0.955201048 0.7
v 0.197842806 0.867803581 0.94
v 0.34365667 0.955201048 0.94
v 0.153517712 0.937800553 0.7
v 0.294867546 1.032247493 0.7
v 0.153517712 0.937800553 0.94
v 0.294867546 1.032247493 0.94
v 0.105811422 1.005538281 0.7
v 0.242356702 1.106807163 0.7
v 0.105811422 1.005538281 0.94
v 0.242356702 1.106807163 0.94
v 0.054838862 1.07085358 0.7
v 0.18625064 1.178700438 0.7
v 0.054838862 1.07085358 0.94
v 0.18625064 1.178700438 0.94
v 0.000722832 1.133589098 0.7
v 0.126684523 1.24775412 0.7
v 0.000722832 1.133589098 0.94
v 0.126684523 1.24775412 0.94
v -0.056406299 1.193593701 0.7
v 0.063801854 1.313801854 0.7
v -0.056406299 1.193593701 0.94
v 0.063801854 1.313801854 0.94
v -0.116410902 1.250722832 0.7
v -0.00224588 1.376684523 0.7
v -0.116410902 1.250722832 0.94
v -0.00224588 1.376684523 0.94
v -0.17914642 1.304838862 0.7
v -0.071299562 1.43625064 0.7
v -0.17914642 1.304838862 0.94
v -0.071299562 1.43625064 0.94
v -0.244461719 1.355811422 0.7
v -0.143192837 1.492356702 0.7
v -0.244461719 1.355811422 0.94
v -0.143192837 1.492356702 0.94
v -0.312199447 1.403517712 0.7
v -0.217752507 1.544867546 0.7
v -0.312199447 1.403517712 0.94
v -0.217752507 1.544867546 0.94
v -0.382196419 1.447842806 0.7
v -0.294798952 1.59365667 0.7
v -0.382196419 1.447842806 0.94
v -0.294798952 1.59365667 0.94
v -0.454284005 1.488679919 0.7
v -0.37414656 1.638606534 0.7
v -0.454284005 1.488679919 0.94
v -0.37414656 1.638606534 0.94
v -0.528288541 1.525930672 0.7
v -0.455604176 1.679608852 0.7
v -0.528288541 1.525930672 0.94
v -0.455604176 1.679608852 0.94
v -0.604031744 1.559505325 0.7
v -0.53897556 1.716564845 0.7
v -0.604031744 1.559505325 0.94
v -0.53897556 1.716564845 0.94
v -0.68133114 1.589322992 0.7
v -0.624059865 1.749385484 0.7
v -0.68133114 1.589322992 0.94
v -0.624059865 1.749385484 0.94
v -0.76000051 1.615311842 0.7
v -0.710652115 1.777991699 0.7
v -0.76000051 1.615311842 0.94
v -0.710652115 1.777991699 0.94
v -0.839850331 1.637409263 0.7
v -0.7985437 1.802314576 0.7
v -0.839850331 1.637409263 0.94
v -0.7985437 1.802314576 0.94
v -0.920688239 1.655562022 0.7
v -0.887522884 1.82229552 0.7
v -0.920688239 1.655562022 0.94
v -0.887522884 1.82229552 0.94
v -1.002319487 1.669726388 0.7
v -0.977375307 1.837886394 0.7
v -1.002319487 1.669726388 0.94
v -0.977375307 1.837886394 0.94
v -1.08454742 1.679868236 0.7
v -1.067884506 1.849049639 0.7
v -1.08454742 1.679868236 0.94
v -1.067884506 1.849049639 0.94
v -1.167173942 1.685963134 0.7
v -1.158832438 1.855758362 0.7
v -1.167173942 1.685963134 0.94
v -1.158832438 1.855758362 0.94
v -1.25 1.6879964 0.7
v -1.25 1.8579964 0.7
v -1.25 1.6879964 0.94
v -1.25 1.8579964 0.94
f 3 4 8
f 3 8 7
f 1 5 6
f 1 6 2
f 1 3 7
f 1 7 5
f 2 6 8
f 2 8 4
f 7 8 12
f 7 12 11
f 5 9 10
f 5 10 6
f 5 7 11
f 5 11 9
f 6 10 12
f 6 12 8
f 11 12 16
f 11 16 15
f 9 13 14
f 9 14 10
f 9 11 15
f 9 15 13
f 10 14 16
f 10 16 12
f 15 16 20
f 15 20 19
f 13 17 18
f 13 18 14
f 13 15 19
f 13 19 17
f 14 18 20
f 14 20 16
f 19 20 24
f 19 24 23
f 17 21 22
f 17 22 18
f 17 19 23
f 17 23 21
f 18 22 24
f 18 24 20
f 23 24 28
f 23 28 27
f 21 25 26
f 21 26 22
f 21 23 27
f 21 27 25
f 22 26 28
f 22 28 24
f 27 28 32
f 27 32 31
f 25 29 30
f 25 30 26
f 25 27 31
f 25 31 29
f 26 30 32
f 26 32 28
f 31 32 36
f 31 36 35
f 29 33 34
f 29 34 30
f 29 31 35
f 29 35 33
f 30 34 36
f 30 36 32
f 35 36 40
f 35 40 39
f 33 37 38
f 33 38 34
f 33 35 39
f 33 39 37
f 34 38 40
f 34 40 36
f 39 40 44
f 39 44 43
f 37 41 42
f 37 42 38
f 37 39 43
f 37 43 41
f 38 42 44
f 38 44 40
f 43 44 48
f 43 48 47
f 41 45 46
f 41 46 42
f 41 43 47
f 41 47 45
f 42 46 48
f 42 48 44
f 47 48 52
f 47 52 51
f 45 49 50
f 45 50 46
f 45 47 51
f 45 51 49
f 46 50 52
f 46 52 48
f 51 52 56
f 51 56 55
f 49 53 54
f 49 54 50
f 49 51 55
f 49 55 53
f 50 54 56
f 50 56 52
f 55 56 60
f 55 60 59
f 53 57 58
f 53 58 54
f 53 55 59
f 53 59 57
f 54 58 60
f 54 60 56
f 59 60 64
f 59 64 63
f 57 61 62
f 57 62 58
f 57 59 63
f 57 63 61
f 58 62 64
f 58 64 60
f 63 64 68
f 63 68 67
f 61 65 66
f 61 66 62
f 61 63 67
f 61 67 65
f 62 66 68
f 62 68 64
f 67 68 72
f 67 72 71
f 65 69 70
f 65 70 66
f 65 67 71
f 65 71 69
f 66 70 72
f 66 72 68
f 71 72 76
f 71 76 75
f 69 73 74
f 69 74 70
f 69 71 75
f 69 75 73
f 70 74 76
f 70 76 72
f 75 76 80
f 75 80 79
f 73 77 78
f 73 78 74
f 73 75 79
f 73 79 77
f 74 78 80
f 74 80 76
f 79 80 84
f 79 84 83
f 77 81 82
f 77 82 78
f 77 79 83
f 77 83 81
f 78 82 84
f 78 84 80
f 83 84 88
f 83 88 87
f 81 85 86
f 81 86 82
f 81 83 87
f 81 87 85
f 82 86 88
f 82 88 84
f 87 88 92
f 87 92 91
f 85 89 90
f 85 90 86
f 85 87 91
f 85 91 89
f 86 90 92
f 86 92 88
f 91 92 96
f 91 96 95
f 89 93 94
f 89 94 90
f 89 91 95
f 89 95 93
f 90 94 96
f 90 96 92
f 95 96 100
f 95 100 99
f 93 97 98
f 93 98 94
f 93 95 99
f 93 99 97
f 94 98 100
f 94 100 96
f 99 100 104
f 99 104 103
f 97 101 102
f 97 102 98
f 97 99 103
f 97 103 101
f 98 102 104
f 98 104 100
f 103 104 108
f 103 108 107
f 101 105 106
f 101 106 102
f 101 103 107
f 101 107 105
f 102 106 108
f 102 108 104
f 107 108 112
f 107 112 111
f 105 109 110
f 105 110 106
f 105 107 111
f 105 111 109
f 106 110 112
f 106 112 108
f 111 112 116
f 111 116 115
f 109 113 114
f 109 114 110
f 109 111 115
f 109 115 113
f 110 114 116
f 110 116 112
f 115 116 120
f 115 120 119
f 113 117 118
f 113 118 114
f 113 115 119
f 113 119 117
f 114 118 120
f 114 120 116
f 119 120 124
f 119 124 123
f 117 121 122
f 117 122 118
f 117 119 123
f 117 123 121
f 118 122 124
f 118 124 120
f 123 124 128
f 123 128 127
f 121 125 126
f 121 126 122
f 121 123 127
f 121 127 125
f 122 126 128
f 122 128 124
f 127 128 132
f 127 132 131
f 125 129 130
f 125 130 126
f 125 127 131
f 125 131 129
f 126 130 132
f 126 132 128
f 1 2 4
f 1 4 3
f 129 131 132
f 129 132 130
