o conveyor_curve_right-45_outer_rail
v -0.4020036 0 0.7
v -0.5720036 0 0.7
v -0.4020036 0 0.94
v -0.5720036 0 0.94
v -0.401119097 0.054052043 0.7
v -0.571028076 0.059614287 0.7
v -0.401119097 0.054052043 0.94
v -0.571028076 0.059614287 0.94
v -0.398466533 0.108046205 0.7
v -0.56810255 0.119164737 0.7
v -0.398466533 0.108046205 0.94
v -0.56810255 0.119164737 0.94
v -0.394048751 0.161924669 0.7
v -0.563230155 0.178587583 0.7
v -0.394048751 0.161924669 0.94
v -0.563230155 0.178587583 0.94
v -0.38787048 0.215629739 0.7
v -0.556416107 0.237819192 0.7
v -0.38787048 0.215629739 0.94
v -0.556416107 0.237819192 0.94
v -0.379938337 0.269103908 0.7
v -0.547667703 0.296796139 0.7
v -0.379938337 0.269103908 0.94
v -0.547667703 0.296796139 0.94
v -0.370260814 0.322289914 0.7
v -0.536994312 0.355455269 0.7
v -0.370260814 0.322289914 0.94
v -0.536994312 0.355455269 0.94
v -0.358848276 0.375130804 0.7
v -0.524407362 0.413733769 0.7
v -0.358848276 0.375130804 0.94
v -0.524407362 0.413733769 0.94
v -0.345712942 0.427569994 0.7
v -0.509920333 0.471569232 0.7
v -0.345712942 0.427569994 0.94
v -0.509920333 0.471569232 0.94
v -0.33086888 0.479551332 0.7
v -0.493548737 0.528899727 0.7
v -0.33086888 0.479551332 0.94
v -0.493548737 0.528899727 0.94
v -0.314331983 0.531019154 0.7
v -0.475310105 0.585663863 0.7
v -0.314331983 0.531019154 0.94
v -0.475310105 0.585663863 0.94
v -0.29611996 0.581918347 0.7
v -0.455223968 0.641800855 0.7
v -0.29611996 0.581918347 0.94
v -0.455223968 0.641800855 0.94
v -0.276252314 0.632194408 0.7
v -0.433311834 0.697250591 0.7
v -0.276252314 0.632194408 0.94
v -0.433311834 0.697250591 0.94
v -0.254750318 0.681793499 0.7
v -0.409597168 0.751953694 0.7
v -0.254750318 0.681793499 0.94
v -0.409597168 0.751953694 0.94
v -0.231636998 0.730662508 0.7
v -0.384105364 0.805851586 0.7
v -0.231636998 0.730662508 0.94
v -0.384105364 0.805851586 0.94
v -0.206937104 0.778749106 0.7
v -0.356863719 0.858886552 0.7
v -0.206937104 0.778749106 0.94
v -0.356863719 0.858886552 0.94
v -0.180677085 0.8260018 0.7
v -0.327901403 0.9110018 0.7
v -0.180677085 0.8260018 0.94
v -0.327901403 0.9110018 0.94
v -0.152885061 0.87236999 0.7
v -0.297249432 0.962141525 0.7
v -0.152885061 0.87236999 0.94
v -0.297249432 0.962141525 0.94
v -0.123590793 0.917804025 0.7
v -0.264940627 1.012250965 0.7
v -0.123590793 0.917804025 0.94
v -0.264940627 1.012250965 0.94
v -0.092825649 0.962255252 0.7
v -0.231009586 1.061276461 0.7
v -0.092825649 0.962255252 0.94
v -0.231009586 1.061276461 0.94
v -0.060622574 1.005676072 0.7
v -0.195492642 1.109165515 0.7
v -0.060622574 1.005676072 0.94
v -0.195492642 1.109165515 0.94
v -0.027016052 1.048019989 0.7
v -0.158427829 1.155866848 0.7
v -0.027016052 1.048019989 0.94
v -0.158427829 1.155866848 0.94
v 0.007957931 1.08924166 0.7
v -0.119854836 1.201330449 0.7
v 0.007957931 1.08924166 0.94
v -0.119854836 1.201330449 0.94
v 0.044261924 1.129296944 0.7
v -0.079814968 1.245507635 0.7
v 0.044261924 1.129296944 0.94
v -0.079814968 1.245507635 0.94
v 0.081857052 1.168142948 0.7
v -0.038351101 1.288351101 0.7
v 0.081857052 1.168142948 0.94
v -0.038351101 1.288351101 0.94
f 3 8 4
f 3 7 8
f 1 6 5
f 1 2 6
f 1 7 3
f 1 5 7
f 2 8 6
f 2 4 8
f 7 12 8
f 7 11 12
f 5 10 9
f 5 6 10
f 5 11 7
f 5 9 11
f 6 12 10
f 6 8 12
f 11 16 12
f 11 15 16
f 9 14 13
f 9 10 14
f 9 15 11
f 9 13 15
f 10 16 14
f 10 12 16
f 15 20 16
f 15 19 20
f 13 18 17
f 13 14 18
f 13 19 15
f 13 17 19
f 14 20 18
f 14 16 20
f 19 24 20
f 19 23 24
f 17 22 21
f 17 18 22
f 17 23 19
f 17 21 23
f 18 24 22
f 18 20 24
f 23 28 24
f 23 27 28
f 21 26 25
f 21 22 26
f 21 27 23
f 21 25 27
f 22 28 26
f 22 24 28
f 27 32 28
f 27 31 32
f 25 30 29
f 25 26 30
f 25 31 27
f 25 29 31
f 26 32 30
f 26 28 32
f 31 36 32
f 31 35 36
f 29 34 33
f 29 30 34
f 29 35 31
f 29 33 35
f 30 36 34
f 30 32 36
f 35 40 36
f 35 39 40
f 33 38 37
f 33 34 38
f 33 39 35
f 33 37 39
f 34 40 38
f 34 36 40
f 39 44 40
f 39 43 44
f 37 42 41
f 37 38 42
f 37 43 39
f 37 41 43
f 38 44 42
f 38 40 44
f 43 48 44
f 43 47 48
f 41 46 45
f 41 42 46
f 41 47 43
f 41 45 47
f 42 48 46
f 42 44 48
f 47 52 48
f 47 51 52
f 45 50 49
f 45 46 50
f 45 51 47
f 45 49 51
f 46 52 50
f 46 48 52
f 51 56 52
f 51 55 56
f 49 54 53
f 49 50 54
f 49 55 51
f 49 53 55
f 50 56 54
f 50 52 56
f 55 60 56
f 55 59 60
f 53 58 57
f 53 54 58
f 53 59 55
f 53 57 59
f 54 60 58
f 54 56 60
f 59 64 60
f 59 63 64
f 57 62 61
f 57 58 62
f 57 63 59
f 57 61 63
f 58 64 62
f 58 60 64
f 63 68 64
f 63 67 68
f 61 66 65
f 61 62 66
f 61 67 63
f 61 65 67
f 62 68 66
f 62 64 68
f 67 72 68
f 67 71 72
f 65 70 69
f 65 66 70
f 65 71 67
f 65 69 71
f 66 72 70
f 66 68 72
f 71 76 72
f 71 75 76
f 69 74 73
f 69 70 74
f 69 75 71
f 69 73 75
f 70 76 74
f 70 72 76
f 75 80 76
f 75 79 80
f 73 78 77
f 73 74 78
f 73 79 75
f 73 77 79
f 74 80 78
f 74 76 80
f 79 84 80
f 79 83 84
f 77 82 81
f 77 78 82
f 77 83 79
f 77 81 83
f 78 84 82
f 78 80 84
f 83 88 84
f 83 87 88
f 81 86 85
f 81 82 86
f 81 87 83
f 81 85 87
f 82 88 86
f 82 84 88
f 87 92 88
f 87 91 92
f 85 90 89
f 85 86 90
f 85 91 87
f 85 89 91
f 86 92 90
f 86 88 92
f 91 96 92
f 91 95 96
f 89 94 93
f 89 90 94
f 89 95 91
f 89 93 95
f 90 96 94
f 90 92 96
f 95 100 96
f 95 99 100
f 93 98 97
f 93 94 98
f 93 99 95
f 93 97 99
f 94 100 98
f 94 96 100
f 1 4 2
f 1 3 4
f 97 100 99
f 97 98 100
