o conveyor_curve_right-45_belt_underlay
v 0.4239964 0 0.85
v -0.3880036 0 0.85
v 0.4239964 0 0.866
v -0.3880036 0 0.866
v 0.424438653 0.02702608 0.85
v -0.387126592 0.053593975 0.85
v 0.424438653 0.02702608 0.866
v -0.387126592 0.053593975 0.866
v 0.425764937 0.05402322 0.85
v -0.384496509 0.107130561 0.85
v 0.425764937 0.05402322 0.866
v -0.384496509 0.107130561 0.866
v 0.427973833 0.080962511 0.85
v -0.380116165 0.160552429 0.85
v 0.427973833 0.080962511 0.866
v -0.380116165 0.160552429 0.866
v 0.431062975 0.107815105 0.85
v -0.373990252 0.213802373 0.85
v 0.431062975 0.107815105 0.866
v -0.373990252 0.213802373 0.866
v 0.435029056 0.134552247 0.85
v -0.36612533 0.266823372 0.85
v 0.435029056 0.134552247 0.866
v -0.36612533 0.266823372 0.866
v 0.439867828 0.161145308 0.85
v -0.35652982 0.31955865 0.85
v 0.439867828 0.161145308 0.866
v -0.35652982 0.31955865 0.866
v 0.445574109 0.187565811 0.85
v -0.345213998 0.371951736 0.85
v 0.445574109 0.187565811 0.866
v -0.345213998 0.371951736 0.866
v 0.45214179 0.213785463 0.85
v -0.332189981 0.423946528 0.85
v 0.45214179 0.213785463 0.866
v -0.332189981 0.423946528 0.866
v 0.459563838 0.239776188 0.85
v -0.317471715 0.475487346 0.85
v 0.459563838 0.239776188 0.866
v -0.317471715 0.475487346 0.866
v 0.467832304 0.265510156 0.85
v -0.301074961 0.526519001 0.85
v 0.467832304 0.265510156 0.866
v -0.301074961 0.526519001 0.866
v 0.476938335 0.290959808 0.85
v -0.283017277 0.576986847 0.85
v 0.476938335 0.290959808 0.866
v -0.283017277 0.576986847 0.866
v 0.48687218 0.316097893 0.85
v -0.263318 0.62683684 0.85
v 0.48687218 0.316097893 0.866
v -0.263318 0.62683684 0.866
v 0.497623202 0.340897492 0.85
v -0.241998224 0.676015601 0.85
v 0.497623202 0.340897492 0.866
v -0.241998224 0.676015601 0.866
v 0.509179887 0.36533205 0.85
v -0.219080779 0.724470467 0.85
v 0.509179887 0.36533205 0.866
v -0.219080779 0.724470467 0.866
v 0.521529861 0.389375402 0.85
v -0.194590206 0.772149552 0.85
v 0.521529861 0.389375402 0.866
v -0.194590206 0.772149552 0.866
v 0.534659899 0.4130018 0.85
v -0.168552729 0.8190018 0.85
v 0.534659899 0.4130018 0.866
v -0.168552729 0.8190018 0.866
v 0.548555941 0.436185946 0.85
v -0.14099623 0.86497704 0.85
v 0.548555941 0.436185946 0.866
v -0.14099623 0.86497704 0.866
v 0.563203107 0.458903013 0.85
v -0.111950218 0.910026042 0.85
v 0.563203107 0.458903013 0.866
v -0.111950218 0.910026042 0.866
v 0.578585712 0.481128675 0.85
v -0.081445796 0.954100564 0.85
v 0.578585712 0.481128675 0.866
v -0.081445796 0.954100564 0.866
v 0.594687285 0.502839132 0.85
v -0.049515627 0.997153412 0.85
v 0.594687285 0.502839132 0.866
v -0.049515627 0.997153412 0.866
v 0.611490583 0.524011137 0.85
v -0.016193905 1.039138483 0.85
v 0.611490583 0.524011137 0.866
v -0.016193905 1.039138483 0.866
v 0.628977612 0.544622017 0.85
v 0.018483689 1.080010819 0.85
v 0.628977612 0.544622017 0.866
v 0.018483689 1.080010819 0.866
v 0.647129648 0.564649702 0.85
v 0.054480021 1.119726652 0.85
v 0.647129648 0.564649702 0.866
v 0.054480021 1.119726652 0.866
v 0.665927253 0.584072747 0.85
v 0.091756547 1.158243453 0.85
v 0.665927253 0.584072747 0.866
v 0.091756547 1.158243453 0.866
f 3 8 4
f 3 7 8
f 1 6 5
f 1 2 6
f 1 7 3
f 1 5 7
f 2 8 6
f 2 4 8
f 7 12 8
f 7 11 12
f 5 10 9
f 5 6 10
f 5 11 7
f 5 9 11
f 6 12 10
f 6 8 12
f 11 16 12
f 11 15 16
f 9 14 13
f 9 10 14
f 9 15 11
f 9 13 15
f 10 16 14
f 10 12 16
f 15 20 16
f 15 19 20
f 13 18 17
f 13 14 18
f 13 19 15
f 13 17 19
f 14 20 18
f 14 16 20
f 19 24 20
f 19 23 24
f 17 22 21
f 17 18 22
f 17 23 19
f 17 21 23
f 18 24 22
f 18 20 24
f 23 28 24
f 23 27 28
f 21 26 25
f 21 22 26
f 21 27 23
f 21 25 27
f 22 28 26
f 22 24 28
f 27 32 28
f 27 31 32
f 25 30 29
f 25 26 30
f 25 31 27
f 25 29 31
f 26 32 30
f 26 28 32
f 31 36 32
f 31 35 36
f 29 34 33
f 29 30 34
f 29 35 31
f 29 33 35
f 30 36 34
f 30 32 36
f 35 40 36
f 35 39 40
f 33 38 37
f 33 34 38
f 33 39 35
f 33 37 39
f 34 40 38
f 34 36 40
f 39 44 40
f 39 43 44
f 37 42 41
f 37 38 42
f 37 43 39
f 37 41 43
f 38 44 42
f 38 40 44
f 43 48 44
f 43 47 48
f 41 46 45
f 41 42 46
f 41 47 43
f 41 45 47
f 42 48 46
f 42 44 48
f 47 52 48
f 47 51 52
f 45 50 49
f 45 46 50
f 45 51 47
f 45 49 51
f 46 52 50
f 46 48 52
f 51 56 52
f 51 55 56
f 49 54 53
f 49 50 54
f 49 55 51
f 49 53 55
f 50 56 54
f 50 52 56
f 55 60 56
f 55 59 60
f 53 58 57
f 53 54 58
f 53 59 55
f 53 57 59
f 54 60 58
f 54 56 60
f 59 64 60
f 59 63 64
f 57 62 61
f 57 58 62
f 57 63 59
f 57 61 63
f 58 64 62
f 58 60 64
f 63 68 64
f 63 67 68
f 61 66 65
f 61 62 66
f 61 67 63
f 61 65 67
f 62 68 66
f 62 64 68
f 67 72 68
f 67 71 72
f 65 70 69
f 65 66 70
f 65 71 67
f 65 69 71
f 66 72 70
f 66 68 72
f 71 76 72
f 71 75 76
f 69 74 73
f 69 70 74
f 69 75 71
f 69 73 75
f 70 76 74
f 70 72 76
f 75 80 76
f 75 79 80
f 73 78 77
f 73 74 78
f 73 79 75
f 73 77 79
f 74 80 78
f 74 76 80
f 79 84 80
f 79 83 84
f 77 82 81
f 77 78 82
f 77 83 79
f 77 81 83
f 78 84 82
f 78 80 84
f 83 88 84
f 83 87 88
f 81 86 85
f 81 82 86
f 81 87 83
f 81 85 87
f 82 88 86
f 82 84 88
f 87 92 88
f 87 91 92
f 85 90 89
f 85 86 90
f 85 91 87
f 85 89 91
f 86 92 90
f 86 88 92
f 91 96 92
f 91 95 96
f 89 94 93
f 89 90 94
f 89 95 91
f 89 93 95
f 90 96 94
f 90 92 96
f 95 100 96
f 95 99 100
f 93 98 97
f 93 94 98
f 93 99 95
f 93 97 99
f 94 100 98
f 94 96 100
f 1 4 2
f 1 3 4
f 97 100 99
f 97 98 100
