o conveyor_curve_right-45_inner_rail
v 0.6079964 0 0.7
v 0.4379964 0 0.7
v 0.6079964 0 0.94
v 0.4379964 0 0.94
v 0.608769721 0.031501624 0.7
v 0.438974494 0.039843128 0.7
v 0.608769721 0.031501624 0.94
v 0.438974494 0.039843128 0.94
v 0.611087823 0.062927357 0.7
v 0.441906419 0.079590271 0.7
v 0.611087823 0.062927357 0.94
v 0.441906419 0.079590271 0.94
v 0.61494512 0.094201493 0.7
v 0.446785113 0.119145673 0.7
v 0.61494512 0.094201493 0.94
v 0.446785113 0.119145673 0.94
v 0.620332319 0.125248689 0.7
v 0.453598821 0.158414044 0.7
v 0.620332319 0.125248689 0.94
v 0.453598821 0.158414044 0.94
v 0.627236443 0.15599415 0.7
v 0.46233113 0.197300781 0.7
v 0.627236443 0.15599415 0.94
v 0.46233113 0.197300781 0.94
v 0.635640859 0.186363808 0.7
v 0.472961002 0.235712203 0.7
v 0.635640859 0.186363808 0.94
v 0.472961002 0.235712203 0.94
v 0.645525321 0.216284499 0.7
v 0.48546283 0.273555774 0.7
v 0.645525321 0.216284499 0.94
v 0.48546283 0.273555774 0.94
v 0.656866014 0.245684141 0.7
v 0.499806494 0.310740325 0.7
v 0.656866014 0.245684141 0.94
v 0.499806494 0.310740325 0.94
v 0.669635619 0.274491909 0.7
v 0.51595744 0.347176275 0.7
v 0.669635619 0.274491909 0.94
v 0.51595744 0.347176275 0.94
v 0.683803373 0.302638402 0.7
v 0.533876758 0.382775847 0.7
v 0.683803373 0.302638402 0.94
v 0.533876758 0.382775847 0.94
v 0.699335145 0.330055813 0.7
v 0.553521281 0.417453279 0.7
v 0.699335145 0.330055813 0.94
v 0.553521281 0.417453279 0.94
v 0.716193516 0.35667809 0.7
v 0.574843682 0.451125029 0.7
v 0.716193516 0.35667809 0.94
v 0.574843682 0.451125029 0.94
v 0.734337873 0.382441098 0.7
v 0.597792593 0.48370998 0.7
v 0.734337873 0.382441098 0.94
v 0.597792593 0.48370998 0.94
v 0.753724506 0.407282772 0.7
v 0.622312729 0.515129631 0.7
v 0.753724506 0.407282772 0.94
v 0.622312729 0.515129631 0.94
v 0.77430671 0.431143267 0.7
v 0.648345019 0.545308289 0.7
v 0.77430671 0.431143267 0.94
v 0.648345019 0.545308289 0.94
v 0.796034901 0.453965099 0.7
v 0.675826748 0.574173252 0.7
v 0.796034901 0.453965099 0.94
v 0.675826748 0.574173252 0.94
f 3 8 4
f 3 7 8
f 1 6 5
f 1 2 6
f 1 7 3
f 1 5 7
f 2 8 6
f 2 4 8
f 7 12 8
f 7 11 12
f 5 10 9
f 5 6 10
f 5 11 7
f 5 9 11
f 6 12 10
f 6 8 12
f 11 16 12
f 11 15 16
f 9 14 13
f 9 10 14
f 9 15 11
f 9 13 15
f 10 16 14
f 10 12 16
f 15 20 16
f 15 19 20
f 13 18 17
f 13 14 18
f 13 19 15
f 13 17 19
f 14 20 18
f 14 16 20
f 19 24 20
f 19 23 24
f 17 22 21
f 17 18 22
f 17 23 19
f 17 21 23
f 18 24 22
f 18 20 24
f 23 28 24
f 23 27 28
f 21 26 25
f 21 22 26
f 21 27 23
f 21 25 27
f 22 28 26
f 22 24 28
f 27 32 28
f 27 31 32
f 25 30 29
f 25 26 30
f 25 31 27
f 25 29 31
f 26 32 30
f 26 28 32
f 31 36 32
f 31 35 36
f 29 34 33
f 29 30 34
f 29 35 31
f 29 33 35
f 30 36 34
f 30 32 36
f 35 40 36
f 35 39 40
f 33 38 37
f 33 34 38
f 33 39 35
f 33 37 39
f 34 40 38
f 34 36 40
f 39 44 40
f 39 43 44
f 37 42 41
f 37 38 42
f 37 43 39
f 37 41 43
f 38 44 42
f 38 40 44
f 43 48 44
f 43 47 48
f 41 46 45
f 41 42 46
f 41 47 43
f 41 45 47
f 42 48 46
f 42 44 48
f 47 52 48
f 47 51 52
f 45 50 49
f 45 46 50
f 45 51 47
f 45 49 51
f 46 52 50
f 46 48 52
f 51 56 52
f 51 55 56
f 49 54 53
f 49 50 54
f 49 55 51
f 49 53 55
f 50 56 54
f 50 52 56
f 55 60 56
f 55 59 60
f 53 58 57
f 53 54 58
f 53 59 55
f 53 57 59
f 54 60 58
f 54 56 60
f 59 64 60
f 59 63 64
f 57 62 61
f 57 58 62
f 57 63 59
f 57 61 63
f 58 64 62
f 58 60 64
f 63 68 64
f 63 67 68
f 61 66 65
f 61 62 66
f 61 67 63
f 61 65 67
f 62 68 66
f 62 64 68
f 1 4 2
f 1 3 4
f 65 68 67
f 65 66 68
