o conveyor_curve_left-45_outer_rail
v 0.4379964 0 0.7
v 0.6079964 0 0.7
v 0.4379964 0 0.94
v 0.6079964 0 0.94
v 0.437092626 0.055229694 0.7
v 0.607001605 0.060791938 0.7
v 0.437092626 0.055229694 0.94
v 0.607001605 0.060791938 0.94
v 0.43438227 0.110400247 0.7
v 0.604018287 0.121518779 0.7
v 0.43438227 0.110400247 0.94
v 0.604018287 0.121518779 0.94
v 0.429868236 0.16545258 0.7
v 0.599049639 0.182115494 0.7
v 0.429868236 0.16545258 0.94
v 0.599049639 0.182115494 0.94
v 0.423555357 0.220327743 0.7
v 0.592100983 0.242517195 0.7
v 0.423555357 0.220327743 0.94
v 0.592100983 0.242517195 0.94
v 0.415450393 0.274966973 0.7
v 0.583179759 0.302659203 0.7
v 0.415450393 0.274966973 0.94
v 0.583179759 0.302659203 0.94
v 0.405562022 0.329311761 0.7
v 0.57229552 0.362477116 0.7
v 0.405562022 0.329311761 0.94
v 0.57229552 0.362477116 0.94
v 0.393900835 0.383303915 0.7
v 0.559459922 0.421906879 0.7
v 0.393900835 0.383303915 0.94
v 0.559459922 0.421906879 0.94
v 0.380479317 0.436885616 0.7
v 0.544686708 0.480884854 0.7
v 0.380479317 0.436885616 0.94
v 0.544686708 0.480884854 0.94
v 0.365311842 0.48999949 0.7
v 0.527991699 0.539347885 0.7
v 0.365311842 0.48999949 0.94
v 0.527991699 0.539347885 0.94
v 0.34841465 0.54258866 0.7
v 0.509392772 0.597233369 0.7
v 0.34841465 0.54258866 0.94
v 0.509392772 0.597233369 0.94
v 0.329805835 0.594596813 0.7
v 0.488909843 0.654479321 0.7
v 0.329805835 0.594596813 0.94
v 0.488909843 0.654479321 0.94
v 0.309505325 0.645968256 0.7
v 0.466564845 0.71102444 0.7
v 0.309505325 0.645968256 0.94
v 0.466564845 0.71102444 0.94
v 0.287534857 0.696647981 0.7
v 0.442381708 0.766808176 0.7
v 0.287534857 0.696647981 0.94
v 0.442381708 0.766808176 0.94
v 0.263917959 0.746581717 0.7
v 0.416386325 0.821770794 0.7
v 0.263917959 0.746581717 0.94
v 0.416386325 0.821770794 0.94
v 0.238679919 0.795715995 0.7
v 0.388606534 0.87585344 0.7
v 0.238679919 0.795715995 0.94
v 0.388606534 0.87585344 0.94
v 0.211847764 0.8439982 0.7
v 0.359072083 0.9289982 0.7
v 0.211847764 0.8439982 0.94
v 0.359072083 0.9289982 0.94
v 0.183450225 0.891376631 0.7
v 0.327814596 0.981148165 0.7
v 0.183450225 0.891376631 0.94
v 0.327814596 0.981148165 0.94
v 0.153517712 0.937800553 0.7
v 0.294867546 1.032247493 0.7
v 0.153517712 0.937800553 0.94
v 0.294867546 1.032247493 0.94
v 0.122082277 0.983220255 0.7
v 0.260266214 1.082241464 0.7
v 0.122082277 0.983220255 0.94
v 0.260266214 1.082241464 0.94
v 0.089177582 1.027587101 0.7
v 0.22404765 1.131076544 0.7
v 0.089177582 1.027587101 0.94
v 0.22404765 1.131076544 0.94
v 0.054838862 1.07085358 0.7
v 0.18625064 1.178700438 0.7
v 0.054838862 1.07085358 0.94
v 0.18625064 1.178700438 0.94
v 0.019102888 1.112973362 0.7
v 0.146915656 1.225062151 0.7
v 0.019102888 1.112973362 0.94
v 0.146915656 1.225062151 0.94
v -0.017992073 1.153901345 0.7
v 0.10608482 1.270112036 0.7
v -0.017992073 1.153901345 0.94
v 0.10608482 1.270112036 0.94
v -0.056406299 1.193593701 0.7
v 0.063801854 1.313801854 0.7
v -0.056406299 1.193593701 0.94
v 0.063801854 1.313801854 0.94
f 3 4 8
f 3 8 7
f 1 5 6
f 1 6 2
f 1 3 7
f 1 7 5
f 2 6 8
f 2 8 4
f 7 8 12
f 7 12 11
f 5 9 10
f 5 10 6
f 5 7 11
f 5 11 9
f 6 10 12
f 6 12 8
f 11 12 16
f 11 16 15
f 9 13 14
f 9 14 10
f 9 11 15
f 9 15 13
f 10 14 16
f 10 16 12
f 15 16 20
f 15 20 19
f 13 17 18
f 13 18 14
f 13 15 19
f 13 19 17
f 14 18 20
f 14 20 16
f 19 20 24
f 19 24 23
f 17 21 22
f 17 22 18
f 17 19 23
f 17 23 21
f 18 22 24
f 18 24 20
f 23 24 28
f 23 28 27
f 21 25 26
f 21 26 22
f 21 23 27
f 21 27 25
f 22 26 28
f 22 28 24
f 27 28 32
f 27 32 31
f 25 29 30
f 25 30 26
f 25 27 31
f 25 31 29
f 26 30 32
f 26 32 28
f 31 32 36
f 31 36 35
f 29 33 34
f 29 34 30
f 29 31 35
f 29 35 33
f 30 34 36
f 30 36 32
f 35 36 40
f 35 40 39
f 33 37 38
f 33 38 34
f 33 35 39
f 33 39 37
f 34 38 40
f 34 40 36
f 39 40 44
f 39 44 43
f 37 41 42
f 37 42 38
f 37 39 43
f 37 43 41
f 38 42 44
f 38 44 40
f 43 44 48
f 43 48 47
f 41 45 46
f 41 46 42
f 41 43 47
f 41 47 45
f 42 46 48
f 42 48 44
f 47 48 52
f 47 52 51
f 45 49 50
f 45 50 46
f 45 47 51
f 45 51 49
f 46 50 52
f 46 52 48
f 51 52 56
f 51 56 55
f 49 53 54
f 49 54 50
f 49 51 55
f 49 55 53
f 50 54 56
f 50 56 52
f 55 56 60
f 55 60 59
f 53 57 58
f 53 58 54
f 53 55 59
f 53 59 57
f 54 58 60
f 54 60 56
f 59 60 64
f 59 64 63
f 57 61 62
f 57 62 58
f 57 59 63
f 57 63 61
f 58 62 64
f 58 64 60
f 63 64 68
f 63 68 67
f 61 65 66
f 61 66 62
f 61 63 67
f 61 67 65
f 62 66 68
f 62 68 64
f 67 68 72
f 67 72 71
f 65 69 70
f 65 70 66
f 65 67 71
f 65 71 69
f 66 70 72
f 66 72 68
f 71 72 76
f 71 76 75
f 69 73 74
f 69 74 70
f 69 71 75
f 69 75 73
f 70 74 76
f 70 76 72
f 75 76 80
f 75 80 79
f 73 77 78
f 73 78 74
f 73 75 79
f 73 79 77
f 74 78 80
f 74 80 76
f 79 80 84
f 79 84 83
f 77 81 82
f 77 82 78
f 77 79 83
f 77 83 81
f 78 82 84
f 78 84 80
f 83 84 88
f 83 88 87
f 81 85 86
f 81 86 82
f 81 83 87
f 81 87 85
f 82 86 88
f 82 88 84
f 87 88 92
f 87 92 91
f 85 89 90
f 85 90 86
f 85 87 91
f 85 91 89
f 86 90 92
f 86 92 88
f 91 92 96
f 91 96 95
f 89 93 94
f 89 94 90
f 89 91 95
f 89 95 93
f 90 94 96
f 90 96 92
f 95 96 100
f 95 100 99
f 93 97 98
f 93 98 94
f 93 95 99
f 93 99 97
f 94 98 100
f 94 100 96
f 1 2 4
f 1 4 3
f 97 99 100
f 97 100 98
