o conveyor_curve_right_belt_underlay
v 0.4239964 0 0.85
v -0.3880036 0 0.85
v 0.4239964 0 0.866
v -0.3880036 0 0.866
v 0.424438653 0.02702608 0.85
v -0.387126592 0.053593975 0.85
v 0.424438653 0.02702608 0.866
v -0.387126592 0.053593975 0.866
v 0.425764937 0.05402322 0.85
v -0.384496509 0.107130561 0.85
v 0.425764937 0.05402322 0.866
v -0.384496509 0.107130561 0.866
v 0.427973833 0.080962511 0.85
v -0.380116165 0.160552429 0.85
v 0.427973833 0.080962511 0.866
v -0.380116165 0.160552429 0.866
v 0.431062975 0.107815105 0.85
v -0.373990252 0.213802373 0.85
v 0.431062975 0.107815105 0.866
v -0.373990252 0.213802373 0.866
v 0.435029056 0.134552247 0.85
v -0.36612533 0.266823372 0.85
v 0.435029056 0.134552247 0.866
v -0.36612533 0.266823372 0.866
v 0.439867828 0.161145308 0.85
v -0.35652982 0.31955865 0.85
v 0.439867828 0.161145308 0.866
v -0.35652982 0.31955865 0.866
v 0.445574109 0.187565811 0.85
v -0.345213998 0.371951736 0.85
v 0.445574109 0.187565811 0.866
v -0.345213998 0.371951736 0.866
v 0.45214179 0.213785463 0.85
v -0.332189981 0.423946528 0.85
v 0.45214179 0.213785463 0.866
v -0.332189981 0.423946528 0.866
v 0.459563838 0.239776188 0.85
v -0.317471715 0.475487346 0.85
v 0.459563838 0.239776188 0.866
v -0.317471715 0.475487346 0.866
v 0.467832304 0.265510156 0.85
v -0.301074961 0.526519001 0.85
v 0.467832304 0.265510156 0.866
v -0.301074961 0.526519001 0.866
v 0.476938335 0.290959808 0.85
v -0.283017277 0.576986847 0.85
v 0.476938335 0.290959808 0.866
v -0.283017277 0.576986847 0.866
v 0.48687218 0.316097893 0.85
v -0.263318 0.62683684 0.85
v 0.48687218 0.316097893 0.866
v -0.263318 0.62683684 0.866
v 0.497623202 0.340897492 0.85
v -0.241998224 0.676015601 0.85
v 0.497623202 0.340897492 0.866
v -0.241998224 0.676015601 0.866
v 0.509179887 0.36533205 0.85
v -0.219080779 0.724470467 0.85
v 0.509179887 0.36533205 0.866
v -0.219080779 0.724470467 0.866
v 0.521529861 0.389375402 0.85
v -0.194590206 0.772149552 0.85
v 0.521529861 0.389375402 0.866
v -0.194590206 0.772149552 0.866
v 0.534659899 0.4130018 0.85
v -0.168552729 0.8190018 0.85
v 0.534659899 0.4130018 0.866
v -0.168552729 0.8190018 0.866
v 0.548555941 0.436185946 0.85
v -0.14099623 0.86497704 0.85
v 0.548555941 0.436185946 0.866
v -0.14099623 0.86497704 0.866
v 0.563203107 0.458903013 0.85
v -0.111950218 0.910026042 0.85
v 0.563203107 0.458903013 0.866
v -0.111950218 0.910026042 0.866
v 0.578585712 0.481128675 0.85
v -0.081445796 0.954100564 0.85
v 0.578585712 0.481128675 0.866
v -0.081445796 0.954100564 0.866
v 0.594687285 0.502839132 0.85
v -0.049515627 0.997153412 0.85
v 0.594687285 0.502839132 0.866
v -0.049515627 0.997153412 0.866
v 0.611490583 0.524011137 0.85
v -0.016193905 1.039138483 0.85
v 0.611490583 0.524011137 0.866
v -0.016193905 1.039138483 0.866
v 0.628977612 0.544622017 0.85
v 0.018483689 1.080010819 0.85
v 0.628977612 0.544622017 0.866
v 0.018483689 1.080010819 0.866
v 0.647129648 0.564649702 0.85
v 0.054480021 1.119726652 0.85
v 0.647129648 0.564649702 0.866
v 0.054480021 1.119726652 0.866
v 0.665927253 0.584072747 0.85
v 0.091756547 1.158243453 0.85
v 0.665927253 0.584072747 0.866
v 0.091756547 1.158243453 0.866
v 0.685350298 0.602870352 0.85
v 0.130273348 1.195519979 0.85
v 0.685350298 0.602870352 0.866
v 0.130273348 1.195519979 0.866
v 0.705377983 0.621022388 0.85
v 0.169989181 1.231516311 0.85
v 0.705377983 0.621022388 0.866
v 0.169989181 1.231516311 0.866
v 0.725988863 0.638509417 0.85
v 0.210861517 1.266193905 0.85
v 0.725988863 0.638509417 0.866
v 0.210861517 1.266193905 0.866
v 0.747160868 0.655312715 0.85
v 0.252846588 1.299515627 0.85
v 0.747160868 0.655312715 0.866
v 0.252846588 1.299515627 0.866
v 0.768871325 0.671414288 0.85
v 0.295899436 1.331445796 0.85
v 0.768871325 0.671414288 0.866
v 0.295899436 1.331445796 0.866
v 0.791096987 0.686796893 0.85
v 0.339973958 1.361950218 0.85
v 0.791096987 0.686796893 0.866
v 0.339973958 1.361950218 0.866
v 0.813814054 0.701444059 0.85
v 0.38502296 1.39099623 0.85
v 0.813814054 0.701444059 0.866
v 0.38502296 1.39099623 0.866
v 0.8369982 0.715340101 0.85
v 0.4309982 1.418552729 0.85
v 0.8369982 0.715340101 0.866
v 0.4309982 1.418552729 0.866
v 0.860624598 0.728470139 0.85
v 0.477850448 1.444590206 0.85
v 0.860624598 0.728470139 0.866
v 0.477850448 1.444590206 0.866
v 0.88466795 0.740820113 0.85
v 0.525529533 1.469080779 0.85
v 0.88466795 0.740820113 0.866
v 0.525529533 1.469080779 0.866
v 0.909102508 0.752376798 0.85
v 0.573984399 1.491998224 0.85
v 0.909102508 0.752376798 0.866
v 0.573984399 1.491998224 0.866
v 0.933902107 0.76312782 0.85
v 0.62316316 1.513318 0.85
v 0.933902107 0.76312782 0.866
v 0.62316316 1.513318 0.866
v 0.959040192 0.773061665 0.85
v 0.673013153 1.533017277 0.85
v 0.959040192 0.773061665 0.866
v 0.673013153 1.533017277 0.866
v 0.984489844 0.782167696 0.85
v 0.723480999 1.551074961 0.85
v 0.984489844 0.782167696 0.866
v 0.723480999 1.551074961 0.866
v 1.010223812 0.790436162 0.85
v 0.774512654 1.567471715 0.85
v 1.010223812 0.790436162 0.866
v 0.774512654 1.567471715 0.866
v 1.036214537 0.79785821 0.85
v 0.826053472 1.582189981 0.85
v 1.036214537 0.79785821 0.866
v 0.826053472 1.582189981 0.866
v 1.062434189 0.804425891 0.85
v 0.878048264 1.595213998 0.85
v 1.062434189 0.804425891 0.866
v 0.878048264 1.595213998 0.866
v 1.088854692 0.810132172 0.85
v 0.93044135 1.60652982 0.85
v 1.088854692 0.810132172 0.866
v 0.93044135 1.60652982 0.866
v 1.115447753 0.814970944 0.85
v 0.983176628 1.61612533 0.85
v 1.115447753 0.814970944 0.866
v 0.983176628 1.61612533 0.866
v 1.142184895 0.818937025 0.85
v 1.036197627 1.623990252 0.85
v 1.142184895 0.818937025 0.866
v 1.036197627 1.623990252 0.866
v 1.169037489 0.822026167 0.85
v 1.089447571 1.630116165 0.85
v 1.169037489 0.822026167 0.866
v 1.089447571 1.630116165 0.866
v 1.19597678 0.824235063 0.85
v 1.142869439 1.634496509 0.85
v 1.19597678 0.824235063 0.866
v 1.142869439 1.634496509 0.866
v 1.22297392 0.825561347 0.85
v 1.196406025 1.637126592 0.85
v 1.22297392 0.825561347 0.866
v 1.196406025 1.637126592 0.866
v 1.25 0.8260036 0.85
v 1.25 1.6380036 0.85
v 1.25 0.8260036 0.866
v 1.25 1.6380036 0.866
f 3 8 4
f 3 7 8
f 1 6 5
f 1 2 6
f 1 7 3
f 1 5 7
f 2 8 6
f 2 4 8
f 7 12 8
f 7 11 12
f 5 10 9
f 5 6 10
f 5 11 7
f 5 9 11
f 6 12 10
f 6 8 12
f 11 16 12
f 11 15 16
f 9 14 13
f 9 10 14
f 9 15 11
f 9 13 15
f 10 16 14
f 10 12 16
f 15 20 16
f 15 19 20
f 13 18 17
f 13 14 18
f 13 19 15
f 13 17 19
f 14 20 18
f 14 16 20
f 19 24 20
f 19 23 24
f 17 22 21
f 17 18 22
f 17 23 19
f 17 21 23
f 18 24 22
f 18 20 24
f 23 28 24
f 23 27 28
f 21 26 25
f 21 22 26
f 21 27 23
f 21 25 27
f 22 28 26
f 22 24 28
f 27 32 28
f 27 31 32
f 25 30 29
f 25 26 30
f 25 31 27
f 25 29 31
f 26 32 30
f 26 28 32
f 31 36 32
f 31 35 36
f 29 34 33
f 29 30 34
f 29 35 31
f 29 33 35
f 30 36 34
f 30 32 36
f 35 40 36
f 35 39 40
f 33 38 37
f 33 34 38
f 33 39 35
f 33 37 39
f 34 40 38
f 34 36 40
f 39 44 40
f 39 43 44
f 37 42 41
f 37 38 42
f 37 43 39
f 37 41 43
f 38 44 42
f 38 40 44
f 43 48 44
f 43 47 48
f 41 46 45
f 41 42 46
f 41 47 43
f 41 45 47
f 42 48 46
f 42 44 48
f 47 52 48
f 47 51 52
f 45 50 49
f 45 46 50
f 45 51 47
f 45 49 51
f 46 52 50
f 46 48 52
f 51 56 52
f 51 55 56
f 49 54 53
f 49 50 54
f 49 55 51
f 49 53 55
f 50 56 54
f 50 52 56
f 55 60 56
f 55 59 60
f 53 58 57
f 53 54 58
f 53 59 55
f 53 57 59
f 54 60 58
f 54 56 60
f 59 64 60
f 59 63 64
f 57 62 61
f 57 58 62
f 57 63 59
f 57 61 63
f 58 64 62
f 58 60 64
f 63 68 64
f 63 67 68
f 61 66 65
f 61 62 66
f 61 67 63
f 61 65 67
f 62 68 66
f 62 64 68
f 67 72 68
f 67 71 72
f 65 70 69
f 65 66 70
f 65 71 67
f 65 69 71
f 66 72 70
f 66 68 72
f 71 76 72
f 71 75 76
f 69 74 73
f 69 70 74
f 69 75 71
f 69 73 75
f 70 76 74
f 70 72 76
f 75 80 76
f 75 79 80
f 73 78 77
f 73 74 78
f 73 79 75
f 73 77 79
f 74 80 78
f 74 76 80
f 79 84 80
f 79 83 84
f 77 82 81
f 77 78 82
f 77 83 79
f 77 81 83
f 78 84 82
f 78 80 84
f 83 88 84
f 83 87 88
f 81 86 85
f 81 82 86
f 81 87 83
f 81 85 87
f 82 88 86
f 82 84 88
f 87 92 88
f 87 91 92
f 85 90 89
f 85 86 90
f 85 91 87
f 85 89 91
f 86 92 90
f 86 88 92
f 91 96 92
f 91 95 96
f 89 94 93
f 89 90 94
f 89 95 91
f 89 93 95
f 90 96 94
f 90 92 96
f 95 100 96
f 95 99 100
f 93 98 97
f 93 94 98
f 93 99 95
f 93 97 99
f 94 100 98
f 94 96 100
f 99 104 100
f 99 103 104
f 97 102 101
f 97 98 102
f 97 103 99
f 97 101 103
f 98 104 102
f 98 100 104
f 103 108 104
f 103 107 108
f 101 106 105
f 101 102 106
f 101 107 103
f 101 105 107
f 102 108 106
f 102 104 108
f 107 112 108
f 107 111 112
f 105 110 109
f 105 106 110
f 105 111 107
f 105 109 111
f 106 112 110
f 106 108 112
f 111 116 112
f 111 115 116
f 109 114 113
f 109 110 114
f 109 115 111
f 109 113 115
f 110 116 114
f 110 112 116
f 115 120 116
f 115 119 120
f 113 118 117
f 113 114 118
f 113 119 115
f 113 117 119
f 114 120 118
f 114 116 120
f 119 124 120
f 119 123 124
f 117 122 121
f 117 118 122
f 117 123 119
f 117 121 123
f 118 124 122
f 118 120 124
f 123 128 124
f 123 127 128
f 121 126 125
f 121 122 126
f 121 127 123
f 121 125 127
f 122 128 126
f 122 124 128
f 127 132 128
f 127 131 132
f 125 130 129
f 125 126 130
f 125 131 127
f 125 129 131
f 126 132 130
f 126 128 132
f 131 136 132
f 131 135 136
f 129 134 133
f 129 130 134
f 129 135 131
f 129 133 135
f 130 136 134
f 130 132 136
f 135 140 136
f 135 139 140
f 133 138 137
f 133 134 138
f 133 139 135
f 133 137 139
f 134 140 138
f 134 136 140
f 139 144 140
f 139 143 144
f 137 142 141
f 137 138 142
f 137 143 139
f 137 141 143
f 138 144 142
f 138 140 144
f 143 148 144
f 143 147 148
f 141 146 145
f 141 142 146
f 141 147 143
f 141 145 147
f 142 148 146
f 142 144 148
f 147 152 148
f 147 151 152
f 145 150 149
f 145 146 150
f 145 151 147
f 145 149 151
f 146 152 150
f 146 148 152
f 151 156 152
f 151 155 156
f 149 154 153
f 149 150 154
f 149 155 151
f 149 153 155
f 150 156 154
f 150 152 156
f 155 160 156
f 155 159 160
f 153 158 157
f 153 154 158
f 153 159 155
f 153 157 159
f 154 160 158
f 154 156 160
f 159 164 160
f 159 163 164
f 157 162 161
f 157 158 162
f 157 163 159
f 157 161 163
f 158 164 162
f 158 160 164
f 163 168 164
f 163 167 168
f 161 166 165
f 161 162 166
f 161 167 163
f 161 165 167
f 162 168 166
f 162 164 168
f 167 172 168
f 167 171 172
f 165 170 169
f 165 166 170
f 165 171 167
f 165 169 171
f 166 172 170
f 166 168 172
f 171 176 172
f 171 175 176
f 169 174 173
f 169 170 174
f 169 175 171
f 169 173 175
f 170 176 174
f 170 172 176
f 175 180 176
f 175 179 180
f 173 178 177
f 173 174 178
f 173 179 175
f 173 177 179
f 174 180 178
f 174 176 180
f 179 184 180
f 179 183 184
f 177 182 181
f 177 178 182
f 177 183 179
f 177 181 183
f 178 184 182
f 178 180 184
f 183 188 184
f 183 187 188
f 181 186 185
f 181 182 186
f 181 187 183
f 181 185 187
f 182 188 186
f 182 184 188
f 187 192 188
f 187 191 192
f 185 190 189
f 185 186 190
f 185 191 187
f 185 189 191
f 186 192 190
f 186 188 192
f 191 196 192
f 191 195 196
f 189 194 193
f 189 190 194
f 189 195 191
f 189 193 195
f 190 196 194
f 190 192 196
f 1 4 2
f 1 3 4
f 193 196 195
f 193 194 196
