o conveyor_curve_left-45_inner_rail
v -0.5720036 0 0.7
v -0.4020036 0 0.7
v -0.5720036 0 0.94
v -0.4020036 0 0.94
v -0.572820276 0.033267707 0.7
v -0.403025049 0.041609211 0.7
v -0.572820276 0.033267707 0.94
v -0.403025049 0.041609211 0.94
v -0.575268338 0.066455268 0.7
v -0.406086934 0.083118182 0.7
v -0.575268338 0.066455268 0.94
v -0.406086934 0.083118182 0.94
v -0.579341887 0.099482733 0.7
v -0.411181881 0.124426914 0.7
v -0.579341887 0.099482733 0.94
v -0.411181881 0.124426914 0.94
v -0.585031111 0.132270536 0.7
v -0.418297613 0.165435891 0.7
v -0.585031111 0.132270536 0.94
v -0.418297613 0.165435891 0.94
v -0.592322302 0.164739687 0.7
v -0.427416989 0.206046318 0.7
v -0.592322302 0.164739687 0.94
v -0.427416989 0.206046318 0.94
v -0.601197897 0.196811966 0.7
v -0.43851804 0.246160361 0.7
v -0.601197897 0.196811966 0.94
v -0.43851804 0.246160361 0.94
v -0.611636513 0.228410108 0.7
v -0.451574022 0.285681383 0.7
v -0.611636513 0.228410108 0.94
v -0.451574022 0.285681383 0.94
v -0.623613003 0.259457989 0.7
v -0.466553482 0.324514173 0.7
v -0.623613003 0.259457989 0.94
v -0.466553482 0.324514173 0.94
v -0.637098514 0.289880814 0.7
v -0.483420334 0.36256518 0.7
v -0.637098514 0.289880814 0.94
v -0.483420334 0.36256518 0.94
v -0.652060558 0.319605291 0.7
v -0.502133943 0.399742736 0.7
v -0.652060558 0.319605291 0.94
v -0.502133943 0.399742736 0.94
v -0.66846309 0.34855981 0.7
v -0.522649227 0.435957276 0.7
v -0.66846309 0.34855981 0.94
v -0.522649227 0.435957276 0.94
v -0.686266596 0.376674618 0.7
v -0.544916762 0.471121558 0.7
v -0.686266596 0.376674618 0.94
v -0.544916762 0.471121558 0.94
v -0.705428185 0.403881984 0.7
v -0.568882905 0.505150866 0.7
v -0.705428185 0.403881984 0.94
v -0.568882905 0.505150866 0.94
v -0.725901695 0.430116363 0.7
v -0.594489918 0.537963221 0.7
v -0.725901695 0.430116363 0.94
v -0.594489918 0.537963221 0.94
v -0.747637804 0.455314554 0.7
v -0.621676113 0.569479576 0.7
v -0.747637804 0.455314554 0.94
v -0.621676113 0.569479576 0.94
v -0.770584148 0.479415852 0.7
v -0.650375995 0.599624005 0.7
v -0.770584148 0.479415852 0.94
v -0.650375995 0.599624005 0.94
f 3 4 8
f 3 8 7
f 1 5 6
f 1 6 2
f 1 3 7
f 1 7 5
f 2 6 8
f 2 8 4
f 7 8 12
f 7 12 11
f 5 9 10
f 5 10 6
f 5 7 11
f 5 11 9
f 6 10 12
f 6 12 8
f 11 12 16
f 11 16 15
f 9 13 14
f 9 14 10
f 9 11 15
f 9 15 13
f 10 14 16
f 10 16 12
f 15 16 20
f 15 20 19
f 13 17 18
f 13 18 14
f 13 15 19
f 13 19 17
f 14 18 20
f 14 20 16
f 19 20 24
f 19 24 23
f 17 21 22
f 17 22 18
f 17 19 23
f 17 23 21
f 18 22 24
f 18 24 20
f 23 24 28
f 23 28 27
f 21 25 26
f 21 26 22
f 21 23 27
f 21 27 25
f 22 26 28
f 22 28 24
f 27 28 32
f 27 32 31
f 25 29 30
f 25 30 26
f 25 27 31
f 25 31 29
f 26 30 32
f 26 32 28
f 31 32 36
f 31 36 35
f 29 33 34
f 29 34 30
f 29 31 35
f 29 35 33
f 30 34 36
f 30 36 32
f 35 36 40
f 35 40 39
f 33 37 38
f 33 38 34
f 33 35 39
f 33 39 37
f 34 38 40
f 34 40 36
f 39 40 44
f 39 44 43
f 37 41 42
f 37 42 38
f 37 39 43
f 37 43 41
f 38 42 44
f 38 44 40
f 43 44 48
f 43 48 47
f 41 45 46
f 41 46 42
f 41 43 47
f 41 47 45
f 42 46 48
f 42 48 44
f 47 48 52
f 47 52 51
f 45 49 50
f 45 50 46
f 45 47 51
f 45 51 49
f 46 50 52
f 46 52 48
f 51 52 56
f 51 56 55
f 49 53 54
f 49 54 50
f 49 51 55
f 49 55 53
f 50 54 56
f 50 56 52
f 55 56 60
f 55 60 59
f 53 57 58
f 53 58 54
f 53 55 59
f 53 59 57
f 54 58 60
f 54 60 56
f 59 60 64
f 59 64 63
f 57 61 62
f 57 62 58
f 57 59 63
f 57 63 61
f 58 62 64
f 58 64 60
f 63 64 68
f 63 68 67
f 61 65 66
f 61 66 62
f 61 63 67
f 61 67 65
f 62 66 68
f 62 68 64
f 1 2 4
f 1 4 3
f 65 67 68
f 65 68 66
