o conveyor_curve_left_inner_rail
v -0.5720036 0 0.7
v -0.4020036 0 0.7
v -0.5720036 0 0.94
v -0.4020036 0 0.94
v -0.572366608 0.02218342 0.7
v -0.402457628 0.027745664 0.7
v -0.572366608 0.02218342 0.94
v -0.402457628 0.027745664 0.94
v -0.573455242 0.044343086 0.7
v -0.403819225 0.055461618 0.7
v -0.573455242 0.044343086 0.94
v -0.403819225 0.055461618 0.94
v -0.575268338 0.066455268 0.7
v -0.406086934 0.083118182 0.7
v -0.575268338 0.066455268 0.94
v -0.406086934 0.083118182 0.94
v -0.577803953 0.088496288 0.7
v -0.409258327 0.110685741 0.7
v -0.577803953 0.088496288 0.94
v -0.409258327 0.110685741 0.94
v -0.581059373 0.110442545 0.7
v -0.413330006 0.138134775 0.7
v -0.581059373 0.110442545 0.94
v -0.413330006 0.138134775 0.94
v -0.585031111 0.132270536 0.7
v -0.418297613 0.165435891 0.7
v -0.585031111 0.132270536 0.94
v -0.418297613 0.165435891 0.94
v -0.589714914 0.153956889 0.7
v -0.424155828 0.192559854 0.7
v -0.589714914 0.153956889 0.94
v -0.424155828 0.192559854 0.94
v -0.595105767 0.175478381 0.7
v -0.430898377 0.219477618 0.7
v -0.595105767 0.175478381 0.94
v -0.430898377 0.219477618 0.94
v -0.601197897 0.196811966 0.7
v -0.43851804 0.246160361 0.7
v -0.601197897 0.196811966 0.94
v -0.43851804 0.246160361 0.94
v -0.607984781 0.2179348 0.7
v -0.447006659 0.272579509 0.7
v -0.607984781 0.2179348 0.94
v -0.447006659 0.272579509 0.94
v -0.615459151 0.238824264 0.7
v -0.456355143 0.298706773 0.7
v -0.615459151 0.238824264 0.94
v -0.456355143 0.298706773 0.94
v -0.623613003 0.259457989 0.7
v -0.466553482 0.324514173 0.7
v -0.623613003 0.259457989 0.94
v -0.466553482 0.324514173 0.94
v -0.632437606 0.27981388 0.7
v -0.477590756 0.349974076 0.7
v -0.632437606 0.27981388 0.94
v -0.477590756 0.349974076 0.94
v -0.64192351 0.29987014 0.7
v -0.489455144 0.375059217 0.7
v -0.64192351 0.29987014 0.94
v -0.489455144 0.375059217 0.94
v -0.652060558 0.319605291 0.7
v -0.502133943 0.399742736 0.7
v -0.652060558 0.319605291 0.94
v -0.502133943 0.399742736 0.94
v -0.662837894 0.3389982 0.7
v -0.515613575 0.4239982 0.7
v -0.662837894 0.3389982 0.94
v -0.515613575 0.4239982 0.94
v -0.674243978 0.358028102 0.7
v -0.529879607 0.447799636 0.7
v -0.674243978 0.358028102 0.94
v -0.529879607 0.447799636 0.94
v -0.686266596 0.376674618 0.7
v -0.544916762 0.471121558 0.7
v -0.686266596 0.376674618 0.94
v -0.544916762 0.471121558 0.94
v -0.698892874 0.394917782 0.7
v -0.560708938 0.49393899 0.7
v -0.698892874 0.394917782 0.94
v -0.560708938 0.49393899 0.94
v -0.712109291 0.412738057 0.7
v -0.577239224 0.5162275 0.7
v -0.712109291 0.412738057 0.94
v -0.577239224 0.5162275 0.94
v -0.725901695 0.430116363 0.7
v -0.594489918 0.537963221 0.7
v -0.725901695 0.430116363 0.94
v -0.594489918 0.537963221 0.94
v -0.740255317 0.447034089 0.7
v -0.61244255 0.559122878 0.7
v -0.740255317 0.447034089 0.94
v -0.61244255 0.559122878 0.94
v -0.755154786 0.46347312 0.7
v -0.631077894 0.579683811 0.7
v -0.755154786 0.46347312 0.94
v -0.631077894 0.579683811 0.94
v -0.770584148 0.479415852 0.7
v -0.650375995 0.599624005 0.7
v -0.770584148 0.479415852 0.94
v -0.650375995 0.599624005 0.94
v -0.78652688 0.494845214 0.7
v -0.670316189 0.618922106 0.7
v -0.78652688 0.494845214 0.94
v -0.670316189 0.618922106 0.94
v -0.802965911 0.509744683 0.7
v -0.690877122 0.63755745 0.7
v -0.802965911 0.509744683 0.94
v -0.690877122 0.63755745 0.94
v -0.819883637 0.524098305 0.7
v -0.712036779 0.655510082 0.7
v -0.819883637 0.524098305 0.94
v -0.712036779 0.655510082 0.94
v -0.837261943 0.537890709 0.7
v -0.7337725 0.672760776 0.7
v -0.837261943 0.537890709 0.94
v -0.7337725 0.672760776 0.94
v -0.855082218 0.551107126 0.7
v -0.75606101 0.689291062 0.7
v -0.855082218 0.551107126 0.94
v -0.75606101 0.689291062 0.94
v -0.873325382 0.563733404 0.7
v -0.778878442 0.705083238 0.7
v -0.873325382 0.563733404 0.94
v -0.778878442 0.705083238 0.94
v -0.891971898 0.575756022 0.7
v -0.802200364 0.720120393 0.7
v -0.891971898 0.575756022 0.94
v -0.802200364 0.720120393 0.94
v -0.9110018 0.587162106 0.7
v -0.8260018 0.734386425 0.7
v -0.9110018 0.587162106 0.94
v -0.8260018 0.734386425 0.94
v -0.930394709 0.597939442 0.7
v -0.850257264 0.747866057 0.7
v -0.930394709 0.597939442 0.94
v -0.850257264 0.747866057 0.94
v -0.95012986 0.60807649 0.7
v -0.874940783 0.760544856 0.7
v -0.95012986 0.60807649 0.94
v -0.874940783 0.760544856 0.94
v -0.97018612 0.617562394 0.7
v -0.900025924 0.772409244 0.7
v -0.97018612 0.617562394 0.94
v -0.900025924 0.772409244 0.94
v -0.990542011 0.626386997 0.7
v -0.925485827 0.783446518 0.7
v -0.990542011 0.626386997 0.94
v -0.925485827 0.783446518 0.94
v -1.011175736 0.634540849 0.7
v -0.951293227 0.793644857 0.7
v -1.011175736 0.634540849 0.94
v -0.951293227 0.793644857 0.94
v -1.0320652 0.642015219 0.7
v -0.977420491 0.802993341 0.7
v -1.0320652 0.642015219 0.94
v -0.977420491 0.802993341 0.94
v -1.053188034 0.648802103 0.7
v -1.003839639 0.81148196 0.7
v -1.053188034 0.648802103 0.94
v -1.003839639 0.81148196 0.94
v -1.074521619 0.654894233 0.7
v -1.030522382 0.819101623 0.7
v -1.074521619 0.654894233 0.94
v -1.030522382 0.819101623 0.94
v -1.096043111 0.660285086 0.7
v -1.057440146 0.825844172 0.7
v -1.096043111 0.660285086 0.94
v -1.057440146 0.825844172 0.94
v -1.117729464 0.664968889 0.7
v -1.084564109 0.831702387 0.7
v -1.117729464 0.664968889 0.94
v -1.084564109 0.831702387 0.94
v -1.139557455 0.668940627 0.7
v -1.111865225 0.836669994 0.7
v -1.139557455 0.668940627 0.94
v -1.111865225 0.836669994 0.94
v -1.161503712 0.672196047 0.7
v -1.139314259 0.840741673 0.7
v -1.161503712 0.672196047 0.94
v -1.139314259 0.840741673 0.94
v -1.183544732 0.674731662 0.7
v -1.166881818 0.843913066 0.7
v -1.183544732 0.674731662 0.94
v -1.166881818 0.843913066 0.94
v -1.205656914 0.676544758 0.7
v -1.194538382 0.846180775 0.7
v -1.205656914 0.676544758 0.94
v -1.194538382 0.846180775 0.94
v -1.22781658 0.677633392 0.7
v -1.222254336 0.847542372 0.7
v -1.22781658 0.677633392 0.94
v -1.222254336 0.847542372 0.94
v -1.25 0.6779964 0.7
v -1.25 0.8479964 0.7
v -1.25 0.6779964 0.94
v -1.25 0.8479964 0.94
f 3 4 8
f 3 8 7
f 1 5 6
f 1 6 2
f 1 3 7
f 1 7 5
f 2 6 8
f 2 8 4
f 7 8 12
f 7 12 11
f 5 9 10
f 5 10 6
f 5 7 11
f 5 11 9
f 6 10 12
f 6 12 8
f 11 12 16
f 11 16 15
f 9 13 14
f 9 14 10
f 9 11 15
f 9 15 13
f 10 14 16
f 10 16 12
f 15 16 20
f 15 20 19
f 13 17 18
f 13 18 14
f 13 15 19
f 13 19 17
f 14 18 20
f 14 20 16
f 19 20 24
f 19 24 23
f 17 21 22
f 17 22 18
f 17 19 23
f 17 23 21
f 18 22 24
f 18 24 20
f 23 24 28
f 23 28 27
f 21 25 26
f 21 26 22
f 21 23 27
f 21 27 25
f 22 26 28
f 22 28 24
f 27 28 32
f 27 32 31
f 25 29 30
f 25 30 26
f 25 27 31
f 25 31 29
f 26 30 32
f 26 32 28
f 31 32 36
f 31 36 35
f 29 33 34
f 29 34 30
f 29 31 35
f 29 35 33
f 30 34 36
f 30 36 32
f 35 36 40
f 35 40 39
f 33 37 38
f 33 38 34
f 33 35 39
f 33 39 37
f 34 38 40
f 34 40 36
f 39 40 44
f 39 44 43
f 37 41 42
f 37 42 38
f 37 39 43
f 37 43 41
f 38 42 44
f 38 44 40
f 43 44 48
f 43 48 47
f 41 45 46
f 41 46 42
f 41 43 47
f 41 47 45
f 42 46 48
f 42 48 44
f 47 48 52
f 47 52 51
f 45 49 50
f 45 50 46
f 45 47 51
f 45 51 49
f 46 50 52
f 46 52 48
f 51 52 56
f 51 56 55
f 49 53 54
f 49 54 50
f 49 51 55
f 49 55 53
f 50 54 56
f 50 56 52
f 55 56 60
f 55 60 59
f 53 57 58
f 53 58 54
f 53 55 59
f 53 59 57
f 54 58 60
f 54 60 56
f 59 60 64
f 59 64 63
f 57 61 62
f 57 62 58
f 57 59 63
f 57 63 61
f 58 62 64
f 58 64 60
f 63 64 68
f 63 68 67
f 61 65 66
f 61 66 62
f 61 63 67
f 61 67 65
f 62 66 68
f 62 68 64
f 67 68 72
f 67 72 71
f 65 69 70
f 65 70 66
f 65 67 71
f 65 71 69
f 66 70 72
f 66 72 68
f 71 72 76
f 71 76 75
f 69 73 74
f 69 74 70
f 69 71 75
f 69 75 73
f 70 74 76
f 70 76 72
f 75 76 80
f 75 80 79
f 73 77 78
f 73 78 74
f 73 75 79
f 73 79 77
f 74 78 80
f 74 80 76
f 79 80 84
f 79 84 83
f 77 81 82
f 77 82 78
f 77 79 83
f 77 83 81
f 78 82 84
f 78 84 80
f 83 84 88
f 83 88 87
f 81 85 86
f 81 86 82
f 81 83 87
f 81 87 85
f 82 86 88
f 82 88 84
f 87 88 92
f 87 92 91
f 85 89 90
f 85 90 86
f 85 87 91
f 85 91 89
f 86 90 92
f 86 92 88
f 91 92 96
f 91 96 95
f 89 93 94
f 89 94 90
f 89 91 95
f 89 95 93
f 90 94 96
f 90 96 92
f 95 96 100
f 95 100 99
f 93 97 98
f 93 98 94
f 93 95 99
f 93 99 97
f 94 98 100
f 94 100 96
f 99 100 104
f 99 104 103
f 97 101 102
f 97 102 98
f 97 99 103
f 97 103 101
f 98 102 104
f 98 104 100
f 103 104 108
f 103 108 107
f 101 105 106
f 101 106 102
f 101 103 107
f 101 107 105
f 102 106 108
f 102 108 104
f 107 108 112
f 107 112 111
f 105 109 110
f 105 110 106
f 105 107 111
f 105 111 109
f 106 110 112
f 106 112 108
f 111 112 116
f 111 116 115
f 109 113 114
f 109 114 110
f 109 111 115
f 109 115 113
f 110 114 116
f 110 116 112
f 115 116 120
f 115 120 119
f 113 117 118
f 113 118 114
f 113 115 119
f 113 119 117
f 114 118 120
f 114 120 116
f 119 120 124
f 119 124 123
f 117 121 122
f 117 122 118
f 117 119 123
f 117 123 121
f 118 122 124
f 118 124 120
f 123 124 128
f 123 128 127
f 121 125 126
f 121 126 122
f 121 123 127
f 121 127 125
f 122 126 128
f 122 128 124
f 127 128 132
f 127 132 131
f 125 129 130
f 125 130 126
f 125 127 131
f 125 131 129
f 126 130 132
f 126 132 128
f 131 132 136
f 131 136 135
f 129 133 134
f 129 134 130
f 129 131 135
f 129 135 133
f 130 134 136
f 130 136 132
f 135 136 140
f 135 140 139
f 133 137 138
f 133 138 134
f 133 135 139
f 133 139 137
f 134 138 140
f 134 140 136
f 139 140 144
f 139 144 143
f 137 141 142
f 137 142 138
f 137 139 143
f 137 143 141
f 138 142 144
f 138 144 140
f 143 144 148
f 143 148 147
f 141 145 146
f 141 146 142
f 141 143 147
f 141 147 145
f 142 146 148
f 142 148 144
f 147 148 152
f 147 152 151
f 145 149 150
f 145 150 146
f 145 147 151
f 145 151 149
f 146 150 152
f 146 152 148
f 151 152 156
f 151 156 155
f 149 153 154
f 149 154 150
f 149 151 155
f 149 155 153
f 150 154 156
f 150 156 152
f 155 156 160
f 155 160 159
f 153 157 158
f 153 158 154
f 153 155 159
f 153 159 157
f 154 158 160
f 154 160 156
f 159 160 164
f 159 164 163
f 157 161 162
f 157 162 158
f 157 159 163
f 157 163 161
f 158 162 164
f 158 164 160
f 163 164 168
f 163 168 167
f 161 165 166
f 161 166 162
f 161 163 167
f 161 167 165
f 162 166 168
f 162 168 164
f 167 168 172
f 167 172 171
f 165 169 170
f 165 170 166
f 165 167 171
f 165 171 169
f 166 170 172
f 166 172 168
f 171 172 176
f 171 176 175
f 169 173 174
f 169 174 170
f 169 171 175
f 169 175 173
f 170 174 176
f 170 176 172
f 175 176 180
f 175 180 179
f 173 177 178
f 173 178 174
f 173 175 179
f 173 179 177
f 174 178 180
f 174 180 176
f 179 180 184
f 179 184 183
f 177 181 182
f 177 182 178
f 177 179 183
f 177 183 181
f 178 182 184
f 178 184 180
f 183 184 188
f 183 188 187
f 181 185 186
f 181 186 182
f 181 183 187
f 181 187 185
f 182 186 188
f 182 188 184
f 187 188 192
f 187 192 191
f 185 189 190
f 185 190 186
f 185 187 191
f 185 191 189
f 186 190 192
f 186 192 188
f 191 192 196
f 191 196 195
f 189 193 194
f 189 194 190
f 189 191 195
f 189 195 193
f 190 194 196
f 190 196 192
f 1 2 4
f 1 4 3
f 193 195 196
f 193 196 194
