o conveyor_curve_right_outer_rail
v -0.4020036 0 0.7
v -0.5720036 0 0.7
v -0.4020036 0 0.94
v -0.5720036 0 0.94
v -0.400013689 0.081059975 0.7
v -0.569808917 0.089401479 0.7
v -0.400013689 0.081059975 0.94
v -0.569808917 0.089401479 0.94
v -0.394048751 0.161924669 0.7
v -0.563230155 0.178587583 0.7
v -0.394048751 0.161924669 0.94
v -0.563230155 0.178587583 0.94
v -0.384123155 0.242399272 0.7
v -0.552283162 0.267343453 0.7
v -0.384123155 0.242399272 0.94
v -0.552283162 0.267343453 0.94
v -0.370260814 0.322289914 0.7
v -0.536994312 0.355455269 0.7
v -0.370260814 0.322289914 0.94
v -0.536994312 0.355455269 0.94
v -0.352495122 0.401404132 0.7
v -0.517400435 0.442710763 0.7
v -0.352495122 0.401404132 0.94
v -0.517400435 0.442710763 0.94
v -0.33086888 0.479551332 0.7
v -0.493548737 0.528899727 0.7
v -0.33086888 0.479551332 0.94
v -0.493548737 0.528899727 0.94
v -0.305434185 0.556543251 0.7
v -0.465496676 0.613814526 0.7
v -0.305434185 0.556543251 0.94
v -0.465496676 0.613814526 0.94
v -0.276252314 0.632194408 0.7
v -0.433311834 0.697250591 0.7
v -0.276252314 0.632194408 0.94
v -0.433311834 0.697250591 0.94
v -0.243393567 0.706322554 0.7
v -0.397071746 0.779006919 0.7
v -0.243393567 0.706322554 0.94
v -0.397071746 0.779006919 0.94
v -0.206937104 0.778749106 0.7
v -0.356863719 0.858886552 0.7
v -0.206937104 0.778749106 0.94
v -0.356863719 0.858886552 0.94
v -0.166970752 0.849299584 0.7
v -0.312784615 0.936697051 0.7
v -0.166970752 0.849299584 0.94
v -0.312784615 0.936697051 0.94
v -0.123590793 0.917804025 0.7
v -0.264940627 1.012250965 0.7
v -0.123590793 0.917804025 0.94
v -0.264940627 1.012250965 0.94
v -0.076901734 0.984097396 0.7
v -0.213447014 1.085366277 0.7
v -0.076901734 0.984097396 0.94
v -0.213447014 1.085366277 0.94
v -0.027016052 1.048019989 0.7
v -0.158427829 1.155866848 0.7
v -0.027016052 1.048019989 0.94
v -0.158427829 1.155866848 0.94
v 0.025946073 1.109417811 0.7
v -0.100015618 1.223582833 0.7
v 0.025946073 1.109417811 0.94
v -0.100015618 1.223582833 0.94
v 0.081857052 1.168142948 0.7
v -0.038351101 1.288351101 0.7
v 0.081857052 1.168142948 0.94
v -0.038351101 1.288351101 0.94
v 0.140582189 1.224053927 0.7
v 0.026417167 1.350015618 0.7
v 0.140582189 1.224053927 0.94
v 0.026417167 1.350015618 0.94
v 0.201980011 1.277016052 0.7
v 0.094133152 1.408427829 0.7
v 0.201980011 1.277016052 0.94
v 0.094133152 1.408427829 0.94
v 0.265902604 1.326901734 0.7
v 0.164633723 1.463447014 0.7
v 0.265902604 1.326901734 0.94
v 0.164633723 1.463447014 0.94
v 0.332195975 1.373590793 0.7
v 0.237749035 1.514940627 0.7
v 0.332195975 1.373590793 0.94
v 0.237749035 1.514940627 0.94
v 0.400700416 1.416970752 0.7
v 0.313302949 1.562784615 0.7
v 0.400700416 1.416970752 0.94
v 0.313302949 1.562784615 0.94
v 0.471250894 1.456937104 0.7
v 0.391113448 1.606863719 0.7
v 0.471250894 1.456937104 0.94
v 0.391113448 1.606863719 0.94
v 0.543677446 1.493393567 0.7
v 0.470993081 1.647071746 0.7
v 0.543677446 1.493393567 0.94
v 0.470993081 1.647071746 0.94
v 0.617805592 1.526252314 0.7
v 0.552749409 1.683311834 0.7
v 0.617805592 1.526252314 0.94
v 0.552749409 1.683311834 0.94
v 0.693456749 1.555434185 0.7
v 0.636185474 1.715496676 0.7
v 0.693456749 1.555434185 0.94
v 0.636185474 1.715496676 0.94
v 0.770448668 1.58086888 0.7
v 0.721100273 1.743548737 0.7
v 0.770448668 1.58086888 0.94
v 0.721100273 1.743548737 0.94
v 0.848595868 1.602495122 0.7
v 0.807289237 1.767400435 0.7
v 0.848595868 1.602495122 0.94
v 0.807289237 1.767400435 0.94
v 0.927710086 1.620260814 0.7
v 0.894544731 1.786994312 0.7
v 0.927710086 1.620260814 0.94
v 0.894544731 1.786994312 0.94
v 1.007600728 1.634123155 0.7
v 0.982656547 1.802283162 0.7
v 1.007600728 1.634123155 0.94
v 0.982656547 1.802283162 0.94
v 1.088075331 1.644048751 0.7
v 1.071412417 1.813230155 0.7
v 1.088075331 1.644048751 0.94
v 1.071412417 1.813230155 0.94
v 1.168940025 1.650013689 0.7
v 1.160598521 1.819808917 0.7
v 1.168940025 1.650013689 0.94
v 1.160598521 1.819808917 0.94
v 1.25 1.6520036 0.7
v 1.25 1.8220036 0.7
v 1.25 1.6520036 0.94
v 1.25 1.8220036 0.94
f 3 8 4
f 3 7 8
f 1 6 5
f 1 2 6
f 1 7 3
f 1 5 7
f 2 8 6
f 2 4 8
f 7 12 8
f 7 11 12
f 5 10 9
f 5 6 10
f 5 11 7
f 5 9 11
f 6 12 10
f 6 8 12
f 11 16 12
f 11 15 16
f 9 14 13
f 9 10 14
f 9 15 11
f 9 13 15
f 10 16 14
f 10 12 16
f 15 20 16
f 15 19 20
f 13 18 17
f 13 14 18
f 13 19 15
f 13 17 19
f 14 20 18
f 14 16 20
f 19 24 20
f 19 23 24
f 17 22 21
f 17 18 22
f 17 23 19
f 17 21 23
f 18 24 22
f 18 20 24
f 23 28 24
f 23 27 28
f 21 26 25
f 21 22 26
f 21 27 23
f 21 25 27
f 22 28 26
f 22 24 28
f 27 32 28
f 27 31 32
f 25 30 29
f 25 26 30
f 25 31 27
f 25 29 31
f 26 32 30
f 26 28 32
f 31 36 32
f 31 35 36
f 29 34 33
f 29 30 34
f 29 35 31
f 29 33 35
f 30 36 34
f 30 32 36
f 35 40 36
f 35 39 40
f 33 38 37
f 33 34 38
f 33 39 35
f 33 37 39
f 34 40 38
f 34 36 40
f 39 44 40
f 39 43 44
f 37 42 41
f 37 38 42
f 37 43 39
f 37 41 43
f 38 44 42
f 38 40 44
f 43 48 44
f 43 47 48
f 41 46 45
f 41 42 46
f 41 47 43
f 41 45 47
f 42 48 46
f 42 44 48
f 47 52 48
f 47 51 52
f 45 50 49
f 45 46 50
f 45 51 47
f 45 49 51
f 46 52 50
f 46 48 52
f 51 56 52
f 51 55 56
f 49 54 53
f 49 50 54
f 49 55 51
f 49 53 55
f 50 56 54
f 50 52 56
f 55 60 56
f 55 59 60
f 53 58 57
f 53 54 58
f 53 59 55
f 53 57 59
f 54 60 58
f 54 56 60
f 59 64 60
f 59 63 64
f 57 62 61
f 57 58 62
f 57 63 59
f 57 61 63
f 58 64 62
f 58 60 64
f 63 68 64
f 63 67 68
f 61 66 65
f 61 62 66
f 61 67 63
f 61 65 67
f 62 68 66
f 62 64 68
f 67 72 68
f 67 71 72
f 65 70 69
f 65 66 70
f 65 71 67
f 65 69 71
f 66 72 70
f 66 68 72
f 71 76 72
f 71 75 76
f 69 74 73
f 69 70 74
f 69 75 71
f 69 73 75
f 70 76 74
f 70 72 76
f 75 80 76
f 75 79 80
f 73 78 77
f 73 74 78
f 73 79 75
f 73 77 79
f 74 80 78
f 74 76 80
f 79 84 80
f 79 83 84
f 77 82 81
f 77 78 82
f 77 83 79
f 77 81 83
f 78 84 82
f 78 80 84
f 83 88 84
f 83 87 88
f 81 86 85
f 81 82 86
f 81 87 83
f 81 85 87
f 82 88 86
f 82 84 88
f 87 92 88
f 87 91 92
f 85 90 89
f 85 86 90
f 85 91 87
f 85 89 91
f 86 92 90
f 86 88 92
f 91 96 92
f 91 95 96
f 89 94 93
f 89 90 94
f 89 95 91
f 89 93 95
f 90 96 94
f 90 92 96
f 95 100 96
f 95 99 100
f 93 98 97
f 93 94 98
f 93 99 95
f 93 97 99
f 94 100 98
f 94 96 100
f 99 104 100
f 99 103 104
f 97 102 101
f 97 98 102
f 97 103 99
f 97 101 103
f 98 104 102
f 98 100 104
f 103 108 104
f 103 107 108
f 101 106 105
f 101 102 106
f 101 107 103
f 101 105 107
f 102 108 106
f 102 104 108
f 107 112 108
f 107 111 112
f 105 110 109
f 105 106 110
f 105 111 107
f 105 109 111
f 106 112 110
f 106 108 112
f 111 116 112
f 111 115 116
f 109 114 113
f 109 110 114
f 109 115 111
f 109 113 115
f 110 116 114
f 110 112 116
f 115 120 116
f 115 119 120
f 113 118 117
f 113 114 118
f 113 119 115
f 113 117 119
f 114 120 118
f 114 116 120
f 119 124 120
f 119 123 124
f 117 122 121
f 117 118 122
f 117 123 119
f 117 121 123
f 118 124 122
f 118 120 124
f 123 128 124
f 123 127 128
f 121 126 125
f 121 122 126
f 121 127 123
f 121 125 127
f 122 128 126
f 122 124 128
f 127 132 128
f 127 131 132
f 125 130 129
f 125 126 130
f 125 131 127
f 125 129 131
f 126 132 130
f 126 128 132
f 1 4 2
f 1 3 4
f 129 132 131
f 129 130 132
