o conveyor_curve_right_inner_rail
v 0.6079964 0 0.7
v 0.4379964 0 0.7
v 0.6079964 0 0.94
v 0.4379964 0 0.94
v 0.608769721 0.031501624 0.7
v 0.438974494 0.039843128 0.7
v 0.608769721 0.031501624 0.94
v 0.438974494 0.039843128 0.94
v 0.611087823 0.062927357 0.7
v 0.441906419 0.079590271 0.7
v 0.611087823 0.062927357 0.94
v 0.441906419 0.079590271 0.94
v 0.61494512 0.094201493 0.7
v 0.446785113 0.119145673 0.7
v 0.61494512 0.094201493 0.94
v 0.446785113 0.119145673 0.94
v 0.620332319 0.125248689 0.7
v 0.453598821 0.158414044 0.7
v 0.620332319 0.125248689 0.94
v 0.453598821 0.158414044 0.94
v 0.627236443 0.15599415 0.7
v 0.46233113 0.197300781 0.7
v 0.627236443 0.15599415 0.94
v 0.46233113 0.197300781 0.94
v 0.635640859 0.186363808 0.7
v 0.472961002 0.235712203 0.7
v 0.635640859 0.186363808 0.94
v 0.472961002 0.235712203 0.94
v 0.645525321 0.216284499 0.7
v 0.48546283 0.273555774 0.7
v 0.645525321 0.216284499 0.94
v 0.48546283 0.273555774 0.94
v 0.656866014 0.245684141 0.7
v 0.499806494 0.310740325 0.7
v 0.656866014 0.245684141 0.94
v 0.499806494 0.310740325 0.94
v 0.669635619 0.274491909 0.7
v 0.51595744 0.347176275 0.7
v 0.669635619 0.274491909 0.94
v 0.51595744 0.347176275 0.94
v 0.683803373 0.302638402 0.7
v 0.533876758 0.382775847 0.7
v 0.683803373 0.302638402 0.94
v 0.533876758 0.382775847 0.94
v 0.699335145 0.330055813 0.7
v 0.553521281 0.417453279 0.7
v 0.699335145 0.330055813 0.94
v 0.553521281 0.417453279 0.94
v 0.716193516 0.35667809 0.7
v 0.574843682 0.451125029 0.7
v 0.716193516 0.35667809 0.94
v 0.574843682 0.451125029 0.94
v 0.734337873 0.382441098 0.7
v 0.597792593 0.48370998 0.7
v 0.734337873 0.382441098 0.94
v 0.597792593 0.48370998 0.94
v 0.753724506 0.407282772 0.7
v 0.622312729 0.515129631 0.7
v 0.753724506 0.407282772 0.94
v 0.622312729 0.515129631 0.94
v 0.77430671 0.431143267 0.7
v 0.648345019 0.545308289 0.7
v 0.77430671 0.431143267 0.94
v 0.648345019 0.545308289 0.94
v 0.796034901 0.453965099 0.7
v 0.675826748 0.574173252 0.7
v 0.796034901 0.453965099 0.94
v 0.675826748 0.574173252 0.94
v 0.818856733 0.47569329 0.7
v 0.704691711 0.601654981 0.7
v 0.818856733 0.47569329 0.94
v 0.704691711 0.601654981 0.94
v 0.842717228 0.496275494 0.7
v 0.734870369 0.627687271 0.7
v 0.842717228 0.496275494 0.94
v 0.734870369 0.627687271 0.94
v 0.867558902 0.515662127 0.7
v 0.76629002 0.652207407 0.7
v 0.867558902 0.515662127 0.94
v 0.76629002 0.652207407 0.94
v 0.89332191 0.533806484 0.7
v 0.798874971 0.675156318 0.7
v 0.89332191 0.533806484 0.94
v 0.798874971 0.675156318 0.94
v 0.919944187 0.550664855 0.7
v 0.832546721 0.696478719 0.7
v 0.919944187 0.550664855 0.94
v 0.832546721 0.696478719 0.94
v 0.947361598 0.566196627 0.7
v 0.867224153 0.716123242 0.7
v 0.947361598 0.566196627 0.94
v 0.867224153 0.716123242 0.94
v 0.975508091 0.580364381 0.7
v 0.902823725 0.73404256 0.7
v 0.975508091 0.580364381 0.94
v 0.902823725 0.73404256 0.94
v 1.004315859 0.593133986 0.7
v 0.939259675 0.750193506 0.7
v 1.004315859 0.593133986 0.94
v 0.939259675 0.750193506 0.94
v 1.033715501 0.604474679 0.7
v 0.976444226 0.76453717 0.7
v 1.033715501 0.604474679 0.94
v 0.976444226 0.76453717 0.94
v 1.063636192 0.614359141 0.7
v 1.014287797 0.777038998 0.7
v 1.063636192 0.614359141 0.94
v 1.014287797 0.777038998 0.94
v 1.09400585 0.622763557 0.7
v 1.052699219 0.78766887 0.7
v 1.09400585 0.622763557 0.94
v 1.052699219 0.78766887 0.94
v 1.124751311 0.629667681 0.7
v 1.091585956 0.796401179 0.7
v 1.124751311 0.629667681 0.94
v 1.091585956 0.796401179 0.94
v 1.155798507 0.63505488 0.7
v 1.130854327 0.803214887 0.7
v 1.155798507 0.63505488 0.94
v 1.130854327 0.803214887 0.94
v 1.187072643 0.638912177 0.7
v 1.170409729 0.808093581 0.7
v 1.187072643 0.638912177 0.94
v 1.170409729 0.808093581 0.94
v 1.218498376 0.641230279 0.7
v 1.210156872 0.811025506 0.7
v 1.218498376 0.641230279 0.94
v 1.210156872 0.811025506 0.94
v 1.25 0.6420036 0.7
v 1.25 0.8120036 0.7
v 1.25 0.6420036 0.94
v 1.25 0.8120036 0.94
f 3 8 4
f 3 7 8
f 1 6 5
f 1 2 6
f 1 7 3
f 1 5 7
f 2 8 6
f 2 4 8
f 7 12 8
f 7 11 12
f 5 10 9
f 5 6 10
f 5 11 7
f 5 9 11
f 6 12 10
f 6 8 12
f 11 16 12
f 11 15 16
f 9 14 13
f 9 10 14
f 9 15 11
f 9 13 15
f 10 16 14
f 10 12 16
f 15 20 16
f 15 19 20
f 13 18 17
f 13 14 18
f 13 19 15
f 13 17 19
f 14 20 18
f 14 16 20
f 19 24 20
f 19 23 24
f 17 22 21
f 17 18 22
f 17 23 19
f 17 21 23
f 18 24 22
f 18 20 24
f 23 28 24
f 23 27 28
f 21 26 25
f 21 22 26
f 21 27 23
f 21 25 27
f 22 28 26
f 22 24 28
f 27 32 28
f 27 31 32
f 25 30 29
f 25 26 30
f 25 31 27
f 25 29 31
f 26 32 30
f 26 28 32
f 31 36 32
f 31 35 36
f 29 34 33
f 29 30 34
f 29 35 31
f 29 33 35
f 30 36 34
f 30 32 36
f 35 40 36
f 35 39 40
f 33 38 37
f 33 34 38
f 33 39 35
f 33 37 39
f 34 40 38
f 34 36 40
f 39 44 40
f 39 43 44
f 37 42 41
f 37 38 42
f 37 43 39
f 37 41 43
f 38 44 42
f 38 40 44
f 43 48 44
f 43 47 48
f 41 46 45
f 41 42 46
f 41 47 43
f 41 45 47
f 42 48 46
f 42 44 48
f 47 52 48
f 47 51 52
f 45 50 49
f 45 46 50
f 45 51 47
f 45 49 51
f 46 52 50
f 46 48 52
f 51 56 52
f 51 55 56
f 49 54 53
f 49 50 54
f 49 55 51
f 49 53 55
f 50 56 54
f 50 52 56
f 55 60 56
f 55 59 60
f 53 58 57
f 53 54 58
f 53 59 55
f 53 57 59
f 54 60 58
f 54 56 60
f 59 64 60
f 59 63 64
f 57 62 61
f 57 58 62
f 57 63 59
f 57 61 63
f 58 64 62
f 58 60 64
f 63 68 64
f 63 67 68
f 61 66 65
f 61 62 66
f 61 67 63
f 61 65 67
f 62 68 66
f 62 64 68
f 67 72 68
f 67 71 72
f 65 70 69
f 65 66 70
f 65 71 67
f 65 69 71
f 66 72 70
f 66 68 72
f 71 76 72
f 71 75 76
f 69 74 73
f 69 70 74
f 69 75 71
f 69 73 75
f 70 76 74
f 70 72 76
f 75 80 76
f 75 79 80
f 73 78 77
f 73 74 78
f 73 79 75
f 73 77 79
f 74 80 78
f 74 76 80
f 79 84 80
f 79 83 84
f 77 82 81
f 77 78 82
f 77 83 79
f 77 81 83
f 78 84 82
f 78 80 84
f 83 88 84
f 83 87 88
f 81 86 85
f 81 82 86
f 81 87 83
f 81 85 87
f 82 88 86
f 82 84 88
f 87 92 88
f 87 91 92
f 85 90 89
f 85 86 90
f 85 91 87
f 85 89 91
f 86 92 90
f 86 88 92
f 91 96 92
f 91 95 96
f 89 94 93
f 89 90 94
f 89 95 91
f 89 93 95
f 90 96 94
f 90 92 96
f 95 100 96
f 95 99 100
f 93 98 97
f 93 94 98
f 93 99 95
f 93 97 99
f 94 100 98
f 94 96 100
f 99 104 100
f 99 103 104
f 97 102 101
f 97 98 102
f 97 103 99
f 97 101 103
f 98 104 102
f 98 100 104
f 103 108 104
f 103 107 108
f 101 106 105
f 101 102 106
f 101 107 103
f 101 105 107
f 102 108 106
f 102 104 108
f 107 112 108
f 107 111 112
f 105 110 109
f 105 106 110
f 105 111 107
f 105 109 111
f 106 112 110
f 106 108 112
f 111 116 112
f 111 115 116
f 109 114 113
f 109 110 114
f 109 115 111
f 109 113 115
f 110 116 114
f 110 112 116
f 115 120 116
f 115 119 120
f 113 118 117
f 113 114 118
f 113 119 115
f 113 117 119
f 114 120 118
f 114 116 120
f 119 124 120
f 119 123 124
f 117 122 121
f 117 118 122
f 117 123 119
f 117 121 123
f 118 124 122
f 118 120 124
f 123 128 124
f 123 127 128
f 121 126 125
f 121 122 126
f 121 127 123
f 121 125 127
f 122 128 126
f 122 124 128
f 127 132 128
f 127 131 132
f 125 130 129
f 125 126 130
f 125 131 127
f 125 129 131
f 126 132 130
f 126 128 132
f 1 4 2
f 1 3 4
f 129 132 131
f 129 130 132
