# Converted from an open-license Objaverse GLB by Critter Engine
v 0.2991902 1.2210058 0.7579734
v 0.2991902 1.229879 0.7718456
v 0.2991902 1.2355028 0.7875925
v 0.2991902 1.2375024 0.804714
v 0.2991902 1.2355028 0.8219606
v 0.2991902 1.229879 0.8377074
v 0.2991902 1.2210058 0.8515797
v 0.2991902 1.2093831 0.8632023
v 0.2991902 1.2093831 0.7463507
v 0.2991902 1.1955109 0.7374775
v 0.2991902 1.1955109 0.8720755
v 0.2991902 1.179764 0.8776994
v 0.2991902 1.179764 0.7318536
v 0.2991902 1.1618925 0.729729
v 0.2991902 1.1618925 0.879699
v 0.2991902 -1.1617676 0.879699
v 0.2991902 -1.179639 0.8776994
v 0.2991902 -1.1617676 0.729729
v 0.2991902 -1.1953859 0.8720755
v 0.2991902 -1.2092581 0.8632023
v 0.2991902 -1.179639 0.7318536
v 0.2991902 -1.1953859 0.7374775
v 0.2991902 -1.2208808 0.8515797
v 0.2991902 -1.2092581 0.7463507
v 0.2991902 -1.2208808 0.7579734
v 0.2991902 -1.229754 0.7718456
v 0.2991902 -1.229754 0.8377074
v 0.2991902 -1.2353779 0.8219606
v 0.2991902 -1.2373775 0.804714
v 0.2991902 -1.2353779 0.7875925
v -0.2631973 -1.2353779 0.7875925
v -0.2631973 -1.2373775 0.804714
v -0.2631973 -1.2353779 0.8219606
v -0.2631973 -1.229754 0.7718456
v -0.2631973 1.2355028 0.7875925
v -0.2631973 1.229879 0.7718456
v -0.2631973 1.2210058 0.7579734
v -0.2631973 1.2375024 0.804714
v -0.2631973 1.2355028 0.8219606
v -0.2631973 1.229879 0.8377074
v -0.2631973 1.2210058 0.8515797
v -0.2631973 1.2093831 0.8632023
v -0.2631973 1.2093831 0.7463507
v -0.2631973 1.1955109 0.7374775
v -0.2631973 1.1955109 0.8720755
v -0.2631973 1.179764 0.8776994
v -0.2631973 1.179764 0.7318536
v -0.2631973 1.1618925 0.729729
v -0.2631973 -1.1617676 0.879699
v -0.2631973 1.1618925 0.879699
v -0.2631973 -1.1617676 0.729729
v -0.2631973 -1.179639 0.8776994
v -0.2631973 -1.1953859 0.8720755
v -0.2631973 -1.2092581 0.8632023
v -0.2631973 -1.179639 0.7318536
v -0.2631973 -1.1953859 0.7374775
v -0.2631973 -1.2208808 0.8515797
v -0.2631973 -1.2092581 0.7463507
v -0.2631973 -1.2208808 0.7579734
v -0.2631973 -1.229754 0.8377074
v 0.4241651 -1.179639 0.7318536
v 0.4241651 -1.1825135 0.7196061
v 0.4241651 -1.1625175 0.7172315
v 0.4241651 -1.1617676 0.729729
v 0.4241651 1.1625174 0.7172315
v 0.4241651 1.1618925 0.729729
v 0.4241651 1.179764 0.7318536
v 0.4241651 1.1826384 0.7196061
v 0.4241651 1.2010097 0.7262297
v 0.4241651 1.1955109 0.7374775
v 0.4241651 1.2172565 0.7364777
v 0.4241651 1.2093831 0.7463507
v 0.4241651 1.2308788 0.7501
v 0.4241651 1.2210058 0.7579734
v 0.4241651 1.2411267 0.7663467
v 0.4241651 1.229879 0.7718456
v 0.4241651 1.2477504 0.784718
v 0.4241651 1.2355028 0.7875925
v 0.4241651 1.25 0.804714
v 0.4241651 1.2375024 0.804714
v 0.4241651 1.2477504 0.824835
v 0.4241651 1.2355028 0.8219606
v 0.4241651 1.2411267 0.8432064
v 0.4241651 1.229879 0.8377074
v 0.4241651 1.2308788 0.859453
v 0.4241651 1.2210058 0.8515797
v 0.4241651 1.2172565 0.8729504
v 0.4241651 1.2093831 0.8632023
v 0.4241651 1.2010097 0.8833233
v 0.4241651 1.1955109 0.8720755
v 0.4241651 1.1826384 0.889947
v 0.4241651 1.179764 0.8776994
v 0.4241651 1.1625174 0.8921966
v 0.4241651 1.1618925 0.879699
v 0.4241651 -1.1625175 0.8921966
v 0.4241651 -1.1617676 0.879699
v 0.4241651 -1.179639 0.8776994
v 0.4241651 -1.1825135 0.889947
v 0.4241651 -1.2008848 0.8833233
v 0.4241651 -1.1953859 0.8720755
v 0.4241651 -1.2171316 0.8729504
v 0.4241651 -1.2092581 0.8632023
v 0.4241651 -1.2208808 0.8515797
v 0.4241651 -1.2307539 0.859453
v 0.4241651 -1.2410018 0.8432064
v 0.4241651 -1.229754 0.8377074
v 0.4241651 -1.2476255 0.824835
v 0.4241651 -1.2353779 0.8219606
v 0.4241651 -1.25 0.804714
v 0.4241651 -1.2373775 0.804714
v 0.4241651 -1.2476255 0.784718
v 0.4241651 -1.2353779 0.7875925
v 0.4241651 -1.2410018 0.7663467
v 0.4241651 -1.229754 0.7718456
v 0.4241651 -1.2307539 0.7501
v 0.4241651 -1.2208808 0.7579734
v 0.4241651 -1.2171316 0.7364777
v 0.4241651 -1.2092581 0.7463507
v 0.4241651 -1.2008848 0.7262297
v 0.4241651 -1.1953859 0.7374775
v -0.3881723 -1.179639 0.7318536
v -0.3881723 -1.1617676 0.729729
v -0.3881723 -1.1625175 0.7172315
v -0.3881723 -1.1825135 0.7196061
v -0.3881723 -1.2008848 0.7262297
v -0.3881723 -1.1953859 0.7374775
v -0.3881723 -1.2171316 0.7364777
v -0.3881723 -1.2092581 0.7463507
v -0.3881723 -1.2307539 0.7501
v -0.3881723 -1.2208808 0.7579734
v -0.3881723 -1.2410018 0.7663467
v -0.3881723 -1.229754 0.7718456
v -0.3881723 -1.2476255 0.784718
v -0.3881723 -1.2353779 0.7875925
v -0.3881723 -1.25 0.804714
v -0.3881723 -1.2373775 0.804714
v -0.3881723 -1.2476255 0.824835
v -0.3881723 -1.2353779 0.8219606
v -0.3881723 -1.2410018 0.8432064
v -0.3881723 -1.229754 0.8377074
v -0.3881723 -1.2307539 0.859453
v -0.3881723 -1.2208808 0.8515797
v -0.3881723 -1.2171316 0.8729504
v -0.3881723 -1.2092581 0.8632023
v -0.3881723 -1.2008848 0.8833233
v -0.3881723 -1.1953859 0.8720755
v -0.3881723 -1.1825135 0.889947
v -0.3881723 -1.179639 0.8776994
v -0.3881723 -1.1625175 0.8921966
v -0.3881723 -1.1617676 0.879699
v -0.3881723 1.1625174 0.8921966
v -0.3881723 1.1618925 0.879699
v -0.3881723 1.179764 0.8776994
v -0.3881723 1.1826384 0.889947
v -0.3881723 1.2010097 0.8833233
v -0.3881723 1.1955109 0.8720755
v -0.3881723 1.2172565 0.8729504
v -0.3881723 1.2093831 0.8632023
v -0.3881723 1.2210058 0.8515797
v -0.3881723 1.2308788 0.859453
v -0.3881723 1.2411267 0.8432064
v -0.3881723 1.229879 0.8377074
v -0.3881723 1.2477504 0.824835
v -0.3881723 1.2355028 0.8219606
v -0.3881723 1.25 0.804714
v -0.3881723 1.2375024 0.804714
v -0.3881723 1.2477504 0.784718
v -0.3881723 1.2355028 0.7875925
v -0.3881723 1.2411267 0.7663467
v -0.3881723 1.229879 0.7718456
v -0.3881723 1.2308788 0.7501
v -0.3881723 1.2210058 0.7579734
v -0.3881723 1.2172565 0.7364777
v -0.3881723 1.2093831 0.7463507
v -0.3881723 1.2010097 0.7262297
v -0.3881723 1.1955109 0.7374775
v -0.3881723 1.1826384 0.7196061
v -0.3881723 1.179764 0.7318536
v -0.3881723 1.1625174 0.7172315
v -0.3881723 1.1618925 0.729729
v 0.2991902 -1.179639 0.7318536
v 0.4241651 -1.179639 0.7318536
v 0.4241651 -1.1617676 0.729729
v 0.2991902 -1.1617676 0.729729
v 0.4241651 1.1618925 0.729729
v 0.2991902 1.1618925 0.729729
v 0.4241651 1.179764 0.7318536
v 0.2991902 1.179764 0.7318536
v 0.4241651 1.1955109 0.7374775
v 0.2991902 1.1955109 0.7374775
v 0.4241651 1.2093831 0.7463507
v 0.2991902 1.2093831 0.7463507
v 0.4241651 1.2210058 0.7579734
v 0.2991902 1.2210058 0.7579734
v 0.2991902 1.2210058 0.7579734
v 0.4241651 1.2210058 0.7579734
v 0.4241651 1.229879 0.7718456
v 0.2991902 1.229879 0.7718456
v 0.4241651 1.2355028 0.7875925
v 0.2991902 1.2355028 0.7875925
v 0.4241651 1.2375024 0.804714
v 0.2991902 1.2375024 0.804714
v 0.4241651 1.2355028 0.8219606
v 0.2991902 1.2355028 0.8219606
v 0.4241651 1.229879 0.8377074
v 0.2991902 1.229879 0.8377074
v 0.4241651 1.2210058 0.8515797
v 0.2991902 1.2210058 0.8515797
v 0.2991902 1.2210058 0.8515797
v 0.4241651 1.2210058 0.8515797
v 0.4241651 1.2093831 0.8632023
v 0.2991902 1.2093831 0.8632023
v 0.4241651 1.1955109 0.8720755
v 0.2991902 1.1955109 0.8720755
v 0.4241651 1.179764 0.8776994
v 0.2991902 1.179764 0.8776994
v 0.4241651 1.1618925 0.879699
v 0.2991902 1.1618925 0.879699
v 0.4241651 -1.1617676 0.879699
v 0.2991902 -1.1617676 0.879699
v 0.4241651 -1.179639 0.8776994
v 0.2991902 -1.179639 0.8776994
v 0.4241651 -1.1953859 0.8720755
v 0.2991902 -1.1953859 0.8720755
v 0.4241651 -1.2092581 0.8632023
v 0.2991902 -1.2092581 0.8632023
v 0.4241651 -1.2208808 0.8515797
v 0.2991902 -1.2208808 0.8515797
v 0.2991902 -1.2208808 0.8515797
v 0.4241651 -1.2208808 0.8515797
v 0.4241651 -1.229754 0.8377074
v 0.2991902 -1.229754 0.8377074
v 0.4241651 -1.2353779 0.8219606
v 0.2991902 -1.2353779 0.8219606
v 0.4241651 -1.2373775 0.804714
v 0.2991902 -1.2373775 0.804714
v 0.4241651 -1.2353779 0.7875925
v 0.2991902 -1.2353779 0.7875925
v 0.4241651 -1.229754 0.7718456
v 0.2991902 -1.229754 0.7718456
v 0.4241651 -1.2208808 0.7579734
v 0.2991902 -1.2208808 0.7579734
v 0.2991902 -1.2208808 0.7579734
v 0.4241651 -1.2208808 0.7579734
v 0.4241651 -1.2092581 0.7463507
v 0.2991902 -1.2092581 0.7463507
v 0.4241651 -1.1953859 0.7374775
v 0.2991902 -1.1953859 0.7374775
v -0.2631973 -1.1617676 0.729729
v -0.3881723 -1.1617676 0.729729
v -0.3881723 -1.179639 0.7318536
v -0.2631973 -1.179639 0.7318536
v -0.3881723 -1.1953859 0.7374775
v -0.2631973 -1.1953859 0.7374775
v -0.3881723 -1.2092581 0.7463507
v -0.2631973 -1.2092581 0.7463507
v -0.3881723 -1.2208808 0.7579734
v -0.2631973 -1.2208808 0.7579734
v -0.2631973 -1.2208808 0.7579734
v -0.3881723 -1.2208808 0.7579734
v -0.3881723 -1.229754 0.7718456
v -0.2631973 -1.229754 0.7718456
v -0.3881723 -1.2353779 0.7875925
v -0.2631973 -1.2353779 0.7875925
v -0.3881723 -1.2373775 0.804714
v -0.2631973 -1.2373775 0.804714
v -0.3881723 -1.2353779 0.8219606
v -0.2631973 -1.2353779 0.8219606
v -0.3881723 -1.229754 0.8377074
v -0.2631973 -1.229754 0.8377074
v -0.3881723 -1.2208808 0.8515797
v -0.2631973 -1.2208808 0.8515797
v -0.2631973 -1.2208808 0.8515797
v -0.3881723 -1.2208808 0.8515797
v -0.3881723 -1.2092581 0.8632023
v -0.2631973 -1.2092581 0.8632023
v -0.3881723 -1.1953859 0.8720755
v -0.2631973 -1.1953859 0.8720755
v -0.3881723 -1.179639 0.8776994
v -0.2631973 -1.179639 0.8776994
v -0.3881723 -1.1617676 0.879699
v -0.2631973 -1.1617676 0.879699
v -0.3881723 1.1618925 0.879699
v -0.2631973 1.1618925 0.879699
v -0.3881723 1.179764 0.8776994
v -0.2631973 1.179764 0.8776994
v -0.3881723 1.1955109 0.8720755
v -0.2631973 1.1955109 0.8720755
v -0.3881723 1.2093831 0.8632023
v -0.2631973 1.2093831 0.8632023
v -0.3881723 1.2210058 0.8515797
v -0.2631973 1.2210058 0.8515797
v -0.2631973 1.2210058 0.8515797
v -0.3881723 1.2210058 0.8515797
v -0.3881723 1.229879 0.8377074
v -0.2631973 1.229879 0.8377074
v -0.3881723 1.2355028 0.8219606
v -0.2631973 1.2355028 0.8219606
v -0.3881723 1.2375024 0.804714
v -0.2631973 1.2375024 0.804714
v -0.3881723 1.2355028 0.7875925
v -0.2631973 1.2355028 0.7875925
v -0.3881723 1.229879 0.7718456
v -0.2631973 1.229879 0.7718456
v -0.3881723 1.2210058 0.7579734
v -0.2631973 1.2210058 0.7579734
v -0.2631973 1.2210058 0.7579734
v -0.3881723 1.2210058 0.7579734
v -0.3881723 1.2093831 0.7463507
v -0.2631973 1.2093831 0.7463507
v -0.3881723 1.1955109 0.7374775
v -0.2631973 1.1955109 0.7374775
v -0.3881723 1.179764 0.7318536
v -0.2631973 1.179764 0.7318536
v -0.3881723 1.1618925 0.729729
v -0.2631973 1.1618925 0.729729
v 0.4864027 -1.1256499 0.7709708
v -0.4509098 -1.1256499 0.7709708
v -0.4509098 -1.1256499 0.8334583
v 0.4864027 -1.1256499 0.8334583
v -0.4509098 -1.1881374 0.8334583
v -0.4509098 -1.1881374 0.7709708
v 0.4864027 -1.1881374 0.7709708
v 0.4864027 -1.1881374 0.8334583
v -0.4509098 -1.1881374 0.7709708
v -0.4509098 -1.1256499 0.7709708
v 0.4864027 -1.1256499 0.7709708
v 0.4864027 -1.1881374 0.7709708
v 0.4864027 -1.1881374 0.8334583
v 0.4864027 -1.1256499 0.8334583
v -0.4509098 -1.1256499 0.8334583
v -0.4509098 -1.1881374 0.8334583
v 0.4864027 1.1883872 0.7709708
v -0.4509098 1.1883872 0.7709708
v -0.4509098 1.1883872 0.8334583
v 0.4864027 1.1883872 0.8334583
v -0.4509098 1.1258998 0.8334583
v -0.4509098 1.1258998 0.7709708
v 0.4864027 1.1258998 0.7709708
v 0.4864027 1.1258998 0.8334583
v -0.4509098 1.1258998 0.7709708
v -0.4509098 1.1883872 0.7709708
v 0.4864027 1.1883872 0.7709708
v 0.4864027 1.1258998 0.7709708
v 0.4864027 1.1258998 0.8334583
v 0.4864027 1.1883872 0.8334583
v -0.4509098 1.1883872 0.8334583
v -0.4509098 1.1258998 0.8334583
vt 0.0043 0.5103
vt 0.0023 0.5136
vt 0.001 0.5172
vt 0.0005 0.5211
vt 0.001 0.5251
vt 0.0023 0.5287
vt 0.0043 0.5319
vt 0.007 0.5346
vt 0.007 0.5077
vt 0.0102 0.5056
vt 0.0102 0.5366
vt 0.0138 0.5379
vt 0.0138 0.5043
vt 0.0179 0.5039
vt 0.0179 0.5384
vt 0.5534 0.5384
vt 0.5575 0.5379
vt 0.5534 0.5039
vt 0.5612 0.5366
vt 0.5644 0.5346
vt 0.5575 0.5043
vt 0.5612 0.5056
vt 0.5671 0.5319
vt 0.5644 0.5077
vt 0.5671 0.5103
vt 0.5691 0.5136
vt 0.5691 0.5287
vt 0.5704 0.5251
vt 0.5708 0.5211
vt 0.5704 0.5172
vt 0.001 0.4813
vt 0.0005 0.4853
vt 0.001 0.4892
vt 0.0023 0.4777
vt 0.5704 0.4813
vt 0.5691 0.4777
vt 0.5671 0.4745
vt 0.5708 0.4853
vt 0.5704 0.4892
vt 0.5691 0.4929
vt 0.5671 0.4961
vt 0.5644 0.4988
vt 0.5644 0.4718
vt 0.5612 0.4698
vt 0.5612 0.5008
vt 0.5575 0.5021
vt 0.5575 0.4685
vt 0.5534 0.468
vt 0.0179 0.5026
vt 0.5534 0.5026
vt 0.0179 0.468
vt 0.0138 0.5021
vt 0.0102 0.5008
vt 0.007 0.4988
vt 0.0138 0.4685
vt 0.0102 0.4698
vt 0.0043 0.4961
vt 0.007 0.4718
vt 0.0043 0.4745
vt 0.0023 0.4929
vt 0.5604 0.5847
vt 0.5611 0.5819
vt 0.5565 0.5813
vt 0.5563 0.5842
vt 0.0207 0.5813
vt 0.0208 0.5842
vt 0.0167 0.5847
vt 0.016 0.5819
vt 0.0118 0.5834
vt 0.0131 0.586
vt 0.0081 0.5858
vt 0.0099 0.588
vt 0.0049 0.5889
vt 0.0072 0.5907
vt 0.0026 0.5926
vt 0.0052 0.5939
vt 0.001 0.5969
vt 0.0039 0.5975
vt 0.0005 0.6015
vt 0.0034 0.6015
vt 0.001 0.6061
vt 0.0039 0.6054
vt 0.0026 0.6103
vt 0.0052 0.6091
vt 0.0049 0.6141
vt 0.0072 0.6123
vt 0.0081 0.6172
vt 0.0099 0.615
vt 0.0118 0.6196
vt 0.0131 0.617
vt 0.016 0.6211
vt 0.0167 0.6183
vt 0.0207 0.6216
vt 0.0208 0.6188
vt 0.5565 0.6216
vt 0.5563 0.6188
vt 0.5604 0.6183
vt 0.5611 0.6211
vt 0.5653 0.6196
vt 0.5641 0.617
vt 0.5691 0.6172
vt 0.5673 0.615
vt 0.57 0.6123
vt 0.5722 0.6141
vt 0.5746 0.6103
vt 0.572 0.6091
vt 0.5761 0.6061
vt 0.5733 0.6054
vt 0.5766 0.6015
vt 0.5737 0.6015
vt 0.5761 0.5969
vt 0.5733 0.5975
vt 0.5746 0.5926
vt 0.572 0.5939
vt 0.5722 0.5889
vt 0.57 0.5907
vt 0.5691 0.5858
vt 0.5673 0.588
vt 0.5653 0.5834
vt 0.5641 0.586
vt 0.0167 0.5431
vt 0.0208 0.5426
vt 0.0207 0.5397
vt 0.016 0.5402
vt 0.0118 0.5418
vt 0.0131 0.5444
vt 0.0081 0.5441
vt 0.0099 0.5464
vt 0.0049 0.5473
vt 0.0072 0.5491
vt 0.0026 0.551
vt 0.0052 0.5523
vt 0.001 0.5553
vt 0.0039 0.5559
vt 0.0005 0.5599
vt 0.0034 0.5599
vt 0.001 0.5645
vt 0.0039 0.5638
vt 0.0026 0.5687
vt 0.0052 0.5675
vt 0.0049 0.5725
vt 0.0072 0.5707
vt 0.0081 0.5756
vt 0.0099 0.5733
vt 0.0118 0.578
vt 0.0131 0.5754
vt 0.016 0.5795
vt 0.0167 0.5767
vt 0.0207 0.58
vt 0.0208 0.5772
vt 0.5565 0.58
vt 0.5563 0.5772
vt 0.5604 0.5767
vt 0.5611 0.5795
vt 0.5653 0.578
vt 0.5641 0.5754
vt 0.5691 0.5756
vt 0.5673 0.5733
vt 0.57 0.5707
vt 0.5722 0.5725
vt 0.5746 0.5687
vt 0.572 0.5675
vt 0.5761 0.5645
vt 0.5733 0.5638
vt 0.5766 0.5599
vt 0.5737 0.5599
vt 0.5761 0.5553
vt 0.5733 0.5559
vt 0.5746 0.551
vt 0.572 0.5523
vt 0.5722 0.5473
vt 0.57 0.5491
vt 0.5691 0.5441
vt 0.5673 0.5464
vt 0.5653 0.5418
vt 0.5641 0.5444
vt 0.5611 0.5402
vt 0.5604 0.5431
vt 0.5565 0.5397
vt 0.5563 0.5426
vt 0.01 0.4074
vt 0.01 0.4362
vt 0.0141 0.4362
vt 0.0141 0.4074
vt 0.5496 0.4362
vt 0.5496 0.4074
vt 0.5538 0.4362
vt 0.5538 0.4074
vt 0.5574 0.4362
vt 0.5574 0.4074
vt 0.5606 0.4362
vt 0.5606 0.4074
vt 0.5633 0.4362
vt 0.5633 0.4074
vt 0.0304 0.585
vt 0.0304 0.6138
vt 0.0336 0.6138
vt 0.0336 0.585
vt 0.0372 0.6138
vt 0.0372 0.585
vt 0.0412 0.6138
vt 0.0412 0.585
vt 0.0451 0.6138
vt 0.0451 0.585
vt 0.0488 0.6138
vt 0.0488 0.585
vt 0.052 0.6138
vt 0.052 0.585
vt 0.0005 0.4379
vt 0.0005 0.4667
vt 0.0032 0.4667
vt 0.0032 0.4379
vt 0.0064 0.4667
vt 0.0064 0.4379
vt 0.01 0.4667
vt 0.01 0.4379
vt 0.0141 0.4667
vt 0.0141 0.4379
vt 0.5496 0.4667
vt 0.5496 0.4379
vt 0.5538 0.4667
vt 0.5538 0.4379
vt 0.5574 0.4667
vt 0.5574 0.4379
vt 0.5606 0.4667
vt 0.5606 0.4379
vt 0.5633 0.4667
vt 0.5633 0.4379
vt 0.052 0.5722
vt 0.052 0.5434
vt 0.0488 0.5434
vt 0.0488 0.5722
vt 0.0451 0.5434
vt 0.0451 0.5722
vt 0.0412 0.5434
vt 0.0412 0.5722
vt 0.0372 0.5434
vt 0.0372 0.5722
vt 0.0336 0.5434
vt 0.0336 0.5722
vt 0.0304 0.5434
vt 0.0304 0.5722
vt 0.0005 0.4074
vt 0.0005 0.4362
vt 0.0032 0.4362
vt 0.0032 0.4074
vt 0.0064 0.4362
vt 0.0064 0.4074
vt 0.0141 0.3752
vt 0.0141 0.3464
vt 0.01 0.3464
vt 0.01 0.3752
vt 0.0064 0.3464
vt 0.0064 0.3752
vt 0.0032 0.3464
vt 0.0032 0.3752
vt 0.0005 0.3464
vt 0.0005 0.3752
vt 0.532 0.585
vt 0.532 0.6138
vt 0.5352 0.6138
vt 0.5352 0.585
vt 0.5388 0.6138
vt 0.5388 0.585
vt 0.5428 0.6138
vt 0.5428 0.585
vt 0.5468 0.6138
vt 0.5468 0.585
vt 0.5504 0.6138
vt 0.5504 0.585
vt 0.5536 0.6138
vt 0.5536 0.585
vt 0.5633 0.4057
vt 0.5633 0.3769
vt 0.5606 0.3769
vt 0.5606 0.4057
vt 0.5574 0.3769
vt 0.5574 0.4057
vt 0.5538 0.3769
vt 0.5538 0.4057
vt 0.5496 0.3769
vt 0.5496 0.4057
vt 0.0141 0.3769
vt 0.0141 0.4057
vt 0.01 0.3769
vt 0.01 0.4057
vt 0.0064 0.3769
vt 0.0064 0.4057
vt 0.0032 0.3769
vt 0.0032 0.4057
vt 0.0005 0.3769
vt 0.0005 0.4057
vt 0.5536 0.5722
vt 0.5536 0.5434
vt 0.5504 0.5434
vt 0.5504 0.5722
vt 0.5468 0.5434
vt 0.5468 0.5722
vt 0.5428 0.5434
vt 0.5428 0.5722
vt 0.5388 0.5434
vt 0.5388 0.5722
vt 0.5352 0.5434
vt 0.5352 0.5722
vt 0.532 0.5434
vt 0.532 0.5722
vt 0.5633 0.3752
vt 0.5633 0.3464
vt 0.5606 0.3464
vt 0.5606 0.3752
vt 0.5574 0.3464
vt 0.5574 0.3752
vt 0.5538 0.3464
vt 0.5538 0.3752
vt 0.5496 0.3464
vt 0.5496 0.3752
vt 0.519 0.5854
vt 0.303 0.5854
vt 0.303 0.5998
vt 0.519 0.5998
vt 0.3025 0.573
vt 0.3025 0.5586
vt 0.0865 0.5586
vt 0.0865 0.573
vt 0.519 0.6146
vt 0.519 0.6002
vt 0.303 0.6002
vt 0.303 0.6146
vt 0.0865 0.5438
vt 0.0865 0.5582
vt 0.3025 0.5582
vt 0.3025 0.5438
vt 0.519 0.5438
vt 0.303 0.5438
vt 0.303 0.5582
vt 0.519 0.5582
vt 0.519 0.573
vt 0.519 0.5586
vt 0.303 0.5586
vt 0.303 0.573
vt 0.3025 0.6146
vt 0.3025 0.6002
vt 0.0865 0.6002
vt 0.0865 0.6146
vt 0.0865 0.5854
vt 0.0865 0.5998
vt 0.3025 0.5998
vt 0.3025 0.5854
vn 1 0 0
vn 1 0 0
vn 1 0 0
vn 1 0 0
vn 1 0 0
vn 1 0 0
vn 1 0 0
vn 1 0 0
vn 1 0 0
vn 1 0 0
vn 1 0 0
vn 1 0 0
vn 1 0 0
vn 1 0 0
vn 1 0 0
vn 1 0 0
vn 1 0 0
vn 1 0 0
vn 1 0 0
vn 1 0 0
vn 1 0 0
vn 1 0 0
vn 1 0 0
vn 1 0 0
vn 1 0 0
vn 1 0 0
vn 1 0 0
vn 1 0 0
vn 1 0 0
vn 1 0 0
vn -1 0 0
vn -1 0 0
vn -1 0 0
vn -1 0 0
vn -1 0 0
vn -1 0 0
vn -1 0 0
vn -1 0 0
vn -1 0 0
vn -1 0 0
vn -1 0 0
vn -1 0 0
vn -1 0 0
vn -1 0 0
vn -1 0 0
vn -1 0 0
vn -1 0 0
vn -1 0 0
vn -1 0 0
vn -1 0 0
vn -1 0 0
vn -1 0 0
vn -1 0 0
vn -1 0 0
vn -1 0 0
vn -1 0 0
vn -1 0 0
vn -1 0 0
vn -1 0 0
vn -1 0 0
vn 1 0 0
vn 1 0 0
vn 1 0 0
vn 1 0 0
vn 1 0 0
vn 1 0 0
vn 1 0 0
vn 1 0 0
vn 1 0 0
vn 1 0 0
vn 1 0 0
vn 1 0 0
vn 1 0 0
vn 1 0 0
vn 1 0 0
vn 1 0 0
vn 1 0 0
vn 1 0 0
vn 1 0 0
vn 1 0 0
vn 1 0 0
vn 1 0 0
vn 1 0 0
vn 1 0 0
vn 1 0 0
vn 1 0 0
vn 1 0 0
vn 1 0 0
vn 1 0 0
vn 1 0 0
vn 1 0 0
vn 1 0 0
vn 1 0 0
vn 1 0 0
vn 1 0 0
vn 1 0 0
vn 1 0 0
vn 1 0 0
vn 1 0 0
vn 1 0 0
vn 1 0 0
vn 1 0 0
vn 1 0 0
vn 1 0 0
vn 1 0 0
vn 1 0 0
vn 1 0 0
vn 1 0 0
vn 1 0 0
vn 1 0 0
vn 1 0 0
vn 1 0 0
vn 1 0 0
vn 1 0 0
vn 1 0 0
vn 1 0 0
vn 1 0 0
vn 1 0 0
vn 1 0 0
vn 1 0 0
vn -1 0 0
vn -1 0 0
vn -1 0 0
vn -1 0 0
vn -1 0 0
vn -1 0 0
vn -1 0 0
vn -1 0 0
vn -1 0 0
vn -1 0 0
vn -1 0 0
vn -1 0 0
vn -1 0 0
vn -1 0 0
vn -1 0 0
vn -1 0 0
vn -1 0 0
vn -1 0 0
vn -1 0 0
vn -1 0 0
vn -1 0 0
vn -1 0 0
vn -1 0 0
vn -1 0 0
vn -1 0 0
vn -1 0 0
vn -1 0 0
vn -1 0 0
vn -1 0 0
vn -1 0 0
vn -1 0 0
vn -1 0 0
vn -1 0 0
vn -1 0 0
vn -1 0 0
vn -1 0 0
vn -1 0 0
vn -1 0 0
vn -1 0 0
vn -1 0 0
vn -1 0 0
vn -1 0 0
vn -1 0 0
vn -1 0 0
vn -1 0 0
vn -1 0 0
vn -1 0 0
vn -1 0 0
vn -1 0 0
vn -1 0 0
vn -1 0 0
vn -1 0 0
vn -1 0 0
vn -1 0 0
vn -1 0 0
vn -1 0 0
vn -1 0 0
vn -1 0 0
vn -1 0 0
vn -1 0 0
vn 0 0.2272106 0.9738456
vn 0 0.2272106 0.9738456
vn 0 0.0573972 0.9983514
vn 0 0.0573972 0.9983514
vn 0 -0.0573972 0.9983514
vn 0 -0.0573972 0.9983514
vn 0 -0.2272106 0.9738456
vn 0 -0.2272106 0.9738456
vn 0 -0.4395168 0.8982344
vn 0 -0.4395168 0.8982344
vn 0 -0.6256823 0.780078
vn 0 -0.6256823 0.780078
vn 0 -0.780078 0.6256823
vn 0 -0.780078 0.6256823
vn 0 -0.780078 0.6256823
vn 0 -0.780078 0.6256823
vn 0 -0.8982344 0.4395168
vn 0 -0.8982344 0.4395168
vn 0 -0.9738456 0.2272106
vn 0 -0.9738456 0.2272106
vn 0 -1 0
vn 0 -1 0
vn 0 -0.9738456 -0.2272106
vn 0 -0.9738456 -0.2272106
vn 0 -0.8982344 -0.4395168
vn 0 -0.8982344 -0.4395168
vn 0 -0.780078 -0.6256823
vn 0 -0.780078 -0.6256823
vn 0 -0.780078 -0.6256823
vn 0 -0.780078 -0.6256823
vn 0 -0.6256823 -0.780078
vn 0 -0.6256823 -0.780078
vn 0 -0.4395168 -0.8982344
vn 0 -0.4395168 -0.8982344
vn 0 -0.2272106 -0.9738456
vn 0 -0.2272106 -0.9738456
vn 0 -0.0573972 -0.9983514
vn 0 -0.0573972 -0.9983514
vn 0 0.0573972 -0.9983514
vn 0 0.0573972 -0.9983514
vn 0 0.2272106 -0.9738456
vn 0 0.2272106 -0.9738456
vn 0 0.4395168 -0.8982344
vn 0 0.4395168 -0.8982344
vn 0 0.6256823 -0.780078
vn 0 0.6256823 -0.780078
vn 0 0.780078 -0.6256823
vn 0 0.780078 -0.6256823
vn 0 0.780078 -0.6256823
vn 0 0.780078 -0.6256823
vn 0 0.8982344 -0.4395168
vn 0 0.8982344 -0.4395168
vn 0 0.9738456 -0.2272106
vn 0 0.9738456 -0.2272106
vn 0 1 0
vn 0 1 0
vn 0 0.9738456 0.2272106
vn 0 0.9738456 0.2272106
vn 0 0.8982344 0.4395168
vn 0 0.8982344 0.4395168
vn 0 0.780078 0.6256823
vn 0 0.780078 0.6256823
vn 0 0.780078 0.6256823
vn 0 0.780078 0.6256823
vn 0 0.6256823 0.780078
vn 0 0.6256823 0.780078
vn 0 0.4395168 0.8982344
vn 0 0.4395168 0.8982344
vn 0 0.0573972 0.9983514
vn 0 0.0573972 0.9983514
vn 0 0.2272106 0.9738456
vn 0 0.2272106 0.9738456
vn 0 0.4395168 0.8982344
vn 0 0.4395168 0.8982344
vn 0 0.6256823 0.780078
vn 0 0.6256823 0.780078
vn 0 0.780078 0.6256823
vn 0 0.780078 0.6256823
vn 0 0.780078 0.6256823
vn 0 0.780078 0.6256823
vn 0 0.8982344 0.4395168
vn 0 0.8982344 0.4395168
vn 0 0.9738456 0.2272106
vn 0 0.9738456 0.2272106
vn 0 1 0
vn 0 1 0
vn 0 0.9738456 -0.2272106
vn 0 0.9738456 -0.2272106
vn 0 0.8982344 -0.4395168
vn 0 0.8982344 -0.4395168
vn 0 0.780078 -0.6256823
vn 0 0.780078 -0.6256823
vn 0 0.780078 -0.6256823
vn 0 0.780078 -0.6256823
vn 0 0.6256823 -0.780078
vn 0 0.6256823 -0.780078
vn 0 0.4395168 -0.8982344
vn 0 0.4395168 -0.8982344
vn 0 0.2272106 -0.9738456
vn 0 0.2272106 -0.9738456
vn 0 0.0573972 -0.9983514
vn 0 0.0573972 -0.9983514
vn 0 -0.0573972 -0.9983514
vn 0 -0.0573972 -0.9983514
vn 0 -0.2272106 -0.9738456
vn 0 -0.2272106 -0.9738456
vn 0 -0.4395168 -0.8982344
vn 0 -0.4395168 -0.8982344
vn 0 -0.6256823 -0.780078
vn 0 -0.6256823 -0.780078
vn 0 -0.780078 -0.6256823
vn 0 -0.780078 -0.6256823
vn 0 -0.780078 -0.6256823
vn 0 -0.780078 -0.6256823
vn 0 -0.8982344 -0.4395168
vn 0 -0.8982344 -0.4395168
vn 0 -0.9738456 -0.2272106
vn 0 -0.9738456 -0.2272106
vn 0 -1 0
vn 0 -1 0
vn 0 -0.9738456 0.2272106
vn 0 -0.9738456 0.2272106
vn 0 -0.8982344 0.4395168
vn 0 -0.8982344 0.4395168
vn 0 -0.780078 0.6256823
vn 0 -0.780078 0.6256823
vn 0 -0.780078 0.6256823
vn 0 -0.780078 0.6256823
vn 0 -0.6256823 0.780078
vn 0 -0.6256823 0.780078
vn 0 -0.4395168 0.8982344
vn 0 -0.4395168 0.8982344
vn 0 -0.2272106 0.9738456
vn 0 -0.2272106 0.9738456
vn 0 -0.0573972 0.9983514
vn 0 -0.0573972 0.9983514
vn 0 1 0
vn 0 1 0
vn 0 1 0
vn 0 1 0
vn 0 -1 0
vn 0 -1 0
vn 0 -1 0
vn 0 -1 0
vn 0 0 -1
vn 0 0 -1
vn 0 0 -1
vn 0 0 -1
vn 0 0 1
vn 0 0 1
vn 0 0 1
vn 0 0 1
vn 0 1 0
vn 0 1 0
vn 0 1 0
vn 0 1 0
vn 0 -1 0
vn 0 -1 0
vn 0 -1 0
vn 0 -1 0
vn 0 0 -1
vn 0 0 -1
vn 0 0 -1
vn 0 0 -1
vn 0 0 1
vn 0 0 1
vn 0 0 1
vn 0 0 1
f 1/1/1 2/2/2 3/3/3
f 3/3/3 4/4/4 1/1/1
f 1/1/1 4/4/4 5/5/5
f 5/5/5 6/6/6 1/1/1
f 1/1/1 6/6/6 7/7/7
f 7/7/7 8/8/8 1/1/1
f 9/9/9 1/1/1 8/8/8
f 8/8/8 10/10/10 9/9/9
f 10/10/10 8/8/8 11/11/11
f 11/11/11 12/12/12 10/10/10
f 13/13/13 10/10/10 12/12/12
f 12/12/12 14/14/14 13/13/13
f 15/15/15 16/16/16 14/14/14
f 14/14/14 12/12/12 15/15/15
f 16/16/16 17/17/17 18/18/18
f 18/18/18 14/14/14 16/16/16
f 18/18/18 17/17/17 19/19/19
f 19/19/19 20/20/20 18/18/18
f 21/21/21 18/18/18 20/20/20
f 20/20/20 22/22/22 21/21/21
f 23/23/23 24/24/24 22/22/22
f 22/22/22 20/20/20 23/23/23
f 25/25/25 24/24/24 23/23/23
f 23/23/23 26/26/26 25/25/25
f 26/26/26 23/23/23 27/27/27
f 27/27/27 28/28/28 26/26/26
f 28/28/28 29/29/29 30/30/30
f 30/30/30 26/26/26 28/28/28
f 31/31/31 32/32/32 33/33/33
f 33/33/33 34/34/34 31/31/31
f 35/35/35 36/36/36 37/37/37
f 37/37/37 38/38/38 35/35/35
f 39/39/39 38/38/38 37/37/37
f 37/37/37 40/40/40 39/39/39
f 41/41/41 40/40/40 37/37/37
f 37/37/37 42/42/42 41/41/41
f 42/42/42 37/37/37 43/43/43
f 43/43/43 44/44/44 42/42/42
f 45/45/45 42/42/42 44/44/44
f 44/44/44 46/46/46 45/45/45
f 46/46/46 44/44/44 47/47/47
f 47/47/47 48/48/48 46/46/46
f 48/48/48 49/49/49 50/50/50
f 50/50/50 46/46/46 48/48/48
f 51/51/51 52/52/52 49/49/49
f 49/49/49 48/48/48 51/51/51
f 53/53/53 52/52/52 51/51/51
f 51/51/51 54/54/54 53/53/53
f 54/54/54 51/51/51 55/55/55
f 55/55/55 56/56/56 54/54/54
f 57/57/57 54/54/54 56/56/56
f 56/56/56 58/58/58 57/57/57
f 57/57/57 58/58/58 59/59/59
f 59/59/59 34/34/34 57/57/57
f 60/60/60 57/57/57 34/34/34
f 34/34/34 33/33/33 60/60/60
f 61/61/61 62/62/62 63/63/63
f 63/63/63 64/64/64 61/61/61
f 64/64/64 63/63/63 65/65/65
f 65/65/65 66/66/66 64/64/64
f 67/67/67 66/66/66 65/65/65
f 65/65/65 68/68/68 67/67/67
f 67/67/67 68/68/68 69/69/69
f 69/69/69 70/70/70 67/67/67
f 70/70/70 69/69/69 71/71/71
f 71/71/71 72/72/72 70/70/70
f 72/72/72 71/71/71 73/73/73
f 73/73/73 74/74/74 72/72/72
f 74/74/74 73/73/73 75/75/75
f 75/75/75 76/76/76 74/74/74
f 76/76/76 75/75/75 77/77/77
f 77/77/77 78/78/78 76/76/76
f 78/78/78 77/77/77 79/79/79
f 79/79/79 80/80/80 78/78/78
f 80/80/80 79/79/79 81/81/81
f 81/81/81 82/82/82 80/80/80
f 82/82/82 81/81/81 83/83/83
f 83/83/83 84/84/84 82/82/82
f 84/84/84 83/83/83 85/85/85
f 85/85/85 86/86/86 84/84/84
f 86/86/86 85/85/85 87/87/87
f 87/87/87 88/88/88 86/86/86
f 88/88/88 87/87/87 89/89/89
f 89/89/89 90/90/90 88/88/88
f 90/90/90 89/89/89 91/91/91
f 91/91/91 92/92/92 90/90/90
f 92/92/92 91/91/91 93/93/93
f 93/93/93 94/94/94 92/92/92
f 94/94/94 93/93/93 95/95/95
f 95/95/95 96/96/96 94/94/94
f 97/97/97 96/96/96 95/95/95
f 95/95/95 98/98/98 97/97/97
f 97/97/97 98/98/98 99/99/99
f 99/99/99 100/100/100 97/97/97
f 100/100/100 99/99/99 101/101/101
f 101/101/101 102/102/102 100/100/100
f 103/103/103 102/102/102 101/101/101
f 101/101/101 104/104/104 103/103/103
f 103/103/103 104/104/104 105/105/105
f 105/105/105 106/106/106 103/103/103
f 106/106/106 105/105/105 107/107/107
f 107/107/107 108/108/108 106/106/106
f 108/108/108 107/107/107 109/109/109
f 109/109/109 110/110/110 108/108/108
f 110/110/110 109/109/109 111/111/111
f 111/111/111 112/112/112 110/110/110
f 112/112/112 111/111/111 113/113/113
f 113/113/113 114/114/114 112/112/112
f 114/114/114 113/113/113 115/115/115
f 115/115/115 116/116/116 114/114/114
f 116/116/116 115/115/115 117/117/117
f 117/117/117 118/118/118 116/116/116
f 118/118/118 117/117/117 119/119/119
f 119/119/119 120/120/120 118/118/118
f 120/120/120 119/119/119 62/62/62
f 62/62/62 61/61/61 120/120/120
f 121/121/121 122/122/122 123/123/123
f 123/123/123 124/124/124 121/121/121
f 121/121/121 124/124/124 125/125/125
f 125/125/125 126/126/126 121/121/121
f 126/126/126 125/125/125 127/127/127
f 127/127/127 128/128/128 126/126/126
f 128/128/128 127/127/127 129/129/129
f 129/129/129 130/130/130 128/128/128
f 130/130/130 129/129/129 131/131/131
f 131/131/131 132/132/132 130/130/130
f 132/132/132 131/131/131 133/133/133
f 133/133/133 134/134/134 132/132/132
f 134/134/134 133/133/133 135/135/135
f 135/135/135 136/136/136 134/134/134
f 136/136/136 135/135/135 137/137/137
f 137/137/137 138/138/138 136/136/136
f 138/138/138 137/137/137 139/139/139
f 139/139/139 140/140/140 138/138/138
f 140/140/140 139/139/139 141/141/141
f 141/141/141 142/142/142 140/140/140
f 142/142/142 141/141/141 143/143/143
f 143/143/143 144/144/144 142/142/142
f 144/144/144 143/143/143 145/145/145
f 145/145/145 146/146/146 144/144/144
f 146/146/146 145/145/145 147/147/147
f 147/147/147 148/148/148 146/146/146
f 148/148/148 147/147/147 149/149/149
f 149/149/149 150/150/150 148/148/148
f 150/150/150 149/149/149 151/151/151
f 151/151/151 152/152/152 150/150/150
f 153/153/153 152/152/152 151/151/151
f 151/151/151 154/154/154 153/153/153
f 153/153/153 154/154/154 155/155/155
f 155/155/155 156/156/156 153/153/153
f 156/156/156 155/155/155 157/157/157
f 157/157/157 158/158/158 156/156/156
f 159/159/159 158/158/158 157/157/157
f 157/157/157 160/160/160 159/159/159
f 159/159/159 160/160/160 161/161/161
f 161/161/161 162/162/162 159/159/159
f 162/162/162 161/161/161 163/163/163
f 163/163/163 164/164/164 162/162/162
f 164/164/164 163/163/163 165/165/165
f 165/165/165 166/166/166 164/164/164
f 166/166/166 165/165/165 167/167/167
f 167/167/167 168/168/168 166/166/166
f 168/168/168 167/167/167 169/169/169
f 169/169/169 170/170/170 168/168/168
f 170/170/170 169/169/169 171/171/171
f 171/171/171 172/172/172 170/170/170
f 172/172/172 171/171/171 173/173/173
f 173/173/173 174/174/174 172/172/172
f 174/174/174 173/173/173 175/175/175
f 175/175/175 176/176/176 174/174/174
f 176/176/176 175/175/175 177/177/177
f 177/177/177 178/178/178 176/176/176
f 178/178/178 177/177/177 179/179/179
f 179/179/179 180/180/180 178/178/178
f 180/180/180 179/179/179 123/123/123
f 123/123/123 122/122/122 180/180/180
f 181/181/181 182/182/182 183/183/183
f 183/183/183 184/184/184 181/181/181
f 184/184/184 183/183/183 185/185/185
f 185/185/185 186/186/186 184/184/184
f 186/186/186 185/185/185 187/187/187
f 187/187/187 188/188/188 186/186/186
f 188/188/188 187/187/187 189/189/189
f 189/189/189 190/190/190 188/188/188
f 190/190/190 189/189/189 191/191/191
f 191/191/191 192/192/192 190/190/190
f 192/192/192 191/191/191 193/193/193
f 193/193/193 194/194/194 192/192/192
f 195/195/195 196/196/196 197/197/197
f 197/197/197 198/198/198 195/195/195
f 198/198/198 197/197/197 199/199/199
f 199/199/199 200/200/200 198/198/198
f 200/200/200 199/199/199 201/201/201
f 201/201/201 202/202/202 200/200/200
f 202/202/202 201/201/201 203/203/203
f 203/203/203 204/204/204 202/202/202
f 204/204/204 203/203/203 205/205/205
f 205/205/205 206/206/206 204/204/204
f 206/206/206 205/205/205 207/207/207
f 207/207/207 208/208/208 206/206/206
f 209/209/209 210/210/210 211/211/211
f 211/211/211 212/212/212 209/209/209
f 212/212/212 211/211/211 213/213/213
f 213/213/213 214/214/214 212/212/212
f 214/214/214 213/213/213 215/215/215
f 215/215/215 216/216/216 214/214/214
f 216/216/216 215/215/215 217/217/217
f 217/217/217 218/218/218 216/216/216
f 218/218/218 217/217/217 219/219/219
f 219/219/219 220/220/220 218/218/218
f 220/220/220 219/219/219 221/221/221
f 221/221/221 222/222/222 220/220/220
f 222/222/222 221/221/221 223/223/223
f 223/223/223 224/224/224 222/222/222
f 224/224/224 223/223/223 225/225/225
f 225/225/225 226/226/226 224/224/224
f 226/226/226 225/225/225 227/227/227
f 227/227/227 228/228/228 226/226/226
f 229/229/229 230/230/230 231/231/231
f 231/231/231 232/232/232 229/229/229
f 232/232/232 231/231/231 233/233/233
f 233/233/233 234/234/234 232/232/232
f 234/234/234 233/233/233 235/235/235
f 235/235/235 236/236/236 234/234/234
f 236/236/236 235/235/235 237/237/237
f 237/237/237 238/238/238 236/236/236
f 238/238/238 237/237/237 239/239/239
f 239/239/239 240/240/240 238/238/238
f 240/240/240 239/239/239 241/241/241
f 241/241/241 242/242/242 240/240/240
f 243/243/243 244/244/244 245/245/245
f 245/245/245 246/246/246 243/243/243
f 246/246/246 245/245/245 247/247/247
f 247/247/247 248/248/248 246/246/246
f 248/248/248 247/247/247 182/182/182
f 182/182/182 181/181/181 248/248/248
f 249/249/249 250/250/250 251/251/251
f 251/251/251 252/252/252 249/249/249
f 252/252/252 251/251/251 253/253/253
f 253/253/253 254/254/254 252/252/252
f 254/254/254 253/253/253 255/255/255
f 255/255/255 256/256/256 254/254/254
f 256/256/256 255/255/255 257/257/257
f 257/257/257 258/258/258 256/256/256
f 259/259/259 260/260/260 261/261/261
f 261/261/261 262/262/262 259/259/259
f 262/262/262 261/261/261 263/263/263
f 263/263/263 264/264/264 262/262/262
f 264/264/264 263/263/263 265/265/265
f 265/265/265 266/266/266 264/264/264
f 266/266/266 265/265/265 267/267/267
f 267/267/267 268/268/268 266/266/266
f 268/268/268 267/267/267 269/269/269
f 269/269/269 270/270/270 268/268/268
f 270/270/270 269/269/269 271/271/271
f 271/271/271 272/272/272 270/270/270
f 273/273/273 274/274/274 275/275/275
f 275/275/275 276/276/276 273/273/273
f 276/276/276 275/275/275 277/277/277
f 277/277/277 278/278/278 276/276/276
f 278/278/278 277/277/277 279/279/279
f 279/279/279 280/280/280 278/278/278
f 280/280/280 279/279/279 281/281/281
f 281/281/281 282/282/282 280/280/280
f 282/282/282 281/281/281 283/283/283
f 283/283/283 284/284/284 282/282/282
f 284/284/284 283/283/283 285/285/285
f 285/285/285 286/286/286 284/284/284
f 286/286/286 285/285/285 287/287/287
f 287/287/287 288/288/288 286/286/286
f 288/288/288 287/287/287 289/289/289
f 289/289/289 290/290/290 288/288/288
f 290/290/290 289/289/289 291/291/291
f 291/291/291 292/292/292 290/290/290
f 293/293/293 294/294/294 295/295/295
f 295/295/295 296/296/296 293/293/293
f 296/296/296 295/295/295 297/297/297
f 297/297/297 298/298/298 296/296/296
f 298/298/298 297/297/297 299/299/299
f 299/299/299 300/300/300 298/298/298
f 300/300/300 299/299/299 301/301/301
f 301/301/301 302/302/302 300/300/300
f 302/302/302 301/301/301 303/303/303
f 303/303/303 304/304/304 302/302/302
f 304/304/304 303/303/303 305/305/305
f 305/305/305 306/306/306 304/304/304
f 307/307/307 308/308/308 309/309/309
f 309/309/309 310/310/310 307/307/307
f 310/310/310 309/309/309 311/311/311
f 311/311/311 312/312/312 310/310/310
f 312/312/312 311/311/311 313/313/313
f 313/313/313 314/314/314 312/312/312
f 314/314/314 313/313/313 315/315/315
f 315/315/315 316/316/316 314/314/314
f 316/316/316 315/315/315 250/250/250
f 250/250/250 249/249/249 316/316/316
f 317/317/317 318/318/318 319/319/319
f 319/319/319 320/320/320 317/317/317
f 321/321/321 322/322/322 323/323/323
f 323/323/323 324/324/324 321/321/321
f 325/325/325 326/326/326 327/327/327
f 327/327/327 328/328/328 325/325/325
f 329/329/329 330/330/330 331/331/331
f 331/331/331 332/332/332 329/329/329
f 333/333/333 334/334/334 335/335/335
f 335/335/335 336/336/336 333/333/333
f 337/337/337 338/338/338 339/339/339
f 339/339/339 340/340/340 337/337/337
f 341/341/341 342/342/342 343/343/343
f 343/343/343 344/344/344 341/341/341
f 345/345/345 346/346/346 347/347/347
f 347/347/347 348/348/348 345/345/345
