# Converted from an open-license Objaverse GLB by Critter Engine
v -0.3881723 -1.1825135 0.7196061
v -0.3881723 -1.1625175 0.7172315
v 0.4241651 -1.1625175 0.7172315
v 0.4241651 -1.1825135 0.7196061
v 0.4241651 -1.2008848 0.7262297
v -0.3881723 -1.2008848 0.7262297
v 0.4241651 -1.2171316 0.7364777
v -0.3881723 -1.2171316 0.7364777
v 0.4241651 -1.2307539 0.7501
v -0.3881723 -1.2307539 0.7501
v 0.4241651 -1.2410018 0.7663467
v -0.3881723 -1.2410018 0.7663467
v 0.4241651 -1.2476255 0.784718
v -0.3881723 -1.2476255 0.784718
v 0.4241651 -1.25 0.804714
v -0.3881723 -1.25 0.804714
v 0.4241651 -1.2476255 0.824835
v -0.3881723 -1.2476255 0.824835
v 0.4241651 -1.2410018 0.8432064
v -0.3881723 -1.2410018 0.8432064
v 0.4241651 -1.2307539 0.859453
v -0.3881723 -1.2307539 0.859453
v -0.3881723 -1.2171316 0.8729504
v 0.4241651 -1.2171316 0.8729504
v -0.3881723 -1.2008848 0.8833233
v 0.4241651 -1.2008848 0.8833233
v 0.4241651 -1.1825135 0.889947
v -0.3881723 -1.1825135 0.889947
v 0.4241651 -1.1625175 0.8921966
v -0.3881723 -1.1625175 0.8921966
v 0.4241651 1.1625174 0.8921966
v -0.3881723 1.1625174 0.8921966
v -0.3881723 1.1826384 0.889947
v 0.4241651 1.1826384 0.889947
v 0.4241651 1.2010097 0.8833233
v -0.3881723 1.2010097 0.8833233
v -0.3881723 1.2172565 0.8729504
v 0.4241651 1.2172565 0.8729504
v 0.4241651 1.2308788 0.859453
v -0.3881723 1.2308788 0.859453
v 0.4241651 1.2411267 0.8432064
v -0.3881723 1.2411267 0.8432064
v 0.4241651 1.2477504 0.824835
v -0.3881723 1.2477504 0.824835
v 0.4241651 1.25 0.804714
v -0.3881723 1.25 0.804714
v 0.4241651 1.2477504 0.784718
v -0.3881723 1.2477504 0.784718
v 0.4241651 1.2411267 0.7663467
v -0.3881723 1.2411267 0.7663467
v 0.4241651 1.2308788 0.7501
v -0.3881723 1.2308788 0.7501
v 0.4241651 1.2172565 0.7364777
v -0.3881723 1.2172565 0.7364777
v 0.4241651 1.2010097 0.7262297
v -0.3881723 1.2010097 0.7262297
v -0.3881723 1.1826384 0.7196061
v 0.4241651 1.1826384 0.7196061
v 0.4241651 1.1625174 0.7172315
v -0.3881723 1.1625174 0.7172315
v 0.4241651 -1.1625175 0.7172315
v -0.3881723 -1.1625175 0.7172315
v -0.3881723 1.1625174 0.7172315
v 0.4241651 1.1625174 0.7172315
vt 0.2937 0.0086
vt 0.2937 0.0015
vt 0.0072 0.0015
vt 0.0072 0.0086
vt 0.0072 0.0151
vt 0.2937 0.0151
vt 0.0072 0.0208
vt 0.2937 0.0208
vt 0.0072 0.0256
vt 0.2937 0.0256
vt 0.0072 0.0313
vt 0.2937 0.0313
vt 0.0072 0.0378
vt 0.2937 0.0378
vt 0.0072 0.0449
vt 0.2937 0.0449
vt 0.0072 0.052
vt 0.2937 0.052
vt 0.0072 0.0585
vt 0.2937 0.0585
vt 0.0072 0.0642
vt 0.2937 0.0642
vt 0.2937 0.069
vt 0.0072 0.069
vt 0.2937 0.0747
vt 0.0072 0.0747
vt 0.0072 0.0812
vt 0.2937 0.0812
vt 0.0072 0.0883
vt 0.2937 0.0883
vt 0.0072 0.9081
vt 0.2937 0.9081
vt 0.2937 0.9151
vt 0.0072 0.9151
vt 0.0072 0.9216
vt 0.2937 0.9216
vt 0.2937 0.9273
vt 0.0072 0.9273
vt 0.0072 0.9321
vt 0.2937 0.9321
vt 0.0072 0.9379
vt 0.2937 0.9379
vt 0.0072 0.9443
vt 0.2937 0.9443
vt 0.0072 0.9514
vt 0.2937 0.9514
vt 0.0072 0.9585
vt 0.2937 0.9585
vt 0.0072 0.965
vt 0.2937 0.965
vt 0.0072 0.9707
vt 0.2937 0.9707
vt 0.0072 0.9755
vt 0.2937 0.9755
vt 0.0072 0.9812
vt 0.2937 0.9812
vt 0.2937 0.9877
vt 0.0072 0.9877
vt 0.0072 0.9948
vt 0.2937 0.9948
vt 0.2938 0.8999
vt 0.5774 0.8999
vt 0.5774 0.0883
vt 0.2938 0.0883
vn 0 -0.2272106 -0.9738456
vn 0 -0.0573972 -0.9983514
vn 0 -0.0573972 -0.9983514
vn 0 -0.2272106 -0.9738456
vn 0 -0.4395168 -0.8982344
vn 0 -0.4395168 -0.8982344
vn 0 -0.6256823 -0.780078
vn 0 -0.6256823 -0.780078
vn 0 -0.780078 -0.6256823
vn 0 -0.780078 -0.6256823
vn 0 -0.8982344 -0.4395168
vn 0 -0.8982344 -0.4395168
vn 0 -0.9738456 -0.2272106
vn 0 -0.9738456 -0.2272106
vn 0 -1 0
vn 0 -1 0
vn 0 -0.9738456 0.2272106
vn 0 -0.9738456 0.2272106
vn 0 -0.8982344 0.4395168
vn 0 -0.8982344 0.4395168
vn 0 -0.780078 0.6256823
vn 0 -0.780078 0.6256823
vn 0 -0.6256823 0.780078
vn 0 -0.6256823 0.780078
vn 0 -0.4395168 0.8982344
vn 0 -0.4395168 0.8982344
vn 0 -0.2272106 0.9738456
vn 0 -0.2272106 0.9738456
vn 0 -0.0573972 0.9983514
vn 0 -0.0573972 0.9983514
vn 0 0.0573972 0.9983514
vn 0 0.0573972 0.9983514
vn 0 0.2272106 0.9738456
vn 0 0.2272106 0.9738456
vn 0 0.4395168 0.8982344
vn 0 0.4395168 0.8982344
vn 0 0.6256823 0.780078
vn 0 0.6256823 0.780078
vn 0 0.780078 0.6256823
vn 0 0.780078 0.6256823
vn 0 0.8982344 0.4395168
vn 0 0.8982344 0.4395168
vn 0 0.9738456 0.2272106
vn 0 0.9738456 0.2272106
vn 0 1 0
vn 0 1 0
vn 0 0.9738456 -0.2272106
vn 0 0.9738456 -0.2272106
vn 0 0.8982344 -0.4395168
vn 0 0.8982344 -0.4395168
vn 0 0.780078 -0.6256823
vn 0 0.780078 -0.6256823
vn 0 0.6256823 -0.780078
vn 0 0.6256823 -0.780078
vn 0 0.4395168 -0.8982344
vn 0 0.4395168 -0.8982344
vn 0 0.2272106 -0.9738456
vn 0 0.2272106 -0.9738456
vn 0 0.0573972 -0.9983514
vn 0 0.0573972 -0.9983514
vn 0 -0.0573972 -0.9983514
vn 0 -0.0573972 -0.9983514
vn 0 0.0573972 -0.9983514
vn 0 0.0573972 -0.9983514
f 1/1/1 2/2/2 3/3/3
f 3/3/3 4/4/4 1/1/1
f 4/4/4 5/5/5 6/6/6
f 6/6/6 1/1/1 4/4/4
f 7/7/7 8/8/8 6/6/6
f 6/6/6 5/5/5 7/7/7
f 9/9/9 10/10/10 8/8/8
f 8/8/8 7/7/7 9/9/9
f 11/11/11 12/12/12 10/10/10
f 10/10/10 9/9/9 11/11/11
f 13/13/13 14/14/14 12/12/12
f 12/12/12 11/11/11 13/13/13
f 13/13/13 15/15/15 16/16/16
f 16/16/16 14/14/14 13/13/13
f 15/15/15 17/17/17 18/18/18
f 18/18/18 16/16/16 15/15/15
f 17/17/17 19/19/19 20/20/20
f 20/20/20 18/18/18 17/17/17
f 21/21/21 22/22/22 20/20/20
f 20/20/20 19/19/19 21/21/21
f 23/23/23 22/22/22 21/21/21
f 21/21/21 24/24/24 23/23/23
f 25/25/25 23/23/23 24/24/24
f 24/24/24 26/26/26 25/25/25
f 27/27/27 28/28/28 25/25/25
f 25/25/25 26/26/26 27/27/27
f 28/28/28 27/27/27 29/29/29
f 29/29/29 30/30/30 28/28/28
f 31/31/31 32/32/32 30/30/30
f 30/30/30 29/29/29 31/31/31
f 33/33/33 32/32/32 31/31/31
f 31/31/31 34/34/34 33/33/33
f 35/35/35 36/36/36 33/33/33
f 33/33/33 34/34/34 35/35/35
f 37/37/37 36/36/36 35/35/35
f 35/35/35 38/38/38 37/37/37
f 38/38/38 39/39/39 40/40/40
f 40/40/40 37/37/37 38/38/38
f 41/41/41 42/42/42 40/40/40
f 40/40/40 39/39/39 41/41/41
f 43/43/43 44/44/44 42/42/42
f 42/42/42 41/41/41 43/43/43
f 45/45/45 46/46/46 44/44/44
f 44/44/44 43/43/43 45/45/45
f 47/47/47 48/48/48 46/46/46
f 46/46/46 45/45/45 47/47/47
f 47/47/47 49/49/49 50/50/50
f 50/50/50 48/48/48 47/47/47
f 49/49/49 51/51/51 52/52/52
f 52/52/52 50/50/50 49/49/49
f 51/51/51 53/53/53 54/54/54
f 54/54/54 52/52/52 51/51/51
f 55/55/55 56/56/56 54/54/54
f 54/54/54 53/53/53 55/55/55
f 57/57/57 56/56/56 55/55/55
f 55/55/55 58/58/58 57/57/57
f 59/59/59 60/60/60 57/57/57
f 57/57/57 58/58/58 59/59/59
f 61/61/61 62/62/62 63/63/63
f 63/63/63 64/64/64 61/61/61
