# Blender 4.0.0
# www.blender.org
o decimated_mesh
v -0.407937 0.170212 0.221219
v -0.344766 0.202274 0.198261
v -0.439840 0.137511 0.258771
v 0.407367 0.170632 0.221315
v 0.342817 0.202275 0.198016
v 0.437882 0.138123 0.256899
v -0.440937 0.137486 0.273884
v -0.441189 0.202267 0.261072
v -0.408680 0.202274 0.220154
v 0.440725 0.137504 0.273367
v -0.441596 0.202274 0.274071
v 0.407890 0.202274 0.220154
v 0.442939 0.202248 0.269774
vn 0.0004 -0.5924 -0.8056
vn -0.0009 -0.7538 -0.6571
vn -0.9995 -0.0101 -0.0313
vn 0.0006 -0.9993 -0.0377
vn 0.0006 -0.0029 1.0000
vn -0.3238 -0.0389 -0.9453
vn -0.7824 -0.0388 -0.6216
vn 0.8163 -0.0347 -0.5766
vn 0.3218 -0.0400 -0.9460
vn -0.0003 -0.5818 -0.8133
vn 0.9842 -0.0432 -0.1715
vn -0.0002 1.0000 0.0007
vn -0.0000 1.0000 -0.0000
vn -0.0010 1.0000 -0.0006
vn -0.0000 1.0000 0.0003
vn 0.0005 -0.7381 -0.6747
vn -0.9972 -0.0182 -0.0725
vn -0.0000 -1.0000 -0.0017
vn 0.0049 0.0552 0.9985
vn -0.7651 0.0069 -0.6439
vn 0.7849 0.0619 -0.6165
vn 0.7417 -0.0368 -0.6697
vn -0.7443 -0.0394 -0.6667
vn -0.7830 0.0058 -0.6220
vn -0.0000 1.0000 0.0005
vn 0.8157 0.0514 -0.5762
s 0
f 1//1 5//1 4//1
f 1//2 6//2 3//2
f 8//3 7//3 11//3
f 3//4 6//4 10//4
f 7//5 10//5 11//5
f 2//6 1//6 9//6
f 1//7 8//7 9//7
f 13//8 4//8 12//8
f 4//9 5//9 12//9
f 1//10 2//10 5//10
f 10//11 6//11 13//11
f 12//12 5//12 13//12
f 5//13 2//13 11//13
f 2//13 9//13 11//13
f 9//14 8//14 11//14
f 11//15 13//15 5//15
f 1//16 4//16 6//16
f 8//17 3//17 7//17
f 10//18 7//18 3//18
f 13//19 11//19 10//19
f 1//20 3//20 8//20
f 13//21 6//21 4//21
f 2//13 9//13 5//13
f 9//13 11//13 5//13
f 11//13 12//13 5//13
f 12//22 6//22 4//22
f 3//23 9//23 1//23
f 3//24 8//24 9//24
f 13//25 12//25 11//25
f 13//26 6//26 12//26
