# Blender 4.0.0
# www.blender.org
o decimated_mesh
v -0.339702 1.756107 0.257079
v -0.339702 1.756918 0.274068
v -0.439360 1.756189 0.257910
v -0.339702 1.724611 0.220341
v -0.440977 1.756383 0.273847
v -0.339698 1.721063 0.274517
v -0.339713 1.692516 0.196494
v -0.409284 1.725464 0.222179
v -0.404505 1.660127 0.274276
v -0.339693 1.671050 0.197527
v -0.370210 1.685949 0.196594
v -0.441210 1.660131 0.261083
v -0.379415 1.660140 0.196498
v -0.441612 1.660130 0.274068
v -0.355818 1.660124 0.196922
v -0.408757 1.660130 0.220126
vn -0.9995 0.0065 -0.0309
vn -0.0048 0.7562 -0.6543
vn -0.4264 0.1554 -0.8911
vn -0.7837 0.0132 -0.6210
vn 0.0001 1.0000 -0.0000
vn -0.1033 0.4666 -0.8784
vn 0.6182 -0.6591 0.4282
vn 0.0004 0.9989 -0.0477
vn 0.5214 -0.7877 0.3282
vn -0.9948 0.0158 -0.1011
vn -0.0079 0.7592 -0.6508
vn -0.0139 0.5964 -0.8026
vn -0.7677 -0.0064 -0.6407
vn -0.0006 -1.0000 -0.0012
vn 0.0001 1.0000 0.0001
vn -0.0334 -0.0059 0.9994
vn -0.0180 0.0027 0.9998
vn -0.0071 0.0480 0.9988
vn 1.0000 0.0009 -0.0017
vn 1.0000 0.0001 -0.0001
vn 1.0000 0.0001 -0.0000
vn 1.0000 0.0002 -0.0000
vn -0.6271 0.0194 -0.7787
vn -0.0053 0.9999 -0.0127
vn -0.0056 0.0023 1.0000
vn -0.0058 0.0022 1.0000
vn -0.0022 0.0125 0.9999
vn -0.0058 0.0023 1.0000
vn -0.0056 0.0020 1.0000
vn -0.0048 0.7592 -0.6509
vn -0.0081 0.7548 -0.6559
vn -0.7589 0.0143 -0.6511
vn -0.7838 -0.0054 -0.6210
vn -0.0698 0.0479 0.9964
vn 0.0002 1.0000 0.0001
vn -0.0179 0.0221 0.9996
vn 0.0044 -0.0053 1.0000
s 0
f 5//1 12//1 14//1
f 1//2 8//2 3//2
f 8//3 11//3 13//3
f 12//4 8//4 16//4
f 12//5 9//5 16//5
f 11//6 8//6 7//6
f 6//7 9//7 10//7
f 2//8 1//8 3//8
f 15//9 10//9 9//9
f 5//10 3//10 12//10
f 1//11 4//11 8//11
f 7//12 8//12 4//12
f 12//13 3//13 8//13
f 16//14 13//14 15//14
f 15//5 16//5 9//5
f 9//15 12//15 14//15
f 10//16 11//16 15//16
f 13//17 15//17 11//17
f 11//18 10//18 7//18
f 7//19 4//19 10//19
f 4//20 1//20 6//20
f 1//21 2//21 6//21
f 6//22 10//22 4//22
f 16//23 8//23 13//23
f 5//24 2//24 3//24
f 5//25 14//25 9//25
f 9//26 6//26 5//26
f 6//27 2//27 5//27
f 5//28 14//28 6//28
f 14//29 9//29 6//29
f 4//30 3//30 1//30
f 4//31 8//31 3//31
f 8//32 16//32 3//32
f 16//33 12//33 3//33
f 15//34 10//34 7//34
f 12//35 14//35 15//35
f 15//5 14//5 9//5
f 16//15 12//15 15//15
f 13//36 15//36 7//36
f 13//37 7//37 11//37
