# Blender 4.0.0
# www.blender.org
o Fridge_1_FridgeBodyMesh_daf6b078_3_collision_42
v -0.110119 0.203390 0.084112
v -0.110119 0.202280 0.198208
v -0.110119 0.225172 0.084112
v -0.076155 0.203370 0.084112
v -0.109855 0.202280 0.197471
v -0.110119 0.202280 0.231665
v -0.110119 0.225172 0.146924
v -0.076155 0.227471 0.084112
v -0.025627 0.203360 0.084112
v 0.328071 0.202280 0.197471
v -0.110119 0.210500 0.227043
v 0.334135 0.202280 0.231694
v 0.338748 0.205923 0.229657
v -0.110119 0.224068 0.162959
v -0.076155 0.227471 0.146924
v 0.075430 0.227204 0.084112
v -0.008799 0.203360 0.084112
v 0.142742 0.203427 0.084112
v 0.193315 0.203471 0.084112
v 0.328071 0.203617 0.084112
v 0.338748 0.202288 0.198136
v 0.338748 0.202280 0.217523
v 0.041730 0.203370 0.084112
v 0.092258 0.203390 0.084112
v -0.110119 0.210682 0.226927
v 0.338748 0.210756 0.226927
v 0.338748 0.202280 0.231694
v -0.110119 0.223762 0.165863
v -0.076155 0.225722 0.163754
v 0.075430 0.227204 0.130080
v 0.338748 0.221915 0.197442
v 0.125914 0.227069 0.146924
v 0.125914 0.227106 0.130080
v 0.125914 0.227106 0.084112
v 0.332641 0.203775 0.084112
v 0.338748 0.203987 0.084112
v -0.110119 0.217826 0.214287
v 0.338748 0.216623 0.218216
v 0.338748 0.218906 0.214171
v 0.338748 0.221890 0.084112
v 0.226971 0.226817 0.084112
v 0.226971 0.226817 0.130080
v 0.226971 0.226792 0.146924
v 0.176442 0.226960 0.146924
v 0.176442 0.226992 0.130080
v 0.176442 0.226992 0.084112
vn -1.0000 -0.0000 -0.0000
vn -0.0000 -0.0000 -1.0000
vn -0.0006 -1.0000 -0.0098
vn -0.0272 -0.9996 -0.0097
vn -0.0000 -1.0000 -0.0000
vn -0.0000 -1.0000 0.0001
vn -0.0675 0.9977 -0.0000
vn -0.0002 -1.0000 -0.0097
vn -0.0000 -1.0000 -0.0095
vn -0.0001 0.4882 0.8728
vn -0.0001 0.4902 0.8716
vn -0.0674 0.9954 0.0686
vn 0.0018 1.0000 -0.0000
vn 0.0009 -0.9999 -0.0116
vn 0.0011 -0.9999 -0.0118
vn 0.0014 -0.9999 -0.0118
vn 0.0007 -1.0000 -0.0004
vn 0.0002 -0.9999 -0.0101
vn 0.0004 -0.9999 -0.0106
vn 0.0007 -0.9999 -0.0113
vn -0.0001 0.4918 0.8707
vn -0.0001 0.5350 0.8448
vn -0.0000 0.4881 0.8728
vn 1.0000 -0.0000 -0.0000
vn -0.0508 0.9932 0.1046
vn -0.0508 0.9934 0.1032
vn 0.0007 0.9946 0.1033
vn 0.0020 0.9956 0.0932
vn 0.0020 1.0000 0.0022
vn 0.0020 1.0000 0.0018
vn 0.0020 1.0000 -0.0000
vn 0.0345 -0.9993 -0.0149
vn 0.0347 -0.9993 -0.0149
vn -0.0001 0.8294 0.5586
vn -0.0020 0.8706 0.4920
vn -0.0497 0.9913 0.1215
vn -0.0033 0.9883 0.1522
vn 0.0440 0.9990 -0.0002
vn 0.0438 0.9990 -0.0000
vn 0.0429 0.9991 0.0015
vn 0.0033 0.9960 0.0889
vn 0.0021 0.9957 0.0926
vn -0.0023 0.9842 0.1770
vn 0.0021 1.0000 0.0022
vn 0.0022 1.0000 0.0019
vn 0.0022 1.0000 -0.0000
vn -0.0020 0.8708 0.4916
vn 0.0035 1.0000 -0.0000
vn 0.0035 1.0000 0.0015
vn 0.0033 1.0000 0.0019
s 0
f 1//1 2//1 6//1
f 1//1 6//1 11//1
f 1//1 11//1 25//1
f 1//1 25//1 37//1
f 1//1 37//1 28//1
f 1//1 28//1 14//1
f 1//1 14//1 7//1
f 1//1 7//1 3//1
f 1//2 3//2 8//2
f 1//2 8//2 16//2
f 1//2 16//2 34//2
f 1//2 34//2 46//2
f 1//2 46//2 41//2
f 1//2 41//2 40//2
f 1//2 40//2 36//2
f 1//2 36//2 35//2
f 1//2 35//2 20//2
f 1//2 20//2 19//2
f 1//2 19//2 18//2
f 1//2 18//2 24//2
f 1//2 24//2 23//2
f 1//2 23//2 17//2
f 1//2 17//2 9//2
f 1//2 9//2 4//2
f 1//3 4//3 5//3
f 1//4 5//4 2//4
f 2//5 5//5 10//5
f 2//5 10//5 22//5
f 2//5 22//5 27//5
f 2//6 27//6 12//6
f 2//5 12//5 6//5
f 3//7 7//7 15//7
f 3//7 15//7 8//7
f 4//8 9//8 5//8
f 5//9 9//9 17//9
f 5//9 17//9 10//9
f 6//10 12//10 13//10
f 6//11 13//11 11//11
f 7//12 14//12 15//12
f 8//13 15//13 30//13
f 8//13 30//13 16//13
f 10//14 18//14 19//14
f 10//15 19//15 20//15
f 10//16 20//16 21//16
f 10//17 21//17 22//17
f 10//18 17//18 23//18
f 10//19 23//19 24//19
f 10//20 24//20 18//20
f 11//21 13//21 26//21
f 11//22 26//22 25//22
f 12//23 27//23 13//23
f 13//24 27//24 22//24
f 13//24 22//24 21//24
f 13//24 21//24 36//24
f 13//24 36//24 40//24
f 13//24 40//24 31//24
f 13//24 31//24 39//24
f 13//24 39//24 38//24
f 13//24 38//24 26//24
f 14//25 28//25 29//25
f 14//26 29//26 15//26
f 15//27 29//27 31//27
f 15//28 31//28 32//28
f 15//29 32//29 33//29
f 15//30 33//30 30//30
f 16//31 30//31 33//31
f 16//31 33//31 34//31
f 20//32 35//32 21//32
f 21//33 35//33 36//33
f 25//34 26//34 38//34
f 25//35 38//35 37//35
f 28//36 37//36 29//36
f 29//37 37//37 31//37
f 31//38 40//38 41//38
f 31//39 41//39 42//39
f 31//40 42//40 43//40
f 31//41 43//41 44//41
f 31//42 44//42 32//42
f 31//43 37//43 39//43
f 32//44 44//44 33//44
f 33//45 44//45 45//45
f 33//46 45//46 46//46
f 33//46 46//46 34//46
f 37//47 38//47 39//47
f 41//48 46//48 45//48
f 41//48 45//48 42//48
f 42//49 45//49 43//49
f 43//50 45//50 44//50
