# Blender 4.0.0
# www.blender.org
o decimated_mesh
v -0.440635 1.036916 0.260069
v -0.441618 1.036916 0.274071
v -0.441688 1.133688 0.273581
v -0.386439 1.036892 0.199621
v -0.439106 1.133523 0.257849
v -0.404483 1.036914 0.274281
v -0.348561 1.097790 0.274536
v -0.409448 1.102388 0.222228
v -0.350108 1.039720 0.197628
v -0.348561 1.134534 0.274071
v -0.348561 1.133458 0.258116
v -0.348561 1.101523 0.220257
v -0.348561 1.068971 0.197502
v -0.370922 1.061457 0.197545
vn 1.0000 -0.0000 -0.0000
vn -0.1400 0.4114 -0.9007
vn -0.7442 -0.0311 -0.6672
vn -0.0100 0.7643 -0.6447
vn -0.9867 0.0119 -0.1620
vn 0.0009 0.9977 -0.0673
vn -0.0184 0.5728 -0.8195
vn -0.0054 0.0126 0.9999
vn -0.3945 0.1729 -0.9025
vn -0.9997 0.0244 0.0017
vn -0.9958 0.0523 -0.0748
vn -0.7696 -0.0025 -0.6386
vn -0.0005 -0.0043 -1.0000
vn -0.0507 -0.0523 -0.9973
vn 0.0025 0.7539 -0.6569
vn -0.9975 -0.0011 -0.0701
vn -0.0000 1.0000 -0.0000
vn 0.0001 1.0000 -0.0003
vn 0.0786 -0.9967 0.0193
vn -0.0090 0.9999 -0.0120
vn -0.0056 0.0051 1.0000
vn -0.0088 0.0039 1.0000
vn 0.6586 -0.6069 0.4450
vn -0.0083 0.0051 1.0000
vn -1.0000 -0.0000 -0.0000
vn -0.0056 0.0010 1.0000
vn -0.9984 0.0527 -0.0197
vn 0.0025 0.7644 -0.6448
vn -0.0108 0.7484 -0.6632
vn 0.0005 1.0000 -0.0000
vn -0.0000 1.0000 -0.0003
s 0
f 11//1 10//1 7//1
f 14//2 8//2 13//2
f 1//3 8//3 4//3
f 8//4 11//4 12//4
f 1//5 3//5 5//5
f 5//6 10//6 11//6
f 8//7 12//7 13//7
f 7//8 10//8 3//8
f 8//9 14//9 4//9
f 7//10 12//10 9//10
f 13//11 9//11 12//11
f 12//1 11//1 7//1
f 1//12 5//12 8//12
f 13//13 9//13 14//13
f 4//14 14//14 9//14
f 8//15 5//15 11//15
f 3//16 1//16 2//16
f 6//17 1//17 2//17
f 1//18 6//18 4//18
f 9//19 6//19 4//19
f 5//20 3//20 10//20
f 3//21 2//21 6//21
f 6//22 7//22 3//22
f 7//23 6//23 9//23
f 2//24 7//24 3//24
f 13//25 7//25 12//25
f 2//26 6//26 7//26
f 9//27 7//27 13//27
f 11//28 12//28 5//28
f 12//29 8//29 5//29
f 4//30 1//30 2//30
f 4//31 2//31 6//31
