# Blender 4.0.0
# www.blender.org
o decimated_mesh
v -0.352165 1.069881 0.197484
v -0.349632 1.069069 0.084105
v -0.361652 0.636676 0.197494
v -0.370813 0.636608 0.084098
v -0.377169 1.048903 0.084111
v -0.377357 1.049031 0.197494
v -0.380440 0.636699 0.197470
vn -1.0000 0.0075 -0.0017
vn -0.5907 0.8066 -0.0190
vn -0.0013 -0.0000 1.0000
vn 0.0004 -0.0000 1.0000
vn -0.0012 -1.0000 0.0007
vn 0.9995 -0.0219 0.0225
vn 0.9956 -0.0488 -0.0804
vn -0.0002 -0.0000 -1.0000
vn -0.9963 -0.0154 -0.0846
vn -0.6376 0.7704 -0.0019
s 0
f 5//1 7//1 6//1
f 5//2 1//2 2//2
f 6//3 7//3 3//3
f 3//4 1//4 6//4
f 7//5 4//5 3//5
f 1//6 3//6 2//6
f 3//7 4//7 2//7
f 2//8 4//8 5//8
f 5//9 4//9 7//9
f 5//10 6//10 1//10
