# Blender 4.0.0
# www.blender.org
o decimated_mesh
v 0.437929 1.756002 0.256916
v 0.440949 1.756127 0.273475
v 0.314080 1.757293 0.273966
v 0.407501 1.724281 0.221061
v 0.314081 1.755659 0.256385
v 0.440830 1.663695 0.274072
v 0.439823 1.663695 0.260020
v 0.407960 1.663695 0.220121
v 0.377842 1.662413 0.208708
v 0.314223 1.712122 0.211316
v 0.314079 1.721031 0.274512
v 0.403858 1.663684 0.274352
v 0.313910 1.676522 0.210225
vn -0.2120 -0.9718 0.1028
vn -0.0212 0.7190 -0.6947
vn 0.7813 0.0156 -0.6239
vn 0.9974 -0.0017 -0.0715
vn 0.3537 0.0172 -0.9352
vn 0.0823 0.1570 -0.9842
vn -0.4640 -0.7278 0.5051
vn 0.0062 0.0070 1.0000
vn 0.9837 0.0141 -0.1795
vn -0.0169 0.0308 -0.9994
vn 0.0008 0.7486 -0.6630
vn 0.7650 -0.0060 -0.6440
vn 0.0092 0.9999 -0.0092
vn 1.0000 -0.0000 0.0001
vn 1.0000 0.0011 0.0021
vn 1.0000 -0.0089 0.0035
vn -0.0414 0.9991 -0.0029
vn -0.0002 1.0000 0.0002
vn -0.0003 1.0000 -0.0000
vn -0.0024 0.9957 -0.0925
vn 0.0076 0.0065 1.0000
vn 0.0040 0.0151 0.9999
vn 1.0000 -0.0023 0.0003
vn 1.0000 -0.0001 -0.0026
vn 0.9999 -0.0092 0.0120
vn 0.7814 -0.0050 -0.6240
vn 0.7554 0.0159 -0.6551
vn -0.0004 0.9998 -0.0192
vn -0.0608 0.9970 0.0486
vn -0.0220 0.9998 0.0016
s 0
f 9//1 12//1 13//1
f 5//2 4//2 10//2
f 4//3 7//3 8//3
f 2//4 6//4 7//4
f 9//5 4//5 8//5
f 9//6 10//6 4//6
f 12//7 11//7 13//7
f 11//8 12//8 2//8
f 7//9 1//9 2//9
f 13//10 10//10 9//10
f 5//11 1//11 4//11
f 4//12 1//12 7//12
f 3//13 2//13 1//13
f 5//14 3//14 11//14
f 5//15 11//15 10//15
f 11//16 13//16 10//16
f 9//17 12//17 8//17
f 8//18 12//18 7//18
f 7//19 12//19 6//19
f 5//20 3//20 1//20
f 12//21 6//21 2//21
f 3//22 11//22 2//22
f 5//23 3//23 13//23
f 13//24 3//24 11//24
f 10//25 5//25 13//25
f 7//26 8//26 1//26
f 8//27 4//27 1//27
f 6//28 9//28 12//28
f 8//29 9//29 7//29
f 7//30 9//30 6//30
