# Blender 4.0.0
# www.blender.org
o decimated_mesh
v 0.344678 1.490330 -0.165776
v 0.344468 1.665660 -0.164730
v 0.355035 1.653973 -0.164763
v 0.355148 1.490313 -0.164725
v 0.372201 1.665831 -0.151621
v 0.360894 1.490313 0.084088
v 0.349941 1.665893 0.084088
v 0.379145 1.490313 0.084088
v 0.377135 1.665675 0.084088
v 0.373031 1.490313 -0.151781
v 0.378278 1.490313 -0.136151
v 0.376746 1.665742 -0.134170
vn 0.6063 0.0036 -0.7952
vn -0.0034 -0.0002 -1.0000
vn -0.0098 0.9999 0.0077
vn 0.9999 0.0115 -0.0018
vn -0.0000 -1.0000 -0.0001
vn 0.9677 0.0113 -0.2520
vn 0.9979 0.0016 -0.0648
vn -0.0000 -0.0000 1.0000
vn 0.3967 0.3611 -0.8440
vn 0.5863 0.0002 -0.8101
vn 0.0999 0.0061 -0.9950
vn -0.0017 1.0000 -0.0009
vn 0.0080 1.0000 0.0003
vn 1.0000 0.0088 -0.0039
vn -0.0000 -1.0000 -0.0000
vn 0.0018 1.0000 -0.0014
vn 0.0005 1.0000 -0.0000
vn 0.9480 0.0048 -0.3183
vn 0.9978 0.0622 -0.0220
vn -0.0000 1.0000 -0.0000
vn 0.0186 0.9998 0.0003
vn 0.9960 0.0621 -0.0646
vn 0.0016 1.0000 -0.0000
vn 0.0999 -0.0002 -0.9950
vn -0.0058 1.0000 -0.0008
vn 0.0080 1.0000 0.0005
vn 0.9998 0.0013 -0.0220
vn 0.0034 0.0060 -1.0000
s 0
f 10//1 3//1 5//1
f 4//2 2//2 3//2
f 2//3 12//3 5//3
f 8//4 12//4 9//4
f 4//5 10//5 11//5
f 11//6 5//6 12//6
f 1//7 2//7 6//7
f 9//8 7//8 6//8
f 2//9 5//9 3//9
f 10//10 4//10 3//10
f 1//11 2//11 4//11
f 2//12 7//12 12//12
f 7//13 9//13 12//13
f 8//14 11//14 12//14
f 11//15 8//15 6//15
f 11//16 4//16 1//16
f 6//17 11//17 1//17
f 10//18 5//18 11//18
f 6//19 2//19 7//19
f 6//8 8//8 9//8
f 6//20 11//20 4//20
f 5//21 9//21 12//21
f 7//22 6//22 1//22
f 1//23 6//23 4//23
f 1//24 3//24 4//24
f 2//25 7//25 5//25
f 7//26 9//26 5//26
f 2//27 7//27 1//27
f 2//28 3//28 1//28
