# Blender 4.0.0
# www.blender.org
o decimated_mesh
v -0.443410 0.636675 0.272757
v -0.444123 1.036891 0.269936
v -0.388232 0.636700 0.200024
v -0.384453 1.036915 0.198408
v -0.361626 0.636675 0.197502
v -0.356891 1.036922 0.199380
v -0.403903 0.636676 0.273844
v -0.403903 1.036916 0.273844
v -0.366775 0.636677 0.219768
vn -0.0000 1.0000 0.0003
vn -0.0944 -0.0031 -0.9955
vn -0.7679 0.0047 -0.6406
vn -0.0967 0.0068 0.9953
vn 0.9742 -0.0126 0.2253
vn 0.8456 0.0063 0.5338
vn 0.0010 1.0000 0.0001
vn 0.0007 1.0000 0.0005
vn 0.0352 0.0043 -0.9994
vn -0.0003 1.0000 -0.0001
vn -0.0006 1.0000 -0.0002
vn -0.7967 -0.0057 -0.6044
vn -0.0275 -0.0000 0.9996
vn 0.8244 -0.0000 0.5660
vn -0.0006 1.0000 -0.0003
vn -0.0003 1.0000 0.0001
vn 0.0011 1.0000 0.0012
vn -0.0000 1.0000 -0.0000
vn -0.0002 1.0000 -0.0001
s 0
f 1//1 7//1 3//1
f 5//2 3//2 4//2
f 3//3 2//3 4//3
f 1//4 8//4 2//4
f 5//5 6//5 9//5
f 8//6 9//6 6//6
f 3//7 9//7 5//7
f 9//8 3//8 7//8
f 4//9 6//9 5//9
f 8//10 6//10 4//10
f 4//11 2//11 8//11
f 3//12 1//12 2//12
f 1//13 7//13 8//13
f 8//14 7//14 9//14
f 8//15 6//15 2//15
f 6//16 4//16 2//16
f 5//17 3//17 1//17
f 5//18 1//18 7//18
f 5//19 7//19 9//19
