# Blender 4.0.0
# www.blender.org
o decimated_mesh
v 0.439819 1.322175 0.260011
v 0.439457 1.229775 0.261969
v 0.440826 1.322177 0.274073
v 0.439905 1.228985 0.273947
v 0.395453 1.250412 0.223332
v 0.408218 1.262623 0.221382
v 0.385359 1.322208 0.199652
v 0.403639 1.322179 0.274280
v 0.344788 1.250447 0.223319
v 0.344783 1.287832 0.197696
v 0.373108 1.297211 0.197701
v 0.344738 1.254794 0.274580
v 0.344780 1.225570 0.271131
v 0.359383 1.322177 0.197697
v 0.363787 1.322176 0.218478
v 0.344709 1.309168 0.198190
vn -1.0000 -0.0034 -0.0048
vn 0.4002 -0.5370 -0.7426
vn 0.9992 -0.0098 -0.0380
vn 0.0058 0.8848 0.4660
vn 0.0378 -0.9970 -0.0672
vn 0.1403 -0.4232 -0.8951
vn 0.7419 0.0405 -0.6693
vn -0.7608 0.5286 0.3765
vn 1.0000 0.0013 0.0009
vn 1.0000 0.0017 0.0008
vn 0.0001 1.0000 -0.0001
vn 0.0002 1.0000 0.0003
vn -0.0012 1.0000 0.0003
vn -0.0009 1.0000 0.0006
vn 0.4469 -0.1502 -0.8819
vn 0.9974 -0.0054 -0.0714
vn 0.0005 0.8871 0.4616
vn 0.2282 -0.3816 -0.8957
vn 0.0749 0.0410 -0.9963
vn 0.0225 0.0125 0.9997
vn 0.0075 -0.0231 0.9997
vn -0.6543 0.7434 0.1387
vn -0.0002 -0.5653 -0.8249
vn -0.0252 -0.1172 0.9928
vn 0.0056 -0.0014 1.0000
vn 0.0064 -0.0011 1.0000
vn 0.7860 -0.0162 -0.6180
vn -0.6623 0.5810 0.4730
vn 0.0539 -0.0229 0.9983
vn 1.0000 0.0018 0.0011
vn 1.0000 0.0014 0.0006
vn -0.0002 -0.0000 1.0000
vn 0.0005 0.8823 0.4707
vn 0.0053 0.8871 0.4616
vn 0.0063 -0.0014 1.0000
vn 0.0056 -0.0004 1.0000
vn 0.0001 1.0000 0.0004
vn 0.0008 1.0000 -0.0002
s 0
f 10//1 9//1 16//1
f 2//2 5//2 6//2
f 2//3 3//3 4//3
f 2//4 5//4 13//4
f 2//5 4//5 13//5
f 11//6 5//6 10//6
f 1//7 6//7 7//7
f 12//8 15//8 16//8
f 9//9 12//9 13//9
f 12//10 9//10 16//10
f 8//11 3//11 1//11
f 1//12 7//12 8//12
f 7//13 14//13 15//13
f 15//14 8//14 7//14
f 11//15 7//15 6//15
f 2//16 1//16 3//16
f 9//17 13//17 5//17
f 11//18 6//18 5//18
f 14//19 7//19 11//19
f 14//20 16//20 11//20
f 11//21 16//21 10//21
f 16//22 15//22 14//22
f 10//23 5//23 9//23
f 12//24 13//24 4//24
f 4//25 3//25 8//25
f 8//26 12//26 4//26
f 1//27 2//27 6//27
f 12//28 8//28 15//28
f 14//29 16//29 10//29
f 9//30 16//30 13//30
f 13//31 16//31 12//31
f 11//32 14//32 10//32
f 5//33 9//33 2//33
f 2//34 9//34 13//34
f 4//35 3//35 12//35
f 3//36 8//36 12//36
f 3//37 7//37 8//37
f 3//38 1//38 7//38
