# Blender 4.0.0
# www.blender.org
o decimated_mesh
v 0.272564 1.049505 0.200134
v 0.353398 1.040198 0.198044
v 0.272046 1.077127 0.199858
v 0.353309 1.078289 0.199399
v 0.272054 1.097618 0.274397
v 0.272070 1.137119 0.270854
v 0.353344 1.097495 0.274562
v 0.353357 1.135949 0.270679
vn 0.0055 0.0101 0.9999
vn 0.0098 0.7774 -0.6289
vn 0.0036 0.1005 0.9949
vn 0.0764 0.7981 -0.5976
vn -0.9998 -0.0187 0.0052
vn -1.0000 0.0004 -0.0000
vn 0.0218 -0.0355 0.9991
vn -0.0146 0.7637 -0.6454
vn 1.0000 -0.0004 -0.0004
vn 1.0000 0.0024 -0.0011
vn -0.0019 0.0893 0.9960
vn 0.0024 0.8393 -0.5437
vn 0.0062 -0.0355 0.9993
vn 0.0271 0.0105 0.9996
vn 1.0000 0.0024 -0.0026
vn 1.0000 -0.0002 0.0009
vn 0.0024 0.8005 -0.5994
vn 0.0823 0.8367 -0.5415
s 0
f 1//1 4//1 3//1
f 4//2 6//2 8//2
f 6//3 7//3 8//3
f 7//4 2//4 1//4
f 1//5 5//5 3//5
f 6//6 3//6 5//6
f 2//7 4//7 1//7
f 4//8 3//8 6//8
f 8//9 7//9 4//9
f 7//10 2//10 4//10
f 6//11 5//11 7//11
f 7//12 1//12 5//12
f 4//13 3//13 2//13
f 2//14 3//14 1//14
f 8//15 2//15 4//15
f 8//16 7//16 2//16
f 7//17 2//17 5//17
f 5//18 2//18 1//18
