# Blender 4.0.0
# www.blender.org
o Fridge_1_FridgeBodyMesh_daf6b078_3_collision_30
v -0.341770 1.290486 -0.135493
v -0.341770 1.289997 -0.122595
v -0.341770 1.312170 -0.135493
v -0.000456 1.290486 -0.135493
v -0.017629 1.283948 -0.063868
v -0.068111 1.283953 -0.063846
v -0.118526 1.283967 -0.063760
v -0.341770 1.289997 0.084112
v -0.227776 1.285833 -0.055226
v -0.341770 1.307359 0.084112
v -0.227776 1.308432 0.084112
v -0.177260 1.308380 0.084112
v -0.126745 1.308322 0.084112
v -0.076229 1.308255 0.084112
v -0.025680 1.308178 0.084112
v -0.000456 1.310650 -0.135493
v -0.000456 1.287387 -0.055226
v -0.016927 1.283948 -0.063868
v -0.017729 1.283926 -0.055226
v -0.068211 1.283934 -0.055226
v -0.118559 1.283959 -0.055226
v -0.227776 1.286016 0.084112
v -0.118493 1.283959 0.084112
v -0.000456 1.306947 0.084112
v -0.000456 1.287550 0.084112
v -0.016793 1.283926 0.084112
v -0.016793 1.283926 -0.055226
v -0.017629 1.283926 0.084112
v -0.068111 1.283934 0.084112
vn -1.0000 -0.0000 -0.0000
vn -0.0000 -0.0000 -1.0000
vn -0.0000 -0.9959 -0.0909
vn -0.0000 -0.9958 -0.0916
vn -0.0001 -0.9959 -0.0903
vn -0.0004 -0.9960 -0.0892
vn -0.0170 -0.9991 -0.0379
vn -0.0193 -0.9994 -0.0290
vn -0.0365 -0.9993 -0.0000
vn -0.0094 0.9997 0.0219
vn 0.0010 0.9999 0.0165
vn 0.0011 0.9999 0.0164
vn 0.0013 0.9999 0.0162
vn 0.0015 0.9999 0.0160
vn 0.0045 0.9999 0.0118
vn 1.0000 -0.0000 -0.0000
vn 0.2231 -0.9741 -0.0376
vn -0.0000 -1.0000 -0.0026
vn -0.0001 -1.0000 -0.0026
vn -0.0002 -1.0000 -0.0023
vn -0.0003 -1.0000 -0.0022
vn -0.0005 -1.0000 -0.0009
vn -0.0172 -0.9999 -0.0010
vn -0.0349 -0.9994 0.0013
vn -0.0000 -0.0000 1.0000
vn -0.0172 -0.9999 -0.0000
vn -0.0188 -0.9998 0.0013
vn 0.0487 0.9987 0.0168
vn 0.2166 -0.9763 0.0011
vn 0.2073 -0.9783 -0.0000
vn 0.2073 -0.9783 -0.0057
vn -0.0000 -1.0000 -0.0000
vn -0.0002 -1.0000 -0.0000
vn -0.0005 -1.0000 -0.0000
s 0
f 1//1 2//1 8//1
f 1//1 8//1 10//1
f 1//1 10//1 3//1
f 1//2 3//2 16//2
f 1//2 16//2 4//2
f 1//3 4//3 18//3
f 1//4 18//4 5//4
f 1//5 5//5 6//5
f 1//6 6//6 7//6
f 1//7 7//7 2//7
f 2//8 7//8 9//8
f 2//9 9//9 8//9
f 3//10 10//10 11//10
f 3//11 11//11 12//11
f 3//12 12//12 13//12
f 3//13 13//13 14//13
f 3//14 14//14 15//14
f 3//15 15//15 16//15
f 4//16 16//16 24//16
f 4//16 24//16 25//16
f 4//16 25//16 17//16
f 4//17 17//17 18//17
f 5//18 18//18 27//18
f 5//18 27//18 19//18
f 5//19 19//19 6//19
f 6//20 19//20 20//20
f 6//21 20//21 7//21
f 7//22 20//22 21//22
f 7//23 21//23 9//23
f 8//24 9//24 22//24
f 8//25 22//25 23//25
f 8//25 23//25 29//25
f 8//25 29//25 28//25
f 8//25 28//25 26//25
f 8//25 26//25 25//25
f 8//25 25//25 24//25
f 8//25 24//25 15//25
f 8//25 15//25 14//25
f 8//25 14//25 13//25
f 8//25 13//25 12//25
f 8//25 12//25 11//25
f 8//25 11//25 10//25
f 9//26 21//26 23//26
f 9//27 23//27 22//27
f 15//28 24//28 16//28
f 17//29 25//29 26//29
f 17//30 26//30 27//30
f 17//31 27//31 18//31
f 19//32 27//32 26//32
f 19//32 26//32 28//32
f 19//33 28//33 29//33
f 19//33 29//33 20//33
f 20//34 29//34 23//34
f 20//34 23//34 21//34
