# Blender 4.0.0
# www.blender.org
o decimated_mesh
v -0.440668 1.491822 0.260160
v -0.441525 1.491822 0.274598
v -0.443350 1.660131 0.270545
v -0.384860 1.491821 0.197875
v -0.387110 1.660129 0.197631
v -0.361573 1.491822 0.196555
v -0.403901 1.491822 0.273838
v -0.403901 1.660130 0.273838
v -0.356689 1.660145 0.198648
v -0.366571 1.491825 0.219438
vn -0.0005 1.0000 -0.0001
vn -0.7916 0.0251 -0.6106
vn 0.0202 -0.0000 0.9998
vn -0.0566 -0.0022 -0.9984
vn 0.8468 0.0160 0.5317
vn -0.0000 1.0000 -0.0000
vn 0.0001 -1.0000 0.0001
vn 0.0001 -1.0000 -0.0000
vn -0.7447 -0.0109 -0.6673
vn -0.9982 -0.0122 -0.0592
vn -0.0832 0.0231 0.9963
vn 0.0334 0.0115 -0.9994
vn 0.9765 -0.0310 0.2133
vn 0.8245 -0.0000 0.5658
vn -0.0000 1.0000 0.0002
vn -0.0005 1.0000 -0.0004
s 0
f 8//1 9//1 5//1
f 5//2 1//2 3//2
f 8//3 2//3 7//3
f 6//4 4//4 5//4
f 8//5 10//5 9//5
f 1//6 7//6 4//6
f 6//7 10//7 4//7
f 10//8 7//8 4//8
f 7//6 1//6 2//6
f 5//6 3//6 8//6
f 5//9 4//9 1//9
f 3//10 1//10 2//10
f 8//11 3//11 2//11
f 9//12 6//12 5//12
f 9//13 10//13 6//13
f 8//14 7//14 10//14
f 8//15 9//15 3//15
f 9//16 5//16 3//16
f 4//6 1//6 2//6
f 4//6 2//6 7//6
