# Blender 4.0.0
# www.blender.org
o decimated_mesh
v 0.379710 1.491822 0.197697
v 0.379142 1.491822 0.084112
v 0.360753 1.491821 0.197671
v 0.360894 1.491822 0.084112
v 0.344113 1.287887 0.197714
v 0.344399 1.289854 0.084112
v 0.373256 1.297246 0.197688
v 0.378311 1.317224 0.084112
v 0.370115 1.297178 0.084110
vn -0.0014 -0.0000 1.0000
vn -0.0000 1.0000 -0.0000
vn 1.0000 -0.0048 -0.0050
vn -0.2739 0.9617 0.0070
vn 0.9967 -0.0814 0.0012
vn 0.9253 -0.3783 -0.0254
vn 0.0009 0.0001 1.0000
vn -0.0000 -0.0000 1.0000
vn 0.0002 -0.0002 1.0000
vn 0.9987 -0.0331 0.0386
vn -0.3057 0.9520 0.0157
vn 0.9967 -0.0813 0.0011
vn -0.2739 0.9616 0.0160
vn -0.3057 0.9521 0.0079
vn 0.0009 -0.0001 1.0000
vn -0.0014 0.0003 1.0000
vn 0.0001 -0.0000 1.0000
vn -0.0003 -0.0000 1.0000
s 0
f 7//1 1//1 3//1
f 3//2 1//2 2//2
f 1//3 8//3 2//3
f 7//4 9//4 6//4
f 3//5 6//5 4//5
f 9//6 8//6 7//6
f 3//7 5//7 7//7
f 2//8 4//8 8//8
f 4//8 6//8 8//8
f 8//9 6//9 9//9
f 2//2 4//2 3//2
f 1//10 7//10 8//10
f 7//11 6//11 5//11
f 5//12 6//12 3//12
f 6//13 5//13 9//13
f 9//14 5//14 7//14
f 7//15 1//15 5//15
f 1//16 3//16 5//16
f 4//17 6//17 9//17
f 4//8 9//8 2//8
f 2//18 9//18 8//18
f 2//2 4//2 1//2
f 4//2 3//2 1//2
