# Blender 4.0.0
# www.blender.org
o decimated_mesh
v 0.355867 1.024868 0.198016
v 0.353396 1.067935 0.197455
v 0.353361 1.101531 0.220257
v 0.408614 1.102272 0.222143
v 0.384436 1.022949 0.198235
v 0.353351 1.097872 0.274541
v 0.353363 1.133687 0.258446
v 0.439059 1.133129 0.258909
v 0.403673 1.022937 0.274210
v 0.372772 1.056302 0.197509
v 0.439844 1.022937 0.260095
v 0.439978 1.134047 0.273898
v 0.353361 1.134538 0.274071
v 0.440823 1.022937 0.274056
vn -0.0000 -1.0000 -0.0000
vn 0.0207 0.5615 -0.8272
vn 0.0021 0.0128 0.9999
vn 0.7708 -0.0014 -0.6371
vn -0.7398 -0.4988 0.4515
vn 0.2034 0.3345 -0.9202
vn 0.4387 0.1341 -0.8886
vn 0.9975 0.0064 -0.0700
vn 0.0085 0.7625 -0.6469
vn 0.0056 0.9985 -0.0544
vn -1.0000 0.0003 -0.0002
vn 0.9951 0.0561 -0.0811
vn 0.9995 0.0320 0.0023
vn -0.0671 -0.9976 0.0168
vn -0.0000 -1.0000 -0.0002
vn 0.0072 0.0004 1.0000
vn 0.0042 0.0015 1.0000
vn 0.7446 -0.0259 -0.6670
vn -0.0052 -0.0133 -0.9999
vn 0.0064 -0.0195 -0.9998
vn 0.9981 0.0075 -0.0617
vn 0.0117 0.7649 -0.6441
vn 0.0068 0.9981 -0.0615
vn 1.0000 0.0009 0.0002
vn 0.9981 0.0570 -0.0216
vn 0.0042 -0.0016 1.0000
vn 0.0068 0.0015 1.0000
vn 0.0085 0.7649 -0.6441
vn 0.0119 0.7610 -0.6486
s 0
f 11//1 14//1 9//1
f 2//2 3//2 4//2
f 12//3 13//3 6//3
f 11//4 4//4 8//4
f 1//5 9//5 6//5
f 4//6 10//6 2//6
f 10//7 4//7 5//7
f 8//8 14//8 11//8
f 4//9 7//9 8//9
f 12//10 7//10 13//10
f 6//11 13//11 7//11
f 7//11 3//11 6//11
f 3//12 1//12 2//12
f 6//13 1//13 3//13
f 9//14 1//14 5//14
f 5//15 11//15 9//15
f 6//16 9//16 12//16
f 9//17 14//17 12//17
f 11//18 5//18 4//18
f 2//19 10//19 1//19
f 10//20 5//20 1//20
f 8//21 12//21 14//21
f 4//22 3//22 7//22
f 12//23 8//23 7//23
f 3//24 6//24 2//24
f 2//25 6//25 1//25
f 9//26 14//26 6//26
f 14//27 12//27 6//27
f 8//28 3//28 7//28
f 8//29 4//29 3//29
