# Blender 4.0.0
# www.blender.org
o decimated_mesh
v -0.000357 1.022624 -0.166265
v -0.000331 1.045788 -0.164143
v -0.000331 1.054382 0.084112
v 0.360759 1.023255 0.084112
v 0.353783 1.023563 -0.165865
v -0.000331 1.069075 0.084112
v 0.360761 1.023237 -0.161128
v 0.360164 1.064934 0.084114
v 0.344923 1.043310 -0.163731
v -0.000331 1.067479 -0.145993
v 0.360767 1.054671 -0.152141
v 0.360753 1.038962 -0.159598
v 0.360761 1.062691 -0.137763
v 0.352076 1.066147 -0.146936
v 0.344923 1.068487 0.084112
vn 0.0009 0.0912 -0.9958
vn -0.0852 -0.9884 0.1254
vn 1.0000 0.0006 -0.0011
vn -0.0000 -0.0000 1.0000
vn 0.3774 0.9260 -0.0084
vn 0.0052 0.5914 -0.8063
vn -1.0000 0.0012 -0.0015
vn 0.2153 0.5339 -0.8177
vn 0.0038 0.9999 -0.0100
vn 0.3058 0.2368 -0.9222
vn 0.6528 0.6617 -0.3688
vn 0.2270 0.9739 -0.0028
vn 1.0000 -0.0015 0.0013
vn 0.9999 0.0143 0.0025
vn 1.0000 -0.0000 -0.0000
vn -0.0001 -0.0000 1.0000
vn 0.0468 0.9989 -0.0001
vn -0.0027 1.0000 0.0013
vn 0.0020 0.1083 -0.9941
vn -1.0000 0.0006 -0.0000
vn -1.0000 -0.0000 -0.0000
vn 0.5624 0.0803 -0.8230
vn 0.0004 0.6417 -0.7669
vn 0.0017 1.0000 -0.0069
vn 0.3334 0.4041 -0.8518
vn -1.0000 -0.0000 0.0001
vn -0.0027 0.9973 0.0727
vn -0.0017 1.0000 -0.0001
vn -0.0000 0.0006 1.0000
vn 1.0000 0.0009 -0.0038
vn 1.0000 -0.0002 -0.0000
vn 1.0000 0.0006 0.0001
s 0
f 1//1 2//1 5//1
f 1//2 4//2 3//2
f 7//3 12//3 13//3
f 4//4 15//4 3//4
f 8//5 13//5 14//5
f 9//6 2//6 14//6
f 10//7 2//7 1//7
f 11//8 9//8 14//8
f 10//9 15//9 14//9
f 12//10 5//10 9//10
f 14//11 13//11 11//11
f 14//12 15//12 8//12
f 12//13 11//13 13//13
f 13//14 8//14 4//14
f 7//15 13//15 4//15
f 4//16 8//16 15//16
f 15//4 6//4 3//4
f 7//17 5//17 4//17
f 4//18 5//18 1//18
f 9//19 5//19 2//19
f 1//20 3//20 10//20
f 3//21 6//21 10//21
f 7//22 5//22 12//22
f 14//23 2//23 10//23
f 10//24 6//24 15//24
f 11//25 12//25 9//25
f 3//26 6//26 1//26
f 6//20 10//20 1//20
f 5//27 1//27 7//27
f 7//28 1//28 4//28
f 4//4 8//4 3//4
f 8//4 6//4 3//4
f 8//29 15//29 6//29
f 12//30 11//30 7//30
f 11//31 4//31 7//31
f 11//32 13//32 4//32
