# Blender 4.0.0
# www.blender.org
o decimated_mesh
v -0.328571 1.069060 0.084087
v -0.355306 1.067276 0.084088
v -0.328750 1.066352 -0.148660
v -0.345715 1.068479 -0.122584
v -0.354307 1.065304 -0.147174
v -0.361680 0.634382 0.084088
v -0.328096 0.634360 -0.166232
v -0.365755 1.061416 -0.122584
v -0.372664 1.055691 0.084088
v -0.379935 0.634382 0.084088
v -0.373003 1.049933 -0.149433
v -0.328723 1.043904 -0.164720
v -0.345715 1.043289 -0.163727
v -0.379264 0.634383 -0.135821
v -0.355055 1.033402 -0.164681
v -0.377825 1.040443 -0.135700
v -0.378667 1.039715 0.084088
v -0.355902 0.634383 -0.164879
v -0.373820 0.634382 -0.151786
vn -0.0472 0.9926 -0.1117
vn -0.8321 0.5544 -0.0125
vn 0.9883 -0.0753 0.1326
vn -0.3442 0.4068 -0.8462
vn 0.0009 1.0000 0.0007
vn -1.0000 0.0035 -0.0038
vn -0.0486 0.0006 -0.9988
vn -0.6146 0.7716 -0.1641
vn -0.3227 0.9465 -0.0095
vn -0.0684 0.5804 -0.8114
vn -0.5551 0.8317 0.0045
vn -0.9442 0.0034 -0.3292
vn -0.3066 0.4927 -0.8144
vn 0.1067 0.9942 -0.0117
vn -0.0666 0.9978 0.0027
vn 0.0004 1.0000 -0.0000
vn -0.0000 1.0000 -0.0000
vn -0.0001 1.0000 -0.0000
vn -1.0000 0.0031 -0.0030
vn -0.9361 0.3517 -0.0024
vn -0.8970 0.4420 -0.0096
vn 1.0000 0.0015 -0.0008
vn 1.0000 0.0017 -0.0008
vn -0.0029 0.0037 -1.0000
vn -0.5900 0.0017 -0.8074
vn -0.6445 0.0056 -0.7646
vn -0.0710 0.5816 -0.8104
vn -0.3398 0.9404 -0.0095
vn -0.0632 0.1549 -0.9859
vn -0.9465 0.0037 -0.3228
vn 0.0001 -0.0001 1.0000
vn -0.0000 -0.0000 1.0000
vn -0.0000 1.0000 -0.0001
vn 0.0006 1.0000 0.0002
vn 0.0009 1.0000 0.0013
vn -0.9443 0.0037 -0.3290
vn -0.9465 0.0034 -0.3228
s 0
f 4//1 3//1 5//1
f 9//2 8//2 11//2
f 1//3 6//3 7//3
f 13//4 15//4 11//4
f 7//5 18//5 14//5
f 14//6 17//6 16//6
f 15//7 7//7 18//7
f 5//8 11//8 8//8
f 2//9 4//9 5//9
f 13//10 3//10 12//10
f 2//11 8//11 9//11
f 11//12 14//12 16//12
f 5//13 13//13 11//13
f 3//14 4//14 1//14
f 4//15 2//15 1//15
f 7//16 14//16 6//16
f 6//17 14//17 10//17
f 14//18 18//18 19//18
f 14//19 10//19 17//19
f 17//20 9//20 16//20
f 9//21 11//21 16//21
f 1//22 7//22 12//22
f 3//23 1//23 12//23
f 15//24 12//24 7//24
f 18//25 19//25 15//25
f 19//26 11//26 15//26
f 13//27 5//27 3//27
f 2//28 5//28 8//28
f 12//29 15//29 13//29
f 11//30 19//30 14//30
f 2//31 9//31 1//31
f 9//32 17//32 1//32
f 17//32 10//32 6//32
f 1//32 17//32 6//32
f 9//32 17//32 2//32
f 17//32 10//32 2//32
f 10//32 6//32 2//32
f 6//32 1//32 2//32
f 14//16 10//16 7//16
f 7//33 10//33 6//33
f 14//34 7//34 19//34
f 19//35 7//35 18//35
f 19//36 16//36 11//36
f 19//37 14//37 16//37
