# Blender 4.0.0
# www.blender.org
o decimated_mesh
v 0.432055 0.636667 0.275781
v 0.442003 0.227555 0.274019
v 0.366414 0.636776 0.082872
v 0.365991 0.227957 0.082039
v 0.363189 0.636668 0.215301
v 0.348277 0.227630 0.200452
v 0.403109 0.227632 0.273840
vn 0.9467 -0.0003 -0.3221
vn -0.0020 -1.0000 0.0015
vn -0.9890 0.0013 -0.1479
vn -0.8011 0.0075 0.5985
vn 0.9295 0.0242 -0.3680
vn -0.0007 1.0000 0.0008
vn -0.0046 -0.0044 1.0000
vn 0.0012 -1.0000 -0.0026
vn -0.9990 0.0373 -0.0243
vn -0.6593 0.0431 0.7507
vn 0.9464 0.0244 -0.3220
vn 0.9298 -0.0002 -0.3681
s 0
f 1//1 4//1 3//1
f 7//2 6//2 2//2
f 6//3 3//3 4//3
f 7//4 5//4 6//4
f 1//5 2//5 4//5
f 1//6 3//6 5//6
f 7//7 2//7 1//7
f 4//8 2//8 6//8
f 6//9 5//9 3//9
f 7//10 1//10 5//10
f 2//11 3//11 1//11
f 4//12 3//12 2//12
