# Blender 4.0.0
# www.blender.org
o decimated_mesh
v -0.440281 1.229365 0.261596
v -0.441092 1.228998 0.273926
v -0.441064 1.491796 0.260803
v -0.411448 1.250679 0.226016
v -0.441616 1.491796 0.274070
v -0.385925 1.491797 0.199127
v -0.378551 1.303082 0.197506
v -0.356919 1.290503 0.197413
v -0.356899 1.250423 0.223330
v -0.355879 1.225768 0.272424
v -0.404504 1.491796 0.274327
v -0.361645 1.491796 0.197433
v -0.366053 1.491795 0.218244
vn -0.7455 0.0046 -0.6665
vn -0.2134 -0.3601 -0.9082
vn -0.0439 -0.5425 -0.8389
vn -0.0000 1.0000 -0.0000
vn 0.9752 0.0794 0.2066
vn -0.0043 -0.0000 -1.0000
vn 0.8160 0.1452 0.5595
vn -0.0069 -0.0006 1.0000
vn -0.7757 -0.0042 -0.6311
vn -0.6380 -0.0183 -0.7698
vn -0.0384 -0.9987 -0.0323
vn 0.0263 0.8936 0.4482
vn -0.0269 0.8670 0.4976
vn -0.9991 -0.0020 -0.0416
vn -0.9978 -0.0032 -0.0657
vn 0.9994 -0.0191 -0.0303
vn 0.9997 0.0235 0.0064
vn -0.0000 1.0000 0.0001
vn -0.0696 0.0058 -0.9976
vn 0.0175 -0.0040 0.9998
vn -0.0195 0.8933 0.4490
vn 0.0301 0.8465 0.5315
s 0
f 4//1 3//1 6//1
f 4//2 7//2 8//2
f 4//3 8//3 9//3
f 6//4 3//4 11//4
f 13//5 10//5 12//5
f 12//6 8//6 7//6
f 10//7 13//7 11//7
f 11//8 5//8 2//8
f 4//9 1//9 3//9
f 7//10 4//10 6//10
f 10//11 2//11 1//11
f 9//12 4//12 10//12
f 10//13 4//13 1//13
f 2//14 5//14 3//14
f 3//15 1//15 2//15
f 9//16 8//16 10//16
f 10//17 8//17 12//17
f 5//4 11//4 3//4
f 11//4 13//4 6//4
f 13//18 12//18 6//18
f 7//19 6//19 12//19
f 10//20 11//20 2//20
f 11//4 6//4 5//4
f 6//4 3//4 5//4
f 1//21 10//21 9//21
f 9//22 4//22 1//22
