# Blender 4.0.0
# www.blender.org
o decimated_mesh
v 0.344693 1.665891 -0.130618
v 0.344627 1.669074 -0.163441
v -0.328642 1.673887 -0.132137
v 0.344674 1.490128 -0.154955
v -0.328641 1.672285 -0.162380
v -0.328641 1.490365 -0.147781
v -0.328642 1.490313 -0.166375
vn 1.0000 0.0002 -0.0020
vn -0.0033 -0.0849 0.9964
vn 0.0169 -0.0474 -0.9987
vn -0.0003 -1.0000 0.0028
vn -1.0000 -0.0000 -0.0000
vn 0.0105 -0.1371 0.9905
vn -0.0015 0.0219 -0.9998
vn 0.0047 0.9986 -0.0529
vn 0.0116 0.9953 0.0965
s 0
f 4//1 2//1 1//1
f 6//2 1//2 3//2
f 7//3 2//3 4//3
f 6//4 7//4 4//4
f 7//5 6//5 5//5
f 6//5 3//5 5//5
f 6//6 4//6 1//6
f 7//7 5//7 2//7
f 2//8 5//8 3//8
f 3//9 1//9 2//9
f 7//5 6//5 3//5
f 5//5 7//5 3//5
