# Blender 4.0.0
# www.blender.org
o Fridge_1_FridgeBodyMesh_daf6b078_3_collision_33
v -0.000331 0.634382 -0.166375
v 0.328061 0.634382 -0.166375
v -0.000331 0.634382 -0.147840
v -0.000331 1.022885 -0.166375
v 0.344923 0.634382 -0.165785
v 0.328061 1.022885 -0.166375
v 0.360759 0.634382 -0.122786
v 0.360759 1.023228 -0.106738
v -0.000331 1.023228 -0.147700
v -0.000331 1.023228 -0.166351
v 0.353902 0.634382 -0.164956
v 0.344923 1.022885 -0.165785
v 0.328061 1.023228 -0.166351
v 0.344923 1.023228 -0.165773
v 0.360759 0.634382 -0.161109
v 0.360759 1.023228 -0.161103
v 0.354467 0.634382 -0.164653
v 0.353902 1.023228 -0.164956
v 0.360759 1.022885 -0.161109
vn -0.0000 -1.0000 -0.0000
vn -0.0000 -1.0000 -0.0001
vn -0.0000 -1.0000 0.0001
vn -1.0000 -0.0000 -0.0000
vn -0.0000 -0.0000 -1.0000
vn 0.0349 -0.0000 -0.9994
vn -0.0692 -0.0411 0.9968
vn -0.1127 -0.0004 0.9936
vn -0.0000 0.0679 -0.9977
vn -0.0000 0.0680 -0.9977
vn 0.0919 -0.0000 -0.9958
vn 0.0342 0.0679 -0.9971
vn 0.0350 0.0341 -0.9988
vn 1.0000 -0.0000 -0.0000
vn -0.0000 1.0000 -0.0000
vn 0.4729 -0.0000 -0.8811
vn 0.0905 0.0339 -0.9953
vn 0.4907 -0.0000 -0.8713
vn 0.4896 0.0149 -0.8718
vn 0.4892 -0.0000 -0.8721
s 0
f 1//1 2//1 5//1
f 1//2 5//2 11//2
f 1//3 11//3 17//3
f 1//1 17//1 15//1
f 1//1 15//1 7//1
f 1//1 7//1 3//1
f 1//4 3//4 9//4
f 1//4 9//4 10//4
f 1//4 10//4 4//4
f 1//5 4//5 6//5
f 1//5 6//5 2//5
f 2//6 6//6 12//6
f 2//6 12//6 5//6
f 3//7 7//7 8//7
f 3//8 8//8 9//8
f 4//9 10//9 13//9
f 4//10 13//10 6//10
f 5//11 12//11 18//11
f 5//11 18//11 11//11
f 6//12 13//12 14//12
f 6//13 14//13 12//13
f 7//14 15//14 19//14
f 7//14 19//14 16//14
f 7//14 16//14 8//14
f 8//15 16//15 18//15
f 8//15 18//15 14//15
f 8//15 14//15 13//15
f 8//15 13//15 10//15
f 8//15 10//15 9//15
f 11//16 18//16 17//16
f 12//17 14//17 18//17
f 15//18 17//18 19//18
f 16//19 19//19 18//19
f 17//20 18//20 19//20
