# Blender 4.0.0
# www.blender.org
o decimated_mesh
v -0.328642 1.674144 -0.160111
v -0.328642 1.677216 0.084088
v 0.347555 1.688006 -0.148126
v 0.345098 1.665832 -0.163821
v 0.376782 1.665898 0.084112
v 0.371277 1.673830 -0.149637
v -0.328642 1.689741 -0.146374
v -0.328642 1.691803 0.084039
v 0.375899 1.665813 -0.137306
v 0.357721 1.689449 -0.131409
v 0.370520 1.665978 -0.152860
v 0.373261 1.676067 0.084112
v 0.356826 1.689465 0.084112
vn 0.0034 1.0000 -0.0001
vn 0.9449 0.3272 -0.0039
vn 0.2695 0.5363 -0.7998
vn 0.0026 0.5776 -0.8163
vn -0.0001 0.0033 1.0000
vn 0.3734 0.3212 -0.8703
vn 0.4635 0.8132 -0.3521
vn 0.7478 0.6638 -0.0127
vn -0.0010 -1.0000 0.0004
vn 0.9444 0.0428 -0.3261
vn 0.0023 0.9962 -0.0874
vn 0.0006 1.0000 -0.0089
vn 0.8742 0.4854 -0.0121
vn -0.0002 0.6609 -0.7504
vn -0.0000 -0.0000 1.0000
vn 0.6319 0.7751 0.0026
vn 0.0160 0.9999 -0.0023
vn 0.0123 0.9998 -0.0126
vn 0.0121 -0.9998 -0.0148
vn -1.0000 -0.0000 -0.0000
vn 0.0123 0.9999 -0.0018
vn 0.0160 0.9998 -0.0126
s 0
f 10//1 8//1 13//1
f 12//2 5//2 9//2
f 3//3 6//3 4//3
f 1//4 3//4 4//4
f 13//5 8//5 2//5
f 11//6 4//6 6//6
f 3//7 10//7 6//7
f 10//8 12//8 6//8
f 9//9 5//9 4//9
f 6//10 9//10 11//10
f 7//11 10//11 3//11
f 10//12 7//12 8//12
f 6//13 12//13 9//13
f 1//14 7//14 3//14
f 2//15 5//15 13//15
f 5//15 12//15 13//15
f 10//16 13//16 12//16
f 5//17 4//17 2//17
f 2//18 4//18 1//18
f 4//19 11//19 9//19
f 1//20 2//20 7//20
f 2//20 8//20 7//20
f 5//21 4//21 1//21
f 5//22 1//22 2//22
f 2//20 8//20 1//20
f 8//20 7//20 1//20
