# Blender 4.0.0
# www.blender.org
o decimated_mesh
v -0.377965 0.226377 0.084005
v -0.442358 0.227590 0.273648
v -0.353368 0.204510 0.084114
v -0.110287 0.227931 0.084498
v -0.408482 0.227666 0.274466
v -0.443429 0.201900 0.274786
v -0.110119 0.202280 0.231670
v -0.110127 0.214747 0.222913
v -0.110119 0.203390 0.084112
vn -0.9466 0.0252 -0.3216
vn -1.0000 0.0002 0.0012
vn 0.1268 -0.1599 0.9790
vn 0.1640 0.5671 0.8072
vn -0.6314 -0.7117 -0.3080
vn -0.0058 1.0000 -0.0077
vn -0.0021 1.0000 -0.0071
vn -0.0019 0.0029 1.0000
vn -0.0001 -0.0157 0.9999
vn -1.0000 -0.0068 -0.0001
vn 0.0594 0.9937 0.0946
vn 0.0046 1.0000 0.0075
vn 0.0007 0.9999 0.0140
vn -0.0242 0.0452 0.9987
vn -0.0058 0.9999 -0.0084
vn -0.0017 -0.0157 0.9999
vn -0.0000 0.0050 1.0000
vn 0.0046 0.9999 0.0159
vn -0.0002 1.0000 0.0075
vn -0.0022 1.0000 -0.0021
vn -1.0000 -0.0069 0.0005
vn -1.0000 -0.0007 -0.0000
s 0
f 1//1 6//1 2//1
f 4//2 7//2 8//2
f 5//3 6//3 7//3
f 8//4 5//4 7//4
f 1//5 3//5 6//5
f 5//6 4//6 1//6
f 1//7 2//7 5//7
f 1//8 3//8 4//8
f 9//9 4//9 3//9
f 7//10 4//10 9//10
f 4//11 5//11 8//11
f 3//12 7//12 9//12
f 6//13 7//13 3//13
f 6//14 5//14 2//14
f 2//15 4//15 1//15
f 4//16 1//16 9//16
f 9//17 1//17 3//17
f 3//18 6//18 9//18
f 9//19 6//19 7//19
f 5//20 4//20 2//20
f 8//21 4//21 9//21
f 8//22 9//22 7//22
