# Blender 4.0.0
# www.blender.org
o Fridge_1_FridgeBodyMesh_daf6b078_3_collision_29
v -0.000424 1.293435 -0.147768
v -0.000424 1.290495 -0.139438
v -0.000424 1.341890 -0.147768
v 0.327934 1.293435 -0.147768
v 0.327934 1.290540 -0.139574
v 0.032975 1.283956 -0.063854
v -0.000424 1.287390 -0.055206
v 0.327934 1.290495 -0.139438
v -0.000424 1.306949 0.084112
v 0.024874 1.308095 0.084112
v 0.327934 1.341918 -0.147768
v 0.033617 1.283956 -0.063854
v 0.032910 1.283939 -0.055206
v -0.000424 1.287549 0.084112
v 0.033007 1.283939 0.084112
v 0.327934 1.290461 -0.122732
v 0.227000 1.286226 -0.055206
v 0.193312 1.285443 -0.055206
v 0.084052 1.283967 -0.063763
v 0.227000 1.307710 0.084112
v 0.327934 1.305365 0.084112
v 0.033778 1.283939 -0.055206
v 0.033778 1.283939 0.084112
v 0.327934 1.290461 0.084067
v 0.227000 1.286578 0.084112
v 0.193312 1.285443 0.084112
v 0.084181 1.283962 -0.055206
v 0.327934 1.290926 0.084112
v 0.084181 1.283962 0.084112
vn -1.0000 -0.0000 -0.0000
vn -0.0000 -0.0000 -1.0000
vn -0.0000 -0.9429 -0.3331
vn -0.0000 -0.9430 -0.3328
vn -0.1116 -0.9931 -0.0366
vn -0.0000 -0.9483 -0.3173
vn -0.0000 -0.9963 -0.0862
vn -0.0000 -0.9963 -0.0861
vn -0.0448 0.9878 0.1489
vn -0.0001 0.9895 0.1442
vn 1.0000 -0.0000 -0.0000
vn 0.9999 -0.0145 -0.0000
vn -0.0000 -1.0000 -0.0020
vn -0.1030 -0.9947 -0.0027
vn -0.1030 -0.9947 0.0001
vn -0.1074 -0.9942 0.0011
vn 0.0406 -0.9992 -0.0020
vn 0.0232 -0.9995 -0.0228
vn 0.0162 -0.9993 -0.0341
vn 0.0004 -0.9964 -0.0847
vn -0.0000 -0.0000 1.0000
vn 0.0019 0.9892 0.1467
vn 0.0229 0.9875 0.1557
vn 0.0002 -1.0000 -0.0019
vn -0.0000 -1.0000 -0.0000
vn 0.0419 -0.9991 -0.0000
vn 0.0337 -0.9994 0.0025
vn 0.0232 -0.9997 -0.0000
vn 0.0384 -0.9993 0.0025
vn 0.0136 -0.9999 -0.0000
vn 0.0136 -0.9999 -0.0009
vn 0.0005 -1.0000 -0.0007
vn 0.0005 -1.0000 -0.0000
vn 0.0042 -0.0971 0.9953
s 0
f 1//1 2//1 7//1
f 1//1 7//1 14//1
f 1//1 14//1 9//1
f 1//1 9//1 3//1
f 1//2 3//2 11//2
f 1//2 11//2 4//2
f 1//3 4//3 5//3
f 1//4 5//4 2//4
f 2//5 6//5 7//5
f 2//6 5//6 8//6
f 2//7 8//7 12//7
f 2//8 12//8 6//8
f 3//9 9//9 10//9
f 3//10 10//10 11//10
f 4//11 11//11 21//11
f 4//11 21//11 28//11
f 4//11 28//11 24//11
f 4//11 24//11 16//11
f 4//11 16//11 8//11
f 4//12 8//12 5//12
f 6//13 12//13 22//13
f 6//13 22//13 13//13
f 6//14 13//14 7//14
f 7//15 13//15 15//15
f 7//16 15//16 14//16
f 8//17 16//17 17//17
f 8//18 17//18 18//18
f 8//19 18//19 19//19
f 8//20 19//20 12//20
f 9//21 14//21 15//21
f 9//21 15//21 23//21
f 9//21 23//21 29//21
f 9//21 29//21 26//21
f 9//21 26//21 25//21
f 9//21 25//21 28//21
f 9//21 28//21 21//21
f 9//21 21//21 20//21
f 9//21 20//21 10//21
f 10//22 20//22 11//22
f 11//23 20//23 21//23
f 12//24 19//24 22//24
f 13//25 22//25 23//25
f 13//25 23//25 15//25
f 16//26 24//26 17//26
f 17//27 25//27 26//27
f 17//28 26//28 18//28
f 17//29 24//29 25//29
f 18//30 26//30 29//30
f 18//30 29//30 27//30
f 18//31 27//31 19//31
f 19//32 27//32 22//32
f 22//33 27//33 29//33
f 22//33 29//33 23//33
f 24//34 28//34 25//34
