# Blender 4.0.0
# www.blender.org
o decimated_mesh
v 0.360841 1.064184 0.084112
v 0.360739 1.062506 -0.138545
v 0.371507 1.055032 -0.133131
v 0.376509 1.048378 0.084114
v 0.360794 1.054216 -0.152569
v 0.360805 1.035844 -0.160462
v 0.356934 0.206241 0.084114
v 0.356971 0.306335 -0.135597
v 0.371892 1.048564 -0.150059
v 0.360761 0.634433 -0.161111
v 0.376294 1.039687 -0.139435
v 0.371401 0.220226 0.026624
v 0.356877 0.216081 0.022624
v 0.377733 0.335743 -0.135408
v 0.372877 0.319729 -0.135594
v 0.357056 0.206329 0.055244
v 0.373159 0.218688 0.084112
v 0.377766 0.235414 0.035244
v 0.378488 0.234773 0.084113
vn 0.5724 0.8199 -0.0064
vn 1.0000 -0.0015 0.0048
vn 0.4843 0.7539 -0.4438
vn -0.0659 0.0781 0.9948
vn 0.6359 0.7257 -0.2628
vn -0.6527 0.7565 0.0402
vn 0.9358 0.3359 -0.1071
vn 0.9258 -0.3775 -0.0186
vn -0.3588 0.8109 0.4623
vn -0.2613 0.0680 0.9629
vn 0.9237 -0.0003 -0.3830
vn -0.5845 0.6940 0.4204
vn 0.9898 -0.0003 0.1427
vn 0.8387 0.0008 -0.5446
vn -0.3326 0.9031 0.2718
vn 0.7102 0.7040 0.0052
vn 0.9531 0.3025 -0.0127
vn 0.9994 0.0329 0.0043
vn 1.0000 -0.0046 -0.0019
vn 1.0000 0.0029 -0.0005
vn 1.0000 -0.0052 0.0005
vn 1.0000 -0.0037 -0.0015
vn -0.9395 0.2957 0.1728
vn -0.9440 0.2843 0.1673
vn -0.6087 0.7934 -0.0002
vn 0.9486 -0.3143 -0.0374
vn 0.6899 -0.0092 -0.7239
vn 0.0001 -0.0001 1.0000
vn -0.0001 -0.0000 1.0000
vn -0.0000 -0.0000 1.0000
vn 0.3785 0.3656 -0.8503
vn 1.0000 0.0020 -0.0010
vn 1.0000 0.0024 -0.0023
vn -0.9996 0.0253 0.0151
vn 0.0001 -0.0000 1.0000
vn 1.0000 0.0024 -0.0011
vn 1.0000 0.0020 -0.0025
vn 1.0000 -0.0050 -0.0004
vn 0.9292 -0.3677 -0.0383
vn 0.9491 -0.3144 -0.0181
vn 0.8029 -0.0057 -0.5961
vn 0.6836 0.0011 -0.7299
vn 1.0000 -0.0050 0.0068
vn 0.9999 -0.0048 0.0126
s 0
f 2//1 1//1 3//1
f 6//2 5//2 2//2
f 2//3 9//3 5//3
f 15//4 10//4 8//4
f 2//5 3//5 9//5
f 17//6 12//6 16//6
f 3//7 11//7 9//7
f 19//8 12//8 18//8
f 8//9 13//9 12//9
f 10//10 15//10 14//10
f 9//11 11//11 14//11
f 8//12 12//12 15//12
f 10//13 6//13 8//13
f 10//14 6//14 14//14
f 16//15 12//15 13//15
f 3//16 1//16 4//16
f 4//17 11//17 3//17
f 16//18 13//18 7//18
f 7//19 8//19 1//19
f 1//20 6//20 2//20
f 6//21 1//21 8//21
f 7//22 13//22 8//22
f 12//23 18//23 15//23
f 15//24 18//24 14//24
f 17//25 16//25 7//25
f 19//26 17//26 12//26
f 9//27 14//27 6//27
f 7//28 17//28 19//28
f 19//29 4//29 1//29
f 1//30 7//30 19//30
f 9//31 6//31 5//31
f 11//32 4//32 14//32
f 4//33 19//33 14//33
f 19//34 14//34 18//34
f 1//29 7//29 4//29
f 7//35 17//35 4//35
f 17//29 19//29 4//29
f 19//36 11//36 4//36
f 19//37 14//37 11//37
f 2//38 1//38 8//38
f 12//39 18//39 17//39
f 18//40 19//40 17//40
f 14//41 10//41 9//41
f 10//42 6//42 9//42
f 5//43 2//43 8//43
f 5//44 8//44 6//44
