mtllib material.mtl
usemtl material_0
v -0.01297000 -0.17706000 0.01298000
v -0.36827000 0.17707000 0.01298000
v -0.01297000 0.17707000 0.01298000
v -0.36827000 -0.17706000 0.01298000
v -0.37107000 0.17799000 0.01182000
v -0.37107000 -0.17798000 0.01182000
v -0.36906000 -0.18030000 0.01182000
v -0.01218000 -0.18030000 0.01182000
v -0.01017000 -0.17798000 0.01182000
v -0.00115000 -0.18839000 0.00280000
v -0.00316000 -0.19070000 0.00280000
v -0.37808000 -0.19070000 0.00280000
v -0.38008000 -0.18839000 0.00280000
v -0.38008000 0.18840000 0.00280000
v -0.37808000 0.19071000 0.00280000
v -0.36906000 0.18031000 0.01182000
v -0.37107000 0.17799000 0.01182000
v -0.36827000 0.17707000 0.01298000
v -0.01218000 0.18031000 0.01182000
v -0.01297000 0.17707000 0.01298000
v -0.01017000 0.17799000 0.01182000
v -0.00316000 0.19071000 0.00280000
v -0.00115000 0.18840000 0.00280000
v -0.00115000 -0.18839000 0.00280000
v -0.01017000 -0.17798000 0.01182000
v -0.01297000 -0.17706000 0.01298000
v -0.00115000 0.18840000 -0.00439000
v -0.00175000 -0.18769000 -0.00498000
v -0.00115000 -0.18839000 -0.00439000
v -0.00175000 0.18770000 -0.00498000
v -0.00376000 0.19002000 -0.00498000
v -0.00316000 0.19071000 -0.00439000
v -0.00455000 0.18679000 -0.00614000
v -0.37748000 0.19002000 -0.00498000
v -0.37669000 0.18679000 -0.00614000
v -0.37949000 0.18770000 -0.00498000
v -0.37808000 0.19071000 -0.00439000
v -0.38008000 0.18840000 -0.00439000
v -0.37949000 -0.18769000 -0.00498000
v -0.37669000 -0.18678000 -0.00614000
v -0.00316000 0.19071000 0.00280000
v -0.01218000 0.18031000 0.01182000
v -0.36906000 0.18031000 0.01182000
v -0.37808000 0.19071000 0.00280000
v -0.00163000 0.19205000 0.00000000
v -0.00115000 0.18840000 0.00280000
v 0.00000000 0.19016000 0.00000000
v -0.37960000 0.19205000 0.00000000
v -0.38008000 0.18840000 0.00280000
v -0.38124000 0.19016000 0.00000000
v -0.00163000 0.19205000 -0.00159000
v -0.37960000 0.19205000 -0.00159000
v -0.00316000 0.19071000 -0.00439000
v -0.37808000 0.19071000 -0.00439000
v -0.00115000 0.18840000 -0.00439000
v 0.00000000 0.19016000 -0.00159000
v -0.00376000 0.19002000 -0.00498000
v -0.37748000 0.19002000 -0.00498000
v -0.38008000 0.18840000 0.00280000
v -0.37107000 0.17799000 0.01182000
v -0.37107000 -0.17798000 0.01182000
v -0.38008000 -0.18839000 0.00280000
v -0.38124000 0.19016000 0.00000000
v -0.38124000 -0.19015000 0.00000000
v -0.38124000 0.19016000 -0.00159000
v -0.38124000 -0.19015000 -0.00159000
v -0.37960000 0.19205000 0.00000000
v -0.37960000 0.19205000 -0.00159000
v -0.38008000 0.18840000 -0.00439000
v -0.37808000 0.19071000 -0.00439000
v -0.37960000 -0.19204000 0.00000000
v -0.37808000 -0.19070000 0.00280000
v -0.00316000 -0.19070000 0.00280000
v -0.00163000 -0.19204000 0.00000000
v -0.37960000 -0.19204000 -0.00159000
v -0.38124000 -0.19015000 0.00000000
v -0.38124000 -0.19015000 -0.00159000
v -0.00163000 -0.19204000 -0.00159000
v -0.37808000 -0.19070000 -0.00439000
v -0.00316000 -0.19070000 -0.00439000
v -0.00115000 -0.18839000 -0.00439000
v 0.00000000 -0.19015000 -0.00159000
v 0.00000000 -0.19015000 0.00000000
v 0.00000000 -0.19015000 -0.00159000
v 0.00000000 0.19016000 0.00000000
v 0.00000000 0.19016000 -0.00159000
v 0.00000000 -0.19015000 0.00000000
v -0.00115000 0.18840000 0.00280000
v -0.00115000 -0.18839000 0.00280000
v -0.00163000 -0.19204000 0.00000000
v -0.00316000 -0.19070000 0.00280000
v -0.00175000 -0.18769000 -0.00498000
v -0.00316000 -0.19070000 -0.00439000
v -0.00115000 -0.18839000 -0.00439000
v -0.00376000 -0.19001000 -0.00498000
v -0.00455000 -0.18678000 -0.00614000
v -0.00175000 0.18770000 -0.00498000
v -0.00455000 0.18679000 -0.00614000
v -0.37669000 0.18679000 -0.00614000
v -0.37669000 -0.18678000 -0.00614000
v -0.37748000 -0.19001000 -0.00498000
v -0.37808000 -0.19070000 -0.00439000
v -0.37949000 -0.18769000 -0.00498000
v -0.38008000 -0.18839000 -0.00439000
v -0.37949000 0.18770000 -0.00498000
v -0.38008000 -0.18839000 -0.00439000
v -0.37949000 -0.18769000 -0.00498000
v -0.38008000 -0.18839000 0.00280000
v -0.37808000 -0.19070000 0.00280000
v -0.37960000 -0.19204000 0.00000000
v -0.38124000 -0.19015000 0.00000000
v -0.37960000 -0.19204000 -0.00159000
v -0.37808000 -0.19070000 -0.00439000
v -0.38008000 -0.18839000 -0.00439000
v -0.38124000 -0.19015000 -0.00159000
v -0.38008000 0.18840000 -0.00439000
v -0.38124000 0.19016000 -0.00159000
v 0.00000000 0.19016000 -0.00159000
v -0.00115000 0.18840000 -0.00439000
v -0.00115000 -0.18839000 -0.00439000
v 0.00000000 -0.19015000 -0.00159000
v -0.00163000 0.19205000 -0.00159000
v 0.00000000 0.19016000 0.00000000
v -0.00163000 0.19205000 0.00000000
vn 0.00583798 0.01708043 0.99983700
vn -0.00583856 -0.01709054 0.99983690
vn 0.00637659 -0.01763277 0.99982420
vn -0.00637732 0.01762421 0.99982430
vn -0.65934010 -0.00666544 0.75181530
vn -0.65184400 0.01792476 0.75814120
vn -0.00312163 -0.60321220 0.79757460
vn 0.00933963 -0.60802040 0.79386650
vn 0.65936340 0.00663319 0.75179510
vn 0.75322560 0.02457321 0.65730310
vn 0.01399639 -0.71260540 0.70142540
vn -0.01412350 -0.72022730 0.69359430
vn -0.76614390 0.02323004 0.64224910
vn -0.75322380 -0.02455883 0.65730570
vn -0.01398971 0.71260510 0.70142590
vn -0.00933365 0.60801790 0.79386840
vn -0.65934010 -0.00666544 0.75181530
vn -0.00583856 -0.01709054 0.99983690
vn 0.00311363 0.60321460 0.79757290
vn 0.00637659 -0.01763277 0.99982420
vn 0.65181440 -0.01795119 0.75816600
vn 0.01411351 0.72022890 0.69359300
vn 0.76614090 -0.02321051 0.64225340
vn 0.75322560 0.02457321 0.65730310
vn 0.65936340 0.00663319 0.75179510
vn 0.00583798 0.01708043 0.99983700
vn 0.88331780 -0.02326144 -0.46819720
vn 0.46013890 0.02019672 -0.88761720
vn 0.89230780 0.00523653 -0.45139700
vn 0.46938200 -0.02377743 -0.88267510
vn 0.00771280 0.40853730 -0.91270910
vn 0.00489271 0.85560230 -0.51761070
vn 0.00571285 -0.01726924 -0.99983450
vn -0.01009919 0.40308850 -0.91510530
vn -0.00625684 -0.01781225 -0.99982180
vn -0.46016000 -0.02017285 -0.88760690
vn -0.01412157 0.86122720 -0.50802400
vn -0.89230980 -0.00517535 -0.45139380
vn -0.46939750 0.02377191 -0.88266680
vn -0.00567986 0.01729472 -0.99983430
vn 0.01411351 0.72022890 0.69359300
vn 0.00311363 0.60321460 0.79757290
vn -0.00933365 0.60801790 0.79386840
vn -0.01398971 0.71260510 0.70142590
vn 0.02752686 0.96165030 0.27289380
vn 0.76614090 -0.02321051 0.64225340
vn 0.96436790 -0.02319691 0.26354620
vn -0.02709556 0.95962660 0.27996910
vn -0.75322380 -0.02455883 0.65730570
vn -0.96379730 -0.02330810 0.26561550
vn 0.02708995 0.95962720 -0.27996740
vn -0.02753687 0.96164880 -0.27289770
vn 0.00489271 0.85560230 -0.51761070
vn -0.01412157 0.86122720 -0.50802400
vn 0.88331780 -0.02326144 -0.46819720
vn 0.96379780 -0.02330175 -0.26561410
vn 0.00771280 0.40853730 -0.91270910
vn -0.01009919 0.40308850 -0.91510530
vn -0.75322380 -0.02455883 0.65730570
vn -0.65934010 -0.00666544 0.75181530
vn -0.65184400 0.01792476 0.75814120
vn -0.76614390 0.02323004 0.64224910
vn -0.96379730 -0.02330810 0.26561550
vn -0.96436670 0.02320173 0.26354990
vn -0.96436640 -0.02320394 -0.26355090
vn -0.96379450 0.02330592 -0.26562550
vn -0.02709556 0.95962660 0.27996910
vn -0.02753687 0.96164880 -0.27289770
vn -0.89230980 -0.00517535 -0.45139380
vn -0.01412157 0.86122720 -0.50802400
vn -0.02753770 -0.96164950 0.27289550
vn -0.01412350 -0.72022730 0.69359430
vn 0.01399639 -0.71260540 0.70142540
vn 0.02708981 -0.95962660 0.27996980
vn -0.02709156 -0.95962400 -0.27997820
vn -0.96436670 0.02320173 0.26354990
vn -0.96379450 0.02330592 -0.26562550
vn 0.02752754 -0.96165060 -0.27289250
vn -0.00489980 -0.85559000 -0.51763080
vn 0.01410071 -0.86121400 -0.50804700
vn 0.89230780 0.00523653 -0.45139700
vn 0.96436850 0.02319053 -0.26354440
vn 0.96379640 0.02329841 0.26561970
vn 0.96436850 0.02319053 -0.26354440
vn 0.96436790 -0.02319691 0.26354620
vn 0.96379780 -0.02330175 -0.26561410
vn 0.96379640 0.02329841 0.26561970
vn 0.76614090 -0.02321051 0.64225340
vn 0.75322560 0.02457321 0.65730310
vn 0.02708981 -0.95962660 0.27996980
vn 0.01399639 -0.71260540 0.70142540
vn 0.46013890 0.02019672 -0.88761720
vn 0.01410071 -0.86121400 -0.50804700
vn 0.89230780 0.00523653 -0.45139700
vn 0.01008158 -0.40305920 -0.91511830
vn 0.00621779 0.01783975 -0.99982160
vn 0.46938200 -0.02377743 -0.88267510
vn 0.00571285 -0.01726924 -0.99983450
vn -0.00625684 -0.01781225 -0.99982180
vn -0.00567986 0.01729472 -0.99983430
vn -0.00771208 -0.40854110 -0.91270730
vn -0.00489980 -0.85559000 -0.51763080
vn -0.46939750 0.02377191 -0.88266680
vn -0.88331870 0.02327913 -0.46819460
vn -0.46016000 -0.02017285 -0.88760690
vn -0.88331870 0.02327913 -0.46819460
vn -0.46939750 0.02377191 -0.88266680
vn -0.76614390 0.02323004 0.64224910
vn -0.01412350 -0.72022730 0.69359430
vn -0.02753770 -0.96164950 0.27289550
vn -0.96436670 0.02320173 0.26354990
vn -0.02709156 -0.95962400 -0.27997820
vn -0.00489980 -0.85559000 -0.51763080
vn -0.88331870 0.02327913 -0.46819460
vn -0.96379450 0.02330592 -0.26562550
vn -0.89230980 -0.00517535 -0.45139380
vn -0.96436640 -0.02320394 -0.26355090
vn 0.96379780 -0.02330175 -0.26561410
vn 0.88331780 -0.02326144 -0.46819720
vn 0.89230780 0.00523653 -0.45139700
vn 0.96436850 0.02319053 -0.26354440
vn 0.02708995 0.95962720 -0.27996740
vn 0.96436790 -0.02319691 0.26354620
vn 0.02752686 0.96165030 0.27289380
vt 1.35909200 0.30723610
vt 1.54550600 0.09127054
vt 1.54550600 0.30723610
vt 1.35909200 0.09127054
vt 1.54598700 0.08956924
vt 1.35861100 0.08956924
vt 1.35739000 0.09078985
vt 1.35739000 0.30771700
vt 1.35861100 0.30893760
vt 1.35313200 0.31441610
vt 1.35191200 0.31319550
vt 1.35191200 0.08531106
vt 1.35313200 0.08409047
vt -0.44174210 0.08409047
vt -0.44052170 0.08531106
vt -0.44600030 0.09078985
vt -0.44722090 0.08956924
vt -0.44770180 0.09127054
vt -0.44600030 0.30771710
vt -0.44770180 0.30723610
vt -0.44722090 0.30893760
vt -0.44052170 0.31319560
vt -0.44174210 0.31441620
vt -0.64007540 0.31441620
vt -0.63459660 0.30893760
vt -0.63411590 0.30723610
vt -0.44174210 0.31441620
vt -0.63971150 0.31405240
vt -0.64007540 0.31441620
vt -0.44210610 0.31405240
vt -0.44088550 0.31283180
vt -0.44052170 0.31319560
vt -0.44258680 0.31235110
vt -0.44088550 0.08567485
vt -0.44258680 0.08615553
vt -0.44210610 0.08445424
vt -0.44052170 0.08531106
vt -0.44174240 0.08409047
vt -0.63971150 0.08445430
vt -0.63923080 0.08615559
vt 0.51929040 -0.18830510
vt 0.52476900 -0.18282640
vt 0.74169610 -0.18282640
vt 0.74717490 -0.18830500
vt 0.51836160 -0.19000640
vt 0.51806990 -0.18830510
vt 0.51736500 -0.19000640
vt 0.74810370 -0.19000640
vt 0.74839560 -0.18830510
vt 0.74910030 -0.19000640
vt 0.51836160 -0.19097420
vt 0.74810370 -0.19097420
vt 0.51929040 -0.19267550
vt 0.74717490 -0.19267550
vt 0.51806990 -0.19267550
vt 0.51736500 -0.19097420
vt 0.51965420 -0.19303940
vt 0.74681120 -0.19303940
vt -0.44174220 -0.18830510
vt -0.44722100 -0.18282630
vt -0.63459660 -0.18282630
vt -0.64007540 -0.18830510
vt -0.44081370 -0.19000640
vt -0.64100410 -0.19000640
vt -0.44081370 -0.19097420
vt -0.64100410 -0.19097420
vt -0.43981710 -0.19000640
vt -0.43981710 -0.19097420
vt -0.44174250 -0.19267550
vt -0.44052180 -0.19267550
vt 0.74810370 -0.19000640
vt 0.74717490 -0.18830510
vt 0.51929040 -0.18830510
vt 0.51836160 -0.19000640
vt 0.74810370 -0.19097420
vt 0.74910030 -0.19000640
vt 0.74910030 -0.19097420
vt 0.51836160 -0.19097420
vt 0.74717490 -0.19267550
vt 0.51929040 -0.19267550
vt 0.51806990 -0.19267550
vt 0.51736500 -0.19097420
vt 0.51736500 -0.19000640
vt 1.35220300 -0.19097420
vt 1.55239400 -0.19000660
vt 1.55239400 -0.19097440
vt 1.35220300 -0.19000640
vt 1.55146600 -0.18830530
vt 1.35313200 -0.18830530
vt 1.35120700 -0.19000660
vt 1.35191200 -0.18830530
vt 1.35349600 0.31405220
vt 1.35191200 0.31319550
vt 1.35313200 0.31441610
vt 1.35227500 0.31283160
vt 1.35397700 0.31235100
vt 1.55110100 0.31405230
vt 1.55062100 0.31235110
vt 1.55062100 0.08615553
vt 1.35397700 0.08615553
vt 1.35227500 0.08567485
vt 1.35191200 0.08531106
vt 1.35349600 0.08445424
vt 1.35313200 0.08409047
vt -0.44210610 -0.19303940
vt -0.64007540 -0.19267550
vt -0.63971150 -0.19303940
vt 1.35313200 -0.18830530
vt 1.35191200 -0.18830530
vt 1.35120700 -0.19000660
vt 1.35220300 -0.19000640
vt 1.35120700 -0.19097440
vt 1.35191200 -0.19267570
vt 1.35313200 -0.19267570
vt 1.35220300 -0.19097420
vt 1.55146500 -0.19267570
vt 1.55239400 -0.19097440
vt -0.44081370 -0.19097420
vt -0.44174220 -0.19267550
vt -0.64007540 -0.19267550
vt -0.64100410 -0.19097420
vt -0.43981710 -0.19097420
vt -0.44081370 -0.19000640
vt -0.43981710 -0.19000640
f 3/3/3 2/2/2 1/1/1
f 2/2/2 4/4/4 1/1/1
f 2/2/2 5/5/5 4/4/4
f 5/5/5 6/6/6 4/4/4
f 4/4/4 7/7/7 1/1/1
f 6/6/6 7/7/7 4/4/4
f 7/7/7 8/8/8 1/1/1
f 1/1/1 8/8/8 9/9/9
f 9/9/9 8/8/8 10/10/10
f 8/8/8 11/11/11 10/10/10
f 12/12/12 11/11/11 8/8/8
f 7/7/7 12/12/12 8/8/8
f 12/12/12 7/7/7 6/6/6
f 13/13/13 12/12/12 6/6/6
f 16/16/16 15/15/15 14/14/14
f 17/17/17 16/16/16 14/14/14
f 18/18/18 16/16/16 17/17/17
f 19/19/19 16/16/16 18/18/18
f 20/20/20 19/19/19 18/18/18
f 19/19/19 20/20/20 21/21/21
f 22/22/22 19/19/19 21/21/21
f 23/23/23 22/22/22 21/21/21
f 24/24/24 23/23/23 21/21/21
f 25/25/25 24/24/24 21/21/21
f 25/25/25 21/21/21 20/20/20
f 26/26/26 25/25/25 20/20/20
f 29/29/29 28/28/28 27/27/27
f 28/28/28 30/30/30 27/27/27
f 30/30/30 31/31/31 27/27/27
f 31/31/31 32/32/32 27/27/27
f 33/33/33 31/31/31 30/30/30
f 34/34/34 31/31/31 33/33/33
f 35/35/35 34/34/34 33/33/33
f 36/36/36 34/34/34 35/35/35
f 37/37/37 34/34/34 36/36/36
f 38/38/38 37/37/37 36/36/36
f 39/39/39 36/36/36 35/35/35
f 40/40/40 39/39/39 35/35/35
f 43/43/43 42/42/42 41/41/41
f 44/44/44 43/43/43 41/41/41
f 44/44/44 41/41/41 45/45/45
f 45/45/45 41/41/41 46/46/46
f 47/47/47 45/45/45 46/46/46
f 48/48/48 44/44/44 45/45/45
f 49/49/49 44/44/44 48/48/48
f 50/50/50 49/49/49 48/48/48
f 48/48/48 45/45/45 51/51/51
f 52/52/52 48/48/48 51/51/51
f 51/51/51 53/53/53 52/52/52
f 53/53/53 54/54/54 52/52/52
f 53/53/53 51/51/51 55/55/55
f 51/51/51 56/56/56 55/55/55
f 54/54/54 53/53/53 57/57/57
f 58/58/58 54/54/54 57/57/57
f 61/61/61 60/60/60 59/59/59
f 62/62/62 61/61/61 59/59/59
f 62/62/62 59/59/59 63/63/63
f 64/64/64 62/62/62 63/63/63
f 64/64/64 63/63/63 65/65/65
f 66/66/66 64/64/64 65/65/65
f 65/65/65 63/63/63 67/67/67
f 68/68/68 65/65/65 67/67/67
f 65/65/65 68/68/68 69/69/69
f 68/68/68 70/70/70 69/69/69
f 73/73/73 72/72/72 71/71/71
f 74/74/74 73/73/73 71/71/71
f 74/74/74 71/71/71 75/75/75
f 75/75/75 71/71/71 76/76/76
f 77/77/77 75/75/75 76/76/76
f 78/78/78 74/74/74 75/75/75
f 75/75/75 79/79/79 78/78/78
f 79/79/79 80/80/80 78/78/78
f 78/78/78 80/80/80 81/81/81
f 82/82/82 78/78/78 81/81/81
f 78/78/78 82/82/82 74/74/74
f 82/82/82 83/83/83 74/74/74
f 86/86/86 85/85/85 84/84/84
f 85/85/85 87/87/87 84/84/84
f 85/85/85 88/88/88 87/87/87
f 88/88/88 89/89/89 87/87/87
f 90/90/90 87/87/87 89/89/89
f 91/91/91 90/90/90 89/89/89
f 94/94/94 93/93/93 92/92/92
f 93/93/93 95/95/95 92/92/92
f 95/95/95 96/96/96 92/92/92
f 97/97/97 92/92/92 96/96/96
f 98/98/98 97/97/97 96/96/96
f 99/99/99 98/98/98 96/96/96
f 100/100/100 99/99/99 96/96/96
f 96/96/96 95/95/95 100/100/100
f 101/101/101 95/95/95 93/93/93
f 95/95/95 101/101/101 100/100/100
f 102/102/102 101/101/101 93/93/93
f 100/100/100 101/101/101 103/103/103
f 101/101/101 102/102/102 104/104/104
f 103/103/103 101/101/101 104/104/104
f 106/106/106 69/69/69 105/105/105
f 107/107/107 106/106/106 105/105/105
f 110/110/110 109/109/109 108/108/108
f 111/111/111 110/110/110 108/108/108
f 114/114/114 113/113/113 112/112/112
f 115/115/115 114/114/114 112/112/112
f 116/116/116 114/114/114 115/115/115
f 117/117/117 116/116/116 115/115/115
f 120/120/120 119/119/119 118/118/118
f 121/121/121 120/120/120 118/118/118
f 123/123/123 118/118/118 122/122/122
f 124/124/124 123/123/123 122/122/122

