# Blender 4.0.0
# www.blender.org
o decimated_mesh
v -0.026302 0.079628 0.023840
v -0.036019 0.079628 -0.000004
v -0.035726 0.079627 0.023518
v -0.022557 0.020900 0.023840
v -0.043412 0.079629 0.000370
v -0.033102 0.020900 -0.000004
v -0.032523 0.020901 0.023711
v -0.041499 0.020898 0.000328
vn -0.0342 0.0014 0.9994
vn -0.9486 -0.0311 0.3150
vn -0.9130 -0.0582 0.4038
vn -0.0395 -0.0020 -0.9992
vn -0.0001 1.0000 0.0001
vn -0.0130 -0.0008 0.9999
vn -0.9324 -0.0497 0.3579
vn 0.0001 1.0000 -0.0000
vn -0.0002 1.0000 -0.0000
vn -0.9251 -0.0459 0.3770
vn -0.0505 -0.0009 -0.9987
vn -0.9245 -0.0590 0.3767
vn 0.0001 1.0000 -0.0002
vn -0.0002 1.0000 0.0001
vn -0.9136 -0.0454 0.4040
s 0
f 7//1 1//1 3//1
f 8//2 3//2 5//2
f 6//3 4//3 1//3
f 8//4 2//4 6//4
f 5//5 3//5 1//5
f 7//6 4//6 1//6
f 7//7 3//7 8//7
f 6//8 7//8 4//8
f 7//9 6//9 8//9
f 6//10 1//10 2//10
f 8//11 5//11 2//11
f 1//8 2//8 5//8
f 4//12 1//12 2//12
f 8//13 7//13 4//13
f 8//14 4//14 6//14
f 6//15 4//15 2//15
