# Blender 4.0.0
# www.blender.org
o decimated_mesh
v 0.036758 0.142505 -0.000004
v 0.026705 0.142479 -0.023814
v 0.024496 0.141861 -0.023811
v 0.034880 0.142070 -0.000007
v 0.036495 0.142123 -0.010341
v 0.038574 0.141921 -0.000025
v 0.032820 0.141983 -0.019428
v 0.029244 0.141992 -0.023810
v 0.023121 0.140305 -0.023811
v 0.039794 0.140297 -0.001077
v 0.031084 0.140357 -0.023809
v 0.039800 0.140361 -0.000007
v 0.038258 0.140279 -0.009947
v 0.034264 0.140301 -0.019741
v 0.033571 0.140663 -0.000007
v 0.026319 0.078691 -0.023811
v 0.036015 0.078691 -0.000007
v 0.034947 0.078691 -0.023811
v 0.042988 0.078692 -0.000216
v 0.041951 0.116888 -0.000007
v 0.036837 0.096494 -0.021257
v 0.036869 0.078691 -0.021306
v 0.041023 0.078691 -0.011110
vn 0.6469 0.0406 -0.7615
vn 0.0003 -0.0015 -1.0000
vn -0.0000 -1.0000 -0.0000
vn 0.1866 0.9708 -0.1504
vn 0.1284 0.9894 -0.0672
vn 0.6190 0.0211 -0.7851
vn 0.7859 0.6170 -0.0403
vn 0.5844 0.6575 -0.4755
vn -0.2680 0.9573 0.1085
vn -0.6987 0.6499 0.2990
vn 0.9239 0.0673 -0.3766
vn 0.9830 0.0485 -0.1774
vn 0.9255 0.0365 -0.3770
vn 0.0208 0.0283 0.9994
vn -0.0017 0.0010 1.0000
vn 0.0001 -0.0000 -1.0000
vn 0.0301 -0.0047 0.9995
vn 0.0002 0.0015 -1.0000
vn 0.0899 0.9952 -0.0390
vn 0.7865 0.0674 -0.6139
vn 0.7934 0.0031 -0.6087
vn -0.0000 -0.0000 -1.0000
vn 0.0003 -0.0000 -1.0000
vn 0.0016 0.0012 -1.0000
vn -0.0014 0.0013 -1.0000
vn 0.0002 -1.0000 0.0001
vn 0.7497 0.6487 -0.1312
vn 0.7305 0.6696 -0.1341
vn 0.6209 0.6221 -0.4769
vn 0.6979 0.6538 -0.2923
vn 0.7217 0.6272 -0.2928
vn 0.3056 0.9512 -0.0429
vn 0.9958 0.0913 -0.0103
vn -0.2246 0.9699 0.0938
vn -0.7136 0.6313 0.3038
vn 0.9505 0.0485 -0.3070
vn 0.9261 0.0027 -0.3773
vn 0.9842 0.0474 -0.1706
vn 0.9143 0.0475 -0.4021
vn -0.0011 -0.0000 1.0000
vn 0.0003 -0.0000 1.0000
vn 0.0009 0.0001 1.0000
vn 0.0011 0.0001 -1.0000
vn -0.0006 -0.0000 -1.0000
vn 0.9148 0.0361 -0.4022
vn 0.9250 0.0480 -0.3768
vn 0.9819 0.0827 -0.1703
vn 0.9837 0.0277 -0.1775
vn 0.9680 0.0481 -0.2464
s 0
f 11//1 21//1 18//1
f 2//2 11//2 9//2
f 16//3 18//3 22//3
f 7//4 8//4 2//4
f 7//5 2//5 5//5
f 10//6 20//6 19//6
f 6//7 12//7 10//7
f 11//8 8//8 7//8
f 4//9 2//9 3//9
f 3//10 15//10 4//10
f 21//11 14//11 13//11
f 10//12 19//12 23//12
f 15//13 17//13 16//13
f 6//14 1//14 12//14
f 1//15 4//15 15//15
f 15//16 20//16 17//16
f 17//17 19//17 20//17
f 20//16 15//16 12//16
f 15//18 1//18 12//18
f 2//19 1//19 5//19
f 14//20 21//20 11//20
f 21//21 22//21 18//21
f 11//22 18//22 16//22
f 16//23 9//23 11//23
f 11//24 2//24 8//24
f 3//25 2//25 9//25
f 23//26 19//26 17//26
f 17//3 16//3 23//3
f 23//3 16//3 22//3
f 10//27 13//27 6//27
f 6//28 13//28 5//28
f 7//29 14//29 11//29
f 7//30 5//30 14//30
f 5//31 13//31 14//31
f 5//32 1//32 6//32
f 12//33 20//33 10//33
f 4//34 1//34 2//34
f 3//35 9//35 15//35
f 13//36 23//36 21//36
f 23//37 22//37 21//37
f 23//38 13//38 10//38
f 15//39 16//39 9//39
f 15//40 17//40 1//40
f 17//41 20//41 1//41
f 20//42 12//42 1//42
f 11//43 18//43 2//43
f 18//22 16//22 2//22
f 16//44 9//44 2//44
f 9//45 15//45 17//45
f 9//46 17//46 16//46
f 13//47 10//47 20//47
f 19//48 23//48 20//48
f 23//49 13//49 20//49
