# Blender 4.0.0
# www.blender.org
o decimated_mesh
v -0.013368 0.020900 0.030041
v -0.000008 0.020900 0.032832
v -0.013282 0.020900 0.037968
v -0.013368 0.140153 0.030412
v -0.000032 0.020900 0.040225
v -0.000008 0.139548 0.033127
v -0.000008 0.141743 0.034017
v -0.013368 0.141836 0.031397
v -0.013368 0.142452 0.033291
v -0.013363 0.142233 0.035168
v -0.000009 0.142479 0.036182
v -0.009769 0.141859 0.036989
v -0.009923 0.140262 0.038250
v -0.013367 0.140285 0.037038
v -0.000015 0.141813 0.038401
v -0.000013 0.139338 0.039665
v -0.011297 0.092808 0.041075
v -0.013368 0.092808 0.040319
v -0.000026 0.095176 0.042588
vn -0.0000 1.0000 -0.0000
vn -1.0000 0.0018 0.0001
vn -0.3422 0.0648 0.9374
vn -0.1093 0.6225 0.7750
vn 0.1702 0.4977 -0.8505
vn 0.0675 0.9447 -0.3209
vn -0.1678 -0.0379 0.9851
vn -0.0845 0.4530 0.8875
vn -0.3428 -0.0311 0.9389
vn -0.2045 -0.0030 0.9789
vn -0.9999 -0.0015 0.0108
vn -1.0000 -0.0000 0.0002
vn -1.0000 -0.0000 -0.0000
vn -1.0000 -0.0026 0.0020
vn -1.0000 0.0003 -0.0002
vn -1.0000 0.0002 -0.0007
vn 1.0000 -0.0002 0.0033
vn -1.0000 -0.0000 -0.0018
vn 1.0000 -0.0001 0.0003
vn -1.0000 0.0020 -0.0021
vn -1.0000 -0.0012 -0.0007
vn 0.0271 -0.9929 -0.1157
vn -0.0394 0.9571 0.2872
vn -0.3308 0.0656 0.9414
vn -0.1351 0.0655 0.9887
vn -0.1458 0.0630 0.9873
vn -0.2584 0.6139 0.7459
vn -0.2814 0.6647 0.6921
vn 0.0671 0.9489 -0.3083
vn -0.1265 -0.0315 0.9915
vn 0.2012 0.3678 -0.9079
vn -0.0338 0.9637 0.2649
vn -0.1993 -0.0024 0.9799
vn -0.1993 -0.0031 0.9799
vn -0.2045 -0.0024 0.9789
vn -1.0000 -0.0000 0.0003
vn 0.0648 0.9491 -0.3084
vn -1.0000 0.0044 0.0029
vn 1.0000 -0.0000 0.0002
vn 1.0000 -0.0000 0.0011
vn 1.0000 -0.0001 0.0027
vn -0.0385 0.9611 0.2735
vn -0.0371 0.9571 0.2873
vn 1.0000 0.0026 0.0035
vn 0.0695 0.9446 -0.3209
s 0
f 3//1 5//1 2//1
f 14//2 10//2 4//2
f 17//3 14//3 18//3
f 12//4 13//4 15//4
f 8//5 7//5 4//5
f 7//6 9//6 11//6
f 5//7 17//7 3//7
f 16//8 15//8 13//8
f 18//9 3//9 17//9
f 4//10 1//10 2//10
f 1//1 3//1 2//1
f 3//11 18//11 1//11
f 18//12 14//12 4//12
f 1//13 18//13 4//13
f 10//14 9//14 4//14
f 9//15 8//15 4//15
f 16//16 6//16 19//16
f 19//17 5//17 2//17
f 6//18 2//18 19//18
f 6//19 7//19 11//19
f 6//20 15//20 11//20
f 15//21 6//21 16//21
f 10//22 9//22 11//22
f 11//23 10//23 15//23
f 17//24 13//24 14//24
f 19//25 16//25 13//25
f 13//26 17//26 19//26
f 13//27 12//27 14//27
f 12//28 10//28 14//28
f 7//29 8//29 9//29
f 5//30 19//30 17//30
f 4//31 7//31 6//31
f 12//32 15//32 10//32
f 4//33 2//33 6//33
f 5//1 1//1 3//1
f 18//13 9//13 1//13
f 9//13 4//13 1//13
f 4//34 1//34 6//34
f 6//35 1//35 2//35
f 2//1 1//1 5//1
f 14//36 9//36 18//36
f 11//37 8//37 9//37
f 14//38 10//38 9//38
f 11//39 2//39 6//39
f 11//40 16//40 2//40
f 16//41 19//41 2//41
f 10//42 12//42 11//42
f 12//43 15//43 11//43
f 15//44 16//44 11//44
f 7//45 8//45 11//45
