# Blender 4.0.0
# www.blender.org
o decimated_mesh
v -0.026704 0.142479 0.023843
v -0.029228 0.141994 0.023839
v -0.035492 0.142390 -0.000006
v -0.024461 0.141856 0.023840
v -0.032597 0.142054 0.019535
v -0.038365 0.142079 -0.000000
v -0.031061 0.140364 0.023838
v -0.033572 0.140673 -0.000004
v -0.035763 0.142387 0.009462
v -0.036918 0.141864 0.010027
v -0.023095 0.140312 0.023840
v -0.034228 0.140314 0.019797
v -0.038257 0.140280 0.009949
v -0.039833 0.140387 -0.000002
v -0.026302 0.079628 0.023840
v -0.036019 0.079628 -0.000004
v -0.041902 0.118174 0.000609
v -0.034930 0.079628 0.023840
v -0.042935 0.079628 0.000018
v -0.036837 0.096493 0.021256
v -0.041026 0.079628 0.011119
v -0.036872 0.079628 0.021310
vn -0.7933 0.0036 0.6088
vn -0.7605 0.6367 0.1273
vn -0.9254 0.0371 0.3771
vn -0.9853 0.0238 0.1694
vn -0.1237 0.9897 0.0716
vn -0.9260 0.0031 0.3775
vn -0.1865 0.9694 0.1595
vn 0.7135 0.6313 -0.3040
vn -0.0000 1.0000 -0.0000
vn -0.6083 0.6405 0.4688
vn -0.0018 0.0014 1.0000
vn 0.0003 -0.0013 1.0000
vn -0.5422 0.0274 -0.8398
vn -0.5872 0.6598 0.4689
vn 0.2663 0.9585 -0.1017
vn -0.6543 0.0417 0.7550
vn -0.7857 0.0673 0.6149
vn -0.7495 0.6506 0.1221
vn -0.9142 0.0483 0.4024
vn -0.9643 0.0490 0.2602
vn -0.9830 0.0958 0.1567
vn -0.3807 0.9217 0.0746
vn -0.3503 0.9260 0.1407
vn -0.9235 0.0676 0.3776
vn -0.9494 0.0493 0.3103
vn -0.6752 0.6768 0.2933
vn -0.7359 0.6075 0.2990
vn 0.6402 0.7153 -0.2801
vn 0.0014 0.0013 1.0000
vn -0.0003 -0.0017 1.0000
vn -0.0000 -0.0000 1.0000
vn -0.0003 -0.0000 1.0000
vn 0.0017 0.0033 1.0000
vn 0.0003 -0.0000 1.0000
vn -0.0032 -0.0002 -1.0000
vn -0.0103 0.9999 0.0001
vn -0.1079 0.9942 -0.0027
vn -0.0012 0.0001 1.0000
vn 0.0007 -0.0000 1.0000
vn 0.0013 -0.0000 -1.0000
vn -0.0010 -0.0000 -1.0000
vn -0.0024 0.0030 -1.0000
vn -0.9249 0.0489 0.3770
vn -0.9147 0.0367 0.4025
s 0
f 20//1 22//1 18//1
f 14//2 13//2 10//2
f 8//3 16//3 15//3
f 17//4 19//4 21//4
f 5//5 1//5 9//5
f 21//6 22//6 20//6
f 1//7 5//7 2//7
f 8//8 4//8 11//8
f 15//9 22//9 18//9
f 5//10 12//10 7//10
f 2//11 7//11 1//11
f 8//12 6//12 14//12
f 14//13 19//13 17//13
f 7//14 2//14 5//14
f 3//15 1//15 4//15
f 18//16 7//16 20//16
f 7//17 12//17 20//17
f 10//18 6//18 14//18
f 8//19 15//19 11//19
f 21//20 13//20 17//20
f 14//21 17//21 13//21
f 6//22 10//22 9//22
f 10//23 5//23 9//23
f 20//24 12//24 13//24
f 13//25 21//25 20//25
f 5//26 10//26 12//26
f 10//27 13//27 12//27
f 8//28 3//28 4//28
f 22//9 15//9 21//9
f 21//9 16//9 19//9
f 16//9 21//9 15//9
f 4//29 1//29 11//29
f 11//30 1//30 7//30
f 7//31 18//31 15//31
f 15//32 11//32 7//32
f 6//33 8//33 3//33
f 8//34 14//34 16//34
f 16//35 19//35 14//35
f 1//36 3//36 9//36
f 3//37 6//37 9//37
f 7//38 18//38 1//38
f 18//31 15//31 1//31
f 15//39 11//39 1//39
f 8//40 16//40 3//40
f 16//41 14//41 3//41
f 14//42 6//42 3//42
f 22//9 18//9 19//9
f 19//9 18//9 15//9
f 19//9 15//9 16//9
f 16//43 15//43 11//43
f 16//44 11//44 8//44
f 21//9 22//9 19//9
