# Blender 4.0.0
# www.blender.org
o decimated_mesh
v 0.011942 0.019696 -0.014395
v 0.011942 0.005379 -0.014395
v -0.011867 0.021166 -0.030581
v -0.011867 0.019696 -0.014877
v -0.011867 0.005518 -0.014877
v 0.001170 -0.000334 -0.020911
v 0.003792 -0.000327 -0.023178
v 0.005546 -0.000111 -0.026518
v 0.007583 0.001080 -0.029973
v 0.011942 0.020686 -0.038313
v -0.000096 0.021166 -0.040250
v -0.011844 0.021167 -0.038445
v -0.005531 -0.000121 -0.026524
v -0.003952 -0.000258 -0.023075
v -0.001256 -0.000335 -0.020952
v -0.000101 0.000868 -0.018670
v 0.002930 -0.000722 -0.024269
v 0.005047 -0.000484 -0.028654
v 0.005698 -0.000209 -0.029855
v 0.010111 0.020674 -0.038874
v -0.007596 0.001084 -0.029973
v -0.005449 -0.000363 -0.029609
v -0.002953 -0.000715 -0.024289
v -0.000015 -0.000671 -0.021824
v 0.011943 0.008280 -0.034974
v 0.009822 0.012203 -0.038260
v -0.011866 0.012780 -0.037663
v -0.011872 0.008564 -0.035766
v 0.003374 -0.000710 -0.031576
v 0.004733 -0.000060 -0.032571
v 0.011942 0.012867 -0.037640
v -0.004500 0.007718 -0.038704
v -0.009833 0.012058 -0.038230
v -0.006666 0.001605 -0.033798
v -0.004724 -0.000068 -0.032559
v -0.003410 -0.000705 -0.031559
v 0.002124 -0.000635 -0.033288
v 0.006670 0.001585 -0.033748
v 0.011945 0.009054 -0.036015
v 0.003541 0.007821 -0.038856
v 0.000054 0.007197 -0.039018
v 0.004865 0.006675 -0.038338
v -0.011862 0.009826 -0.036780
v -0.002781 0.001372 -0.036861
v -0.002125 -0.000635 -0.033288
v 0.000019 -0.000768 -0.033386
v -0.000017 -0.000209 -0.035124
v 0.001760 -0.000228 -0.034796
v 0.002809 0.001440 -0.036891
v 0.010132 0.008372 -0.036938
v -0.002051 -0.000200 -0.034663
v 0.011942 0.010764 -0.036956
vn 0.5315 -0.4078 -0.7424
vn -0.5215 -0.8268 -0.2109
vn -0.4563 -0.8726 0.1743
vn 1.0000 0.0001 -0.0001
vn -1.0000 0.0008 -0.0011
vn 0.0995 -0.3123 -0.9448
vn -0.1000 -0.3023 -0.9480
vn 0.3027 -0.9484 0.0946
vn -0.5640 -0.8243 0.0497
vn -0.0656 -0.9939 -0.0886
vn -0.0786 -0.0884 -0.9930
vn 0.2179 -0.1818 -0.9589
vn -0.1573 -0.9875 0.0085
vn -0.2705 -0.9327 -0.2384
vn -0.3974 -0.8037 -0.4429
vn 0.1394 -0.0652 -0.9881
vn 0.1354 -0.9736 0.1835
vn 0.5386 -0.8088 -0.2360
vn 0.2712 -0.9324 -0.2387
vn -0.2794 -0.9578 0.0677
vn 0.3307 -0.2838 -0.9000
vn -0.8381 -0.5399 -0.0785
vn 0.5799 -0.8123 0.0619
vn 0.0468 -0.9507 -0.3064
vn 0.5328 -0.5670 -0.6282
vn -0.4741 -0.5492 -0.6882
vn 0.0863 0.9497 -0.3010
vn -0.0191 -0.6605 0.7506
vn -0.0731 -0.9500 -0.3037
vn 0.7344 -0.6263 -0.2614
vn 0.0337 0.9986 0.0410
vn -0.2962 -0.0878 -0.9511
vn 0.2924 -0.0821 -0.9528
vn 0.0203 -0.0000 -0.9998
vn 0.8277 -0.5556 -0.0783
vn 0.0007 0.9994 -0.0333
vn 0.1290 -0.8416 0.5245
vn -0.1280 -0.8262 -0.5486
vn 0.0669 -0.9935 -0.0922
vn -0.1895 -0.9601 0.2056
vn -0.3460 -0.2692 -0.8988
vn -0.0074 -0.8830 0.4694
vn 0.6610 -0.6025 -0.4473
vn -0.2956 -0.8917 0.3429
vn -0.5405 -0.8060 -0.2413
vn 1.0000 0.0035 0.0041
vn 1.0000 0.0002 -0.0000
vn 1.0000 -0.0000 -0.0000
vn -1.0000 0.0003 0.0003
vn -1.0000 -0.0000 -0.0000
vn -1.0000 0.0024 -0.0029
vn -0.9998 -0.0064 -0.0172
vn 0.3922 -0.8053 -0.4446
vn 0.3923 -0.7941 -0.4642
vn 0.1011 -0.3018 -0.9480
vn 0.1004 -0.8024 -0.5883
vn -0.1621 -0.8367 0.5232
vn 0.3070 -0.9464 0.1002
vn -0.5878 -0.8059 0.0704
vn 0.4345 -0.8842 0.1712
vn -0.1422 -0.0670 -0.9876
vn -0.1516 -0.0568 -0.9868
vn -0.3204 -0.9315 -0.1720
vn -0.2836 -0.9098 -0.3030
vn -0.3971 -0.7974 -0.4543
vn 0.3491 -0.3746 -0.8590
vn -0.0009 -0.3468 -0.9379
vn 0.0615 -0.0870 -0.9943
vn 0.1296 -0.0761 -0.9886
vn 0.1805 -0.9618 0.2058
vn 0.5403 -0.8070 -0.2386
vn 0.2859 -0.9055 -0.3136
vn 0.3238 -0.9314 -0.1663
vn 0.2637 -0.9616 -0.0765
vn -0.3074 -0.9460 0.1032
vn 0.3511 -0.2896 -0.8904
vn 0.3590 -0.2783 -0.8909
vn 0.1239 -0.9923 0.0059
vn 0.5660 -0.8229 0.0500
vn 0.5331 -0.5671 -0.6279
vn -0.5315 -0.5649 -0.6312
vn 0.0053 -0.7352 -0.6778
vn -0.0726 -0.9498 -0.3043
vn 0.0001 1.0000 0.0001
vn 0.0019 -0.9956 -0.0932
vn 0.0332 0.9986 0.0413
vn -0.0054 -0.9359 0.3523
vn 0.3026 -0.0792 -0.9498
vn 0.0732 -0.9582 -0.2766
vn 0.0011 1.0000 0.0017
vn -0.0012 -0.9998 0.0195
vn 0.0008 1.0000 0.0014
vn -0.7351 -0.6245 -0.2639
vn 0.4601 -0.8866 0.0470
vn 0.2827 -0.9028 0.3241
vn -0.1365 -0.9741 0.1802
vn -0.3196 -0.2944 -0.9007
vn -0.3284 -0.3443 -0.8796
vn 1.0000 -0.0004 -0.0029
vn 1.0000 -0.0000 0.0001
vn 1.0000 -0.0025 -0.0003
vn 0.3999 -0.7960 -0.4544
vn 0.3493 -0.2803 -0.8941
vn 0.3708 -0.2872 -0.8832
vn 1.0000 -0.0001 -0.0010
vn 0.3033 -0.0818 -0.9494
vn 0.2924 -0.0791 -0.9530
vn 0.0333 0.9986 0.0405
vn 0.0336 0.9986 0.0413
vn 0.0980 -0.3032 -0.9479
vn 0.1075 -0.3039 -0.9466
vn 0.3827 -0.8066 -0.4504
vn 0.1471 -0.0766 -0.9862
vn 0.1301 -0.0678 -0.9892
vn -1.0000 0.0004 -0.0000
vn -1.0000 -0.0000 0.0002
vn -0.0726 -0.9500 -0.3037
vn -0.0732 -0.9498 -0.3043
vn -0.3910 -0.8051 -0.4461
vn -0.4016 -0.7984 -0.4486
vn -0.5285 -0.5726 -0.6268
vn -0.5066 -0.5376 -0.6741
vn 0.0176 -0.9998 -0.0006
vn -0.0012 -1.0000 0.0054
vn -0.0186 -0.9998 -0.0003
s 0
f 50//1 52//1 39//1
f 21//2 35//2 22//2
f 14//3 5//3 13//3
f 1//4 25//4 31//4
f 28//5 3//5 27//5
f 42//6 41//6 40//6
f 32//7 41//7 44//7
f 17//8 18//8 8//8
f 13//9 21//9 22//9
f 36//10 45//10 46//10
f 11//11 41//11 32//11
f 40//12 26//12 42//12
f 23//13 22//13 36//13
f 36//14 35//14 45//14
f 34//15 44//15 51//15
f 26//16 40//16 11//16
f 6//17 24//17 17//17
f 30//18 9//18 19//18
f 37//19 30//19 29//19
f 13//20 22//20 23//20
f 50//21 42//21 26//21
f 28//22 21//22 5//22
f 8//23 9//23 2//23
f 48//24 46//24 47//24
f 49//25 50//25 38//25
f 34//26 28//26 43//26
f 20//27 11//27 10//27
f 16//28 2//28 5//28
f 46//29 51//29 47//29
f 38//30 25//30 9//30
f 1//31 11//31 3//31
f 27//32 12//32 33//32
f 31//33 20//33 10//33
f 1//34 2//34 5//34
f 2//35 9//35 25//35
f 36//36 29//36 46//36
f 16//37 6//37 2//37
f 47//38 51//38 44//38
f 37//39 29//39 46//39
f 14//40 23//40 15//40
f 27//41 33//41 43//41
f 16//42 15//42 6//42
f 38//43 39//43 25//43
f 15//44 5//44 14//44
f 21//45 34//45 35//45
f 39//46 52//46 25//46
f 52//47 31//47 25//47
f 31//48 10//48 1//48
f 1//48 2//48 25//48
f 28//49 5//49 3//49
f 5//50 4//50 3//50
f 3//51 12//51 27//51
f 27//52 43//52 28//52
f 49//53 38//53 48//53
f 38//54 30//54 48//54
f 49//55 41//55 42//55
f 48//56 47//56 49//56
f 16//57 5//57 15//57
f 8//58 7//58 17//58
f 13//59 5//59 21//59
f 8//60 2//60 7//60
f 32//61 33//61 11//61
f 33//62 12//62 11//62
f 22//63 35//63 36//63
f 35//64 51//64 45//64
f 35//65 34//65 51//65
f 42//66 50//66 49//66
f 49//67 44//67 41//67
f 40//68 41//68 11//68
f 11//69 20//69 26//69
f 7//70 6//70 17//70
f 30//71 38//71 9//71
f 48//72 30//72 37//72
f 30//73 19//73 29//73
f 19//74 18//74 29//74
f 23//75 14//75 13//75
f 31//76 52//76 26//76
f 52//77 50//77 26//77
f 17//78 29//78 18//78
f 8//79 19//79 9//79
f 39//80 38//80 50//80
f 43//81 44//81 34//81
f 44//82 49//82 47//82
f 46//83 45//83 51//83
f 11//84 12//84 3//84
f 3//85 1//85 4//85
f 1//86 10//86 11//86
f 24//87 6//87 15//87
f 31//88 26//88 20//88
f 1//34 5//34 4//34
f 48//89 37//89 46//89
f 29//90 23//90 17//90
f 24//91 23//91 17//91
f 23//92 29//92 36//92
f 21//93 28//93 34//93
f 19//94 8//94 18//94
f 7//95 2//95 6//95
f 23//96 24//96 15//96
f 33//97 32//97 43//97
f 32//98 44//98 43//98
f 52//99 10//99 39//99
f 10//47 1//47 39//47
f 1//100 2//100 39//100
f 2//101 25//101 39//101
f 30//102 49//102 38//102
f 26//103 31//103 50//103
f 31//104 52//104 50//104
f 31//105 10//105 52//105
f 31//106 26//106 10//106
f 26//107 20//107 10//107
f 11//108 3//108 10//108
f 3//109 1//109 10//109
f 4//34 2//34 5//34
f 4//34 1//34 2//34
f 41//110 40//110 49//110
f 40//111 42//111 49//111
f 30//112 48//112 49//112
f 40//113 20//113 26//113
f 40//114 11//114 20//114
f 28//115 4//115 3//115
f 28//116 5//116 4//116
f 46//117 45//117 47//117
f 45//118 51//118 47//118
f 51//119 35//119 44//119
f 35//120 34//120 44//120
f 34//121 28//121 44//121
f 28//122 43//122 44//122
f 17//123 46//123 29//123
f 23//124 46//124 17//124
f 23//125 36//125 46//125
