# Blender 4.0.0
# www.blender.org
o decimated_mesh
v 0.026479 0.142498 0.023807
v 0.031660 0.142404 0.019076
v 0.035597 0.142432 -0.000007
v 0.029450 0.141938 0.023802
v 0.033075 0.141824 0.019310
v 0.035828 0.142375 0.009381
v 0.036890 0.141854 0.010135
v 0.024505 0.141889 0.023805
v 0.038409 0.142035 -0.000002
v 0.033553 0.140677 -0.000005
v 0.034229 0.140316 0.019798
v 0.038257 0.140279 0.009948
v 0.023123 0.140289 0.023805
v 0.031159 0.140202 0.023803
v 0.039892 0.140289 0.000017
v 0.036015 0.078691 -0.000004
v 0.026324 0.078691 0.023805
v 0.042923 0.078691 0.000012
v 0.034951 0.078691 0.023805
v 0.036837 0.096494 0.021258
v 0.036870 0.078691 0.021307
v 0.041024 0.078691 0.011109
vn 0.3326 0.9106 0.2454
vn 0.3956 0.9153 0.0757
vn 0.9256 0.0368 0.3768
vn 0.9845 0.0484 0.1685
vn 0.9261 0.0028 0.3772
vn -0.7207 0.6223 -0.3055
vn 0.6488 0.0400 0.7599
vn 0.7565 0.6419 0.1252
vn -0.0000 1.0000 -0.0000
vn -0.0014 0.0011 1.0000
vn 0.1826 0.9664 0.1807
vn -0.0015 0.0032 1.0000
vn -0.0024 -0.0002 1.0000
vn -0.0034 -0.0001 1.0000
vn -0.0029 0.0082 1.0000
vn 0.3537 0.9234 0.1493
vn 0.3490 0.9253 0.1481
vn 0.9147 0.0475 0.4014
vn 0.9856 0.0473 0.1623
vn -0.6265 0.7293 -0.2752
vn 0.7378 0.6050 0.2995
vn 0.7095 0.6390 0.2971
vn 0.9505 0.0485 0.3070
vn 0.9235 0.0675 0.3775
vn -0.2929 0.9492 -0.1148
vn 0.7931 0.0032 0.6091
vn 0.7910 0.0673 0.6080
vn 0.7557 0.6429 0.1248
vn -0.0000 -1.0000 -0.0000
vn 0.6111 0.6248 0.4860
vn 0.6221 0.6134 0.4865
vn 0.0025 0.0035 1.0000
vn 0.0002 -0.0000 1.0000
vn -0.0000 -0.0000 1.0000
vn 0.0002 -0.0013 1.0000
vn 0.1398 0.9902 0.0026
vn 0.0241 0.9997 0.0065
vn 0.0198 0.9998 0.0056
vn 0.0256 0.9996 0.0081
vn 0.0217 0.9997 0.0055
vn -0.0006 -0.0000 1.0000
vn 0.0009 0.0001 1.0000
vn 0.3536 0.9233 0.1500
vn 0.3495 0.9253 0.1475
vn 0.0019 -0.0001 -1.0000
vn 0.0024 -0.0000 -1.0000
vn -0.0012 -0.0001 -1.0000
vn 0.9251 0.0481 0.3766
vn 0.9152 0.0364 0.4015
vn 0.6198 0.6111 0.4923
vn 0.6147 0.6257 0.4802
vn 0.0134 0.0007 -0.9999
vn 0.9856 0.0485 0.1623
vn 0.9846 0.0474 0.1685
s 0
f 4//1 5//1 2//1
f 7//2 9//2 6//2
f 17//3 16//3 10//3
f 22//4 18//4 15//4
f 20//5 21//5 22//5
f 10//6 13//6 8//6
f 20//7 14//7 19//7
f 15//8 7//8 12//8
f 17//9 22//9 16//9
f 1//10 8//10 13//10
f 4//11 2//11 1//11
f 3//12 10//12 9//12
f 15//13 16//13 18//13
f 16//14 15//14 10//14
f 15//15 9//15 10//15
f 6//16 2//16 5//16
f 5//17 7//17 6//17
f 17//18 10//18 13//18
f 12//19 22//19 15//19
f 8//20 3//20 10//20
f 11//21 12//21 7//21
f 7//22 5//22 11//22
f 22//23 12//23 20//23
f 20//24 12//24 11//24
f 3//25 8//25 1//25
f 19//26 21//26 20//26
f 20//27 11//27 14//27
f 9//28 7//28 15//28
f 18//29 22//29 16//29
f 22//9 17//9 21//9
f 21//9 17//9 19//9
f 11//30 5//30 14//30
f 5//31 4//31 14//31
f 4//32 1//32 14//32
f 13//33 17//33 14//33
f 17//34 19//34 14//34
f 13//35 14//35 1//35
f 9//36 3//36 6//36
f 3//37 1//37 2//37
f 6//38 3//38 2//38
f 2//39 6//39 1//39
f 6//40 3//40 1//40
f 13//41 17//41 1//41
f 17//34 19//34 1//34
f 19//42 14//42 1//42
f 5//43 7//43 2//43
f 7//44 6//44 2//44
f 9//45 18//45 3//45
f 18//46 16//46 3//46
f 16//47 10//47 3//47
f 16//48 13//48 17//48
f 10//49 13//49 16//49
f 16//9 21//9 22//9
f 16//9 19//9 21//9
f 16//9 17//9 19//9
f 11//50 4//50 14//50
f 11//51 5//51 4//51
f 15//52 18//52 9//52
f 15//53 12//53 18//53
f 12//54 22//54 18//54
