# Blender 4.0.0
# www.blender.org
o Cup_1_cup_1_1_collision_6
v 0.012379 0.019695 0.014523
v 0.012379 0.004895 0.014523
v 0.012379 0.019695 -0.000005
v -0.000009 0.019695 0.014760
v 0.012379 0.004712 0.013606
v -0.000009 0.005791 0.014760
v -0.012465 0.004828 0.014760
v -0.012465 0.004757 0.014488
v 0.012379 0.009058 -0.000005
v -0.000009 0.019695 -0.000007
v -0.012465 0.019695 0.014760
v 0.012379 0.004698 0.013372
v -0.012465 0.004617 0.013693
v -0.012465 0.004592 0.013488
v 0.012379 0.005054 0.009338
v -0.012465 0.004892 0.009439
v -0.012465 0.009039 -0.000007
v -0.000009 0.009843 -0.000007
v -0.012465 0.019695 -0.000007
v 0.012379 0.004686 0.013100
v -0.012465 0.004540 0.012039
v 0.012379 0.004690 0.010328
v -0.012465 0.004560 0.010623
v 0.012379 0.004649 0.012039
v 0.012379 0.004668 0.010623
vn 1.0000 -0.0000 -0.0000
vn -0.0000 1.0000 -0.0000
vn 0.0191 -0.0000 0.9998
vn 0.0098 -0.1268 0.9919
vn 0.0050 -0.9673 0.2535
vn 0.0052 -0.9807 0.1953
vn 0.0001 -0.0000 -1.0000
vn -0.0000 -0.0000 1.0000
vn 0.0044 -0.9850 0.1728
vn 0.0042 -0.9925 0.1220
vn 0.0045 -0.9980 0.0632
vn -1.0000 -0.0000 -0.0000
vn 0.0044 -0.9191 -0.3939
vn 0.0007 -0.9157 -0.4020
vn 0.0001 -0.0009 -1.0000
vn -0.0000 -0.0000 -1.0000
vn 0.0044 -0.9990 0.0436
vn 0.0043 -0.9993 0.0358
vn 0.0047 -0.9387 -0.3446
vn 0.0019 -0.9628 -0.2703
vn 0.0044 -0.9994 0.0349
vn 0.0044 -0.9999 -0.0136
vn 0.0043 -0.9972 -0.0753
s 0
f 1//1 2//1 5//1
f 1//1 5//1 12//1
f 1//1 12//1 20//1
f 1//1 20//1 24//1
f 1//1 24//1 25//1
f 1//1 25//1 22//1
f 1//1 22//1 15//1
f 1//1 15//1 9//1
f 1//1 9//1 3//1
f 1//2 3//2 10//2
f 1//2 10//2 19//2
f 1//2 19//2 11//2
f 1//2 11//2 4//2
f 1//3 4//3 6//3
f 1//3 6//3 2//3
f 2//4 6//4 7//4
f 2//5 7//5 8//5
f 2//6 8//6 5//6
f 3//7 9//7 18//7
f 3//7 18//7 10//7
f 4//8 11//8 7//8
f 4//8 7//8 6//8
f 5//9 8//9 13//9
f 5//10 13//10 14//10
f 5//11 14//11 12//11
f 7//12 11//12 19//12
f 7//12 19//12 17//12
f 7//12 17//12 16//12
f 7//12 16//12 23//12
f 7//12 23//12 21//12
f 7//12 21//12 14//12
f 7//12 14//12 13//12
f 7//12 13//12 8//12
f 9//13 15//13 16//13
f 9//14 16//14 17//14
f 9//15 17//15 18//15
f 10//16 18//16 17//16
f 10//16 17//16 19//16
f 12//17 14//17 20//17
f 14//18 21//18 20//18
f 15//19 22//19 16//19
f 16//20 22//20 23//20
f 20//21 21//21 24//21
f 21//22 23//22 25//22
f 21//22 25//22 24//22
f 22//23 25//23 23//23
