# Blender 4.0.0
# www.blender.org
o decimated_mesh
v -0.036024 0.080746 -0.000007
v -0.026283 0.080746 -0.023870
v -0.043425 0.080750 -0.000388
v -0.033210 0.021166 -0.000007
v -0.022818 0.021166 -0.023870
v -0.035724 0.080743 -0.023586
v -0.041673 0.021168 -0.000842
v -0.032754 0.021166 -0.023679
vn -0.0193 -0.0011 -0.9998
vn -0.0000 -1.0000 -0.0000
vn -0.0514 -0.0091 0.9986
vn -0.9155 -0.0532 -0.3987
vn -0.0302 0.0001 -0.9995
vn -0.0002 -1.0000 -0.0000
vn -0.9305 -0.0458 -0.3634
vn -0.9488 -0.0255 -0.3150
vn -0.0982 -0.0046 0.9952
vn -0.9250 -0.0437 -0.3776
vn 0.0005 1.0000 0.0002
vn -0.0003 1.0000 -0.0004
vn -0.0514 -0.0024 0.9987
vn -0.9160 -0.0433 -0.3989
vn -0.9245 -0.0538 -0.3774
vn -0.0982 -0.0105 0.9951
s 0
f 8//1 2//1 5//1
f 5//2 4//2 8//2
f 7//3 1//3 3//3
f 2//4 5//4 4//4
f 8//5 6//5 2//5
f 7//6 8//6 4//6
f 6//7 8//7 7//7
f 7//8 3//8 6//8
f 7//9 4//9 1//9
f 2//10 4//10 1//10
f 1//11 2//11 3//11
f 3//12 2//12 6//12
f 3//13 4//13 1//13
f 4//14 1//14 5//14
f 5//15 1//15 2//15
f 7//16 4//16 3//16
