# Blender 4.0.0
# www.blender.org
o decimated_mesh
v 0.012379 0.020686 0.038151
v 0.000000 0.020891 0.040230
v 0.010181 0.020683 0.038860
v 0.012379 0.019696 0.014526
v 0.009940 0.012259 0.038233
v 0.012379 0.012910 0.037496
v 0.012379 0.004893 0.014526
v -0.012462 0.020911 0.038140
v -0.012465 0.019696 0.014765
v -0.000013 0.007193 0.039016
v 0.004645 0.007482 0.038645
v 0.005133 -0.000465 0.028281
v 0.000892 -0.000500 0.021250
v -0.000707 0.001271 0.018247
v -0.012465 0.004830 0.014765
v 0.007602 0.001169 0.030282
v -0.010621 0.020900 0.038749
v -0.009892 0.012228 0.038242
v -0.004491 0.007364 0.038652
v 0.006021 -0.000041 0.029701
v 0.003040 -0.000700 0.024106
v -0.001108 -0.000287 0.020765
v -0.005064 -0.000478 0.028252
v -0.005706 -0.000202 0.029774
v -0.007614 0.001223 0.030465
v 0.012383 0.008662 0.035576
v -0.012465 0.013080 0.037482
v 0.002863 0.001417 0.036849
v 0.012374 0.010183 0.036690
v 0.004632 -0.000256 0.032129
v -0.001059 -0.000693 0.022216
v -0.003540 -0.000431 0.023375
v 0.006273 0.001494 0.033998
v 0.007082 0.001443 0.032583
v 0.000136 -0.000272 0.035017
v 0.002049 -0.000206 0.034652
v 0.003395 -0.000703 0.031584
v -0.003540 -0.000717 0.026209
v -0.003399 -0.000707 0.031495
v -0.004738 -0.000094 0.032457
v -0.006586 0.001559 0.033797
v -0.012465 0.011133 0.036887
v -0.010130 0.008371 0.036937
v -0.002800 0.001414 0.036874
v 0.002124 -0.000634 0.033289
v -0.002125 -0.000634 0.033289
v -0.012470 0.008702 0.035450
v -0.002011 -0.000164 0.034771
v 0.000006 -0.000775 0.033383
vn 0.0944 -0.3080 0.9467
vn 1.0000 0.0009 0.0003
vn -0.4985 -0.5631 0.6591
vn 0.0096 -0.0000 1.0000
vn -1.0000 0.0002 0.0023
vn 0.0359 0.9926 0.1159
vn 0.6087 -0.7934 -0.0029
vn -0.3069 -0.0812 0.9483
vn -0.0958 -0.8396 -0.5347
vn 0.3926 -0.8032 0.4480
vn 0.5116 -0.8568 -0.0643
vn 0.8031 -0.5865 0.1049
vn -0.0692 -0.9936 0.0892
vn 0.5354 -0.8114 0.2344
vn 0.2745 -0.9226 -0.2711
vn -0.5265 -0.4317 0.7324
vn 0.3078 -0.0793 0.9481
vn 0.3447 -0.3582 0.8677
vn 0.0844 -0.0881 0.9925
vn 0.0033 -0.7377 0.6751
vn -0.5398 -0.8046 0.2477
vn 0.0356 -0.8524 -0.5217
vn -0.0050 -0.7077 -0.7065
vn 0.3435 -0.2667 0.9005
vn 0.0042 -0.3493 0.9370
vn -0.5983 -0.8013 0.0008
vn 0.2443 -0.9443 0.2204
vn 0.1343 -0.8201 0.5562
vn -0.0820 -0.9507 0.2991
vn -0.7983 -0.5920 0.1106
vn 0.4862 -0.5147 0.7062
vn -0.2661 -0.9369 0.2268
vn -0.3185 -0.9355 0.1529
vn -0.5085 -0.8590 -0.0590
vn -0.1379 -0.0693 0.9880
vn -0.3545 -0.2735 0.8942
vn 0.7320 -0.6373 0.2409
vn 0.6535 -0.6444 0.3971
vn 0.0763 -0.9500 0.3028
vn 0.5278 -0.5853 0.6155
vn -0.0008 1.0000 0.0055
vn -0.2792 -0.9554 -0.0965
vn -0.1503 -0.9836 -0.0993
vn 0.9998 -0.0067 0.0171
vn 1.0000 -0.0000 -0.0002
vn 1.0000 -0.0000 -0.0000
vn -0.5325 -0.5668 0.6287
vn -0.4034 -0.9050 -0.1348
vn -1.0000 -0.0000 -0.0003
vn -1.0000 -0.0021 0.0072
vn -1.0000 0.0007 0.0001
vn -0.0376 -0.9627 -0.2680
vn -0.3134 -0.0794 0.9463
vn 0.5006 -0.8062 0.3154
vn 0.3941 -0.8176 0.4198
vn -0.1063 -0.8140 0.5711
vn 0.5289 -0.8205 0.2168
vn 0.0698 -0.9933 0.0922
vn 0.3062 -0.0799 0.9486
vn 0.1388 -0.0687 0.9879
vn 0.1314 -0.0773 0.9883
vn 0.1241 -0.9922 -0.0063
vn -0.5297 -0.8180 0.2243
vn -0.2598 -0.9202 -0.2929
vn -0.3970 -0.7994 0.4510
vn -0.3970 -0.8036 0.4433
vn 0.0795 -0.8395 -0.5375
vn -0.2593 -0.9636 0.0652
vn 0.3276 -0.2855 0.9007
vn -0.2190 -0.9415 -0.2560
vn 0.2771 -0.9122 0.3019
vn -0.0759 -0.9487 0.3070
vn -0.0887 -0.3083 0.9471
vn 0.3936 -0.9076 -0.1462
vn 0.0095 0.9991 -0.0419
vn -0.0004 0.9989 -0.0466
vn 0.0104 0.9986 -0.0519
vn -0.0030 0.9996 0.0276
vn -0.2863 -0.9067 0.3098
vn -0.7070 -0.6479 0.2835
vn -0.3295 -0.3551 0.8748
vn 0.3029 -0.9487 0.0909
vn -0.1377 -0.0696 0.9880
vn -0.0840 -0.0879 0.9926
vn -0.3511 -0.2805 0.8933
vn -0.3251 -0.2850 0.9017
vn -0.1473 -0.9891 0.0059
vn 0.0874 -0.9540 0.2866
vn 0.3062 -0.9476 0.0912
vn 0.0464 -0.9934 -0.1045
vn -0.0005 1.0000 0.0005
vn -0.0010 0.9993 0.0377
vn -0.0032 1.0000 -0.0019
vn 1.0000 -0.0002 0.0028
vn 1.0000 0.0004 -0.0000
vn 0.3062 -0.0793 0.9486
vn 0.3079 -0.0798 0.9481
vn 0.5259 -0.8193 0.2282
vn 0.5415 -0.8118 0.2186
vn -0.0005 0.9987 -0.0519
vn 0.0087 0.9991 -0.0422
vn 0.1316 -0.0713 0.9887
vn 0.1467 -0.0776 0.9861
vn -0.5050 -0.5382 0.6748
vn -0.5276 -0.5785 0.6221
vn -0.0828 -0.9480 0.3073
vn -0.0757 -0.9513 0.2988
vn 0.0759 -0.9547 0.2877
vn 0.0904 -0.9487 0.3031
vn 0.0203 -0.9998 -0.0014
vn 0.0017 -1.0000 -0.0075
vn -0.0213 -0.9998 0.0025
vn -0.0017 -1.0000 -0.0071
s 0
f 10//1 28//1 11//1
f 26//2 4//2 6//2
f 47//3 41//3 43//3
f 7//4 4//4 9//4
f 8//5 47//5 27//5
f 2//6 3//6 1//6
f 7//7 16//7 20//7
f 27//8 18//8 17//8
f 14//9 22//9 15//9
f 33//10 28//10 36//10
f 20//11 12//11 7//11
f 26//12 16//12 7//12
f 39//13 49//13 46//13
f 16//14 30//14 20//14
f 21//15 13//15 7//15
f 47//16 43//16 42//16
f 6//17 3//17 5//17
f 28//18 29//18 11//18
f 2//19 10//19 11//19
f 44//20 35//20 28//20
f 25//21 40//21 41//21
f 14//22 13//22 22//22
f 14//23 15//23 7//23
f 29//24 6//24 5//24
f 10//25 44//25 28//25
f 24//26 25//26 15//26
f 37//27 30//27 45//27
f 35//28 36//28 28//28
f 48//29 49//29 35//29
f 25//30 47//30 15//30
f 26//31 29//31 28//31
f 46//32 40//32 39//32
f 39//33 40//33 24//33
f 24//34 15//34 23//34
f 2//35 17//35 18//35
f 18//36 27//36 42//36
f 34//37 16//37 26//37
f 33//38 34//38 26//38
f 36//39 49//39 45//39
f 28//40 33//40 26//40
f 38//41 21//41 31//41
f 23//42 32//42 38//42
f 32//43 31//43 38//43
f 6//44 29//44 26//44
f 26//45 7//45 4//45
f 4//46 1//46 6//46
f 44//47 43//47 41//47
f 23//48 15//48 32//48
f 7//4 9//4 15//4
f 9//49 15//49 47//49
f 42//50 27//50 47//50
f 8//51 9//51 47//51
f 13//52 31//52 22//52
f 17//53 8//53 27//53
f 30//54 34//54 33//54
f 30//55 33//55 36//55
f 48//56 35//56 44//56
f 16//57 34//57 30//57
f 45//58 49//58 37//58
f 6//59 1//59 3//59
f 11//60 5//60 2//60
f 2//61 5//61 3//61
f 12//62 37//62 21//62
f 25//63 24//63 40//63
f 32//64 15//64 22//64
f 48//65 44//65 41//65
f 41//66 40//66 48//66
f 7//67 13//67 14//67
f 24//68 23//68 39//68
f 11//69 29//69 5//69
f 31//70 32//70 22//70
f 30//71 36//71 45//71
f 48//72 46//72 49//72
f 44//73 10//73 19//73
f 21//74 7//74 12//74
f 1//75 4//75 2//75
f 4//76 9//76 2//76
f 9//77 8//77 2//77
f 2//78 8//78 17//78
f 48//79 40//79 46//79
f 41//80 47//80 25//80
f 43//81 44//81 19//81
f 37//82 12//82 30//82
f 18//83 19//83 2//83
f 19//84 10//84 2//84
f 42//85 43//85 18//85
f 43//86 19//86 18//86
f 38//87 39//87 23//87
f 36//88 35//88 49//88
f 20//89 30//89 12//89
f 13//90 21//90 31//90
f 21//91 39//91 37//91
f 37//92 39//92 49//92
f 39//93 21//93 38//93
f 1//94 6//94 26//94
f 4//95 1//95 26//95
f 3//96 5//96 1//96
f 5//97 6//97 1//97
f 30//98 20//98 34//98
f 20//99 16//99 34//99
f 15//4 4//4 9//4
f 15//4 7//4 4//4
f 9//100 8//100 4//100
f 8//101 2//101 4//101
f 11//102 3//102 2//102
f 11//103 5//103 3//103
f 43//104 47//104 44//104
f 47//105 41//105 44//105
f 48//106 46//106 35//106
f 46//107 49//107 35//107
f 49//108 45//108 35//108
f 45//109 36//109 35//109
f 37//110 49//110 21//110
f 49//111 31//111 21//111
f 39//112 38//112 49//112
f 38//113 31//113 49//113
