# Blender 4.0.0
# www.blender.org
o decimated_mesh
v -0.000007 0.020689 0.032587
v 0.013371 0.020689 0.029807
v 0.000018 0.020689 0.040218
v -0.000007 0.139555 0.033127
v 0.013371 0.139583 0.030334
v 0.013371 0.020689 0.037787
v -0.000007 0.141757 0.034047
v 0.013359 0.141146 0.030862
v 0.013371 0.142033 0.031801
v 0.010624 0.020689 0.038733
v 0.013371 0.142455 0.033302
v -0.000007 0.142463 0.036124
v -0.000002 0.141794 0.038405
v 0.013372 0.142069 0.035395
v 0.009737 0.142100 0.036728
v -0.000002 0.139323 0.039676
v 0.009922 0.140270 0.038249
v 0.013366 0.140276 0.037026
v 0.011298 0.092805 0.041074
v 0.013371 0.092805 0.040319
v 0.000020 0.095205 0.042589
vn -0.0000 1.0000 -0.0000
vn 0.2580 0.6329 0.7300
vn -0.1983 0.3776 -0.9045
vn 0.1360 0.0653 0.9886
vn -0.1291 0.7217 -0.6801
vn -0.0651 0.9608 -0.2695
vn 0.0840 0.4557 0.8862
vn 0.0184 0.9594 0.2814
vn 0.3337 0.0656 0.9404
vn 0.1386 -0.0334 0.9898
vn -0.2044 0.0044 -0.9789
vn 0.3421 -0.0337 0.9391
vn 0.0287 0.9907 0.1331
vn 1.0000 0.0001 -0.0033
vn 1.0000 0.0004 -0.0008
vn 1.0000 -0.0000 -0.0028
vn 1.0000 -0.0001 -0.0008
vn 1.0000 0.0016 -0.0016
vn 1.0000 0.0001 -0.0001
vn 1.0000 -0.0000 -0.0000
vn 1.0000 0.0002 0.0008
vn 0.9994 0.0172 -0.0289
vn 1.0000 0.0002 -0.0002
vn 1.0000 -0.0023 0.0010
vn 1.0000 -0.0002 0.0002
vn 0.1106 0.6419 0.7588
vn 0.2670 0.6480 0.7133
vn -0.1948 0.3121 -0.9299
vn 0.1460 0.0630 0.9873
vn 0.0744 0.9808 0.1805
vn -0.0671 0.9446 -0.3212
vn 0.3415 0.0651 0.9376
vn 0.1265 -0.0316 0.9915
vn -0.2035 0.0043 -0.9791
vn 0.3251 -0.0332 0.9451
vn -0.0734 0.9442 -0.3211
vn -1.0000 -0.0000 -0.0001
vn -1.0000 -0.0000 0.0001
vn -0.0562 0.9613 -0.2697
vn -1.0000 -0.0000 0.0015
vn -1.0000 0.0009 0.0023
vn 1.0000 0.0009 -0.0001
vn 1.0000 -0.0001 -0.0001
vn -1.0000 -0.0002 0.0033
vn -1.0000 -0.0001 0.0051
vn 1.0000 0.0004 0.0040
vn 1.0000 -0.0000 0.0001
vn 1.0000 -0.0000 -0.0001
vn 0.3421 -0.0330 0.9391
vn 0.3251 -0.0337 0.9451
s 0
f 2//1 10//1 6//1
f 15//2 17//2 18//2
f 8//3 4//3 7//3
f 16//4 21//4 17//4
f 9//5 8//5 7//5
f 7//6 11//6 9//6
f 16//7 17//7 13//7
f 15//8 12//8 13//8
f 19//9 18//9 17//9
f 19//10 3//10 10//10
f 5//11 1//11 4//11
f 10//12 20//12 19//12
f 10//1 1//1 3//1
f 1//1 10//1 2//1
f 11//13 12//13 15//13
f 3//14 1//14 21//14
f 21//15 4//15 16//15
f 1//16 4//16 21//16
f 16//17 4//17 13//17
f 13//18 4//18 12//18
f 12//19 4//19 7//19
f 20//20 6//20 2//20
f 2//20 5//20 20//20
f 20//21 5//21 18//21
f 8//22 9//22 5//22
f 11//23 14//23 5//23
f 18//24 5//24 14//24
f 9//25 11//25 5//25
f 13//26 17//26 15//26
f 18//27 14//27 15//27
f 8//28 5//28 4//28
f 19//29 17//29 21//29
f 15//30 14//30 11//30
f 7//31 12//31 11//31
f 19//32 20//32 18//32
f 19//33 21//33 3//33
f 5//34 2//34 1//34
f 10//35 6//35 20//35
f 12//36 9//36 7//36
f 4//37 1//37 7//37
f 1//38 12//38 7//38
f 11//39 9//39 12//39
f 1//40 16//40 12//40
f 16//41 13//41 12//41
f 11//42 14//42 9//42
f 14//43 5//43 9//43
f 2//1 1//1 3//1
f 3//44 16//44 1//44
f 3//45 21//45 16//45
f 18//46 20//46 14//46
f 20//47 6//47 14//47
f 6//20 2//20 14//20
f 2//48 5//48 14//48
f 6//1 2//1 3//1
f 6//1 3//1 10//1
f 19//49 6//49 20//49
f 19//50 10//50 6//50
