# Blender 4.0.0
# www.blender.org
o decimated_mesh
v -0.035572 0.142427 -0.000004
v -0.026439 0.142496 -0.023872
v -0.038371 0.142077 -0.000009
v -0.024443 0.141889 -0.023871
v -0.031866 0.142404 -0.018741
v -0.033874 0.141102 -0.000007
v -0.029388 0.141943 -0.023867
v -0.035854 0.142378 -0.009280
v -0.023059 0.140292 -0.023870
v -0.033087 0.141851 -0.019229
v -0.036918 0.141881 -0.009956
v -0.039889 0.140313 -0.000027
v -0.033466 0.139558 -0.000007
v -0.036023 0.080752 -0.000007
v -0.026284 0.080752 -0.023870
v -0.034251 0.140298 -0.019776
v -0.038256 0.140283 -0.009948
v -0.042934 0.080752 -0.000023
v -0.034915 0.080752 -0.023870
v -0.031109 0.140207 -0.023869
v -0.036875 0.080752 -0.021315
v -0.036836 0.096494 -0.021257
v -0.041029 0.080752 -0.011130
vn -0.9251 0.0402 -0.3776
vn -0.9844 0.0503 -0.1688
vn 0.8884 0.2347 0.3946
vn -0.6652 0.0426 -0.7454
vn 0.5943 0.7610 0.2600
vn -0.0000 1.0000 -0.0000
vn -0.6106 0.6278 -0.4828
vn 0.0020 0.0005 1.0000
vn -0.9480 0.0504 -0.3143
vn -0.0002 -0.0011 -1.0000
vn -0.1817 0.9677 -0.1748
vn -0.9161 0.0496 -0.3980
vn -0.7327 0.6120 -0.2977
vn -0.7114 0.6374 -0.2960
vn -0.9855 0.0491 -0.1623
vn -0.7934 0.0042 -0.6087
vn -0.7907 0.0672 -0.6086
vn 0.7197 0.6236 0.3050
vn 0.2888 0.9507 0.1132
vn -0.3202 0.9172 -0.2373
vn -0.6214 0.6166 -0.4834
vn -0.7608 0.6363 -0.1272
vn -0.7515 0.6482 -0.1225
vn -0.3829 0.9208 -0.0741
vn -0.3578 0.9219 -0.1483
vn -0.3420 0.9286 -0.1443
vn 0.0023 -0.0002 -1.0000
vn 0.0031 -0.0001 -1.0000
vn 0.0017 0.0021 -1.0000
vn 0.0038 0.0064 -1.0000
vn -0.9240 0.0672 -0.3764
vn -0.9259 0.0037 -0.3777
vn -0.0026 0.0039 -1.0000
vn -0.0002 -0.0000 -1.0000
vn -0.0000 -0.0000 -1.0000
vn 0.0012 0.0010 -1.0000
vn -0.1240 0.9923 -0.0015
vn -0.0223 0.9997 -0.0056
vn -0.0176 0.9998 -0.0047
vn -0.0197 0.9998 -0.0047
vn -0.0019 -0.0000 1.0000
vn 0.0012 -0.0001 1.0000
vn -0.0239 0.9997 -0.0074
vn 0.0009 -0.0001 -1.0000
vn -0.0008 0.0001 -1.0000
vn -0.3432 0.9284 -0.1422
vn -0.0121 0.0007 0.9999
vn -0.0023 -0.0000 1.0000
vn -0.9247 0.0501 -0.3774
vn -0.9163 0.0398 -0.3984
vn -0.3570 0.9219 -0.1505
vn -0.6192 0.6144 -0.4891
vn -0.6141 0.6285 -0.4774
vn -0.9855 0.0504 -0.1623
vn -0.9844 0.0492 -0.1688
s 0
f 15//1 14//1 13//1
f 23//2 18//2 12//2
f 6//3 13//3 9//3
f 22//4 20//4 19//4
f 4//5 1//5 6//5
f 15//6 23//6 14//6
f 20//7 16//7 10//7
f 13//8 6//8 1//8
f 23//9 17//9 22//9
f 9//10 20//10 2//10
f 7//11 5//11 2//11
f 15//12 13//12 9//12
f 16//13 17//13 11//13
f 10//14 16//14 11//14
f 17//15 23//15 12//15
f 19//16 21//16 22//16
f 22//17 16//17 20//17
f 9//18 4//18 6//18
f 18//6 14//6 23//6
f 23//6 15//6 21//6
f 21//6 15//6 19//6
f 1//19 4//19 2//19
f 7//20 10//20 5//20
f 10//21 7//21 20//21
f 17//22 12//22 11//22
f 11//23 12//23 3//23
f 11//24 3//24 8//24
f 8//25 5//25 10//25
f 10//26 11//26 8//26
f 12//27 14//27 18//27
f 13//28 14//28 12//28
f 1//29 13//29 3//29
f 13//30 12//30 3//30
f 16//31 22//31 17//31
f 22//32 21//32 23//32
f 7//33 2//33 20//33
f 9//34 15//34 20//34
f 15//35 19//35 20//35
f 2//36 4//36 9//36
f 3//37 1//37 8//37
f 1//38 2//38 5//38
f 8//39 1//39 5//39
f 2//40 8//40 1//40
f 3//41 14//41 1//41
f 14//42 13//42 1//42
f 5//43 8//43 2//43
f 4//35 9//35 15//35
f 4//35 15//35 19//35
f 4//44 19//44 2//44
f 19//45 20//45 2//45
f 5//46 11//46 8//46
f 12//47 18//47 3//47
f 18//48 14//48 3//48
f 23//6 19//6 21//6
f 23//6 15//6 19//6
f 15//49 14//49 9//49
f 9//50 14//50 13//50
f 10//51 11//51 5//51
f 16//52 7//52 20//52
f 16//53 10//53 7//53
f 17//54 18//54 12//54
f 17//55 23//55 18//55
