# Blender 4.0.0
# www.blender.org
o decimated_mesh
v 0.000017 0.020689 -0.040209
v -0.000007 0.020689 -0.032588
v 0.013368 0.020689 -0.029811
v 0.013368 0.140153 -0.030412
v -0.000007 0.139555 -0.033127
v 0.013282 0.020690 -0.037951
v -0.000007 0.141746 -0.034021
v 0.013368 0.141856 -0.031417
v 0.013368 0.142451 -0.033290
v -0.000007 0.142463 -0.036123
v 0.013369 0.142073 -0.035388
v 0.009967 0.142101 -0.036649
v -0.000000 0.141822 -0.038391
v 0.013367 0.140309 -0.037026
v 0.009922 0.140270 -0.038249
v -0.000001 0.139300 -0.039675
v 0.000012 0.095245 -0.042590
v 0.011298 0.092805 -0.041074
v 0.013368 0.092805 -0.040320
vn 0.9999 -0.0015 -0.0105
vn 0.3424 -0.0312 -0.9390
vn 0.2033 -0.0049 -0.9791
vn -0.1694 0.5007 0.8489
vn 0.1677 -0.0381 -0.9851
vn 0.3419 0.0650 -0.9375
vn 0.0206 0.9621 -0.2719
vn 0.0290 0.9907 -0.1327
vn -0.0667 0.9509 0.3021
vn 0.1128 0.6522 -0.7496
vn 0.0835 0.4521 -0.8881
vn -0.0000 1.0000 -0.0000
vn 1.0000 -0.0000 -0.0001
vn 1.0000 0.0004 0.0003
vn 1.0000 -0.0006 -0.0001
vn 1.0000 -0.0000 -0.0000
vn 0.1462 0.0630 -0.9872
vn 0.1357 0.0654 -0.9886
vn -1.0000 -0.0002 -0.0032
vn 1.0000 -0.0000 0.0020
vn 1.0000 0.0002 0.0009
vn -1.0000 0.0001 0.0001
vn 1.0000 0.0023 0.0023
vn 1.0000 -0.0008 0.0009
vn 0.1991 -0.0045 -0.9800
vn 0.0737 0.9814 -0.1770
vn 0.1263 -0.0317 -0.9915
vn 0.3331 0.0657 -0.9406
vn -0.2007 0.3700 0.9071
vn -0.0674 0.9443 0.3222
vn 0.2526 0.6331 -0.7317
vn 0.2673 0.6555 -0.7063
vn 0.2033 -0.0044 -0.9791
vn -1.0000 -0.0000 -0.0000
vn -1.0000 -0.0000 -0.0016
vn -1.0000 -0.0001 -0.0028
vn 1.0000 -0.0000 0.0001
vn 0.1992 -0.0049 -0.9800
vn -1.0000 0.0021 -0.0035
vn -0.0705 0.9441 0.3221
vn -0.0632 0.9512 0.3022
vn 1.0000 0.0001 -0.0009
s 0
f 3//1 6//1 19//1
f 19//2 6//2 18//2
f 4//3 3//3 2//3
f 8//4 7//4 4//4
f 1//5 18//5 6//5
f 18//6 14//6 19//6
f 13//7 10//7 12//7
f 10//8 9//8 12//8
f 9//9 7//9 8//9
f 13//10 12//10 15//10
f 13//11 15//11 16//11
f 1//12 2//12 6//12
f 2//12 3//12 6//12
f 19//13 14//13 4//13
f 4//14 11//14 9//14
f 14//15 11//15 4//15
f 9//14 8//14 4//14
f 4//16 3//16 19//16
f 15//17 18//17 17//17
f 17//18 16//18 15//18
f 17//19 1//19 2//19
f 2//20 17//20 5//20
f 17//21 16//21 5//21
f 7//22 10//22 5//22
f 10//23 5//23 13//23
f 13//24 5//24 16//24
f 4//25 2//25 5//25
f 9//26 11//26 12//26
f 1//27 17//27 18//27
f 18//28 15//28 14//28
f 4//29 7//29 5//29
f 9//30 10//30 7//30
f 15//31 12//31 14//31
f 12//32 11//32 14//32
f 1//12 2//12 3//12
f 3//33 2//33 5//33
f 5//34 10//34 2//34
f 10//35 16//35 2//35
f 16//36 17//36 2//36
f 6//12 1//12 3//12
f 19//13 11//13 3//13
f 11//37 4//37 3//37
f 4//38 3//38 5//38
f 13//39 16//39 10//39
f 7//40 8//40 10//40
f 8//41 9//41 10//41
f 14//42 11//42 19//42
f 8//14 4//14 11//14
f 9//14 8//14 11//14
