# Blender 4.0.0
# www.blender.org
o decimated_mesh
v 0.035548 0.006262 0.010626
v 0.035514 0.006262 0.013459
v 0.034159 0.003974 0.009977
v 0.034872 0.006262 0.009041
v 0.035280 0.006261 0.015500
v 0.032936 0.001336 0.016662
v 0.032862 0.001144 0.014874
v 0.032518 0.001462 0.011409
v 0.031621 0.006262 0.005262
v 0.031087 -0.000264 0.015303
v 0.031433 0.001253 0.010084
v 0.031142 0.001383 0.019955
v 0.031129 0.000049 0.016902
v 0.030186 -0.000156 0.011867
v 0.029856 0.001332 0.008090
v 0.029590 0.006262 0.004059
v 0.029605 0.001446 0.021245
v 0.029940 -0.000171 0.018423
v 0.028853 -0.000724 0.017449
v 0.028858 -0.000696 0.012354
v 0.028325 -0.000214 0.009749
v 0.033719 0.006263 0.019087
v 0.030798 0.006261 0.023151
v 0.029125 0.000029 0.019557
v 0.026586 0.006262 0.025582
v 0.026522 0.004264 0.024500
v 0.027622 -0.000431 0.019123
v 0.027354 -0.000700 0.010765
v 0.026244 0.001339 0.022184
v 0.024851 0.003553 0.024142
v 0.024150 -0.000565 0.019156
v 0.025858 -0.000098 0.020344
v 0.023132 -0.000594 0.009115
v 0.024501 0.001230 0.022194
v 0.024788 0.006262 0.025633
v 0.021606 0.001477 0.021788
v 0.022215 -0.000722 0.017623
v 0.025832 -0.000045 0.008378
v 0.026156 0.001173 0.006613
v 0.024486 0.006262 0.002302
v 0.022653 -0.000165 0.019801
v 0.019126 -0.000663 0.010626
v 0.020541 -0.000529 0.009210
v 0.021493 -0.000143 0.007927
v 0.020947 0.001403 0.005557
v 0.019856 0.006262 0.024559
v 0.019315 -0.000718 0.014444
v 0.017708 -0.000402 0.012043
v 0.017933 -0.000242 0.010152
v 0.018681 -0.000037 0.008708
v 0.018529 0.006264 0.002048
v 0.018642 0.001222 0.019335
v 0.019958 0.000073 0.018291
v 0.017581 -0.000151 0.014478
v 0.016752 0.000032 0.011390
v 0.015231 0.006262 0.021076
v 0.015264 0.001236 0.010179
v 0.017047 0.001375 0.007174
v 0.013459 0.006262 0.018995
v 0.015460 0.001289 0.015432
v 0.014902 0.001322 0.012301
v 0.013905 0.006262 0.004947
v 0.012379 0.006262 0.017312
v 0.012378 0.004790 0.014361
v 0.012384 0.004714 0.009888
v 0.012384 0.006263 0.007267
vn -0.0007 1.0000 0.0004
vn 0.8397 -0.4081 -0.3583
vn -0.4695 -0.8434 -0.2611
vn -0.1869 -0.4770 0.8588
vn -0.3367 -0.8147 0.4722
vn -0.2894 -0.9503 -0.1146
vn 0.9073 -0.4073 0.1041
vn -0.4971 -0.5641 0.6593
vn 0.4222 -0.5600 -0.7129
vn -0.0541 -0.9002 0.4321
vn 0.4345 -0.7801 0.4502
vn 0.2391 -0.9449 -0.2237
vn 0.3371 -0.9292 0.1515
vn 0.5395 -0.8251 -0.1674
vn -0.1101 0.9334 0.3415
vn 0.4036 -0.7541 0.5182
vn -0.0296 -0.9919 -0.1233
vn 0.5770 -0.7493 0.3249
vn 0.0988 -0.6234 0.7756
vn 0.2460 -0.8119 -0.5294
vn -0.1608 -0.6196 0.7683
vn 0.0531 -0.7926 0.6074
vn -0.4157 -0.8454 -0.3355
vn 0.1873 -0.7930 0.5797
vn 0.0245 -0.4767 0.8787
vn 0.6017 -0.6225 -0.5005
vn -0.5305 -0.8427 0.0924
vn 0.5073 -0.8125 -0.2872
vn -0.1858 -0.9826 -0.0050
vn 0.2923 -0.9279 -0.2314
vn -0.0354 -0.9496 -0.3115
vn 0.1984 -0.9307 0.3072
vn -0.6121 -0.5944 0.5215
vn -0.1781 -0.9469 -0.2675
vn -0.4293 -0.5883 -0.6853
vn 0.7723 -0.3092 0.5550
vn -0.2870 -0.6504 -0.7033
vn -0.7606 -0.5809 0.2900
vn 0.8676 -0.3238 0.3775
vn 0.7932 -0.5942 -0.1333
vn 0.4497 -0.4366 0.7792
vn 0.0395 -0.9479 0.3161
vn -0.6812 -0.5873 0.4371
vn -0.1735 -0.8426 -0.5099
vn 0.6772 -0.4493 -0.5826
vn -0.1373 -0.9526 0.2713
vn -0.0000 1.0000 0.0001
vn 0.0003 1.0000 0.0014
vn 0.0001 1.0000 0.0001
vn -0.0000 1.0000 -0.0000
vn -0.0000 1.0000 -0.0004
vn 0.0001 1.0000 0.0004
vn 0.0005 1.0000 -0.0002
vn -0.0003 1.0000 0.0002
vn 0.0001 1.0000 -0.0000
vn -0.0002 1.0000 -0.0007
vn -0.7636 -0.6326 0.1295
vn -0.4624 -0.8296 -0.3130
vn -0.5929 -0.8023 -0.0686
vn -0.3354 -0.8053 0.4888
vn -0.3415 -0.9323 -0.1193
vn 0.0396 -0.9789 0.2006
vn -0.1397 -0.9150 -0.3784
vn 0.0023 -0.9950 0.0994
vn -0.4969 -0.5638 0.6598
vn 0.5947 -0.5495 -0.5868
vn 0.1418 -0.8836 0.4462
vn -0.7619 -0.6393 -0.1040
vn 0.2674 -0.5703 -0.7767
vn 0.3212 -0.5890 -0.7416
vn 0.0347 -0.5736 -0.8184
vn 0.1304 -0.6156 -0.7772
vn 0.0653 -0.8997 -0.4316
vn -0.1072 0.9442 0.3115
vn -0.2305 -0.9396 -0.2530
vn -0.0125 -0.9994 -0.0322
vn 0.0036 -1.0000 -0.0006
vn -0.0004 -1.0000 -0.0056
vn 0.0011 -1.0000 -0.0024
vn 0.0114 -0.9998 -0.0150
vn 0.5615 -0.7591 0.3293
vn 0.0448 -0.6456 0.7623
vn 0.2321 -0.8199 -0.5233
vn -0.6570 -0.6187 -0.4307
vn 0.6741 0.6360 0.3756
vn 0.6776 0.5967 0.4299
vn -0.0745 -0.8354 0.5445
vn -0.1500 -0.7994 0.5818
vn 0.1755 -0.7780 0.6032
vn 0.0170 -0.4818 0.8761
vn -0.2309 -0.5495 0.8030
vn 0.6341 -0.6516 -0.4164
vn 0.3825 -0.9086 0.1676
vn 0.0765 -0.8268 -0.5572
vn 0.0767 -0.8271 -0.5568
vn -0.5402 -0.8370 0.0876
vn 0.8831 -0.4677 -0.0364
vn 0.8534 -0.5211 0.0103
vn 0.8892 -0.4573 0.0127
vn 0.4287 -0.8235 -0.3716
vn 0.4300 -0.8301 -0.3550
vn -0.4506 -0.8901 0.0682
vn 0.1964 -0.9311 0.3075
vn -0.6216 -0.6059 0.4965
vn 0.5868 -0.7974 0.1404
vn 0.8196 -0.3526 0.4515
vn -0.3083 -0.9478 0.0816
vn 0.4235 0.8433 -0.3309
vn 0.4564 0.8251 -0.3330
vn 0.5730 -0.4205 0.7035
vn -0.8060 -0.5918 0.0088
vn 0.3366 -0.9343 -0.1176
vn 0.5961 -0.7920 -0.1319
vn 0.4463 -0.4228 0.7887
vn 0.1970 -0.9804 -0.0053
vn 0.6288 -0.7754 0.0575
vn -1.0000 0.0014 -0.0005
vn -1.0000 -0.0026 -0.0013
vn -0.2134 -0.8214 -0.5289
vn 0.2299 -0.6174 0.7523
vn -0.2422 -0.9271 0.2859
vn -0.2975 -0.9241 0.2397
vn -0.2602 -0.9363 0.2360
vn 0.8890 -0.4577 0.0107
vn 0.8610 -0.5047 -0.0637
vn 0.0001 1.0000 -0.0001
vn 0.0003 1.0000 -0.0000
vn 0.0027 1.0000 0.0008
vn 0.0004 1.0000 -0.0010
vn 0.0002 1.0000 -0.0000
vn 0.0007 1.0000 0.0009
vn -0.0016 1.0000 -0.0016
vn -0.0001 1.0000 0.0001
vn 0.4294 -0.4408 0.7882
vn 0.4529 -0.4230 0.7848
vn -0.0003 -1.0000 -0.0012
vn 0.0005 -1.0000 -0.0037
vn 0.0089 -0.9999 -0.0056
vn 0.1197 -0.9353 -0.3331
vn 0.6603 0.6220 0.4209
vn 0.7032 0.6122 0.3615
vn -0.0002 1.0000 0.0001
vn 0.1921 -0.7779 0.5984
vn 0.1714 -0.7938 0.5836
vn -0.0043 -0.9999 -0.0143
vn -0.0036 -0.9985 -0.0549
vn 0.1030 -0.9405 -0.3239
vn 0.4444 0.8253 -0.3483
vn 0.4304 0.8448 -0.3180
s 0
f 5//1 2//1 9//1
f 1//2 3//2 4//2
f 49//3 55//3 57//3
f 35//4 46//4 30//4
f 53//5 41//5 52//5
f 48//6 49//6 42//6
f 6//7 2//7 5//7
f 36//8 56//8 52//8
f 9//9 15//9 16//9
f 41//10 31//10 32//10
f 18//11 12//11 24//11
f 21//12 20//12 28//12
f 10//13 18//13 19//13
f 10//14 14//14 8//14
f 21//15 33//15 28//15
f 17//16 24//16 12//16
f 42//17 43//17 33//17
f 12//18 13//18 6//18
f 30//19 29//19 26//19
f 39//20 15//20 21//20
f 30//21 36//21 34//21
f 34//22 32//22 29//22
f 58//23 50//23 49//23
f 17//24 29//24 32//24
f 35//25 26//25 25//25
f 3//26 11//26 15//26
f 55//27 54//27 60//27
f 11//28 8//28 14//28
f 48//29 42//29 47//29
f 14//30 20//30 21//30
f 44//31 33//31 43//31
f 24//32 19//32 18//32
f 59//33 52//33 56//33
f 42//34 50//34 43//34
f 62//35 51//35 58//35
f 22//36 23//36 12//36
f 58//37 51//37 45//37
f 64//38 60//38 63//38
f 6//39 5//39 22//39
f 7//40 8//40 3//40
f 26//41 23//41 25//41
f 31//42 27//42 32//42
f 59//43 63//43 60//43
f 45//44 44//44 50//44
f 4//45 3//45 9//45
f 37//46 31//46 41//46
f 16//47 40//47 56//47
f 51//48 62//48 40//48
f 66//49 63//49 40//49
f 63//50 59//50 40//50
f 59//49 56//49 40//49
f 56//47 46//47 22//47
f 46//51 35//51 23//51
f 25//51 23//51 35//51
f 46//52 23//52 22//52
f 22//53 5//53 16//53
f 16//54 5//54 9//54
f 2//50 1//50 4//50
f 4//55 9//55 2//55
f 16//50 56//50 22//50
f 62//56 66//56 40//56
f 61//57 60//57 64//57
f 57//58 58//58 49//58
f 55//59 61//59 57//59
f 36//60 52//60 41//60
f 48//61 55//61 49//61
f 27//62 31//62 19//62
f 44//63 43//63 50//63
f 37//64 19//64 31//64
f 36//65 46//65 56//65
f 3//66 15//66 9//66
f 24//67 32//67 27//67
f 65//68 57//68 61//68
f 40//69 16//69 39//69
f 16//70 15//70 39//70
f 45//71 51//71 40//71
f 39//72 45//72 40//72
f 44//73 38//73 33//73
f 38//74 33//74 21//74
f 50//75 42//75 49//75
f 33//76 28//76 47//76
f 28//77 20//77 37//77
f 37//78 20//78 19//78
f 37//79 47//79 28//79
f 47//80 42//80 33//80
f 12//81 18//81 13//81
f 30//82 34//82 29//82
f 21//83 38//83 39//83
f 62//84 58//84 66//84
f 66//85 65//85 58//85
f 58//86 65//86 57//86
f 41//87 32//87 34//87
f 34//88 36//88 41//88
f 32//89 24//89 17//89
f 35//90 30//90 26//90
f 30//91 46//91 36//91
f 3//92 8//92 11//92
f 13//93 18//93 10//93
f 45//94 39//94 44//94
f 39//95 38//95 44//95
f 61//96 55//96 60//96
f 7//97 3//97 2//97
f 3//98 1//98 2//98
f 2//99 6//99 7//99
f 15//100 11//100 21//100
f 21//101 11//101 14//101
f 48//102 54//102 55//102
f 24//103 27//103 19//103
f 60//104 52//104 59//104
f 13//105 10//105 6//105
f 12//106 6//106 22//106
f 54//107 48//107 47//107
f 60//108 52//108 54//108
f 54//109 52//109 53//109
f 17//110 12//110 23//110
f 64//111 65//111 61//111
f 14//112 10//112 20//112
f 10//113 8//113 7//113
f 26//114 17//114 23//114
f 19//115 20//115 10//115
f 7//116 6//116 10//116
f 66//117 64//117 63//117
f 66//118 65//118 64//118
f 50//119 58//119 45//119
f 29//120 17//120 26//120
f 41//121 53//121 37//121
f 53//122 54//122 47//122
f 37//123 53//123 47//123
f 2//124 7//124 1//124
f 7//125 3//125 1//125
f 4//126 9//126 1//126
f 9//55 22//55 1//55
f 22//127 2//127 1//127
f 22//128 5//128 2//128
f 16//129 51//129 9//129
f 51//130 22//130 9//130
f 25//131 23//131 22//131
f 51//47 25//47 22//47
f 40//129 51//129 16//129
f 62//132 66//132 51//132
f 66//133 56//133 51//133
f 56//133 46//133 51//133
f 46//133 35//133 51//133
f 35//47 25//47 51//47
f 26//134 17//134 25//134
f 17//135 23//135 25//135
f 37//136 47//136 19//136
f 47//137 28//137 19//137
f 28//138 20//138 19//138
f 28//139 38//139 21//139
f 57//140 58//140 66//140
f 57//141 66//141 65//141
f 63//142 59//142 66//142
f 59//49 56//49 66//49
f 29//143 24//143 17//143
f 29//144 32//144 24//144
f 42//145 28//145 47//145
f 42//146 33//146 28//146
f 33//147 38//147 28//147
f 60//148 52//148 53//148
f 60//149 53//149 54//149
