# Blender 4.0.0
# www.blender.org
o decimated_mesh
v -0.012465 0.020897 0.038128
v -0.040640 0.021115 0.000008
v -0.012472 0.012367 0.037388
v -0.012465 0.008630 0.035446
v -0.011867 0.021165 -0.038374
v -0.039841 0.012625 0.000963
v -0.038903 0.020897 0.010130
v -0.034897 0.020900 0.019995
v -0.028443 0.020899 0.028444
v -0.020285 0.020897 0.035208
v -0.018966 0.012906 0.035034
v -0.020205 0.012041 0.034088
v -0.011829 0.005490 -0.013772
v -0.027195 0.006333 0.025398
v -0.039860 0.012638 -0.000910
v -0.020581 0.013399 0.034263
v -0.027113 0.008333 0.027073
v -0.012464 0.007484 0.029669
v -0.012465 0.006341 0.017599
v -0.011868 0.012600 -0.037649
v -0.038278 0.012625 -0.010009
v -0.036932 0.008365 -0.010624
v -0.035436 0.006346 0.015227
v -0.038278 0.012628 0.010011
v -0.035632 0.008533 0.016237
v -0.031424 0.007001 0.022818
v -0.027963 0.012475 0.027922
v -0.031130 0.006348 0.022831
v -0.019364 0.006341 0.024369
v -0.011867 0.006850 -0.029034
v -0.020269 0.021164 -0.035243
v -0.035496 0.006991 -0.015789
v -0.035120 0.005522 -0.014596
v -0.033851 0.007820 0.019568
v -0.019973 0.005549 -0.023993
v -0.020005 0.012633 -0.034489
v -0.038759 0.021165 -0.010624
v -0.035672 0.009329 -0.016376
v -0.033880 0.006348 0.018836
v -0.011864 0.009577 -0.036640
v -0.034923 0.021166 -0.019990
v -0.034038 0.007338 -0.019104
v -0.034470 0.005548 -0.017006
v -0.011867 0.008351 -0.035389
v -0.026036 0.012387 -0.029573
v -0.031188 0.005582 -0.022506
v -0.027036 0.005548 -0.024974
v -0.032600 0.005548 -0.020401
v -0.028030 0.013482 -0.028008
v -0.031295 0.009028 -0.023587
v -0.028457 0.021165 -0.028457
vn -0.6361 -0.0838 0.7671
vn -0.3387 -0.4344 0.8346
vn -0.9953 0.0945 -0.0189
vn -0.9427 -0.2913 0.1629
vn -0.8815 -0.1963 0.4294
vn 0.0130 0.9999 0.0070
vn -0.8287 -0.5597 0.0041
vn -0.9570 0.2887 -0.0272
vn -0.4521 -0.0940 0.8870
vn -0.0130 0.9808 -0.1946
vn -0.7913 -0.3465 0.5037
vn -0.4769 -0.2406 0.8454
vn -0.7797 -0.0481 -0.6243
vn -0.0929 0.9950 0.0374
vn -0.9331 -0.0497 -0.3562
vn -0.3480 -0.0790 -0.9342
vn -0.4095 -0.5758 0.7076
vn -0.8752 -0.4197 -0.2406
vn -0.9420 -0.2068 0.2643
vn -0.9832 -0.0738 0.1672
vn -0.0305 0.9755 0.2181
vn -0.9957 -0.0927 0.0090
vn 0.1039 -0.9906 -0.0886
vn -0.3298 -0.6735 -0.6615
vn -0.3455 -0.0775 0.9352
vn -0.8861 -0.0857 0.4555
vn -0.9821 -0.0716 -0.1741
vn -0.4335 -0.5394 -0.7219
vn -0.9179 -0.3638 -0.1583
vn -0.6727 -0.2108 -0.7093
vn -0.7876 -0.0725 0.6119
vn -0.6449 -0.0705 0.7610
vn -0.3370 -0.4317 0.8367
vn -0.8875 -0.2566 0.3828
vn 0.0003 1.0000 0.0003
vn 0.0006 1.0000 -0.0003
vn -0.0002 1.0000 0.0061
vn 0.0003 1.0000 -0.0007
vn 0.0024 0.9996 -0.0276
vn -0.0001 1.0000 -0.0001
vn 0.0010 0.9999 0.0110
vn 0.0014 0.9999 -0.0116
vn 0.0020 1.0000 0.0043
vn 0.0030 0.9996 -0.0271
vn 0.0056 0.9998 0.0200
vn -0.9313 -0.0541 0.3602
vn -0.9239 -0.0752 0.3752
vn -0.9999 0.0028 -0.0131
vn -0.9999 -0.0147 -0.0079
vn -1.0000 0.0017 0.0026
vn -1.0000 -0.0004 -0.0001
vn -1.0000 -0.0036 -0.0062
vn -1.0000 0.0002 0.0004
vn -1.0000 0.0013 -0.0059
vn -0.0000 1.0000 0.0002
vn -0.0001 1.0000 0.0002
vn -0.0027 1.0000 0.0035
vn 0.0159 0.9999 0.0066
vn -0.0003 1.0000 -0.0004
vn -0.0001 1.0000 -0.0002
vn 0.0053 1.0000 0.0066
vn -0.8712 -0.4886 -0.0477
vn -0.8258 -0.5639 0.0068
vn -0.0256 0.9820 -0.1870
vn -0.7960 -0.2570 0.5480
vn -0.8811 -0.0862 -0.4650
vn -0.8345 -0.0883 -0.5439
vn -0.7922 -0.0795 -0.6050
vn -0.7996 -0.2021 -0.5655
vn -0.6059 -0.2771 0.7457
vn -0.6355 -0.2719 0.7226
vn -0.6293 -0.2778 0.7258
vn -0.6132 -0.2652 0.7440
vn -0.9225 -0.0791 -0.3778
vn -0.9398 -0.1482 -0.3079
vn -0.3608 -0.0932 -0.9280
vn -0.3467 -0.2975 -0.8895
vn -0.3864 -0.5971 0.7030
vn -0.4538 -0.5612 0.6923
vn -0.9825 -0.0766 0.1697
vn -0.5903 -0.3218 -0.7402
vn -0.0133 0.9732 0.2297
vn -0.9471 -0.2757 -0.1642
vn -0.9436 -0.2709 -0.1901
vn -0.8952 -0.1708 -0.4117
vn -0.6362 -0.0779 -0.7676
vn -0.6425 -0.0803 -0.7621
vn -0.6272 -0.0879 -0.7739
vn -0.3487 -0.0808 0.9337
vn -0.8019 -0.2516 -0.5419
vn -0.8256 -0.3338 -0.4548
vn -0.8700 -0.2720 -0.4112
vn -0.9830 -0.0676 -0.1707
vn -0.4025 -0.5664 -0.7192
vn -0.0921 0.9913 -0.0938
vn -0.6565 -0.2442 -0.7137
vn -0.7920 -0.0826 0.6050
vn -0.8084 -0.0836 0.5826
vn 0.0013 1.0000 0.0035
vn -0.0012 1.0000 0.0068
vn -0.9999 0.0165 0.0039
vn -1.0000 0.0051 0.0024
vn -1.0000 -0.0000 0.0015
vn -0.9999 0.0019 -0.0128
vn -0.9999 0.0051 -0.0132
vn -0.0272 0.9992 -0.0277
vn -0.0041 0.9997 -0.0231
vn 0.0021 0.9998 -0.0207
vn 0.0195 0.9995 -0.0241
vn 0.0380 0.9989 -0.0261
vn 0.0612 0.9978 -0.0269
vn 0.0381 0.9991 0.0209
vn 0.0057 1.0000 0.0069
vn -0.0221 0.9730 0.2297
vn -0.0288 0.9781 0.2061
vn 0.0297 0.9989 0.0362
vn -1.0000 0.0008 0.0072
vn 0.0002 1.0000 0.0002
vn 0.0036 1.0000 0.0035
vn -0.0029 1.0000 0.0078
vn -0.3488 -0.0780 0.9340
vn -0.3457 -0.0809 0.9349
vn 0.0011 1.0000 0.0049
vn -0.3392 -0.4290 0.8372
vn -0.3379 -0.4346 0.8348
vn -0.0202 0.9807 -0.1946
vn -0.0247 0.9834 -0.1799
vn -0.7750 -0.3386 0.5335
vn -0.8048 -0.2516 0.5376
vn -0.9827 -0.0721 -0.1707
vn -0.7616 -0.0800 -0.6431
vn -0.7934 -0.0576 -0.6059
vn -0.9239 -0.0570 -0.3784
vn -0.9361 -0.0774 -0.3431
vn -0.9824 -0.0678 -0.1742
vn -0.0221 0.9996 0.0171
vn -0.0095 0.9999 0.0117
vn -0.6367 -0.0717 0.7678
vn -0.6073 -0.2771 0.7445
vn -0.6091 -0.2645 0.7477
vn -0.7813 -0.0828 0.6186
vn -0.7924 -0.0750 0.6053
vn -0.6432 -0.0838 0.7611
vn -0.9346 -0.0756 0.3475
vn -0.9249 -0.0591 0.3756
s 0
f 10//1 9//1 27//1
f 4//2 3//2 11//2
f 4//3 13//3 18//3
f 24//4 6//4 23//4
f 25//5 39//5 34//5
f 8//6 37//6 2//6
f 6//7 15//7 33//7
f 13//8 19//8 18//8
f 10//9 16//9 11//9
f 4//10 18//10 29//10
f 26//11 34//11 28//11
f 16//12 12//12 11//12
f 49//13 50//13 41//13
f 8//14 2//14 7//14
f 41//15 38//15 21//15
f 20//16 31//16 5//16
f 12//17 17//17 14//17
f 33//18 32//18 43//18
f 23//19 25//19 24//19
f 7//20 2//20 6//20
f 44//21 47//21 35//21
f 15//22 6//22 2//22
f 35//23 30//23 13//23
f 40//24 44//24 47//24
f 10//25 11//25 3//25
f 8//26 25//26 34//26
f 15//27 2//27 37//27
f 46//28 36//28 47//28
f 32//29 33//29 22//29
f 50//30 49//30 45//30
f 27//31 8//31 26//31
f 16//32 10//32 27//32
f 12//33 4//33 11//33
f 25//34 23//34 39//34
f 19//35 39//35 29//35
f 39//36 28//36 29//36
f 14//37 29//37 28//37
f 39//38 19//38 23//38
f 23//39 13//39 33//39
f 43//40 35//40 48//40
f 33//41 13//41 43//41
f 46//42 35//42 47//42
f 35//43 43//43 13//43
f 13//44 23//44 19//44
f 48//45 35//45 46//45
f 25//46 8//46 24//46
f 8//47 7//47 24//47
f 4//48 1//48 13//48
f 1//49 5//49 13//49
f 13//50 5//50 30//50
f 30//51 20//51 44//51
f 40//52 44//52 20//52
f 20//53 30//53 5//53
f 1//54 4//54 3//54
f 8//55 9//55 1//55
f 9//56 10//56 1//56
f 1//57 5//57 8//57
f 8//58 41//58 37//58
f 31//59 51//59 5//59
f 51//60 41//60 5//60
f 5//61 41//61 8//61
f 22//62 33//62 15//62
f 6//63 33//63 23//63
f 4//64 29//64 14//64
f 39//65 28//65 34//65
f 41//66 42//66 38//66
f 42//67 41//67 50//67
f 41//68 51//68 49//68
f 42//69 50//69 46//69
f 16//70 27//70 17//70
f 27//71 26//71 28//71
f 17//72 27//72 28//72
f 17//73 12//73 16//73
f 21//74 37//74 41//74
f 38//75 32//75 21//75
f 20//76 36//76 31//76
f 40//77 36//77 20//77
f 14//78 4//78 12//78
f 28//79 14//79 17//79
f 6//80 24//80 7//80
f 36//81 46//81 45//81
f 44//82 35//82 30//82
f 15//83 21//83 22//83
f 22//84 21//84 32//84
f 32//85 38//85 42//85
f 51//86 31//86 45//86
f 51//87 45//87 49//87
f 36//88 45//88 31//88
f 3//89 1//89 10//89
f 42//90 46//90 48//90
f 48//91 43//91 42//91
f 43//92 32//92 42//92
f 37//93 21//93 15//93
f 40//94 47//94 36//94
f 29//95 18//95 19//95
f 45//96 46//96 50//96
f 9//97 8//97 27//97
f 8//98 34//98 26//98
f 33//99 13//99 47//99
f 47//100 13//100 35//100
f 30//101 13//101 44//101
f 44//102 13//102 40//102
f 40//103 13//103 5//103
f 1//104 13//104 3//104
f 3//105 13//105 4//105
f 19//106 13//106 29//106
f 29//107 13//107 14//107
f 14//108 13//108 33//108
f 14//109 33//109 28//109
f 28//110 33//110 39//110
f 39//111 33//111 23//111
f 43//112 33//112 48//112
f 48//113 33//113 47//113
f 44//114 47//114 30//114
f 30//115 47//115 35//115
f 48//116 47//116 46//116
f 20//117 40//117 5//117
f 41//118 37//118 5//118
f 37//119 1//119 5//119
f 2//120 10//120 1//120
f 10//121 11//121 1//121
f 11//122 3//122 1//122
f 37//123 2//123 1//123
f 11//124 12//124 3//124
f 12//125 4//125 3//125
f 14//126 4//126 18//126
f 14//127 18//127 29//127
f 26//128 39//128 28//128
f 26//129 34//129 39//129
f 2//130 21//130 15//130
f 49//131 50//131 51//131
f 50//132 41//132 51//132
f 38//133 37//133 41//133
f 38//134 21//134 37//134
f 21//135 2//135 37//135
f 8//136 9//136 2//136
f 9//137 10//137 2//137
f 9//138 16//138 10//138
f 27//139 17//139 12//139
f 16//140 27//140 12//140
f 27//141 9//141 26//141
f 9//142 8//142 26//142
f 16//143 9//143 27//143
f 7//144 24//144 25//144
f 8//145 7//145 25//145
