# Blender 4.0.0
# www.blender.org
o Cup_1_cup_1_1_collision_20
v -0.011867 0.005518 -0.014876
v -0.011867 0.019695 -0.014876
v -0.000006 0.005652 -0.014876
v 0.011942 0.005378 -0.014392
v -0.011867 0.005405 -0.014235
v -0.011867 0.019695 -0.000007
v 0.002124 0.019697 -0.010623
v 0.003541 0.019697 -0.014392
v -0.000006 0.019695 -0.014876
v 0.011942 0.019695 -0.014392
v 0.011942 0.005219 -0.013475
v -0.011867 0.005307 -0.013473
v -0.011867 0.009162 -0.000007
v 0.011942 0.019695 -0.000007
v 0.011942 0.019697 -0.002028
v 0.009206 0.019697 -0.002126
v 0.002124 0.019697 -0.009207
v 0.006372 0.019697 -0.014392
v 0.011942 0.019697 -0.003544
v 0.011942 0.005192 -0.012040
v -0.011867 0.005281 -0.012549
v -0.011867 0.005683 -0.009251
v 0.011942 0.005591 -0.009262
v 0.011942 0.009147 -0.000007
v 0.011942 0.005195 -0.011687
v -0.011867 0.005286 -0.012038
v -0.011867 0.005303 -0.010622
v 0.011942 0.005344 -0.010120
v 0.011942 0.005209 -0.010623
vn -0.0000 -0.0000 -1.0000
vn 0.0086 -0.7646 -0.6444
vn -0.0023 -0.9847 -0.1743
vn -1.0000 -0.0000 -0.0000
vn -0.0001 1.0000 -0.0000
vn -0.0000 1.0000 -0.0029
vn 0.0405 -0.0000 -0.9992
vn 1.0000 -0.0000 -0.0000
vn -0.0022 -0.9853 -0.1709
vn -0.0037 -0.9918 -0.1276
vn -0.0000 -0.0000 1.0000
vn -0.0000 1.0000 0.0007
vn -0.0000 1.0000 0.0005
vn -0.0001 1.0000 0.0001
vn -0.0000 1.0000 -0.0000
vn 0.0003 1.0000 -0.0063
vn 0.0003 1.0000 -0.0001
vn -0.0034 -0.9998 -0.0188
vn -0.0037 -0.9996 -0.0276
vn -0.0035 -0.9359 0.3522
vn -0.0006 -0.9335 0.3587
vn -0.0039 -1.0000 0.0081
vn -0.0039 -1.0000 0.0083
vn -0.0040 -0.9636 0.2674
vn -0.0036 -0.9609 0.2769
vn -0.0039 -0.9999 0.0133
vn -0.0040 -0.9999 0.0120
vn -0.0038 -0.9659 0.2587
s 0
f 1//1 2//1 9//1
f 1//1 9//1 3//1
f 1//2 3//2 4//2
f 1//3 4//3 5//3
f 1//4 5//4 12//4
f 1//4 12//4 21//4
f 1//4 21//4 26//4
f 1//4 26//4 27//4
f 1//4 27//4 22//4
f 1//4 22//4 13//4
f 1//4 13//4 6//4
f 1//4 6//4 2//4
f 2//5 6//5 17//5
f 2//5 17//5 7//5
f 2//5 7//5 8//5
f 2//6 8//6 18//6
f 2//6 18//6 9//6
f 3//7 9//7 10//7
f 3//7 10//7 4//7
f 4//8 10//8 19//8
f 4//8 19//8 15//8
f 4//8 15//8 14//8
f 4//8 14//8 24//8
f 4//8 24//8 23//8
f 4//8 23//8 28//8
f 4//8 28//8 29//8
f 4//8 29//8 25//8
f 4//8 25//8 20//8
f 4//8 20//8 11//8
f 4//9 11//9 5//9
f 5//10 11//10 12//10
f 6//11 13//11 24//11
f 6//11 24//11 14//11
f 6//12 14//12 15//12
f 6//13 15//13 16//13
f 6//14 16//14 17//14
f 7//15 17//15 16//15
f 7//15 16//15 15//15
f 7//15 15//15 19//15
f 7//15 19//15 18//15
f 7//15 18//15 8//15
f 9//16 18//16 10//16
f 10//17 18//17 19//17
f 11//18 20//18 21//18
f 11//19 21//19 12//19
f 13//20 22//20 23//20
f 13//21 23//21 24//21
f 20//22 25//22 21//22
f 21//23 25//23 26//23
f 22//24 27//24 28//24
f 22//25 28//25 23//25
f 25//26 29//26 27//26
f 25//27 27//27 26//27
f 27//28 29//28 28//28
