# Blender 4.0.0
# www.blender.org
o decimated_mesh
v 0.013371 0.020689 -0.037789
v 0.013371 0.020689 -0.029813
v 0.013369 0.140343 -0.030493
v 0.022311 0.020694 -0.023813
v 0.022968 0.139507 -0.023813
v 0.023502 0.140890 -0.023813
v 0.013369 0.141844 -0.031408
v 0.024535 0.141877 -0.023813
v 0.021211 0.053345 -0.036823
v 0.021053 0.027663 -0.035281
v 0.032036 0.020689 -0.023811
v 0.026824 0.142467 -0.023809
v 0.013369 0.092805 -0.040320
v 0.020217 0.020692 -0.035209
v 0.035034 0.092729 -0.023812
v 0.031270 0.139555 -0.023813
v 0.030232 0.141294 -0.023821
v 0.029132 0.142035 -0.023811
v 0.025997 0.142354 -0.026445
v 0.013370 0.142458 -0.033308
v 0.020544 0.092805 -0.037682
v 0.034914 0.073286 -0.023811
v 0.029793 0.140318 -0.025558
v 0.018248 0.142407 -0.032454
v 0.026923 0.141815 -0.027248
v 0.013370 0.142041 -0.035477
v 0.022393 0.092805 -0.036603
v 0.028431 0.020689 -0.028441
v 0.029975 0.092953 -0.030235
v 0.027950 0.140313 -0.027838
v 0.019308 0.141843 -0.033483
v 0.021261 0.106418 -0.036837
v 0.029728 0.107214 -0.029731
v 0.024112 0.140294 -0.031188
v 0.019897 0.140345 -0.034521
v 0.013369 0.140304 -0.037021
vn 0.5142 0.7691 -0.3796
vn -0.2127 0.9298 0.3004
vn -0.2349 0.9101 0.3413
vn 0.7675 0.4561 -0.4505
vn 0.7697 -0.0009 -0.6384
vn 0.0012 0.0004 1.0000
vn 0.1830 0.9781 -0.0991
vn -0.5573 0.0031 0.8303
vn 0.3995 -0.0574 -0.9149
vn 0.6422 0.0382 -0.7656
vn 0.6336 -0.0840 -0.7691
vn 0.4921 0.6181 -0.6130
vn 0.7762 0.0775 -0.6257
vn -0.5087 0.4485 0.7349
vn 0.2242 0.9332 -0.2809
vn 0.3562 0.0779 -0.9312
vn 0.3447 0.0401 -0.9378
vn 0.3054 0.0660 -0.9499
vn -1.0000 -0.0000 -0.0001
vn 1.0000 -0.0000 -0.0000
vn 1.0000 -0.0000 -0.0001
vn -1.0000 0.0001 -0.0005
vn -1.0000 0.0007 -0.0001
vn -1.0000 0.0006 -0.0001
vn 0.2599 -0.0339 -0.9650
vn 0.3450 -0.0146 -0.9385
vn 0.3521 -0.0569 -0.9342
vn 0.1493 0.9237 -0.3529
vn -0.0002 -0.0001 -1.0000
vn -0.0000 -0.0000 -1.0000
vn 0.0192 0.0160 0.9997
vn 0.0020 -0.0013 -1.0000
vn 0.0001 -0.0000 -1.0000
vn -0.0000 0.0013 -1.0000
vn -0.5459 0.2110 0.8108
vn -0.5709 0.0047 0.8210
vn 0.6401 0.0400 -0.7672
vn 0.6366 0.0780 -0.7672
vn 0.6192 0.0707 -0.7821
vn 0.6554 0.0782 -0.7512
vn 0.1976 -0.0004 -0.9803
vn 0.6432 -0.0150 -0.7656
vn 0.6535 -0.0494 -0.7553
vn 0.6908 -0.0327 -0.7223
vn 0.3096 0.9153 -0.2575
vn 0.2600 0.9133 -0.3134
vn 0.4897 0.6371 -0.5952
vn 0.5257 0.5975 -0.6056
vn 0.0005 1.0000 -0.0002
vn 0.0004 1.0000 -0.0003
vn -0.0005 1.0000 -0.0000
vn -0.0004 1.0000 -0.0000
vn 0.6133 0.6121 -0.4992
vn 0.6130 0.6144 -0.4967
vn 0.7759 0.0681 -0.6272
vn 0.8175 0.0657 -0.5722
vn 0.7857 0.0355 -0.6176
vn 0.2715 0.6394 -0.7193
vn 0.2688 0.6178 -0.7390
vn 0.7883 -0.0431 -0.6137
vn 0.7419 -0.0325 -0.6697
vn 0.7855 -0.0049 -0.6189
vn -0.4856 0.5079 0.7115
vn 0.0433 0.9811 -0.1888
vn 0.0141 0.9997 -0.0209
vn 0.0526 0.9969 -0.0590
vn 0.0022 -0.0023 -1.0000
vn 0.0014 -0.0006 -1.0000
vn 0.2635 0.6409 -0.7210
vn 0.2777 0.6185 -0.7351
vn -0.0011 1.0000 0.0018
vn -0.0000 1.0000 -0.0000
vn 0.0004 1.0000 -0.0014
vn 0.0010 -0.0000 -1.0000
vn -0.0002 -0.0000 -1.0000
vn -0.0007 -0.0001 -1.0000
vn -0.0009 -0.0001 -1.0000
vn 0.6189 0.0782 -0.7816
vn 0.5040 0.0271 -0.8633
vn 0.6370 0.0743 -0.7673
vn 0.5042 -0.0103 -0.8635
vn 0.7773 0.0772 -0.6244
vn 0.6122 0.6143 -0.4978
vn 0.7753 0.0775 -0.6268
vn 0.6155 0.6103 -0.4987
s 0
f 18//1 17//1 25//1
f 12//2 20//2 7//2
f 12//3 7//3 8//3
f 16//4 23//4 17//4
f 32//5 9//5 21//5
f 18//6 12//6 16//6
f 19//7 12//7 18//7
f 5//8 2//8 4//8
f 9//9 10//9 14//9
f 33//10 29//10 27//10
f 28//11 14//11 10//11
f 34//12 35//12 31//12
f 33//13 30//13 16//13
f 6//14 7//14 3//14
f 24//15 19//15 31//15
f 35//16 32//16 36//16
f 32//17 21//17 13//17
f 36//18 32//18 13//18
f 36//19 13//19 3//19
f 13//20 2//20 1//20
f 3//21 2//21 13//21
f 20//22 3//22 7//22
f 20//23 26//23 3//23
f 3//24 26//24 36//24
f 1//25 13//25 9//25
f 13//26 21//26 9//26
f 9//27 14//27 1//27
f 26//28 24//28 31//28
f 22//29 5//29 15//29
f 15//30 5//30 16//30
f 16//31 17//31 18//31
f 12//32 5//32 8//32
f 5//33 6//33 8//33
f 5//33 22//33 4//33
f 4//33 22//33 11//33
f 5//34 12//34 16//34
f 5//35 6//35 3//35
f 5//36 3//36 2//36
f 27//37 32//37 33//37
f 32//38 35//38 33//38
f 33//39 35//39 34//39
f 34//40 30//40 33//40
f 9//41 32//41 27//41
f 9//42 27//42 29//42
f 10//43 9//43 28//43
f 9//44 29//44 28//44
f 18//45 25//45 19//45
f 25//46 31//46 19//46
f 31//47 25//47 34//47
f 25//48 30//48 34//48
f 14//49 4//49 28//49
f 28//50 4//50 11//50
f 4//51 14//51 2//51
f 2//52 14//52 1//52
f 25//53 17//53 23//53
f 30//54 25//54 23//54
f 23//55 16//55 30//55
f 16//56 15//56 33//56
f 15//57 29//57 33//57
f 36//58 26//58 35//58
f 26//59 31//59 35//59
f 11//60 28//60 22//60
f 28//61 29//61 22//61
f 15//62 22//62 29//62
f 6//63 8//63 7//63
f 24//64 26//64 20//64
f 20//65 12//65 24//65
f 12//66 19//66 24//66
f 13//21 3//21 1//21
f 1//20 3//20 2//20
f 12//67 6//67 8//67
f 5//68 6//68 12//68
f 31//69 36//69 26//69
f 31//70 35//70 36//70
f 14//71 1//71 28//71
f 28//72 2//72 11//72
f 28//72 1//72 2//72
f 11//73 2//73 4//73
f 4//74 5//74 12//74
f 4//33 12//33 11//33
f 11//75 12//75 22//75
f 22//76 12//76 15//76
f 15//77 12//77 16//77
f 34//78 32//78 35//78
f 27//79 21//79 32//79
f 34//80 33//80 32//80
f 27//81 9//81 21//81
f 33//82 23//82 16//82
f 17//83 30//83 25//83
f 30//84 23//84 33//84
f 23//85 30//85 17//85
