# Blender 4.0.0
# www.blender.org
o decimated_mesh
v 0.043413 0.078688 -0.000400
v 0.036015 0.078685 -0.000007
v 0.026319 0.078685 -0.023811
v 0.022322 0.020695 -0.023811
v 0.033014 0.020695 -0.000007
v 0.035684 0.078683 -0.023557
v 0.032766 0.020694 -0.023597
v 0.041593 0.020690 -0.000833
vn 0.9104 -0.0628 -0.4089
vn 0.0531 -0.0091 0.9985
vn 0.0271 -0.0007 -0.9996
vn -0.0004 1.0000 0.0002
vn 0.0002 1.0000 -0.0003
vn 0.9251 -0.0479 -0.3768
vn 0.9482 -0.0274 -0.3165
vn 0.9314 -0.0466 -0.3611
vn 0.0959 -0.0050 0.9954
vn 0.0001 1.0000 -0.0000
vn 0.0005 1.0000 -0.0000
vn 0.0205 -0.0014 -0.9998
vn 0.9242 -0.0637 -0.3764
vn 0.9112 -0.0471 -0.4093
vn 0.0531 -0.0027 0.9986
vn 0.0959 -0.0104 0.9953
vn 0.0005 1.0000 -0.0002
vn 0.0001 1.0000 0.0001
s 0
f 5//1 4//1 3//1
f 2//2 8//2 1//2
f 7//3 3//3 6//3
f 3//4 2//4 1//4
f 6//5 3//5 1//5
f 5//6 3//6 2//6
f 1//7 8//7 6//7
f 6//8 8//8 7//8
f 2//9 5//9 8//9
f 5//10 7//10 4//10
f 7//11 5//11 8//11
f 7//12 4//12 3//12
f 3//13 2//13 4//13
f 4//14 2//14 5//14
f 5//15 1//15 2//15
f 5//16 8//16 1//16
f 8//17 4//17 5//17
f 7//18 4//18 8//18
