# Blender 4.0.0
# www.blender.org
o decimated_mesh
v -0.034984 0.092809 -0.023870
v -0.029537 0.114073 -0.029533
v -0.029968 0.092928 -0.030243
v -0.022392 0.092809 -0.036604
v -0.021258 0.106416 -0.036836
v -0.020539 0.092809 -0.037680
v -0.021221 0.053698 -0.036823
v -0.031114 0.140184 -0.023881
v -0.028455 0.021166 -0.028465
v -0.027907 0.140340 -0.027870
v -0.020384 0.140253 -0.034256
v -0.011299 0.092809 -0.041073
v -0.027075 0.141810 -0.027086
v -0.020198 0.021166 -0.035277
v -0.032032 0.021166 -0.023870
v -0.029400 0.141951 -0.023872
v -0.025737 0.142342 -0.026802
v -0.019442 0.141776 -0.033498
v -0.016497 0.140277 -0.035904
v -0.022816 0.021166 -0.023870
v -0.026751 0.142476 -0.023864
v -0.018363 0.142342 -0.032690
v -0.009923 0.140267 -0.038248
v -0.010625 0.021166 -0.038770
v -0.000012 0.021166 -0.032938
v -0.023052 0.140356 -0.023871
v -0.000012 0.142463 -0.036122
v -0.010126 0.141887 -0.036875
v -0.000017 0.139322 -0.039674
v -0.000035 0.021166 -0.040251
v -0.000012 0.139554 -0.033128
v -0.000018 0.141978 -0.038090
v -0.009119 0.142397 -0.035801
v -0.000017 0.141045 -0.038925
v -0.000033 0.095365 -0.042581
v -0.000012 0.141654 -0.033935
v -0.024456 0.141896 -0.023870
vn -0.0936 0.3968 -0.9131
vn -0.3695 -0.0007 -0.9292
vn -0.3075 0.9146 -0.2624
vn -0.7886 -0.0319 -0.6141
vn -0.1361 0.0654 -0.9885
vn -0.0000 1.0000 -0.0000
vn -0.3447 -0.0146 -0.9386
vn -0.5076 0.6109 -0.6075
vn -0.7856 0.0368 -0.6176
vn 0.2135 0.8403 0.4983
vn -0.1928 0.9749 -0.1109
vn -0.2484 0.9174 -0.3110
vn -0.1606 0.8962 -0.4135
vn -0.1384 -0.0331 -0.9898
vn -0.7669 -0.0007 -0.6418
vn -0.1022 0.6357 -0.7651
vn 0.0012 0.0052 -1.0000
vn -1.0000 -0.0013 0.0006
vn 0.3614 0.3345 0.8704
vn -0.3136 0.0655 -0.9473
vn -0.0162 0.9994 -0.0306
vn -0.3729 -0.0015 -0.9279
vn -0.2833 0.8960 -0.3420
vn -0.7851 -0.0323 -0.6185
vn -0.1464 0.0630 -0.9872
vn -0.0547 0.9209 -0.3858
vn -0.2792 -0.0335 -0.9597
vn -0.3423 -0.0553 -0.9380
vn -0.0156 0.9708 -0.2394
vn -0.5064 0.6147 -0.6048
vn -0.7780 0.0877 -0.6221
vn -0.8343 0.0680 -0.5471
vn 0.1576 0.9261 0.3429
vn -0.1178 0.9354 -0.3335
vn -0.1256 -0.0311 -0.9916
vn -0.2705 0.6331 -0.7252
vn -0.2670 0.6034 -0.7514
vn -0.3225 0.5744 -0.7523
vn -0.6354 -0.0566 -0.7701
vn -0.6897 -0.0325 -0.7233
vn -0.1965 -0.0004 -0.9805
vn -0.6430 -0.0150 -0.7657
vn -0.0952 0.6638 -0.7418
vn 0.0013 -0.0003 -1.0000
vn -0.0000 -0.0000 -1.0000
vn 0.0023 0.0031 -1.0000
vn 0.0037 0.0033 1.0000
vn -1.0000 -0.0000 0.0023
vn -1.0000 0.0001 0.0032
vn -1.0000 0.0003 0.0008
vn -1.0000 -0.0005 0.0008
vn -1.0000 0.0025 0.0025
vn 1.0000 0.0002 0.0002
vn -0.6441 0.0881 -0.7599
vn -0.6195 0.0756 -0.7814
vn -0.6399 0.0402 -0.7674
vn -0.6421 0.0388 -0.7656
vn 0.3622 0.3300 0.8717
vn -0.3444 0.0400 -0.9380
vn -0.3894 0.0800 -0.9176
vn -0.3348 0.0729 -0.9395
vn -0.6279 0.6119 -0.4809
vn -0.6280 0.6117 -0.4811
vn -0.0080 0.9998 -0.0184
vn -0.0500 0.9968 -0.0627
vn -0.7851 -0.0319 -0.6185
vn -0.7886 -0.0325 -0.6141
vn 0.0006 -0.0000 -1.0000
vn 0.0030 -0.0004 -1.0000
vn 0.0062 -0.0007 -1.0000
vn -0.0000 0.0001 -1.0000
vn -0.0018 -0.0000 -1.0000
vn -0.6281 0.6116 -0.4810
vn -0.6279 0.6119 -0.4810
vn -0.5024 0.0271 -0.8642
vn -0.5025 -0.0102 -0.8645
vn -0.0000 1.0000 -0.0001
vn 1.0000 -0.0001 -0.0037
vn 1.0000 -0.0001 -0.0032
vn 0.3618 0.3297 0.8720
vn 0.3616 0.3345 0.8703
vn 1.0000 -0.0000 -0.0000
vn 1.0000 -0.0000 -0.0014
vn 1.0000 0.0012 -0.0026
vn 1.0000 0.0045 -0.0042
s 0
f 34//1 29//1 23//1
f 25//2 20//2 26//2
f 13//3 16//3 17//3
f 15//4 3//4 9//4
f 29//5 35//5 23//5
f 25//6 24//6 20//6
f 7//7 6//7 12//7
f 13//8 18//8 10//8
f 2//9 3//9 1//9
f 37//10 36//10 21//10
f 16//11 21//11 17//11
f 18//12 17//12 22//12
f 18//13 22//13 28//13
f 12//14 30//14 24//14
f 7//15 5//15 6//15
f 28//16 34//16 23//16
f 21//17 26//17 8//17
f 34//18 31//18 32//18
f 36//19 26//19 31//19
f 23//20 12//20 5//20
f 33//21 22//21 21//21
f 25//22 26//22 31//22
f 18//23 13//23 17//23
f 15//24 1//24 3//24
f 12//25 23//25 35//25
f 33//26 32//26 28//26
f 20//6 9//6 15//6
f 9//6 20//6 14//6
f 14//6 20//6 24//6
f 24//6 25//6 30//6
f 12//27 24//27 7//27
f 24//28 14//28 7//28
f 32//29 33//29 27//29
f 11//30 10//30 18//30
f 10//31 2//31 8//31
f 8//32 2//32 1//32
f 21//33 36//33 27//33
f 28//34 22//34 33//34
f 12//35 35//35 30//35
f 18//36 28//36 19//36
f 28//37 23//37 19//37
f 19//38 11//38 18//38
f 7//39 14//39 9//39
f 9//40 3//40 7//40
f 4//41 5//41 7//41
f 3//42 4//42 7//42
f 28//43 32//43 34//43
f 8//44 26//44 1//44
f 1//45 20//45 15//45
f 26//45 20//45 1//45
f 21//46 8//46 16//46
f 26//47 37//47 21//47
f 31//48 35//48 25//48
f 25//49 35//49 30//49
f 35//50 31//50 29//50
f 29//51 31//51 34//51
f 32//52 31//52 27//52
f 27//53 36//53 31//53
f 10//54 11//54 2//54
f 11//55 5//55 2//55
f 5//56 4//56 2//56
f 4//57 3//57 2//57
f 36//58 37//58 26//58
f 6//59 5//59 12//59
f 5//60 11//60 19//60
f 23//61 5//61 19//61
f 16//62 13//62 8//62
f 8//63 13//63 10//63
f 21//64 27//64 33//64
f 17//65 21//65 22//65
f 3//66 9//66 1//66
f 9//67 15//67 1//67
f 15//68 1//68 21//68
f 21//69 1//69 16//69
f 16//70 1//70 8//70
f 30//6 9//6 15//6
f 14//6 9//6 30//6
f 30//6 15//6 20//6
f 20//71 15//71 21//71
f 20//72 21//72 26//72
f 13//73 10//73 16//73
f 10//74 8//74 16//74
f 6//75 4//75 5//75
f 6//76 7//76 4//76
f 25//6 30//6 20//6
f 14//77 30//77 24//77
f 35//78 29//78 30//78
f 29//79 25//79 30//79
f 31//80 37//80 26//80
f 31//81 36//81 37//81
f 31//82 25//82 27//82
f 25//83 29//83 27//83
f 29//84 34//84 27//84
f 34//85 32//85 27//85
