# Blender 4.0.0
# www.blender.org
o decimated_mesh
v -0.012467 0.006340 0.017597
v -0.015469 0.001271 0.015420
v -0.012468 0.006340 0.006993
v -0.014402 0.006341 0.020384
v -0.012467 0.004794 0.014699
v -0.012485 0.004590 0.009889
v -0.015278 0.001229 0.010165
v -0.017563 -0.000136 0.014504
v -0.014482 0.001808 0.012374
v -0.018654 0.001239 0.019380
v -0.017040 0.001370 0.007190
v -0.015441 0.000862 0.012103
v -0.021590 0.001422 0.021733
v -0.017312 -0.000256 0.011331
v -0.020925 0.001401 0.005561
v -0.017699 0.006340 0.002323
v -0.013647 0.006340 0.005149
v -0.019959 0.000073 0.018290
v -0.019374 -0.000735 0.014452
v -0.018473 -0.000025 0.008802
v -0.019125 0.006340 0.001889
v -0.022282 -0.000723 0.017658
v -0.022712 -0.000174 0.019800
v -0.019125 -0.000662 0.010626
v -0.019590 0.006341 0.024541
v -0.024431 0.001478 0.022450
v -0.023375 -0.000502 0.019123
v -0.026469 -0.000515 0.019304
v -0.020942 -0.000593 0.009267
v -0.024835 0.003547 0.024136
v -0.025566 -0.000088 0.020370
v -0.021490 -0.000177 0.007979
v -0.024897 0.006341 0.002263
v -0.028848 -0.000729 0.017445
v -0.025933 0.006341 0.025770
v -0.026498 0.004245 0.024493
v -0.026302 0.001124 0.021981
v -0.024017 -0.000596 0.009351
v -0.026493 0.001149 0.006749
v -0.024788 0.001698 0.005849
v -0.027422 -0.000699 0.010786
v -0.028112 0.006341 0.024923
v -0.029686 0.001485 0.021222
v -0.025831 -0.000044 0.008377
v -0.030877 -0.000307 0.014885
v -0.028861 -0.000709 0.012568
v -0.029129 0.000051 0.019580
v -0.029972 -0.000157 0.018415
v -0.031172 -0.000117 0.016268
v -0.031129 0.001364 0.019951
v -0.028319 -0.000206 0.009716
v -0.028856 0.001655 0.007270
v -0.031074 0.006322 0.022873
v -0.032929 0.001335 0.016667
v -0.030249 -0.000155 0.011892
v -0.029992 0.001264 0.008293
v -0.033763 0.006337 0.019059
v -0.031324 0.006342 0.004916
v -0.031484 0.001239 0.010181
v -0.032862 0.001144 0.014873
v -0.032557 0.001528 0.011357
v -0.034922 0.006344 0.016612
v -0.033982 0.003867 0.009818
v -0.035564 0.006340 0.010320
v -0.034233 0.003934 0.010626
v -0.035522 0.006340 0.014376
v -0.034956 0.006340 0.009060
vn 1.0000 0.0005 -0.0001
vn -0.2922 -0.7391 -0.6069
vn -0.5860 -0.5497 -0.5953
vn 0.6628 -0.5904 0.4605
vn 0.0134 -0.9872 0.1590
vn -0.3195 -0.9406 -0.1146
vn -0.8095 -0.4385 -0.3904
vn 0.2320 -0.5517 0.8011
vn 0.1702 -0.4468 0.8783
vn -0.3280 -0.4255 0.8434
vn 0.0399 -0.9388 0.3422
vn -0.6734 0.6344 0.3794
vn -0.8906 -0.4545 0.0153
vn -0.1128 -0.9397 -0.3229
vn 0.4627 -0.5882 -0.6633
vn 0.7675 -0.6259 0.1386
vn 0.1669 -0.9479 -0.2714
vn -0.6279 -0.7760 0.0591
vn -0.8521 -0.3346 0.4025
vn -0.6730 -0.4459 -0.5901
vn -0.0001 -0.7991 0.6012
vn 0.1808 -0.8425 -0.5074
vn -0.6004 -0.6376 -0.4827
vn -0.3978 -0.7537 0.5231
vn -0.2600 -0.8080 -0.5287
vn -0.3294 -0.9293 0.1669
vn -0.1064 -0.7463 -0.6571
vn -0.1536 -0.8220 0.5484
vn -0.0719 -0.6383 0.7664
vn -0.1652 -0.9331 0.3193
vn -0.0004 0.9996 0.0275
vn -0.4289 -0.5756 -0.6962
vn 0.2200 -0.9755 -0.0042
vn -0.5627 -0.8151 -0.1379
vn -0.5796 -0.7537 0.3098
vn -0.7936 -0.5936 -0.1338
vn 0.1444 -0.9220 -0.3594
vn -0.4306 -0.8264 -0.3629
vn -0.1374 -0.8739 0.4662
vn 0.1319 -0.8006 0.5845
vn 0.4901 -0.5738 0.6561
vn -0.7770 -0.5997 -0.1915
vn -0.9023 -0.3563 0.2429
vn 0.2568 -0.9371 0.2364
vn 0.9999 -0.0154 -0.0033
vn -0.0025 1.0000 0.0057
vn -0.0000 1.0000 0.0002
vn -0.0002 1.0000 -0.0002
vn 0.0002 1.0000 -0.0001
vn -0.0000 1.0000 -0.0000
vn 0.0001 1.0000 -0.0001
vn 0.0002 1.0000 -0.0002
vn 0.0001 1.0000 -0.0002
vn 0.0025 1.0000 0.0015
vn -0.0004 1.0000 -0.0000
vn 0.0007 1.0000 0.0001
vn -0.0004 1.0000 -0.0086
vn -0.0002 1.0000 0.0001
vn -0.0026 1.0000 -0.0010
vn -0.7766 -0.3135 0.5464
vn 0.7540 -0.5795 0.3093
vn 0.2896 -0.6498 -0.7028
vn -0.4568 0.8242 -0.3346
vn -0.4219 0.8436 -0.3323
vn 0.7107 -0.6998 -0.0727
vn 0.7605 -0.6406 -0.1062
vn -0.4299 -0.7822 0.4508
vn -0.0029 -0.9930 0.1184
vn 0.8211 -0.5704 0.0209
vn 0.1850 -0.5987 0.7793
vn 0.0772 0.8190 0.5686
vn 0.0817 0.8259 0.5579
vn 0.0279 -0.9102 0.4131
vn -0.6770 0.5978 0.4292
vn 0.6591 -0.6229 -0.4215
vn -0.2164 -0.7706 0.5994
vn -0.8755 -0.4832 0.0091
vn -0.8896 -0.4566 -0.0128
vn -0.5845 -0.4072 0.7018
vn -0.5184 -0.4056 0.7528
vn -0.0073 -0.9524 -0.3047
vn -0.0645 -0.9148 -0.3987
vn -0.1135 -0.9349 -0.3363
vn -0.5229 -0.8054 -0.2792
vn -0.0317 -0.5139 0.8573
vn 0.5214 -0.8463 0.1089
vn -0.5900 -0.8072 -0.0150
vn -0.2134 -0.6003 -0.7708
vn 0.0885 -0.8186 0.5675
vn 0.2133 -0.8245 -0.5241
vn -0.6305 -0.6567 -0.4138
vn 0.3329 -0.8154 0.4736
vn 0.3325 -0.8129 0.4781
vn -0.2236 -0.8274 -0.5152
vn 0.3118 -0.9482 0.0606
vn -0.8414 -0.4935 -0.2203
vn 0.6186 -0.6123 0.4924
vn 0.4532 -0.8445 -0.2853
vn 0.4594 -0.8318 -0.3115
vn -0.0978 -0.6278 0.7722
vn 0.6852 -0.7221 0.0950
vn -0.2031 -0.9280 0.3125
vn 0.2937 -0.9303 -0.2198
vn 0.0228 0.9995 0.0204
vn -0.0043 -1.0000 -0.0002
vn 0.0011 -1.0000 -0.0041
vn 0.0014 -1.0000 -0.0045
vn -0.0135 0.9991 0.0394
vn -0.2871 -0.9554 0.0697
vn -0.1997 -0.9798 -0.0036
vn 0.4899 -0.8688 0.0717
vn -0.5817 -0.7970 -0.1624
vn -0.5612 -0.7656 0.3144
vn -0.0526 -0.5834 -0.8105
vn -0.1055 -0.6094 -0.7858
vn -0.4311 -0.8310 -0.3515
vn 0.5435 -0.8319 -0.1117
vn -0.2340 -0.6186 0.7501
vn -0.4005 -0.4697 0.7867
vn 0.5184 -0.5593 0.6469
vn 0.2255 -0.6329 -0.7407
vn -0.3178 -0.5539 -0.7696
vn -0.2917 -0.5724 -0.7663
vn -0.2668 -0.9381 -0.2206
vn -0.2642 -0.9408 -0.2126
vn -0.8191 -0.3529 0.4522
vn 0.2985 -0.9238 0.2399
vn 0.2401 -0.9277 0.2859
vn 0.1819 -0.9431 0.2782
vn 0.0004 1.0000 -0.0000
vn -0.4441 0.8246 -0.3503
vn -0.4291 0.8453 -0.3183
vn -0.7008 0.6123 0.3659
vn -0.6596 0.6233 0.4201
vn 0.0001 1.0000 -0.0000
vn 0.0001 1.0000 0.0002
vn -0.0066 1.0000 0.0058
vn -0.0001 1.0000 0.0005
vn -0.0000 1.0000 0.0003
vn -0.0008 1.0000 -0.0004
vn -0.0069 1.0000 0.0002
vn 0.0008 -1.0000 0.0044
vn -0.0019 -1.0000 -0.0041
vn -0.0014 -1.0000 -0.0067
vn 0.0041 -0.9998 -0.0187
vn 0.0509 -0.9176 0.3942
vn 0.0764 0.8268 0.5573
vn 0.0838 0.8198 0.5665
vn -0.0014 1.0000 -0.0009
vn -0.5656 -0.7675 0.3017
vn -0.5706 -0.7565 0.3195
vn -0.0177 0.9997 0.0165
vn -0.8723 -0.4875 -0.0387
vn -0.8905 -0.4550 0.0092
vn -0.2688 -0.9385 -0.2168
vn -0.2607 -0.9410 -0.2157
vn -0.1183 -0.9356 -0.3326
vn -0.1098 -0.9384 -0.3278
vn -0.0009 -0.9973 -0.0735
vn 0.0034 -0.9985 -0.0554
vn 0.0245 -0.9351 0.3536
vn -0.4254 -0.8311 -0.3582
vn -0.4379 -0.8252 -0.3567
vn -0.5840 -0.7999 -0.1381
vn -0.5578 -0.8148 -0.1583
s 0
f 3//1 1//1 5//1
f 56//2 52//2 39//2
f 63//3 58//3 56//3
f 1//4 4//4 2//4
f 22//5 27//5 28//5
f 46//6 45//6 55//6
f 67//7 63//7 64//7
f 25//8 30//8 13//8
f 25//9 35//9 30//9
f 36//10 35//10 42//10
f 28//11 23//11 31//11
f 11//12 6//12 3//12
f 66//13 60//13 54//13
f 51//14 44//14 38//14
f 11//15 16//15 17//15
f 9//16 5//16 2//16
f 24//17 29//17 20//17
f 60//18 49//18 54//18
f 62//19 54//19 57//19
f 58//20 63//20 67//20
f 26//21 37//21 31//21
f 15//22 20//22 32//22
f 59//23 63//23 56//23
f 47//24 43//24 50//24
f 39//25 51//25 56//25
f 34//26 48//26 49//26
f 40//27 15//27 39//27
f 37//28 47//28 31//28
f 30//29 37//29 26//29
f 47//30 34//30 28//30
f 38//31 19//31 29//31
f 58//32 52//32 56//32
f 14//33 19//33 24//33
f 55//34 60//34 61//34
f 50//35 49//35 48//35
f 65//36 61//36 60//36
f 32//37 20//37 29//37
f 55//38 59//38 51//38
f 28//39 31//39 47//39
f 23//40 13//40 26//40
f 25//41 13//41 10//41
f 61//42 65//42 63//42
f 62//43 66//43 54//43
f 22//44 19//44 18//44
f 5//45 6//45 3//45
f 57//46 53//46 25//46
f 35//47 25//47 42//47
f 25//48 4//48 57//48
f 4//49 1//49 33//49
f 1//50 3//50 33//50
f 33//51 3//51 16//51
f 3//52 17//52 16//52
f 33//53 16//53 21//53
f 33//53 58//53 62//53
f 33//54 62//54 57//54
f 58//55 67//55 66//55
f 64//56 66//56 67//56
f 53//57 42//57 25//57
f 57//58 4//58 33//58
f 58//59 66//59 62//59
f 57//60 50//60 53//60
f 5//61 1//61 2//61
f 16//62 11//62 15//62
f 18//63 10//63 8//63
f 8//64 10//64 2//64
f 12//65 7//65 9//65
f 7//66 6//66 9//66
f 48//67 47//67 50//67
f 34//68 22//68 28//68
f 9//69 6//69 5//69
f 30//70 26//70 13//70
f 44//71 32//71 39//71
f 39//72 32//72 15//72
f 28//73 27//73 23//73
f 7//74 6//74 11//74
f 11//75 17//75 3//75
f 37//76 43//76 47//76
f 66//77 64//77 65//77
f 65//78 60//78 66//78
f 50//79 43//79 53//79
f 43//80 42//80 53//80
f 29//81 38//81 32//81
f 32//82 38//82 44//82
f 38//83 41//83 51//83
f 61//84 59//84 55//84
f 36//85 30//85 35//85
f 8//86 12//86 2//86
f 60//87 45//87 49//87
f 39//88 33//88 40//88
f 31//89 23//89 26//89
f 15//90 11//90 20//90
f 59//91 61//91 63//91
f 23//92 18//92 10//92
f 10//93 13//93 23//93
f 44//94 51//94 39//94
f 19//95 14//95 8//95
f 64//96 63//96 65//96
f 10//97 2//97 4//97
f 14//98 20//98 7//98
f 20//99 11//99 7//99
f 30//100 36//100 37//100
f 9//101 2//101 12//101
f 47//102 48//102 34//102
f 14//103 24//103 20//103
f 24//104 29//104 19//104
f 19//105 22//105 41//105
f 22//106 34//106 46//106
f 46//107 41//107 22//107
f 41//108 19//108 38//108
f 49//109 45//109 34//109
f 45//110 46//110 34//110
f 8//111 14//111 12//111
f 55//112 45//112 60//112
f 50//113 54//113 49//113
f 33//114 21//114 15//114
f 15//115 40//115 33//115
f 59//116 56//116 51//116
f 12//117 14//117 7//117
f 36//118 43//118 37//118
f 42//119 43//119 36//119
f 10//120 4//120 25//120
f 21//121 16//121 15//121
f 58//122 33//122 52//122
f 33//123 39//123 52//123
f 46//124 55//124 41//124
f 55//125 51//125 41//125
f 57//126 54//126 50//126
f 8//127 18//127 19//127
f 18//128 23//128 22//128
f 23//129 27//129 22//129
f 3//130 4//130 1//130
f 10//131 2//131 18//131
f 18//132 2//132 8//132
f 7//133 6//133 3//133
f 7//134 3//134 11//134
f 33//53 62//53 3//53
f 62//135 4//135 3//135
f 62//136 25//136 4//136
f 57//137 42//137 62//137
f 42//138 35//138 62//138
f 35//139 25//139 62//139
f 58//140 64//140 62//140
f 64//141 66//141 62//141
f 22//142 34//142 19//142
f 34//143 46//143 19//143
f 46//144 41//144 19//144
f 41//145 24//145 19//145
f 31//146 27//146 23//146
f 32//147 15//147 44//147
f 44//148 15//148 39//148
f 67//149 64//149 58//149
f 49//150 48//150 54//150
f 48//151 50//151 54//151
f 53//152 42//152 57//152
f 65//153 60//153 64//153
f 60//154 66//154 64//154
f 55//155 51//155 46//155
f 51//156 41//156 46//156
f 51//157 44//157 41//157
f 44//158 38//158 41//158
f 38//159 29//159 41//159
f 29//160 24//160 41//160
f 28//161 27//161 31//161
f 55//162 56//162 51//162
f 55//163 59//163 56//163
f 61//164 45//164 60//164
f 61//165 55//165 45//165
