# Blender 4.0.0
# www.blender.org
o decimated_mesh
v 0.035655 0.078685 0.023524
v 0.026324 0.078685 0.023805
v 0.036016 0.078685 -0.000004
v 0.022327 0.020695 0.023805
v 0.042923 0.078685 0.000008
v 0.032931 0.020695 0.000023
v 0.032730 0.020696 0.023631
v 0.041158 0.020694 0.000240
v 0.041432 0.078671 0.010982
vn 0.9387 -0.0671 0.3382
vn -0.0001 1.0000 -0.0000
vn 0.9251 -0.0490 0.3766
vn 0.0301 0.0003 0.9995
vn -0.0019 0.0041 1.0000
vn 0.9074 -0.0450 0.4179
vn 0.0001 1.0000 -0.0000
vn -0.0000 1.0000 -0.0011
vn -0.0000 1.0000 0.0013
vn 0.0014 1.0000 0.0006
vn 0.9905 -0.0296 0.1345
vn 0.9115 -0.0628 0.4064
vn 0.0168 -0.0012 0.9999
vn -0.0264 0.0019 0.9996
vn -0.0000 1.0000 -0.0000
vn 0.9243 -0.0637 0.3763
vn 0.0072 1.0000 0.0023
vn 0.0264 -0.0048 -0.9996
vn 0.0019 -0.0006 -1.0000
vn 0.9123 -0.0483 0.4068
vn 0.0001 1.0000 0.0001
vn -0.0001 1.0000 -0.0001
s 0
f 7//1 8//1 9//1
f 6//2 4//2 7//2
f 6//3 3//3 2//3
f 2//4 7//4 1//4
f 8//5 5//5 3//5
f 1//6 7//6 9//6
f 8//7 6//7 7//7
f 1//8 9//8 2//8
f 9//9 5//9 3//9
f 3//10 2//10 9//10
f 8//11 5//11 9//11
f 6//12 2//12 4//12
f 2//13 4//13 7//13
f 8//14 3//14 6//14
f 5//15 3//15 2//15
f 3//16 2//16 4//16
f 1//7 5//7 2//7
f 1//17 9//17 5//17
f 8//18 6//18 5//18
f 6//19 3//19 5//19
f 6//20 3//20 4//20
f 6//21 4//21 8//21
f 8//22 4//22 7//22
