# Blender 4.0.0
# www.blender.org
o decimated_mesh
v 0.025869 0.005869 -0.025456
v 0.027939 0.005869 -0.024723
v 0.026512 0.004205 -0.024458
v 0.024847 0.003555 -0.024141
v 0.029688 0.001485 -0.021222
v 0.020022 0.005869 -0.024324
v 0.031137 0.005867 -0.022589
v 0.031136 0.001367 -0.019948
v 0.029262 0.000016 -0.019429
v 0.026369 0.001182 -0.022013
v 0.032942 0.001338 -0.016635
v 0.029935 -0.000170 -0.018433
v 0.024789 0.001573 -0.022541
v 0.023425 0.000798 -0.021460
v 0.021616 0.001457 -0.021774
v 0.033600 0.005869 -0.019048
v 0.031156 -0.000109 -0.016340
v 0.028826 -0.000732 -0.017446
v 0.027623 -0.000432 -0.019123
v 0.025680 -0.000106 -0.020334
v 0.022676 -0.000177 -0.019779
v 0.018674 0.001239 -0.019394
v 0.032968 0.001239 -0.014940
v 0.024181 -0.000564 -0.019183
v 0.014026 0.005869 -0.019125
v 0.015696 0.005868 -0.021006
v 0.035178 0.005868 -0.015339
v 0.034192 0.004072 -0.009929
v 0.030882 -0.000293 -0.014766
v 0.032548 0.001475 -0.011473
v 0.022245 -0.000723 -0.017637
v 0.019957 0.000073 -0.018292
v 0.015438 0.001305 -0.015425
v 0.035298 0.005868 -0.010658
v 0.030581 -0.000039 -0.012133
v 0.031536 0.001447 -0.009787
v 0.028880 -0.000705 -0.012499
v 0.011944 0.005279 -0.014468
v 0.011954 0.005873 -0.015891
v 0.034712 0.005869 -0.009169
v 0.031192 0.005870 -0.005250
v 0.028324 -0.000214 -0.009748
v 0.027359 -0.000700 -0.010769
v 0.019363 -0.000727 -0.014485
v 0.017592 -0.000151 -0.014491
v 0.011937 0.005866 -0.008752
v 0.029992 0.001264 -0.008293
v 0.023125 -0.000596 -0.009118
v 0.017284 -0.000243 -0.011334
v 0.015220 0.001007 -0.012207
v 0.028785 0.001633 -0.007256
v 0.025832 -0.000045 -0.008376
v 0.021496 -0.000148 -0.007937
v 0.020541 -0.000529 -0.009210
v 0.019125 -0.000662 -0.010626
v 0.015218 0.001264 -0.010208
v 0.012745 0.004270 -0.009910
v 0.011945 0.005207 -0.010626
v 0.025526 0.005869 -0.002955
v 0.018481 -0.000043 -0.008837
v 0.020968 0.001393 -0.005574
v 0.016998 0.001403 -0.007169
v 0.026205 0.001208 -0.006571
v 0.018650 0.005870 -0.002413
v 0.014006 0.005868 -0.005267
vn 0.0327 -0.5048 -0.8626
vn -0.5476 -0.8300 0.1059
vn 0.3983 -0.7537 -0.5227
vn 0.6661 -0.4455 0.5982
vn 0.7785 -0.3179 -0.5412
vn 0.5737 -0.7569 -0.3129
vn 0.9014 -0.4323 -0.0231
vn -0.2229 -0.9748 0.0026
vn -0.1811 -0.8418 0.5086
vn -0.4575 -0.8417 0.2867
vn 0.1981 -0.9306 -0.3078
vn 0.3265 -0.9309 -0.1637
vn 0.0064 -0.7946 -0.6071
vn -0.6909 -0.5722 -0.4419
vn -0.1401 -0.7125 -0.6875
vn 0.7981 -0.5867 0.1367
vn -0.1099 0.9338 -0.3406
vn -0.8135 -0.5497 0.1901
vn 0.1491 -0.8685 -0.4727
vn -0.0015 -1.0000 0.0055
vn -0.7595 -0.6410 -0.1109
vn 0.6589 -0.6462 0.3850
vn -0.0000 1.0000 -0.0000
vn 0.8565 -0.3903 0.3376
vn 0.5785 -0.8060 0.1251
vn 0.8622 -0.5013 0.0728
vn 0.5923 -0.8057 0.0092
vn 0.1033 -0.6267 -0.7724
vn 0.6781 0.5998 -0.4248
vn -0.1636 -0.6169 -0.7699
vn -0.4260 -0.5809 0.6936
vn -0.1718 -0.4284 -0.8871
vn 0.3375 -0.9325 0.1286
vn 0.2821 -0.7517 0.5962
vn -0.0762 0.8264 -0.5578
vn 0.2449 -0.9447 0.2182
vn -0.1756 -0.9482 0.2649
vn -0.4987 -0.5533 -0.6672
vn 0.8706 -0.3237 -0.3706
vn 0.1298 -0.5960 0.7924
vn 0.6180 -0.5391 0.5722
vn 0.3122 -0.9223 0.2278
vn -0.1459 -0.9123 0.3825
vn -0.7659 -0.6379 0.0811
vn 0.4600 0.8224 0.3347
vn -0.2994 -0.9233 -0.2407
vn 0.4258 -0.5734 0.6999
vn 0.3145 -0.5463 0.7763
vn 0.2976 -0.5578 0.7748
vn -0.5221 -0.8453 -0.1137
vn 0.4338 -0.8304 0.3496
vn 0.4343 -0.8314 0.3465
vn -0.3085 -0.9494 -0.0579
vn 0.4008 -0.4687 -0.7872
vn 0.5655 -0.7622 -0.3150
vn 0.9004 -0.4332 -0.0390
vn -0.2130 -0.8240 0.5251
vn 0.0419 -0.9459 -0.3216
vn 0.2851 -0.9565 -0.0620
vn 0.2049 -0.9788 0.0031
vn -0.7556 -0.6026 -0.2566
vn -0.2325 -0.5484 -0.8033
vn -0.4626 -0.8309 0.3092
vn 0.1968 -0.9308 -0.3081
vn 0.0411 -0.9779 -0.2048
vn -0.0356 -0.9498 0.3109
vn -0.0211 -0.7998 -0.5999
vn -0.1070 0.9444 -0.3109
vn 0.0651 -0.9000 0.4309
vn 0.3062 -0.3998 -0.8640
vn 0.2351 -0.6181 -0.7501
vn 0.4399 -0.7810 -0.4434
vn 0.0002 -1.0000 0.0032
vn -0.0118 -0.9994 0.0328
vn -0.0300 -0.9919 0.1235
vn 0.0102 -0.9998 0.0174
vn 0.0028 -1.0000 0.0014
vn 0.5828 -0.4114 -0.7008
vn 0.5072 -0.4051 -0.7607
vn 0.0019 1.0000 -0.0018
vn -0.0000 1.0000 -0.0005
vn 0.0001 1.0000 -0.0001
vn 0.0034 1.0000 0.0009
vn 0.0002 1.0000 -0.0001
vn -0.0002 1.0000 -0.0001
vn 0.0018 1.0000 -0.0000
vn 0.0006 1.0000 0.0001
vn 0.0001 1.0000 -0.0007
vn -0.0007 1.0000 0.0001
vn -0.0001 1.0000 0.0002
vn -0.0000 1.0000 0.0001
vn 0.5934 -0.7919 0.1442
vn -0.6255 -0.5990 -0.5000
vn -0.6091 -0.5802 -0.5406
vn -0.9999 -0.0111 -0.0000
vn -0.9999 0.0104 -0.0023
vn 0.2114 -0.7802 -0.5888
vn 0.1682 -0.8142 -0.5557
vn 0.6231 -0.7802 -0.0552
vn 0.0985 -0.6288 -0.7713
vn 0.6751 0.6216 -0.3973
vn 0.6694 0.6274 -0.3977
vn 0.8184 -0.3581 -0.4494
vn -0.4938 -0.8665 -0.0735
vn -0.0588 -0.8990 -0.4341
vn -0.0768 0.8272 -0.5567
vn -0.2950 -0.9308 0.2159
vn -0.1974 -0.8071 -0.5565
vn 0.0016 -0.9949 -0.1008
vn -0.2856 -0.6470 0.7069
vn -0.5035 -0.5615 -0.6566
vn 0.2315 -0.8210 0.5219
vn 0.2532 -0.8087 0.5309
vn -0.3340 -0.8150 -0.4736
vn -0.3329 -0.8084 -0.4855
vn 0.0653 -0.5527 0.8308
vn 0.5837 -0.5590 0.5890
vn -0.0770 -0.8470 -0.5260
vn 0.7556 0.6549 0.0122
vn 0.7949 0.6067 -0.0054
vn 0.5177 -0.8022 0.2976
vn 0.4250 0.8419 0.3325
vn -0.2413 -0.9277 -0.2850
vn -0.1374 -0.9529 -0.2705
vn -0.2581 -0.9366 -0.2370
vn -0.0000 1.0000 -0.0004
vn 0.1023 -0.6286 -0.7709
vn 0.0975 -0.6269 -0.7729
vn -0.4947 -0.5620 -0.6629
vn -0.5060 -0.5554 -0.6599
vn -0.0020 1.0000 -0.0024
vn -0.0026 1.0000 0.0009
vn -0.0007 1.0000 0.0005
vn 0.0001 1.0000 0.0002
vn 0.0002 1.0000 -0.0000
vn -0.0042 1.0000 -0.0039
vn 0.0009 1.0000 -0.0001
vn 0.4469 0.8230 0.3507
vn 0.7906 0.6122 0.0113
vn 0.7043 0.6144 -0.3555
vn 0.6798 0.6122 -0.4039
vn 0.6630 0.6218 -0.4169
vn 0.0002 1.0000 0.0010
vn 0.5947 -0.5453 0.5908
vn 0.4321 0.8436 0.3186
vn 0.5674 -0.7633 -0.3090
vn 0.5697 -0.7581 -0.3172
vn 0.7782 0.6260 -0.0509
vn -0.0761 0.8273 -0.5566
vn -0.0770 0.8265 -0.5577
vn 0.4359 -0.8298 0.3484
vn 0.6015 -0.5791 0.5503
vn 0.4327 -0.8315 0.3484
vn 0.5939 -0.7946 0.1262
vn 0.0027 -1.0000 0.0054
vn 0.0011 -1.0000 0.0051
vn -0.0013 -1.0000 -0.0024
vn -0.0043 -0.9999 0.0165
vn 0.1195 -0.9356 0.3324
vn 0.1029 -0.9407 0.3232
vn 0.5730 -0.8069 0.1434
vn -0.0036 -0.9985 0.0538
s 0
f 1//1 3//1 4//1
f 56//2 50//2 49//2
f 5//3 8//3 9//3
f 40//4 41//4 28//4
f 7//5 16//5 8//5
f 8//6 17//6 12//6
f 23//7 27//7 34//7
f 55//8 49//8 44//8
f 53//9 61//9 60//9
f 49//10 60//10 56//10
f 18//11 9//11 12//11
f 18//12 12//12 17//12
f 13//13 10//13 20//13
f 33//14 39//14 25//14
f 14//15 15//15 13//15
f 28//16 30//16 23//16
f 48//17 42//17 43//17
f 58//18 57//18 46//18
f 9//19 19//19 20//19
f 31//20 18//20 37//20
f 38//21 33//21 50//21
f 36//22 30//22 28//22
f 16//23 26//23 59//23
f 28//24 34//24 40//24
f 35//25 23//25 30//25
f 28//26 23//26 34//26
f 17//27 23//27 29//27
f 4//28 10//28 13//28
f 57//29 62//29 56//29
f 15//30 4//30 13//30
f 65//31 62//31 64//31
f 1//32 4//32 6//32
f 37//33 29//33 35//33
f 51//34 63//34 47//34
f 63//35 52//35 53//35
f 43//36 37//36 42//36
f 54//37 60//37 55//37
f 26//38 15//38 22//38
f 16//39 27//39 11//39
f 63//40 59//40 61//40
f 36//41 41//41 47//41
f 37//42 35//42 42//42
f 53//43 60//43 54//43
f 50//44 56//44 57//44
f 45//45 32//45 22//45
f 44//46 45//46 32//46
f 51//47 47//47 41//47
f 41//48 59//48 51//48
f 59//49 63//49 51//49
f 45//50 50//50 33//50
f 42//51 35//51 36//51
f 36//52 47//52 42//52
f 44//53 49//53 45//53
f 2//54 5//54 3//54
f 8//55 11//55 17//55
f 11//56 27//56 23//56
f 61//57 62//57 60//57
f 20//58 19//58 24//58
f 17//59 29//59 18//59
f 29//60 37//60 18//60
f 39//61 33//61 38//61
f 6//62 4//62 15//62
f 62//63 56//63 60//63
f 18//64 19//64 9//64
f 18//65 24//65 19//65
f 53//66 54//66 48//66
f 14//67 13//67 20//67
f 42//68 48//68 52//68
f 52//69 53//69 48//69
f 1//70 2//70 3//70
f 3//71 5//71 10//71
f 12//72 9//72 8//72
f 37//73 43//73 31//73
f 43//74 48//74 44//74
f 48//75 54//75 55//75
f 55//76 44//76 48//76
f 44//77 31//77 43//77
f 8//78 5//78 7//78
f 5//79 2//79 7//79
f 7//80 2//80 16//80
f 1//81 6//81 2//81
f 26//82 25//82 59//82
f 25//83 39//83 46//83
f 64//84 59//84 25//84
f 59//85 41//85 16//85
f 41//82 40//82 27//82
f 40//86 34//86 27//86
f 27//87 16//87 41//87
f 46//88 65//88 64//88
f 46//89 64//89 25//89
f 6//90 26//90 16//90
f 2//91 6//91 16//91
f 35//92 29//92 23//92
f 33//93 25//93 22//93
f 25//94 26//94 22//94
f 38//95 58//95 46//95
f 46//96 39//96 38//96
f 10//97 5//97 9//97
f 9//98 20//98 10//98
f 17//99 11//99 23//99
f 4//100 3//100 10//100
f 62//101 57//101 65//101
f 65//102 57//102 46//102
f 16//103 11//103 8//103
f 45//104 49//104 50//104
f 21//105 20//105 24//105
f 63//106 53//106 61//106
f 60//107 49//107 55//107
f 14//108 21//108 15//108
f 18//109 31//109 24//109
f 64//110 62//110 61//110
f 26//111 6//111 15//111
f 52//112 42//112 63//112
f 63//113 42//113 47//113
f 21//114 32//114 22//114
f 22//115 15//115 21//115
f 59//116 64//116 61//116
f 36//117 28//117 41//117
f 20//118 21//118 14//118
f 57//119 38//119 58//119
f 38//120 57//120 50//120
f 30//121 36//121 35//121
f 45//122 22//122 33//122
f 32//123 21//123 31//123
f 21//124 24//124 31//124
f 31//125 44//125 32//125
f 6//126 39//126 1//126
f 39//81 2//81 1//81
f 39//84 16//84 2//84
f 10//127 13//127 3//127
f 13//128 4//128 3//128
f 15//129 22//129 6//129
f 22//130 26//130 6//130
f 26//131 39//131 6//131
f 46//132 65//132 39//132
f 65//133 64//133 39//133
f 64//134 41//134 39//134
f 41//135 16//135 39//135
f 26//136 25//136 39//136
f 40//137 27//137 16//137
f 41//135 40//135 16//135
f 32//138 22//138 33//138
f 50//139 38//139 58//139
f 57//140 46//140 56//140
f 56//141 46//141 65//141
f 56//142 65//142 62//142
f 59//143 41//143 64//143
f 47//144 28//144 41//144
f 32//145 33//145 45//145
f 17//146 12//146 11//146
f 12//147 8//147 11//147
f 50//148 58//148 57//148
f 53//149 61//149 52//149
f 52//150 61//150 63//150
f 35//151 36//151 47//151
f 36//152 28//152 47//152
f 42//153 35//153 47//153
f 30//154 29//154 23//154
f 37//155 43//155 18//155
f 43//156 44//156 18//156
f 44//157 31//157 18//157
f 43//158 55//158 44//158
f 43//159 42//159 52//159
f 48//160 43//160 52//160
f 29//161 30//161 35//161
f 48//162 55//162 43//162
