# Blender 4.0.0
# www.blender.org
o decimated_mesh
v -0.026662 0.005545 -0.025129
v -0.026554 0.004243 -0.024473
v -0.024789 0.005546 -0.025206
v -0.024869 0.003598 -0.024173
v -0.020199 0.005547 -0.024135
v -0.029687 0.001485 -0.021223
v -0.031113 0.001386 -0.019992
v -0.029331 0.000041 -0.019428
v -0.030875 0.005546 -0.022661
v -0.024388 0.001654 -0.022612
v -0.021368 0.002439 -0.022451
v -0.026408 0.001216 -0.022035
v -0.032937 0.001350 -0.016701
v -0.029979 -0.000159 -0.018398
v -0.021412 0.001297 -0.021473
v -0.023471 0.000778 -0.021439
v -0.031130 0.000049 -0.016902
v -0.025738 -0.000092 -0.020353
v -0.027622 -0.000431 -0.019122
v -0.028827 -0.000723 -0.017476
v -0.022629 -0.000155 -0.019814
v -0.018494 0.001228 -0.019217
v -0.032773 0.005546 -0.020149
v -0.031033 -0.000267 -0.015541
v -0.032862 0.001144 -0.014874
v -0.035129 0.005545 -0.014673
v -0.024096 -0.000569 -0.019133
v -0.016284 0.005546 -0.021095
v -0.014588 0.005546 -0.019289
v -0.032519 0.001461 -0.011413
v -0.034232 0.003934 -0.010626
v -0.034505 0.005546 -0.016933
v -0.019958 0.000072 -0.018291
v -0.022207 -0.000722 -0.017618
v -0.015471 0.001303 -0.015486
v -0.028863 -0.000695 -0.012342
v -0.034015 0.003902 -0.009821
v -0.031432 0.001253 -0.010083
v -0.035116 0.005546 -0.010626
v -0.011909 0.005554 -0.015233
v -0.027354 -0.000700 -0.010765
v -0.030526 -0.000082 -0.012159
v -0.031225 0.005547 -0.005587
v -0.034587 0.005546 -0.009279
v -0.019314 -0.000718 -0.014445
v -0.015005 0.001222 -0.012565
v -0.017531 -0.000141 -0.014430
v -0.011860 0.005510 -0.009568
v -0.023132 -0.000594 -0.009113
v -0.028325 -0.000214 -0.009749
v -0.017142 -0.000195 -0.011521
v -0.011869 0.005305 -0.013474
v -0.025831 -0.000045 -0.008377
v -0.029856 0.001367 -0.008039
v -0.019126 -0.000663 -0.010626
v -0.020541 -0.000529 -0.009208
v -0.021510 -0.000149 -0.007940
v -0.017932 -0.000244 -0.010158
v -0.015226 0.001280 -0.010149
v -0.028956 0.005546 -0.004476
v -0.018678 -0.000035 -0.008705
v -0.020942 0.001403 -0.005568
v -0.025042 0.005546 -0.003169
v -0.017015 0.001398 -0.007161
v -0.020521 0.005546 -0.002699
v -0.018568 0.005547 -0.002817
v -0.026158 0.001234 -0.006534
v -0.014292 0.005546 -0.005325
vn 0.9943 0.1060 -0.0078
vn -0.0000 1.0000 -0.0000
vn -0.9026 -0.3510 -0.2491
vn -0.5772 -0.4174 -0.7019
vn -0.2365 -0.6164 -0.7510
vn -0.2452 -0.8114 0.5306
vn -0.1741 -0.8097 -0.5604
vn 0.3401 -0.8115 -0.4753
vn -0.0363 -0.4521 -0.8912
vn -0.4012 -0.7508 -0.5246
vn -0.5969 -0.6311 0.4953
vn -0.7945 -0.5925 0.1329
vn -0.1023 -0.6270 -0.7723
vn 0.2061 -0.6412 -0.7392
vn -0.5756 -0.7493 -0.3275
vn 0.2304 -0.9731 0.0027
vn -0.0857 -0.5614 0.8231
vn 0.0295 -0.9920 0.1231
vn -0.5135 -0.8060 0.2943
vn 0.4750 -0.8451 0.2453
vn -0.2381 -0.9449 0.2245
vn -0.3302 -0.9308 -0.1570
vn -0.5756 -0.8072 0.1309
vn -0.4553 -0.4126 -0.7890
vn -0.6667 -0.4323 0.6072
vn 0.1708 -0.7209 -0.6717
vn 0.4172 -0.8448 0.3352
vn 0.0498 -0.5721 0.8187
vn -0.3652 -0.5571 0.7458
vn -0.5885 -0.7957 -0.1431
vn 0.1102 0.9335 -0.3413
vn 0.2011 -0.4655 -0.8619
vn -0.3132 -0.9200 0.2355
vn -0.7790 -0.5987 0.1863
vn -0.8195 -0.3443 -0.4582
vn -0.4512 -0.7794 -0.4347
vn 0.0765 0.8256 -0.5590
vn -0.8506 -0.4062 0.3339
vn -0.3977 -0.8995 -0.1808
vn -0.7552 -0.3229 -0.5705
vn 0.0354 -0.9496 0.3114
vn 0.1940 -0.5845 -0.7879
vn 0.2825 -0.9504 0.1301
vn 0.4906 -0.5777 -0.6523
vn -0.8568 -0.4699 0.2123
vn -0.0381 -0.9469 -0.3192
vn -0.1541 -0.8666 -0.4747
vn 0.2885 -0.6388 0.7132
vn 0.7959 -0.6047 0.0300
vn 0.1784 -0.9469 0.2676
vn 0.1420 -0.9514 -0.2732
vn 0.1716 -0.8427 0.5103
vn -0.2006 -0.9288 -0.3116
vn 0.1936 -0.8042 -0.5619
vn 0.5755 -0.8146 0.0722
vn -0.0008 1.0000 0.0028
vn -0.0002 1.0000 -0.0010
vn -0.0002 1.0000 -0.0000
vn -0.0003 1.0000 0.0001
vn 0.0005 1.0000 -0.0002
vn -0.0000 1.0000 -0.0001
vn 0.0005 1.0000 -0.0004
vn 0.0141 0.9999 -0.0003
vn -0.0002 1.0000 -0.0007
vn -0.0147 0.9999 0.0078
vn -0.0000 1.0000 0.0002
vn -0.0001 1.0000 -0.0000
vn 0.0001 1.0000 -0.0000
vn 0.6616 -0.6207 0.4207
vn 0.6896 -0.6036 0.4002
vn -0.2337 -0.8179 0.5257
vn -0.2095 -0.7817 -0.5875
vn 0.3405 -0.8170 -0.4654
vn -0.0215 -0.4678 -0.8835
vn 0.3078 -0.9496 -0.0590
vn -0.6310 -0.6563 0.4137
vn -0.3342 -0.9370 0.1015
vn -0.0814 -0.6361 -0.7673
vn -0.5658 -0.7556 -0.3301
vn -0.1285 -0.5891 0.7977
vn 0.0125 -0.9994 0.0321
vn -0.0038 -1.0000 0.0004
vn 0.0003 -1.0000 0.0056
vn -0.0011 -1.0000 0.0025
vn -0.0114 -0.9998 0.0150
vn 0.2305 -0.9396 0.2530
vn 0.4655 -0.8284 0.3115
vn -0.0039 -0.7901 -0.6129
vn 0.0151 -0.7955 -0.6057
vn 0.1394 -0.9143 0.3802
vn -0.5754 -0.8074 0.1306
vn 0.5213 -0.8491 -0.0857
vn 0.5326 -0.8394 -0.1081
vn -0.4564 -0.4301 -0.7789
vn -0.0654 -0.8995 0.4319
vn 0.1073 0.9442 -0.3115
vn 0.0739 -0.8479 -0.5249
vn 0.4116 -0.5811 0.7021
vn -0.4285 -0.8216 0.3761
vn -0.4307 -0.8328 0.3476
vn -0.8296 -0.3347 -0.4469
vn -0.0390 -0.9786 -0.2021
vn -0.4241 0.8446 0.3269
vn -0.4488 0.8312 0.3280
vn 0.0766 0.8258 -0.5587
vn 0.0561 -0.9019 -0.4283
vn 0.6948 -0.5547 -0.4578
vn 0.6363 -0.5840 -0.5040
vn -0.1991 -0.9800 0.0041
vn 0.2272 -0.5287 -0.8179
vn 0.5121 -0.5501 -0.6596
vn 0.5119 -0.5493 -0.6605
vn -0.5880 -0.5438 0.5987
vn -0.6239 -0.7791 -0.0619
vn 0.7739 -0.6275 0.0857
vn 0.2420 -0.9271 -0.2861
vn 0.3006 -0.9231 -0.2399
vn 0.2603 -0.9363 -0.2359
vn 0.7632 -0.6311 -0.1391
vn 0.7771 -0.6204 -0.1056
vn 0.2143 -0.8200 0.5307
vn -0.2065 -0.9281 -0.3098
vn -0.0020 -0.9952 -0.0981
vn -0.2647 -0.5497 0.7923
vn -0.3270 -0.5713 0.7528
vn 0.6054 -0.5571 -0.5684
vn -0.8887 -0.4583 0.0144
vn -0.8892 -0.4573 -0.0148
vn -0.8768 -0.4808 0.0029
vn 0.0001 1.0000 -0.0009
vn -0.0010 1.0000 -0.0024
vn -0.0002 1.0000 -0.0005
vn 0.0007 1.0000 0.0010
vn 0.0276 0.9996 0.0074
vn 0.0065 1.0000 -0.0062
vn 0.0028 1.0000 -0.0034
vn -0.0003 1.0000 -0.0002
vn -0.0003 1.0000 -0.0001
vn -0.0001 1.0000 0.0005
vn 0.5124 -0.5494 -0.6600
vn 0.5112 -0.5501 -0.6603
vn -0.4366 -0.4333 -0.7885
vn -0.4604 -0.4130 -0.7858
vn -0.0001 1.0000 0.0006
vn -0.0001 1.0000 0.0011
vn -0.4299 0.8455 0.3169
vn -0.4405 0.8307 0.3404
vn -0.0008 1.0000 -0.0002
vn -0.8890 -0.4580 0.0029
vn -0.8763 -0.4806 0.0330
vn -0.0004 1.0000 0.0001
vn -0.0006 1.0000 0.0018
vn 0.3443 -0.8127 -0.4702
vn 0.0767 0.8256 -0.5590
vn 0.0765 0.8258 -0.5587
vn 0.3366 -0.8170 -0.4683
vn -0.1197 -0.9353 0.3330
vn -0.1032 -0.9405 0.3239
vn 0.0036 -0.9985 0.0547
vn 0.0043 -0.9999 0.0142
vn -0.0006 -1.0000 0.0036
vn 0.0002 -1.0000 0.0014
vn -0.0092 -0.9999 0.0055
s 0
f 48//1 52//1 40//1
f 28//2 23//2 60//2
f 26//3 32//3 13//3
f 9//4 6//4 7//4
f 12//5 6//5 2//5
f 67//6 54//6 50//6
f 18//7 8//7 12//7
f 21//8 22//8 33//8
f 3//9 2//9 1//9
f 6//10 8//10 7//10
f 37//11 38//11 54//11
f 30//12 31//12 25//12
f 4//13 12//13 2//13
f 10//14 11//14 15//14
f 7//15 17//15 13//15
f 51//16 55//16 45//16
f 62//17 65//17 63//17
f 55//18 56//18 49//18
f 38//19 30//19 42//19
f 58//20 51//20 59//20
f 50//21 36//21 41//21
f 20//22 24//22 14//22
f 25//23 42//23 30//23
f 9//24 2//24 6//24
f 43//25 44//25 37//25
f 16//26 10//26 15//26
f 64//27 61//27 58//27
f 65//28 62//28 66//28
f 60//29 43//29 54//29
f 13//30 17//30 24//30
f 50//31 49//31 41//31
f 5//32 4//32 3//32
f 42//33 36//33 50//33
f 30//34 37//34 31//34
f 13//35 23//35 7//35
f 14//36 7//36 8//36
f 57//37 53//37 67//37
f 37//38 44//38 39//38
f 24//39 17//39 14//39
f 9//40 7//40 23//40
f 57//41 49//41 56//41
f 10//42 4//42 11//42
f 51//43 58//43 55//43
f 22//44 15//44 11//44
f 37//45 39//45 31//45
f 27//46 19//46 18//46
f 19//47 8//47 18//47
f 66//48 62//48 64//48
f 48//49 46//49 52//49
f 55//50 61//50 56//50
f 34//51 27//51 21//51
f 61//52 62//52 57//52
f 20//53 8//53 19//53
f 16//54 15//54 21//54
f 59//55 51//55 46//55
f 5//56 3//56 1//56
f 9//57 5//57 1//57
f 23//58 32//58 60//58
f 60//59 32//59 26//59
f 26//60 39//60 44//60
f 44//61 43//61 26//61
f 26//62 43//62 60//62
f 60//2 63//2 28//2
f 63//2 65//2 29//2
f 29//63 68//63 48//63
f 66//64 68//64 65//64
f 40//65 29//65 48//65
f 29//2 28//2 63//2
f 23//66 28//66 5//66
f 5//67 9//67 23//67
f 68//68 29//68 65//68
f 68//69 64//69 59//69
f 59//70 48//70 68//70
f 50//71 53//71 67//71
f 8//72 6//72 12//72
f 15//73 22//73 21//73
f 3//74 4//74 2//74
f 47//75 51//75 45//75
f 37//76 30//76 38//76
f 42//77 24//77 36//77
f 4//78 10//78 12//78
f 7//79 14//79 17//79
f 67//80 62//80 63//80
f 49//81 41//81 45//81
f 41//82 36//82 34//82
f 34//83 36//83 20//83
f 34//84 45//84 41//84
f 45//85 55//85 49//85
f 61//86 55//86 58//86
f 59//87 64//87 58//87
f 12//88 10//88 18//88
f 10//89 16//89 18//89
f 57//90 56//90 61//90
f 25//91 24//91 42//91
f 51//92 47//92 46//92
f 47//93 35//93 46//93
f 9//94 1//94 2//94
f 57//95 53//95 49//95
f 53//96 49//96 50//96
f 21//97 18//97 16//97
f 68//98 66//98 64//98
f 50//99 54//99 38//99
f 42//100 50//100 38//100
f 13//101 32//101 23//101
f 19//102 27//102 20//102
f 35//103 22//103 47//103
f 47//104 22//104 33//104
f 57//105 67//105 62//105
f 27//106 18//106 21//106
f 29//107 40//107 35//107
f 35//108 22//108 29//108
f 20//109 36//109 24//109
f 4//110 5//110 11//110
f 11//111 5//111 28//111
f 28//112 22//112 11//112
f 37//113 54//113 43//113
f 25//114 13//114 24//114
f 48//115 59//115 46//115
f 21//116 33//116 34//116
f 33//117 47//117 45//117
f 34//118 33//118 45//118
f 35//119 40//119 46//119
f 40//120 52//120 46//120
f 64//121 62//121 61//121
f 20//122 14//122 8//122
f 34//123 20//123 27//123
f 63//124 60//124 67//124
f 60//125 54//125 67//125
f 28//126 29//126 22//126
f 25//127 31//127 26//127
f 13//128 25//128 26//128
f 31//129 39//129 26//129
f 40//130 5//130 3//130
f 1//131 9//131 3//131
f 9//132 40//132 3//132
f 66//133 68//133 40//133
f 68//134 48//134 40//134
f 29//135 28//135 40//135
f 28//136 5//136 40//136
f 9//137 23//137 40//137
f 23//138 39//138 40//138
f 39//59 43//59 40//59
f 43//139 66//139 40//139
f 28//140 22//140 5//140
f 22//141 11//141 5//141
f 6//142 1//142 2//142
f 6//143 9//143 1//143
f 43//144 63//144 66//144
f 63//145 65//145 66//145
f 47//146 35//146 33//146
f 33//147 35//147 22//147
f 32//66 26//66 23//66
f 26//148 39//148 23//148
f 26//149 25//149 39//149
f 25//150 31//150 39//150
f 44//151 43//151 39//151
f 60//152 63//152 43//152
f 33//153 15//153 22//153
f 67//154 62//154 53//154
f 53//155 62//155 57//155
f 21//156 15//156 33//156
f 50//157 41//157 53//157
f 41//158 49//158 53//158
f 49//159 41//159 55//159
f 41//160 45//160 55//160
f 41//161 20//161 45//161
f 20//162 34//162 45//162
f 41//163 36//163 20//163
