# Blender 4.0.0
# www.blender.org
o decimated_mesh
v 0.040613 0.020689 -0.000277
v 0.039879 0.012670 -0.000807
v 0.012379 0.020688 0.038154
v 0.020259 0.020687 0.035209
v 0.028431 0.020688 0.028438
v 0.034869 0.020689 0.020006
v 0.038721 0.020688 0.010623
v 0.039834 0.012578 0.000974
v 0.038870 0.020689 -0.010170
v 0.011932 0.020690 -0.038319
v 0.011942 0.019696 -0.000013
v 0.020151 0.013361 0.034559
v 0.035660 0.008698 0.016209
v 0.035230 0.005866 -0.015382
v 0.038281 0.012627 -0.010013
v 0.012381 0.012589 0.037454
v 0.011913 0.005829 -0.014701
v 0.012379 0.008526 0.035325
v 0.012379 0.009671 0.036400
v 0.020194 0.012194 0.034159
v 0.031773 0.007497 0.022621
v 0.038278 0.012625 0.010010
v 0.035607 0.007461 -0.015923
v 0.012379 0.006264 0.017308
v 0.012381 0.007491 0.030182
v 0.027131 0.006262 0.025376
v 0.030903 0.006265 0.023078
v 0.027962 0.012669 0.027952
v 0.035416 0.006277 0.015222
v 0.034092 0.006272 0.018393
v 0.020307 0.020686 -0.035171
v 0.011946 0.012241 -0.037555
v 0.020513 0.006264 0.024748
v 0.011942 0.006923 -0.029033
v 0.033852 0.007819 0.019568
v 0.034020 0.005875 -0.018273
v 0.034872 0.020690 -0.020000
v 0.020093 0.012793 -0.034482
v 0.019723 0.005869 -0.024145
v 0.033849 0.007818 -0.019564
v 0.019695 0.011428 -0.033928
v 0.031021 0.005876 -0.022761
v 0.011949 0.008996 -0.035981
v 0.011944 0.008254 -0.034922
v 0.031385 0.007375 -0.022994
v 0.027401 0.005866 -0.024994
v 0.028431 0.020689 -0.028434
v 0.027974 0.012518 -0.027918
vn 0.0188 0.9806 -0.1952
vn 0.3506 -0.0838 -0.9328
vn 0.9776 -0.2104 -0.0057
vn 0.0226 0.9794 0.2005
vn -1.0000 -0.0019 -0.0033
vn 0.8954 -0.2427 0.3734
vn 0.8864 -0.0856 0.4549
vn 0.9846 0.1738 -0.0167
vn 0.3607 -0.6384 0.6800
vn 0.9830 -0.0682 0.1707
vn 0.5076 -0.4466 -0.7368
vn 0.9955 -0.0925 0.0207
vn 0.2346 -0.7968 -0.5568
vn 0.7857 -0.0675 -0.6149
vn -0.0001 1.0000 0.0001
vn 0.0865 0.9918 -0.0945
vn 0.8939 -0.0859 -0.4400
vn 0.9415 -0.2044 0.2681
vn 0.7969 -0.2771 -0.5368
vn -0.0867 -0.9933 -0.0759
vn -0.0004 1.0000 0.0015
vn 0.3593 -0.2910 0.8867
vn 0.9818 -0.0784 -0.1730
vn 0.3927 -0.5879 0.7072
vn 0.8706 -0.3293 -0.3655
vn 0.0161 0.9802 -0.1972
vn 0.3568 -0.0909 -0.9297
vn -0.0065 0.9754 0.2205
vn 0.6032 -0.2889 0.7435
vn 0.6357 -0.2293 0.7371
vn 0.6360 -0.0842 -0.7671
vn 0.6361 -0.0841 -0.7670
vn 0.6797 -0.2203 0.6996
vn 1.0000 0.0002 0.0003
vn 1.0000 -0.0012 0.0008
vn 1.0000 0.0003 -0.0002
vn 0.9999 0.0072 -0.0116
vn 1.0000 -0.0018 -0.0003
vn 1.0000 0.0022 0.0022
vn -1.0000 -0.0046 -0.0074
vn 1.0000 0.0011 0.0006
vn 0.9999 0.0093 -0.0108
vn 0.8845 -0.1871 0.4273
vn 0.9427 -0.2906 0.1638
vn 0.8278 -0.0843 0.5547
vn 0.7921 -0.0829 0.6047
vn 0.7831 -0.0611 0.6190
vn 0.9832 -0.0669 0.1696
vn 0.3554 -0.0879 0.9306
vn 0.3489 -0.0807 0.9337
vn 0.4440 -0.5370 -0.7173
vn 0.9222 -0.0794 0.3786
vn 0.9314 -0.0526 0.3601
vn 0.7742 -0.3513 0.5265
vn 0.8088 -0.2709 0.5221
vn 0.7921 -0.0826 -0.6048
vn 0.8144 -0.0841 -0.5742
vn 0.0002 1.0000 -0.0001
vn -0.0000 1.0000 0.0001
vn -0.0001 1.0000 0.0002
vn 0.0002 1.0000 -0.0003
vn 0.0013 1.0000 -0.0021
vn -0.0000 1.0000 -0.0000
vn 0.0002 1.0000 0.0003
vn 0.6052 -0.2962 -0.7390
vn 0.6384 -0.2675 -0.7217
vn 0.6358 -0.0836 0.7673
vn 0.6398 -0.0773 0.7646
vn 0.8707 -0.2167 -0.4415
vn 0.9284 -0.0614 -0.3665
vn 0.9237 -0.0748 -0.3757
vn 0.7972 -0.2839 -0.5329
vn 0.0001 1.0000 0.0015
vn -0.0004 1.0000 0.0004
vn 0.0001 1.0000 0.0014
vn -0.0018 0.9999 -0.0136
vn -0.0016 1.0000 0.0029
vn -0.0001 1.0000 -0.0041
vn -0.0006 1.0000 0.0006
vn -0.0020 0.9999 -0.0134
vn -0.0015 1.0000 0.0035
vn 0.3563 -0.4384 -0.8251
vn 0.3461 -0.4089 -0.8444
vn 0.3548 -0.3178 0.8793
vn 0.3760 -0.6056 -0.7013
vn 0.9423 -0.2830 -0.1791
vn 0.9413 -0.2961 -0.1620
vn 0.9825 -0.0751 -0.1702
vn 0.4354 -0.5481 0.7141
vn 0.8216 -0.5700 0.0027
vn 0.8327 -0.5536 -0.0072
vn 0.9823 -0.0787 -0.1702
vn 0.9820 -0.0751 -0.1731
vn 0.0001 1.0000 -0.0000
vn 0.0009 1.0000 0.0002
vn 0.9830 -0.0669 0.1707
vn 0.9831 -0.0683 0.1696
vn 0.9315 -0.0750 -0.3560
vn 0.9244 -0.0645 -0.3760
vn 0.0002 1.0000 -0.0000
vn 0.9235 -0.0591 0.3791
vn 0.7931 -0.0661 0.6055
vn 0.9351 -0.0776 0.3457
vn -0.0356 0.9993 -0.0132
vn -0.0206 0.9997 -0.0127
vn -0.0076 0.9999 -0.0112
vn -0.0019 0.9999 -0.0101
vn -0.0015 1.0000 0.0013
vn -0.0051 1.0000 0.0042
vn -0.0105 0.9999 0.0073
vn 0.7927 -0.0715 -0.6054
vn 0.7707 -0.0833 0.6317
vn 0.9999 0.0012 -0.0115
vn 0.6361 -0.0775 0.7677
vn 0.6392 -0.0837 0.7645
vn 0.6090 -0.2840 0.7406
vn 0.0174 0.9802 -0.1972
vn 0.0186 0.9809 -0.1936
vn 0.0013 0.9999 -0.0113
vn 1.0000 0.0014 0.0017
vn 0.9999 0.0117 0.0030
vn 0.0010 1.0000 0.0050
vn 0.0126 0.9998 -0.0138
vn 0.9978 0.0657 -0.0128
vn 0.9999 0.0098 -0.0099
vn 0.9999 0.0082 -0.0097
vn 0.0203 0.9835 0.1797
vn 0.0090 0.9753 0.2205
vn 0.7765 -0.0829 -0.6246
vn 0.6154 -0.2353 0.7523
vn 0.9999 0.0031 -0.0111
s 0
f 18//1 26//1 33//1
f 31//2 32//2 10//2
f 3//3 11//3 10//3
f 39//4 46//4 44//4
f 32//5 44//5 10//5
f 30//6 29//6 13//6
f 13//7 6//7 35//7
f 17//8 25//8 24//8
f 18//9 26//9 19//9
f 8//10 1//10 7//10
f 41//11 38//11 42//11
f 2//12 1//12 8//12
f 43//13 46//13 44//13
f 37//14 45//14 48//14
f 5//15 6//15 10//15
f 33//16 24//16 25//16
f 37//17 23//17 40//17
f 13//18 29//18 22//18
f 42//19 45//19 40//19
f 39//20 17//20 34//20
f 29//21 24//21 30//21
f 20//22 12//22 16//22
f 9//23 1//23 2//23
f 20//24 19//24 26//24
f 36//25 23//25 14//25
f 18//26 33//26 25//26
f 31//27 38//27 32//27
f 39//28 44//28 34//28
f 28//29 12//29 27//29
f 27//30 12//30 20//30
f 38//31 31//31 48//31
f 31//32 47//32 48//32
f 28//33 27//33 21//33
f 25//34 19//34 18//34
f 19//35 25//35 16//35
f 16//36 25//36 3//36
f 3//37 25//37 11//37
f 11//38 17//38 10//38
f 17//39 34//39 10//39
f 32//40 43//40 44//40
f 44//41 10//41 34//41
f 17//42 11//42 25//42
f 13//43 35//43 30//43
f 8//44 22//44 29//44
f 35//45 6//45 21//45
f 6//46 5//46 28//46
f 21//47 6//47 28//47
f 7//48 22//48 8//48
f 16//49 12//49 4//49
f 4//50 3//50 16//50
f 46//51 41//51 42//51
f 7//52 6//52 22//52
f 6//53 13//53 22//53
f 27//54 30//54 21//54
f 30//55 35//55 21//55
f 48//56 47//56 37//56
f 37//57 40//57 45//57
f 6//58 7//58 10//58
f 7//15 1//15 9//15
f 7//59 9//59 10//59
f 9//60 37//60 10//60
f 37//61 47//61 10//61
f 47//62 31//62 10//62
f 10//63 3//63 5//63
f 5//64 3//64 4//64
f 42//65 38//65 48//65
f 48//66 45//66 42//66
f 28//67 5//67 4//67
f 4//68 12//68 28//68
f 36//69 40//69 23//69
f 23//70 37//70 15//70
f 37//71 9//71 15//71
f 36//72 42//72 40//72
f 27//73 33//73 26//73
f 33//74 30//74 24//74
f 27//75 30//75 33//75
f 24//76 29//76 17//76
f 17//77 36//77 39//77
f 42//78 46//78 39//78
f 42//79 39//79 36//79
f 14//80 17//80 29//80
f 17//81 14//81 36//81
f 41//82 43//82 38//82
f 43//83 32//83 38//83
f 19//84 20//84 16//84
f 41//85 46//85 43//85
f 23//86 15//86 14//86
f 15//87 2//87 14//87
f 2//88 15//88 9//88
f 27//89 20//89 26//89
f 29//90 14//90 8//90
f 14//91 2//91 8//91
f 2//92 15//92 1//92
f 15//93 9//93 1//93
f 9//94 6//94 1//94
f 6//95 7//95 1//95
f 7//96 22//96 1//96
f 22//97 8//97 1//97
f 23//98 9//98 15//98
f 23//99 37//99 9//99
f 37//100 6//100 9//100
f 13//101 7//101 6//101
f 37//63 3//63 6//63
f 3//64 5//64 6//64
f 5//102 21//102 6//102
f 13//103 22//103 7//103
f 29//104 14//104 30//104
f 30//105 14//105 27//105
f 27//106 14//106 26//106
f 26//107 14//107 17//107
f 17//108 14//108 46//108
f 46//109 14//109 42//109
f 42//110 14//110 36//110
f 45//111 47//111 37//111
f 10//63 3//63 37//63
f 5//112 28//112 21//112
f 11//113 3//113 16//113
f 4//114 12//114 5//114
f 12//115 28//115 5//115
f 28//116 20//116 27//116
f 18//117 26//117 25//117
f 25//118 26//118 33//118
f 33//119 26//119 17//119
f 10//120 17//120 44//120
f 44//121 17//121 34//121
f 39//122 17//122 46//122
f 33//123 17//123 24//123
f 25//124 17//124 18//124
f 18//125 17//125 19//125
f 19//126 17//126 11//126
f 39//127 46//127 34//127
f 34//128 46//128 44//128
f 48//129 47//129 45//129
f 12//130 20//130 28//130
f 19//131 11//131 16//131
