# Blender 4.0.0
# www.blender.org
o decimated_mesh
v 0.013371 0.020689 0.029810
v 0.022328 0.020689 0.023805
v 0.013371 0.020689 0.037788
v 0.013371 0.139389 0.030305
v 0.023120 0.140264 0.023805
v 0.032040 0.020689 0.023805
v 0.013371 0.141034 0.030795
v 0.020465 0.020692 0.035119
v 0.028433 0.020689 0.028441
v 0.021217 0.053602 0.036825
v 0.013371 0.142032 0.031812
v 0.024953 0.142158 0.023805
v 0.013369 0.142486 0.033874
v 0.027297 0.142451 0.023805
v 0.018353 0.142382 0.032501
v 0.025478 0.142331 0.027148
v 0.013379 0.141961 0.035591
v 0.019344 0.141788 0.033525
v 0.026963 0.141788 0.027244
v 0.029501 0.141911 0.023805
v 0.027827 0.140307 0.027965
v 0.019735 0.140560 0.034452
v 0.024109 0.140294 0.031188
v 0.031174 0.140182 0.023816
v 0.013378 0.140106 0.037064
v 0.019996 0.139421 0.034640
v 0.013371 0.092805 0.040317
v 0.022396 0.092805 0.036603
v 0.020545 0.092805 0.037680
v 0.035034 0.092805 0.023805
v 0.029942 0.092680 0.030279
v 0.021261 0.106418 0.036836
v 0.029752 0.106382 0.029756
vn -0.0000 -1.0000 -0.0000
vn 0.5550 -0.0035 0.8319
vn 0.1572 0.9126 0.3775
vn 0.2351 0.9583 0.1624
vn -0.1573 0.9645 -0.2124
vn 0.6417 0.0767 0.7631
vn -0.0014 0.0026 1.0000
vn -0.4415 0.6403 -0.6285
vn 0.5229 0.5999 0.6056
vn 0.7683 -0.0008 0.6401
vn -0.1224 0.9773 -0.1727
vn 0.3557 0.2302 0.9058
vn -0.5535 0.2376 -0.7982
vn 0.2366 0.9221 0.3061
vn 0.6421 -0.0150 0.7665
vn 0.3064 0.0653 0.9497
vn 1.0000 0.0022 -0.0013
vn 0.7771 0.0771 0.6246
vn 0.7888 -0.0322 0.6138
vn 0.5875 0.2603 0.7662
vn 0.2992 0.8825 0.3629
vn 0.0001 1.0000 -0.0002
vn -0.0002 1.0000 -0.0002
vn -0.0003 1.0000 -0.0000
vn 0.5568 -0.0037 0.8306
vn 0.2695 0.6337 0.7251
vn 0.2672 0.5993 0.7546
vn 0.6519 -0.1012 0.7515
vn 0.6388 0.0755 0.7657
vn 0.6400 0.0402 0.7673
vn 0.6422 0.0381 0.7656
vn -0.0014 -0.0003 1.0000
vn -0.0000 -0.0000 1.0000
vn -0.0000 -0.0000 -1.0000
vn 0.0020 0.0084 1.0000
vn 0.4914 0.6350 0.5961
vn 0.4936 0.6188 0.6110
vn -0.4885 0.4728 -0.7334
vn 0.0998 0.9516 0.2905
vn 0.3159 0.9108 0.2657
vn 0.0321 0.9986 0.0410
vn 0.0577 0.9961 0.0673
vn 0.6414 -0.0543 0.7652
vn 0.6900 -0.0329 0.7231
vn 0.1967 -0.0004 0.9805
vn 0.3448 0.0400 0.9378
vn 0.3499 0.0756 0.9337
vn 1.0000 -0.0000 -0.0000
vn 1.0000 -0.0002 -0.0010
vn -0.9999 0.0065 0.0078
vn 1.0000 0.0001 -0.0001
vn 1.0000 -0.0007 0.0012
vn 0.7852 0.0345 0.6182
vn 0.8166 0.0664 0.5733
vn 0.7859 -0.0326 0.6175
vn 0.3451 -0.0145 0.9385
vn 0.2604 -0.0338 0.9649
vn 0.3515 -0.0565 0.9345
vn 0.6269 0.6102 0.4844
vn 0.6286 0.6048 0.4890
vn 1.0000 -0.0015 0.0014
vn 1.0000 -0.0002 0.0008
vn 1.0000 -0.0000 0.0006
vn 1.0000 -0.0000 -0.0003
vn 1.0000 -0.0004 -0.0032
vn 0.5568 -0.0035 0.8306
vn 0.5550 -0.0037 0.8318
vn -0.0000 1.0000 -0.0000
vn -0.0009 1.0000 -0.0014
vn -0.0076 -0.0008 1.0000
vn 0.7888 -0.0328 0.6138
vn 0.7859 -0.0322 0.6175
vn 0.5027 -0.0102 0.8644
vn 0.5025 0.0271 0.8642
vn 0.6388 0.0740 0.7658
vn 0.6314 0.0756 0.7717
vn 0.6530 0.0768 0.7534
s 0
f 2//1 6//1 9//1
f 5//2 4//2 1//2
f 18//3 15//3 17//3
f 16//4 20//4 14//4
f 12//5 11//5 13//5
f 33//6 21//6 26//6
f 24//7 14//7 5//7
f 7//8 11//8 12//8
f 23//9 21//9 19//9
f 10//10 32//10 29//10
f 12//11 13//11 14//11
f 26//12 22//12 25//12
f 7//13 5//13 4//13
f 18//14 16//14 15//14
f 31//15 28//15 10//15
f 25//16 27//16 32//16
f 25//17 4//17 13//17
f 21//18 33//18 24//18
f 6//19 31//19 9//19
f 22//20 26//20 23//20
f 19//21 16//21 18//21
f 9//22 2//22 8//22
f 2//23 1//23 8//23
f 8//24 1//24 3//24
f 5//25 1//25 2//25
f 18//26 17//26 22//26
f 17//27 25//27 22//27
f 23//28 26//28 21//28
f 26//29 32//29 33//29
f 32//30 28//30 33//30
f 28//31 31//31 33//31
f 24//32 5//32 30//32
f 30//33 2//33 6//33
f 5//33 2//33 30//33
f 12//34 14//34 5//34
f 14//35 24//35 20//35
f 19//36 18//36 23//36
f 23//37 18//37 22//37
f 7//38 12//38 5//38
f 15//39 13//39 17//39
f 19//40 20//40 16//40
f 14//41 13//41 15//41
f 15//42 16//42 14//42
f 10//43 8//43 9//43
f 9//44 31//44 10//44
f 28//45 32//45 10//45
f 29//46 32//46 27//46
f 32//47 26//47 25//47
f 3//48 1//48 27//48
f 27//49 4//49 25//49
f 1//48 4//48 27//48
f 17//50 13//50 25//50
f 11//51 4//51 7//51
f 13//52 4//52 11//52
f 31//53 30//53 33//53
f 30//54 24//54 33//54
f 6//55 30//55 31//55
f 10//56 29//56 27//56
f 27//57 3//57 10//57
f 10//58 3//58 8//58
f 20//59 19//59 24//59
f 21//60 24//60 19//60
f 11//61 13//61 7//61
f 7//62 13//62 4//62
f 4//63 13//63 1//63
f 1//48 13//48 3//48
f 3//64 13//64 27//64
f 27//65 13//65 25//65
f 20//33 14//33 5//33
f 2//66 4//66 1//66
f 5//67 4//67 2//67
f 2//68 3//68 9//68
f 2//68 1//68 3//68
f 9//69 3//69 8//69
f 24//70 20//70 30//70
f 30//33 20//33 5//33
f 30//33 5//33 6//33
f 6//33 5//33 2//33
f 6//71 30//71 9//71
f 30//72 31//72 9//72
f 28//73 29//73 10//73
f 28//74 32//74 29//74
f 33//75 23//75 32//75
f 23//76 26//76 32//76
f 21//77 23//77 33//77
