# Blender 4.0.0
# www.blender.org
o decimated_mesh
v -0.035007 0.092808 0.023840
v -0.029754 0.106373 0.029756
v -0.029786 0.091986 0.030465
v -0.022394 0.092808 0.036605
v -0.021261 0.106420 0.036837
v -0.020541 0.092808 0.037682
v -0.019933 0.140353 0.034495
v -0.027621 0.140314 0.028211
v -0.031144 0.140124 0.023859
v -0.013371 0.092808 0.040320
v -0.028443 0.020900 0.028451
v -0.021216 0.053562 0.036824
v -0.029751 0.141767 0.023837
v -0.019332 0.141838 0.033475
v -0.027040 0.142021 0.026778
v -0.020429 0.020903 0.035140
v -0.032038 0.020901 0.023840
v -0.013373 0.140226 0.037055
v -0.018112 0.142405 0.032538
v -0.026857 0.142467 0.023836
v -0.013371 0.142059 0.035459
v -0.013372 0.142458 0.033308
v -0.022557 0.020900 0.023840
v -0.013371 0.141689 0.031135
v -0.024024 0.141632 0.023842
v -0.022940 0.139512 0.023840
v -0.013371 0.020900 0.037807
v -0.013371 0.020900 0.030043
v -0.013371 0.139548 0.030333
vn -0.7676 -0.0008 0.6409
vn -0.3064 0.0654 0.9496
vn -0.5615 -0.0020 0.8275
vn -0.4990 0.6189 0.6066
vn 0.5417 0.2774 -0.7934
vn 0.0002 1.0000 -0.0003
vn -0.2690 0.6172 0.7394
vn -0.2328 0.9636 0.1316
vn -0.6387 0.0778 0.7655
vn 0.2286 0.9178 -0.3246
vn 0.2613 0.8836 -0.3886
vn -0.3529 -0.0567 0.9339
vn -0.0000 -0.0000 1.0000
vn 0.0023 -0.0006 1.0000
vn -0.0039 0.0170 0.9998
vn 0.0027 0.0050 1.0000
vn 0.0026 0.0019 -1.0000
vn -1.0000 -0.0001 -0.0003
vn -1.0000 -0.0000 -0.0000
vn -1.0000 0.0003 -0.0007
vn -1.0000 -0.0011 0.0007
vn -1.0000 0.0012 -0.0004
vn -0.3612 0.0783 0.9292
vn -0.3450 0.0400 0.9378
vn -0.1534 0.9209 0.3583
vn -0.5596 -0.0018 0.8288
vn -0.2205 0.9345 0.2793
vn -0.4881 0.6525 0.5797
vn -0.8169 0.0665 0.5730
vn -0.7830 0.0324 0.6211
vn -0.7765 0.0773 0.6254
vn 0.5355 0.2963 -0.7909
vn -0.6398 -0.0550 0.7666
vn -0.1961 -0.0004 0.9806
vn -0.6882 -0.0335 0.7248
vn -0.6379 -0.0148 0.7700
vn 0.0005 1.0000 -0.0000
vn -0.0002 1.0000 -0.0003
vn -0.0000 1.0000 0.0001
vn -0.2710 0.6325 0.7256
vn -0.6379 0.5483 0.5407
vn -0.6255 0.6153 0.4797
vn -0.7882 -0.0323 0.6146
vn -0.7869 -0.0325 0.6162
vn -0.6313 0.0748 0.7719
vn -0.6410 0.0392 0.7665
vn -0.6400 0.0402 0.7673
vn -0.2612 -0.0337 0.9647
vn -0.3452 -0.0146 0.9384
vn -0.0405 0.9824 0.1824
vn -0.0146 0.9997 0.0218
vn -0.1329 0.9811 0.1405
vn -0.7881 -0.0325 0.6146
vn -0.7869 -0.0323 0.6162
vn 0.0185 -0.0019 0.9998
vn 0.0002 -0.0000 1.0000
vn 0.0004 -0.0000 1.0000
vn -0.0000 1.0000 -0.0000
vn 0.0012 1.0000 -0.0019
vn -0.6388 0.0750 0.7657
vn -0.6546 0.5620 0.5056
vn -0.6007 0.6239 0.4999
vn -0.0011 -0.0000 1.0000
vn -1.0000 -0.0000 -0.0001
vn -0.5026 -0.0103 0.8644
vn -0.5025 0.0271 0.8642
vn -0.6312 0.0780 0.7717
vn -1.0000 -0.0027 0.0004
vn -1.0000 -0.0000 0.0001
vn 0.5386 0.2956 -0.7890
vn 0.5389 0.2760 -0.7958
vn -0.2654 0.6335 0.7268
vn -1.0000 -0.0002 -0.0020
vn -0.2755 0.6178 0.7365
s 0
f 12//1 6//1 5//1
f 18//2 5//2 10//2
f 28//3 29//3 26//3
f 8//4 7//4 14//4
f 24//5 26//5 25//5
f 23//6 16//6 28//6
f 21//7 14//7 7//7
f 20//8 13//8 15//8
f 5//9 7//9 2//9
f 20//10 22//10 24//10
f 20//11 24//11 25//11
f 12//12 16//12 27//12
f 26//13 1//13 23//13
f 17//13 23//13 1//13
f 1//14 26//14 9//14
f 13//15 9//15 20//15
f 9//16 26//16 20//16
f 20//17 25//17 26//17
f 18//18 29//18 10//18
f 10//19 28//19 27//19
f 29//19 28//19 10//19
f 29//20 22//20 24//20
f 22//21 29//21 21//21
f 29//22 18//22 21//22
f 7//23 5//23 18//23
f 5//24 6//24 10//24
f 21//25 19//25 14//25
f 28//26 26//26 23//26
f 15//27 14//27 19//27
f 14//28 15//28 8//28
f 9//29 1//29 2//29
f 1//30 3//30 2//30
f 2//31 8//31 9//31
f 24//32 29//32 26//32
f 16//33 12//33 11//33
f 12//34 5//34 4//34
f 3//35 11//35 12//35
f 12//36 4//36 3//36
f 27//37 28//37 16//37
f 16//38 23//38 11//38
f 11//39 23//39 17//39
f 18//40 21//40 7//40
f 15//41 13//41 9//41
f 8//42 15//42 9//42
f 17//43 11//43 3//43
f 3//44 1//44 17//44
f 8//45 2//45 7//45
f 2//46 3//46 4//46
f 4//47 5//47 2//47
f 27//48 10//48 12//48
f 10//49 6//49 12//49
f 19//50 21//50 22//50
f 22//51 20//51 19//51
f 20//52 15//52 19//52
f 17//53 11//53 1//53
f 11//54 3//54 1//54
f 9//55 1//55 13//55
f 13//56 1//56 20//56
f 20//57 1//57 17//57
f 20//13 17//13 23//13
f 23//58 27//58 28//58
f 23//58 11//58 27//58
f 27//59 11//59 16//59
f 5//60 8//60 2//60
f 8//61 13//61 9//61
f 8//62 15//62 13//62
f 26//63 20//63 23//63
f 28//19 27//19 21//19
f 21//64 27//64 10//64
f 6//65 4//65 12//65
f 6//66 5//66 4//66
f 7//67 8//67 5//67
f 21//68 22//68 24//68
f 21//69 24//69 29//69
f 29//70 25//70 24//70
f 29//71 26//71 25//71
f 29//69 28//69 21//69
f 14//72 18//72 21//72
f 18//73 21//73 10//73
f 14//74 7//74 18//74
