# Blender 4.0.0
# www.blender.org
o Book_1_book_1_1_collision_2
v 0.204857 0.038233 0.155238
v 0.201995 0.039435 0.155238
v 0.204514 0.037747 0.159481
v 0.204857 0.036410 0.155238
v 0.204857 0.038233 -0.155238
v 0.197748 0.039595 0.155238
v 0.201995 0.038446 0.159481
v 0.201995 0.039435 -0.155238
v 0.204514 0.036777 0.159481
v 0.201995 0.035487 0.155238
v 0.204857 0.036410 -0.155238
v 0.204514 0.037747 -0.159481
v 0.197748 0.038589 0.159481
v 0.197748 0.039595 -0.155238
v 0.201995 0.037325 0.161666
v 0.201995 0.038446 -0.159481
v 0.204158 0.037160 0.161634
v 0.201995 0.036245 0.159481
v 0.197748 0.037388 0.161729
v 0.197748 0.035345 0.155238
v 0.201995 0.035487 -0.155238
v 0.204514 0.036777 -0.159481
v 0.070149 0.039603 0.155238
v 0.197748 0.038589 -0.159481
v 0.201995 0.037325 -0.161666
v 0.197748 0.037053 0.161729
v 0.201995 0.037098 0.161666
v 0.197748 0.036130 0.159481
v 0.074409 0.037388 0.161729
v 0.070149 0.036128 0.159481
v 0.074409 0.035345 0.155238
v 0.197748 0.035345 -0.155238
v 0.201995 0.036245 -0.159481
v 0.204158 0.037160 -0.161634
v 0.197748 0.037388 -0.161729
v 0.070149 0.038594 0.159481
v 0.070149 0.039603 -0.155238
v 0.074409 0.037053 0.161729
v 0.070149 0.037388 0.161697
v 0.070149 0.037051 0.161697
v 0.070149 0.035347 0.155207
v 0.074409 0.035345 -0.155238
v 0.197748 0.036130 -0.159481
v 0.201995 0.037098 -0.161666
v 0.197748 0.037053 -0.161729
v 0.074409 0.037388 -0.161729
v 0.070149 0.038594 -0.159481
v 0.070149 0.035347 -0.150996
v 0.070162 0.036130 -0.159481
v 0.074409 0.037053 -0.161729
v 0.070149 0.037388 -0.161697
v 0.070149 0.035349 -0.155238
v 0.070149 0.037053 -0.161697
vn 0.3836 0.9135 0.1356
vn 0.9967 -0.0000 0.0806
vn 1.0000 -0.0000 -0.0000
vn 0.3871 0.9220 -0.0000
vn 0.0369 0.9732 0.2268
vn 0.2607 0.9402 0.2191
vn 0.0379 0.9993 -0.0000
vn 0.2554 0.9211 0.2937
vn 0.9866 -0.0000 0.1632
vn 0.3053 -0.9463 0.1065
vn 0.3070 -0.9517 -0.0000
vn 0.9967 -0.0000 -0.0806
vn 0.3836 0.9135 -0.1356
vn 0.0001 0.9730 0.2308
vn 0.0328 0.9725 0.2306
vn 0.0001 1.0000 -0.0000
vn 0.0745 0.8873 0.4552
vn 0.0300 0.8893 0.4563
vn 0.2607 0.9402 -0.2191
vn 0.0369 0.9732 -0.2268
vn 0.2021 -0.9579 0.2038
vn 0.2033 -0.9638 0.1723
vn 0.0150 0.0044 0.9999
vn 0.0148 -0.0000 0.9999
vn 0.0327 -0.9839 0.1759
vn -0.0333 0.9994 -0.0000
vn 0.3053 -0.9463 -0.1065
vn 0.9866 -0.0000 -0.1632
vn 0.2554 0.9211 -0.2937
vn -0.0000 0.9729 0.2314
vn 0.0201 0.8818 0.4712
vn -0.0000 0.8820 0.4713
vn 0.0328 0.9725 -0.2306
vn 0.0001 0.9730 -0.2308
vn 0.0745 0.8873 -0.4552
vn 0.0300 0.8893 -0.4563
vn 0.0150 -0.0154 0.9998
vn 0.0317 -0.9310 0.3636
vn 0.0266 -0.9830 0.1818
vn 0.0252 -0.9312 0.3637
vn -0.0000 0.8812 0.4727
vn -0.0000 -0.0000 1.0000
vn -0.0000 -0.9833 0.1819
vn -0.0000 -0.9834 0.1815
vn -0.0000 1.0000 -0.0000
vn 0.0327 -0.9839 -0.1759
vn 0.2033 -0.9638 -0.1723
vn 0.2021 -0.9579 -0.2038
vn 0.0148 -0.0000 -0.9999
vn 0.0150 0.0044 -0.9999
vn 0.9999 0.0140 -0.0001
vn 0.9999 -0.0157 0.0002
vn 1.0000 0.0001 -0.0000
vn -0.0000 0.9729 -0.2314
vn 0.0201 0.8818 -0.4712
vn -0.0000 0.8820 -0.4713
vn -0.0000 -0.9248 0.3805
vn -0.0000 -0.9250 0.3799
vn 0.0155 -0.9249 0.3798
vn -0.0074 -0.0000 1.0000
vn -0.0035 0.8785 0.4778
vn -0.0023 -0.9232 0.3842
vn -0.0016 -0.9837 0.1799
vn 0.0003 1.0000 -0.0000
vn 0.0008 1.0000 -0.0000
vn -0.0000 0.9833 0.1819
vn 0.0266 -0.9830 -0.1818
vn 0.0252 -0.9312 -0.3637
vn 0.0317 -0.9310 -0.3636
vn 0.0150 -0.0154 -0.9998
vn -0.0000 -0.0000 -1.0000
vn -0.0000 0.8812 -0.4727
vn -1.0000 0.0017 -0.0000
vn -0.0008 -0.9835 -0.1812
vn -0.0000 -0.9250 -0.3799
vn 0.0155 -0.9249 -0.3798
vn -0.0035 0.8785 -0.4778
vn -0.0074 -0.0000 -1.0000
vn -0.0029 -0.9231 -0.3845
vn 0.0008 1.0000 0.0005
vn 0.9992 0.0389 0.0103
s 0
f 1//1 2//1 3//1
f 1//2 3//2 9//2
f 1//2 9//2 4//2
f 1//3 4//3 11//3
f 1//3 11//3 5//3
f 1//4 5//4 8//4
f 1//4 8//4 2//4
f 2//5 6//5 7//5
f 2//6 7//6 3//6
f 2//7 8//7 14//7
f 2//7 14//7 6//7
f 3//8 7//8 17//8
f 3//9 17//9 9//9
f 4//10 9//10 10//10
f 4//11 10//11 21//11
f 4//11 21//11 11//11
f 5//12 11//12 22//12
f 5//12 22//12 12//12
f 5//13 12//13 8//13
f 6//14 23//14 13//14
f 6//15 13//15 7//15
f 6//16 14//16 37//16
f 6//16 37//16 23//16
f 7//17 15//17 17//17
f 7//18 13//18 15//18
f 8//19 12//19 16//19
f 8//20 16//20 14//20
f 9//21 17//21 18//21
f 9//22 18//22 10//22
f 17//23 15//23 19//23
f 17//24 19//24 26//24
f 10//25 18//25 20//25
f 10//26 32//26 20//26
f 10//26 21//26 32//26
f 11//27 21//27 22//27
f 12//28 22//28 34//28
f 12//29 34//29 16//29
f 23//30 36//30 13//30
f 13//31 19//31 15//31
f 13//32 36//32 19//32
f 14//33 16//33 24//33
f 14//34 24//34 37//34
f 16//35 34//35 25//35
f 16//36 25//36 24//36
f 17//37 26//37 27//37
f 17//38 27//38 18//38
f 18//39 28//39 20//39
f 18//40 27//40 28//40
f 19//41 36//41 29//41
f 19//42 29//42 38//42
f 19//42 38//42 26//42
f 20//43 28//43 30//43
f 20//44 30//44 31//44
f 20//45 42//45 31//45
f 20//45 32//45 42//45
f 21//46 32//46 33//46
f 21//47 33//47 22//47
f 22//48 33//48 34//48
f 34//49 45//49 35//49
f 34//50 35//50 25//50
f 23//3 47//3 37//3
f 23//3 51//3 47//3
f 23//3 53//3 51//3
f 23//51 49//51 53//51
f 23//52 52//52 49//52
f 23//53 48//53 52//53
f 23//3 41//3 48//3
f 23//3 30//3 41//3
f 23//3 40//3 30//3
f 23//3 39//3 40//3
f 23//3 36//3 39//3
f 37//54 24//54 47//54
f 24//55 25//55 35//55
f 24//56 35//56 47//56
f 26//57 38//57 30//57
f 26//58 30//58 28//58
f 26//59 28//59 27//59
f 29//60 39//60 40//60
f 29//60 40//60 38//60
f 29//61 36//61 39//61
f 30//62 38//62 40//62
f 30//63 41//63 31//63
f 31//64 52//64 41//64
f 31//65 42//65 52//65
f 32//66 49//66 42//66
f 32//66 43//66 49//66
f 32//67 43//67 33//67
f 33//68 43//68 44//68
f 33//69 44//69 34//69
f 34//70 44//70 45//70
f 35//71 45//71 50//71
f 35//71 50//71 46//71
f 35//72 46//72 47//72
f 41//73 52//73 48//73
f 42//74 52//74 49//74
f 43//75 49//75 50//75
f 43//75 50//75 45//75
f 43//76 45//76 44//76
f 46//77 51//77 47//77
f 46//78 50//78 53//78
f 46//78 53//78 51//78
f 49//79 53//79 50//79
f 3//2 9//2 4//2
f 3//2 4//2 1//2
f 4//3 11//3 5//3
f 4//3 5//3 1//3
f 5//4 8//4 2//4
f 5//4 2//4 1//4
f 8//7 14//7 6//7
f 8//7 6//7 2//7
f 10//11 21//11 11//11
f 10//11 11//11 4//11
f 11//12 22//12 12//12
f 11//12 12//12 5//12
f 14//16 37//16 23//16
f 14//16 23//16 6//16
f 20//26 21//26 32//26
f 20//26 10//26 21//26
f 37//3 51//3 47//3
f 37//3 53//3 51//3
f 37//3 52//3 53//3
f 37//3 48//3 52//3
f 37//3 41//3 48//3
f 37//3 30//3 41//3
f 37//3 40//3 30//3
f 37//3 39//3 40//3
f 37//3 36//3 39//3
f 37//3 23//3 36//3
f 29//42 38//42 26//42
f 29//42 26//42 19//42
f 31//45 32//45 42//45
f 31//45 20//45 32//45
f 39//60 40//60 38//60
f 39//60 38//60 29//60
f 41//64 42//64 48//64
f 41//64 31//64 42//64
f 42//66 43//66 49//66
f 42//66 32//66 43//66
f 48//80 42//80 52//80
f 53//81 52//81 49//81
