# Blender 4.0.0
# www.blender.org
o decimated_mesh
v -0.203906 0.012621 -0.166369
v -0.205643 0.012715 -0.163254
v -0.212838 0.032916 -0.165892
v -0.192596 0.050417 -0.160681
v -0.208201 0.033055 -0.165961
v -0.213393 0.036584 -0.158275
v -0.199988 0.045731 -0.161632
v -0.201750 0.012715 -0.163139
v -0.213485 0.031925 -0.159484
v -0.196042 0.050180 -0.158280
v -0.192716 0.046602 -0.155220
v -0.192729 0.051630 -0.154998
v -0.205775 0.012715 0.162470
v -0.213485 0.031925 0.159484
v -0.212823 0.032972 0.165874
v -0.213257 0.036802 0.158194
v -0.192730 0.051656 0.154845
v -0.196042 0.050180 0.158280
v -0.199988 0.045731 0.161632
v -0.201669 0.012715 0.162941
v -0.203952 0.012623 0.166368
v -0.208201 0.033055 0.165961
v -0.192646 0.050349 0.160720
v -0.192716 0.046629 0.155351
vn 0.0001 1.0000 -0.0000
vn -0.8221 -0.3513 -0.4480
vn -0.5840 0.7140 -0.3863
vn -0.1930 0.4783 -0.8567
vn -0.0235 0.3093 0.9507
vn 0.8226 -0.1642 -0.5444
vn 0.9647 -0.2254 -0.1362
vn -0.6136 0.7896 -0.0000
vn 0.2476 0.0713 -0.9662
vn -0.9280 -0.3725 -0.0000
vn -0.9989 0.0467 0.0004
vn -0.4073 0.9133 -0.0000
vn -0.2113 0.9549 -0.2087
vn -0.4107 0.7524 -0.5149
vn -0.5816 0.7144 0.3891
vn -0.1971 0.4821 0.8536
vn 0.9663 -0.2575 -0.0002
vn -0.0234 0.3101 -0.9504
vn -0.5878 0.7500 -0.3033
vn 0.2471 0.0706 0.9664
vn 0.8228 -0.1652 0.5438
vn -0.4089 0.7522 0.5167
vn 0.0009 0.9996 -0.0296
vn -0.0000 1.0000 -0.0000
vn -0.0028 0.9997 0.0249
vn -0.0154 0.0167 -0.9997
vn -0.9251 -0.3476 0.1527
vn -1.0000 -0.0029 -0.0000
vn -0.9997 -0.0016 -0.0231
vn -1.0000 -0.0026 -0.0000
vn -0.9999 -0.0015 0.0140
vn -0.5848 0.7506 0.3076
vn -0.0191 0.0159 0.9997
vn -0.2026 0.9553 0.2154
vn -0.6168 0.7871 -0.0003
vn -0.8482 -0.3604 0.3882
vn -0.9259 -0.3779 -0.0004
vn 0.9645 -0.2228 0.1419
vn -0.9998 0.0196 -0.0000
vn -0.9255 -0.3489 -0.1473
vn -0.9947 0.0437 -0.0935
vn -0.4010 0.9161 -0.0001
vn -0.9933 0.0705 0.0913
vn 0.9669 -0.2552 -0.0000
vn -0.0434 0.9991 -0.0000
vn -0.0401 0.9992 -0.0000
vn 0.0504 0.9987 -0.0000
vn 0.0539 0.9985 -0.0000
vn -0.9940 -0.1093 -0.0000
vn -0.9979 -0.0651 -0.0002
vn -0.9998 0.0189 -0.0002
vn -0.9995 0.0315 -0.0000
s 0
f 13//1 20//1 2//1
f 1//2 2//2 3//2
f 3//3 6//3 7//3
f 3//4 7//4 4//4
f 22//5 23//5 15//5
f 1//6 4//6 8//6
f 11//7 8//7 4//7
f 10//8 16//8 18//8
f 5//9 4//9 1//9
f 9//10 13//10 14//10
f 6//11 14//11 16//11
f 17//12 10//12 18//12
f 12//13 4//13 10//13
f 10//14 4//14 7//14
f 15//15 19//15 16//15
f 15//16 23//16 19//16
f 11//17 20//17 8//17
f 4//18 5//18 3//18
f 7//19 6//19 10//19
f 23//20 22//20 21//20
f 21//21 20//21 23//21
f 18//22 19//22 23//22
f 1//23 2//23 8//23
f 8//24 2//24 20//24
f 20//25 13//25 21//25
f 3//26 5//26 1//26
f 13//27 15//27 14//27
f 24//28 17//28 11//28
f 4//29 11//29 12//29
f 12//30 11//30 17//30
f 17//31 24//31 23//31
f 19//32 18//32 16//32
f 21//33 22//33 15//33
f 17//34 18//34 23//34
f 10//35 6//35 16//35
f 15//36 13//36 21//36
f 9//37 2//37 13//37
f 24//38 23//38 20//38
f 6//39 9//39 14//39
f 9//40 3//40 2//40
f 6//41 3//41 9//41
f 17//42 12//42 10//42
f 15//43 16//43 14//43
f 11//44 24//44 20//44
f 8//45 1//45 20//45
f 20//46 1//46 21//46
f 21//47 1//47 13//47
f 13//48 1//48 2//48
f 12//49 4//49 17//49
f 17//50 4//50 23//50
f 23//51 4//51 24//51
f 24//52 4//52 11//52
