# Blender 4.0.0
# www.blender.org
o decimated_mesh
v -0.108905 0.063161 0.158625
v -0.153472 0.058685 0.161888
v -0.108906 0.061075 0.158702
v -0.179284 0.054330 0.161678
v -0.108917 0.059587 0.156334
v -0.132351 0.062724 0.157435
v -0.164484 0.058789 0.157797
v -0.192486 0.049631 0.161697
v -0.182834 0.054653 0.158615
v -0.192705 0.046469 0.154854
v -0.192705 0.046606 -0.155219
v -0.108905 0.060565 -0.157403
v -0.180794 0.055654 0.155219
v -0.192705 0.051592 0.155219
v -0.192736 0.048614 -0.160505
v -0.135681 0.062798 -0.157442
v -0.178875 0.056263 -0.157374
v -0.192705 0.051592 -0.155219
v -0.187758 0.049909 -0.161664
v -0.108901 0.062826 -0.161665
v -0.108906 0.064096 -0.155219
v -0.157824 0.058469 -0.161680
v -0.192504 0.049996 -0.161499
v -0.179284 0.054330 -0.161678
vn -1.0000 -0.0000 -0.0000
vn -1.0000 0.0005 -0.0008
vn 0.0865 -0.3920 0.9159
vn 0.1338 -0.8395 0.5267
vn -0.3710 0.8852 0.2805
vn -0.0774 0.8710 -0.4851
vn -0.1114 0.9396 0.3237
vn -0.2104 0.9648 0.1580
vn -0.1496 0.9887 0.0010
vn -0.0315 0.9806 -0.1932
vn 0.0007 -0.0044 -1.0000
vn -0.0187 0.9998 0.0004
vn 0.1440 -0.9073 -0.3950
vn 0.1432 -0.8744 -0.4636
vn -0.1462 0.9643 -0.2208
vn -0.3441 0.9073 -0.2415
vn 0.0693 0.0369 0.9969
vn -0.0390 -0.5791 -0.8143
vn 0.1547 -0.9880 -0.0004
vn -0.9994 -0.0024 0.0331
vn -0.9907 0.1212 -0.0625
vn -1.0000 -0.0000 0.0058
vn -1.0000 0.0034 -0.0000
vn -1.0000 0.0004 0.0047
vn -0.2941 0.8820 -0.3681
vn -0.1167 0.9183 -0.3782
vn -0.1445 0.9895 0.0018
vn -0.1745 0.9043 -0.3895
vn 0.1338 -0.9013 0.4121
vn -0.0335 0.0610 -0.9976
vn 0.0009 -0.0050 -1.0000
vn -0.0487 0.9988 0.0030
vn 0.1449 -0.9247 -0.3521
vn -0.0167 0.0508 0.9986
vn -0.0434 0.8339 0.5502
vn -0.3228 0.9465 -0.0000
vn -0.3216 0.9431 0.0848
vn -0.3200 0.9474 -0.0001
vn -0.1944 0.9263 0.3228
vn -0.1532 0.8873 0.4350
vn -0.3009 0.8471 0.4380
vn 0.1642 -0.9864 -0.0031
vn -1.0000 -0.0036 -0.0000
vn -1.0000 0.0003 -0.0000
vn -1.0000 0.0020 -0.0000
vn -0.1496 0.9887 -0.0011
vn -0.1215 0.9926 0.0015
vn -0.0485 0.9988 0.0007
vn -0.0188 0.9998 0.0030
vn -1.0000 0.0080 -0.0000
vn -0.9999 -0.0153 -0.0000
vn -1.0000 -0.0000 0.0001
vn -0.9999 0.0103 -0.0000
vn -0.1889 0.9820 0.0008
s 0
f 11//1 10//1 14//1
f 20//2 12//2 21//2
f 3//3 2//3 8//3
f 3//4 8//4 5//4
f 14//5 8//5 9//5
f 22//6 16//6 20//6
f 2//7 6//7 7//7
f 13//8 9//8 7//8
f 17//9 13//9 16//9
f 16//10 21//10 20//10
f 20//11 19//11 22//11
f 1//12 16//12 6//12
f 15//13 19//13 12//13
f 12//14 19//14 20//14
f 22//15 17//15 16//15
f 18//16 17//16 23//16
f 3//17 1//17 2//17
f 15//18 23//18 19//18
f 11//19 5//19 10//19
f 14//20 10//20 8//20
f 14//1 18//1 11//1
f 18//21 23//21 15//21
f 15//22 11//22 18//22
f 21//23 5//23 1//23
f 5//24 3//24 1//24
f 5//1 21//1 12//1
f 24//25 23//25 17//25
f 7//26 6//26 13//26
f 6//27 16//27 13//27
f 22//28 24//28 17//28
f 10//29 5//29 8//29
f 23//30 24//30 19//30
f 24//31 22//31 19//31
f 1//32 21//32 16//32
f 12//33 11//33 15//33
f 8//34 2//34 4//34
f 2//35 1//35 6//35
f 18//36 14//36 13//36
f 14//37 9//37 13//37
f 13//38 17//38 18//38
f 7//39 9//39 4//39
f 4//40 2//40 7//40
f 8//41 4//41 9//41
f 11//42 12//42 5//42
f 21//43 20//43 1//43
f 1//44 20//44 3//44
f 3//45 20//45 12//45
f 17//46 7//46 16//46
f 7//47 6//47 16//47
f 6//48 21//48 16//48
f 6//49 1//49 21//49
f 5//50 3//50 12//50
f 11//51 10//51 15//51
f 10//52 14//52 15//52
f 14//53 18//53 15//53
f 13//54 7//54 17//54
