# Blender 4.0.0
# www.blender.org
o decimated_mesh
v -0.189194 0.003090 0.165993
v -0.202817 0.012744 0.166113
v -0.189223 0.005669 0.162474
v -0.204636 0.012715 0.166188
v -0.196612 0.003137 0.165977
v -0.204551 0.010736 0.165933
v -0.205714 0.012717 0.162848
v -0.200247 0.002591 0.162089
v -0.189216 0.006167 -0.159484
v -0.189216 0.002435 0.159484
v -0.202974 0.012730 -0.166179
v -0.204515 0.008478 0.159271
v -0.205753 0.012715 -0.162907
v -0.189194 0.002972 -0.165988
v -0.189216 0.005017 -0.163747
v -0.204559 0.010770 -0.165993
v -0.200240 0.002504 -0.161939
v -0.204011 0.007662 -0.159484
v -0.196576 0.003106 -0.165924
v -0.204636 0.012715 -0.166188
vn 0.0417 -0.9991 -0.0016
vn -0.0092 1.0000 -0.0000
vn 0.5007 0.7002 0.5090
vn -0.5532 -0.5816 -0.5964
vn -0.1318 -0.1321 0.9824
vn -0.9486 -0.0800 0.3062
vn -0.8329 -0.5234 -0.1798
vn -0.8349 -0.5227 0.1727
vn 0.4306 0.9025 -0.0002
vn -0.0094 -0.0328 -0.9994
vn -0.8096 -0.5870 0.0001
vn 0.4713 0.6540 -0.5918
vn -0.9443 -0.0694 -0.3216
vn -0.5550 -0.5764 0.5998
vn -0.9453 -0.3263 -0.0007
vn -0.9253 -0.3607 0.1172
vn -1.0000 -0.0021 -0.0000
vn -1.0000 -0.0058 0.0041
vn -1.0000 -0.0070 -0.0001
vn 0.9999 0.0158 -0.0043
vn -0.0140 -0.9999 0.0003
vn -0.0085 1.0000 -0.0030
vn -0.0051 1.0000 -0.0000
vn -0.0154 0.9999 0.0055
vn -0.0193 -0.9858 -0.1666
vn 0.4619 0.8869 0.0014
vn -0.0465 -0.0574 -0.9973
vn 0.0058 -0.0995 -0.9950
vn -0.8072 -0.5903 0.0002
vn 0.5064 0.8325 -0.2246
vn -0.0023 -0.0157 0.9999
vn 0.0407 0.0121 0.9991
vn 0.0155 -0.9920 0.1249
vn -0.0066 -0.9950 0.1001
vn -0.9622 -0.2723 0.0001
vn -0.9148 -0.3890 -0.1087
vn -0.0094 -0.0354 -0.9993
vn 0.0051 -0.0124 -0.9999
vn -1.0000 -0.0071 -0.0000
vn -0.9994 0.0346 -0.0000
vn -0.0901 -0.1028 -0.9906
vn -0.9999 -0.0114 -0.0000
vn 0.0401 0.0442 0.9982
vn -0.0023 -0.0240 0.9997
vn -0.0066 -0.9894 0.1453
vn 0.0096 -0.9949 0.1000
vn -0.8072 -0.5903 0.0001
vn -0.0093 1.0000 -0.0000
vn -0.8096 -0.5869 0.0002
s 0
f 10//1 17//1 14//1
f 2//2 11//2 7//2
f 1//3 3//3 2//3
f 19//4 17//4 16//4
f 4//5 6//5 5//5
f 4//6 7//6 6//6
f 17//7 18//7 16//7
f 6//8 12//8 8//8
f 2//9 9//9 11//9
f 11//10 14//10 19//10
f 12//11 17//11 8//11
f 15//12 14//12 11//12
f 16//13 13//13 20//13
f 8//14 5//14 6//14
f 12//15 13//15 18//15
f 7//16 12//16 6//16
f 9//17 10//17 3//17
f 10//18 1//18 3//18
f 10//19 9//19 14//19
f 9//20 14//20 15//20
f 10//21 8//21 17//21
f 20//22 13//22 11//22
f 13//23 7//23 11//23
f 7//24 4//24 2//24
f 14//25 17//25 19//25
f 2//26 3//26 9//26
f 19//27 16//27 11//27
f 16//28 20//28 11//28
f 12//29 18//29 17//29
f 11//30 9//30 15//30
f 1//31 2//31 5//31
f 2//32 4//32 5//32
f 5//33 8//33 10//33
f 1//34 5//34 10//34
f 12//35 7//35 13//35
f 16//36 18//36 13//36
f 19//37 20//37 14//37
f 20//38 11//38 14//38
f 9//39 14//39 1//39
f 1//40 14//40 10//40
f 16//41 20//41 19//41
f 13//23 2//23 11//23
f 3//42 9//42 1//42
f 2//43 4//43 1//43
f 4//44 5//44 1//44
f 5//45 8//45 1//45
f 8//46 10//46 1//46
f 8//47 18//47 17//47
f 7//48 2//48 13//48
f 12//49 18//49 8//49
