# Blender 4.0.0
# www.blender.org
o Book_1_book_1_1_collision_0
v -0.189216 0.003089 -0.165960
v -0.189216 0.002723 -0.163751
v -0.189216 0.003507 -0.165960
v 0.210488 0.003089 -0.165960
v -0.189216 0.002434 -0.159495
v 0.210488 0.002723 -0.163751
v -0.189216 0.005016 -0.163751
v -0.185041 0.003516 -0.165960
v 0.210488 0.003516 -0.165960
v 0.212693 0.003114 -0.165928
v -0.189216 0.002435 -0.014783
v 0.210488 0.002435 -0.159495
v 0.212930 0.002944 -0.163751
v -0.189216 0.006141 -0.159592
v 0.210488 0.005016 -0.163751
v 0.212693 0.003399 -0.165928
v -0.189216 0.002435 0.159495
v 0.210488 0.002435 0.159495
v 0.213166 0.002800 -0.159495
v 0.212930 0.004091 -0.163751
v -0.189216 0.006166 -0.159495
v 0.210488 0.006166 -0.159495
v 0.213166 0.002800 0.159495
v 0.212930 0.002944 0.163751
v 0.210488 0.002723 0.163751
v 0.213166 0.004665 -0.159495
v -0.189216 0.006166 0.159495
v 0.210488 0.006166 0.159495
v -0.189216 0.002723 0.163751
v 0.213166 0.004665 0.159495
v 0.212930 0.004091 0.163751
v 0.212693 0.003114 0.165928
v 0.210488 0.003089 0.165960
v -0.189216 0.005016 0.163751
v 0.210488 0.005016 0.163751
v -0.189216 0.003089 0.165960
v 0.212693 0.003399 0.165928
v 0.210488 0.003516 0.165960
v -0.189216 0.003516 0.165960
vn -1.0000 0.0001 -0.0000
vn -1.0000 -0.0000 -0.0000
vn -1.0000 -0.0012 -0.0000
vn -0.0000 -0.0000 -1.0000
vn -0.0000 -0.9866 -0.1631
vn -0.0000 -0.9977 -0.0677
vn 0.0018 -0.8257 0.5641
vn 0.0147 -0.0000 -0.9999
vn 0.0138 -0.9865 -0.1631
vn -0.0000 -0.9977 -0.0676
vn -0.0000 1.0000 -0.0000
vn 0.0898 -0.9921 -0.0872
vn 0.0899 -0.9937 -0.0673
vn -0.0000 0.9653 -0.2611
vn -0.0000 0.8273 -0.5617
vn 0.0520 0.8262 -0.5610
vn 0.9942 -0.0000 -0.1079
vn -0.0000 -1.0000 -0.0000
vn 0.1349 -0.9900 -0.0410
vn 0.1350 -0.9908 -0.0000
vn 0.9985 -0.0000 -0.0554
vn -0.0000 0.9699 -0.2435
vn -0.0000 0.9654 -0.2607
vn 0.3435 0.9067 -0.2449
vn 0.3359 0.8865 -0.3182
vn 0.1349 -0.9900 0.0410
vn 0.0899 -0.9937 0.0673
vn -0.0000 -0.9977 0.0676
vn 1.0000 -0.0000 -0.0000
vn 0.4837 0.8634 -0.1433
vn 0.4887 0.8724 -0.0000
vn 0.9985 -0.0000 0.0554
vn 0.9942 -0.0000 0.1079
vn 0.0898 -0.9921 0.0872
vn 0.0138 -0.9865 0.1631
vn -0.0000 -0.9866 0.1631
vn -0.0000 0.9654 0.2607
vn 0.3435 0.9067 0.2449
vn 0.4837 0.8634 0.1433
vn 0.3359 0.8865 0.3182
vn 0.0147 -0.0000 0.9999
vn -0.0000 -0.0000 1.0000
vn -0.0000 0.8273 0.5617
vn 0.0520 0.8262 0.5610
vn -0.0000 -0.2677 -0.9635
vn 0.0001 -0.0000 -1.0000
vn 0.0008 0.7590 -0.6511
vn -1.0000 -0.0001 -0.0000
vn -0.0000 0.7859 0.6184
vn 0.0001 -0.0000 1.0000
vn 0.0003 -0.2629 0.9648
s 0
f 1//1 2//1 5//1
f 1//2 5//2 11//2
f 1//2 11//2 17//2
f 1//2 17//2 29//2
f 1//2 29//2 36//2
f 1//2 36//2 39//2
f 1//2 39//2 34//2
f 1//2 34//2 27//2
f 1//2 27//2 21//2
f 1//3 21//3 14//3
f 1//2 14//2 7//2
f 1//2 7//2 3//2
f 1//4 3//4 8//4
f 1//4 8//4 9//4
f 1//4 9//4 4//4
f 1//5 4//5 6//5
f 1//5 6//5 2//5
f 2//6 6//6 5//6
f 3//7 8//7 7//7
f 4//8 9//8 16//8
f 4//8 16//8 10//8
f 4//9 10//9 6//9
f 5//10 6//10 12//10
f 5//11 18//11 12//11
f 5//11 11//11 18//11
f 6//12 10//12 13//12
f 6//13 13//13 12//13
f 7//14 14//14 15//14
f 7//15 15//15 9//15
f 7//15 9//15 8//15
f 9//16 15//16 16//16
f 10//17 16//17 20//17
f 10//17 20//17 13//17
f 11//18 18//18 17//18
f 12//19 13//19 19//19
f 12//20 19//20 23//20
f 12//20 23//20 18//20
f 13//21 20//21 26//21
f 13//21 26//21 19//21
f 14//22 21//22 22//22
f 14//23 22//23 15//23
f 15//24 22//24 20//24
f 15//25 20//25 16//25
f 18//26 23//26 24//26
f 18//27 24//27 25//27
f 18//28 25//28 17//28
f 19//29 26//29 30//29
f 19//29 30//29 23//29
f 20//30 22//30 26//30
f 21//11 27//11 28//11
f 21//11 28//11 22//11
f 22//31 28//31 30//31
f 22//31 30//31 26//31
f 17//28 25//28 29//28
f 23//32 30//32 31//32
f 23//32 31//32 24//32
f 24//33 31//33 37//33
f 24//33 37//33 32//33
f 24//34 32//34 25//34
f 25//35 32//35 33//35
f 25//36 33//36 36//36
f 25//36 36//36 29//36
f 27//37 34//37 35//37
f 27//37 35//37 28//37
f 28//38 35//38 31//38
f 28//39 31//39 30//39
f 31//40 35//40 37//40
f 32//41 37//41 38//41
f 32//41 38//41 33//41
f 33//42 38//42 39//42
f 33//42 39//42 36//42
f 34//43 39//43 38//43
f 34//43 38//43 35//43
f 35//44 38//44 37//44
f 3//4 8//4 9//4
f 3//45 9//45 16//45
f 3//46 16//46 10//46
f 3//47 10//47 4//47
f 3//4 4//4 1//4
f 4//5 6//5 2//5
f 4//5 2//5 1//5
f 2//2 5//2 11//2
f 2//48 11//48 17//48
f 2//2 17//2 29//2
f 2//2 29//2 36//2
f 2//2 36//2 39//2
f 2//2 39//2 34//2
f 2//2 34//2 27//2
f 2//2 27//2 21//2
f 2//2 21//2 7//2
f 2//2 7//2 3//2
f 2//2 3//2 1//2
f 21//23 22//23 15//23
f 21//23 15//23 7//23
f 15//15 9//15 8//15
f 15//15 8//15 7//15
f 16//17 20//17 13//17
f 16//17 13//17 10//17
f 12//11 11//11 18//11
f 12//11 5//11 11//11
f 27//11 28//11 22//11
f 27//11 22//11 21//11
f 20//21 26//21 19//21
f 20//21 19//21 13//21
f 19//20 23//20 18//20
f 19//20 18//20 12//20
f 34//37 35//37 28//37
f 34//37 28//37 27//37
f 28//31 30//31 26//31
f 28//31 26//31 22//31
f 26//29 30//29 23//29
f 26//29 23//29 19//29
f 39//43 38//43 35//43
f 39//43 35//43 34//43
f 30//32 31//32 24//32
f 30//32 24//32 23//32
f 33//36 36//36 29//36
f 33//36 29//36 25//36
f 31//33 37//33 32//33
f 31//33 32//33 24//33
f 36//49 33//49 32//49
f 36//50 32//50 37//50
f 36//51 37//51 38//51
f 36//42 38//42 39//42
