# Blender 4.0.0
# www.blender.org
o decimated_mesh
v -0.068060 0.058612 0.161735
v 0.070136 0.038596 0.159472
v -0.108905 0.063073 0.158670
v -0.101717 0.063074 0.158258
v 0.070119 0.037028 0.161766
v 0.070130 0.035396 0.157060
v 0.070136 0.039604 0.155228
v -0.085437 0.058453 0.161628
v 0.021007 0.041494 0.161661
v 0.070134 0.039291 -0.157937
v -0.108906 0.061075 0.158680
v -0.096560 0.063310 -0.158103
v -0.108895 0.064280 -0.154635
v -0.102141 0.058456 0.157382
v 0.070128 0.035365 -0.156909
v -0.064596 0.058514 -0.161666
v -0.108906 0.059452 0.155228
v -0.108901 0.062871 -0.161665
v -0.108906 0.060187 -0.155225
v 0.021089 0.041433 -0.161647
v 0.070118 0.037024 -0.161776
v -0.108906 0.061418 -0.159532
vn 0.1277 0.8185 0.5601
vn -0.1241 0.0052 0.9923
vn -1.0000 0.0005 -0.0003
vn -0.2595 -0.8740 0.4108
vn -0.1644 -0.7451 0.6463
vn -0.1339 -0.8397 0.5263
vn 0.1425 0.9884 -0.0522
vn 0.1356 0.8529 -0.5042
vn -0.1451 -0.9894 -0.0023
vn -0.0003 -0.0025 -1.0000
vn 0.1354 0.9908 0.0029
vn -0.0099 0.5029 0.8643
vn -0.1350 -0.8188 -0.5581
vn -0.0048 -0.0294 0.9996
vn -1.0000 0.0003 -0.0000
vn -1.0000 0.0034 0.0001
vn -1.0000 0.0024 0.0007
vn -1.0000 0.0025 -0.0000
vn 1.0000 -0.0023 -0.0029
vn 1.0000 -0.0012 -0.0000
vn 1.0000 -0.0014 -0.0003
vn 1.0000 -0.0046 0.0040
vn 1.0000 -0.0015 -0.0000
vn 0.1357 0.9639 0.2290
vn 0.1374 0.9905 0.0025
vn 0.1327 0.9912 -0.0001
vn 0.0218 0.9803 -0.1965
vn -0.0050 -0.0260 -0.9996
vn -0.0000 1.0000 0.0039
vn 0.0363 0.7702 0.6368
vn 0.1426 0.9898 -0.0010
vn 0.0790 0.9969 0.0020
vn 0.1410 0.9849 -0.1009
vn 0.1321 0.9857 0.1045
vn -0.0863 -0.9413 0.3263
vn 0.1347 0.9812 -0.1380
vn -0.1506 -0.9506 -0.2716
vn -0.0857 -0.9431 -0.3212
vn 0.0888 0.9036 -0.4192
vn -0.0058 -0.0347 0.9994
vn 1.0000 -0.0016 -0.0000
vn 1.0000 -0.0001 -0.0000
vn 0.1432 0.9629 0.2288
vn 0.1364 0.9907 0.0024
vn 0.1311 0.9914 0.0029
vn 0.1232 0.9924 -0.0002
vn 0.1228 0.9924 -0.0001
vn -1.0000 0.0005 -0.0000
vn 0.1365 0.9906 -0.0002
vn -0.0059 -0.0368 -0.9993
vn 0.1429 0.9897 0.0024
vn 0.0012 0.0128 -0.9999
vn -1.0000 0.0036 -0.0000
vn -1.0000 -0.0000 -0.0000
s 0
f 5//1 2//1 1//1
f 11//2 8//2 3//2
f 17//3 11//3 3//3
f 11//4 17//4 14//4
f 8//5 11//5 14//5
f 8//6 14//6 9//6
f 10//7 16//7 12//7
f 10//8 21//8 16//8
f 14//9 17//9 19//9
f 20//10 18//10 16//10
f 4//11 7//11 12//11
f 1//12 3//12 8//12
f 20//13 22//13 18//13
f 5//14 1//14 9//14
f 3//15 13//15 17//15
f 13//16 18//16 22//16
f 22//17 19//17 13//17
f 19//18 17//18 13//18
f 21//19 10//19 15//19
f 10//20 7//20 6//20
f 7//21 2//21 6//21
f 2//22 5//22 6//22
f 6//23 15//23 10//23
f 2//24 7//24 4//24
f 19//25 14//25 15//25
f 15//26 14//26 6//26
f 12//27 18//27 13//27
f 16//28 21//28 20//28
f 13//29 3//29 4//29
f 4//30 3//30 1//30
f 10//31 12//31 7//31
f 12//32 13//32 4//32
f 1//33 2//33 4//33
f 9//34 6//34 14//34
f 6//35 5//35 9//35
f 15//36 20//36 19//36
f 19//37 22//37 20//37
f 20//38 21//38 15//38
f 12//39 16//39 18//39
f 8//40 9//40 1//40
f 6//41 15//41 2//41
f 15//42 7//42 2//42
f 7//43 1//43 2//43
f 7//44 12//44 1//44
f 12//45 4//45 1//45
f 9//46 6//46 20//46
f 20//47 6//47 15//47
f 10//23 7//23 15//23
f 13//48 11//48 3//48
f 14//49 9//49 20//49
f 18//50 21//50 20//50
f 14//51 20//51 19//51
f 18//52 16//52 21//52
f 22//53 11//53 13//53
f 22//54 19//54 17//54
f 22//54 17//54 11//54
