mtllib material.mtl
usemtl material_0
v -0.00522000 0.43005000 0.07735000
v -0.00522000 0.48501000 0.07735000
v 0.00185000 0.48501000 0.07929000
v 0.00185000 0.43005000 0.07929000
v 0.00946000 0.48501000 0.07938000
v -0.00522000 -0.43100000 0.07735000
v 0.00946000 0.43005000 0.07938000
v 0.01687000 0.48501000 0.07763000
v 0.01687000 0.43005000 0.07763000
v 0.00185000 -0.43100000 0.07929000
v 0.00946000 -0.43100000 0.07938000
v 0.00946000 -0.48500000 0.07938000
v 0.00185000 -0.48500000 0.07929000
v -0.00522000 -0.48500000 0.07735000
v 0.02335000 0.48501000 0.07420000
v 0.02335000 0.43005000 0.07420000
v 0.01687000 -0.43100000 0.07763000
v 0.02335000 -0.43100000 0.07420000
v 0.02335000 -0.48500000 0.07420000
v 0.01687000 -0.48500000 0.07763000
v 0.02335000 0.43005000 0.07420000
v 0.02335000 0.48501000 0.07420000
v 0.02826000 0.48501000 0.06943000
v 0.02826000 0.43005000 0.06943000
v 0.03113000 0.48501000 0.06378000
v 0.02335000 -0.43100000 0.07420000
v 0.03113000 0.43005000 0.06378000
v 0.03176000 0.48501000 0.05861000
v 0.03176000 0.43005000 0.05861000
v 0.02826000 -0.43100000 0.06943000
v 0.03113000 -0.43100000 0.06378000
v 0.03176000 -0.43100000 0.05861000
v 0.03176000 -0.48500000 0.05861000
v 0.03113000 -0.48500000 0.06378000
v 0.02826000 -0.48500000 0.06943000
v 0.02335000 -0.48500000 0.07420000
v -0.01684000 0.43005000 0.06397000
v -0.01684000 0.48501000 0.06397000
v -0.01509000 0.48501000 0.06889000
v -0.01509000 0.43005000 0.06889000
v -0.01106000 0.48501000 0.07377000
v -0.01684000 -0.43100000 0.06397000
v -0.01106000 0.43005000 0.07377000
v -0.00522000 0.48501000 0.07735000
v -0.00522000 0.43005000 0.07735000
v -0.01509000 -0.43100000 0.06889000
v -0.01106000 -0.43100000 0.07377000
v -0.00522000 -0.43100000 0.07735000
v -0.00522000 -0.48500000 0.07735000
v -0.01106000 -0.48500000 0.07377000
v -0.01509000 -0.48500000 0.06889000
v -0.01684000 -0.48500000 0.06397000
v 0.00746000 0.48501000 0.06129000
v 0.02673000 0.48501000 0.05916000
v 0.03176000 0.48501000 0.05861000
v 0.03113000 0.48501000 0.06378000
v 0.02826000 0.48501000 0.06943000
v 0.02335000 0.48501000 0.07420000
v 0.01687000 0.48501000 0.07763000
v 0.00946000 0.48501000 0.07938000
v 0.00185000 0.48501000 0.07929000
v -0.00522000 0.48501000 0.07735000
v -0.01106000 0.48501000 0.07377000
v -0.01509000 0.48501000 0.06889000
v -0.01684000 0.48501000 0.06397000
v -0.01180000 0.48501000 0.06342000
v 0.03176000 0.48501000 0.05861000
v 0.02673000 0.48501000 0.05916000
v 0.02673000 0.43005000 0.05916000
v 0.03176000 0.43005000 0.05861000
v -0.01684000 0.43005000 0.06397000
v -0.01180000 0.43005000 0.06342000
v -0.01180000 0.48501000 0.06342000
v -0.01684000 0.48501000 0.06397000
v 0.01453000 0.48501000 -0.00160000
v 0.00000000 0.48501000 0.00000000
v -0.01452000 0.48501000 0.00161000
v 0.02673000 0.48501000 0.05916000
v 0.01453000 0.48501000 -0.00160000
v 0.01453000 0.43005000 -0.00160000
v 0.02673000 0.43005000 0.05916000
v 0.02673000 0.43005000 0.05916000
v 0.01453000 0.43005000 -0.00160000
v 0.00000000 0.43005000 0.00000000
v 0.00746000 0.43005000 0.06129000
v -0.01452000 0.43005000 0.00161000
v -0.01180000 0.43005000 0.06342000
v -0.01180000 0.43005000 0.06342000
v -0.01452000 0.43005000 0.00161000
v -0.01452000 0.48501000 0.00161000
v -0.01180000 0.48501000 0.06342000
v -0.01684000 0.43005000 0.06397000
v -0.01684000 -0.43100000 0.06397000
v -0.01180000 -0.43100000 0.06342000
v -0.01180000 0.43005000 0.06342000
v 0.00746000 -0.43100000 0.06129000
v 0.00746000 0.43005000 0.06129000
v 0.02673000 0.43005000 0.05916000
v 0.02673000 -0.43100000 0.05916000
v 0.03176000 0.43005000 0.05861000
v 0.03176000 -0.43100000 0.05861000
v 0.00746000 -0.48500000 0.06129000
v 0.03176000 -0.48500000 0.05861000
v 0.02673000 -0.48500000 0.05916000
v 0.03113000 -0.48500000 0.06378000
v 0.02826000 -0.48500000 0.06943000
v 0.02335000 -0.48500000 0.07420000
v 0.01687000 -0.48500000 0.07763000
v 0.00946000 -0.48500000 0.07938000
v 0.00185000 -0.48500000 0.07929000
v -0.00522000 -0.48500000 0.07735000
v -0.01106000 -0.48500000 0.07377000
v -0.01509000 -0.48500000 0.06889000
v -0.01684000 -0.48500000 0.06397000
v -0.01180000 -0.48500000 0.06342000
v 0.03176000 -0.48500000 0.05861000
v 0.03176000 -0.43100000 0.05861000
v 0.02673000 -0.43100000 0.05916000
v 0.02673000 -0.48500000 0.05916000
v -0.01684000 -0.43100000 0.06397000
v -0.01684000 -0.48500000 0.06397000
v -0.01180000 -0.48500000 0.06342000
v -0.01180000 -0.43100000 0.06342000
v 0.01453000 -0.48500000 -0.00160000
v 0.00000000 -0.48500000 0.00000000
v -0.01452000 -0.48500000 0.00161000
v 0.02673000 -0.48500000 0.05916000
v 0.02673000 -0.43100000 0.05916000
v 0.01453000 -0.43100000 -0.00160000
v 0.01453000 -0.48500000 -0.00160000
v 0.02673000 -0.43100000 0.05916000
v 0.00000000 -0.43100000 0.00000000
v 0.01453000 -0.43100000 -0.00160000
v 0.00746000 -0.43100000 0.06129000
v -0.01452000 -0.43100000 0.00161000
v -0.01180000 -0.43100000 0.06342000
v -0.01180000 -0.43100000 0.06342000
v -0.01180000 -0.48500000 0.06342000
v -0.01452000 -0.48500000 0.00161000
v -0.01452000 -0.43100000 0.00161000
vn -0.39310910 0.00000000 0.91949190
vn -0.39310850 0.00000000 0.91949210
vn -0.13693400 0.00000000 0.99058010
vn -0.13693380 0.00000000 0.99058010
vn 0.10969400 0.00000000 0.99396540
vn -0.39310910 0.00000000 0.91949190
vn 0.10969500 0.00000000 0.99396530
vn 0.34964760 0.00000000 0.93688120
vn 0.34964810 0.00000000 0.93688110
vn -0.13693390 0.00000000 0.99058010
vn 0.10969490 0.00000000 0.99396530
vn 0.10969350 0.00000000 0.99396540
vn -0.13693400 0.00000000 0.99058010
vn -0.39310820 0.00000000 0.91949220
vn 0.58413960 0.00000000 0.81165320
vn 0.58413950 0.00000000 0.81165320
vn 0.34964800 0.00000000 0.93688110
vn 0.58413950 0.00000000 0.81165320
vn 0.58414020 0.00000000 0.81165270
vn 0.34964670 0.00000000 0.93688170
vn 0.58413950 0.00000000 0.81165320
vn 0.58413960 0.00000000 0.81165320
vn 0.80091800 0.00000000 0.59877410
vn 0.80091790 0.00000000 0.59877420
vn 0.95138440 0.00000000 0.30800630
vn 0.58413950 0.00000000 0.81165320
vn 0.95138440 0.00000000 0.30800630
vn 0.99259600 0.00000000 0.12146340
vn 0.99259590 0.00000000 0.12146350
vn 0.80091790 0.00000000 0.59877420
vn 0.95138440 0.00000000 0.30800630
vn 0.99259590 0.00000000 0.12146350
vn 0.99259590 0.00000000 0.12146370
vn 0.95138420 0.00000000 0.30800640
vn 0.80091810 0.00000000 0.59877400
vn 0.58414020 0.00000000 0.81165270
vn -0.94232980 0.00000000 0.33468600
vn -0.94232990 0.00000000 0.33468540
vn -0.86132540 0.00000000 0.50805360
vn -0.86132540 0.00000000 0.50805380
vn -0.65111850 0.00000000 0.75897620
vn -0.94232960 0.00000000 0.33468600
vn -0.65111870 0.00000000 0.75897600
vn -0.39310850 0.00000000 0.91949210
vn -0.39310910 0.00000000 0.91949190
vn -0.86132540 0.00000000 0.50805380
vn -0.65111860 0.00000000 0.75897600
vn -0.39310910 0.00000000 0.91949190
vn -0.39310820 0.00000000 0.91949220
vn -0.65111780 0.00000000 0.75897670
vn -0.86132530 0.00000000 0.50805380
vn -0.94232940 0.00000000 0.33468690
vn 0.00000000 1.00000000 -0.00000048
vn 0.00000000 1.00000000 -0.00000065
vn 0.00000000 1.00000000 0.00000000
vn 0.00000000 1.00000000 -0.00001003
vn 0.00000000 1.00000000 -0.00001292
vn 0.00000000 1.00000000 0.00000450
vn 0.00000000 1.00000000 0.00000739
vn 0.00000000 1.00000000 0.00000416
vn 0.00000000 1.00000000 0.00000246
vn 0.00000000 1.00000000 0.00000000
vn 0.00000000 1.00000000 0.00000000
vn 0.00000000 1.00000000 0.00000000
vn 0.00000000 1.00000000 0.00000000
vn 0.00000000 1.00000000 -0.00000032
vn -0.10969180 0.00000000 -0.99396570
vn -0.10969180 0.00000000 -0.99396570
vn -0.10969180 0.00000000 -0.99396570
vn -0.10969180 0.00000000 -0.99396570
vn -0.10968630 0.00000000 -0.99396630
vn -0.10968630 0.00000000 -0.99396630
vn -0.10968630 0.00000000 -0.99396630
vn -0.10968630 0.00000000 -0.99396630
vn 0.00000000 1.00000000 -0.00000073
vn 0.00000000 1.00000000 -0.00000054
vn 0.00000000 1.00000000 -0.00000036
vn 0.98043220 0.00000000 -0.19685720
vn 0.98043220 0.00000000 -0.19685720
vn 0.98043220 0.00000000 -0.19685720
vn 0.98043220 0.00000000 -0.19685720
vn 0.00000000 -1.00000000 0.00000145
vn 0.00000000 -1.00000000 0.00000145
vn 0.00000000 -1.00000000 0.00000072
vn 0.00000000 -1.00000000 0.00000073
vn 0.00000000 -1.00000000 0.00000000
vn 0.00000000 -1.00000000 0.00000000
vn -0.99903490 0.00000000 0.04392501
vn -0.99903490 0.00000000 0.04392501
vn -0.99903490 0.00000000 0.04392501
vn -0.99903490 0.00000000 0.04392501
vn -0.10969210 0.00000000 -0.99396570
vn -0.10969210 0.00000000 -0.99396570
vn -0.10969050 0.00000000 -0.99396580
vn -0.10969050 0.00000000 -0.99396580
vn -0.10969020 0.00000000 -0.99396590
vn -0.10969020 0.00000000 -0.99396590
vn -0.10969080 0.00000000 -0.99396580
vn -0.10969080 0.00000000 -0.99396580
vn -0.10969210 0.00000000 -0.99396570
vn -0.10969210 0.00000000 -0.99396570
vn 0.00000000 -1.00000000 0.00000000
vn 0.00000000 -1.00000000 0.00000000
vn 0.00000000 -1.00000000 0.00000000
vn 0.00000000 -1.00000000 0.00000000
vn 0.00000000 -1.00000000 0.00000028
vn 0.00000000 -1.00000000 -0.00000016
vn 0.00000000 -1.00000000 -0.00000077
vn 0.00000000 -1.00000000 0.00000000
vn 0.00000000 -1.00000000 0.00000000
vn 0.00000000 -1.00000000 -0.00000081
vn 0.00000000 -1.00000000 -0.00000055
vn 0.00000000 -1.00000000 0.00000165
vn 0.00000000 -1.00000000 0.00000307
vn 0.00000000 -1.00000000 0.00000018
vn -0.10969040 0.00000000 -0.99396580
vn -0.10969040 0.00000000 -0.99396580
vn -0.10969040 0.00000000 -0.99396580
vn -0.10969040 0.00000000 -0.99396580
vn -0.10969040 0.00000000 -0.99396580
vn -0.10969040 0.00000000 -0.99396580
vn -0.10969040 0.00000000 -0.99396580
vn -0.10969040 0.00000000 -0.99396580
vn 0.00000000 -1.00000000 0.00000000
vn 0.00000000 -1.00000000 0.00000000
vn 0.00000000 -1.00000000 -0.00000018
vn 0.98043230 0.00000000 -0.19685690
vn 0.98043230 0.00000000 -0.19685690
vn 0.98043230 0.00000000 -0.19685690
vn 0.98043230 0.00000000 -0.19685690
vn 0.00000000 1.00000000 0.00000000
vn 0.00000000 1.00000000 0.00000000
vn 0.00000000 1.00000000 0.00000000
vn 0.00000000 1.00000000 0.00000000
vn 0.00000000 1.00000000 0.00000000
vn 0.00000000 1.00000000 0.00000000
vn -0.99903490 0.00000000 0.04392504
vn -0.99903490 0.00000000 0.04392504
vn -0.99903490 0.00000000 0.04392504
vn -0.99903490 0.00000000 0.04392504
vt -143.09940000 1.33495700
vt -143.09940000 1.47404100
vt -143.08150000 1.47404100
vt -143.08150000 1.33495700
vt -143.06230000 1.47404100
vt -143.09940000 -0.84400500
vt -143.06230000 1.33495700
vt -143.04350000 1.47404100
vt -143.04350000 1.33495700
vt -143.08150000 -0.84400500
vt -143.06230000 -0.84400500
vt -143.06230000 -0.98065810
vt -143.08150000 -0.98065810
vt -143.09940000 -0.98065810
vt -143.02710000 1.47404100
vt -143.02710000 1.33495700
vt -143.04350000 -0.84400500
vt -143.02710000 -0.84400500
vt -143.02710000 -0.98065810
vt -143.04350000 -0.98065810
vt -143.06600000 1.40249500
vt -143.06600000 1.55021100
vt -143.05320000 1.55021100
vt -143.05320000 1.40249500
vt -143.03810000 1.55021100
vt -143.06600000 -0.91169380
vt -143.03810000 1.40249500
vt -143.02410000 1.55021100
vt -143.02410000 1.40249500
vt -143.05320000 -0.91169380
vt -143.03810000 -0.91169380
vt -143.02410000 -0.91169380
vt -143.02410000 -1.05682800
vt -143.03810000 -1.05682800
vt -143.05320000 -1.05682800
vt -143.06600000 -1.05682800
vt -143.10010000 1.49427400
vt -143.10010000 1.65372000
vt -143.08590000 1.65372000
vt -143.08590000 1.49427400
vt -143.07170000 1.65372000
vt -143.10010000 -1.00367800
vt -143.07170000 1.49427400
vt -143.06130000 1.65372000
vt -143.06130000 1.49427400
vt -143.08590000 -1.00367800
vt -143.07170000 -1.00367800
vt -143.06130000 -1.00367800
vt -143.06130000 -1.16033700
vt -143.07170000 -1.16033700
vt -143.08590000 -1.16033700
vt -143.10010000 -1.16033700
vt -143.88260000 0.56160260
vt -143.83490000 0.56686370
vt -143.82250000 0.56823770
vt -143.82410000 0.55542800
vt -143.83110000 0.54146300
vt -143.84330000 0.52966140
vt -143.85930000 0.52117580
vt -143.87770000 0.51683970
vt -143.89650000 0.51707530
vt -143.91400000 0.52186100
vt -143.92840000 0.53072760
vt -143.93840000 0.54280710
vt -143.94270000 0.55496780
vt -143.93030000 0.55634200
vt -143.89320000 0.45595060
vt -143.90570000 0.45595060
vt -143.90570000 0.59234470
vt -143.89320000 0.59234470
vt -143.91440000 0.59234470
vt -143.90190000 0.59234470
vt -143.90190000 0.45595050
vt -143.91440000 0.45595050
vt -143.85470000 0.63855290
vt -143.89070000 0.63458650
vt -143.92660000 0.63062040
vt -143.95940000 0.59339980
vt -143.88630000 0.59339980
vt -143.88630000 0.45489550
vt -143.95940000 0.45489550
vt -143.79350000 0.52733690
vt -143.86520000 0.54712190
vt -143.86130000 0.58306380
vt -143.78830000 0.57500860
vt -143.85730000 0.61900190
vt -143.78300000 0.62267690
vt -143.90670000 0.45611330
vt -143.98100000 0.45611330
vt -143.98100000 0.59218190
vt -143.90670000 0.59218190
vt -143.13140000 -0.35568470
vt -143.13140000 1.78118000
vt -143.11890000 1.78118000
vt -143.11890000 -0.35568470
vt -143.07110000 1.78118000
vt -143.07110000 -0.35568470
vt -143.02330000 -0.35568470
vt -143.02330000 1.78118000
vt -143.01080000 -0.35568470
vt -143.01080000 1.78118000
vt -143.85140000 0.59379010
vt -143.79130000 0.58715500
vt -143.80380000 0.58852930
vt -143.79290000 0.59996470
vt -143.80000000 0.61393010
vt -143.81210000 0.62573200
vt -143.82820000 0.63421710
vt -143.84650000 0.63855340
vt -143.86530000 0.63831790
vt -143.88280000 0.63353190
vt -143.89720000 0.62466550
vt -143.90720000 0.61258570
vt -143.91150000 0.60042520
vt -143.89910000 0.59905100
vt -143.94990000 0.62264060
vt -143.94990000 0.48863000
vt -143.96240000 0.48863000
vt -143.96240000 0.62264060
vt -143.95250000 0.48863010
vt -143.95250000 0.62264060
vt -143.94000000 0.62264060
vt -143.94000000 0.48863010
vt -143.82350000 0.51683980
vt -143.85950000 0.52080600
vt -143.89540000 0.52477230
vt -143.96690000 0.48759410
vt -143.96690000 0.62367680
vt -143.89390000 0.62367680
vt -143.89390000 0.48759410
vt -143.83130000 0.52733690
vt -143.76360000 0.58306420
vt -143.75960000 0.54712220
vt -143.83660000 0.57500900
vt -143.76760000 0.61900240
vt -143.84180000 0.62267740
vt -143.87160000 0.62248030
vt -143.87160000 0.48879050
vt -143.94590000 0.48879050
vt -143.94590000 0.62248030
f 3/3/3 2/2/2 1/1/1
f 4/4/4 3/3/3 1/1/1
f 5/5/5 3/3/3 4/4/4
f 1/1/1 6/6/6 4/4/4
f 7/7/7 5/5/5 4/4/4
f 8/8/8 5/5/5 7/7/7
f 9/9/9 8/8/8 7/7/7
f 4/4/4 10/10/10 7/7/7
f 6/6/6 10/10/10 4/4/4
f 10/10/10 11/11/11 7/7/7
f 12/12/12 11/11/11 10/10/10
f 13/13/13 12/12/12 10/10/10
f 13/13/13 10/10/10 6/6/6
f 14/14/14 13/13/13 6/6/6
f 15/15/15 8/8/8 9/9/9
f 16/16/16 15/15/15 9/9/9
f 9/9/9 17/17/17 16/16/16
f 17/17/17 18/18/18 16/16/16
f 19/19/19 18/18/18 17/17/17
f 20/20/20 19/19/19 17/17/17
f 11/11/11 17/17/17 9/9/9
f 20/20/20 17/17/17 11/11/11
f 7/7/7 11/11/11 9/9/9
f 12/12/12 20/20/20 11/11/11
f 23/23/23 22/22/22 21/21/21
f 24/24/24 23/23/23 21/21/21
f 25/25/25 23/23/23 24/24/24
f 21/21/21 26/26/26 24/24/24
f 27/27/27 25/25/25 24/24/24
f 28/28/28 25/25/25 27/27/27
f 29/29/29 28/28/28 27/27/27
f 26/26/26 30/30/30 24/24/24
f 24/24/24 30/30/30 27/27/27
f 27/27/27 31/31/31 29/29/29
f 30/30/30 31/31/31 27/27/27
f 31/31/31 32/32/32 29/29/29
f 33/33/33 32/32/32 31/31/31
f 34/34/34 33/33/33 31/31/31
f 34/34/34 31/31/31 30/30/30
f 35/35/35 34/34/34 30/30/30
f 35/35/35 30/30/30 26/26/26
f 36/36/36 35/35/35 26/26/26
f 39/39/39 38/38/38 37/37/37
f 40/40/40 39/39/39 37/37/37
f 41/41/41 39/39/39 40/40/40
f 37/37/37 42/42/42 40/40/40
f 43/43/43 41/41/41 40/40/40
f 44/44/44 41/41/41 43/43/43
f 45/45/45 44/44/44 43/43/43
f 42/42/42 46/46/46 40/40/40
f 40/40/40 46/46/46 43/43/43
f 43/43/43 47/47/47 45/45/45
f 46/46/46 47/47/47 43/43/43
f 47/47/47 48/48/48 45/45/45
f 49/49/49 48/48/48 47/47/47
f 50/50/50 49/49/49 47/47/47
f 50/50/50 47/47/47 46/46/46
f 51/51/51 50/50/50 46/46/46
f 51/51/51 46/46/46 42/42/42
f 52/52/52 51/51/51 42/42/42
f 55/55/55 54/54/54 53/53/53
f 56/56/56 55/55/55 53/53/53
f 56/56/56 53/53/53 57/57/57
f 57/57/57 53/53/53 58/58/58
f 58/58/58 53/53/53 59/59/59
f 59/59/59 53/53/53 60/60/60
f 60/60/60 53/53/53 61/61/61
f 61/61/61 53/53/53 62/62/62
f 62/62/62 53/53/53 63/63/63
f 63/63/63 53/53/53 64/64/64
f 65/65/65 64/64/64 53/53/53
f 66/66/66 65/65/65 53/53/53
f 69/69/69 68/68/68 67/67/67
f 70/70/70 69/69/69 67/67/67
f 73/73/73 72/72/72 71/71/71
f 74/74/74 73/73/73 71/71/71
f 54/54/54 75/75/75 53/53/53
f 75/75/75 76/76/76 53/53/53
f 53/53/53 76/76/76 66/66/66
f 76/76/76 77/77/77 66/66/66
f 80/80/80 79/79/79 78/78/78
f 81/81/81 80/80/80 78/78/78
f 84/84/84 83/83/83 82/82/82
f 85/85/85 84/84/84 82/82/82
f 86/86/86 84/84/84 85/85/85
f 87/87/87 86/86/86 85/85/85
f 90/90/90 89/89/89 88/88/88
f 91/91/91 90/90/90 88/88/88
f 94/94/94 93/93/93 92/92/92
f 95/95/95 94/94/94 92/92/92
f 96/96/96 94/94/94 95/95/95
f 97/97/97 96/96/96 95/95/95
f 96/96/96 97/97/97 98/98/98
f 99/99/99 96/96/96 98/98/98
f 99/99/99 98/98/98 100/100/100
f 101/101/101 99/99/99 100/100/100
f 104/104/104 103/103/103 102/102/102
f 103/103/103 105/105/105 102/102/102
f 102/102/102 105/105/105 106/106/106
f 102/102/102 106/106/106 107/107/107
f 102/102/102 107/107/107 108/108/108
f 102/102/102 108/108/108 109/109/109
f 102/102/102 109/109/109 110/110/110
f 102/102/102 110/110/110 111/111/111
f 102/102/102 111/111/111 112/112/112
f 102/102/102 112/112/112 113/113/113
f 113/113/113 114/114/114 102/102/102
f 114/114/114 115/115/115 102/102/102
f 118/118/118 117/117/117 116/116/116
f 119/119/119 118/118/118 116/116/116
f 122/122/122 121/121/121 120/120/120
f 123/123/123 122/122/122 120/120/120
f 124/124/124 104/104/104 102/102/102
f 125/125/125 124/124/124 102/102/102
f 125/125/125 102/102/102 115/115/115
f 126/126/126 125/125/125 115/115/115
f 129/129/129 128/128/128 127/127/127
f 130/130/130 129/129/129 127/127/127
f 133/133/133 132/132/132 131/131/131
f 132/132/132 134/134/134 131/131/131
f 132/132/132 135/135/135 134/134/134
f 135/135/135 136/136/136 134/134/134
f 139/139/139 138/138/138 137/137/137
f 140/140/140 139/139/139 137/137/137

