# Blender 4.0.0
# www.blender.org
o decimated_mesh
v -0.028838 0.009873 0.032489
v -0.028838 0.009863 0.041222
v -0.012474 0.009863 0.041622
v -0.029652 0.102227 0.033088
v -0.029654 0.102935 0.040454
v -0.012481 0.009863 0.049062
v -0.012483 0.102211 0.042775
v -0.029644 0.103013 0.033425
v -0.012512 0.103099 0.043168
v -0.025049 0.102959 0.043951
v -0.012482 0.103436 0.044580
v -0.029654 0.103411 0.034868
v -0.029648 0.103341 0.039251
v -0.025011 0.009863 0.044025
v -0.012486 0.103408 0.047617
v -0.012490 0.102937 0.049029
v -0.024237 0.103390 0.043107
vn -1.0000 -0.0001 -0.0012
vn -0.2396 0.9203 0.3093
vn 0.4574 0.3722 -0.8076
vn -0.0046 1.0000 0.0055
vn 0.1301 0.9639 -0.2324
vn -0.1251 0.9413 0.3135
vn -0.6048 0.0013 0.7964
vn -1.0000 -0.0009 -0.0001
vn -1.0000 -0.0001 -0.0010
vn -1.0000 0.0034 -0.0016
vn 0.9983 0.0477 -0.0329
vn -1.0000 0.0028 -0.0014
vn -0.4873 -0.0109 0.8731
vn -0.4914 -0.0100 0.8709
vn -0.2076 0.9375 0.2794
vn -0.0000 1.0000 0.0001
vn -0.0008 1.0000 0.0010
vn 0.0001 1.0000 0.0007
vn 0.4614 0.3455 -0.8172
vn -0.0204 0.9997 0.0159
vn -0.0050 0.9999 0.0092
vn -0.3748 0.0006 0.9271
vn -0.3731 0.0003 0.9278
vn 0.1443 0.9542 -0.2622
vn -0.1341 0.9287 0.3457
vn -0.5907 0.0004 0.8069
vn -1.0000 -0.0088 -0.0000
vn -0.9998 0.0178 0.0015
vn -0.9998 0.0157 -0.0112
vn -1.0000 -0.0088 0.0006
vn -0.4914 -0.0109 0.8709
vn -0.4873 -0.0100 0.8732
vn 0.0002 1.0000 -0.0002
vn -0.0004 1.0000 0.0010
vn -0.1371 0.9292 0.3431
vn -1.0000 -0.0001 0.0005
vn 0.0005 1.0000 0.0001
vn -1.0000 -0.0000 -0.0015
vn -1.0000 -0.0001 -0.0027
vn -0.1218 0.9417 0.3137
s 0
f 16//1 7//1 6//1
f 5//2 10//2 13//2
f 7//3 8//3 9//3
f 11//4 12//4 17//4
f 9//5 12//5 11//5
f 10//6 16//6 15//6
f 10//7 5//7 2//7
f 5//8 12//8 4//8
f 3//9 6//9 7//9
f 16//10 15//10 7//10
f 9//11 11//11 7//11
f 11//12 7//12 15//12
f 7//13 1//13 3//13
f 1//14 7//14 4//14
f 17//15 13//15 10//15
f 6//16 3//16 14//16
f 14//17 1//17 2//17
f 3//18 1//18 14//18
f 7//19 4//19 8//19
f 12//20 13//20 17//20
f 17//21 15//21 11//21
f 10//22 14//22 16//22
f 14//23 6//23 16//23
f 9//24 8//24 12//24
f 15//25 17//25 10//25
f 2//26 14//26 10//26
f 1//27 2//27 5//27
f 13//28 12//28 5//28
f 12//29 8//29 4//29
f 4//30 1//30 5//30
f 4//30 2//30 5//30
f 7//31 4//31 3//31
f 3//32 4//32 1//32
f 1//27 2//27 4//27
f 6//33 2//33 14//33
f 1//34 2//34 6//34
f 16//35 17//35 10//35
f 11//36 7//36 3//36
f 6//37 3//37 1//37
f 11//38 3//38 15//38
f 15//9 3//9 6//9
f 15//39 6//39 16//39
f 15//40 17//40 16//40
