# Blender 4.0.0
# www.blender.org
o decimated_mesh
v 0.034870 0.005893 0.057121
v 0.034870 0.006859 0.057151
v 0.034870 0.000915 0.076662
v 0.000037 0.005828 0.059106
v 0.000037 0.006982 0.059219
v 0.034862 0.000958 0.080832
v 0.000037 0.000915 0.078226
v 0.000037 0.000915 0.081027
v 0.000037 0.002996 0.081343
v 0.034850 0.006275 0.080645
v 0.031201 0.003026 0.081332
v 0.034863 0.006987 0.078669
v 0.000037 0.006948 0.079182
v 0.000037 0.006382 0.080802
vn 1.0000 0.0005 0.0019
vn -0.0005 0.9999 -0.0102
vn 0.0057 -0.2256 0.9742
vn 0.0038 0.9441 0.3296
vn -0.0011 1.0000 0.0017
vn 0.1548 0.0351 0.9873
vn 0.0122 0.9690 0.2469
vn 0.0050 0.2016 0.9795
vn -0.0586 0.0970 -0.9936
vn 1.0000 0.0026 0.0079
vn 1.0000 0.0004 0.0001
vn 1.0000 0.0010 0.0003
vn -0.0012 1.0000 -0.0000
vn 0.0005 -0.1499 0.9887
vn 0.0044 0.9408 0.3388
vn 0.0032 1.0000 -0.0060
vn 0.0112 0.9685 0.2488
vn 1.0000 -0.0000 -0.0000
vn 1.0000 0.0002 -0.0000
vn 0.0002 0.1577 0.9875
vn -0.0569 0.0312 -0.9979
vn 1.0000 0.0004 0.0003
vn 0.0111 0.9690 0.2469
vn 0.0124 0.9685 0.2488
vn -0.0013 0.9999 -0.0102
vn -0.0000 1.0000 -0.0000
vn 1.0000 0.0002 0.0001
vn 1.0000 -0.0001 -0.0000
s 0
f 3//1 12//1 6//1
f 6//2 3//2 7//2
f 11//3 8//3 6//3
f 12//4 13//4 14//4
f 12//5 5//5 13//5
f 10//6 11//6 6//6
f 3//7 1//7 4//7
f 14//8 11//8 10//8
f 2//9 4//9 5//9
f 10//10 6//10 12//10
f 3//11 1//11 2//11
f 2//12 12//12 3//12
f 6//13 7//13 8//13
f 11//14 9//14 8//14
f 14//15 10//15 12//15
f 12//16 2//16 5//16
f 3//17 4//17 7//17
f 7//18 9//18 8//18
f 9//18 13//18 14//18
f 7//18 13//18 9//18
f 13//19 4//19 5//19
f 7//18 4//18 13//18
f 14//20 9//20 11//20
f 2//21 1//21 4//21
f 2//22 12//22 1//22
f 12//12 3//12 1//12
f 3//23 1//23 7//23
f 7//24 1//24 4//24
f 6//25 3//25 8//25
f 8//26 3//26 7//26
f 8//18 7//18 5//18
f 5//27 7//27 4//27
f 8//18 5//18 9//18
f 9//18 5//18 14//18
f 14//28 5//28 13//28
