# Blender 4.0.0
# www.blender.org
o decimated_mesh
v -0.033622 0.006381 0.057059
v 0.000037 0.005859 0.059104
v -0.033621 0.000847 0.076512
v 0.000037 0.006901 0.059142
v 0.000037 0.000847 0.078011
v -0.033616 0.000847 0.080828
v -0.033621 0.007149 0.060306
v 0.000037 0.000895 0.081100
v -0.033610 0.002793 0.081191
v 0.000037 0.004980 0.081234
v 0.000037 0.006762 0.080406
v -0.033611 0.006633 0.080564
vn -1.0000 0.0002 0.0022
vn 0.0008 -0.0329 0.9995
vn 1.0000 -0.0000 -0.0000
vn -0.0077 -0.1831 0.9831
vn -0.0037 0.9997 0.0255
vn -0.0008 0.9732 -0.2301
vn -0.0000 -1.0000 -0.0001
vn 0.0114 -0.9666 -0.2562
vn 0.0612 0.0355 -0.9975
vn -1.0000 0.0014 0.0005
vn -1.0000 0.0006 0.0002
vn -1.0000 0.0029 0.0011
vn 1.0000 -0.0007 -0.0000
vn 1.0000 0.0001 -0.0001
vn 0.0027 0.4217 0.9067
vn 0.0076 0.9999 0.0066
vn 0.0013 -0.9999 0.0154
vn 0.0017 -0.9618 -0.2736
vn -0.0117 0.1610 0.9869
vn -1.0000 -0.0005 0.0005
vn -1.0000 0.0010 0.0011
vn -1.0000 0.0014 0.0093
vn 1.0000 0.0001 -0.0000
vn 1.0000 -0.0004 -0.0001
vn 1.0000 -0.0007 -0.0002
s 0
f 12//1 3//1 9//1
f 10//2 9//2 8//2
f 11//3 10//3 5//3
f 6//4 8//4 9//4
f 11//5 7//5 12//5
f 1//6 7//6 4//6
f 5//7 6//7 3//7
f 2//8 5//8 3//8
f 4//9 2//9 1//9
f 12//10 7//10 3//10
f 1//11 3//11 7//11
f 3//12 6//12 9//12
f 4//13 11//13 2//13
f 10//14 8//14 5//14
f 5//3 2//3 11//3
f 12//15 10//15 11//15
f 11//16 4//16 7//16
f 8//17 6//17 5//17
f 3//18 1//18 2//18
f 9//19 10//19 12//19
f 3//10 12//10 1//10
f 12//20 7//20 1//20
f 6//21 12//21 3//21
f 6//22 9//22 12//22
f 10//23 8//23 4//23
f 8//24 5//24 4//24
f 5//25 2//25 4//25
f 11//3 10//3 4//3
