# Blender 4.0.0
# www.blender.org
o decimated_mesh
v 0.034870 -0.000661 0.077991
v 0.037009 -0.000441 0.077948
v 0.034866 0.000072 0.080332
v 0.034869 0.003011 0.080920
v 0.038655 -0.000129 0.077327
v 0.037103 -0.000198 0.078997
v 0.034872 0.006450 0.080491
v 0.034878 0.007068 0.078047
v 0.035820 0.000916 0.080473
v 0.036889 0.003077 0.080442
v 0.035786 0.006296 0.080411
v 0.038533 -0.000130 -0.076754
v 0.034864 -0.000648 -0.078030
v 0.039003 0.000408 0.077300
v 0.039221 0.000697 -0.075860
v 0.038283 0.000159 0.078403
v 0.038734 0.001303 0.079004
v 0.037142 -0.000201 -0.078884
v 0.034857 -0.000133 -0.079822
v 0.039709 0.002597 0.076365
v 0.039623 0.002561 -0.076477
v 0.039442 0.002752 0.077876
v 0.038614 0.006365 0.078862
v 0.037774 0.006879 0.077215
v 0.038662 0.001358 -0.078803
v 0.039273 0.003030 -0.077770
v 0.038795 0.004610 0.079022
v 0.039152 0.005537 0.077991
v 0.038929 0.006565 0.076377
v 0.034859 0.001254 -0.080690
v 0.035697 0.001308 -0.080541
v 0.036437 0.003088 -0.080415
v 0.039501 0.005537 0.076377
v 0.038603 0.005786 -0.078723
v 0.039565 0.005463 -0.075898
v 0.038814 0.006530 -0.077253
v 0.034864 0.007056 -0.078370
v 0.034858 0.003928 -0.080786
v 0.035588 0.006314 -0.080364
v 0.037292 0.006523 -0.079140
v 0.037791 0.006889 -0.076372
v 0.034861 0.006428 -0.080476
vn 0.9835 0.0692 0.1672
vn 0.9436 0.1230 -0.3073
vn 0.4874 0.4400 -0.7542
vn 0.3772 -0.5514 0.7441
vn 0.0284 -0.1961 0.9802
vn 0.2323 -0.1009 0.9674
vn 0.1695 0.9755 -0.1405
vn 0.4352 -0.8205 0.3707
vn 0.2538 -0.9470 0.1969
vn 0.9998 0.0203 -0.0006
vn 0.4441 -0.4859 0.7528
vn 0.7785 -0.4843 0.3992
vn 0.9550 -0.2258 0.1924
vn 0.5027 -0.5492 0.6676
vn 0.2268 0.0870 0.9701
vn 0.9310 -0.2413 0.2738
vn 1.0000 -0.0001 -0.0025
vn 0.1852 0.9068 0.3786
vn 0.8618 -0.4348 -0.2611
vn 0.5977 0.0226 -0.8014
vn 0.6631 -0.6251 -0.4118
vn 0.9297 -0.2799 -0.2393
vn 0.4655 -0.4132 -0.7827
vn 0.8183 0.5747 -0.0007
vn 0.1826 -0.5218 -0.8333
vn 0.1277 0.9615 0.2435
vn 0.2183 -0.0216 -0.9756
vn 0.0844 -0.9576 -0.2755
vn 0.8456 0.0211 -0.5334
vn 0.2618 0.9651 -0.0004
vn 0.8644 0.4806 0.1481
vn 0.9179 0.0794 0.3888
vn 0.8394 -0.5435 0.0002
vn 0.1042 -0.9708 0.2159
vn 0.1616 0.0581 -0.9852
vn 0.5424 0.7155 -0.4402
vn 0.5018 -0.1481 -0.8522
vn 0.9388 -0.1513 -0.3095
vn 0.1805 0.9663 -0.1837
vn -0.1392 0.9903 0.0001
vn 0.9732 0.0926 0.2103
vn 0.9774 -0.2113 -0.0005
vn 0.9518 -0.3066 0.0008
vn 0.9688 0.0670 -0.2385
vn 0.3002 -0.5599 -0.7723
vn 0.3392 0.9333 0.1182
vn 0.4923 0.1431 -0.8586
vn 0.1188 0.9515 -0.2838
vn 0.9975 0.0709 0.0004
vn 0.7694 -0.5074 0.3880
vn 0.9154 0.2904 -0.2786
vn 0.6051 -0.0155 0.7960
vn 0.1067 0.1231 0.9866
vn 1.0000 -0.0006 0.0021
vn 1.0000 -0.0010 -0.0001
vn 1.0000 -0.0010 -0.0014
vn 1.0000 0.0005 -0.0016
vn 1.0000 -0.0047 -0.0053
vn 1.0000 -0.0000 -0.0000
vn 1.0000 -0.0016 0.0025
vn 1.0000 -0.0010 0.0016
vn 0.4702 0.1694 0.8662
vn 0.0650 0.9979 0.0001
vn 0.0569 0.9984 -0.0001
vn 0.5222 0.1308 0.8427
vn 0.2055 0.8761 -0.4362
vn 0.8740 0.4859 0.0001
vn 0.1300 0.9634 0.2343
vn 0.1781 -0.0352 -0.9834
vn 0.3310 0.9436 0.0001
vn 0.8945 0.1313 0.4273
vn 0.8578 -0.0186 0.5137
vn 0.4622 -0.2161 0.8600
vn 0.7691 -0.6391 -0.0006
vn 0.0631 -0.9523 0.2986
vn 0.2865 0.1177 -0.9508
vn 0.9037 0.3811 0.1953
vn -0.0949 0.9676 0.2341
vn -0.1399 0.9902 0.0001
vn 0.1648 -0.9835 -0.0745
vn 1.0000 0.0064 -0.0001
vn 0.9999 0.0135 -0.0000
vn 0.1024 -0.9947 -0.0001
vn 0.1401 -0.9901 -0.0006
vn 0.1861 -0.9825 -0.0001
vn 1.0000 -0.0010 -0.0008
vn 1.0000 -0.0001 -0.0001
vn 1.0000 0.0007 0.0032
vn 0.7846 -0.4892 0.3808
vn 0.7611 -0.5105 0.4002
vn 1.0000 -0.0093 -0.0001
vn 1.0000 -0.0053 -0.0001
vn 1.0000 -0.0012 -0.0001
vn 0.1704 0.1212 -0.9779
vn 0.2718 0.0867 -0.9584
vn 0.1635 0.9738 -0.1582
vn 0.2621 0.9650 0.0001
vn 0.1981 0.9665 -0.1635
vn 0.3306 0.9438 -0.0005
s 0
f 33//1 22//1 20//1
f 35//2 26//2 34//2
f 40//3 34//3 39//3
f 3//4 6//4 9//4
f 3//5 9//5 4//5
f 4//6 9//6 10//6
f 37//7 36//7 40//7
f 5//8 16//8 6//8
f 5//9 6//9 2//9
f 20//10 21//10 35//10
f 6//11 17//11 9//11
f 14//12 16//12 5//12
f 22//13 14//13 20//13
f 16//14 17//14 6//14
f 11//15 4//15 10//15
f 14//16 22//16 17//16
f 38//17 37//17 13//17
f 11//18 23//18 7//18
f 12//19 25//19 15//19
f 25//20 32//20 34//20
f 18//21 25//21 12//21
f 15//22 25//22 21//22
f 31//23 25//23 18//23
f 29//24 35//24 36//24
f 19//25 30//25 31//25
f 7//26 23//26 8//26
f 38//27 32//27 31//27
f 19//28 18//28 13//28
f 26//29 25//29 34//29
f 36//30 24//30 29//30
f 23//31 33//31 29//31
f 27//32 22//32 28//32
f 5//33 15//33 14//33
f 6//34 1//34 2//34
f 32//35 42//35 39//35
f 34//36 40//36 36//36
f 32//37 25//37 31//37
f 25//38 26//38 21//38
f 41//39 36//39 37//39
f 12//40 1//40 5//40
f 33//41 28//41 22//41
f 21//42 20//42 15//42
f 20//43 14//43 15//43
f 35//44 21//44 26//44
f 31//45 18//45 19//45
f 23//46 29//46 24//46
f 32//47 39//47 34//47
f 40//48 42//48 37//48
f 35//49 33//49 20//49
f 14//50 17//50 16//50
f 36//51 35//51 34//51
f 27//52 10//52 17//52
f 11//53 7//53 4//53
f 7//54 4//54 8//54
f 8//55 1//55 37//55
f 42//56 37//56 38//56
f 38//57 13//57 30//57
f 13//58 19//58 30//58
f 13//59 37//59 1//59
f 1//60 4//60 3//60
f 1//61 8//61 4//61
f 23//62 11//62 10//62
f 24//63 41//63 8//63
f 8//64 41//64 37//64
f 23//65 10//65 27//65
f 42//66 40//66 39//66
f 33//67 35//67 29//67
f 24//68 8//68 23//68
f 30//69 38//69 31//69
f 36//70 41//70 24//70
f 23//71 27//71 28//71
f 22//72 27//72 17//72
f 9//73 17//73 10//73
f 5//74 12//74 15//74
f 6//75 3//75 1//75
f 32//76 38//76 42//76
f 28//77 33//77 23//77
f 2//78 5//78 1//78
f 1//79 12//79 13//79
f 13//80 18//80 12//80
f 3//81 1//81 19//81
f 19//82 1//82 13//82
f 13//83 2//83 1//83
f 13//84 12//84 2//84
f 12//85 5//85 2//85
f 4//86 3//86 7//86
f 7//55 3//55 38//55
f 38//87 3//87 19//87
f 38//88 19//88 30//88
f 14//89 17//89 5//89
f 17//90 16//90 5//90
f 8//91 7//91 37//91
f 37//92 7//92 42//92
f 42//93 7//93 38//93
f 42//94 39//94 38//94
f 39//95 32//95 38//95
f 41//96 40//96 37//96
f 29//97 41//97 24//97
f 36//98 40//98 41//98
f 29//99 36//99 41//99
