mtllib material.mtl
usemtl material_0
v 0.50419680 0.68580660 -0.17328610
v 0.50769160 0.68930140 -0.17328610
v 0.50419680 0.68930140 -0.17516110
v 0.50419680 0.71127760 -0.17516110
v 0.50769160 0.71127760 -0.17328610
v 0.50419680 0.71477240 -0.17328610
v 0.50419560 0.68580660 0.17329590
v 0.50419560 0.68930140 0.17517090
v 0.50769050 0.68930140 0.17329590
v 0.50419560 0.71477240 0.17329590
v 0.50769050 0.71127760 0.17329590
v 0.50419560 0.71127760 0.17517090
v -0.50419590 0.68580660 -0.17329100
v -0.50419590 0.68930140 -0.17516600
v -0.50769040 0.68930140 -0.17329100
v -0.50419590 0.71477240 -0.17329100
v -0.50769040 0.71127760 -0.17329100
v -0.50419590 0.71127760 -0.17516600
v -0.50419710 0.68580660 0.17329100
v -0.50769160 0.68930140 0.17329100
v -0.50419710 0.68930140 0.17516600
v -0.50419710 0.71477240 0.17329100
v -0.50419710 0.71127760 0.17516600
v -0.50769160 0.71127760 0.17329100
v -0.50419590 0.68930140 -0.17516600
v 0.50419680 0.68930140 -0.17516110
v 0.50419680 0.71127760 -0.17516110
v -0.50419590 0.71127760 -0.17516600
v -0.50769160 0.68930140 0.17329100
v -0.50769040 0.68930140 -0.17329100
v -0.50769040 0.71127760 -0.17329100
v -0.50769160 0.71127760 0.17329100
v -0.50419710 0.71477240 0.17329100
v -0.50419590 0.71477240 -0.17329100
v 0.50419680 0.71477240 -0.17328610
v 0.50419560 0.71477240 0.17329590
v 0.50769160 0.68930140 -0.17328610
v 0.50769050 0.68930140 0.17329590
v 0.50769050 0.71127760 0.17329590
v 0.50769160 0.71127760 -0.17328610
v 0.50419560 0.68930140 0.17517090
v -0.50419710 0.68930140 0.17516600
v -0.50419710 0.71127760 0.17516600
v 0.50419560 0.71127760 0.17517090
v 0.50419560 0.68580660 0.17329590
v 0.50769050 0.68930140 0.17329590
v 0.50769160 0.68930140 -0.17328610
v 0.50419680 0.68580660 -0.17328610
v 0.50419680 0.68930140 -0.17516110
v 0.50769160 0.68930140 -0.17328610
v 0.50769160 0.71127760 -0.17328610
v 0.50419680 0.71127760 -0.17516110
v 0.50419680 0.71477240 -0.17328610
v 0.50769160 0.71127760 -0.17328610
v 0.50769050 0.71127760 0.17329590
v 0.50419560 0.71477240 0.17329590
v 0.50419560 0.71127760 0.17517090
v 0.50769050 0.71127760 0.17329590
v 0.50769050 0.68930140 0.17329590
v 0.50419560 0.68930140 0.17517090
v -0.50419710 0.68580660 0.17329100
v -0.50419710 0.68930140 0.17516600
v 0.50419560 0.68930140 0.17517090
v 0.50419560 0.68580660 0.17329590
v 0.50419560 0.71477240 0.17329590
v 0.50419560 0.71127760 0.17517090
v -0.50419710 0.71127760 0.17516600
v -0.50419710 0.71477240 0.17329100
v -0.50769160 0.71127760 0.17329100
v -0.50419710 0.71127760 0.17516600
v -0.50419710 0.68930140 0.17516600
v -0.50769160 0.68930140 0.17329100
v -0.50419590 0.68580660 -0.17329100
v -0.50769040 0.68930140 -0.17329100
v -0.50769160 0.68930140 0.17329100
v -0.50419710 0.68580660 0.17329100
v -0.50419710 0.71477240 0.17329100
v -0.50769160 0.71127760 0.17329100
v -0.50769040 0.71127760 -0.17329100
v -0.50419590 0.71477240 -0.17329100
v -0.50419590 0.71127760 -0.17516600
v -0.50769040 0.71127760 -0.17329100
v -0.50769040 0.68930140 -0.17329100
v -0.50419590 0.68930140 -0.17516600
v 0.50419680 0.68580660 -0.17328610
v 0.50419680 0.68930140 -0.17516110
v -0.50419590 0.68930140 -0.17516600
v -0.50419590 0.68580660 -0.17329100
v -0.50419590 0.71477240 -0.17329100
v -0.50419590 0.71127760 -0.17516600
v 0.50419680 0.71127760 -0.17516110
v 0.50419680 0.71477240 -0.17328610
v 0.50419560 0.68580660 0.17329590
v 0.50419680 0.68580660 -0.17328610
v -0.50419590 0.68580660 -0.17329100
v -0.50419710 0.68580660 0.17329100
vn 0.42748130 -0.42747170 -0.79657240
vn 0.42748130 -0.42747170 -0.79657240
vn 0.42748130 -0.42747170 -0.79657240
vn 0.42748130 0.42747170 -0.79657240
vn 0.42748130 0.42747170 -0.79657240
vn 0.42748130 0.42747170 -0.79657240
vn 0.42747580 -0.42747170 0.79657540
vn 0.42747580 -0.42747170 0.79657540
vn 0.42747580 -0.42747170 0.79657540
vn 0.42747580 0.42747170 0.79657540
vn 0.42747580 0.42747170 0.79657540
vn 0.42747580 0.42747170 0.79657540
vn -0.42747010 -0.42747290 -0.79657780
vn -0.42747010 -0.42747290 -0.79657780
vn -0.42747010 -0.42747290 -0.79657780
vn -0.42747010 0.42747290 -0.79657780
vn -0.42747010 0.42747290 -0.79657780
vn -0.42747010 0.42747290 -0.79657780
vn -0.42747570 -0.42747290 0.79657480
vn -0.42747570 -0.42747290 0.79657480
vn -0.42747570 -0.42747290 0.79657480
vn -0.42747570 0.42747290 0.79657480
vn -0.42747570 0.42747290 0.79657480
vn -0.42747570 0.42747290 0.79657480
vn 0.00000349 0.00000000 -1.00000000
vn 0.00000349 0.00000000 -1.00000000
vn 0.00000349 0.00000000 -1.00000000
vn 0.00000349 0.00000000 -1.00000000
vn -1.00000000 0.00000000 -0.00000349
vn -1.00000000 0.00000000 -0.00000349
vn -1.00000000 0.00000000 -0.00000349
vn -1.00000000 0.00000000 -0.00000349
vn 0.00000000 1.00000000 0.00000000
vn 0.00000000 1.00000000 0.00000000
vn 0.00000000 1.00000000 0.00000000
vn 0.00000000 1.00000000 0.00000000
vn 1.00000000 0.00000000 0.00000349
vn 1.00000000 0.00000000 0.00000349
vn 1.00000000 0.00000000 0.00000349
vn 1.00000000 0.00000000 0.00000349
vn -0.00000349 0.00000000 1.00000000
vn -0.00000349 0.00000000 1.00000000
vn -0.00000349 0.00000000 1.00000000
vn -0.00000349 0.00000000 1.00000000
vn 0.70710740 -0.70710610 0.00000247
vn 0.70710740 -0.70710610 0.00000247
vn 0.70710740 -0.70710610 0.00000247
vn 0.70710740 -0.70710610 0.00000247
vn 0.47286220 0.00000000 -0.88113640
vn 0.47286220 0.00000000 -0.88113640
vn 0.47286220 0.00000000 -0.88113640
vn 0.47286220 0.00000000 -0.88113640
vn 0.70710740 0.70710610 0.00000247
vn 0.70710740 0.70710610 0.00000247
vn 0.70710740 0.70710610 0.00000247
vn 0.70710740 0.70710610 0.00000247
vn 0.47285600 0.00000000 0.88113980
vn 0.47285600 0.00000000 0.88113980
vn 0.47285600 0.00000000 0.88113980
vn 0.47285600 0.00000000 0.88113980
vn -0.00000308 -0.47285720 0.88113900
vn -0.00000308 -0.47285720 0.88113900
vn -0.00000308 -0.47285720 0.88113900
vn -0.00000308 -0.47285720 0.88113900
vn -0.00000308 0.47285720 0.88113900
vn -0.00000308 0.47285720 0.88113900
vn -0.00000308 0.47285720 0.88113900
vn -0.00000308 0.47285720 0.88113900
vn -0.47285830 0.00000000 0.88113840
vn -0.47285830 0.00000000 0.88113840
vn -0.47285830 0.00000000 0.88113840
vn -0.47285830 0.00000000 0.88113840
vn -0.70710360 -0.70710990 -0.00000247
vn -0.70710360 -0.70710990 -0.00000247
vn -0.70710360 -0.70710990 -0.00000247
vn -0.70710360 -0.70710990 -0.00000247
vn -0.70710360 0.70710990 -0.00000247
vn -0.70710360 0.70710990 -0.00000247
vn -0.70710360 0.70710990 -0.00000247
vn -0.70710360 0.70710990 -0.00000247
vn -0.47285220 0.00000000 -0.88114180
vn -0.47285220 0.00000000 -0.88114180
vn -0.47285220 0.00000000 -0.88114180
vn -0.47285220 0.00000000 -0.88114180
vn 0.00000308 -0.47285720 -0.88113900
vn 0.00000308 -0.47285720 -0.88113900
vn 0.00000308 -0.47285720 -0.88113900
vn 0.00000308 -0.47285720 -0.88113900
vn 0.00000308 0.47285720 -0.88113900
vn 0.00000308 0.47285720 -0.88113900
vn 0.00000308 0.47285720 -0.88113900
vn 0.00000308 0.47285720 -0.88113900
vn 0.00000000 -1.00000000 0.00000000
vn 0.00000000 -1.00000000 0.00000000
vn 0.00000000 -1.00000000 0.00000000
vn 0.00000000 -1.00000000 0.00000000
vt 0.40913990 0.59094520
vt 0.40374860 0.59094520
vt 0.40913990 0.58555390
vt 0.40913990 0.58555390
vt 0.40374860 0.59094520
vt 0.40913990 0.59094520
vt 0.40913990 0.58723940
vt 0.40913990 0.59263070
vt 0.40374860 0.58723940
vt 0.40913990 0.58723940
vt 0.40374860 0.58723940
vt 0.40913990 0.59263070
vt 0.96475390 0.59094520
vt 0.96475390 0.58555390
vt 0.97014520 0.59094520
vt 0.96475390 0.59094520
vt 0.97014520 0.59094520
vt 0.96475390 0.58555390
vt 0.96475390 0.58723940
vt 0.97014520 0.58723940
vt 0.96475390 0.59263070
vt 0.96475390 0.58723940
vt 0.96475390 0.59263070
vt 0.97014520 0.58723940
vt 0.96475390 0.11461500
vt -0.59086010 0.11461500
vt -0.59086010 0.14851690
vt 0.96475390 0.14851690
vt 0.58723940 0.11461500
vt -0.40905480 0.11461500
vt -0.40905480 0.14851690
vt 0.58723940 0.14851690
vt 0.96475390 0.58723940
vt 0.96475390 -0.40905480
vt -0.59086010 -0.40905480
vt -0.59086010 0.58723940
vt 0.59094520 0.11461500
vt 1.58723900 0.11461500
vt 1.58723900 0.14851690
vt 0.59094520 0.14851690
vt 0.40913990 0.11461500
vt 1.96475400 0.11461500
vt 1.96475400 0.14851690
vt 0.40913990 0.14851690
vt 0.40913990 0.58723940
vt 0.40374860 0.58723940
vt 0.40374860 -0.40905480
vt 0.40913990 -0.40905480
vt 0.40913990 0.11461500
vt 0.40374860 0.11461500
vt 0.40374860 0.14851690
vt 0.40913990 0.14851690
vt 0.40913990 0.59094520
vt 0.40374860 0.59094520
vt 0.40374860 1.58723900
vt 0.40913990 1.58723900
vt 0.40913990 0.14851690
vt 0.40374860 0.14851690
vt 0.40374860 0.11461500
vt 0.40913990 0.11461500
vt 0.96475390 0.58723940
vt 0.96475390 0.59263070
vt -0.59086010 0.59263070
vt -0.59086010 0.58723940
vt 0.40913990 0.58723940
vt 0.40913990 0.59263070
vt 1.96475400 0.59263070
vt 1.96475400 0.58723940
vt 0.97014520 0.14851690
vt 0.96475390 0.14851690
vt 0.96475390 0.11461500
vt 0.97014520 0.11461500
vt 0.96475390 0.59094520
vt 0.97014520 0.59094520
vt 0.97014520 1.58723900
vt 0.96475390 1.58723900
vt 0.96475390 0.58723940
vt 0.97014520 0.58723940
vt 0.97014520 -0.40905480
vt 0.96475390 -0.40905480
vt 0.96475390 0.14851690
vt 0.97014520 0.14851690
vt 0.97014520 0.11461500
vt 0.96475390 0.11461500
vt 0.40913990 0.59094520
vt 0.40913990 0.58555390
vt 1.96475400 0.58555390
vt 1.96475400 0.59094520
vt 0.96475390 0.59094520
vt 0.96475390 0.58555390
vt -0.59086010 0.58555390
vt -0.59086010 0.59094520
vt 0.40913990 0.58723940
vt 0.40913990 -0.40905480
vt 1.96475400 -0.40905480
vt 1.96475400 0.58723940
f 3/3/3 2/2/2 1/1/1
f 6/6/6 5/5/5 4/4/4
f 9/9/9 8/8/8 7/7/7
f 12/12/12 11/11/11 10/10/10
f 15/15/15 14/14/14 13/13/13
f 18/18/18 17/17/17 16/16/16
f 21/21/21 20/20/20 19/19/19
f 24/24/24 23/23/23 22/22/22
f 27/27/27 26/26/26 25/25/25
f 28/28/28 27/27/27 25/25/25
f 31/31/31 30/30/30 29/29/29
f 32/32/32 31/31/31 29/29/29
f 35/35/35 34/34/34 33/33/33
f 36/36/36 35/35/35 33/33/33
f 39/39/39 38/38/38 37/37/37
f 40/40/40 39/39/39 37/37/37
f 43/43/43 42/42/42 41/41/41
f 44/44/44 43/43/43 41/41/41
f 47/47/47 46/46/46 45/45/45
f 48/48/48 47/47/47 45/45/45
f 51/51/51 50/50/50 49/49/49
f 52/52/52 51/51/51 49/49/49
f 55/55/55 54/54/54 53/53/53
f 56/56/56 55/55/55 53/53/53
f 59/59/59 58/58/58 57/57/57
f 60/60/60 59/59/59 57/57/57
f 63/63/63 62/62/62 61/61/61
f 64/64/64 63/63/63 61/61/61
f 67/67/67 66/66/66 65/65/65
f 68/68/68 67/67/67 65/65/65
f 71/71/71 70/70/70 69/69/69
f 72/72/72 71/71/71 69/69/69
f 75/75/75 74/74/74 73/73/73
f 76/76/76 75/75/75 73/73/73
f 79/79/79 78/78/78 77/77/77
f 80/80/80 79/79/79 77/77/77
f 83/83/83 82/82/82 81/81/81
f 84/84/84 83/83/83 81/81/81
f 87/87/87 86/86/86 85/85/85
f 88/88/88 87/87/87 85/85/85
f 91/91/91 90/90/90 89/89/89
f 92/92/92 91/91/91 89/89/89
f 95/95/95 94/94/94 93/93/93
f 96/96/96 95/95/95 93/93/93

