# Blender 4.0.0
# www.blender.org
o decimated_mesh
v 0.164087 -0.357826 0.123126
v 0.164064 -0.357580 0.128459
v 0.164060 -0.349848 0.120229
v 0.508083 -0.355925 0.145429
v 0.211049 -0.355148 0.136515
v 0.349334 -0.358644 0.146506
v 0.164060 0.347261 0.118744
v 0.508083 0.347261 0.142707
v 0.507796 -0.355085 0.153742
v 0.324218 -0.355304 0.146194
v 0.503498 -0.354842 0.156131
v 0.164060 0.347261 0.129877
v 0.507821 0.347262 0.154703
vn -0.0852 0.0037 0.9964
vn -1.0000 -0.0048 -0.0040
vn 0.0695 -0.0021 -0.9976
vn -0.0000 1.0000 -0.0001
vn 0.4857 -0.0012 0.8741
vn 0.9994 0.0001 0.0346
vn 0.0158 -0.9870 -0.1599
vn -0.0520 -0.3018 0.9519
vn -0.0752 -0.4841 0.8718
vn -0.0553 0.0024 0.9985
vn -0.0720 0.0067 0.9974
vn -0.1689 -0.0020 0.9856
vn -1.0000 -0.0000 0.0006
vn -1.0000 -0.0000 -0.0000
vn -0.0642 -0.7881 0.6122
vn 0.0730 -0.0039 -0.9973
vn -0.0000 1.0000 -0.0000
vn 0.0163 -0.9914 0.1302
vn 0.9998 -0.0001 0.0218
vn 0.0627 -0.3405 -0.9382
vn 0.0177 -0.9947 0.1011
vn -0.0102 -0.9989 0.0460
vn 0.9998 0.0001 0.0218
vn 0.9994 -0.0001 0.0346
s 0
f 10//1 12//1 5//1
f 3//2 1//2 2//2
f 8//3 3//3 7//3
f 7//4 13//4 8//4
f 13//5 11//5 9//5
f 4//6 8//6 9//6
f 1//7 4//7 6//7
f 10//8 6//8 11//8
f 10//9 5//9 6//9
f 10//10 11//10 13//10
f 13//11 12//11 10//11
f 12//12 2//12 5//12
f 2//13 12//13 3//13
f 12//14 7//14 3//14
f 2//15 6//15 5//15
f 8//16 4//16 3//16
f 12//17 13//17 7//17
f 11//18 6//18 9//18
f 8//19 13//19 9//19
f 3//20 4//20 1//20
f 4//21 9//21 6//21
f 6//22 2//22 1//22
f 13//23 4//23 8//23
f 13//24 9//24 4//24
