# Blender 4.0.0
# www.blender.org
o decimated_mesh
v 0.930830 0.213921 0.005839
v 0.950389 -0.260982 0.007003
v 0.930831 0.219698 0.014466
v 0.950390 -0.260982 0.011874
v 0.966372 -0.260983 0.005819
v 0.960853 -0.260982 0.014625
v 0.984470 -0.260982 0.014625
v 0.930821 0.372242 0.006365
v 0.976809 -0.260982 0.007428
v 0.976284 0.284087 0.007714
v 0.930831 0.382793 0.014625
v 0.941388 0.370511 0.007794
v 0.966509 0.323517 0.007741
v 0.983866 0.278618 0.014625
v 0.941948 0.377101 0.014613
v 0.953861 0.365937 0.014629
v 0.976700 0.317256 0.014637
vn -0.0739 -0.0055 -0.9973
vn -0.2542 -0.0156 0.9670
vn 0.0439 0.0033 -0.9990
vn 0.0595 0.0154 -0.9981
vn 0.5394 0.2893 -0.7908
vn 0.0001 -1.0000 0.0002
vn -0.9992 -0.0411 0.0002
vn 0.6847 0.0008 -0.7288
vn 0.3385 0.6626 -0.6681
vn 0.1524 0.0007 -0.9883
vn 0.0351 0.0028 -0.9994
vn 0.1463 0.0793 -0.9861
vn 0.6556 0.3075 -0.6896
vn 0.7185 0.1335 -0.6826
vn -0.0000 -1.0000 -0.0000
vn -0.0000 -1.0000 0.0001
vn -0.0001 -1.0000 -0.0000
vn -0.9988 -0.0408 0.0274
vn -1.0000 -0.0000 0.0013
vn -1.0000 -0.0001 0.0001
vn 0.5446 0.5803 -0.6055
vn 0.6168 0.1534 -0.7721
vn 0.2030 0.6034 -0.7711
vn -0.0016 -0.0010 1.0000
vn -0.0000 0.0003 1.0000
vn -0.0030 -0.0000 1.0000
vn -0.0022 -0.0007 1.0000
vn -0.0001 0.0001 1.0000
vn 0.0041 0.0058 1.0000
vn 0.6741 0.0010 -0.7386
vn 0.0361 0.0033 -0.9993
vn -0.0210 -0.0010 0.9998
vn -0.0003 -0.0000 1.0000
vn 0.0369 0.0028 -0.9993
vn -0.0000 -0.0000 1.0000
vn 0.0017 -0.0000 1.0000
vn 0.0001 -1.0000 -0.0001
s 0
f 2//1 1//1 5//1
f 3//2 4//2 6//2
f 5//3 1//3 8//3
f 13//4 10//4 8//4
f 13//5 12//5 16//5
f 5//6 9//6 6//6
f 1//7 2//7 4//7
f 9//8 14//8 7//8
f 15//9 12//9 11//9
f 10//10 9//10 5//10
f 5//11 8//11 10//11
f 12//12 13//12 8//12
f 16//13 17//13 13//13
f 10//14 17//14 14//14
f 9//15 7//15 6//15
f 6//16 4//16 5//16
f 5//17 4//17 2//17
f 4//18 3//18 1//18
f 3//19 11//19 8//19
f 8//20 1//20 3//20
f 16//21 12//21 15//21
f 17//22 10//22 13//22
f 11//23 12//23 8//23
f 11//24 3//24 17//24
f 3//25 6//25 7//25
f 14//26 3//26 7//26
f 14//27 17//27 3//27
f 17//28 16//28 11//28
f 15//29 11//29 16//29
f 9//30 10//30 14//30
f 10//31 1//31 8//31
f 3//32 6//32 11//32
f 6//33 17//33 11//33
f 5//34 1//34 10//34
f 6//35 7//35 17//35
f 7//36 14//36 17//36
f 5//16 7//16 6//16
f 7//37 5//37 9//37
