# Blender 4.0.0
# www.blender.org
o decimated_mesh
v 0.033764 0.365860 0.066194
v 0.033865 0.373318 0.048383
v 0.034155 0.345511 0.066179
v 0.024829 0.360511 0.048093
v 0.010261 0.270425 0.066179
v 0.034155 0.270425 0.009469
v -0.000044 0.270725 0.066204
v 0.034155 0.270425 -0.001320
v 0.023151 0.357403 0.018001
v 0.009710 0.327944 0.018276
v 0.012496 0.328391 0.066213
v 0.033968 0.373308 0.016562
v 0.002885 0.304229 0.017744
v 0.009283 0.327759 0.042848
v 0.002818 0.304681 0.046665
v -0.002907 0.270457 0.025956
v 0.034132 0.334467 -0.001257
v 0.033613 0.364200 0.006677
v 0.012221 0.319360 0.006661
v 0.001479 0.270510 0.008582
v 0.015717 0.270425 -0.001188
v 0.022638 0.313540 -0.001366
vn 1.0000 0.0048 -0.0011
vn -0.7978 0.5577 0.2290
vn -0.0290 -0.9995 0.0087
vn -0.9097 0.4150 -0.0127
vn 0.8843 -0.2814 0.3726
vn -0.4081 0.2287 -0.8838
vn -0.8552 0.1688 -0.4900
vn -0.7681 0.4844 -0.4188
vn -0.9531 0.2072 0.2205
vn -0.9635 0.2675 -0.0147
vn -0.9899 0.1235 0.0696
vn 0.0077 0.0010 -1.0000
vn 0.0021 -0.0007 1.0000
vn -0.7823 0.3734 -0.4986
vn -0.8169 0.5767 -0.0140
vn -0.5044 0.2409 -0.8292
vn -0.9045 0.4112 0.1132
vn 0.9970 0.0357 -0.0687
vn 0.9999 0.0125 0.0032
vn 0.9997 0.0192 0.0137
vn 1.0000 0.0003 -0.0004
vn 1.0000 0.0004 -0.0000
vn -0.8367 0.4750 0.2726
vn 0.0025 1.0000 0.0036
vn 0.0027 1.0000 -0.0047
vn -0.0000 -1.0000 -0.0000
vn 0.0011 1.0000 0.0004
vn -0.9038 0.4280 0.0062
vn -0.8843 0.2632 -0.3857
vn -0.5762 0.0891 -0.8124
vn -0.5630 0.0915 -0.8214
vn -0.9858 0.1679 -0.0049
vn -0.9642 0.1062 -0.2431
vn -0.9609 0.2767 -0.0065
vn -0.0072 -0.0030 -1.0000
vn 0.0024 -0.0007 1.0000
vn -0.9502 0.2865 0.1229
vn -0.8150 0.3677 -0.4479
vn -0.8270 0.5622 -0.0028
vn 0.0019 -0.0006 1.0000
vn 0.0024 -0.0008 1.0000
vn 0.0022 -0.0007 1.0000
vn -0.8171 0.5765 -0.0028
vn -0.8273 0.5616 -0.0119
vn -0.9608 0.2768 -0.0146
vn -0.9632 0.2688 -0.0064
vn 0.0019 1.0000 0.0002
vn -0.0000 1.0000 -0.0000
vn 1.0000 -0.0000 -0.0000
vn 1.0000 0.0004 -0.0004
vn 0.0097 0.9999 0.0055
vn -0.5633 0.0870 -0.8217
vn -0.5741 0.0943 -0.8133
s 0
f 17//1 12//1 3//1
f 4//2 1//2 2//2
f 5//3 7//3 16//3
f 9//4 10//4 14//4
f 3//5 5//5 6//5
f 17//6 22//6 18//6
f 19//7 20//7 13//7
f 18//8 9//8 12//8
f 11//9 15//9 7//9
f 10//10 15//10 14//10
f 16//11 7//11 15//11
f 22//12 17//12 8//12
f 5//13 3//13 11//13
f 9//14 18//14 19//14
f 2//15 9//15 4//15
f 18//16 22//16 19//16
f 4//17 14//17 11//17
f 17//18 18//18 12//18
f 12//19 2//19 3//19
f 2//20 1//20 3//20
f 3//21 6//21 17//21
f 6//22 8//22 17//22
f 4//23 11//23 1//23
f 16//24 6//24 20//24
f 20//25 6//25 21//25
f 21//26 8//26 6//26
f 6//27 16//27 5//27
f 14//28 4//28 9//28
f 13//29 10//29 19//29
f 22//30 21//30 19//30
f 21//31 20//31 19//31
f 15//32 13//32 16//32
f 13//33 20//33 16//33
f 10//34 13//34 15//34
f 8//35 21//35 22//35
f 1//13 11//13 3//13
f 11//36 7//36 5//36
f 15//37 11//37 14//37
f 10//38 9//38 19//38
f 2//39 12//39 9//39
f 7//40 1//40 11//40
f 7//41 5//41 1//41
f 5//42 3//42 1//42
f 2//43 12//43 4//43
f 12//44 9//44 4//44
f 10//45 13//45 14//45
f 13//46 15//46 14//46
f 16//47 5//47 21//47
f 21//48 5//48 6//48
f 6//49 8//49 3//49
f 8//50 17//50 3//50
f 20//51 16//51 21//51
f 20//52 22//52 21//52
f 22//53 20//53 19//53
