# Blender 4.0.0
# www.blender.org
o decimated_mesh
v 0.107027 0.397148 0.052711
v 0.091234 0.396894 0.048406
v 0.106929 0.394282 0.066113
v 0.063325 0.391358 0.046979
v 0.107027 0.396112 0.017353
v 0.065919 0.391688 0.017082
v 0.061267 0.384138 0.066180
v 0.107031 0.382671 0.066179
v 0.107031 0.383707 0.016908
v 0.044268 0.381337 0.017136
v 0.034155 0.345526 0.066179
v 0.034155 0.348628 0.016908
v 0.034145 0.373224 0.017016
v 0.042860 0.380935 0.047183
v 0.034524 0.367289 0.066189
v 0.034152 0.373495 0.047429
vn -0.4534 0.8895 0.0560
vn -0.2000 0.9240 0.3260
vn -0.4539 0.8910 -0.0094
vn -0.0083 -0.0044 1.0000
vn -0.6497 0.7602 -0.0066
vn -0.4992 0.7926 0.3501
vn -0.9995 0.0169 0.0254
vn 1.0000 0.0003 -0.0000
vn -0.4336 0.9009 0.0189
vn -0.6236 0.7384 0.2566
vn -0.2051 0.9255 0.3184
vn -0.1943 0.9809 -0.0060
vn -0.4312 0.9018 -0.0275
vn -0.1062 0.9912 -0.0790
vn 0.0027 0.0358 -0.9994
vn 0.0030 -0.0063 1.0000
vn 0.0068 -0.0091 0.9999
vn 0.0002 0.0057 1.0000
vn -0.0000 -0.0000 1.0000
vn 0.0007 -0.0005 1.0000
vn -0.0724 0.9754 0.2081
vn -0.6251 0.7803 -0.0189
vn -0.4340 0.8576 0.2760
vn 1.0000 0.0004 -0.0002
vn 1.0000 0.0001 -0.0000
vn 0.9999 0.0088 0.0092
vn -0.0081 0.9995 -0.0293
vn -0.2001 0.9280 0.3143
vn -0.2046 0.9232 0.3252
vn -0.0000 0.0005 1.0000
vn 0.0002 -0.0005 1.0000
vn -0.4540 0.8908 0.0187
vn -0.4330 0.8996 0.0566
vn 0.0021 -0.0044 1.0000
vn 0.0026 -0.0081 1.0000
vn 0.0237 -0.0443 0.9987
vn 1.0000 -0.0000 -0.0002
vn 1.0000 0.0004 -0.0000
s 0
f 12//1 11//1 8//1
f 7//2 2//2 4//2
f 4//3 10//3 14//3
f 12//4 10//4 13//4
f 14//5 13//5 16//5
f 7//6 14//6 15//6
f 11//7 15//7 16//7
f 5//8 1//8 9//8
f 12//9 8//9 9//9
f 15//10 14//10 16//10
f 7//11 3//11 2//11
f 4//12 2//12 6//12
f 4//13 6//13 10//13
f 6//14 2//14 5//14
f 6//15 5//15 9//15
f 9//16 6//16 12//16
f 6//17 10//17 12//17
f 3//18 7//18 8//18
f 8//19 7//19 11//19
f 7//20 15//20 11//20
f 2//21 3//21 1//21
f 14//22 10//22 13//22
f 7//23 4//23 14//23
f 16//24 12//24 13//24
f 12//25 16//25 11//25
f 8//8 9//8 1//8
f 3//26 8//26 1//26
f 1//27 5//27 2//27
f 4//28 3//28 2//28
f 4//29 7//29 3//29
f 7//30 15//30 8//30
f 15//31 11//31 8//31
f 11//32 8//32 9//32
f 11//33 9//33 12//33
f 12//34 9//34 13//34
f 13//35 9//35 6//35
f 13//36 6//36 10//36
f 16//37 11//37 13//37
f 13//38 11//38 12//38
