# Blender 4.0.0
# www.blender.org
o Fridge_1_Mesh_77a1be5e_6_collision_16
v 0.901421 -0.357395 0.007022
v 0.911499 -0.357348 0.007062
v 0.971230 -0.357424 0.014626
v 0.901421 -0.357395 0.011432
v 0.901421 -0.349862 0.005549
v 0.921317 -0.357301 0.007101
v 0.931144 -0.357254 0.007140
v 0.950772 -0.357150 0.007218
v 0.960590 -0.357093 0.007257
v 0.979860 -0.357320 0.013736
v 0.979885 -0.357367 0.014626
v 0.970701 -0.357169 0.014626
v 0.901421 -0.349862 0.014378
v 0.901421 -0.350060 0.014303
v 0.901421 -0.349617 0.005549
v 0.901681 -0.349862 0.005551
v 0.970416 -0.356952 0.007348
v 0.911499 -0.349862 0.005629
v 0.931144 -0.349862 0.005786
v 0.940962 -0.349862 0.005864
v 0.960590 -0.349862 0.006021
v 0.980552 -0.357339 0.014626
v 0.976338 -0.356149 0.007773
v 0.981447 -0.357037 0.014626
v 0.960631 -0.349862 0.014626
v 0.901421 -0.340299 0.014367
v 0.960850 -0.261096 0.014626
v 0.901421 -0.310581 0.005418
v 0.970416 -0.349862 0.006209
v 0.960590 -0.330226 0.005963
v 0.911499 -0.310581 0.005501
v 0.984001 -0.353166 0.014626
v 0.976834 -0.349862 0.007419
v 0.981748 -0.349862 0.011808
v 0.901421 -0.330472 0.014355
v 0.961517 -0.260983 0.014626
v 0.960850 -0.260983 0.014625
v 0.901421 -0.310581 0.014328
v 0.901421 -0.320399 0.014342
v 0.901421 -0.303312 0.006940
v 0.950381 -0.260983 0.007003
v 0.960590 -0.260983 0.005907
v 0.950772 -0.281128 0.005803
v 0.931144 -0.300773 0.005641
v 0.960590 -0.320399 0.005936
v 0.960590 -0.310581 0.005920
v 0.970416 -0.340044 0.006194
v 0.931144 -0.310581 0.005663
v 0.984513 -0.349862 0.014626
v 0.970416 -0.330226 0.006179
v 0.970416 -0.320399 0.006169
v 0.970416 -0.310581 0.006164
v 0.970416 -0.300773 0.006163
v 0.976826 -0.340044 0.007418
v 0.976818 -0.310581 0.007421
v 0.976810 -0.271310 0.007427
v 0.984513 -0.345671 0.014626
v 0.981715 -0.260983 0.011837
v 0.984326 -0.260983 0.014483
v 0.984473 -0.271310 0.014626
v 0.984464 -0.260983 0.014626
v 0.950528 -0.260983 0.011924
v 0.901421 -0.303492 0.011476
v 0.901421 -0.303312 0.011400
v 0.945045 -0.264221 0.007769
v 0.950381 -0.260983 0.011867
v 0.970416 -0.260983 0.006173
v 0.970416 -0.290946 0.006165
v 0.960590 -0.271310 0.005907
v 0.960590 -0.281128 0.005908
v 0.960590 -0.290946 0.005910
v 0.960590 -0.300773 0.005913
v 0.950772 -0.290946 0.005808
v 0.940962 -0.300773 0.005726
v 0.950772 -0.310581 0.005830
v 0.940962 -0.310581 0.005746
v 0.950772 -0.300773 0.005815
v 0.976802 -0.260983 0.007428
v 0.945045 -0.264221 0.010113
vn 0.0049 -0.9988 -0.0484
vn -0.0004 -1.0000 -0.0000
vn 1.0000 -0.0000 -0.0000
vn 1.0000 -0.0001 -0.0000
vn 0.0048 -0.1919 -0.9814
vn 0.0050 -0.9988 -0.0495
vn 0.0048 -0.1918 -0.9814
vn 0.0050 -0.9988 -0.0494
vn 0.0055 -0.9986 -0.0521
vn 0.0060 -0.9986 -0.0534
vn 0.0064 -0.9985 -0.0541
vn 0.0065 -0.9986 -0.0532
vn -0.0000 -0.0000 1.0000
vn -0.0046 -0.0095 0.9999
vn -0.0415 -0.3528 0.9348
vn -0.0427 -0.3642 0.9303
vn 0.0069 -0.0037 -1.0000
vn 0.0068 -0.1765 -0.9843
vn 0.0051 -0.1904 -0.9817
vn 0.0049 -0.1916 -0.9815
vn 0.0151 -0.9967 -0.0798
vn 0.0078 -0.1692 -0.9856
vn 0.0079 -0.1686 -0.9857
vn 0.0116 -0.1686 -0.9856
vn 0.0424 -0.9976 -0.0541
vn 0.1484 -0.9502 -0.2742
vn 0.3661 -0.8482 -0.3827
vn 0.3089 -0.9150 -0.2595
vn -0.0042 -0.0058 1.0000
vn -0.0042 -0.0000 1.0000
vn -0.0059 0.0011 1.0000
vn 0.0072 -0.0033 -1.0000
vn 0.0079 -0.0033 -1.0000
vn 0.0189 -0.1586 -0.9872
vn 0.0919 -0.1580 -0.9832
vn 0.0080 -0.0033 -1.0000
vn 0.0192 -0.0029 -0.9998
vn 0.0082 -0.0030 -1.0000
vn 0.0082 -0.0029 -1.0000
vn 0.6859 -0.4526 -0.5699
vn 0.1848 -0.0698 -0.9803
vn 0.6633 -0.0942 -0.7424
vn 0.6894 -0.1365 -0.7114
vn -0.0059 0.0012 1.0000
vn -0.0014 0.0080 1.0000
vn -0.0116 0.0080 0.9999
vn -0.0062 0.0014 1.0000
vn -0.0061 0.0013 1.0000
vn -0.1733 0.2019 -0.9640
vn -0.1058 0.1359 -0.9851
vn 0.0066 0.0020 -1.0000
vn 0.0072 0.0010 -1.0000
vn 0.0082 -0.0021 -1.0000
vn 0.0195 -0.0028 -0.9998
vn 0.0228 -0.0017 -0.9997
vn 0.0232 -0.0016 -0.9997
vn 0.1852 -0.0015 -0.9827
vn 0.0083 -0.0029 -1.0000
vn 0.0084 -0.0028 -1.0000
vn 0.0083 -0.0022 -1.0000
vn 0.7093 -0.1101 -0.6962
vn 0.1853 -0.0014 -0.9827
vn 0.1864 -0.0011 -0.9825
vn 0.1892 -0.0005 -0.9819
vn 0.1913 -0.0001 -0.9815
vn 0.1925 0.0001 -0.9813
vn 0.3130 0.0002 -0.9498
vn 0.4836 0.0002 -0.8753
vn 0.6662 0.0003 -0.7457
vn 0.7136 -0.0000 -0.7005
vn 0.6680 0.0005 -0.7441
vn 0.7118 0.0005 -0.7024
vn 0.7127 0.0004 -0.7014
vn 0.7134 0.0004 -0.7008
vn -0.0000 -1.0000 0.0001
vn -0.0000 -1.0000 -0.0000
vn -0.0000 -1.0000 -0.0002
vn -0.2427 0.2852 0.9272
vn -0.3148 0.3543 0.8806
vn 0.6674 -0.7447 -0.0000
vn -0.3891 0.4513 -0.8030
vn 0.5188 -0.8549 -0.0000
vn 0.0270 0.0003 -0.9996
vn 0.0268 0.0002 -0.9996
vn 0.0260 -0.0000 -0.9997
vn 0.0106 -0.0000 -0.9999
vn 0.0107 -0.0001 -0.9999
vn 0.0107 -0.0002 -0.9999
vn 0.0106 -0.0003 -0.9999
vn 0.0101 -0.0006 -0.9999
vn 0.0089 -0.0006 -1.0000
vn 0.0086 -0.0004 -1.0000
vn 0.0086 -0.0019 -1.0000
vn 0.0085 -0.0021 -1.0000
vn 0.0084 -0.0022 -1.0000
vn 0.0084 -0.0025 -1.0000
vn 0.0085 -0.0023 -1.0000
vn 0.0092 -0.0017 -1.0000
vn 0.0092 -0.0015 -1.0000
vn 0.0099 -0.0007 -1.0000
vn 0.0246 -0.0007 -0.9997
vn 0.0242 -0.0011 -0.9997
vn 0.0235 -0.0015 -0.9997
vn 0.0251 -0.0005 -0.9997
vn 0.0253 -0.0003 -0.9997
vn 0.0255 -0.0002 -0.9997
vn 0.0258 -0.0001 -0.9997
vn 0.1929 0.0001 -0.9812
vn 0.1930 0.0002 -0.9812
vn 0.1929 0.0002 -0.9812
vn 0.6679 0.0006 -0.7442
vn 0.7174 0.0006 -0.6966
vn -0.3348 0.3777 0.8633
vn -0.3262 0.3676 0.8709
vn -0.5615 0.6437 0.5199
vn 0.1928 0.0003 -0.9812
vn 0.0091 -0.0007 -1.0000
vn 0.0091 -0.0015 -1.0000
vn 1.0000 0.0007 -0.0000
vn 1.0000 -0.0004 -0.0000
vn 0.0049 -0.1917 -0.9814
vn 0.0052 -0.9987 -0.0514
vn 0.0082 -0.0022 -1.0000
vn 0.7120 0.0005 -0.7022
vn -0.0000 -1.0000 0.0009
vn -0.0000 -1.0000 0.0056
vn 0.7118 0.0004 -0.7024
s 0
f 1//1 2//1 3//1
f 1//2 3//2 4//2
f 1//3 14//3 4//3
f 1//3 13//3 14//3
f 1//3 26//3 13//3
f 1//3 35//3 26//3
f 1//3 39//3 35//3
f 1//3 38//3 39//3
f 1//3 63//3 38//3
f 1//4 64//4 63//4
f 1//3 40//3 64//3
f 1//3 28//3 40//3
f 1//3 15//3 28//3
f 1//4 5//4 15//4
f 1//5 5//5 2//5
f 2//6 6//6 3//6
f 2//7 5//7 6//7
f 3//8 6//8 7//8
f 3//9 7//9 8//9
f 3//10 8//10 9//10
f 3//11 9//11 10//11
f 3//12 10//12 11//12
f 3//13 11//13 22//13
f 3//13 22//13 24//13
f 3//13 24//13 32//13
f 3//13 32//13 49//13
f 3//13 49//13 57//13
f 3//13 57//13 60//13
f 3//13 60//13 61//13
f 3//13 61//13 36//13
f 3//13 36//13 27//13
f 3//13 27//13 25//13
f 3//13 25//13 12//13
f 3//14 12//14 13//14
f 3//15 13//15 14//15
f 3//16 14//16 4//16
f 5//17 15//17 16//17
f 5//18 16//18 9//18
f 5//19 9//19 8//19
f 5//20 8//20 7//20
f 5//20 7//20 6//20
f 9//21 17//21 10//21
f 9//22 16//22 18//22
f 9//23 18//23 19//23
f 9//23 19//23 20//23
f 9//23 20//23 21//23
f 9//24 21//24 17//24
f 10//25 22//25 11//25
f 10//26 17//26 23//26
f 10//27 23//27 24//27
f 10//28 24//28 22//28
f 12//29 25//29 13//29
f 13//30 25//30 27//30
f 13//31 27//31 26//31
f 15//32 28//32 16//32
f 16//33 28//33 18//33
f 17//34 21//34 29//34
f 17//35 29//35 23//35
f 18//36 28//36 19//36
f 19//36 28//36 20//36
f 20//36 28//36 21//36
f 21//37 30//37 29//37
f 21//38 28//38 31//38
f 21//39 31//39 30//39
f 23//40 32//40 24//40
f 23//41 29//41 33//41
f 23//42 33//42 34//42
f 23//43 34//43 32//43
f 26//44 27//44 35//44
f 27//45 36//45 37//45
f 27//46 37//46 38//46
f 27//47 38//47 39//47
f 27//48 39//48 35//48
f 28//49 40//49 41//49
f 28//50 41//50 42//50
f 28//51 42//51 43//51
f 28//52 43//52 44//52
f 28//53 44//53 31//53
f 29//54 30//54 45//54
f 29//55 45//55 46//55
f 29//56 46//56 47//56
f 29//57 47//57 33//57
f 30//58 31//58 48//58
f 30//59 48//59 45//59
f 31//60 44//60 48//60
f 32//61 34//61 49//61
f 33//62 47//62 50//62
f 33//63 50//63 51//63
f 33//64 51//64 52//64
f 33//65 52//65 53//65
f 33//66 53//66 54//66
f 33//67 54//67 55//67
f 33//68 55//68 56//68
f 33//69 56//69 34//69
f 34//70 57//70 49//70
f 34//71 56//71 58//71
f 34//72 58//72 59//72
f 34//73 59//73 60//73
f 34//74 60//74 57//74
f 36//75 59//75 61//75
f 36//76 58//76 59//76
f 36//76 78//76 58//76
f 36//76 67//76 78//76
f 36//76 42//76 67//76
f 36//76 41//76 42//76
f 36//76 66//76 41//76
f 36//77 62//77 66//77
f 36//76 37//76 62//76
f 37//78 62//78 38//78
f 38//79 62//79 63//79
f 40//80 79//80 64//80
f 40//80 65//80 79//80
f 40//81 65//81 41//81
f 41//82 79//82 65//82
f 41//82 66//82 79//82
f 42//83 67//83 68//83
f 42//84 68//84 53//84
f 42//85 53//85 69//85
f 42//86 69//86 43//86
f 43//87 69//87 70//87
f 43//88 70//88 71//88
f 43//89 71//89 72//89
f 43//90 72//90 73//90
f 43//91 73//91 74//91
f 43//92 74//92 44//92
f 44//93 74//93 75//93
f 44//94 75//94 76//94
f 44//95 76//95 48//95
f 45//96 48//96 76//96
f 45//97 76//97 75//97
f 45//98 75//98 46//98
f 46//99 75//99 77//99
f 46//100 77//100 72//100
f 46//101 72//101 51//101
f 46//102 51//102 50//102
f 46//103 50//103 47//103
f 51//104 72//104 52//104
f 52//105 72//105 71//105
f 52//106 71//106 70//106
f 52//107 70//107 53//107
f 53//108 55//108 54//108
f 53//107 70//107 69//107
f 53//109 68//109 55//109
f 55//109 68//109 56//109
f 56//110 68//110 78//110
f 56//111 78//111 58//111
f 59//112 61//112 60//112
f 62//113 66//113 64//113
f 62//114 64//114 63//114
f 64//115 66//115 79//115
f 67//116 78//116 68//116
f 72//100 77//100 73//100
f 73//117 77//117 74//117
f 74//118 77//118 75//118
f 4//119 13//119 14//119
f 4//3 26//3 13//3
f 4//3 35//3 26//3
f 4//3 39//3 35//3
f 4//3 38//3 39//3
f 4//3 63//3 38//3
f 4//3 64//3 63//3
f 4//3 40//3 64//3
f 4//3 28//3 40//3
f 4//3 15//3 28//3
f 4//120 5//120 15//120
f 4//3 1//3 5//3
f 5//121 8//121 2//121
f 8//122 3//122 2//122
f 11//13 22//13 24//13
f 11//13 24//13 32//13
f 11//13 32//13 49//13
f 11//13 49//13 57//13
f 11//13 57//13 60//13
f 11//13 60//13 61//13
f 11//13 61//13 36//13
f 11//13 36//13 27//13
f 11//13 27//13 25//13
f 11//13 25//13 12//13
f 11//13 12//13 3//13
f 18//23 20//23 9//23
f 28//36 20//36 18//36
f 28//39 30//39 21//39
f 44//123 48//123 28//123
f 48//39 30//39 28//39
f 58//124 60//124 34//124
f 61//76 58//76 59//76
f 61//76 78//76 58//76
f 61//76 67//76 78//76
f 61//76 42//76 67//76
f 61//76 41//76 42//76
f 61//76 66//76 41//76
f 61//125 62//125 66//125
f 61//76 37//76 62//76
f 61//126 36//126 37//126
f 64//80 65//80 79//80
f 64//80 40//80 65//80
f 65//82 66//82 79//82
f 65//82 41//82 66//82
f 59//127 60//127 58//127
