# Blender 4.0.0
# www.blender.org
o decimated_mesh
v 0.949369 0.373153 0.066137
v 0.949386 0.356185 0.066179
v 0.953858 0.243219 0.014615
v 0.978868 0.223721 0.066179
v 0.961538 0.359913 0.065974
v 0.955613 0.372067 0.052237
v 0.960602 0.223721 0.014626
v 0.988923 0.223718 0.065978
v 0.949386 0.377179 0.052402
v 0.985209 0.223720 0.014919
v 0.949434 0.371448 0.014572
v 0.975893 0.329641 0.066204
v 0.965231 0.357797 0.033441
v 0.949378 0.377283 0.025337
v 0.955610 0.371807 0.023535
v 0.962192 0.358948 0.018081
v 0.978479 0.327752 0.052670
v 0.978598 0.327566 0.025010
v 0.976985 0.318808 0.015071
v 0.989826 0.223721 0.026024
v 0.987950 0.282408 0.066127
v 0.985442 0.303225 0.050748
v 0.984299 0.291429 0.015596
v 0.985362 0.304359 0.026979
v 0.989668 0.278021 0.026672
vn 0.4654 0.2355 -0.8532
vn -0.8962 -0.3098 0.3176
vn 0.8897 0.4334 -0.1436
vn -0.9090 -0.2023 0.3644
vn 0.8975 0.4265 0.1119
vn 0.9060 0.2353 -0.3519
vn 0.9546 0.2596 0.1461
vn 0.6757 0.5527 -0.4878
vn 0.8260 0.5636 -0.0052
vn 0.9997 0.0026 0.0226
vn 0.9074 0.0164 -0.4200
vn 0.0001 1.0000 -0.0001
vn 0.8339 0.3399 -0.4349
vn 0.9620 0.2729 0.0023
vn 0.6346 0.7728 0.0028
vn 0.9869 0.1613 0.0044
vn 0.9501 0.1585 -0.2688
vn -0.9993 -0.0345 -0.0111
vn 1.0000 0.0010 0.0016
vn 1.0000 -0.0002 -0.0003
vn -1.0000 -0.0052 -0.0024
vn 0.0127 0.0136 0.9998
vn 0.0161 0.0025 0.9999
vn 0.0024 0.0005 1.0000
vn 0.0199 -0.0022 0.9998
vn -0.0035 -0.0025 1.0000
vn 0.8945 0.4410 0.0729
vn 0.9147 0.4041 0.0012
vn 0.9058 0.2340 -0.3532
vn 0.8583 0.4956 -0.1327
vn 0.9543 0.2433 0.1737
vn 0.8655 0.4965 0.0660
vn 0.9990 0.0165 0.0417
vn 0.9233 0.0073 -0.3839
vn -0.0000 1.0000 0.0001
vn -0.0003 -1.0000 0.0001
vn 0.9598 0.2806 0.0101
vn 0.6224 0.7509 0.2209
vn 0.6589 0.7522 -0.0069
vn 0.9898 0.1396 0.0276
vn 0.0187 0.0003 -0.9998
vn 0.0439 -0.0074 -0.9990
vn 0.0160 0.0102 -0.9998
vn 0.0119 0.0036 -0.9999
vn 0.5370 0.7428 -0.3998
vn 0.7108 0.6501 0.2685
vn 0.0447 0.0288 0.9986
vn 0.0015 0.0025 1.0000
vn -0.0012 -0.0003 1.0000
vn 0.0061 -0.0001 1.0000
vn 0.9621 0.2724 0.0097
vn 0.9600 0.2800 0.0023
vn 1.0000 -0.0055 -0.0003
vn 1.0000 0.0010 0.0003
vn 0.9066 0.2344 -0.3510
vn 0.9052 0.2350 -0.3540
vn 0.0253 0.0038 -0.9997
vn 0.0119 0.0005 -0.9999
vn 0.0006 -0.0003 -1.0000
vn 0.0001 1.0000 -0.0000
vn -0.0005 1.0000 0.0001
vn 0.1141 0.0115 -0.9934
s 0
f 19//1 11//1 16//1
f 4//2 3//2 7//2
f 13//3 18//3 16//3
f 3//4 4//4 2//4
f 12//5 17//5 5//5
f 24//6 23//6 19//6
f 22//7 17//7 12//7
f 11//8 15//8 16//8
f 6//9 13//9 15//9
f 25//10 8//10 20//10
f 25//11 10//11 23//11
f 7//12 20//12 10//12
f 16//13 18//13 19//13
f 22//14 18//14 17//14
f 6//15 14//15 9//15
f 25//16 24//16 22//16
f 23//17 24//17 25//17
f 11//18 3//18 2//18
f 1//19 2//19 9//19
f 9//20 2//20 14//20
f 2//21 14//21 11//21
f 12//22 5//22 2//22
f 5//23 1//23 2//23
f 2//24 4//24 21//24
f 4//25 8//25 21//25
f 21//26 12//26 2//26
f 5//27 17//27 13//27
f 17//28 18//28 13//28
f 18//29 24//29 19//29
f 16//30 15//30 13//30
f 12//31 21//31 22//31
f 6//32 5//32 13//32
f 25//33 21//33 8//33
f 25//34 20//34 10//34
f 20//35 7//35 8//35
f 4//36 7//36 8//36
f 22//37 24//37 18//37
f 9//38 1//38 6//38
f 6//39 15//39 14//39
f 22//40 21//40 25//40
f 11//41 19//41 3//41
f 19//42 23//42 3//42
f 23//43 10//43 3//43
f 10//44 7//44 3//44
f 14//45 15//45 11//45
f 5//46 6//46 1//46
f 5//47 1//47 12//47
f 1//48 2//48 12//48
f 2//49 4//49 12//49
f 4//50 21//50 12//50
f 22//51 24//51 17//51
f 24//52 18//52 17//52
f 9//53 1//53 14//53
f 14//54 1//54 2//54
f 23//55 18//55 24//55
f 23//56 19//56 18//56
f 19//57 10//57 11//57
f 10//58 7//58 11//58
f 7//59 3//59 11//59
f 10//60 7//60 8//60
f 10//61 8//61 20//61
f 10//62 19//62 23//62
