# Blender 4.0.0
# www.blender.org
o decimated_mesh
v 0.791183 0.386243 0.066179
v 0.791183 0.347309 0.128790
v 0.791185 0.396976 0.066309
v 0.967183 0.347013 0.066018
v 0.791182 0.347296 0.139638
v 0.887762 0.395525 0.066183
v 0.887449 0.391064 0.079760
v 0.952652 0.371117 0.066177
v 0.791183 0.358280 0.137092
v 0.878949 0.353011 0.126596
v 0.791186 0.384994 0.101071
v 0.960490 0.347295 0.087450
v 0.955708 0.357669 0.085933
v 0.917333 0.353719 0.117782
v 0.891845 0.362998 0.117495
v 0.887276 0.382172 0.097101
v 0.940793 0.370064 0.088565
v 0.926937 0.386456 0.066186
v 0.923048 0.347266 0.118589
v 0.924325 0.380739 0.085414
v 0.935197 0.347259 0.112964
vn -0.0011 0.0121 -0.9999
vn -0.1864 -0.8343 -0.5188
vn 0.6320 0.6826 0.3669
vn 0.8609 0.4354 0.2631
vn 0.0450 0.8888 0.4562
vn 0.0960 0.7358 0.6703
vn 0.0125 0.9453 0.3258
vn 0.4053 0.6196 0.6721
vn 0.4799 0.8269 0.2931
vn 0.6521 0.3952 0.6470
vn 0.3781 0.4370 0.8161
vn 0.1554 -0.1644 0.9741
vn 0.0014 0.0057 -1.0000
vn 0.0056 0.0100 -0.9999
vn -0.0002 0.0030 -1.0000
vn 1.0000 -0.0000 0.0001
vn 1.0000 -0.0002 -0.0001
vn 1.0000 -0.0001 -0.0001
vn 1.0000 -0.0001 0.0001
vn 0.8374 0.5034 0.2132
vn 0.0004 1.0000 0.0012
vn -0.0000 1.0000 -0.0048
vn 0.0028 -1.0000 0.0071
vn 0.0214 -0.9996 0.0198
vn 0.0147 0.9498 0.3124
vn 0.3240 0.6906 0.6466
vn 0.2299 0.7342 0.6388
vn 0.2530 0.7151 0.6516
vn 0.4873 0.8168 0.3090
vn 0.2082 0.3008 0.9307
vn 0.5586 0.5382 0.6311
vn 0.1760 0.8752 0.4505
vn 0.1312 0.5698 0.8112
vn 0.1814 0.5240 0.8322
vn 0.2148 0.9278 0.3050
vn 0.2121 0.9270 0.3094
vn 0.0481 0.8023 0.5950
vn 0.1290 0.2239 0.9660
vn -0.0006 1.0000 -0.0053
vn 0.0021 1.0000 0.0012
vn 0.4749 0.8239 0.3094
vn 0.4891 0.8199 0.2977
vn 1.0000 0.0001 0.0001
vn 1.0000 -0.0001 -0.0000
s 0
f 1//1 3//1 6//1
f 1//2 4//2 2//2
f 17//3 13//3 8//3
f 13//4 12//4 4//4
f 16//5 7//5 11//5
f 15//6 16//6 9//6
f 11//7 7//7 3//7
f 21//8 17//8 14//8
f 17//9 8//9 20//9
f 12//10 13//10 21//10
f 21//11 14//11 19//11
f 5//12 19//12 10//12
f 6//13 18//13 4//13
f 18//14 8//14 4//14
f 4//15 1//15 6//15
f 9//16 2//16 11//16
f 11//17 1//17 3//17
f 2//18 1//18 11//18
f 5//19 2//19 9//19
f 4//20 8//20 13//20
f 19//21 2//21 5//21
f 2//22 19//22 4//22
f 19//23 4//23 21//23
f 12//24 21//24 4//24
f 6//25 3//25 7//25
f 17//26 20//26 14//26
f 20//27 16//27 15//27
f 14//28 20//28 15//28
f 8//29 18//29 20//29
f 14//30 10//30 19//30
f 21//31 13//31 17//31
f 16//32 20//32 7//32
f 9//33 10//33 15//33
f 10//34 14//34 15//34
f 18//35 6//35 20//35
f 6//36 7//36 20//36
f 9//37 16//37 11//37
f 10//38 9//38 5//38
f 19//39 4//39 5//39
f 5//40 4//40 2//40
f 20//41 17//41 18//41
f 17//42 8//42 18//42
f 1//43 5//43 2//43
f 9//44 5//44 11//44
f 11//17 5//17 3//17
f 3//17 5//17 1//17
