# Blender 4.0.0
# www.blender.org
o decimated_mesh
v 0.034155 0.164157 0.003570
v 0.034155 0.171006 0.008893
v 0.034155 0.178887 -0.001417
v 0.085179 0.229566 0.000830
v 0.085179 0.222762 0.004684
v 0.085180 0.222886 0.009344
v 0.085175 0.393753 0.016775
v 0.034155 0.373035 0.016892
v 0.085179 0.376865 0.001037
v 0.048433 0.383343 0.016794
v 0.048914 0.365945 0.000200
v 0.085170 0.388334 0.006726
v 0.068889 0.391957 0.016788
v 0.034163 0.334395 -0.001204
v 0.066905 0.376865 0.001697
v 0.055440 0.381540 0.006654
v 0.040993 0.373160 0.007433
v 0.034229 0.364797 0.006396
vn 0.3389 -0.3017 -0.8911
vn 0.5050 -0.4254 -0.7510
vn 0.7539 -0.6567 0.0174
vn 0.5251 -0.5223 0.6719
vn 1.0000 0.0015 -0.0013
vn 1.0000 -0.0000 -0.0000
vn -0.1804 0.7956 -0.5784
vn -0.3814 0.4112 -0.8279
vn -0.0354 0.1927 -0.9806
vn 0.0426 0.0014 -0.9991
vn -0.0035 0.0143 0.9999
vn -0.5426 0.7479 -0.3823
vn -0.3937 0.2237 -0.8916
vn -0.1969 0.4441 -0.8741
vn -0.4648 0.7589 -0.4561
vn 1.0000 -0.0000 0.0003
vn 1.0000 -0.0000 -0.0001
vn 1.0000 -0.0000 0.0005
vn -0.9999 0.0049 -0.0108
vn 1.0000 -0.0001 -0.0000
vn -0.3188 0.4733 -0.8212
vn -0.0970 0.8760 -0.4724
vn 0.0113 0.0392 -0.9992
vn 0.0427 0.0014 -0.9991
vn -0.0323 0.4441 -0.8954
vn -0.6579 0.5901 -0.4678
vn -0.1259 0.5598 -0.8190
vn 0.0314 -0.0395 0.9987
vn 0.0199 -0.0434 0.9989
vn 0.0010 -0.0016 1.0000
vn -0.3563 0.8460 -0.3967
vn 0.0003 0.0050 1.0000
vn -0.0088 0.0217 0.9997
vn 1.0000 -0.0001 0.0006
vn 0.0183 -0.0396 0.9990
vn 0.0353 -0.0434 0.9984
s 0
f 1//1 3//1 4//1
f 1//2 4//2 5//2
f 1//3 5//3 6//3
f 1//4 6//4 2//4
f 12//5 7//5 9//5
f 3//6 2//6 1//6
f 16//7 13//7 12//7
f 17//8 11//8 18//8
f 11//9 15//9 9//9
f 4//10 3//10 14//10
f 10//11 8//11 7//11
f 8//12 10//12 17//12
f 11//13 14//13 18//13
f 11//14 16//14 15//14
f 16//15 17//15 10//15
f 4//6 9//6 6//6
f 6//16 9//16 7//16
f 5//17 4//17 6//17
f 2//18 14//18 8//18
f 14//19 8//19 18//19
f 14//20 2//20 3//20
f 17//21 16//21 11//21
f 13//22 7//22 12//22
f 14//23 11//23 9//23
f 9//24 4//24 14//24
f 9//25 15//25 12//25
f 8//26 17//26 18//26
f 16//27 12//27 15//27
f 8//28 2//28 6//28
f 6//29 7//29 8//29
f 7//30 13//30 10//30
f 16//31 10//31 13//31
f 7//32 13//32 8//32
f 13//33 10//33 8//33
f 14//34 8//34 3//34
f 3//6 8//6 1//6
f 1//6 8//6 2//6
f 2//35 7//35 8//35
f 2//36 6//36 7//36
