mtllib material.mtl
usemtl material_0
v -0.02275440 0.01910686 0.02291264
v -0.01706411 0.02033273 0.02955594
v -0.02376608 0.02033363 0.02390000
v 0.00945029 0.14188970 -0.03493997
v 0.00000000 0.14188970 -0.03623304
v -0.00000000 0.14187210 -0.03756064
v 0.00978884 0.14187280 -0.03622155
v 0.01896921 0.14187170 -0.03285563
v 0.01830898 0.14188970 -0.03171209
v 0.02553376 0.14188970 -0.02565418
v 0.01971501 0.14012760 -0.03414739
v 0.01016821 0.14012770 -0.03765532
v 0.02647435 0.14187280 -0.02658815
v 0.03252847 0.14187220 -0.01878032
v 0.03137873 0.14188970 -0.01811652
v 0.03498404 0.14188970 -0.00928579
v 0.03626319 0.14187280 -0.00963338
v 0.03793842 0.14187170 -0.00000000
v 0.03661797 0.14188970 -0.00000000
v 0.03498405 0.14188970 0.00928579
v 0.03626319 0.14187280 0.00963338
v 0.03252847 0.14187220 0.01878032
v 0.03137873 0.14188970 0.01811652
v 0.02553375 0.14188970 0.02565418
v 0.03381247 0.14012740 0.01952164
v 0.03769457 0.14012770 0.01002173
v 0.02647435 0.14187280 0.02658815
v 0.02752635 0.14012770 0.02763359
v 0.01971501 0.14012760 0.03414741
v 0.01896921 0.14187170 0.03285563
v 0.01830898 0.14188970 0.03171208
v 0.00945029 0.14188970 0.03493997
v 0.00978884 0.14187280 0.03622153
v 0.01016821 0.14012770 0.03765531
v 0.00000000 0.14187210 0.03756064
v -0.00000000 0.14188970 0.03623304
v -0.00945029 0.14188970 0.03493997
v -0.00978884 0.14187280 0.03622155
v -0.01896921 0.14187170 0.03285563
v -0.01830898 0.14188970 0.03171209
v -0.02553376 0.14188970 0.02565417
v -0.02647435 0.14187280 0.02658815
v -0.03252847 0.14187220 0.01878032
v -0.03137873 0.14188970 0.01811652
v -0.03498404 0.14188970 0.00928579
v -0.03626319 0.14187280 0.00963338
v -0.03793842 0.14187170 0.00000000
v -0.03661797 0.14188970 0.00000000
v -0.03498405 0.14188970 -0.00928579
v -0.03626319 0.14187280 -0.00963338
v -0.03252847 0.14187220 -0.01878032
v -0.03137873 0.14188970 -0.01811652
v -0.02553375 0.14188970 -0.02565417
v -0.02647435 0.14187280 -0.02658815
v -0.01896921 0.14187170 -0.03285563
v -0.01830898 0.14188970 -0.03171208
v -0.00945029 0.14188970 -0.03493997
v -0.00978884 0.14187280 -0.03622153
v -0.00000000 0.14187210 -0.03756064
v 0.00000000 0.14188970 -0.03623304
v -0.01971501 0.14012760 -0.03414741
v -0.02752635 0.14012770 -0.02763359
v -0.03381247 0.14012740 -0.01952164
v -0.02900102 0.11638800 -0.02911927
v -0.02077196 0.11638820 -0.03597807
v -0.02967463 0.09323274 -0.02979892
v -0.03562510 0.11638840 -0.02056818
v -0.03645356 0.09323287 -0.02104647
v -0.03636273 0.07237805 -0.02099403
v -0.03769457 0.14012770 -0.01002173
v -0.03971853 0.11638810 -0.01055598
v -0.04064394 0.09323264 -0.01079952
v -0.03943003 0.14012760 0.00000000
v -0.04154390 0.11638820 0.00000000
v -0.04054333 0.07237806 -0.01077195
v -0.04251001 0.09323280 -0.00000000
v -0.04240408 0.07237803 -0.00000000
v -0.03769457 0.14012770 0.01002172
v -0.03971854 0.11638800 0.01055599
v -0.04064395 0.09323274 0.01079952
v -0.03381248 0.14012740 0.01952164
v -0.02752634 0.14012770 0.02763358
v -0.02900102 0.11638810 0.02911927
v -0.03562512 0.11638840 0.02056817
v -0.03645357 0.09323287 0.02104646
v -0.04054333 0.07237806 0.01077195
v -0.03636273 0.07237805 0.02099403
v -0.02960043 0.07237806 0.02972557
v -0.02921281 0.05105402 0.02933737
v -0.02092453 0.05105393 0.03624235
v -0.04001334 0.05105413 0.01063036
v -0.03588681 0.05105401 0.02071926
v -0.04184907 0.05105393 -0.00000000
v -0.03485789 0.02791267 0.02012521
v -0.02837466 0.02791287 0.02849859
v -0.03886782 0.02791275 0.01032387
v -0.04001333 0.05105402 -0.01063035
v -0.04064916 0.02791280 -0.00000000
v -0.03588681 0.05105401 -0.02071926
v -0.02960045 0.07237806 -0.02972557
v -0.03771694 0.01240358 0.01001583
v -0.03382405 0.01240356 0.01952832
v -0.02753243 0.01240358 0.02765591
v -0.01972174 0.01240340 0.03415904
v -0.02032458 0.02791280 0.03520320
v -0.03944347 0.01240340 -0.00000000
v -0.03886783 0.02791287 -0.01032387
v -0.03771692 0.01240358 -0.01001583
v -0.03485790 0.02791267 -0.02012521
v -0.03382404 0.01240356 -0.01952832
v -0.02921282 0.05105413 -0.02933738
v -0.02120204 0.07237803 -0.03672303
v -0.02092453 0.05105393 -0.03624235
v -0.01094288 0.07237806 -0.04049752
v -0.01080050 0.05105402 -0.03996773
v -0.02837465 0.02791275 -0.02849859
v -0.02753244 0.01240358 -0.02765591
v -0.02032457 0.02791280 -0.03520319
v -0.01972174 0.01240340 -0.03415903
v -0.00000000 0.14012740 -0.03904327
v 0.00000000 0.11638840 -0.04113634
v 0.01071752 0.11638800 -0.03967525
v 0.00000000 0.09323287 -0.04209295
v 0.01096932 0.09323274 -0.04059844
v 0.00000000 0.07237805 -0.04198807
v 0.02077195 0.11638820 -0.03597807
v 0.01094288 0.07237806 -0.04049753
v 0.00000000 0.05105401 -0.04143852
v 0.02752635 0.14012770 -0.02763359
v 0.02125500 0.09323280 -0.03681474
v 0.01080051 0.05105413 -0.03996773
v 0.00000000 0.02791267 -0.04025044
v 0.03381248 0.14012740 -0.01952164
v 0.02900103 0.11638810 -0.02911926
v 0.03562513 0.11638840 -0.02056817
v 0.02967463 0.09323264 -0.02979893
v 0.02120204 0.07237803 -0.03672303
v 0.02960043 0.07237806 -0.02972558
v 0.02092453 0.05105393 -0.03624235
v 0.02921281 0.05105402 -0.02933737
v 0.02032458 0.02791280 -0.03520321
v 0.01049318 0.02791275 -0.03882246
v 0.00000000 0.01240356 -0.03905665
v 0.01018451 0.01240358 -0.03767173
v 0.01972174 0.01240340 -0.03415904
v -0.01016821 0.14012770 -0.03765531
v -0.00000000 0.14012740 -0.03904327
v -0.01071751 0.11638810 -0.03967523
v 0.00000000 0.11638840 -0.04113634
v -0.02125499 0.09323280 -0.03681473
v -0.01096932 0.09323264 -0.04059844
v 0.00000000 0.09323287 -0.04209295
v 0.00000000 0.07237805 -0.04198807
v 0.00000000 0.05105401 -0.04143852
v -0.01049317 0.02791287 -0.03882245
v 0.00000000 0.02791267 -0.04025044
v -0.01018451 0.01240358 -0.03767174
v 0.00000000 0.01240356 -0.03905665
v 0.02032457 0.02791280 0.03520319
v 0.02753244 0.01240358 0.02765591
v 0.01972174 0.01240340 0.03415903
v 0.02837465 0.02791275 0.02849859
v 0.02092453 0.05105393 0.03624235
v 0.03382405 0.01240356 0.01952832
v 0.02921282 0.05105413 0.02933738
v 0.02120204 0.07237803 0.03672303
v 0.03485789 0.02791267 0.02012521
v 0.03771693 0.01240358 0.01001583
v 0.02960045 0.07237806 0.02972557
v 0.02125499 0.09323280 0.03681473
v 0.03588681 0.05105401 0.02071926
v 0.03886782 0.02791287 0.01032387
v 0.03944347 0.01240340 -0.00000000
v 0.02967463 0.09323274 0.02979892
v 0.02077196 0.11638820 0.03597807
v 0.03636273 0.07237805 0.02099403
v 0.04001333 0.05105402 0.01063035
v 0.04064916 0.02791280 0.00000000
v 0.03771693 0.01240358 -0.01001583
v 0.02900102 0.11638800 0.02911927
v 0.03645355 0.09323287 0.02104647
v 0.03562511 0.11638840 0.02056818
v 0.04054333 0.07237806 0.01077195
v 0.04184907 0.05105393 0.00000000
v 0.03886783 0.02791275 -0.01032387
v 0.03382405 0.01240356 -0.01952832
v 0.03971853 0.11638810 0.01055598
v 0.04064394 0.09323264 0.01079952
v 0.04240408 0.07237803 0.00000000
v 0.04001335 0.05105413 -0.01063035
v 0.03485789 0.02791267 -0.02012521
v 0.02753243 0.01240358 -0.02765591
v 0.04251001 0.09323280 0.00000000
v 0.04154389 0.11638820 -0.00000000
v 0.04054334 0.07237806 -0.01077195
v 0.03588681 0.05105401 -0.02071925
v 0.02837465 0.02791287 -0.02849859
v 0.03636273 0.07237805 -0.02099403
v 0.04064395 0.09323274 -0.01079952
v 0.03645356 0.09323287 -0.02104647
v 0.03971853 0.11638800 -0.01055598
v 0.03943002 0.14012760 -0.00000000
v 0.03769457 0.14012770 -0.01002173
v -0.01018451 0.01240358 0.03767173
v -0.01049318 0.02791275 0.03882246
v -0.00000000 0.01240356 0.03905665
v -0.00000000 0.02791267 0.04025044
v 0.01018451 0.01240358 0.03767174
v 0.01049317 0.02791287 0.03882245
v 0.01080050 0.05105402 0.03996773
v -0.00000000 0.05105401 0.04143852
v -0.01080051 0.05105413 0.03996773
v 0.01094288 0.07237806 0.04049752
v -0.00000000 0.07237805 0.04198807
v -0.01094288 0.07237806 0.04049753
v -0.02120204 0.07237803 0.03672303
v 0.01096932 0.09323264 0.04059844
v -0.00000000 0.09323287 0.04209295
v -0.01096932 0.09323274 0.04059844
v -0.02967462 0.09323264 0.02979893
v -0.02125500 0.09323280 0.03681474
v -0.02077196 0.11638820 0.03597807
v 0.01071751 0.11638810 0.03967523
v -0.00000000 0.11638840 0.04113634
v -0.01071752 0.11638800 0.03967525
v -0.01971502 0.14012760 0.03414739
v -0.01016821 0.14012770 0.03765532
v 0.00000000 0.14012740 0.03904327
v 0.00911192 0.14187130 -0.03365961
v 0.00000000 0.14009810 -0.03372586
v 0.00000000 0.14187210 -0.03491045
v 0.00881103 0.14009780 -0.03251631
v 0.01705638 0.14009860 -0.02954252
v 0.01765409 0.14187310 -0.03057778
v 0.02459412 0.14187130 -0.02472096
v 0.02375443 0.14009780 -0.02388874
v 0.00928390 0.11637060 -0.03426233
v -0.00000000 0.11637080 -0.03553671
v 0.01797208 0.11637040 -0.03112856
v 0.02503009 0.11637060 -0.02517126
v 0.01839445 0.09322859 -0.03186012
v 0.00950201 0.09322856 -0.03506763
v 0.01834811 0.07238404 -0.03177987
v 0.02561845 0.09322863 -0.02576283
v 0.03077568 0.11637080 -0.01776836
v 0.02920747 0.14009810 -0.01686293
v 0.03431400 0.11637060 -0.00909107
v 0.03512047 0.09322856 -0.00930483
v 0.03149905 0.09322870 -0.01818599
v 0.03503202 0.07238401 -0.00928138
v 0.03141975 0.07238401 -0.01814020
v 0.03456900 0.05107467 -0.00915866
v 0.02555392 0.07238401 -0.02569795
v 0.03100446 0.05107462 -0.01790044
v 0.03326418 0.02795661 -0.00881278
v 0.02521613 0.05107485 -0.02535833
v 0.01810561 0.05107476 -0.03135987
v 0.02983413 0.02795623 -0.01722474
v 0.03258104 0.02033365 -0.00863204
v 0.02922148 0.02033358 -0.01687104
v 0.02426417 0.02795643 -0.02440123
v 0.01742222 0.02795678 -0.03017617
v 0.02376608 0.02033363 -0.02390001
v -0.00911192 0.14187130 -0.03365961
v 0.00000000 0.14187210 -0.03491045
v 0.00000000 0.14009810 -0.03372586
v -0.00881103 0.14009780 -0.03251631
v -0.00000000 0.11637080 -0.03553671
v 0.03023334 0.14187210 -0.01745522
v 0.03370604 0.14187130 -0.00893865
v 0.03530817 0.14187310 -0.00000000
v 0.03370604 0.14187130 0.00893865
v 0.03023334 0.14187210 0.01745523
v 0.02459411 0.14187130 0.02472096
v 0.01765409 0.14187310 0.03057777
v 0.00911192 0.14187130 0.03365961
v -0.00000000 0.14187210 0.03491045
v -0.00911192 0.14187130 0.03365961
v -0.01765409 0.14187310 0.03057778
v -0.02459412 0.14187130 0.02472096
v -0.03023334 0.14187210 0.01745523
v -0.03370604 0.14187130 0.00893865
v -0.03530818 0.14187310 0.00000000
v -0.03370604 0.14187130 -0.00893865
v -0.03023334 0.14187210 -0.01745523
v -0.02459411 0.14187130 -0.02472096
v -0.01765409 0.14187310 -0.03057777
v 0.00881103 0.14009780 0.03251631
v 0.01705638 0.14009860 0.02954251
v 0.02375443 0.14009780 0.02388874
v 0.01797210 0.11637040 0.03112855
v 0.02920745 0.14009810 0.01686295
v 0.02503009 0.11637060 0.02517125
v 0.01839446 0.09322859 0.03186011
v 0.00950203 0.09322863 0.03506764
v 0.03256547 0.14009780 0.00862758
v 0.03077571 0.11637080 0.01776835
v 0.03411277 0.14009860 -0.00000000
v 0.02561844 0.09322856 0.02576280
v 0.03431400 0.11637060 0.00909106
v 0.03256546 0.14009780 -0.00862757
v 0.03594416 0.11637040 -0.00000001
v 0.03149906 0.09322870 0.01818599
v 0.03678890 0.09322859 -0.00000001
v 0.03512048 0.09322863 0.00930482
v 0.03669626 0.07238404 -0.00000001
v 0.03503203 0.07238401 0.00928137
v 0.03141974 0.07238401 0.01814017
v 0.02555392 0.07238401 0.02569792
v 0.03621124 0.05107476 -0.00000001
v 0.03456902 0.05107485 0.00915865
v 0.03100446 0.05107462 0.01790043
v 0.03484447 0.02795678 -0.00000001
v 0.03326418 0.02795643 0.00881276
v 0.03412826 0.02033272 -0.00000001
v 0.03258104 0.02033363 0.00863203
v 0.02922150 0.02033358 0.01687102
v 0.02983413 0.02795623 0.01722473
v 0.02376608 0.02033366 0.02389999
v 0.02426418 0.02795661 0.02440122
v 0.01706414 0.02033273 0.02955593
v 0.02521613 0.05107467 0.02535830
v 0.01742224 0.02795678 0.03017618
v 0.00881497 0.02033364 0.03253203
v 0.01810563 0.05107476 0.03135985
v 0.00900001 0.02795643 0.03321401
v 0.00000001 0.02033357 0.03374206
v 0.00000001 0.02795623 0.03444948
v 0.00935289 0.05107485 0.03451697
v 0.00000001 0.05107462 0.03580087
v 0.01834813 0.07238404 0.03177988
v 0.00947811 0.07238401 0.03497931
v 0.00000001 0.07238401 0.03628039
v 0.00000001 0.09322870 0.03637199
v -0.00000001 0.09322870 -0.03637199
v 0.00947810 0.07238401 -0.03497929
v -0.00000001 0.07238401 -0.03628039
v 0.00935287 0.05107467 -0.03451698
v -0.00000001 0.05107462 -0.03580087
v 0.00899999 0.02795661 -0.03321403
v 0.01706411 0.02033273 -0.02955593
v -0.00000001 0.02795623 -0.03444948
v 0.00881495 0.02033365 -0.03253201
v -0.00000001 0.02033358 -0.03374206
v -0.01797208 0.11637040 0.03112856
v -0.02561845 0.09322863 0.02576283
v -0.01839445 0.09322859 0.03186012
v -0.02555392 0.07238401 0.02569795
v -0.03141975 0.07238401 0.01814020
v -0.03100446 0.05107462 0.01790044
v -0.02521613 0.05107485 0.02535833
v -0.03456901 0.05107467 0.00915866
v -0.03503202 0.07238401 0.00928138
v -0.03149905 0.09322870 0.01818599
v -0.02983413 0.02795623 0.01722474
v -0.02426418 0.02795643 0.02440123
v -0.01810561 0.05107476 0.03135987
v -0.01834811 0.07238404 0.03177987
v -0.03326418 0.02795661 0.00881278
v -0.03484447 0.02795678 0.00000001
v -0.03621124 0.05107476 0.00000001
v -0.03512047 0.09322856 0.00930483
v -0.03669626 0.07238404 0.00000001
v -0.03077569 0.11637080 0.01776836
v -0.02503009 0.11637060 0.02517126
v -0.02375443 0.14009780 0.02388874
v -0.02920747 0.14009810 0.01686293
v -0.03431400 0.11637060 0.00909107
v -0.03256547 0.14009780 0.00862758
v -0.03678890 0.09322859 0.00000001
v -0.03411277 0.14009860 0.00000000
v -0.03256547 0.14009780 -0.00862758
v -0.03594416 0.11637040 0.00000001
v -0.03431400 0.11637060 -0.00909106
v -0.03077570 0.11637080 -0.01776835
v -0.03149907 0.09322870 -0.01818598
v -0.03512048 0.09322863 -0.00930482
v -0.03141974 0.07238401 -0.01814017
v -0.03503203 0.07238401 -0.00928137
v -0.03100446 0.05107462 -0.01790043
v -0.03456902 0.05107485 -0.00915865
v -0.02983413 0.02795623 -0.01722473
v -0.03326418 0.02795643 -0.00881276
v -0.02922150 0.02033358 -0.01687102
v -0.03258104 0.02033363 -0.00863203
v -0.03412826 0.02033272 0.00000001
v -0.00881495 0.02033366 0.03253202
v -0.00899999 0.02795661 0.03321403
v -0.01706411 0.02033273 0.02955594
v -0.01742222 0.02795678 0.03017617
v -0.02376608 0.02033363 0.02390000
v -0.00935287 0.05107467 0.03451697
v -0.02922148 0.02033358 0.01687104
v -0.03258104 0.02033365 0.00863204
v -0.00947810 0.07238401 0.03497929
v -0.00950201 0.09322856 0.03506763
v 0.00000000 0.11637080 0.03553671
v 0.00928391 0.11637060 0.03426233
v -0.00000000 0.14009810 0.03372586
v -0.00928390 0.11637060 0.03426233
v -0.00881103 0.14009780 0.03251631
v -0.01705638 0.14009860 0.02954252
v -0.02376608 0.02033365 -0.02389999
v -0.02426417 0.02795661 -0.02440123
v -0.01706414 0.02033273 -0.02955593
v -0.01742223 0.02795678 -0.03017618
v -0.00881497 0.02033364 -0.03253203
v -0.02521613 0.05107467 -0.02535830
v -0.00900001 0.02795643 -0.03321401
v -0.00000001 0.02033358 -0.03374206
v -0.00000001 0.02795623 -0.03444948
v -0.02555392 0.07238401 -0.02569792
v -0.01810563 0.05107476 -0.03135985
v -0.00935289 0.05107485 -0.03451696
v -0.00000001 0.05107462 -0.03580087
v -0.02561845 0.09322856 -0.02576280
v -0.01834812 0.07238404 -0.03177987
v -0.00947811 0.07238401 -0.03497931
v -0.00000001 0.07238401 -0.03628039
v -0.01839446 0.09322859 -0.03186011
v -0.00950202 0.09322863 -0.03506764
v -0.00000001 0.09322870 -0.03637199
v -0.02503010 0.11637060 -0.02517125
v -0.01797209 0.11637040 -0.03112856
v -0.00928391 0.11637060 -0.03426233
v -0.02920746 0.14009810 -0.01686295
v -0.02375444 0.14009780 -0.02388874
v -0.01705638 0.14009860 -0.02954251
v -0.01637580 0.01910551 0.02836367
v 0.00000000 0.01912292 0.00000000
v -0.00881495 0.02033366 0.03253202
v -0.00846573 0.01910686 0.03116218
v 0.00000001 0.02033357 0.03374206
v 0.00000003 0.01910643 0.03232918
v 0.00881497 0.02033364 0.03253203
v 0.00846573 0.01910684 0.03116220
v 0.01706414 0.02033273 0.02955593
v 0.01637576 0.01910550 0.02836370
v 0.02376608 0.02033366 0.02389999
v 0.02275439 0.01910685 0.02291263
v 0.02922150 0.02033358 0.01687102
v -0.02799788 0.01910642 0.01616462
v 0.02799791 0.01910643 0.01616456
v 0.03122013 0.01910685 0.00824956
v 0.03258104 0.02033363 0.00863203
v 0.03412826 0.02033272 -0.00000001
v -0.02922148 0.02033358 0.01687104
v 0.03275156 0.01910550 0.00000003
v 0.03258104 0.02033365 -0.00863204
v -0.03122012 0.01910686 0.00824957
v -0.03258104 0.02033365 0.00863204
v 0.03122012 0.01910686 -0.00824957
v 0.02922148 0.02033358 -0.01687104
v -0.03275156 0.01910550 -0.00000003
v -0.03412826 0.02033272 0.00000001
v 0.02799788 0.01910642 -0.01616462
v 0.02376608 0.02033363 -0.02390001
v -0.03122013 0.01910685 -0.00824956
v 0.02275440 0.01910684 -0.02291264
v -0.02799791 0.01910643 -0.01616456
v -0.03258104 0.02033363 -0.00863203
v 0.01706411 0.02033273 -0.02955593
v -0.02922150 0.02033358 -0.01687102
v 0.01637580 0.01910549 -0.02836367
v 0.00881495 0.02033365 -0.03253201
v -0.02275439 0.01910685 -0.02291263
v -0.02376608 0.02033365 -0.02389999
v 0.00846573 0.01910686 -0.03116219
v -0.00000001 0.02033358 -0.03374206
v -0.01637576 0.01910550 -0.02836370
v -0.01706414 0.02033273 -0.02955593
v -0.00000003 0.01910643 -0.03232918
v -0.00881497 0.02033364 -0.03253203
v -0.00846573 0.01910684 -0.03116220
vn 0.02967202 0.99916030 -0.02825147
vn 0.48792560 0.21841950 -0.84511630
vn 0.70421380 0.22148700 -0.67455660
vn 0.00023857 0.99999950 -0.00096395
vn -0.00000028 0.99999940 -0.00109471
vn -0.00000036 0.82735070 -0.56168570
vn 0.13413620 0.82966600 -0.54190590
vn 0.28313930 0.82421640 -0.49040750
vn 0.00084008 0.99999860 -0.00145535
vn 0.00070935 0.99999950 -0.00068264
vn 0.49545890 0.13446730 -0.85816020
vn 0.23873990 0.13441870 -0.96173540
vn 0.40223790 0.82966630 -0.38711570
vn 0.48643510 0.82735000 -0.28084310
vn 0.00094238 0.99999940 -0.00054404
vn 0.00094974 0.99999950 -0.00027181
vn 0.53637150 0.82966660 -0.15478710
vn 0.56627570 0.82421590 0.00000000
vn 0.00168347 0.99999860 -0.00000021
vn 0.00094858 0.99999950 0.00027100
vn 0.53637260 0.82966580 0.15478750
vn 0.48643510 0.82734970 0.28084410
vn 0.00094170 0.99999940 0.00054470
vn 0.00070812 0.99999950 0.00068504
vn 0.85820800 0.13405940 0.49548680
vn 0.95225710 0.13441900 0.27411320
vn 0.40223630 0.82966600 0.38711780
vn 0.71351780 0.13441890 0.68762200
vn 0.49545860 0.13446710 0.85816040
vn 0.28313650 0.82421700 0.49040800
vn 0.00083909 0.99999860 0.00145124
vn 0.00023849 0.99999950 0.00095629
vn 0.13413470 0.82966690 0.54190480
vn 0.23873930 0.13441860 0.96173550
vn 0.00000043 0.82735030 0.56168620
vn 0.00000028 0.99999940 0.00109471
vn -0.00023857 0.99999950 0.00096395
vn -0.13413550 0.82966550 0.54190660
vn -0.28313880 0.82421570 0.49040910
vn -0.00084085 0.99999860 0.00145963
vn -0.00071079 0.99999950 0.00068668
vn -0.40223790 0.82966530 0.38711770
vn -0.48643540 0.82734970 0.28084350
vn -0.00094309 0.99999940 0.00054404
vn -0.00094893 0.99999950 0.00027158
vn -0.53637090 0.82966690 0.15478730
vn -0.56627450 0.82421680 0.00000000
vn -0.00168193 0.99999860 0.00000000
vn -0.00094696 0.99999950 -0.00027166
vn -0.53637190 0.82966620 -0.15478750
vn -0.48643500 0.82734980 -0.28084390
vn -0.00094103 0.99999940 -0.00054535
vn -0.00070870 0.99999950 -0.00068684
vn -0.40223620 0.82966620 -0.38711770
vn -0.28313640 0.82421710 -0.49040790
vn -0.00083951 0.99999860 -0.00145296
vn -0.00023848 0.99999950 -0.00095629
vn -0.13413490 0.82966690 -0.54190470
vn -0.00000036 0.82735070 -0.56168570
vn -0.00000028 0.99999940 -0.00109471
vn -0.49545870 0.13446720 -0.85816030
vn -0.71351780 0.13441890 -0.68762200
vn -0.85820790 0.13405940 -0.49548700
vn -0.71847930 0.06431697 -0.69256820
vn -0.49894300 0.06497581 -0.86419560
vn -0.71983650 0.01919887 -0.69387810
vn -0.86423010 0.06435629 -0.49896350
vn -0.86586580 0.01920843 -0.49990750
vn -0.86592210 -0.01545124 -0.49994020
vn -0.95225700 0.13441890 -0.27411350
vn -0.95902130 0.06431709 -0.27593750
vn -0.96083420 0.01919877 -0.27645810
vn -0.99091800 0.13446740 0.00000028
vn -0.99788680 0.06497595 -0.00000010
vn -0.96089120 -0.01543443 -0.27649600
vn -0.99981180 0.01939967 -0.00000028
vn -0.99987840 -0.01559593 -0.00000028
vn -0.95225710 0.13441880 0.27411300
vn -0.95902140 0.06431706 0.27593710
vn -0.96083430 0.01919889 0.27645780
vn -0.85820790 0.13405930 0.49548690
vn -0.71351740 0.13441910 0.68762240
vn -0.71847920 0.06431732 0.69256840
vn -0.86422990 0.06435641 0.49896380
vn -0.86586540 0.01920835 0.49990800
vn -0.96089120 -0.01543441 0.27649580
vn -0.86592160 -0.01545134 0.49994090
vn -0.71989790 -0.01543464 0.69390830
vn -0.71943860 -0.03881978 0.69347040
vn -0.49961560 -0.03922332 0.86535890
vn -0.96028230 -0.03881994 0.27631690
vn -0.86537100 -0.03885833 0.49962280
vn -0.99923050 -0.03922322 -0.00000013
vn -0.86440010 -0.06123700 0.49906150
vn -0.71864400 -0.06117736 0.69268190
vn -0.95920200 -0.06117752 0.27602310
vn -0.96028230 -0.03881991 -0.27631690
vn -0.99808790 -0.06180958 0.00000000
vn -0.86537130 -0.03885831 -0.49962250
vn -0.71989790 -0.01543444 -0.69390830
vn -0.95815180 -0.07662337 0.27581540
vn -0.86347340 -0.07671162 0.49852690
vn -0.71793890 -0.07662354 0.69187610
vn -0.49849830 -0.07745279 0.86342360
vn -0.49904380 -0.06180939 0.86436960
vn -0.99699600 -0.07745271 -0.00000086
vn -0.95920210 -0.06117766 -0.27602300
vn -0.95815180 -0.07662384 -0.27581520
vn -0.86440010 -0.06123704 -0.49906150
vn -0.86347400 -0.07671197 -0.49852580
vn -0.71943830 -0.03881995 -0.69347080
vn -0.49993900 -0.01559599 -0.86592010
vn -0.49961530 -0.03922357 -0.86535890
vn -0.24099350 -0.01543453 -0.97040400
vn -0.24084440 -0.03882015 -0.96978710
vn -0.71864340 -0.06117740 -0.69268240
vn -0.71793820 -0.07662347 -0.69187680
vn -0.49904390 -0.06180938 -0.86436960
vn -0.49849730 -0.07745212 -0.86342420
vn -0.00000020 0.13405910 -0.99097330
vn -0.00000051 0.06435642 -0.99792700
vn 0.24054230 0.06431720 -0.96850540
vn -0.00000066 0.01920857 -0.99981550
vn 0.24099770 0.01919910 -0.97033580
vn -0.00000040 -0.01545137 -0.99988070
vn 0.49894330 0.06497616 -0.86419540
vn 0.24099310 -0.01543457 -0.97040410
vn 0.00000000 -0.03885840 -0.99924470
vn 0.71351740 0.13441900 -0.68762240
vn 0.49990590 0.01939990 -0.86586240
vn 0.24084400 -0.03882005 -0.96978720
vn 0.00000016 -0.06123697 -0.99812320
vn 0.85820820 0.13405930 -0.49548630
vn 0.71847920 0.06431725 -0.69256840
vn 0.86423020 0.06435636 -0.49896340
vn 0.71983660 0.01919863 -0.69387800
vn 0.49993950 -0.01559621 -0.86591990
vn 0.71989800 -0.01543473 -0.69390820
vn 0.49961560 -0.03922339 -0.86535890
vn 0.71943860 -0.03881987 -0.69347040
vn 0.49904380 -0.06180944 -0.86436960
vn 0.24055860 -0.06117753 -0.96870470
vn -0.00000026 -0.07671160 -0.99705340
vn 0.24021350 -0.07662389 -0.96769120
vn 0.49849840 -0.07745292 -0.86342360
vn -0.23873940 0.13441860 -0.96173550
vn -0.00000020 0.13405910 -0.99097330
vn -0.24054230 0.06431712 -0.96850540
vn -0.00000051 0.06435642 -0.99792700
vn -0.49990540 0.01939995 -0.86586270
vn -0.24099820 0.01919904 -0.97033570
vn -0.00000066 0.01920857 -0.99981550
vn -0.00000040 -0.01545137 -0.99988070
vn 0.00000000 -0.03885840 -0.99924470
vn -0.24055920 -0.06117737 -0.96870460
vn 0.00000016 -0.06123697 -0.99812320
vn -0.24021410 -0.07662282 -0.96769120
vn -0.00000026 -0.07671160 -0.99705340
vn 0.49904390 -0.06180939 0.86436960
vn 0.71793850 -0.07662328 0.69187650
vn 0.49849740 -0.07745209 0.86342440
vn 0.71864350 -0.06117741 0.69268230
vn 0.49961530 -0.03922356 0.86535890
vn 0.86347410 -0.07671145 0.49852560
vn 0.71943830 -0.03881998 0.69347070
vn 0.49993890 -0.01559597 0.86592020
vn 0.86440020 -0.06123703 0.49906140
vn 0.95815180 -0.07662319 0.27581540
vn 0.71989790 -0.01543438 0.69390830
vn 0.49990530 0.01939996 0.86586270
vn 0.86537130 -0.03885843 0.49962220
vn 0.95920200 -0.06117756 0.27602320
vn 0.99699600 -0.07745279 0.00000097
vn 0.71983650 0.01919888 0.69387810
vn 0.49894290 0.06497583 0.86419560
vn 0.86592210 -0.01545116 0.49994020
vn 0.96028230 -0.03882007 0.27631700
vn 0.99808790 -0.06180961 0.00000055
vn 0.95815180 -0.07662407 -0.27581540
vn 0.71847940 0.06431701 0.69256830
vn 0.86586580 0.01920841 0.49990750
vn 0.86423020 0.06435624 0.49896330
vn 0.96089110 -0.01543440 0.27649600
vn 0.99923050 -0.03922322 0.00000065
vn 0.95920200 -0.06117776 -0.27602310
vn 0.86347320 -0.07671186 -0.49852720
vn 0.95902140 0.06431708 0.27593730
vn 0.96083420 0.01919875 0.27645810
vn 0.99987840 -0.01559599 0.00000061
vn 0.96028230 -0.03881986 -0.27631690
vn 0.86439990 -0.06123712 -0.49906190
vn 0.71793870 -0.07662349 -0.69187620
vn 0.99981180 0.01939983 0.00000045
vn 0.99788680 0.06497609 0.00000000
vn 0.96089120 -0.01543444 -0.27649600
vn 0.86537090 -0.03885832 -0.49962310
vn 0.71864400 -0.06117734 -0.69268180
vn 0.86592160 -0.01545136 -0.49994110
vn 0.96083430 0.01919902 -0.27645770
vn 0.86586540 0.01920830 -0.49990800
vn 0.95902150 0.06431718 -0.27593680
vn 0.99091800 0.13446720 -0.00000032
vn 0.95225720 0.13441870 -0.27411270
vn -0.24021360 -0.07662375 0.96769120
vn -0.24055870 -0.06117750 0.96870470
vn 0.00000026 -0.07671157 0.99705340
vn -0.00000016 -0.06123696 0.99812320
vn 0.24021410 -0.07662282 0.96769120
vn 0.24055920 -0.06117737 0.96870460
vn 0.24084440 -0.03882015 0.96978710
vn 0.00000000 -0.03885840 0.99924470
vn -0.24084400 -0.03882005 0.96978720
vn 0.24099350 -0.01543453 0.97040400
vn 0.00000040 -0.01545137 0.99988070
vn -0.24099310 -0.01543457 0.97040410
vn -0.49993970 -0.01559616 0.86591980
vn 0.24099820 0.01919905 0.97033570
vn 0.00000066 0.01920858 0.99981550
vn -0.24099770 0.01919909 0.97033580
vn -0.71983670 0.01919853 0.69387790
vn -0.49990610 0.01939975 0.86586240
vn -0.49894350 0.06497616 0.86419540
vn 0.24054240 0.06431714 0.96850540
vn 0.00000051 0.06435645 0.99792700
vn -0.24054240 0.06431720 0.96850540
vn -0.49545910 0.13446740 0.85816000
vn -0.23874000 0.13441860 0.96173540
vn 0.00000021 0.13405910 0.99097330
vn -0.13248600 0.83215200 0.53848930
vn 0.00000011 -0.02304405 0.99973450
vn -0.00000032 0.83749750 0.54644110
vn -0.23800970 -0.02348774 0.97097870
vn -0.49987090 -0.02274703 0.86580120
vn -0.26799530 0.84422450 0.46418050
vn -0.40010420 0.83215080 0.38398140
vn -0.72188720 -0.02348752 0.69161210
vn -0.23787360 -0.05583877 0.96968980
vn -0.00000019 -0.05589610 0.99843660
vn -0.49920100 -0.05649885 0.86464230
vn -0.72083910 -0.05583880 0.69084940
vn -0.49992720 -0.01695419 0.86590140
vn -0.23821930 -0.01675456 0.97106690
vn -0.49995230 0.01365213 0.86594530
vn -0.72185920 -0.01675500 0.69183720
vn -0.86467150 -0.05589588 0.49921820
vn -0.86579560 -0.02304374 0.49986710
vn -0.95871280 -0.05583871 0.27884050
vn -0.96007810 -0.01675496 0.27923010
vn -0.86590370 -0.01677283 0.49992940
vn -0.96012090 0.01348469 0.27925990
vn -0.86594680 0.01350102 0.49995390
vn -0.95941100 0.04084042 0.27903860
vn -0.72190600 0.01348472 0.69185960
vn -0.86530150 0.04088345 0.49958170
vn -0.95807100 0.06648393 0.27871110
vn -0.72135950 0.04084026 0.69135550
vn -0.49957240 0.04132936 0.86528560
vn -0.86410530 0.06655314 0.49889160
vn -0.93628980 0.22148620 0.27259000
vn -0.84455260 0.22130550 0.48760090
vn -0.72040570 0.06648410 0.69035890
vn -0.49886710 0.06729497 0.86406180
vn -0.70421370 0.22148660 0.67455670
vn 0.13248580 0.83215000 0.53849230
vn -0.00000032 0.83749750 0.54644110
vn 0.00000011 -0.02304405 0.99973450
vn 0.23801000 -0.02348783 0.97097870
vn -0.00000019 -0.05589610 0.99843660
vn -0.47323330 0.83749650 0.27322110
vn -0.53259070 0.83215030 0.15450920
vn -0.53599170 0.84422320 -0.00000040
vn -0.53259090 0.83214990 -0.15451050
vn -0.47323300 0.83749670 -0.27322120
vn -0.40010490 0.83215030 -0.38398170
vn -0.26799560 0.84422340 -0.46418240
vn -0.13248580 0.83215000 -0.53849210
vn 0.00000033 0.83749760 -0.54644090
vn 0.13248590 0.83215210 -0.53848890
vn 0.26799520 0.84422470 -0.46418020
vn 0.40010410 0.83215080 -0.38398140
vn 0.47323370 0.83749630 -0.27322130
vn 0.53259180 0.83214940 -0.15451000
vn 0.53599180 0.84422320 0.00000000
vn 0.53259180 0.83214960 0.15450920
vn 0.47323450 0.83749600 0.27322070
vn 0.40010580 0.83215010 0.38398120
vn 0.26799610 0.84422390 0.46418120
vn -0.23801030 -0.02348779 -0.97097860
vn -0.49987070 -0.02274723 -0.86580120
vn -0.72188680 -0.02348766 -0.69161230
vn -0.49920190 -0.05649879 -0.86464170
vn -0.86579520 -0.02304405 -0.49986760
vn -0.72083890 -0.05583868 -0.69084970
vn -0.49992890 -0.01695441 -0.86590050
vn -0.23821960 -0.01675494 -0.97106680
vn -0.95989720 -0.02348770 -0.27936660
vn -0.86467120 -0.05589593 -0.49921880
vn -0.99974130 -0.02274708 0.00000030
vn -0.72185940 -0.01675475 -0.69183700
vn -0.95871290 -0.05583873 -0.27883990
vn -0.95989720 -0.02348751 0.27936670
vn -0.99840270 -0.05649874 0.00000057
vn -0.86590310 -0.01677246 -0.49993040
vn -0.99985620 -0.01695458 0.00000075
vn -0.96007820 -0.01675498 -0.27922960
vn -0.99990680 0.01365225 0.00000099
vn -0.96012080 0.01348485 -0.27926000
vn -0.86594610 0.01350115 -0.49995510
vn -0.72190690 0.01348471 -0.69185880
vn -0.99914560 0.04132954 0.00000047
vn -0.95941100 0.04084030 -0.27903880
vn -0.86530110 0.04088335 -0.49958240
vn -0.99773310 0.06729451 -0.00000038
vn -0.95807100 0.06648403 -0.27871090
vn -0.97585490 0.21841960 0.00000182
vn -0.93628970 0.22148690 -0.27258960
vn -0.84455140 0.22130490 -0.48760330
vn -0.86410550 0.06655311 -0.49889130
vn -0.70421500 0.22148520 -0.67455580
vn -0.72040650 0.06648386 -0.69035820
vn -0.48792970 0.21841880 -0.84511410
vn -0.72136010 0.04084045 -0.69135480
vn -0.49886670 0.06729445 -0.86406220
vn -0.23207540 0.22148690 -0.94714550
vn -0.49957330 0.04132950 -0.86528520
vn -0.23766510 0.06648397 -0.96906920
vn 0.00000097 0.22130660 -0.97520430
vn -0.00000116 0.06655326 -0.99778290
vn -0.23805150 0.04084016 -0.97039350
vn -0.00000045 0.04088321 -0.99916400
vn -0.49995410 0.01365223 -0.86594430
vn -0.23821500 0.01348481 -0.97111880
vn 0.00000041 0.01350115 -0.99990890
vn 0.00000050 -0.01677253 -0.99985930
vn -0.00000046 -0.01677250 0.99985930
vn -0.23821470 0.01348462 0.97111890
vn -0.00000023 0.01350118 0.99990890
vn -0.23805100 0.04084018 0.97039370
vn 0.00000062 0.04088323 0.99916390
vn -0.23766470 0.06648453 0.96906930
vn -0.48792560 0.21841920 0.84511640
vn 0.00000116 0.06655331 0.99778290
vn -0.23207550 0.22148710 0.94714540
vn -0.00000127 0.22130640 0.97520430
vn 0.49920090 -0.05649886 -0.86464230
vn 0.72185900 -0.01675494 -0.69183730
vn 0.49992710 -0.01695416 -0.86590150
vn 0.72190600 0.01348477 -0.69185960
vn 0.86594680 0.01350105 -0.49995390
vn 0.86530150 0.04088346 -0.49958170
vn 0.72135940 0.04084028 -0.69135560
vn 0.95941100 0.04084044 -0.27903870
vn 0.96012090 0.01348472 -0.27925980
vn 0.86590390 -0.01677277 -0.49992920
vn 0.86410530 0.06655318 -0.49889160
vn 0.72040580 0.06648417 -0.69035880
vn 0.49957240 0.04132936 -0.86528560
vn 0.49995230 0.01365216 -0.86594540
vn 0.95807100 0.06648393 -0.27871120
vn 0.99773310 0.06729451 0.00000042
vn 0.99914560 0.04132954 -0.00000039
vn 0.96007810 -0.01675496 -0.27923000
vn 0.99990680 0.01365225 -0.00000093
vn 0.86467150 -0.05589579 -0.49921830
vn 0.72083910 -0.05583882 -0.69084940
vn 0.72188690 -0.02348766 -0.69161220
vn 0.86579530 -0.02304398 -0.49986750
vn 0.95871280 -0.05583853 -0.27884030
vn 0.95989720 -0.02348763 -0.27936660
vn 0.99985620 -0.01695458 -0.00000072
vn 0.99974130 -0.02274716 0.00000040
vn 0.95989720 -0.02348768 0.27936650
vn 0.99840270 -0.05649869 -0.00000018
vn 0.95871290 -0.05583875 0.27883990
vn 0.86467140 -0.05589592 0.49921830
vn 0.86590330 -0.01677252 0.49993020
vn 0.96007820 -0.01675504 0.27922960
vn 0.86594620 0.01350118 0.49995490
vn 0.96012090 0.01348479 0.27926000
vn 0.86530110 0.04088338 0.49958230
vn 0.95941100 0.04084032 0.27903870
vn 0.86410540 0.06655312 0.49889130
vn 0.95807100 0.06648408 0.27871090
vn 0.84455140 0.22130480 0.48760340
vn 0.93628970 0.22148690 0.27258960
vn 0.97585490 0.21841960 -0.00000182
vn 0.23207510 0.22148740 -0.94714540
vn 0.23766470 0.06648426 -0.96906930
vn 0.48792560 0.21841950 -0.84511630
vn 0.49886720 0.06729484 -0.86406180
vn 0.70421380 0.22148700 -0.67455660
vn 0.23805110 0.04084013 -0.97039360
vn 0.84455260 0.22130560 -0.48760090
vn 0.93628970 0.22148630 -0.27259010
vn 0.23821470 0.01348465 -0.97111890
vn 0.23821930 -0.01675455 -0.97106690
vn 0.00000018 -0.05589612 -0.99843660
vn -0.23787420 -0.05583889 -0.96968950
vn -0.00000012 -0.02304405 -0.99973450
vn 0.23787360 -0.05583878 -0.96968980
vn 0.23800970 -0.02348774 -0.97097870
vn 0.49987060 -0.02274707 -0.86580120
vn 0.70421480 0.22148510 0.67455610
vn 0.72040620 0.06648378 0.69035840
vn 0.48792960 0.21841860 0.84511420
vn 0.49886650 0.06729434 0.86406230
vn 0.23207560 0.22148690 0.94714540
vn 0.72136000 0.04084038 0.69135500
vn 0.23766500 0.06648385 0.96906920
vn -0.00000127 0.22130640 0.97520430
vn 0.00000116 0.06655331 0.99778290
vn 0.72190670 0.01348484 0.69185910
vn 0.49957310 0.04132938 0.86528520
vn 0.23805160 0.04084008 0.97039350
vn 0.00000062 0.04088323 0.99916390
vn 0.72185920 -0.01675463 0.69183720
vn 0.49995370 0.01365232 0.86594450
vn 0.23821520 0.01348488 0.97111870
vn -0.00000023 0.01350118 0.99990890
vn 0.49992860 -0.01695418 0.86590070
vn 0.23821960 -0.01675479 0.97106680
vn -0.00000046 -0.01677250 0.99985930
vn 0.72083890 -0.05583867 0.69084970
vn 0.49920150 -0.05649881 0.86464200
vn 0.23787390 -0.05583887 0.96968970
vn 0.86579560 -0.02304396 0.49986690
vn 0.72188690 -0.02348767 0.69161220
vn 0.49987070 -0.02274740 0.86580120
vn 0.02198898 0.99903250 -0.03808656
vn 0.00000000 1.00000000 0.00000000
vn 0.23207510 0.22148740 -0.94714540
vn 0.00963013 0.99916030 -0.03982285
vn 0.00000097 0.22130660 -0.97520430
vn 0.00000041 0.99908540 -0.04276061
vn -0.23207540 0.22148690 -0.94714550
vn -0.00962948 0.99916040 -0.03982244
vn -0.48792970 0.21841880 -0.84511410
vn -0.02198916 0.99903250 -0.03808612
vn -0.70421500 0.22148520 -0.67455580
vn -0.02967289 0.99916030 -0.02825071
vn -0.84455140 0.22130490 -0.48760330
vn 0.03703178 0.99908540 -0.02138042
vn -0.03703186 0.99908540 -0.02138026
vn -0.03930215 0.99916030 -0.01157187
vn -0.93628970 0.22148690 -0.27258960
vn -0.97585490 0.21841960 0.00000182
vn 0.84455260 0.22130560 -0.48760090
vn -0.04397826 0.99903250 -0.00000030
vn -0.93628980 0.22148620 0.27259000
vn 0.03930271 0.99916030 -0.01157139
vn 0.93628970 0.22148630 -0.27259010
vn -0.03930269 0.99916030 0.01157138
vn -0.84455260 0.22130550 0.48760090
vn 0.04397828 0.99903250 0.00000014
vn 0.97585490 0.21841960 -0.00000182
vn -0.03703199 0.99908530 0.02138019
vn -0.70421370 0.22148660 0.67455670
vn 0.03930221 0.99916040 0.01157155
vn -0.02967243 0.99916030 0.02825110
vn 0.03703182 0.99908540 0.02138035
vn 0.93628970 0.22148690 0.27258960
vn -0.48792560 0.21841920 0.84511640
vn 0.84455140 0.22130480 0.48760340
vn -0.02198884 0.99903250 0.03808655
vn -0.23207550 0.22148710 0.94714540
vn 0.02967278 0.99916030 0.02825117
vn 0.70421480 0.22148510 0.67455610
vn -0.00962945 0.99916030 0.03982307
vn -0.00000127 0.22130640 0.97520430
vn 0.02198909 0.99903250 0.03808632
vn 0.48792960 0.21841860 0.84511420
vn 0.00000000 0.99908540 0.04276071
vn 0.23207560 0.22148690 0.94714540
vn 0.00962946 0.99916040 0.03982247
vt 0.09020601 2.08911600
vt 0.12982030 2.04184700
vt 0.08259043 2.08169200
vt 0.95798930 2.99713700
vt 1.00003000 2.99713700
vt 1.00003000 2.99198200
vt 0.95801450 2.99198200
vt 0.91669690 2.99198200
vt 0.91669690 2.99713700
vt 0.87540450 2.99713700
vt 0.91669690 2.98567200
vt 0.95803840 2.98567200
vt 0.87537930 2.99198200
vt 0.83336350 2.99198200
vt 0.83336350 2.99713700
vt 0.79132260 2.99713700
vt 0.79134790 2.99198200
vt 0.75003020 2.99198200
vt 0.75003020 2.99713700
vt 0.70873770 2.99713700
vt 0.70871260 2.99198200
vt 0.66669690 2.99198200
vt 0.66669690 2.99713700
vt 0.62465600 2.99713700
vt 0.66669690 2.98567200
vt 0.70868860 2.98567200
vt 0.62468110 2.99198200
vt 0.62470510 2.98567200
vt 0.58336350 2.98567200
vt 0.58336350 2.99198200
vt 0.58336350 2.99713700
vt 0.54207110 2.99713700
vt 0.54204600 2.99198200
vt 0.54202190 2.98567200
vt 0.50003020 2.99198200
vt 0.50003020 2.99713700
vt 0.45798930 2.99713700
vt 0.45801450 2.99198200
vt 0.41669680 2.99198200
vt 0.41669690 2.99713700
vt 0.37540440 2.99713700
vt 0.37537930 2.99198200
vt 0.33336350 2.99198200
vt 0.33336350 2.99713700
vt 0.29132260 2.99713700
vt 0.29134780 2.99198200
vt 0.25003020 2.99198200
vt 0.25003020 2.99713700
vt 0.20873780 2.99713700
vt 0.20871260 2.99198200
vt 0.16669690 2.99198200
vt 0.16669680 2.99713700
vt 0.12465600 2.99713700
vt 0.12468110 2.99198200
vt 0.08336353 2.99198200
vt 0.08336353 2.99713700
vt 0.04207107 2.99713700
vt 0.04204592 2.99198200
vt 0.00003019 2.99198200
vt 0.00003019 2.99713700
vt 0.08336353 2.98567200
vt 0.12470510 2.98567200
vt 0.16669690 2.98567200
vt 0.12469010 2.90210300
vt 0.08336353 2.90210400
vt 0.12468160 2.81257400
vt 0.16669680 2.90210500
vt 0.16669680 2.81257400
vt 0.16669680 2.73193400
vt 0.20868860 2.98567200
vt 0.20870360 2.90210400
vt 0.20871210 2.81257400
vt 0.25003020 2.98567200
vt 0.25003020 2.90210400
vt 0.20871520 2.73193400
vt 0.25003020 2.81257400
vt 0.25003020 2.73193400
vt 0.29137180 2.98567200
vt 0.29135680 2.90210300
vt 0.29134820 2.81257400
vt 0.33336350 2.98567200
vt 0.37535520 2.98567200
vt 0.37537030 2.90210400
vt 0.33336350 2.90210500
vt 0.33336350 2.81257400
vt 0.29134510 2.73193400
vt 0.33336350 2.73193400
vt 0.37538190 2.73193400
vt 0.37538500 2.64947100
vt 0.41669680 2.64947100
vt 0.29134200 2.64947100
vt 0.33336350 2.64947100
vt 0.25003020 2.64947100
vt 0.33336350 2.55997900
vt 0.37539370 2.55998000
vt 0.29133330 2.55998000
vt 0.20871840 2.64947100
vt 0.25003020 2.55998000
vt 0.16669690 2.64947100
vt 0.12467850 2.73193400
vt 0.29132340 2.50000000
vt 0.33336350 2.50000000
vt 0.37540360 2.50000000
vt 0.41669680 2.50000000
vt 0.41669680 2.55998000
vt 0.25003020 2.50000000
vt 0.20872710 2.55998000
vt 0.20873700 2.50000000
vt 0.16669680 2.55997900
vt 0.16669680 2.50000000
vt 0.12467540 2.64947100
vt 0.08336353 2.73193400
vt 0.08336353 2.64947100
vt 0.04204857 2.73193400
vt 0.04205170 2.64947100
vt 0.12466660 2.55998000
vt 0.12465670 2.50000000
vt 0.08336353 2.55998000
vt 0.08336353 2.50000000
vt 1.00003000 2.98567200
vt 1.00003000 2.90210500
vt 0.95802340 2.90210300
vt 1.00003000 2.81257400
vt 0.95801500 2.81257400
vt 1.00003000 2.73193400
vt 0.91669690 2.90210400
vt 0.95801190 2.73193400
vt 1.00003000 2.64947100
vt 0.87535520 2.98567200
vt 0.91669690 2.81257400
vt 0.95800880 2.64947100
vt 1.00003000 2.55997900
vt 0.83336350 2.98567200
vt 0.87537030 2.90210400
vt 0.83336350 2.90210500
vt 0.87537880 2.81257400
vt 0.91669690 2.73193400
vt 0.87538190 2.73193400
vt 0.91669690 2.64947100
vt 0.87538500 2.64947100
vt 0.91669690 2.55998000
vt 0.95799990 2.55998000
vt 1.00003000 2.50000000
vt 0.95799010 2.50000000
vt 0.91669690 2.50000000
vt 0.04202193 2.98567200
vt 0.00003019 2.98567200
vt 0.04203695 2.90210400
vt 0.00003019 2.90210500
vt 0.08336353 2.81257400
vt 0.04204547 2.81257400
vt 0.00003019 2.81257400
vt 0.00003019 2.73193400
vt 0.00003019 2.64947100
vt 0.04206043 2.55998000
vt 0.00003019 2.55997900
vt 0.04207033 2.50000000
vt 0.00003019 2.50000000
vt 0.58336350 2.55998000
vt 0.62465670 2.50000000
vt 0.58336350 2.50000000
vt 0.62466660 2.55998000
vt 0.58336350 2.64947100
vt 0.66669680 2.50000000
vt 0.62467540 2.64947100
vt 0.58336350 2.73193400
vt 0.66669690 2.55997900
vt 0.70873700 2.50000000
vt 0.62467850 2.73193400
vt 0.58336350 2.81257400
vt 0.66669690 2.64947100
vt 0.70872710 2.55998000
vt 0.75003020 2.50000000
vt 0.62468160 2.81257400
vt 0.58336350 2.90210400
vt 0.66669690 2.73193400
vt 0.70871830 2.64947100
vt 0.75003020 2.55998000
vt 0.79132340 2.50000000
vt 0.62469010 2.90210300
vt 0.66669680 2.81257400
vt 0.66669690 2.90210500
vt 0.70871520 2.73193400
vt 0.75003020 2.64947100
vt 0.79133330 2.55998000
vt 0.83336350 2.50000000
vt 0.70870360 2.90210400
vt 0.70871210 2.81257400
vt 0.75003020 2.73193400
vt 0.79134200 2.64947100
vt 0.83336350 2.55997900
vt 0.87540360 2.50000000
vt 0.75003020 2.81257400
vt 0.75003020 2.90210400
vt 0.79134510 2.73193400
vt 0.83336350 2.64947100
vt 0.87539370 2.55998000
vt 0.83336350 2.73193400
vt 0.79134820 2.81257400
vt 0.83336350 2.81257400
vt 0.79135680 2.90210300
vt 0.75003020 2.98567200
vt 0.79137180 2.98567200
vt 0.45799010 2.50000000
vt 0.45799990 2.55998000
vt 0.50003020 2.50000000
vt 0.50003020 2.55997900
vt 0.54207030 2.50000000
vt 0.54206040 2.55998000
vt 0.54205170 2.64947100
vt 0.50003020 2.64947100
vt 0.45800870 2.64947100
vt 0.54204860 2.73193400
vt 0.50003020 2.73193400
vt 0.45801180 2.73193400
vt 0.41669680 2.73193400
vt 0.54204550 2.81257400
vt 0.50003020 2.81257400
vt 0.45801490 2.81257400
vt 0.37537880 2.81257400
vt 0.41669680 2.81257400
vt 0.41669680 2.90210400
vt 0.54203700 2.90210400
vt 0.50003020 2.90210500
vt 0.45802340 2.90210300
vt 0.41669680 2.98567200
vt 0.45803840 2.98567200
vt 0.50003020 2.98567200
vt 0.95796240 2.99198200
vt 1.00003000 2.98567200
vt 1.00003000 2.99198200
vt 0.95793650 2.98567200
vt 0.91669690 2.98567200
vt 0.91669690 2.99198200
vt 0.87543140 2.99198200
vt 0.87545720 2.98567200
vt 0.95793650 2.90213300
vt 1.00003000 2.90213300
vt 0.91669690 2.90213200
vt 0.87545720 2.90213200
vt 0.91669690 2.81258500
vt 0.95793650 2.81258500
vt 0.91669690 2.73193400
vt 0.87545730 2.81258500
vt 0.83336350 2.90213300
vt 0.83336350 2.98567200
vt 0.79126990 2.90213300
vt 0.79126990 2.81258500
vt 0.83336350 2.81258500
vt 0.79126990 2.73193400
vt 0.83336350 2.73193400
vt 0.79126990 2.64948800
vt 0.87545730 2.73193400
vt 0.83336350 2.64948800
vt 0.79126990 2.56003100
vt 0.87545720 2.64948800
vt 0.91669690 2.64948800
vt 0.83336350 2.56003000
vt 0.79126990 2.53026300
vt 0.83336370 2.53026300
vt 0.87545730 2.56003100
vt 0.91669690 2.56003100
vt 0.87545730 2.53026300
vt 0.04209805 2.99198200
vt 0.00003019 2.99198200
vt 0.00003019 2.98567200
vt 0.04212385 2.98567200
vt 0.00003019 2.90213300
vt 0.83336350 2.99198200
vt 0.79129560 2.99198200
vt 0.75003020 2.99198200
vt 0.70876470 2.99198200
vt 0.66669680 2.99198200
vt 0.62462900 2.99198200
vt 0.58336350 2.99198200
vt 0.54209800 2.99198200
vt 0.50003020 2.99198200
vt 0.45796230 2.99198200
vt 0.41669690 2.99198200
vt 0.37543140 2.99198200
vt 0.33336350 2.99198200
vt 0.29129570 2.99198200
vt 0.25003020 2.99198200
vt 0.20876470 2.99198200
vt 0.16669680 2.99198200
vt 0.12462900 2.99198200
vt 0.08336353 2.99198200
vt 0.54212390 2.98567200
vt 0.58336350 2.98567200
vt 0.62460320 2.98567200
vt 0.58336350 2.90213200
vt 0.66669680 2.98567200
vt 0.62460320 2.90213300
vt 0.58336350 2.81258500
vt 0.54212390 2.81258500
vt 0.70879050 2.98567200
vt 0.66669690 2.90213300
vt 0.75003020 2.98567200
vt 0.62460320 2.81258500
vt 0.70879050 2.90213200
vt 0.79126990 2.98567200
vt 0.75003030 2.90213200
vt 0.66669690 2.81258500
vt 0.75003030 2.81258500
vt 0.70879050 2.81258500
vt 0.75003030 2.73193400
vt 0.70879050 2.73193400
vt 0.66669690 2.73193400
vt 0.62460330 2.73193400
vt 0.75003030 2.64948800
vt 0.70879050 2.64948800
vt 0.66669690 2.64948800
vt 0.75003030 2.56003100
vt 0.70879050 2.56003100
vt 0.75003030 2.53026300
vt 0.70879050 2.53026300
vt 0.66669690 2.53026300
vt 0.66669690 2.56003000
vt 0.62460330 2.53026300
vt 0.62460330 2.56003100
vt 0.58336360 2.53026300
vt 0.62460330 2.64948800
vt 0.58336350 2.56003100
vt 0.54212390 2.53026300
vt 0.58336350 2.64948800
vt 0.54212390 2.56003100
vt 0.50003030 2.53026300
vt 0.50003030 2.56003000
vt 0.54212390 2.64948800
vt 0.50003020 2.64948800
vt 0.58336350 2.73193400
vt 0.54212390 2.73193400
vt 0.50003020 2.73193400
vt 0.50003020 2.81258500
vt 1.00003000 2.81258500
vt 0.95793650 2.73193400
vt 1.00003000 2.73193400
vt 0.95793650 2.64948800
vt 1.00003000 2.64948800
vt 0.95793650 2.56003100
vt 0.91669690 2.53026300
vt 1.00003000 2.56003000
vt 0.95793650 2.53026300
vt 1.00003000 2.53026300
vt 0.41669680 2.90213200
vt 0.37545720 2.81258500
vt 0.41669690 2.81258500
vt 0.37545720 2.73193400
vt 0.33336350 2.73193400
vt 0.33336350 2.64948800
vt 0.37545720 2.64948800
vt 0.29126990 2.64948800
vt 0.29126990 2.73193400
vt 0.33336350 2.81258500
vt 0.33336360 2.56003000
vt 0.37545720 2.56003100
vt 0.41669690 2.64948800
vt 0.41669690 2.73193400
vt 0.29126990 2.56003100
vt 0.25003020 2.56003100
vt 0.25003020 2.64948800
vt 0.29126990 2.81258500
vt 0.25003020 2.73193400
vt 0.33336350 2.90213300
vt 0.37545720 2.90213200
vt 0.37545720 2.98567200
vt 0.33336350 2.98567200
vt 0.29126990 2.90213300
vt 0.29126990 2.98567200
vt 0.25003020 2.81258500
vt 0.25003020 2.98567200
vt 0.20879050 2.98567200
vt 0.25003020 2.90213200
vt 0.20879050 2.90213200
vt 0.16669690 2.90213300
vt 0.16669690 2.81258500
vt 0.20879050 2.81258500
vt 0.16669690 2.73193400
vt 0.20879050 2.73193400
vt 0.16669690 2.64948800
vt 0.20879050 2.64948800
vt 0.16669690 2.56003000
vt 0.20879060 2.56003100
vt 0.16669690 2.53026300
vt 0.20879060 2.53026300
vt 0.25003020 2.53026300
vt 0.45793660 2.53026300
vt 0.45793660 2.56003100
vt 0.41669690 2.53026300
vt 0.41669690 2.56003100
vt 0.37545720 2.53026300
vt 0.45793660 2.64948800
vt 0.33336360 2.53026300
vt 0.29126990 2.53026300
vt 0.45793660 2.73193400
vt 0.45793660 2.81258500
vt 0.50003020 2.90213300
vt 0.54212390 2.90213200
vt 0.50003020 2.98567200
vt 0.45793660 2.90213300
vt 0.45793650 2.98567200
vt 0.41669690 2.98567200
vt 0.12460320 2.53026300
vt 0.12460320 2.56003100
vt 0.08336359 2.53026300
vt 0.08336359 2.56003100
vt 0.04212388 2.53026300
vt 0.12460320 2.64948800
vt 0.04212388 2.56003100
vt 0.00003025 2.53026300
vt 0.00003025 2.56003000
vt 0.12460320 2.73193400
vt 0.08336359 2.64948800
vt 0.04212388 2.64948800
vt 0.00003022 2.64948800
vt 0.12460320 2.81258500
vt 0.08336356 2.73193400
vt 0.04212388 2.73193400
vt 0.00003022 2.73193400
vt 0.08336356 2.81258500
vt 0.04212385 2.81258500
vt 0.00003022 2.81258500
vt 0.12460320 2.90213300
vt 0.08336356 2.90213200
vt 0.04212385 2.90213200
vt 0.16669680 2.98567200
vt 0.12460320 2.98567200
vt 0.08336353 2.98567200
vt 0.13499900 2.05081700
vt 0.24999700 2.24999900
vt 0.18794200 2.02086700
vt 0.19056370 2.03117500
vt 0.24999710 2.01235400
vt 0.24999730 2.02297700
vt 0.31205220 2.02086700
vt 0.30943040 2.03117500
vt 0.37017400 2.04184700
vt 0.36499480 2.05081700
vt 0.41740360 2.08169200
vt 0.40978800 2.08911600
vt 0.45580430 2.13117700
vt 0.05339020 2.13648800
vt 0.44660400 2.13648800
vt 0.46922140 2.19205800
vt 0.47945880 2.18917500
vt 0.49035070 2.25000000
vt 0.04418992 2.13117600
vt 0.47999280 2.24999900
vt 0.47945870 2.31082400
vt 0.03077275 2.19205800
vt 0.02053536 2.18917500
vt 0.46922130 2.30794100
vt 0.45580410 2.36882200
vt 0.02000122 2.25000000
vt 0.00964333 2.24999900
vt 0.44660380 2.36351100
vt 0.41740360 2.41830700
vt 0.03077269 2.30794100
vt 0.40978810 2.41088200
vt 0.05339003 2.36351000
vt 0.02053528 2.31082400
vt 0.37017380 2.45815200
vt 0.04418981 2.36882200
vt 0.36499510 2.44918100
vt 0.31205200 2.47913100
vt 0.09020604 2.41088200
vt 0.08259043 2.41830600
vt 0.30943040 2.46882400
vt 0.24999690 2.48764500
vt 0.13499930 2.44918200
vt 0.12982010 2.45815200
vt 0.24999680 2.47702100
vt 0.18794190 2.47913100
vt 0.19056370 2.46882400
f 3/3/3 2/2/2 1/1/1
f 6/6/6 5/5/5 4/4/4
f 7/7/7 6/6/6 4/4/4
f 8/8/8 7/7/7 4/4/4
f 9/9/9 8/8/8 4/4/4
f 8/8/8 9/9/9 10/10/10
f 8/8/8 11/11/11 7/7/7
f 11/11/11 12/12/12 7/7/7
f 11/11/11 8/8/8 13/13/13
f 13/13/13 8/8/8 10/10/10
f 14/14/14 13/13/13 10/10/10
f 15/15/15 14/14/14 10/10/10
f 14/14/14 15/15/15 16/16/16
f 17/17/17 14/14/14 16/16/16
f 18/18/18 17/17/17 16/16/16
f 19/19/19 18/18/18 16/16/16
f 18/18/18 19/19/19 20/20/20
f 21/21/21 18/18/18 20/20/20
f 22/22/22 21/21/21 20/20/20
f 23/23/23 22/22/22 20/20/20
f 22/22/22 23/23/23 24/24/24
f 22/22/22 25/25/25 21/21/21
f 25/25/25 26/26/26 21/21/21
f 25/25/25 22/22/22 27/27/27
f 27/27/27 22/22/22 24/24/24
f 28/28/28 25/25/25 27/27/27
f 29/29/29 28/28/28 27/27/27
f 30/30/30 27/27/27 24/24/24
f 30/30/30 29/29/29 27/27/27
f 31/31/31 30/30/30 24/24/24
f 30/30/30 31/31/31 32/32/32
f 29/29/29 30/30/30 33/33/33
f 33/33/33 30/30/30 32/32/32
f 34/34/34 29/29/29 33/33/33
f 35/35/35 33/33/33 32/32/32
f 36/36/36 35/35/35 32/32/32
f 35/35/35 36/36/36 37/37/37
f 38/38/38 35/35/35 37/37/37
f 39/39/39 38/38/38 37/37/37
f 40/40/40 39/39/39 37/37/37
f 39/39/39 40/40/40 41/41/41
f 42/42/42 39/39/39 41/41/41
f 43/43/43 42/42/42 41/41/41
f 44/44/44 43/43/43 41/41/41
f 43/43/43 44/44/44 45/45/45
f 46/46/46 43/43/43 45/45/45
f 47/47/47 46/46/46 45/45/45
f 48/48/48 47/47/47 45/45/45
f 47/47/47 48/48/48 49/49/49
f 50/50/50 47/47/47 49/49/49
f 51/51/51 50/50/50 49/49/49
f 52/52/52 51/51/51 49/49/49
f 51/51/51 52/52/52 53/53/53
f 54/54/54 51/51/51 53/53/53
f 55/55/55 54/54/54 53/53/53
f 56/56/56 55/55/55 53/53/53
f 55/55/55 56/56/56 57/57/57
f 58/58/58 55/55/55 57/57/57
f 59/59/59 58/58/58 57/57/57
f 60/60/60 59/59/59 57/57/57
f 55/55/55 61/61/61 54/54/54
f 61/61/61 62/62/62 54/54/54
f 62/62/62 63/63/63 54/54/54
f 63/63/63 51/51/51 54/54/54
f 51/51/51 63/63/63 50/50/50
f 64/64/64 62/62/62 61/61/61
f 65/65/65 64/64/64 61/61/61
f 64/64/64 65/65/65 66/66/66
f 64/64/64 67/67/67 62/62/62
f 67/67/67 63/63/63 62/62/62
f 64/64/64 66/66/66 68/68/68
f 67/67/67 64/64/64 68/68/68
f 68/68/68 66/66/66 69/69/69
f 63/63/63 70/70/70 50/50/50
f 67/67/67 71/71/71 63/63/63
f 71/71/71 70/70/70 63/63/63
f 67/67/67 68/68/68 72/72/72
f 71/71/71 67/67/67 72/72/72
f 70/70/70 73/73/73 50/50/50
f 73/73/73 47/47/47 50/50/50
f 47/47/47 73/73/73 46/46/46
f 71/71/71 74/74/74 70/70/70
f 74/74/74 73/73/73 70/70/70
f 68/68/68 69/69/69 75/75/75
f 72/72/72 68/68/68 75/75/75
f 71/71/71 72/72/72 76/76/76
f 74/74/74 71/71/71 76/76/76
f 72/72/72 75/75/75 77/77/77
f 76/76/76 72/72/72 77/77/77
f 73/73/73 78/78/78 46/46/46
f 74/74/74 79/79/79 73/73/73
f 79/79/79 78/78/78 73/73/73
f 74/74/74 76/76/76 80/80/80
f 79/79/79 74/74/74 80/80/80
f 78/78/78 81/81/81 46/46/46
f 81/81/81 43/43/43 46/46/46
f 43/43/43 81/81/81 42/42/42
f 81/81/81 82/82/82 42/42/42
f 83/83/83 82/82/82 81/81/81
f 84/84/84 83/83/83 81/81/81
f 84/84/84 81/81/81 78/78/78
f 79/79/79 84/84/84 78/78/78
f 85/85/85 84/84/84 79/79/79
f 80/80/80 85/85/85 79/79/79
f 80/80/80 76/76/76 86/86/86
f 76/76/76 77/77/77 86/86/86
f 87/87/87 85/85/85 80/80/80
f 86/86/86 87/87/87 80/80/80
f 85/85/85 87/87/87 88/88/88
f 88/88/88 87/87/87 89/89/89
f 88/88/88 89/89/89 90/90/90
f 86/86/86 77/77/77 91/91/91
f 91/91/91 92/92/92 86/86/86
f 77/77/77 93/93/93 91/91/91
f 77/77/77 75/75/75 93/93/93
f 94/94/94 92/92/92 91/91/91
f 94/94/94 95/95/95 92/92/92
f 91/91/91 93/93/93 96/96/96
f 96/96/96 94/94/94 91/91/91
f 75/75/75 97/97/97 93/93/93
f 75/75/75 69/69/69 97/97/97
f 93/93/93 98/98/98 96/96/96
f 93/93/93 97/97/97 98/98/98
f 69/69/69 99/99/99 97/97/97
f 69/69/69 100/100/100 99/99/99
f 96/96/96 101/101/101 94/94/94
f 101/101/101 96/96/96 98/98/98
f 101/101/101 102/102/102 94/94/94
f 102/102/102 103/103/103 94/94/94
f 103/103/103 95/95/95 94/94/94
f 103/103/103 104/104/104 95/95/95
f 104/104/104 105/105/105 95/95/95
f 106/106/106 101/101/101 98/98/98
f 97/97/97 107/107/107 98/98/98
f 106/106/106 98/98/98 107/107/107
f 97/97/97 99/99/99 107/107/107
f 108/108/108 106/106/106 107/107/107
f 108/108/108 107/107/107 109/109/109
f 99/99/99 109/109/109 107/107/107
f 110/110/110 108/108/108 109/109/109
f 99/99/99 111/111/111 109/109/109
f 100/100/100 111/111/111 99/99/99
f 100/100/100 112/112/112 111/111/111
f 112/112/112 113/113/113 111/111/111
f 112/112/112 114/114/114 113/113/113
f 114/114/114 115/115/115 113/113/113
f 111/111/111 116/116/116 109/109/109
f 110/110/110 109/109/109 116/116/116
f 117/117/117 110/110/110 116/116/116
f 117/117/117 116/116/116 118/118/118
f 119/119/119 117/117/117 118/118/118
f 120/120/120 6/6/6 7/7/7
f 12/12/12 120/120/120 7/7/7
f 121/121/121 120/120/120 12/12/12
f 122/122/122 121/121/121 12/12/12
f 121/121/121 122/122/122 123/123/123
f 122/122/122 12/12/12 11/11/11
f 122/122/122 124/124/124 123/123/123
f 123/123/123 124/124/124 125/125/125
f 126/126/126 122/122/122 11/11/11
f 122/122/122 126/126/126 124/124/124
f 124/124/124 127/127/127 125/125/125
f 125/125/125 127/127/127 128/128/128
f 126/126/126 11/11/11 129/129/129
f 129/129/129 11/11/11 13/13/13
f 126/126/126 130/130/130 124/124/124
f 124/124/124 130/130/130 127/127/127
f 127/127/127 131/131/131 128/128/128
f 128/128/128 131/131/131 132/132/132
f 133/133/133 129/129/129 13/13/13
f 14/14/14 133/133/133 13/13/13
f 133/133/133 14/14/14 17/17/17
f 134/134/134 126/126/126 129/129/129
f 134/134/134 129/129/129 133/133/133
f 126/126/126 134/134/134 130/130/130
f 135/135/135 134/134/134 133/133/133
f 134/134/134 135/135/135 136/136/136
f 134/134/134 136/136/136 130/130/130
f 130/130/130 137/137/137 127/127/127
f 130/130/130 136/136/136 137/137/137
f 127/127/127 137/137/137 131/131/131
f 136/136/136 138/138/138 137/137/137
f 137/137/137 138/138/138 139/139/139
f 137/137/137 139/139/139 131/131/131
f 138/138/138 140/140/140 139/139/139
f 139/139/139 140/140/140 141/141/141
f 131/131/131 139/139/139 142/142/142
f 139/139/139 141/141/141 142/142/142
f 131/131/131 142/142/142 132/132/132
f 143/143/143 132/132/132 142/142/142
f 144/144/144 143/143/143 142/142/142
f 144/144/144 142/142/142 141/141/141
f 145/145/145 144/144/144 141/141/141
f 61/61/61 55/55/55 58/58/58
f 146/146/146 61/61/61 58/58/58
f 65/65/65 61/61/61 146/146/146
f 147/147/147 146/146/146 58/58/58
f 59/59/59 147/147/147 58/58/58
f 148/148/148 146/146/146 147/147/147
f 148/148/148 65/65/65 146/146/146
f 149/149/149 148/148/148 147/147/147
f 65/65/65 148/148/148 150/150/150
f 65/65/65 150/150/150 66/66/66
f 148/148/148 149/149/149 151/151/151
f 148/148/148 151/151/151 150/150/150
f 149/149/149 152/152/152 151/151/151
f 66/66/66 150/150/150 100/100/100
f 66/66/66 100/100/100 69/69/69
f 150/150/150 112/112/112 100/100/100
f 150/150/150 151/151/151 112/112/112
f 151/151/151 114/114/114 112/112/112
f 151/151/151 152/152/152 114/114/114
f 152/152/152 153/153/153 114/114/114
f 114/114/114 153/153/153 115/115/115
f 153/153/153 154/154/154 115/115/115
f 115/115/115 154/154/154 155/155/155
f 154/154/154 156/156/156 155/155/155
f 157/157/157 155/155/155 156/156/156
f 158/158/158 157/157/157 156/156/156
f 157/157/157 119/119/119 155/155/155
f 119/119/119 118/118/118 155/155/155
f 115/115/115 155/155/155 118/118/118
f 113/113/113 115/115/115 118/118/118
f 113/113/113 118/118/118 116/116/116
f 111/111/111 113/113/113 116/116/116
f 161/161/161 160/160/160 159/159/159
f 160/160/160 162/162/162 159/159/159
f 163/163/163 159/159/159 162/162/162
f 160/160/160 164/164/164 162/162/162
f 165/165/165 163/163/163 162/162/162
f 166/166/166 163/163/163 165/165/165
f 164/164/164 167/167/167 162/162/162
f 165/165/165 162/162/162 167/167/167
f 164/164/164 168/168/168 167/167/167
f 169/169/169 166/166/166 165/165/165
f 170/170/170 166/166/166 169/169/169
f 171/171/171 165/165/165 167/167/167
f 169/169/169 165/165/165 171/171/171
f 168/168/168 172/172/172 167/167/167
f 171/171/171 167/167/167 172/172/172
f 168/168/168 173/173/173 172/172/172
f 174/174/174 170/170/170 169/169/169
f 175/175/175 170/170/170 174/174/174
f 176/176/176 169/169/169 171/171/171
f 174/174/174 169/169/169 176/176/176
f 177/177/177 171/171/171 172/172/172
f 176/176/176 171/171/171 177/177/177
f 173/173/173 178/178/178 172/172/172
f 177/177/177 172/172/172 178/178/178
f 173/173/173 179/179/179 178/178/178
f 180/180/180 175/175/175 174/174/174
f 175/175/175 180/180/180 29/29/29
f 180/180/180 28/28/28 29/29/29
f 181/181/181 174/174/174 176/176/176
f 180/180/180 174/174/174 181/181/181
f 180/180/180 182/182/182 28/28/28
f 182/182/182 180/180/180 181/181/181
f 182/182/182 25/25/25 28/28/28
f 183/183/183 176/176/176 177/177/177
f 181/181/181 176/176/176 183/183/183
f 184/184/184 177/177/177 178/178/178
f 183/183/183 177/177/177 184/184/184
f 179/179/179 185/185/185 178/178/178
f 184/184/184 178/178/178 185/185/185
f 179/179/179 186/186/186 185/185/185
f 182/182/182 187/187/187 25/25/25
f 187/187/187 26/26/26 25/25/25
f 182/182/182 181/181/181 188/188/188
f 188/188/188 181/181/181 183/183/183
f 187/187/187 182/182/182 188/188/188
f 189/189/189 183/183/183 184/184/184
f 188/188/188 183/183/183 189/189/189
f 190/190/190 184/184/184 185/185/185
f 189/189/189 184/184/184 190/190/190
f 186/186/186 191/191/191 185/185/185
f 190/190/190 185/185/185 191/191/191
f 186/186/186 192/192/192 191/191/191
f 187/187/187 188/188/188 193/193/193
f 193/193/193 188/188/188 189/189/189
f 187/187/187 194/194/194 26/26/26
f 194/194/194 187/187/187 193/193/193
f 195/195/195 189/189/189 190/190/190
f 193/193/193 189/189/189 195/195/195
f 196/196/196 190/190/190 191/191/191
f 195/195/195 190/190/190 196/196/196
f 192/192/192 197/197/197 191/191/191
f 196/196/196 191/191/191 197/197/197
f 192/192/192 145/145/145 197/197/197
f 145/145/145 141/141/141 197/197/197
f 140/140/140 197/197/197 141/141/141
f 140/140/140 196/196/196 197/197/197
f 198/198/198 196/196/196 140/140/140
f 198/198/198 195/195/195 196/196/196
f 138/138/138 198/198/198 140/140/140
f 199/199/199 193/193/193 195/195/195
f 199/199/199 195/195/195 198/198/198
f 194/194/194 193/193/193 199/199/199
f 200/200/200 198/198/198 138/138/138
f 200/200/200 199/199/199 198/198/198
f 136/136/136 200/200/200 138/138/138
f 135/135/135 200/200/200 136/136/136
f 201/201/201 199/199/199 200/200/200
f 201/201/201 194/194/194 199/199/199
f 135/135/135 201/201/201 200/200/200
f 194/194/194 201/201/201 202/202/202
f 194/194/194 202/202/202 26/26/26
f 26/26/26 202/202/202 21/21/21
f 202/202/202 18/18/18 21/21/21
f 18/18/18 202/202/202 17/17/17
f 201/201/201 135/135/135 203/203/203
f 201/201/201 203/203/203 202/202/202
f 202/202/202 203/203/203 17/17/17
f 135/135/135 133/133/133 203/203/203
f 203/203/203 133/133/133 17/17/17
f 104/104/104 204/204/204 105/105/105
f 204/204/204 205/205/205 105/105/105
f 204/204/204 206/206/206 205/205/205
f 206/206/206 207/207/207 205/205/205
f 206/206/206 208/208/208 207/207/207
f 208/208/208 209/209/209 207/207/207
f 208/208/208 161/161/161 209/209/209
f 161/161/161 159/159/159 209/209/209
f 210/210/210 209/209/209 159/159/159
f 163/163/163 210/210/210 159/159/159
f 211/211/211 207/207/207 209/209/209
f 210/210/210 211/211/211 209/209/209
f 212/212/212 205/205/205 207/207/207
f 211/211/211 212/212/212 207/207/207
f 90/90/90 105/105/105 205/205/205
f 212/212/212 90/90/90 205/205/205
f 213/213/213 210/210/210 163/163/163
f 166/166/166 213/213/213 163/163/163
f 214/214/214 211/211/211 210/210/210
f 213/213/213 214/214/214 210/210/210
f 90/90/90 89/89/89 105/105/105
f 89/89/89 95/95/95 105/105/105
f 95/95/95 89/89/89 92/92/92
f 87/87/87 92/92/92 89/89/89
f 92/92/92 87/87/87 86/86/86
f 215/215/215 212/212/212 211/211/211
f 214/214/214 215/215/215 211/211/211
f 216/216/216 90/90/90 212/212/212
f 215/215/215 216/216/216 212/212/212
f 216/216/216 88/88/88 90/90/90
f 217/217/217 213/213/213 166/166/166
f 170/170/170 217/217/217 166/166/166
f 218/218/218 214/214/214 213/213/213
f 217/217/217 218/218/218 213/213/213
f 219/219/219 215/215/215 214/214/214
f 218/218/218 219/219/219 214/214/214
f 220/220/220 88/88/88 216/216/216
f 220/220/220 85/85/85 88/88/88
f 85/85/85 220/220/220 84/84/84
f 220/220/220 83/83/83 84/84/84
f 221/221/221 216/216/216 215/215/215
f 221/221/221 220/220/220 216/216/216
f 83/83/83 220/220/220 221/221/221
f 219/219/219 221/221/221 215/215/215
f 222/222/222 83/83/83 221/221/221
f 222/222/222 221/221/221 219/219/219
f 83/83/83 222/222/222 82/82/82
f 223/223/223 217/217/217 170/170/170
f 175/175/175 223/223/223 170/170/170
f 224/224/224 218/218/218 217/217/217
f 223/223/223 224/224/224 217/217/217
f 225/225/225 219/219/219 218/218/218
f 225/225/225 222/222/222 219/219/219
f 224/224/224 225/225/225 218/218/218
f 222/222/222 226/226/226 82/82/82
f 222/222/222 225/225/225 226/226/226
f 82/82/82 226/226/226 42/42/42
f 226/226/226 39/39/39 42/42/42
f 39/39/39 226/226/226 38/38/38
f 225/225/225 227/227/227 226/226/226
f 225/225/225 224/224/224 227/227/227
f 226/226/226 227/227/227 38/38/38
f 224/224/224 228/228/228 227/227/227
f 227/227/227 228/228/228 38/38/38
f 224/224/224 223/223/223 228/228/228
f 228/228/228 35/35/35 38/38/38
f 35/35/35 228/228/228 33/33/33
f 228/228/228 34/34/34 33/33/33
f 223/223/223 34/34/34 228/228/228
f 223/223/223 175/175/175 34/34/34
f 175/175/175 29/29/29 34/34/34
f 231/231/231 230/230/230 229/229/229
f 230/230/230 232/232/232 229/229/229
f 232/232/232 233/233/233 229/229/229
f 233/233/233 234/234/234 229/229/229
f 234/234/234 233/233/233 235/235/235
f 233/233/233 236/236/236 235/235/235
f 232/232/232 230/230/230 237/237/237
f 230/230/230 238/238/238 237/237/237
f 233/233/233 232/232/232 239/239/239
f 232/232/232 237/237/237 239/239/239
f 236/236/236 233/233/233 240/240/240
f 233/233/233 239/239/239 240/240/240
f 241/241/241 239/239/239 237/237/237
f 242/242/242 241/241/241 237/237/237
f 243/243/243 241/241/241 242/242/242
f 241/241/241 244/244/244 239/239/239
f 244/244/244 240/240/240 239/239/239
f 236/236/236 240/240/240 245/245/245
f 246/246/246 236/236/236 245/245/245
f 246/246/246 245/245/245 247/247/247
f 248/248/248 247/247/247 245/245/245
f 249/249/249 245/245/245 240/240/240
f 249/249/249 248/248/248 245/245/245
f 244/244/244 249/249/249 240/240/240
f 250/250/250 248/248/248 249/249/249
f 251/251/251 250/250/250 249/249/249
f 251/251/251 249/249/249 244/244/244
f 252/252/252 250/250/250 251/251/251
f 253/253/253 244/244/244 241/241/241
f 243/243/243 253/253/253 241/241/241
f 253/253/253 251/251/251 244/244/244
f 254/254/254 252/252/252 251/251/251
f 254/254/254 251/251/251 253/253/253
f 255/255/255 252/252/252 254/254/254
f 256/256/256 253/253/253 243/243/243
f 256/256/256 254/254/254 253/253/253
f 257/257/257 256/256/256 243/243/243
f 258/258/258 255/255/255 254/254/254
f 258/258/258 254/254/254 256/256/256
f 255/255/255 258/258/258 259/259/259
f 258/258/258 260/260/260 259/259/259
f 261/261/261 256/256/256 257/257/257
f 261/261/261 258/258/258 256/256/256
f 258/258/258 261/261/261 260/260/260
f 262/262/262 261/261/261 257/257/257
f 261/261/261 263/263/263 260/260/260
f 266/266/266 265/265/265 264/264/264
f 267/267/267 266/266/266 264/264/264
f 266/266/266 267/267/267 268/268/268
f 236/236/236 246/246/246 235/235/235
f 246/246/246 269/269/269 235/235/235
f 269/269/269 246/246/246 270/270/270
f 269/269/269 15/15/15 235/235/235
f 15/15/15 269/269/269 270/270/270
f 15/15/15 10/10/10 235/235/235
f 16/16/16 15/15/15 270/270/270
f 10/10/10 9/9/9 235/235/235
f 9/9/9 234/234/234 235/235/235
f 19/19/19 16/16/16 270/270/270
f 271/271/271 19/19/19 270/270/270
f 234/234/234 9/9/9 229/229/229
f 9/9/9 4/4/4 229/229/229
f 4/4/4 5/5/5 229/229/229
f 5/5/5 231/231/231 229/229/229
f 19/19/19 271/271/271 272/272/272
f 20/20/20 19/19/19 272/272/272
f 23/23/23 20/20/20 272/272/272
f 273/273/273 23/23/23 272/272/272
f 23/23/23 273/273/273 274/274/274
f 24/24/24 23/23/23 274/274/274
f 31/31/31 24/24/24 274/274/274
f 275/275/275 31/31/31 274/274/274
f 31/31/31 275/275/275 276/276/276
f 32/32/32 31/31/31 276/276/276
f 36/36/36 32/32/32 276/276/276
f 277/277/277 36/36/36 276/276/276
f 36/36/36 277/277/277 278/278/278
f 37/37/37 36/36/36 278/278/278
f 40/40/40 37/37/37 278/278/278
f 279/279/279 40/40/40 278/278/278
f 40/40/40 279/279/279 280/280/280
f 41/41/41 40/40/40 280/280/280
f 44/44/44 41/41/41 280/280/280
f 281/281/281 44/44/44 280/280/280
f 44/44/44 281/281/281 282/282/282
f 45/45/45 44/44/44 282/282/282
f 48/48/48 45/45/45 282/282/282
f 283/283/283 48/48/48 282/282/282
f 48/48/48 283/283/283 284/284/284
f 49/49/49 48/48/48 284/284/284
f 52/52/52 49/49/49 284/284/284
f 285/285/285 52/52/52 284/284/284
f 52/52/52 285/285/285 286/286/286
f 53/53/53 52/52/52 286/286/286
f 56/56/56 53/53/53 286/286/286
f 287/287/287 56/56/56 286/286/286
f 56/56/56 287/287/287 264/264/264
f 57/57/57 56/56/56 264/264/264
f 60/60/60 57/57/57 264/264/264
f 265/265/265 60/60/60 264/264/264
f 289/289/289 288/288/288 276/276/276
f 275/275/275 289/289/289 276/276/276
f 289/289/289 275/275/275 274/274/274
f 290/290/290 289/289/289 274/274/274
f 289/289/289 290/290/290 291/291/291
f 292/292/292 290/290/290 274/274/274
f 273/273/273 292/292/292 274/274/274
f 292/292/292 273/273/273 272/272/272
f 290/290/290 293/293/293 291/291/291
f 290/290/290 292/292/292 293/293/293
f 294/294/294 291/291/291 293/293/293
f 294/294/294 295/295/295 291/291/291
f 296/296/296 292/292/292 272/272/272
f 292/292/292 297/297/297 293/293/293
f 292/292/292 296/296/296 297/297/297
f 298/298/298 296/296/296 272/272/272
f 271/271/271 298/298/298 272/272/272
f 298/298/298 271/271/271 270/270/270
f 299/299/299 294/294/294 293/293/293
f 299/299/299 293/293/293 297/297/297
f 296/296/296 300/300/300 297/297/297
f 296/296/296 298/298/298 300/300/300
f 301/301/301 298/298/298 270/270/270
f 246/246/246 301/301/301 270/270/270
f 301/301/301 246/246/246 247/247/247
f 298/298/298 301/301/301 302/302/302
f 301/301/301 247/247/247 302/302/302
f 298/298/298 302/302/302 300/300/300
f 303/303/303 297/297/297 300/300/300
f 303/303/303 299/299/299 297/297/297
f 304/304/304 302/302/302 247/247/247
f 248/248/248 304/304/304 247/247/247
f 305/305/305 300/300/300 302/302/302
f 305/305/305 303/303/303 300/300/300
f 304/304/304 305/305/305 302/302/302
f 306/306/306 304/304/304 248/248/248
f 250/250/250 306/306/306 248/248/248
f 307/307/307 305/305/305 304/304/304
f 306/306/306 307/307/307 304/304/304
f 308/308/308 303/303/303 305/305/305
f 307/307/307 308/308/308 305/305/305
f 309/309/309 299/299/299 303/303/303
f 308/308/308 309/309/309 303/303/303
f 310/310/310 306/306/306 250/250/250
f 252/252/252 310/310/310 250/250/250
f 311/311/311 307/307/307 306/306/306
f 310/310/310 311/311/311 306/306/306
f 312/312/312 308/308/308 307/307/307
f 311/311/311 312/312/312 307/307/307
f 313/313/313 310/310/310 252/252/252
f 255/255/255 313/313/313 252/252/252
f 314/314/314 311/311/311 310/310/310
f 313/313/313 314/314/314 310/310/310
f 313/313/313 255/255/255 315/315/315
f 255/255/255 259/259/259 315/315/315
f 313/313/313 315/315/315 316/316/316
f 314/314/314 313/313/313 316/316/316
f 314/314/314 316/316/316 317/317/317
f 314/314/314 318/318/318 311/311/311
f 318/318/318 314/314/314 317/317/317
f 318/318/318 312/312/312 311/311/311
f 318/318/318 317/317/317 319/319/319
f 320/320/320 318/318/318 319/319/319
f 318/318/318 320/320/320 312/312/312
f 320/320/320 319/319/319 321/321/321
f 320/320/320 322/322/322 312/312/312
f 312/312/312 322/322/322 308/308/308
f 322/322/322 309/309/309 308/308/308
f 323/323/323 320/320/320 321/321/321
f 320/320/320 323/323/323 322/322/322
f 323/323/323 321/321/321 324/324/324
f 322/322/322 325/325/325 309/309/309
f 323/323/323 325/325/325 322/322/322
f 326/326/326 323/323/323 324/324/324
f 323/323/323 326/326/326 325/325/325
f 326/326/326 324/324/324 327/327/327
f 328/328/328 326/326/326 327/327/327
f 326/326/326 328/328/328 329/329/329
f 326/326/326 329/329/329 325/325/325
f 328/328/328 330/330/330 329/329/329
f 325/325/325 331/331/331 309/309/309
f 325/325/325 329/329/329 331/331/331
f 309/309/309 331/331/331 299/299/299
f 331/331/331 294/294/294 299/299/299
f 329/329/329 330/330/330 332/332/332
f 329/329/329 332/332/332 331/331/331
f 331/331/331 332/332/332 294/294/294
f 330/330/330 333/333/333 332/332/332
f 332/332/332 295/295/295 294/294/294
f 332/332/332 333/333/333 295/295/295
f 333/333/333 334/334/334 295/295/295
f 242/242/242 237/237/237 238/238/238
f 335/335/335 242/242/242 238/238/238
f 336/336/336 242/242/242 335/335/335
f 336/336/336 243/243/243 242/242/242
f 337/337/337 336/336/336 335/335/335
f 257/257/257 243/243/243 336/336/336
f 338/338/338 336/336/336 337/337/337
f 338/338/338 257/257/257 336/336/336
f 339/339/339 338/338/338 337/337/337
f 262/262/262 257/257/257 338/338/338
f 340/340/340 338/338/338 339/339/339
f 340/340/340 262/262/262 338/338/338
f 262/262/262 340/340/340 341/341/341
f 342/342/342 340/340/340 339/339/339
f 340/340/340 343/343/343 341/341/341
f 340/340/340 342/342/342 343/343/343
f 342/342/342 344/344/344 343/343/343
f 347/347/347 346/346/346 345/345/345
f 348/348/348 346/346/346 347/347/347
f 348/348/348 349/349/349 346/346/346
f 350/350/350 349/349/349 348/348/348
f 351/351/351 350/350/350 348/348/348
f 350/350/350 352/352/352 349/349/349
f 352/352/352 353/353/353 349/349/349
f 349/349/349 353/353/353 354/354/354
f 355/355/355 350/350/350 351/351/351
f 356/356/356 355/355/355 351/351/351
f 356/356/356 351/351/351 357/357/357
f 357/357/357 351/351/351 358/358/358
f 355/355/355 359/359/359 350/350/350
f 359/359/359 352/352/352 350/350/350
f 359/359/359 360/360/360 352/352/352
f 352/352/352 361/361/361 353/353/353
f 360/360/360 361/361/361 352/352/352
f 353/353/353 362/362/362 354/354/354
f 361/361/361 363/363/363 353/353/353
f 353/353/353 363/363/363 362/362/362
f 354/354/354 362/362/362 364/364/364
f 354/354/354 364/364/364 365/365/365
f 366/366/366 365/365/365 364/364/364
f 367/367/367 366/366/366 364/364/364
f 366/366/366 367/367/367 280/280/280
f 367/367/367 281/281/281 280/280/280
f 281/281/281 367/367/367 282/282/282
f 362/362/362 368/368/368 364/364/364
f 367/367/367 364/364/364 368/368/368
f 367/367/367 369/369/369 282/282/282
f 369/369/369 367/367/367 368/368/368
f 362/362/362 370/370/370 368/368/368
f 363/363/363 370/370/370 362/362/362
f 369/369/369 371/371/371 282/282/282
f 371/371/371 283/283/283 282/282/282
f 283/283/283 371/371/371 284/284/284
f 371/371/371 372/372/372 284/284/284
f 369/369/369 368/368/368 373/373/373
f 371/371/371 369/369/369 373/373/373
f 370/370/370 373/373/373 368/368/368
f 372/372/372 371/371/371 374/374/374
f 371/371/371 373/373/373 374/374/374
f 372/372/372 374/374/374 375/375/375
f 376/376/376 375/375/375 374/374/374
f 377/377/377 374/374/374 373/373/373
f 377/377/377 376/376/376 374/374/374
f 370/370/370 377/377/377 373/373/373
f 378/378/378 376/376/376 377/377/377
f 379/379/379 377/377/377 370/370/370
f 379/379/379 378/378/378 377/377/377
f 363/363/363 379/379/379 370/370/370
f 380/380/380 378/378/378 379/379/379
f 381/381/381 379/379/379 363/363/363
f 381/381/381 380/380/380 379/379/379
f 361/361/361 381/381/381 363/363/363
f 382/382/382 380/380/380 381/381/381
f 383/383/383 381/381/381 361/361/361
f 383/383/383 382/382/382 381/381/381
f 382/382/382 383/383/383 384/384/384
f 360/360/360 383/383/383 361/361/361
f 383/383/383 385/385/385 384/384/384
f 383/383/383 360/360/360 385/385/385
f 360/360/360 386/386/386 385/385/385
f 262/262/262 341/341/341 263/263/263
f 261/261/261 262/262/262 263/263/263
f 328/328/328 327/327/327 387/387/387
f 388/388/388 328/328/328 387/387/387
f 388/388/388 387/387/387 389/389/389
f 328/328/328 388/388/388 330/330/330
f 390/390/390 388/388/388 389/389/389
f 390/390/390 389/389/389 391/391/391
f 388/388/388 392/392/392 330/330/330
f 388/388/388 390/390/390 392/392/392
f 330/330/330 392/392/392 333/333/333
f 356/356/356 390/390/390 391/391/391
f 356/356/356 391/391/391 393/393/393
f 355/355/355 356/356/356 393/393/393
f 355/355/355 393/393/393 394/394/394
f 359/359/359 355/355/355 394/394/394
f 359/359/359 394/394/394 386/386/386
f 360/360/360 359/359/359 386/386/386
f 390/390/390 356/356/356 357/357/357
f 390/390/390 357/357/357 392/392/392
f 392/392/392 395/395/395 333/333/333
f 392/392/392 357/357/357 395/395/395
f 333/333/333 395/395/395 334/334/334
f 357/357/357 358/358/358 395/395/395
f 395/395/395 396/396/396 334/334/334
f 395/395/395 358/358/358 396/396/396
f 334/334/334 396/396/396 397/397/397
f 334/334/334 397/397/397 398/398/398
f 295/295/295 334/334/334 398/398/398
f 295/295/295 398/398/398 291/291/291
f 289/289/289 291/291/291 398/398/398
f 288/288/288 289/289/289 398/398/398
f 288/288/288 398/398/398 397/397/397
f 399/399/399 288/288/288 397/397/397
f 288/288/288 399/399/399 276/276/276
f 399/399/399 277/277/277 276/276/276
f 277/277/277 399/399/399 278/278/278
f 396/396/396 400/400/400 397/397/397
f 399/399/399 397/397/397 400/400/400
f 358/358/358 347/347/347 396/396/396
f 396/396/396 347/347/347 400/400/400
f 358/358/358 348/348/348 347/347/347
f 351/351/351 348/348/348 358/358/358
f 347/347/347 345/345/345 400/400/400
f 401/401/401 399/399/399 400/400/400
f 399/399/399 401/401/401 278/278/278
f 401/401/401 400/400/400 345/345/345
f 401/401/401 402/402/402 278/278/278
f 402/402/402 401/401/401 345/345/345
f 402/402/402 279/279/279 278/278/278
f 279/279/279 402/402/402 280/280/280
f 402/402/402 366/366/366 280/280/280
f 366/366/366 402/402/402 365/365/365
f 402/402/402 345/345/345 365/365/365
f 346/346/346 365/365/365 345/345/345
f 346/346/346 354/354/354 365/365/365
f 349/349/349 354/354/354 346/346/346
f 382/382/382 384/384/384 403/403/403
f 404/404/404 382/382/382 403/403/403
f 404/404/404 403/403/403 405/405/405
f 382/382/382 404/404/404 380/380/380
f 406/406/406 404/404/404 405/405/405
f 406/406/406 405/405/405 407/407/407
f 404/404/404 408/408/408 380/380/380
f 408/408/408 404/404/404 406/406/406
f 380/380/380 408/408/408 378/378/378
f 409/409/409 406/406/406 407/407/407
f 409/409/409 407/407/407 410/410/410
f 411/411/411 409/409/409 410/410/410
f 408/408/408 412/412/412 378/378/378
f 378/378/378 412/412/412 376/376/376
f 413/413/413 408/408/408 406/406/406
f 413/413/413 406/406/406 409/409/409
f 408/408/408 413/413/413 412/412/412
f 409/409/409 411/411/411 414/414/414
f 414/414/414 413/413/413 409/409/409
f 411/411/411 415/415/415 414/414/414
f 412/412/412 416/416/416 376/376/376
f 376/376/376 416/416/416 375/375/375
f 413/413/413 417/417/417 412/412/412
f 417/417/417 413/413/413 414/414/414
f 412/412/412 417/417/417 416/416/416
f 414/414/414 415/415/415 418/418/418
f 418/418/418 417/417/417 414/414/414
f 415/415/415 419/419/419 418/418/418
f 417/417/417 420/420/420 416/416/416
f 420/420/420 417/417/417 418/418/418
f 418/418/418 419/419/419 421/421/421
f 421/421/421 420/420/420 418/418/418
f 419/419/419 422/422/422 421/421/421
f 416/416/416 423/423/423 375/375/375
f 423/423/423 416/416/416 420/420/420
f 424/424/424 420/420/420 421/421/421
f 424/424/424 423/423/423 420/420/420
f 421/421/421 422/422/422 425/425/425
f 425/425/425 424/424/424 421/421/421
f 422/422/422 268/268/268 425/425/425
f 267/267/267 425/425/425 268/268/268
f 425/425/425 267/267/267 424/424/424
f 426/426/426 375/375/375 423/423/423
f 426/426/426 372/372/372 375/375/375
f 372/372/372 426/426/426 284/284/284
f 426/426/426 285/285/285 284/284/284
f 285/285/285 426/426/426 286/286/286
f 427/427/427 426/426/426 423/423/423
f 427/427/427 423/423/423 424/424/424
f 426/426/426 427/427/427 286/286/286
f 267/267/267 428/428/428 424/424/424
f 428/428/428 427/427/427 424/424/424
f 427/427/427 428/428/428 286/286/286
f 428/428/428 267/267/267 264/264/264
f 428/428/428 287/287/287 286/286/286
f 287/287/287 428/428/428 264/264/264
f 2/2/2 429/429/429 1/1/1
f 1/1/1 429/429/429 430/430/430
f 2/2/2 431/431/431 429/429/429
f 431/431/431 432/432/432 429/429/429
f 429/429/429 432/432/432 430/430/430
f 431/431/431 433/433/433 432/432/432
f 433/433/433 434/434/434 432/432/432
f 432/432/432 434/434/434 430/430/430
f 433/433/433 435/435/435 434/434/434
f 435/435/435 436/436/436 434/434/434
f 434/434/434 436/436/436 430/430/430
f 435/435/435 437/437/437 436/436/436
f 437/437/437 438/438/438 436/436/436
f 436/436/436 438/438/438 430/430/430
f 437/437/437 439/439/439 438/438/438
f 439/439/439 440/440/440 438/438/438
f 438/438/438 440/440/440 430/430/430
f 439/439/439 441/441/441 440/440/440
f 442/442/442 1/1/1 430/430/430
f 440/440/440 443/443/443 430/430/430
f 441/441/441 443/443/443 440/440/440
f 443/443/443 444/444/444 430/430/430
f 441/441/441 445/445/445 443/443/443
f 445/445/445 444/444/444 443/443/443
f 3/3/3 1/1/1 442/442/442
f 445/445/445 446/446/446 444/444/444
f 447/447/447 3/3/3 442/442/442
f 446/446/446 448/448/448 444/444/444
f 444/444/444 448/448/448 430/430/430
f 446/446/446 449/449/449 448/448/448
f 447/447/447 442/442/442 450/450/450
f 450/450/450 442/442/442 430/430/430
f 451/451/451 447/447/447 450/450/450
f 449/449/449 452/452/452 448/448/448
f 448/448/448 452/452/452 430/430/430
f 449/449/449 453/453/453 452/452/452
f 451/451/451 450/450/450 454/454/454
f 454/454/454 450/450/450 430/430/430
f 455/455/455 451/451/451 454/454/454
f 453/453/453 456/456/456 452/452/452
f 452/452/452 456/456/456 430/430/430
f 453/453/453 457/457/457 456/456/456
f 455/455/455 454/454/454 458/458/458
f 458/458/458 454/454/454 430/430/430
f 456/456/456 459/459/459 430/430/430
f 457/457/457 459/459/459 456/456/456
f 460/460/460 458/458/458 430/430/430
f 461/461/461 455/455/455 458/458/458
f 461/461/461 458/458/458 460/460/460
f 457/457/457 462/462/462 459/459/459
f 463/463/463 461/461/461 460/460/460
f 462/462/462 464/464/464 459/459/459
f 459/459/459 464/464/464 430/430/430
f 462/462/462 465/465/465 464/464/464
f 463/463/463 460/460/460 466/466/466
f 466/466/466 460/460/460 430/430/430
f 467/467/467 463/463/463 466/466/466
f 465/465/465 468/468/468 464/464/464
f 464/464/464 468/468/468 430/430/430
f 465/465/465 469/469/469 468/468/468
f 467/467/467 466/466/466 470/470/470
f 470/470/470 466/466/466 430/430/430
f 471/471/471 467/467/467 470/470/470
f 469/469/469 472/472/472 468/468/468
f 468/468/468 472/472/472 430/430/430
f 469/469/469 473/473/473 472/472/472
f 471/471/471 470/470/470 474/474/474
f 474/474/474 470/470/470 430/430/430
f 472/472/472 474/474/474 430/430/430
f 473/473/473 471/471/471 474/474/474
f 473/473/473 474/474/474 472/472/472

