# Blender 4.0.0
# www.blender.org
o decimated_mesh
v -0.095248 0.084221 -0.000019
v -0.094641 0.087215 -0.000020
v -0.094399 0.085349 -0.009790
v -0.093607 0.063589 -0.000023
v -0.093227 0.085367 -0.019379
v -0.091541 0.063394 -0.019336
v -0.083055 0.041821 -0.017031
v -0.093466 0.087864 -0.000016
v -0.092653 0.087422 -0.018486
v -0.087179 0.062696 -0.033501
v -0.084769 0.042177 -0.000015
v -0.091140 0.088236 -0.016484
v -0.087691 0.087658 -0.033499
v -0.088879 0.085922 -0.033508
v -0.088758 0.087199 -0.032036
v -0.077664 0.041603 -0.033499
v -0.088195 0.088149 -0.028027
v -0.071332 0.023219 -0.013776
v -0.091534 0.087843 -0.000015
v -0.085851 0.088117 -0.033503
v -0.067148 0.023218 -0.027826
v -0.090407 0.087223 -0.000015
v -0.084358 0.087576 -0.033503
v -0.072596 0.023212 -0.000015
v -0.083424 0.086121 -0.033503
v -0.064158 0.023215 -0.033503
v -0.069697 0.023212 -0.000015
v -0.060835 0.023212 -0.033503
vn 0.0007 0.0002 -1.0000
vn -0.9782 0.1982 -0.0621
vn -0.8874 0.3819 -0.2581
vn -0.9133 -0.3279 -0.2417
vn 0.1070 0.9939 0.0263
vn -0.9210 0.3777 -0.0949
vn -0.9241 -0.3726 -0.0853
vn 0.0107 0.9997 0.0241
vn -0.2407 0.9645 -0.1087
vn -0.9897 -0.0762 -0.1211
vn -0.8021 -0.5473 -0.2388
vn 0.3395 0.9383 0.0653
vn -0.0016 -0.0020 -1.0000
vn -0.7591 0.5214 -0.3898
vn 0.0012 1.0000 0.0002
vn 0.4797 0.8722 0.0958
vn -0.9527 -0.0699 -0.2959
vn -0.0094 0.9999 -0.0100
vn 0.8312 0.5337 0.1557
vn -0.5887 0.7875 -0.1822
vn 0.0012 0.0002 -1.0000
vn -0.0000 -0.0000 -1.0000
vn 0.0003 0.0059 -1.0000
vn 0.0011 -0.0004 -1.0000
vn 0.0011 0.0020 -1.0000
vn -0.8748 -0.3946 -0.2812
vn -0.8901 -0.3774 -0.2555
vn -0.8936 0.3640 -0.2628
vn -0.9350 -0.3025 -0.1850
vn -0.3605 0.9269 -0.1046
vn -0.4314 0.9013 -0.0406
vn -0.4468 0.8865 -0.1207
vn -0.9427 0.3133 -0.1146
vn -0.9202 -0.3798 -0.0946
vn -0.4829 0.8747 -0.0422
vn -0.9910 -0.0833 -0.1051
vn -0.9923 -0.0789 -0.0953
vn -0.8030 -0.5382 -0.2558
vn -0.0000 0.0002 -1.0000
vn -0.0000 -0.0001 -1.0000
vn 0.0010 -0.0002 -1.0000
vn 0.0008 0.0047 -1.0000
vn 0.0001 -0.0000 -1.0000
vn -0.0003 -0.0001 -1.0000
vn -0.7420 -0.5449 -0.3906
vn -0.0012 -1.0000 -0.0002
vn 0.0014 1.0000 0.0004
vn -0.0000 1.0000 0.0005
vn -0.9541 -0.0738 -0.2902
vn -0.8390 -0.5385 -0.0774
vn -0.8379 -0.5409 -0.0731
vn -0.0015 -0.0003 1.0000
vn -0.0041 0.0010 1.0000
vn -0.9229 -0.3732 -0.0949
vn -0.9210 -0.3802 -0.0848
vn -0.8393 -0.5387 -0.0733
vn -0.0002 -0.0000 1.0000
vn -0.0002 -0.0004 1.0000
vn -0.8854 0.3848 -0.2608
vn -0.8944 0.3634 -0.2609
vn -0.3655 0.9254 -0.1002
vn -0.4017 0.9081 -0.1185
vn -0.8373 -0.5412 -0.0772
vn 0.0031 1.0000 0.0008
vn 0.0014 1.0000 0.0005
vn -0.0000 1.0000 -0.0000
vn -0.9226 -0.2985 -0.2442
vn -0.9254 -0.3323 -0.1820
vn -0.0005 -0.0003 -1.0000
vn 0.0009 0.0003 -1.0000
vn -0.0008 -0.0004 -1.0000
vn -0.0042 0.0080 -1.0000
vn 0.0006 0.0015 -1.0000
vn 0.0009 0.0006 -1.0000
s 0
f 1//1 22//1 4//1
f 2//2 3//2 1//2
f 14//3 5//3 15//3
f 25//4 28//4 27//4
f 19//5 20//5 12//5
f 2//6 9//6 3//6
f 11//7 6//7 7//7
f 12//8 8//8 19//8
f 13//9 17//9 20//9
f 3//10 5//10 6//10
f 18//11 7//11 21//11
f 20//12 19//12 23//12
f 13//13 20//13 25//13
f 15//14 13//14 14//14
f 18//15 28//15 21//15
f 19//16 22//16 23//16
f 14//17 10//17 5//17
f 17//18 12//18 20//18
f 22//19 25//19 23//19
f 15//20 9//20 13//20
f 4//21 22//21 11//21
f 11//22 27//22 24//22
f 22//22 27//22 11//22
f 19//23 2//23 8//23
f 2//24 22//24 1//24
f 19//25 22//25 2//25
f 16//26 7//26 10//26
f 7//27 6//27 10//27
f 9//28 15//28 5//28
f 25//29 27//29 22//29
f 13//30 9//30 12//30
f 9//31 8//31 12//31
f 13//32 12//32 17//32
f 5//33 3//33 9//33
f 4//34 6//34 11//34
f 9//35 2//35 8//35
f 6//36 4//36 3//36
f 4//37 1//37 3//37
f 7//38 16//38 21//38
f 26//39 16//39 28//39
f 16//40 10//40 25//40
f 10//41 14//41 25//41
f 25//42 14//42 13//42
f 20//43 23//43 25//43
f 25//44 28//44 16//44
f 16//45 26//45 21//45
f 21//46 26//46 28//46
f 28//47 18//47 27//47
f 27//48 18//48 24//48
f 10//49 6//49 5//49
f 18//50 24//50 11//50
f 11//51 7//51 18//51
f 4//52 11//52 1//52
f 11//52 8//52 1//52
f 8//53 2//53 1//53
f 6//54 7//54 4//54
f 7//55 11//55 4//55
f 7//56 24//56 11//56
f 24//22 11//22 22//22
f 22//57 8//57 11//57
f 22//58 19//58 8//58
f 15//59 14//59 9//59
f 14//60 5//60 9//60
f 12//61 17//61 9//61
f 17//62 13//62 9//62
f 18//63 24//63 7//63
f 18//64 24//64 21//64
f 21//65 24//65 28//65
f 28//66 24//66 27//66
f 27//22 24//22 22//22
f 27//67 22//67 28//67
f 28//68 22//68 25//68
f 14//69 16//69 10//69
f 25//70 28//70 14//70
f 28//40 26//40 14//40
f 26//71 16//71 14//71
f 13//72 20//72 14//72
f 20//73 23//73 14//73
f 23//74 25//74 14//74
