# Blender 4.0.0
# www.blender.org
o decimated_mesh
v 0.063823 0.018497 0.000015
v 0.068508 0.019035 0.000009
v 0.057172 0.018497 0.027928
v 0.083215 0.043645 0.000015
v 0.061754 0.018371 0.027761
v 0.077974 0.043645 0.027928
v 0.085335 0.043479 0.000020
v 0.080360 0.043332 0.027931
v 0.083662 0.043544 0.016949
v 0.071093 0.022964 0.013996
v 0.066845 0.022854 0.027923
vn -0.0276 -0.9996 -0.0066
vn 0.0009 -0.0008 1.0000
vn -0.0016 0.0012 -1.0000
vn 0.0277 0.9996 0.0052
vn 0.8096 -0.5344 0.2427
vn 0.8237 -0.5670 0.0070
vn 0.6452 -0.7398 0.1909
vn 0.7579 -0.6269 0.1806
vn 0.5757 -0.8087 0.1208
vn 0.1143 -0.9934 0.0040
vn 0.0344 -0.0751 0.9966
vn -0.0009 0.0002 1.0000
vn 0.0023 -0.0011 -1.0000
vn 0.1295 0.9899 0.0580
vn 0.0777 0.9970 0.0039
vn 0.8143 -0.5310 0.2346
vn 0.8448 -0.5282 0.0855
vn 0.7833 -0.6040 0.1471
vn 0.7782 -0.6000 0.1854
vn 0.7626 -0.6308 0.1432
vn 0.0011 -0.0011 1.0000
vn -0.0009 0.0007 1.0000
s 0
f 3//1 1//1 5//1
f 6//2 3//2 11//2
f 4//3 2//3 1//3
f 4//4 6//4 9//4
f 8//5 11//5 10//5
f 10//6 2//6 7//6
f 11//7 5//7 10//7
f 6//8 3//8 1//8
f 10//9 5//9 2//9
f 1//10 2//10 5//10
f 5//11 11//11 3//11
f 11//12 8//12 6//12
f 7//13 2//13 4//13
f 8//14 9//14 6//14
f 9//15 7//15 4//15
f 10//16 9//16 8//16
f 7//17 9//17 10//17
f 6//18 1//18 4//18
f 3//19 1//19 4//19
f 3//20 4//20 6//20
f 11//21 8//21 3//21
f 8//22 6//22 3//22
