# Blender 4.0.0
# www.blender.org
o decimated_mesh
v 0.017418 0.088195 0.091148
v -0.000009 0.087872 0.093443
v 0.034917 0.088164 0.085873
v 0.054584 0.088087 0.073753
v -0.000010 0.087848 0.091534
v 0.000004 0.087294 0.094550
v 0.018580 0.087459 0.092607
v 0.036158 0.087372 0.087311
v 0.050010 0.088056 0.078324
v 0.054576 0.087471 0.076779
v 0.054585 0.087280 0.071760
v -0.000007 0.085333 0.095219
v 0.052427 0.087281 0.078701
v -0.000010 0.087074 0.090293
v 0.009792 0.085353 0.094399
v 0.037184 0.086176 0.087399
v 0.054585 0.085426 0.070799
v 0.019312 0.085375 0.093250
v 0.036020 0.085201 0.088189
v 0.054583 0.085338 0.077961
v 0.052904 0.085302 0.079328
v -0.000002 0.063520 0.093591
v -0.000010 0.045725 0.083710
v 0.054585 0.045725 0.062923
v 0.000002 0.045725 0.085725
v 0.054585 0.045725 0.065681
v 0.050878 0.062817 0.078435
v 0.054585 0.062501 0.075611
v 0.018001 0.045725 0.083745
v 0.019473 0.063286 0.091490
v 0.034490 0.062611 0.086864
v 0.032373 0.045725 0.079387
v 0.047081 0.045725 0.071629
vn 0.1124 0.3288 0.9377
vn 0.6299 -0.0874 0.7718
vn 0.3286 -0.1485 0.9327
vn -0.1254 0.9195 -0.3726
vn 0.5295 -0.4127 0.7411
vn 0.0934 -0.4025 0.9106
vn 0.2206 0.8862 0.4075
vn -0.0210 0.9985 -0.0511
vn -0.2901 0.4405 -0.8496
vn 0.0405 0.8859 0.4621
vn -0.0000 1.0000 -0.0000
vn 0.1897 0.9620 0.1962
vn 0.4566 -0.0829 0.8858
vn 0.2636 -0.4180 0.8693
vn 0.1058 -0.0842 0.9908
vn 0.5938 0.3914 0.7029
vn 0.4254 0.4245 0.7993
vn 0.0922 0.3937 0.9146
vn 0.0783 0.3215 0.9437
vn 0.5996 -0.0819 0.7961
vn 1.0000 0.0001 0.0002
vn 1.0000 -0.0000 -0.0000
vn 1.0000 -0.0006 0.0009
vn 1.0000 0.0052 0.0035
vn 1.0000 0.0002 0.0002
vn 0.3499 -0.1823 0.9189
vn 0.5636 -0.4208 0.7109
vn 0.0998 -0.4085 0.9073
vn -0.1798 0.8348 -0.5204
vn 0.2354 0.9057 0.3527
vn 0.1816 0.9190 0.3499
vn -0.0202 0.9997 -0.0124
vn 0.4579 0.1611 0.8743
vn 0.1166 0.9209 0.3719
vn 0.1212 0.9099 0.3968
vn 0.0392 0.9043 0.4252
vn 0.2754 0.3454 0.8972
vn 0.3174 0.3382 0.8859
vn 0.2698 0.3691 0.8894
vn -0.0000 1.0000 0.0001
vn -0.0003 1.0000 -0.0068
vn 0.0211 0.9994 0.0279
vn 0.4211 -0.4109 0.8086
vn 0.4245 -0.4148 0.8048
vn 0.4637 -0.0768 0.8827
vn 0.2519 -0.4081 0.8775
vn -0.9998 0.0123 0.0185
vn -1.0000 -0.0004 0.0003
vn -1.0000 -0.0003 0.0004
vn -1.0000 -0.0002 0.0011
vn -1.0000 -0.0028 0.0059
vn 0.1197 -0.0780 0.9897
vn 0.0833 -0.0742 0.9938
vn 0.5817 0.3697 0.7246
vn 0.4411 0.3659 0.8195
vn 0.2906 -0.0739 0.9540
vn 0.2884 -0.0755 0.9545
vn 0.1143 0.9205 0.3736
vn 0.1236 0.9103 0.3951
vn 1.0000 0.0006 0.0005
vn -1.0000 -0.0001 0.0003
vn -1.0000 -0.0004 0.0004
vn 0.2884 -0.0739 0.9546
vn 0.6302 -0.0794 0.7724
vn 1.0000 -0.0000 0.0003
vn 1.0000 0.0001 -0.0003
vn -1.0000 -0.0001 0.0005
vn 0.3256 -0.1840 0.9274
vn 0.3520 -0.1472 0.9244
vn -1.0000 -0.0004 0.0014
vn 0.2905 -0.0756 0.9539
vn 0.5992 -0.0856 0.7960
vn -0.0000 1.0000 -0.0001
s 0
f 15//1 18//1 7//1
f 27//2 20//2 21//2
f 17//3 14//3 23//3
f 4//4 11//4 5//4
f 33//5 28//5 27//5
f 30//6 22//6 25//6
f 8//7 13//7 9//7
f 5//8 1//8 4//8
f 14//9 11//9 17//9
f 6//10 7//10 2//10
f 24//11 33//11 26//11
f 10//12 4//12 9//12
f 19//13 31//13 27//13
f 31//14 29//14 32//14
f 15//15 22//15 30//15
f 13//16 20//16 10//16
f 13//17 8//17 16//17
f 7//18 6//18 15//18
f 6//19 12//19 15//19
f 27//20 28//20 20//20
f 20//21 28//21 17//21
f 28//22 26//22 24//22
f 17//22 28//22 24//22
f 11//23 4//23 17//23
f 4//24 10//24 20//24
f 17//25 4//25 20//25
f 17//26 23//26 24//26
f 33//27 26//27 28//27
f 25//28 29//28 30//28
f 14//29 5//29 11//29
f 10//30 9//30 13//30
f 9//31 3//31 8//31
f 2//32 1//32 5//32
f 16//33 19//33 21//33
f 7//34 8//34 1//34
f 8//35 3//35 1//35
f 2//36 7//36 1//36
f 18//37 19//37 8//37
f 19//38 16//38 8//38
f 8//39 7//39 18//39
f 33//11 24//11 32//11
f 32//11 23//11 29//11
f 24//11 23//11 32//11
f 29//40 23//40 25//40
f 1//41 3//41 4//41
f 3//42 9//42 4//42
f 27//43 31//43 32//43
f 32//44 33//44 27//44
f 21//45 19//45 27//45
f 31//46 30//46 29//46
f 12//47 6//47 2//47
f 2//48 5//48 12//48
f 12//49 5//49 14//49
f 14//50 23//50 22//50
f 23//51 25//51 22//51
f 22//49 12//49 14//49
f 30//52 18//52 15//52
f 15//53 12//53 22//53
f 13//54 21//54 20//54
f 16//55 21//55 13//55
f 18//56 30//56 31//56
f 18//57 31//57 19//57
f 7//58 3//58 1//58
f 8//59 3//59 7//59
f 20//60 11//60 4//60
f 14//61 2//61 5//61
f 14//62 12//62 2//62
f 30//63 19//63 18//63
f 21//64 28//64 20//64
f 28//65 11//65 20//65
f 28//22 26//22 11//22
f 26//22 24//22 11//22
f 24//66 17//66 11//66
f 23//67 12//67 14//67
f 17//68 14//68 24//68
f 24//69 14//69 23//69
f 23//70 22//70 12//70
f 31//71 19//71 30//71
f 27//72 28//72 21//72
f 33//11 26//11 25//11
f 25//11 26//11 24//11
f 25//40 24//40 23//40
f 25//73 29//73 32//73
f 33//11 25//11 32//11
