# Blender 4.0.0
# www.blender.org
o decimated_mesh
v -0.037043 0.018458 0.055989
v -0.037052 0.018500 0.051798
v -0.070020 0.045146 0.045411
v -0.072375 0.045146 0.045418
v -0.071224 0.041534 0.045468
v -0.055956 0.022690 0.045318
v -0.037097 0.008792 0.031383
v -0.050065 0.008792 -0.000010
v -0.083578 0.045146 -0.000015
v -0.037068 0.008783 0.040290
v -0.054785 0.008792 -0.000010
v -0.085604 0.045147 -0.000003
v -0.060314 0.022826 0.040068
v -0.079198 0.045147 0.032438
v -0.047517 0.018543 0.047524
v -0.071966 0.022378 -0.000016
v -0.078152 0.041633 0.032520
v -0.067013 0.022853 0.027439
v -0.084837 0.042241 -0.000007
v -0.083100 0.041833 0.016872
v -0.045026 0.008792 0.031162
v -0.052616 0.008790 0.015761
v -0.070763 0.022627 0.014364
v -0.083765 0.045146 0.017415
vn 0.6279 0.7783 0.0063
vn 0.0028 0.3714 0.9285
vn 0.6392 0.7450 -0.1908
vn -0.6047 -0.7742 0.1868
vn -0.8581 -0.2452 0.4511
vn -0.8050 -0.5424 0.2402
vn -0.7035 -0.6485 0.2906
vn -0.9627 -0.2540 0.0930
vn -0.6190 -0.7827 0.0653
vn -0.8348 -0.5457 0.0727
vn -0.4908 -0.7805 0.3873
vn -0.0031 -0.0015 -1.0000
vn -0.3537 -0.0998 0.9300
vn 1.0000 0.0011 -0.0022
vn -0.6563 -0.5360 0.5310
vn -0.9217 -0.2681 0.2802
vn -0.3961 -0.7814 0.4822
vn -0.0000 1.0000 -0.0000
vn 0.0005 1.0000 -0.0000
vn 0.0002 1.0000 -0.0001
vn -0.5507 -0.7893 0.2715
vn -0.5500 -0.7832 0.2901
vn -0.0001 1.0000 0.0010
vn -0.0000 1.0000 -0.0001
vn -0.0000 -1.0000 -0.0001
vn -0.0002 1.0000 0.0001
vn -0.8511 -0.2650 0.4533
vn -0.8005 -0.5464 0.2462
vn -0.7060 -0.6390 0.3054
vn -0.5152 -0.4234 0.7452
vn -0.9719 -0.2120 0.1026
vn -0.6083 -0.7893 0.0836
vn -0.8365 -0.5421 0.0794
vn -0.4612 -0.7913 0.4014
vn -0.4862 -0.7812 0.3915
vn -0.7410 -0.5452 0.3919
vn -0.7408 -0.5454 0.3921
vn -0.4760 -0.6590 0.5824
vn -0.0059 -0.0003 -1.0000
vn 0.0004 0.0002 -1.0000
vn -0.0000 -0.0004 -1.0000
vn 1.0000 0.0023 -0.0032
vn -0.9279 -0.2339 0.2904
vn -0.7222 -0.6241 0.2983
vn -0.7020 -0.6471 0.2976
vn -0.0001 1.0000 -0.0000
vn 0.0001 1.0000 -0.0000
vn -0.7409 -0.5452 0.3922
vn 0.0028 1.0000 -0.0015
vn 0.0002 1.0000 0.0001
vn -0.0025 1.0000 0.0010
vn -0.9304 -0.2332 0.2828
vn -0.9197 -0.2673 0.2874
vn -0.8027 -0.5429 0.2469
vn -0.7409 -0.5454 0.3918
vn -0.8340 -0.5461 0.0792
vn -0.8370 -0.5424 0.0730
vn -0.8023 -0.5467 0.2395
s 0
f 1//1 2//1 3//1
f 1//2 3//2 4//2
f 2//3 9//3 3//3
f 23//4 22//4 18//4
f 4//5 14//5 17//5
f 17//6 23//6 18//6
f 9//7 8//7 7//7
f 20//8 12//8 19//8
f 23//9 16//9 11//9
f 20//10 19//10 23//10
f 6//11 13//11 21//11
f 16//12 19//12 9//12
f 5//13 1//13 4//13
f 10//14 2//14 1//14
f 5//15 13//15 6//15
f 24//16 17//16 14//16
f 1//17 15//17 10//17
f 14//18 4//18 3//18
f 3//18 9//18 24//18
f 12//19 24//19 9//19
f 24//20 14//20 3//20
f 22//21 21//21 18//21
f 21//22 13//22 18//22
f 10//23 7//23 21//23
f 21//24 7//24 22//24
f 22//25 11//25 8//25
f 8//26 22//26 7//26
f 17//27 5//27 4//27
f 17//28 20//28 23//28
f 9//29 7//29 2//29
f 5//30 6//30 1//30
f 20//31 24//31 12//31
f 11//32 22//32 23//32
f 16//33 23//33 19//33
f 21//34 10//34 15//34
f 15//35 6//35 21//35
f 18//36 13//36 5//36
f 17//37 18//37 5//37
f 15//38 1//38 6//38
f 19//39 12//39 9//39
f 9//40 8//40 16//40
f 8//41 11//41 16//41
f 10//42 7//42 2//42
f 24//43 20//43 17//43
f 7//44 2//44 8//44
f 8//45 2//45 9//45
f 9//46 24//46 14//46
f 9//47 14//47 4//47
f 9//18 4//18 3//18
f 17//48 13//48 5//48
f 21//49 10//49 22//49
f 22//50 10//50 8//50
f 8//51 10//51 7//51
f 24//52 20//52 14//52
f 20//53 17//53 14//53
f 20//54 18//54 17//54
f 18//55 13//55 17//55
f 23//56 20//56 16//56
f 20//57 19//57 16//57
f 23//58 18//58 20//58
