# Blender 4.0.0
# www.blender.org
o decimated_mesh
v -0.083320 0.085326 0.045420
v -0.079323 0.085292 0.052930
v -0.081287 0.062476 0.045426
v -0.078031 0.063041 0.051570
v -0.067395 0.084055 0.067335
v -0.067306 0.085744 0.067266
v -0.078544 0.087266 0.052663
v -0.082324 0.087436 0.045438
v -0.071540 0.042213 0.045419
v -0.070020 0.041572 0.047454
v -0.075523 0.062548 0.054783
v -0.066194 0.062580 0.066151
v -0.067067 0.086992 0.066843
v -0.066725 0.087553 0.066464
v -0.077319 0.088076 0.051644
v -0.080411 0.088108 0.045422
v -0.049332 0.018497 0.045451
v -0.056141 0.022972 0.045424
v -0.066401 0.035189 0.045423
v -0.059827 0.041564 0.059822
v -0.054788 0.062548 0.075531
v -0.052910 0.085276 0.079338
v -0.052547 0.087274 0.078641
v -0.036539 0.088028 0.085433
v -0.036522 0.087936 0.084007
v -0.078067 0.087440 0.045419
v -0.044789 0.018503 0.045423
v -0.047453 0.041572 0.070020
v -0.050761 0.062835 0.078489
v -0.036521 0.087246 0.082635
v -0.036520 0.018503 0.052224
v -0.051307 0.022805 0.051099
v -0.036511 0.063826 0.086212
v -0.036524 0.084256 0.087945
v -0.036525 0.086029 0.087743
v -0.050026 0.088057 0.078324
v -0.036531 0.087372 0.087116
v -0.036523 0.018503 0.056332
v -0.038090 0.062364 0.085108
v -0.036520 0.041367 0.075864
v -0.039807 0.022859 0.060506
v -0.036521 0.022838 0.062222
vn -0.6334 -0.0779 0.7699
vn -0.4578 0.1006 0.8834
vn -0.5287 -0.3838 0.7571
vn -0.6358 -0.3069 0.7082
vn -0.7105 -0.3909 0.5852
vn -0.4039 -0.5423 0.7367
vn -0.4744 0.6728 0.5677
vn 0.0596 0.9962 -0.0634
vn 0.2614 0.9196 -0.2933
vn -0.5325 -0.5463 0.6465
vn -0.8003 -0.3851 0.4595
vn -0.1866 0.9150 0.3577
vn -0.8801 -0.0797 0.4681
vn -0.4345 0.3796 0.8168
vn 0.3764 0.8279 -0.4159
vn -1.0000 -0.0006 -0.0010
vn 0.3953 0.7918 -0.4657
vn -0.6469 -0.5428 0.5356
vn -0.4708 -0.0783 0.8787
vn -0.4396 -0.3905 0.8088
vn -0.0010 -0.0001 1.0000
vn -0.7450 -0.5448 0.3849
vn -0.2404 -0.4061 0.8816
vn -0.6399 0.0650 0.7657
vn -0.1109 0.9873 0.1141
vn -0.8153 0.3814 0.4357
vn -0.3973 0.8887 0.2287
vn -0.5858 -0.0866 0.8058
vn -0.6323 -0.0769 0.7709
vn -0.7657 0.0664 0.6397
vn -0.5852 -0.3912 0.7103
vn -0.6011 -0.3233 0.7308
vn 0.5030 0.7630 -0.4060
vn -0.7108 -0.3913 0.5845
vn -0.7556 -0.3837 0.5309
vn -0.3927 -0.5392 0.7450
vn -0.5711 0.6693 0.4752
vn -0.5929 0.3583 0.7211
vn -0.5928 0.3592 0.7208
vn -0.5300 -0.5434 0.6510
vn -0.7932 -0.3862 0.4708
vn 0.0038 1.0000 -0.0032
vn -0.0051 1.0000 0.0076
vn -0.2466 0.9188 0.3082
vn -0.2229 0.8840 0.4109
vn -0.8779 -0.0780 0.4724
vn -0.4380 0.3661 0.8211
vn -1.0000 -0.0002 0.0013
vn -1.0000 0.0003 -0.0003
vn -1.0000 0.0016 -0.0008
vn -1.0000 -0.0000 -0.0000
vn -0.9998 -0.0195 -0.0107
vn -1.0000 -0.0002 -0.0009
vn -1.0000 -0.0031 0.0035
vn -1.0000 -0.0004 -0.0009
vn 0.3994 0.7731 -0.4928
vn -0.6502 -0.5390 0.5355
vn -0.6470 -0.5433 0.5350
vn -0.4617 -0.1602 0.8724
vn -0.4674 -0.0750 0.8809
vn -0.0006 1.0000 0.0002
vn -0.0015 1.0000 0.0018
vn -0.4378 -0.3895 0.8103
vn 0.0002 0.0003 1.0000
vn 0.0001 0.0001 1.0000
vn 0.0010 0.0001 1.0000
vn 0.0001 0.0003 1.0000
vn 0.0009 -0.0017 1.0000
vn 0.0061 0.0152 0.9999
vn -0.0134 0.0148 -0.9998
vn -0.7706 -0.0780 0.6326
vn -0.7712 -0.0774 0.6319
vn -0.7917 -0.0830 0.6052
vn -0.7194 0.3640 0.5916
vn -0.7274 0.3414 0.5953
vn 0.3004 0.7681 -0.5654
vn -0.8156 0.3808 0.4356
vn -0.3256 0.9307 0.1665
vn -0.3531 0.8914 0.2839
vn -0.8155 0.3808 0.4358
vn -0.8154 0.3814 0.4355
vn -0.0006 -0.0002 1.0000
vn 0.0016 0.0004 1.0000
vn -0.8802 -0.0782 0.4681
vn -0.7255 0.3418 0.5974
vn -0.7205 0.3642 0.5902
vn -0.8777 -0.0798 0.4725
vn -0.0083 0.9999 0.0092
vn 0.0026 1.0000 -0.0008
vn 0.0014 0.0002 1.0000
vn -0.0002 -0.0000 1.0000
vn 0.0003 0.0005 1.0000
vn 0.0043 0.0037 1.0000
vn -0.5930 0.3583 0.7211
vn -0.5927 0.3592 0.7209
vn -0.7110 -0.3908 0.5846
vn -0.9993 -0.0367 -0.0096
vn -1.0000 -0.0067 -0.0042
vn -1.0000 -0.0004 -0.0010
vn -1.0000 -0.0006 -0.0011
vn -1.0000 -0.0005 -0.0007
vn -0.6346 -0.3127 0.7068
vn -0.6073 -0.2931 0.7384
vn -0.7103 -0.3914 0.5851
vn -0.6472 -0.5428 0.5352
vn -0.6467 -0.5430 0.5356
vn -1.0000 -0.0003 0.0007
vn -1.0000 0.0007 -0.0007
vn -0.5336 -0.5436 0.6479
vn -0.5287 -0.5463 0.6496
vn -0.4045 -0.5404 0.7378
vn -0.3908 -0.5457 0.7413
s 0
f 5//1 12//1 21//1
f 35//2 22//2 34//2
f 28//3 29//3 21//3
f 30//4 26//4 27//4
f 11//5 10//5 20//5
f 28//6 42//6 40//6
f 14//7 13//7 23//7
f 16//8 24//8 25//8
f 16//9 25//9 26//9
f 41//10 28//10 20//10
f 4//11 3//11 9//11
f 37//12 24//12 36//12
f 4//13 2//13 1//13
f 37//14 23//14 35//14
f 25//15 30//15 26//15
f 34//16 30//16 33//16
f 38//17 17//17 32//17
f 32//18 20//18 19//18
f 33//19 22//19 29//19
f 40//20 29//20 28//20
f 26//21 9//21 19//21
f 19//22 10//22 9//22
f 33//23 39//23 40//23
f 22//24 6//24 5//24
f 36//25 15//25 14//25
f 1//26 2//26 8//26
f 8//27 7//27 15//27
f 21//28 29//28 22//28
f 5//29 21//29 22//29
f 2//30 5//30 6//30
f 12//31 20//31 21//31
f 20//31 28//31 21//31
f 30//32 27//32 31//32
f 32//33 17//33 18//33
f 20//34 12//34 11//34
f 11//35 4//35 10//35
f 28//36 41//36 42//36
f 14//37 7//37 13//37
f 23//38 13//38 6//38
f 6//39 22//39 23//39
f 32//40 41//40 20//40
f 9//41 10//41 4//41
f 15//42 36//42 24//42
f 24//43 16//43 15//43
f 14//44 23//44 36//44
f 23//45 37//45 36//45
f 1//46 3//46 4//46
f 22//47 35//47 23//47
f 33//48 30//48 40//48
f 40//49 31//49 42//49
f 42//50 31//50 38//50
f 31//51 40//51 30//51
f 25//52 35//52 24//52
f 30//53 35//53 25//53
f 24//54 35//54 37//54
f 35//55 30//55 34//55
f 38//56 32//56 41//56
f 20//57 10//57 19//57
f 32//58 19//58 18//58
f 29//59 39//59 33//59
f 33//60 34//60 22//60
f 38//61 31//61 17//61
f 31//62 27//62 17//62
f 39//63 29//63 40//63
f 18//64 27//64 19//64
f 27//65 26//65 19//65
f 9//66 26//66 3//66
f 3//67 26//67 1//67
f 1//68 26//68 16//68
f 27//69 18//69 17//69
f 16//70 1//70 8//70
f 12//71 5//71 11//71
f 5//72 2//72 11//72
f 2//73 4//73 11//73
f 2//74 6//74 7//74
f 6//75 13//75 7//75
f 38//76 41//76 42//76
f 7//77 8//77 2//77
f 15//78 16//78 8//78
f 14//79 15//79 7//79
f 2//80 7//80 1//80
f 7//81 8//81 1//81
f 16//82 1//82 9//82
f 9//83 1//83 3//83
f 3//84 2//84 1//84
f 6//85 13//85 2//85
f 13//86 7//86 2//86
f 3//87 4//87 2//87
f 15//88 36//88 16//88
f 36//89 24//89 16//89
f 26//90 16//90 9//90
f 26//91 9//91 27//91
f 27//92 9//92 18//92
f 18//93 9//93 19//93
f 22//94 13//94 6//94
f 22//95 23//95 13//95
f 10//96 12//96 11//96
f 37//97 24//97 25//97
f 37//98 25//98 35//98
f 35//99 25//99 34//99
f 34//100 25//100 33//100
f 33//101 25//101 30//101
f 30//102 26//102 31//102
f 31//103 26//103 27//103
f 20//104 12//104 10//104
f 32//105 20//105 18//105
f 20//106 19//106 18//106
f 31//107 33//107 30//107
f 40//108 33//108 31//108
f 32//109 28//109 20//109
f 41//110 28//110 32//110
f 41//111 40//111 28//111
f 41//112 42//112 40//112
