# Blender 4.0.0
# www.blender.org
o decimated_mesh
v 0.054588 0.085415 0.077916
v 0.054597 0.087072 0.077171
v 0.067462 0.085475 0.067252
v 0.067005 0.086997 0.066929
v 0.054589 0.087641 0.076310
v 0.054596 0.062613 0.075669
v 0.066145 0.062492 0.066140
v 0.054587 0.043651 0.065017
v 0.077546 0.087389 0.053825
v 0.066706 0.087534 0.066532
v 0.057566 0.088052 0.072660
v 0.054587 0.088075 0.073803
v 0.075532 0.062548 0.054782
v 0.060307 0.043651 0.060305
v 0.054587 0.043651 0.062212
v 0.079332 0.085273 0.052938
v 0.078518 0.062785 0.050692
v 0.073784 0.043651 0.037506
v 0.079078 0.087248 0.051842
v 0.078324 0.088060 0.050015
v 0.084070 0.088108 0.037517
v 0.070831 0.043651 0.047345
v 0.076196 0.043651 0.037506
v 0.087467 0.085446 0.037509
v 0.086808 0.087156 0.037506
v 0.085565 0.087830 0.037505
v 0.082482 0.087503 0.037506
v 0.085538 0.062910 0.037515
v 0.054587 0.087247 0.071677
v 0.081323 0.085786 0.037506
vn 0.4624 0.8525 0.2439
vn 0.8046 -0.4001 0.4388
vn 0.8341 0.3222 0.4477
vn 0.2708 0.9371 0.2204
vn 0.4107 0.7621 0.5005
vn -0.4086 0.8505 -0.3312
vn 0.0728 0.9828 0.1698
vn 0.7819 -0.1399 0.6075
vn 0.7529 -0.3946 0.5267
vn 0.6342 -0.0736 0.7696
vn 0.1448 0.9805 0.1331
vn 0.6010 0.3349 0.7257
vn 0.5828 -0.3997 0.7075
vn -0.0000 1.0000 -0.0000
vn 0.7207 0.3599 0.5925
vn -0.6878 0.4643 -0.5580
vn 0.0056 -0.0115 0.9999
vn 1.0000 0.0002 -0.0010
vn 1.0000 -0.0005 -0.0000
vn 1.0000 0.0004 -0.0000
vn 1.0000 0.0005 -0.0000
vn -0.9998 0.0132 0.0174
vn -1.0000 0.0016 0.0014
vn 0.3245 0.9277 0.1845
vn 0.8126 -0.3944 0.4292
vn 0.8268 0.3505 0.4399
vn 0.4471 0.8608 0.2430
vn 0.1825 0.9793 0.0876
vn 0.8801 -0.0786 0.4682
vn 0.8824 -0.0754 0.4644
vn -0.3409 0.9000 -0.2716
vn 0.7778 -0.1333 0.6142
vn 0.0122 0.9999 0.0115
vn 0.0082 0.9999 0.0076
vn 0.5687 0.6698 0.4775
vn 0.7075 -0.3998 0.5828
vn 0.7102 -0.4037 0.5767
vn 0.6363 -0.0754 0.7678
vn 0.7688 -0.0748 0.6351
vn 0.8070 -0.0875 0.5840
vn 0.7670 -0.0765 0.6371
vn 0.6024 0.3247 0.7291
vn 0.5811 -0.3988 0.7094
vn -0.0000 -1.0000 -0.0000
vn 0.7399 0.3967 0.5433
vn 0.7264 0.3447 0.5946
vn -0.0003 -0.0016 -1.0000
vn -0.0005 0.0003 1.0000
vn -0.0000 -0.0005 1.0000
vn -0.0012 0.0002 1.0000
vn -0.0095 0.0064 0.9999
vn -0.0004 0.0011 1.0000
vn 0.4698 0.6789 0.5642
vn 0.2652 0.9101 0.3186
vn 1.0000 0.0005 -0.0018
vn 0.6341 -0.0756 0.7695
vn 0.6364 -0.0736 0.7679
vn 1.0000 0.0001 -0.0003
vn 1.0000 -0.0000 -0.0000
vn 0.7687 -0.0770 0.6349
vn 0.7671 -0.0748 0.6372
vn 0.7250 0.3447 0.5963
vn -0.3405 0.8989 -0.2758
vn -0.4127 0.8488 -0.3305
vn 1.0000 -0.0000 0.0002
vn 0.7827 -0.1320 0.6082
vn 0.8357 0.3228 0.4443
vn 0.8249 0.3517 0.4426
vn 0.7213 0.3611 0.5910
vn 0.3880 0.8909 0.2362
vn 0.4127 0.8833 0.2226
vn 0.0029 -0.0262 0.9997
vn 0.0001 -0.0001 1.0000
vn 0.7770 -0.1390 0.6139
vn 0.0001 -0.0000 1.0000
vn -0.0000 -0.0000 1.0000
vn -0.0020 0.0005 1.0000
vn -0.0014 0.0003 1.0000
s 0
f 26//1 19//1 25//1
f 23//2 17//2 22//2
f 25//3 19//3 24//3
f 10//4 9//4 20//4
f 5//5 2//5 10//5
f 21//6 29//6 12//6
f 5//7 11//7 12//7
f 15//8 18//8 30//8
f 22//9 17//9 13//9
f 3//10 6//10 7//10
f 20//11 11//11 10//11
f 3//12 4//12 2//12
f 7//13 8//13 14//13
f 15//14 22//14 18//14
f 3//15 16//15 9//15
f 27//16 30//16 29//16
f 30//17 26//17 21//17
f 29//18 6//18 15//18
f 15//19 6//19 8//19
f 6//20 29//20 1//20
f 29//21 12//21 1//21
f 1//22 2//22 5//22
f 5//23 12//23 1//23
f 26//24 9//24 19//24
f 28//25 17//25 23//25
f 16//26 24//26 19//26
f 9//27 26//27 20//27
f 20//28 26//28 21//28
f 16//29 17//29 28//29
f 28//30 24//30 16//30
f 21//31 27//31 29//31
f 15//32 30//32 29//32
f 11//33 20//33 12//33
f 20//34 21//34 12//34
f 9//35 10//35 4//35
f 7//36 14//36 13//36
f 14//37 22//37 13//37
f 1//38 6//38 3//38
f 7//39 13//39 3//39
f 13//40 17//40 16//40
f 3//41 13//41 16//41
f 1//42 3//42 2//42
f 7//43 6//43 8//43
f 23//14 18//14 22//14
f 22//44 14//44 15//44
f 14//44 8//44 15//44
f 16//45 19//45 9//45
f 9//46 4//46 3//46
f 25//47 24//47 26//47
f 24//48 30//48 28//48
f 28//49 18//49 23//49
f 18//50 28//50 30//50
f 30//51 21//51 27//51
f 24//52 26//52 30//52
f 10//53 2//53 4//53
f 5//54 10//54 11//54
f 8//55 1//55 6//55
f 6//56 7//56 1//56
f 7//57 3//57 1//57
f 12//58 1//58 8//58
f 12//59 8//59 15//59
f 15//14 23//14 18//14
f 15//14 22//14 23//14
f 13//60 16//60 7//60
f 16//61 3//61 7//61
f 16//62 4//62 3//62
f 21//63 27//63 12//63
f 27//64 29//64 12//64
f 29//65 12//65 15//65
f 29//66 15//66 18//66
f 24//67 25//67 16//67
f 25//68 19//68 16//68
f 9//69 4//69 16//69
f 9//70 19//70 20//70
f 19//71 26//71 20//71
f 26//72 21//72 27//72
f 26//73 27//73 30//73
f 30//74 29//74 18//74
f 30//75 18//75 26//75
f 26//76 18//76 23//76
f 23//77 28//77 24//77
f 23//78 24//78 26//78
