# Blender 4.0.0
# www.blender.org
o decimated_mesh
v -0.036516 0.045042 0.074739
v -0.000015 0.045042 0.083559
v -0.036516 0.045042 0.077104
v -0.036516 0.085529 0.081746
v -0.000033 0.045041 0.085590
v -0.034138 0.062507 0.086948
v -0.036508 0.063860 0.086218
v -0.000023 0.063475 0.093601
v -0.011420 0.062591 0.092489
v -0.032568 0.045042 0.079098
v -0.036524 0.087760 0.083283
v -0.000014 0.087594 0.090609
v -0.019965 0.063115 0.091323
v -0.000016 0.087874 0.093453
v -0.018058 0.045042 0.083579
v -0.036504 0.085404 0.087975
v -0.036488 0.088027 0.085560
v -0.017585 0.088280 0.090929
v -0.000021 0.087221 0.094657
v -0.000019 0.084238 0.095246
v -0.019091 0.085308 0.093320
v -0.036501 0.087321 0.087214
v -0.009787 0.085357 0.094400
v -0.018721 0.087341 0.092650
vn -1.0000 -0.0051 0.0017
vn -0.0000 1.0000 -0.0000
vn -0.0585 -0.3979 0.9156
vn 0.1655 0.5599 -0.8119
vn -0.0949 -0.0786 0.9924
vn -0.2540 -0.4035 0.8790
vn 0.0199 0.9930 -0.1168
vn -0.0626 0.1934 0.9791
vn -0.0964 0.3785 0.9206
vn -0.4124 -0.4041 0.8165
vn 0.0371 0.9945 -0.0979
vn -0.3331 -0.0766 0.9398
vn -1.0000 -0.0019 -0.0089
vn -0.9997 0.0189 0.0138
vn -1.0000 -0.0002 0.0009
vn -1.0000 0.0004 -0.0000
vn -1.0000 -0.0000 0.0018
vn -0.0000 -1.0000 -0.0004
vn -0.1480 -0.4027 0.9033
vn -0.1007 -0.4199 0.9020
vn -0.1146 -0.0750 0.9906
vn -0.1397 -0.0833 0.9867
vn -0.0909 -0.0768 0.9929
vn -1.0000 0.0050 -0.0012
vn -1.0000 -0.0010 -0.0017
vn -1.0000 0.0003 -0.0008
vn 0.9999 -0.0045 0.0090
vn 1.0000 -0.0002 0.0012
vn -0.2685 -0.4149 0.8693
vn 0.0357 0.9872 -0.1556
vn -0.2244 -0.1593 0.9614
vn -0.2316 -0.1659 0.9586
vn -0.0433 0.8887 0.4564
vn -0.0481 0.8781 0.4761
vn -0.1227 0.9131 0.3890
vn -0.1262 0.9035 0.4096
vn -0.1107 0.3292 0.9377
vn -0.4654 -0.3857 0.7966
vn -0.2747 0.3457 0.8972
vn -0.2725 0.3553 0.8942
vn -0.2912 -0.0743 0.9538
vn -0.2930 -0.0731 0.9533
vn -1.0000 0.0013 -0.0076
vn -1.0000 -0.0002 -0.0000
vn -1.0000 -0.0005 0.0018
vn -1.0000 -0.0002 0.0042
vn -1.0000 0.0041 0.0063
vn -0.9990 0.0441 0.0108
vn -0.0449 0.8891 0.4555
vn -0.2319 -0.1590 0.9597
vn -0.2238 -0.1662 0.9604
vn 1.0000 -0.0003 0.0007
vn -0.2736 0.3456 0.8976
vn -0.2737 0.3552 0.8939
vn -0.0455 0.8782 0.4762
vn 1.0000 0.0016 0.0047
vn 1.0000 -0.0003 0.0010
vn -0.0908 -0.0786 0.9928
vn -0.0947 -0.0765 0.9926
s 0
f 4//1 16//1 11//1
f 15//2 1//2 10//2
f 5//3 8//3 9//3
f 4//4 11//4 12//4
f 8//5 20//5 23//5
f 15//6 13//6 6//6
f 18//7 11//7 17//7
f 19//8 23//8 20//8
f 19//9 24//9 23//9
f 6//10 3//10 10//10
f 12//11 18//11 14//11
f 16//12 7//12 6//12
f 17//13 16//13 22//13
f 17//14 11//14 16//14
f 4//15 1//15 7//15
f 1//16 3//16 7//16
f 7//17 16//17 4//17
f 10//2 1//2 3//2
f 1//2 15//2 2//2
f 15//18 2//18 5//18
f 13//19 15//19 9//19
f 15//20 5//20 9//20
f 23//21 21//21 9//21
f 21//22 13//22 9//22
f 9//23 8//23 23//23
f 12//24 19//24 14//24
f 19//25 12//25 20//25
f 20//26 12//26 8//26
f 8//27 5//27 2//27
f 12//28 8//28 2//28
f 10//29 15//29 6//29
f 18//30 12//30 11//30
f 12//31 4//31 2//31
f 2//32 4//32 1//32
f 24//33 19//33 18//33
f 14//34 18//34 19//34
f 18//35 17//35 22//35
f 22//36 24//36 18//36
f 21//37 23//37 24//37
f 6//38 7//38 3//38
f 24//39 22//39 21//39
f 21//40 22//40 16//40
f 6//41 13//41 21//41
f 6//42 21//42 16//42
f 4//43 1//43 11//43
f 1//44 3//44 11//44
f 3//45 7//45 11//45
f 7//46 16//46 11//46
f 16//47 22//47 11//47
f 22//48 17//48 11//48
f 24//49 14//49 18//49
f 2//50 12//50 1//50
f 1//51 12//51 4//51
f 14//52 8//52 12//52
f 2//2 10//2 15//2
f 2//2 3//2 10//2
f 2//2 1//2 3//2
f 21//53 24//53 16//53
f 24//54 22//54 16//54
f 19//55 14//55 24//55
f 19//56 20//56 14//56
f 20//57 8//57 14//57
f 20//58 9//58 8//58
f 9//59 20//59 23//59
