# Blender 4.0.0
# www.blender.org
o decimated_mesh
v 0.037793 0.043647 -0.076045
v 0.037794 0.043650 -0.073681
v 0.037795 0.062736 -0.085368
v 0.047282 0.043647 -0.070890
v 0.050655 0.062874 -0.078571
v 0.062211 0.043647 -0.054590
v 0.037793 0.085784 -0.081140
v 0.052919 0.085273 -0.079339
v 0.054784 0.062548 -0.075532
v 0.065019 0.043647 -0.054590
v 0.037795 0.085444 -0.087329
v 0.066149 0.062573 -0.066185
v 0.075668 0.062616 -0.054600
v 0.037793 0.087533 -0.082384
v 0.060302 0.043647 -0.060308
v 0.071841 0.087370 -0.054590
v 0.037806 0.088116 -0.084272
v 0.065918 0.085417 -0.068652
v 0.068463 0.085347 -0.066142
v 0.074191 0.088017 -0.054594
v 0.037795 0.087576 -0.086106
v 0.037793 0.086989 -0.086745
v 0.052503 0.087321 -0.078638
v 0.076354 0.087606 -0.054591
v 0.072663 0.088051 -0.057566
v 0.049875 0.088111 -0.078240
v 0.066178 0.087551 -0.067037
v 0.066899 0.087002 -0.067023
v 0.077169 0.087074 -0.054597
v 0.077863 0.085528 -0.054592
vn -0.0007 -1.0000 0.0012
vn 0.6995 -0.0697 -0.7112
vn 0.4665 -0.0774 -0.8811
vn -0.0000 -0.0005 -1.0000
vn 0.4524 0.3163 -0.8339
vn 0.6132 -0.1350 -0.7783
vn -0.5522 0.4832 0.6793
vn 0.4324 -0.3957 -0.8102
vn 0.6781 0.2791 -0.6799
vn 0.1310 0.9812 -0.1416
vn 0.5771 -0.4034 -0.7101
vn 0.1859 0.9790 -0.0841
vn -0.0032 1.0000 0.0073
vn -0.2512 0.9159 0.3131
vn 0.7705 -0.0771 -0.6328
vn 0.4937 0.6346 -0.5945
vn 0.1405 0.9495 -0.2804
vn 0.5246 -0.3936 -0.7549
vn 0.3358 0.6932 -0.6377
vn 0.4963 0.7656 -0.4092
vn 0.7071 -0.3996 -0.5834
vn -0.0000 1.0000 -0.0000
vn -0.0004 -1.0000 0.0004
vn 0.9999 0.0063 0.0088
vn 1.0000 0.0046 -0.0074
vn 1.0000 0.0041 -0.0065
vn 1.0000 -0.0046 0.0006
vn 1.0000 -0.0000 0.0004
vn 1.0000 -0.0002 -0.0003
vn 1.0000 -0.0000 0.0001
vn 0.4651 -0.0762 -0.8820
vn 0.7307 0.3261 -0.5998
vn 0.7176 0.3615 -0.5952
vn -0.0003 0.0004 -1.0000
vn -0.0012 -0.0027 -1.0000
vn 0.0138 0.0095 0.9999
vn 0.0020 0.0020 -1.0000
vn -0.0010 0.0002 -1.0000
vn 0.4374 0.3694 -0.8199
vn 0.6100 -0.1381 -0.7803
vn 0.4377 -0.3987 -0.8059
vn 0.3294 0.9038 -0.2733
vn 0.5827 -0.3998 -0.7075
vn 0.5446 0.7050 -0.4542
vn 0.5873 0.3742 -0.7177
vn 0.5885 0.3661 -0.7208
vn 0.6334 -0.0768 -0.7700
vn 0.5861 -0.0869 -0.8056
vn 0.6337 -0.0770 -0.7698
vn -0.0152 0.9997 0.0196
vn -0.2303 0.9303 0.2854
vn 0.7740 -0.0740 -0.6288
vn 0.2340 0.9267 -0.2942
vn 0.2115 0.8980 -0.3858
vn 0.7094 -0.3985 -0.5814
vn 1.0000 -0.0000 -0.0003
vn 1.0000 -0.0000 -0.0000
vn 1.0000 0.0001 0.0003
vn 1.0000 0.0003 0.0036
vn 0.6103 -0.1344 -0.7807
vn 0.6130 -0.1377 -0.7780
vn 0.9998 -0.0214 0.0002
vn 1.0000 -0.0035 0.0004
vn 0.4421 0.3694 -0.8173
vn 0.4458 0.3174 -0.8370
vn 0.6337 -0.0767 -0.7698
vn 0.6334 -0.0770 -0.7700
vn -0.0018 0.0005 -1.0000
vn -0.0004 0.0001 -1.0000
vn -0.0000 -0.0000 -1.0000
vn 0.0001 -0.0076 -1.0000
vn -0.0118 0.9998 0.0179
vn -0.0022 1.0000 0.0053
s 0
f 1//1 4//1 2//1
f 18//2 19//2 12//2
f 8//3 5//3 3//3
f 6//4 13//4 10//4
f 22//5 23//5 11//5
f 7//6 16//6 6//6
f 7//7 16//7 14//7
f 5//8 1//8 3//8
f 18//9 28//9 19//9
f 27//10 26//10 25//10
f 9//11 15//11 4//11
f 20//12 24//12 25//12
f 26//13 17//13 20//13
f 20//14 14//14 16//14
f 12//15 19//15 13//15
f 27//16 28//16 23//16
f 26//17 21//17 17//17
f 4//18 5//18 9//18
f 23//19 22//19 21//19
f 24//20 29//20 27//20
f 12//21 10//21 15//21
f 4//22 6//22 15//22
f 15//22 6//22 10//22
f 6//23 2//23 4//23
f 7//24 17//24 14//24
f 17//25 11//25 21//25
f 21//26 11//26 22//26
f 17//27 7//27 11//27
f 11//28 7//28 3//28
f 3//29 2//29 1//29
f 2//30 3//30 7//30
f 3//31 11//31 8//31
f 30//32 19//32 29//32
f 19//33 28//33 29//33
f 13//34 16//34 30//34
f 16//35 20//35 30//35
f 30//36 29//36 24//36
f 24//37 30//37 20//37
f 16//38 13//38 6//38
f 8//39 11//39 23//39
f 7//40 6//40 2//40
f 5//41 4//41 1//41
f 24//42 27//42 25//42
f 9//43 12//43 15//43
f 27//44 29//44 28//44
f 23//45 28//45 18//45
f 18//46 8//46 23//46
f 18//47 12//47 9//47
f 9//48 5//48 8//48
f 9//49 8//49 18//49
f 25//50 26//50 20//50
f 20//51 17//51 14//51
f 30//52 13//52 19//52
f 26//53 27//53 23//53
f 23//54 21//54 26//54
f 12//55 13//55 10//55
f 2//56 1//56 14//56
f 14//57 1//57 22//57
f 22//58 1//58 3//58
f 22//59 3//59 11//59
f 15//22 4//22 10//22
f 10//22 4//22 6//22
f 6//60 2//60 16//60
f 16//61 2//61 7//61
f 7//57 2//57 14//57
f 17//62 14//62 21//62
f 21//63 14//63 22//63
f 23//64 8//64 22//64
f 8//65 11//65 22//65
f 18//66 12//66 8//66
f 12//67 9//67 8//67
f 13//68 10//68 30//68
f 30//69 10//69 16//69
f 16//70 10//70 6//70
f 30//34 16//34 24//34
f 24//71 16//71 20//71
f 25//72 17//72 20//72
f 25//73 26//73 17//73
