# Blender 4.0.0
# www.blender.org
o decimated_mesh
v -0.038092 0.008791 -0.031906
v -0.038096 0.008789 -0.039468
v -0.038092 0.023212 -0.058332
v -0.050064 0.008791 -0.000015
v -0.038131 0.023171 -0.061781
v -0.069689 0.023212 -0.000015
v -0.054786 0.008791 -0.000015
v -0.072647 0.023166 -0.000017
v -0.051429 0.023147 -0.051378
v -0.045515 0.008791 -0.030514
v -0.038092 0.019542 -0.056959
v -0.060554 0.023180 -0.040219
v -0.071246 0.023105 -0.014038
v -0.067182 0.023182 -0.027791
v -0.053752 0.008791 -0.010336
v -0.050760 0.008791 -0.020591
vn -1.0000 0.0009 0.0005
vn 0.7871 0.5415 0.2955
vn -0.0000 1.0000 -0.0000
vn 0.5638 0.7673 0.3055
vn -0.4824 -0.7795 -0.3996
vn -0.5541 -0.7783 -0.2954
vn -0.4100 -0.7770 -0.4777
vn -0.6240 -0.7789 -0.0625
vn -1.0000 -0.0001 -0.0003
vn 0.9999 -0.0041 -0.0111
vn -0.0000 1.0000 -0.0002
vn -0.0153 0.9999 -0.0059
vn -0.0024 1.0000 -0.0013
vn -0.0026 1.0000 -0.0015
vn -0.0108 0.9999 -0.0116
vn -0.0111 0.9999 -0.0120
vn -0.0325 0.9995 -0.0040
vn -0.0006 -0.0007 1.0000
vn -0.0000 -0.0000 1.0000
vn -0.4879 -0.7775 -0.3967
vn -0.6009 -0.7798 -0.1753
vn -0.6016 -0.7777 -0.1822
vn -0.5543 -0.7791 -0.2929
vn -0.4233 -0.7255 -0.5427
vn -0.6259 -0.7777 -0.0591
vn -1.0000 0.0011 0.0005
vn -1.0000 -0.0000 -0.0000
vn -0.0007 1.0000 -0.0002
vn 0.0001 1.0000 -0.0000
vn 0.0003 1.0000 0.0001
vn 0.0007 1.0000 0.0004
vn -0.0107 0.9999 -0.0116
vn -0.0114 0.9999 -0.0122
vn -0.0511 0.9987 -0.0095
vn -0.0153 0.9999 -0.0024
s 0
f 3//1 2//1 1//1
f 1//2 3//2 4//2
f 1//3 16//3 4//3
f 3//4 6//4 4//4
f 10//5 9//5 2//5
f 14//6 12//6 10//6
f 9//7 11//7 2//7
f 15//8 7//8 13//8
f 2//9 3//9 11//9
f 11//10 5//10 3//10
f 7//3 4//3 15//3
f 15//3 4//3 16//3
f 16//3 1//3 10//3
f 10//11 1//11 2//11
f 13//12 8//12 6//12
f 6//13 3//13 14//13
f 14//14 3//14 12//14
f 5//15 9//15 3//15
f 9//16 12//16 3//16
f 14//17 13//17 6//17
f 8//18 7//18 6//18
f 7//19 4//19 6//19
f 10//20 12//20 9//20
f 16//21 15//21 13//21
f 13//22 14//22 16//22
f 10//23 16//23 14//23
f 9//24 5//24 11//24
f 8//25 13//25 7//25
f 2//26 1//26 11//26
f 11//27 1//27 3//27
f 4//28 1//28 2//28
f 4//3 2//3 7//3
f 7//29 2//29 15//29
f 15//30 2//30 16//30
f 16//31 2//31 10//31
f 5//32 12//32 3//32
f 12//33 5//33 9//33
f 13//34 8//34 14//34
f 8//35 6//35 14//35
