# Blender 4.0.0
# www.blender.org
o decimated_mesh
v 0.039588 0.018353 0.053924
v 0.032052 0.045886 0.078908
v 0.031871 0.041582 0.078321
v 0.029932 0.023016 0.066240
v 0.039435 0.008791 0.030382
v 0.026313 0.008787 0.048336
v 0.039430 0.008798 0.038167
v -0.000015 0.008791 0.050058
v -0.000015 0.045723 0.083705
v 0.016826 0.041883 0.083123
v -0.000015 0.008791 0.054784
v -0.000004 0.045723 0.085717
v 0.017607 0.045722 0.083854
v -0.000009 0.042317 0.084887
v 0.014212 0.022862 0.070983
v 0.010384 0.008791 0.053739
v -0.000015 0.022554 0.072100
vn 0.3221 -0.1413 0.9361
vn 0.9014 0.3991 -0.1679
vn -0.0000 1.0000 -0.0001
vn 0.2449 -0.5453 0.8017
vn -0.0002 -1.0000 -0.0003
vn -0.3459 0.6319 -0.6936
vn -0.0958 0.7837 -0.6137
vn 0.1982 -0.7865 0.5850
vn 0.3717 -0.7954 0.4787
vn -1.0000 -0.0000 -0.0000
vn 0.5914 -0.4823 0.6462
vn 0.3255 -0.7712 0.5471
vn 0.1030 -0.2063 0.9731
vn 0.0625 -0.7800 0.6226
vn 0.2912 -0.2358 0.9271
vn -0.0003 0.9995 0.0324
vn 0.2468 -0.5465 0.8003
vn 0.0014 -1.0000 0.0008
vn 0.0001 1.0000 -0.0003
vn -0.0000 1.0000 -0.0000
vn 0.1874 -0.7810 0.5957
vn 0.9998 -0.0175 0.0006
vn -1.0000 -0.0010 0.0021
vn -1.0000 0.0001 0.0053
vn 0.0736 -0.5437 0.8360
vn 0.0775 -0.5416 0.8371
vn 0.9216 -0.0904 0.3775
vn 0.0953 -0.2360 0.9671
vn 0.0657 -0.7812 0.6209
vn -0.0001 1.0000 -0.0010
vn 0.0001 1.0000 -0.0000
vn -0.0051 1.0000 -0.0001
vn 0.0051 0.9988 0.0480
vn 0.0774 -0.5439 0.8356
vn 0.0658 -0.7802 0.6221
vn 0.0624 -0.7813 0.6210
vn 0.0738 -0.5418 0.8373
s 0
f 2//1 13//1 3//1
f 1//2 5//2 2//2
f 13//3 9//3 12//3
f 10//4 15//4 3//4
f 8//5 5//5 6//5
f 5//6 8//6 9//6
f 5//7 9//7 2//7
f 4//8 16//8 6//8
f 1//9 6//9 7//9
f 8//10 11//10 17//10
f 3//11 4//11 1//11
f 6//12 1//12 4//12
f 12//13 10//13 13//13
f 11//14 16//14 15//14
f 13//15 10//15 3//15
f 2//16 9//16 13//16
f 4//17 3//17 15//17
f 7//18 6//18 5//18
f 6//19 8//19 16//19
f 16//20 8//20 11//20
f 4//21 15//21 16//21
f 5//22 1//22 7//22
f 17//23 14//23 9//23
f 14//24 12//24 9//24
f 9//10 8//10 17//10
f 10//25 14//25 15//25
f 15//26 14//26 17//26
f 3//27 1//27 2//27
f 12//28 14//28 10//28
f 17//29 11//29 15//29
f 16//30 6//30 11//30
f 11//31 6//31 8//31
f 9//32 12//32 2//32
f 12//33 13//33 2//33
f 10//34 17//34 15//34
f 17//35 16//35 15//35
f 17//36 11//36 16//36
f 14//37 17//37 10//37
