# Blender 4.0.0
# www.blender.org
o decimated_mesh
v -0.054503 0.023212 -0.047702
v -0.054503 0.023212 -0.043060
v -0.000015 0.023212 -0.069688
v -0.000024 0.087223 -0.090408
v -0.054503 0.087257 -0.071815
v -0.000015 0.023212 -0.072589
v -0.051367 0.023212 -0.051384
v -0.000026 0.087867 -0.093433
v -0.000026 0.087847 -0.091530
v -0.054503 0.030306 -0.054857
v -0.000033 0.063592 -0.093607
v -0.000031 0.084321 -0.095253
v -0.000031 0.087148 -0.094675
v -0.016965 0.088235 -0.091091
v -0.054503 0.088070 -0.073840
v -0.000015 0.042172 -0.084769
v -0.018593 0.087446 -0.092610
v -0.034813 0.088179 -0.085918
v -0.050105 0.088102 -0.078067
v -0.013981 0.023225 -0.071298
v -0.009792 0.085353 -0.094395
v -0.035587 0.087446 -0.087431
v -0.054503 0.087723 -0.076149
v -0.047446 0.041561 -0.070025
v -0.040022 0.023212 -0.060638
v -0.054503 0.041599 -0.064305
v -0.017040 0.041822 -0.083053
v -0.019366 0.063390 -0.091535
v -0.019204 0.085513 -0.093240
v -0.052219 0.087314 -0.078798
v -0.054502 0.062773 -0.075752
v -0.032378 0.041266 -0.077946
v -0.034609 0.062543 -0.086805
v -0.033775 0.085449 -0.088942
v -0.037719 0.086524 -0.087041
v -0.054503 0.086883 -0.077314
v -0.051400 0.062950 -0.078154
v -0.038081 0.062359 -0.085106
v -0.052878 0.085314 -0.079354
v -0.028016 0.023215 -0.067063
v -0.036332 0.084139 -0.088051
v -0.054501 0.085330 -0.078024
vn -1.0000 -0.0005 -0.0002
vn 0.4216 0.2793 0.8627
vn -0.0963 0.3801 -0.9199
vn -0.0733 -0.5414 -0.8375
vn -0.4391 -0.3930 -0.8079
vn 0.2975 0.3911 0.8710
vn 0.1640 0.8623 0.4791
vn -0.5564 0.3449 -0.7560
vn -0.0000 1.0000 -0.0000
vn -0.5278 -0.5501 -0.6471
vn -0.6371 -0.5473 -0.5427
vn -0.0418 0.8648 -0.5003
vn -0.1227 -0.0754 -0.9896
vn 0.0253 0.9949 0.0980
vn -0.4705 0.7157 -0.5162
vn -0.5820 -0.3867 -0.7154
vn -0.3809 0.5739 -0.7250
vn -0.4432 0.3728 -0.8153
vn -1.0000 0.0003 0.0016
vn -0.3884 -0.3886 -0.8355
vn -0.1482 0.9780 -0.1468
vn -0.3196 0.3699 -0.8723
vn 0.1238 0.9209 0.3697
vn -0.1845 0.9183 -0.3503
vn -0.4682 -0.0782 -0.8802
vn -1.0000 -0.0000 -0.0000
vn -1.0000 -0.0011 0.0002
vn -1.0000 -0.0020 0.0014
vn -1.0000 -0.0000 -0.0003
vn -0.1089 0.3392 -0.9344
vn -0.0780 -0.5388 -0.8388
vn -0.2702 0.3747 -0.8869
vn -0.2581 0.4230 -0.8686
vn -0.4346 -0.3890 -0.8123
vn -0.3947 0.1539 -0.9058
vn -0.3992 -0.5422 -0.7393
vn -0.3969 -0.5402 -0.7420
vn -0.0947 -0.3798 -0.9202
vn -0.0855 -0.3726 -0.9240
vn -0.6073 -0.0796 -0.7905
vn -0.6323 -0.0831 -0.7702
vn -0.5815 0.3902 -0.7139
vn -0.0005 1.0000 -0.0004
vn 0.0001 1.0000 0.0003
vn 0.0005 1.0000 0.0039
vn 0.0009 1.0000 -0.0000
vn -0.0000 -1.0000 -0.0000
vn -0.5301 -0.5441 -0.6503
vn -0.5274 -0.5463 -0.6507
vn -0.2819 -0.0717 -0.9568
vn -0.2915 -0.0783 -0.9534
vn -0.2922 -0.0783 -0.9531
vn -0.0955 -0.0788 -0.9923
vn -0.1054 -0.0831 -0.9910
vn -0.0025 1.0000 0.0050
vn 0.0149 0.9993 0.0333
vn 0.0231 0.9997 0.0107
vn -0.2467 -0.5464 -0.8003
vn -0.2422 -0.5432 -0.8039
vn -0.1169 0.9160 -0.3838
vn -0.1085 0.9250 -0.3642
vn -0.0394 0.9034 -0.4270
vn -0.5515 -0.3835 -0.7408
vn -0.0648 0.1998 -0.9777
vn -1.0000 0.0001 0.0023
vn -1.0000 0.0002 0.0012
vn -1.0000 -0.0005 0.0016
vn -1.0000 0.0062 0.0003
vn 1.0000 0.0002 0.0003
vn 1.0000 -0.0000 -0.0000
vn -0.2552 -0.3776 -0.8901
vn -0.2775 -0.3940 -0.8762
vn -0.2046 0.9019 -0.3803
vn -0.2249 0.9149 -0.3353
vn -0.4565 0.1084 -0.8831
vn -0.4343 -0.0864 -0.8966
vn -0.4640 -0.0820 -0.8820
vn -1.0000 -0.0000 -0.0011
vn -1.0000 -0.0000 -0.0001
vn -0.5527 0.3873 -0.7379
vn -0.5958 0.3333 -0.7307
vn -0.6326 -0.0776 -0.7706
vn -0.6070 -0.0826 -0.7904
vn -0.0008 1.0000 -0.0009
vn 0.0002 1.0000 0.0005
vn 0.0244 0.9977 0.0627
vn -0.0010 1.0000 0.0074
vn -0.2649 0.4173 -0.8693
vn -0.4398 -0.3889 -0.8095
vn -0.4339 -0.3926 -0.8109
vn -0.3997 -0.5405 -0.7403
vn -0.3963 -0.5424 -0.7408
vn 1.0000 -0.0000 -0.0014
vn 1.0000 -0.0000 -0.0013
vn 1.0000 -0.0011 -0.0003
vn -0.2640 0.3735 -0.8893
vn -0.2920 -0.0787 -0.9532
vn -0.2474 -0.5434 -0.8022
vn -0.2416 -0.5465 -0.8018
vn 0.0016 1.0000 0.0078
vn -0.0778 -0.5418 -0.8369
vn -0.0735 -0.5390 -0.8391
vn -0.0850 -0.3801 -0.9210
vn 1.0000 -0.0004 -0.0029
vn 1.0000 0.0011 -0.0046
vn -0.0950 -0.3732 -0.9229
s 0
f 5//1 15//1 42//1
f 2//2 3//2 4//2
f 17//3 13//3 21//3
f 20//4 27//4 16//4
f 37//5 38//5 32//5
f 4//6 5//6 2//6
f 5//7 4//7 9//7
f 30//8 42//8 36//8
f 25//9 7//9 2//9
f 25//10 7//10 10//10
f 1//11 10//11 7//11
f 13//12 17//12 8//12
f 28//13 29//13 21//13
f 14//14 18//14 9//14
f 30//15 36//15 23//15
f 31//16 24//16 26//16
f 22//17 35//17 30//17
f 30//18 35//18 39//18
f 13//19 4//19 9//19
f 38//20 33//20 32//20
f 23//21 15//21 19//21
f 35//22 22//22 34//22
f 5//23 9//23 15//23
f 19//24 18//24 22//24
f 37//25 39//25 41//25
f 26//26 10//26 2//26
f 10//26 1//26 2//26
f 2//26 5//26 26//26
f 15//27 23//27 42//27
f 36//28 42//28 23//28
f 42//29 31//29 5//29
f 31//26 26//26 5//26
f 21//30 29//30 17//30
f 16//31 6//31 20//31
f 22//32 17//32 29//32
f 29//33 34//33 22//33
f 32//34 24//34 37//34
f 41//35 35//35 34//35
f 32//36 40//36 24//36
f 24//37 40//37 25//37
f 28//38 11//38 16//38
f 28//39 16//39 27//39
f 31//40 42//40 37//40
f 42//41 39//41 37//41
f 30//42 39//42 42//42
f 25//43 2//43 40//43
f 2//44 3//44 40//44
f 40//45 3//45 20//45
f 20//46 3//46 6//46
f 2//47 1//47 7//47
f 10//48 26//48 24//48
f 24//49 25//49 10//49
f 29//50 28//50 34//50
f 28//51 33//51 34//51
f 41//52 34//52 33//52
f 12//53 11//53 21//53
f 11//54 28//54 21//54
f 19//55 15//55 18//55
f 15//56 9//56 18//56
f 9//57 8//57 14//57
f 32//58 27//58 20//58
f 40//59 32//59 20//59
f 17//60 22//60 18//60
f 18//61 14//61 17//61
f 8//62 17//62 14//62
f 31//63 37//63 24//63
f 21//64 13//64 12//64
f 16//65 4//65 11//65
f 11//66 4//66 12//66
f 12//67 4//67 13//67
f 9//68 8//68 13//68
f 4//69 3//69 16//69
f 3//70 6//70 16//70
f 33//71 28//71 27//71
f 27//72 32//72 33//72
f 22//73 30//73 19//73
f 30//74 23//74 19//74
f 39//75 35//75 41//75
f 41//76 33//76 38//76
f 38//77 37//77 41//77
f 42//78 31//78 23//78
f 31//79 26//79 23//79
f 26//26 10//26 23//26
f 10//26 1//26 23//26
f 1//26 2//26 23//26
f 2//26 5//26 23//26
f 5//26 15//26 23//26
f 39//80 36//80 30//80
f 39//81 42//81 36//81
f 39//82 31//82 42//82
f 39//83 37//83 31//83
f 7//84 40//84 25//84
f 7//85 6//85 40//85
f 7//9 3//9 6//9
f 7//9 2//9 3//9
f 9//86 14//86 15//86
f 14//87 18//87 15//87
f 17//88 34//88 22//88
f 38//89 24//89 37//89
f 38//90 32//90 24//90
f 32//91 25//91 24//91
f 32//92 40//92 25//92
f 16//93 9//93 4//93
f 16//94 12//94 9//94
f 12//95 8//95 9//95
f 29//96 34//96 17//96
f 28//97 41//97 34//97
f 28//51 33//51 41//51
f 27//98 40//98 32//98
f 27//99 20//99 40//99
f 20//100 40//100 6//100
f 20//101 27//101 6//101
f 27//102 16//102 6//102
f 27//103 11//103 16//103
f 11//104 12//104 16//104
f 13//105 8//105 12//105
f 11//106 27//106 28//106
