mtllib Desk_310_1.mtl
v 0 0.19016 0
v 0 0.19016 -0.00159
v 0 -0.19015 -0.00159
v 0 -0.19015 0
v 0 -0.19015 -0.00159
v 0 0.19016 0
v 0 0.19016 -0.00159
v 0 -0.19015 0
v 0 0.19016 -0.00159
v 0 -0.19015 -0.00159
v 0 0.19016 -0.00159
v 0 0.19016 0
v 0 0.19016 0
v 0 -0.19015 0
v 0 0.19016 0
v 0 -0.19015 0
v 0 -0.19015 0
v 0 0.19016 0
v 0 -0.19015 0
v 0 0.19016 0
v 0.35206 -0.17706 0.01298
v 0.01298 0.17707 0.01298
v 0.35206 0.17707 0.01298
v 0.01298 -0.17706 0.01298
v 0.01018 0.17799 0.01182
v 0.01018 -0.17798 0.01182
v 0.00116 0.1884 0.0028
v 0.00116 -0.18839 0.0028
v 0.00317 -0.1907 0.0028
v 0.01219 -0.1803 0.01182
v 0.35285 -0.1803 0.01182
v 0.35486 -0.17798 0.01182
v 0.36186 -0.1907 0.0028
v 0.36387 -0.18839 0.0028
v 0.00116 -0.18839 -0.00439
v 0.00176 0.1877 -0.00498
v 0.00116 0.1884 -0.00439
v 0.00176 -0.18769 -0.00498
v 0.00377 -0.19001 -0.00498
v 0.00317 -0.1907 -0.00439
v 0.00456 -0.18678 -0.00614
v 0.36186 -0.1907 -0.00439
v 0.36126 -0.19001 -0.00498
v 0.36047 -0.18678 -0.00614
v 0.00456 0.18679 -0.00614
v 0.36047 0.18679 -0.00614
v 0.36327 0.1877 -0.00498
v 0.36327 -0.18769 -0.00498
v 0.36387 -0.18839 -0.00439
v 0.36186 0.19071 0.0028
v 0.35285 0.18031 0.01182
v 0.01219 0.18031 0.01182
v 0.00317 0.19071 0.0028
v 0.36339 0.19205 0
v 0.00164 0.19205 0
v 0.36339 0.19205 -0.00159
v 0 0.19016 0
v 0.00116 0.1884 0.0028
v 0.00164 0.19205 -0.00159
v 0.36186 0.19071 -0.00439
v 0.00317 0.19071 -0.00439
v 0 0.19016 -0.00159
v 0.00116 0.1884 -0.00439
v 0.36126 0.19002 -0.00498
v 0.00377 0.19002 -0.00498
v 0 0.19016 -0.00159
v 0 -0.19015 0
v 0 -0.19015 -0.00159
v 0 0.19016 0
v 0.00116 -0.18839 0.0028
v 0.00116 0.1884 0.0028
v 0.00164 0.19205 0
v 0.00164 0.19205 -0.00159
v 0.00164 -0.19204 0
v 0.00317 -0.1907 0.0028
v 0.36186 -0.1907 0.0028
v 0.36339 -0.19204 0
v 0.00164 -0.19204 -0.00159
v 0 -0.19015 0
v 0 -0.19015 -0.00159
v 0.00317 -0.1907 -0.00439
v 0.00116 -0.18839 -0.00439
v 0.36339 -0.19204 -0.00159
v 0.36186 -0.1907 -0.00439
v 0.36503 -0.19015 -0.00159
v 0.36503 -0.19015 0
v 0.36503 -0.19015 -0.00159
v 0.36503 0.19016 0
v 0.36503 0.19016 -0.00159
v 0.36503 -0.19015 0
v 0.36387 0.1884 0.0028
v 0.36387 -0.18839 0.0028
v 0.36339 -0.19204 0
v 0.36186 -0.1907 0.0028
v 0.35486 0.17799 0.01182
v 0.36387 0.1884 0.0028
v 0.36387 -0.18839 0.0028
v 0.35486 -0.17798 0.01182
v 0.36387 0.1884 -0.00439
v 0.36327 0.1877 -0.00498
v 0.36327 -0.18769 -0.00498
v 0.36387 -0.18839 -0.00439
v 0.36503 0.19016 -0.00159
v 0.36503 -0.19015 -0.00159
v 0.36339 0.19205 -0.00159
v 0.36186 0.19071 -0.00439
v 0.36503 0.19016 0
v 0.36339 0.19205 0
v 0.36387 0.1884 0.0028
v 0.36186 0.19071 0.0028
v 0.00317 -0.1907 0.0028
v 0.00164 -0.19204 0
v 0 -0.19015 0
v 0.00116 -0.18839 0.0028
v 0.01219 0.18031 0.01182
v 0.00116 0.1884 0.0028
v 0.00317 0.19071 0.0028
v 0.01018 0.17799 0.01182
v 0.01298 0.17707 0.01298
v 0.35285 0.18031 0.01182
v 0.35206 0.17707 0.01298
v 0.35486 0.17799 0.01182
v 0.36186 0.19071 0.0028
v 0.36387 0.1884 0.0028
v 0.35486 -0.17798 0.01182
v 0.35206 -0.17706 0.01298
v 0.00317 0.19071 -0.00439
v 0.00116 0.1884 -0.00439
v 0.00176 0.1877 -0.00498
v 0.00377 0.19002 -0.00498
v 0.00456 0.18679 -0.00614
v 0.00176 -0.18769 -0.00498
v 0.00456 -0.18678 -0.00614
v 0.36047 0.18679 -0.00614
v 0.36126 0.19002 -0.00498
v 0.36327 0.1877 -0.00498
v 0.36387 0.1884 -0.00439
v 0.36186 0.19071 -0.00439
v 0.36387 -0.18839 -0.00439
v 0.36186 -0.1907 -0.00439
v 0.36339 -0.19204 -0.00159
v 0.36503 -0.19015 -0.00159
v 0 -0.19015 -0.00159
v 0.00116 -0.18839 -0.00439
v 0.00116 0.1884 -0.00439
v 0 0.19016 -0.00159
v 0.00164 0.19205 0
v 0 0.19016 0
v 0.00164 -0.19204 0
v 0 -0.19015 0
v 0 0.19016 0
v 0 -0.19015 0
v 0.00164 0.19205 0
v 0 -0.19015 0
v 0 0.19016 0
vt -0.4417422 -0.1883051
vt -0.447221 -0.1828263
vt -0.6345966 -0.1828263
vt -0.6400754 -0.1883051
vt -0.4408137 -0.1900064
vt -0.6410041 -0.1900064
vt -0.4408137 -0.1909742
vt -0.6410041 -0.1909742
vt -0.4398171 -0.1900064
vt -0.4398171 -0.1909742
vt -0.4417425 -0.1926755
vt -0.4405218 -0.1926755
vt 1.352203 -0.1909742
vt 1.552394 -0.1900066
vt 1.552394 -0.1909744
vt 1.352203 -0.1900064
vt 1.353132 -0.1883053
vt 1.351207 -0.1900066
vt 1.351912 -0.1883053
vt -0.4421061 -0.1930394
vt -0.4417425 -0.1926755
vt -0.6400754 -0.1926755
vt -0.6397115 -0.1930394
vt 1.353132 -0.1883053
vt 1.351912 -0.1883053
vt 1.351207 -0.1900066
vt 1.352203 -0.1900064
vt 1.351207 -0.1909744
vt 1.351912 -0.1926757
vt 1.353132 -0.1926757
vt 1.352203 -0.1909742
vt 1.552394 -0.1909744
vt -0.4408137 -0.1909742
vt -0.6400754 -0.1926755
vt -0.6410041 -0.1909742
vt -0.4398171 -0.1909742
vt -0.4408137 -0.1909742
vt -0.4408137 -0.1900064
vt -0.4398171 -0.1900064
vt -0.4417422 -0.1883051
vt -0.447221 -0.1828263
vt -0.6345966 -0.1828263
vt -0.6400754 -0.1883051
vt -0.4408137 -0.1900064
vt -0.6410041 -0.1900064
vt -0.4408137 -0.1909742
vt -0.6410041 -0.1909742
vt -0.4398171 -0.1900064
vt -0.4398171 -0.1909742
vt -0.4417425 -0.1926755
vt -0.4405218 -0.1926755
vt 1.352203 -0.1909742
vt 1.552394 -0.1900066
vt 1.352203 -0.1900064
vt -0.4421061 -0.1930394
vt -0.4417425 -0.1926755
vt -0.6400754 -0.1926755
vt -0.6397115 -0.1930394
vt 1.353132 -0.1883053
vt 1.351912 -0.1883053
vt 1.351207 -0.1900066
vt 1.352203 -0.1900064
vt 1.352203 -0.1909742
vt 1.351912 -0.1926757
vt 1.351207 -0.1909744
vt 1.351912 -0.1926757
vt 1.353132 -0.1926757
vt 1.352203 -0.1909742
vt 1.552394 -0.1909744
vt -0.6410041 -0.1909741
vt -0.4408137 -0.1900064
vt -0.4398171 -0.1900064
vt 1.359092 0.07009315
vt 1.545506 -0.1360114
vt 1.545506 0.07009315
vt 1.359092 -0.1360114
vt 1.545987 -0.1377127
vt 1.358611 -0.1377127
vt 1.551466 -0.1431915
vt 1.353132 -0.1431915
vt 1.351912 -0.1419709
vt 1.35739 -0.1364921
vt 1.35739 0.07057384
vt 1.358611 0.07179445
vt 1.351912 0.07605264
vt 1.353132 0.07727322
vt 1.353132 -0.1431915
vt 1.551101 -0.1428277
vt 1.551466 -0.1431915
vt 1.353496 -0.1428278
vt 1.352275 -0.1416072
vt 1.351912 -0.1419709
vt 1.353977 -0.1411265
vt 1.351912 0.07605264
vt 1.352275 0.07568884
vt 1.353977 0.07520792
vt 1.550621 -0.1411264
vt 1.550621 0.07520792
vt 1.551101 0.07690945
vt 1.353496 0.07690945
vt 1.353132 0.07727322
vt 0.7564334 -0.1883051
vt 0.7619121 -0.1828264
vt 0.968978 -0.1828264
vt 0.9744568 -0.188305
vt 0.7555045 -0.1900064
vt 0.9753857 -0.1900064
vt 0.7555045 -0.1909742
vt 0.9763822 -0.1900064
vt 0.9756774 -0.1883051
vt 0.9753857 -0.1909742
vt 0.7564334 -0.1926755
vt 0.9744568 -0.1926755
vt 0.9763822 -0.1909742
vt 0.9756774 -0.1926755
vt 0.7567971 -0.1930394
vt 0.9740931 -0.1930394
vt -0.4408137 -0.1909742
vt -0.6410041 -0.1900064
vt -0.6410041 -0.1909741
vt -0.4408137 -0.1900064
vt -0.6400754 -0.1883051
vt -0.4417422 -0.1883051
vt -0.4398171 -0.1900064
vt -0.4398171 -0.1909742
vt 0.9753857 -0.1900064
vt 0.9744568 -0.188305
vt 0.7564334 -0.1883051
vt 0.7555045 -0.1900064
vt 0.9753857 -0.1909741
vt 0.9763822 -0.1900064
vt 0.9763822 -0.1909741
vt 0.9744568 -0.1926754
vt 0.9756774 -0.1926755
vt 0.7555045 -0.1909742
vt 0.7564334 -0.1926755
vt 0.754508 -0.1909742
vt 0.754508 -0.1900064
vt 1.352203 -0.1909742
vt 1.552394 -0.1900066
vt 1.552394 -0.1909744
vt 1.352203 -0.1900064
vt 1.551465 -0.1883053
vt 1.353132 -0.1883053
vt 1.351207 -0.1900066
vt 1.351912 -0.1883053
vt -0.447221 -0.1828263
vt -0.4417425 -0.1883051
vt -0.6400754 -0.1883051
vt -0.6345966 -0.1828263
vt -0.4417425 -0.1926755
vt -0.4421061 -0.1930394
vt -0.6397115 -0.1930394
vt -0.6400754 -0.1926755
vt -0.4408137 -0.1909742
vt -0.6410041 -0.1909742
vt -0.4398171 -0.1909742
vt -0.4405218 -0.1926755
vt -0.4408137 -0.1900064
vt -0.4398171 -0.1900064
vt -0.4417425 -0.1883051
vt -0.4405218 -0.1883051
vt 1.351912 -0.188305
vt 1.351207 -0.1900066
vt 1.352203 -0.1900064
vt 1.353132 -0.1883053
vt -0.4460003 -0.136492
vt -0.4417421 -0.1431914
vt -0.4405217 -0.1419708
vt -0.4472209 -0.1377126
vt -0.4477018 -0.1360113
vt -0.4460003 0.07057384
vt -0.4477018 0.07009315
vt -0.4472209 0.07179445
vt -0.4405217 0.07605264
vt -0.4417424 0.07727322
vt -0.6345966 0.07179451
vt -0.6341159 0.07009321
vt -0.4405217 -0.1419708
vt -0.4417421 -0.1431914
vt -0.4421061 -0.1428276
vt -0.4408855 -0.141607
vt -0.4425868 -0.1411263
vt -0.6397115 -0.1428276
vt -0.6392308 -0.1411263
vt -0.4425868 0.07520792
vt -0.4408855 0.07568884
vt -0.4421061 0.07690945
vt -0.4417424 0.07727322
vt -0.4405217 0.07605264
vt 1.353132 -0.1926757
vt 1.351912 -0.1926757
vt 1.351207 -0.1909744
vt 1.352203 -0.1909742
vt 1.352203 -0.1909742
vt 1.353132 -0.1926757
vt 1.551466 -0.1926757
vt 1.552394 -0.1909744
vt -0.447221 -0.1828263
vt -0.4417425 -0.1883051
vt -0.6400754 -0.1883051
vt -0.6345966 -0.1828263
vt -0.4417425 -0.1926755
vt -0.4421061 -0.1930394
vt -0.6397115 -0.1930394
vt -0.6400754 -0.1926755
vt -0.4408137 -0.1909742
vt -0.6410041 -0.1909742
vt -0.4398171 -0.1909742
vt -0.4405218 -0.1926755
vt -0.4408137 -0.1900064
vt -0.4398171 -0.1900064
vt -0.4417425 -0.1883051
vt -0.4405218 -0.1883051
vt 1.352203 -0.1909742
vt 1.552394 -0.1900066
vt 1.552394 -0.1909744
vt 1.352203 -0.1900064
vt 1.551465 -0.1883053
vt 1.353132 -0.1883053
vt 1.351207 -0.1900066
vt 1.351912 -0.1883053
vt -0.4408137 -0.1909742
vt -0.6410041 -0.1900064
vt -0.6410041 -0.1909742
vt -0.4408137 -0.1900064
vt -0.6400754 -0.1883051
vt -0.4417422 -0.1883051
vt -0.4398171 -0.1900064
vt -0.4398171 -0.1909742
vt 1.353132 -0.1883053
vt 1.351912 -0.1883053
vt 1.351207 -0.1900066
vt 1.352203 -0.1900064
vt 1.353132 -0.1926757
vt 1.351912 -0.1926757
vt 1.351207 -0.1909744
vt 1.352203 -0.1909742
vt 1.352203 -0.1909742
vt 1.353132 -0.1926757
vt 1.551466 -0.1926757
vt 1.552394 -0.1909744
vn 0.006004541 0.01709925 0.9998357
vn -0.006006449 -0.0171079 0.9998356
vn 0.006543888 -0.01765102 0.9998228
vn -0.006545769 0.01764001 0.999823
vn -0.6593385 -0.006661892 0.7518167
vn -0.6518444 0.01792403 0.7581409
vn -0.753224 -0.02455688 0.6573055
vn -0.7661415 0.02323078 0.6422518
vn -0.01428375 -0.7201824 0.6936377
vn -0.003259644 -0.6032028 0.7975811
vn 0.009475188 -0.6080052 0.7938765
vn 0.6593417 0.006669089 0.7518138
vn 0.01416332 -0.7125646 0.7014635
vn 0.7532244 0.02457511 0.6573043
vn -0.883301 0.02324102 -0.4682299
vn -0.4601621 -0.02019534 -0.8876052
vn -0.8922907 -0.0051938 -0.4514316
vn -0.4693666 0.02376644 -0.8826835
vn -0.007784848 -0.4084971 -0.9127265
vn -0.005096256 -0.8555405 -0.5177107
vn -0.005819738 0.01728317 -0.9998337
vn 0.01432221 -0.8611652 -0.5081232
vn 0.01016283 -0.4030251 -0.9151325
vn 0.006356968 0.01782681 -0.9998209
vn -0.006396561 -0.01779991 -0.9998211
vn 0.005854459 -0.01725821 -0.9998339
vn 0.4693741 -0.02376583 -0.8826796
vn 0.4601472 0.02019373 -0.8876131
vn 0.8922875 0.005223156 -0.4514375
vn 0.0142855 0.7201818 0.6936384
vn 0.003254876 0.6032029 0.7975811
vn -0.009504246 0.6079754 0.7938989
vn -0.01415628 0.7125691 0.7014592
vn 0.02770901 0.96162 0.272982
vn -0.02726466 0.9595989 0.2800476
vn 0.02727422 0.9595959 -0.2800566
vn -0.9637982 -0.02324563 0.2656176
vn -0.753224 -0.02455688 0.6573055
vn -0.02770057 0.9616217 -0.2729769
vn 0.0051257 0.8555541 -0.5176879
vn -0.01432509 0.8611698 -0.5081156
vn -0.964369 -0.02314016 -0.2635468
vn -0.8922907 -0.0051938 -0.4514316
vn 0.007774755 0.4085514 -0.9127021
vn -0.01014641 0.4030713 -0.9151124
vn -0.964369 -0.02314016 -0.2635468
vn -0.964366 0.02314234 0.2635578
vn -0.9637951 0.02329529 -0.2656248
vn -0.9637982 -0.02324563 0.2656176
vn -0.7661415 0.02323078 0.6422518
vn -0.753224 -0.02455688 0.6573055
vn -0.02726466 0.9595989 0.2800476
vn -0.02770057 0.9616217 -0.2729769
vn -0.02770429 -0.9616199 0.2729828
vn -0.01428375 -0.7201824 0.6936377
vn 0.01416332 -0.7125646 0.7014635
vn 0.02726671 -0.959618 0.2799817
vn -0.02726024 -0.9596179 -0.2799829
vn -0.964366 0.02314234 0.2635578
vn -0.9637951 0.02329529 -0.2656248
vn -0.005096256 -0.8555405 -0.5177107
vn -0.883301 0.02324102 -0.4682299
vn 0.02770578 -0.9616215 -0.2729769
vn 0.01432221 -0.8611652 -0.5081232
vn 0.9643679 0.02319751 -0.2635462
vn 0.9637955 0.02330392 0.2656222
vn 0.9643679 0.02319751 -0.2635462
vn 0.9643674 -0.0231488 0.263552
vn 0.9637969 -0.02325642 -0.2656212
vn 0.9637955 0.02330392 0.2656222
vn 0.7661434 -0.02322492 0.6422499
vn 0.7532244 0.02457511 0.6573043
vn 0.02726671 -0.959618 0.2799817
vn 0.01416332 -0.7125646 0.7014635
vn 0.65184 -0.01792086 0.7581447
vn 0.7661434 -0.02322492 0.6422499
vn 0.7532244 0.02457511 0.6573043
vn 0.6593417 0.006669089 0.7518138
vn 0.88331 -0.02324177 -0.4682127
vn 0.4693741 -0.02376583 -0.8826796
vn 0.4601472 0.02019373 -0.8876131
vn 0.8922875 0.005223156 -0.4514375
vn 0.9637969 -0.02325642 -0.2656212
vn 0.9643679 0.02319751 -0.2635462
vn 0.02727422 0.9595959 -0.2800566
vn 0.0051257 0.8555541 -0.5176879
vn 0.9643674 -0.0231488 0.263552
vn 0.02770901 0.96162 0.272982
vn 0.7661434 -0.02322492 0.6422499
vn 0.0142855 0.7201818 0.6936384
vn -0.01428375 -0.7201824 0.6936377
vn -0.02770429 -0.9616199 0.2729828
vn -0.964366 0.02314234 0.2635578
vn -0.7661415 0.02323078 0.6422518
vn -0.009504246 0.6079754 0.7938989
vn -0.753224 -0.02455688 0.6573055
vn -0.01415628 0.7125691 0.7014592
vn -0.6593385 -0.006661892 0.7518167
vn -0.006006449 -0.0171079 0.9998356
vn 0.003254876 0.6032029 0.7975811
vn 0.006543888 -0.01765102 0.9998228
vn 0.65184 -0.01792086 0.7581447
vn 0.0142855 0.7201818 0.6936384
vn 0.7661434 -0.02322492 0.6422499
vn 0.6593417 0.006669089 0.7518138
vn 0.006004541 0.01709925 0.9998357
vn -0.01432509 0.8611698 -0.5081156
vn -0.8922907 -0.0051938 -0.4514316
vn -0.4601621 -0.02019534 -0.8876052
vn -0.01014641 0.4030713 -0.9151124
vn -0.006396561 -0.01779991 -0.9998211
vn -0.4693666 0.02376644 -0.8826835
vn -0.005819738 0.01728317 -0.9998337
vn 0.005854459 -0.01725821 -0.9998339
vn 0.007774755 0.4085514 -0.9127021
vn 0.4693741 -0.02376583 -0.8826796
vn 0.88331 -0.02324177 -0.4682127
vn 0.0051257 0.8555541 -0.5176879
vn 0.8922875 0.005223156 -0.4514375
vn 0.01432221 -0.8611652 -0.5081232
vn 0.02770578 -0.9616215 -0.2729769
vn 0.9643679 0.02319751 -0.2635462
vn -0.9637951 0.02329529 -0.2656248
vn -0.883301 0.02324102 -0.4682299
vn -0.8922907 -0.0051938 -0.4514316
vn -0.964369 -0.02314016 -0.2635468
usemtl LightWoodCounters3
f 23/75/3 22/74/2 21/73/1
f 22/74/2 24/76/4 21/73/1
f 22/74/2 25/77/5 24/76/4
f 25/77/5 26/78/6 24/76/4
f 25/77/5 27/79/7 26/78/6
f 27/79/7 28/80/8 26/78/6
f 26/78/6 28/80/8 29/81/9
f 24/76/4 26/78/6 30/82/10
f 24/76/4 30/82/10 21/73/1
f 30/82/10 26/78/6 29/81/9
f 30/82/10 31/83/11 21/73/1
f 30/82/10 29/81/9 31/83/11
f 21/73/1 31/83/11 32/84/12
f 29/81/9 33/85/13 31/83/11
f 32/84/12 31/83/11 34/86/14
f 31/83/11 33/85/13 34/86/14
f 37/89/17 36/88/16 35/87/15
f 36/88/16 38/90/18 35/87/15
f 35/87/15 38/90/18 39/91/19
f 40/92/20 35/87/15 39/91/19
f 38/90/18 41/93/21 39/91/19
f 40/92/20 39/91/19 42/94/22
f 43/95/23 39/91/19 41/93/21
f 39/91/19 43/95/23 42/94/22
f 44/96/24 43/95/23 41/93/21
f 41/93/21 45/97/25 44/96/24
f 45/97/25 46/98/26 44/96/24
f 46/98/26 47/99/27 44/96/24
f 47/99/27 48/100/28 44/96/24
f 43/95/23 44/96/24 48/100/28
f 42/94/22 43/95/23 48/100/28
f 49/101/29 42/94/22 48/100/28
f 52/104/32 51/103/31 50/102/30
f 53/105/33 52/104/32 50/102/30
f 53/105/33 50/102/30 54/106/34
f 55/107/35 53/105/33 54/106/34
f 55/107/35 54/106/34 56/108/36
f 55/107/35 57/109/37 53/105/33
f 57/109/37 58/110/38 53/105/33
f 59/111/39 55/107/35 56/108/36
f 56/108/36 60/112/40 59/111/39
f 60/112/40 61/113/41 59/111/39
f 59/111/39 61/113/41 62/114/42
f 61/113/41 63/115/43 62/114/42
f 61/113/41 60/112/40 64/116/44
f 65/117/45 61/113/41 64/116/44
f 68/120/48 67/119/47 66/118/46
f 67/119/47 69/121/49 66/118/46
f 67/119/47 70/122/50 69/121/49
f 70/122/50 71/123/51 69/121/49
f 66/118/46 69/121/49 72/124/52
f 73/125/53 66/118/46 72/124/52
f 76/128/56 75/127/55 74/126/54
f 77/129/57 76/128/56 74/126/54
f 77/129/57 74/126/54 78/130/58
f 78/130/58 74/126/54 79/131/59
f 80/132/60 78/130/58 79/131/59
f 78/130/58 80/132/60 81/133/61
f 80/132/60 82/134/62 81/133/61
f 78/130/58 81/133/61 83/135/63
f 83/135/63 77/129/57 78/130/58
f 81/133/61 84/136/64 83/135/63
f 77/129/57 83/135/63 85/137/65
f 86/138/66 77/129/57 85/137/65
f 89/141/69 88/140/68 87/139/67
f 88/140/68 90/142/70 87/139/67
f 88/140/68 91/143/71 90/142/70
f 91/143/71 92/144/72 90/142/70
f 93/145/73 90/142/70 92/144/72
f 94/146/74 93/145/73 92/144/72
f 97/149/77 96/148/76 95/147/75
f 98/150/78 97/149/77 95/147/75
f 101/153/81 100/152/80 99/151/79
f 102/154/82 101/153/81 99/151/79
f 102/154/82 99/151/79 103/155/83
f 104/156/84 102/154/82 103/155/83
f 105/157/85 103/155/83 99/151/79
f 106/158/86 105/157/85 99/151/79
f 103/155/83 105/157/85 107/159/87
f 105/157/85 108/160/88 107/159/87
f 107/159/87 108/160/88 109/161/89
f 108/160/88 110/162/90 109/161/89
f 113/165/93 112/164/92 111/163/91
f 114/166/94 113/165/93 111/163/91
f 117/169/97 116/168/96 115/167/95
f 116/168/96 118/170/98 115/167/95
f 115/167/95 118/170/98 119/171/99
f 120/172/100 115/167/95 119/171/99
f 121/173/101 120/172/100 119/171/99
f 120/172/100 121/173/101 122/174/102
f 123/175/103 120/172/100 122/174/102
f 124/176/104 123/175/103 122/174/102
f 125/177/105 122/174/102 121/173/101
f 126/178/106 125/177/105 121/173/101
f 129/181/109 128/180/108 127/179/107
f 130/182/110 129/181/109 127/179/107
f 131/183/111 129/181/109 130/182/110
f 132/184/112 129/181/109 131/183/111
f 133/185/113 132/184/112 131/183/111
f 131/183/111 130/182/110 134/186/114
f 130/182/110 135/187/115 134/186/114
f 134/186/114 135/187/115 136/188/116
f 136/188/116 135/187/115 137/189/117
f 135/187/115 138/190/118 137/189/117
f 141/193/121 140/192/120 139/191/119
f 142/194/122 141/193/121 139/191/119
f 145/197/125 144/196/124 143/195/123
f 146/198/126 145/197/125 143/195/123
