mtllib Desk_310_1.mtl
v -0.01297 -0.17706 0.01298
v -0.36827 0.17707 0.01298
v -0.01297 0.17707 0.01298
v -0.36827 -0.17706 0.01298
v -0.37107 0.17799 0.01182
v -0.37107 -0.17798 0.01182
v -0.36906 -0.1803 0.01182
v -0.01218 -0.1803 0.01182
v -0.01017 -0.17798 0.01182
v -0.00115 -0.18839 0.0028
v -0.00316 -0.1907 0.0028
v -0.37808 -0.1907 0.0028
v -0.38008 -0.18839 0.0028
v -0.38008 0.1884 0.0028
v -0.37808 0.19071 0.0028
v -0.36906 0.18031 0.01182
v -0.37107 0.17799 0.01182
v -0.36827 0.17707 0.01298
v -0.01218 0.18031 0.01182
v -0.01297 0.17707 0.01298
v -0.01017 0.17799 0.01182
v -0.00316 0.19071 0.0028
v -0.00115 0.1884 0.0028
v -0.00115 -0.18839 0.0028
v -0.01017 -0.17798 0.01182
v -0.01297 -0.17706 0.01298
v -0.00115 0.1884 -0.00439
v -0.00175 -0.18769 -0.00498
v -0.00115 -0.18839 -0.00439
v -0.00175 0.1877 -0.00498
v -0.00376 0.19002 -0.00498
v -0.00316 0.19071 -0.00439
v -0.00455 0.18679 -0.00614
v -0.37748 0.19002 -0.00498
v -0.37669 0.18679 -0.00614
v -0.37949 0.1877 -0.00498
v -0.37808 0.19071 -0.00439
v -0.38008 0.1884 -0.00439
v -0.37949 -0.18769 -0.00498
v -0.37669 -0.18678 -0.00614
v -0.00316 0.19071 0.0028
v -0.01218 0.18031 0.01182
v -0.36906 0.18031 0.01182
v -0.37808 0.19071 0.0028
v -0.00163 0.19205 0
v -0.00115 0.1884 0.0028
v 0 0.19016 0
v -0.3796 0.19205 0
v -0.38008 0.1884 0.0028
v -0.38124 0.19016 0
v -0.00163 0.19205 -0.00159
v -0.3796 0.19205 -0.00159
v -0.00316 0.19071 -0.00439
v -0.37808 0.19071 -0.00439
v -0.00115 0.1884 -0.00439
v 0 0.19016 -0.00159
v -0.00376 0.19002 -0.00498
v -0.37748 0.19002 -0.00498
v -0.38008 0.1884 0.0028
v -0.37107 0.17799 0.01182
v -0.37107 -0.17798 0.01182
v -0.38008 -0.18839 0.0028
v -0.38124 0.19016 0
v -0.38124 -0.19015 0
v -0.38124 0.19016 -0.00159
v -0.38124 -0.19015 -0.00159
v -0.3796 0.19205 0
v -0.3796 0.19205 -0.00159
v -0.38008 0.1884 -0.00439
v -0.37808 0.19071 -0.00439
v -0.3796 -0.19204 0
v -0.37808 -0.1907 0.0028
v -0.00316 -0.1907 0.0028
v -0.00163 -0.19204 0
v -0.3796 -0.19204 -0.00159
v -0.38124 -0.19015 0
v -0.38124 -0.19015 -0.00159
v -0.00163 -0.19204 -0.00159
v -0.37808 -0.1907 -0.00439
v -0.00316 -0.1907 -0.00439
v -0.00115 -0.18839 -0.00439
v 0 -0.19015 -0.00159
v 0 -0.19015 0
v 0 -0.19015 -0.00159
v 0 0.19016 0
v 0 0.19016 -0.00159
v 0 -0.19015 0
v -0.00115 0.1884 0.0028
v -0.00115 -0.18839 0.0028
v -0.00163 -0.19204 0
v -0.00316 -0.1907 0.0028
v -0.00175 -0.18769 -0.00498
v -0.00316 -0.1907 -0.00439
v -0.00115 -0.18839 -0.00439
v -0.00376 -0.19001 -0.00498
v -0.00455 -0.18678 -0.00614
v -0.00175 0.1877 -0.00498
v -0.00455 0.18679 -0.00614
v -0.37669 0.18679 -0.00614
v -0.37669 -0.18678 -0.00614
v -0.37748 -0.19001 -0.00498
v -0.37808 -0.1907 -0.00439
v -0.37949 -0.18769 -0.00498
v -0.38008 -0.18839 -0.00439
v -0.37949 0.1877 -0.00498
v -0.38008 0.1884 -0.00439
v -0.38008 -0.18839 -0.00439
v -0.37949 -0.18769 -0.00498
v -0.38008 -0.18839 0.0028
v -0.37808 -0.1907 0.0028
v -0.3796 -0.19204 0
v -0.38124 -0.19015 0
v -0.3796 -0.19204 -0.00159
v -0.37808 -0.1907 -0.00439
v -0.38008 -0.18839 -0.00439
v -0.38124 -0.19015 -0.00159
v -0.38008 0.1884 -0.00439
v -0.38124 0.19016 -0.00159
v 0 0.19016 -0.00159
v -0.00115 0.1884 -0.00439
v -0.00115 -0.18839 -0.00439
v 0 -0.19015 -0.00159
v -0.00163 0.19205 -0.00159
v 0 0.19016 -0.00159
v 0 0.19016 0
v -0.00163 0.19205 0
v -0.00163 0.19205 0
v 0 0.19016 0
v 0 -0.19015 0
v 0 0.19016 0
v 0 -0.19015 0
v -0.00163 -0.19204 0
v 0 -0.19015 0
v -0.00163 -0.19204 0
v 0 0.19016 0
v 0 -0.19015 0
v -0.00163 0.19205 0
v 0 0.19016 0
v 0 0.19016 0
v 0 0.19016 -0.00159
v 0 0.19016 -0.00159
v 0 -0.19015 0
v 0 -0.19015 -0.00159
v 0 0.19016 0
v 0 -0.19015 0
v 0 -0.19015 -0.00159
v 0 -0.19015 0
v 0 -0.19015 -0.00159
v 0 0.19016 -0.00159
v 0 0.19016 0
v 0 -0.19015 0
v 0 0.19016 0
v 0 -0.19015 0
v 0 -0.19015 0
v 0 0.19016 0
vt 1.359092 0.3072361
vt 1.545506 0.09127054
vt 1.545506 0.3072361
vt 1.359092 0.09127054
vt 1.545987 0.08956924
vt 1.358611 0.08956924
vt 1.35739 0.09078985
vt 1.35739 0.307717
vt 1.358611 0.3089376
vt 1.353132 0.3144161
vt 1.351912 0.3131955
vt 1.351912 0.08531106
vt 1.353132 0.08409047
vt -0.4417421 0.08409047
vt -0.4405217 0.08531106
vt -0.4460003 0.09078985
vt -0.4472209 0.08956924
vt -0.4477018 0.09127054
vt -0.4460003 0.3077171
vt -0.4477018 0.3072361
vt -0.4472209 0.3089376
vt -0.4405217 0.3131956
vt -0.4417421 0.3144162
vt -0.6400754 0.3144162
vt -0.6345966 0.3089376
vt -0.6341159 0.3072361
vt -0.4417421 0.3144162
vt -0.6397115 0.3140524
vt -0.6400754 0.3144162
vt -0.4421061 0.3140524
vt -0.4408855 0.3128318
vt -0.4405217 0.3131956
vt -0.4425868 0.3123511
vt -0.4408855 0.08567485
vt -0.4425868 0.08615553
vt -0.4421061 0.08445424
vt -0.4405217 0.08531106
vt -0.4417424 0.08409047
vt -0.6397115 0.0844543
vt -0.6392308 0.08615559
vt 0.5192904 -0.1883051
vt 0.524769 -0.1828264
vt 0.7416961 -0.1828264
vt 0.7471749 -0.188305
vt 0.5183616 -0.1900064
vt 0.5180699 -0.1883051
vt 0.517365 -0.1900064
vt 0.7481037 -0.1900064
vt 0.7483956 -0.1883051
vt 0.7491003 -0.1900064
vt 0.5183616 -0.1909742
vt 0.7481037 -0.1909742
vt 0.5192904 -0.1926755
vt 0.7471749 -0.1926755
vt 0.5180699 -0.1926755
vt 0.517365 -0.1909742
vt 0.5196542 -0.1930394
vt 0.7468112 -0.1930394
vt -0.4417422 -0.1883051
vt -0.447221 -0.1828263
vt -0.6345966 -0.1828263
vt -0.6400754 -0.1883051
vt -0.4408137 -0.1900064
vt -0.6410041 -0.1900064
vt -0.4408137 -0.1909742
vt -0.6410041 -0.1909742
vt -0.4398171 -0.1900064
vt -0.4398171 -0.1909742
vt -0.4417425 -0.1926755
vt -0.4405218 -0.1926755
vt 0.7481037 -0.1900064
vt 0.7471749 -0.1883051
vt 0.5192904 -0.1883051
vt 0.5183616 -0.1900064
vt 0.7481037 -0.1909742
vt 0.7491003 -0.1900064
vt 0.7491003 -0.1909742
vt 0.5183616 -0.1909742
vt 0.7471749 -0.1926755
vt 0.5192904 -0.1926755
vt 0.5180699 -0.1926755
vt 0.517365 -0.1909742
vt 0.517365 -0.1900064
vt 1.352203 -0.1909742
vt 1.552394 -0.1900066
vt 1.552394 -0.1909744
vt 1.352203 -0.1900064
vt 1.551466 -0.1883053
vt 1.353132 -0.1883053
vt 1.351207 -0.1900066
vt 1.351912 -0.1883053
vt 1.353496 0.3140522
vt 1.351912 0.3131955
vt 1.353132 0.3144161
vt 1.352275 0.3128316
vt 1.353977 0.312351
vt 1.551101 0.3140523
vt 1.550621 0.3123511
vt 1.550621 0.08615553
vt 1.353977 0.08615553
vt 1.352275 0.08567485
vt 1.351912 0.08531106
vt 1.353496 0.08445424
vt 1.353132 0.08409047
vt -0.4421061 -0.1930394
vt -0.4417425 -0.1926755
vt -0.6400754 -0.1926755
vt -0.6397115 -0.1930394
vt 1.353132 -0.1883053
vt 1.351912 -0.1883053
vt 1.351207 -0.1900066
vt 1.352203 -0.1900064
vt 1.351207 -0.1909744
vt 1.351912 -0.1926757
vt 1.353132 -0.1926757
vt 1.352203 -0.1909742
vt 1.551465 -0.1926757
vt 1.552394 -0.1909744
vt -0.4408137 -0.1909742
vt -0.4417422 -0.1926755
vt -0.6400754 -0.1926755
vt -0.6410041 -0.1909742
vt -0.4398171 -0.1909742
vt -0.4408137 -0.1909742
vt -0.4408137 -0.1900064
vt -0.4398171 -0.1900064
vt -0.4417422 -0.1883051
vt -0.447221 -0.1828263
vt -0.6345966 -0.1828263
vt -0.6400754 -0.1883051
vt -0.4408137 -0.1900064
vt -0.6410041 -0.1900064
vt -0.4408137 -0.1909742
vt -0.6410041 -0.1909742
vt -0.4398171 -0.1900064
vt -0.4398171 -0.1909742
vt -0.4417425 -0.1926755
vt -0.4405218 -0.1926755
vt 1.352203 -0.1909742
vt 1.552394 -0.1900066
vt 1.352203 -0.1900064
vt 1.551466 -0.1883053
vt -0.4421061 -0.1930394
vt -0.4417425 -0.1926755
vt -0.6400754 -0.1926755
vt -0.6397115 -0.1930394
vt 1.353132 -0.1883053
vt 1.351912 -0.1883053
vt 1.351207 -0.1900066
vt 1.352203 -0.1900064
vt 1.352203 -0.1909742
vt 1.351912 -0.1926757
vt 1.351207 -0.1909744
vt 1.351912 -0.1926757
vt 1.353132 -0.1926757
vt 1.352203 -0.1909742
vt 1.551465 -0.1926757
vt 1.552394 -0.1909744
vt -0.4417422 -0.1926755
vt -0.4408137 -0.1900064
vt -0.4398171 -0.1900064
vt -0.4408137 -0.1909742
vt -0.6410041 -0.1900064
vt -0.4408137 -0.1900064
vt -0.6400754 -0.1883051
vt -0.4417422 -0.1883051
vt -0.4398171 -0.1900064
vt -0.4398171 -0.1909742
vt 1.352203 -0.1909742
vt 1.552394 -0.1900066
vt 1.552394 -0.1909744
vt 1.352203 -0.1900064
vt 1.353132 -0.1883053
vt 1.351207 -0.1900066
vt 1.351912 -0.1883053
vt -0.447221 -0.1828263
vt -0.6400754 -0.1883051
vt -0.6345966 -0.1828263
vt -0.4417425 -0.1926755
vt -0.4421061 -0.1930394
vt -0.6397115 -0.1930394
vt -0.6400754 -0.1926755
vt -0.4408137 -0.1909742
vt -0.6410041 -0.1909742
vt -0.4398171 -0.1909742
vt -0.4405218 -0.1926755
vt -0.4408137 -0.1900064
vt -0.4398171 -0.1900064
vt 1.351207 -0.1900066
vt 1.352203 -0.1900064
vt 1.353132 -0.1883053
vt 1.353132 -0.1926757
vt 1.351912 -0.1926757
vt 1.351207 -0.1909744
vt 1.352203 -0.1909742
vt 1.352203 -0.1909742
vt 1.353132 -0.1926757
vt 1.552394 -0.1909744
vt -0.447221 -0.1828263
vt -0.6400754 -0.1883051
vt -0.6345966 -0.1828263
vt -0.4417425 -0.1926755
vt -0.4421061 -0.1930394
vt -0.6397115 -0.1930394
vt -0.6400754 -0.1926755
vt -0.4408137 -0.1909742
vt -0.6410041 -0.1909742
vt -0.4398171 -0.1909742
vt -0.4405218 -0.1926755
vt -0.4408137 -0.1900064
vt -0.4398171 -0.1900064
vt 1.352203 -0.1909742
vt 1.552394 -0.1900066
vt 1.552394 -0.1909744
vt 1.352203 -0.1900064
vt 1.353132 -0.1883053
vt 1.351207 -0.1900066
vt 1.351912 -0.1883053
vt -0.4408137 -0.1909742
vt -0.6410041 -0.1900064
vt -0.6410041 -0.1909742
vt -0.4408137 -0.1900064
vt -0.6400754 -0.1883051
vt -0.4417422 -0.1883051
vt -0.4398171 -0.1900064
vt -0.4398171 -0.1909742
vt 1.353132 -0.1883053
vt 1.351912 -0.1883053
vt 1.351207 -0.1900066
vt 1.352203 -0.1900064
vt 1.353132 -0.1926757
vt 1.351912 -0.1926757
vt 1.351207 -0.1909744
vt 1.352203 -0.1909742
vt 1.352203 -0.1909742
vt 1.353132 -0.1926757
vt 1.552394 -0.1909744
vn 0.005837978 0.01708043 0.999837
vn -0.005838559 -0.01709054 0.9998369
vn 0.006376594 -0.01763277 0.9998242
vn -0.006377324 0.01762421 0.9998243
vn -0.6593401 -0.006665438 0.7518153
vn -0.651844 0.01792476 0.7581412
vn -0.00312163 -0.6032122 0.7975746
vn 0.009339628 -0.6080204 0.7938665
vn 0.6593634 0.006633193 0.7517951
vn 0.7532256 0.02457321 0.6573031
vn 0.01399639 -0.7126054 0.7014254
vn -0.0141235 -0.7202273 0.6935943
vn -0.7661439 0.02323004 0.6422491
vn -0.7532238 -0.02455883 0.6573057
vn -0.01398971 0.7126051 0.7014259
vn -0.009333654 0.6080179 0.7938684
vn -0.6593401 -0.006665438 0.7518153
vn -0.005838559 -0.01709054 0.9998369
vn 0.003113627 0.6032146 0.7975729
vn 0.006376594 -0.01763277 0.9998242
vn 0.6518144 -0.01795119 0.758166
vn 0.01411351 0.7202289 0.693593
vn 0.7661409 -0.02321051 0.6422534
vn 0.7532256 0.02457321 0.6573031
vn 0.6593634 0.006633193 0.7517951
vn 0.005837978 0.01708043 0.999837
vn 0.8833178 -0.02326144 -0.4681972
vn 0.4601389 0.02019672 -0.8876172
vn 0.8923078 0.005236535 -0.451397
vn 0.469382 -0.02377743 -0.8826751
vn 0.007712797 0.4085373 -0.9127091
vn 0.004892706 0.8556023 -0.5176107
vn 0.005712852 -0.01726924 -0.9998345
vn -0.01009919 0.4030885 -0.9151053
vn -0.006256836 -0.01781225 -0.9998218
vn -0.46016 -0.02017285 -0.8876069
vn -0.01412157 0.8612272 -0.508024
vn -0.8923098 -0.005175351 -0.4513938
vn -0.4693975 0.02377191 -0.8826668
vn -0.005679861 0.01729472 -0.9998343
vn 0.01411351 0.7202289 0.693593
vn 0.003113627 0.6032146 0.7975729
vn -0.009333654 0.6080179 0.7938684
vn -0.01398971 0.7126051 0.7014259
vn 0.02752686 0.9616503 0.2728938
vn 0.7661409 -0.02321051 0.6422534
vn 0.9643679 -0.02319691 0.2635462
vn -0.02709556 0.9596266 0.2799691
vn -0.7532238 -0.02455883 0.6573057
vn -0.9637973 -0.0233081 0.2656155
vn 0.02708995 0.9596272 -0.2799674
vn -0.02753687 0.9616488 -0.2728977
vn 0.004892706 0.8556023 -0.5176107
vn -0.01412157 0.8612272 -0.508024
vn 0.8833178 -0.02326144 -0.4681972
vn 0.9637978 -0.02330175 -0.2656141
vn 0.007712797 0.4085373 -0.9127091
vn -0.01009919 0.4030885 -0.9151053
vn -0.7532238 -0.02455883 0.6573057
vn -0.6593401 -0.006665438 0.7518153
vn -0.651844 0.01792476 0.7581412
vn -0.7661439 0.02323004 0.6422491
vn -0.9637973 -0.0233081 0.2656155
vn -0.9643667 0.02320173 0.2635499
vn -0.9643664 -0.02320394 -0.2635509
vn -0.9637945 0.02330592 -0.2656255
vn -0.02709556 0.9596266 0.2799691
vn -0.02753687 0.9616488 -0.2728977
vn -0.8923098 -0.005175351 -0.4513938
vn -0.01412157 0.8612272 -0.508024
vn -0.0275377 -0.9616495 0.2728955
vn -0.0141235 -0.7202273 0.6935943
vn 0.01399639 -0.7126054 0.7014254
vn 0.02708981 -0.9596266 0.2799698
vn -0.02709156 -0.959624 -0.2799782
vn -0.9643667 0.02320173 0.2635499
vn -0.9637945 0.02330592 -0.2656255
vn 0.02752754 -0.9616506 -0.2728925
vn -0.0048998 -0.85559 -0.5176308
vn 0.01410071 -0.861214 -0.508047
vn 0.8923078 0.005236535 -0.451397
vn 0.9643685 0.02319053 -0.2635444
vn 0.9637964 0.02329841 0.2656197
vn 0.9643685 0.02319053 -0.2635444
vn 0.9643679 -0.02319691 0.2635462
vn 0.9637978 -0.02330175 -0.2656141
vn 0.9637964 0.02329841 0.2656197
vn 0.7661409 -0.02321051 0.6422534
vn 0.7532256 0.02457321 0.6573031
vn 0.02708981 -0.9596266 0.2799698
vn 0.01399639 -0.7126054 0.7014254
vn 0.4601389 0.02019672 -0.8876172
vn 0.01410071 -0.861214 -0.508047
vn 0.8923078 0.005236535 -0.451397
vn 0.01008158 -0.4030592 -0.9151183
vn 0.006217795 0.01783975 -0.9998216
vn 0.469382 -0.02377743 -0.8826751
vn 0.005712852 -0.01726924 -0.9998345
vn -0.006256836 -0.01781225 -0.9998218
vn -0.005679861 0.01729472 -0.9998343
vn -0.00771208 -0.4085411 -0.9127073
vn -0.0048998 -0.85559 -0.5176308
vn -0.4693975 0.02377191 -0.8826668
vn -0.8833187 0.02327913 -0.4681946
vn -0.46016 -0.02017285 -0.8876069
vn -0.8923098 -0.005175351 -0.4513938
vn -0.8833187 0.02327913 -0.4681946
vn -0.4693975 0.02377191 -0.8826668
vn -0.7661439 0.02323004 0.6422491
vn -0.0141235 -0.7202273 0.6935943
vn -0.0275377 -0.9616495 0.2728955
vn -0.9643667 0.02320173 0.2635499
vn -0.02709156 -0.959624 -0.2799782
vn -0.0048998 -0.85559 -0.5176308
vn -0.8833187 0.02327913 -0.4681946
vn -0.9637945 0.02330592 -0.2656255
vn -0.8923098 -0.005175351 -0.4513938
vn -0.9643664 -0.02320394 -0.2635509
vn 0.9637978 -0.02330175 -0.2656141
vn 0.8833178 -0.02326144 -0.4681972
vn 0.8923078 0.005236535 -0.451397
vn 0.9643685 0.02319053 -0.2635444
vn 0.02708995 0.9596272 -0.2799674
vn 0.9637978 -0.02330175 -0.2656141
vn 0.9643679 -0.02319691 0.2635462
vn 0.02752686 0.9616503 0.2728938
usemtl LightWoodCounters3
f 3/3/3 2/2/2 1/1/1
f 2/2/2 4/4/4 1/1/1
f 2/2/2 5/5/5 4/4/4
f 5/5/5 6/6/6 4/4/4
f 4/4/4 7/7/7 1/1/1
f 6/6/6 7/7/7 4/4/4
f 7/7/7 8/8/8 1/1/1
f 1/1/1 8/8/8 9/9/9
f 9/9/9 8/8/8 10/10/10
f 8/8/8 11/11/11 10/10/10
f 12/12/12 11/11/11 8/8/8
f 7/7/7 12/12/12 8/8/8
f 12/12/12 7/7/7 6/6/6
f 13/13/13 12/12/12 6/6/6
f 16/16/16 15/15/15 14/14/14
f 17/17/17 16/16/16 14/14/14
f 18/18/18 16/16/16 17/17/17
f 19/19/19 16/16/16 18/18/18
f 20/20/20 19/19/19 18/18/18
f 19/19/19 20/20/20 21/21/21
f 22/22/22 19/19/19 21/21/21
f 23/23/23 22/22/22 21/21/21
f 24/24/24 23/23/23 21/21/21
f 25/25/25 24/24/24 21/21/21
f 25/25/25 21/21/21 20/20/20
f 26/26/26 25/25/25 20/20/20
f 29/29/29 28/28/28 27/27/27
f 28/28/28 30/30/30 27/27/27
f 30/30/30 31/31/31 27/27/27
f 31/31/31 32/32/32 27/27/27
f 33/33/33 31/31/31 30/30/30
f 34/34/34 31/31/31 33/33/33
f 35/35/35 34/34/34 33/33/33
f 36/36/36 34/34/34 35/35/35
f 37/37/37 34/34/34 36/36/36
f 38/38/38 37/37/37 36/36/36
f 39/39/39 36/36/36 35/35/35
f 40/40/40 39/39/39 35/35/35
f 43/43/43 42/42/42 41/41/41
f 44/44/44 43/43/43 41/41/41
f 44/44/44 41/41/41 45/45/45
f 45/45/45 41/41/41 46/46/46
f 47/47/47 45/45/45 46/46/46
f 48/48/48 44/44/44 45/45/45
f 49/49/49 44/44/44 48/48/48
f 50/50/50 49/49/49 48/48/48
f 48/48/48 45/45/45 51/51/51
f 52/52/52 48/48/48 51/51/51
f 51/51/51 53/53/53 52/52/52
f 53/53/53 54/54/54 52/52/52
f 53/53/53 51/51/51 55/55/55
f 51/51/51 56/56/56 55/55/55
f 54/54/54 53/53/53 57/57/57
f 58/58/58 54/54/54 57/57/57
f 61/61/61 60/60/60 59/59/59
f 62/62/62 61/61/61 59/59/59
f 62/62/62 59/59/59 63/63/63
f 64/64/64 62/62/62 63/63/63
f 64/64/64 63/63/63 65/65/65
f 66/66/66 64/64/64 65/65/65
f 65/65/65 63/63/63 67/67/67
f 68/68/68 65/65/65 67/67/67
f 65/65/65 68/68/68 69/69/69
f 68/68/68 70/70/70 69/69/69
f 73/73/73 72/72/72 71/71/71
f 74/74/74 73/73/73 71/71/71
f 74/74/74 71/71/71 75/75/75
f 75/75/75 71/71/71 76/76/76
f 77/77/77 75/75/75 76/76/76
f 78/78/78 74/74/74 75/75/75
f 75/75/75 79/79/79 78/78/78
f 79/79/79 80/80/80 78/78/78
f 78/78/78 80/80/80 81/81/81
f 82/82/82 78/78/78 81/81/81
f 78/78/78 82/82/82 74/74/74
f 82/82/82 83/83/83 74/74/74
f 86/86/86 85/85/85 84/84/84
f 85/85/85 87/87/87 84/84/84
f 85/85/85 88/88/88 87/87/87
f 88/88/88 89/89/89 87/87/87
f 90/90/90 87/87/87 89/89/89
f 91/91/91 90/90/90 89/89/89
f 94/94/94 93/93/93 92/92/92
f 93/93/93 95/95/95 92/92/92
f 95/95/95 96/96/96 92/92/92
f 97/97/97 92/92/92 96/96/96
f 98/98/98 97/97/97 96/96/96
f 99/99/99 98/98/98 96/96/96
f 100/100/100 99/99/99 96/96/96
f 96/96/96 95/95/95 100/100/100
f 101/101/101 95/95/95 93/93/93
f 95/95/95 101/101/101 100/100/100
f 102/102/102 101/101/101 93/93/93
f 100/100/100 101/101/101 103/103/103
f 101/101/101 102/102/102 104/104/104
f 103/103/103 101/101/101 104/104/104
f 107/107/107 106/106/106 105/105/105
f 108/108/108 107/107/107 105/105/105
f 111/111/111 110/110/110 109/109/109
f 112/112/112 111/111/111 109/109/109
f 115/115/115 114/114/114 113/113/113
f 116/116/116 115/115/115 113/113/113
f 117/117/117 115/115/115 116/116/116
f 118/118/118 117/117/117 116/116/116
f 121/121/121 120/120/120 119/119/119
f 122/122/122 121/121/121 119/119/119
f 125/125/125 124/124/124 123/123/123
f 126/126/126 125/125/125 123/123/123
