mtllib Desk_310_1.mtl
v -0.00163 0.19205 0
v 0 0.19016 0
v -0.00163 -0.19204 0
v 0 -0.19015 0
v 0 0.19016 0
v 0 -0.19015 0
v -0.00163 -0.19204 0
v 0 0.19016 0
v -0.00163 0.19205 0
v -0.01297 -0.17706 0.01457
v -0.35205 0.17707 0.01457
v -0.01297 0.17707 0.01457
v -0.35205 -0.17706 0.01457
v -0.35485 0.17799 0.01341
v -0.35485 -0.17798 0.01341
v -0.35284 -0.1803 0.01341
v -0.01218 -0.1803 0.01341
v -0.01017 -0.17798 0.01341
v -0.00115 -0.18839 0.0044
v -0.00316 -0.1907 0.0044
v -0.36185 -0.1907 0.0044
v -0.36386 -0.18839 0.0044
v -0.00316 0.19071 0.0044
v -0.01218 0.18031 0.01341
v -0.35284 0.18031 0.01341
v -0.36185 0.19071 0.0044
v -0.00164 0.19205 0.0016
v 0 0.19016 0.0016
v -0.00115 0.1884 0.0044
v -0.36338 0.19205 0.0016
v -0.36386 0.1884 0.0044
v -0.36502 0.19016 0.0016
v -0.00163 0.19205 0
v -0.36338 0.19205 0
v -0.00316 0.19071 -0.00279
v 0 0.19016 0
v -0.00115 0.1884 -0.00279
v -0.36185 0.19071 -0.00279
v -0.00376 0.19002 -0.00339
v -0.36125 0.19002 -0.00339
v -0.36386 0.1884 0.0044
v -0.35485 0.17799 0.01341
v -0.35485 -0.17798 0.01341
v -0.36386 -0.18839 0.0044
v -0.36502 0.19016 0.0016
v -0.36502 -0.19015 0.0016
v -0.36502 0.19016 0
v -0.36502 -0.19015 0
v -0.36338 0.19205 0.0016
v -0.36338 0.19205 0
v -0.36386 0.1884 -0.00279
v -0.36185 0.19071 -0.00279
v -0.01297 0.17707 0.01457
v -0.01017 -0.17798 0.01341
v -0.01297 -0.17706 0.01457
v -0.01017 0.17799 0.01341
v -0.00115 -0.18839 0.0044
v -0.00115 0.1884 0.0044
v -0.00316 0.19071 0.0044
v -0.01218 0.18031 0.01341
v -0.35205 0.17707 0.01457
v -0.35284 0.18031 0.01341
v -0.35485 0.17799 0.01341
v -0.36386 0.1884 0.0044
v -0.36185 0.19071 0.0044
v 0 -0.19015 0
v 0 0.19016 0.0016
v 0 0.19016 0
v 0 -0.19015 0.0016
v -0.00115 0.1884 0.0044
v -0.00115 -0.18839 0.0044
v -0.00316 -0.1907 0.0044
v -0.00115 -0.18839 0.0044
v 0 -0.19015 0.0016
v -0.00164 -0.19204 0.0016
v 0 -0.19015 0
v -0.00163 -0.19204 0
v -0.36338 -0.19204 0.0016
v -0.36185 -0.1907 0.0044
v -0.36338 -0.19204 0
v -0.36502 -0.19015 0.0016
v -0.36502 -0.19015 0
v -0.36185 -0.1907 -0.00279
v -0.00316 -0.1907 -0.00279
v -0.00115 0.1884 -0.00279
v -0.00175 -0.18769 -0.00339
v -0.00115 -0.18839 -0.00279
v -0.00175 0.1877 -0.00339
v -0.00376 0.19002 -0.00339
v -0.00316 0.19071 -0.00279
v -0.00455 0.18679 -0.00455
v -0.36125 0.19002 -0.00339
v -0.36046 0.18679 -0.00455
v -0.36326 0.1877 -0.00339
v -0.36185 0.19071 -0.00279
v -0.36386 0.1884 -0.00279
v -0.36326 -0.18769 -0.00339
v -0.36046 -0.18678 -0.00455
v -0.00316 -0.1907 -0.00279
v -0.00115 -0.18839 -0.00279
v -0.00175 -0.18769 -0.00339
v -0.00376 -0.19001 -0.00339
v -0.36125 -0.19001 -0.00339
v -0.36185 -0.1907 -0.00279
v -0.36386 -0.18839 -0.00279
v -0.36326 -0.18769 -0.00339
v -0.36046 -0.18678 -0.00455
v -0.00455 -0.18678 -0.00455
v -0.00175 0.1877 -0.00339
v -0.36046 0.18679 -0.00455
v -0.00455 0.18679 -0.00455
v -0.36326 0.1877 -0.00339
v -0.36386 0.1884 -0.00279
v -0.36386 -0.18839 -0.00279
v -0.36326 -0.18769 -0.00339
v -0.36386 -0.18839 0.0044
v -0.36185 -0.1907 0.0044
v -0.36338 -0.19204 0.0016
v -0.36502 -0.19015 0.0016
v 0 -0.19015 0
v -0.00115 -0.18839 -0.00279
v -0.00316 -0.1907 -0.00279
v -0.00163 -0.19204 0
v -0.36338 -0.19204 0
v -0.36185 -0.1907 -0.00279
v -0.36386 -0.18839 -0.00279
v -0.36502 -0.19015 0
v -0.36386 0.1884 -0.00279
v -0.36502 0.19016 0
v 0 0.19016 0
v -0.00115 0.1884 -0.00279
v -0.00115 -0.18839 -0.00279
v 0 -0.19015 0
v 0 0.19016 0.0016
v -0.00164 0.19205 0.0016
v -0.00163 0.19205 0
v 0 0.19016 0
v 0 0.19016 0
v 0 -0.19015 0
v 0 0.19016 0
v 0 -0.19015 0
v 0 -0.19015 0
v 0 0.19016 0.0016
v 0 0.19016 0
v 0 -0.19015 0.0016
v 0 -0.19015 0
v 0 0.19016 0
v 0 -0.19015 0.0016
v 0 -0.19015 0
v 0 0.19016 0.0016
v 0 -0.19015 0.0016
v 0 -0.19015 0
v 0 0.19016 0
vt -0.4417422 -0.1883051
vt -0.447221 -0.1828263
vt -0.6345966 -0.1828263
vt -0.6400754 -0.1883051
vt -0.4408137 -0.1900064
vt -0.6410041 -0.1900064
vt -0.4408137 -0.1909742
vt -0.6410041 -0.1909742
vt -0.4398171 -0.1900064
vt -0.4398171 -0.1909742
vt -0.4417425 -0.1926755
vt -0.4405218 -0.1926755
vt 1.352203 -0.1909742
vt 1.552394 -0.1900066
vt 1.552394 -0.1909744
vt 1.352203 -0.1900064
vt 1.551466 -0.1883053
vt 1.353132 -0.1883053
vt 1.351207 -0.1900066
vt 1.351912 -0.1883053
vt -0.4421061 -0.1930394
vt -0.4417425 -0.1926755
vt -0.6400754 -0.1926755
vt -0.6397115 -0.1930394
vt 1.353132 -0.1883053
vt 1.351912 -0.1883053
vt 1.351207 -0.1900066
vt 1.352203 -0.1900064
vt 1.351207 -0.1909744
vt 1.351912 -0.1926757
vt 1.353132 -0.1926757
vt 1.352203 -0.1909742
vt 1.551465 -0.1926757
vt 1.552394 -0.1909744
vt -0.4408137 -0.1909742
vt -0.4417422 -0.1926755
vt -0.6400754 -0.1926755
vt -0.6410041 -0.1909742
vt -0.4398171 -0.1909742
vt -0.4408137 -0.1909742
vt -0.4408137 -0.1900064
vt -0.4398171 -0.1900064
vt 1.359092 0.9469031
vt 1.545506 0.7407986
vt 1.545506 0.9469031
vt 1.359092 0.7407986
vt 1.545987 0.7390973
vt 1.358611 0.7390973
vt 1.35739 0.7403179
vt 1.35739 0.947384
vt 1.358611 0.9486044
vt 1.353132 0.9540832
vt 1.351912 0.9528626
vt 1.351912 0.7348391
vt 1.353132 0.7336187
vt -0.1203766 -0.188305
vt -0.1148981 -0.1828264
vt 0.09216809 -0.1828264
vt 0.09764686 -0.188305
vt -0.1213055 -0.1900064
vt -0.1223021 -0.1900064
vt -0.1215973 -0.1883051
vt 0.09857544 -0.1900064
vt 0.09886724 -0.1883051
vt 0.09957197 -0.1900064
vt -0.1213054 -0.1909741
vt 0.09857544 -0.1909742
vt -0.1203767 -0.1926755
vt -0.1223019 -0.1909741
vt -0.1215973 -0.1926755
vt 0.09764686 -0.1926755
vt -0.1200129 -0.1930393
vt 0.09728286 -0.1930394
vt -0.4417422 -0.1883051
vt -0.447221 -0.1828263
vt -0.6345966 -0.1828263
vt -0.6400754 -0.1883051
vt -0.4408137 -0.1900064
vt -0.6410041 -0.1900064
vt -0.4408137 -0.1909742
vt -0.6410041 -0.1909742
vt -0.4398171 -0.1900064
vt -0.4398171 -0.1909742
vt -0.4417425 -0.1926755
vt -0.4405218 -0.1926755
vt -0.4477018 0.9469031
vt -0.6345966 0.9486044
vt -0.6341159 0.9469031
vt -0.4472209 0.9486044
vt -0.6400754 0.9540832
vt -0.4417421 0.9540832
vt -0.4405217 0.9528626
vt -0.4460003 0.947384
vt -0.4477018 0.7407986
vt -0.4460003 0.7403179
vt -0.4472209 0.7390973
vt -0.4417421 0.7336187
vt -0.4405217 0.7348391
vt 1.352203 -0.1909742
vt 1.552394 -0.1900066
vt 1.552394 -0.1909741
vt 1.352203 -0.1900064
vt 1.551466 -0.1883053
vt 1.353132 -0.188305
vt -0.1203767 -0.1883051
vt -0.1215972 -0.188305
vt -0.1223021 -0.1900064
vt -0.1213055 -0.1900064
vt -0.1223019 -0.1909741
vt -0.1213054 -0.1909741
vt 0.09857544 -0.1900064
vt 0.09764686 -0.1883051
vt 0.09857544 -0.1909742
vt 0.09957197 -0.1900064
vt 0.09957197 -0.1909742
vt 0.09764686 -0.1926755
vt -0.1203767 -0.1926755
vt -0.4417421 0.9540832
vt -0.6397115 0.9537194
vt -0.6400754 0.9540832
vt -0.4421061 0.9537194
vt -0.4408855 0.9524988
vt -0.4405217 0.9528626
vt -0.4425868 0.9520181
vt -0.4408855 0.7352031
vt -0.4425868 0.7356838
vt -0.4421061 0.7339823
vt -0.4405217 0.7348391
vt -0.4417424 0.7336187
vt -0.6397115 0.7339823
vt -0.6392308 0.7356838
vt 1.351912 0.9528626
vt 1.353132 0.9540832
vt 1.353496 0.9537194
vt 1.352275 0.9524988
vt 1.352275 0.7352031
vt 1.351912 0.7348391
vt 1.353132 0.7336187
vt 1.353496 0.7339823
vt 1.353977 0.7356838
vt 1.353977 0.9520181
vt 1.551101 0.9537194
vt 1.550621 0.7356838
vt 1.550621 0.9520181
vt -0.4421061 -0.1930394
vt -0.4417425 -0.1926755
vt -0.6400754 -0.1926755
vt -0.6397115 -0.1930394
vt 1.353132 -0.1883053
vt 1.351912 -0.1883053
vt 1.351207 -0.1900066
vt 1.352203 -0.1900064
vt 1.352203 -0.1909742
vt 1.353132 -0.1926754
vt 1.351912 -0.1926757
vt 1.351207 -0.1909741
vt 1.351207 -0.1909744
vt 1.351912 -0.1926757
vt 1.353132 -0.1926757
vt 1.352203 -0.1909742
vt 1.551465 -0.1926757
vt 1.552394 -0.1909744
vt -0.4408135 -0.1909741
vt -0.4417422 -0.1926755
vt -0.6400754 -0.1926754
vt -0.6410041 -0.1909741
vt -0.4408137 -0.1900064
vt -0.4398171 -0.1900064
vt -0.439817 -0.1909741
vt -0.4408135 -0.1909741
vt -0.4408137 -0.1909742
vt -0.6410041 -0.1900064
vt -0.6410041 -0.1909741
vt -0.4408137 -0.1900064
vt -0.6400754 -0.1883051
vt -0.4417422 -0.1883051
vt -0.4398171 -0.1900064
vt -0.4398171 -0.1909742
vt 1.352203 -0.1909742
vt 1.552394 -0.1900066
vt 1.552394 -0.1909744
vt 1.352203 -0.1900064
vt 1.353132 -0.1883053
vt 1.351207 -0.1900066
vt 1.351912 -0.1883053
vt -0.447221 -0.1828263
vt -0.6400754 -0.1883051
vt -0.6345966 -0.1828263
vt -0.4417425 -0.1926755
vt -0.4421061 -0.1930394
vt -0.6397115 -0.1930394
vt -0.6400754 -0.1926755
vt -0.4408137 -0.1909742
vt -0.6410041 -0.1909742
vt -0.4398171 -0.1909742
vt -0.4405218 -0.1926755
vt -0.4408137 -0.1900064
vt -0.4398171 -0.1900064
vt 1.351207 -0.1900066
vt 1.352203 -0.1900064
vt 1.353132 -0.1883053
vt 1.353132 -0.1926757
vt 1.351912 -0.1926757
vt 1.351207 -0.1909744
vt 1.352203 -0.1909742
vt 1.352203 -0.1909742
vt 1.353132 -0.1926757
vt 1.552394 -0.1909744
vt -0.447221 -0.1828263
vt -0.6400754 -0.1883051
vt -0.6345966 -0.1828263
vt -0.4417425 -0.1926755
vt -0.4421061 -0.1930394
vt -0.6397115 -0.1930394
vt -0.6400754 -0.1926755
vt -0.4408137 -0.1909742
vt -0.6410041 -0.1909742
vt -0.4398171 -0.1909742
vt -0.4405218 -0.1926755
vt -0.4408137 -0.1900064
vt -0.4398171 -0.1900064
vt 1.352203 -0.1909742
vt 1.552394 -0.1900066
vt 1.552394 -0.1909744
vt 1.352203 -0.1900064
vt 1.353132 -0.1883053
vt 1.351207 -0.1900066
vt 1.351912 -0.1883053
vt -0.4408137 -0.1909742
vt -0.6410041 -0.1900064
vt -0.6410041 -0.1909742
vt -0.4408137 -0.1900064
vt -0.6400754 -0.1883051
vt -0.4417422 -0.1883051
vt -0.4398171 -0.1900064
vt -0.4398171 -0.1909742
vt 1.353132 -0.1883053
vt 1.351912 -0.1883053
vt 1.351207 -0.1900066
vt 1.352203 -0.1900064
vt 1.353132 -0.1926757
vt 1.351912 -0.1926757
vt 1.351207 -0.1909744
vt 1.352203 -0.1909742
vt 1.352203 -0.1909742
vt 1.353132 -0.1926757
vt 1.552394 -0.1909744
vn 0.006006896 0.01709802 0.9998357
vn -0.006004586 -0.0171067 0.9998356
vn 0.006545321 -0.01765052 0.9998228
vn -0.006543369 0.01763921 0.999823
vn -0.6593404 -0.006660924 0.7518151
vn -0.6518443 0.017923 0.7581409
vn -0.003259956 -0.6032043 0.7975801
vn 0.009472205 -0.6080091 0.7938735
vn 0.6593405 0.006663815 0.7518149
vn 0.7532191 0.02456963 0.6573107
vn 0.01415312 -0.7125672 0.701461
vn -0.01429173 -0.7201834 0.6936365
vn -0.7661446 0.0232327 0.6422481
vn 0.01427346 0.7201853 0.693635
vn 0.003287941 0.6031739 0.797603
vn -0.009470224 0.6080068 0.7938753
vn -0.01415873 0.7125661 0.7014621
vn 0.02770096 0.9616206 0.2729809
vn 0.9643664 -0.02320135 0.263551
vn 0.7661057 -0.02321665 0.6422951
vn -0.02726805 0.9595975 0.2800522
vn -0.753224 -0.02456057 0.6573054
vn -0.9637972 -0.02325359 0.2656205
vn 0.02726281 0.9595982 -0.28005
vn -0.02770615 0.9616201 -0.2729819
vn 0.005093099 0.85555 -0.5176952
vn 0.9637974 -0.0233008 -0.2656158
vn 0.8833169 -0.02326521 -0.4681986
vn -0.01433529 0.861174 -0.5081081
vn 0.007788453 0.4084919 -0.9127287
vn -0.01014186 0.4029966 -0.9151453
vn -0.753224 -0.02456057 0.6573054
vn -0.6593404 -0.006660924 0.7518151
vn -0.6518443 0.017923 0.7581409
vn -0.7661446 0.0232327 0.6422481
vn -0.9637972 -0.02325359 0.2656205
vn -0.9643667 0.02320144 0.2635498
vn -0.9643666 -0.02314693 -0.2635555
vn -0.9637956 0.02330738 -0.2656213
vn -0.02726805 0.9595975 0.2800522
vn -0.02770615 0.9616201 -0.2729819
vn -0.8923103 -0.005179137 -0.451393
vn -0.01433529 0.861174 -0.5081081
vn 0.006545321 -0.01765052 0.9998228
vn 0.6593405 0.006663815 0.7518149
vn 0.006006896 0.01709802 0.9998357
vn 0.6518148 -0.01795098 0.7581658
vn 0.7532191 0.02456963 0.6573107
vn 0.7661057 -0.02321665 0.6422951
vn 0.01427346 0.7201853 0.693635
vn 0.003287941 0.6031739 0.797603
vn -0.006004586 -0.0171067 0.9998356
vn -0.009470224 0.6080068 0.7938753
vn -0.6593404 -0.006660924 0.7518151
vn -0.753224 -0.02456057 0.6573054
vn -0.01415873 0.7125661 0.7014621
vn 0.9643663 0.02319363 -0.2635521
vn 0.9643664 -0.02320135 0.263551
vn 0.9637974 -0.0233008 -0.2656158
vn 0.9637943 0.02329519 0.2656273
vn 0.7661057 -0.02321665 0.6422951
vn 0.7532191 0.02456963 0.6573107
vn 0.01415312 -0.7125672 0.701461
vn 0.7532191 0.02456963 0.6573107
vn 0.9637943 0.02329519 0.2656273
vn 0.02731484 -0.9595945 0.2800578
vn 0.9643663 0.02319363 -0.2635521
vn 0.0277018 -0.961621 -0.2729789
vn -0.0277068 -0.9616208 0.2729794
vn -0.01429173 -0.7201834 0.6936365
vn -0.02727244 -0.9596186 -0.2799792
vn -0.9643667 0.02320144 0.2635498
vn -0.9637956 0.02330738 -0.2656213
vn -0.005104929 -0.8555384 -0.5177141
vn 0.01427019 -0.8611394 -0.5081685
vn 0.8833169 -0.02326521 -0.4681986
vn 0.4601342 0.02018596 -0.8876198
vn 0.8922808 0.005237071 -0.4514506
vn 0.4694027 -0.02378402 -0.8826639
vn 0.007788453 0.4084919 -0.9127287
vn 0.005093099 0.85555 -0.5176952
vn 0.005857007 -0.01725698 -0.9998339
vn -0.01014186 0.4029966 -0.9151453
vn -0.006394233 -0.01779899 -0.9998211
vn -0.460162 -0.02017461 -0.8876057
vn -0.01433529 0.861174 -0.5081081
vn -0.8923103 -0.005179137 -0.451393
vn -0.4693686 0.02376912 -0.8826824
vn -0.005817384 0.01728222 -0.9998337
vn 0.01427019 -0.8611394 -0.5081685
vn 0.8922808 0.005237071 -0.4514506
vn 0.4601342 0.02018596 -0.8876198
vn 0.01015549 -0.4030405 -0.9151258
vn -0.007776674 -0.4085104 -0.9127205
vn -0.005104929 -0.8555384 -0.5177141
vn -0.8833183 0.02328844 -0.468195
vn -0.4693686 0.02376912 -0.8826824
vn -0.005817384 0.01728222 -0.9998337
vn 0.006359207 0.01782587 -0.9998209
vn 0.4694027 -0.02378402 -0.8826639
vn -0.006394233 -0.01779899 -0.9998211
vn 0.005857007 -0.01725698 -0.9998339
vn -0.460162 -0.02017461 -0.8876057
vn -0.8923103 -0.005179137 -0.451393
vn -0.8833183 0.02328844 -0.468195
vn -0.4693686 0.02376912 -0.8826824
vn -0.7661446 0.0232327 0.6422481
vn -0.01429173 -0.7201834 0.6936365
vn -0.0277068 -0.9616208 0.2729794
vn -0.9643667 0.02320144 0.2635498
vn 0.9643663 0.02319363 -0.2635521
vn 0.8922808 0.005237071 -0.4514506
vn 0.01427019 -0.8611394 -0.5081685
vn 0.0277018 -0.961621 -0.2729789
vn -0.02727244 -0.9596186 -0.2799792
vn -0.005104929 -0.8555384 -0.5177141
vn -0.8833183 0.02328844 -0.468195
vn -0.9637956 0.02330738 -0.2656213
vn -0.8923103 -0.005179137 -0.451393
vn -0.9643666 -0.02314693 -0.2635555
vn 0.9637974 -0.0233008 -0.2656158
vn 0.8833169 -0.02326521 -0.4681986
vn 0.8922808 0.005237071 -0.4514506
vn 0.9643663 0.02319363 -0.2635521
vn 0.9643664 -0.02320135 0.263551
vn 0.02770096 0.9616206 0.2729809
vn 0.02726281 0.9595982 -0.28005
vn 0.9637974 -0.0233008 -0.2656158
usemtl LightWoodCounters3
f 12/45/3 11/44/2 10/43/1
f 11/44/2 13/46/4 10/43/1
f 11/44/2 14/47/5 13/46/4
f 14/47/5 15/48/6 13/46/4
f 13/46/4 16/49/7 10/43/1
f 15/48/6 16/49/7 13/46/4
f 16/49/7 17/50/8 10/43/1
f 17/50/8 18/51/9 10/43/1
f 19/52/10 18/51/9 17/50/8
f 20/53/11 19/52/10 17/50/8
f 21/54/12 20/53/11 17/50/8
f 16/49/7 21/54/12 17/50/8
f 21/54/12 16/49/7 15/48/6
f 22/55/13 21/54/12 15/48/6
f 25/58/16 24/57/15 23/56/14
f 26/59/17 25/58/16 23/56/14
f 26/59/17 23/56/14 27/60/18
f 28/61/19 27/60/18 23/56/14
f 29/62/20 28/61/19 23/56/14
f 30/63/21 26/59/17 27/60/18
f 31/64/22 26/59/17 30/63/21
f 32/65/23 31/64/22 30/63/21
f 30/63/21 27/60/18 33/66/24
f 34/67/25 30/63/21 33/66/24
f 33/66/24 35/68/26 34/67/25
f 33/66/24 36/69/27 35/68/26
f 36/69/27 37/70/28 35/68/26
f 35/68/26 38/71/29 34/67/25
f 38/71/29 35/68/26 39/72/30
f 40/73/31 38/71/29 39/72/30
f 43/76/34 42/75/33 41/74/32
f 44/77/35 43/76/34 41/74/32
f 44/77/35 41/74/32 45/78/36
f 46/79/37 44/77/35 45/78/36
f 46/79/37 45/78/36 47/80/38
f 48/81/39 46/79/37 47/80/38
f 45/78/36 49/82/40 47/80/38
f 49/82/40 50/83/41 47/80/38
f 47/80/38 50/83/41 51/84/42
f 50/83/41 52/85/43 51/84/42
f 55/88/46 54/87/45 53/86/44
f 54/87/45 56/89/47 53/86/44
f 54/87/45 57/90/48 56/89/47
f 57/90/48 58/91/49 56/89/47
f 56/89/47 58/91/49 59/92/50
f 60/93/51 56/89/47 59/92/50
f 53/86/44 56/89/47 60/93/51
f 53/86/44 60/93/51 61/94/52
f 60/93/51 62/95/53 61/94/52
f 61/94/52 62/95/53 63/96/54
f 63/96/54 62/95/53 64/97/55
f 62/95/53 65/98/56 64/97/55
f 68/101/59 67/100/58 66/99/57
f 67/100/58 69/102/60 66/99/57
f 67/100/58 70/103/61 69/102/60
f 70/103/61 71/104/62 69/102/60
f 74/107/65 73/106/64 72/105/63
f 75/108/66 74/107/65 72/105/63
f 76/109/67 74/107/65 75/108/66
f 77/110/68 76/109/67 75/108/66
f 75/108/66 72/105/63 78/111/69
f 72/105/63 79/112/70 78/111/69
f 75/108/66 78/111/69 80/113/71
f 77/110/68 75/108/66 80/113/71
f 80/113/71 78/111/69 81/114/72
f 82/115/73 80/113/71 81/114/72
f 80/113/71 83/116/74 77/110/68
f 83/116/74 84/117/75 77/110/68
f 87/120/78 86/119/77 85/118/76
f 86/119/77 88/121/79 85/118/76
f 85/118/76 88/121/79 89/122/80
f 90/123/81 85/118/76 89/122/80
f 88/121/79 91/124/82 89/122/80
f 92/125/83 89/122/80 91/124/82
f 93/126/84 92/125/83 91/124/82
f 94/127/85 92/125/83 93/126/84
f 95/128/86 92/125/83 94/127/85
f 96/129/87 95/128/86 94/127/85
f 97/130/88 94/127/85 93/126/84
f 98/131/89 97/130/88 93/126/84
f 101/134/92 100/133/91 99/132/90
f 102/135/93 101/134/92 99/132/90
f 103/136/94 102/135/93 99/132/90
f 104/137/95 103/136/94 99/132/90
f 103/136/94 104/137/95 105/138/96
f 106/139/97 103/136/94 105/138/96
f 107/140/98 103/136/94 106/139/97
f 102/135/93 103/136/94 107/140/98
f 108/141/99 101/134/92 102/135/93
f 108/141/99 102/135/93 107/140/98
f 109/142/100 101/134/92 108/141/99
f 107/140/98 110/143/101 108/141/99
f 111/144/102 109/142/100 108/141/99
f 110/143/101 111/144/102 108/141/99
f 114/147/105 113/146/104 112/145/103
f 115/148/106 114/147/105 112/145/103
f 118/151/109 117/150/108 116/149/107
f 119/152/110 118/151/109 116/149/107
f 122/155/113 121/154/112 120/153/111
f 123/156/114 122/155/113 120/153/111
f 126/159/117 125/158/116 124/157/115
f 127/160/118 126/159/117 124/157/115
f 128/161/119 126/159/117 127/160/118
f 129/162/120 128/161/119 127/160/118
f 132/165/123 131/164/122 130/163/121
f 133/166/124 132/165/123 130/163/121
f 136/169/127 135/168/126 134/167/125
f 137/170/128 136/169/127 134/167/125
