# Blender 4.0.0
# www.blender.org
o decimated_mesh
v 0.408569 0.026290 0.163486
v 0.408569 0.028965 0.162171
v 0.408569 0.028916 0.160422
v 0.012159 0.028857 0.161989
v 0.013568 0.026091 0.163461
v 0.408569 -0.003299 0.162953
v 0.014804 0.026290 0.159594
v 0.408569 -0.003388 0.154181
v 0.012037 0.028783 0.160766
v 0.007754 0.023955 0.161318
v 0.111868 -0.031271 0.161255
v 0.002093 -0.003388 0.155749
v -0.000620 -0.001430 0.156376
v 0.408569 -0.006658 0.155061
v 0.019054 -0.011867 0.155339
v 0.001467 0.001672 0.163221
v -0.000205 -0.005666 0.156644
v -0.001075 -0.003388 0.159021
v -0.000995 0.000719 0.159083
v -0.000251 0.007028 0.161345
v 0.408569 -0.007507 0.159021
v 0.105967 -0.030429 0.158040
v 0.111714 -0.028352 0.156278
v 0.033444 -0.022369 0.156548
v -0.000875 0.000848 0.162107
v -0.000269 -0.005495 0.161227
v 0.016809 -0.018528 0.161167
v 0.029067 -0.022830 0.161289
v 0.046575 -0.026859 0.161277
v 0.408569 -0.006310 0.161516
v 0.076337 -0.031039 0.161058
v 0.019080 -0.017835 0.156808
v 0.073326 -0.027812 0.156330
v 0.058984 -0.026784 0.156813
vn -0.2026 0.2235 -0.9534
vn -0.1027 0.1710 -0.9799
vn 0.0354 -0.4304 0.9019
vn -0.0039 0.0407 -0.9992
vn -0.0005 0.4696 0.8829
vn 1.0000 -0.0000 -0.0000
vn -0.1494 -0.8903 -0.4302
vn -0.7552 0.3563 -0.5502
vn 0.0765 -0.9749 -0.2089
vn 0.0150 -0.2600 -0.9655
vn -0.0040 -0.0180 0.9998
vn -0.0009 0.4247 -0.9053
vn 0.0008 0.1897 -0.9818
vn -0.3769 -0.1624 0.9119
vn -0.0594 -0.3986 -0.9152
vn -0.9341 -0.3571 0.0002
vn -0.9627 -0.1101 -0.2470
vn -0.4912 -0.7836 -0.3805
vn -0.9644 -0.1244 0.2334
vn -0.9991 0.0189 0.0389
vn 0.0753 -0.8992 0.4310
vn -0.4604 0.3136 -0.8305
vn -0.2149 -0.9329 -0.2891
vn -0.0004 0.9981 -0.0608
vn -0.0384 -0.8365 -0.5466
vn -0.0614 -0.1470 0.9872
vn -0.3952 0.1883 0.8991
vn -0.9285 0.2174 -0.3010
vn -0.0784 -0.8459 -0.5275
vn -0.2841 -0.0883 -0.9547
vn 0.0692 -0.9267 -0.3695
vn -0.0003 0.4413 0.8973
vn -0.1690 -0.2259 0.9594
vn -0.1314 -0.9154 -0.3806
vn 0.0500 -0.7228 -0.6893
vn -0.0099 -0.6306 -0.7760
vn -0.0000 -0.0385 0.9993
vn 0.0425 -0.0309 0.9986
vn -0.0103 -0.0476 0.9988
vn 0.0017 -0.0401 0.9992
vn -0.0059 -0.0485 0.9988
vn -0.6065 -0.7948 0.0211
vn -0.0038 0.1301 -0.9915
vn -0.0015 -0.0655 -0.9979
vn -0.0257 -0.1490 -0.9885
vn -0.0023 -0.0699 -0.9976
vn -0.0049 -0.9696 -0.2447
vn -0.0928 -0.2384 -0.9667
vn -0.1415 -0.2373 -0.9611
vn -0.1409 -0.2354 -0.9616
vn -0.9879 0.0216 -0.1538
vn -0.0003 0.9996 -0.0283
vn -0.2876 -0.8907 -0.3521
vn -0.3126 -0.8993 -0.3059
vn -0.9939 0.1046 0.0351
vn -0.4685 0.1545 0.8699
vn -0.4001 0.1894 0.8967
vn -0.4151 0.2535 0.8737
vn -0.7457 0.6655 0.0337
vn -0.0001 -0.0098 1.0000
vn 0.0004 -0.0180 0.9998
vn -0.4004 0.1907 0.8963
vn -0.3965 0.1877 0.8986
vn -0.0001 -0.0598 0.9982
vn -0.0235 -0.1048 0.9942
vn -0.0048 -0.0754 0.9971
vn -0.0062 -0.0962 0.9953
s 0
f 13//1 9//1 7//1
f 7//2 12//2 13//2
f 6//3 11//3 30//3
f 15//4 12//4 8//4
f 5//5 2//5 4//5
f 21//6 14//6 8//6
f 29//7 24//7 34//7
f 13//8 20//8 10//8
f 14//9 21//9 11//9
f 23//10 8//10 14//10
f 11//11 6//11 1//11
f 3//12 7//12 9//12
f 8//13 7//13 3//13
f 16//14 25//14 26//14
f 34//15 24//15 33//15
f 17//16 26//16 18//16
f 17//17 18//17 13//17
f 17//18 32//18 27//18
f 18//19 26//19 25//19
f 18//20 25//20 19//20
f 21//21 30//21 11//21
f 13//22 10//22 9//22
f 28//23 24//23 29//23
f 9//24 4//24 3//24
f 31//25 33//25 22//25
f 28//26 16//26 27//26
f 10//27 20//27 16//27
f 19//28 20//28 13//28
f 31//29 34//29 33//29
f 17//30 13//30 12//30
f 22//31 14//31 11//31
f 5//32 1//32 2//32
f 8//6 3//6 6//6
f 1//6 3//6 2//6
f 1//6 6//6 3//6
f 6//6 30//6 8//6
f 30//6 21//6 8//6
f 26//33 27//33 16//33
f 31//34 29//34 34//34
f 23//35 14//35 22//35
f 33//36 23//36 22//36
f 1//37 5//37 11//37
f 5//38 16//38 28//38
f 29//39 5//39 28//39
f 29//40 31//40 5//40
f 31//41 11//41 5//41
f 26//42 17//42 27//42
f 8//43 12//43 7//43
f 15//44 8//44 23//44
f 24//45 15//45 33//45
f 23//46 33//46 15//46
f 11//47 31//47 22//47
f 24//48 32//48 15//48
f 32//49 17//49 15//49
f 17//50 12//50 15//50
f 18//51 19//51 13//51
f 4//52 2//52 3//52
f 32//53 24//53 28//53
f 28//54 27//54 32//54
f 25//55 20//55 19//55
f 25//56 16//56 20//56
f 16//57 5//57 10//57
f 5//58 4//58 10//58
f 10//59 4//59 9//59
f 5//60 16//60 1//60
f 16//61 6//61 1//61
f 10//62 20//62 5//62
f 20//63 16//63 5//63
f 30//6 21//6 6//6
f 21//6 14//6 6//6
f 14//6 8//6 6//6
f 16//64 11//64 6//64
f 28//65 29//65 16//65
f 29//66 11//66 16//66
f 29//67 31//67 11//67
