# Blender 4.0.0
# www.blender.org
o decimated_mesh
v 0.408497 -0.007255 -0.160616
v 0.413394 -0.007445 -0.147978
v 0.408567 -0.006477 -0.154487
v 0.413067 -0.007994 -0.158533
v 0.415692 -0.006157 -0.161434
v 0.416627 -0.006957 -0.158024
v 0.416858 -0.007107 -0.147978
v 0.410625 -0.005196 -0.147918
v 0.408569 -0.001408 -0.163538
v 0.412914 -0.001413 -0.163624
v 0.420048 -0.001564 -0.161764
v 0.425038 0.028877 -0.161937
v 0.419950 -0.002427 -0.147978
v 0.421872 0.026295 -0.163393
v 0.425321 0.028722 -0.147976
v 0.421569 0.028932 -0.147993
v 0.408372 0.029196 -0.161642
v 0.408569 0.026295 -0.163486
vn -0.3509 -0.9285 0.1220
vn 1.0000 0.0062 0.0037
vn 0.0971 -0.9941 0.0486
vn -0.1844 -0.9812 0.0567
vn 0.0785 -0.8728 -0.4817
vn 0.3058 -0.9048 -0.2963
vn -0.0196 0.0019 -0.9998
vn -0.9559 0.0527 0.2891
vn 0.2356 -0.2902 -0.9275
vn 0.6703 -0.6602 -0.3389
vn -0.0180 -0.4468 -0.8944
vn 0.0059 0.5369 -0.8436
vn -0.6982 0.2254 0.6795
vn 0.2501 -0.0728 -0.9655
vn 0.8340 -0.5511 -0.0274
vn -0.5912 -0.7364 0.3288
vn -0.9943 0.0002 -0.1067
vn 0.9998 -0.0170 -0.0093
vn 0.0079 -0.0051 1.0000
vn 0.0023 -0.0235 0.9997
vn 0.0043 -0.0007 -1.0000
vn -0.0064 -0.0001 -1.0000
vn 0.2822 -0.9591 -0.0208
vn 0.0070 0.0060 -1.0000
vn 0.0191 0.9998 0.0008
vn 0.0559 0.9984 0.0099
vn 0.9866 -0.1619 -0.0217
vn 0.9855 -0.1699 -0.0036
vn -0.0357 -0.4360 -0.8993
vn -0.0059 0.4966 -0.8679
vn 0.8351 -0.5494 -0.0285
vn 0.4709 -0.0822 -0.8784
vn -0.0047 0.5364 -0.8440
vn 0.9994 0.0044 0.0334
vn 0.9999 0.0031 -0.0119
vn 0.0042 -0.0035 -1.0000
vn 0.0061 0.4855 -0.8742
vn -0.0182 -0.4278 -0.9037
vn -0.0335 -0.4465 -0.8942
vn -0.0068 0.0012 -1.0000
s 0
f 1//1 2//1 3//1
f 3//2 9//2 17//2
f 4//3 7//3 2//3
f 1//4 4//4 2//4
f 4//5 1//5 5//5
f 4//6 5//6 6//6
f 18//7 10//7 9//7
f 3//8 8//8 17//8
f 5//9 10//9 11//9
f 5//10 11//10 6//10
f 10//11 1//11 9//11
f 17//12 14//12 18//12
f 16//13 17//13 8//13
f 14//14 11//14 10//14
f 13//15 7//15 6//15
f 2//16 8//16 3//16
f 18//17 9//17 17//17
f 9//18 3//18 1//18
f 7//19 13//19 8//19
f 7//20 8//20 2//20
f 13//21 16//21 15//21
f 16//22 13//22 8//22
f 6//23 7//23 4//23
f 18//24 14//24 10//24
f 17//25 16//25 12//25
f 16//26 15//26 12//26
f 12//27 15//27 11//27
f 15//28 13//28 11//28
f 10//29 5//29 1//29
f 17//30 12//30 14//30
f 11//31 13//31 6//31
f 11//32 14//32 12//32
f 12//33 18//33 17//33
f 9//34 17//34 1//34
f 1//35 17//35 3//35
f 8//36 16//36 15//36
f 14//37 18//37 12//37
f 10//38 5//38 9//38
f 5//39 1//39 9//39
f 13//40 8//40 15//40
