# Blender 4.0.0
# www.blender.org
o decimated_mesh
v 0.413271 -0.007925 0.158684
v 0.417011 -0.006776 0.157601
v 0.408494 -0.006931 0.161144
v 0.413394 -0.007445 -0.147978
v 0.416870 -0.007115 -0.147978
v 0.420074 -0.001493 0.161760
v 0.415655 -0.006149 0.161458
v 0.410540 -0.005013 -0.147983
v 0.419907 -0.002493 -0.147978
v 0.425007 0.028856 0.161957
v 0.413174 -0.000957 0.163665
v 0.408505 0.028624 0.162824
v 0.425323 0.028718 -0.147978
v 0.421455 0.028826 -0.147977
v 0.421872 0.026295 0.163365
v 0.408569 0.000854 0.163792
vn 0.3533 -0.8957 0.2698
vn 0.0732 -0.8673 0.4924
vn 0.6703 -0.6583 0.3425
vn 0.2348 -0.2832 0.9299
vn 0.2603 -0.0725 0.9628
vn -0.9510 0.3067 -0.0394
vn -0.6485 -0.7611 -0.0090
vn -0.9995 -0.0012 0.0318
vn 0.0408 0.4425 0.8959
vn 0.0413 0.0349 0.9985
vn -0.0997 -0.3195 0.9423
vn 0.8357 -0.5492 0.0002
vn 0.0006 -0.0000 -1.0000
vn -0.0003 -0.0000 -1.0000
vn 0.0007 -0.0005 -1.0000
vn 0.0002 -0.0021 -1.0000
vn 0.0947 -0.9955 -0.0015
vn -0.2045 -0.9789 -0.0016
vn 0.0023 -0.3904 0.9207
vn 0.9853 -0.1710 -0.0000
vn 0.9870 -0.1604 0.0011
vn -1.0000 0.0006 -0.0066
vn 0.0279 0.9996 -0.0004
vn -0.0140 0.9999 0.0001
vn 0.4626 -0.0809 0.8829
vn -0.0365 0.0227 0.9991
vn 0.2939 -0.9558 0.0009
vn 0.8647 -0.5024 0.0012
vn -0.0003 0.0003 -1.0000
vn 0.0006 -0.0001 -1.0000
vn 0.0284 0.0020 0.9996
vn -0.0344 0.0347 0.9988
s 0
f 1//1 2//1 7//1
f 1//2 7//2 3//2
f 2//3 6//3 7//3
f 7//4 6//4 11//4
f 15//5 11//5 6//5
f 8//6 12//6 14//6
f 8//7 4//7 3//7
f 3//8 16//8 12//8
f 12//9 15//9 10//9
f 11//10 12//10 16//10
f 11//11 16//11 3//11
f 9//12 2//12 5//12
f 8//13 14//13 9//13
f 13//14 9//14 14//14
f 9//15 5//15 8//15
f 5//16 4//16 8//16
f 5//17 1//17 4//17
f 3//18 4//18 1//18
f 7//19 11//19 3//19
f 9//20 13//20 6//20
f 13//21 10//21 6//21
f 12//22 8//22 3//22
f 13//23 14//23 10//23
f 14//24 12//24 10//24
f 10//25 15//25 6//25
f 11//26 15//26 12//26
f 1//27 5//27 2//27
f 9//28 6//28 2//28
f 14//29 13//29 8//29
f 13//30 9//30 8//30
f 15//31 16//31 11//31
f 15//32 12//32 16//32
