# Blender 4.0.0
# www.blender.org
o decimated_mesh
v 0.408569 0.028919 -0.160421
v 0.408569 0.028965 -0.162171
v 0.408569 -0.003683 -0.154225
v 0.012167 0.028842 -0.161979
v 0.408569 0.026290 -0.163486
v 0.012037 0.028783 -0.160766
v 0.014804 0.026290 -0.159594
v 0.019054 -0.011867 -0.155339
v 0.014804 0.026290 -0.163475
v 0.007674 0.023855 -0.161312
v -0.000619 -0.001472 -0.156361
v 0.002093 -0.003388 -0.155749
v 0.408569 -0.006658 -0.155061
v 0.111687 -0.028355 -0.156280
v 0.408569 -0.001635 -0.163572
v 0.010553 0.022054 -0.163332
v -0.000149 0.007322 -0.161336
v -0.001209 -0.002455 -0.158842
v -0.000216 -0.005647 -0.156640
v 0.106044 -0.030422 -0.158039
v 0.019025 -0.017868 -0.156906
v 0.032914 -0.022164 -0.156436
v 0.073223 -0.027826 -0.156347
v 0.001407 0.001690 -0.163214
v -0.000875 0.000848 -0.162107
v -0.000271 -0.005484 -0.161230
v 0.016820 -0.018534 -0.161180
v 0.408569 -0.007507 -0.159021
v 0.112018 -0.031266 -0.161263
v 0.028839 -0.022745 -0.161294
v 0.057266 -0.026637 -0.156898
v 0.076259 -0.031006 -0.161043
v 0.046731 -0.026907 -0.161264
v 0.408569 -0.006310 -0.161516
vn -0.1694 -0.2256 -0.9594
vn -0.2025 0.2236 0.9534
vn -0.1008 0.1702 0.9802
vn -0.2798 -0.0910 0.9557
vn 0.0765 -0.9749 0.2089
vn -0.7515 0.3548 0.5562
vn -0.0000 -0.0385 -0.9993
vn -0.6067 -0.7947 -0.0209
vn -0.0003 0.9997 0.0263
vn -0.0037 0.0409 0.9992
vn 0.0753 -0.8992 -0.4310
vn -0.0006 0.5053 -0.8629
vn 0.0691 -0.9262 0.3707
vn -0.9668 -0.1231 -0.2238
vn -0.9550 -0.2966 0.0009
vn -0.9561 -0.1105 0.2713
vn -0.4930 -0.7844 0.3765
vn -0.1451 -0.2493 0.9575
vn -0.4569 0.3124 0.8329
vn -0.9736 0.1496 0.1724
vn -0.3976 0.1895 -0.8978
vn -0.9939 0.1102 0.0096
vn -0.3816 -0.1623 -0.9100
vn -0.0036 0.1300 0.9915
vn -0.0009 0.4247 0.9053
vn 0.0331 -0.4023 -0.9149
vn -0.2818 0.2516 -0.9259
vn -0.0813 -0.8489 0.5223
vn -0.7452 0.6651 -0.0475
vn 1.0000 -0.0000 -0.0000
vn -0.0637 -0.4392 0.8961
vn -0.0027 -0.0722 0.9974
vn -0.0210 -0.1338 0.9908
vn -0.0015 -0.0653 0.9979
vn -0.0056 -0.9698 0.2438
vn -0.1553 -0.8896 0.4295
vn -0.1304 -0.9193 0.3713
vn -0.0081 0.0031 -1.0000
vn -0.0065 -0.0494 -0.9988
vn 0.0019 -0.0404 -0.9992
vn -0.0093 -0.0471 -0.9988
vn 0.0407 -0.0328 -0.9986
vn 0.0500 -0.7230 0.6890
vn -0.0100 -0.6321 0.7748
vn -0.0004 0.9988 0.0487
vn -0.2170 -0.9310 0.2934
vn -0.0000 0.4413 -0.8973
vn -0.1100 -0.2506 0.9618
vn -0.1409 -0.2353 0.9617
vn -0.0603 -0.1453 -0.9876
vn -0.4318 0.2740 -0.8594
vn -0.4720 0.2070 -0.8570
vn -0.4773 0.1564 -0.8647
vn 0.0008 0.1867 0.9824
vn -0.0383 -0.8387 0.5432
vn 0.0158 -0.2705 0.9626
vn -0.3128 -0.9007 0.3016
vn -0.2878 -0.8922 0.3481
vn -0.0501 0.0167 -0.9986
vn 1.0000 -0.0000 -0.0001
vn -0.0000 0.0031 -1.0000
vn -0.0010 -0.0101 -0.9999
vn -0.0014 -0.0638 -0.9980
vn -0.4165 0.1819 -0.8907
vn -0.0051 -0.0760 -0.9971
vn -0.0223 -0.1032 -0.9944
vn -0.4640 0.2208 -0.8579
vn -0.0069 -0.1029 -0.9947
s 0
f 26//1 24//1 27//1
f 11//2 7//2 6//2
f 7//3 11//3 12//3
f 19//4 12//4 11//4
f 29//5 28//5 13//5
f 11//6 10//6 17//6
f 9//7 5//7 29//7
f 26//8 27//8 19//8
f 1//9 2//9 4//9
f 12//10 8//10 3//10
f 29//11 34//11 28//11
f 2//12 9//12 4//12
f 20//13 29//13 13//13
f 18//14 25//14 26//14
f 18//15 26//15 19//15
f 18//16 19//16 11//16
f 19//17 27//17 21//17
f 19//18 21//18 8//18
f 10//19 11//19 6//19
f 17//20 18//20 11//20
f 17//21 10//21 24//21
f 17//22 25//22 18//22
f 24//23 26//23 25//23
f 3//24 7//24 12//24
f 7//25 1//25 6//25
f 29//26 15//26 34//26
f 4//27 9//27 16//27
f 31//28 32//28 23//28
f 10//29 6//29 4//29
f 3//30 13//30 28//30
f 28//30 34//30 3//30
f 34//30 15//30 3//30
f 15//30 5//30 1//30
f 3//30 15//30 1//30
f 5//30 2//30 1//30
f 31//31 23//31 22//31
f 23//32 14//32 8//32
f 22//33 23//33 8//33
f 8//34 14//34 3//34
f 32//35 29//35 20//35
f 31//36 22//36 33//36
f 33//37 32//37 31//37
f 5//38 15//38 29//38
f 29//39 32//39 9//39
f 32//40 33//40 9//40
f 33//41 30//41 9//41
f 30//42 24//42 9//42
f 20//43 13//43 14//43
f 14//44 23//44 20//44
f 6//45 1//45 4//45
f 30//46 33//46 22//46
f 2//47 5//47 9//47
f 21//48 22//48 8//48
f 8//49 12//49 19//49
f 30//50 27//50 24//50
f 4//51 16//51 10//51
f 16//52 24//52 10//52
f 24//53 25//53 17//53
f 3//54 1//54 7//54
f 32//55 20//55 23//55
f 14//56 13//56 3//56
f 27//57 30//57 21//57
f 30//58 22//58 21//58
f 16//59 9//59 24//59
f 3//30 13//30 1//30
f 13//30 28//30 1//30
f 28//30 34//30 1//30
f 34//60 15//60 1//60
f 15//61 9//61 5//61
f 15//62 24//62 9//62
f 29//63 24//63 15//63
f 17//64 16//64 24//64
f 29//65 33//65 24//65
f 33//66 30//66 24//66
f 17//67 10//67 16//67
f 32//68 33//68 29//68
