# Blender 4.0.0
# www.blender.org
o decimated_mesh
v -0.016322 -0.323187 0.060377
v -0.019556 -0.322677 0.064737
v -0.019280 -0.229324 0.063195
v -0.017169 -0.271792 0.060245
v -0.018007 -0.318573 0.070611
v -0.018878 -0.229324 0.069160
v -0.014375 -0.229325 0.060503
v -0.008627 -0.325330 0.060250
v -0.009696 -0.322565 0.078203
v -0.006070 -0.325513 0.071513
v 0.034896 -0.229324 0.060314
v 0.019675 -0.325291 0.072552
v 0.000437 -0.323603 0.079872
v -0.002189 -0.318573 0.081579
v -0.011152 -0.229324 0.078021
v 0.028410 -0.325099 0.060279
v 0.028731 -0.323201 0.071866
v 0.007367 -0.318523 0.082323
v -0.002189 -0.229324 0.081303
v 0.034357 -0.322622 0.060323
v 0.033495 -0.229324 0.067101
v 0.033576 -0.322131 0.066568
v 0.020422 -0.322515 0.079231
v 0.027072 -0.318500 0.075478
v 0.013469 -0.229324 0.081549
v 0.026314 -0.229324 0.076369
vn -0.0001 -1.0000 -0.0000
vn -0.0056 -0.0042 1.0000
vn 0.8079 0.0010 0.5893
vn 0.0062 -0.9999 -0.0112
vn -0.7062 -0.4792 0.5211
vn 0.3740 0.0048 0.9274
vn 0.3811 -0.9168 0.1197
vn -0.1887 -0.4026 0.8957
vn 0.0547 -0.4935 0.8680
vn -0.8527 -0.0061 -0.5223
vn -0.0157 0.0031 0.9999
vn 0.9794 -0.0003 0.2021
vn -0.2674 -0.9625 0.0451
vn -0.9660 -0.0052 0.2583
vn -0.6768 -0.0091 0.7361
vn 0.0624 -0.9241 0.3771
vn -0.4114 0.0028 0.9115
vn -0.3122 -0.9202 0.2362
vn -0.4808 0.0369 -0.8761
vn -0.0000 -1.0000 -0.0000
vn -0.0000 1.0000 -0.0000
vn -0.0038 0.0063 -1.0000
vn -0.0014 0.0001 1.0000
vn -0.0004 -0.0606 0.9982
vn 0.0023 0.0026 1.0000
vn 0.4935 -0.0045 0.8697
vn 0.7413 -0.2244 0.6326
vn 0.7905 -0.0028 0.6125
vn 0.0094 -0.9998 -0.0183
vn 0.2331 -0.9607 0.1509
vn -0.1497 -0.9322 0.3296
vn 0.3583 -0.9228 0.1413
vn -0.8040 -0.0148 -0.5945
vn -0.0777 0.0140 0.9969
vn 0.9922 -0.0057 0.1244
vn -0.1922 -0.9810 -0.0280
vn -0.0708 -0.3536 0.9327
vn 0.2357 -0.9065 0.3503
vn -0.7537 0.0033 0.6572
vn -0.9977 0.0041 0.0672
vn 0.2284 -0.0072 0.9735
vn -0.0006 -0.9748 0.2232
vn 0.6088 -0.3370 0.7182
vn -0.3438 -0.0035 0.9390
vn -0.2687 -0.9593 -0.0872
vn -0.2223 -0.9744 0.0347
vn 0.0173 0.0029 0.9998
vn 0.0063 -0.9998 -0.0176
vn -0.0008 -0.0000 1.0000
vn 0.0090 -0.9999 -0.0092
vn -0.4081 -0.0046 0.9129
vn -0.0000 -1.0000 0.0001
vn -0.0011 -0.0003 1.0000
vn -0.0074 0.0001 1.0000
vn -0.0777 0.0031 0.9970
vn -0.3438 0.0029 0.9390
vn -0.0157 0.0097 0.9998
vn 0.8072 -0.0027 0.5903
vn 0.7905 0.0006 0.6125
s 0
f 7//1 6//1 3//1
f 20//2 4//2 16//2
f 22//3 26//3 24//3
f 8//4 16//4 12//4
f 2//5 9//5 5//5
f 25//6 23//6 26//6
f 22//7 16//7 20//7
f 9//8 13//8 14//8
f 18//9 13//9 23//9
f 4//10 2//10 3//10
f 14//11 25//11 19//11
f 11//12 21//12 22//12
f 1//13 8//13 10//13
f 6//14 2//14 5//14
f 15//15 5//15 9//15
f 12//16 23//16 13//16
f 19//17 9//17 14//17
f 10//18 9//18 2//18
f 4//19 3//19 7//19
f 6//20 7//20 15//20
f 15//20 7//20 19//20
f 19//20 7//20 25//20
f 7//21 25//21 11//21
f 26//20 11//20 21//20
f 11//20 26//20 25//20
f 4//22 7//22 11//22
f 11//23 4//23 20//23
f 16//24 1//24 8//24
f 1//25 16//25 4//25
f 23//26 24//26 26//26
f 22//27 24//27 17//27
f 22//28 21//28 26//28
f 12//29 10//29 8//29
f 16//30 17//30 12//30
f 10//31 13//31 9//31
f 22//32 17//32 16//32
f 4//33 1//33 2//33
f 14//34 18//34 25//34
f 20//35 11//35 22//35
f 10//36 2//36 1//36
f 13//37 18//37 14//37
f 12//38 17//38 23//38
f 15//39 6//39 5//39
f 2//40 6//40 3//40
f 25//41 18//41 23//41
f 10//42 12//42 13//42
f 24//43 23//43 17//43
f 19//44 15//44 9//44
f 1//45 8//45 2//45
f 8//46 10//46 2//46
f 4//47 1//47 8//47
f 16//48 10//48 8//48
f 4//49 8//49 16//49
f 16//50 12//50 10//50
f 14//51 15//51 9//51
f 15//20 6//20 25//20
f 25//20 6//20 3//20
f 25//52 3//52 7//52
f 11//53 4//53 16//53
f 11//54 16//54 20//54
f 18//55 19//55 14//55
f 19//56 15//56 14//56
f 19//20 15//20 25//20
f 26//20 25//20 21//20
f 21//20 25//20 11//20
f 19//57 18//57 25//57
f 21//58 24//58 22//58
f 24//59 21//59 26//59
