# Blender 4.0.0
# www.blender.org
o decimated_mesh
v 0.018824 0.325318 0.042697
v -0.013331 0.324237 0.042715
v 0.026320 0.321868 0.042700
v 0.010678 0.325350 0.003495
v -0.008628 0.325155 0.003495
v -0.013932 0.323101 -0.000592
v -0.017113 0.318812 0.003803
v 0.020547 0.322683 0.012294
v 0.015314 0.323082 -0.001986
v -0.015867 0.318587 0.042711
v -0.016341 0.268869 0.004124
v 0.018644 0.318587 0.003495
v -0.012522 0.263808 -0.000029
v -0.015071 0.268874 0.042712
v 0.019353 0.270480 0.006361
v 0.015324 0.268475 -0.001933
v -0.012399 0.263601 0.042711
v 0.014546 0.263964 -0.000462
v 0.026180 0.267969 0.042713
v 0.020414 0.263745 0.019122
v 0.021818 0.263570 0.042711
vn -0.0000 -0.0004 1.0000
vn -0.0183 0.9184 -0.3953
vn 0.8995 -0.0002 -0.4369
vn -0.0135 -0.3080 -0.9513
vn -0.9118 0.4094 0.0316
vn 0.9828 -0.0026 -0.1847
vn 0.9051 0.2755 -0.3240
vn -0.8024 -0.0162 -0.5965
vn -0.7984 -0.6021 -0.0006
vn 0.3407 0.9350 -0.0987
vn -0.8916 -0.4519 0.0294
vn 0.8896 -0.2729 -0.3662
vn -0.3479 0.9373 -0.0198
vn -0.9993 -0.0160 0.0329
vn 0.9563 -0.2182 -0.1947
vn 0.8880 -0.3721 -0.2702
vn -0.0009 1.0000 0.0049
vn 0.0003 -0.0000 1.0000
vn 0.0002 0.0012 1.0000
vn -0.0000 -0.0000 1.0000
vn -0.0000 0.0003 1.0000
vn 0.0006 -0.0009 1.0000
vn -0.0090 0.8981 -0.4397
vn 0.8474 -0.0191 -0.5306
vn 0.7093 -0.7033 -0.0474
vn -0.8054 0.5927 -0.0044
vn 0.9772 0.0018 -0.2122
vn 0.9824 -0.0013 -0.1865
vn -0.7503 -0.0241 -0.6607
vn 0.3134 0.9474 -0.0643
vn 0.4175 0.9070 -0.0549
vn -0.0101 0.9999 0.0029
vn -0.0336 0.9992 0.0194
vn -0.9994 -0.0152 0.0319
vn -0.0664 -0.0111 -0.9977
vn -0.0476 -0.0010 -0.9989
vn 0.0009 1.0000 0.0074
vn 0.0056 -0.9999 -0.0129
vn -0.0015 -0.0000 1.0000
vn -0.0000 -0.0001 1.0000
vn -0.0002 -0.0002 1.0000
vn 0.0004 0.0003 1.0000
vn 0.0005 0.0019 1.0000
vn -0.0199 0.9034 -0.4284
vn 0.0009 1.0000 0.0049
vn -0.0025 1.0000 0.0076
vn -0.0093 0.9212 -0.3889
vn 0.8545 -0.0003 -0.5195
vn 0.9006 -0.0126 -0.4344
s 0
f 21//1 19//1 14//1
f 4//2 9//2 6//2
f 9//3 15//3 16//3
f 13//4 16//4 18//4
f 7//5 10//5 2//5
f 3//6 19//6 15//6
f 8//7 12//7 9//7
f 6//8 11//8 7//8
f 11//9 13//9 17//9
f 8//10 9//10 4//10
f 11//11 17//11 14//11
f 15//12 18//12 16//12
f 2//13 5//13 6//13
f 10//14 11//14 14//14
f 19//15 20//15 15//15
f 20//16 18//16 15//16
f 17//17 20//17 13//17
f 10//18 14//18 3//18
f 1//19 10//19 3//19
f 17//20 21//20 14//20
f 19//21 3//21 14//21
f 1//22 2//22 10//22
f 5//23 4//23 6//23
f 9//24 12//24 15//24
f 19//25 21//25 20//25
f 7//26 2//26 6//26
f 15//27 12//27 8//27
f 8//28 3//28 15//28
f 6//29 13//29 11//29
f 4//30 1//30 8//30
f 1//31 3//31 8//31
f 1//32 4//32 5//32
f 5//33 2//33 1//33
f 10//34 7//34 11//34
f 13//35 6//35 16//35
f 9//36 16//36 6//36
f 20//37 17//37 21//37
f 13//38 18//38 20//38
f 10//39 14//39 2//39
f 14//40 17//40 2//40
f 17//40 21//40 2//40
f 21//41 19//41 2//41
f 19//42 3//42 2//42
f 3//43 1//43 2//43
f 5//44 9//44 6//44
f 13//45 17//45 21//45
f 13//46 21//46 20//46
f 4//47 9//47 5//47
f 12//48 16//48 9//48
f 12//49 15//49 16//49
