# Blender 4.0.0
# www.blender.org
o decimated_mesh
v -0.017215 -0.318573 0.060248
v -0.015751 -0.318573 0.046809
v -0.013095 -0.324258 0.046802
v -0.014226 -0.324479 0.060241
v -0.016860 -0.266524 0.060248
v -0.011852 -0.229324 0.060248
v 0.020866 -0.325065 0.046807
v 0.034715 -0.229324 0.060248
v -0.014996 -0.269202 0.046720
v 0.033679 -0.229285 0.055978
v 0.034605 -0.323330 0.060057
v 0.027676 -0.267371 0.046811
v 0.027593 -0.322424 0.046809
vn -0.0021 0.0002 1.0000
vn -0.9029 -0.4218 -0.0830
vn -0.9782 0.1317 -0.1608
vn -0.9904 0.0068 -0.1378
vn -0.0885 0.3263 -0.9411
vn 0.0238 -0.9941 0.1055
vn 0.3541 -0.9014 -0.2491
vn 0.8838 -0.0013 -0.4679
vn -0.0080 0.2352 -0.9719
vn -0.0000 1.0000 0.0091
vn -0.0004 -0.0000 1.0000
vn -0.0002 -0.0012 1.0000
vn 0.0004 0.0018 1.0000
vn -0.8881 -0.4493 -0.0968
vn -0.9940 0.0150 -0.1083
vn 0.0038 0.0007 1.0000
vn 0.0037 -0.0000 1.0000
vn 0.0015 -0.0020 1.0000
vn -0.0000 -0.0000 1.0000
vn -0.0238 -0.9995 -0.0185
vn 0.9718 -0.0007 -0.2358
vn 0.8614 -0.0135 -0.5078
vn -0.8893 -0.4499 -0.0823
vn 0.0011 -0.0006 1.0000
vn -0.9941 0.0068 -0.1083
vn -0.9017 -0.4212 -0.0982
vn 0.0062 0.0017 1.0000
vn -0.0001 0.0015 1.0000
vn 0.0038 -0.0020 1.0000
vn -0.9901 0.0149 -0.1393
vn -0.0008 0.0010 1.0000
vn -0.0021 -0.0000 1.0000
vn 0.8835 -0.0116 -0.4684
vn 0.8390 -0.0012 -0.5442
s 0
f 12//1 9//1 7//1
f 4//2 2//2 3//2
f 9//3 5//3 6//3
f 9//4 1//4 5//4
f 9//5 6//5 10//5
f 4//6 7//6 11//6
f 7//7 13//7 11//7
f 12//8 11//8 13//8
f 12//9 9//9 10//9
f 10//10 6//10 8//10
f 12//11 7//11 13//11
f 7//12 2//12 3//12
f 2//13 7//13 9//13
f 4//14 1//14 2//14
f 9//15 2//15 1//15
f 4//16 11//16 1//16
f 1//17 11//17 5//17
f 11//18 8//18 5//18
f 8//19 6//19 5//19
f 4//20 3//20 7//20
f 10//21 8//21 11//21
f 12//22 10//22 11//22
f 3//23 4//23 1//23
f 4//24 8//24 1//24
f 8//19 5//19 1//19
f 5//25 2//25 1//25
f 2//26 3//26 1//26
f 2//27 3//27 9//27
f 9//28 3//28 7//28
f 11//29 8//29 4//29
f 9//30 2//30 5//30
f 9//31 7//31 13//31
f 12//32 9//32 13//32
f 13//33 10//33 11//33
f 13//34 12//34 10//34
