# Blender 4.0.0
# www.blender.org
o decimated_mesh
v 0.083944 0.087680 0.038125
v 0.093071 0.087627 -0.000014
v 0.085278 0.087661 0.036680
v 0.090967 0.087742 0.017964
v 0.091302 0.087318 -0.000015
v 0.082301 0.087106 0.038124
v 0.092279 0.087026 0.019185
v 0.094402 0.086880 -0.000002
v 0.086346 0.086793 0.038081
v 0.087709 0.087001 0.034122
v 0.094805 0.085201 -0.000013
v 0.090273 0.086119 -0.000015
v 0.081523 0.085754 0.038124
v 0.092829 0.085862 0.018544
v 0.093998 0.084922 0.009647
v 0.086762 0.083733 0.038109
v 0.088874 0.084806 0.032694
v 0.093110 0.083872 0.017856
v 0.082990 0.042500 -0.000015
v 0.073366 0.042500 0.038124
v 0.093206 0.063283 -0.000009
v 0.088322 0.042500 -0.000004
v 0.079353 0.042500 0.038124
v 0.091438 0.063202 0.017856
v 0.086378 0.062719 0.034863
v 0.084555 0.061483 0.038124
v 0.086584 0.042500 0.017408
v 0.081915 0.042500 0.032890
vn -0.0000 1.0000 -0.0000
vn 0.0030 0.0004 1.0000
vn 0.3355 0.8937 0.2979
vn -0.3290 0.9415 -0.0724
vn 0.4446 0.8945 0.0463
vn 0.9340 -0.0711 0.3501
vn -0.8507 0.4899 -0.1905
vn 0.9880 0.0984 0.1194
vn 0.8833 -0.0873 0.4607
vn 0.9538 -0.1799 0.2407
vn 0.9687 0.2322 0.0877
vn 0.8721 -0.2390 0.4269
vn 0.9311 -0.2329 0.2808
vn 0.9186 0.2812 0.2778
vn -0.1719 0.9842 -0.0425
vn -0.7475 0.6414 -0.1728
vn 0.9941 -0.0725 0.0810
vn 0.0145 0.0099 -0.9998
vn 0.9686 -0.2292 0.0966
vn 0.9614 0.0419 0.2719
vn 0.0068 0.0102 0.9999
vn -0.0007 0.0004 1.0000
vn 0.0125 -0.0162 0.9998
vn -0.0000 -0.0000 1.0000
vn 0.3738 0.9200 0.1176
vn 0.3869 0.9143 0.1200
vn 0.9574 -0.0775 0.2782
vn 0.9560 -0.0803 0.2821
vn 0.4888 0.8711 0.0474
vn 0.0279 0.9995 0.0128
vn -0.0408 0.9991 -0.0111
vn 0.9623 -0.1607 0.2192
vn 0.9196 0.3802 0.0988
vn 0.9559 0.2773 0.0963
vn 0.8837 -0.2346 0.4051
vn 0.9356 -0.2252 0.2720
vn 0.9114 0.3021 0.2794
vn 0.9063 0.2690 0.3260
vn 0.9152 0.1279 0.3822
vn 0.9920 -0.0803 0.0970
vn 0.9920 -0.0800 0.0978
vn 0.0005 -0.0002 -1.0000
vn 0.0021 -0.0007 -1.0000
vn 0.0009 -0.0001 -1.0000
vn 0.0004 -0.0004 -1.0000
vn 0.0006 -0.0001 -1.0000
vn 0.9691 -0.2277 0.0949
vn 0.4469 0.8721 0.1995
vn -0.0005 0.0001 1.0000
vn 0.0001 -0.0000 1.0000
vn 0.0057 0.0001 1.0000
vn 0.0230 0.0124 0.9997
vn -0.0000 -0.0000 -1.0000
vn 0.9590 -0.1808 0.2183
vn 0.9571 -0.1598 0.2415
vn 0.0011 -0.0002 -1.0000
vn 0.9921 -0.0796 0.0971
vn 0.9920 -0.0803 0.0978
s 0
f 22//1 19//1 27//1
f 26//2 16//2 13//2
f 1//3 9//3 3//3
f 1//4 5//4 6//4
f 7//5 2//5 4//5
f 17//6 16//6 25//6
f 6//7 12//7 13//7
f 14//8 18//8 15//8
f 25//9 16//9 26//9
f 13//10 20//10 19//10
f 8//11 15//11 11//11
f 26//12 23//12 28//12
f 27//13 25//13 28//13
f 17//14 14//14 7//14
f 5//15 1//15 2//15
f 12//16 6//16 5//16
f 21//17 11//17 15//17
f 2//18 8//18 11//18
f 22//19 24//19 27//19
f 17//20 18//20 14//20
f 27//1 20//1 28//1
f 28//1 20//1 23//1
f 20//1 27//1 19//1
f 16//21 9//21 13//21
f 1//22 6//22 13//22
f 9//23 1//23 13//23
f 13//24 20//24 26//24
f 20//24 23//24 26//24
f 4//25 3//25 10//25
f 7//26 4//26 10//26
f 24//27 18//27 17//27
f 25//28 24//28 17//28
f 7//29 8//29 2//29
f 3//30 4//30 1//30
f 4//31 2//31 1//31
f 13//32 19//32 12//32
f 14//33 8//33 7//33
f 8//34 14//34 15//34
f 28//35 25//35 26//35
f 27//36 24//36 25//36
f 7//37 10//37 17//37
f 10//38 9//38 17//38
f 16//39 17//39 9//39
f 18//40 24//40 15//40
f 24//41 21//41 15//41
f 11//42 21//42 12//42
f 21//43 22//43 19//43
f 19//44 12//44 21//44
f 12//45 5//45 11//45
f 5//46 2//46 11//46
f 22//47 21//47 24//47
f 9//48 10//48 3//48
f 13//49 20//49 1//49
f 20//24 23//24 1//24
f 23//50 26//50 1//50
f 26//51 16//51 1//51
f 16//52 9//52 1//52
f 11//46 19//46 5//46
f 19//53 12//53 5//53
f 12//54 13//54 20//54
f 19//1 20//1 22//1
f 22//1 20//1 23//1
f 12//55 20//55 19//55
f 22//1 23//1 28//1
f 21//56 19//56 11//56
f 27//1 22//1 28//1
f 18//57 21//57 15//57
f 18//58 24//58 21//58
