# Blender 4.0.0
# www.blender.org
o decimated_mesh
v -0.030953 0.008587 0.040372
v -0.033166 0.028664 0.066085
v -0.033166 0.028664 0.072978
v -0.033177 0.019180 0.065749
v -0.033166 0.008587 0.050064
v -0.050585 0.008587 0.000022
v -0.074172 0.028664 0.000022
v -0.060051 0.008587 0.000022
v -0.080361 0.028664 0.000022
v -0.041441 0.019468 0.061614
v -0.044157 0.028664 0.067064
v -0.074383 0.019675 0.000023
v -0.056739 0.028664 0.056873
v -0.042230 0.008587 0.042714
v -0.052561 0.019472 0.052434
v -0.056298 0.008578 0.022506
v -0.072906 0.019546 0.014308
v -0.061485 0.019372 0.041431
v -0.077648 0.028658 0.021756
v -0.068597 0.019346 0.028084
v -0.066885 0.028664 0.044517
vn 0.9940 0.1096 -0.0000
vn -0.6457 -0.5508 0.5288
vn 0.6013 0.7065 -0.3733
vn 0.0006 -1.0000 -0.0003
vn -0.2951 -0.7919 0.5346
vn -0.7717 -0.5919 0.2328
vn -0.7792 -0.5069 0.3686
vn -0.0000 1.0000 -0.0000
vn -0.6017 -0.7789 0.1769
vn 0.9869 -0.0985 0.1276
vn -0.5286 -0.5429 0.6526
vn -0.4776 -0.8131 0.3328
vn -0.0000 -0.0000 1.0000
vn 0.9262 -0.3121 0.2115
vn 0.7507 0.5505 -0.3652
vn -0.3935 -0.5570 0.7314
vn -0.6457 -0.5495 0.5302
vn -0.0001 1.0000 -0.0004
vn -0.0000 -1.0000 -0.0004
vn -0.8543 -0.5130 0.0837
vn -0.8282 -0.5508 0.1032
vn -0.5503 -0.7812 0.2947
vn -0.6109 -0.7897 0.0560
vn -0.5813 -0.8079 0.0967
vn -0.7331 -0.5561 0.3917
vn -0.0000 1.0000 0.0003
vn -0.0009 1.0000 0.0002
vn -0.5310 -0.5519 0.6430
vn -0.4699 -0.7927 0.3883
vn 0.0001 0.0001 1.0000
vn -0.0000 0.0001 1.0000
vn -0.3896 -0.7910 0.4717
vn -0.3834 -0.7934 0.4728
vn -0.3885 -0.5520 0.7378
vn -0.0003 1.0000 -0.0001
vn 0.0009 1.0000 -0.0011
vn -0.3951 -0.5519 0.7343
vn -0.3867 -0.5587 0.7337
vn -0.8299 -0.5520 0.0808
vn -0.8443 -0.5255 0.1052
vn 0.0002 0.0003 1.0000
vn -0.0017 1.0000 0.0005
s 0
f 1//1 2//1 3//1
f 15//2 21//2 18//2
f 2//3 6//3 7//3
f 6//4 1//4 16//4
f 10//5 5//5 4//5
f 19//6 17//6 20//6
f 20//7 21//7 19//7
f 13//8 11//8 2//8
f 20//9 17//9 16//9
f 3//10 4//10 1//10
f 10//11 11//11 13//11
f 18//12 16//12 14//12
f 7//13 8//13 6//13
f 4//14 5//14 1//14
f 6//15 2//15 1//15
f 4//16 3//16 11//16
f 13//17 21//17 15//17
f 5//8 1//8 14//8
f 14//18 1//18 16//18
f 16//19 8//19 6//19
f 12//20 17//20 19//20
f 19//21 9//21 12//21
f 18//22 20//22 16//22
f 17//23 12//23 8//23
f 8//24 16//24 17//24
f 20//25 18//25 21//25
f 11//8 3//8 2//8
f 2//8 7//8 21//8
f 9//26 19//26 7//26
f 19//27 21//27 7//27
f 21//8 13//8 2//8
f 15//28 10//28 13//28
f 14//29 15//29 18//29
f 8//30 7//30 12//30
f 12//31 7//31 9//31
f 10//32 15//32 14//32
f 14//33 5//33 10//33
f 11//34 10//34 4//34
f 5//35 1//35 16//35
f 5//36 16//36 14//36
f 8//13 6//13 9//13
f 9//13 6//13 7//13
f 7//8 11//8 3//8
f 7//8 3//8 2//8
f 11//37 10//37 3//37
f 10//38 4//38 3//38
f 9//39 12//39 17//39
f 19//40 9//40 17//40
f 12//41 8//41 9//41
f 19//42 21//42 9//42
f 21//8 7//8 9//8
f 21//8 11//8 7//8
f 21//8 13//8 11//8
