# Blender 4.0.0
# www.blender.org
o decimated_mesh
v -0.000027 0.024897 -0.077869
v -0.000024 0.019766 -0.074474
v -0.000022 0.024897 -0.071718
v -0.014749 0.019457 -0.072745
v -0.000022 0.008556 -0.050466
v -0.064085 0.024897 -0.031737
v -0.015015 0.024896 -0.076428
v -0.042826 0.008556 -0.027004
v -0.000091 0.008544 -0.060581
v -0.071013 0.024897 -0.031741
v -0.066720 0.019361 -0.031732
v -0.050906 0.008552 -0.031788
v -0.028345 0.019329 -0.068443
v -0.029863 0.024897 -0.071917
v -0.061705 0.019426 -0.041233
v -0.027604 0.008553 -0.053608
v -0.064391 0.024897 -0.043767
v -0.041093 0.019181 -0.061480
v -0.043203 0.024897 -0.064808
v -0.052489 0.019467 -0.052493
v -0.055068 0.024897 -0.055065
v -0.042458 0.008556 -0.042468
vn -0.9999 0.0089 0.0068
vn 0.3556 0.7409 0.5697
vn -0.0000 1.0000 -0.0000
vn 0.3610 0.6603 0.6585
vn -0.0005 0.2776 0.9607
vn -0.7333 -0.5470 -0.4038
vn -0.0001 1.0000 -0.0002
vn -0.2835 -0.2183 0.9338
vn -0.4075 -0.5997 0.6887
vn -0.1423 -0.8159 -0.5604
vn -0.6414 -0.5553 -0.5293
vn -0.2451 -0.5604 -0.7911
vn -1.0000 0.0020 -0.0032
vn 1.0000 0.0001 -0.0008
vn -0.0799 -0.5501 -0.8313
vn -0.0848 -0.5614 -0.8232
vn -0.0000 1.0000 -0.0002
vn -0.2927 -0.7805 -0.5524
vn -0.3565 -0.8044 -0.4752
vn -0.3907 -0.7913 -0.4703
vn -0.4718 -0.7912 -0.3890
vn -0.4740 -0.7966 -0.3752
vn -0.7280 -0.5652 -0.3881
vn -0.5237 -0.5549 -0.6464
vn -0.5238 -0.5647 -0.6378
vn -0.5406 -0.7894 -0.2907
vn -0.0004 1.0000 -0.0000
vn 0.0002 1.0000 -0.0000
vn -0.0000 1.0000 -0.0011
vn -0.0573 -0.7765 -0.6275
vn -0.1738 -0.8009 -0.5731
vn -0.6409 -0.5585 -0.5266
vn -0.2424 -0.5520 -0.7978
vn -0.3899 -0.5666 -0.7259
vn -0.3891 -0.5617 -0.7302
vn -0.0001 1.0000 -0.0001
vn -1.0000 0.0002 0.0002
vn -0.9999 0.0145 0.0068
vn 0.0001 1.0000 0.0001
vn -0.0006 1.0000 -0.0011
vn -0.0001 1.0000 -0.0005
vn 0.0004 1.0000 0.0005
vn -0.5279 -0.5551 -0.6428
vn -0.5196 -0.5650 -0.6409
vn 0.0011 1.0000 0.0012
s 0
f 3//1 9//1 5//1
f 3//2 6//2 5//2
f 14//3 19//3 3//3
f 5//4 6//4 8//4
f 6//5 10//5 8//5
f 10//6 17//6 15//6
f 5//7 16//7 8//7
f 10//8 11//8 8//8
f 11//9 12//9 8//9
f 4//10 9//10 16//10
f 20//11 17//11 21//11
f 4//12 13//12 14//12
f 9//13 3//13 2//13
f 2//14 1//14 3//14
f 1//15 2//15 7//15
f 2//16 4//16 7//16
f 19//3 21//3 6//3
f 21//3 17//3 6//3
f 17//3 10//3 6//3
f 6//3 3//3 19//3
f 1//3 7//3 3//3
f 7//17 14//17 3//17
f 18//18 13//18 16//18
f 16//19 22//19 18//19
f 22//20 20//20 18//20
f 15//21 20//21 22//21
f 22//22 12//22 15//22
f 15//23 11//23 10//23
f 20//24 21//24 18//24
f 21//25 19//25 18//25
f 12//26 11//26 15//26
f 12//27 8//27 22//27
f 22//28 8//28 16//28
f 16//29 5//29 9//29
f 2//30 9//30 4//30
f 16//31 13//31 4//31
f 20//32 15//32 17//32
f 14//33 7//33 4//33
f 13//34 18//34 19//34
f 19//35 14//35 13//35
f 7//36 10//36 1//36
f 10//3 3//3 1//3
f 5//37 3//37 2//37
f 10//3 6//3 3//3
f 5//38 2//38 9//38
f 14//39 10//39 7//39
f 14//3 19//3 10//3
f 19//3 21//3 10//3
f 21//36 17//36 10//36
f 8//40 5//40 9//40
f 8//41 9//41 12//41
f 12//42 9//42 16//42
f 20//43 21//43 19//43
f 18//44 20//44 19//44
f 22//45 12//45 16//45
