# Blender 4.0.0
# www.blender.org
o decimated_mesh
v 0.093022 0.087637 -0.000019
v 0.087324 0.087728 -0.030333
v 0.091302 0.087320 -0.000018
v 0.091009 0.087726 -0.017733
v 0.094411 0.086848 -0.000033
v 0.092349 0.087010 -0.018825
v 0.085498 0.087426 -0.032487
v 0.084289 0.086638 -0.032487
v 0.094902 0.084948 -0.000023
v 0.088257 0.087004 -0.032482
v 0.090284 0.086119 -0.000018
v 0.093142 0.085236 -0.017584
v 0.093209 0.063202 -0.000024
v 0.077130 0.044427 -0.032487
v 0.083669 0.044427 -0.000018
v 0.091439 0.063199 -0.017853
v 0.088835 0.083872 -0.032487
v 0.088780 0.044427 -0.000026
v 0.082582 0.044427 -0.032486
v 0.087275 0.044427 -0.015978
v 0.087131 0.063199 -0.032487
vn -0.5436 0.8334 0.0999
vn 0.0009 -0.0001 1.0000
vn 0.1468 0.9549 -0.2582
vn 0.0010 0.0017 -1.0000
vn -0.0275 0.9996 0.0082
vn 0.9352 -0.2340 -0.2659
vn 0.9600 -0.0709 -0.2709
vn 0.4930 0.8688 -0.0466
vn 0.9670 -0.1640 -0.1948
vn -0.0000 1.0000 -0.0000
vn 0.9921 -0.0772 -0.0985
vn -0.1810 0.9828 0.0370
vn 0.9692 -0.2286 -0.0915
vn 0.9641 0.2489 -0.0926
vn -0.7543 0.6393 0.1495
vn 0.4418 0.8959 -0.0457
vn 0.3918 0.9125 -0.1178
vn 0.4179 0.9003 -0.1221
vn 0.0015 -0.0005 1.0000
vn -0.0009 0.0001 -1.0000
vn 0.0159 0.0096 0.9998
vn -0.0005 0.0011 -1.0000
vn -0.0008 0.0007 -1.0000
vn 0.0001 -0.0001 -1.0000
vn -0.0000 -0.0000 -1.0000
vn 0.0014 -0.0021 -1.0000
vn 0.9344 -0.2265 -0.2751
vn 0.9563 -0.0788 -0.2815
vn 0.9712 -0.1541 -0.1818
vn 0.9416 0.1743 -0.2881
vn 0.9325 0.3472 -0.0993
vn -0.0000 -1.0000 -0.0000
vn 0.9921 -0.0754 -0.1007
vn -0.2093 0.9770 0.0406
vn 0.9697 -0.2247 -0.0962
vn 0.9341 0.2216 -0.2800
vn 0.0003 -0.0002 1.0000
vn 0.9695 -0.1644 -0.1816
vn 0.9687 -0.1537 -0.1951
vn 0.0018 -0.0002 1.0000
vn -0.0001 -0.0000 -1.0000
vn 0.0001 -0.0000 -1.0000
vn 0.4138 0.9018 -0.1244
vn 0.3938 0.9120 -0.1151
s 0
f 3//1 7//1 8//1
f 11//2 15//2 13//2
f 2//3 10//3 7//3
f 10//4 17//4 8//4
f 4//5 2//5 1//5
f 16//6 20//6 19//6
f 16//7 17//7 12//7
f 5//8 6//8 1//8
f 15//9 14//9 8//9
f 19//10 15//10 20//10
f 9//11 13//11 16//11
f 2//12 3//12 1//12
f 20//13 13//13 18//13
f 5//14 9//14 12//14
f 8//15 11//15 3//15
f 4//16 1//16 6//16
f 6//17 10//17 4//17
f 2//18 4//18 10//18
f 18//19 13//19 15//19
f 13//20 11//20 9//20
f 9//21 5//21 1//21
f 1//22 9//22 3//22
f 3//23 9//23 11//23
f 21//24 19//24 14//24
f 14//25 8//25 21//25
f 21//25 8//25 17//25
f 8//26 7//26 10//26
f 21//27 16//27 19//27
f 16//28 21//28 17//28
f 15//29 8//29 11//29
f 17//30 10//30 12//30
f 5//31 12//31 6//31
f 20//32 18//32 15//32
f 15//10 19//10 14//10
f 16//33 12//33 9//33
f 2//34 7//34 3//34
f 20//35 16//35 13//35
f 12//36 10//36 6//36
f 1//37 3//37 11//37
f 8//38 11//38 14//38
f 14//39 11//39 15//39
f 13//37 1//37 11//37
f 13//40 9//40 1//40
f 21//41 19//41 8//41
f 19//42 14//42 8//42
f 19//10 14//10 20//10
f 20//10 14//10 15//10
f 10//43 2//43 6//43
f 2//44 4//44 6//44
