# Blender 4.0.0
# www.blender.org
o decimated_mesh
v -0.077654 0.084929 -0.054245
v -0.068325 0.085334 -0.065550
v -0.077043 0.086830 -0.054266
v -0.067070 0.083504 -0.067044
v -0.066832 0.086754 -0.066712
v -0.065899 0.062250 -0.065845
v -0.075769 0.087441 -0.054244
v -0.065480 0.085211 -0.068427
v -0.075420 0.062212 -0.054246
v -0.065732 0.087587 -0.065894
v -0.052628 0.086491 -0.078507
v -0.052703 0.084885 -0.078955
v -0.062760 0.044265 -0.062784
v -0.073074 0.087340 -0.054242
v -0.073969 0.087650 -0.055738
v -0.051305 0.087678 -0.077225
v -0.051823 0.087063 -0.078585
v -0.052425 0.062392 -0.076929
v -0.069816 0.044263 -0.054245
v -0.034233 0.087692 -0.085698
v -0.037526 0.086872 -0.086505
v -0.036653 0.083872 -0.087424
v -0.063246 0.044263 -0.054245
v -0.034230 0.087120 -0.084194
v -0.036653 0.087582 -0.085514
v -0.034228 0.085320 -0.088335
v -0.036653 0.085752 -0.087264
v -0.049429 0.044263 -0.073697
v -0.034230 0.044263 -0.076168
v -0.071746 0.085900 -0.054245
v -0.034234 0.087232 -0.087269
v -0.034244 0.062515 -0.086582
v -0.034231 0.044263 -0.081852
v -0.034230 0.085832 -0.083444
vn -0.0004 0.0022 -1.0000
vn -0.7064 0.0887 -0.7023
vn 0.1054 0.9844 0.1411
vn 0.0367 0.9826 0.1819
vn 0.5339 0.4905 0.6888
vn -0.5970 -0.1383 -0.7902
vn -0.4968 0.6154 -0.6119
vn -0.2329 0.8762 -0.4220
vn -1.0000 0.0015 0.0026
vn -0.4572 0.2588 -0.8509
vn 0.2688 0.9004 0.3420
vn -0.7507 -0.2361 -0.6170
vn -0.6352 -0.0771 -0.7685
vn -0.4189 0.4848 -0.7678
vn -0.2478 0.4714 -0.8464
vn -0.0535 0.9929 -0.1062
vn -0.2543 0.9139 -0.3164
vn -0.3983 0.8428 -0.3620
vn 0.0010 -0.0004 -1.0000
vn -0.0261 0.0193 0.9995
vn -0.0001 -0.0000 -1.0000
vn -0.0000 -0.0000 -1.0000
vn 0.0001 -0.0000 -1.0000
vn -0.3282 0.3412 -0.8808
vn -0.7725 -0.0759 -0.6304
vn -0.7704 -0.0781 -0.6327
vn -0.3394 0.8481 -0.4069
vn -0.3992 0.8543 -0.3328
vn -0.7711 -0.0093 -0.6367
vn -0.4603 -0.2290 -0.8577
vn -0.4559 -0.2235 -0.8615
vn 0.5587 0.4171 0.7168
vn -0.6156 -0.2358 -0.7520
vn -0.6159 -0.2355 -0.7518
vn -0.6096 -0.1244 -0.7829
vn -0.3126 -0.0726 -0.9471
vn -0.0652 0.9577 -0.2804
vn -0.1993 0.8714 -0.4482
vn -0.1802 0.9202 -0.3475
vn -0.0310 0.9990 -0.0314
vn -0.0003 1.0000 0.0010
vn 1.0000 0.0035 -0.0011
vn -1.0000 0.0003 0.0018
vn -1.0000 -0.0006 0.0001
vn -1.0000 0.0006 -0.0005
vn -1.0000 -0.0020 -0.0003
vn -0.7537 0.2359 -0.6135
vn -0.7412 0.2806 -0.6098
vn -0.6139 0.2388 -0.7524
vn -0.6085 0.2889 -0.7391
vn -0.4574 0.2264 -0.8600
vn 0.0002 1.0000 0.0002
vn -0.0000 1.0000 -0.0000
vn -0.0000 1.0000 0.0002
vn -0.7494 -0.2340 -0.6194
vn -0.6055 -0.0780 -0.7920
vn -0.6330 -0.0751 -0.7705
vn -0.6980 0.1637 -0.6971
vn -0.3912 0.0780 -0.9170
vn -0.3830 0.8680 -0.3161
vn -0.4616 0.0752 -0.8839
vn -0.4692 -0.0850 -0.8790
vn -0.4667 -0.0874 -0.8801
vn 0.0003 0.0001 -1.0000
vn -0.6328 -0.0783 -0.7703
vn -0.6361 -0.0325 -0.7710
vn -0.6319 -0.0773 -0.7712
vn -0.7510 -0.2345 -0.6172
vn 0.0005 0.0001 -1.0000
vn 0.0010 0.0001 -1.0000
vn -0.3343 0.9009 -0.2768
vn -0.3990 0.8543 -0.3331
vn -0.4029 0.8514 -0.3357
vn -0.7490 -0.2361 -0.6190
vn -0.0000 0.0001 -1.0000
vn 0.0003 1.0000 0.0004
vn -0.0037 -0.0008 -1.0000
vn -0.1886 0.9198 -0.3441
vn -0.2254 0.8752 -0.4280
vn -1.0000 0.0012 0.0074
vn -0.0002 1.0000 -0.0004
vn -1.0000 0.0001 0.0001
vn -0.5983 -0.1221 -0.7919
vn -1.0000 -0.0031 0.0008
vn -1.0000 -0.0003 -0.0004
vn -0.6086 -0.1368 -0.7816
vn -1.0000 -0.0001 -0.0005
s 0
f 30//1 1//1 14//1
f 2//2 8//2 4//2
f 14//3 20//3 15//3
f 7//4 14//4 15//4
f 30//5 24//5 14//5
f 34//6 29//6 23//6
f 5//7 17//7 11//7
f 25//8 21//8 16//8
f 20//9 34//9 24//9
f 12//10 11//10 21//10
f 14//11 24//11 20//11
f 9//12 6//12 13//12
f 18//13 8//13 12//13
f 11//14 17//14 21//14
f 21//15 31//15 26//15
f 25//16 16//16 20//16
f 10//17 16//17 17//17
f 7//18 15//18 3//18
f 14//19 1//19 7//19
f 1//20 7//20 3//20
f 1//21 30//21 9//21
f 9//22 23//22 19//22
f 23//23 9//23 30//23
f 26//24 27//24 21//24
f 1//25 4//25 9//25
f 4//26 6//26 9//26
f 17//27 5//27 10//27
f 5//28 3//28 10//28
f 2//29 4//29 1//29
f 28//30 18//30 33//30
f 18//31 32//31 33//31
f 30//32 34//32 24//32
f 18//33 28//33 13//33
f 13//34 6//34 18//34
f 34//35 23//35 30//35
f 32//36 22//36 26//36
f 31//37 25//37 20//37
f 31//38 21//38 25//38
f 21//39 17//39 16//39
f 16//40 10//40 15//40
f 15//41 20//41 16//41
f 26//42 31//42 20//42
f 34//43 32//43 29//43
f 29//44 32//44 33//44
f 32//45 34//45 26//45
f 26//46 34//46 20//46
f 2//47 1//47 3//47
f 3//48 5//48 2//48
f 12//49 8//49 11//49
f 11//50 8//50 5//50
f 27//51 12//51 21//51
f 13//52 23//52 28//52
f 28//53 29//53 33//53
f 29//53 28//53 23//53
f 23//54 13//54 19//54
f 19//55 9//55 13//55
f 6//56 4//56 8//56
f 18//57 6//57 8//57
f 8//58 2//58 5//58
f 26//59 22//59 27//59
f 10//60 3//60 15//60
f 27//61 22//61 12//61
f 18//62 12//62 22//62
f 22//63 32//63 18//63
f 9//64 1//64 7//64
f 18//65 6//65 4//65
f 8//66 12//66 4//66
f 12//67 18//67 4//67
f 6//68 19//68 9//68
f 19//69 9//69 14//69
f 14//70 9//70 7//70
f 15//71 10//71 7//71
f 10//72 5//72 7//72
f 5//73 3//73 7//73
f 13//74 19//74 6//74
f 33//53 19//53 23//53
f 23//75 19//75 14//75
f 13//76 19//76 33//76
f 23//77 14//77 30//77
f 16//78 25//78 17//78
f 25//79 21//79 17//79
f 26//80 32//80 33//80
f 29//53 33//53 23//53
f 13//81 33//81 28//81
f 26//82 33//82 29//82
f 29//83 23//83 30//83
f 26//84 24//84 20//84
f 34//85 24//85 26//85
f 29//86 30//86 34//86
f 34//87 26//87 29//87
