# Blender 4.0.0
# www.blender.org
o decimated_mesh
v -0.000006 0.087621 0.093063
v 0.017700 0.087728 0.091022
v 0.050742 0.087718 0.077342
v 0.000010 0.086849 0.094414
v 0.053563 0.087364 0.073794
v 0.018971 0.087021 0.092334
v 0.035127 0.087572 0.086275
v 0.053486 0.087311 0.076935
v -0.000007 0.087312 0.091301
v -0.000006 0.085088 0.094851
v 0.037022 0.086860 0.086750
v 0.051887 0.086800 0.078823
v 0.053563 0.085813 0.072316
v 0.009649 0.084922 0.093997
v 0.018501 0.085807 0.092846
v 0.053564 0.085316 0.078215
v -0.000007 0.086170 0.090293
v 0.017857 0.083873 0.093108
v 0.035738 0.085524 0.087711
v 0.052696 0.084858 0.078962
v -0.000002 0.063296 0.093215
v 0.028189 0.084805 0.090213
v 0.036151 0.083689 0.087654
v -0.000007 0.041773 0.082648
v 0.053563 0.041773 0.062484
v 0.017857 0.063206 0.091437
v 0.000004 0.041773 0.088126
v 0.053563 0.041773 0.069565
v 0.053563 0.063201 0.076105
v 0.017070 0.041773 0.086495
v 0.034935 0.062606 0.086336
v 0.051924 0.061965 0.077189
v 0.048942 0.041773 0.073359
v 0.033877 0.041773 0.081346
vn 0.0255 0.9978 0.0608
vn -1.0000 -0.0002 0.0002
vn 0.1497 0.9885 0.0205
vn 0.3109 0.0405 0.9496
vn 0.2953 -0.0766 0.9523
vn 0.6232 0.4397 0.6467
vn 0.0967 0.2768 0.9561
vn -0.0554 0.9834 -0.1728
vn 0.4701 -0.0820 0.8788
vn 0.5365 0.2806 0.7959
vn 0.2318 -0.6712 0.7041
vn 0.6170 -0.2337 0.7515
vn 0.2783 0.2795 0.9189
vn 0.4547 -0.2292 0.8606
vn -0.0000 1.0000 -0.0000
vn 0.0953 -0.2290 0.9687
vn 0.3448 -0.2045 0.9161
vn 0.0465 0.8673 0.4957
vn 0.0972 -0.0802 0.9920
vn 0.2351 0.8696 0.4342
vn 0.6737 -0.0796 0.7347
vn 0.4562 0.1869 0.8700
vn 0.4563 0.2512 0.8536
vn -0.9997 0.0134 0.0191
vn -1.0000 0.0003 0.0006
vn -1.0000 -0.0001 0.0007
vn -1.0000 -0.0008 0.0020
vn 0.1741 0.8239 0.5393
vn 0.0453 0.8971 0.4394
vn 0.1129 0.9163 0.3843
vn -0.0084 0.9997 -0.0211
vn 0.2786 0.2763 0.9198
vn 0.2660 0.0420 0.9630
vn 0.2755 -0.0775 0.9582
vn 0.2827 -0.0810 0.9558
vn 0.0896 0.2393 0.9668
vn -0.0449 0.9899 -0.1344
vn 0.4681 -0.0839 0.8797
vn 0.4595 0.0761 0.8849
vn 0.2385 -0.6430 0.7278
vn 0.6489 -0.2221 0.7278
vn 0.2775 0.3705 0.8864
vn 0.4558 -0.2304 0.8597
vn -0.0000 -1.0000 -0.0000
vn 0.0988 0.3538 0.9301
vn 0.0926 -0.2270 0.9695
vn 0.3130 -0.1612 0.9360
vn 1.0000 -0.0000 -0.0000
vn 1.0000 -0.0001 -0.0003
vn 0.9981 0.0556 0.0255
vn 1.0000 -0.0002 -0.0003
vn 0.0866 -0.0746 0.9934
vn 0.0983 -0.0798 0.9920
vn 0.1191 0.0944 0.9884
vn 0.1888 0.9142 0.3586
vn 0.2278 0.8820 0.4125
vn 0.5896 -0.0768 0.8040
vn 0.2715 -0.2257 0.9356
vn 0.2846 -0.2370 0.9289
vn -0.0431 0.9902 -0.1330
vn -0.0574 0.9833 -0.1727
vn 0.2254 0.8798 0.4184
vn 0.1874 0.9206 0.3425
vn -1.0000 -0.0000 -0.0000
vn -1.0000 -0.0001 0.0008
vn 0.2308 -0.6713 0.7043
vn 0.2398 -0.6428 0.7275
vn 0.3100 -0.2072 0.9279
vn 0.3478 -0.1591 0.9240
vn 0.0926 -0.2291 0.9690
vn 0.0953 -0.2270 0.9692
vn 0.0983 -0.0802 0.9919
vn 0.0973 -0.0793 0.9921
vn 1.0000 0.0001 -0.0003
vn 0.6714 -0.0704 0.7377
vn 1.0000 -0.0001 0.0004
vn 0.4681 -0.0820 0.8799
vn 0.4700 -0.0839 0.8787
vn 0.5921 -0.0821 0.8017
s 0
f 7//1 3//1 2//1
f 21//2 10//2 17//2
f 3//3 8//3 5//3
f 22//4 23//4 19//4
f 23//5 22//5 31//5
f 8//6 12//6 16//6
f 4//7 14//7 15//7
f 9//8 1//8 3//8
f 31//9 32//9 23//9
f 12//10 20//10 16//10
f 17//11 13//11 5//11
f 32//12 33//12 28//12
f 15//13 19//13 6//13
f 31//14 34//14 32//14
f 34//15 24//15 30//15
f 27//16 26//16 21//16
f 24//17 25//17 13//17
f 6//18 1//18 4//18
f 26//19 18//19 14//19
f 12//20 8//20 11//20
f 32//21 16//21 20//21
f 19//22 20//22 11//22
f 20//23 12//23 11//23
f 10//24 4//24 1//24
f 9//25 10//25 1//25
f 9//2 17//2 10//2
f 17//26 24//26 21//26
f 24//27 27//27 21//27
f 11//28 7//28 6//28
f 2//29 1//29 6//29
f 7//30 2//30 6//30
f 3//31 1//31 2//31
f 19//32 15//32 22//32
f 22//33 15//33 18//33
f 18//34 26//34 22//34
f 22//35 26//35 31//35
f 4//36 10//36 14//36
f 5//37 9//37 3//37
f 32//38 20//38 23//38
f 19//39 23//39 20//39
f 17//40 5//40 9//40
f 28//41 29//41 32//41
f 11//42 6//42 19//42
f 34//43 33//43 32//43
f 30//44 27//44 24//44
f 24//15 34//15 25//15
f 25//44 28//44 33//44
f 33//15 25//15 34//15
f 4//45 15//45 6//45
f 27//46 30//46 26//46
f 24//47 13//47 17//47
f 29//48 28//48 25//48
f 25//48 13//48 29//48
f 29//49 13//49 16//49
f 5//50 8//50 16//50
f 5//51 16//51 13//51
f 10//52 21//52 14//52
f 21//53 26//53 14//53
f 15//54 14//54 18//54
f 11//55 8//55 3//55
f 3//56 7//56 11//56
f 32//57 29//57 16//57
f 26//58 30//58 31//58
f 30//59 34//59 31//59
f 3//60 5//60 1//60
f 5//61 9//61 1//61
f 11//62 8//62 7//62
f 8//63 3//63 7//63
f 17//64 24//64 9//64
f 24//65 21//65 9//65
f 21//2 10//2 9//2
f 5//66 9//66 13//66
f 13//67 9//67 17//67
f 13//68 17//68 25//68
f 25//69 17//69 24//69
f 25//15 30//15 33//15
f 25//15 24//15 30//15
f 27//70 30//70 21//70
f 30//71 26//71 21//71
f 26//72 18//72 21//72
f 18//73 14//73 21//73
f 16//74 25//74 13//74
f 20//75 29//75 16//75
f 29//76 28//76 16//76
f 28//48 25//48 16//48
f 31//77 20//77 23//77
f 31//78 32//78 20//78
f 32//79 29//79 20//79
f 33//15 30//15 34//15
