# Blender 4.0.0
# www.blender.org
o decimated_mesh
v 0.017979 0.087729 -0.090993
v -0.000012 0.087638 -0.093056
v 0.057220 0.087659 -0.072359
v 0.052644 0.087688 -0.076313
v 0.035694 0.087587 -0.085984
v -0.000012 0.087320 -0.091301
v 0.057220 0.087235 -0.070510
v 0.051790 0.086926 -0.078777
v 0.018751 0.087031 -0.092338
v 0.037412 0.086965 -0.086503
v -0.000005 0.086780 -0.094470
v 0.057220 0.087100 -0.074159
v 0.032035 0.086836 -0.088489
v 0.018520 0.085829 -0.092850
v -0.000004 0.083852 -0.094833
v 0.017305 0.084914 -0.093235
v -0.000012 0.086172 -0.090296
v 0.057205 0.086600 -0.074790
v 0.057220 0.085894 -0.069311
v 0.052725 0.084785 -0.078961
v 0.035282 0.084831 -0.088063
v -0.000005 0.063147 -0.093197
v -0.000012 0.044459 -0.083676
v 0.057220 0.044459 -0.060883
v 0.057220 0.083870 -0.075215
v 0.017859 0.063207 -0.091437
v -0.000004 0.044459 -0.088789
v 0.057220 0.044459 -0.067438
v 0.052395 0.062426 -0.076932
v 0.057220 0.061257 -0.072692
v 0.034892 0.062718 -0.086368
v 0.016968 0.044458 -0.087170
v 0.033774 0.044460 -0.082123
v 0.049467 0.044459 -0.073728
vn 0.0216 0.9986 -0.0484
vn 0.3636 -0.1857 -0.9129
vn 0.1207 0.9079 -0.4014
vn 0.4552 0.1829 -0.8714
vn 0.0964 -0.0784 -0.9922
vn 0.4537 0.6936 -0.5595
vn 0.0924 -0.2286 -0.9691
vn 1.0000 0.0059 0.0011
vn -0.0647 0.9819 0.1779
vn -0.0000 1.0000 -0.0001
vn 0.2629 -0.6353 -0.7262
vn 0.2795 0.2561 -0.9254
vn 0.2540 0.9236 -0.2871
vn 0.1388 0.8903 -0.4337
vn 0.6091 -0.2344 -0.7577
vn 0.6499 0.1203 -0.7505
vn 0.3399 -0.1474 -0.9289
vn 0.1586 0.8528 -0.4976
vn 0.0458 0.8974 -0.4389
vn 0.4561 0.2718 -0.8474
vn 0.0980 -0.0797 -0.9920
vn 0.4591 -0.2278 -0.8587
vn 0.4593 -0.2280 -0.8585
vn 0.0838 0.1227 -0.9889
vn 0.4717 -0.0866 -0.8775
vn 0.4611 -0.0759 -0.8841
vn 0.2754 -0.0724 -0.9586
vn 0.2823 -0.0783 -0.9561
vn 0.0998 0.3736 -0.9222
vn 0.1946 0.9160 -0.3507
vn 0.2093 0.8989 -0.3850
vn 0.0963 -0.2252 -0.9695
vn 1.0000 0.0002 0.0016
vn 1.0000 0.0016 0.0018
vn 1.0000 0.0001 0.0017
vn -1.0000 -0.0004 -0.0016
vn 1.0000 0.0002 0.0010
vn -0.0794 0.9717 0.2226
vn 0.0474 0.8541 -0.5179
vn 0.6461 -0.0847 -0.7585
vn 0.6286 -0.0795 -0.7737
vn 0.2719 -0.2258 -0.9355
vn 0.2797 -0.2336 -0.9312
vn 0.0977 0.2730 -0.9570
vn 0.9987 -0.0479 0.0149
vn 1.0000 -0.0001 -0.0000
vn 1.0000 -0.0000 -0.0000
vn 1.0000 0.0056 -0.0019
vn 1.0000 -0.0059 -0.0034
vn 0.0001 1.0000 -0.0001
vn -0.0000 1.0000 -0.0000
vn -0.0000 1.0000 0.0001
vn -0.0000 -1.0000 -0.0000
vn 0.2608 -0.6434 -0.7198
vn 0.2669 0.3338 -0.9041
vn -0.0072 0.9998 0.0189
vn -0.0039 0.9999 0.0120
vn 0.2890 0.8818 -0.3728
vn 0.3202 0.3298 -0.8881
vn 0.5749 0.3156 -0.7549
vn 0.6122 -0.2360 -0.7547
vn 0.2764 0.0368 -0.9603
vn 0.1522 0.8633 -0.4813
vn -1.0000 0.0002 -0.0048
vn -1.0000 -0.0019 -0.0004
vn 0.1612 0.8554 -0.4922
vn -1.0000 -0.0001 -0.0021
vn -1.0000 -0.0002 -0.0011
vn -1.0000 -0.0000 -0.0000
vn 0.2632 -0.6352 -0.7261
vn 0.2605 -0.6434 -0.7198
vn 1.0000 -0.0000 0.0001
vn 0.9995 0.0102 -0.0311
vn 0.3660 -0.1459 -0.9191
vn 0.3373 -0.1876 -0.9225
vn -0.0002 1.0000 0.0006
s 0
f 4//1 5//1 1//1
f 19//2 24//2 23//2
f 5//3 9//3 1//3
f 21//4 10//4 20//4
f 16//5 22//5 15//5
f 12//6 18//6 8//6
f 22//7 32//7 27//7
f 6//8 11//8 2//8
f 6//9 3//9 2//9
f 32//10 23//10 33//10
f 17//11 6//11 7//11
f 21//12 14//12 13//12
f 4//13 3//13 12//13
f 10//14 13//14 9//14
f 29//15 30//15 34//15
f 25//16 20//16 18//16
f 19//17 23//17 17//17
f 10//18 9//18 5//18
f 9//19 2//19 1//19
f 10//20 8//20 20//20
f 16//21 26//21 22//21
f 31//22 29//22 33//22
f 29//23 34//23 33//23
f 15//24 11//24 16//24
f 20//25 29//25 31//25
f 31//26 21//26 20//26
f 26//27 16//27 21//27
f 26//28 21//28 31//28
f 14//29 11//29 9//29
f 8//30 5//30 4//30
f 8//31 10//31 5//31
f 22//32 26//32 32//32
f 11//33 17//33 15//33
f 6//34 17//34 11//34
f 15//35 17//35 22//35
f 22//36 27//36 23//36
f 17//37 23//37 22//37
f 6//38 7//38 3//38
f 2//39 9//39 11//39
f 25//40 30//40 29//40
f 29//41 20//41 25//41
f 26//42 31//42 32//42
f 31//43 33//43 32//43
f 11//44 14//44 16//44
f 18//45 12//45 3//45
f 3//46 7//46 19//46
f 19//47 24//47 30//47
f 24//47 28//47 30//47
f 30//47 25//47 19//47
f 19//48 25//48 18//48
f 19//49 18//49 3//49
f 33//50 24//50 34//50
f 34//51 24//51 28//51
f 24//52 33//52 23//52
f 27//53 32//53 23//53
f 17//54 7//54 19//54
f 14//55 9//55 13//55
f 2//56 3//56 1//56
f 3//57 4//57 1//57
f 12//58 8//58 4//58
f 21//59 13//59 10//59
f 20//60 8//60 18//60
f 30//61 28//61 34//61
f 21//62 16//62 14//62
f 5//63 13//63 9//63
f 11//64 15//64 2//64
f 15//65 6//65 2//65
f 7//47 24//47 28//47
f 7//47 28//47 30//47
f 7//47 30//47 25//47
f 7//47 25//47 12//47
f 7//47 12//47 3//47
f 10//66 13//66 5//66
f 22//67 6//67 15//67
f 22//68 23//68 6//68
f 23//69 17//69 6//69
f 17//70 6//70 19//70
f 19//71 6//71 7//71
f 19//72 24//72 7//72
f 25//73 18//73 12//73
f 32//51 23//51 24//51
f 24//74 23//74 17//74
f 24//75 17//75 19//75
f 32//51 24//51 28//51
f 33//76 32//76 34//76
f 34//51 32//51 28//51
