# Blender 4.0.0
# www.blender.org
o decimated_mesh
v 0.070021 0.016164 -0.000012
v 0.061431 0.016164 -0.000015
v 0.059806 0.008395 -0.000015
v 0.049814 0.008395 -0.000015
v 0.038471 0.016335 0.055054
v 0.038324 0.008682 0.044903
v 0.067692 0.016165 0.019289
v 0.055945 0.008385 0.022583
v 0.054333 0.016179 0.044608
vn -0.5412 0.8093 -0.2282
vn -0.9139 0.3303 -0.2359
vn 0.6037 -0.7939 0.0729
vn -0.0000 -0.0000 -1.0000
vn -0.0000 -1.0000 -0.0005
vn -0.0000 1.0000 -0.0001
vn 0.0041 1.0000 -0.0014
vn 0.0145 0.9999 0.0071
vn 0.5683 -0.8171 0.0967
vn 0.5839 -0.7510 0.3085
vn 0.0003 -0.0001 -1.0000
vn 0.4052 -0.8521 0.3312
vn 0.3603 -0.7474 0.5583
vn -0.0130 -0.9999 0.0031
vn -0.0000 1.0000 -0.0031
vn 0.0067 1.0000 0.0007
s 0
f 2//1 4//1 5//1
f 4//2 6//2 5//2
f 7//3 3//3 1//3
f 2//4 3//4 4//4
f 4//5 3//5 8//5
f 7//6 1//6 2//6
f 2//7 5//7 7//7
f 9//8 7//8 5//8
f 8//9 3//9 7//9
f 8//10 7//10 9//10
f 2//11 1//11 3//11
f 6//12 8//12 9//12
f 9//13 5//13 6//13
f 6//14 4//14 8//14
f 2//15 5//15 1//15
f 5//16 7//16 1//16
