# Blender 4.0.0
# www.blender.org
o decimated_mesh
v -0.088036 0.085403 0.034916
v -0.087425 0.083865 0.036657
v -0.087261 0.085750 0.036657
v -0.086518 0.086809 0.037568
v -0.086265 0.061958 0.034924
v -0.078560 0.087030 0.051896
v -0.086913 0.087352 0.034919
v -0.078963 0.084833 0.052706
v -0.078510 0.086504 0.052608
v -0.085511 0.087704 0.034917
v -0.078964 0.062141 0.048931
v -0.068440 0.085195 0.065466
v -0.066769 0.086756 0.066761
v -0.076490 0.087662 0.052475
v -0.033717 0.087668 0.085702
v -0.083803 0.087056 0.034916
v -0.067017 0.083486 0.067084
v -0.065850 0.087563 0.065890
v -0.049807 0.087698 0.077991
v -0.036655 0.087577 0.085509
v -0.033680 0.087257 0.087345
v -0.033684 0.086908 0.084122
v -0.030238 0.053105 0.085415
v -0.030238 0.053105 0.080109
v -0.072042 0.028670 0.034922
v -0.080270 0.040052 0.034926
v -0.077012 0.062344 0.052279
v -0.065872 0.062183 0.065851
v -0.052687 0.086621 0.078409
v -0.065366 0.085179 0.068522
v -0.037497 0.086860 0.086525
v -0.033678 0.086114 0.088238
v -0.030238 0.028664 0.067658
v -0.033716 0.084712 0.088524
v -0.033722 0.062115 0.086638
v -0.065155 0.028670 0.034922
v -0.072924 0.039926 0.048514
v -0.051935 0.086986 0.078567
v -0.030250 0.028663 0.074363
v -0.035909 0.062580 0.085948
v -0.056813 0.028670 0.056805
v -0.067070 0.028670 0.044160
v -0.052696 0.084795 0.078977
v -0.036655 0.085744 0.087260
v -0.036655 0.083871 0.087418
v -0.061938 0.039867 0.061933
v -0.051824 0.062268 0.077347
v -0.044683 0.028666 0.066785
v -0.048796 0.040008 0.072764
v -0.033744 0.039792 0.080780
v -0.030240 0.039822 0.081887
vn -0.8591 -0.2420 0.4510
vn -0.0461 0.9687 0.2438
vn 0.0002 1.0000 0.0002
vn -0.8442 0.4862 0.2256
vn -0.2489 -0.5413 0.8031
vn -0.6516 -0.5415 0.5312
vn -0.6129 0.6138 0.4975
vn -0.9165 0.0799 0.3920
vn -0.9597 -0.1275 0.2504
vn 0.3336 0.8794 -0.3396
vn -0.8587 -0.0841 0.5056
vn -0.0362 0.9962 0.0794
vn 0.3883 0.8335 -0.3930
vn -0.6312 -0.0758 0.7719
vn -0.4678 -0.0772 0.8805
vn -0.3520 0.8913 0.2858
vn 0.9887 0.0930 0.1173
vn 0.9096 0.0596 0.4111
vn -0.0033 1.0000 0.0041
vn -0.2900 -0.2456 0.9250
vn -0.3887 -0.5488 0.7401
vn -0.2305 0.9272 0.2952
vn -0.9982 -0.0591 0.0077
vn -0.4543 0.6950 0.5573
vn -0.2272 0.5995 0.7674
vn 0.1333 -0.0825 0.9876
vn -0.4575 0.2661 0.8485
vn -0.3278 0.1973 0.9239
vn -0.6840 -0.2184 0.6960
vn -0.4610 0.0743 0.8843
vn -0.7517 -0.2402 0.6141
vn -0.7438 -0.5377 0.3970
vn -0.0001 0.0004 -1.0000
vn -0.4093 0.5184 0.7508
vn -0.2414 0.9622 0.1263
vn -0.3705 0.0777 0.9256
vn -0.7649 0.4908 0.4172
vn -0.6094 0.2844 0.7401
vn -1.0000 0.0001 -0.0002
vn -0.8561 -0.2343 0.4606
vn -0.8333 -0.2359 0.5000
vn -0.0000 1.0000 -0.0000
vn 0.0003 1.0000 -0.0001
vn -0.9594 -0.0724 0.2726
vn -0.6519 -0.5436 0.5287
vn -0.7680 -0.0787 0.6356
vn -0.7880 -0.0777 0.6107
vn -0.7712 -0.0755 0.6321
vn -0.8632 0.2115 0.4584
vn -0.8508 0.2573 0.4582
vn -0.8832 -0.0833 0.4615
vn -0.8799 -0.0779 0.4687
vn -0.4628 0.8523 0.2438
vn -0.6358 -0.0802 0.7676
vn -0.6080 -0.0784 0.7901
vn -0.4726 -0.0818 0.8775
vn -0.0349 0.9988 0.0351
vn 0.0051 1.0000 -0.0067
vn -0.3014 -0.2417 0.9223
vn -0.4026 -0.5369 0.7414
vn -0.3311 0.3328 0.8829
vn -0.2032 0.9065 0.3702
vn -0.3443 0.8415 0.4162
vn -0.4139 0.8428 0.3439
vn -0.9948 -0.1009 0.0123
vn -0.9948 -0.1014 -0.0000
vn -0.7024 0.0845 0.7068
vn -0.6158 -0.2403 0.7503
vn -0.6142 -0.2384 0.7523
vn -0.3319 -0.0765 0.9402
vn -0.3150 -0.0789 0.9458
vn -0.4577 0.2227 0.8608
vn -0.8825 0.3396 0.3252
vn -0.6641 -0.2395 0.7083
vn -0.7516 -0.2404 0.6143
vn -0.7412 -0.5399 0.3990
vn 0.0005 0.0003 1.0000
vn -0.0000 -0.0003 1.0000
vn 0.0004 0.0002 1.0000
vn -0.0002 0.0003 1.0000
vn -0.0026 0.0032 -1.0000
vn -0.6952 0.1634 0.7000
vn -0.7523 0.2398 0.6136
vn -0.7398 0.2870 0.6086
vn -0.3332 0.9253 0.1814
vn -0.5312 -0.5415 0.6516
vn -0.5358 -0.5376 0.6511
vn -0.8838 0.0770 0.4614
vn -0.4581 -0.2386 0.8563
vn -0.4593 -0.2377 0.8559
vn -0.3378 -0.2386 0.9105
vn -0.6140 0.2372 0.7528
vn -1.0000 0.0001 -0.0000
vn 1.0000 -0.0020 0.0017
vn -0.2284 0.8743 0.4283
vn -0.1886 0.8690 0.4575
vn -0.0001 0.0001 1.0000
vn -0.0000 0.0001 1.0000
vn 0.0010 0.0004 1.0000
vn 0.0016 0.0005 1.0000
vn 0.0030 1.0000 -0.0023
vn -0.0071 1.0000 0.0060
vn -0.6811 -0.2362 0.6930
vn -0.6682 -0.2134 0.7127
vn -0.0000 1.0000 0.0002
vn 0.0003 1.0000 -0.0002
vn -0.8605 -0.2355 0.4517
vn -0.8547 -0.2410 0.4598
vn -0.7710 -0.0789 0.6319
vn -0.7704 -0.0780 0.6327
vn -0.7704 -0.0387 0.6364
vn -0.9950 -0.1001 -0.0026
vn -0.9950 -0.1001 -0.0000
vn -0.9940 -0.1049 0.0298
vn -1.0000 -0.0000 -0.0000
vn -1.0000 0.0002 -0.0003
vn 0.0009 1.0000 -0.0007
vn -0.5328 -0.5377 0.6534
vn -0.5341 -0.5417 0.6490
vn -0.6309 -0.0803 0.7717
vn -0.6326 -0.0786 0.7704
vn -0.6367 -0.0336 0.7704
vn -0.4582 -0.2377 0.8565
vn -0.4592 -0.2386 0.8557
s 0
f 37//1 11//1 5//1
f 21//2 15//2 20//2
f 39//3 33//3 48//3
f 1//4 4//4 7//4
f 39//5 51//5 50//5
f 41//6 46//6 37//6
f 6//7 9//7 13//7
f 1//8 2//8 3//8
f 22//9 33//9 24//9
f 10//10 15//10 16//10
f 11//11 27//11 8//11
f 15//12 19//12 20//12
f 15//13 22//13 16//13
f 30//14 28//14 47//14
f 40//15 45//15 43//15
f 14//16 6//16 18//16
f 21//17 32//17 23//17
f 23//18 32//18 34//18
f 15//19 10//19 14//19
f 50//20 51//20 23//20
f 50//21 48//21 39//21
f 19//22 18//22 38//22
f 22//23 21//23 15//23
f 29//24 38//24 13//24
f 32//25 21//25 31//25
f 34//26 35//26 23//26
f 31//27 29//27 43//27
f 32//28 44//28 34//28
f 22//29 16//29 36//29
f 44//30 43//30 45//30
f 37//31 28//31 27//31
f 37//32 26//32 25//32
f 1//33 10//33 16//33
f 29//34 31//34 38//34
f 10//35 7//35 14//35
f 34//36 44//36 45//36
f 4//37 9//37 6//37
f 29//38 13//38 30//38
f 33//39 51//39 24//39
f 26//40 37//40 5//40
f 37//41 27//41 11//41
f 48//3 33//3 41//3
f 41//42 36//42 42//42
f 42//42 36//42 25//42
f 36//43 41//43 33//43
f 1//44 5//44 2//44
f 42//45 41//45 37//45
f 8//46 27//46 12//46
f 12//47 28//47 17//47
f 27//48 28//48 12//48
f 3//49 8//49 4//49
f 8//50 9//50 4//50
f 2//51 5//51 11//51
f 8//52 2//52 11//52
f 4//53 6//53 7//53
f 47//54 43//54 30//54
f 30//55 17//55 28//55
f 47//56 40//56 43//56
f 19//57 14//57 18//57
f 19//58 15//58 14//58
f 35//59 50//59 23//59
f 50//60 49//60 48//60
f 44//61 32//61 31//61
f 38//62 20//62 19//62
f 13//63 38//63 18//63
f 18//64 6//64 13//64
f 21//65 22//65 23//65
f 23//66 22//66 24//66
f 30//67 12//67 17//67
f 28//68 46//68 49//68
f 47//69 28//69 49//69
f 45//70 40//70 34//70
f 34//71 40//71 35//71
f 43//72 44//72 31//72
f 4//73 1//73 3//73
f 22//74 36//74 33//74
f 37//75 46//75 28//75
f 25//76 42//76 37//76
f 16//77 5//77 36//77
f 36//78 26//78 25//78
f 5//79 26//79 36//79
f 5//80 16//80 1//80
f 1//81 7//81 10//81
f 12//82 30//82 13//82
f 8//83 12//83 9//83
f 9//84 12//84 13//84
f 14//85 7//85 6//85
f 49//86 46//86 41//86
f 41//87 48//87 49//87
f 3//88 2//88 8//88
f 40//89 47//89 49//89
f 40//90 49//90 50//90
f 50//91 35//91 40//91
f 30//92 43//92 29//92
f 23//93 24//93 51//93
f 51//94 39//94 33//94
f 38//95 31//95 20//95
f 31//96 21//96 20//96
f 16//97 1//97 36//97
f 36//98 1//98 25//98
f 25//99 1//99 26//99
f 26//100 1//100 5//100
f 19//101 15//101 10//101
f 14//102 19//102 10//102
f 22//103 16//103 33//103
f 33//104 16//104 36//104
f 33//105 36//105 39//105
f 39//105 36//105 25//105
f 39//106 25//106 48//106
f 48//106 25//106 42//106
f 11//107 5//107 26//107
f 37//108 11//108 26//108
f 27//109 28//109 8//109
f 28//110 17//110 8//110
f 17//111 12//111 8//111
f 21//112 15//112 23//112
f 23//113 15//113 24//113
f 24//114 15//114 22//114
f 24//115 33//115 23//115
f 23//116 33//116 51//116
f 48//117 42//117 41//117
f 49//118 46//118 48//118
f 46//119 41//119 48//119
f 47//120 43//120 28//120
f 43//121 17//121 28//121
f 43//122 30//122 17//122
f 40//123 47//123 50//123
f 47//124 49//124 50//124
