# Blender 4.0.0
# www.blender.org
o decimated_mesh
v 0.082239 0.042926 -0.032567
v 0.073234 0.024447 -0.024774
v 0.057224 0.044459 -0.067428
v 0.076574 0.042918 -0.032490
v 0.069598 0.019337 -0.024775
v 0.081237 0.039887 -0.032831
v 0.066787 0.024447 -0.024774
v 0.073480 0.042916 -0.049235
v 0.062658 0.042906 -0.062381
v 0.032695 0.044459 -0.077030
v 0.044498 0.008681 -0.024774
v 0.049428 0.044459 -0.073748
v 0.032766 0.044449 -0.082541
v 0.028900 0.008681 -0.042115
v 0.054799 0.008688 -0.024770
v 0.068412 0.019219 -0.028074
v 0.048519 0.039771 -0.072838
v 0.061935 0.039853 -0.061931
v 0.030949 0.024447 -0.071071
v 0.030950 0.019430 -0.067212
v 0.031002 0.008676 -0.051582
v 0.072698 0.039820 -0.048773
v 0.032762 0.039860 -0.081185
v 0.061818 0.019416 -0.041050
v 0.052558 0.019494 -0.052480
v 0.041116 0.019407 -0.061772
v 0.050387 0.008681 -0.032914
v 0.042898 0.008681 -0.042212
vn -0.0000 1.0000 -0.0000
vn -0.0000 0.0002 -1.0000
vn -0.3658 0.5171 0.7738
vn 0.9965 -0.0830 0.0131
vn -0.0000 0.3855 0.9227
vn 0.6489 -0.5464 -0.5295
vn -0.9299 -0.3044 -0.2063
vn 0.8464 -0.2813 -0.4522
vn 0.4738 -0.7937 -0.3816
vn 0.5747 -0.7988 -0.1779
vn 0.5673 -0.6465 -0.5102
vn 0.2244 0.9673 -0.1185
vn 0.2890 -0.7882 -0.5433
vn 0.9042 -0.3225 0.2801
vn 0.6086 -0.2685 -0.7467
vn 0.4517 -0.2532 -0.8555
vn -0.9476 -0.0898 -0.3067
vn 0.7863 -0.5594 -0.2625
vn 0.4020 -0.5457 -0.7353
vn 0.6517 0.5357 -0.5369
vn 0.7418 -0.5490 -0.3853
vn -0.0220 0.9982 0.0562
vn 0.0003 1.0000 -0.0017
vn -0.0009 0.9990 0.0445
vn -0.0004 0.0005 1.0000
vn -0.0003 -0.0000 -1.0000
vn -0.9884 -0.0929 -0.1205
vn 0.5307 -0.5456 -0.6487
vn 0.5309 -0.5454 -0.6486
vn 0.3878 -0.7928 -0.4701
vn 0.3723 -0.7991 -0.4721
vn 0.9965 -0.0787 0.0276
vn 0.0120 0.3836 0.9234
vn 0.5371 -0.7920 -0.2903
vn 0.5415 -0.7901 -0.2872
vn 0.6482 -0.5453 -0.5315
vn -0.0000 1.0000 -0.0005
vn 0.0007 -1.0000 0.0005
vn 0.8585 -0.2440 -0.4510
vn 0.4727 -0.7910 -0.3884
vn 0.5532 -0.6111 -0.5661
vn 0.6075 -0.2634 -0.7493
vn 0.6176 -0.2558 -0.7437
vn 0.4515 -0.2538 -0.8554
vn 0.7871 -0.5518 -0.2756
vn 0.3895 -0.5615 -0.7301
vn 0.3927 -0.5364 -0.7470
vn 0.7416 -0.2784 -0.6103
vn 0.7457 -0.2665 -0.6106
vn 0.7405 -0.5441 -0.3944
vn 0.5410 -0.6320 -0.5549
vn -0.0000 -0.0002 -1.0000
vn -0.0009 0.0008 -1.0000
vn 0.7442 -0.2664 -0.6125
vn 0.7431 -0.2785 -0.6085
vn 0.6001 -0.5904 -0.5398
vn 0.0005 1.0000 -0.0004
vn -0.0002 1.0000 -0.0001
vn 0.9956 -0.0928 0.0131
vn 0.4517 -0.2538 -0.8553
vn 0.4516 -0.2533 -0.8555
vn 0.9969 -0.0729 0.0308
vn -0.0012 1.0000 0.0010
s 0
f 3//1 12//1 10//1
f 5//2 7//2 2//2
f 4//3 11//3 7//3
f 19//4 13//4 10//4
f 2//5 4//5 7//5
f 25//6 22//6 24//6
f 11//1 28//1 14//1
f 20//7 21//7 14//7
f 6//8 22//8 8//8
f 27//9 28//9 24//9
f 5//10 15//10 16//10
f 4//11 11//11 14//11
f 1//12 8//12 3//12
f 26//13 21//13 20//13
f 2//14 6//14 1//14
f 18//15 17//15 3//15
f 23//16 13//16 17//16
f 13//17 23//17 19//17
f 2//18 5//18 16//18
f 19//19 17//19 26//19
f 8//20 9//20 3//20
f 16//21 24//21 6//21
f 10//22 4//22 3//22
f 13//23 10//23 12//23
f 4//24 1//24 3//24
f 7//25 11//25 15//25
f 15//26 7//26 5//26
f 20//27 14//27 19//27
f 17//28 18//28 25//28
f 25//29 26//29 17//29
f 26//30 25//30 28//30
f 28//31 21//31 26//31
f 19//32 10//32 14//32
f 2//33 1//33 4//33
f 27//34 24//34 15//34
f 24//35 16//35 15//35
f 18//36 22//36 25//36
f 21//37 14//37 28//37
f 28//1 11//1 27//1
f 27//38 15//38 11//38
f 8//39 1//39 6//39
f 28//40 25//40 24//40
f 4//41 14//41 10//41
f 12//42 3//42 17//42
f 3//43 9//43 18//43
f 13//44 12//44 17//44
f 16//45 6//45 2//45
f 26//46 20//46 19//46
f 19//47 23//47 17//47
f 9//48 8//48 22//48
f 18//49 9//49 22//49
f 22//50 6//50 24//50
f 10//51 4//51 11//51
f 7//52 2//52 15//52
f 15//53 2//53 5//53
f 18//54 9//54 8//54
f 22//55 18//55 8//55
f 10//56 11//56 14//56
f 14//57 11//57 21//57
f 21//58 11//58 27//58
f 13//59 10//59 14//59
f 23//60 12//60 17//60
f 23//61 13//61 12//61
f 13//62 14//62 19//62
f 28//63 21//63 27//63
