# Blender 4.0.0
# www.blender.org
o decimated_mesh
v -0.000011 0.008680 -0.060209
v -0.000015 0.008679 -0.050967
v 0.030907 0.008743 -0.042040
v -0.000015 0.044459 -0.083673
v -0.000015 0.019728 -0.074429
v 0.032686 0.044459 -0.077032
v -0.000007 0.044457 -0.088803
v 0.012257 0.008679 -0.058926
v 0.014073 0.019488 -0.072873
v 0.030944 0.008679 -0.051476
v 0.032686 0.024450 -0.063145
v 0.032686 0.044459 -0.082482
v 0.032686 0.024450 -0.070154
v 0.011243 0.039713 -0.086451
v -0.000011 0.040155 -0.087628
v 0.030890 0.019321 -0.067147
v 0.017916 0.039487 -0.085450
v 0.023483 0.008679 -0.055435
v 0.028085 0.019464 -0.068722
v 0.017044 0.044457 -0.087169
v 0.016706 0.041124 -0.086380
v 0.032683 0.039818 -0.081149
vn -1.0000 -0.0000 -0.0000
vn 0.0001 1.0000 -0.0003
vn 0.9940 -0.1097 -0.0000
vn 0.9782 0.1184 0.1706
vn 0.0922 -0.2584 -0.9616
vn 0.0664 -0.5415 -0.8381
vn 0.3530 -0.5443 -0.7610
vn 0.8157 -0.4773 -0.3269
vn 0.2457 -0.5449 -0.8017
vn 0.1482 -0.6672 -0.7299
vn 0.1205 -0.4217 -0.8987
vn 0.1808 -0.7933 -0.5813
vn 0.2768 -0.2656 -0.9235
vn 1.0000 -0.0006 -0.0000
vn 1.0000 -0.0000 -0.0000
vn 1.0000 -0.0002 -0.0005
vn -1.0000 0.0006 -0.0016
vn -1.0000 -0.0003 -0.0007
vn -1.0000 -0.0008 -0.0004
vn 0.0001 -1.0000 -0.0000
vn 0.0001 1.0000 -0.0002
vn 0.9943 -0.1063 0.0047
vn 0.0736 -0.2368 -0.9688
vn 0.0902 -0.2625 -0.9607
vn 0.1064 -0.5439 -0.8324
vn 0.0826 -0.5475 -0.8327
vn 0.3824 -0.5633 -0.7324
vn 0.2365 -0.5494 -0.8014
vn 0.0542 -0.7885 -0.6126
vn 0.0633 -0.7928 -0.6062
vn 0.2019 -0.6905 -0.6945
vn -0.0014 1.0000 -0.0022
vn -0.0001 -1.0000 -0.0001
vn 0.0018 1.0000 -0.0057
vn 0.0036 1.0000 -0.0067
vn 0.1732 -0.7893 -0.5891
vn 0.2860 -0.7923 -0.5390
vn 0.2681 -0.7913 -0.5495
vn 0.2748 -0.2709 -0.9225
vn 0.3553 -0.2493 -0.9009
vn -0.0000 1.0000 -0.0000
vn -0.0001 1.0000 -0.0068
vn 0.2097 -0.6597 -0.7217
vn 0.1429 -0.6963 -0.7034
vn -0.0000 1.0000 -0.0002
vn 0.0869 -0.2626 -0.9610
vn 0.0881 -0.2935 -0.9519
vn 0.2719 -0.3156 -0.9091
vn 0.2804 -0.2653 -0.9225
vn 1.0000 -0.0012 -0.0020
vn 0.0926 -0.2382 -0.9668
vn 0.2781 -0.2479 -0.9280
s 0
f 2//1 4//1 5//1
f 4//2 6//2 20//2
f 11//3 10//3 13//3
f 3//4 11//4 6//4
f 7//5 20//5 14//5
f 5//6 15//6 14//6
f 19//7 22//7 13//7
f 10//8 16//8 13//8
f 22//9 19//9 17//9
f 6//10 2//10 4//10
f 17//11 14//11 21//11
f 18//12 8//12 19//12
f 20//13 12//13 22//13
f 22//14 12//14 6//14
f 6//15 11//15 13//15
f 13//16 22//16 6//16
f 7//17 15//17 4//17
f 15//18 5//18 4//18
f 5//19 1//19 2//19
f 6//20 20//20 12//20
f 20//21 7//21 4//21
f 11//22 3//22 10//22
f 21//23 14//23 20//23
f 14//24 15//24 7//24
f 17//25 9//25 14//25
f 9//26 5//26 14//26
f 13//27 16//27 19//27
f 19//28 9//28 17//28
f 1//29 5//29 9//29
f 9//30 8//30 1//30
f 2//31 6//31 3//31
f 3//32 8//32 2//32
f 2//33 1//33 8//33
f 8//34 3//34 18//34
f 18//35 3//35 10//35
f 9//36 19//36 8//36
f 10//37 18//37 16//37
f 18//38 19//38 16//38
f 22//39 17//39 20//39
f 17//40 21//40 20//40
f 8//41 10//41 18//41
f 8//41 2//41 10//41
f 10//42 2//42 3//42
f 3//43 2//43 4//43
f 6//44 3//44 4//44
f 6//2 20//2 7//2
f 6//45 7//45 4//45
f 7//46 21//46 15//46
f 21//47 14//47 15//47
f 21//48 22//48 17//48
f 21//49 12//49 22//49
f 12//15 6//15 11//15
f 12//15 11//15 13//15
f 12//50 13//50 22//50
f 20//51 21//51 7//51
f 20//52 12//52 21//52
