# Blender 4.0.0
# www.blender.org
o decimated_mesh
v -0.033673 0.053111 0.084362
v -0.033673 0.053117 0.078859
v -0.030237 0.028664 0.067657
v -0.030237 0.028664 0.074354
v -0.030198 0.039797 0.081890
v -0.033686 0.086775 0.084000
v -0.000015 0.028664 0.074181
v -0.016526 0.039954 0.086025
v -0.000015 0.028664 0.080294
v -0.000015 0.086257 0.090360
v -0.015984 0.028664 0.078691
v -0.033673 0.087587 0.085516
v -0.000015 0.087315 0.091301
v -0.033673 0.062382 0.086675
v -0.030053 0.087735 0.087378
v -0.000016 0.087626 0.093067
v -0.033664 0.087017 0.087813
v -0.000018 0.040081 0.087584
v -0.017849 0.063198 0.091437
v -0.017765 0.087736 0.090997
v -0.019083 0.086991 0.092321
v -0.033674 0.084910 0.088507
v -0.000021 0.063248 0.093201
v -0.017297 0.085104 0.093229
v -0.000030 0.086853 0.094409
v -0.000020 0.085001 0.094856
vn -1.0000 0.0055 0.0055
vn -0.9070 0.0632 -0.4163
vn -0.2445 -0.5429 0.8034
vn -0.0898 0.2333 0.9683
vn -0.8390 -0.3030 0.4519
vn 1.0000 -0.0012 0.0005
vn 0.0880 0.8778 -0.4708
vn 0.1497 0.6569 -0.7390
vn -0.0939 -0.0755 0.9927
vn -0.0000 1.0000 -0.0000
vn -0.2693 -0.2329 0.9345
vn -0.1616 0.9577 0.2381
vn -0.2028 -0.2762 0.9394
vn 0.0363 0.9842 -0.1730
vn -0.0952 -0.2309 0.9683
vn -0.9903 -0.1392 -0.0000
vn -0.2836 -0.0778 0.9558
vn 0.0103 0.9993 -0.0352
vn -0.2739 0.1939 0.9420
vn -1.0000 -0.0000 -0.0000
vn -1.0000 -0.0002 0.0027
vn -1.0000 0.0064 0.0055
vn -1.0000 -0.0005 0.0006
vn -0.2386 -0.5371 0.8091
vn 0.9998 0.0091 0.0156
vn -1.0000 0.0002 -0.0010
vn -1.0000 0.0007 -0.0008
vn -1.0000 -0.0001 -0.0001
vn -1.0000 -0.0003 -0.0000
vn -1.0000 0.0002 -0.0007
vn -0.0837 -0.5457 0.8338
vn -0.0752 -0.5367 0.8404
vn -0.0980 -0.0787 0.9921
vn -0.0000 -1.0000 -0.0000
vn -0.2692 -0.2330 0.9345
vn -0.2781 -0.2451 0.9287
vn -0.1167 0.9109 0.3959
vn -0.1280 0.8988 0.4192
vn -0.0473 0.8901 0.4533
vn -0.1829 -0.2659 0.9465
vn -0.0483 0.8659 0.4979
vn 0.0323 0.9894 -0.1413
vn -0.0896 -0.2347 0.9679
vn -0.9903 -0.1391 -0.0001
vn -0.2756 -0.0715 0.9586
vn -0.0993 0.3534 0.9302
vn -0.2811 0.3014 0.9111
vn -0.1825 -0.2762 0.9436
vn -1.0000 -0.0004 -0.0000
vn -1.0000 -0.0004 0.0015
vn -1.0000 0.0060 0.0053
vn -0.2035 -0.2648 0.9426
vn 1.0000 -0.0000 -0.0000
vn -0.2694 -0.2330 0.9344
vn -0.2692 -0.2329 0.9345
vn -1.0000 0.0065 0.0058
vn 0.0293 0.9903 -0.1355
vn 0.0377 0.9842 -0.1730
vn 1.0000 -0.0002 0.0012
vn 1.0000 -0.0002 0.0013
vn 1.0000 -0.0001 0.0006
s 0
f 17//1 12//1 6//1
f 2//2 6//2 3//2
f 5//3 4//3 11//3
f 25//4 24//4 26//4
f 5//5 1//5 4//5
f 13//6 16//6 26//6
f 6//7 12//7 13//7
f 6//8 13//8 10//8
f 24//9 23//9 26//9
f 7//10 3//10 11//10
f 8//11 19//11 1//11
f 12//12 17//12 15//12
f 6//13 3//13 7//13
f 13//14 15//14 16//14
f 19//15 8//15 23//15
f 4//16 2//16 3//16
f 19//17 22//17 14//17
f 15//18 20//18 16//18
f 22//19 24//19 21//19
f 1//20 14//20 2//20
f 14//21 22//21 6//21
f 22//22 17//22 6//22
f 6//23 2//23 14//23
f 8//24 5//24 11//24
f 16//25 25//25 26//25
f 26//26 10//26 23//26
f 26//27 13//27 10//27
f 23//28 7//28 18//28
f 18//29 7//29 9//29
f 7//30 23//30 10//30
f 11//31 9//31 8//31
f 9//32 18//32 8//32
f 24//33 19//33 23//33
f 9//34 11//34 7//34
f 11//10 3//10 4//10
f 19//35 14//35 1//35
f 1//36 5//36 8//36
f 20//37 15//37 21//37
f 15//38 17//38 21//38
f 21//39 16//39 20//39
f 6//40 7//40 10//40
f 21//41 25//41 16//41
f 13//42 12//42 15//42
f 8//43 18//43 23//43
f 4//44 1//44 2//44
f 19//45 24//45 22//45
f 24//46 25//46 21//46
f 21//47 17//47 22//47
f 10//48 6//48 3//48
f 2//49 1//49 6//49
f 1//50 14//50 6//50
f 22//51 12//51 6//51
f 7//52 10//52 3//52
f 13//53 9//53 7//53
f 13//53 7//53 10//53
f 7//10 4//10 11//10
f 7//10 3//10 4//10
f 4//16 1//16 3//16
f 1//44 2//44 3//44
f 8//54 14//54 1//54
f 8//55 19//55 14//55
f 17//56 12//56 22//56
f 15//57 16//57 12//57
f 16//58 13//58 12//58
f 26//59 23//59 13//59
f 23//60 18//60 13//60
f 18//61 9//61 13//61
