# Blender 4.0.0
# www.blender.org
o decimated_mesh
v -0.085498 0.087712 0.034912
v -0.086920 0.087340 0.034914
v -0.083998 0.087155 0.034913
v -0.091301 0.087313 0.000022
v -0.093072 0.087624 0.000023
v -0.090990 0.087731 0.017830
v -0.088437 0.086845 0.032196
v -0.088099 0.085174 0.034908
v -0.090361 0.086255 0.000022
v -0.092337 0.087007 0.018978
v -0.083158 0.085717 0.034913
v -0.094411 0.086855 0.000038
v -0.065157 0.028664 0.034913
v -0.093175 0.085062 0.017660
v -0.094849 0.085099 0.000024
v -0.072052 0.028664 0.034913
v -0.074179 0.028664 0.000022
v -0.080294 0.028664 0.000022
v -0.080275 0.040012 0.034906
v -0.091317 0.062253 0.017916
v -0.093207 0.063204 0.000028
v -0.080781 0.039787 0.033735
v -0.074063 0.028664 0.031019
v -0.086307 0.062545 0.034908
v -0.087629 0.040163 0.000024
v -0.084641 0.039607 0.020897
v -0.086099 0.040025 0.016231
v -0.078689 0.028664 0.015988
vn -0.0011 -0.0006 1.0000
vn -0.9450 -0.2655 0.1910
vn 0.3472 0.9353 -0.0684
vn 0.1725 0.9842 -0.0399
vn 0.8512 0.4973 -0.1680
vn -0.7472 -0.5412 0.3858
vn -0.8148 0.4427 0.3744
vn -0.0000 -1.0000 -0.0000
vn -0.9287 -0.2401 0.2826
vn -0.9681 -0.2341 0.0898
vn 0.0006 0.0002 1.0000
vn -0.2521 0.9642 0.0822
vn -0.5837 0.7914 0.1819
vn -0.8753 -0.2343 0.4231
vn -0.9917 -0.0797 0.1005
vn -0.8011 -0.5445 0.2485
vn -0.0011 -0.0001 1.0000
vn -0.0007 -0.0003 1.0000
vn -0.0005 -0.0001 1.0000
vn -0.0000 0.0006 1.0000
vn -0.0010 -0.0007 1.0000
vn 0.0025 -0.0042 1.0000
vn -0.9259 -0.2921 0.2394
vn -0.7283 -0.5422 0.4189
vn -0.4969 0.8665 0.0474
vn 0.0350 0.9993 -0.0101
vn -0.0000 1.0000 -0.0000
vn -0.9306 -0.2377 0.2785
vn -0.9326 -0.2394 0.2700
vn -0.9663 0.2404 0.0922
vn -0.9251 0.2609 0.2761
vn -0.9366 0.2180 0.2742
vn -0.9561 -0.0757 0.2832
vn -0.9565 -0.0748 0.2820
vn -0.9365 0.3360 0.0999
vn 0.7390 0.6564 -0.1517
vn -0.9680 -0.2344 0.0894
vn -0.0000 -0.0002 1.0000
vn 0.0001 -0.0001 1.0000
vn 0.0003 0.0002 1.0000
vn -0.0193 0.0132 -0.9997
vn -0.0004 -0.0002 -1.0000
vn 0.0003 0.0003 1.0000
vn -0.3929 0.9124 0.1145
vn -0.4422 0.8957 0.0463
vn -0.8407 -0.5363 0.0748
vn -0.8338 -0.5456 0.0838
vn -0.9928 -0.0745 0.0941
vn -0.8173 -0.5375 0.2073
vn -0.8007 -0.5460 0.2464
vn -0.0047 -0.0003 1.0000
vn -0.0009 -0.0002 1.0000
vn -0.0000 -0.0000 1.0000
vn 0.0003 0.0001 1.0000
vn 0.0002 -0.0000 1.0000
vn 0.0004 0.0035 1.0000
vn -0.0016 -0.0005 1.0000
vn -0.7350 -0.5324 0.4199
vn -0.7454 -0.5442 0.3849
vn -0.9342 -0.2625 0.2416
vn -0.9365 -0.2955 0.1888
vn -0.0000 -0.0000 -1.0000
vn -0.0005 -0.0001 -1.0000
vn -0.0004 -0.0001 -1.0000
vn -0.0020 -0.0003 -1.0000
s 0
f 3//1 1//1 8//1
f 11//2 9//2 17//2
f 1//3 3//3 4//3
f 1//4 4//4 5//4
f 3//5 11//5 9//5
f 19//6 23//6 16//6
f 8//7 2//7 7//7
f 13//8 16//8 23//8
f 26//9 22//9 24//9
f 20//10 21//10 27//10
f 9//11 21//11 17//11
f 2//12 1//12 6//12
f 10//13 7//13 2//13
f 19//14 24//14 22//14
f 14//15 21//15 20//15
f 23//16 22//16 26//16
f 8//17 24//17 11//17
f 24//18 19//18 13//18
f 11//19 24//19 13//19
f 19//20 16//20 13//20
f 11//21 3//21 8//21
f 1//22 2//22 8//22
f 11//23 17//23 13//23
f 19//24 22//24 23//24
f 12//25 10//25 5//25
f 6//26 1//26 5//26
f 23//27 13//27 28//27
f 28//27 17//27 18//27
f 13//27 17//27 28//27
f 24//28 20//28 26//28
f 20//29 27//29 26//29
f 12//30 15//30 14//30
f 7//31 10//31 8//31
f 8//32 10//32 14//32
f 24//33 8//33 20//33
f 8//34 14//34 20//34
f 12//35 14//35 10//35
f 9//36 4//36 3//36
f 21//37 25//37 27//37
f 17//38 25//38 18//38
f 25//39 17//39 21//39
f 21//40 9//40 15//40
f 15//41 12//41 5//41
f 5//42 4//42 15//42
f 4//43 15//43 9//43
f 6//44 10//44 2//44
f 6//45 5//45 10//45
f 25//46 18//46 27//46
f 18//47 28//47 27//47
f 14//48 15//48 21//48
f 27//49 28//49 26//49
f 28//50 23//50 26//50
f 8//51 24//51 2//51
f 24//52 16//52 2//52
f 16//53 13//53 2//53
f 13//54 11//54 2//54
f 11//55 3//55 2//55
f 3//56 1//56 2//56
f 19//57 16//57 24//57
f 23//27 18//27 28//27
f 23//27 17//27 18//27
f 23//27 13//27 17//27
f 19//58 22//58 16//58
f 22//59 23//59 16//59
f 17//60 13//60 9//60
f 9//61 13//61 11//61
f 18//62 4//62 9//62
f 18//62 9//62 17//62
f 18//63 25//63 4//63
f 25//64 15//64 4//64
f 25//65 21//65 15//65
