# Blender 4.0.0
# www.blender.org
o decimated_mesh
v -0.078461 0.044383 -0.028451
v -0.083755 0.044383 -0.028451
v -0.083652 0.044383 0.000015
v -0.042640 0.008971 -0.031763
v -0.064093 0.024899 -0.031729
v -0.070987 0.024899 -0.031729
v -0.088778 0.044383 0.000006
v -0.050466 0.008559 0.000015
v -0.042835 0.008559 -0.027000
v -0.082461 0.039781 -0.028414
v -0.060021 0.008559 0.000015
v -0.050875 0.008559 -0.031729
v -0.087551 0.040015 0.000012
v -0.085973 0.039889 -0.016627
v -0.087160 0.044382 -0.016975
v -0.067312 0.019630 -0.031678
v -0.074420 0.019748 0.000015
v -0.072920 0.019630 -0.014643
v -0.057217 0.008557 -0.018918
vn -0.0003 1.0000 -0.0000
vn 0.2477 0.3356 -0.9089
vn -0.7929 -0.5556 -0.2503
vn -0.0000 -0.0000 1.0000
vn -0.0039 -0.0032 -1.0000
vn 0.0002 -1.0000 0.0001
vn -0.0000 0.1659 -0.9861
vn -0.6003 -0.7750 -0.1977
vn -0.7271 -0.6736 -0.1326
vn -0.5898 -0.8028 -0.0872
vn 0.4228 0.1261 0.8974
vn -0.9610 -0.2609 -0.0915
vn -0.0000 1.0000 0.0002
vn -0.0000 1.0000 -0.0001
vn -0.0019 0.0010 1.0000
vn -0.0005 -0.0002 1.0000
vn -0.0068 -0.0055 -1.0000
vn -0.0000 -0.0096 -1.0000
vn -0.0000 -1.0000 0.0001
vn 0.0001 -1.0000 -0.0002
vn 0.0494 -0.9952 -0.0840
vn -0.7915 -0.5529 -0.2606
vn -0.8064 -0.5426 -0.2353
vn -0.6914 -0.6955 -0.1953
vn 0.7044 0.7041 0.0897
vn -0.6126 -0.7884 -0.0563
vn -0.8369 -0.5422 -0.0752
vn -0.8342 -0.5454 -0.0809
vn -0.9589 -0.2695 -0.0889
vn -0.5389 -0.7989 -0.2670
vn -0.9243 -0.2654 -0.2743
vn -0.9255 -0.2624 -0.2733
vn -0.0000 1.0000 -0.0000
vn -0.7007 -0.7020 -0.1278
vn -0.0013 1.0000 -0.0002
vn -0.9251 -0.2623 -0.2745
vn -0.7183 -0.6654 -0.2029
vn -0.0038 -0.0047 -1.0000
vn -0.0000 0.0021 -1.0000
vn -0.9247 -0.2654 -0.2731
vn -0.0180 -0.0221 -0.9996
vn -0.7907 -0.5541 -0.2603
vn -0.7918 -0.5526 -0.2600
s 0
f 3//1 1//1 15//1
f 1//2 4//2 5//2
f 6//3 16//3 10//3
f 17//4 11//4 8//4
f 5//5 4//5 12//5
f 9//6 8//6 19//6
f 6//7 1//7 5//7
f 18//8 16//8 19//8
f 1//9 8//9 3//9
f 18//10 19//10 11//10
f 2//11 10//11 6//11
f 15//12 14//12 7//12
f 2//13 15//13 1//13
f 15//14 7//14 3//14
f 7//15 13//15 3//15
f 13//16 17//16 3//16
f 3//4 17//4 8//4
f 12//17 16//17 5//17
f 16//18 6//18 5//18
f 8//19 11//19 19//19
f 19//20 12//20 9//20
f 12//21 4//21 9//21
f 6//7 2//7 1//7
f 10//22 16//22 18//22
f 18//23 14//23 10//23
f 8//24 1//24 9//24
f 9//25 4//25 1//25
f 11//26 17//26 18//26
f 13//27 14//27 17//27
f 17//28 14//28 18//28
f 14//29 13//29 7//29
f 16//30 12//30 19//30
f 15//31 2//31 14//31
f 14//32 2//32 10//32
f 2//33 3//33 1//33
f 3//34 1//34 9//34
f 5//7 6//7 2//7
f 5//7 2//7 1//7
f 15//35 7//35 2//35
f 7//33 3//33 2//33
f 10//36 15//36 2//36
f 17//4 11//4 3//4
f 11//4 8//4 3//4
f 8//37 3//37 9//37
f 12//38 6//38 4//38
f 6//39 5//39 4//39
f 10//40 14//40 15//40
f 12//41 16//41 6//41
f 16//42 18//42 6//42
f 18//43 10//43 6//43
