# Blender 4.0.0
# www.blender.org
o decimated_mesh
v -0.069857 0.044388 -0.054245
v -0.063305 0.044388 -0.054245
v -0.071690 0.085811 -0.054245
v -0.090294 0.086150 0.000015
v -0.083656 0.044392 0.000015
v -0.075466 0.062496 -0.054245
v -0.076851 0.062473 -0.052533
v -0.088765 0.044392 0.000009
v -0.073712 0.044388 -0.049460
v -0.087106 0.044393 -0.017180
v -0.091299 0.087315 0.000015
v -0.072962 0.087327 -0.054247
v -0.078969 0.062152 -0.048923
v -0.082147 0.044389 -0.033725
v -0.093077 0.087621 0.000015
v -0.078986 0.084830 -0.052678
v -0.077694 0.084910 -0.054244
v -0.094229 0.087004 0.000008
v -0.077605 0.087717 -0.050340
v -0.086439 0.062691 -0.034651
v -0.093200 0.063207 0.000008
v -0.091438 0.063205 -0.017857
v -0.090915 0.087734 -0.018163
v -0.092327 0.087043 -0.018765
v -0.094676 0.085806 0.000013
v -0.075759 0.087443 -0.054246
v -0.086735 0.087418 -0.034936
v -0.078790 0.086199 -0.052370
v -0.077148 0.086642 -0.054246
v -0.087656 0.083419 -0.036171
v -0.087732 0.085458 -0.035749
v -0.094832 0.083849 0.000007
v -0.078437 0.087035 -0.052068
v -0.086450 0.086861 -0.037649
v -0.093109 0.083868 -0.017857
v -0.092854 0.085822 -0.018505
v -0.093973 0.086687 -0.005641
v -0.093997 0.084917 -0.009651
v -0.090214 0.084802 -0.028188
v -0.088689 0.086836 -0.031405
vn -0.8858 0.0622 -0.4599
vn -0.1105 0.9928 -0.0462
vn -0.7706 0.4772 -0.4224
vn 0.0416 0.9979 -0.0501
vn -0.7193 0.6910 -0.0714
vn -0.5555 0.8133 -0.1733
vn -0.9920 -0.0802 -0.0978
vn -0.4075 0.8852 -0.2244
vn -0.8666 -0.2257 -0.4451
vn -0.9044 0.3337 -0.2658
vn -0.9732 0.2126 -0.0879
vn -0.3144 0.9251 -0.2132
vn -0.7670 -0.0773 -0.6370
vn -0.9693 -0.2267 -0.0956
vn -0.9357 -0.1487 -0.3199
vn -0.7414 -0.6226 -0.2503
vn -0.8716 0.1777 -0.4569
vn -0.0000 -0.0000 -1.0000
vn -0.7581 0.2377 -0.6073
vn -0.9889 0.0899 -0.1185
vn -0.4554 0.7891 -0.4122
vn 0.0229 0.9997 0.0089
vn -0.6210 0.7524 -0.2196
vn 0.1166 0.9924 0.0396
vn -0.8840 -0.0856 -0.4595
vn -0.9222 0.2670 -0.2796
vn -0.3962 0.9108 -0.1159
vn -0.4235 0.9048 -0.0447
vn -0.9923 -0.0784 -0.0957
vn -0.3581 0.9146 -0.1880
vn -0.8303 -0.2304 -0.5075
vn -0.8557 -0.2394 -0.4587
vn -0.7120 0.4838 -0.5089
vn -0.9289 0.2410 -0.2810
vn -0.7544 -0.2337 -0.6134
vn -0.7570 -0.2350 -0.6097
vn -0.9655 0.2403 -0.1001
vn -0.7746 -0.0769 -0.6277
vn -0.9691 -0.2284 -0.0935
vn -0.0004 -0.0005 1.0000
vn -0.0004 -0.0006 1.0000
vn -0.0098 0.0077 0.9999
vn -0.0002 -0.0028 1.0000
vn -0.0016 -0.0001 1.0000
vn -0.0013 -0.0003 1.0000
vn -0.0011 -0.0002 1.0000
vn -0.9199 -0.1862 -0.3450
vn -0.9582 -0.0775 -0.2755
vn -0.9560 -0.0808 -0.2821
vn -0.9533 -0.0774 -0.2920
vn -0.9210 0.3749 -0.1053
vn -0.7332 -0.6332 -0.2479
vn -0.8600 0.2258 -0.4576
vn -0.9352 0.3487 -0.0620
vn -0.4715 0.8807 -0.0459
vn -0.0003 0.0001 -1.0000
vn 0.0007 -0.0016 -1.0000
vn -0.0004 -0.0009 -1.0000
vn -0.0000 -0.0015 -1.0000
vn -0.9340 -0.2328 -0.2709
vn -0.9334 -0.2250 -0.2797
vn -0.7539 0.2448 -0.6097
vn -0.9913 -0.0909 -0.0957
vn -0.9939 0.0794 -0.0771
vn -0.8728 0.3758 -0.3114
vn 0.1696 0.9840 0.0540
vn -0.0000 1.0000 0.0001
vn 0.0005 1.0000 -0.0001
vn -0.0000 1.0000 -0.0001
vn -0.0001 1.0000 -0.0001
vn -0.0000 -1.0000 -0.0000
vn -0.8798 -0.0783 -0.4688
vn -0.8561 -0.0850 -0.5098
vn -0.9505 0.0286 -0.3095
vn -0.9631 0.0374 -0.2665
vn -0.0002 -0.0001 -1.0000
vn 0.0024 0.0005 -1.0000
vn -0.0008 -0.0000 -1.0000
vn -0.0001 -0.0014 -1.0000
vn 0.1145 0.9927 0.0371
vn 0.1695 0.9838 0.0575
vn -0.9294 -0.1881 -0.3175
vn -0.9261 -0.1472 -0.3473
vn 0.0001 1.0000 -0.0001
vn -0.7746 -0.0780 -0.6277
vn -0.7671 -0.0762 -0.6370
vn -0.7552 0.2368 -0.6112
vn -0.7576 0.2443 -0.6053
vn -0.3526 0.9160 -0.1912
vn -0.0006 -0.0001 1.0000
vn 0.0002 -0.0000 1.0000
vn -0.0014 -0.0003 1.0000
vn 0.0013 1.0000 0.0002
vn -0.9316 -0.2326 -0.2792
vn -0.4231 0.8778 -0.2245
vn -0.0181 -0.0014 0.9998
vn -0.9924 -0.0784 -0.0944
vn -0.9921 -0.0797 -0.0972
vn -0.9357 -0.2253 -0.2716
vn -0.9266 0.2479 -0.2827
vn -0.9263 0.2531 -0.2792
s 0
f 31//1 16//1 30//1
f 27//2 23//2 19//2
f 28//3 34//3 33//3
f 26//4 19//4 12//4
f 24//5 37//5 18//5
f 27//6 40//6 24//6
f 21//7 35//7 22//7
f 19//8 34//8 27//8
f 14//9 20//9 13//9
f 36//10 24//10 40//10
f 37//11 38//11 25//11
f 26//12 33//12 19//12
f 17//13 7//13 16//13
f 21//14 22//14 10//14
f 5//15 4//15 3//15
f 12//16 3//16 4//16
f 34//17 16//17 31//17
f 3//18 2//18 6//18
f 17//19 28//19 29//19
f 38//20 36//20 35//20
f 26//21 29//21 33//21
f 19//22 23//22 15//22
f 40//23 27//23 34//23
f 19//24 11//24 12//24
f 13//25 20//25 30//25
f 36//26 31//26 39//26
f 27//27 24//27 23//27
f 24//28 15//28 23//28
f 21//29 32//29 35//29
f 33//30 34//30 19//30
f 13//31 7//31 9//31
f 9//32 14//32 13//32
f 33//33 29//33 28//33
f 31//34 36//34 40//34
f 6//35 1//35 7//35
f 1//36 9//36 7//36
f 37//37 36//37 38//37
f 17//38 6//38 7//38
f 8//39 21//39 10//39
f 4//40 11//40 25//40
f 11//41 15//41 25//41
f 15//42 18//42 25//42
f 25//43 32//43 4//43
f 32//44 21//44 4//44
f 21//45 8//45 5//45
f 5//46 4//46 21//46
f 5//47 3//47 2//47
f 22//48 35//48 39//48
f 20//49 22//49 39//49
f 39//50 30//50 20//50
f 36//51 37//51 24//51
f 12//52 4//52 11//52
f 34//53 28//53 16//53
f 18//54 37//54 25//54
f 24//55 18//55 15//55
f 2//18 1//18 6//18
f 6//56 17//56 3//56
f 17//57 29//57 26//57
f 26//58 12//58 17//58
f 12//59 3//59 17//59
f 22//60 20//60 14//60
f 10//61 22//61 14//61
f 17//62 16//62 28//62
f 35//63 32//63 38//63
f 32//64 25//64 38//64
f 40//65 34//65 31//65
f 19//66 15//66 11//66
f 8//67 5//67 10//67
f 10//68 5//68 14//68
f 5//69 2//69 14//69
f 14//70 2//70 9//70
f 9//71 1//71 2//71
f 30//72 16//72 13//72
f 16//73 7//73 13//73
f 31//74 30//74 39//74
f 39//75 35//75 36//75
f 12//18 2//18 1//18
f 6//76 12//76 1//76
f 3//77 2//77 12//77
f 6//78 17//78 12//78
f 17//79 29//79 12//79
f 29//56 26//56 12//56
f 19//80 15//80 12//80
f 15//81 11//81 12//81
f 3//82 2//82 4//82
f 4//83 2//83 5//83
f 5//69 2//69 9//69
f 5//69 9//69 8//69
f 8//84 9//84 14//84
f 16//85 6//85 7//85
f 16//86 17//86 6//86
f 16//87 29//87 17//87
f 16//88 28//88 29//88
f 33//89 27//89 19//89
f 25//90 5//90 11//90
f 5//91 4//91 11//91
f 25//92 21//92 5//92
f 10//93 8//93 14//93
f 10//94 20//94 14//94
f 34//95 27//95 33//95
f 32//96 21//96 25//96
f 32//97 38//97 21//97
f 38//98 35//98 21//98
f 10//99 22//99 20//99
f 39//100 40//100 31//100
f 39//101 36//101 40//101
