# Blender 4.0.0
# www.blender.org
o decimated_mesh
v 0.929550 1.537917 -0.297379
v 0.909133 1.537917 -0.297379
v 0.898992 1.537926 -0.441532
v 0.899200 1.288078 -0.297363
v 0.928490 1.306147 -0.297379
v 0.926859 1.306242 -0.428826
v 0.899684 1.302062 -0.438522
v 0.909539 1.288046 -0.297379
v 0.926938 1.537916 -0.430184
v 0.909539 1.288046 -0.399118
v 0.899694 1.288331 -0.416708
vn -0.0000 0.0001 1.0000
vn 0.9999 -0.0046 -0.0124
vn -0.9968 0.0396 0.0701
vn 0.3375 -0.0110 -0.9412
vn 0.4463 -0.8552 -0.2636
vn -0.0031 -1.0000 -0.0000
vn 0.3050 -0.8059 -0.5074
vn 0.0016 -0.0016 1.0000
vn 0.0006 -0.0000 1.0000
vn -1.0000 -0.0073 -0.0042
vn -1.0000 -0.0030 -0.0037
vn -0.0000 1.0000 0.0001
vn 0.0004 1.0000 -0.0000
vn 0.9998 -0.0005 -0.0197
vn 0.3762 -0.0056 -0.9265
vn 0.7166 -0.6974 -0.0094
vn 0.6907 -0.7231 -0.0000
vn -0.0250 -0.9997 -0.0022
s 0
f 1//1 2//1 4//1
f 5//2 6//2 1//2
f 2//3 3//3 4//3
f 3//4 6//4 7//4
f 11//5 6//5 10//5
f 10//6 8//6 4//6
f 6//7 11//7 7//7
f 8//8 5//8 4//8
f 5//9 1//9 4//9
f 7//10 11//10 4//10
f 4//11 3//11 7//11
f 2//12 1//12 3//12
f 1//13 9//13 3//13
f 6//14 9//14 1//14
f 3//15 9//15 6//15
f 6//16 5//16 10//16
f 5//17 8//17 10//17
f 4//18 11//18 10//18
