# Blender 4.0.0
# www.blender.org
o decimated_mesh
v -0.751698 1.296249 0.055939
v -0.751700 1.345529 0.059987
v -0.895850 1.295205 0.057939
v -0.895846 1.353441 0.058658
v -0.751702 1.317297 -0.415584
v -0.895352 1.308257 -0.415840
v -0.751702 1.288392 -0.415584
vn -0.0099 -0.0123 0.9999
vn -0.1369 -0.9902 -0.0274
vn 0.0018 -0.0000 -1.0000
vn 0.0144 -0.0819 0.9965
vn -0.0624 0.9936 -0.0947
vn 1.0000 -0.0000 -0.0000
vn -1.0000 0.0001 -0.0010
vn 0.0075 -0.9998 0.0167
vn 0.0553 0.9967 -0.0592
s 0
f 2//1 4//1 3//1
f 7//2 3//2 6//2
f 6//3 5//3 7//3
f 2//4 3//4 1//4
f 4//5 5//5 6//5
f 7//6 5//6 1//6
f 5//6 2//6 1//6
f 4//7 6//7 3//7
f 7//8 1//8 3//8
f 4//9 2//9 5//9
