# Blender 4.0.0
# www.blender.org
o decimated_mesh
v -0.914342 0.825749 -0.448343
v -0.913851 0.802298 -0.445847
v 0.914531 0.803586 -0.447054
v -0.930584 0.801937 -0.430622
v -0.928328 0.814657 -0.443687
v -0.931304 0.829864 -0.430445
v 0.913760 0.827811 -0.447357
v -0.914151 0.792976 -0.417968
v 0.911154 0.793391 -0.426023
v -0.934919 0.814662 -0.417627
v -0.916640 0.841262 -0.430597
v 0.913783 0.842361 -0.429477
v 0.931134 0.829935 -0.430619
v 0.928338 0.814657 -0.443687
v 0.930778 0.801985 -0.430412
v -0.914189 0.792506 0.415010
v -0.930781 0.802248 0.430729
v -0.934919 0.814662 0.417636
v -0.922107 0.840140 0.417636
v -0.930401 0.829922 0.432310
v 0.934929 0.814662 -0.417627
v -0.913076 0.800946 0.445127
v 0.914657 0.792876 0.417890
v -0.928328 0.814657 0.443697
v -0.910154 0.842700 0.430429
v 0.922117 0.840140 0.417636
v 0.931307 0.829390 0.430941
v 0.932316 0.804045 0.430753
v 0.913936 0.802876 0.447012
v -0.913526 0.825298 0.449064
v 0.909090 0.842677 0.431087
v 0.928338 0.814657 0.443697
v 0.916625 0.828968 0.446059
vn -0.9591 0.2830 0.0010
vn -0.5062 -0.8624 0.0002
vn 0.9992 0.0398 0.0036
vn -0.5581 -0.5443 -0.6263
vn -0.2360 -0.1077 -0.9658
vn -0.5879 0.4628 -0.6635
vn -0.4909 0.6235 -0.6086
vn -0.3914 0.7068 0.5893
vn 0.0007 -0.9458 0.3248
vn -0.2611 -0.9146 -0.3087
vn -0.9664 -0.0796 -0.2444
vn -0.9692 0.0238 -0.2451
vn 0.1918 0.9814 0.0007
vn 0.4569 0.6897 -0.5618
vn 0.5851 0.4626 -0.6661
vn 0.2403 -0.0045 -0.9707
vn 0.5786 -0.5342 -0.6163
vn 0.7599 0.6500 0.0003
vn -0.7759 0.6309 0.0008
vn -0.0001 0.7756 -0.6312
vn -0.0002 1.0000 0.0006
vn 0.5513 0.7347 0.3953
vn 0.9690 0.0323 -0.2451
vn 0.9671 -0.0700 -0.2446
vn 0.2996 -0.8765 -0.3768
vn -0.2859 -0.9199 0.2684
vn -0.9675 -0.0644 0.2447
vn -0.9682 0.0512 0.2449
vn -0.0006 1.0000 -0.0017
vn -0.9487 -0.3162 -0.0000
vn 0.0003 -0.8999 -0.4362
vn -0.5516 -0.5480 0.6288
vn 0.3339 -0.8889 0.3135
vn -0.5687 0.4408 0.6945
vn 0.5340 -0.8455 0.0011
vn -0.2094 0.9778 -0.0001
vn 0.9632 0.0364 0.2662
vn -0.2332 -0.1594 0.9593
vn 0.5789 -0.5343 0.6160
vn 0.0016 0.0363 0.9993
vn 0.6444 0.4222 0.6376
vn 0.2137 0.0137 0.9768
vn -0.0004 0.7374 0.6754
vn -0.9729 0.2313 -0.0000
vn -0.4784 -0.8781 -0.0005
vn 0.9705 0.2411 -0.0000
vn -0.0009 -0.1596 0.9872
vn -0.0002 -0.9629 0.2699
vn -0.4904 0.8204 0.2941
vn -0.0006 -0.1058 -0.9944
vn 0.5821 0.8131 -0.0036
vn -0.6137 0.7896 -0.0029
vn -0.0005 0.7529 -0.6582
vn 0.3892 0.8292 0.4011
vn -0.0000 1.0000 -0.0004
vn 0.9506 -0.3103 -0.0010
vn -0.9466 -0.3224 -0.0001
vn 0.4007 -0.9162 -0.0022
vn -0.0012 -0.9484 -0.3171
vn 0.0006 -0.0125 -0.9999
vn -0.0002 0.7309 0.6825
vn -0.0002 0.7375 0.6754
vn -0.0003 0.7309 0.6825
vn 0.4567 0.7586 0.4647
vn 0.4879 0.8124 0.3193
s 0
f 6//1 18//1 20//1
f 4//2 16//2 17//2
f 21//3 27//3 28//3
f 2//4 4//4 5//4
f 2//5 5//5 1//5
f 1//6 5//6 6//6
f 1//7 6//7 11//7
f 25//8 20//8 30//8
f 22//9 23//9 29//9
f 2//10 8//10 4//10
f 4//11 10//11 5//11
f 6//12 5//12 10//12
f 26//13 12//13 31//13
f 7//14 12//14 13//14
f 7//15 13//15 14//15
f 7//16 14//16 3//16
f 3//17 14//17 15//17
f 13//18 26//18 27//18
f 19//19 6//19 20//19
f 7//20 11//20 12//20
f 16//21 23//21 9//21
f 33//22 26//22 31//22
f 13//23 21//23 14//23
f 15//24 14//24 21//24
f 15//25 9//25 3//25
f 16//26 22//26 17//26
f 18//27 17//27 24//27
f 18//28 24//28 20//28
f 25//29 12//29 11//29
f 10//30 17//30 18//30
f 2//31 3//31 9//31
f 17//32 22//32 24//32
f 23//33 28//33 29//33
f 20//34 24//34 30//34
f 23//35 15//35 28//35
f 11//36 19//36 25//36
f 28//37 27//37 32//37
f 22//38 30//38 24//38
f 28//39 32//39 29//39
f 30//40 29//40 33//40
f 27//41 33//41 32//41
f 32//42 33//42 29//42
f 31//43 30//43 33//43
f 6//44 10//44 18//44
f 4//45 8//45 16//45
f 21//46 13//46 27//46
f 30//47 22//47 29//47
f 22//48 16//48 23//48
f 20//49 25//49 19//49
f 2//50 1//50 3//50
f 13//51 12//51 26//51
f 19//52 11//52 6//52
f 7//53 1//53 11//53
f 16//21 9//21 8//21
f 33//54 27//54 26//54
f 25//55 31//55 12//55
f 15//56 21//56 28//56
f 10//57 4//57 17//57
f 23//58 9//58 15//58
f 8//59 2//59 9//59
f 3//60 1//60 7//60
f 31//61 25//61 30//61
f 9//21 8//21 23//21
f 23//21 8//21 16//21
f 33//62 31//62 25//62
f 30//63 33//63 25//63
f 27//64 31//64 33//64
f 27//65 26//65 31//65
