# Blender 4.0.0
# www.blender.org
o decimated_mesh
v -0.904584 1.691810 -0.440055
v -0.927785 1.691780 -0.429892
v -0.914868 1.757383 -0.445406
v -0.904553 1.761954 -0.445525
v -0.900851 1.691888 0.058311
v -0.932668 1.755971 -0.433946
v -0.894804 1.781873 -0.202563
v -0.894964 1.707241 0.058643
v -0.937607 1.757275 -0.416145
v -0.894763 1.781731 0.042699
v -0.904584 1.776560 -0.434709
v -0.904584 1.782059 -0.417670
v -0.929601 1.774837 -0.430435
v -0.918916 1.780560 -0.417670
v -0.918122 1.779833 0.040737
v -0.894705 1.755322 0.065311
v -0.914643 1.691819 0.058764
v -0.928316 1.691810 0.041570
v -0.931499 1.774546 0.027784
v -0.928825 1.770271 0.057397
v -0.929585 1.741120 0.056959
v -0.937053 1.755049 0.037378
v -0.895002 1.774486 0.058928
vn 0.0230 -0.0777 -0.9967
vn -0.1172 0.9451 -0.3051
vn -0.0819 0.3138 0.9459
vn -0.3974 -0.1364 -0.9075
vn -0.5337 -0.0937 -0.8405
vn -0.4986 0.8505 0.1678
vn 0.0063 1.0000 0.0006
vn -1.0000 0.0043 0.0076
vn -0.9614 -0.0896 -0.2602
vn -0.0332 0.1128 -0.9931
vn 0.9893 0.1390 -0.0449
vn -0.9394 0.2040 -0.2756
vn -0.5391 0.2380 -0.8079
vn -0.1755 0.5856 -0.7914
vn -0.9297 0.0187 0.3679
vn -0.9614 0.2751 0.0025
vn -0.2932 0.1329 -0.9468
vn -0.1040 0.9946 0.0018
vn -0.1308 0.8938 0.4289
vn -0.2366 -0.0258 0.9713
vn -0.1550 -0.0108 0.9879
vn -0.7652 -0.2097 0.6087
vn -0.3668 0.9303 -0.0009
vn -0.9337 0.3579 0.0069
vn -0.2357 0.5104 -0.8270
vn -0.9343 0.3312 0.1322
vn -0.9889 -0.1484 0.0005
vn -0.0979 0.9361 -0.3378
vn -0.9979 0.0627 0.0173
vn -1.0000 0.0002 -0.0032
vn -0.9991 -0.0027 0.0422
vn -1.0000 0.0027 0.0002
vn 0.9994 0.0240 0.0255
vn -0.9525 -0.1128 0.2830
vn -0.0049 1.0000 0.0034
vn -0.0028 1.0000 -0.0001
vn -0.0014 1.0000 -0.0001
vn -0.9110 0.4125 -0.0035
vn -0.0812 0.9967 0.0024
vn -0.1077 0.9084 0.4039
vn -0.4742 0.8804 0.0022
vn -0.9906 -0.1369 -0.0011
vn -0.0013 1.0000 -0.0000
vn -0.0006 1.0000 -0.0001
vn -0.9890 -0.1481 -0.0011
vn -0.9906 -0.1368 0.0005
vn -0.9992 0.0036 0.0398
vn -0.0050 1.0000 -0.0001
vn -0.2207 -0.0312 0.9748
vn -0.1196 0.9395 -0.3211
vn -0.4709 0.8822 -0.0014
vn -0.3693 0.9293 0.0021
vn -0.9985 -0.0339 0.0428
vn -1.0000 -0.0020 0.0002
vn -1.0000 0.0053 0.0009
vn -0.2295 -0.0086 0.9733
vn -0.0991 0.9470 -0.3056
s 0
f 1//1 3//1 4//1
f 13//2 12//2 11//2
f 16//3 23//3 20//3
f 3//4 1//4 2//4
f 2//5 6//5 3//5
f 15//6 19//6 20//6
f 10//7 7//7 12//7
f 16//8 10//8 8//8
f 2//9 9//9 6//9
f 5//10 17//10 16//10
f 7//11 11//11 12//11
f 6//12 9//12 13//12
f 6//13 13//13 3//13
f 4//14 13//14 11//14
f 22//15 21//15 20//15
f 19//16 9//16 22//16
f 8//17 5//17 16//17
f 15//18 12//18 14//18
f 23//19 15//19 20//19
f 17//20 16//20 20//20
f 17//21 20//21 21//21
f 17//22 21//22 18//22
f 15//23 13//23 19//23
f 1//24 5//24 8//24
f 4//25 3//25 13//25
f 19//26 22//26 20//26
f 2//27 22//27 9//27
f 13//28 14//28 12//28
f 8//29 7//29 1//29
f 1//30 11//30 4//30
f 7//31 11//31 1//31
f 7//32 8//32 10//32
f 10//33 23//33 16//33
f 22//34 18//34 21//34
f 17//35 5//35 18//35
f 18//36 5//36 2//36
f 5//37 1//37 2//37
f 19//38 13//38 9//38
f 15//39 10//39 12//39
f 23//40 10//40 15//40
f 15//41 14//41 13//41
f 2//42 18//42 22//42
f 1//43 2//43 17//43
f 17//44 2//44 18//44
f 18//45 9//45 2//45
f 18//46 22//46 9//46
f 4//47 1//47 7//47
f 5//48 1//48 17//48
f 16//49 21//49 17//49
f 14//50 11//50 13//50
f 19//51 14//51 13//51
f 15//52 14//52 19//52
f 11//53 4//53 7//53
f 10//54 7//54 16//54
f 16//55 7//55 8//55
f 20//56 21//56 16//56
f 12//57 11//57 14//57
