# Blender 4.0.0
# www.blender.org
o decimated_mesh
v 0.904432 1.325931 -0.297344
v 0.909130 1.537917 -0.297344
v 0.929370 1.325931 -0.297344
v 0.929550 1.537917 -0.297344
v 0.893123 1.325946 0.062100
v 0.915684 1.538017 0.053729
v 0.924829 1.325934 0.050657
vn -0.0000 1.0000 -0.0000
vn -0.0000 -0.0000 -1.0000
vn 0.9983 0.0425 0.0394
vn 0.3395 0.0010 0.9406
vn -0.0000 1.0000 -0.0003
vn 0.0004 1.0000 -0.0000
vn 0.9999 -0.0009 0.0130
vn -0.9941 0.1065 0.0185
vn -0.9993 0.0221 -0.0314
s 0
f 1//1 7//1 3//1
f 3//2 2//2 4//2
f 7//3 4//3 6//3
f 6//4 5//4 7//4
f 6//5 4//5 2//5
f 5//6 7//6 1//6
f 3//2 1//2 2//2
f 7//7 3//7 4//7
f 5//8 6//8 2//8
f 2//9 1//9 5//9
f 3//6 5//6 7//6
f 3//1 1//1 5//1
