# Blender 4.0.0
# www.blender.org
o decimated_mesh
v -0.900349 1.286386 -0.414099
v -0.897906 1.286697 0.037305
v -0.927510 1.305053 -0.415517
v -0.914109 1.304271 0.057318
v -0.928348 1.306778 0.039129
v -0.895651 1.304286 0.060858
v -0.899529 1.537888 -0.415584
v -0.900382 1.691810 0.058002
v -0.929151 1.537888 -0.415584
v -0.908601 1.691795 -0.393665
v -0.928451 1.691795 0.041651
v -0.929544 1.691795 -0.393665
v -0.914637 1.691795 0.058779
vn -0.9966 0.0706 0.0427
vn -0.5145 -0.8064 0.2916
vn -0.1147 -0.7907 0.6014
vn -0.0000 0.1410 -0.9900
vn -0.7784 -0.0034 0.6278
vn -0.1883 -0.0040 0.9821
vn 0.9979 0.0614 -0.0182
vn 0.9999 0.0122 -0.0022
vn -1.0000 0.0033 0.0054
vn 0.0544 0.0080 0.9985
vn -1.0000 -0.0070 -0.0018
vn -1.0000 -0.0003 0.0016
vn -1.0000 -0.0029 0.0025
vn -0.5505 -0.8348 0.0036
vn -0.5665 -0.8241 0.0021
vn -0.0000 1.0000 -0.0000
vn -0.0005 1.0000 -0.0000
vn -0.0010 1.0000 0.0008
vn -0.0000 -0.0003 -1.0000
vn 0.0480 -0.0061 -0.9988
vn -0.7877 -0.0042 0.6160
vn -0.9999 0.0033 0.0098
vn -0.9927 0.1202 0.0053
vn -1.0000 -0.0003 0.0025
vn -1.0000 -0.0026 0.0004
s 0
f 6//1 7//1 2//1
f 2//2 4//2 5//2
f 2//3 6//3 4//3
f 10//4 9//4 12//4
f 11//5 4//5 13//5
f 4//6 6//6 13//6
f 10//7 8//7 7//7
f 8//8 6//8 7//8
f 2//9 7//9 1//9
f 6//10 8//10 13//10
f 10//4 7//4 9//4
f 3//11 5//11 9//11
f 5//12 11//12 9//12
f 11//13 12//13 9//13
f 2//14 5//14 1//14
f 5//15 3//15 1//15
f 12//16 11//16 10//16
f 10//17 11//17 8//17
f 11//18 13//18 8//18
f 3//19 9//19 7//19
f 1//20 3//20 7//20
f 11//21 5//21 4//21
f 7//22 1//22 6//22
f 6//23 1//23 2//23
f 11//24 12//24 5//24
f 12//25 9//25 5//25
f 12//16 8//16 10//16
f 12//17 11//17 8//17
