# Blender 4.0.0
# www.blender.org
o decimated_mesh
v 0.882902 1.784237 -0.399709
v 0.882902 1.768483 -0.444382
v -0.757313 1.766067 -0.442715
v -0.757581 1.759406 -0.411255
v 0.882903 1.537469 -0.434211
v -0.757595 1.537528 -0.428998
vn -0.0010 -0.0440 -0.9990
vn -0.0163 0.9782 0.2070
vn -0.0017 0.9431 -0.3326
vn 1.0000 -0.0000 -0.0000
vn -0.0032 -0.0599 -0.9982
vn -1.0000 0.0007 -0.0084
vn -0.0058 -0.0797 0.9968
vn 0.0031 -0.1385 0.9904
s 0
f 5//1 3//1 2//1
f 3//2 4//2 1//2
f 2//3 3//3 1//3
f 1//4 5//4 2//4
f 5//5 6//5 3//5
f 6//6 4//6 3//6
f 4//7 6//7 1//7
f 6//8 5//8 1//8
