# Blender 4.0.0
# www.blender.org
o Desk_310_1_DeskMesh_1_collision_9
v -0.757890 1.759420 -0.445674
v -0.757890 1.759420 -0.411224
v -0.757890 1.766037 -0.444376
v -0.000145 1.759420 -0.445674
v -0.757890 1.762050 0.028006
v -0.000145 1.759420 -0.411224
v -0.757890 1.776844 -0.435103
v -0.000145 1.771528 -0.439693
v -0.000145 1.766037 -0.444376
v -0.757890 1.782135 0.028006
v -0.000145 1.762050 0.028006
v -0.757890 1.782227 -0.417669
v -0.000145 1.779579 -0.426247
v -0.000145 1.776844 -0.435103
v -0.757890 1.782148 0.027821
v -0.000145 1.782135 0.028006
v -0.000145 1.782227 -0.417669
v -0.000145 1.782148 0.027821
vn -1.0000 -0.0007 -0.0000
vn -1.0000 -0.0000 -0.0000
vn -1.0000 0.0010 -0.0000
vn -0.0000 0.1925 -0.9813
vn -0.0000 -1.0000 -0.0000
vn -0.0000 -1.0000 0.0060
vn -0.0000 0.6512 -0.7589
vn -0.0000 0.6490 -0.7608
vn 1.0000 -0.0000 -0.0000
vn -0.0000 -0.0000 1.0000
vn -0.0000 0.9555 -0.2950
vn -0.0000 0.9555 -0.2951
vn -0.0000 0.6536 -0.7569
vn -0.0000 0.9975 0.0711
vn -0.0000 0.9974 0.0728
vn -0.0000 1.0000 0.0002
s 0
f 1//1 2//1 5//1
f 1//2 5//2 10//2
f 1//3 10//3 15//3
f 1//2 15//2 12//2
f 1//2 12//2 7//2
f 1//2 7//2 3//2
f 1//4 3//4 9//4
f 1//4 9//4 4//4
f 1//5 4//5 6//5
f 1//5 6//5 2//5
f 2//6 6//6 11//6
f 2//6 11//6 5//6
f 3//7 7//7 8//7
f 3//8 8//8 9//8
f 4//9 9//9 8//9
f 4//9 8//9 14//9
f 4//9 14//9 13//9
f 4//9 13//9 17//9
f 4//9 17//9 18//9
f 4//9 18//9 16//9
f 4//9 16//9 11//9
f 4//9 11//9 6//9
f 5//10 11//10 16//10
f 5//10 16//10 10//10
f 7//11 12//11 13//11
f 7//12 13//12 14//12
f 7//13 14//13 8//13
f 10//14 16//14 18//14
f 10//15 18//15 15//15
f 12//16 15//16 18//16
f 12//16 18//16 17//16
f 12//11 17//11 13//11
