# Blender 4.0.0
# www.blender.org
o decimated_mesh
v -0.000491 1.350106 0.055896
v 0.000154 1.310038 0.014642
v -0.751643 1.347653 0.058816
v 0.000158 1.305596 0.061466
v 0.000154 1.288000 0.014642
v -0.751688 1.310038 0.014642
v -0.751687 1.304376 0.060634
v -0.529064 1.352622 0.047949
v -0.751689 1.285644 0.019930
v 0.000154 1.288336 0.039356
vn -0.0062 -0.2119 -0.9773
vn -0.0012 0.0420 0.9991
vn 0.0006 -0.7883 0.6153
vn -0.0000 0.6161 -0.7877
vn -0.0486 0.7605 -0.6475
vn -0.0000 -0.0000 -1.0000
vn 1.0000 -0.0000 -0.0000
vn 0.9999 0.0147 0.0013
vn 1.0000 -0.0001 -0.0001
vn 0.0035 0.1242 0.9922
vn -0.0075 -0.9084 0.4180
vn 0.0139 0.7174 -0.6965
vn -1.0000 -0.0000 -0.0000
vn -1.0000 0.0010 0.0002
vn -0.0015 0.9206 0.3905
vn 0.0032 -0.9999 0.0136
vn -1.0000 0.0002 0.0008
vn -1.0000 0.0010 -0.0004
vn 1.0000 -0.0000 -0.0001
vn 1.0000 -0.0002 -0.0000
s 0
f 6//1 5//1 9//1
f 4//2 3//2 7//2
f 7//3 10//3 4//3
f 8//4 2//4 6//4
f 6//5 3//5 8//5
f 6//6 2//6 5//6
f 10//7 5//7 2//7
f 2//8 1//8 4//8
f 10//9 2//9 4//9
f 1//10 3//10 4//10
f 7//11 9//11 10//11
f 8//12 1//12 2//12
f 6//13 9//13 7//13
f 6//14 7//14 3//14
f 3//15 1//15 8//15
f 9//16 5//16 10//16
f 9//17 3//17 6//17
f 9//18 7//18 3//18
f 4//19 5//19 2//19
f 4//20 10//20 5//20
