# Blender 4.0.0
# www.blender.org
o decimated_mesh
v 0.900368 1.537941 -0.441434
v 0.882957 1.537876 -0.439796
v 0.927822 1.537931 -0.429859
v 0.913699 1.758903 -0.445310
v 0.934357 1.763605 -0.431260
v 0.902197 1.537945 0.058256
v 0.883391 1.764223 -0.446167
v 0.882262 1.755782 0.064312
v 0.913060 1.776421 -0.434747
v 0.930729 1.773949 -0.429358
v 0.883057 1.779367 -0.430832
v 0.915070 1.781886 -0.416735
v 0.914649 1.537941 0.058783
v 0.915196 1.780618 0.042153
v 0.931513 1.774538 0.027847
v 0.936016 1.760117 0.038463
v 0.929406 1.770541 0.056558
v 0.913303 1.761266 0.062386
v 0.883061 1.781323 0.043368
v 0.928340 1.537941 0.041692
v 0.883630 1.775168 0.058844
vn -0.0935 -0.0278 -0.9952
vn 0.0873 0.4169 0.9047
vn 0.0012 -1.0000 -0.0000
vn 0.3469 -0.0130 0.9378
vn 0.1118 0.8627 0.4932
vn 0.9994 -0.0345 -0.0011
vn -0.9950 -0.0921 0.0384
vn -0.0219 0.7111 -0.7027
vn 0.4617 0.8733 0.1555
vn 0.1146 0.5160 -0.8489
vn 0.3160 0.4983 -0.8074
vn 0.4822 0.3191 -0.8158
vn 0.2227 0.9257 -0.3057
vn 0.3478 0.9376 -0.0018
vn -0.0766 0.9971 -0.0041
vn -0.9997 0.0013 -0.0230
vn 0.9435 0.3313 -0.0020
vn 0.3882 -0.0396 -0.9207
vn 0.9192 0.3751 0.1197
vn 0.7797 -0.0435 0.6246
vn 0.9338 -0.0271 0.3568
vn -0.0423 -0.0316 0.9986
vn 0.0249 -0.0190 -0.9995
vn 0.0003 1.0000 0.0002
vn 0.0001 1.0000 -0.0001
vn 0.0030 -1.0000 -0.0080
vn 0.0119 0.2707 0.9626
vn 0.5656 -0.0215 -0.8244
vn 0.0343 0.9291 0.3683
vn 0.9996 -0.0290 -0.0037
vn 0.0551 0.9537 -0.2955
vn 0.4536 0.8912 0.0023
vn 0.0220 0.9998 0.0028
vn 0.9997 -0.0223 0.0110
vn -0.9932 0.0906 0.0725
vn 1.0000 -0.0004 -0.0000
vn 0.9548 0.2973 -0.0012
vn 0.0647 -0.0157 0.9978
vn -0.0001 1.0000 -0.0001
vn 0.0003 1.0000 -0.0001
vn 1.0000 -0.0005 0.0016
vn 0.9995 -0.0312 0.0001
vn 0.3511 0.9363 0.0025
vn 0.4509 0.8926 -0.0019
s 0
f 1//1 2//1 7//1
f 17//2 21//2 18//2
f 3//3 20//3 2//3
f 17//4 18//4 13//4
f 14//5 21//5 17//5
f 3//6 16//6 20//6
f 2//7 6//7 8//7
f 9//8 7//8 11//8
f 15//9 14//9 17//9
f 7//10 9//10 4//10
f 4//11 9//11 10//11
f 4//12 10//12 5//12
f 9//13 12//13 10//13
f 10//14 14//14 15//14
f 19//15 12//15 11//15
f 11//16 7//16 2//16
f 15//17 5//17 10//17
f 4//18 3//18 1//18
f 15//19 17//19 16//19
f 13//20 20//20 17//20
f 16//21 17//21 20//21
f 8//22 6//22 13//22
f 4//23 1//23 7//23
f 20//24 6//24 13//24
f 6//25 20//25 2//25
f 1//26 3//26 2//26
f 8//27 18//27 21//27
f 5//28 3//28 4//28
f 14//29 19//29 21//29
f 3//30 5//30 16//30
f 11//31 12//31 9//31
f 10//32 12//32 14//32
f 19//33 14//33 12//33
f 2//34 19//34 8//34
f 8//35 21//35 19//35
f 19//36 2//36 11//36
f 15//37 16//37 5//37
f 13//38 18//38 8//38
f 20//39 2//39 13//39
f 13//40 2//40 6//40
f 8//41 2//41 11//41
f 8//42 11//42 19//42
f 14//43 15//43 12//43
f 15//44 10//44 12//44
