# Blender 4.0.0
# www.blender.org
o decimated_mesh
v 0.000063 1.537917 -0.423565
v 0.000063 1.537917 -0.439733
v -0.740248 1.288059 -0.398218
v 0.000064 1.303446 -0.438776
v -0.921290 1.537920 -0.436668
v -0.929046 1.537917 -0.415588
v -0.909694 1.300786 -0.436446
v 0.000061 1.285588 -0.403115
v -0.929253 1.307395 -0.419688
v -0.902120 1.288380 -0.415636
vn -0.0033 -0.0041 -1.0000
vn -0.6567 -0.0328 -0.7535
vn -0.0045 0.8582 0.5133
vn -0.0086 -0.0758 -0.9971
vn -0.5199 -0.8036 -0.2898
vn 1.0000 -0.0000 -0.0000
vn 1.0000 -0.0000 0.0001
vn 0.1067 -0.0593 -0.9925
vn -0.0026 -0.0011 -1.0000
vn 0.0033 0.9999 -0.0119
vn -0.0000 1.0000 0.0001
vn -0.0000 1.0000 -0.0000
vn 0.1146 0.0176 -0.9933
vn -0.0015 0.8942 0.4478
vn -0.9385 0.0070 -0.3453
vn -0.0069 -0.0808 -0.9967
vn -0.0033 -0.0011 -1.0000
vn -0.0025 -0.0041 -1.0000
vn -0.0012 0.8588 0.5124
vn 0.1596 0.0174 -0.9870
vn 0.1070 0.0117 -0.9942
vn -0.0068 -0.0745 -0.9972
vn -0.0086 -0.0808 -0.9967
vn -0.0034 0.8942 0.4478
s 0
f 4//1 5//1 2//1
f 9//2 5//2 7//2
f 7//3 10//3 8//3
f 3//4 6//4 1//4
f 10//5 9//5 7//5
f 4//6 2//6 1//6
f 8//7 4//7 1//7
f 10//8 9//8 3//8
f 4//9 7//9 5//9
f 10//10 3//10 8//10
f 6//11 1//11 5//11
f 1//12 2//12 5//12
f 3//13 9//13 6//13
f 7//14 8//14 4//14
f 5//15 9//15 6//15
f 3//16 1//16 8//16
f 2//17 7//17 5//17
f 2//18 4//18 7//18
f 4//19 7//19 10//19
f 10//20 9//20 6//20
f 10//21 6//21 3//21
f 3//22 6//22 8//22
f 8//23 6//23 1//23
f 4//24 10//24 8//24
