# Blender 4.0.0
# www.blender.org
o Desk_310_1_DeskMesh_1_collision_22
v 0.124130 1.700521 0.052446
v 0.124130 1.700521 0.057469
v 0.127675 1.700521 0.050663
v 0.127063 1.367485 0.052676
v 0.139240 1.700521 0.060836
v 0.127063 1.367485 0.057484
v 0.135545 1.367485 0.060164
v 0.139240 1.700521 0.047236
v 0.139237 1.367485 0.047509
v 0.151718 1.700521 0.059460
v 0.139237 1.367485 0.060761
v 0.153835 1.367485 0.059179
v 0.156071 1.700521 0.050340
v 0.143208 1.367485 0.048154
v 0.156071 1.700521 0.058974
v 0.153835 1.367485 0.050181
vn -0.0000 1.0000 -0.0000
vn -0.0000 1.0000 -0.0001
vn -0.4492 -0.0046 -0.8934
vn -1.0000 -0.0088 -0.0000
vn -0.3013 -0.0026 0.9535
vn -0.2175 0.0004 0.9761
vn -0.2841 -0.0008 -0.9588
vn -0.3907 -0.0048 -0.9205
vn -0.0000 -1.0000 -0.0000
vn -0.1595 -0.0002 0.9872
vn 0.1077 -0.0002 0.9942
vn 0.1097 -0.0001 0.9940
vn 0.1813 -0.0005 -0.9834
vn 0.1602 -0.0008 -0.9871
vn 0.1110 -0.0001 0.9938
vn 1.0000 -0.0067 -0.0000
vn 0.1874 -0.0008 -0.9823
s 0
f 1//1 2//1 5//1
f 1//1 5//1 10//1
f 1//2 10//2 15//2
f 1//1 15//1 13//1
f 1//1 13//1 8//1
f 1//1 8//1 3//1
f 1//3 3//3 4//3
f 1//4 4//4 6//4
f 1//4 6//4 2//4
f 2//5 6//5 7//5
f 2//6 7//6 5//6
f 3//7 8//7 9//7
f 3//8 9//8 4//8
f 4//9 9//9 14//9
f 4//9 14//9 16//9
f 4//9 16//9 12//9
f 4//9 12//9 11//9
f 4//9 11//9 7//9
f 4//9 7//9 6//9
f 5//10 7//10 11//10
f 5//11 11//11 12//11
f 5//12 12//12 10//12
f 8//13 13//13 14//13
f 8//14 14//14 9//14
f 10//15 12//15 15//15
f 12//16 16//16 13//16
f 12//16 13//16 15//16
f 13//17 16//17 14//17
