# Derived from Cyberbotics Webots R2025a Robotiq3fGripper.proto
# Source: https://github.com/cyberbotics/webots/blob/R2025a/projects/devices/robotiq/protos/Robotiq3fGripper.proto
# License: Apache License 2.0; see ../LICENSE and ../NOTICE
o base_metal
v 0.051004 0.047625 0.018815
v 0.050626 0.047625 0.018213
v 0.051004 0.0508 0.018815
v 0.050626 0.0508 0.018213
v 0.050953 0.047625 0.04131
v 0.050986 0.0508 0.041321
v 0.050349 0.047625 0.043122
v 0.051074 0.047625 0.040949
v 0.051319 0.047625 0.038671
v 0.051239 0.0508 0.019486
v 0.051239 0.047625 0.019486
v 0.051319 0.0508 0.038671
v 0.050123 0.047625 0.017711
v 0.050123 0.0508 0.017711
v 0.049521 0.047625 0.017332
v 0.049521 0.0508 0.017332
v 0.050007 0.0508 0.043806
v 0.04996 0.047625 0.043778
v 0.051319 0.0508 0.020193
v 0.051319 0.047625 0.020193
v 0.04885 0.047625 0.017098
v 0.04885 0.0508 0.017098
v 0.049179 0.047625 0.045092
v 0.048443 0.0508 0.045972
v 0.048144 0.047625 0.017018
v 0.048144 0.0508 0.017018
v 0.047617 0.047625 0.046767
v 0.046392 0.0508 0.047682
v 0.024536 0.047625 0.017018
v 0.024536 0.0508 0.017018
v 0.050123 0.047625 -0.017711
v 0.050626 0.047625 -0.018213
v 0.050123 0.0508 -0.017711
v 0.050626 0.0508 -0.018213
v 0.051004 0.047625 -0.018815
v 0.051004 0.0508 -0.018815
v 0.023715 0.047625 0.01691
v 0.023715 0.0508 0.01691
v 0.049521 0.0508 -0.017332
v 0.049521 0.047625 -0.017332
v 0.022949 0.047625 0.016593
v 0.022333 0.047625 0.016129
v 0.022949 0.0508 0.016593
v 0.051319 0.047625 -0.038671
v 0.051074 0.047625 -0.040949
v 0.051319 0.047625 -0.020193
v 0.051239 0.047625 -0.019486
v 0.051239 0.0508 -0.019486
v 0.051319 0.0508 -0.020193
v 0.051319 0.0508 -0.038671
v 0.050953 0.047625 -0.04131
v 0.050349 0.047625 -0.043122
v 0.04996 0.047625 -0.043778
v 0.04885 0.0508 -0.017098
v 0.04885 0.047625 -0.017098
v 0.022291 0.0508 0.016088
v 0.050007 0.0508 -0.043806
v 0.049179 0.047625 -0.045092
v 0.047617 0.047625 -0.046767
v 0.048443 0.0508 -0.045972
v 0.050986 0.0508 -0.041321
v 0.02225 0.047625 0.016046
v 0.046392 0.0508 -0.047682
v 0.048144 0.0508 -0.017018
v 0.048144 0.047625 -0.017018
v 0.022949 0.047625 -0.016593
v 0.022949 0.0508 -0.016593
v 0.023715 0.047625 -0.01691
v 0.024536 0.047625 -0.017018
v 0.021787 0.0508 0.01543
v 0.022291 0.047625 -0.016088
v 0.022291 0.0508 -0.016088
v 0.024536 0.0508 -0.017018
v 0.021787 0.047625 0.01543
v 0.023715 0.0508 -0.01691
v 0.02147 0.047625 0.014665
v 0.021361 0.047625 0.013843
v 0.021361 0.047625 -0.013843
v 0.02147 0.047625 -0.014665
v 0.021787 0.047625 -0.01543
v 0.021787 0.0508 -0.01543
v 0.02147 0.0508 0.014665
v 0.021361 0.0508 0.013843
v 0.021361 0.0508 -0.013843
v 0.02147 0.0508 -0.014665
v -0.069635 -0.018816 -0.010602
v -0.069674 -0.018498 -0.00983
v -0.069674 -0.018498 0.00983
v -0.068441 -0.018696 -0.00963
v -0.068397 -0.019053 -0.010498
v -0.069622 -0.018924 -0.01143
v -0.067734 -0.01789 -0.009026
v -0.069635 -0.018816 0.010602
v -0.068382 -0.019175 -0.01143
v -0.069835 -0.017187 -0.013941
v -0.067668 -0.018426 -0.00973
v -0.067087 -0.018238 -0.008602
v -0.067009 -0.018869 -0.00943
v -0.068397 -0.019053 0.010498
v -0.068441 -0.018696 0.00963
v -0.069736 -0.017994 0.009167
v -0.069635 -0.018816 -0.012258
v -0.06782 -0.017191 -0.008486
v -0.064726 -0.018589 -0.00943
v -0.064804 -0.017958 -0.008602
v -0.068511 -0.018128 0.008884
v -0.068397 -0.019053 -0.012362
v -0.066961 -0.019266 -0.010395
v -0.069817 -0.017336 -0.014201
v -0.069762 -0.017783 -0.013481
v -0.069911 -0.01657 -0.014521
v -0.070402 -0.012571 -0.01143
v -0.070389 -0.01268 -0.012258
v -0.070389 -0.01268 -0.010602
v -0.067188 -0.017416 -0.007966
v -0.064194 -0.018 -0.00973
v -0.06426 -0.017464 -0.009026
v -0.064678 -0.018985 -0.010395
v -0.064905 -0.017136 -0.007966
v -0.063202 -0.017878 -0.00973
v -0.063268 -0.017342 -0.009026
v -0.066944 -0.019401 -0.01143
v -0.064153 -0.018337 -0.01055
v -0.07035 -0.012997 -0.01303
v -0.070402 -0.012571 0.01143
v -0.070389 -0.01268 0.010602
v -0.070389 -0.01268 0.012258
v -0.064661 -0.019121 -0.01143
v -0.061121 -0.018412 -0.008098
v -0.061155 -0.018491 -0.008016
v -0.061107 -0.018647 -0.008294
v -0.061217 -0.017634 -0.007389
v -0.064139 -0.018452 -0.01143
v -0.069245 -0.01215 -0.012362
v -0.06926 -0.012028 -0.01143
v -0.069245 -0.01215 -0.010498
v -0.061048 -0.01901 -0.00893
v -0.07035 -0.012997 0.00983
v -0.069245 -0.01215 0.010498
v -0.06926 -0.012028 0.01143
v -0.069245 -0.01215 0.012362
v -0.064194 -0.018 0.01313
v -0.068386 -0.012581 -0.00973
v -0.064804 -0.017958 0.014258
v -0.06832 -0.013118 -0.009026
v -0.067854 -0.011993 -0.00943
v -0.067776 -0.012623 -0.008602
v -0.064726 -0.018589 0.01343
v -0.06426 -0.017464 0.013834
v -0.063268 -0.017342 0.013834
v -0.068427 -0.012244 -0.01055
v -0.061048 -0.01901 0.01393
v -0.063202 -0.017878 0.01313
v -0.06832 -0.013118 -0.013834
v -0.068386 -0.012581 -0.01313
v -0.068427 -0.012244 -0.01231
v -0.068441 -0.012129 -0.01143
v -0.067902 -0.011596 -0.010395
v -0.065571 -0.011712 -0.00943
v -0.065619 -0.011316 -0.010395
v -0.064846 -0.012691 -0.009026
v -0.068427 -0.012244 0.01231
v -0.068386 -0.012581 0.01313
v -0.061121 -0.018412 0.014762
v -0.061107 -0.018647 0.014566
v -0.067776 -0.012623 -0.014258
v -0.067854 -0.011993 -0.01343
v -0.067902 -0.011596 -0.012465
v -0.067919 -0.011461 -0.01143
v -0.064912 -0.012155 -0.00973
v -0.064953 -0.011818 -0.01055
v -0.065493 -0.012343 -0.008602
v -0.068427 -0.012244 0.01055
v -0.068441 -0.012129 0.01143
v -0.061155 -0.018491 0.014844
v -0.065636 -0.01118 -0.01143
v -0.067854 -0.011993 0.00943
v -0.067902 -0.011596 0.012465
v -0.067854 -0.011993 0.01343
v -0.06832 -0.013118 0.013834
v -0.067776 -0.012623 0.014258
v -0.061217 -0.017634 0.015471
v -0.065493 -0.012343 -0.014258
v -0.065571 -0.011712 -0.01343
v -0.065619 -0.011316 -0.012465
v -0.067902 -0.011596 0.010395
v -0.067919 -0.011461 0.01143
v -0.065636 -0.01118 0.01143
v -0.065619 -0.011316 0.012465
v -0.065571 -0.011712 0.01343
v -0.064846 -0.012691 -0.013834
v -0.064912 -0.012155 -0.01313
v -0.064953 -0.011818 -0.01231
v -0.061935 -0.01178 -0.007396
v -0.062088 -0.011475 -0.007103
v -0.065493 -0.012343 0.008602
v -0.067776 -0.012623 0.008602
v -0.065571 -0.011712 0.00943
v -0.065619 -0.011316 0.010395
v -0.062096 -0.010947 -0.008013
v -0.064953 -0.011818 0.01231
v -0.064912 -0.012155 0.01313
v -0.065493 -0.012343 0.014258
v -0.064846 -0.012691 0.013834
v -0.06203 -0.011007 -0.008103
v -0.064912 -0.012155 0.00973
v -0.064953 -0.011818 0.01055
v -0.062103 -0.010414 -0.00893
v -0.062154 -0.009998 0.012993
v -0.062162 -0.010051 0.013294
v -0.062103 -0.010414 0.01393
v -0.06221 -0.009895 0.013016
v -0.062181 -0.009777 0.011959
v -0.064968 -0.015804 0.012935
v -0.065022 -0.015361 -0.00975
v -0.068804 -0.015825 -0.00975
v -0.068821 -0.015684 -0.009832
v -0.065059 -0.015057 -0.009832
v -0.068794 -0.015907 -0.009607
v -0.065107 -0.014666 0.01087
v -0.064855 -0.016725 0.011348
v -0.065039 -0.01522 -0.009832
v -0.064799 -0.017174 -0.009379
v -0.065012 -0.015443 -0.009607
v -0.064988 -0.015641 0.009925
v -0.068769 -0.016105 0.009925
v -0.064988 -0.015641 0.012935
v -0.068769 -0.016105 0.012935
v -0.068749 -0.016268 0.012935
v -0.06495 -0.015945 0.013017
v -0.068636 -0.017189 0.011348
v -0.064845 -0.016806 0.011205
v -0.068841 -0.015521 -0.009832
v -0.065254 -0.01347 -0.011205
v -0.069036 -0.013935 -0.011205
v -0.068821 -0.015684 -0.009218
v -0.068804 -0.015825 -0.0093
v -0.068749 -0.016268 0.009925
v -0.065005 -0.0155 0.009843
v -0.068787 -0.015964 0.009843
v -0.068981 -0.014377 0.010392
v -0.068991 -0.014296 0.010535
v -0.068732 -0.01641 0.013017
v -0.06494 -0.016027 0.01316
v -0.064855 -0.016725 0.011512
v -0.068636 -0.017189 0.011512
v -0.068626 -0.017271 0.011655
v -0.068626 -0.017271 0.011205
v -0.064827 -0.016948 0.011123
v -0.068609 -0.017412 0.011123
v -0.068858 -0.01538 -0.00975
v -0.065077 -0.014915 -0.00975
v -0.068868 -0.015298 -0.009443
v -0.068794 -0.015907 -0.009443
v -0.065012 -0.015443 -0.009443
v -0.064968 -0.015804 0.009925
v -0.068797 -0.015883 0.0097
v -0.06521 -0.013831 0.010535
v -0.069009 -0.014154 0.010617
v -0.065005 -0.0155 0.013017
v -0.068787 -0.015964 0.013017
v -0.064845 -0.016806 0.011655
v -0.064734 -0.017709 0.01087
v -0.064743 -0.017631 -0.00998
v -0.069026 -0.014016 -0.011348
v -0.065244 -0.013552 -0.011348
v -0.069073 -0.01363 -0.011737
v -0.069053 -0.013793 -0.011737
v -0.069026 -0.014016 -0.011512
v -0.069036 -0.013935 -0.011655
v -0.065077 -0.014915 -0.01311
v -0.068841 -0.015521 -0.013028
v -0.065059 -0.015057 -0.013028
v -0.068794 -0.015907 -0.013253
v -0.068821 -0.015684 -0.013028
v -0.068804 -0.015825 -0.01311
v -0.068858 -0.01538 -0.01311
v -0.069101 -0.013407 -0.011348
v -0.069053 -0.013793 -0.011123
v -0.068841 -0.015521 -0.009218
v -0.065039 -0.01522 -0.009218
v -0.065022 -0.015361 -0.0093
v -0.064873 -0.016577 -0.008919
v -0.065015 -0.015418 0.0097
v -0.0652 -0.013913 0.010392
v -0.065227 -0.01369 0.010617
v -0.0652 -0.013913 0.012468
v -0.06521 -0.013831 0.012325
v -0.068991 -0.014296 0.012325
v -0.068981 -0.014377 0.012468
v -0.068797 -0.015883 0.01316
v -0.065015 -0.015418 0.01316
v -0.068609 -0.017412 0.011737
v -0.068722 -0.016491 0.01316
v -0.068589 -0.017575 0.011123
v -0.064807 -0.017111 0.011123
v -0.069762 -0.017783 -0.009379
v -0.069706 -0.01824 -0.00998
v -0.065254 -0.01347 -0.011655
v -0.065022 -0.015361 -0.01311
v -0.068858 -0.01538 -0.01356
v -0.068841 -0.015521 -0.013642
v -0.068794 -0.015907 -0.013417
v -0.065272 -0.013329 -0.011737
v -0.069091 -0.013489 -0.011655
v -0.069073 -0.01363 -0.011123
v -0.065272 -0.013329 -0.011123
v -0.068858 -0.01538 -0.0093
v -0.065059 -0.015057 -0.009218
v 0.043982 0.0508 0.048832
v 0.045734 0.047625 0.048072
v -0.064958 -0.015883 -0.008629
v -0.068732 -0.01641 0.009843
v -0.06495 -0.015945 0.009843
v -0.068722 -0.016491 0.0097
v -0.069009 -0.014154 0.012243
v -0.0652 -0.013913 0.012632
v -0.068981 -0.014377 0.012632
v -0.068589 -0.017575 0.011737
v -0.068561 -0.017798 0.011348
v -0.068571 -0.017716 0.011205
v -0.064708 -0.017919 -0.010679
v -0.065039 -0.01522 -0.013028
v -0.064799 -0.017174 -0.013481
v -0.068821 -0.015684 -0.013642
v -0.068804 -0.015825 -0.01356
v -0.068868 -0.015298 -0.013253
v -0.068868 -0.015298 -0.013417
v -0.065292 -0.013166 -0.011737
v -0.069101 -0.013407 -0.011512
v -0.069091 -0.013489 -0.011205
v -0.065309 -0.013025 -0.011205
v -0.068868 -0.015298 -0.009607
v 0.046361 0.047625 0.047637
v 0.043969 0.047625 0.048801
v 0.043616 0.047625 0.048946
v -0.065049 -0.015138 -0.00853
v -0.069835 -0.017187 -0.008919
v -0.069736 -0.017994 -0.009167
v -0.069029 -0.013991 0.010617
v -0.065247 -0.013527 0.010617
v -0.065227 -0.01369 0.012243
v -0.065107 -0.014666 0.014267
v -0.068991 -0.014296 0.012774
v -0.068787 -0.015964 0.013466
v -0.068797 -0.015883 0.013324
v -0.068732 -0.01641 0.013466
v -0.064827 -0.016948 0.011737
v -0.064807 -0.017111 0.011737
v -0.068571 -0.017716 0.011655
v -0.068561 -0.017798 0.011512
v -0.06479 -0.017252 0.011205
v -0.069671 -0.018528 -0.010679
v -0.065244 -0.013552 -0.011512
v -0.065012 -0.015443 -0.013253
v -0.065022 -0.015361 -0.01356
v -0.065039 -0.01522 -0.013642
v -0.065391 -0.012358 -0.012181
v -0.065309 -0.013025 -0.011655
v -0.065319 -0.012943 -0.011512
v -0.065391 -0.012358 -0.010679
v -0.065292 -0.013166 -0.011123
v -0.065077 -0.014915 -0.0093
v 0.041361 0.0508 0.049349
v -0.069921 -0.016493 -0.008629
v -0.069817 -0.017336 -0.008659
v -0.068722 -0.016491 0.009536
v -0.068732 -0.01641 0.009394
v -0.06494 -0.016027 0.0097
v -0.065107 -0.014666 0.008593
v -0.068797 -0.015883 0.009536
v -0.065015 -0.015418 0.009536
v -0.068787 -0.015964 0.009394
v -0.068981 -0.014377 0.010228
v -0.0652 -0.013913 0.010228
v -0.069029 -0.013991 0.012243
v -0.069046 -0.01385 0.012325
v -0.06521 -0.013831 0.012774
v -0.065015 -0.015418 0.013324
v -0.068769 -0.016105 0.013548
v -0.068749 -0.016268 0.013548
v -0.068722 -0.016491 0.013324
v -0.06478 -0.017333 0.011512
v -0.065012 -0.015443 -0.013417
v -0.065059 -0.015057 -0.013642
v -0.065077 -0.014915 -0.01356
v -0.065087 -0.014834 -0.013417
v -0.065087 -0.014834 -0.013253
v -0.065319 -0.012943 -0.011348
v -0.065087 -0.014834 -0.009607
v -0.065087 -0.014834 -0.009443
v -0.065141 -0.014393 -0.008629
v 0.041361 0.047625 0.049349
v -0.016035 0.047625 0.053363
v -0.070012 -0.015748 -0.00853
v -0.068511 -0.018128 -0.008884
v -0.06494 -0.016027 0.009536
v -0.068749 -0.016268 0.009312
v -0.068769 -0.016105 0.009312
v -0.068991 -0.014296 0.010086
v -0.069009 -0.014154 0.010004
v -0.069029 -0.013991 0.010004
v -0.069056 -0.013769 0.010228
v -0.069046 -0.01385 0.010086
v -0.065394 -0.012333 0.01087
v -0.065265 -0.013386 0.010535
v -0.069046 -0.01385 0.010535
v -0.069056 -0.013769 0.010392
v -0.069056 -0.013769 0.012632
v -0.069056 -0.013769 0.012468
v -0.069029 -0.013991 0.012856
v -0.069046 -0.01385 0.012774
v -0.069009 -0.014154 0.012856
v -0.06495 -0.015945 0.013466
v -0.06494 -0.016027 0.013324
v -0.06479 -0.017252 0.011655
v -0.06478 -0.017333 0.011348
v -0.064696 -0.018017 -0.01143
v -0.069659 -0.018626 -0.01143
v -0.064708 -0.017919 -0.012181
v -0.064743 -0.017631 -0.01288
v -0.064958 -0.015883 -0.014231
v -0.064873 -0.016577 -0.013941
v -0.065049 -0.015138 -0.01433
v -0.065141 -0.014393 -0.014231
v -0.065226 -0.013699 -0.013941
v -0.065355 -0.012646 -0.00998
v -0.065226 -0.013699 -0.008919
v -0.070104 -0.015003 -0.008629
v -0.069911 -0.01657 -0.008339
v -0.068602 -0.017388 -0.008312
v -0.068143 -0.018659 -0.00963
v -0.068213 -0.018091 -0.008884
v -0.06495 -0.015945 0.009394
v -0.064873 -0.016572 0.008916
v -0.065005 -0.0155 0.009394
v -0.06521 -0.013831 0.010086
v -0.065247 -0.013527 0.010004
v -0.065247 -0.013527 0.012243
v -0.065265 -0.013386 0.012774
v -0.065227 -0.01369 0.012856
v -0.065005 -0.0155 0.013466
v -0.064988 -0.015641 0.013548
v -0.064968 -0.015804 0.013548
v -0.064873 -0.016572 0.013944
v -0.064709 -0.017911 0.01143
v -0.069622 -0.018924 0.01143
v -0.065299 -0.013103 -0.013481
v -0.065355 -0.012646 -0.01288
v -0.065403 -0.01226 -0.01143
v -0.065299 -0.013103 -0.009379
v -0.016035 0.0508 0.053363
v -0.017489 0.047625 0.053121
v -0.016776 0.047625 0.053328
v -0.017489 0.0508 0.053121
v -0.016776 0.0508 0.053328
v -0.020403 0.047625 0.012261
v -0.052426 0.047625 0.010946
v -0.05166 0.047625 0.011264
v -0.052426 0.0508 0.010946
v -0.05166 0.0508 0.011264
v -0.070012 -0.015748 -0.00823
v -0.070113 -0.014926 -0.008339
v -0.068304 -0.017351 -0.008312
v -0.064968 -0.015804 0.009312
v -0.0648 -0.017169 0.009375
v -0.064988 -0.015641 0.009312
v -0.065227 -0.01369 0.010004
v -0.065265 -0.013386 0.010086
v -0.065299 -0.013101 0.009381
v -0.065275 -0.013304 0.010228
v -0.065275 -0.013304 0.010392
v -0.065265 -0.013386 0.012325
v -0.065275 -0.013304 0.012468
v -0.065275 -0.013304 0.012632
v -0.065299 -0.013101 0.013479
v -0.065247 -0.013527 0.012856
v -0.06505 -0.015134 0.01433
v -0.064959 -0.015878 0.014233
v -0.069763 -0.017778 0.009375
v -0.069672 -0.018521 0.01143
v -0.068382 -0.019175 0.01143
v -0.069671 -0.018528 -0.012181
v -0.0681 -0.019016 -0.010498
v -0.069706 -0.01824 -0.01288
v -0.070189 -0.014308 -0.008919
v -0.018135 0.0508 0.052755
v -0.018135 0.047625 0.052755
v -0.053084 0.0508 0.010442
v -0.053084 0.047625 0.010442
v -0.068708 -0.016526 -0.007953
v -0.068164 -0.018487 -0.00973
v -0.06823 -0.017951 -0.009026
v -0.06505 -0.015134 0.00853
v -0.065141 -0.01439 0.00863
v -0.065226 -0.013697 0.00892
v -0.065356 -0.012645 0.009981
v -0.065403 -0.01226 0.01143
v -0.065226 -0.013697 0.01394
v -0.065141 -0.01439 0.01423
v -0.0648 -0.017169 0.013485
v -0.069635 -0.018816 0.012258
v -0.0681 -0.019016 0.010498
v -0.068085 -0.019138 0.01143
v -0.069921 -0.016493 -0.014231
v -0.070012 -0.015748 -0.01433
v -0.070104 -0.015003 -0.014231
v -0.070189 -0.014308 -0.013941
v -0.070262 -0.013712 -0.013481
v -0.070318 -0.013255 -0.01288
v -0.070353 -0.012967 -0.012181
v -0.070366 -0.012869 -0.01143
v -0.070353 -0.012967 -0.010679
v -0.070318 -0.013255 -0.00998
v -0.070262 -0.013712 -0.009379
v -0.018678 0.0508 0.052249
v -0.018678 0.047625 0.052249
v -0.053588 0.0508 0.009784
v -0.053588 0.047625 0.009784
v -0.050838 0.047625 0.011372
v -0.050838 0.0508 0.011372
v -0.06841 -0.01649 -0.007953
v -0.064959 -0.015878 0.008627
v -0.069836 -0.017182 0.008916
v -0.065391 -0.012358 0.01068
v -0.065391 -0.012358 0.01218
v -0.065356 -0.012645 0.012879
v -0.069836 -0.017182 0.013944
v -0.069763 -0.017778 0.013485
v -0.068397 -0.019053 0.012362
v -0.069674 -0.018498 -0.01303
v -0.068085 -0.019138 -0.01143
v -0.068109 -0.018939 -0.01143
v -0.068123 -0.018825 -0.01055
v -0.067627 -0.018764 -0.01055
v -0.069736 -0.017994 -0.013693
v -0.070207 -0.01416 -0.008659
v -0.019089 0.0508 0.05163
v -0.019089 0.047625 0.05163
v -0.021018 0.0508 0.011797
v -0.021018 0.047625 0.011797
v -0.02032 0.047625 0.012343
v -0.020361 0.0508 0.012302
v -0.022606 0.047625 0.011372
v -0.022606 0.0508 0.011372
v 0.046361 0.047625 -0.047637
v 0.045734 0.047625 -0.048072
v -0.068821 -0.015601 -0.00783
v -0.068316 -0.017252 -0.008486
v -0.068143 -0.018659 0.00963
v -0.070189 -0.014306 0.01394
v -0.070104 -0.014999 0.01423
v -0.070013 -0.015743 0.01433
v -0.069921 -0.016488 0.014233
v -0.069674 -0.018498 0.01303
v -0.0681 -0.019016 0.012362
v -0.067627 -0.018764 0.01055
v -0.067613 -0.018879 0.01143
v -0.068123 -0.018825 0.01055
v -0.068109 -0.018939 0.01143
v -0.070012 -0.015748 -0.01463
v -0.070113 -0.014926 -0.014521
v -0.070288 -0.013502 -0.013693
v -0.070207 -0.01416 -0.014201
v -0.070288 -0.013502 -0.009167
v -0.07035 -0.012997 -0.00983
v -0.019344 0.047625 0.050933
v -0.019344 0.0508 0.050933
v -0.021784 0.047625 0.01148
v -0.021784 0.0508 0.01148
v -0.019856 0.047625 0.012959
v -0.019856 0.0508 0.012959
v -0.053905 0.0508 0.009019
v -0.053905 0.047625 0.009019
v 0.043969 0.047625 -0.048801
v 0.043982 0.0508 -0.048832
v -0.06904 -0.013815 -0.008312
v -0.068935 -0.014677 -0.007953
v -0.068523 -0.015565 -0.00783
v -0.068416 -0.016438 -0.008146
v -0.06792 -0.016377 -0.008146
v -0.069921 -0.016488 0.008627
v -0.069911 -0.01657 0.008339
v -0.069817 -0.017336 0.008659
v -0.070013 -0.015743 0.00853
v -0.070104 -0.014999 0.00863
v -0.070189 -0.014306 0.00892
v -0.070262 -0.013711 0.009381
v -0.070318 -0.013254 0.009981
v -0.070354 -0.012967 0.01068
v -0.070366 -0.012869 0.01143
v -0.070354 -0.012967 0.01218
v -0.070318 -0.013254 0.012879
v -0.070262 -0.013711 0.013479
v -0.069736 -0.017994 0.013693
v -0.069817 -0.017336 0.014201
v -0.068441 -0.018696 0.01323
v -0.066944 -0.019401 0.01143
v -0.066961 -0.019266 0.010395
v -0.0681 -0.019016 -0.012362
v -0.068123 -0.018825 -0.01231
v -0.067613 -0.018879 -0.01143
v -0.019431 0.0508 0.050196
v -0.019431 0.047625 0.050196
v -0.019539 0.047625 0.013725
v -0.019431 0.047625 0.014547
v -0.054013 0.047625 0.008197
v -0.053588 0.047625 -0.009784
v -0.053905 0.047625 -0.009019
v -0.053588 0.0508 -0.009784
v -0.053905 0.0508 -0.009019
v 0.043616 0.047625 -0.048946
v -0.068637 -0.01464 -0.007953
v -0.068523 -0.015565 -0.00803
v -0.063022 -0.018115 -0.006975
v -0.063106 -0.018656 -0.008098
v -0.063055 -0.018724 -0.008016
v -0.068213 -0.018091 0.008884
v -0.068164 -0.018487 0.00973
v -0.067668 -0.018426 0.00973
v -0.068602 -0.017388 0.008312
v -0.069911 -0.01657 0.014521
v -0.070012 -0.015748 0.01463
v -0.070113 -0.014926 0.014521
v -0.070207 -0.01416 0.014201
v -0.068143 -0.018659 0.01323
v -0.068123 -0.018825 0.01231
v -0.067627 -0.018764 0.01231
v -0.064678 -0.018985 0.010395
v -0.064661 -0.019121 0.01143
v -0.063063 -0.018887 -0.008294
v -0.063033 -0.019253 -0.00893
v -0.062982 -0.01967 -0.009867
v -0.068441 -0.018696 -0.01323
v -0.062791 -0.020287 -0.010757
v -0.062955 -0.01989 -0.010901
v -0.069131 -0.013075 -0.008884
v -0.053084 0.0508 -0.010442
v -0.053084 0.047625 -0.010442
v -0.019431 0.0508 0.014547
v -0.019539 0.0508 0.013725
v -0.054013 0.0508 0.008197
v -0.054013 0.0508 -0.008197
v -0.054013 0.047625 -0.008197
v 0.041361 0.0508 -0.049349
v -0.068743 -0.013778 -0.008312
v -0.068027 -0.015504 -0.00803
v -0.067305 -0.016458 -0.007566
v -0.064346 -0.016765 -0.008486
v -0.063202 -0.017878 -0.007389
v -0.067009 -0.018869 0.00943
v -0.062747 -0.020355 0.010885
v -0.062955 -0.01989 0.010901
v -0.062982 -0.01967 0.009867
v -0.068304 -0.017351 0.008312
v -0.070113 -0.014926 0.008339
v -0.070012 -0.015748 0.00823
v -0.070288 -0.013502 0.009167
v -0.070207 -0.01416 0.008659
v -0.07035 -0.012997 0.01303
v -0.070288 -0.013502 0.013693
v -0.068511 -0.018128 0.013976
v -0.066961 -0.019266 0.012465
v -0.064153 -0.018337 0.01055
v -0.064139 -0.018452 0.01143
v -0.062955 -0.01989 0.011959
v -0.062911 -0.019775 -0.009853
v -0.062771 -0.02034 -0.010854
v -0.068511 -0.018128 -0.013976
v -0.068143 -0.018659 -0.01323
v -0.068164 -0.018487 -0.01313
v -0.067627 -0.018764 -0.01231
v -0.06316 -0.018215 -0.01055
v -0.068602 -0.017388 -0.014548
v -0.068834 -0.013038 -0.008884
v -0.052426 0.0508 -0.010946
v -0.052426 0.047625 -0.010946
v 0.041361 0.047625 -0.049349
v -0.067431 -0.015431 -0.00743
v -0.065022 -0.016178 -0.007566
v -0.063353 -0.016643 -0.008486
v -0.063313 -0.016968 -0.00686
v -0.062926 -0.019772 0.009844
v -0.062974 -0.019616 0.009566
v -0.068316 -0.017252 0.008486
v -0.06823 -0.017951 0.009026
v -0.067734 -0.01789 0.009026
v -0.064726 -0.018589 0.00943
v -0.068708 -0.016526 0.007953
v -0.06266 -0.020638 0.011389
v -0.068213 -0.018091 0.013976
v -0.067668 -0.018426 0.01313
v -0.068164 -0.018487 0.01313
v -0.064678 -0.018985 0.012465
v -0.06316 -0.018215 0.01055
v -0.063146 -0.01833 0.01143
v -0.06266 -0.020638 -0.011471
v -0.066961 -0.019266 -0.012465
v -0.068708 -0.016526 -0.014907
v -0.068821 -0.015601 -0.01503
v -0.068935 -0.014677 -0.014907
v -0.06904 -0.013815 -0.014548
v -0.069131 -0.013075 -0.013976
v -0.069201 -0.012507 -0.01323
v -0.069201 -0.012507 -0.00963
v -0.05166 0.0508 -0.011264
v -0.05166 0.047625 -0.011264
v -0.021784 0.047625 -0.01148
v -0.022606 0.047625 -0.011372
v -0.021784 0.0508 -0.01148
v -0.022606 0.0508 -0.011372
v -0.021018 0.0508 -0.011797
v -0.021018 0.047625 -0.011797
v -0.017489 0.0508 -0.053121
v -0.016776 0.0508 -0.053328
v -0.017489 0.047625 -0.053121
v -0.016776 0.047625 -0.053328
v -0.016035 0.0508 -0.053363
v -0.016035 0.047625 -0.053363
v -0.068631 -0.014691 -0.008146
v -0.06873 -0.013878 -0.008486
v -0.068134 -0.01463 -0.008146
v -0.065149 -0.01515 -0.00743
v -0.064446 -0.015951 -0.008146
v -0.063006 -0.01782 -0.006471
v -0.063033 -0.019253 0.00893
v -0.067087 -0.018238 0.008602
v -0.064194 -0.018 0.00973
v -0.06841 -0.01649 0.007953
v -0.062771 -0.02034 0.012006
v -0.068708 -0.016526 0.014907
v -0.068602 -0.017388 0.014548
v -0.067009 -0.018869 0.01343
v -0.064153 -0.018337 0.01231
v -0.061039 -0.020128 -0.010854
v -0.061033 -0.020071 -0.010757
v -0.06104 -0.019546 -0.009853
v -0.062747 -0.020355 -0.011975
v -0.068213 -0.018091 -0.013976
v -0.067668 -0.018426 -0.01313
v -0.064678 -0.018985 -0.012465
v -0.063146 -0.01833 -0.01143
v -0.062955 -0.01989 -0.011959
v -0.068304 -0.017351 -0.014548
v -0.068903 -0.01247 -0.00963
v -0.068816 -0.013179 -0.009026
v -0.050838 0.0508 -0.011372
v -0.050838 0.047625 -0.011372
v -0.020403 0.047625 -0.012261
v -0.019089 0.0508 -0.05163
v -0.018678 0.0508 -0.052249
v -0.019089 0.047625 -0.05163
v -0.018678 0.047625 -0.052249
v -0.018135 0.0508 -0.052755
v -0.018135 0.047625 -0.052755
v -0.068234 -0.013817 -0.008486
v -0.067558 -0.014403 -0.007566
v -0.063453 -0.015829 -0.008146
v -0.063163 -0.017145 -0.00643
v -0.061333 -0.017908 -0.006975
v -0.06142 -0.017625 -0.006471
v -0.06782 -0.017191 0.008486
v -0.064804 -0.017958 0.008602
v -0.063202 -0.017878 0.00973
v -0.068821 -0.015601 0.00783
v -0.069131 -0.013075 0.013976
v -0.06904 -0.013815 0.014548
v -0.068935 -0.014677 0.014907
v -0.068821 -0.015601 0.01503
v -0.060997 -0.019426 0.009867
v -0.061017 -0.019376 0.009566
v -0.061048 -0.01901 0.00893
v -0.061026 -0.019538 0.009844
v -0.061074 -0.020443 0.011389
v -0.061058 -0.020148 0.010885
v -0.06097 -0.019647 0.010901
v -0.062791 -0.020287 0.012103
v -0.062982 -0.01967 0.012993
v -0.061328 -0.016725 -0.00686
v -0.068304 -0.017351 0.014548
v -0.06823 -0.017951 0.013834
v -0.067734 -0.01789 0.013834
v -0.06316 -0.018215 0.01231
v -0.060997 -0.019426 -0.009867
v -0.06097 -0.019647 -0.010901
v -0.061074 -0.020443 -0.011471
v -0.067009 -0.018869 -0.01343
v -0.064153 -0.018337 -0.01231
v -0.062982 -0.01967 -0.012993
v -0.06841 -0.01649 -0.014907
v -0.068523 -0.015565 -0.01503
v -0.068637 -0.01464 -0.014907
v -0.068743 -0.013778 -0.014548
v -0.068834 -0.013038 -0.013976
v -0.068903 -0.01247 -0.01323
v -0.068947 -0.012113 -0.012362
v -0.068962 -0.011992 -0.01143
v -0.068947 -0.012113 -0.010498
v -0.020361 0.0508 -0.012302
v -0.019344 0.047625 -0.050933
v -0.019344 0.0508 -0.050933
v -0.019856 0.0508 -0.012959
v -0.019539 0.0508 -0.013725
v -0.019431 0.0508 -0.014547
v -0.019431 0.0508 -0.050196
v -0.065275 -0.014123 -0.007566
v -0.064553 -0.015077 -0.00803
v -0.063436 -0.015969 -0.006535
v -0.06319 -0.017036 -0.00643
v -0.06117 -0.018488 0.008007
v -0.06304 -0.018717 0.008007
v -0.06129 -0.017976 0.007103
v -0.063048 -0.018192 0.007103
v -0.061217 -0.017634 0.007389
v -0.06131 -0.017923 0.007006
v -0.067188 -0.017416 0.007966
v -0.06426 -0.017464 0.009026
v -0.063106 -0.018656 0.008098
v -0.063006 -0.01782 0.006471
v -0.06142 -0.017625 0.006471
v -0.063042 -0.018135 0.007006
v -0.068935 -0.014677 0.007953
v -0.068523 -0.015565 0.00783
v -0.068523 -0.015565 0.00803
v -0.068416 -0.016438 0.008146
v -0.06792 -0.016377 0.008146
v -0.06904 -0.013815 0.008312
v -0.069131 -0.013075 0.008884
v -0.069201 -0.012507 0.00963
v -0.069201 -0.012507 0.01323
v -0.068523 -0.015565 0.01503
v -0.06841 -0.01649 0.014907
v -0.067087 -0.018238 0.014258
v -0.068316 -0.017252 -0.014374
v -0.06823 -0.017951 -0.013834
v -0.067734 -0.01789 -0.013834
v -0.064726 -0.018589 -0.01343
v -0.06316 -0.018215 -0.01231
v -0.068882 -0.012642 -0.00973
v -0.02032 0.047625 -0.012343
v -0.019856 0.047625 -0.012959
v -0.019539 0.047625 -0.013725
v -0.019431 0.047625 -0.050196
v -0.067675 -0.013446 -0.007966
v -0.06466 -0.014204 -0.008146
v -0.063561 -0.014955 -0.00803
v -0.061121 -0.018412 0.008098
v -0.064905 -0.017136 0.007966
v -0.063268 -0.017342 0.009026
v -0.063202 -0.017878 0.007389
v -0.067305 -0.016458 0.007566
v -0.068903 -0.01247 0.01323
v -0.068834 -0.013038 0.013976
v -0.068743 -0.013778 0.014548
v -0.068637 -0.01464 0.014907
v -0.06097 -0.019647 0.011959
v -0.062911 -0.019775 0.013007
v -0.063033 -0.019253 0.01393
v -0.061039 -0.020128 0.012006
v -0.061033 -0.020071 0.012103
v -0.06782 -0.017191 0.014374
v -0.068316 -0.017252 0.014374
v -0.06097 -0.019647 -0.011959
v -0.061058 -0.020148 -0.011975
v -0.062926 -0.019772 -0.013016
v -0.062974 -0.019616 -0.013294
v -0.067087 -0.018238 -0.014258
v -0.064194 -0.018 -0.01313
v -0.068631 -0.014691 -0.014714
v -0.068523 -0.015565 -0.01483
v -0.068416 -0.016438 -0.014714
v -0.06873 -0.013878 -0.014374
v -0.068816 -0.013179 -0.013834
v -0.068924 -0.012305 -0.01231
v -0.068882 -0.012642 -0.01313
v -0.068938 -0.01219 -0.01143
v -0.068924 -0.012305 -0.01055
v -0.019431 0.047625 -0.014547
v -0.065392 -0.013165 -0.007966
v -0.063668 -0.014082 -0.008146
v -0.063561 -0.014955 -0.00643
v -0.064346 -0.016765 0.008486
v -0.068637 -0.01464 0.007953
v -0.068027 -0.015504 0.00803
v -0.068743 -0.013778 0.008312
v -0.068834 -0.013038 0.008884
v -0.068903 -0.01247 0.00963
v -0.068947 -0.012113 0.010498
v -0.068962 -0.011992 0.01143
v -0.068947 -0.012113 0.012362
v -0.06104 -0.019546 0.013007
v -0.068523 -0.015565 0.01483
v -0.068416 -0.016438 0.014714
v -0.067188 -0.017416 0.014894
v -0.063106 -0.018656 0.014762
v -0.063063 -0.018887 0.014566
v -0.061026 -0.019538 -0.013016
v -0.063033 -0.019253 -0.01393
v -0.06782 -0.017191 -0.014374
v -0.064804 -0.017958 -0.014258
v -0.063202 -0.017878 -0.01313
v -0.06792 -0.016377 -0.014714
v -0.06476 -0.01339 -0.008486
v -0.063373 -0.016007 -0.00643
v -0.061431 -0.016932 -0.00643
v -0.061432 -0.01682 -0.00643
v -0.061328 -0.016725 0.00686
v -0.065022 -0.016178 0.007566
v -0.063353 -0.016643 0.008486
v -0.063137 -0.017177 0.00643
v -0.068631 -0.014691 0.008146
v -0.067431 -0.015431 0.00743
v -0.068882 -0.012642 0.01313
v -0.068816 -0.013179 0.013834
v -0.06873 -0.013878 0.014374
v -0.068631 -0.014691 0.014714
v -0.060997 -0.019426 0.012993
v -0.063055 -0.018724 0.014844
v -0.06792 -0.016377 0.014714
v -0.064905 -0.017136 0.014894
v -0.060997 -0.019426 -0.012993
v -0.061017 -0.019376 -0.013294
v -0.067188 -0.017416 -0.014894
v -0.06426 -0.017464 -0.013834
v -0.063106 -0.018656 -0.014762
v -0.068027 -0.015504 -0.01483
v -0.068134 -0.01463 -0.014714
v -0.068234 -0.013817 -0.014374
v -0.063768 -0.013268 -0.008486
v -0.063685 -0.013942 -0.006535
v -0.061503 -0.015777 -0.00643
v -0.064446 -0.015951 0.008146
v -0.063313 -0.016968 0.00686
v -0.068134 -0.01463 0.008146
v -0.065149 -0.01515 0.00743
v -0.06873 -0.013878 0.008486
v -0.068816 -0.013179 0.009026
v -0.068924 -0.012305 0.01055
v -0.068882 -0.012642 0.00973
v -0.068938 -0.01219 0.01143
v -0.068924 -0.012305 0.01231
v -0.063022 -0.018115 0.015885
v -0.068134 -0.01463 0.014714
v -0.068027 -0.015504 0.01483
v -0.067305 -0.016458 0.015294
v -0.064346 -0.016765 0.014374
v -0.063202 -0.017878 0.015471
v -0.061048 -0.01901 -0.01393
v -0.06304 -0.018717 -0.014853
v -0.063048 -0.018192 -0.015757
v -0.067305 -0.016458 -0.015294
v -0.064905 -0.017136 -0.014894
v -0.063268 -0.017342 -0.013834
v -0.063202 -0.017878 -0.015471
v -0.067431 -0.015431 -0.01543
v -0.063687 -0.012697 -0.00643
v -0.063808 -0.012943 -0.00686
v -0.063919 -0.012033 -0.007389
v -0.063636 -0.014225 -0.00643
v -0.061451 -0.015725 -0.006535
v -0.061449 -0.01697 0.00643
v -0.061489 -0.015764 0.00643
v -0.064553 -0.015077 0.00803
v -0.063453 -0.015829 0.008146
v -0.063436 -0.015969 0.006535
v -0.067558 -0.014403 0.007566
v -0.068234 -0.013817 0.014374
v -0.063006 -0.01782 0.016389
v -0.063313 -0.016968 0.016
v -0.065022 -0.016178 0.015294
v -0.063353 -0.016643 0.014374
v -0.063042 -0.018135 -0.015854
v -0.064346 -0.016765 -0.014374
v -0.067558 -0.014403 -0.015294
v -0.067675 -0.013446 -0.014894
v -0.063647 -0.013903 -0.00643
v -0.063854 -0.012569 -0.009026
v -0.061575 -0.014712 -0.00643
v -0.061451 -0.015725 0.006535
v -0.063389 -0.015998 0.00643
v -0.063457 -0.015683 0.00643
v -0.068234 -0.013817 0.008486
v -0.065275 -0.014123 0.007566
v -0.06466 -0.014204 0.008146
v -0.06832 -0.013118 0.009026
v -0.068386 -0.012581 0.00973
v -0.063163 -0.017145 0.01643
v -0.067558 -0.014403 0.015294
v -0.067431 -0.015431 0.01543
v -0.064446 -0.015951 0.014714
v -0.063006 -0.01782 -0.016389
v -0.065022 -0.016178 -0.015294
v -0.063353 -0.016643 -0.014374
v -0.063137 -0.017177 -0.01643
v -0.065149 -0.01515 -0.01543
v -0.063707 -0.012113 -0.00643
v -0.063919 -0.012033 -0.00973
v -0.063826 -0.011745 -0.007006
v -0.0615 -0.015443 0.00643
v -0.063561 -0.014955 0.00643
v -0.063561 -0.014955 0.00803
v -0.067675 -0.013446 0.007966
v -0.067675 -0.013446 0.014894
v -0.06142 -0.017625 0.016389
v -0.061333 -0.017908 0.015885
v -0.06319 -0.017036 0.01643
v -0.065149 -0.01515 0.01543
v -0.063453 -0.015829 0.014714
v -0.06117 -0.018488 -0.014853
v -0.061121 -0.018412 -0.014762
v -0.061217 -0.017634 -0.015471
v -0.06129 -0.017976 -0.015757
v -0.06131 -0.017923 -0.015854
v -0.06142 -0.017625 -0.016389
v -0.064446 -0.015951 -0.014714
v -0.063313 -0.016968 -0.016
v -0.064553 -0.015077 -0.01483
v -0.065275 -0.014123 -0.015294
v -0.065392 -0.013165 -0.014894
v -0.064967 -0.011703 -0.01143
v -0.063961 -0.011696 -0.01055
v -0.063846 -0.011691 -0.007103
v -0.064015 -0.011255 -0.008098
v -0.061703 -0.013674 -0.006541
v -0.061679 -0.013984 -0.00643
v -0.061575 -0.014712 0.00643
v -0.065392 -0.013165 0.007966
v -0.063668 -0.014082 0.008146
v -0.063436 -0.015969 0.016325
v -0.065392 -0.013165 0.014894
v -0.065275 -0.014123 0.015294
v -0.064553 -0.015077 0.01483
v -0.063453 -0.015829 -0.014714
v -0.063436 -0.015969 -0.016325
v -0.06466 -0.014204 -0.014714
v -0.063975 -0.011581 -0.01143
v -0.064088 -0.010658 -0.00893
v -0.062121 -0.011918 -0.00643
v -0.062003 -0.012468 -0.00643
v -0.061752 -0.013643 -0.00643
v -0.063688 -0.013918 0.006541
v -0.06476 -0.01339 0.008486
v -0.061328 -0.016725 0.016
v -0.061431 -0.016932 0.01643
v -0.061432 -0.01682 0.01643
v -0.063561 -0.014955 0.01483
v -0.06476 -0.01339 -0.014374
v -0.064139 -0.010241 -0.009867
v -0.061825 -0.012682 -0.006867
v -0.063966 -0.01118 -0.008007
v -0.064166 -0.010021 -0.011959
v -0.064166 -0.010021 -0.010901
v -0.064078 -0.009519 -0.010885
v -0.06381 -0.012926 0.006867
v -0.063768 -0.013268 0.008486
v -0.061503 -0.015777 0.01643
v -0.063373 -0.016007 0.01643
v -0.063561 -0.014955 0.01643
v -0.06466 -0.014204 0.014714
v -0.06476 -0.01339 0.014374
v -0.061328 -0.016725 -0.016
v -0.061449 -0.01697 -0.01643
v -0.061489 -0.015764 -0.01643
v -0.063389 -0.015998 -0.01643
v -0.063457 -0.015683 -0.01643
v -0.063561 -0.014955 -0.01483
v -0.063561 -0.014955 -0.01643
v -0.063668 -0.014082 -0.014714
v -0.063961 -0.011696 -0.01231
v -0.064097 -0.00954 -0.012006
v -0.064062 -0.009224 -0.011471
v -0.064119 -0.010291 -0.009566
v -0.06411 -0.010129 -0.009844
v -0.0617 -0.013698 0.006535
v -0.061823 -0.012699 0.00686
v -0.061763 -0.013661 0.00643
v -0.063704 -0.012847 0.00643
v -0.064846 -0.012691 0.009026
v -0.064967 -0.011703 0.01143
v -0.061451 -0.015725 0.016325
v -0.063668 -0.014082 0.014714
v -0.061451 -0.015725 -0.016325
v -0.063768 -0.013268 -0.014374
v -0.063854 -0.012569 -0.013834
v -0.063919 -0.012033 -0.01313
v -0.064103 -0.009597 -0.012103
v -0.064139 -0.010241 -0.012993
v -0.063705 -0.012712 0.00643
v -0.063921 -0.012023 0.007396
v -0.063805 -0.011752 0.006988
v -0.063854 -0.012569 0.009026
v -0.061575 -0.014712 0.01643
v -0.063854 -0.012569 0.013834
v -0.063768 -0.013268 0.014374
v -0.063685 -0.013942 0.016325
v -0.0615 -0.015443 -0.01643
v -0.063688 -0.013918 -0.016319
v -0.06381 -0.012926 -0.015993
v -0.063921 -0.012023 -0.015464
v -0.063704 -0.012847 -0.01643
v -0.064015 -0.011251 -0.014757
v -0.063975 -0.011581 0.01143
v -0.063961 -0.011696 0.01231
v -0.062365 -0.009327 -0.012006
v -0.062476 -0.009029 -0.011471
v -0.062181 -0.009777 -0.011959
v -0.062389 -0.009312 -0.010885
v -0.062162 -0.010051 -0.009566
v -0.06221 -0.009895 -0.009844
v -0.061946 -0.012631 0.00643
v -0.063707 -0.012113 0.00643
v -0.064015 -0.011251 0.008103
v -0.063961 -0.011696 0.01055
v -0.063919 -0.012033 0.01313
v -0.063636 -0.014225 0.01643
v -0.063919 -0.012033 0.015471
v -0.061575 -0.014712 -0.01643
v -0.063705 -0.012712 -0.01643
v -0.063805 -0.011752 -0.015872
v -0.062345 -0.009381 -0.012103
v -0.064088 -0.010658 -0.01393
v -0.064096 -0.010122 -0.013007
v -0.062154 -0.009998 -0.009867
v -0.062181 -0.009777 -0.010901
v -0.061973 -0.012522 0.00643
v -0.062121 -0.011918 0.00643
v -0.063983 -0.011173 0.008022
v -0.063919 -0.012033 0.00973
v -0.064088 -0.010658 0.01393
v -0.063808 -0.012943 0.016
v -0.063687 -0.012697 0.01643
v -0.063983 -0.011173 -0.014838
v -0.064029 -0.01102 -0.014566
v -0.062226 -0.009892 -0.013007
v -0.064078 -0.009519 0.011975
v -0.064166 -0.010021 0.011959
v -0.064139 -0.010241 0.012993
v -0.064029 -0.01102 0.008294
v -0.064088 -0.010658 0.00893
v -0.064139 -0.010241 0.009867
v -0.064166 -0.010021 0.010901
v -0.064015 -0.011255 0.014762
v -0.063846 -0.011691 0.015757
v -0.061703 -0.013674 0.016319
v -0.061679 -0.013984 0.01643
v -0.063647 -0.013903 0.01643
v -0.063826 -0.011745 0.015854
v -0.063707 -0.012113 0.01643
v -0.063707 -0.012113 -0.01643
v -0.062154 -0.009998 -0.012993
v -0.064097 -0.00954 0.010854
v -0.06411 -0.010129 0.013016
v -0.064119 -0.010291 0.013294
v -0.064103 -0.009597 0.010757
v -0.063966 -0.01118 0.014853
v -0.061752 -0.013643 0.01643
v -0.061763 -0.013661 -0.01643
v -0.0617 -0.013698 -0.016325
v -0.061823 -0.012699 -0.016
v -0.061946 -0.012631 -0.01643
v -0.061973 -0.012522 -0.01643
v -0.062121 -0.011918 -0.01643
v -0.062103 -0.010414 -0.01393
v -0.064062 -0.009224 0.011389
v -0.061934 -0.01179 0.007389
v -0.062114 -0.011552 0.006975
v -0.062081 -0.010943 0.008016
v -0.064096 -0.010122 0.009853
v -0.061825 -0.012682 0.015993
v -0.062114 -0.011552 -0.015885
v -0.062081 -0.010943 -0.014844
v -0.062073 -0.01078 -0.014566
v -0.06203 -0.011011 -0.014762
v -0.06203 -0.011011 0.008098
v -0.062073 -0.01078 0.008294
v -0.062088 -0.011475 0.015757
v -0.061935 -0.01178 0.015464
v -0.062121 -0.011918 0.01643
v -0.062003 -0.012468 0.01643
v -0.061934 -0.01179 -0.015471
v -0.062365 -0.009327 0.010854
v -0.062476 -0.009029 0.011389
v -0.062181 -0.009777 0.010901
v -0.062389 -0.009312 0.011975
v -0.062096 -0.010947 0.014847
v -0.062103 -0.010414 0.00893
v -0.062345 -0.009381 0.010757
v -0.062226 -0.009892 0.009853
v -0.06203 -0.011007 0.014757
v -0.062154 -0.009998 0.009867
f 1 2 3
f 3 2 4
f 5 6 7
f 3 10 1
f 1 10 11
f 8 6 5
f 9 12 8
f 2 13 4
f 4 13 14
f 13 15 14
f 14 15 16
f 17 7 6
f 17 18 7
f 10 19 11
f 11 19 20
f 8 12 6
f 12 9 19
f 19 9 20
f 15 21 16
f 16 21 22
f 23 18 17
f 24 23 17
f 21 25 22
f 22 25 26
f 27 23 24
f 28 27 24
f 25 29 26
f 26 29 30
f 31 32 33
f 33 32 34
f 32 35 34
f 34 35 36
f 29 37 30
f 30 37 38
f 33 39 31
f 31 39 40
f 37 41 38
f 38 41 43
f 35 47 36
f 36 47 48
f 47 46 48
f 48 46 49
f 42 43 41
f 44 45 50
f 39 54 40
f 40 54 55
f 46 44 49
f 49 44 50
f 42 56 43
f 57 53 58
f 58 59 60
f 50 45 61
f 45 51 61
f 61 51 52
f 52 53 57
f 60 59 63
f 57 58 60
f 61 52 57
f 54 64 55
f 55 64 65
f 62 70 56
f 64 73 65
f 65 73 69
f 74 70 62
f 66 68 67
f 67 68 75
f 68 69 75
f 75 69 73
f 74 76 70
f 70 76 82
f 76 77 82
f 82 77 83
f 83 77 84
f 84 77 78
f 78 79 84
f 84 79 85
f 79 80 85
f 85 80 81
f 63 57 60
f 92 96 97
f 97 96 98
f 104 105 98
f 98 105 97
f 110 95 109
f 109 95 111
f 105 116 117
f 98 108 104
f 104 108 118
f 105 119 97
f 97 119 115
f 120 121 116
f 116 121 117
f 118 122 128
f 129 130 131
f 132 130 129
f 129 131 137
f 143 145 146
f 146 145 147
f 148 142 144
f 144 142 149
f 153 150 142
f 142 150 149
f 146 160 158
f 164 165 152
f 160 170 171
f 172 161 159
f 159 161 170
f 164 175 165
f 160 176 158
f 158 176 169
f 163 180 179
f 179 180 181
f 182 175 164
f 183 167 184
f 184 168 185
f 168 169 185
f 185 169 176
f 187 178 188
f 188 178 189
f 189 179 190
f 183 192 191
f 184 193 192
f 197 177 196
f 196 177 198
f 198 186 199
f 186 187 199
f 199 187 188
f 194 200 195
f 189 202 201
f 203 204 190
f 190 204 202
f 205 200 194
f 198 207 206
f 200 205 208
f 209 210 211
f 209 212 210
f 213 212 209
f 236 253 237
f 267 268 269
f 277 274 272
f 278 235 279
f 251 233 219
f 253 236 280
f 223 264 297
f 297 264 298
f 270 269 268
f 301 302 303
f 269 265 305
f 280 308 253
f 283 255 223
f 264 266 322
f 302 325 303
f 254 253 333
f 310 335 311
f 336 335 310
f 337 281 312
f 312 282 283
f 297 338 223
f 223 338 283
f 297 339 338
f 289 290 316
f 343 317 220
f 220 292 343
f 264 322 298
f 298 322 353
f 364 336 310
f 312 283 365
f 365 283 338
f 338 339 366
f 370 284 220
f 376 316 290
f 290 318 377
f 393 336 364
f 337 312 395
f 395 312 365
f 409 410 318
f 353 418 419
f 420 354 421
f 395 429 337
f 337 429 392
f 338 366 365
f 365 366 430
f 341 220 405
f 354 324 421
f 385 425 424
f 386 426 425
f 426 387 448
f 449 388 358
f 358 360 450
f 427 390 451
f 394 393 452
f 452 393 364
f 453 454 455
f 455 454 456
f 458 459 460
f 460 459 461
f 365 430 395
f 395 430 462
f 395 462 429
f 429 462 463
f 431 396 464
f 464 396 433
f 369 466 263
f 466 480 263
f 263 480 481
f 419 420 483
f 420 421 483
f 483 421 485
f 429 486 392
f 392 486 428
f 429 463 486
f 454 394 456
f 456 394 452
f 455 487 453
f 453 487 488
f 460 489 458
f 458 489 490
f 492 493 433
f 433 493 464
f 500 441 343
f 343 442 478
f 479 478 443
f 479 444 445
f 263 481 446
f 421 324 485
f 422 424 505
f 505 424 506
f 424 425 506
f 506 425 507
f 425 426 507
f 507 426 508
f 426 448 508
f 508 448 509
f 509 449 510
f 449 358 510
f 510 358 511
f 511 450 512
f 512 361 513
f 361 427 513
f 513 427 514
f 514 451 515
f 451 428 515
f 515 428 486
f 487 516 488
f 488 516 517
f 489 518 490
f 490 518 519
f 459 520 461
f 461 520 521
f 431 522 491
f 435 465 523
f 466 435 480
f 480 435 524
f 523 465 494
f 495 468 496
f 469 497 470
f 471 525 497
f 525 472 405
f 475 476 527
f 476 477 499
f 445 501 528
f 528 501 529
f 529 446 481
f 484 533 534
f 484 534 432
f 432 534 492
f 432 492 433
f 485 536 531
f 486 537 515
f 516 538 517
f 517 538 539
f 457 540 541
f 520 544 521
f 521 544 545
f 499 500 551
f 551 500 552
f 478 553 343
f 343 553 552
f 343 552 500
f 478 479 553
f 553 479 554
f 479 445 554
f 554 445 528
f 482 556 530
f 557 558 559
f 559 558 560
f 506 561 505
f 562 561 506
f 563 564 508
f 508 564 562
f 508 562 507
f 507 562 506
f 509 563 508
f 515 565 514
f 514 565 566
f 515 537 565
f 567 539 568
f 568 539 538
f 569 541 570
f 570 541 540
f 457 543 540
f 571 572 542
f 518 573 519
f 519 573 574
f 575 576 547
f 522 579 491
f 491 579 548
f 580 549 581
f 435 523 524
f 524 523 582
f 583 584 524
f 523 494 582
f 582 494 585
f 585 494 586
f 586 494 370
f 586 370 495
f 495 496 586
f 586 496 587
f 587 470 588
f 470 497 588
f 588 497 589
f 497 525 589
f 589 525 590
f 405 591 590
f 405 590 525
f 591 526 592
f 526 527 592
f 592 527 593
f 527 476 593
f 593 476 594
f 594 499 551
f 528 595 596
f 447 502 481
f 481 502 555
f 481 555 529
f 529 555 595
f 529 595 528
f 484 532 533
f 533 532 601
f 534 533 535
f 535 533 602
f 544 569 545
f 545 569 570
f 568 603 567
f 567 603 604
f 542 572 543
f 608 609 610
f 610 609 611
f 612 576 575
f 578 548 613
f 613 548 579
f 614 579 580
f 580 579 522
f 580 522 549
f 549 522 464
f 549 464 493
f 615 616 617
f 559 619 557
f 557 619 620
f 582 583 524
f 554 596 622
f 554 622 553
f 553 622 623
f 553 623 552
f 552 623 624
f 552 624 551
f 551 624 625
f 551 625 594
f 556 626 530
f 530 626 597
f 504 559 560
f 504 560 556
f 556 560 627
f 556 627 626
f 558 628 560
f 560 628 627
f 629 630 599
f 599 630 598
f 617 616 631
f 635 633 636
f 610 638 608
f 608 638 639
f 603 640 604
f 604 640 606
f 571 605 572
f 572 605 641
f 573 642 574
f 574 642 607
f 643 611 644
f 644 611 609
f 612 645 576
f 577 578 646
f 646 578 613
f 581 647 580
f 580 647 614
f 615 650 616
f 651 557 620
f 652 653 654
f 618 621 655
f 586 656 585
f 585 656 657
f 585 657 582
f 582 657 583
f 658 659 587
f 587 659 656
f 587 588 658
f 625 661 594
f 594 661 660
f 594 660 593
f 593 660 592
f 629 664 630
f 630 664 665
f 666 653 652
f 616 632 631
f 667 633 635
f 635 636 668
f 600 634 670
f 532 600 601
f 601 600 671
f 533 601 602
f 602 601 672
f 646 675 577
f 577 675 637
f 638 676 639
f 639 676 677
f 605 606 641
f 641 606 640
f 643 644 642
f 642 644 607
f 678 645 612
f 647 581 679
f 679 581 648
f 682 650 615
f 683 654 684
f 618 685 686
f 618 686 550
f 550 686 619
f 619 686 620
f 620 686 687
f 652 690 666
f 626 691 597
f 597 691 662
f 628 692 627
f 627 692 693
f 598 694 663
f 695 696 664
f 664 696 665
f 668 636 697
f 698 602 672
f 676 706 677
f 677 706 707
f 708 709 710
f 710 709 711
f 710 712 708
f 708 712 713
f 714 715 716
f 716 715 717
f 645 678 718
f 718 678 719
f 579 614 613
f 613 614 720
f 613 720 646
f 646 720 721
f 646 721 675
f 647 722 614
f 614 722 720
f 679 648 723
f 723 648 680
f 680 649 724
f 615 725 682
f 654 726 684
f 727 620 687
f 655 689 729
f 730 666 690
f 694 665 734
f 738 697 636
f 634 669 670
f 670 669 739
f 601 671 672
f 672 671 740
f 636 743 738
f 669 674 739
f 739 674 744
f 675 745 637
f 637 745 705
f 721 746 675
f 675 746 745
f 706 747 707
f 707 747 748
f 747 711 748
f 748 711 709
f 713 712 749
f 750 751 752
f 752 751 753
f 751 754 753
f 753 754 755
f 754 714 755
f 755 714 716
f 715 718 717
f 717 718 719
f 721 720 756
f 756 720 722
f 680 724 723
f 681 758 649
f 649 758 724
f 761 725 760
f 759 682 725
f 687 685 762
f 651 727 688
f 688 727 763
f 664 728 695
f 695 728 764
f 653 695 654
f 654 695 764
f 654 764 726
f 770 771 772
f 770 773 771
f 774 690 775
f 776 775 773
f 777 778 666
f 777 666 730
f 691 780 662
f 662 780 732
f 626 627 693
f 626 693 691
f 691 693 781
f 691 781 780
f 692 782 693
f 693 782 781
f 696 783 665
f 665 783 734
f 785 737 736
f 736 735 785
f 787 672 740
f 738 743 789
f 744 699 790
f 699 700 790
f 790 700 791
f 700 701 791
f 791 701 792
f 701 702 792
f 792 702 793
f 702 703 793
f 793 703 794
f 703 704 794
f 794 704 795
f 798 705 745
f 749 712 799
f 752 800 750
f 750 800 801
f 455 516 487
f 723 806 679
f 679 806 757
f 723 807 806
f 723 724 807
f 808 758 682
f 682 758 681
f 682 681 650
f 650 681 616
f 809 682 759
f 810 726 811
f 810 811 812
f 812 811 813
f 814 812 815
f 816 687 762
f 764 818 726
f 726 818 811
f 811 818 813
f 819 820 821
f 821 820 815
f 821 815 813
f 813 815 812
f 689 765 729
f 729 765 823
f 729 824 825
f 729 825 655
f 655 825 685
f 655 685 618
f 685 825 762
f 762 825 826
f 776 773 770
f 774 775 776
f 769 731 831
f 831 731 832
f 832 732 780
f 695 653 696
f 696 653 666
f 696 666 783
f 783 666 778
f 784 737 785
f 739 834 835
f 739 835 670
f 670 835 671
f 670 671 600
f 671 835 740
f 740 835 836
f 698 787 741
f 741 787 837
f 742 788 838
f 840 799 802
f 840 802 841
f 802 803 841
f 841 803 842
f 805 801 843
f 843 801 800
f 756 722 844
f 844 722 757
f 806 807 845
f 758 846 724
f 724 846 807
f 809 808 682
f 810 847 772
f 814 810 812
f 727 816 763
f 763 816 848
f 764 817 849
f 813 818 850
f 813 850 821
f 851 762 826
f 830 766 852
f 852 766 853
f 766 767 853
f 853 767 854
f 767 768 854
f 854 768 855
f 768 769 855
f 855 769 831
f 856 774 776
f 778 857 858
f 859 856 860
f 781 861 862
f 785 786 863
f 786 864 863
f 865 789 866
f 867 740 836
f 792 869 791
f 791 869 870
f 791 870 790
f 790 870 871
f 790 871 744
f 744 871 834
f 744 834 739
f 869 792 872
f 872 792 793
f 872 793 873
f 796 874 795
f 795 874 875
f 795 875 794
f 794 875 873
f 794 873 793
f 874 796 876
f 876 796 797
f 876 797 877
f 745 746 839
f 745 839 798
f 798 839 877
f 803 804 842
f 842 804 878
f 805 843 804
f 804 843 878
f 806 879 757
f 757 879 844
f 845 807 880
f 880 807 846
f 758 808 846
f 846 808 881
f 847 810 814
f 765 822 823
f 823 822 883
f 825 824 826
f 826 824 884
f 822 827 883
f 883 827 885
f 827 828 885
f 885 828 886
f 828 829 886
f 886 829 887
f 890 830 852
f 856 891 860
f 892 831 893
f 893 831 832
f 893 832 862
f 862 832 780
f 862 780 781
f 895 858 896
f 863 864 897
f 789 898 866
f 836 834 899
f 787 867 837
f 837 867 900
f 788 868 838
f 838 868 901
f 901 898 838
f 838 898 789
f 838 789 742
f 789 743 742
f 742 743 636
f 742 636 673
f 673 636 633
f 834 871 899
f 899 871 902
f 879 845 903
f 808 904 881
f 905 779 906
f 848 851 908
f 849 882 909
f 883 911 823
f 823 911 824
f 823 824 729
f 912 826 884
f 913 852 914
f 914 852 853
f 914 853 915
f 831 892 855
f 855 892 916
f 855 916 854
f 854 916 915
f 854 915 853
f 917 891 856
f 857 860 891
f 857 891 858
f 918 895 896
f 861 919 862
f 862 919 893
f 833 920 894
f 863 897 921
f 921 897 922
f 923 836 899
f 901 925 898
f 871 870 902
f 902 870 926
f 870 869 926
f 926 869 927
f 869 872 927
f 927 872 928
f 872 873 928
f 880 929 845
f 845 929 903
f 880 881 930
f 779 931 906
f 932 882 908
f 908 882 848
f 850 933 910
f 824 911 884
f 884 911 934
f 851 912 908
f 908 912 935
f 911 883 936
f 936 883 885
f 936 885 937
f 888 938 887
f 887 938 939
f 887 939 886
f 886 939 937
f 886 937 885
f 938 888 940
f 940 888 889
f 940 889 941
f 852 913 890
f 890 913 941
f 942 895 918
f 916 892 943
f 943 892 944
f 892 893 944
f 944 893 919
f 942 947 895
f 921 922 948
f 898 925 949
f 949 925 950
f 867 923 900
f 900 923 952
f 901 924 953
f 950 925 954
f 951 902 955
f 955 902 926
f 956 957 930
f 958 929 957
f 957 929 880
f 957 880 930
f 930 881 959
f 960 931 779
f 907 961 962
f 908 963 932
f 882 932 909
f 909 932 964
f 910 933 965
f 966 884 934
f 935 963 908
f 915 916 967
f 967 916 943
f 942 968 969
f 894 970 945
f 969 947 942
f 950 954 972
f 926 927 955
f 955 927 974
f 927 928 974
f 974 928 975
f 958 957 956
f 956 930 976
f 976 930 959
f 929 977 903
f 929 958 977
f 931 960 978
f 907 962 979
f 980 965 981
f 964 965 933
f 964 933 909
f 909 933 850
f 909 850 849
f 849 850 818
f 849 818 764
f 911 936 934
f 934 936 982
f 912 966 935
f 935 966 983
f 935 984 963
f 936 937 982
f 982 937 985
f 937 939 985
f 985 939 986
f 939 938 986
f 987 969 968
f 943 944 988
f 988 944 989
f 944 919 989
f 989 919 945
f 920 946 970
f 970 946 990
f 952 951 992
f 953 973 993
f 951 955 992
f 992 955 995
f 956 996 958
f 998 958 996
f 979 962 999
f 965 1000 981
f 932 963 964
f 964 963 1001
f 1002 934 982
f 983 984 935
f 967 943 1003
f 1003 943 988
f 1005 1004 968
f 942 1005 968
f 1006 969 987
f 970 1007 945
f 945 1007 989
f 970 990 1007
f 971 1008 946
f 946 1008 990
f 1009 1010 948
f 1011 1009 1012
f 1011 1012 1013
f 897 866 922
f 922 866 898
f 922 898 948
f 948 898 949
f 991 1014 972
f 972 1014 1013
f 972 1013 950
f 950 1013 1012
f 950 1012 949
f 949 1012 1009
f 949 1009 948
f 1015 973 992
f 992 973 952
f 925 901 953
f 925 953 954
f 954 953 993
f 954 993 1016
f 954 1016 994
f 995 1017 992
f 955 974 995
f 995 974 1018
f 974 975 1018
f 1018 975 1019
f 1022 1023 958
f 1022 958 998
f 1024 1025 978
f 979 999 1026
f 966 1002 983
f 983 1002 1027
f 963 984 1001
f 1001 984 1028
f 1006 1029 969
f 1003 988 1030
f 1030 988 1031
f 988 989 1031
f 1031 989 1007
f 1007 990 1032
f 1029 1008 969
f 969 1008 971
f 969 971 947
f 947 971 895
f 1010 1009 1011
f 1013 1014 1011
f 992 1017 1015
f 973 1015 993
f 993 1015 1033
f 994 1016 1034
f 995 1035 1017
f 1018 1035 995
f 997 1037 1021
f 931 809 906
f 906 809 759
f 906 759 905
f 1038 996 1039
f 1039 996 956
f 1039 956 1040
f 1040 956 976
f 1040 976 1025
f 1025 976 959
f 1025 959 978
f 978 959 881
f 978 881 931
f 931 881 904
f 931 904 809
f 1024 1040 1025
f 1037 997 1023
f 1023 997 977
f 1023 977 958
f 1042 984 1027
f 1027 984 983
f 1044 1043 1045
f 1007 1032 1031
f 1008 1046 990
f 990 1046 1032
f 1019 1047 1018
f 1018 1047 1035
f 1021 1037 1048
f 1039 1049 1038
f 1049 1040 1024
f 1023 1050 1037
f 1051 1052 1053
f 1053 1052 1048
f 1028 1054 1041
f 984 1042 1028
f 1028 1042 1055
f 1043 1056 1045
f 1006 1057 1029
f 1029 1057 1058
f 1031 1059 1030
f 1030 1059 1060
f 1031 1032 1059
f 1008 1029 1046
f 1046 1029 1058
f 1061 1062 1063
f 1064 1034 1065
f 1015 1017 1033
f 1033 1017 1066
f 1016 993 1034
f 1034 993 1033
f 1034 1033 1067
f 1017 1035 1066
f 1066 1035 1068
f 1036 1069 1020
f 1048 1037 1072
f 1053 1048 1073
f 1073 1048 1072
f 1076 1074 1026
f 1000 1041 1077
f 1077 1041 1054
f 1080 1056 1043
f 1046 1081 1032
f 1032 1081 1059
f 1061 1063 1082
f 1034 1067 1065
f 1035 1047 1068
f 1068 1047 1083
f 1086 1051 1070
f 1087 1069 1051
f 1051 1069 1036
f 1051 1036 1052
f 1052 1036 1021
f 1052 1021 1048
f 1074 1076 1075
f 1077 1054 1088
f 1028 1055 1054
f 1054 1055 1089
f 1054 1089 1090
f 1042 1078 1055
f 1055 1078 1091
f 1056 1080 1092
f 1093 1060 1094
f 1060 1059 1094
f 1094 1059 1081
f 1081 1058 1095
f 1082 1063 1096
f 1067 1066 1097
f 1097 1066 1068
f 1097 1068 1098
f 1084 1099 1083
f 1100 1097 1098
f 1084 1101 1099
f 1086 1087 1051
f 1104 1105 1106
f 1072 1108 1109
f 1072 1109 1073
f 1073 1109 1107
f 1075 1076 1110
f 1091 1089 1055
f 1090 1089 1112
f 1113 1079 1102
f 1095 1058 1115
f 1094 1116 1093
f 1082 1096 1117
f 1067 1097 1100
f 1068 1083 1098
f 1098 1083 1099
f 1100 1098 1118
f 1119 1099 1101
f 1106 1120 1104
f 1121 1101 1084
f 1069 1087 1085
f 1085 1087 1121
f 1085 1121 1084
f 1122 1087 1086
f 1124 1107 1109
f 1123 1109 1108
f 961 910 962
f 962 910 980
f 962 980 999
f 999 980 981
f 999 981 1026
f 1026 981 1000
f 1026 1000 1076
f 1076 1000 1077
f 1076 1077 1110
f 1110 1077 1088
f 1110 1088 1125
f 1125 1088 1111
f 1125 1111 1126
f 1090 1112 1127
f 1091 1112 1089
f 1114 1129 1103
f 1116 1094 1130
f 1130 1094 1081
f 1130 1081 1095
f 1131 1130 1095
f 1098 1099 1119
f 1119 1101 1132
f 1132 1101 1133
f 1106 1134 1120
f 1101 1121 1133
f 1121 1087 1122
f 1135 1136 1137
f 1124 1109 1123
f 1110 1125 1075
f 1075 1125 1126
f 1127 1112 1138
f 1139 1112 1091
f 1140 1113 1141
f 1141 1113 1102
f 1141 1102 1136
f 1136 1102 1103
f 1136 1103 1137
f 1103 1129 1137
f 1129 1114 1142
f 1142 1114 1093
f 1142 1093 1116
f 1143 1142 1116
f 1144 1145 1092
f 1095 1146 1131
f 1116 1130 1131
f 1147 1116 1148
f 1150 1134 1106
f 1141 1136 1135
f 1135 1137 1152
f 1152 1137 1153
f 1112 1139 1138
f 1113 1140 1128
f 1128 1140 1139
f 1128 1139 1091
f 1154 1141 1151
f 1154 1140 1141
f 1137 1129 1153
f 1155 1142 1143
f 1143 1116 1147
f 1144 1156 1145
f 1131 1148 1116
f 1157 1158 1117
f 1159 1157 1160
f 1062 994 1063
f 1063 994 1064
f 1063 1064 1096
f 1096 1064 1065
f 1096 1065 1117
f 1117 1065 1067
f 1117 1067 1157
f 1157 1067 1100
f 1157 1100 1160
f 1160 1100 1118
f 1160 1118 1161
f 1161 1118 1149
f 1161 1149 1162
f 1134 1150 1163
f 1165 1166 1167
f 1139 1140 1168
f 1168 1140 1154
f 1169 1156 1144
f 1158 1157 1159
f 1160 1161 1159
f 1159 1161 1162
f 1170 1119 1132
f 1170 1132 1171
f 1171 1132 1133
f 1171 1133 1172
f 1163 1122 1134
f 1173 1171 1172
f 1173 1172 1163
f 1165 1167 1174
f 1174 1167 1175
f 1056 1006 1045
f 1045 1006 987
f 1045 987 1044
f 1178 1148 1179
f 1179 1148 1131
f 1179 1131 1156
f 1156 1131 1146
f 1156 1146 1145
f 1145 1146 1115
f 1145 1115 1092
f 1092 1115 1058
f 1092 1058 1056
f 1056 1058 1057
f 1056 1057 1006
f 1171 1180 1170
f 1180 1171 1173
f 1181 1182 1183
f 1174 1175 1186
f 1183 1187 1181
f 1166 1090 1127
f 1166 1127 1167
f 1167 1127 1138
f 1167 1138 1175
f 1175 1138 1139
f 1175 1139 1186
f 1186 1139 1168
f 1186 1168 1188
f 1187 1151 1181
f 1181 1151 1164
f 1156 1169 1179
f 1179 1169 1178
f 1188 1190 1186
f 1183 1188 1187
f 1177 1178 1169
f 1190 1188 1183
f 62 56 42
f 66 67 71
f 71 67 72
f 71 72 81
f 71 81 80
f 89 87 90
f 90 87 86
f 90 86 94
f 94 86 91
f 99 93 100
f 100 93 88
f 100 88 106
f 106 88 101
f 94 91 107
f 107 91 102
f 103 92 115
f 115 92 97
f 104 116 105
f 123 116 118
f 118 116 104
f 108 122 118
f 133 123 128
f 128 123 118
f 113 112 134
f 134 112 135
f 112 114 135
f 135 114 136
f 126 125 139
f 139 125 140
f 125 127 140
f 140 127 141
f 151 143 158
f 158 143 146
f 159 160 146
f 154 155 166
f 166 155 167
f 155 156 167
f 167 156 168
f 156 157 168
f 168 157 169
f 157 151 169
f 169 151 158
f 159 170 160
f 162 163 178
f 178 163 179
f 166 167 183
f 167 168 184
f 173 174 186
f 186 174 187
f 174 162 187
f 187 162 178
f 178 179 189
f 184 192 183
f 185 193 184
f 1038 194 195
f 177 186 198
f 190 202 189
f 199 207 198
f 232 230 214
f 218 266 222
f 221 230 232
f 232 214 220
f 216 217 215
f 215 217 222
f 215 224 216
f 216 224 219
f 220 214 227
f 227 214 228
f 228 214 229
f 214 230 229
f 229 230 243
f 221 232 231
f 231 232 248
f 226 238 225
f 225 238 256
f 266 215 222
f 218 222 233
f 233 222 217
f 218 234 266
f 266 234 265
f 265 234 235
f 224 215 223
f 226 313 238
f 225 239 226
f 226 239 240
f 244 221 245
f 247 245 246
f 220 249 232
f 220 225 256
f 223 215 266
f 217 216 219
f 217 219 233
f 251 218 233
f 252 234 218
f 237 253 254
f 254 219 255
f 255 219 224
f 220 239 225
f 239 284 240
f 240 284 257
f 242 241 258
f 258 241 285
f 220 227 260
f 247 262 245
f 293 262 247
f 230 221 244
f 350 293 247
f 248 232 249
f 249 296 250
f 250 296 295
f 249 220 296
f 220 256 263
f 223 266 264
f 299 271 273
f 272 274 275
f 276 275 274
f 272 273 271
f 265 235 278
f 251 252 218
f 236 237 281
f 281 237 282
f 237 254 282
f 282 254 255
f 238 313 256
f 256 313 314
f 284 239 220
f 220 258 285
f 258 286 242
f 242 286 259
f 287 288 220
f 288 287 289
f 289 287 290
f 261 291 260
f 260 291 292
f 245 262 244
f 293 348 262
f 260 227 261
f 261 227 228
f 245 221 246
f 246 221 231
f 246 350 247
f 231 248 320
f 248 249 250
f 296 220 263
f 250 295 321
f 272 275 273
f 273 275 323
f 272 271 277
f 271 299 388
f 270 268 299
f 299 268 304
f 267 269 305
f 306 278 279
f 279 235 307
f 307 235 234
f 281 309 236
f 236 309 280
f 310 311 28
f 312 281 282
f 283 282 255
f 223 255 224
f 263 256 314
f 315 314 313
f 257 371 240
f 240 371 313
f 240 313 226
f 367 315 313
f 241 374 285
f 285 374 375
f 286 258 220
f 220 317 287
f 287 317 290
f 290 317 318
f 220 260 292
f 244 262 348
f 294 261 228
f 230 244 243
f 243 244 294
f 293 350 319
f 231 350 246
f 320 248 250
f 320 250 321
f 296 352 295
f 295 352 321
f 265 269 266
f 266 269 354
f 273 323 299
f 275 276 323
f 323 276 300
f 276 274 300
f 300 274 355
f 303 325 326
f 327 328 277
f 277 328 274
f 274 328 301
f 274 301 303
f 299 304 388
f 268 267 304
f 304 267 329
f 305 265 330
f 330 265 278
f 331 278 306
f 331 306 332
f 332 306 362
f 252 307 234
f 254 333 219
f 219 333 251
f 27 28 334
f 334 28 311
f 87 339 297
f 315 369 314
f 284 372 257
f 257 372 371
f 340 259 341
f 341 259 286
f 289 316 288
f 288 316 342
f 347 345 291
f 291 345 346
f 261 294 291
f 291 294 347
f 293 319 348
f 348 319 349
f 243 294 228
f 243 228 229
f 320 350 231
f 320 351 350
f 296 263 352
f 297 298 87
f 87 298 86
f 324 323 300
f 324 300 355
f 301 385 302
f 271 388 277
f 277 388 327
f 358 304 329
f 267 305 329
f 329 305 359
f 278 331 389
f 389 331 332
f 361 332 362
f 306 279 362
f 362 279 307
f 280 309 363
f 280 363 308
f 281 337 309
f 314 369 263
f 315 367 369
f 369 367 397
f 372 284 370
f 399 368 367
f 313 371 367
f 367 371 373
f 285 375 220
f 220 375 370
f 340 400 374
f 259 340 374
f 259 374 242
f 242 374 241
f 401 400 340
f 220 341 286
f 288 342 220
f 317 378 318
f 318 378 344
f 291 346 292
f 292 346 379
f 347 380 345
f 380 347 381
f 294 382 347
f 319 350 349
f 349 350 416
f 351 320 383
f 383 320 417
f 269 270 354
f 354 270 299
f 299 323 324
f 274 303 355
f 355 303 384
f 303 326 384
f 384 326 356
f 326 325 356
f 356 325 357
f 325 302 357
f 357 302 385
f 301 386 385
f 301 328 386
f 386 328 387
f 328 327 387
f 387 327 388
f 388 304 358
f 329 359 358
f 305 330 359
f 359 330 360
f 330 278 360
f 360 278 389
f 361 389 332
f 362 307 252
f 251 333 252
f 252 333 390
f 333 253 390
f 390 253 391
f 392 363 309
f 253 308 391
f 391 308 363
f 392 309 337
f 339 87 396
f 396 87 89
f 367 368 397
f 397 368 434
f 368 399 398
f 372 436 371
f 371 436 373
f 367 373 399
f 374 400 375
f 375 400 437
f 401 340 402
f 403 404 402
f 341 406 340
f 340 406 407
f 403 402 340
f 403 340 408
f 408 340 407
f 376 290 377
f 318 410 377
f 409 318 411
f 409 411 412
f 411 318 413
f 318 344 413
f 378 317 343
f 343 292 379
f 382 414 347
f 244 415 294
f 294 415 382
f 350 351 416
f 416 351 383
f 320 321 417
f 417 321 352
f 322 418 353
f 322 266 418
f 418 266 354
f 418 354 420
f 299 324 354
f 423 384 356
f 357 424 356
f 385 424 357
f 386 425 385
f 387 426 386
f 427 252 390
f 392 391 363
f 366 339 431
f 431 339 396
f 432 433 89
f 89 433 396
f 435 397 434
f 436 372 370
f 370 375 437
f 406 341 405
f 406 472 407
f 407 472 408
f 405 220 342
f 316 376 342
f 342 376 439
f 412 411 440
f 440 411 477
f 413 344 441
f 441 344 378
f 346 345 379
f 379 345 442
f 345 380 442
f 442 380 443
f 380 381 443
f 443 381 444
f 381 347 444
f 444 347 414
f 382 415 414
f 446 416 383
f 417 352 263
f 447 88 93
f 384 423 324
f 384 324 355
f 422 423 356
f 422 356 424
f 448 387 449
f 449 387 388
f 359 360 358
f 389 361 360
f 360 361 450
f 362 252 361
f 361 252 427
f 391 428 390
f 390 428 451
f 428 391 392
f 368 398 434
f 434 398 465
f 397 435 466
f 397 466 369
f 398 399 465
f 465 399 467
f 399 373 467
f 467 373 436
f 400 401 437
f 437 401 468
f 401 402 468
f 468 402 438
f 402 404 438
f 438 404 469
f 404 403 469
f 469 403 471
f 403 408 471
f 471 408 472
f 405 472 406
f 376 377 439
f 439 377 473
f 405 342 439
f 377 410 473
f 473 410 474
f 410 409 474
f 474 409 475
f 409 412 475
f 475 412 440
f 440 477 476
f 411 413 477
f 477 413 441
f 343 441 378
f 343 379 442
f 478 442 443
f 443 444 479
f 445 444 414
f 445 414 415
f 417 263 446
f 417 446 383
f 447 93 482
f 482 93 99
f 418 420 419
f 89 90 432
f 432 90 484
f 430 366 491
f 491 366 431
f 96 92 492
f 492 92 493
f 465 467 494
f 370 467 436
f 495 437 468
f 470 468 438
f 469 470 438
f 439 473 498
f 476 475 440
f 499 477 441
f 501 445 415
f 416 446 501
f 416 501 349
f 348 349 244
f 244 349 501
f 244 501 415
f 503 504 99
f 99 504 482
f 485 324 110
f 324 423 110
f 110 423 95
f 423 422 95
f 95 422 505
f 448 449 509
f 358 450 511
f 450 361 512
f 427 451 514
f 464 522 431
f 434 465 435
f 494 467 370
f 370 437 495
f 496 468 470
f 471 472 525
f 471 497 469
f 498 405 439
f 526 498 473
f 475 527 474
f 474 527 526
f 474 526 473
f 499 441 500
f 501 446 529
f 502 447 530
f 530 447 482
f 86 298 353
f 86 353 91
f 531 102 483
f 483 102 91
f 483 91 419
f 419 91 353
f 90 94 484
f 484 94 532
f 492 534 96
f 96 534 535
f 110 536 485
f 485 531 483
f 463 537 486
f 59 546 63
f 63 546 547
f 462 430 548
f 548 430 491
f 92 103 493
f 493 103 549
f 99 100 503
f 503 100 550
f 504 556 482
f 98 96 108
f 108 96 535
f 110 109 536
f 505 561 111
f 505 111 95
f 510 124 509
f 509 124 563
f 512 112 511
f 511 112 113
f 511 113 510
f 510 113 124
f 513 114 512
f 512 114 112
f 514 566 513
f 513 566 114
f 542 543 457
f 63 547 576
f 537 463 577
f 577 463 578
f 463 462 578
f 578 462 548
f 581 549 103
f 524 584 101
f 524 101 480
f 496 470 587
f 498 591 405
f 498 526 591
f 476 499 594
f 447 481 88
f 88 481 480
f 88 480 101
f 555 502 597
f 597 502 530
f 558 557 598
f 598 557 599
f 94 107 532
f 532 107 600
f 100 106 550
f 550 106 618
f 106 101 621
f 621 101 584
f 528 596 554
f 503 619 559
f 503 559 504
f 121 632 616
f 121 120 632
f 632 120 633
f 107 102 634
f 634 102 531
f 108 535 122
f 122 535 602
f 565 537 637
f 637 537 577
f 581 103 648
f 648 103 115
f 105 117 119
f 119 117 649
f 599 557 651
f 106 621 618
f 587 656 586
f 658 588 138
f 125 126 590
f 590 126 138
f 590 138 589
f 589 138 588
f 592 127 591
f 591 127 125
f 591 125 590
f 660 127 592
f 595 555 662
f 662 555 597
f 628 558 663
f 663 558 598
f 632 633 667
f 531 536 634
f 634 536 669
f 107 634 600
f 116 123 120
f 120 123 673
f 669 536 674
f 674 536 109
f 119 680 115
f 115 680 648
f 121 681 117
f 117 681 649
f 652 654 683
f 550 619 503
f 599 651 629
f 629 651 688
f 621 584 689
f 689 584 583
f 630 694 598
f 122 602 698
f 109 111 674
f 674 111 699
f 111 561 699
f 699 561 700
f 561 562 700
f 700 562 701
f 562 564 701
f 701 564 702
f 564 563 702
f 702 563 703
f 563 124 703
f 703 124 704
f 124 113 704
f 704 113 134
f 114 566 136
f 136 566 705
f 566 565 705
f 705 565 637
f 119 649 680
f 651 620 727
f 728 664 688
f 688 664 629
f 621 689 655
f 622 596 731
f 731 596 732
f 596 595 732
f 732 595 662
f 692 628 733
f 733 628 663
f 630 665 694
f 697 786 668
f 668 786 735
f 668 735 635
f 635 735 736
f 635 736 667
f 667 736 737
f 667 737 632
f 632 737 137
f 632 137 631
f 631 137 131
f 631 131 617
f 122 698 128
f 128 698 741
f 123 133 673
f 673 133 742
f 722 647 757
f 757 647 679
f 130 132 760
f 760 132 761
f 760 725 615
f 760 615 130
f 130 615 617
f 130 617 131
f 686 685 687
f 689 583 765
f 765 583 657
f 661 625 766
f 766 625 767
f 625 624 767
f 767 624 768
f 624 623 768
f 768 623 769
f 623 622 769
f 769 622 731
f 775 690 652
f 775 652 773
f 773 652 683
f 694 148 663
f 663 148 733
f 737 784 137
f 785 735 786
f 698 672 787
f 788 133 741
f 741 133 128
f 674 699 744
f 704 134 795
f 795 134 796
f 134 135 796
f 796 135 797
f 135 136 797
f 797 136 798
f 136 705 798
f 63 576 645
f 746 721 145
f 145 721 756
f 681 121 616
f 773 683 771
f 771 683 684
f 771 684 772
f 772 684 726
f 772 726 810
f 727 687 816
f 817 728 763
f 763 728 688
f 657 656 765
f 765 656 822
f 656 659 822
f 822 659 827
f 659 658 827
f 827 658 828
f 658 138 828
f 828 138 829
f 138 126 829
f 829 126 139
f 127 660 141
f 141 660 830
f 660 661 830
f 830 661 766
f 731 732 832
f 782 692 833
f 833 692 733
f 694 734 148
f 148 734 142
f 783 778 153
f 133 788 742
f 145 143 746
f 746 143 839
f 132 779 761
f 815 820 814
f 728 817 764
f 816 762 851
f 777 857 778
f 774 856 859
f 782 861 781
f 148 144 733
f 733 144 833
f 783 153 734
f 734 153 142
f 738 789 865
f 787 740 867
f 868 788 837
f 837 788 741
f 798 877 797
f 749 799 840
f 145 756 147
f 147 756 844
f 882 817 848
f 848 817 763
f 821 850 819
f 829 139 887
f 887 139 888
f 139 140 888
f 888 140 889
f 140 141 889
f 889 141 890
f 141 830 890
f 861 782 894
f 894 782 833
f 778 858 153
f 153 858 150
f 835 834 836
f 673 633 120
f 143 151 839
f 839 151 877
f 147 844 172
f 172 844 879
f 806 845 879
f 809 904 808
f 761 779 905
f 814 820 907
f 816 851 848
f 817 882 849
f 910 819 850
f 851 826 912
f 690 774 730
f 730 774 859
f 730 859 777
f 777 859 860
f 777 860 857
f 858 891 152
f 858 152 896
f 144 920 833
f 150 858 895
f 867 836 923
f 924 868 900
f 900 868 837
f 928 873 154
f 873 875 154
f 154 875 155
f 875 874 155
f 155 874 156
f 874 876 156
f 156 876 157
f 876 877 157
f 157 877 151
f 146 147 159
f 159 147 172
f 846 881 880
f 890 941 889
f 891 917 152
f 919 861 945
f 945 861 894
f 144 149 920
f 920 149 946
f 899 902 923
f 923 902 951
f 868 924 901
f 879 903 172
f 172 903 161
f 820 961 907
f 912 884 966
f 941 913 162
f 162 913 163
f 913 914 163
f 163 914 180
f 914 915 180
f 180 915 967
f 920 970 894
f 150 971 149
f 149 971 946
f 973 924 952
f 952 924 900
f 972 954 991
f 928 154 975
f 975 154 166
f 903 977 161
f 910 965 980
f 986 938 173
f 938 940 173
f 173 940 174
f 940 941 174
f 174 941 162
f 923 951 952
f 924 973 953
f 994 991 954
f 170 161 997
f 997 161 977
f 966 934 1002
f 177 985 986
f 180 967 181
f 181 967 1003
f 152 165 896
f 896 165 175
f 896 175 918
f 918 175 1005
f 918 1005 942
f 786 697 864
f 864 697 738
f 864 738 897
f 897 738 865
f 897 865 866
f 975 166 1019
f 1019 166 183
f 160 171 176
f 176 171 1020
f 171 170 1021
f 1021 170 997
f 1000 965 1001
f 1001 965 964
f 982 985 1002
f 1002 985 197
f 197 985 177
f 986 173 177
f 177 173 186
f 175 182 1005
f 1005 182 1004
f 971 150 895
f 1021 1036 171
f 171 1036 1020
f 905 759 725
f 905 725 761
f 1041 1000 1028
f 1028 1000 1001
f 179 181 190
f 190 181 203
f 181 1003 203
f 203 1003 1030
f 1004 1043 1044
f 1043 1004 182
f 183 191 1019
f 1019 191 1047
f 176 1020 185
f 185 1020 193
f 1040 1049 1039
f 1022 1050 1023
f 1002 197 1027
f 1027 197 196
f 1011 1014 1061
f 1014 1062 1061
f 994 1034 1064
f 1020 1069 193
f 1070 1051 1071
f 194 1038 1049
f 1053 1071 1051
f 1078 1042 196
f 196 1042 1027
f 189 201 188
f 188 201 1079
f 1030 1060 203
f 203 1060 204
f 1047 191 1083
f 1083 191 1084
f 191 192 1084
f 1084 192 1085
f 192 193 1085
f 1085 193 1069
f 1088 1054 1111
f 198 206 196
f 196 206 1078
f 188 1079 199
f 199 1079 207
f 204 1060 1093
f 1046 1058 1081
f 1067 1033 1066
f 1079 201 1102
f 1102 201 1103
f 1107 1105 1071
f 1050 208 1037
f 1037 208 1108
f 1037 1108 1072
f 1073 1107 1053
f 1053 1107 1071
f 996 1038 998
f 998 1038 195
f 998 195 1022
f 1022 195 1050
f 1050 195 200
f 1050 200 208
f 1090 1111 1054
f 207 1079 1113
f 201 202 1103
f 1103 202 1114
f 202 204 1114
f 1114 204 1093
f 1123 1108 208
f 1105 1107 1124
f 820 819 961
f 961 819 910
f 1078 206 1091
f 1091 206 1128
f 206 207 1128
f 1128 207 1113
f 1118 1098 1149
f 1106 1105 1124
f 1115 1146 1095
f 1119 1149 1098
f 1151 1141 1164
f 1129 1142 1155
f 1014 991 1062
f 1062 991 994
f 1135 1164 1141
f 1075 1126 1165
f 1126 1166 1165
f 1170 1162 1149
f 1149 1119 1170
f 1172 1133 1121
f 1172 1121 1163
f 1163 1121 1122
f 1134 1122 1086
f 1134 1086 1120
f 1120 1086 1070
f 1120 1070 1104
f 1104 1070 1071
f 1104 1071 1105
f 1177 1176 1178
f 1044 987 968
f 1044 968 1004
f 1170 1180 1162
f 1184 1182 1164
f 1155 211 1129
f 1129 211 210
f 1129 210 1153
f 1153 210 212
f 1153 212 1152
f 1152 212 1184
f 1152 1184 1135
f 1135 1184 1164
f 1148 1178 1147
f 1147 1178 1176
f 1147 1176 1143
f 1143 1176 1155
f 1155 1176 1185
f 1155 1185 211
f 1166 1126 1111
f 1111 1090 1166
f 1188 1168 1154
f 1188 1154 1187
f 1187 1154 1151
f 1181 1164 1182
f 1185 1189 211
f 1177 1185 1176
f 1159 1162 1180
f 212 213 1184
f 1184 213 1182
f 1189 1185 1177
f 1183 1182 213
