# Derived from Cyberbotics Webots R2025a Robotiq3fGripper.proto
# Source: https://github.com/cyberbotics/webots/blob/R2025a/projects/devices/robotiq/protos/Robotiq3fGripper.proto
# License: Apache License 2.0; see ../LICENSE and ../NOTICE
o finger_middle
v -0.054903 -0.022323 0.00097
v -0.057341 -0.020259 0.00097
v -0.054903 -0.022323 -0.017064
v -0.057341 -0.020259 -0.017064
v -0.059528 -0.01793 0.00097
v -0.059528 -0.01793 -0.017064
v -0.061435 -0.015366 -0.017064
v -0.061435 -0.015366 0.00097
v -0.063037 -0.012602 0.00097
v -0.063037 -0.012602 -0.017064
v -0.052244 -0.024095 -0.017064
v -0.052244 -0.024095 0.00097
v -0.042198 0.004884 0.00097
v -0.042198 0.004884 -0.017064
v -0.040961 0.005697 0.00097
v -0.040961 0.005697 -0.017064
v -0.049401 -0.025552 0.00097
v -0.049401 -0.025552 -0.017064
v -0.03957 0.006204 0.00097
v -0.03957 0.006204 -0.017064
v -0.043311 -0.02745 0.00097
v -0.04641 -0.026676 0.00097
v -0.043311 -0.02745 -0.017064
v -0.04641 -0.026676 -0.017064
v 0.002823 0.005716 0.00097
v 0.004049 0.004925 0.00097
v 0.002823 0.005716 -0.017064
v 0.004049 0.004925 -0.017064
v 0.005063 0.003875 -0.017064
v 0.005063 0.003875 0.00097
v -0.040143 -0.027865 -0.017064
v -0.040143 -0.027865 0.00097
v -0.036948 -0.027916 0.00097
v -0.036948 -0.027916 -0.017064
v -0.0381 0.006375 0.00097
v -0.0381 0.006375 -0.017064
v 0.00145 0.006208 -0.017064
v 0.00145 0.006208 0.00097
v 0.005811 0.002622 0.00097
v 0.005811 0.002622 -0.017064
v 0.007244 -0.015797 -0.017064
v 0.008036 -0.014814 -0.017064
v 0.007244 -0.015797 0.00097
v 0.008036 -0.014814 0.00097
v 0 0.006375 0.00097
v 0 0.006375 -0.017064
v 0.006234 -0.016555 0.00097
v 0.006234 -0.016555 -0.017064
v 0.00856 -0.013665 -0.017064
v 0.00856 -0.013665 0.00097
v -0.033769 -0.027602 -0.017064
v -0.033769 -0.027602 0.00097
v 0 0.006375 0.00097
v 0 0.006375 -0.017064
v 0.006255 0.001232 0.00097
v 0.006255 0.001232 -0.017064
v 0 0.006375 0.00097
v -0.030646 -0.026927 0.00097
v 0.005068 -0.017041 0.00097
v 0.008697 -0.011163 0.00097
v 0.008786 -0.012423 0.00097
v 0.005068 -0.017041 -0.017064
v 0.008786 -0.012423 -0.017064
v -0.030646 -0.026927 -0.017064
v 0.008697 -0.011163 -0.017064
v 0 0.006375 -0.017064
v -0.006096 0.00635 -0.020226
v -0.006096 0.00635 0.004133
v -0.006096 0.004649 -0.020226
v -0.006096 0.004649 0.004133
v 0 0.00635 -0.020226
v 0.006263 0.001048 -0.020226
v 0.003597 0.005233 -0.020226
v 0.002481 0.005845 -0.020226
v 0.001266 0.006223 -0.020226
v 0.005356 0.003412 -0.020226
v 0.004568 0.004411 -0.020226
v 0.005928 0.002276 -0.020226
v 0.00577 -0.006252 -0.020226
v 0.001693 -0.001693 -0.020226
v 0.005589 -0.006325 -0.020226
v 0.001197 -0.002073 -0.020226
v 0.005396 -0.00635 -0.020226
v 0.006346 -0.000222 -0.020226
v 0.002312 -0.00062 -0.020226
v 0.006158 -0.005615 -0.020226
v 0.002073 -0.001197 -0.020226
v 0.006126 -0.005807 -0.020226
v 0.006047 -0.005984 -0.020226
v 0.005926 -0.006136 -0.020226
v -0.001197 -0.002073 -0.020226
v -0.001693 -0.001693 -0.020226
v -0.012446 -0.00635 -0.020226
v -0.002073 -0.001197 -0.020226
v 0.00062 -0.002312 -0.020226
v 0 -0.002394 -0.020226
v -0.00062 -0.002312 -0.020226
v -0.002312 -0.00062 -0.020226
v -0.002394 0 -0.020226
v -0.002312 0.00062 -0.020226
v -0.002073 0.001197 -0.020226
v -0.001693 0.001693 -0.020226
v -0.001197 0.002073 -0.020226
v -0.00062 0.002312 -0.020226
v 0 0.002394 -0.020226
v 0.00062 0.002312 -0.020226
v 0.001197 0.002073 -0.020226
v 0.001693 0.001693 -0.020226
v 0.002073 0.001197 -0.020226
v 0.002312 0.00062 -0.020226
v 0.002394 0 -0.020226
v -0.007746 0.001791 -0.005827
v 0 0.00635 -0.023414
v -0.009271 0.00635 -0.023414
v -0.009271 0.00635 0.00732
v 0 0.00635 0.004133
v 0 0.00635 0.00732
v -0.002312 -0.00062 0.004133
v -0.002073 -0.001197 0.004133
v -0.012446 -0.00635 0.004133
v 0.006263 0.001048 0.004133
v 0.001266 0.006223 0.004133
v 0.002481 0.005845 0.004133
v 0.003597 0.005233 0.004133
v 0.005928 0.002276 0.004133
v 0.004568 0.004411 0.004133
v 0.005356 0.003412 0.004133
v 0.00577 -0.006252 0.004133
v 0.005589 -0.006325 0.004133
v 0.005396 -0.00635 0.004133
v 0.006158 -0.005615 0.004133
v -0.001197 -0.002073 0.004133
v -0.00062 -0.002312 0.004133
v 0 -0.002394 0.004133
v 0.00062 -0.002312 0.004133
v 0.001197 -0.002073 0.004133
v 0.002073 0.001197 0.004133
v 0.001693 0.001693 0.004133
v -0.00062 0.002312 0.004133
v -0.001197 0.002073 0.004133
v -0.001693 0.001693 0.004133
v 0.006047 -0.005984 0.004133
v 0.005926 -0.006136 0.004133
v 0.006126 -0.005807 0.004133
v -0.001693 -0.001693 0.004133
v 0.001693 -0.001693 0.004133
v 0.002073 -0.001197 0.004133
v 0.006346 -0.000222 0.004133
v 0.002312 -0.00062 0.004133
v 0.002394 0 0.004133
v 0.002312 0.00062 0.004133
v 0.001197 0.002073 0.004133
v 0.00062 0.002312 0.004133
v 0 0.002394 0.004133
v -0.002073 0.001197 0.004133
v -0.002312 0.00062 0.004133
v -0.002394 0 0.004133
v -0.007752 0.00178 -0.005927
v -0.007752 0.00178 -0.005726
v 0.001266 0.006223 -0.023414
v 0 0.00635 -0.023414
v -0.007772 0.001746 -0.006021
v -0.007772 0.001746 -0.005632
v -0.009271 0.004318 -0.023414
v -0.009271 0.004318 0.00732
v -0.031496 0.00635 -0.023414
v -0.028321 0.00635 -0.023414
v -0.031496 -0.00635 -0.023414
v -0.028321 0.004318 -0.023414
v -0.002394 0 -0.023414
v 0.00062 0.002312 -0.023414
v 0 0.002394 -0.023414
v -0.00062 0.002312 -0.023414
v -0.001197 0.002073 -0.023414
v -0.002312 -0.00062 -0.023414
v -0.002073 -0.001197 -0.023414
v -0.001693 -0.001693 -0.023414
v -0.001693 0.001693 -0.023414
v -0.002073 0.001197 -0.023414
v -0.002312 0.00062 -0.023414
v 0 -0.002394 -0.023414
v 0.005396 -0.00635 -0.023414
v -0.00062 -0.002312 -0.023414
v -0.001197 -0.002073 -0.023414
v 0.006346 -0.000222 -0.023414
v 0.006158 -0.005615 -0.023414
v 0.002073 -0.001197 -0.023414
v 0.006126 -0.005807 -0.023414
v 0.001693 -0.001693 -0.023414
v 0.006047 -0.005984 -0.023414
v 0.005926 -0.006136 -0.023414
v 0.00062 -0.002312 -0.023414
v 0.001197 -0.002073 -0.023414
v 0.005589 -0.006325 -0.023414
v 0.00577 -0.006252 -0.023414
v 0.002312 -0.00062 -0.023414
v 0.002394 0 -0.023414
v 0.006263 0.001048 -0.023414
v 0.002312 0.00062 -0.023414
v 0.005928 0.002276 -0.023414
v 0.002073 0.001197 -0.023414
v 0.005356 0.003412 -0.023414
v 0.004568 0.004411 -0.023414
v 0.001693 0.001693 -0.023414
v 0.003597 0.005233 -0.023414
v 0.001197 0.002073 -0.023414
v 0.002481 0.005845 -0.023414
v -0.007803 0.001692 -0.00555
v -0.028321 0.004318 0.00732
v -0.028321 0.00635 0.00732
v -0.031496 0.00635 0.00732
v -0.002073 0.001197 0.00732
v -0.002312 0.00062 0.00732
v -0.002394 0 0.00732
v -0.002312 -0.00062 0.00732
v -0.031496 -0.00635 0.00732
v -0.001197 -0.002073 0.00732
v -0.001693 -0.001693 0.00732
v -0.001693 0.001693 0.00732
v -0.001197 0.002073 0.00732
v 0.00577 -0.006252 0.00732
v 0.001693 -0.001693 0.00732
v 0.005589 -0.006325 0.00732
v 0.001197 -0.002073 0.00732
v 0.005396 -0.00635 0.00732
v 0.002312 0.00062 0.00732
v 0.002394 0 0.00732
v 0.006346 -0.000222 0.00732
v 0.002312 -0.00062 0.00732
v 0.006158 -0.005615 0.00732
v 0.002073 -0.001197 0.00732
v 0.006126 -0.005807 0.00732
v 0.006047 -0.005984 0.00732
v 0.005926 -0.006136 0.00732
v -0.002073 -0.001197 0.00732
v 0.00062 -0.002312 0.00732
v 0 -0.002394 0.00732
v -0.00062 -0.002312 0.00732
v -0.00062 0.002312 0.00732
v 0 0.002394 0.00732
v 0.001266 0.006223 0.00732
v 0.00062 0.002312 0.00732
v 0.002481 0.005845 0.00732
v 0.001197 0.002073 0.00732
v 0.006263 0.001048 0.00732
v 0.005928 0.002276 0.00732
v 0.002073 0.001197 0.00732
v 0.005356 0.003412 0.00732
v 0.001693 0.001693 0.00732
v 0.004568 0.004411 0.00732
v 0.003597 0.005233 0.00732
v 0 0.002394 0.00732
v 0 0.002394 -0.023414
v 0 0.002394 -0.020226
v -0.007803 0.001692 -0.006103
v -0.007845 0.00162 -0.005487
v -0.025015 0.004318 -0.010714
v -0.025006 0.004318 -0.010643
v -0.024974 0.004318 -0.010567
v -0.024907 0.004318 -0.010481
v -0.023374 0.004318 -0.010643
v -0.018796 0.004318 -0.000744
v -0.023364 0.004318 -0.010714
v -0.018796 0.004318 -0.015349
v -0.02419 0.004318 -0.010244
v -0.024541 0.004318 -0.010288
v -0.024778 0.004318 -0.010384
v -0.011944 0.004318 -0.00569
v -0.011973 0.004318 -0.00576
v -0.016573 0.004318 -0.017572
v -0.016649 0.004318 -0.016996
v -0.011982 0.004318 -0.005827
v -0.023472 0.004318 -0.010946
v -0.023406 0.004318 -0.01086
v -0.023374 0.004318 -0.010785
v -0.010766 0.004318 -0.005894
v -0.010757 0.004318 -0.005827
v -0.010795 0.004318 -0.00569
v -0.010854 0.004318 -0.005614
v -0.019371 0.004318 0.003625
v -0.019907 0.004318 0.003403
v -0.025006 0.004318 -0.010785
v -0.024974 0.004318 -0.01086
v -0.024907 0.004318 -0.010946
v -0.010766 0.004318 -0.00576
v -0.01096 0.004318 -0.005534
v -0.011134 0.004318 -0.005463
v -0.01137 0.004318 -0.005433
v -0.020368 0.004318 0.00305
v -0.020721 0.004318 0.00259
v -0.020943 0.004318 0.002054
v -0.020368 0.004318 -9.3e-05
v -0.019907 0.004318 -0.000446
v -0.016871 0.004318 -0.01646
v -0.017224 0.004318 -0.016
v -0.017685 0.004318 -0.015647
v -0.018221 0.004318 -0.015425
v -0.021018 0.004318 0.001478
v -0.020943 0.004318 0.000903
v -0.020721 0.004318 0.000367
v -0.01096 0.004318 -0.00612
v -0.010854 0.004318 -0.00604
v -0.010795 0.004318 -0.005964
v -0.016573 0.004318 0.001478
v -0.016649 0.004318 0.000903
v -0.016871 0.004318 0.000367
v -0.016649 0.004318 0.002054
v -0.016871 0.004318 0.00259
v -0.017224 0.004318 0.00305
v -0.017685 0.004318 0.003403
v -0.018221 0.004318 0.003625
v -0.018796 0.004318 0.003701
v -0.023406 0.004318 -0.010567
v -0.023472 0.004318 -0.010481
v -0.019371 0.004318 -0.000668
v -0.023602 0.004318 -0.010384
v -0.023838 0.004318 -0.010288
v -0.018221 0.004318 -0.000668
v -0.017685 0.004318 -0.000446
v -0.011885 0.004318 -0.005614
v -0.017224 0.004318 -9.3e-05
v -0.011779 0.004318 -0.005534
v -0.011605 0.004318 -0.005463
v -0.011885 0.004318 -0.00604
v -0.011779 0.004318 -0.00612
v -0.011605 0.004318 -0.00619
v -0.019907 0.004318 -0.019496
v -0.019371 0.004318 -0.019718
v -0.018796 0.004318 -0.019794
v -0.018221 0.004318 -0.019718
v -0.017685 0.004318 -0.019496
v -0.017224 0.004318 -0.019143
v -0.016871 0.004318 -0.018683
v -0.016649 0.004318 -0.018147
v -0.01137 0.004318 -0.00622
v -0.011134 0.004318 -0.00619
v -0.019371 0.004318 -0.015425
v -0.019907 0.004318 -0.015647
v -0.023602 0.004318 -0.011044
v -0.020368 0.004318 -0.016
v -0.020721 0.004318 -0.01646
v -0.020943 0.004318 -0.016996
v -0.021018 0.004318 -0.017572
v -0.020943 0.004318 -0.018147
v -0.020721 0.004318 -0.018683
v -0.020368 0.004318 -0.019143
v -0.011973 0.004318 -0.005894
v -0.011944 0.004318 -0.005964
v -0.024778 0.004318 -0.011044
v -0.024541 0.004318 -0.011139
v -0.02419 0.004318 -0.011184
v -0.023838 0.004318 -0.011139
v 0 0.00635 0.004133
v 0 0.00635 0.00732
v 0 0.002394 0.004133
v 0 0.002394 0.00732
v 0 0.002394 -0.023414
v 0 0.002394 -0.020226
v -0.007845 0.00162 -0.006166
v -0.007893 0.001536 -0.005447
v -0.002394 0 0.004133
v -0.002394 0 0.00732
v -0.007893 0.001536 -0.006207
v -0.002394 0 -0.020226
v -0.002394 0 -0.023414
v -0.002394 0 -0.020226
v -0.007946 0.001445 -0.005433
v -0.002394 0 0.004133
v -0.002394 0 0.00732
v 0.002394 0 -0.020226
v 0.002394 0 -0.023414
v -0.007946 0.001445 -0.00622
v -0.007998 0.001354 -0.005447
v 0.002394 0 0.004133
v 0.002394 0 0.00732
v -0.007998 0.001354 -0.006207
v -0.008047 0.00127 -0.005487
v 0.002394 0 0.00732
v 0.002394 0 0.004133
v 0.002394 0 -0.020226
v 0.002394 0 -0.023414
v -0.008047 0.00127 -0.006166
v -0.008088 0.001198 -0.00555
v -0.008119 0.001144 -0.005632
v -0.008088 0.001198 -0.006103
v -0.037338 -0.00635 0.00332
v -0.037338 -0.00635 -0.000643
v -0.031496 -0.00635 0.00332
v -0.025654 -0.00635 -0.000643
v -0.025654 -0.00635 -0.015451
v -0.037338 -0.00635 -0.015451
v -0.037338 -0.00635 -0.019413
v -0.031496 -0.00635 -0.019413
v -0.008119 0.001144 -0.006021
v 0 -0.002394 -0.023414
v 0 -0.002394 -0.020226
v -0.008139 0.00111 -0.005726
v -0.031496 0.00635 0.00332
v -0.008139 0.00111 -0.005927
v -0.031496 0.00635 -0.019413
v -0.031496 0.00635 -0.000643
v -0.037338 0.00635 -0.000643
v -0.037338 0.00635 0.00332
v -0.031496 0.00635 -0.015451
v -0.037338 0.00635 -0.015451
v -0.037338 0.00635 -0.019413
v -0.008146 0.001099 -0.005827
v 0 -0.002394 -0.023414
v 0 -0.002394 -0.020226
v 0 -0.002394 0.004133
v -0.035846 0.002254 0.00332
v -0.035339 0.001594 0.00332
v -0.035021 0.000825 0.00332
v -0.034912 0 0.00332
v -0.035021 -0.000825 0.00332
v -0.035339 -0.001594 0.00332
v -0.035846 -0.002254 0.00332
v -0.036506 -0.002761 0.00332
v -0.037275 -0.003079 0.00332
v -0.038658 -0.006211 0.00332
v -0.0381 -0.003188 0.00332
v -0.039921 -0.005801 0.00332
v -0.038925 -0.003079 0.00332
v -0.04107 -0.005137 0.00332
v -0.039694 -0.002761 0.00332
v -0.042057 -0.004249 0.00332
v -0.040354 -0.002254 0.00332
v -0.042837 -0.003175 0.00332
v -0.040861 -0.001594 0.00332
v -0.043377 -0.001962 0.00332
v -0.041179 -0.000825 0.00332
v -0.043653 -0.000664 0.00332
v -0.041288 0 0.00332
v -0.043653 0.000664 0.00332
v -0.041179 0.000825 0.00332
v -0.043377 0.001962 0.00332
v -0.042837 0.003175 0.00332
v -0.040861 0.001594 0.00332
v -0.042057 0.004249 0.00332
v -0.040354 0.002254 0.00332
v -0.04107 0.005137 0.00332
v -0.039694 0.002761 0.00332
v -0.039921 0.005801 0.00332
v -0.038925 0.003079 0.00332
v -0.038658 0.006211 0.00332
v -0.0381 0.003188 0.00332
v -0.037275 0.003079 0.00332
v -0.036506 0.002761 0.00332
v -0.041179 -0.000825 -0.019413
v -0.040861 -0.001594 -0.019413
v -0.042837 -0.003175 -0.019413
v -0.035846 -0.002254 -0.019413
v -0.035339 -0.001594 -0.019413
v -0.035021 -0.000825 -0.019413
v -0.034912 0 -0.019413
v -0.035021 0.000825 -0.019413
v -0.035339 0.001594 -0.019413
v -0.042057 -0.004249 -0.019413
v -0.040354 -0.002254 -0.019413
v -0.04107 -0.005137 -0.019413
v -0.039694 -0.002761 -0.019413
v -0.039921 -0.005801 -0.019413
v -0.038925 -0.003079 -0.019413
v -0.038658 -0.006211 -0.019413
v -0.0381 -0.003188 -0.019413
v -0.037275 -0.003079 -0.019413
v -0.036506 -0.002761 -0.019413
v -0.043377 -0.001962 -0.019413
v -0.043653 -0.000664 -0.019413
v -0.041288 0 -0.019413
v -0.043653 0.000664 -0.019413
v -0.041179 0.000825 -0.019413
v -0.043377 0.001962 -0.019413
v -0.040861 0.001594 -0.019413
v -0.042837 0.003175 -0.019413
v -0.040354 0.002254 -0.019413
v -0.042057 0.004249 -0.019413
v -0.039694 0.002761 -0.019413
v -0.04107 0.005137 -0.019413
v -0.038925 0.003079 -0.019413
v -0.039921 0.005801 -0.019413
v -0.0381 0.003188 -0.019413
v -0.038658 0.006211 -0.019413
v -0.037275 0.003079 -0.019413
v -0.036506 0.002761 -0.019413
v -0.035846 0.002254 -0.019413
v -0.038658 -0.006211 -0.000643
v -0.038658 -0.006211 -0.015451
v 0 -0.002394 0.004133
v 0 -0.002394 0.00732
v -0.034912 0 -0.000643
v -0.035021 -0.000825 -0.000643
v -0.034912 0 0.00332
v -0.035021 0.000825 -0.000643
v -0.034912 0 -0.000643
v -0.035021 -0.000825 -0.015451
v -0.034912 0 -0.015451
v -0.034912 0 -0.019413
v -0.035339 -0.001594 -0.015451
v -0.037275 -0.003079 -0.015451
v -0.036506 -0.002761 -0.015451
v -0.0381 -0.003188 -0.015451
v -0.039921 -0.005801 -0.000643
v -0.036506 -0.002761 -0.000643
v -0.037275 -0.003079 -0.000643
v -0.035846 -0.002254 -0.000643
v -0.035339 -0.001594 -0.000643
v -0.035339 0.001594 -0.000643
v -0.038658 0.006211 -0.000643
v -0.038658 0.006211 -0.015451
v -0.035021 0.000825 -0.015451
v -0.034912 0 -0.015451
v -0.035846 -0.002254 -0.015451
v -0.039921 -0.005801 -0.015451
v -0.0381 -0.003188 -0.000643
v -0.035846 0.002254 -0.000643
v -0.037275 0.003079 -0.000643
v -0.036506 0.002761 -0.000643
v -0.0381 0.003188 -0.000643
v -0.035339 0.001594 -0.015451
v -0.038925 -0.003079 -0.015451
v -0.038925 -0.003079 -0.000643
v -0.04107 -0.005137 -0.000643
v -0.039921 0.005801 -0.000643
v -0.036506 0.002761 -0.015451
v -0.037275 0.003079 -0.015451
v -0.035846 0.002254 -0.015451
v -0.039921 0.005801 -0.015451
v -0.04107 -0.005137 -0.015451
v -0.038925 0.003079 -0.000643
v -0.0381 0.003188 -0.015451
v -0.039694 -0.002761 -0.015451
v -0.039694 -0.002761 -0.000643
v -0.042057 -0.004249 -0.000643
v -0.04107 0.005137 -0.000643
v -0.04107 0.005137 -0.015451
v -0.038925 0.003079 -0.015451
v -0.042057 -0.004249 -0.015451
v -0.039694 0.002761 -0.000643
v -0.040354 -0.002254 -0.015451
v -0.040354 -0.002254 -0.000643
v -0.042837 -0.003175 -0.000643
v -0.042057 0.004249 -0.000643
v -0.042057 0.004249 -0.015451
v -0.039694 0.002761 -0.015451
v -0.042837 -0.003175 -0.015451
v -0.040354 0.002254 -0.000643
v -0.040861 -0.001594 -0.015451
v -0.040861 -0.001594 -0.000643
v -0.043377 -0.001962 -0.000643
v -0.042837 0.003175 -0.000643
v -0.042837 0.003175 -0.015451
v -0.040354 0.002254 -0.015451
v -0.043377 -0.001962 -0.015451
v -0.040861 0.001594 -0.000643
v -0.041179 -0.000825 -0.015451
v -0.041179 -0.000825 -0.000643
v -0.043653 -0.000664 -0.000643
v -0.043377 0.001962 -0.000643
v -0.043377 0.001962 -0.015451
v -0.040861 0.001594 -0.015451
v -0.043653 -0.000664 -0.015451
v -0.041179 0.000825 -0.000643
v -0.041288 0 -0.015451
v -0.041288 0 -0.019413
v -0.041288 0 0.00332
v -0.041288 0 -0.000643
v -0.043653 0.000664 -0.000643
v -0.043653 0.000664 -0.015451
v -0.041179 0.000825 -0.015451
v -0.041288 0 -0.000643
v -0.041288 0 0.00332
v -0.041288 0 -0.015451
v -0.041288 0 -0.019413
v -0.009461 0.004318 -0.023287
v -0.02813 0.004318 -0.023287
v -0.009461 0.005906 -0.023287
v -0.02813 0.007493 -0.023287
v -0.009461 0.007493 -0.023287
v -0.02813 0.007493 0.007193
v -0.02813 0.004318 0.007193
v -0.009461 0.007493 0.007193
v -0.009461 0.005906 0.007193
v -0.009461 0.004318 0.007193
f 3 2 4
f 2 5 4
f 4 5 6
f 7 6 8
f 8 6 5
f 8 9 7
f 7 9 10
f 3 11 1
f 1 11 12
f 9 13 10
f 10 13 14
f 13 15 14
f 14 15 16
f 17 12 18
f 18 12 11
f 15 19 16
f 16 19 20
f 21 22 23
f 23 22 24
f 22 17 24
f 24 17 18
f 25 26 27
f 27 26 28
f 29 28 30
f 30 28 26
f 23 31 21
f 21 31 32
f 33 32 34
f 34 32 31
f 19 35 20
f 20 35 36
f 27 37 25
f 25 37 38
f 30 39 29
f 29 39 40
f 41 42 43
f 43 42 44
f 45 38 46
f 46 38 37
f 43 47 41
f 41 47 48
f 42 49 44
f 44 49 50
f 34 51 33
f 33 51 52
f 35 53 36
f 36 53 54
f 39 55 40
f 40 55 56
f 25 38 57
f 35 58 57
f 57 58 59
f 19 15 35
f 35 15 13
f 2 1 5
f 5 1 35
f 5 35 8
f 8 35 13
f 8 13 9
f 39 30 55
f 55 30 26
f 1 12 35
f 35 12 17
f 35 17 22
f 52 58 33
f 33 58 35
f 33 35 32
f 32 35 22
f 32 22 21
f 26 25 55
f 55 25 57
f 55 57 60
f 60 57 59
f 60 59 47
f 50 61 44
f 44 61 60
f 44 60 43
f 43 60 47
f 47 59 48
f 48 59 62
f 49 63 50
f 50 63 61
f 51 64 52
f 52 64 58
f 55 60 56
f 56 60 65
f 60 61 65
f 65 61 63
f 59 58 62
f 62 58 64
f 34 31 36
f 7 36 6
f 6 36 11
f 6 11 4
f 4 11 3
f 16 20 14
f 14 20 36
f 14 36 10
f 10 36 7
f 66 37 27
f 29 40 28
f 28 40 56
f 56 65 62
f 62 65 48
f 48 65 63
f 48 63 41
f 41 63 49
f 41 49 42
f 51 34 64
f 64 34 36
f 64 36 62
f 62 36 66
f 62 66 56
f 56 66 27
f 56 27 28
f 18 11 24
f 24 11 36
f 24 36 23
f 23 36 31
f 67 68 69
f 69 68 70
f 67 69 71
f 71 69 72
f 73 74 75
f 76 77 78
f 78 77 73
f 78 73 72
f 72 73 75
f 72 75 71
f 79 80 81
f 81 80 82
f 81 82 83
f 84 85 86
f 86 85 87
f 86 87 88
f 88 87 80
f 88 80 89
f 89 80 79
f 89 79 90
f 91 92 93
f 93 92 94
f 82 95 83
f 83 95 96
f 83 96 93
f 93 96 97
f 93 97 91
f 94 98 93
f 93 98 99
f 93 99 69
f 69 99 100
f 69 100 101
f 101 102 69
f 69 102 103
f 69 103 104
f 104 105 69
f 69 105 106
f 69 106 72
f 72 106 107
f 72 107 108
f 108 109 72
f 72 109 110
f 72 110 84
f 84 110 111
f 84 111 85
f 70 112 69
f 71 113 67
f 67 113 114
f 67 114 68
f 68 114 115
f 68 115 116
f 116 115 117
f 118 119 120
f 70 68 121
f 121 68 116
f 122 123 124
f 116 122 121
f 121 122 124
f 121 124 125
f 125 124 126
f 125 126 127
f 128 129 130
f 131 132 133
f 133 134 131
f 131 134 135
f 131 135 136
f 121 137 138
f 139 140 70
f 70 140 141
f 142 143 144
f 144 143 128
f 144 128 131
f 131 128 130
f 131 130 132
f 132 130 120
f 132 120 145
f 145 120 119
f 136 146 131
f 131 146 147
f 131 147 148
f 147 149 148
f 148 149 150
f 148 150 121
f 121 150 151
f 121 151 137
f 138 152 121
f 121 152 153
f 121 153 70
f 70 153 154
f 70 154 139
f 141 155 70
f 70 155 156
f 70 156 120
f 120 156 157
f 120 157 118
f 112 158 69
f 159 112 70
f 160 161 75
f 75 161 71
f 69 158 162
f 70 163 159
f 164 165 114
f 114 165 115
f 166 167 168
f 168 167 169
f 168 169 170
f 171 172 164
f 164 172 173
f 164 173 174
f 170 175 168
f 168 175 176
f 168 176 177
f 174 178 164
f 164 178 179
f 164 179 169
f 169 179 180
f 169 180 170
f 181 182 183
f 183 182 168
f 183 168 184
f 184 168 177
f 185 186 187
f 187 186 188
f 187 188 189
f 189 188 190
f 189 190 191
f 181 192 182
f 182 192 193
f 182 193 194
f 194 193 189
f 194 189 195
f 195 189 191
f 187 196 185
f 185 196 197
f 185 197 198
f 198 197 199
f 198 199 200
f 200 199 201
f 200 201 202
f 202 201 203
f 203 201 204
f 203 204 205
f 205 204 206
f 205 206 207
f 207 206 171
f 207 171 160
f 160 171 113
f 113 171 164
f 113 164 114
f 198 200 72
f 72 200 78
f 69 162 93
f 70 208 163
f 209 210 211
f 212 115 213
f 213 115 165
f 213 165 214
f 214 165 215
f 216 217 218
f 212 219 115
f 115 219 220
f 115 220 117
f 221 222 223
f 223 222 224
f 223 224 225
f 226 227 228
f 228 227 229
f 228 229 230
f 230 229 231
f 230 231 232
f 232 231 222
f 232 222 233
f 233 222 221
f 233 221 234
f 211 216 209
f 209 216 218
f 209 218 165
f 165 218 235
f 165 235 215
f 224 236 225
f 225 236 237
f 225 237 216
f 216 237 238
f 216 238 217
f 220 239 117
f 117 239 240
f 117 240 241
f 241 240 242
f 241 242 243
f 243 242 244
f 228 245 226
f 226 245 246
f 226 246 247
f 247 246 248
f 247 248 249
f 249 248 250
f 249 250 244
f 244 250 251
f 244 251 243
f 246 245 125
f 125 245 121
f 242 252 153
f 153 252 154
f 244 242 152
f 152 242 153
f 171 206 106
f 106 206 107
f 253 171 254
f 254 171 106
f 76 78 202
f 202 78 200
f 207 160 74
f 74 160 75
f 93 162 255
f 256 208 70
f 257 169 258
f 258 169 209
f 258 209 259
f 259 209 260
f 261 262 263
f 263 262 264
f 265 266 209
f 209 266 267
f 209 267 260
f 268 269 262
f 270 271 272
f 273 274 264
f 264 274 275
f 264 275 263
f 164 276 277
f 278 279 165
f 280 281 209
f 257 282 169
f 169 282 283
f 169 283 284
f 164 277 165
f 165 277 285
f 165 285 278
f 279 286 165
f 165 286 287
f 165 287 288
f 281 289 209
f 209 289 290
f 209 290 291
f 265 292 293
f 271 294 272
f 272 294 295
f 272 295 269
f 269 295 296
f 269 296 262
f 262 296 297
f 262 297 264
f 291 298 209
f 209 298 299
f 209 299 265
f 265 299 300
f 265 300 292
f 301 302 164
f 164 302 303
f 164 303 276
f 304 165 305
f 305 165 288
f 305 288 306
f 304 307 165
f 165 307 308
f 165 308 309
f 309 310 165
f 165 310 311
f 165 311 209
f 209 311 312
f 209 312 280
f 261 313 262
f 262 313 314
f 262 314 315
f 315 314 316
f 315 316 293
f 293 316 317
f 293 317 265
f 262 318 268
f 268 318 319
f 268 319 320
f 320 319 321
f 320 321 322
f 322 321 306
f 322 306 323
f 323 306 288
f 324 325 164
f 164 325 326
f 327 328 169
f 169 328 329
f 169 329 164
f 164 329 330
f 164 330 331
f 331 332 164
f 164 332 333
f 164 333 334
f 326 335 164
f 164 335 336
f 164 336 301
f 264 337 273
f 273 337 338
f 273 338 339
f 340 341 284
f 284 341 342
f 284 342 169
f 169 342 343
f 169 343 344
f 344 345 169
f 169 345 346
f 169 346 327
f 270 272 334
f 334 272 347
f 334 347 164
f 164 347 348
f 164 348 324
f 340 284 338
f 338 284 349
f 338 349 350
f 350 351 338
f 338 351 352
f 338 352 339
f 122 353 241
f 241 353 354
f 148 121 228
f 228 121 245
f 139 355 239
f 239 355 356
f 249 244 138
f 138 244 152
f 108 107 204
f 204 107 206
f 173 357 104
f 104 357 358
f 185 198 84
f 84 198 72
f 203 205 77
f 77 205 73
f 202 203 76
f 76 203 77
f 205 207 73
f 73 207 74
f 93 255 359
f 70 360 256
f 156 155 213
f 213 155 212
f 361 156 362
f 362 156 213
f 248 246 127
f 127 246 125
f 250 248 126
f 126 248 127
f 140 139 220
f 220 139 239
f 247 249 137
f 137 249 138
f 109 108 201
f 201 108 204
f 174 173 103
f 103 173 104
f 359 363 93
f 170 180 364
f 364 180 100
f 175 365 98
f 98 365 366
f 70 367 360
f 219 212 141
f 141 212 155
f 118 368 215
f 215 368 369
f 141 140 219
f 219 140 220
f 123 122 243
f 243 122 241
f 243 251 123
f 123 251 124
f 251 250 124
f 124 250 126
f 131 148 230
f 230 148 228
f 226 247 151
f 151 247 137
f 201 199 109
f 109 199 110
f 178 174 102
f 102 174 103
f 370 110 371
f 371 110 199
f 186 185 86
f 86 185 84
f 363 372 93
f 101 100 179
f 179 100 180
f 176 175 94
f 94 175 98
f 373 367 70
f 119 118 235
f 235 118 215
f 151 374 226
f 226 374 375
f 179 178 101
f 101 178 102
f 93 372 376
f 177 176 92
f 92 176 94
f 70 377 373
f 145 119 218
f 218 119 235
f 229 378 149
f 149 378 379
f 144 131 232
f 232 131 230
f 85 380 196
f 196 380 381
f 188 186 88
f 88 186 86
f 93 376 382
f 184 177 91
f 91 177 92
f 70 383 377
f 384 70 93
f 93 70 120
f 231 229 147
f 147 229 149
f 87 85 187
f 187 85 196
f 382 385 93
f 183 184 97
f 97 184 91
f 384 383 70
f 130 225 120
f 120 225 216
f 386 387 388
f 388 387 389
f 390 93 389
f 389 93 120
f 389 120 388
f 388 120 216
f 391 392 390
f 390 392 393
f 390 393 93
f 93 393 168
f 93 168 83
f 83 168 182
f 132 145 217
f 217 145 218
f 142 144 233
f 233 144 232
f 222 231 146
f 146 231 147
f 190 188 89
f 89 188 88
f 80 87 189
f 189 87 187
f 93 385 394
f 210 209 167
f 167 209 169
f 395 183 396
f 396 183 97
f 397 384 93
f 398 388 211
f 211 388 216
f 93 394 399
f 398 211 210
f 167 166 210
f 210 166 400
f 401 402 403
f 403 398 401
f 401 398 210
f 401 210 404
f 404 210 400
f 404 400 405
f 405 400 406
f 393 400 168
f 168 400 166
f 93 407 397
f 133 132 238
f 238 132 217
f 143 142 234
f 234 142 233
f 224 222 136
f 136 222 146
f 191 190 90
f 90 190 89
f 82 80 193
f 193 80 189
f 399 407 93
f 192 408 95
f 95 408 409
f 410 133 237
f 237 133 238
f 398 411 412
f 412 413 398
f 398 413 414
f 398 414 388
f 388 414 415
f 388 415 416
f 416 417 388
f 388 417 418
f 388 418 386
f 386 418 419
f 386 419 420
f 420 419 421
f 420 421 422
f 422 421 423
f 422 423 424
f 424 423 425
f 424 425 426
f 426 425 427
f 426 427 428
f 428 427 429
f 428 429 430
f 430 429 431
f 430 431 432
f 432 431 433
f 432 433 434
f 434 433 435
f 434 435 436
f 436 435 437
f 437 435 438
f 437 438 439
f 439 438 440
f 439 440 441
f 441 440 442
f 441 442 443
f 443 442 444
f 443 444 445
f 445 444 446
f 445 446 403
f 403 446 447
f 403 447 398
f 398 447 448
f 398 448 411
f 449 450 451
f 393 452 453
f 453 454 393
f 393 454 455
f 393 455 400
f 400 455 456
f 400 456 457
f 451 450 458
f 458 450 459
f 458 459 460
f 460 459 461
f 460 461 462
f 462 461 463
f 462 463 464
f 464 463 465
f 464 465 392
f 392 465 466
f 392 466 393
f 393 466 467
f 393 467 452
f 451 468 449
f 449 468 469
f 449 469 470
f 470 469 471
f 470 471 472
f 472 471 473
f 472 473 474
f 474 473 475
f 474 475 476
f 476 475 477
f 476 477 478
f 478 477 479
f 478 479 480
f 480 479 481
f 480 481 482
f 482 481 483
f 482 483 484
f 484 483 406
f 484 406 485
f 485 406 400
f 485 400 486
f 486 400 457
f 193 192 82
f 82 192 95
f 81 83 194
f 194 83 182
f 487 387 420
f 420 387 386
f 128 143 221
f 221 143 234
f 236 224 135
f 135 224 136
f 195 191 79
f 79 191 90
f 194 195 81
f 81 195 79
f 464 392 488
f 488 392 391
f 223 225 129
f 129 225 130
f 135 489 236
f 236 489 490
f 491 492 493
f 493 492 415
f 494 495 413
f 413 495 414
f 221 223 128
f 128 223 129
f 496 497 454
f 454 497 498
f 499 496 453
f 453 496 454
f 500 501 466
f 466 501 467
f 502 500 465
f 465 500 466
f 503 487 422
f 422 487 420
f 504 505 418
f 418 505 419
f 506 504 417
f 417 504 418
f 416 415 507
f 507 415 492
f 508 494 412
f 412 494 413
f 445 403 509
f 509 403 402
f 510 405 483
f 483 405 406
f 456 455 511
f 511 455 512
f 513 499 452
f 452 499 453
f 462 464 514
f 514 464 488
f 452 467 513
f 513 467 501
f 505 515 419
f 419 515 421
f 507 506 416
f 416 506 417
f 516 508 411
f 411 508 412
f 517 518 447
f 447 518 448
f 519 517 446
f 446 517 447
f 457 456 520
f 520 456 511
f 521 502 463
f 463 502 465
f 423 421 522
f 522 421 515
f 523 503 424
f 424 503 422
f 518 516 448
f 448 516 411
f 443 445 524
f 524 445 509
f 525 526 485
f 485 526 484
f 527 525 486
f 486 525 485
f 528 510 481
f 481 510 483
f 520 527 457
f 457 527 486
f 460 462 529
f 529 462 514
f 530 519 444
f 444 519 446
f 482 484 531
f 531 484 526
f 532 521 461
f 461 521 463
f 425 423 533
f 533 423 522
f 534 523 426
f 426 523 424
f 441 443 535
f 535 443 524
f 536 528 479
f 479 528 481
f 480 482 537
f 537 482 531
f 458 460 538
f 538 460 529
f 539 530 442
f 442 530 444
f 540 532 459
f 459 532 461
f 427 425 541
f 541 425 533
f 542 534 428
f 428 534 426
f 439 441 543
f 543 441 535
f 544 536 477
f 477 536 479
f 478 480 545
f 545 480 537
f 451 458 546
f 546 458 538
f 547 539 440
f 440 539 442
f 548 540 450
f 450 540 459
f 429 427 549
f 549 427 541
f 550 542 430
f 430 542 428
f 437 439 551
f 551 439 543
f 552 544 475
f 475 544 477
f 476 478 553
f 553 478 545
f 468 451 554
f 554 451 546
f 555 547 438
f 438 547 440
f 556 548 449
f 449 548 450
f 431 429 557
f 557 429 549
f 558 550 432
f 432 550 430
f 436 437 559
f 559 437 551
f 560 552 473
f 473 552 475
f 474 476 561
f 561 476 553
f 469 468 562
f 562 468 554
f 563 555 435
f 435 555 438
f 564 556 565
f 565 556 449
f 566 431 567
f 567 431 557
f 568 558 434
f 434 558 432
f 434 436 568
f 568 436 559
f 569 560 471
f 471 560 473
f 472 474 570
f 570 474 561
f 471 469 569
f 569 469 562
f 571 563 572
f 572 563 435
f 570 573 472
f 472 573 574
f 575 576 577
f 577 576 578
f 577 578 579
f 580 578 581
f 581 578 576
f 582 583 579
f 579 583 577
f 578 580 579
f 579 580 582
f 582 580 583
f 583 580 581
f 583 581 584
