# Derived from Cyberbotics Webots R2025a Robotiq3fGripper.proto
# Source: https://github.com/cyberbotics/webots/blob/R2025a/projects/devices/robotiq/protos/Robotiq3fGripper.proto
# License: Apache License 2.0; see ../LICENSE and ../NOTICE
o finger_palm
v -0.034822 0.022225 0.007683
v -0.035819 0.022225 0.005614
v -0.034822 -0.014287 0.007683
v -0.035819 -0.014287 0.005614
v -0.033506 0.022225 0.007766
v -0.03218 0.022225 0.009506
v -0.033506 0.030163 0.007766
v -0.03218 0.030163 0.009506
v -0.033528 -0.014287 0.009581
v -0.033528 0.022225 0.009581
v -0.036496 0.022225 0.003419
v -0.036496 -0.014287 0.003419
v -0.034551 0.030163 0.005845
v -0.034551 0.022225 0.005845
v -0.036838 0.022225 0.001148
v -0.036838 -0.014287 0.001148
v -0.035291 0.030163 0.003786
v -0.035291 0.022225 0.003786
v -0.030604 0.022225 0.011023
v -0.030604 0.030163 0.011023
v -0.031966 -0.014287 0.011265
v -0.031966 0.022225 0.011265
v -0.035707 0.030163 0.001639
v -0.035707 0.022225 0.001639
v -0.024951 0.030163 0.001984
v -0.02432 0.030163 0.002806
v -0.024951 -0.014287 0.001984
v -0.02432 -0.014287 0.002806
v -0.036838 0.022225 -0.001148
v -0.036838 -0.014287 -0.001148
v -0.025347 -0.014287 0.001027
v -0.025347 0.030163 0.001027
v -0.035791 0.030163 -0.000547
v -0.035791 0.022225 -0.000547
v -0.028815 0.022225 0.012281
v -0.028815 0.030163 0.012281
v -0.03017 -0.014287 0.012697
v -0.03017 0.022225 0.012697
v -0.036496 0.022225 -0.003419
v -0.036496 -0.014287 -0.003419
v -0.023498 0.030163 0.003437
v -0.023498 -0.014287 0.003437
v -0.035819 0.022225 -0.005614
v -0.035819 -0.014287 -0.005614
v -0.025483 -0.014287 0
v -0.025483 0.030163 0
v -0.03554 0.030163 -0.00272
v -0.03554 0.022225 -0.00272
v -0.026855 0.022225 0.013252
v -0.026855 0.030163 0.013252
v -0.028181 -0.014287 0.013845
v -0.028181 0.022225 0.013845
v -0.03496 0.030163 -0.004829
v -0.03496 0.022225 -0.004829
v -0.022541 0.030163 0.003834
v -0.022541 -0.014287 0.003834
v -0.034822 0.022225 -0.007683
v -0.034822 -0.014287 -0.007683
v -0.025483 -0.014287 0
v -0.025347 -0.014287 -0.001027
v -0.025483 0.030163 0
v -0.025347 0.030163 -0.001027
v -0.034066 0.030163 -0.006825
v -0.034066 0.022225 -0.006825
v 0.004559 -0.011265 0.015367
v 0.003914 -0.011515 0.015367
v 0.004559 -0.011265 -0.015367
v 0.003914 -0.011515 -0.015367
v -0.024769 0.022225 0.013912
v -0.024769 0.030163 0.013912
v -0.026043 -0.014287 0.014684
v -0.026043 0.022225 0.014684
v -0.033528 0.022225 -0.009581
v -0.033528 -0.014287 -0.009581
v -0.032877 0.030163 -0.008661
v -0.032877 0.022225 -0.008661
v 0.005133 -0.01088 -0.015367
v 0.005133 -0.01088 0.015367
v -0.021514 0.030163 0.003969
v -0.021514 -0.014287 0.003969
v -0.022607 0.022225 0.014246
v -0.022607 0.030163 0.014246
v -0.024951 -0.014287 -0.001984
v -0.024951 0.030163 -0.001984
v -0.003203 -0.013422 -0.015367
v -0.003203 -0.013422 0.015367
v -0.020487 -0.014287 0.003834
v -0.020487 0.030163 0.003834
v -0.023804 -0.014287 0.015195
v -0.023804 0.022225 0.015195
v -0.031966 0.022225 -0.011265
v -0.031966 -0.014287 -0.011265
v -0.031421 0.030163 -0.010294
v -0.031421 0.022225 -0.010294
v 0 -0.002394 -0.015367
v -0.00062 -0.002312 -0.015367
v 0 -0.002394 0.015367
v -0.00062 -0.002312 0.015367
v 0 -0.002394 0.015367
v 0.00062 -0.002312 0.015367
v 0 -0.002394 -0.015367
v 0.00062 -0.002312 -0.015367
v 0.005611 -0.010381 -0.015367
v 0.005611 -0.010381 0.015367
v -0.019529 0.030163 0.003437
v -0.019529 -0.014287 0.003437
v -0.021514 0.030163 0.014287
v -0.021514 0.022225 0.014287
v -0.02432 -0.014287 -0.002806
v -0.02432 0.030163 -0.002806
v -0.005366 -0.013902 0.015367
v -0.005366 -0.013902 -0.015367
v -0.018707 0.030163 0.002806
v -0.018707 -0.014287 0.002806
v -0.012423 0.030163 0.011023
v -0.014213 0.030163 0.012281
v -0.012423 0.022225 0.011023
v -0.014213 0.022225 0.012281
v -0.021514 -0.014287 0.015367
v -0.021514 0.022225 0.015367
v -0.03017 0.022225 -0.012697
v -0.03017 -0.014287 -0.012697
v -0.029734 0.030163 -0.011686
v -0.029734 0.022225 -0.011686
v -0.001197 -0.002073 -0.015367
v -0.001197 -0.002073 0.015367
v 0.001197 -0.002073 0.015367
v 0.001197 -0.002073 -0.015367
v 0.00597 -0.00979 -0.015367
v 0.00597 -0.00979 0.015367
v -0.010847 0.022225 0.009506
v -0.010847 0.030163 0.009506
v -0.018077 0.030163 0.001984
v -0.018077 -0.014287 0.001984
v -0.016173 0.030163 0.013252
v -0.016173 0.022225 0.013252
v -0.02042 0.030163 0.014246
v -0.02042 0.022225 0.014246
v -0.023498 -0.014287 -0.003437
v -0.023498 0.030163 -0.003437
v 0.002073 -0.001197 -0.015367
v 0.001693 -0.001693 -0.015367
v 0.002073 -0.001197 0.015367
v 0.001693 -0.001693 0.015367
v 0.002312 -0.00062 0.015367
v 0.002312 -0.00062 -0.015367
v -0.009521 0.022225 0.007766
v -0.009521 0.030163 0.007766
v -0.007563 -0.014191 0.015367
v -0.007563 -0.014191 -0.015367
v -0.018258 0.030163 0.013912
v -0.018258 0.022225 0.013912
v -0.028181 0.022225 -0.013845
v -0.028181 -0.014287 -0.013845
v -0.027853 0.030163 -0.012804
v -0.027853 0.022225 -0.012804
v -0.002394 0 0.015367
v -0.002312 -0.00062 0.015367
v -0.002394 0 -0.015367
v -0.002312 -0.00062 -0.015367
v -0.001693 -0.001693 -0.015367
v -0.001693 -0.001693 0.015367
v 0.006192 -0.009135 -0.015367
v 0.006192 -0.009135 0.015367
v 0.002394 0 0.015367
v 0.002394 0 -0.015367
v -0.008476 0.030163 0.005845
v -0.008476 0.022225 0.005845
v -0.01768 0.030163 0.001027
v -0.01768 -0.014287 0.001027
v -0.002312 0.00062 0.015367
v -0.002394 0 0.015367
v -0.002312 0.00062 -0.015367
v -0.002394 0 -0.015367
v -0.022541 -0.014287 -0.003834
v -0.022541 0.030163 -0.003834
v -0.002073 -0.001197 0.015367
v -0.002073 -0.001197 -0.015367
v 0.002312 0.00062 -0.015367
v 0.002394 0 -0.015367
v 0.002312 0.00062 0.015367
v 0.002394 0 0.015367
v -0.007737 0.022225 0.003786
v -0.007737 0.030163 0.003786
v -0.009777 -0.014287 0.015367
v -0.009777 -0.014287 -0.015367
v -0.017545 0.030163 0
v -0.017545 -0.014287 0
v 0.002073 0.001197 0.015367
v 0.002073 0.001197 -0.015367
v -0.002073 0.001197 0.015367
v -0.002073 0.001197 -0.015367
v -0.026043 0.022225 -0.014684
v -0.026043 -0.014287 -0.014684
v -0.025825 0.030163 -0.013622
v -0.025825 0.022225 -0.013622
v 0.006267 -0.008448 -0.015367
v 0.006267 -0.008448 0.015367
v -0.007321 0.022225 0.001639
v -0.007321 0.030163 0.001639
v 0.001693 0.001693 0.015367
v 0.001693 0.001693 -0.015367
v -0.001693 0.001693 0.015367
v -0.001693 0.001693 -0.015367
v -0.021514 -0.014287 -0.003969
v -0.021514 0.030163 -0.003969
v -0.017545 0.030163 0
v -0.01768 0.030163 -0.001027
v -0.017545 -0.014287 0
v -0.01768 -0.014287 -0.001027
v 0.001197 0.002073 0.015367
v 0.001197 0.002073 -0.015367
v -0.001197 0.002073 -0.015367
v -0.001197 0.002073 0.015367
v 0.00062 0.002312 0.015367
v 0.006267 0.022225 0.015367
v -0.002394 0 0.015367
v -0.00062 0.002312 0.015367
v 0 0.002394 0.015367
v 0.002394 0 0.015367
v 0 -0.002394 0.015367
v -0.023804 0.022225 -0.015195
v -0.023804 -0.014287 -0.015195
v -0.023695 0.030163 -0.01412
v -0.023695 0.022225 -0.01412
v 0.006267 0.022225 -0.015367
v -0.007237 0.022225 -0.000547
v -0.007237 0.030163 -0.000547
v 0.00062 0.002312 -0.015367
v -0.00062 0.002312 -0.015367
v -0.021514 -0.014287 -0.015367
v -0.021514 0.022225 -0.015367
v -0.020487 -0.014287 -0.003834
v -0.020487 0.030163 -0.003834
v -0.019529 -0.014287 -0.003437
v -0.018077 -0.014287 -0.001984
v -0.018707 -0.014287 -0.002806
v -0.017545 -0.014287 0
v -0.025483 -0.014287 0
v -0.007488 0.030163 -0.00272
v -0.007488 0.022225 -0.00272
v -0.018077 0.030163 -0.001984
v 0 0.002394 0.015367
v 0 0.002394 -0.015367
v 0 0.002394 0.015367
v 0 0.002394 -0.015367
v -0.021514 0.030163 -0.014287
v -0.021514 0.022225 -0.014287
v -0.008067 0.022225 -0.004829
v -0.008067 0.030163 -0.004829
v -0.018707 0.030163 -0.002806
v -0.019333 0.030163 -0.01412
v -0.019333 0.022225 -0.01412
v -0.019529 0.030163 -0.003437
v -0.008962 0.022225 -0.006825
v -0.008962 0.030163 -0.006825
v 0.002394 0 -0.015367
v 0 -0.002394 -0.015367
v -0.002394 0 -0.015367
v 0 0.002394 -0.015367
v -0.010151 0.030163 -0.008661
v -0.010151 0.022225 -0.008661
v -0.017203 0.030163 -0.013622
v -0.017203 0.022225 -0.013622
v -0.025483 0.030163 0
v -0.011606 0.030163 -0.010294
v -0.013294 0.030163 -0.011686
v -0.015174 0.030163 -0.012804
v -0.011606 0.022225 -0.010294
v -0.015174 0.022225 -0.012804
v -0.013294 0.022225 -0.011686
f 3 2 4
f 5 6 7
f 7 6 8
f 3 9 1
f 1 9 10
f 2 11 4
f 4 11 12
f 7 13 5
f 5 13 14
f 11 15 12
f 12 15 16
f 13 17 14
f 14 17 18
f 6 19 8
f 8 19 20
f 9 21 10
f 10 21 22
f 17 23 18
f 18 23 24
f 25 26 27
f 27 26 28
f 15 29 16
f 16 29 30
f 27 31 25
f 25 31 32
f 23 33 24
f 24 33 34
f 19 35 20
f 20 35 36
f 21 37 22
f 22 37 38
f 29 39 30
f 30 39 40
f 26 41 28
f 28 41 42
f 39 43 40
f 40 43 44
f 31 45 32
f 32 45 46
f 33 47 34
f 34 47 48
f 35 49 36
f 36 49 50
f 37 51 38
f 38 51 52
f 47 53 48
f 48 53 54
f 41 55 42
f 42 55 56
f 43 57 44
f 44 57 58
f 59 60 61
f 61 60 62
f 53 63 54
f 54 63 64
f 65 66 67
f 67 66 68
f 49 69 50
f 50 69 70
f 51 71 52
f 52 71 72
f 57 73 58
f 58 73 74
f 63 75 64
f 64 75 76
f 67 77 65
f 65 77 78
f 55 79 56
f 56 79 80
f 69 81 70
f 70 81 82
f 60 83 62
f 62 83 84
f 68 66 85
f 85 66 86
f 87 80 88
f 88 80 79
f 71 89 72
f 72 89 90
f 73 91 74
f 74 91 92
f 75 93 76
f 76 93 94
f 95 96 97
f 97 96 98
f 99 100 101
f 101 100 102
f 77 103 78
f 78 103 104
f 88 105 87
f 87 105 106
f 107 82 108
f 108 82 81
f 83 109 84
f 84 109 110
f 86 111 85
f 85 111 112
f 105 113 106
f 106 113 114
f 115 116 117
f 117 116 118
f 89 119 90
f 90 119 120
f 91 121 92
f 92 121 122
f 93 123 94
f 94 123 124
f 96 125 98
f 98 125 126
f 100 127 102
f 102 127 128
f 103 129 104
f 104 129 130
f 117 131 115
f 115 131 132
f 113 133 114
f 114 133 134
f 116 135 118
f 118 135 136
f 107 108 137
f 137 108 138
f 109 139 110
f 110 139 140
f 141 142 143
f 143 142 144
f 142 128 144
f 144 128 127
f 143 145 141
f 141 145 146
f 131 147 132
f 132 147 148
f 111 149 112
f 112 149 150
f 135 151 136
f 136 151 152
f 151 137 152
f 152 137 138
f 121 153 122
f 122 153 154
f 123 155 124
f 124 155 156
f 157 158 159
f 159 158 160
f 125 161 126
f 126 161 162
f 129 163 130
f 130 163 164
f 145 165 146
f 146 165 166
f 167 148 168
f 168 148 147
f 133 169 134
f 134 169 170
f 171 172 173
f 173 172 174
f 139 175 140
f 140 175 176
f 158 177 160
f 160 177 178
f 177 162 178
f 178 162 161
f 179 180 181
f 181 180 182
f 168 183 167
f 167 183 184
f 149 185 150
f 150 185 186
f 169 187 170
f 170 187 188
f 181 189 179
f 179 189 190
f 191 171 192
f 192 171 173
f 153 193 154
f 154 193 194
f 155 195 156
f 156 195 196
f 163 197 164
f 164 197 198
f 183 199 184
f 184 199 200
f 189 201 190
f 190 201 202
f 203 191 204
f 204 191 192
f 175 205 176
f 176 205 206
f 207 208 209
f 209 208 210
f 201 211 202
f 202 211 212
f 204 213 203
f 203 213 214
f 177 119 162
f 162 119 185
f 162 185 126
f 120 191 203
f 215 211 216
f 216 211 201
f 100 66 65
f 66 100 86
f 177 158 119
f 119 158 217
f 119 217 120
f 120 217 171
f 120 171 191
f 203 214 120
f 120 214 218
f 120 218 216
f 216 218 219
f 216 219 215
f 201 189 216
f 216 189 181
f 216 181 198
f 198 181 220
f 198 220 145
f 145 143 198
f 198 143 144
f 198 144 164
f 164 144 127
f 100 221 86
f 86 221 98
f 86 98 111
f 111 98 126
f 111 126 149
f 149 126 185
f 65 78 100
f 100 78 104
f 100 104 127
f 127 104 130
f 127 130 164
f 193 222 194
f 194 222 223
f 195 224 196
f 196 224 225
f 197 226 198
f 198 226 216
f 199 227 200
f 200 227 228
f 211 215 212
f 212 215 229
f 213 230 214
f 214 230 218
f 231 223 232
f 232 223 222
f 205 233 206
f 206 233 234
f 231 186 235
f 28 42 37
f 210 236 186
f 186 236 237
f 186 237 235
f 114 134 185
f 185 134 170
f 185 170 186
f 186 170 238
f 186 238 210
f 235 233 231
f 231 233 205
f 231 205 223
f 223 205 175
f 139 154 175
f 175 154 194
f 175 194 223
f 83 74 109
f 109 74 92
f 109 92 139
f 139 92 122
f 139 122 154
f 60 44 83
f 83 44 58
f 83 58 74
f 239 30 60
f 60 30 40
f 60 40 44
f 27 4 31
f 31 4 12
f 31 12 239
f 239 12 16
f 239 16 30
f 37 42 51
f 51 42 56
f 51 56 71
f 37 21 28
f 28 21 9
f 28 9 27
f 27 9 3
f 27 3 4
f 71 56 89
f 89 56 80
f 89 80 119
f 119 80 87
f 119 87 185
f 185 87 106
f 185 106 114
f 240 228 241
f 241 228 227
f 208 242 210
f 210 242 236
f 215 243 229
f 229 243 244
f 245 218 246
f 246 218 230
f 224 247 225
f 225 247 248
f 241 249 240
f 240 249 250
f 237 236 251
f 251 236 242
f 247 252 248
f 248 252 253
f 233 235 234
f 234 235 254
f 235 237 254
f 254 237 251
f 249 255 250
f 250 255 256
f 77 67 68
f 141 197 142
f 142 197 163
f 142 163 128
f 190 202 226
f 226 202 212
f 141 146 197
f 197 146 257
f 197 257 226
f 226 257 179
f 226 179 190
f 163 129 128
f 128 129 103
f 128 103 102
f 103 77 102
f 102 77 68
f 102 68 258
f 258 68 85
f 258 85 96
f 96 85 112
f 96 112 125
f 125 112 150
f 125 150 161
f 161 150 186
f 161 186 178
f 178 186 231
f 178 231 160
f 232 213 204
f 204 192 232
f 232 192 173
f 232 173 231
f 231 173 259
f 231 259 160
f 212 229 226
f 226 229 260
f 226 260 232
f 232 260 230
f 232 230 213
f 261 256 262
f 262 256 255
f 252 263 253
f 253 263 264
f 82 79 55
f 41 50 55
f 55 50 70
f 55 70 82
f 32 13 25
f 25 13 7
f 25 7 26
f 105 115 113
f 113 115 132
f 113 132 133
f 82 107 79
f 79 107 137
f 79 137 88
f 265 23 32
f 32 23 17
f 32 17 13
f 84 53 62
f 62 53 47
f 62 47 265
f 265 47 33
f 265 33 23
f 251 242 261
f 208 250 242
f 242 250 256
f 242 256 261
f 169 200 207
f 207 200 228
f 207 228 208
f 208 228 240
f 208 240 250
f 137 151 88
f 88 151 135
f 88 135 105
f 105 135 116
f 105 116 115
f 7 8 26
f 26 8 20
f 26 20 41
f 41 20 36
f 41 36 50
f 110 75 84
f 84 75 63
f 84 63 53
f 206 224 176
f 176 224 195
f 176 195 140
f 132 148 133
f 133 148 167
f 133 167 169
f 169 167 184
f 169 184 200
f 195 155 140
f 140 155 123
f 140 123 110
f 110 123 93
f 110 93 75
f 234 252 206
f 206 252 247
f 206 247 224
f 261 266 251
f 251 266 267
f 251 267 254
f 254 267 268
f 254 268 234
f 234 268 263
f 234 263 252
f 262 269 261
f 261 269 266
f 263 268 264
f 264 268 270
f 267 266 271
f 271 266 269
f 268 267 270
f 270 267 271
f 117 118 216
f 183 168 216
f 118 136 216
f 216 136 152
f 216 152 120
f 168 147 216
f 216 147 131
f 216 131 117
f 249 226 255
f 255 226 262
f 249 241 226
f 226 241 227
f 226 227 216
f 216 227 199
f 216 199 183
f 152 138 120
f 120 138 108
f 120 108 90
f 90 108 81
f 90 81 72
f 72 81 69
f 72 69 52
f 52 69 49
f 52 49 38
f 38 49 35
f 38 35 22
f 22 35 19
f 22 19 10
f 10 19 6
f 10 6 1
f 1 6 5
f 1 5 2
f 2 5 14
f 2 14 11
f 11 14 18
f 11 18 15
f 15 18 24
f 15 24 29
f 29 24 34
f 29 34 39
f 39 34 48
f 39 48 43
f 43 48 54
f 43 54 57
f 57 54 64
f 57 64 73
f 73 64 76
f 73 76 91
f 91 76 94
f 91 94 121
f 121 94 124
f 121 124 153
f 153 124 156
f 153 156 193
f 193 156 196
f 193 196 222
f 222 196 225
f 222 225 232
f 270 271 226
f 226 271 269
f 226 269 262
f 225 248 232
f 232 248 253
f 232 253 226
f 226 253 264
f 226 264 270
