# Derived from Cyberbotics Webots R2025a Robotiq3fGripper.proto
# Source: https://github.com/cyberbotics/webots/blob/R2025a/projects/devices/robotiq/protos/Robotiq3fGripper.proto
# License: Apache License 2.0; see ../LICENSE and ../NOTICE
o finger_proximal
v -0.078652 -0.025189 0.009017
v -0.079611 -0.023212 0.009017
v -0.078652 -0.025189 -0.009017
v -0.079611 -0.023212 -0.009017
v -0.080123 -0.021075 0.009017
v -0.080123 -0.021075 -0.009017
v -0.07729 -0.026914 -0.009017
v -0.07729 -0.026914 0.009017
v 0.022887 -0.016025 0.009017
v 0.020371 -0.019122 0.009017
v 0.022887 -0.016025 -0.009017
v 0.020371 -0.019122 -0.009017
v 0.01744 -0.021829 0.009017
v 0.01744 -0.021829 -0.009017
v -0.080162 -0.018878 0.009017
v -0.080162 -0.018878 -0.009017
v 0.024937 -0.012602 -0.009017
v 0.024937 -0.012602 0.009017
v -0.075589 -0.028306 -0.009017
v -0.075589 -0.028306 0.009017
v 0.014153 -0.02409 0.009017
v 0.014153 -0.02409 -0.009017
v -0.079729 -0.016723 0.009017
v -0.079729 -0.016723 -0.009017
v -0.072271 -0.030209 0.009017
v -0.072271 -0.030209 -0.009017
v 0.004098 0.004884 0.009017
v 0.004098 0.004884 -0.009017
v 0.010577 -0.025861 0.009017
v 0.010577 -0.025861 -0.009017
v -0.068759 -0.031725 -0.009017
v -0.068759 -0.031725 0.009017
v 0.006786 -0.027103 0.009017
v 0.006786 -0.027103 -0.009017
v -0.078843 -0.014713 0.009017
v -0.078843 -0.014713 -0.009017
v -0.065098 -0.032834 0.009017
v -0.065098 -0.032834 -0.009017
v -0.061335 -0.033522 -0.009017
v -0.057518 -0.03378 -0.009017
v -0.061335 -0.033522 0.009017
v -0.057518 -0.03378 0.009017
v 0.002861 0.005697 -0.009017
v 0.002861 0.005697 0.009017
v 0.002856 -0.027794 0.009017
v 0.002856 -0.027794 -0.009017
v 0.00147 0.006204 -0.009017
v 0.00147 0.006204 0.009017
v -0.067049 0.005715 0.009017
v -0.067049 0.005715 -0.009017
v -0.053697 -0.033605 -0.009017
v -0.053697 -0.033605 0.009017
v -0.065523 0.007781 0.009017
v -0.065523 0.007781 -0.009017
v -0.063575 0.009453 0.009017
v -0.063575 0.009453 -0.009017
v -0.061302 0.010649 0.009017
v -0.061302 0.010649 -0.009017
v -0.056253 0.011395 0.009017
v -0.053732 0.010907 0.009017
v -0.056253 0.011395 -0.009017
v -0.053732 0.010907 -0.009017
v -0.05882 0.011307 0.009017
v -0.05882 0.011307 -0.009017
v -0.051384 0.009869 0.009017
v -0.051384 0.009869 -0.009017
v -0.047663 0.006375 0.009017
v 0 0.006375 0.009017
v -0.049326 0.008332 0.009017
v 0 0.006375 -0.009017
v -0.047663 0.006375 -0.009017
v -0.049326 0.008332 -0.009017
v -0.023491 0.004318 0.007378
v -0.022955 0.004318 0.0076
v -0.023491 0.004318 -0.007378
v -0.013006 0.004318 0.002815
v -0.010033 0.004318 0.015367
v -0.013073 0.004318 0.002901
v -0.013202 0.004318 0.002998
v -0.021844 0.004318 -0.009525
v -0.02192 0.004318 -0.00895
v -0.010033 0.004318 -0.015367
v -0.012964 0.004318 0.002667
v -0.014494 0.004318 0.002901
v -0.02192 0.004318 0.00895
v -0.021844 0.004318 0.009525
v -0.022495 0.004318 0.011097
v -0.022955 0.004318 0.01145
v -0.022955 0.004318 -0.0076
v -0.014561 0.004318 0.002815
v -0.022495 0.004318 -0.007953
v -0.022142 0.004318 -0.008414
v -0.014603 0.004318 0.002667
v -0.022142 0.004318 -0.010636
v -0.02192 0.004318 -0.0101
v -0.014561 0.004318 0.002519
v -0.013202 0.004318 0.002336
v -0.013073 0.004318 0.002433
v -0.013006 0.004318 0.002519
v -0.013437 0.004318 0.003093
v -0.013784 0.004318 0.003137
v -0.022495 0.004318 0.007953
v -0.022142 0.004318 0.008414
v -0.023491 0.004318 -0.011672
v -0.022955 0.004318 -0.01145
v -0.023491 0.004318 0.011672
v -0.024067 0.004318 0.011747
v -0.0381 0.004318 0.015367
v -0.024642 0.004318 0.011672
v -0.025991 0.004318 0.010636
v -0.026213 0.004318 0.0101
v -0.02192 0.004318 0.0101
v -0.022142 0.004318 0.010636
v -0.014365 0.004318 0.002998
v -0.01413 0.004318 0.003093
v -0.022495 0.004318 -0.011097
v -0.025178 0.004318 0.01145
v -0.025638 0.004318 0.011097
v -0.025991 0.004318 0.008414
v -0.0381 0.004318 -0.015367
v -0.026213 0.004318 0.00895
v -0.026289 0.004318 0.009525
v -0.014494 0.004318 0.002433
v -0.014365 0.004318 0.002336
v -0.01413 0.004318 0.002241
v -0.025991 0.004318 -0.008414
v -0.026213 0.004318 -0.00895
v -0.026289 0.004318 -0.009525
v -0.026213 0.004318 -0.0101
v -0.025991 0.004318 -0.010636
v -0.025638 0.004318 -0.011097
v -0.025178 0.004318 -0.01145
v -0.024642 0.004318 -0.011672
v -0.024067 0.004318 -0.011747
v -0.013784 0.004318 0.002197
v -0.013437 0.004318 0.002241
v -0.025178 0.004318 -0.0076
v -0.025178 0.004318 0.0076
v -0.024642 0.004318 0.007378
v -0.025638 0.004318 -0.007953
v -0.025638 0.004318 0.007953
v -0.024067 0.004318 0.007302
v -0.024067 0.004318 -0.007302
v -0.024642 0.004318 -0.007378
v -0.010033 0.00635 0.015367
v -0.010033 0.00635 -0.015367
v -0.04489 0.00635 -0.015367
v -0.0381 0.00635 -0.015367
v -0.049336 0 -0.015367
v -0.001197 0.002073 -0.015367
v -0.001693 0.001693 -0.015367
v -0.04489 -0.00635 -0.015367
v -0.002073 -0.001197 -0.015367
v -0.001693 -0.001693 -0.015367
v -0.002073 0.001197 -0.015367
v -0.002312 0.00062 -0.015367
v -0.002312 -0.00062 -0.015367
v 0.005855 -0.00635 -0.015367
v -0.00062 -0.002312 -0.015367
v -0.001197 -0.002073 -0.015367
v 0.00062 -0.002312 -0.015367
v 0.001197 -0.002073 -0.015367
v 0.006037 -0.006329 -0.015367
v 0.001693 -0.001693 -0.015367
v 0.00621 -0.006266 -0.015367
v 0.006364 -0.006166 -0.015367
v 0.00649 -0.006032 -0.015367
v 0.006583 -0.005874 -0.015367
v 0.006636 -0.005698 -0.015367
v 0.002073 -0.001197 -0.015367
v 0.006648 -0.005515 -0.015367
v 0.006341 0.000332 -0.015367
v 0 0.002394 -0.015367
v -0.00062 0.002312 -0.015367
v 0.002312 -0.00062 -0.015367
v 0.006121 0.001689 -0.015367
v 0.002312 0.00062 -0.015367
v 0.005614 0.002967 -0.015367
v 0.002073 0.001197 -0.015367
v 0.004844 0.004106 -0.015367
v 0.001693 0.001693 -0.015367
v 0.003847 0.005052 -0.015367
v 0.001197 0.002073 -0.015367
v 0.002669 0.005762 -0.015367
v 0.001367 0.006201 -0.015367
v 0.00062 0.002312 -0.015367
v -0.0381 0.00635 0.015367
v -0.04489 0.00635 0.015367
v -0.002073 -0.001197 0.015367
v -0.002312 -0.00062 0.015367
v -0.002073 0.001197 0.015367
v -0.002312 0.00062 0.015367
v -0.002394 0 0.015367
v 0.001197 -0.002073 0.015367
v 0.005855 -0.00635 0.015367
v 0.006037 -0.006329 0.015367
v -0.001693 0.001693 0.015367
v -0.001197 0.002073 0.015367
v 0.001693 -0.001693 0.015367
v 0.00621 -0.006266 0.015367
v 0.006364 -0.006166 0.015367
v 0.00062 -0.002312 0.015367
v -0.04489 -0.00635 0.015367
v -0.00062 -0.002312 0.015367
v -0.001197 -0.002073 0.015367
v -0.00062 0.002312 0.015367
v 0 0.002394 0.015367
v 0.001367 0.006201 0.015367
v 0.00062 0.002312 0.015367
v 0.002669 0.005762 0.015367
v 0.001197 0.002073 0.015367
v 0.003847 0.005052 0.015367
v 0.001693 0.001693 0.015367
v 0.004844 0.004106 0.015367
v 0.005614 0.002967 0.015367
v 0.002073 0.001197 0.015367
v 0.006121 0.001689 0.015367
v 0.002312 0.00062 0.015367
v 0.006341 0.000332 0.015367
v 0.002312 -0.00062 0.015367
v 0.006648 -0.005515 0.015367
v 0.002073 -0.001197 0.015367
v 0.006636 -0.005698 0.015367
v 0.006583 -0.005874 0.015367
v 0.00649 -0.006032 0.015367
v -0.001693 -0.001693 0.015367
v 0 0.00635 -0.012179
v 0 0.00635 -0.015367
v -0.006858 0.00635 -0.012179
v -0.006858 0.00635 0.012179
v 0 0.00635 0.015367
v -0.002312 0.00062 0.012179
v -0.002073 0.001197 0.012179
v -0.006858 0.003454 -0.012179
v -0.006858 0.003454 0.012179
v -0.002394 0 0.012179
v -0.018542 -0.00635 0.012179
v -0.002312 -0.00062 0.012179
v -0.002073 -0.001197 0.012179
v -0.001693 -0.001693 0.012179
v 0 -0.002394 0.012179
v 0.005855 -0.00635 0.012179
v -0.00062 -0.002312 0.012179
v -0.001197 -0.002073 0.012179
v 0.00062 -0.002312 0.012179
v 0.001197 -0.002073 0.012179
v 0.006037 -0.006329 0.012179
v 0.001693 -0.001693 0.012179
v 0.00621 -0.006266 0.012179
v 0.006364 -0.006166 0.012179
v 0.00649 -0.006032 0.012179
v 0.006583 -0.005874 0.012179
v 0.006636 -0.005698 0.012179
v 0.002073 -0.001197 0.012179
v 0.006648 -0.005515 0.012179
v 0.006341 0.000332 0.012179
v 0.002312 -0.00062 0.012179
v 0.006121 0.001689 0.012179
v 0.002312 0.00062 0.012179
v 0.005614 0.002967 0.012179
v 0.002073 0.001197 0.012179
v 0.004844 0.004106 0.012179
v 0.001693 0.001693 0.012179
v 0.003847 0.005052 0.012179
v 0.001197 0.002073 0.012179
v 0.002669 0.005762 0.012179
v -0.001693 0.001693 0.012179
v 0.001367 0.006201 0.012179
v 0.00062 0.002312 0.012179
v 0 0.00635 0.012179
v 0 0.002394 0.012179
v -0.00062 0.002312 0.012179
v -0.001197 0.002073 0.012179
v 0.001367 0.006201 -0.012179
v 0.001693 0.001693 -0.012179
v 0.002073 0.001197 -0.012179
v 0.005614 0.002967 -0.012179
v -0.002073 0.001197 -0.012179
v -0.001197 -0.002073 -0.012179
v -0.001693 -0.001693 -0.012179
v -0.018542 -0.00635 -0.012179
v -0.002073 -0.001197 -0.012179
v -0.001693 0.001693 -0.012179
v -0.001197 0.002073 -0.012179
v 0.006121 0.001689 -0.012179
v 0.002312 0.00062 -0.012179
v 0.006341 0.000332 -0.012179
v 0.004844 0.004106 -0.012179
v 0.003847 0.005052 -0.012179
v 0.001197 0.002073 -0.012179
v 0.002669 0.005762 -0.012179
v 0.00062 0.002312 -0.012179
v -0.00062 0.002312 -0.012179
v 0.001197 -0.002073 -0.012179
v 0.005855 -0.00635 -0.012179
v 0.006037 -0.006329 -0.012179
v -0.002312 -0.00062 -0.012179
v -0.002394 0 -0.012179
v -0.002312 0.00062 -0.012179
v 0.001693 -0.001693 -0.012179
v 0.00621 -0.006266 -0.012179
v 0.006364 -0.006166 -0.012179
v 0.00062 -0.002312 -0.012179
v 0 -0.002394 -0.012179
v -0.00062 -0.002312 -0.012179
v 0.002312 -0.00062 -0.012179
v 0.006648 -0.005515 -0.012179
v 0.002073 -0.001197 -0.012179
v 0.006636 -0.005698 -0.012179
v 0.006583 -0.005874 -0.012179
v 0.00649 -0.006032 -0.012179
v 0 0.002394 -0.012179
v -0.009074 0.001594 0.002667
v -0.009086 0.001584 0.002549
v -0.009086 0.001584 0.002785
v -0.009638 0.001121 0.00307
v -0.009122 0.001555 0.002438
v -0.009122 0.001555 0.002896
v -0.009547 0.001198 0.00312
v -0.009715 0.001057 0.002993
v -0.009179 0.001506 0.002341
v -0.009179 0.001506 0.002993
v -0.009347 0.001365 0.00312
v -0.009447 0.001282 0.003137
v -0.009773 0.001008 0.002896
v -0.009547 0.001198 0.002214
v -0.009447 0.001282 0.002197
v -0.009347 0.001365 0.002214
v -0.009256 0.001442 0.002264
v -0.009256 0.001442 0.00307
v -0.009808 0.000979 0.002785
v -0.04489 -0.00635 0.011366
v -0.002394 0 -0.015367
v -0.00982 0.000969 0.002667
v 0 -0.002394 0.015367
v -0.05715 -0.00635 0.011366
v -0.05715 -0.00635 0.007404
v -0.036829 -0.00635 0.007404
v -0.036829 -0.00635 -0.007404
v -0.05715 -0.00635 -0.007404
v -0.05715 -0.00635 -0.011366
v -0.04489 -0.00635 -0.011366
v -0.04489 0.00635 0.011366
v -0.049336 0 0.011366
v -0.049336 0 0.015367
v -0.009638 0.001121 0.002264
v -0.05715 0.00635 -0.011366
v -0.05715 0.00635 -0.007404
v -0.04489 0.00635 -0.011366
v -0.041275 0.00635 -0.007404
v -0.041275 0.00635 0.007404
v -0.05715 0.00635 0.007404
v -0.05715 0.00635 0.011366
v -0.009808 0.000979 0.002549
v -0.054071 -0.000825 0.011366
v -0.054389 -0.001594 0.011366
v -0.054896 -0.002254 0.011366
v -0.055556 -0.002761 0.011366
v -0.054896 0.002254 0.011366
v -0.054389 0.001594 0.011366
v -0.054071 0.000825 0.011366
v -0.056325 0.003079 0.011366
v -0.055556 0.002761 0.011366
v -0.056325 -0.003079 0.011366
v -0.05715 -0.003188 0.011366
v -0.05867 -0.006165 0.011366
v -0.057975 -0.003079 0.011366
v -0.060101 -0.005623 0.011366
v -0.058744 -0.002761 0.011366
v -0.061361 -0.004753 0.011366
v -0.059404 -0.002254 0.011366
v -0.062376 -0.003607 0.011366
v -0.059911 -0.001594 0.011366
v -0.063087 -0.002252 0.011366
v -0.060229 -0.000825 0.011366
v -0.063454 -0.000765 0.011366
v -0.063454 0.000765 0.011366
v -0.060229 0.000825 0.011366
v -0.063087 0.002252 0.011366
v -0.062376 0.003607 0.011366
v -0.059911 0.001594 0.011366
v -0.061361 0.004753 0.011366
v -0.059404 0.002254 0.011366
v -0.060101 0.005623 0.011366
v -0.058744 0.002761 0.011366
v -0.05867 0.006165 0.011366
v -0.057975 0.003079 0.011366
v -0.05715 0.003188 0.011366
v -0.009715 0.001057 0.002341
v -0.009773 0.001008 0.002438
v -0.055556 -0.002761 -0.011366
v -0.054896 -0.002254 -0.011366
v -0.049336 0 -0.011366
v -0.054389 -0.001594 -0.011366
v -0.054389 0.001594 -0.011366
v -0.054896 0.002254 -0.011366
v -0.055556 0.002761 -0.011366
v -0.05715 -0.003188 -0.011366
v -0.057975 -0.003079 -0.011366
v -0.05867 -0.006165 -0.011366
v -0.058744 -0.002761 -0.011366
v -0.060101 -0.005623 -0.011366
v -0.059404 -0.002254 -0.011366
v -0.061361 -0.004753 -0.011366
v -0.059911 -0.001594 -0.011366
v -0.062376 -0.003607 -0.011366
v -0.060229 -0.000825 -0.011366
v -0.056325 -0.003079 -0.011366
v -0.054071 -0.000825 -0.011366
v -0.054071 0.000825 -0.011366
v -0.063087 -0.002252 -0.011366
v -0.063454 -0.000765 -0.011366
v -0.060338 0 -0.011366
v -0.063454 0.000765 -0.011366
v -0.060229 0.000825 -0.011366
v -0.063087 0.002252 -0.011366
v -0.059911 0.001594 -0.011366
v -0.062376 0.003607 -0.011366
v -0.059404 0.002254 -0.011366
v -0.061361 0.004753 -0.011366
v -0.058744 0.002761 -0.011366
v -0.060101 0.005623 -0.011366
v -0.057975 0.003079 -0.011366
v -0.05867 0.006165 -0.011366
v -0.05715 0.003188 -0.011366
v -0.056325 0.003079 -0.011366
v 0.002394 0 -0.012179
v 0.002394 0 -0.015367
v -0.054071 -0.000825 0.007404
v -0.054389 -0.001594 0.007404
v -0.05867 -0.006165 0.007404
v -0.054896 -0.002254 0.007404
v -0.054071 0.000825 0.007404
v -0.053962 0 0.007404
v -0.053962 0 0.011366
v -0.054389 0.001594 0.007404
v 0 -0.002394 -0.015367
v -0.053962 0 -0.007404
v -0.054071 0.000825 -0.007404
v -0.053962 0 -0.011366
v -0.054071 -0.000825 -0.007404
v -0.055556 -0.002761 -0.007404
v -0.054896 -0.002254 -0.007404
v -0.05867 0.006165 -0.007404
v -0.055556 -0.002761 0.007404
v -0.054896 0.002254 0.007404
v -0.05867 0.006165 0.007404
v 0.002394 0 0.015367
v -0.054389 0.001594 -0.007404
v -0.054389 -0.001594 -0.007404
v -0.056325 -0.003079 -0.007404
v -0.060101 -0.005623 0.007404
v -0.056325 -0.003079 0.007404
v -0.055556 0.002761 0.007404
v -0.056325 0.003079 0.007404
v -0.05715 0.003188 0.007404
v -0.054896 0.002254 -0.007404
v -0.05867 -0.006165 -0.007404
v -0.05715 -0.003188 -0.007404
v -0.060101 0.005623 -0.007404
v -0.055556 0.002761 -0.007404
v -0.056325 0.003079 -0.007404
v -0.05715 -0.003188 0.007404
v -0.057975 -0.003079 0.007404
v -0.057975 0.003079 0.007404
v -0.060101 0.005623 0.007404
v 0.002394 0 0.012179
v -0.057975 -0.003079 -0.007404
v -0.05715 0.003188 -0.007404
v -0.057975 0.003079 -0.007404
v -0.061361 -0.004753 0.007404
v -0.058744 -0.002761 0.007404
v -0.060101 -0.005623 -0.007404
v -0.058744 0.002761 -0.007404
v -0.061361 0.004753 -0.007404
v -0.058744 0.002761 0.007404
v -0.061361 0.004753 0.007404
v -0.058744 -0.002761 -0.007404
v -0.062376 -0.003607 0.007404
v -0.059404 -0.002254 0.007404
v -0.061361 -0.004753 -0.007404
v -0.059404 0.002254 -0.007404
v -0.062376 0.003607 -0.007404
v -0.059404 0.002254 0.007404
v -0.062376 0.003607 0.007404
v -0.059404 -0.002254 -0.007404
v -0.063087 -0.002252 0.007404
v -0.059911 -0.001594 0.007404
v -0.062376 -0.003607 -0.007404
v -0.059911 0.001594 -0.007404
v -0.063087 0.002252 -0.007404
v -0.059911 0.001594 0.007404
v -0.063087 0.002252 0.007404
v -0.059911 -0.001594 -0.007404
v -0.063454 -0.000765 0.007404
v -0.060229 -0.000825 0.007404
v -0.063087 -0.002252 -0.007404
v -0.060229 0.000825 -0.007404
v -0.063454 0.000765 -0.007404
v -0.060229 0.000825 0.007404
v -0.063454 0.000765 0.007404
v -0.060229 -0.000825 -0.007404
v -0.060338 0 0.011366
v -0.063454 -0.000765 -0.007404
v -0.060338 0 0.007404
v -0.060338 0 -0.007404
v -0.03791 0.005906 0.01524
v -0.03791 0.004318 0.01524
v -0.010224 0.005906 0.01524
v -0.010224 0.004318 0.01524
v -0.03791 0.005906 -0.01524
v -0.03791 0.004318 -0.01524
v -0.010224 0.005906 -0.01524
v -0.010224 0.004318 -0.01524
v -0.027139 0.005906 0.009332
v -0.026994 0.005906 0.008574
v -0.0252 0.005906 0.012387
v -0.025876 0.005906 0.012015
v -0.026438 0.005906 0.011487
v -0.026666 0.005906 0.007876
v -0.026174 0.005906 0.007281
v -0.025549 0.005906 0.006827
v -0.026852 0.005906 0.010836
v -0.02709 0.005906 0.010102
v -0.024832 0.005906 0.006543
v -0.024067 0.005906 0.006447
v -0.023301 0.005906 0.006543
v -0.021695 0.005906 -0.007563
v -0.022257 0.005906 -0.007035
v -0.022933 0.005906 -0.006663
v -0.020994 0.005906 0.009332
v -0.021043 0.005906 0.010102
v -0.021281 0.005906 0.010836
v -0.021695 0.005906 0.011487
v -0.022257 0.005906 0.012015
v -0.022933 0.005906 0.012387
v -0.023681 0.005906 0.012579
v -0.024452 0.005906 0.012579
v -0.02709 0.005906 -0.008948
v -0.027139 0.005906 -0.009718
v -0.026994 0.005906 -0.010476
v -0.022584 0.005906 -0.012223
v -0.021959 0.005906 -0.011769
v -0.021467 0.005906 -0.011174
v -0.021139 0.005906 -0.010476
v -0.023681 0.005906 -0.006471
v -0.024452 0.005906 -0.006471
v -0.0252 0.005906 -0.006663
v -0.026666 0.005906 -0.011174
v -0.026174 0.005906 -0.011769
v -0.025549 0.005906 -0.012223
v -0.020994 0.005906 -0.009718
v -0.021043 0.005906 -0.008948
v -0.021281 0.005906 -0.008214
v -0.022584 0.005906 0.006827
v -0.021959 0.005906 0.007281
v -0.021467 0.005906 0.007876
v -0.021139 0.005906 0.008574
v -0.024832 0.005906 -0.012507
v -0.024067 0.005906 -0.012603
v -0.023301 0.005906 -0.012507
v -0.025876 0.005906 -0.007035
v -0.026438 0.005906 -0.007563
v -0.026852 0.005906 -0.008214
v -0.010224 0.007493 0.01524
v -0.03791 0.007493 0.01524
v -0.03791 0.007493 -0.01524
v -0.010224 0.007493 -0.01524
f 3 2 4
f 2 5 4
f 4 5 6
f 3 7 1
f 1 7 8
f 9 10 11
f 11 10 12
f 10 13 12
f 12 13 14
f 5 15 6
f 6 15 16
f 11 17 9
f 9 17 18
f 7 19 8
f 8 19 20
f 13 21 14
f 14 21 22
f 15 23 16
f 16 23 24
f 25 20 26
f 26 20 19
f 18 17 27
f 27 17 28
f 21 29 22
f 22 29 30
f 26 31 25
f 25 31 32
f 29 33 30
f 30 33 34
f 23 35 24
f 24 35 36
f 37 32 38
f 38 32 31
f 39 40 41
f 41 40 42
f 38 39 37
f 37 39 41
f 28 43 27
f 27 43 44
f 33 45 34
f 34 45 46
f 43 47 44
f 44 47 48
f 35 49 36
f 36 49 50
f 40 51 42
f 42 51 52
f 52 51 45
f 45 51 46
f 49 53 50
f 50 53 54
f 53 55 54
f 54 55 56
f 55 57 56
f 56 57 58
f 59 60 61
f 61 60 62
f 57 63 58
f 58 63 64
f 63 59 64
f 64 59 61
f 47 70 48
f 48 70 68
f 60 65 62
f 62 65 66
f 25 32 37
f 37 41 42
f 55 53 49
f 20 35 23
f 20 23 8
f 8 23 15
f 8 15 1
f 1 15 5
f 1 5 2
f 37 42 67
f 67 42 52
f 67 52 68
f 68 52 45
f 68 45 48
f 48 45 27
f 48 27 44
f 45 33 27
f 27 33 29
f 27 29 21
f 20 25 35
f 35 25 37
f 35 37 49
f 49 37 67
f 49 67 55
f 55 67 63
f 55 63 57
f 60 59 65
f 65 59 63
f 65 63 69
f 69 63 67
f 9 18 10
f 10 18 27
f 10 27 13
f 13 27 21
f 68 70 67
f 67 70 71
f 65 69 66
f 66 69 72
f 69 67 72
f 72 67 71
f 36 38 31
f 71 51 40
f 36 50 71
f 71 50 54
f 47 43 28
f 36 71 38
f 38 71 40
f 38 40 39
f 51 71 46
f 46 71 70
f 46 70 47
f 4 6 3
f 3 6 19
f 3 19 7
f 31 26 36
f 36 26 19
f 36 19 24
f 24 19 6
f 24 6 16
f 54 56 71
f 71 56 58
f 71 58 64
f 47 28 46
f 46 28 30
f 46 30 34
f 72 71 66
f 66 71 64
f 66 64 62
f 62 64 61
f 22 30 14
f 14 30 28
f 14 28 12
f 12 28 17
f 12 17 11
f 73 74 75
f 83 76 77
f 77 76 78
f 77 78 79
f 80 81 93
f 82 99 77
f 77 99 83
f 84 85 86
f 77 87 88
f 89 90 91
f 91 90 93
f 91 93 92
f 92 93 81
f 75 74 89
f 93 94 95
f 93 95 80
f 82 93 96
f 97 98 82
f 82 98 99
f 79 100 77
f 77 100 101
f 77 101 87
f 89 74 90
f 90 74 102
f 90 102 84
f 84 102 103
f 84 103 85
f 82 104 105
f 88 106 77
f 77 106 107
f 77 107 108
f 108 107 109
f 108 110 111
f 86 112 84
f 84 112 113
f 84 113 114
f 114 113 87
f 114 87 115
f 115 87 101
f 94 93 82
f 94 82 116
f 116 82 105
f 109 117 108
f 108 117 118
f 108 118 110
f 119 120 121
f 121 120 108
f 121 108 122
f 122 108 111
f 96 123 82
f 82 123 124
f 82 124 125
f 126 127 120
f 120 127 128
f 128 129 120
f 120 129 130
f 120 130 131
f 131 132 120
f 120 132 133
f 120 133 82
f 82 133 134
f 82 134 104
f 125 135 82
f 82 135 136
f 82 136 97
f 137 138 139
f 126 120 140
f 140 120 119
f 140 119 137
f 137 119 141
f 137 141 138
f 73 75 142
f 142 75 143
f 142 143 139
f 139 143 144
f 139 144 137
f 77 145 82
f 82 145 146
f 147 148 149
f 149 148 120
f 120 150 151
f 152 153 154
f 151 155 120
f 120 155 156
f 120 156 149
f 149 156 333
f 149 333 152
f 152 333 157
f 152 157 153
f 437 158 159
f 159 158 152
f 159 152 160
f 160 152 154
f 437 161 158
f 158 161 162
f 158 162 163
f 163 162 164
f 163 164 165
f 165 164 166
f 167 166 168
f 168 166 164
f 168 164 169
f 169 164 170
f 169 170 171
f 171 170 172
f 82 173 120
f 120 173 174
f 120 174 150
f 170 175 172
f 172 175 428
f 172 428 176
f 176 428 177
f 176 177 178
f 178 177 179
f 178 179 180
f 180 179 181
f 180 181 182
f 182 181 183
f 182 183 184
f 184 183 185
f 183 186 185
f 185 186 173
f 185 173 228
f 228 173 82
f 228 82 146
f 187 188 108
f 108 188 345
f 77 189 190
f 191 145 192
f 192 145 77
f 192 77 193
f 193 77 190
f 194 195 196
f 191 197 145
f 145 197 198
f 145 198 231
f 194 196 199
f 199 196 200
f 199 200 201
f 194 202 195
f 195 202 335
f 195 335 203
f 203 335 204
f 203 204 205
f 198 206 231
f 231 206 207
f 231 207 208
f 208 207 209
f 208 209 210
f 210 209 211
f 210 211 212
f 212 211 213
f 212 213 214
f 214 213 215
f 215 213 216
f 215 216 217
f 217 216 218
f 217 218 219
f 218 448 219
f 219 448 220
f 219 220 221
f 221 220 222
f 221 222 223
f 223 222 199
f 223 199 224
f 224 199 201
f 224 201 225
f 345 203 108
f 108 203 205
f 108 205 77
f 77 205 226
f 77 226 189
f 227 228 229
f 229 228 146
f 229 146 230
f 230 146 145
f 230 145 270
f 270 145 231
f 232 233 192
f 192 233 191
f 236 232 193
f 193 232 192
f 234 229 235
f 235 229 230
f 236 237 232
f 232 237 235
f 236 238 237
f 237 238 239
f 237 239 240
f 241 242 243
f 243 242 237
f 243 237 244
f 244 237 240
f 241 245 242
f 242 245 246
f 242 246 247
f 247 246 248
f 247 248 249
f 249 248 250
f 251 250 252
f 252 250 248
f 252 248 253
f 253 248 254
f 253 254 255
f 255 254 256
f 254 257 256
f 256 257 467
f 256 467 258
f 258 467 259
f 258 259 260
f 260 259 261
f 260 261 262
f 262 261 263
f 262 263 264
f 264 263 265
f 264 265 266
f 230 267 235
f 235 267 233
f 235 233 232
f 266 265 268
f 268 265 269
f 268 269 270
f 269 271 270
f 270 271 272
f 270 272 230
f 230 272 273
f 230 273 267
f 227 274 228
f 228 274 185
f 275 276 277
f 229 234 278
f 279 280 281
f 281 280 282
f 278 283 229
f 229 283 284
f 229 284 227
f 277 276 285
f 285 276 286
f 285 286 287
f 277 288 275
f 275 288 289
f 275 289 290
f 290 289 291
f 290 291 292
f 292 291 274
f 292 274 312
f 312 274 227
f 312 227 293
f 293 227 284
f 294 295 296
f 282 297 281
f 281 297 298
f 281 298 234
f 234 298 299
f 234 299 278
f 294 296 300
f 300 296 301
f 300 301 302
f 294 303 295
f 295 303 304
f 295 304 281
f 281 304 305
f 281 305 279
f 286 427 287
f 287 427 306
f 287 306 307
f 307 306 308
f 307 308 309
f 309 308 300
f 309 300 310
f 310 300 302
f 310 302 311
f 233 267 191
f 191 267 197
f 238 236 190
f 190 236 193
f 268 270 208
f 208 270 231
f 312 293 173
f 173 293 174
f 292 312 186
f 186 312 173
f 184 185 291
f 291 185 274
f 267 273 197
f 197 273 198
f 239 238 189
f 189 238 190
f 235 313 234
f 207 206 271
f 271 206 272
f 206 198 272
f 272 198 273
f 150 174 284
f 284 174 293
f 290 292 183
f 183 292 186
f 151 150 283
f 283 150 284
f 240 239 226
f 226 239 189
f 234 313 314
f 235 315 313
f 266 268 210
f 210 268 208
f 209 207 269
f 269 207 271
f 182 184 289
f 289 184 291
f 155 151 278
f 278 151 283
f 237 316 235
f 244 240 205
f 205 240 226
f 156 155 299
f 299 155 278
f 314 317 234
f 235 318 315
f 275 290 181
f 181 290 183
f 235 316 319
f 237 320 316
f 333 156 298
f 298 156 299
f 234 317 321
f 322 318 235
f 211 209 265
f 265 209 269
f 264 266 212
f 212 266 210
f 180 182 288
f 288 182 289
f 323 235 324
f 324 235 319
f 325 320 237
f 243 244 204
f 204 244 205
f 326 281 327
f 327 281 234
f 327 234 328
f 328 234 329
f 329 234 321
f 323 330 235
f 235 330 322
f 276 275 179
f 179 275 181
f 237 331 325
f 344 332 345
f 345 332 203
f 157 333 297
f 297 333 298
f 213 211 263
f 263 211 265
f 262 264 214
f 214 264 212
f 178 180 277
f 277 180 288
f 237 334 331
f 241 243 335
f 335 243 204
f 336 337 332
f 332 337 338
f 242 195 237
f 237 195 203
f 339 281 338
f 338 281 237
f 338 237 332
f 332 237 203
f 340 341 339
f 339 341 342
f 339 342 281
f 281 342 152
f 281 152 295
f 295 152 158
f 343 344 188
f 188 344 345
f 153 157 282
f 282 157 297
f 281 326 346
f 342 393 152
f 152 393 149
f 343 188 187
f 347 348 349
f 349 348 350
f 351 352 353
f 353 343 351
f 351 343 187
f 351 187 350
f 350 187 148
f 350 148 349
f 349 148 147
f 393 349 149
f 149 349 147
f 286 276 177
f 177 276 179
f 354 334 237
f 344 355 332
f 332 355 356
f 356 357 332
f 332 357 358
f 332 358 336
f 359 360 343
f 343 360 361
f 343 361 344
f 344 361 435
f 344 435 355
f 353 362 343
f 343 362 363
f 343 363 359
f 358 364 336
f 336 364 365
f 336 365 366
f 366 365 367
f 366 367 368
f 368 367 369
f 368 369 370
f 370 369 371
f 370 371 372
f 372 371 373
f 372 373 374
f 374 373 375
f 374 375 376
f 376 375 503
f 376 503 377
f 377 503 378
f 377 378 379
f 379 378 380
f 380 378 381
f 380 381 382
f 382 381 383
f 382 383 384
f 384 383 385
f 384 385 386
f 386 385 387
f 386 387 353
f 353 387 388
f 353 388 362
f 154 153 280
f 280 153 282
f 346 389 281
f 216 213 261
f 261 213 263
f 260 262 215
f 215 262 214
f 176 178 285
f 285 178 277
f 237 281 354
f 196 195 247
f 247 195 242
f 245 241 202
f 202 241 335
f 160 154 279
f 279 154 280
f 281 389 390
f 391 392 393
f 393 392 394
f 395 396 349
f 349 396 397
f 349 397 347
f 398 341 399
f 399 341 400
f 399 400 401
f 401 400 402
f 401 402 403
f 403 402 404
f 403 404 405
f 405 404 406
f 405 406 407
f 393 342 391
f 391 342 341
f 391 341 408
f 408 341 398
f 394 409 393
f 393 409 440
f 393 440 349
f 349 440 410
f 349 410 395
f 406 411 407
f 407 411 412
f 407 412 413
f 413 412 414
f 413 414 415
f 415 414 416
f 415 416 417
f 417 416 418
f 417 418 419
f 419 418 420
f 419 420 421
f 421 420 422
f 421 422 423
f 423 422 424
f 423 424 425
f 425 424 347
f 425 347 426
f 426 347 397
f 427 286 428
f 428 286 177
f 281 390 354
f 246 245 194
f 194 245 202
f 429 430 355
f 355 430 356
f 434 429 435
f 435 429 355
f 159 160 305
f 305 160 279
f 218 216 259
f 259 216 261
f 258 260 217
f 217 260 215
f 172 176 287
f 287 176 285
f 200 196 249
f 249 196 247
f 431 337 366
f 366 337 336
f 357 356 432
f 432 356 430
f 433 434 361
f 361 434 435
f 436 433 360
f 360 433 361
f 437 159 304
f 304 159 305
f 438 439 440
f 440 439 410
f 441 438 409
f 409 438 440
f 442 443 391
f 391 443 392
f 444 348 424
f 424 348 347
f 306 427 175
f 175 427 428
f 248 246 199
f 199 246 194
f 432 445 357
f 357 445 358
f 446 436 359
f 359 436 360
f 386 353 447
f 447 353 352
f 448 218 467
f 467 218 259
f 256 258 219
f 219 258 217
f 395 410 449
f 449 410 439
f 450 441 394
f 394 441 409
f 443 450 392
f 392 450 394
f 451 442 408
f 408 442 391
f 296 295 163
f 163 295 158
f 171 172 307
f 307 172 287
f 254 248 222
f 222 248 199
f 201 200 250
f 250 200 249
f 452 431 368
f 368 431 366
f 445 453 358
f 358 453 364
f 454 446 363
f 363 446 359
f 455 454 362
f 362 454 363
f 456 455 388
f 388 455 362
f 161 437 303
f 303 437 304
f 396 395 457
f 457 395 449
f 400 341 458
f 458 341 340
f 459 451 398
f 398 451 408
f 460 444 422
f 422 444 424
f 461 462 397
f 397 462 426
f 457 461 396
f 396 461 397
f 308 306 170
f 170 306 175
f 463 464 365
f 365 464 367
f 453 463 364
f 364 463 365
f 465 456 387
f 387 456 388
f 384 386 466
f 466 386 447
f 162 161 294
f 294 161 303
f 220 448 257
f 257 448 467
f 255 256 221
f 221 256 219
f 468 459 399
f 399 459 398
f 301 296 165
f 165 296 163
f 469 470 425
f 425 470 423
f 462 469 426
f 426 469 425
f 169 171 309
f 309 171 307
f 257 254 220
f 220 254 222
f 224 225 252
f 252 225 251
f 225 201 251
f 251 201 250
f 471 452 370
f 370 452 368
f 369 367 472
f 472 367 464
f 402 400 473
f 473 400 458
f 294 300 162
f 162 300 164
f 421 423 474
f 474 423 470
f 475 460 420
f 420 460 422
f 300 308 164
f 164 308 170
f 253 255 223
f 223 255 221
f 252 253 224
f 224 253 223
f 476 465 385
f 385 465 387
f 382 384 477
f 477 384 466
f 478 468 401
f 401 468 399
f 302 301 166
f 166 301 165
f 168 169 310
f 310 169 309
f 479 471 372
f 372 471 370
f 371 369 480
f 480 369 472
f 404 402 481
f 481 402 473
f 419 421 482
f 482 421 474
f 483 475 418
f 418 475 420
f 484 476 383
f 383 476 385
f 380 382 485
f 485 382 477
f 486 478 403
f 403 478 401
f 311 302 167
f 167 302 166
f 167 168 311
f 311 168 310
f 487 479 374
f 374 479 372
f 373 371 488
f 488 371 480
f 406 404 489
f 489 404 481
f 417 419 490
f 490 419 482
f 491 483 416
f 416 483 418
f 492 484 381
f 381 484 383
f 379 380 493
f 493 380 485
f 494 486 405
f 405 486 403
f 495 487 376
f 376 487 374
f 375 373 496
f 496 373 488
f 411 406 497
f 497 406 489
f 415 417 498
f 498 417 490
f 499 491 414
f 414 491 416
f 500 492 378
f 378 492 381
f 377 379 501
f 501 379 493
f 502 494 407
f 407 494 405
f 501 495 377
f 377 495 376
f 503 375 505
f 505 375 496
f 412 411 504
f 504 411 497
f 413 415 506
f 506 415 498
f 504 499 412
f 412 499 414
f 505 500 503
f 503 500 378
f 506 502 413
f 413 502 407
f 187 108 148
f 148 108 120
f 507 508 509
f 509 508 510
f 511 512 507
f 507 512 508
f 513 514 511
f 511 514 512
f 507 511 515
f 511 516 515
f 517 507 518
f 507 519 518
f 516 511 520
f 511 521 520
f 511 522 521
f 519 507 523
f 507 524 523
f 507 515 524
f 522 511 525
f 511 526 525
f 511 527 526
f 528 509 529
f 509 530 529
f 531 509 532
f 532 509 533
f 509 534 533
f 509 535 534
f 535 509 536
f 509 537 536
f 509 507 537
f 507 538 537
f 507 517 538
f 539 511 540
f 511 541 540
f 542 513 543
f 513 544 543
f 513 545 544
f 546 527 547
f 527 548 547
f 541 511 549
f 511 550 549
f 511 551 550
f 545 513 552
f 513 553 552
f 513 509 553
f 509 554 553
f 509 528 554
f 527 546 555
f 546 556 555
f 546 530 556
f 530 557 556
f 530 509 557
f 509 558 557
f 509 531 558
f 551 511 559
f 511 560 559
f 511 513 560
f 513 561 560
f 513 542 561
f 548 527 562
f 527 563 562
f 527 511 563
f 511 564 563
f 511 539 564
f 509 565 507
f 565 566 507
f 566 567 507
f 567 511 507
f 567 568 511
f 568 513 511
f 565 509 568
f 509 513 568
f 566 565 567
f 565 568 567
