# Derived from Cyberbotics Webots R2025a Robotiq3fGripper.proto
# Source: https://github.com/cyberbotics/webots/blob/R2025a/projects/devices/robotiq/protos/Robotiq3fGripper.proto
# License: Apache License 2.0; see ../LICENSE and ../NOTICE
o finger_distal
v -0.000299 -0.017704 -0.009017
v 0.000694 -0.017475 -0.009017
v -0.000299 -0.017704 0.009017
v 0.000694 -0.017475 0.009017
v 0.001621 -0.017052 -0.009017
v 0.001621 -0.017052 0.009017
v -0.001318 -0.017731 0.009017
v -0.001318 -0.017731 -0.009017
v -0.00488 -0.017097 0.009017
v -0.006594 -0.016512 0.009017
v -0.00488 -0.017097 -0.009017
v -0.006594 -0.016512 -0.009017
v 0.002445 -0.016452 -0.009017
v 0.002445 -0.016452 0.009017
v -0.003115 -0.017505 0.009017
v -0.003115 -0.017505 -0.009017
v -0.00824 -0.015755 0.009017
v -0.00824 -0.015755 -0.009017
v 0.003133 -0.0157 -0.009017
v 0.003133 -0.0157 0.009017
v 0.003656 -0.014826 -0.009017
v 0.003656 -0.014826 0.009017
v -0.009801 -0.014835 0.009017
v -0.009801 -0.014835 -0.009017
v 0.003995 -0.013865 -0.009017
v 0.003995 -0.013865 0.009017
v -0.012601 -0.012544 0.009017
v -0.013812 -0.011196 0.009017
v -0.012601 -0.012544 -0.009017
v -0.013812 -0.011196 -0.009017
v -0.011259 -0.013761 0.009017
v -0.011259 -0.013761 -0.009017
v 0.012725 0.006375 0.009017
v 0.012725 -0.008906 0.009017
v 0.012725 0.006375 -0.009017
v 0.012725 -0.008906 -0.009017
v 0.004135 -0.012855 -0.009017
v 0.004135 -0.012855 0.009017
v -0.01488 -0.009733 0.009017
v -0.01488 -0.009733 -0.009017
v -0.015793 -0.008168 0.009017
v -0.015793 -0.008168 -0.009017
v -0.016542 -0.006519 0.009017
v -0.016542 -0.006519 -0.009017
v 0 0.006375 0.009017
v 0 0.006375 -0.009017
v -0.017119 -0.004802 0.009017
v -0.017519 -0.003035 0.009017
v -0.017119 -0.004802 -0.009017
v -0.017519 -0.003035 -0.009017
v -0.001828 0.006108 0.009017
v -0.000924 0.006308 0.009017
v -0.001828 0.006108 -0.009017
v -0.000924 0.006308 -0.009017
v -0.017737 -0.001236 0.009017
v -0.002694 0.005778 0.009017
v -0.017737 -0.001236 -0.009017
v -0.002694 0.005778 -0.009017
v 0.01759 0.007938 0.015367
v 0.018474 0.007938 0.015305
v 0.037814 0.007938 0.007511
v 0.038028 0.007938 0.005348
v 0.0381 0.007938 0.003175
v 0.037458 0.007938 0.009655
v 0.0127 0.007938 0.015367
v 0.037814 0.007938 -0.007511
v 0.037458 0.007938 -0.009655
v 0.0127 0.007938 -0.015367
v 0.038028 0.007938 -0.005348
v 0.0381 0.007938 -0.003175
v 0.035702 0.007938 0.012884
v 0.036961 0.007938 0.011772
v 0.036046 0.007938 0.012794
v 0.03683 0.007938 0.012101
v 0.036359 0.007938 0.012627
v 0.036625 0.007938 0.012392
v 0.01759 0.007938 -0.015367
v 0.018474 0.007938 -0.015305
v 0.035702 0.007938 -0.012884
v 0.036961 0.007938 -0.011772
v 0.036046 0.007938 -0.012794
v 0.03683 0.007938 -0.012101
v 0.036359 0.007938 -0.012627
v 0.036625 0.007938 -0.012392
v 0.035702 0.00635 0.012884
v 0.0127 0.00635 0.015367
v 0.0381 0.00635 0.003175
v 0.038028 0.00635 0.005348
v 0.03683 0.00635 0.012101
v 0.0127 0.00635 -0.015367
v 0.0381 0.00635 -0.003175
v 0.037814 0.00635 -0.007511
v 0.037458 0.00635 -0.009655
v 0.018474 0.00635 -0.015305
v 0.036961 0.00635 -0.011772
v 0.036046 0.00635 -0.012794
v 0.03683 0.00635 -0.012101
v 0.036359 0.00635 -0.012627
v -0.003163 -0.0004 0.003413
v -0.003163 0.0004 0.003413
v -0.003188 0 0.011366
v -0.003163 0.0004 0.011366
v -0.003163 -0.0004 0.011366
v -0.002964 0.001173 0.011366
v -0.002964 0.001173 0.003413
v 0.001708 0.002691 0.011366
v 0.002324 0.002182 0.011366
v 0.004717 0.00635 0.011366
v -0.000597 0.003131 0.011366
v 0.0002 0.003181 0.011366
v 0 0.00635 0.011366
v 0.002793 0.001536 0.011366
v 0.003088 0.000793 0.011366
v 0.010023 -0.00823 0.011366
v 0.003188 0 0.011366
v 0.003088 -0.000793 0.011366
v 0.002324 -0.002182 0.011366
v 0.005959 -0.005754 0.011366
v 0.002793 -0.001536 0.011366
v 0.006966 -0.006018 0.011366
v 0.001708 -0.002691 0.011366
v 0.000985 -0.003032 0.011366
v -0.001527 -0.004434 0.011366
v 0.007916 -0.006444 0.011366
v 0.008785 -0.007018 0.011366
v 0.009547 -0.007727 0.011366
v 0.010183 -0.008551 0.011366
v -0.002032 0.002456 0.011366
v -0.004529 0.004428 0.011366
v -0.002579 0.001874 0.011366
v -0.005152 0.003601 0.011366
v 0.000985 0.003032 0.011366
v 0.0002 -0.003181 0.011366
v -0.000597 -0.003131 0.011366
v -0.002525 -0.004156 0.011366
v -0.001357 -0.002884 0.011366
v -0.00345 -0.00369 0.011366
v -0.002032 -0.002456 0.011366
v -0.004268 -0.003055 0.011366
v -0.002579 -0.001874 0.011366
v -0.004948 -0.002273 0.011366
v -0.002964 -0.001173 0.011366
v -0.005463 -0.001375 0.011366
v -0.005796 -0.000394 0.011366
v -0.005932 0.000633 0.011366
v -0.005867 0.001667 0.011366
v -0.005604 0.002669 0.011366
v -0.001039 0.006264 0.011366
v -0.002051 0.00601 0.011366
v -0.001357 0.002884 0.011366
v -0.003007 0.005593 0.011366
v -0.003758 0.005119 0.011366
v -0.002964 -0.001173 0.003413
v -0.002579 0.001874 0.003413
v -0.005932 0.000633 0.006588
v -0.005796 -0.000394 0.006588
v -0.005867 0.001667 0.006588
v -0.002579 -0.001874 0.003413
v -0.005463 -0.001375 0.006588
v -0.004948 -0.002273 0.006588
v -0.002032 0.002456 0.003413
v -0.005604 0.002669 0.006588
v -0.002032 -0.002456 0.003413
v -0.004268 -0.003055 0.006588
v -0.005221 0.003549 0.006588
v -0.001357 0.002884 0.003413
v -0.004638 0.004312 0.006588
v -0.004531 0.00443 0.006588
v -0.001357 -0.002884 0.003413
v -0.00345 -0.00369 0.006588
v -0.000597 0.003131 0.003413
v -0.003877 0.005021 0.006588
v -0.003758 0.005119 0.006588
v -0.000597 -0.003131 0.003413
v -0.002525 -0.004156 0.006588
v -0.003007 0.005593 0.003413
v 0 0.003188 0.003413
v -0.002051 0.00601 0.003413
v 0.0002 -0.003181 0.003413
v -0.001527 -0.004434 0.006588
v 0.0002 0.003181 0.003413
v -0.001039 0.006264 0.003413
v -0.003882 0.005025 0.003413
v 0.000985 -0.003032 0.003413
v 0.005959 -0.005754 0.006588
v 0.000985 0.003032 0.003413
v 0 0.00635 0.003413
v -0.004652 0.004322 0.003413
v 0.004717 0.00635 0.015367
v 0 0.00635 -0.011366
v 0 0.00635 -0.007398
v 0.004717 0.00635 -0.011366
v 0.007568 0.00635 -0.007398
v 0.007568 0.00635 0.003413
v 0.004717 0.00635 -0.015367
v 0.001708 -0.002691 0.003413
v 0.006966 -0.006018 0.006588
v 0.001708 0.002691 0.003413
v -0.005297 0.003503 0.003413
v 0.002324 -0.002182 0.003413
v 0.007916 -0.006444 0.006588
v 0.002324 0.002182 0.003413
v 0.017539 -0.006664 0.015367
v 0.017539 0.00635 0.015367
v 0.0127 -0.00889 0.015367
v 0.012178 -0.00913 0.015367
v 0.010023 -0.00823 0.015367
v 0.010192 -0.008564 0.015367
v 0.01145 -0.009274 0.015367
v 0.011823 -0.009245 0.015367
v 0.011081 -0.009214 0.015367
v 0.010735 -0.00907 0.015367
v 0.010434 -0.008849 0.015367
v -0.005799 0.002588 0.006588
v -0.005799 0.002588 0.003413
v 0.002793 -0.001536 0.003413
v 0.002793 0.001536 0.003413
v 0.008785 -0.007018 0.006588
v 0.003088 0.000793 0.003413
v 0.012178 -0.00913 -0.015367
v 0.0127 -0.00889 -0.015367
v 0.012178 -0.00913 -0.007398
v 0.012178 -0.00913 0.006588
v -0.006144 0.001604 0.006588
v -0.006144 0.001604 0.003413
v 0.003088 -0.000793 0.003413
v 0.003188 0 0.003413
v 0.037815 0.00635 0.007507
v 0.037459 0.00635 0.009649
v 0.018423 0.00635 0.015305
v 0.036963 0.00635 0.011764
v 0.036048 0.00635 0.012786
v 0.036361 0.00635 0.012619
v 0.036627 0.00635 0.012384
v 0.011832 -0.009265 0.006588
v 0.017539 0.00635 -0.015367
v 0.017539 -0.006664 -0.015367
v 0.010023 -0.00823 -0.015367
v 0.011823 -0.009245 -0.015367
v 0.010192 -0.008564 -0.015367
v 0.01145 -0.009274 -0.015367
v 0.010434 -0.008849 -0.015367
v 0.011081 -0.009214 -0.015367
v 0.010735 -0.00907 -0.015367
v 0.010023 -0.00823 -0.011366
v 0.009547 -0.007727 0.006588
v 0.018423 -0.006258 0.015305
v 0.035704 0.001691 0.012877
v 0.001124 -0.014211 0.006588
v 0.001124 -0.014211 0.003413
v 0.005925 -0.012005 0.003413
v 0.011832 -0.009265 -0.007398
v 0.005925 -0.012005 -0.007398
v 0.010192 -0.008564 0.006588
v -0.002964 -0.001173 -0.011366
v -0.006168 -0.001508 -0.011366
v -0.003163 -0.0004 -0.011366
v -0.006333 -0.000466 -0.011366
v -0.003163 0.0004 -0.011366
v -0.006324 0.000577 -0.011366
v -0.006144 0.001604 -0.011366
v -0.002964 0.001173 -0.011366
v -0.005799 0.002588 -0.011366
v -0.002579 0.001874 -0.011366
v -0.002032 -0.002456 -0.011366
v -0.004694 -0.004277 -0.011366
v -0.002579 -0.001874 -0.011366
v -0.005337 -0.00344 -0.011366
v -0.005833 -0.002509 -0.011366
v 0.002793 -0.001536 -0.011366
v 0.003088 -0.000793 -0.011366
v 0.003188 0 -0.011366
v 0.003088 0.000793 -0.011366
v 0.002793 0.001536 -0.011366
v 0.002324 0.002182 -0.011366
v -0.005297 0.003503 -0.011366
v -0.004652 0.004322 -0.011366
v -0.002032 0.002456 -0.011366
v -0.003882 0.005025 -0.011366
v -0.001357 0.002884 -0.011366
v 0.010284 -0.00869 -0.011366
v 0.009499 -0.007884 -0.011366
v 0.010192 -0.008564 -0.011366
v 0 -0.00635 -0.011366
v -0.001052 -0.006262 -0.011366
v -0.000597 -0.003131 -0.011366
v -0.002074 -0.006002 -0.011366
v -0.001357 -0.002884 -0.011366
v -0.003039 -0.005575 -0.011366
v -0.003921 -0.004995 -0.011366
v 0.008584 -0.007229 -0.011366
v 0.002324 -0.002182 -0.011366
v 0.0002 -0.003181 -0.011366
v 0.000985 -0.003032 -0.011366
v 0.005361 -0.00635 -0.011366
v 0.001708 -0.002691 -0.011366
v 0.006482 -0.00645 -0.011366
v 0.007567 -0.006746 -0.011366
v 0.001708 0.002691 -0.011366
v 0.000985 0.003032 -0.011366
v 0.0002 0.003181 -0.011366
v -0.001039 0.006264 -0.011366
v -0.000597 0.003131 -0.011366
v -0.002051 0.00601 -0.011366
v -0.003007 0.005593 -0.011366
v -0.001039 0.006264 -0.007398
v -0.006324 0.000577 0.006588
v -0.006324 0.000577 0.003413
v 0.010735 -0.00907 0.006588
v 0.011081 -0.009214 0.006588
v 0.010434 -0.008849 0.006588
v 0.037436 0.002487 0.009645
v 0.037231 0.002393 0.0107
v 0.01145 -0.009274 0.006588
v 0.037713 0.002615 0.008216
v 0.036963 0.00227 0.011764
v 0.035881 0.001772 0.012841
v 0.035704 0.001691 -0.012877
v 0.003188 0 -0.007398
v 0.003088 0.000793 -0.007398
v 0.003088 -0.000793 -0.007398
v -0.002051 0.00601 -0.007398
v 0.000985 0.003032 -0.007398
v 0.0002 0.003181 -0.007398
v 0.001708 0.002691 -0.007398
v -0.006333 -0.000466 0.006588
v -0.006333 -0.000466 0.003413
v 0.0381 0.002793 0.003175
v 0.037795 0.002652 0.007505
v 0.036042 0.001846 0.012773
v 0.038029 0.00635 -0.005346
v 0.035704 0.00635 -0.012877
v 0.036627 0.00635 -0.012384
v 0.018423 -0.006258 -0.015305
v 0.036045 0.001848 -0.012778
v 0.002793 0.001536 -0.007398
v 0.002793 -0.001536 -0.007398
v 0 0.003188 -0.007398
v 0.002324 0.002182 -0.007398
v 0.038003 0.002748 0.005703
v 0.038017 0.002754 0.005345
v 0.0381 0.002793 -0.003175
v 0.036823 0.002205 0.012109
v 0.036273 0.001953 0.012676
v 0.01145 -0.009274 -0.007398
v 0.036354 0.00199 -0.012609
v 0.011081 -0.009214 -0.007398
v 0.010735 -0.00907 -0.007398
v -0.000597 0.003131 -0.007398
v -0.003007 0.005593 -0.007398
v 0.036355 0.00199 0.012611
v 0.036963 0.00227 -0.011764
v 0.037795 0.002652 -0.007504
v 0.036618 0.002111 -0.012375
v 0.010434 -0.008849 -0.007398
v 0.010284 -0.00869 -0.007398
v 0.009499 -0.007884 -0.007398
v 0.002324 -0.002182 -0.007398
v 0.008584 -0.007229 -0.007398
v -0.001357 0.002884 -0.007398
v 0.036592 0.002099 0.012422
v 0.037527 0.002529 -0.009298
v 0.037448 0.002493 -0.009647
v 0.037901 0.002701 -0.006795
v 0.038005 0.002749 -0.005344
v 0.036739 0.002167 -0.012244
v 0.036821 0.002205 -0.012088
v 0.036471 0.002043 -0.012536
v 0.007567 -0.006746 -0.007398
v -0.002032 0.002456 -0.007398
v -0.003882 0.005025 -0.007398
v 0.038082 0.002784 -0.004272
v 0.036916 0.002248 -0.011909
v 0.001708 -0.002691 -0.007398
v 0.006482 -0.00645 -0.007398
v -0.002579 0.001874 -0.007398
v -0.004652 0.004322 -0.007398
v 0.000985 -0.003032 -0.007398
v 0.005361 -0.00635 -0.007398
v -0.002964 0.001173 -0.007398
v -0.005297 0.003503 -0.007398
v 0.0002 -0.003181 -0.007398
v 0 -0.00635 -0.007398
v -0.003163 0.0004 -0.007398
v -0.005799 0.002588 -0.007398
v -0.000597 -0.003131 -0.007398
v -0.001052 -0.006262 -0.007398
v -0.003163 -0.0004 -0.007398
v -0.006144 0.001604 -0.007398
v -0.001357 -0.002884 -0.007398
v -0.002074 -0.006002 -0.007398
v -0.002964 -0.001173 -0.007398
v -0.006324 0.000577 -0.007398
v -0.002032 -0.002456 -0.007398
v -0.003039 -0.005575 -0.007398
v -0.006333 -0.000466 -0.007398
v -0.002579 -0.001874 -0.007398
v -0.006168 -0.001508 -0.007398
v -0.003921 -0.004995 -0.007398
v -0.005833 -0.002509 -0.007398
v -0.004694 -0.004277 -0.007398
v -0.005337 -0.00344 -0.007398
f 3 2 4
f 2 5 4
f 4 5 6
f 3 7 1
f 1 7 8
f 9 10 11
f 11 10 12
f 5 13 6
f 6 13 14
f 7 15 8
f 8 15 16
f 15 9 16
f 16 9 11
f 10 17 12
f 12 17 18
f 13 19 14
f 14 19 20
f 19 21 20
f 20 21 22
f 17 23 18
f 18 23 24
f 21 25 22
f 22 25 26
f 27 28 29
f 29 28 30
f 31 27 32
f 32 27 29
f 23 31 24
f 24 31 32
f 33 34 35
f 35 34 36
f 25 37 26
f 26 37 38
f 28 39 30
f 30 39 40
f 39 41 40
f 40 41 42
f 41 43 42
f 42 43 44
f 33 35 45
f 45 35 46
f 34 38 36
f 36 38 37
f 47 48 49
f 49 48 50
f 43 47 44
f 44 47 49
f 51 52 53
f 53 52 54
f 52 45 54
f 54 45 46
f 34 33 38
f 38 33 45
f 47 43 38
f 38 27 31
f 48 47 55
f 55 47 38
f 55 38 56
f 56 38 45
f 56 45 51
f 51 45 52
f 28 27 39
f 39 27 38
f 39 38 41
f 41 38 43
f 10 9 17
f 17 9 38
f 17 38 23
f 23 38 31
f 9 15 38
f 38 15 7
f 38 7 26
f 26 7 20
f 26 20 22
f 14 20 6
f 6 20 7
f 6 7 4
f 4 7 3
f 48 55 50
f 50 55 57
f 53 58 51
f 51 58 56
f 55 56 57
f 57 56 58
f 35 36 46
f 46 36 37
f 24 32 29
f 18 24 37
f 54 46 53
f 53 46 37
f 53 37 58
f 58 37 57
f 12 18 11
f 11 18 37
f 11 37 16
f 16 37 25
f 16 25 8
f 8 25 21
f 8 21 1
f 1 21 19
f 1 19 2
f 2 19 13
f 2 13 5
f 24 29 37
f 37 29 30
f 37 30 40
f 50 57 49
f 49 57 37
f 49 37 44
f 44 37 40
f 44 40 42
f 59 204 60
f 60 204 230
f 61 62 63
f 64 65 59
f 66 67 68
f 69 66 70
f 70 66 68
f 70 68 63
f 63 68 65
f 63 65 61
f 61 65 64
f 59 60 64
f 64 60 71
f 64 71 72
f 72 71 73
f 72 73 74
f 74 73 75
f 74 75 76
f 77 68 78
f 78 68 67
f 78 67 79
f 79 67 80
f 79 80 81
f 81 80 82
f 81 82 83
f 83 82 84
f 85 71 230
f 230 71 60
f 65 86 59
f 59 86 204
f 229 86 228
f 228 86 87
f 228 87 88
f 204 86 230
f 230 86 229
f 230 229 85
f 85 229 231
f 85 231 232
f 232 231 89
f 232 89 233
f 233 89 234
f 231 229 72
f 72 229 64
f 89 231 74
f 74 231 72
f 73 71 232
f 232 71 85
f 68 90 65
f 65 90 86
f 61 64 228
f 228 64 229
f 234 89 76
f 76 89 74
f 75 73 233
f 233 73 232
f 236 90 77
f 77 90 68
f 62 61 88
f 88 61 228
f 87 91 63
f 63 91 70
f 88 87 62
f 62 87 63
f 233 234 75
f 75 234 76
f 331 91 92
f 92 91 90
f 92 90 93
f 93 90 236
f 236 94 93
f 93 94 332
f 93 332 95
f 95 332 96
f 95 96 97
f 97 96 98
f 97 98 333
f 78 94 77
f 77 94 236
f 69 70 331
f 331 70 91
f 93 95 67
f 67 95 80
f 92 93 66
f 66 93 67
f 66 69 92
f 92 69 331
f 79 332 78
f 78 332 94
f 82 80 97
f 97 80 95
f 96 332 81
f 81 332 79
f 84 82 333
f 333 82 97
f 98 96 83
f 83 96 81
f 83 84 98
f 98 84 333
f 99 100 101
f 101 100 102
f 103 99 101
f 104 102 105
f 105 102 100
f 106 107 108
f 109 110 111
f 107 112 108
f 108 112 113
f 108 113 114
f 114 113 115
f 114 115 116
f 117 118 119
f 119 118 120
f 117 121 118
f 118 121 122
f 118 122 123
f 120 124 119
f 119 124 125
f 119 125 116
f 116 125 126
f 116 126 114
f 114 126 127
f 128 129 130
f 130 129 131
f 130 131 104
f 111 110 108
f 108 110 132
f 108 132 106
f 122 133 123
f 123 133 134
f 123 134 135
f 135 134 136
f 135 136 137
f 137 136 138
f 137 138 139
f 139 138 140
f 139 140 141
f 141 140 142
f 141 142 143
f 143 142 103
f 143 103 144
f 144 103 101
f 144 101 145
f 145 101 102
f 145 102 146
f 146 102 104
f 146 104 147
f 147 104 131
f 111 148 109
f 109 148 149
f 109 149 150
f 150 149 151
f 150 151 128
f 128 151 152
f 128 152 129
f 153 99 142
f 142 99 103
f 130 104 154
f 154 104 105
f 155 156 145
f 145 156 144
f 157 155 146
f 146 155 145
f 158 153 140
f 140 153 142
f 156 159 144
f 144 159 143
f 159 160 143
f 143 160 141
f 128 130 161
f 161 130 154
f 162 157 147
f 147 157 146
f 163 158 138
f 138 158 140
f 139 141 164
f 164 141 160
f 165 162 131
f 131 162 147
f 150 128 166
f 166 128 161
f 165 131 167
f 167 131 129
f 167 129 168
f 169 163 136
f 136 163 138
f 137 139 170
f 170 139 164
f 109 150 171
f 171 150 166
f 168 129 172
f 172 129 152
f 172 152 173
f 174 169 134
f 134 169 136
f 135 137 175
f 175 137 170
f 176 173 151
f 151 173 152
f 109 171 177
f 178 176 149
f 149 176 151
f 179 174 133
f 133 174 134
f 123 135 180
f 180 135 175
f 109 177 110
f 172 173 176
f 177 181 110
f 182 178 148
f 148 178 149
f 176 183 172
f 184 179 122
f 122 179 133
f 118 123 185
f 185 123 180
f 132 110 186
f 186 110 181
f 187 182 111
f 111 182 148
f 172 183 168
f 168 183 188
f 168 188 167
f 108 189 86
f 190 191 192
f 192 191 193
f 194 187 111
f 111 108 194
f 194 108 86
f 194 86 193
f 193 86 90
f 193 90 192
f 192 90 195
f 196 184 121
f 121 184 122
f 120 118 197
f 197 118 185
f 106 132 198
f 198 132 186
f 165 167 199
f 199 167 188
f 200 196 117
f 117 196 121
f 124 120 201
f 201 120 197
f 107 106 202
f 202 106 198
f 203 204 205
f 205 204 86
f 205 86 206
f 86 189 206
f 206 189 207
f 206 207 208
f 209 210 211
f 211 210 206
f 211 206 212
f 212 206 208
f 212 208 213
f 207 189 114
f 114 189 108
f 214 165 215
f 215 165 199
f 216 200 119
f 119 200 117
f 112 107 217
f 217 107 202
f 125 124 218
f 218 124 201
f 217 219 112
f 112 219 113
f 220 221 222
f 222 221 205
f 222 205 223
f 223 205 206
f 207 114 208
f 224 214 225
f 225 214 215
f 226 216 116
f 116 216 119
f 115 113 227
f 227 113 219
f 88 87 86
f 228 88 229
f 229 88 86
f 229 86 204
f 204 230 229
f 235 223 210
f 210 223 206
f 208 114 127
f 236 237 90
f 90 237 221
f 90 221 195
f 195 221 220
f 195 220 238
f 238 220 239
f 238 239 240
f 240 239 241
f 240 241 242
f 242 241 243
f 242 243 244
f 195 238 192
f 192 238 245
f 126 125 246
f 246 125 218
f 230 204 247
f 247 204 203
f 248 203 221
f 221 203 205
f 249 250 235
f 235 250 251
f 222 223 252
f 252 223 235
f 252 235 253
f 253 235 251
f 127 254 208
f 116 115 226
f 226 115 227
f 255 256 257
f 257 256 258
f 257 258 259
f 258 260 259
f 259 260 261
f 259 261 262
f 262 261 263
f 262 263 264
f 265 266 267
f 267 266 268
f 267 268 255
f 255 268 269
f 255 269 256
f 270 271 245
f 245 271 272
f 245 272 192
f 272 273 192
f 192 273 274
f 192 274 275
f 263 276 264
f 264 276 277
f 264 277 278
f 278 277 279
f 278 279 280
f 281 282 283
f 283 282 245
f 284 285 286
f 286 285 287
f 286 287 288
f 288 287 289
f 288 289 265
f 265 289 290
f 265 290 266
f 245 282 270
f 270 282 291
f 270 291 292
f 286 293 284
f 284 293 294
f 284 294 295
f 295 294 296
f 295 296 297
f 297 296 292
f 297 292 298
f 298 292 291
f 275 299 192
f 192 299 300
f 192 300 190
f 190 300 301
f 190 301 302
f 302 301 303
f 302 303 304
f 304 303 280
f 304 280 305
f 305 280 279
f 306 191 302
f 302 191 190
f 307 224 308
f 308 224 225
f 309 310 212
f 212 310 211
f 254 311 208
f 208 311 213
f 311 309 213
f 213 309 212
f 312 228 229
f 313 229 231
f 247 203 248
f 314 235 209
f 209 235 210
f 246 254 126
f 126 254 127
f 240 283 238
f 238 283 245
f 209 211 314
f 314 211 310
f 315 228 312
f 312 229 313
f 313 231 316
f 85 230 248
f 248 230 247
f 248 221 317
f 239 220 252
f 252 220 222
f 318 221 237
f 319 320 272
f 272 320 273
f 321 319 271
f 271 319 272
f 322 306 304
f 304 306 302
f 323 324 300
f 300 324 301
f 325 323 299
f 299 323 300
f 326 307 327
f 327 307 308
f 87 88 328
f 228 329 88
f 315 329 228
f 312 329 315
f 221 329 313
f 313 329 312
f 231 89 316
f 316 343 313
f 317 221 330
f 317 85 248
f 92 93 331
f 331 93 90
f 331 90 91
f 236 90 94
f 94 90 93
f 94 334 236
f 236 334 237
f 335 221 318
f 318 237 334
f 283 240 281
f 274 273 336
f 336 273 320
f 337 321 270
f 270 321 271
f 301 338 303
f 301 324 338
f 339 325 275
f 275 325 299
f 340 341 88
f 88 341 328
f 342 91 328
f 328 91 87
f 88 329 340
f 313 343 221
f 89 343 316
f 221 344 330
f 344 232 330
f 330 232 317
f 317 232 85
f 241 239 345
f 345 239 252
f 346 221 335
f 96 335 318
f 94 332 334
f 334 332 318
f 281 240 242
f 347 348 243
f 243 348 244
f 275 274 339
f 339 274 336
f 338 349 303
f 350 322 305
f 305 322 304
f 342 328 341
f 341 340 221
f 221 340 329
f 343 89 234
f 221 351 344
f 95 93 352
f 92 353 93
f 354 221 346
f 332 96 318
f 345 347 241
f 241 347 243
f 242 355 281
f 281 355 356
f 356 357 281
f 281 357 282
f 242 244 355
f 355 244 348
f 358 337 292
f 292 337 270
f 357 359 282
f 282 359 291
f 280 303 360
f 360 303 349
f 342 341 221
f 331 91 342
f 221 343 361
f 234 361 343
f 344 233 232
f 351 233 344
f 361 351 221
f 362 363 93
f 93 363 352
f 97 95 352
f 93 353 362
f 92 364 353
f 331 365 92
f 366 367 354
f 354 367 221
f 346 368 354
f 96 346 335
f 298 291 369
f 369 291 359
f 278 280 370
f 370 280 360
f 371 350 279
f 279 350 305
f 221 372 342
f 342 372 331
f 361 234 233
f 361 233 351
f 353 365 221
f 362 353 363
f 363 353 221
f 363 221 352
f 352 373 97
f 353 364 365
f 92 365 364
f 331 372 365
f 352 221 367
f 354 368 98
f 98 368 346
f 98 346 96
f 374 358 296
f 296 358 292
f 221 365 372
f 97 373 367
f 352 367 373
f 97 367 333
f 333 367 366
f 333 366 354
f 98 333 354
f 369 375 298
f 298 375 297
f 264 278 376
f 376 278 370
f 377 371 277
f 277 371 279
f 378 374 294
f 294 374 296
f 295 297 379
f 379 297 375
f 262 264 380
f 380 264 376
f 381 377 276
f 276 377 277
f 382 378 293
f 293 378 294
f 284 295 383
f 383 295 379
f 259 262 384
f 384 262 380
f 385 381 263
f 263 381 276
f 386 382 286
f 286 382 293
f 285 284 387
f 387 284 383
f 257 259 388
f 388 259 384
f 389 385 261
f 261 385 263
f 390 386 288
f 288 386 286
f 387 391 285
f 285 391 287
f 255 257 392
f 392 257 388
f 393 389 260
f 260 389 261
f 394 390 265
f 265 390 288
f 289 287 395
f 395 287 391
f 396 393 258
f 258 393 260
f 267 255 397
f 397 255 392
f 398 396 256
f 256 396 258
f 397 394 267
f 267 394 265
f 290 289 399
f 399 289 395
f 400 398 269
f 269 398 256
f 266 290 401
f 401 290 399
f 402 400 268
f 268 400 269
f 401 402 266
f 266 402 268
f 87 91 86
f 86 91 90
f 2 3 1
