# Blender 4.0.0
# www.blender.org
o decimated_mesh
v 0.351171 1.461104 -0.152384
v 0.369961 1.461923 -0.171209
v 0.376567 1.458930 -0.147038
v 0.352785 1.461027 0.186148
v 0.349137 1.501276 -0.156891
v 0.381028 1.486583 -0.149061
v 0.382292 1.481754 0.180832
v 0.371114 1.460091 0.201708
v 0.348687 1.501928 0.185610
v 0.369956 1.502413 -0.171366
v 0.375246 1.507595 -0.149332
v 0.351239 1.491675 0.198399
v 0.360302 1.509742 -0.141770
v 0.373265 1.504476 0.200171
v 0.362863 1.504086 0.200490
v 0.360302 1.509742 0.170103
vn 0.1422 0.9898 -0.0000
vn 0.8946 -0.4467 0.0155
vn -0.5707 -0.0032 -0.8211
vn 0.9318 0.3629 0.0085
vn 0.9445 -0.1728 -0.2795
vn -0.6231 -0.3172 0.7149
vn -0.5603 0.8283 -0.0023
vn -0.9881 -0.0974 0.1190
vn -0.2673 0.9114 -0.3129
vn -0.1719 -0.0050 0.9851
vn -0.6546 0.5207 0.5481
vn -0.3491 0.9155 0.1998
vn 0.8953 -0.0016 -0.4455
vn 0.9261 0.2512 -0.2814
vn -0.0531 -0.9986 0.0025
vn 0.3557 0.9346 0.0104
vn -0.9987 -0.0507 -0.0012
vn -0.9950 -0.0996 0.0047
vn 0.9642 0.2653 0.0002
vn -0.6042 0.7968 -0.0000
vn 0.9871 -0.1597 -0.0061
vn -0.0627 -0.9924 -0.1057
vn 0.8929 -0.0277 0.4494
vn 0.0295 0.0332 0.9990
vn -0.7006 -0.1145 -0.7043
vn 0.0213 0.9721 -0.2337
vn -0.0311 0.9822 0.1854
vn -0.0853 -0.9964 0.0002
vn -0.6022 0.7983 -0.0023
vn -0.5582 0.8297 -0.0000
s 0
f 11//1 13//1 16//1
f 3//2 7//2 8//2
f 10//3 2//3 5//3
f 7//4 11//4 14//4
f 6//5 3//5 2//5
f 4//6 8//6 12//6
f 16//7 5//7 9//7
f 4//8 12//8 9//8
f 5//9 13//9 10//9
f 8//10 15//10 12//10
f 12//11 15//11 9//11
f 9//12 15//12 16//12
f 10//13 6//13 2//13
f 11//14 6//14 10//14
f 4//15 3//15 8//15
f 14//16 11//16 16//16
f 9//17 5//17 1//17
f 4//18 9//18 1//18
f 7//19 6//19 11//19
f 16//20 13//20 5//20
f 7//21 3//21 6//21
f 1//22 2//22 3//22
f 14//23 8//23 7//23
f 15//24 8//24 14//24
f 5//25 2//25 1//25
f 13//26 11//26 10//26
f 16//27 15//27 14//27
f 4//28 1//28 3//28
f 9//29 13//29 5//29
f 16//30 13//30 9//30
