# Blender 4.0.0
# www.blender.org
o decimated_mesh
v -0.351968 1.461126 -0.152389
v -0.377215 1.458978 -0.147557
v -0.370568 1.461993 -0.171214
v -0.353375 1.461140 0.186079
v -0.349672 1.501092 -0.156703
v -0.381646 1.487403 -0.149833
v -0.383012 1.481622 0.180394
v -0.371090 1.459522 0.201582
v -0.376366 1.507769 -0.141770
v -0.349360 1.501889 0.185573
v -0.351943 1.491678 0.198289
v -0.360950 1.509721 -0.141770
v -0.373923 1.504956 0.199969
v -0.370928 1.502821 -0.171133
v -0.363474 1.504028 0.200469
v -0.360950 1.509721 0.170103
vn -0.1256 0.9920 0.0091
vn -0.8877 -0.0391 0.4587
vn 0.5620 0.0066 -0.8271
vn 0.7038 -0.1161 -0.7008
vn -0.0909 0.9959 -0.0000
vn -0.8864 -0.4626 0.0163
vn 0.5622 0.8270 -0.0024
vn -0.9429 -0.1699 -0.2866
vn 0.0778 0.9787 0.1900
vn 0.0636 -0.9921 -0.1086
vn -0.9178 0.3271 -0.2251
vn 0.9877 -0.0958 0.1237
vn -0.1234 0.9746 -0.1871
vn 0.6420 -0.3104 0.7011
vn -0.9345 0.3559 0.0096
vn 0.2841 0.9074 -0.3098
vn 0.1794 -0.0061 0.9837
vn 0.6573 0.5168 0.5485
vn -0.8912 -0.0070 -0.4535
vn 0.3504 0.9148 0.2007
vn -0.3448 0.9387 -0.0000
vn -0.9880 -0.1546 -0.0068
vn 0.9983 -0.0574 -0.0008
vn 0.9952 -0.0980 0.0041
vn -0.0849 0.9964 -0.0004
vn 0.6077 0.7942 -0.0000
vn -0.0449 0.0327 0.9985
vn -0.9680 0.2508 0.0004
vn -0.0848 0.9964 -0.0001
vn -0.0913 0.9958 -0.0004
vn -0.3242 0.9459 0.0101
vn -0.1256 0.9921 -0.0000
vn 0.6056 0.7957 -0.0024
vn 0.5599 0.8285 -0.0000
s 0
f 12//1 9//1 13//1
f 13//2 7//2 8//2
f 14//3 5//3 3//3
f 5//4 1//4 3//4
f 2//5 8//5 4//5
f 7//6 2//6 8//6
f 5//7 16//7 10//7
f 2//8 6//8 3//8
f 15//9 16//9 13//9
f 3//10 1//10 2//10
f 6//11 9//11 14//11
f 4//12 10//12 11//12
f 9//13 12//13 14//13
f 8//14 4//14 11//14
f 9//15 7//15 13//15
f 5//16 14//16 12//16
f 11//17 15//17 8//17
f 11//18 10//18 15//18
f 6//19 14//19 3//19
f 10//20 16//20 15//20
f 16//21 12//21 13//21
f 6//22 2//22 7//22
f 5//23 10//23 1//23
f 4//24 1//24 10//24
f 2//25 4//25 1//25
f 5//26 12//26 16//26
f 15//27 13//27 8//27
f 9//28 6//28 7//28
f 1//29 2//29 8//29
f 4//30 1//30 8//30
f 13//31 16//31 9//31
f 16//32 12//32 9//32
f 12//33 10//33 5//33
f 12//34 16//34 10//34
