# Blender 4.0.0
# www.blender.org
o decimated_mesh
v 0.390379 0.011396 0.359854
v 0.390379 0.011396 0.415963
v 0.000809 0.077436 0.445652
v -0.000911 0.014126 0.422098
v 0.390345 0.077312 0.393441
vn -0.0070 -1.0000 -0.0000
vn 1.0000 0.0005 -0.0000
vn 0.1259 0.3208 0.9387
vn 0.1373 -0.4496 0.8826
vn 0.0123 -0.3490 0.9371
vn 0.1244 -0.3489 0.9289
vn 0.1449 -0.3485 0.9261
vn 0.1184 -0.4508 0.8848
s 0
f 1//1 2//1 4//1
f 5//2 2//2 1//2
f 3//3 2//3 5//3
f 4//4 1//4 5//4
f 3//5 4//5 2//5
f 4//6 5//6 3//6
f 4//7 1//7 3//7
f 3//8 1//8 5//8
