# Blender 4.0.0
# www.blender.org
o decimated_mesh
v 0.477193 0.088171 0.266995
v 0.489994 0.101943 0.273252
v 0.494519 0.075244 0.269235
v -0.477842 0.088171 0.267014
v 0.500002 0.088171 0.287075
v -0.495295 0.075460 0.269470
v -0.491132 0.101052 0.272480
v 0.501477 0.075087 0.287075
v -0.502126 0.075087 0.287075
v -0.500651 0.088171 0.287075
v -0.477842 0.105201 0.287075
v 0.477193 0.105180 0.365031
v 0.491426 0.101047 0.377102
v -0.491330 0.102152 0.376526
v 0.500002 0.088171 0.365031
v 0.471283 0.098577 0.390621
v 0.494353 0.076078 0.383436
v 0.501575 0.075087 0.365031
v -0.502224 0.075087 0.365031
v -0.500651 0.088171 0.365031
v -0.495037 0.076076 0.383379
v -0.470478 0.098247 0.391419
v 0.388684 0.098732 0.413416
v 0.478968 0.075105 0.392741
v -0.478435 0.075103 0.393149
v -0.382287 0.099074 0.414438
v 0.238049 0.099658 0.435096
v -0.388050 0.075142 0.416840
v -0.219365 0.099781 0.437121
v -0.088022 0.088171 0.449862
v 0.127650 0.087332 0.448931
v 0.385071 0.075087 0.416995
v 0.068753 0.075125 0.452748
v -0.078702 0.075144 0.452673
vn 0.8799 0.2130 -0.4248
vn 0.9928 0.1194 -0.0013
vn -0.8084 0.5886 -0.0078
vn -0.0007 0.9621 -0.2729
vn -0.8911 0.1932 -0.4106
vn 0.1398 -0.1545 0.9781
vn -0.0027 0.9994 0.0337
vn -0.0000 -0.1707 -0.9853
vn 0.5142 0.2670 0.8150
vn 0.8884 0.2080 0.4093
vn -0.9937 0.1120 -0.0000
vn 0.0032 0.7338 0.6794
vn -0.8750 0.2356 0.4230
vn -0.5211 0.2855 0.8044
vn -0.4836 0.2294 0.8447
vn -0.9279 0.1046 -0.3578
vn 0.2624 0.1717 0.9496
vn -0.2504 0.1575 0.9552
vn -0.0004 0.3004 0.9538
vn 0.2753 0.9613 0.0045
vn 0.8323 0.5543 -0.0000
vn 0.0337 0.9807 0.1924
vn -0.2458 0.1526 -0.9572
vn 0.0003 0.4133 -0.9106
vn 0.9271 0.1115 0.3578
vn 0.4918 0.2367 0.8379
vn 0.0001 1.0000 0.0011
vn 0.0003 1.0000 0.0013
vn 0.0026 1.0000 0.0014
vn 0.0001 1.0000 0.0009
vn -0.0003 1.0000 0.0024
vn -0.0004 1.0000 -0.0001
vn -0.0170 0.9997 0.0146
vn -0.1160 -0.9883 0.0987
vn -0.0007 1.0000 -0.0000
vn 0.0002 1.0000 0.0012
vn 0.0226 0.9997 -0.0000
vn 0.1239 -0.9871 0.1017
vn 0.9937 0.1120 -0.0000
vn -0.8320 0.5548 -0.0000
vn 0.0029 0.9994 -0.0349
vn -0.0003 -0.1894 -0.9819
vn -0.1373 0.1315 0.9818
vn -0.1150 -0.0299 0.9929
vn -0.0819 0.1539 0.9847
vn -0.9928 0.1194 -0.0013
vn -0.2873 0.9578 -0.0107
vn 0.0058 0.7679 0.6405
vn 0.2486 0.1077 0.9626
vn -0.2508 0.1562 0.9553
vn 0.9269 0.1045 -0.3606
vn 0.0050 0.2144 0.9767
vn -0.1094 0.2251 -0.9682
vn 0.1281 0.1293 0.9833
vn -0.9273 0.1115 0.3573
vn 0.8119 0.5838 -0.0062
vn 0.0750 0.9612 0.2654
vn 0.0576 0.9634 0.2619
vn -0.0025 0.9987 0.0504
vn -0.1118 0.9116 0.3955
vn -0.0258 0.9877 0.1543
vn 0.0006 0.9967 0.0807
vn 0.2618 0.1868 -0.9469
vn -0.0000 0.3906 -0.9206
vn -0.0000 1.0000 0.0088
vn 0.0002 0.9998 0.0213
vn 0.0671 0.9655 0.2515
vn 0.0844 0.9504 0.2994
vn 0.9928 0.1194 -0.0000
vn 0.9937 0.1120 -0.0013
vn -0.0000 1.0000 -0.0000
vn -0.9937 0.1120 -0.0013
vn -0.9929 0.1194 -0.0000
vn 0.1235 0.0079 0.9923
vn 0.1421 0.1269 0.9817
vn 0.0031 0.7549 0.6559
vn 0.0058 0.7232 0.6906
vn -0.0005 1.0000 -0.0010
vn -0.0000 1.0000 -0.0006
vn -0.2508 0.1576 0.9551
vn -0.2505 0.1562 0.9554
vn 0.0052 0.2754 0.9613
vn -0.0000 1.0000 -0.0007
vn -0.0005 0.2106 0.9776
vn 0.0003 1.0000 -0.0029
vn 0.0001 1.0000 -0.0015
s 0
f 2//1 5//1 3//1
f 8//2 15//2 18//2
f 10//3 14//3 7//3
f 11//4 2//4 7//4
f 6//5 10//5 7//5
f 23//6 27//6 31//6
f 12//7 11//7 14//7
f 3//8 4//8 1//8
f 13//9 16//9 17//9
f 13//10 17//10 15//10
f 9//11 20//11 10//11
f 29//12 31//12 27//12
f 14//13 20//13 21//13
f 14//14 21//14 22//14
f 21//15 25//15 22//15
f 10//16 6//16 9//16
f 24//17 16//17 23//17
f 22//18 25//18 28//18
f 31//19 34//19 33//19
f 2//20 12//20 13//20
f 5//21 13//21 15//21
f 27//22 23//22 12//22
f 7//23 4//23 6//23
f 1//24 7//24 2//24
f 17//25 18//25 15//25
f 24//26 17//26 16//26
f 24//27 3//27 32//27
f 32//28 3//28 33//28
f 24//29 18//29 3//29
f 33//30 3//30 34//30
f 34//31 6//31 28//31
f 28//32 9//32 25//32
f 28//33 6//33 9//33
f 25//34 21//34 19//34
f 19//35 25//35 9//35
f 6//36 34//36 3//36
f 8//37 3//37 18//37
f 18//38 17//38 24//38
f 8//39 5//39 15//39
f 10//40 20//40 14//40
f 12//41 2//41 11//41
f 3//42 6//42 4//42
f 29//43 26//43 28//43
f 28//44 34//44 29//44
f 30//45 29//45 34//45
f 9//46 19//46 20//46
f 14//47 11//47 7//47
f 29//48 30//48 31//48
f 24//49 23//49 32//49
f 28//50 26//50 22//50
f 5//51 8//51 3//51
f 31//52 30//52 34//52
f 33//53 31//53 32//53
f 31//54 32//54 23//54
f 20//55 19//55 21//55
f 5//56 2//56 13//56
f 23//57 16//57 12//57
f 16//58 13//58 12//58
f 12//59 14//59 29//59
f 22//60 26//60 14//60
f 26//61 29//61 14//61
f 29//62 27//62 12//62
f 2//63 3//63 1//63
f 1//64 4//64 7//64
f 8//65 3//65 9//65
f 9//66 3//66 6//66
f 23//67 13//67 12//67
f 23//68 16//68 13//68
f 15//69 18//69 5//69
f 18//70 8//70 5//70
f 18//71 19//71 32//71
f 18//71 9//71 19//71
f 18//71 8//71 9//71
f 19//72 10//72 9//72
f 19//73 20//73 10//73
f 31//74 32//74 27//74
f 32//75 23//75 27//75
f 29//76 30//76 27//76
f 30//77 31//77 27//77
f 24//78 18//78 32//78
f 32//79 19//79 25//79
f 25//80 26//80 22//80
f 25//81 28//81 26//81
f 30//82 33//82 31//82
f 33//83 32//83 25//83
f 34//84 33//84 30//84
f 25//85 28//85 34//85
f 25//86 34//86 33//86
