# Blender 4.0.0
# www.blender.org
o decimated_mesh
v -0.351839 0.504138 -0.161601
v -0.372064 0.502868 -0.169245
v -0.361011 0.498070 0.183825
v -0.382598 0.525004 -0.144576
v -0.374384 0.503122 0.200067
v -0.348224 0.511739 0.201141
v -0.382201 0.528757 0.181209
v -0.370955 0.548257 -0.166016
v -0.350732 0.539978 -0.151953
v -0.371159 0.548770 0.200322
v -0.353054 0.543810 0.182506
vn 0.3836 0.9235 -0.0079
vn -0.8904 0.0604 0.4512
vn 0.3498 0.0580 -0.9350
vn -0.3551 -0.9348 -0.0016
vn -0.0401 -0.0028 0.9992
vn -0.8751 0.4839 -0.0012
vn 0.6115 0.1880 -0.7686
vn 0.2579 -0.8418 0.4741
vn -0.9574 -0.2886 0.0045
vn 0.7257 -0.6880 0.0072
vn -0.9004 0.0527 -0.4318
vn 0.6884 0.4391 0.5773
vn 0.9884 0.1519 0.0051
vn 0.2631 0.9648 -0.0012
vn 0.9996 -0.0283 -0.0094
vn 0.0686 -0.9975 -0.0157
vn -0.8957 0.4447 -0.0040
vn -0.9053 -0.4248 -0.0054
s 0
f 8//1 11//1 9//1
f 7//2 5//2 10//2
f 2//3 8//3 1//3
f 2//4 3//4 5//4
f 5//5 6//5 10//5
f 8//6 7//6 10//6
f 1//7 8//7 9//7
f 3//8 6//8 5//8
f 4//9 5//9 7//9
f 3//10 1//10 6//10
f 4//11 8//11 2//11
f 6//12 11//12 10//12
f 9//13 11//13 6//13
f 8//14 10//14 11//14
f 6//15 1//15 9//15
f 2//16 1//16 3//16
f 8//17 4//17 7//17
f 4//18 2//18 5//18
