# Blender 4.0.0
# www.blender.org
o decimated_mesh
v 0.429345 1.952225 0.279577
v 0.408431 1.956269 0.267597
v 0.425888 1.939964 0.284031
v 0.429750 1.951144 0.256135
v -0.409516 1.956090 0.267031
v -0.404456 1.952983 0.282376
v 0.477221 1.823066 0.285586
v 0.472834 1.877174 0.285129
v -0.472830 1.880485 0.285079
v -0.477865 1.823066 0.285510
v 0.466610 1.922921 0.280422
v 0.438789 1.949616 0.267480
v 0.466575 1.920955 0.256172
v -0.430625 1.950906 0.256402
v 0.477221 1.804976 0.281492
v 0.491051 1.808604 0.280705
v -0.466709 1.922967 0.280728
v -0.492089 1.807569 0.280820
v 0.489588 1.810564 0.254919
v -0.481578 1.831056 0.253759
v -0.468015 1.919251 0.256192
v -0.446033 1.944696 0.267573
v -0.433444 1.951490 0.278126
v 0.477221 1.799968 0.267572
v 0.491199 1.805993 0.267572
v 0.495644 1.824806 0.267744
v -0.477865 1.801078 0.267572
v 0.489300 1.875013 0.279888
v -0.490393 1.873583 0.279998
v -0.494111 1.808349 0.267323
v 0.467870 1.924490 0.267610
v 0.490245 1.876589 0.257814
v -0.490433 1.810401 0.256342
v -0.489523 1.875419 0.256571
v -0.469434 1.922500 0.267589
v -0.493142 1.871884 0.266573
vn -0.0014 -0.2885 0.9575
vn 0.0348 0.0044 0.9994
vn -0.0027 -0.8991 0.4377
vn 0.9079 0.3959 0.1377
vn 0.2137 0.9759 -0.0436
vn 0.2138 0.9761 -0.0389
vn 0.8608 0.4505 -0.2367
vn 0.9302 0.0290 0.3659
vn 0.1126 -0.2194 0.9691
vn 0.8998 0.0102 -0.4362
vn -0.2961 0.0075 -0.9551
vn 0.2018 0.2836 0.9375
vn 0.5865 0.7543 0.2952
vn 0.3520 0.0208 0.9358
vn 0.0001 0.9129 -0.4081
vn 0.6455 0.7479 0.1550
vn -0.8936 0.4151 0.1706
vn -0.0014 -0.1235 -0.9923
vn 0.1373 0.1198 0.9833
vn -0.4214 0.9034 -0.0790
vn -0.2125 0.9757 -0.0538
vn 0.2571 -0.9093 0.3271
vn 0.1470 0.0419 -0.9882
vn 0.9715 -0.2300 0.0567
vn 0.3891 -0.9027 0.1838
vn 0.5886 0.7175 -0.3724
vn -0.9488 0.0107 -0.3157
vn -0.4086 -0.9127 0.0085
vn 0.0019 0.9485 0.3168
vn -0.3329 0.0203 0.9427
vn -0.8799 0.4167 -0.2283
vn 0.3697 -0.8578 -0.3570
vn 0.9535 -0.2234 -0.2021
vn -0.5847 0.6934 -0.4210
vn -0.3868 -0.8744 -0.2929
vn -0.6835 0.7207 0.1162
vn 0.0008 0.7698 0.6382
vn -0.1532 0.2656 0.9518
vn -0.0001 -0.2208 0.9753
vn -0.0001 0.0133 0.9999
vn -0.0016 0.0250 0.9997
vn -0.0136 0.0073 0.9999
vn -0.0011 -0.9410 0.3385
vn 0.9019 0.4264 0.0691
vn -0.0807 0.1131 0.9903
vn -0.6606 0.6963 -0.2807
vn 0.9923 0.1132 0.0506
vn -0.3264 0.1427 0.9344
vn 0.0035 0.3406 0.9402
vn -0.1068 0.0438 -0.9933
vn 0.3071 0.0329 0.9511
vn -0.0004 0.8991 -0.4378
vn -0.8949 0.4273 0.1292
vn -0.0829 0.9711 0.2240
vn 0.6256 0.7226 -0.2941
vn -0.9418 0.0144 -0.3358
vn -0.6172 0.7433 0.2578
vn -0.0004 0.9801 0.1986
vn -0.2895 0.0326 0.9566
vn 0.3169 0.1396 0.9381
vn -0.8856 0.4331 -0.1675
vn 0.0009 0.7662 0.6425
vn -0.9887 0.0168 0.1490
vn -0.9800 0.0276 0.1972
vn -0.0204 0.0307 -0.9993
vn -0.0003 0.0222 -0.9998
vn 0.0124 0.0139 -0.9998
vn 0.0014 0.0092 -1.0000
vn 0.2125 0.9763 -0.0414
vn 0.2166 0.9754 -0.0412
vn -0.0014 0.0386 0.9993
vn -0.0000 0.0175 0.9998
vn 0.8955 0.4226 0.1398
vn 0.0008 0.7663 0.6425
vn -0.8896 0.4242 0.1695
vn -0.0001 0.0075 1.0000
vn -0.0000 0.0084 1.0000
vn 0.9092 0.4107 0.0683
vn 0.0009 0.7699 0.6381
vn -0.8905 0.4206 -0.1736
vn -0.8743 0.4270 -0.2306
vn -0.8988 0.4184 0.1311
s 0
f 15//1 10//1 18//1
f 6//2 9//2 10//2
f 27//3 15//3 18//3
f 11//4 32//4 31//4
f 2//5 1//5 12//5
f 2//6 12//6 4//6
f 32//7 13//7 31//7
f 28//8 16//8 26//8
f 7//9 15//9 16//9
f 26//10 19//10 32//10
f 20//11 33//11 34//11
f 3//12 11//12 1//12
f 1//13 11//13 12//13
f 28//14 7//14 16//14
f 4//15 5//15 2//15
f 11//16 31//16 12//16
f 36//17 17//17 35//17
f 20//18 19//18 33//18
f 3//19 8//19 11//19
f 14//20 22//20 23//20
f 14//21 23//21 5//21
f 15//22 24//22 16//22
f 19//23 13//23 32//23
f 16//24 25//24 26//24
f 16//25 24//25 25//25
f 12//26 13//26 4//26
f 36//27 33//27 30//27
f 18//28 30//28 27//28
f 2//29 6//29 1//29
f 10//30 29//30 18//30
f 21//31 36//31 35//31
f 24//32 19//32 25//32
f 25//33 19//33 26//33
f 21//34 22//34 14//34
f 27//35 30//35 33//35
f 17//36 22//36 35//36
f 19//37 33//37 27//37
f 23//38 17//38 6//38
f 15//39 7//39 10//39
f 10//40 7//40 3//40
f 6//41 10//41 3//41
f 8//42 3//42 7//42
f 27//43 24//43 15//43
f 11//44 28//44 32//44
f 9//45 6//45 17//45
f 35//46 22//46 21//46
f 26//47 32//47 28//47
f 29//48 9//48 17//48
f 3//49 1//49 6//49
f 20//50 34//50 21//50
f 28//51 8//51 7//51
f 4//52 14//52 5//52
f 36//53 29//53 17//53
f 5//54 23//54 6//54
f 12//55 31//55 13//55
f 36//56 34//56 33//56
f 17//57 23//57 22//57
f 2//58 5//58 6//58
f 10//59 9//59 29//59
f 28//60 11//60 8//60
f 21//61 34//61 36//61
f 19//62 27//62 24//62
f 36//63 30//63 18//63
f 29//64 36//64 18//64
f 20//65 21//65 14//65
f 14//66 4//66 20//66
f 4//67 13//67 19//67
f 19//68 20//68 4//68
f 1//69 4//69 2//69
f 12//70 4//70 1//70
f 9//71 3//71 6//71
f 9//72 8//72 3//72
f 28//73 31//73 11//73
f 24//74 19//74 33//74
f 35//75 29//75 17//75
f 10//76 7//76 9//76
f 7//77 8//77 9//77
f 32//78 31//78 28//78
f 27//79 24//79 33//79
f 36//80 35//80 34//80
f 35//81 21//81 34//81
f 36//82 29//82 35//82
