# Blender 4.0.0
# www.blender.org
o decimated_mesh
v 0.360299 0.753919 -0.141770
v 0.350253 0.760248 -0.155562
v 0.369925 0.759988 -0.171390
v 0.374951 0.755391 -0.150962
v 0.351382 0.757858 0.184736
v 0.382386 0.776413 -0.144745
v 0.373588 0.757133 0.199768
v 0.362963 0.759076 0.201088
v 0.380319 0.771072 0.183438
v 0.352878 0.779319 0.195734
v 0.351794 0.802236 -0.154179
v 0.369862 0.800445 -0.171357
v 0.375208 0.804921 -0.149426
v 0.379736 0.790872 0.185679
v 0.350111 0.800274 0.183266
v 0.372960 0.802517 0.200287
v 0.364560 0.801834 0.200450
v 0.360299 0.806006 0.170103
vn -0.2260 -0.9373 -0.2655
vn -0.1550 -0.9710 0.1821
vn 0.8999 -0.4362 -0.0014
vn 0.9274 -0.2443 -0.2832
vn -0.9835 -0.0233 0.1792
vn 0.8692 0.4945 0.0090
vn -0.4877 0.8730 0.0026
vn 0.9996 0.0287 0.0068
vn 0.9434 0.1933 -0.2694
vn -0.0773 0.9862 0.1464
vn -0.7839 -0.2390 0.5730
vn -0.1122 0.9936 -0.0086
vn -0.6269 -0.0003 -0.7791
vn 0.9054 0.0018 -0.4245
vn -0.6856 0.0491 -0.7263
vn 0.1033 -0.9946 0.0053
vn -0.9995 -0.0299 0.0031
vn 0.9095 0.0078 0.4156
vn -0.0345 -0.9768 -0.2113
vn 0.0182 0.0143 0.9997
vn -0.4222 0.0293 0.9060
vn -0.7502 0.2621 0.6071
vn -0.3052 0.9367 0.1716
vn 0.9423 -0.3348 0.0053
vn 0.9698 0.2437 -0.0029
vn -0.5288 -0.8487 -0.0042
vn 0.2473 0.9689 0.0083
vn -0.0401 -0.9991 0.0110
vn -0.9993 0.0368 -0.0048
vn 0.9288 -0.0146 0.3704
vn 0.1216 -0.0097 0.9925
vn -0.0755 0.9804 -0.1817
vn 0.9427 -0.3336 0.0005
vn 0.9031 -0.4295 0.0056
s 0
f 1//1 2//1 3//1
f 8//2 5//2 7//2
f 7//3 6//3 9//3
f 6//4 4//4 3//4
f 5//5 10//5 15//5
f 14//6 13//6 16//6
f 18//7 11//7 15//7
f 9//8 6//8 14//8
f 13//9 6//9 12//9
f 16//10 18//10 17//10
f 5//11 8//11 10//11
f 13//12 11//12 18//12
f 2//13 12//13 3//13
f 6//14 3//14 12//14
f 2//15 11//15 12//15
f 1//16 4//16 7//16
f 15//17 2//17 5//17
f 7//18 14//18 16//18
f 4//19 1//19 3//19
f 8//20 16//20 17//20
f 8//21 17//21 10//21
f 10//22 17//22 15//22
f 15//23 17//23 18//23
f 7//24 4//24 6//24
f 14//25 6//25 13//25
f 2//26 1//26 5//26
f 16//27 13//27 18//27
f 5//28 1//28 7//28
f 15//29 11//29 2//29
f 7//30 9//30 14//30
f 7//31 16//31 8//31
f 11//32 13//32 12//32
f 6//33 9//33 4//33
f 9//34 7//34 4//34
