# Blender 4.0.0
# www.blender.org
o Fridge_1_FridgeBodyMesh_daf6b078_5_collision_4
v 0.360301 0.497107 -0.141777
v 0.348740 0.504294 -0.141777
v 0.349347 0.505287 -0.155683
v 0.361455 0.502963 -0.161815
v 0.373077 0.503379 -0.161268
v 0.375693 0.500094 -0.141777
v 0.360301 0.497107 0.170075
v 0.346684 0.517024 -0.122286
v 0.346752 0.517024 -0.141777
v 0.348740 0.504294 0.170075
v 0.348685 0.517024 -0.157873
v 0.358279 0.517024 -0.167619
v 0.368715 0.506865 -0.171159
v 0.370323 0.506865 -0.171159
v 0.376110 0.517024 -0.161268
v 0.381338 0.517024 -0.141777
v 0.375693 0.500094 0.170075
v 0.374268 0.501708 0.189566
v 0.360301 0.499904 0.189566
v 0.349462 0.505472 0.189566
v 0.348499 0.534911 -0.122286
v 0.346684 0.517024 0.150584
v 0.348563 0.534854 -0.141777
v 0.349272 0.532119 -0.155829
v 0.346704 0.517024 0.170075
v 0.359948 0.538052 -0.163275
v 0.368677 0.530988 -0.171159
v 0.368023 0.517024 -0.171269
v 0.370465 0.517024 -0.171269
v 0.370323 0.530988 -0.171159
v 0.374183 0.537096 -0.163056
v 0.379971 0.536510 -0.141777
v 0.381338 0.517024 0.170075
v 0.378492 0.517024 0.189566
v 0.371910 0.504644 0.200589
v 0.360301 0.504988 0.200443
v 0.350307 0.506855 0.199567
v 0.348244 0.517024 0.189566
v 0.351545 0.544654 -0.122286
v 0.351545 0.544597 -0.141777
v 0.348499 0.534911 0.150584
v 0.348516 0.534895 0.170075
v 0.364206 0.548505 -0.157764
v 0.349337 0.531821 0.189566
v 0.372897 0.548505 -0.157764
v 0.374322 0.549625 -0.141777
v 0.379971 0.536510 0.170075
v 0.377470 0.536510 0.189566
v 0.372504 0.536510 0.200990
v 0.372843 0.517024 0.201209
v 0.360301 0.517024 0.201611
v 0.350161 0.517024 0.199676
v 0.350273 0.528099 0.199603
v 0.361292 0.549625 -0.141777
v 0.351545 0.544654 0.150584
v 0.351545 0.544638 0.170075
v 0.353465 0.541569 0.189566
v 0.374322 0.549625 0.170075
v 0.373247 0.548751 0.189566
v 0.371459 0.547332 0.200260
v 0.366767 0.547332 0.200260
v 0.360284 0.535363 0.200808
v 0.361292 0.549625 0.170075
v 0.363212 0.548751 0.189566
vn -0.5261 -0.8463 -0.0834
vn -0.3170 -0.9053 -0.2828
vn 0.0475 -0.9595 -0.2777
vn 0.1871 -0.9642 -0.1876
vn 0.1905 -0.9817 -0.0000
vn -0.5280 -0.8493 -0.0000
vn -0.9880 -0.1543 -0.0034
vn -0.9866 -0.1541 -0.0541
vn -0.9872 -0.1594 -0.0000
vn -0.9898 -0.0780 -0.1189
vn -0.7024 -0.1686 -0.6915
vn -0.5734 -0.3273 -0.7510
vn -0.4371 -0.6571 -0.6141
vn -0.0000 -0.9228 -0.3854
vn 0.0498 -0.9376 -0.3443
vn 0.9219 -0.2049 -0.3289
vn 0.9443 -0.2099 -0.2533
vn 0.9336 -0.3113 -0.1777
vn 0.9487 -0.3163 -0.0000
vn 0.1897 -0.9773 0.0948
vn 0.1269 -0.9819 0.1409
vn -0.4533 -0.8823 0.1266
vn -0.5267 -0.8471 0.0707
vn -0.9949 0.1009 -0.0035
vn -0.9949 0.1010 -0.0000
vn -0.9949 0.1011 -0.0036
vn -0.9925 0.1008 -0.0697
vn -0.9914 0.0547 -0.1191
vn -0.9864 -0.1577 0.0461
vn -0.9875 -0.1579 0.0010
vn -0.7073 0.1218 -0.6963
vn -0.6338 0.2044 -0.7460
vn -0.5561 0.2102 -0.8041
vn -0.3507 0.0238 -0.9362
vn -0.3506 -0.0340 -0.9359
vn -0.0000 -0.0108 -0.9999
vn 0.8707 -0.0175 -0.4915
vn 0.8708 0.0127 -0.4915
vn 0.8884 0.0446 -0.4569
vn 0.9631 0.0693 -0.2600
vn 0.9637 0.0676 -0.2585
vn 0.9975 0.0700 -0.0000
vn 0.9444 -0.3149 0.0951
vn 0.9290 -0.2562 0.2670
vn 0.1230 -0.9521 0.2799
vn 0.9546 -0.2632 0.1394
vn -0.0322 -0.9054 0.4233
vn -0.2020 -0.8872 0.4148
vn -0.4511 -0.8781 0.1595
vn -0.9897 -0.1043 0.0980
vn -0.9914 -0.1045 0.0783
vn -0.9544 0.2984 -0.0009
vn -0.9562 0.2927 -0.0040
vn -0.9544 0.2984 -0.0000
vn -0.9949 0.1009 0.0010
vn -0.9949 0.1010 0.0009
vn -0.9510 0.2911 -0.1046
vn -0.6979 0.5878 -0.4091
vn -0.6621 0.5424 -0.5171
vn -0.9942 0.0734 0.0786
vn -0.9932 0.1007 0.0577
vn -0.2849 0.5353 -0.7951
vn -0.0000 0.0078 -1.0000
vn -0.0000 0.6075 -0.7944
vn 0.7056 0.3621 -0.6091
vn 0.9423 0.2223 -0.2502
vn 0.9130 0.3932 -0.1089
vn 0.9184 0.3955 -0.0000
vn 0.9895 0.0694 0.1269
vn 0.9882 0.0518 0.1443
vn 0.9160 0.0480 0.3982
vn 0.8995 0.0206 0.4364
vn 0.8961 -0.0893 0.4347
vn 0.0320 -0.0524 0.9981
vn -0.0154 -0.0966 0.9952
vn -0.1047 -0.0961 0.9899
vn -0.1874 -0.0133 0.9822
vn -0.9824 -0.0161 0.1862
vn -0.9824 0.0112 0.1862
vn -0.9901 0.0731 0.1195
vn -0.4585 0.8887 -0.0026
vn -0.4544 0.8908 -0.0000
vn -0.4537 0.8794 -0.1444
vn -0.9549 0.2969 0.0011
vn -0.9544 0.2984 0.0002
vn -0.9513 0.2958 0.0867
vn -0.0000 0.9976 -0.0699
vn -0.8973 0.3800 0.2246
vn -0.9103 0.3856 0.1504
vn -0.0000 1.0000 -0.0000
vn 0.9163 0.3946 0.0683
vn 0.9384 0.3238 0.1204
vn 0.9267 0.3197 0.1974
vn 0.9110 0.1147 0.3961
vn -0.0000 0.0673 0.9977
vn -0.0202 0.0566 0.9982
vn -0.0190 0.0437 0.9989
vn 0.0320 0.0118 0.9994
vn -0.1501 0.0431 0.9877
vn -0.1874 0.0084 0.9822
vn -0.2414 0.1744 0.9546
vn -0.6560 0.5447 0.5224
vn -0.4555 0.8902 0.0007
vn -0.5833 0.7916 0.1821
vn -0.4539 0.8870 0.0845
vn -0.5676 0.7702 0.2909
vn -0.0000 0.9990 0.0448
vn -0.0000 0.9913 0.1315
s 0
f 1//1 2//1 3//1
f 1//2 3//2 4//2
f 1//3 4//3 5//3
f 1//4 5//4 6//4
f 1//5 6//5 17//5
f 1//5 17//5 7//5
f 1//6 7//6 10//6
f 1//6 10//6 2//6
f 2//7 8//7 9//7
f 2//8 9//8 3//8
f 2//9 10//9 22//9
f 2//9 22//9 8//9
f 3//10 9//10 11//10
f 3//11 11//11 12//11
f 3//12 12//12 13//12
f 3//13 13//13 4//13
f 4//14 13//14 14//14
f 4//15 14//15 5//15
f 5//16 14//16 15//16
f 5//17 15//17 16//17
f 5//18 16//18 6//18
f 6//19 16//19 33//19
f 6//19 33//19 17//19
f 7//20 17//20 18//20
f 7//21 18//21 19//21
f 7//22 19//22 20//22
f 7//23 20//23 10//23
f 8//24 21//24 9//24
f 8//25 22//25 41//25
f 8//25 41//25 21//25
f 9//26 21//26 23//26
f 9//27 23//27 24//27
f 9//28 24//28 11//28
f 10//29 20//29 25//29
f 10//30 25//30 22//30
f 11//31 24//31 12//31
f 12//32 24//32 26//32
f 12//33 26//33 27//33
f 12//34 27//34 28//34
f 12//35 28//35 13//35
f 13//36 28//36 29//36
f 13//36 29//36 14//36
f 14//37 29//37 15//37
f 15//38 29//38 30//38
f 15//39 30//39 31//39
f 15//40 31//40 32//40
f 15//41 32//41 16//41
f 16//42 32//42 47//42
f 16//42 47//42 33//42
f 17//43 33//43 18//43
f 18//44 34//44 35//44
f 18//45 35//45 19//45
f 18//46 33//46 34//46
f 19//47 35//47 36//47
f 19//48 36//48 37//48
f 19//49 37//49 20//49
f 20//50 37//50 38//50
f 20//51 38//51 25//51
f 21//52 39//52 40//52
f 21//53 40//53 23//53
f 21//54 41//54 55//54
f 21//54 55//54 39//54
f 22//55 25//55 42//55
f 22//56 42//56 41//56
f 23//57 40//57 24//57
f 24//58 40//58 43//58
f 24//59 43//59 26//59
f 25//60 38//60 44//60
f 25//61 44//61 42//61
f 26//62 43//62 27//62
f 27//63 30//63 29//63
f 27//63 29//63 28//63
f 27//64 43//64 45//64
f 27//64 45//64 30//64
f 30//65 45//65 31//65
f 31//66 45//66 32//66
f 32//67 45//67 46//67
f 32//68 46//68 58//68
f 32//68 58//68 47//68
f 33//69 47//69 48//69
f 33//70 48//70 34//70
f 34//71 48//71 49//71
f 34//72 49//72 50//72
f 34//73 50//73 35//73
f 35//74 50//74 51//74
f 35//75 51//75 36//75
f 36//76 51//76 37//76
f 37//77 51//77 52//77
f 37//78 52//78 38//78
f 38//79 52//79 53//79
f 38//80 53//80 44//80
f 39//81 54//81 40//81
f 39//82 55//82 63//82
f 39//82 63//82 54//82
f 40//83 54//83 43//83
f 41//84 42//84 56//84
f 41//85 56//85 55//85
f 42//86 44//86 56//86
f 43//87 54//87 46//87
f 43//87 46//87 45//87
f 44//88 53//88 57//88
f 44//89 57//89 56//89
f 46//90 54//90 63//90
f 46//90 63//90 58//90
f 47//91 58//91 59//91
f 47//92 59//92 48//92
f 48//93 59//93 60//93
f 48//94 60//94 49//94
f 49//95 60//95 61//95
f 49//96 61//96 62//96
f 49//97 62//97 51//97
f 49//98 51//98 50//98
f 51//99 62//99 53//99
f 51//100 53//100 52//100
f 53//101 62//101 61//101
f 53//102 61//102 57//102
f 55//103 56//103 63//103
f 56//104 57//104 64//104
f 56//105 64//105 63//105
f 57//106 61//106 64//106
f 58//107 63//107 64//107
f 58//107 64//107 59//107
f 59//108 64//108 61//108
f 59//108 61//108 60//108
