# Blender 4.0.0
# www.blender.org
o decimated_mesh
v 0.960712 -0.298523 0.007836
v 0.958330 -0.298523 0.000244
v 0.958415 -0.298525 0.015043
v 0.956680 -0.306434 0.013948
v 0.956589 -0.306268 0.001866
v 0.947255 -0.298573 -0.007056
v 0.956347 -0.307915 0.007828
v 0.937828 -0.316900 0.014723
v 0.946236 -0.315290 0.013147
v 0.946770 -0.314770 0.002488
v 0.944771 -0.303838 -0.007146
v 0.915229 -0.326630 0.014621
v 0.919210 -0.326514 0.007836
v 0.915648 -0.326469 0.001329
v 0.915472 -0.315949 -0.007395
v 0.283050 -0.305056 0.012920
v 0.027038 -0.298504 0.005151
v 0.069652 -0.309695 -0.013904
v 0.038181 -0.298531 -0.013271
v 0.030632 -0.307560 0.005376
v 0.301090 -0.325194 0.012873
v 0.077722 -0.327276 -0.002199
v 0.077722 -0.320115 -0.011194
v 0.077722 -0.326844 0.006214
v 0.908937 -0.328337 0.008158
v 0.047672 -0.317139 0.005882
v 0.024761 -0.298526 -0.000855
v 0.030266 -0.308027 -0.002199
v 0.040893 -0.315806 0.004317
v 0.062871 -0.325533 0.003418
v 0.071740 -0.325686 -0.007536
v 0.063137 -0.319933 -0.009774
v 0.031871 -0.306682 -0.008725
v 0.029142 -0.298538 -0.009614
v 0.039141 -0.314599 -0.002484
v 0.042817 -0.315007 -0.006987
vn 0.9241 -0.2434 0.2945
vn 0.9056 -0.4209 0.0526
vn 0.9195 -0.2671 -0.2885
vn -0.0958 -0.3194 -0.9428
vn 0.6372 -0.7491 -0.1811
vn 0.2382 -0.3624 0.9011
vn 0.5858 -0.8104 -0.0102
vn 0.4316 -0.5507 -0.7144
vn 0.2570 -0.6048 0.7538
vn 0.3452 -0.9197 0.1869
vn 0.3513 -0.9149 -0.1987
vn 0.1312 -0.1640 0.9777
vn 0.9040 -0.4200 -0.0794
vn 0.1766 -0.9804 0.0869
vn 0.1707 -0.9802 -0.1003
vn -0.0973 -0.9939 0.0510
vn -0.4060 -0.9121 -0.0573
vn -0.8448 -0.3291 -0.4220
vn -0.2327 -0.4823 -0.8445
vn 0.5283 -0.2861 -0.7994
vn -0.0018 1.0000 -0.0026
vn 0.3877 -0.9214 -0.0255
vn -0.0023 -0.9663 0.2574
vn -0.8788 -0.3405 0.3343
vn -0.8585 -0.5076 0.0728
vn -0.2847 -0.4622 0.8398
vn -0.2567 -0.6589 -0.7071
vn -0.2880 -0.7100 0.6426
vn -0.6249 -0.7804 0.0225
vn -0.3640 -0.9062 -0.2151
vn -0.1993 -0.5905 0.7820
vn -0.5742 -0.7624 -0.2983
vn -0.8434 -0.4462 -0.2993
vn 0.0056 -0.2477 -0.9688
vn -0.5275 -0.7690 -0.3610
vn 0.0058 -0.0239 0.9997
vn -0.1854 -0.3652 -0.9123
vn -0.1259 -0.3012 -0.9452
vn 0.0068 0.0758 -0.9971
vn 0.0018 0.0162 -0.9999
vn 0.0077 0.0053 -1.0000
vn -0.0019 -0.9987 0.0513
vn -0.3656 -0.2212 -0.9041
vn 0.6328 -0.7598 0.1494
vn 0.0075 -0.6383 -0.7698
vn -0.1584 -0.9807 -0.1146
vn 0.5546 -0.2482 -0.7942
vn -0.0911 -0.4763 -0.8745
vn 0.0065 -0.5537 -0.8327
vn -0.0025 1.0000 -0.0027
vn -0.0000 -1.0000 0.0014
vn 0.0004 -1.0000 -0.0001
vn 0.0046 -1.0000 -0.0002
vn -0.0001 -1.0000 0.0022
vn -0.0032 -0.9407 0.3393
vn 0.0019 -0.9650 -0.2621
vn 0.0024 -0.9577 -0.2879
vn 0.0084 -0.6108 -0.7917
vn -0.5917 -0.8024 0.0781
vn -0.3387 -0.9038 -0.2616
vn 0.2586 -0.6141 -0.7457
vn 0.2591 -0.6115 -0.7476
vn -0.0308 -0.0176 0.9994
vn 0.0025 0.0419 0.9991
vn -0.0030 -0.0103 0.9999
vn -0.0029 -0.0049 1.0000
vn -0.0202 0.0168 0.9997
vn -0.0296 -0.0289 0.9991
vn -0.0300 0.0129 0.9995
vn -0.0000 -1.0000 -0.0003
vn -0.0000 -1.0000 -0.0000
vn -0.0000 -1.0000 0.0015
vn -0.0001 -1.0000 0.0069
vn -0.6196 -0.7810 0.0781
vn -0.0299 -0.0004 0.9996
vn -0.0031 -0.0051 1.0000
vn -0.0284 -0.0279 0.9992
vn -0.0029 -0.0106 0.9999
vn 0.5428 -0.2872 -0.7892
vn 0.5352 -0.2387 -0.8103
vn 0.0076 0.0135 -0.9999
vn 0.0077 0.0019 -1.0000
vn -0.5949 -0.8037 0.0106
vn -0.0293 -0.0566 0.9980
vn 0.0021 -0.9577 -0.2877
vn 0.0020 -0.9651 -0.2620
s 0
f 1//1 3//1 4//1
f 4//2 7//2 1//2
f 1//3 5//3 2//3
f 18//4 23//4 32//4
f 5//5 7//5 10//5
f 4//6 8//6 9//6
f 9//7 10//7 7//7
f 5//8 10//8 11//8
f 8//9 12//9 9//9
f 9//10 12//10 13//10
f 10//11 13//11 14//11
f 3//12 8//12 4//12
f 1//13 7//13 5//13
f 12//14 25//14 13//14
f 13//15 25//15 14//15
f 22//16 24//16 30//16
f 30//17 29//17 35//17
f 27//18 34//18 33//18
f 32//19 36//19 33//19
f 5//20 6//20 2//20
f 17//21 19//21 34//21
f 10//22 9//22 13//22
f 12//23 24//23 25//23
f 20//24 17//24 27//24
f 20//25 27//25 28//25
f 20//26 29//26 26//26
f 32//27 31//27 36//27
f 30//28 26//28 29//28
f 20//29 35//29 29//29
f 35//30 36//30 30//30
f 24//31 26//31 30//31
f 28//32 33//32 35//32
f 28//33 27//33 33//33
f 23//34 18//34 15//34
f 33//35 36//35 35//35
f 12//36 8//36 3//36
f 32//37 33//37 19//37
f 18//38 32//38 19//38
f 19//39 6//39 18//39
f 6//40 11//40 15//40
f 15//41 18//41 6//41
f 25//42 24//42 22//42
f 33//43 34//43 19//43
f 4//44 9//44 7//44
f 31//45 15//45 14//45
f 31//46 22//46 30//46
f 5//47 11//47 6//47
f 31//48 32//48 23//48
f 23//49 15//49 31//49
f 34//50 27//50 17//50
f 17//51 19//51 3//51
f 1//52 3//52 2//52
f 2//53 3//53 6//53
f 6//54 3//54 19//54
f 24//55 12//55 21//55
f 31//56 14//56 25//56
f 22//57 31//57 25//57
f 16//58 17//58 3//58
f 28//59 35//59 20//59
f 36//60 31//60 30//60
f 10//61 14//61 15//61
f 15//62 11//62 10//62
f 16//63 17//63 24//63
f 24//64 17//64 26//64
f 3//65 16//65 12//65
f 16//66 21//66 12//66
f 20//67 26//67 17//67
f 24//68 21//68 16//68
f 20//69 16//69 17//69
f 3//70 17//70 1//70
f 1//71 17//71 2//71
f 2//72 17//72 19//72
f 2//73 19//73 6//73
f 28//74 29//74 20//74
f 26//75 16//75 20//75
f 21//76 3//76 16//76
f 26//77 21//77 16//77
f 21//78 12//78 3//78
f 5//79 11//79 2//79
f 11//80 6//80 2//80
f 11//81 18//81 6//81
f 11//82 15//82 18//82
f 35//83 29//83 28//83
f 24//84 21//84 26//84
f 14//85 22//85 31//85
f 22//86 14//86 25//86
