# Blender 4.0.0
# www.blender.org
o decimated_mesh
v 0.167941 -0.129423 -0.023597
v 0.167941 -0.119401 -0.022787
v 0.820202 -0.135138 -0.018166
v 0.167942 -0.144838 -0.018314
v 0.820202 -0.145067 -0.008611
v 0.353544 -0.144486 -0.017246
v 0.167941 -0.112307 -0.019612
v 0.820202 -0.113785 -0.017143
v 0.820202 -0.109411 -0.002199
v 0.167941 -0.109891 -0.012236
v 0.820201 -0.111809 0.007518
v 0.820201 -0.145083 0.004223
v 0.820202 -0.116741 0.012701
v 0.167940 -0.144190 0.003544
v 0.167941 -0.110131 -0.002379
v 0.167941 -0.112599 0.004954
v 0.167941 -0.119401 0.008064
v 0.820202 -0.135149 0.013133
v 0.167941 -0.129431 0.008970
vn 1.0000 -0.0000 -0.0000
vn 0.0125 -0.6934 -0.7205
vn -0.0082 0.4157 0.9095
vn -0.0062 0.0235 0.9997
vn -0.0074 0.0900 0.9959
vn -0.0017 -0.6677 0.7444
vn 0.0079 0.0805 -0.9967
vn -0.0090 -0.3450 0.9386
vn -0.0011 0.9709 0.2396
vn 0.0036 0.9597 -0.2809
vn 0.0032 -0.9709 -0.2397
vn -0.0036 0.7245 0.6893
vn 1.0000 0.0003 0.0002
vn 1.0000 -0.0000 -0.0001
vn 1.0000 -0.0000 0.0001
vn 0.0050 -0.3242 -0.9460
vn -1.0000 0.0001 -0.0001
vn 1.0000 0.0001 -0.0000
vn 0.0060 -0.3922 -0.9199
vn 0.0087 0.0479 -0.9988
vn -0.0024 0.9478 0.3189
vn 0.0033 0.9503 -0.3112
vn -0.0011 0.9997 0.0243
vn 0.0044 0.4085 -0.9128
vn -0.0014 -0.9996 0.0296
vn -0.0003 -1.0000 -0.0012
s 0
f 3//1 9//1 13//1
f 3//2 5//2 6//2
f 16//3 17//3 13//3
f 19//4 18//4 13//4
f 13//5 17//5 19//5
f 19//1 1//1 15//1
f 12//6 18//6 14//6
f 8//7 1//7 2//7
f 19//8 14//8 18//8
f 9//9 15//9 11//9
f 10//10 9//10 8//10
f 6//11 5//11 4//11
f 11//12 16//12 13//12
f 8//1 9//1 3//1
f 9//13 11//13 13//13
f 13//14 18//14 12//14
f 3//1 13//1 12//1
f 3//15 12//15 5//15
f 1//16 3//16 4//16
f 14//17 19//17 4//17
f 19//1 15//1 17//1
f 17//1 15//1 16//1
f 15//1 2//1 10//1
f 10//1 2//1 7//1
f 2//1 15//1 1//1
f 1//18 19//18 4//18
f 4//19 3//19 6//19
f 3//20 1//20 8//20
f 16//21 11//21 15//21
f 8//22 7//22 10//22
f 15//23 9//23 10//23
f 2//24 7//24 8//24
f 12//25 14//25 4//25
f 4//26 5//26 12//26
f 4//1 17//1 19//1
f 4//1 16//1 17//1
f 4//1 15//1 16//1
f 4//1 10//1 15//1
f 4//1 7//1 10//1
f 4//14 2//14 7//14
f 4//14 1//14 2//14
f 9//1 13//1 18//1
f 9//14 18//14 12//14
f 9//15 12//15 5//15
f 9//1 5//1 3//1
