# Blender 4.0.0
# www.blender.org
o decimated_mesh
v 0.159005 -0.129434 0.098153
v 0.167941 -0.144698 0.002269
v 0.155332 -0.113436 0.104195
v 0.155719 -0.129434 0.105747
v 0.153307 -0.144439 0.103375
v 0.168283 -0.109748 -0.009991
v 0.147968 -0.119398 0.107846
v 0.147863 -0.132166 0.108382
v 0.144826 -0.109745 0.096304
v 0.144613 -0.112474 0.105195
v 0.137931 -0.129434 0.107729
v 0.137931 -0.119398 0.106939
v 0.142153 -0.144392 0.103764
v 0.131630 -0.113839 0.103462
v 0.131304 -0.136335 0.104397
v 0.135715 -0.143612 0.096431
v 0.140756 -0.144370 -0.018016
v 0.129538 -0.129434 0.098153
v 0.131448 -0.135918 -0.018546
v 0.140741 -0.110515 -0.012665
v 0.142348 -0.112443 -0.019477
v 0.140203 -0.129305 -0.023023
v 0.130081 -0.129434 -0.012233
v 0.167951 -0.144808 -0.018110
v 0.167939 -0.113077 -0.020608
v 0.140779 -0.119888 -0.022476
v 0.132119 -0.114030 -0.017820
v 0.167937 -0.129434 -0.023598
vn 0.8981 -0.2058 0.3887
vn 0.0197 -0.9998 0.0054
vn 0.9409 -0.3097 0.1370
vn 0.4502 -0.0434 0.8919
vn 0.3742 -0.2032 0.9048
vn -0.0315 0.3791 -0.9248
vn -0.8565 -0.5162 -0.0028
vn -0.4529 0.0436 0.8905
vn 0.1209 0.4055 0.9061
vn 0.1126 0.9491 0.2941
vn 0.3061 0.0374 0.9513
vn -0.1649 -0.2959 0.9409
vn -0.1380 0.9477 0.2877
vn -0.1617 0.3849 0.9087
vn -0.5344 -0.7502 0.3893
vn -0.3760 0.9266 -0.0030
vn -0.9794 -0.2017 -0.0048
vn 0.0309 -0.3658 0.9302
vn -0.0539 0.0423 0.9976
vn 0.2880 0.9555 0.0635
vn -0.0204 0.0592 -0.9980
vn 0.9915 -0.1297 0.0042
vn -0.0273 0.9996 -0.0060
vn 0.9999 -0.0124 -0.0074
vn -0.2331 -0.3144 -0.9202
vn -0.0120 -0.9629 0.2696
vn -0.0161 -0.9999 0.0011
vn -0.2069 0.4027 -0.8916
vn -0.0211 -0.3160 -0.9485
vn 0.9767 0.1802 0.1166
vn 0.5015 -0.0807 0.8614
vn -0.6712 -0.7408 -0.0247
vn -0.5037 0.0678 0.8612
vn -0.9540 0.0262 0.2988
vn 0.3769 0.0984 0.9210
vn -0.2942 0.9557 0.0043
vn -0.9683 -0.2496 -0.0020
vn -0.0897 0.0782 0.9929
vn 0.0226 0.1798 -0.9834
vn 0.9909 -0.1346 0.0049
vn -0.1422 -0.2909 0.9461
vn 0.9994 0.0062 -0.0343
vn 1.0000 0.0011 0.0005
vn -0.1216 -0.9926 0.0012
vn -0.0853 0.3200 0.9436
vn -0.9679 0.0379 -0.2485
vn -0.0025 -0.9542 0.2993
vn 0.9161 0.0606 0.3964
vn -0.0043 -1.0000 -0.0001
vn -0.0087 -0.3361 -0.9418
vn 0.9958 0.0216 0.0894
vn -0.1946 0.9309 -0.3093
vn 1.0000 -0.0096 0.0006
vn 0.9998 -0.0054 -0.0176
vn -0.0104 -0.9540 0.2995
vn 0.0004 -0.9622 0.2723
vn -0.0042 -1.0000 0.0025
vn -0.0161 -0.9999 -0.0000
vn 0.4303 -0.0786 0.8992
vn 0.4809 -0.0438 0.8757
vn 0.9916 -0.1294 0.0049
vn 0.9909 -0.1343 0.0042
vn -0.4845 0.0433 0.8737
vn -0.4333 0.0708 0.8985
s 0
f 1//1 4//1 5//1
f 5//2 24//2 2//2
f 1//3 5//3 2//3
f 26//4 27//4 19//4
f 4//5 8//5 5//5
f 21//6 25//6 26//6
f 19//7 16//7 15//7
f 15//8 12//8 14//8
f 3//9 10//9 7//9
f 3//10 9//10 10//10
f 4//11 7//11 8//11
f 11//12 15//12 13//12
f 10//13 9//13 14//13
f 10//14 14//14 12//14
f 13//15 15//15 16//15
f 14//16 20//16 27//16
f 19//17 18//17 23//17
f 8//18 13//18 5//18
f 7//19 11//19 8//19
f 9//20 3//20 6//20
f 26//21 28//21 22//21
f 23//22 27//22 14//22
f 6//23 20//23 9//23
f 28//24 6//24 2//24
f 19//25 22//25 17//25
f 20//26 21//26 25//26
f 24//27 5//27 17//27
f 21//28 26//28 27//28
f 17//29 22//29 28//29
f 1//30 6//30 3//30
f 26//31 19//31 22//31
f 19//32 17//32 16//32
f 15//33 11//33 12//33
f 18//34 15//34 14//34
f 4//35 3//35 7//35
f 14//36 9//36 20//36
f 19//37 15//37 18//37
f 7//38 12//38 11//38
f 26//39 25//39 28//39
f 23//40 14//40 18//40
f 11//41 13//41 8//41
f 25//42 6//42 28//42
f 2//43 24//43 28//43
f 16//44 17//44 13//44
f 12//45 7//45 10//45
f 19//46 23//46 27//46
f 20//47 25//47 6//47
f 4//48 1//48 3//48
f 5//49 13//49 17//49
f 28//50 24//50 17//50
f 1//51 2//51 6//51
f 21//52 27//52 20//52
f 2//53 24//53 6//53
f 24//54 28//54 6//54
f 25//55 6//55 21//55
f 21//56 6//56 20//56
f 5//57 13//57 24//57
f 13//58 17//58 24//58
f 26//59 27//59 22//59
f 22//60 27//60 19//60
f 23//61 27//61 18//61
f 18//62 27//62 14//62
f 15//63 11//63 14//63
f 11//64 12//64 14//64
