# Blender 4.0.0
# www.blender.org
o decimated_mesh
v 0.013605 0.066933 -0.002200
v 0.018588 0.066933 -0.010595
v 0.017537 0.066933 0.005902
v 0.027566 0.066933 0.008792
v 0.027543 0.066933 -0.014130
v 0.027538 -0.244437 -0.014103
v 0.018603 -0.244438 -0.010606
v 0.013683 -0.244438 -0.002203
v 0.017596 -0.244437 0.005869
v 0.043012 0.066932 0.004262
v 0.039730 0.066933 -0.008237
v 0.027156 -0.244420 0.008316
v 0.043036 -0.244451 0.004804
v 0.037470 -0.244438 -0.010431
v 0.042649 -0.244438 -0.003578
vn -0.0000 1.0000 -0.0000
vn 0.2159 -0.0018 0.9764
vn 0.9672 0.0053 -0.2540
vn 0.0003 -1.0000 0.0008
vn 0.7977 -0.0015 -0.6030
vn 0.9989 -0.0000 -0.0462
vn 0.8630 -0.0000 0.5052
vn 0.2814 0.0017 0.9596
vn -0.2769 -0.0002 0.9609
vn -0.2480 -0.0012 0.9687
vn 0.8997 0.0002 -0.4366
vn 0.8998 0.0002 -0.4362
vn -0.0003 -1.0000 0.0008
vn 0.0022 -1.0000 -0.0017
vn -0.0020 -1.0000 -0.0001
vn 0.0021 -1.0000 -0.0010
vn 0.0009 -1.0000 0.0005
vn -0.3672 -0.0000 -0.9301
vn -0.3645 -0.0001 -0.9312
vn 0.4353 0.0032 -0.9003
vn 0.3468 -0.0001 -0.9379
vn 0.8599 0.0002 0.5105
vn 0.8599 -0.0000 0.5105
vn 0.8630 0.0002 0.5052
vn -0.0002 -1.0000 -0.0006
vn -0.0004 -1.0000 -0.0002
vn -0.0005 -1.0000 0.0003
vn -0.0002 -1.0000 0.0079
vn 0.0004 -1.0000 -0.0010
s 0
f 4//1 2//1 3//1
f 4//2 12//2 13//2
f 15//3 11//3 10//3
f 7//4 6//4 12//4
f 14//5 11//5 15//5
f 10//6 13//6 15//6
f 8//7 7//7 2//7
f 4//1 10//1 11//1
f 11//1 5//1 4//1
f 5//1 2//1 4//1
f 2//1 1//1 3//1
f 13//8 10//8 4//8
f 3//9 9//9 4//9
f 12//10 4//10 9//10
f 1//11 3//11 8//11
f 9//12 8//12 3//12
f 6//13 14//13 12//13
f 14//14 15//14 13//14
f 13//15 12//15 14//15
f 12//16 9//16 8//16
f 8//17 7//17 12//17
f 7//18 2//18 5//18
f 5//19 6//19 7//19
f 11//20 14//20 5//20
f 5//21 14//21 6//21
f 8//22 2//22 1//22
f 3//1 11//1 1//1
f 11//1 2//1 1//1
f 2//23 1//23 7//23
f 7//24 1//24 8//24
f 8//12 1//12 9//12
f 9//11 1//11 3//11
f 4//1 11//1 3//1
f 5//1 2//1 11//1
f 6//25 13//25 7//25
f 13//26 8//26 7//26
f 13//27 9//27 8//27
f 13//28 12//28 9//28
f 13//29 6//29 14//29
