# Blender 4.0.0
# www.blender.org
o decimated_mesh
v 0.923534 0.201691 0.007366
v 0.930192 0.201691 0.015271
v 0.943543 -0.249818 0.000114
v 0.941018 -0.249818 0.007834
v 0.943285 -0.249818 0.015398
v 0.930606 0.201690 -0.001450
v 0.956670 -0.249821 -0.007688
v 0.968566 0.186901 0.015545
v 0.965994 0.201256 0.013736
v 0.941757 0.201689 -0.007089
v 0.968726 -0.249818 0.015403
v 0.971036 0.188045 0.007816
v 0.971642 -0.249818 0.007794
v 0.968634 0.186646 -0.000441
v 0.966271 0.201544 0.002737
v 0.954998 0.201370 -0.007240
v 0.968792 -0.249818 -0.000794
vn -0.9573 -0.0368 0.2869
vn -0.7647 -0.0220 0.6441
vn -0.7798 -0.0245 -0.6255
vn -0.5108 -0.0176 -0.8595
vn -0.0378 0.9990 0.0252
vn 0.4484 0.0025 -0.8938
vn 0.0441 0.1326 0.9902
vn 0.9280 0.2125 -0.3060
vn 0.9386 0.3436 0.0327
vn 0.9491 0.0006 -0.3149
vn -0.9498 -0.0371 -0.3107
vn -0.4512 -0.0137 -0.8923
vn 0.9228 0.2064 0.3254
vn -0.0114 0.0010 -0.9999
vn 0.0003 -1.0000 -0.0000
vn -0.0000 -1.0000 -0.0000
vn -0.0000 -1.0000 0.0001
vn -0.0003 -1.0000 -0.0000
vn -0.0000 1.0000 -0.0001
vn 0.0001 1.0000 -0.0001
vn 0.0124 0.9999 0.0063
vn 0.0241 0.9997 -0.0072
vn 0.4944 0.0009 -0.8693
vn 0.6384 0.2561 -0.7258
vn 0.9601 0.0013 -0.2795
vn -0.0071 0.0001 1.0000
vn -0.0002 -0.0003 1.0000
vn 0.9525 0.0013 0.3046
vn 0.9338 0.0002 0.3579
vn 0.0001 1.0000 -0.0000
vn -0.0000 1.0000 -0.0002
vn 0.0049 1.0000 0.0025
vn 0.0133 0.9996 0.0265
vn 0.0236 0.9987 -0.0442
vn -0.0003 -1.0000 -0.0001
vn -0.0002 -1.0000 0.0001
vn 0.0003 -1.0000 -0.0001
vn 0.0002 -1.0000 0.0001
s 0
f 1//1 4//1 5//1
f 1//2 5//2 2//2
f 1//3 6//3 3//3
f 3//4 6//4 7//4
f 16//5 9//5 15//5
f 14//6 7//6 16//6
f 8//7 9//7 2//7
f 12//8 14//8 15//8
f 12//9 15//9 9//9
f 14//10 13//10 17//10
f 4//11 1//11 3//11
f 10//12 7//12 6//12
f 8//13 12//13 9//13
f 10//14 16//14 7//14
f 7//15 17//15 11//15
f 17//16 13//16 11//16
f 11//17 5//17 7//17
f 5//16 4//16 3//16
f 3//18 7//18 5//18
f 10//19 6//19 2//19
f 6//20 1//20 2//20
f 2//21 9//21 10//21
f 16//22 10//22 9//22
f 14//23 17//23 7//23
f 14//24 16//24 15//24
f 14//25 12//25 13//25
f 2//26 5//26 8//26
f 11//27 8//27 5//27
f 13//28 12//28 8//28
f 8//29 11//29 13//29
f 2//30 10//30 1//30
f 10//31 6//31 1//31
f 15//32 10//32 2//32
f 9//33 15//33 2//33
f 15//34 16//34 10//34
f 7//35 4//35 3//35
f 7//36 5//36 4//36
f 17//37 13//37 7//37
f 13//38 11//38 7//38
