# Blender 4.0.0
# www.blender.org
o decimated_mesh
v 0.167921 0.066402 0.000597
v 0.159452 0.046717 0.097305
v 0.155252 0.059519 0.104591
v 0.155819 0.046814 0.105879
v 0.168254 0.031162 -0.010082
v 0.153112 0.066350 0.094898
v 0.147969 0.061118 0.105912
v 0.147969 0.051212 0.108646
v 0.147969 0.066133 0.101869
v 0.154615 0.034625 0.104216
v 0.147969 0.041178 0.107985
v 0.131778 0.058769 0.104830
v 0.139511 0.046566 0.108430
v 0.137859 0.065754 0.097205
v 0.144608 0.034002 0.105318
v 0.147369 0.031517 0.097363
v 0.132164 0.034907 0.103747
v 0.141345 0.031941 -0.012659
v 0.129062 0.047598 0.096440
v 0.142038 0.034152 -0.019597
v 0.167901 0.034753 -0.020729
v 0.167902 0.066039 -0.018019
v 0.141689 0.066305 -0.017867
v 0.131020 0.057268 -0.018221
v 0.140226 0.041657 -0.022491
v 0.140313 0.051169 -0.023002
v 0.131966 0.035568 -0.017831
v 0.167901 0.051212 -0.023562
vn 0.9999 0.0120 -0.0083
vn -0.0089 0.9530 0.3029
vn 0.0204 -0.1695 -0.9853
vn 0.9181 0.0803 0.3881
vn 0.8729 0.4683 0.1373
vn 0.2271 0.2591 0.9388
vn 0.3847 0.1101 0.9165
vn 0.5244 0.7462 0.4101
vn 0.2687 0.6045 0.7499
vn -0.0287 -0.9996 -0.0023
vn 0.9107 -0.1428 0.3875
vn 0.3620 -0.1610 0.9182
vn -0.0385 0.9993 0.0035
vn -0.1416 0.6212 0.7707
vn -0.0322 -0.3663 -0.9299
vn -0.2717 0.8077 0.5233
vn 0.1248 -0.3966 0.9095
vn 0.0945 -0.9404 0.3266
vn 0.4706 0.0364 0.8816
vn -0.1406 -0.2914 0.9462
vn -0.7560 0.6546 -0.0033
vn -0.9722 0.2340 0.0031
vn -0.1025 0.2647 0.9589
vn -0.0019 0.3502 -0.9367
vn -0.4821 -0.0475 0.8748
vn -0.1861 -0.9306 -0.3153
vn -0.2123 -0.3958 -0.8935
vn 0.0106 -0.0657 0.9978
vn 0.3003 -0.0627 0.9518
vn -0.2505 0.3314 -0.9096
vn 0.9994 -0.0060 -0.0352
vn 1.0000 0.0003 -0.0010
vn -0.0032 0.9475 0.3196
vn -0.0202 -0.0535 -0.9984
vn -0.0387 0.9992 0.0026
vn -0.0037 1.0000 -0.0000
vn 0.0100 0.9998 -0.0195
vn -0.3585 -0.9335 -0.0045
vn 0.9617 0.2398 0.1330
vn 0.4792 0.0428 0.8767
vn 0.9963 -0.0160 0.0840
vn -0.9988 -0.0439 -0.0208
vn -0.6458 0.7633 -0.0178
vn -0.1030 -0.9590 0.2638
vn -0.2144 -0.9767 0.0080
vn -0.9382 -0.0308 0.3447
vn -0.1351 0.2006 0.9703
vn -0.0197 0.3228 -0.9463
vn 0.9436 -0.3078 0.1219
vn 0.3376 -0.9388 0.0687
vn -0.9714 -0.2373 0.0003
vn -0.1345 -0.2893 0.9477
vn -0.0015 0.9528 0.3036
vn -0.0080 0.9475 0.3198
vn 0.9998 0.0063 -0.0169
vn 1.0000 0.0098 -0.0012
vn 0.4761 0.0365 0.8786
vn 0.4665 0.0433 0.8834
vn -0.0391 0.9992 0.0035
vn -0.0376 0.9993 0.0034
s 0
f 5//1 28//1 1//1
f 21//2 20//2 18//2
f 25//3 28//3 21//3
f 2//4 3//4 4//4
f 3//5 1//5 6//5
f 3//6 7//6 8//6
f 3//7 8//7 4//7
f 3//8 6//8 9//8
f 3//9 9//9 7//9
f 5//10 16//10 18//10
f 4//11 10//11 2//11
f 4//12 11//12 10//12
f 23//13 14//13 6//13
f 7//14 9//14 12//14
f 21//15 20//15 25//15
f 9//16 14//16 12//16
f 10//17 11//17 15//17
f 10//18 15//18 16//18
f 24//19 27//19 25//19
f 13//20 17//20 15//20
f 14//21 24//21 12//21
f 24//22 19//22 12//22
f 12//23 8//23 7//23
f 28//24 23//24 22//24
f 13//25 12//25 17//25
f 18//26 27//26 20//26
f 20//27 27//27 25//27
f 13//28 11//28 8//28
f 11//29 4//29 8//29
f 23//30 26//30 24//30
f 21//31 28//31 5//31
f 28//32 22//32 1//32
f 21//33 18//33 5//33
f 25//34 26//34 28//34
f 14//35 9//35 6//35
f 6//36 1//36 23//36
f 1//37 22//37 23//37
f 27//38 18//38 17//38
f 2//39 1//39 3//39
f 24//40 25//40 26//40
f 5//41 1//41 2//41
f 24//42 27//42 19//42
f 14//43 23//43 24//43
f 15//44 17//44 16//44
f 17//45 18//45 16//45
f 12//46 19//46 17//46
f 12//47 13//47 8//47
f 28//48 26//48 23//48
f 5//49 2//49 10//49
f 16//50 5//50 10//50
f 27//51 17//51 19//51
f 15//52 11//52 13//52
f 18//53 5//53 20//53
f 20//54 5//54 21//54
f 28//55 22//55 5//55
f 22//56 1//56 5//56
f 24//57 27//57 26//57
f 26//58 27//58 25//58
f 14//59 9//59 23//59
f 9//60 6//60 23//60
