# Blender 4.0.0
# www.blender.org
o decimated_mesh
v 0.890633 0.373054 0.008431
v 0.890667 0.369990 0.016916
v 0.890676 0.370046 -0.000995
v 0.101932 0.372203 -0.002105
v 0.890658 0.362397 0.021716
v 0.890655 0.362147 -0.005422
v 0.667263 0.367637 -0.007215
v 0.070584 0.368750 -0.008576
v 0.070318 0.359994 0.015121
v 0.860476 0.342241 -0.011274
v 0.129331 0.347355 -0.017228
v 0.093302 0.369433 0.012942
v 0.070344 0.352274 -0.012524
v 0.070438 0.366715 0.011977
v 0.890668 0.226315 -0.007510
v 0.070344 0.221832 -0.013131
v 0.890667 0.215058 0.002872
v 0.070344 0.212334 -0.009722
v 0.070344 0.250206 0.015258
v 0.890668 0.215780 0.014199
v 0.890668 0.251931 0.021932
v 0.070344 0.207798 -0.002030
v 0.070344 0.212123 0.005134
vn 0.9999 -0.0153 0.0052
vn 0.0135 -0.6779 -0.7350
vn -0.0080 0.0020 1.0000
vn -0.0035 0.9838 0.1792
vn -0.0579 0.2334 -0.9707
vn 0.0142 0.2621 -0.9649
vn 1.0000 -0.0000 -0.0001
vn 0.1807 0.0151 -0.9834
vn -0.0791 0.0046 -0.9969
vn 0.0083 -0.3377 -0.9412
vn -0.1306 0.9857 0.1066
vn 0.0027 0.8963 -0.4434
vn -0.0019 -0.8561 0.5168
vn 0.0085 -0.9979 0.0636
vn -0.0024 0.9405 0.3397
vn -0.0085 0.2445 0.9696
vn -0.0884 0.4233 0.9017
vn 0.9999 -0.0159 0.0055
vn 1.0000 -0.0000 -0.0000
vn 1.0000 0.0002 0.0009
vn 0.0190 0.4888 -0.8722
vn -0.0081 0.0012 1.0000
vn 0.0031 0.8760 -0.4823
vn 0.0030 0.9527 -0.3041
vn -0.0046 0.5343 0.8453
vn 0.0095 0.2281 -0.9736
vn 1.0000 -0.0001 0.0001
vn 1.0000 0.0001 -0.0001
vn 1.0000 -0.0064 0.0067
vn 1.0000 -0.0048 -0.0058
vn 1.0000 0.0022 -0.0001
vn 0.0107 -0.8614 -0.5079
vn 0.0028 0.3815 -0.9244
vn -0.1215 0.9878 0.0969
vn -0.0095 -0.2569 0.9664
vn -0.0075 -0.2092 0.9778
vn 0.0079 -0.0304 -0.9995
vn 0.0070 -0.0359 -0.9993
vn 0.9999 0.0127 0.0005
vn 1.0000 -0.0009 0.0005
vn 1.0000 0.0001 0.0008
vn 1.0000 -0.0000 0.0002
vn 1.0000 -0.0001 -0.0001
vn 1.0000 0.0002 -0.0052
vn 0.0031 0.8904 -0.4553
vn -0.1287 0.9869 0.0968
vn -0.1219 0.9862 0.1116
vn 0.0027 0.8767 -0.4810
vn 0.9999 -0.0159 0.0054
vn 0.9999 -0.0151 0.0056
vn 1.0000 0.0002 -0.0001
vn 1.0000 0.0002 -0.0009
vn 1.0000 -0.0000 0.0009
vn 1.0000 0.0001 0.0003
vn 1.0000 0.0002 0.0001
s 0
f 14//1 9//1 13//1
f 17//2 18//2 15//2
f 5//3 9//3 21//3
f 4//4 12//4 1//4
f 13//5 8//5 11//5
f 7//6 6//6 10//6
f 21//7 20//7 17//7
f 6//8 15//8 10//8
f 16//9 13//9 11//9
f 15//10 18//10 16//10
f 12//11 4//11 8//11
f 7//12 8//12 3//12
f 20//13 23//13 22//13
f 20//14 22//14 17//14
f 12//15 2//15 1//15
f 9//16 5//16 12//16
f 12//17 14//17 9//17
f 8//18 14//18 13//18
f 13//19 19//19 16//19
f 16//19 23//19 18//19
f 19//19 23//19 16//19
f 18//19 23//19 22//19
f 19//20 13//20 9//20
f 6//21 7//21 3//21
f 19//22 21//22 9//22
f 3//23 8//23 4//23
f 4//24 1//24 3//24
f 2//25 12//25 5//25
f 10//26 11//26 7//26
f 17//27 15//27 21//27
f 15//28 6//28 21//28
f 6//29 3//29 1//29
f 5//30 1//30 2//30
f 6//31 1//31 5//31
f 5//28 21//28 6//28
f 22//32 18//32 17//32
f 8//33 7//33 11//33
f 14//34 12//34 8//34
f 19//35 23//35 20//35
f 20//36 21//36 19//36
f 11//37 10//37 15//37
f 15//38 16//38 11//38
f 2//39 3//39 1//39
f 5//40 3//40 2//40
f 5//41 21//41 3//41
f 21//42 20//42 3//42
f 20//43 17//43 3//43
f 17//27 15//27 3//27
f 15//44 6//44 3//44
f 7//45 4//45 3//45
f 8//46 14//46 4//46
f 14//47 12//47 4//47
f 7//48 8//48 4//48
f 13//49 8//49 9//49
f 9//50 8//50 14//50
f 22//51 9//51 23//51
f 23//52 9//52 19//52
f 13//53 9//53 16//53
f 16//54 9//54 18//54
f 18//55 9//55 22//55
