# Blender 4.0.0
# www.blender.org
o decimated_mesh
v 0.167905 0.051193 -0.023566
v 0.167906 0.066282 -0.017881
v 0.167905 0.041204 -0.022865
v 0.812916 0.057535 -0.018240
v 0.167906 0.033832 -0.019714
v 0.812916 0.036029 -0.017346
v 0.812916 0.066748 -0.007776
v 0.812914 0.032442 -0.010076
v 0.812916 0.066508 0.004021
v 0.812916 0.031054 -0.002202
v 0.167905 0.031327 -0.012234
v 0.812915 0.056768 0.013190
v 0.812916 0.033608 0.007500
v 0.509225 0.030617 -0.002202
v 0.167905 0.031601 -0.002202
v 0.167912 0.066263 0.001912
v 0.167905 0.061068 0.005866
v 0.167905 0.034197 0.005100
v 0.167905 0.051210 0.008979
v 0.812916 0.038256 0.012499
v 0.167905 0.041178 0.008220
vn -0.0022 0.9895 0.1447
vn 1.0000 -0.0005 -0.0000
vn 1.0000 -0.0000 -0.0000
vn 0.0027 0.9422 -0.3351
vn 0.0098 0.7505 -0.6608
vn 0.0029 0.9996 -0.0273
vn 0.0032 0.7323 -0.6809
vn -0.0088 0.3011 0.9536
vn -0.0027 0.9482 0.3175
vn 0.0082 -0.0415 -0.9991
vn 0.0079 0.4080 -0.9129
vn -0.0026 0.6855 0.7281
vn 0.0043 0.3526 -0.9358
vn -0.0014 0.9848 0.1736
vn -0.0004 0.9998 0.0204
vn -0.0007 1.0000 0.0010
vn 1.0000 0.0001 0.0001
vn 1.0000 0.0010 0.0032
vn 1.0000 -0.0000 -0.0003
vn 1.0000 -0.0000 0.0002
vn 1.0000 -0.0000 0.0001
vn 1.0000 0.0001 -0.0000
vn 1.0000 -0.0001 -0.0002
vn 1.0000 -0.0001 -0.0000
vn -0.0050 0.6057 0.7957
vn -0.0047 0.8967 0.4425
vn -0.0014 0.9671 -0.2546
vn 0.0022 0.9344 -0.3563
vn -0.0047 0.3930 0.9195
vn 0.0089 -0.0700 -0.9975
vn -0.0059 -0.0755 0.9971
vn -0.0068 -0.0373 0.9993
vn 1.0000 -0.0000 -0.0002
vn 0.0087 -0.0415 -0.9991
vn 0.0080 -0.0700 -0.9975
vn 1.0000 -0.0009 0.0007
vn 1.0000 -0.0001 0.0002
vn -0.0023 0.9848 0.1736
vn -0.0014 0.9929 0.1189
vn -0.0070 -0.0755 0.9971
vn -0.0062 -0.0373 0.9993
s 0
f 8//1 11//1 14//1
f 19//2 1//2 16//2
f 4//3 20//3 10//3
f 18//4 14//4 15//4
f 2//5 7//5 4//5
f 14//6 11//6 15//6
f 13//7 18//7 20//7
f 19//8 12//8 17//8
f 11//9 8//9 5//9
f 4//10 6//10 3//10
f 18//11 21//11 20//11
f 16//12 12//12 9//12
f 2//13 4//13 1//13
f 8//14 14//14 10//14
f 16//15 9//15 7//15
f 7//16 2//16 16//16
f 3//17 11//17 5//17
f 11//3 3//3 15//3
f 15//3 21//3 18//3
f 21//3 15//3 19//3
f 15//3 1//3 19//3
f 19//18 16//18 17//18
f 2//19 16//19 1//19
f 1//3 15//3 3//3
f 8//20 6//20 4//20
f 9//21 12//21 20//21
f 13//22 10//22 20//22
f 10//23 8//23 4//23
f 4//24 7//24 9//24
f 9//3 20//3 4//3
f 17//25 12//25 16//25
f 5//26 8//26 6//26
f 14//27 13//27 10//27
f 13//28 14//28 18//28
f 3//29 5//29 6//29
f 1//30 4//30 3//30
f 12//31 19//31 21//31
f 21//32 20//32 12//32
f 3//33 1//33 2//33
f 4//34 6//34 1//34
f 6//35 3//35 1//35
f 15//3 3//3 18//3
f 18//3 3//3 21//3
f 21//3 3//3 19//3
f 19//3 3//3 17//3
f 17//36 3//36 16//36
f 16//19 3//19 2//19
f 7//3 6//3 4//3
f 7//37 8//37 6//37
f 8//38 11//38 10//38
f 10//39 11//39 14//39
f 20//40 19//40 21//40
f 20//41 12//41 19//41
f 9//3 12//3 7//3
f 12//3 20//3 7//3
f 20//3 13//3 7//3
f 13//3 10//3 7//3
f 10//33 8//33 7//33
