# Blender 4.0.0
# www.blender.org
o decimated_mesh
v 0.867207 0.057486 -0.008836
v 0.866524 0.035942 -0.008342
v 0.866734 0.056749 0.104669
v 0.857685 0.041756 -0.017015
v 0.862072 0.051212 -0.015172
v 0.856546 0.056733 -0.017682
v 0.856378 0.066307 -0.008568
v 0.861759 0.064033 -0.002189
v 0.857560 0.066273 0.103608
v 0.865771 0.035655 0.103714
v 0.857644 0.031847 -0.001864
v 0.856423 0.034012 -0.012053
v 0.850475 0.036534 -0.017177
v 0.856099 0.056501 0.114780
v 0.862635 0.049192 0.110652
v 0.856069 0.035642 0.113206
v 0.850595 0.031499 0.102003
v 0.812916 0.056946 -0.018297
v 0.812916 0.066377 -0.008812
v 0.845902 0.066337 0.105076
v 0.844863 0.035610 0.113098
v 0.812916 0.031050 -0.002189
v 0.812916 0.035548 -0.017072
v 0.812904 0.066854 0.002937
v 0.843815 0.057104 0.113641
v 0.838896 0.046716 0.106691
v 0.812912 0.034799 0.010069
v 0.812916 0.056878 0.013113
vn 0.0178 -0.9998 -0.0021
vn -0.3811 -0.9136 0.1417
vn 0.6404 -0.1502 -0.7532
vn 0.7949 -0.0391 -0.6055
vn 0.6048 0.2638 -0.7514
vn 0.4805 0.6091 -0.6310
vn 0.6088 0.7547 -0.2445
vn -0.6762 -0.7045 0.2153
vn 0.0189 -0.9775 -0.2099
vn 0.2626 -0.9648 0.0146
vn 0.2319 -0.9438 0.2357
vn 0.3931 0.9195 -0.0039
vn 0.2638 -0.9366 -0.2306
vn -0.0094 -0.0752 0.9971
vn 0.4053 -0.0099 -0.9141
vn 0.0220 -0.8866 -0.4620
vn 0.3792 -0.5422 -0.7498
vn 0.5474 0.5931 0.5904
vn 0.6728 0.1992 0.7125
vn 0.6854 -0.2001 0.7002
vn -0.9261 0.2484 0.2841
vn 1.0000 0.0012 -0.0000
vn 0.0875 0.7441 0.6623
vn -0.0007 -0.9378 0.3472
vn 0.0136 0.6895 -0.7241
vn 0.7198 0.6942 0.0075
vn 0.9989 -0.0459 0.0066
vn 0.4191 -0.9079 0.0005
vn -0.0340 0.6838 0.7289
vn -0.8497 0.4488 0.2768
vn -0.0004 -0.9572 -0.2893
vn -0.9639 -0.0362 0.2637
vn 0.4069 -0.5389 -0.7376
vn 0.0126 0.9999 0.0002
vn 0.0018 0.9992 -0.0406
vn 0.0059 1.0000 0.0032
vn -0.9163 0.2855 0.2810
vn -0.9034 -0.3223 0.2827
vn 1.0000 -0.0000 -0.0000
vn 1.0000 -0.0003 0.0004
vn -1.0000 0.0010 -0.0010
vn 0.4784 -0.0667 0.8756
vn 0.0517 -0.0405 -0.9978
vn -0.0013 -0.0571 -0.9984
vn 0.0139 -0.0292 -0.9995
vn -0.7755 -0.0537 0.6291
vn -0.0937 -0.0297 0.9952
vn 0.0051 0.7091 -0.7051
vn 0.7773 0.6289 0.0175
vn 0.9995 -0.0316 0.0040
vn 0.8583 -0.0623 0.5094
vn 0.7723 0.6352 0.0073
vn 0.7194 0.6945 0.0138
vn 0.3763 -0.5801 -0.7224
vn 0.3960 -0.5235 -0.7544
vn 1.0000 -0.0000 0.0006
vn 1.0000 -0.0000 -0.0012
vn 1.0000 0.0003 0.0002
vn 1.0000 0.0006 0.0002
s 0
f 11//1 17//1 22//1
f 21//2 22//2 17//2
f 2//3 4//3 5//3
f 2//4 5//4 1//4
f 1//5 5//5 6//5
f 1//6 6//6 7//6
f 1//7 7//7 8//7
f 22//8 21//8 27//8
f 22//9 12//9 11//9
f 17//10 11//10 10//10
f 16//11 17//11 10//11
f 7//12 9//12 8//12
f 2//13 11//13 12//13
f 14//14 21//14 16//14
f 5//15 4//15 6//15
f 12//16 23//16 13//16
f 12//17 4//17 2//17
f 3//18 9//18 14//18
f 3//19 14//19 15//19
f 10//20 15//20 16//20
f 25//21 28//21 26//21
f 28//22 18//22 24//22
f 9//23 20//23 14//23
f 21//24 17//24 16//24
f 18//25 7//25 6//25
f 1//26 9//26 3//26
f 2//27 3//27 10//27
f 10//28 11//28 2//28
f 20//29 25//29 14//29
f 20//30 24//30 25//30
f 22//31 23//31 12//31
f 28//32 27//32 26//32
f 12//33 13//33 4//33
f 9//34 7//34 24//34
f 7//35 19//35 24//35
f 24//36 20//36 9//36
f 25//37 24//37 28//37
f 26//38 27//38 21//38
f 23//39 18//39 22//39
f 22//40 28//40 27//40
f 18//39 28//39 22//39
f 24//41 19//41 18//41
f 14//42 16//42 15//42
f 6//43 4//43 13//43
f 13//44 23//44 18//44
f 18//45 6//45 13//45
f 26//46 21//46 25//46
f 25//47 21//47 14//47
f 18//48 19//48 7//48
f 1//49 8//49 9//49
f 2//50 1//50 3//50
f 15//51 10//51 3//51
f 8//52 3//52 1//52
f 9//53 3//53 8//53
f 12//54 13//54 2//54
f 13//55 4//55 2//55
f 23//56 18//56 24//56
f 27//57 24//57 28//57
f 23//58 24//58 27//58
f 22//59 23//59 27//59
