# Blender 4.0.0
# www.blender.org
o decimated_mesh
v 0.018589 0.066963 -0.010596
v 0.021997 0.276059 0.013294
v 0.013605 0.066963 -0.002199
v 0.017539 0.066963 0.005900
v 0.013605 0.181685 -0.002199
v 0.027540 0.066963 0.008788
v 0.027540 0.171645 -0.014096
v 0.027540 0.066963 -0.014116
v 0.021227 0.273807 -0.009379
v 0.070351 0.250516 0.015208
v 0.070389 0.218437 -0.012892
v 0.020924 0.295272 0.000409
v 0.022814 0.301095 -0.007065
v 0.030860 0.325980 -0.008561
v 0.070338 0.352276 0.015654
v 0.032405 0.324677 0.013476
v 0.042880 0.066958 0.004194
v 0.070338 0.352276 -0.012525
v 0.038986 0.320274 -0.012482
v 0.054777 0.351439 -0.012323
v 0.036830 0.066963 -0.010738
v 0.041847 0.066963 -0.004076
v 0.050517 0.358076 0.013769
v 0.044057 0.350673 0.012889
v 0.070333 0.208013 0.003384
v 0.040993 0.347388 -0.008541
v 0.050760 0.359005 -0.009176
v 0.032198 0.334186 0.000101
v 0.070362 0.366513 0.011942
v 0.046408 0.358188 -0.002146
v 0.061724 0.367507 0.000660
v 0.070391 0.368161 -0.007894
vn 0.7854 -0.1824 -0.5915
vn -0.0000 1.0000 -0.0000
vn 0.0177 0.0095 -0.9998
vn -0.2773 -0.0280 0.9604
vn -0.3416 0.8767 0.3387
vn -0.8596 0.4982 -0.1136
vn -0.9388 0.2737 0.2091
vn -0.4824 0.8529 -0.1995
vn 1.0000 -0.0017 -0.0000
vn -0.7675 0.0136 -0.6409
vn -0.0966 0.3382 -0.9361
vn -0.8487 0.5141 0.1242
vn -0.4754 0.0112 -0.8797
vn 0.3404 -0.0887 -0.9361
vn 0.8154 -0.1555 0.5577
vn -0.9817 0.0673 -0.1781
vn 0.9745 -0.1904 -0.1186
vn 0.9741 -0.1906 -0.1218
vn -0.0541 -0.0044 0.9985
vn -0.0182 0.2523 0.9675
vn -0.3829 0.8660 -0.3217
vn -0.7189 0.5838 -0.3773
vn -0.2465 0.0295 -0.9687
vn -0.8734 0.4137 -0.2569
vn -0.3121 0.1610 0.9363
vn -0.0275 0.2799 -0.9596
vn -0.3045 0.1591 -0.9391
vn 0.2854 -0.0999 0.9532
vn 0.0010 -1.0000 -0.0008
vn 0.0004 1.0000 0.0002
vn -0.0136 0.0120 -0.9998
vn -0.0041 0.0027 -1.0000
vn 0.0279 0.0002 -0.9996
vn -0.3839 0.0853 -0.9194
vn -0.8995 -0.0000 0.4369
vn -0.8855 0.0024 0.4647
vn -0.5335 0.8335 0.1436
vn 1.0000 0.0001 -0.0000
vn 1.0000 -0.0012 0.0027
vn 1.0000 0.0004 0.0009
vn 1.0000 -0.0036 0.0011
vn -0.8599 -0.0000 -0.5104
vn -0.9602 0.2780 -0.0263
vn -0.9108 0.1936 0.3645
vn -0.4771 0.1018 -0.8729
vn -0.3660 0.0002 -0.9306
vn -0.9789 0.0731 -0.1906
vn -0.8694 0.3963 0.2952
vn -0.7500 0.6310 0.1981
vn -0.0840 0.0368 0.9958
vn -0.0373 0.0042 0.9993
vn -0.0516 -0.0229 0.9984
vn -0.9836 0.0595 0.1706
vn -0.9451 0.2974 -0.1357
vn 0.0065 0.9965 0.0828
vn -0.3358 0.1598 -0.9283
vn -0.3169 0.2160 -0.9235
vn 0.0002 1.0000 -0.0001
vn 0.0002 1.0000 0.0001
vn 0.0001 1.0000 0.0002
vn -0.0002 1.0000 0.0004
vn 0.0002 1.0000 -0.0006
vn 0.0251 0.0027 -0.9997
vn 0.9999 0.0004 -0.0127
vn 1.0000 -0.0001 0.0014
vn 1.0000 0.0001 0.0069
vn -0.0419 -0.0044 0.9991
vn -0.0646 0.0101 0.9979
vn -0.0135 0.0119 -0.9998
s 0
f 21//1 11//1 22//1
f 1//2 6//2 8//2
f 7//3 19//3 11//3
f 2//4 4//4 6//4
f 29//5 31//5 23//5
f 30//6 26//6 28//6
f 16//7 28//7 12//7
f 31//8 27//8 30//8
f 15//9 18//9 29//9
f 1//10 5//10 9//10
f 27//11 32//11 20//11
f 28//12 24//12 30//12
f 9//13 7//13 1//13
f 11//14 21//14 8//14
f 17//15 25//15 10//15
f 9//16 5//16 12//16
f 11//17 25//17 17//17
f 11//18 17//18 22//18
f 10//19 15//19 16//19
f 23//20 15//20 29//20
f 27//21 31//21 32//21
f 27//22 26//22 30//22
f 19//23 7//23 9//23
f 14//24 28//24 26//24
f 23//25 24//25 16//25
f 32//26 18//26 20//26
f 20//27 19//27 26//27
f 6//28 17//28 10//28
f 8//2 6//2 21//2
f 21//29 22//29 17//29
f 6//30 17//30 21//30
f 6//2 1//2 4//2
f 4//2 1//2 3//2
f 20//31 18//31 19//31
f 18//32 11//32 19//32
f 11//33 8//33 7//33
f 19//34 9//34 14//34
f 3//35 4//35 5//35
f 4//36 2//36 5//36
f 31//37 30//37 23//37
f 15//38 10//38 18//38
f 10//39 25//39 11//39
f 11//40 18//40 10//40
f 18//41 32//41 29//41
f 1//42 3//42 5//42
f 13//43 12//43 28//43
f 16//44 12//44 2//44
f 13//45 14//45 9//45
f 7//46 8//46 1//46
f 13//47 9//47 12//47
f 28//48 16//48 24//48
f 30//49 24//49 23//49
f 15//50 23//50 16//50
f 16//51 2//51 10//51
f 2//52 6//52 10//52
f 12//53 5//53 2//53
f 13//54 28//54 14//54
f 32//55 31//55 29//55
f 14//56 26//56 19//56
f 26//57 27//57 20//57
f 17//58 3//58 4//58
f 1//59 3//59 17//59
f 1//60 17//60 8//60
f 8//61 17//61 21//61
f 6//62 17//62 4//62
f 7//63 18//63 11//63
f 18//64 32//64 11//64
f 32//65 10//65 11//65
f 32//65 29//65 10//65
f 29//66 15//66 10//66
f 15//67 2//67 10//67
f 15//68 16//68 2//68
f 19//69 18//69 7//69
