# Blender 4.0.0
# www.blender.org
o decimated_mesh
v 0.859052 -0.020136 0.127104
v 0.848592 -0.019798 0.040785
v 0.867185 -0.019684 0.040839
v 0.855435 -0.122354 0.127616
v 0.861352 -0.122323 0.040726
vn 0.9901 0.1232 0.0675
vn 0.9971 -0.0349 0.0679
vn -0.0029 -0.0009 1.0000
vn 0.0062 -1.0000 -0.0047
vn 0.9921 -0.0357 -0.1204
vn 0.9940 -0.0566 0.0934
vn 0.9961 -0.0567 0.0678
vn 0.9950 -0.0347 0.0936
s 0
f 2//1 4//1 5//1
f 5//2 1//2 4//2
f 2//3 5//3 3//3
f 1//4 2//4 3//4
f 2//5 1//5 4//5
f 5//6 3//6 1//6
f 5//7 3//7 4//7
f 3//8 1//8 4//8
