# Blender 4.0.0
# www.blender.org
o decimated_mesh
v 0.874163 -0.243108 -0.007007
v 0.874420 -0.243142 0.002942
v 0.918060 -0.243143 0.034820
v 0.892434 0.211190 0.037460
v 0.892434 0.219421 0.035769
v 0.878111 0.066567 0.002718
v 0.874433 -0.079068 0.002815
v 0.935505 -0.243145 0.038066
v 0.953596 -0.243143 0.006582
v 0.927455 0.203852 0.037467
v 0.902280 0.219191 0.035809
v 0.878239 0.064606 -0.006359
v 0.892380 0.224496 0.031636
v 0.892449 0.226645 0.020207
v 0.946341 0.182428 0.035789
v 0.938929 0.183691 0.037420
v 0.935568 0.207734 0.034854
v 0.905277 0.224984 0.026922
v 0.892480 0.225806 0.006429
v 0.892282 0.152937 -0.004440
v 0.951732 -0.243143 0.034236
v 0.952479 0.165376 0.033318
v 0.942738 0.198056 0.031878
v 0.920912 0.215536 0.034709
v 0.900010 0.225123 0.006389
v 0.925671 0.216280 0.006631
v 0.944412 0.197668 0.006743
v 0.953240 0.171034 0.006601
v 0.906755 0.225296 0.013473
v 0.955205 -0.243143 0.020291
v 0.955102 0.165343 0.020291
v 0.952613 0.176889 0.028073
v 0.942290 0.204292 0.020291
v 0.935180 0.212234 0.018761
v 0.953541 0.179697 0.014616
vn 0.1700 0.0002 -0.9854
vn -0.5894 -0.0379 0.8069
vn 0.9803 0.0002 0.1974
vn 0.0116 0.6315 0.7753
vn -0.9924 0.0713 0.1004
vn 0.9105 0.3777 0.1681
vn 0.1102 0.9933 0.0351
vn 0.4304 0.8795 0.2030
vn 0.2297 -0.0006 0.9733
vn -0.6278 0.1165 -0.7696
vn 0.9012 0.4280 -0.0681
vn 0.6987 0.3211 0.6393
vn 0.1896 0.7921 0.5802
vn 0.8874 0.2960 -0.3534
vn -0.9752 0.0445 0.2167
vn -0.1829 -0.0160 0.9830
vn 0.1125 0.2875 0.9512
vn -0.8888 0.0004 0.4582
vn 0.9932 0.0003 -0.1166
vn 0.0007 0.2013 0.9795
vn 0.4065 0.9113 0.0658
vn 0.7173 0.6753 0.1715
vn 0.4556 0.8601 0.2295
vn 0.2439 0.1366 0.9601
vn 0.0017 0.0015 1.0000
vn 0.6727 0.6755 -0.3020
vn 0.9999 -0.0149 0.0032
vn 0.8288 0.2240 0.5128
vn 0.7492 0.6337 -0.1925
vn 0.3767 0.0014 0.9263
vn 0.1686 -0.0002 -0.9857
vn 0.1610 0.0586 -0.9852
vn 0.1803 -0.0073 -0.9836
vn 0.9774 0.0782 0.1966
vn 0.9844 0.1459 0.0984
vn 0.9704 -0.0012 0.2416
vn 0.3115 0.8953 -0.3184
vn 0.9064 0.3967 0.1453
vn 0.0655 0.9960 -0.0605
vn 0.0081 0.1475 -0.9890
vn 0.0583 0.1420 -0.9882
vn 0.1163 0.1112 -0.9870
vn 0.2149 -0.0002 0.9766
vn 0.0892 0.9900 -0.1090
vn 0.0025 -1.0000 -0.0035
vn -0.0004 -1.0000 -0.0005
vn -0.0001 -1.0000 -0.0001
vn 0.0001 -1.0000 -0.0000
vn 0.1816 0.7947 0.5792
vn -0.9559 0.0243 0.2928
vn 0.1548 0.3082 0.9386
vn 0.8344 0.3069 0.4578
vn 0.8131 0.5252 0.2512
vn 0.9909 0.0009 -0.1344
vn 0.0338 0.1620 0.9862
vn 0.9920 0.0652 -0.1078
vn 0.4217 0.9063 -0.0282
vn 0.2349 0.1356 0.9625
vn -0.0008 -0.0028 1.0000
vn 0.0304 0.9823 0.1849
vn -0.9953 0.0906 -0.0336
vn -0.9803 0.0134 -0.1968
vn -0.9995 0.0252 -0.0196
vn -0.9997 0.0001 0.0258
vn 0.9960 -0.0899 -0.0007
vn 0.0019 -1.0000 -0.0035
vn 0.1334 0.0003 -0.9911
vn 0.1686 -0.0013 -0.9857
vn -0.0004 -1.0000 -0.0003
vn -0.0001 -1.0000 0.0001
vn 0.0066 0.0015 1.0000
vn 0.0001 0.0013 1.0000
vn 0.1782 0.0002 -0.9840
vn 0.2428 0.1388 0.9601
vn 0.2343 0.1311 0.9633
vn 0.9961 -0.0881 -0.0106
vn 0.9959 -0.0901 0.0078
vn 0.9121 0.3842 0.1431
vn 0.9039 0.3902 0.1751
s 0
f 28//1 9//1 12//1
f 2//2 3//2 4//2
f 30//3 31//3 22//3
f 13//4 5//4 11//4
f 5//5 13//5 6//5
f 23//6 35//6 33//6
f 14//7 18//7 29//7
f 24//8 34//8 18//8
f 15//9 8//9 21//9
f 12//10 19//10 20//10
f 35//11 27//11 33//11
f 17//12 15//12 23//12
f 18//13 11//13 24//13
f 35//14 28//14 27//14
f 6//15 4//15 5//15
f 3//16 8//16 4//16
f 24//17 11//17 10//17
f 2//18 4//18 7//18
f 9//19 31//19 30//19
f 4//20 11//20 5//20
f 29//21 18//21 34//21
f 17//22 33//22 34//22
f 17//23 34//23 24//23
f 17//24 10//24 16//24
f 4//25 8//25 16//25
f 26//26 34//26 27//26
f 19//27 14//27 13//27
f 32//28 15//28 22//28
f 34//29 33//29 27//29
f 22//30 15//30 21//30
f 1//31 12//31 9//31
f 20//32 27//32 28//32
f 12//33 20//33 28//33
f 22//34 31//34 32//34
f 31//35 35//35 32//35
f 21//36 30//36 22//36
f 29//37 26//37 25//37
f 23//38 32//38 35//38
f 29//39 19//39 14//39
f 20//40 19//40 25//40
f 25//41 26//41 20//41
f 26//42 27//42 20//42
f 15//43 16//43 8//43
f 19//44 29//44 25//44
f 3//45 2//45 1//45
f 1//46 9//46 3//46
f 3//47 9//47 8//47
f 9//48 30//48 8//48
f 8//48 30//48 21//48
f 18//49 13//49 11//49
f 6//50 7//50 4//50
f 17//51 24//51 10//51
f 32//52 23//52 15//52
f 23//53 33//53 17//53
f 9//54 28//54 31//54
f 4//55 10//55 11//55
f 31//56 28//56 35//56
f 34//57 26//57 29//57
f 15//58 17//58 16//58
f 4//59 16//59 10//59
f 18//60 14//60 13//60
f 19//61 12//61 6//61
f 12//62 1//62 7//62
f 6//63 12//63 7//63
f 2//64 7//64 1//64
f 6//65 19//65 13//65
f 8//66 2//66 1//66
f 12//67 20//67 1//67
f 20//68 9//68 1//68
f 9//69 8//69 1//69
f 3//70 2//70 8//70
f 16//71 10//71 8//71
f 10//72 4//72 8//72
f 28//73 9//73 20//73
f 17//74 10//74 15//74
f 10//75 16//75 15//75
f 13//76 6//76 14//76
f 14//77 6//77 19//77
f 35//78 33//78 32//78
f 33//79 23//79 32//79
