# Blender 4.0.0
# www.blender.org
o decimated_mesh
v 0.033340 0.159176 0.004014
v 0.033665 -0.256487 0.004045
v 0.035649 0.159176 0.026471
v 0.035894 -0.261221 0.025448
v 0.040618 -0.256278 0.028103
v 0.099691 -0.243754 -0.011919
v 0.051209 -0.272459 0.029988
v 0.105349 0.159180 -0.012309
v 0.108078 -0.251193 -0.011972
v 0.042427 -0.274583 0.003439
v 0.053975 0.159179 0.030540
v 0.061679 -0.287428 0.030020
v 0.050256 -0.289313 0.026282
v 0.109118 0.110410 -0.012066
v 0.109118 -0.079013 -0.012099
v 0.108079 -0.308776 0.004351
v 0.080697 -0.307570 0.004903
v 0.061934 -0.299049 0.004416
v 0.045116 -0.288349 0.006095
v 0.108150 -0.299189 0.030322
v 0.061960 -0.298004 0.026206
v 0.055038 -0.296382 0.014277
v 0.105678 0.159176 -0.000363
v 0.088571 -0.309105 0.010850
v 0.071938 0.159176 0.027419
v 0.086436 -0.302108 0.028982
v 0.108101 -0.308416 0.026218
v 0.082375 -0.307699 0.025663
vn -0.6910 -0.7088 0.1421
vn -0.2766 -0.1914 0.9417
vn -0.0064 -0.0012 1.0000
vn -0.0018 -0.4064 0.9137
vn -0.4880 -0.0024 0.8728
vn -0.9413 -0.3368 0.0235
vn -0.0314 -0.2726 -0.9616
vn -0.8745 -0.4411 0.2016
vn -0.1985 -0.9800 0.0099
vn 0.1711 0.0198 0.9850
vn 0.0223 -0.9996 0.0164
vn -0.9948 -0.0008 0.1023
vn -0.4122 -0.9101 -0.0421
vn -0.5413 -0.8264 -0.1550
vn -0.0029 -0.0009 -1.0000
vn 0.6347 0.0550 0.7708
vn -0.2427 -0.3348 0.9105
vn -0.2168 0.0012 0.9762
vn -0.3705 -0.9245 0.0893
vn -0.0072 -0.0029 1.0000
vn -0.0325 -0.4926 0.8696
vn 1.0000 -0.0049 -0.0010
vn 1.0000 -0.0007 -0.0025
vn 0.9999 -0.0060 -0.0086
vn 0.9593 -0.0000 0.2822
vn 0.9967 0.0769 -0.0275
vn 0.9969 0.0106 0.0776
vn -0.5952 -0.2628 -0.7594
vn -0.0869 -0.2467 -0.9652
vn 0.2211 0.0002 0.9753
vn 0.2354 -0.0024 0.9719
vn -0.2208 -0.0743 -0.9725
vn -0.1702 -0.4086 0.8967
vn -0.1619 -0.3386 0.9269
vn -0.0295 -0.9962 0.0822
vn -0.0421 -0.1409 0.9891
vn -0.3961 -0.1758 0.9012
vn -0.9946 -0.0008 0.1034
vn 0.0001 1.0000 -0.0002
vn 0.0002 1.0000 0.0003
vn -0.0000 1.0000 0.0001
vn -0.0002 1.0000 -0.0000
vn 0.0668 0.0002 -0.9978
vn -0.0069 -0.0007 -1.0000
vn -0.3725 -0.1370 0.9179
vn -0.0470 -0.9805 -0.1908
vn -0.1676 -0.1723 -0.9707
vn -0.2398 -0.2289 -0.9435
vn -0.1623 -0.1760 -0.9709
vn -0.5793 -0.7821 0.2298
vn -0.1754 -0.0001 0.9845
vn -0.4282 -0.9032 0.0290
vn -0.0000 1.0000 -0.0000
vn 0.2211 -0.0022 0.9753
vn 0.2350 0.0003 0.9720
vn -0.0001 1.0000 -0.0001
vn 0.0067 -0.0008 -1.0000
vn -0.0071 -0.0009 -1.0000
vn 0.9780 0.0192 0.2076
vn 0.9997 -0.0000 0.0228
vn 1.0000 -0.0046 -0.0011
vn 0.9998 -0.0061 -0.0214
vn -0.3916 -0.9198 0.0259
vn -0.4230 -0.8977 0.1234
s 0
f 22//1 13//1 19//1
f 13//2 12//2 7//2
f 11//3 7//3 20//3
f 26//4 27//4 20//4
f 5//5 3//5 4//5
f 2//6 19//6 4//6
f 17//7 9//7 16//7
f 19//8 13//8 4//8
f 28//9 17//9 24//9
f 25//10 11//10 20//10
f 24//11 16//11 27//11
f 3//12 1//12 2//12
f 18//13 17//13 22//13
f 19//14 18//14 22//14
f 6//15 8//15 15//15
f 25//16 20//16 23//16
f 21//17 12//17 13//17
f 5//18 11//18 3//18
f 21//19 22//19 17//19
f 7//20 12//20 20//20
f 26//21 28//21 27//21
f 27//22 16//22 20//22
f 16//23 9//23 20//23
f 9//24 15//24 20//24
f 15//25 14//25 23//25
f 14//26 8//26 23//26
f 23//27 20//27 15//27
f 10//28 19//28 2//28
f 17//29 18//29 9//29
f 2//30 8//30 1//30
f 8//31 2//31 6//31
f 6//32 10//32 2//32
f 21//33 28//33 26//33
f 26//34 12//34 21//34
f 27//35 28//35 24//35
f 12//36 26//36 20//36
f 4//37 13//37 7//37
f 4//38 3//38 2//38
f 11//39 25//39 1//39
f 25//40 23//40 8//40
f 8//41 1//41 25//41
f 11//42 1//42 3//42
f 14//43 15//43 8//43
f 15//44 9//44 6//44
f 7//45 5//45 4//45
f 24//46 17//46 16//46
f 10//47 6//47 18//47
f 19//48 10//48 18//48
f 6//49 9//49 18//49
f 22//50 21//50 13//50
f 5//51 7//51 11//51
f 17//52 28//52 21//52
f 3//53 8//53 1//53
f 8//54 1//54 6//54
f 6//55 1//55 2//55
f 11//56 8//56 3//56
f 15//57 9//57 8//57
f 9//58 6//58 8//58
f 11//40 25//40 8//40
f 20//59 14//59 23//59
f 20//60 15//60 14//60
f 20//61 16//61 15//61
f 16//62 9//62 15//62
f 28//63 22//63 17//63
f 28//64 21//64 22//64
