# Blender 4.0.0
# www.blender.org
o Fridge_1_Mesh_77a1be5e_3_collision_1
v 0.816815 0.125342 0.127805
v 0.590563 -0.017952 0.125957
v 0.663874 -0.019684 0.126547
v 0.717169 -0.019684 0.126976
v 0.790480 -0.019684 0.127565
v 0.816815 -0.017952 0.127776
v 0.816815 0.125342 0.116277
v 0.557786 0.125342 0.125717
v 0.581431 -0.019684 0.125883
v 0.572235 -0.019684 0.125809
v 0.808870 -0.019684 0.127711
v 0.816815 -0.019684 0.127774
v 0.816815 -0.019684 0.111491
v 0.746694 0.125342 0.114016
v 0.502302 0.125342 0.124102
v 0.177781 0.121367 0.121745
v 0.177781 -0.019684 0.121992
v 0.558474 0.058380 0.125711
v 0.563916 -0.019684 0.125741
v 0.812811 -0.019684 0.111483
v 0.502302 0.125342 0.112088
v 0.503678 0.125342 0.112091
v 0.508119 0.125342 0.112104
v 0.535580 0.125342 0.112215
v 0.666189 0.125342 0.112755
v 0.672944 0.125342 0.112786
v 0.177781 0.121367 0.111791
v 0.563040 -0.019684 0.125733
v 0.177781 -0.019684 0.111348
v 0.676948 -0.019684 0.111343
v 0.177906 0.121367 0.111791
v 0.584308 -0.019684 0.111338
v 0.382515 -0.019684 0.111340
v 0.180471 -0.019684 0.111345
v 0.602636 -0.019684 0.111338
vn -0.0081 -0.0002 1.0000
vn -0.0080 -0.0002 1.0000
vn 1.0000 -0.0000 -0.0000
vn -0.0000 1.0000 -0.0000
vn -0.0000 1.0000 0.0002
vn -0.0081 -0.0003 1.0000
vn -0.0000 -0.9999 0.0141
vn -0.0000 -1.0000 -0.0014
vn -0.0000 -1.0000 -0.0008
vn -0.0000 -1.0000 -0.0000
vn -0.0000 -1.0000 -0.0018
vn -0.0000 -1.0000 0.0009
vn -0.0080 -0.0006 1.0000
vn -0.0079 -0.0009 1.0000
vn 0.0322 0.0330 -0.9989
vn -0.0142 0.8722 0.4889
vn -0.0105 0.0017 0.9999
vn -0.0097 -0.0002 1.0000
vn -0.0082 -0.0002 1.0000
vn 0.0020 0.0085 -1.0000
vn 0.0024 0.0092 -1.0000
vn 0.0029 0.0104 -0.9999
vn 0.0041 0.0128 -0.9999
vn 0.0041 0.0130 -0.9999
vn 0.0045 0.0134 -0.9999
vn 0.0167 0.0255 -0.9995
vn -0.0122 0.9999 -0.0000
vn -1.0000 -0.0000 -0.0000
vn -0.0097 -0.0003 1.0000
vn -0.0092 -0.0002 1.0000
vn 0.0010 0.0064 -1.0000
vn -0.0000 0.0741 -0.9972
vn 0.0008 0.0061 -1.0000
vn -0.0000 0.0032 -1.0000
vn -0.0012 0.0031 -1.0000
vn 0.0001 0.0034 -1.0000
s 0
f 1//1 2//1 3//1
f 1//2 3//2 4//2
f 1//2 4//2 5//2
f 1//2 5//2 6//2
f 1//3 6//3 12//3
f 1//3 12//3 13//3
f 1//3 13//3 7//3
f 1//4 7//4 14//4
f 1//4 14//4 26//4
f 1//4 26//4 25//4
f 1//4 25//4 24//4
f 1//4 24//4 23//4
f 1//4 23//4 22//4
f 1//5 22//5 21//5
f 1//4 21//4 15//4
f 1//4 15//4 8//4
f 1//1 8//1 2//1
f 2//6 9//6 3//6
f 2//1 8//1 10//1
f 2//6 10//6 9//6
f 3//7 9//7 10//7
f 3//8 10//8 19//8
f 3//9 19//9 28//9
f 3//10 28//10 17//10
f 3//10 17//10 29//10
f 3//10 29//10 34//10
f 3//10 34//10 33//10
f 3//10 33//10 32//10
f 3//10 32//10 35//10
f 3//10 35//10 30//10
f 3//10 30//10 20//10
f 3//10 20//10 13//10
f 3//10 13//10 12//10
f 3//11 12//11 11//11
f 3//12 11//12 5//12
f 3//10 5//10 4//10
f 5//13 11//13 6//13
f 6//14 11//14 12//14
f 7//15 13//15 14//15
f 8//16 15//16 16//16
f 8//17 16//17 17//17
f 8//18 17//18 18//18
f 8//19 18//19 19//19
f 8//1 19//1 10//1
f 13//20 20//20 21//20
f 13//21 21//21 22//21
f 13//22 22//22 23//22
f 13//23 23//23 24//23
f 13//24 24//24 25//24
f 13//25 25//25 26//25
f 13//26 26//26 14//26
f 15//27 21//27 27//27
f 15//27 27//27 16//27
f 16//28 27//28 29//28
f 16//28 29//28 17//28
f 17//29 28//29 18//29
f 18//30 28//30 19//30
f 20//31 30//31 21//31
f 21//32 31//32 27//32
f 21//33 30//33 31//33
f 27//34 31//34 35//34
f 27//34 35//34 32//34
f 27//34 32//34 33//34
f 27//34 33//34 34//34
f 27//35 34//35 29//35
f 30//36 35//36 31//36
