# Blender 4.0.0
# www.blender.org
o decimated_mesh
v 0.853512 -0.189667 0.026943
v 0.853517 -0.228079 0.040820
v 0.853515 -0.228987 0.012941
v 0.162994 -0.195980 0.014035
v 0.162994 -0.198447 0.040825
v 0.162984 -0.229774 0.024715
vn -0.0159 -0.3013 -0.9534
vn -0.0108 0.9957 0.0917
vn 1.0000 0.0001 -0.0001
vn -1.0000 0.0003 -0.0000
vn 0.0017 -0.9995 0.0326
vn 0.0145 0.3354 -0.9419
vn 0.0146 0.3398 0.9404
vn -0.0196 -0.4572 0.8891
s 0
f 3//1 6//1 4//1
f 1//2 4//2 5//2
f 1//3 2//3 3//3
f 5//4 4//4 6//4
f 6//5 3//5 2//5
f 4//6 1//6 3//6
f 1//7 5//7 2//7
f 5//8 6//8 2//8
