# Blender 4.0.0
# www.blender.org
o decimated_mesh
v 0.177805 0.138417 0.118318
v 0.125157 0.134745 0.119772
v 0.177976 0.109489 0.121494
v 0.125506 0.109893 0.119786
v 0.132281 0.140549 0.111962
v 0.124508 0.109107 0.040671
v 0.177781 0.131274 0.040838
v 0.177781 0.139223 0.040838
v 0.126973 0.138941 0.040827
vn -0.0325 0.0001 0.9995
vn -0.0055 0.9999 0.0104
vn 0.3733 -0.8954 -0.2427
vn -0.6129 0.7897 0.0279
vn -0.9964 0.0824 -0.0185
vn -0.0414 0.8196 0.5714
vn 1.0000 0.0058 -0.0008
vn 1.0000 -0.0000 -0.0003
vn 0.0198 0.1093 0.9938
vn 0.0504 0.9984 -0.0263
vn -0.0002 -0.0000 1.0000
vn -0.0010 -0.0051 1.0000
vn -0.0080 -0.9999 0.0100
vn -0.9998 -0.0140 0.0128
vn 1.0000 -0.0000 -0.0024
vn 1.0000 0.0059 -0.0002
vn -0.0002 -0.0052 1.0000
vn -0.0031 -0.0000 1.0000
vn 0.0453 0.9989 0.0104
vn -0.0055 0.9997 -0.0222
s 0
f 3//1 2//1 4//1
f 9//2 1//2 8//2
f 3//3 6//3 7//3
f 5//4 9//4 2//4
f 6//5 2//5 9//5
f 2//6 1//6 5//6
f 3//7 7//7 1//7
f 7//8 8//8 1//8
f 3//9 1//9 2//9
f 9//10 5//10 1//10
f 9//11 7//11 8//11
f 7//12 9//12 6//12
f 6//13 3//13 4//13
f 6//14 4//14 2//14
f 7//15 8//15 3//15
f 8//16 1//16 3//16
f 9//17 6//17 8//17
f 8//18 6//18 7//18
f 5//19 1//19 8//19
f 9//20 5//20 8//20
