# Blender 4.0.0
# www.blender.org
o Fridge_1_Mesh_77a1be5e_3_collision_16
v 0.849411 -0.019684 0.127927
v 0.849411 -0.019684 0.109714
v 0.847208 -0.019684 0.128022
v 0.849411 -0.025400 0.127927
v 0.849411 -0.057770 0.109714
v 0.500177 -0.023645 0.108764
v 0.827806 -0.019684 0.109714
v 0.847208 -0.118790 0.128001
v 0.849411 -0.122129 0.127910
v 0.849411 -0.036310 0.127925
v 0.691353 -0.019684 0.126770
v 0.697252 -0.122129 0.126796
v 0.819704 -0.109614 0.127782
v 0.828872 -0.118790 0.127854
v 0.849411 -0.122129 0.111177
v 0.500177 -0.053949 0.108764
v 0.379785 -0.023835 0.108764
v 0.123439 -0.019684 0.110308
v 0.847208 -0.122129 0.127999
v 0.569611 -0.122129 0.125771
v 0.141490 -0.019684 0.122344
v 0.141490 -0.036310 0.122342
v 0.746360 -0.122129 0.127190
v 0.500177 -0.122129 0.115130
v 0.123439 -0.121578 0.110308
v 0.138221 -0.121578 0.110308
v 0.462297 -0.053969 0.108764
v 0.195503 -0.024898 0.108764
v 0.123368 -0.019684 0.111965
v 0.564992 -0.122129 0.125733
v 0.132322 -0.019684 0.121971
v 0.132322 -0.027144 0.121971
v 0.132322 -0.036310 0.121969
v 0.132322 -0.121578 0.121852
v 0.500177 -0.122129 0.123324
v 0.123439 -0.121578 0.111965
v 0.123368 -0.054641 0.111965
v 0.195503 -0.051743 0.108764
v 0.279009 -0.053909 0.108764
v 0.288177 -0.053929 0.108764
v 0.295426 -0.053939 0.108764
v 0.315610 -0.053959 0.108764
v 0.331885 -0.053969 0.108764
v 0.352282 -0.053979 0.108764
v 0.434793 -0.053979 0.108764
v 0.125571 -0.019684 0.119090
v 0.560372 -0.122129 0.125571
v 0.125571 -0.027144 0.119090
v 0.125571 -0.121578 0.119079
vn -0.0000 1.0000 -0.0000
vn 0.0427 -0.0000 0.9991
vn 1.0000 -0.0000 -0.0000
vn 0.0027 -0.0000 -1.0000
vn -0.0000 0.2332 -0.9724
vn 0.0407 -0.0002 0.9992
vn 0.0423 -0.0002 0.9991
vn -0.0080 -0.0002 1.0000
vn 0.0025 -0.0227 -0.9997
vn -0.0000 -0.0000 -1.0000
vn -0.0004 0.2660 -0.9640
vn -0.0008 0.3046 -0.9525
vn -0.0080 -0.0005 1.0000
vn -0.0080 -0.0006 1.0000
vn 0.0402 -0.0006 0.9992
vn -0.0000 -1.0000 -0.0000
vn -0.0000 -1.0000 -0.0004
vn -0.0000 -1.0000 -0.0001
vn -0.0000 -1.0000 0.0086
vn -0.0080 -0.0001 1.0000
vn -0.0007 -0.9982 -0.0606
vn -0.0000 -0.8445 -0.5356
vn 0.0012 -0.0292 -0.9996
vn -0.0000 -0.0229 -0.9997
vn -0.0015 0.2644 -0.9644
vn -0.0214 -0.0000 -0.9998
vn -0.9991 -0.0000 -0.0429
vn -0.0082 -0.0008 1.0000
vn -0.0407 -0.0000 0.9992
vn -0.0406 -0.0001 0.9992
vn -0.0407 -0.0002 0.9992
vn -0.0407 -0.0014 0.9992
vn -0.0090 -0.0048 0.9999
vn -0.0015 -1.0000 -0.0000
vn -1.0000 -0.0011 -0.0000
vn -0.0006 -0.0215 -0.9998
vn -0.0000 -0.0227 -0.9997
vn -0.0000 -0.0228 -0.9997
vn -0.9554 -0.0000 0.2954
vn -0.0017 -0.9988 0.0487
vn -0.3924 -0.0000 0.9198
vn -0.3924 -0.0001 0.9198
vn -0.3915 -0.0002 0.9202
vn -0.3799 -0.0013 0.9250
vn -0.0015 -1.0000 0.0037
vn -0.0017 -0.9990 0.0449
vn -0.0015 -1.0000 0.0004
vn -0.9579 -0.0010 0.2871
vn -0.9553 -0.0000 0.2955
s 0
f 1//1 2//1 7//1
f 1//1 7//1 18//1
f 1//1 18//1 29//1
f 1//1 29//1 46//1
f 1//1 46//1 31//1
f 1//1 31//1 21//1
f 1//1 21//1 11//1
f 1//1 11//1 3//1
f 1//2 3//2 4//2
f 1//3 4//3 10//3
f 1//3 10//3 9//3
f 1//3 9//3 15//3
f 1//3 15//3 5//3
f 1//3 5//3 2//3
f 2//4 5//4 16//4
f 2//4 16//4 6//4
f 2//5 6//5 7//5
f 3//6 8//6 9//6
f 3//7 9//7 10//7
f 3//7 10//7 4//7
f 3//8 11//8 12//8
f 3//8 12//8 13//8
f 3//8 13//8 14//8
f 3//8 14//8 8//8
f 5//9 15//9 16//9
f 6//10 16//10 27//10
f 6//10 27//10 45//10
f 6//10 45//10 44//10
f 6//10 44//10 43//10
f 6//10 43//10 42//10
f 6//10 42//10 41//10
f 6//10 41//10 40//10
f 6//10 40//10 39//10
f 6//10 39//10 38//10
f 6//10 38//10 28//10
f 6//10 28//10 17//10
f 6//11 17//11 7//11
f 7//12 17//12 18//12
f 8//13 14//13 23//13
f 8//14 23//14 19//14
f 8//15 19//15 9//15
f 9//16 19//16 23//16
f 9//17 23//17 12//17
f 9//18 12//18 20//18
f 9//19 20//19 30//19
f 9//16 30//16 47//16
f 9//16 47//16 35//16
f 9//16 35//16 24//16
f 9//16 24//16 15//16
f 11//8 20//8 12//8
f 11//20 21//20 22//20
f 11//8 22//8 20//8
f 12//13 23//13 14//13
f 12//8 14//8 13//8
f 15//21 24//21 25//21
f 15//22 25//22 26//22
f 15//23 26//23 16//23
f 16//24 26//24 27//24
f 17//25 28//25 18//25
f 18//26 28//26 38//26
f 18//26 38//26 25//26
f 18//27 25//27 37//27
f 18//27 37//27 29//27
f 20//28 22//28 30//28
f 21//29 31//29 32//29
f 21//30 32//30 22//30
f 22//31 32//31 33//31
f 22//32 33//32 34//32
f 22//33 34//33 30//33
f 24//34 35//34 36//34
f 24//34 36//34 25//34
f 25//35 36//35 37//35
f 25//36 38//36 39//36
f 25//37 39//37 40//37
f 25//37 40//37 41//37
f 25//38 41//38 42//38
f 25//38 42//38 43//38
f 25//38 43//38 44//38
f 25//38 44//38 45//38
f 25//38 45//38 26//38
f 26//24 45//24 27//24
f 29//39 37//39 48//39
f 29//39 48//39 46//39
f 30//40 34//40 47//40
f 31//41 46//41 48//41
f 31//41 48//41 32//41
f 32//42 48//42 49//42
f 32//43 49//43 33//43
f 33//44 49//44 34//44
f 34//45 49//45 35//45
f 34//46 35//46 47//46
f 35//47 49//47 36//47
f 36//48 49//48 37//48
f 37//49 49//49 48//49
