# Blender 4.0.0
# www.blender.org
o decimated_mesh
v 0.799262 -0.233012 -0.008530
v 0.874426 -0.282237 0.034835
v 0.874425 -0.237849 0.002701
v 0.874425 -0.237849 -0.006015
v 0.874425 -0.247138 -0.005966
v 0.108086 -0.275802 0.025370
v 0.163000 -0.237969 -0.012216
v 0.874425 -0.307321 0.006115
v 0.874425 -0.292939 0.037197
v 0.163000 -0.237969 -0.000511
v 0.483906 -0.288335 0.034053
v 0.108082 -0.247354 -0.012504
v 0.108093 -0.299340 0.030525
v 0.108090 -0.247033 -0.000757
v 0.108091 -0.289502 0.030506
v 0.332410 -0.308716 0.004192
v 0.108081 -0.309239 0.004387
v 0.874425 -0.309015 0.020377
v 0.874425 -0.306996 0.034458
v 0.108097 -0.308061 0.026434
vn -0.0069 -0.1913 0.9815
vn -0.0080 0.3958 0.9183
vn 0.0085 -0.1346 -0.9909
vn -0.0094 0.0019 1.0000
vn 1.0000 -0.0000 -0.0000
vn -0.0053 0.2155 0.9765
vn -0.0089 -0.4247 0.9053
vn -0.1136 0.6680 0.7355
vn -0.1683 0.9854 -0.0269
vn 0.0331 -0.0052 -0.9994
vn 0.0058 -0.0033 -1.0000
vn 0.0642 0.9979 -0.0000
vn 1.0000 -0.0001 -0.0002
vn -0.0099 0.3510 0.9363
vn -0.0054 0.5699 0.8217
vn -0.0038 0.5864 0.8100
vn -0.0084 -0.0325 0.9994
vn 0.0022 -0.9956 -0.0935
vn 0.0030 -0.9930 -0.1180
vn -0.1629 0.9866 -0.0000
vn 0.0084 -0.2340 -0.9722
vn 0.0040 -0.1968 -0.9804
vn -0.0002 -0.2633 -0.9647
vn -0.0078 1.0000 -0.0000
vn -0.0020 0.9136 0.4067
vn -1.0000 -0.0008 0.0008
vn -1.0000 -0.0002 0.0005
vn -1.0000 -0.0001 0.0005
vn 1.0000 -0.0007 -0.0006
vn -0.0008 -0.9986 0.0534
vn -0.0001 -0.9899 0.1419
vn 1.0000 -0.0000 0.0001
vn 0.0084 -0.1968 -0.9804
vn 0.0041 -0.2486 -0.9686
vn 1.0000 -0.0001 -0.0000
vn 1.0000 -0.0002 -0.0007
s 0
f 13//1 19//1 9//1
f 6//2 11//2 2//2
f 1//3 5//3 12//3
f 13//4 11//4 15//4
f 18//5 8//5 2//5
f 11//6 9//6 2//6
f 20//7 19//7 13//7
f 10//8 14//8 6//8
f 14//9 7//9 12//9
f 5//10 1//10 4//10
f 7//11 1//11 12//11
f 3//12 4//12 1//12
f 12//13 6//13 17//13
f 15//14 11//14 6//14
f 6//15 2//15 10//15
f 2//16 3//16 10//16
f 13//17 9//17 11//17
f 8//5 5//5 2//5
f 5//5 4//5 3//5
f 2//5 5//5 3//5
f 2//5 9//5 18//5
f 9//5 19//5 18//5
f 18//18 17//18 16//18
f 8//19 18//19 16//19
f 14//20 10//20 7//20
f 12//21 5//21 16//21
f 8//22 16//22 5//22
f 16//23 17//23 12//23
f 7//24 10//24 1//24
f 10//25 3//25 1//25
f 17//26 20//26 13//26
f 13//27 15//27 17//27
f 15//28 6//28 17//28
f 6//29 12//29 14//29
f 17//30 18//30 20//30
f 18//31 19//31 20//31
f 2//32 9//32 19//32
f 2//5 19//5 18//5
f 2//5 5//5 4//5
f 2//5 4//5 3//5
f 8//33 12//33 5//33
f 8//34 16//34 12//34
f 17//35 14//35 6//35
f 17//36 12//36 14//36
