# Blender 4.0.0
# www.blender.org
o Fridge_1_Mesh_77a1be5e_3_collision_21
v 0.500178 -0.228219 0.040830
v 0.500178 -0.228221 0.047798
v 0.500178 -0.200103 0.040830
v 0.510331 -0.228219 0.040830
v 0.500178 -0.228227 0.084458
v 0.544789 -0.228216 0.056968
v 0.572294 -0.228216 0.084458
v 0.581462 -0.228216 0.093627
v 0.500178 -0.200103 0.047798
v 0.508116 -0.200100 0.040830
v 0.544789 -0.228213 0.040830
v 0.508116 -0.228227 0.093627
v 0.500178 -0.228227 0.093627
v 0.636472 -0.228202 0.066131
v 0.746429 -0.228188 0.093627
v 0.814483 -0.228133 0.102784
v 0.500178 -0.200105 0.075294
v 0.663915 -0.200047 0.102784
v 0.588415 -0.200083 0.040830
v 0.757782 -0.228177 0.040830
v 0.814483 -0.228169 0.047798
v 0.500178 -0.228219 0.094864
v 0.737261 -0.228188 0.084458
v 0.810607 -0.228177 0.093627
v 0.508116 -0.228158 0.102784
v 0.814483 -0.228158 0.097502
v 0.814483 -0.200174 0.102784
v 0.500178 -0.200108 0.093627
v 0.691420 -0.200067 0.102784
v 0.814483 -0.200050 0.093627
v 0.814483 -0.200048 0.080583
v 0.814483 -0.200039 0.040830
v 0.753382 -0.200050 0.040830
v 0.709756 -0.200059 0.040830
v 0.682251 -0.200064 0.040830
v 0.500178 -0.200743 0.102784
v 0.773934 -0.228174 0.040830
v 0.803623 -0.228169 0.040830
v 0.814483 -0.228166 0.040830
v 0.814483 -0.228174 0.084458
v 0.500178 -0.228158 0.102784
v 0.814483 -0.228174 0.093627
v 0.709756 -0.200081 0.102784
vn -1.0000 -0.0000 -0.0000
vn -0.9993 0.0368 -0.0000
vn -1.0000 -0.0042 -0.0000
vn -1.0000 0.0006 -0.0000
vn -0.0000 -0.0000 -1.0000
vn -0.0000 -1.0000 -0.0004
vn 0.0002 -1.0000 -0.0002
vn -0.0003 1.0000 -0.0000
vn -0.0000 -1.0000 -0.0000
vn 0.0002 -1.0000 -0.0001
vn 0.0002 -1.0000 0.0048
vn 0.0002 -1.0000 0.0052
vn -0.0004 1.0000 0.0001
vn -0.0002 1.0000 -0.0003
vn -0.0000 -1.0000 0.0067
vn 0.0001 -1.0000 0.0073
vn 0.0002 -1.0000 0.0047
vn 0.0001 -1.0000 0.0076
vn 0.0003 -1.0000 0.0047
vn 1.0000 -0.0000 -0.0000
vn 1.0000 0.0025 -0.0000
vn 0.9999 -0.0116 -0.0000
vn -0.0000 -0.0000 1.0000
vn 0.0007 0.9999 0.0112
vn -0.0000 1.0000 0.0002
vn -0.0042 0.9976 0.0691
vn 0.0003 -1.0000 -0.0004
vn 0.0004 -1.0000 -0.0002
vn 0.0002 -1.0000 -0.0003
vn -0.0000 -1.0000 0.0077
vn 0.0007 -1.0000 -0.0000
vn 0.0007 -1.0000 0.0043
vn 0.0009 0.9999 0.0136
vn 0.0008 0.9999 0.0119
s 0
f 1//1 2//1 5//1
f 1//2 5//2 13//2
f 1//3 13//3 22//3
f 1//4 22//4 41//4
f 1//1 41//1 36//1
f 1//1 36//1 28//1
f 1//1 28//1 17//1
f 1//1 17//1 9//1
f 1//1 9//1 3//1
f 1//5 3//5 10//5
f 1//5 10//5 19//5
f 1//5 19//5 35//5
f 1//5 35//5 34//5
f 1//5 34//5 33//5
f 1//5 33//5 32//5
f 1//5 32//5 39//5
f 1//5 39//5 38//5
f 1//5 38//5 37//5
f 1//5 37//5 20//5
f 1//5 20//5 11//5
f 1//5 11//5 4//5
f 1//6 4//6 2//6
f 2//7 4//7 6//7
f 2//7 6//7 7//7
f 2//7 7//7 8//7
f 2//7 8//7 5//7
f 3//8 9//8 10//8
f 4//7 11//7 6//7
f 5//9 12//9 13//9
f 5//10 8//10 12//10
f 6//7 11//7 14//7
f 6//7 14//7 7//7
f 7//7 14//7 8//7
f 8//7 14//7 15//7
f 8//11 15//11 16//11
f 8//12 16//12 12//12
f 9//13 17//13 18//13
f 9//8 18//8 10//8
f 10//14 18//14 19//14
f 11//7 20//7 21//7
f 11//7 21//7 14//7
f 12//15 22//15 13//15
f 12//16 16//16 22//16
f 14//7 21//7 23//7
f 14//7 23//7 15//7
f 15//7 23//7 21//7
f 15//7 21//7 24//7
f 15//17 24//17 16//17
f 16//18 25//18 22//18
f 16//19 24//19 26//19
f 16//20 26//20 42//20
f 16//21 42//21 40//21
f 16//20 40//20 21//20
f 16//22 21//22 39//22
f 16//20 39//20 32//20
f 16//20 32//20 31//20
f 16//20 31//20 30//20
f 16//20 30//20 27//20
f 16//23 27//23 43//23
f 16//23 43//23 29//23
f 16//23 29//23 18//23
f 16//23 18//23 36//23
f 16//23 36//23 41//23
f 16//23 41//23 25//23
f 17//13 28//13 18//13
f 18//24 29//24 30//24
f 18//25 30//25 31//25
f 18//25 31//25 32//25
f 18//14 32//14 33//14
f 18//14 33//14 34//14
f 18//14 34//14 35//14
f 18//14 35//14 19//14
f 18//26 28//26 36//26
f 20//7 37//7 21//7
f 21//27 38//27 39//27
f 21//28 40//28 24//28
f 21//29 37//29 38//29
f 22//30 25//30 41//30
f 24//31 40//31 42//31
f 24//32 42//32 26//32
f 27//33 30//33 43//33
f 29//34 43//34 30//34
