# Blender 4.0.0
# www.blender.org
o decimated_mesh
v 0.860024 0.125981 0.102573
v 0.857273 0.125710 0.040814
v 0.866585 -0.019684 0.102827
v 0.833182 -0.019684 0.040830
v 0.832416 -0.019678 0.102860
v 0.867186 -0.019684 0.040830
vn -0.9865 0.1634 -0.0122
vn -0.0000 -0.0001 -1.0000
vn 0.9967 0.0680 -0.0447
vn 0.0009 0.0018 1.0000
vn -0.9816 0.1861 0.0429
vn -0.0000 -1.0000 0.0001
vn -0.0002 -1.0000 -0.0000
vn 0.9989 0.0450 0.0097
vn -0.0000 -1.0000 -0.0000
vn -0.0002 -1.0000 0.0001
s 0
f 2//1 4//1 5//1
f 2//2 6//2 4//2
f 1//3 6//3 2//3
f 1//4 5//4 3//4
f 1//5 2//5 5//5
f 5//6 4//6 6//6
f 3//7 5//7 6//7
f 1//8 3//8 6//8
f 4//9 6//9 3//9
f 4//10 3//10 5//10
