# Blender 4.0.0
# www.blender.org
o Fridge_1_Mesh_77a1be5e_3_collision_25
v 0.500178 -0.121581 0.123327
v 0.500178 -0.196166 0.124316
v 0.500178 -0.121581 0.115130
v 0.177520 -0.121581 0.121720
v 0.500178 -0.196166 0.111508
v 0.177520 -0.196166 0.121856
v 0.187279 -0.121581 0.112612
v 0.177520 -0.121581 0.112534
v 0.495125 -0.196166 0.111495
v 0.177520 -0.196166 0.111053
vn 1.0000 -0.0000 -0.0000
vn -0.0000 1.0000 -0.0000
vn -0.0050 0.0133 0.9999
vn -0.0076 0.0018 1.0000
vn -0.0000 -1.0000 -0.0000
vn 0.0080 0.0485 -0.9988
vn -1.0000 -0.0000 -0.0000
vn 0.0026 0.0249 -0.9997
vn 0.0080 0.0482 -0.9988
vn 0.0014 0.0199 -0.9998
s 0
f 1//1 2//1 5//1
f 1//1 5//1 3//1
f 1//2 3//2 7//2
f 1//2 7//2 8//2
f 1//2 8//2 4//2
f 1//3 4//3 2//3
f 2//4 4//4 6//4
f 2//5 6//5 10//5
f 2//5 10//5 9//5
f 2//5 9//5 5//5
f 3//6 5//6 7//6
f 4//7 8//7 10//7
f 4//7 10//7 6//7
f 5//8 9//8 8//8
f 5//9 8//9 7//9
f 8//10 9//10 10//10
