# Blender 4.0.0
# www.blender.org
o decimated_mesh
v 0.864173 -0.079063 0.040830
v 0.875172 -0.079032 -0.005495
v 0.855661 -0.079063 0.040830
v 0.857832 -0.079097 -0.003465
v 0.863813 -0.146297 -0.014331
v 0.853462 -0.147763 -0.017516
v 0.853559 -0.228125 0.040845
v 0.853668 -0.218446 -0.017260
v 0.853518 -0.238400 -0.005587
v 0.874425 -0.237839 0.002698
v 0.862987 -0.214431 -0.014843
v 0.865686 -0.224065 0.040799
v 0.874431 -0.237832 -0.006034
vn 0.6082 -0.0014 -0.7938
vn -0.0047 -0.5049 -0.8632
vn 0.9729 0.0101 0.2310
vn 0.2522 -0.0028 -0.9677
vn 0.3228 -0.1911 -0.9270
vn 1.0000 -0.0047 0.0006
vn 0.2945 -0.8752 0.3839
vn -0.0000 -1.0000 0.0008
vn 0.0038 -1.0000 0.0002
vn -0.0000 -0.0002 1.0000
vn 0.0038 -0.0000 1.0000
vn -0.9997 0.0141 0.0211
vn -0.9961 0.0734 -0.0489
vn 1.0000 0.0029 0.0024
vn 1.0000 -0.0072 0.0007
vn -0.1145 0.2061 -0.9718
vn 0.6147 -0.0002 -0.7888
vn 0.9752 0.0068 0.2212
vn 0.2831 0.0778 -0.9559
vn 0.2936 0.0036 -0.9559
vn 0.0272 -0.9996 -0.0008
vn -0.0593 -0.9746 0.2158
vn 0.0038 -0.0002 1.0000
vn -0.0000 0.0001 1.0000
vn 1.0000 0.0005 -0.0010
vn 0.9998 0.0030 0.0180
vn -0.0000 -1.0000 -0.0007
vn 0.0039 -1.0000 0.0010
s 0
f 13//1 11//1 5//1
f 9//2 8//2 13//2
f 12//3 2//3 1//3
f 11//4 8//4 6//4
f 13//5 8//5 11//5
f 13//6 2//6 10//6
f 10//7 12//7 7//7
f 4//8 1//8 3//8
f 1//9 4//9 2//9
f 12//10 1//10 3//10
f 3//11 7//11 12//11
f 7//12 3//12 6//12
f 3//13 4//13 6//13
f 6//14 7//14 8//14
f 7//15 9//15 8//15
f 4//16 2//16 6//16
f 5//17 2//17 13//17
f 12//18 10//18 2//18
f 6//19 2//19 5//19
f 5//20 11//20 6//20
f 13//21 10//21 9//21
f 9//22 10//22 7//22
f 12//23 1//23 7//23
f 1//24 3//24 7//24
f 6//25 7//25 9//25
f 6//26 9//26 8//26
f 2//27 1//27 3//27
f 2//28 3//28 4//28
