# Blender 4.0.0
# www.blender.org
o decimated_mesh
v 0.814483 -0.122129 0.127736
v 0.814483 -0.122129 0.119785
v 0.814483 -0.200168 0.102784
v 0.814483 -0.228128 0.102784
v 0.500178 -0.122129 0.115129
v 0.500178 -0.228508 0.101875
v 0.500178 -0.122129 0.123327
v 0.500219 -0.224085 0.123987
v 0.814484 -0.225926 0.126309
vn -0.0000 1.0000 -0.0000
vn -0.0072 -0.9806 0.1961
vn -0.0140 0.0065 0.9999
vn 0.0009 -0.9956 0.0932
vn 1.0000 -0.0000 -0.0000
vn 0.0145 0.2128 -0.9770
vn -1.0000 -0.0004 0.0020
vn -1.0000 -0.0000 -0.0000
vn -0.0075 -0.0137 0.9999
vn 0.0029 -0.0000 -1.0000
vn -0.0083 0.1236 -0.9923
s 0
f 2//1 7//1 1//1
f 8//2 6//2 9//2
f 7//3 8//3 1//3
f 6//4 4//4 9//4
f 9//5 3//5 1//5
f 3//6 5//6 2//6
f 2//1 5//1 7//1
f 8//7 7//7 6//7
f 7//8 5//8 6//8
f 8//9 9//9 1//9
f 6//10 3//10 4//10
f 9//5 4//5 3//5
f 3//5 2//5 1//5
f 3//11 6//11 5//11
f 9//5 2//5 1//5
f 3//5 2//5 9//5
