# Blender 4.0.0
# www.blender.org
o decimated_mesh
v 0.178443 -0.121068 0.121063
v 0.125682 -0.224580 0.119771
v 0.177514 -0.226196 0.119832
v 0.125528 -0.121590 0.119759
v 0.157106 -0.139434 0.040830
v 0.132930 -0.121592 0.040830
v 0.177520 -0.200146 0.040830
v 0.123953 -0.121592 0.040830
v 0.177520 -0.228277 0.040830
v 0.126054 -0.226726 0.040834
vn -0.0312 -0.9991 0.0270
vn -0.0000 -1.0000 -0.0000
vn 0.5618 0.7613 -0.3237
vn 0.9014 0.3031 -0.3091
vn -0.9998 -0.0200 -0.0042
vn -0.0015 -0.0117 0.9999
vn 1.0000 -0.0000 0.0001
vn 1.0000 -0.0088 -0.0028
vn -0.0301 -0.9992 0.0263
vn 0.0098 -1.0000 0.0009
vn 0.0001 -0.0000 1.0000
vn -0.0000 -0.0000 1.0000
vn -0.0000 -0.0000 -1.0000
vn -0.9998 -0.0015 0.0200
vn -0.0246 0.0001 0.9997
vn 1.0000 -0.0088 0.0003
vn 0.9999 -0.0000 -0.0115
vn -0.0000 -1.0000 0.0065
vn 0.0099 -1.0000 -0.0002
s 0
f 10//1 3//1 2//1
f 6//2 4//2 8//2
f 1//3 5//3 6//3
f 1//4 7//4 5//4
f 2//5 8//5 10//5
f 1//6 2//6 3//6
f 9//7 7//7 3//7
f 7//8 1//8 3//8
f 10//9 9//9 3//9
f 1//10 4//10 6//10
f 7//11 10//11 9//11
f 10//12 5//12 8//12
f 8//13 6//13 5//13
f 5//11 10//11 7//11
f 2//14 4//14 8//14
f 1//15 4//15 2//15
f 3//16 9//16 1//16
f 9//17 7//17 1//17
f 6//18 1//18 8//18
f 8//19 1//19 4//19
f 10//11 9//11 8//11
f 8//12 7//12 5//12
f 8//12 9//12 7//12
