# Blender 4.0.0
# www.blender.org
o decimated_mesh
v 0.132914 0.110441 0.040830
v 0.130143 0.110401 -0.010201
v 0.123915 0.110441 0.040830
v 0.165015 0.040593 0.000312
v 0.164985 0.034990 -0.022159
v 0.107828 0.110475 -0.011167
v 0.159464 0.027858 0.040830
v 0.165581 -0.051185 0.040931
v 0.141444 0.027858 -0.023206
v 0.108247 -0.079050 -0.011616
v 0.125471 -0.080070 0.041007
v 0.140815 -0.040395 -0.022825
v 0.130291 -0.079009 -0.010645
v 0.165085 -0.047297 -0.021363
vn 0.3230 0.0023 0.9464
vn -0.0031 0.1552 -0.9879
vn 0.8964 0.4404 -0.0490
vn 0.8957 0.4311 -0.1087
vn -0.0000 1.0000 -0.0008
vn 0.9843 0.0764 0.1589
vn 0.0028 -0.9998 -0.0203
vn 0.0009 0.0013 1.0000
vn 0.0584 -0.0061 -0.9983
vn 0.5840 -0.8109 0.0379
vn 0.9553 0.0075 -0.2955
vn 0.0424 -0.3110 -0.9494
vn 0.3339 -0.0015 0.9426
vn 0.0433 0.1613 -0.9860
vn 0.0033 1.0000 -0.0004
vn 1.0000 0.0012 -0.0017
vn 1.0000 0.0027 -0.0078
vn -0.0000 -0.0000 1.0000
vn 0.0022 0.0009 1.0000
vn 0.0473 -0.0096 -0.9988
vn 0.6639 -0.7460 -0.0518
vn 0.9285 0.2985 0.2210
vn 0.9504 0.0028 -0.3110
vn -0.0261 -0.2942 -0.9554
vn 0.0013 0.0009 1.0000
vn -0.0000 0.0009 1.0000
vn 0.9504 0.0075 -0.3109
vn 0.0417 -0.3607 -0.9317
vn 0.9553 0.0028 -0.2955
vn -0.0173 -0.2650 -0.9641
vn 1.0000 0.0011 -0.0079
vn 1.0000 0.0050 -0.0026
vn 0.0052 0.0017 1.0000
vn 0.0033 1.0000 -0.0010
vn -0.0000 1.0000 0.0006
vn 0.0574 -0.0096 -0.9983
vn 0.0432 0.1759 -0.9835
vn 0.0003 0.1443 -0.9895
vn 0.0462 -0.0060 -0.9989
s 0
f 9//1 10//1 12//1
f 9//2 2//2 5//2
f 1//3 4//3 2//3
f 2//4 4//4 5//4
f 3//5 1//5 2//5
f 7//6 8//6 4//6
f 10//7 13//7 11//7
f 8//8 7//8 11//8
f 9//9 14//9 12//9
f 13//10 8//10 11//10
f 6//11 3//11 11//11
f 12//12 13//12 10//12
f 10//13 9//13 6//13
f 9//14 6//14 2//14
f 6//15 3//15 2//15
f 14//16 5//16 4//16
f 4//17 8//17 14//17
f 1//18 3//18 7//18
f 3//19 11//19 7//19
f 9//20 5//20 14//20
f 13//21 14//21 8//21
f 4//22 1//22 7//22
f 6//23 11//23 10//23
f 12//24 14//24 13//24
f 8//25 1//25 11//25
f 1//26 3//26 11//26
f 3//27 11//27 10//27
f 14//28 13//28 10//28
f 3//29 10//29 6//29
f 12//30 14//30 10//30
f 14//31 5//31 8//31
f 5//32 4//32 8//32
f 7//33 1//33 8//33
f 2//34 6//34 1//34
f 6//35 3//35 1//35
f 12//36 5//36 14//36
f 2//37 5//37 6//37
f 5//38 9//38 6//38
f 5//39 12//39 9//39
