# Blender 4.0.0
# www.blender.org
o decimated_mesh
v 0.819244 -0.019722 0.107421
v 0.816815 -0.019684 0.127776
v 0.815817 0.125441 0.120929
v 0.864595 -0.019703 0.114865
v 0.862728 0.125358 0.102031
v 0.861893 0.125347 0.126897
vn 0.1614 -0.0849 -0.9832
vn -0.3724 0.0773 -0.9248
vn 0.9993 0.0158 0.0336
vn -0.1282 0.0459 0.9907
vn 0.0001 -1.0000 0.0019
vn -0.9929 -0.0124 -0.1185
vn 0.0020 1.0000 0.0005
vn 0.2601 -0.0750 0.9627
s 0
f 1//1 5//1 4//1
f 3//2 5//2 1//2
f 4//3 5//3 6//3
f 2//4 6//4 3//4
f 4//5 2//5 1//5
f 3//6 1//6 2//6
f 5//7 3//7 6//7
f 2//8 4//8 6//8
