# Blender 4.0.0
# www.blender.org
o decimated_mesh
v 0.147968 0.134016 -0.008104
v 0.847317 0.131482 -0.001103
v 0.147966 0.160288 -0.009783
v 0.847323 0.150502 -0.006187
v 0.847320 0.128945 0.040830
v 0.147967 0.130685 0.040830
v 0.147967 0.139443 0.040830
v 0.485047 0.159181 0.001872
v 0.847319 0.140214 0.040820
vn 0.0281 0.9765 0.2137
vn -0.0029 -0.9977 -0.0679
vn -0.0101 0.9246 0.3808
vn 1.0000 -0.0000 -0.0000
vn 1.0000 0.0001 -0.0000
vn 0.0087 -0.2583 -0.9660
vn 1.0000 -0.0003 -0.0000
vn 1.0000 0.0001 -0.0001
vn -0.0025 -0.9982 -0.0604
vn 0.0042 -0.0638 -0.9980
vn -0.0010 0.8954 0.4452
vn -0.0000 0.0009 1.0000
vn -0.0000 -0.0000 1.0000
vn 0.0149 0.9396 -0.3419
vn 1.0000 -0.0003 -0.0001
vn 1.0000 0.0001 0.0001
s 0
f 9//1 4//1 8//1
f 2//2 6//2 1//2
f 7//3 8//3 3//3
f 1//4 7//4 6//4
f 3//5 7//5 1//5
f 4//6 2//6 1//6
f 4//7 9//7 2//7
f 9//8 5//8 2//8
f 2//9 5//9 6//9
f 1//10 3//10 4//10
f 7//11 9//11 8//11
f 5//12 9//12 7//12
f 7//13 6//13 5//13
f 4//14 3//14 8//14
f 1//5 3//5 6//5
f 6//4 3//4 7//4
f 5//15 2//15 4//15
f 9//16 5//16 4//16
