# Blender 4.0.0
# www.blender.org
o decimated_mesh
v 0.862352 0.139596 0.040732
v 0.892425 0.156204 0.008280
v 0.846806 0.139807 0.040844
v 0.892290 0.156203 -0.004803
v 0.847320 0.156204 0.002658
v 0.864151 0.066593 0.040830
v 0.892425 0.066593 0.007374
v 0.846643 0.155695 -0.006421
v 0.855656 0.066593 0.040830
v 0.892115 0.066583 -0.005166
v 0.857210 0.066617 -0.003137
vn 0.0354 0.0040 -0.9994
vn -0.9820 0.1779 0.0632
vn 0.0153 0.9187 0.3947
vn 0.7352 -0.0068 0.6778
vn -0.9922 -0.1199 -0.0351
vn 0.9999 0.0001 -0.0103
vn -0.0091 0.9984 -0.0553
vn -0.0000 1.0000 -0.0001
vn -0.0580 -0.0437 -0.9974
vn -0.0519 0.9077 0.4164
vn 0.7636 0.0197 0.6454
vn -0.9922 -0.1190 -0.0366
vn 0.9997 -0.0019 -0.0247
vn 0.0009 1.0000 -0.0009
vn 0.0005 1.0000 0.0004
vn -0.0000 1.0000 0.0005
vn -0.0000 0.0014 1.0000
vn 0.0072 0.0007 1.0000
vn -0.0490 0.9180 0.3936
vn -0.0000 -0.0002 1.0000
vn 0.0072 0.0015 1.0000
vn 0.0153 0.8842 0.4668
vn 0.7285 0.0189 0.6848
vn 0.7638 -0.0065 0.6455
vn 0.0010 1.0000 0.0006
vn -0.0000 1.0000 -0.0002
vn -0.0010 1.0000 -0.0008
s 0
f 10//1 8//1 4//1
f 5//2 8//2 3//2
f 1//3 5//3 3//3
f 1//4 7//4 2//4
f 3//5 11//5 9//5
f 7//6 4//6 2//6
f 4//7 8//7 5//7
f 5//8 2//8 4//8
f 11//9 8//9 10//9
f 1//10 2//10 5//10
f 1//11 6//11 7//11
f 3//12 8//12 11//12
f 10//13 4//13 7//13
f 11//14 7//14 10//14
f 7//15 11//15 6//15
f 6//16 11//16 9//16
f 6//17 1//17 9//17
f 9//18 1//18 3//18
f 2//19 5//19 3//19
f 9//20 6//20 3//20
f 6//21 1//21 3//21
f 1//22 2//22 3//22
f 1//23 6//23 2//23
f 6//24 7//24 2//24
f 10//25 11//25 9//25
f 10//26 9//26 6//26
f 10//27 6//27 7//27
