# Blender 4.0.0
# www.blender.org
o decimated_mesh
v 0.485054 0.226892 0.004795
v 0.485059 0.223021 0.030825
v 0.485057 0.150363 -0.008869
v 0.892375 0.223597 0.035221
v 0.892405 0.225637 0.006623
v 0.485055 0.149964 0.003057
v 0.485063 0.198242 0.032796
v 0.892387 0.195742 0.035712
v 0.847282 0.149964 0.004547
v 0.892386 0.156213 0.008281
v 0.892236 0.156467 -0.004948
v 0.847282 0.149964 -0.006120
vn -0.1432 0.9897 -0.0000
vn -0.0109 0.0793 0.9968
vn -0.0000 -1.0000 -0.0000
vn 1.0000 -0.0022 -0.0016
vn 0.0049 0.1650 -0.9863
vn 0.0094 0.5564 -0.8309
vn 0.0028 0.9975 0.0711
vn 0.0077 0.1258 -0.9920
vn -0.1389 0.9901 0.0206
vn -0.0070 0.0176 0.9998
vn -1.0000 -0.0001 0.0002
vn 1.0000 0.0001 -0.0002
vn 1.0000 -0.0003 0.0002
vn -0.0008 -0.9994 -0.0334
vn 1.0000 0.0005 0.0011
vn 0.9999 0.0077 -0.0111
vn 0.0068 0.1758 -0.9844
vn 0.0035 0.5245 -0.8514
vn -0.0110 0.5701 -0.8215
vn -0.0030 0.9891 0.1471
vn 1.0000 -0.0000 0.0002
vn 1.0000 -0.0000 -0.0003
vn 0.0050 0.1758 -0.9844
vn 0.0070 0.1650 -0.9863
vn 0.0034 0.5605 -0.8282
vn 0.0093 0.5245 -0.8514
vn 1.0000 -0.0003 0.0003
vn 0.9999 -0.0005 -0.0113
vn -0.1437 0.9894 0.0206
vn -0.1372 0.9905 -0.0000
s 0
f 11//1 12//1 9//1
f 7//2 4//2 2//2
f 6//3 12//3 9//3
f 5//4 8//4 11//4
f 11//5 1//5 5//5
f 9//6 7//6 8//6
f 1//7 4//7 5//7
f 12//8 3//8 11//8
f 11//9 9//9 10//9
f 7//10 8//10 4//10
f 7//11 2//11 1//11
f 1//12 7//12 3//12
f 7//13 6//13 3//13
f 6//14 3//14 12//14
f 5//15 4//15 8//15
f 8//16 10//16 11//16
f 11//17 3//17 1//17
f 7//18 9//18 6//18
f 9//19 8//19 10//19
f 4//20 1//20 2//20
f 3//21 1//21 6//21
f 6//22 1//22 7//22
f 5//23 3//23 1//23
f 5//24 11//24 3//24
f 9//25 6//25 8//25
f 8//26 6//26 7//26
f 8//27 10//27 5//27
f 10//28 11//28 5//28
f 10//29 11//29 12//29
f 10//30 12//30 9//30
